<?xml version="1.0" encoding="utf-8" standalone="no"?>
<!DOCTYPE svg PUBLIC "-//W3C//DTD SVG 1.1//EN"
  "http://www.w3.org/Graphics/SVG/1.1/DTD/svg11.dtd">
<svg xmlns:xlink="http://www.w3.org/1999/xlink" width="895.669687pt" height="325.986375pt" viewBox="0 0 895.669687 325.986375" xmlns="http://www.w3.org/2000/svg" version="1.1">
 <metadata>
  <rdf:RDF xmlns:dc="http://purl.org/dc/elements/1.1/" xmlns:cc="http://creativecommons.org/ns#" xmlns:rdf="http://www.w3.org/1999/02/22-rdf-syntax-ns#">
   <cc:Work>
    <dc:type rdf:resource="http://purl.org/dc/dcmitype/StillImage"/>
    <dc:date>2026-06-10T06:54:43.420229</dc:date>
    <dc:format>image/svg+xml</dc:format>
    <dc:creator>
     <cc:Agent>
      <dc:title>Matplotlib v3.10.9, https://matplotlib.org/</dc:title>
     </cc:Agent>
    </dc:creator>
   </cc:Work>
  </rdf:RDF>
 </metadata>
 <defs>
  <style type="text/css">*{stroke-linejoin: round; stroke-linecap: butt}</style>
 </defs>
 <g id="figure_1">
  <g id="patch_1">
   <path d="M 0 325.986375 
L 895.669688 325.986375 
L 895.669688 0 
L 0 0 
z
" style="fill: #ffffff"/>
  </g>
  <g id="axes_1">
   <g id="patch_2">
    <path d="M 53.328125 288.430125 
L 767.568125 288.430125 
L 767.568125 22.318125 
L 53.328125 22.318125 
z
" style="fill: #ffffff"/>
   </g>
   <g id="FillBetweenPolyCollection_1">
    <defs>
     <path id="m1410a8a7cd" d="M 53.328125 -49.65225 
L 53.328125 -49.65225 
L 535.953577 -123.263802 
L 574.548755 -159.944813 
L 597.125486 -171.922286 
L 613.143932 -184.024524 
L 625.568804 -192.009506 
L 635.720663 -193.381925 
L 644.303938 -196.625824 
L 651.739109 -201.491672 
L 658.297395 -205.109867 
L 664.163981 -213.843441 
L 669.470954 -215.465391 
L 674.315841 -219.457882 
L 678.772704 -220.331239 
L 682.899116 -221.703658 
L 686.740713 -224.448495 
L 690.334287 -224.822792 
L 693.70993 -227.318098 
L 696.892572 -228.316221 
L 699.903093 -228.815282 
L 702.759158 -233.681131 
L 705.475847 -234.055427 
L 708.066131 -236.301203 
L 710.541253 -239.046041 
L 712.911018 -239.420337 
L 715.18403 -239.669867 
L 717.367882 -240.293694 
L 719.469304 -241.042286 
L 721.494293 -242.913766 
L 723.448215 -243.412828 
L 725.33589 -243.662358 
L 727.161662 -244.660481 
L 728.929464 -245.658604 
L 730.642863 -246.407196 
L 732.305108 -246.781492 
L 733.919165 -249.651095 
L 735.487749 -249.77586 
L 737.013354 -250.274921 
L 738.49827 -250.898748 
L 739.944613 -251.273044 
L 741.354336 -251.64734 
L 742.729247 -251.772106 
L 744.071024 -252.395932 
L 745.381228 -253.019759 
L 746.661309 -253.394055 
L 747.912621 -253.768351 
L 749.13643 -254.392178 
L 750.333919 -254.516943 
L 751.506195 -254.516943 
L 752.654299 -254.516943 
L 753.779208 -254.641708 
L 754.881839 -263.375282 
L 755.963059 -263.500048 
L 757.023683 -263.999109 
L 758.064481 -264.373405 
L 759.086181 -264.373405 
L 760.08947 -264.373405 
L 761.075002 -264.373405 
L 762.043392 -265.371528 
L 762.995229 -265.621059 
L 763.931067 -265.621059 
L 764.851436 -265.621059 
L 764.851436 -290.574127 
L 764.851436 -290.574127 
L 763.931067 -290.574127 
L 762.995229 -290.574127 
L 762.043392 -290.574127 
L 761.075002 -289.825535 
L 760.08947 -289.576005 
L 759.086181 -288.577882 
L 758.064481 -287.080698 
L 757.023683 -286.831167 
L 755.963059 -286.332106 
L 754.881839 -286.082575 
L 753.779208 -286.082575 
L 752.654299 -285.95781 
L 751.506195 -285.708279 
L 750.333919 -285.708279 
L 749.13643 -285.583514 
L 747.912621 -285.333983 
L 746.661309 -284.959687 
L 745.381228 -284.585391 
L 744.071024 -283.587268 
L 742.729247 -281.466257 
L 741.354336 -281.216727 
L 739.944613 -280.717665 
L 738.49827 -280.343369 
L 737.013354 -279.470012 
L 735.487749 -279.345246 
L 733.919165 -278.97095 
L 732.305108 -278.347124 
L 730.642863 -278.097593 
L 728.929464 -277.723297 
L 727.161662 -276.725174 
L 725.33589 -275.477521 
L 723.448215 -271.73456 
L 721.494293 -265.371528 
L 719.469304 -264.123875 
L 717.367882 -263.624813 
L 715.18403 -262.252394 
L 712.911018 -261.878098 
L 710.541253 -261.503802 
L 708.066131 -259.008495 
L 705.475847 -258.259903 
L 702.759158 -256.887485 
L 699.903093 -255.639831 
L 696.892572 -251.522575 
L 693.70993 -247.90438 
L 690.334287 -246.531961 
L 686.740713 -241.666113 
L 682.899116 -239.669867 
L 678.772704 -239.420337 
L 674.315841 -236.425968 
L 669.470954 -231.185824 
L 664.163981 -229.563875 
L 658.297395 -213.593911 
L 651.739109 -212.096727 
L 644.303938 -208.104236 
L 635.720663 -206.731817 
L 625.568804 -203.986979 
L 613.143932 -196.376293 
L 597.125486 -189.389434 
L 574.548755 -168.803153 
L 535.953577 -134.742214 
L 53.328125 -49.65225 
z
" style="stroke: #c7c7c7; stroke-opacity: 0.2"/>
    </defs>
    <g clip-path="url(#pc7384c4dd3)">
     <use xlink:href="#m1410a8a7cd" x="0" y="325.986375" style="fill: #c7c7c7; fill-opacity: 0.2; stroke: #c7c7c7; stroke-opacity: 0.2"/>
    </g>
   </g>
   <g id="FillBetweenPolyCollection_2">
    <defs>
     <path id="m5b8e7b62b4" d="M 53.328125 -49.65225 
L 53.328125 -49.65225 
L 535.953577 -99.059326 
L 574.548755 -100.930806 
L 597.125486 -102.802286 
L 613.143932 -106.545246 
L 625.568804 -108.042431 
L 635.720663 -108.416727 
L 644.303938 -115.154055 
L 651.739109 -132.745968 
L 658.297395 -141.479542 
L 664.163981 -142.477665 
L 669.470954 -142.851961 
L 674.315841 -143.475788 
L 678.772704 -145.971095 
L 682.899116 -148.591167 
L 686.740713 -149.963586 
L 690.334287 -151.835066 
L 693.70993 -153.457015 
L 696.892572 -154.330373 
L 699.903093 -155.702792 
L 702.759158 -157.07521 
L 705.475847 -158.073333 
L 708.066131 -158.198098 
L 710.541253 -163.563008 
L 712.911018 -164.935427 
L 715.18403 -166.058315 
L 717.367882 -166.432611 
L 719.469304 -167.056438 
L 721.494293 -168.428856 
L 723.448215 -170.300337 
L 725.33589 -176.663369 
L 727.161662 -177.037665 
L 728.929464 -185.022647 
L 730.642863 -187.89225 
L 732.305108 -188.141781 
L 733.919165 -188.890373 
L 735.487749 -189.264669 
L 737.013354 -190.013261 
L 738.49827 -198.123008 
L 739.944613 -199.620192 
L 741.354336 -200.119254 
L 742.729247 -203.363153 
L 744.071024 -208.977593 
L 745.381228 -211.722431 
L 746.661309 -211.971961 
L 747.912621 -212.970084 
L 749.13643 -212.970084 
L 750.333919 -237.049795 
L 751.506195 -243.787124 
L 752.654299 -246.157665 
L 753.779208 -247.280553 
L 754.881839 -248.902503 
L 755.963059 -254.392178 
L 757.023683 -256.513189 
L 758.064481 -256.762719 
L 759.086181 -257.511311 
L 760.08947 -258.010373 
L 761.075002 -258.634199 
L 762.043392 -258.634199 
L 762.995229 -258.88373 
L 763.931067 -259.258026 
L 764.851436 -259.632322 
L 764.851436 -286.456871 
L 764.851436 -286.456871 
L 763.931067 -285.833044 
L 762.995229 -285.833044 
L 762.043392 -285.084452 
L 761.075002 -284.710156 
L 760.08947 -283.712033 
L 759.086181 -283.587268 
L 758.064481 -283.462503 
L 757.023683 -283.462503 
L 755.963059 -283.212972 
L 754.881839 -283.088207 
L 753.779208 -282.090084 
L 752.654299 -281.216727 
L 751.506195 -280.967196 
L 750.333919 -280.343369 
L 749.13643 -279.345246 
L 747.912621 -277.349001 
L 746.661309 -277.09947 
L 745.381228 -277.09947 
L 744.071024 -276.350878 
L 742.729247 -276.101347 
L 741.354336 -275.352755 
L 739.944613 -275.22799 
L 738.49827 -275.103225 
L 737.013354 -274.728929 
L 735.487749 -274.479398 
L 733.919165 -274.105102 
L 732.305108 -273.980337 
L 730.642863 -273.231745 
L 728.929464 -273.231745 
L 727.161662 -271.859326 
L 725.33589 -271.859326 
L 723.448215 -271.235499 
L 721.494293 -270.736438 
L 719.469304 -268.989723 
L 717.367882 -266.244885 
L 715.18403 -265.621059 
L 712.911018 -260.75521 
L 710.541253 -259.008495 
L 708.066131 -255.390301 
L 705.475847 -254.891239 
L 702.759158 -252.894994 
L 699.903093 -252.271167 
L 696.892572 -251.023514 
L 693.70993 -250.150156 
L 690.334287 -249.651095 
L 686.740713 -248.528207 
L 682.899116 -247.280553 
L 678.772704 -220.955066 
L 674.315841 -220.206474 
L 669.470954 -218.459759 
L 664.163981 -215.091095 
L 658.297395 -208.728062 
L 651.739109 -206.357521 
L 644.303938 -205.234633 
L 635.720663 -192.633333 
L 625.568804 -189.638965 
L 613.143932 -189.638965 
L 597.125486 -173.045174 
L 574.548755 -161.067701 
L 535.953577 -137.487051 
L 53.328125 -49.65225 
z
" style="stroke: #98df8a; stroke-opacity: 0.2"/>
    </defs>
    <g clip-path="url(#pc7384c4dd3)">
     <use xlink:href="#m5b8e7b62b4" x="0" y="325.986375" style="fill: #98df8a; fill-opacity: 0.2; stroke: #98df8a; stroke-opacity: 0.2"/>
    </g>
   </g>
   <g id="FillBetweenPolyCollection_3">
    <defs>
     <path id="m4dd599dbda" d="M 53.328125 -49.65225 
L 53.328125 -49.65225 
L 535.953577 -97.06308 
L 574.548755 -98.061203 
L 597.125486 -99.433622 
L 613.143932 -106.794777 
L 625.568804 -114.031167 
L 635.720663 -119.895138 
L 644.303938 -138.235644 
L 651.739109 -138.485174 
L 658.297395 -148.715932 
L 664.163981 -149.714055 
L 669.470954 -150.712178 
L 674.315841 -151.710301 
L 678.772704 -153.581781 
L 682.899116 -155.578026 
L 686.740713 -158.073333 
L 690.334287 -158.94669 
L 693.70993 -159.196221 
L 696.892572 -167.305968 
L 699.903093 -167.305968 
L 702.759158 -167.929795 
L 705.475847 -171.922286 
L 708.066131 -173.16994 
L 710.541253 -174.417593 
L 712.911018 -176.413838 
L 715.18403 -176.788134 
L 717.367882 -178.410084 
L 719.469304 -185.521708 
L 721.494293 -188.141781 
L 723.448215 -189.139903 
L 725.33589 -190.138026 
L 727.161662 -191.260914 
L 728.929464 -192.882864 
L 730.642863 -193.50669 
L 732.305108 -193.756221 
L 733.919165 -194.005752 
L 735.487749 -194.754344 
L 737.013354 -195.12864 
L 738.49827 -195.502936 
L 739.944613 -195.877232 
L 741.354336 -207.480409 
L 742.729247 -207.72994 
L 744.071024 -208.478532 
L 745.381228 -208.728062 
L 746.661309 -212.346257 
L 747.912621 -213.968207 
L 749.13643 -214.342503 
L 750.333919 -219.457882 
L 751.506195 -219.707412 
L 752.654299 -219.832178 
L 753.779208 -221.703658 
L 754.881839 -222.701781 
L 755.963059 -223.200842 
L 757.023683 -228.940048 
L 758.064481 -229.439109 
L 759.086181 -229.563875 
L 760.08947 -230.561997 
L 761.075002 -233.057304 
L 762.043392 -235.427846 
L 762.995229 -237.673622 
L 763.931067 -237.798387 
L 764.851436 -238.047918 
L 764.851436 -291.57225 
L 764.851436 -291.57225 
L 763.931067 -290.948423 
L 762.995229 -290.574127 
L 762.043392 -288.952178 
L 761.075002 -288.203586 
L 760.08947 -288.203586 
L 759.086181 -286.456871 
L 758.064481 -286.332106 
L 757.023683 -286.332106 
L 755.963059 -284.086329 
L 754.881839 -283.587268 
L 753.779208 -282.963441 
L 752.654299 -282.589145 
L 751.506195 -282.214849 
L 750.333919 -281.840553 
L 749.13643 -279.844308 
L 747.912621 -279.594777 
L 746.661309 -278.846185 
L 745.381228 -278.471889 
L 744.071024 -278.222358 
L 742.729247 -277.473766 
L 741.354336 -275.851817 
L 739.944613 -275.727051 
L 738.49827 -275.727051 
L 737.013354 -275.103225 
L 735.487749 -273.980337 
L 733.919165 -271.609795 
L 732.305108 -271.360264 
L 730.642863 -268.365896 
L 728.929464 -268.116366 
L 727.161662 -268.116366 
L 725.33589 -268.116366 
L 723.448215 -267.742069 
L 721.494293 -245.908134 
L 719.469304 -245.783369 
L 717.367882 -240.66799 
L 715.18403 -239.545102 
L 712.911018 -238.671745 
L 710.541253 -237.673622 
L 708.066131 -236.92503 
L 705.475847 -235.427846 
L 702.759158 -233.556366 
L 699.903093 -232.932539 
L 696.892572 -231.185824 
L 693.70993 -230.936293 
L 690.334287 -229.563875 
L 686.740713 -224.448495 
L 682.899116 -223.824669 
L 678.772704 -219.083586 
L 674.315841 -217.336871 
L 669.470954 -215.714921 
L 664.163981 -215.21586 
L 658.297395 -214.592033 
L 651.739109 -213.968207 
L 644.303938 -205.983225 
L 635.720663 -203.612683 
L 625.568804 -202.61456 
L 613.143932 -192.508568 
L 597.125486 -190.013261 
L 574.548755 -164.3116 
L 535.953577 -136.364163 
L 53.328125 -49.65225 
z
" style="stroke: #d62728; stroke-opacity: 0.2"/>
    </defs>
    <g clip-path="url(#pc7384c4dd3)">
     <use xlink:href="#m4dd599dbda" x="0" y="325.986375" style="fill: #d62728; fill-opacity: 0.2; stroke: #d62728; stroke-opacity: 0.2"/>
    </g>
   </g>
   <g id="FillBetweenPolyCollection_4">
    <defs>
     <path id="m725bbdf63e" d="M 53.328125 -49.65225 
L 53.328125 -49.65225 
L 535.953577 -98.809795 
L 574.548755 -106.108568 
L 597.125486 -106.670012 
L 613.143932 -112.783514 
L 625.568804 -116.776005 
L 635.720663 -136.738459 
L 644.303938 -137.112755 
L 651.739109 -144.972972 
L 658.297395 -150.899326 
L 664.163981 -156.443586 
L 669.470954 -153.706546 
L 674.315841 -153.956077 
L 678.772704 -161.816293 
L 682.899116 -163.438243 
L 686.740713 -171.04269 
L 690.334287 -172.047051 
L 693.70993 -172.920409 
L 696.892572 -173.294705 
L 699.903093 -174.916654 
L 702.759158 -182.402575 
L 705.475847 -186.997059 
L 708.066131 -184.897882 
L 710.541253 -186.644597 
L 712.911018 -191.63521 
L 715.18403 -193.880986 
L 717.367882 -197.374416 
L 719.469304 -197.499181 
L 721.494293 -198.497304 
L 723.448215 -198.622069 
L 725.33589 -200.867846 
L 727.161662 -200.992611 
L 728.929464 -205.546546 
L 730.642863 -206.736495 
L 732.305108 -205.359398 
L 733.919165 -206.232755 
L 735.487749 -209.788568 
L 737.013354 -207.106113 
L 738.49827 -213.34438 
L 739.944613 -215.465391 
L 741.354336 -217.960698 
L 742.729247 -219.832178 
L 744.071024 -221.578893 
L 745.381228 -222.202719 
L 746.661309 -223.575138 
L 747.912621 -224.448495 
L 749.13643 -227.318098 
L 750.333919 -227.81716 
L 751.506195 -229.439109 
L 752.654299 -232.183947 
L 753.779208 -230.936293 
L 754.881839 -231.809651 
L 755.963059 -233.681131 
L 757.023683 -238.297449 
L 758.064481 -240.293694 
L 759.086181 -243.288062 
L 760.08947 -244.16142 
L 761.075002 -244.535716 
L 762.043392 -244.910012 
L 762.995229 -245.405954 
L 763.931067 -245.533838 
L 764.851436 -245.783369 
L 764.851436 -270.486907 
L 764.851436 -270.486907 
L 763.931067 -269.997203 
L 762.995229 -269.61355 
L 762.043392 -264.810084 
L 761.075002 -262.689073 
L 760.08947 -263.999109 
L 759.086181 -263.125752 
L 758.064481 -259.258026 
L 757.023683 -259.008495 
L 755.963059 -259.008495 
L 754.881839 -258.758965 
L 753.779208 -258.509434 
L 752.654299 -253.206907 
L 751.506195 -257.636077 
L 750.333919 -257.386546 
L 749.13643 -252.021636 
L 747.912621 -257.137015 
L 746.661309 -257.137015 
L 745.381228 -256.887485 
L 744.071024 -256.762719 
L 742.729247 -256.263658 
L 741.354336 -255.889362 
L 739.944613 -248.487658 
L 738.49827 -246.96864 
L 737.013354 -252.021636 
L 735.487749 -251.522575 
L 733.919165 -245.901896 
L 732.305108 -249.651095 
L 730.642863 -243.812077 
L 728.929464 -243.038532 
L 727.161662 -249.152033 
L 725.33589 -249.027268 
L 723.448215 -240.627441 
L 721.494293 -247.405319 
L 719.469304 -246.407196 
L 717.367882 -237.736005 
L 715.18403 -236.862647 
L 712.911018 -244.286185 
L 710.541253 -233.556366 
L 708.066131 -229.439109 
L 705.475847 -228.565752 
L 702.759158 -222.701781 
L 699.903093 -222.202719 
L 696.892572 -218.085463 
L 693.70993 -217.835932 
L 690.334287 -217.08734 
L 686.740713 -213.972885 
L 682.899116 -215.091095 
L 678.772704 -213.469145 
L 674.315841 -212.845319 
L 669.470954 -212.221492 
L 664.163981 -211.4729 
L 658.297395 -204.985102 
L 651.739109 -204.797954 
L 644.303938 -208.229001 
L 635.720663 -205.983225 
L 625.568804 -186.02077 
L 613.143932 -177.536727 
L 597.125486 -162.315355 
L 574.548755 -148.965463 
L 535.953577 -108.791023 
L 53.328125 -49.65225 
z
" style="stroke: #1f77b4; stroke-opacity: 0.2"/>
    </defs>
    <g clip-path="url(#pc7384c4dd3)">
     <use xlink:href="#m725bbdf63e" x="0" y="325.986375" style="fill: #1f77b4; fill-opacity: 0.2; stroke: #1f77b4; stroke-opacity: 0.2"/>
    </g>
   </g>
   <g id="matplotlib.axis_1">
    <g id="xtick_1">
     <g id="line2d_1">
      <defs>
       <path id="mfc8c23664d" d="M 0 0 
L 0 3.5 
" style="stroke: #000000; stroke-width: 0.8"/>
      </defs>
      <g>
       <use xlink:href="#mfc8c23664d" x="53.328125" y="288.430125" style="stroke: #000000; stroke-width: 0.8"/>
      </g>
     </g>
     <g id="text_1">
      <!-- 0m -->
      <g transform="translate(45.276563 303.028562) scale(0.1 -0.1)">
       <defs>
        <path id="DejaVuSans-30" d="M 2034 4250 
Q 1547 4250 1301 3770 
Q 1056 3291 1056 2328 
Q 1056 1369 1301 889 
Q 1547 409 2034 409 
Q 2525 409 2770 889 
Q 3016 1369 3016 2328 
Q 3016 3291 2770 3770 
Q 2525 4250 2034 4250 
z
M 2034 4750 
Q 2819 4750 3233 4129 
Q 3647 3509 3647 2328 
Q 3647 1150 3233 529 
Q 2819 -91 2034 -91 
Q 1250 -91 836 529 
Q 422 1150 422 2328 
Q 422 3509 836 4129 
Q 1250 4750 2034 4750 
z
" transform="scale(0.015625)"/>
        <path id="DejaVuSans-6d" d="M 3328 2828 
Q 3544 3216 3844 3400 
Q 4144 3584 4550 3584 
Q 5097 3584 5394 3201 
Q 5691 2819 5691 2113 
L 5691 0 
L 5113 0 
L 5113 2094 
Q 5113 2597 4934 2840 
Q 4756 3084 4391 3084 
Q 3944 3084 3684 2787 
Q 3425 2491 3425 1978 
L 3425 0 
L 2847 0 
L 2847 2094 
Q 2847 2600 2669 2842 
Q 2491 3084 2119 3084 
Q 1678 3084 1418 2786 
Q 1159 2488 1159 1978 
L 1159 0 
L 581 0 
L 581 3500 
L 1159 3500 
L 1159 2956 
Q 1356 3278 1631 3431 
Q 1906 3584 2284 3584 
Q 2666 3584 2933 3390 
Q 3200 3197 3328 2828 
z
" transform="scale(0.015625)"/>
       </defs>
       <use xlink:href="#DejaVuSans-30"/>
       <use xlink:href="#DejaVuSans-6d" transform="translate(63.623047 0)"/>
      </g>
     </g>
    </g>
    <g id="xtick_2">
     <g id="line2d_2">
      <g>
       <use xlink:href="#mfc8c23664d" x="124.556127" y="288.430125" style="stroke: #000000; stroke-width: 0.8"/>
      </g>
     </g>
    </g>
    <g id="xtick_3">
     <g id="line2d_3">
      <g>
       <use xlink:href="#mfc8c23664d" x="217.955302" y="288.430125" style="stroke: #000000; stroke-width: 0.8"/>
      </g>
     </g>
    </g>
    <g id="xtick_4">
     <g id="line2d_4">
      <g>
       <use xlink:href="#mfc8c23664d" x="278.721652" y="288.430125" style="stroke: #000000; stroke-width: 0.8"/>
      </g>
     </g>
    </g>
    <g id="xtick_5">
     <g id="line2d_5">
      <g>
       <use xlink:href="#mfc8c23664d" x="339.488002" y="288.430125" style="stroke: #000000; stroke-width: 0.8"/>
      </g>
     </g>
    </g>
    <g id="xtick_6">
     <g id="line2d_6">
      <g>
       <use xlink:href="#mfc8c23664d" x="400.254351" y="288.430125" style="stroke: #000000; stroke-width: 0.8"/>
      </g>
     </g>
     <g id="text_2">
      <!-- 1m -->
      <g transform="translate(392.202789 303.028562) scale(0.1 -0.1)">
       <defs>
        <path id="DejaVuSans-31" d="M 794 531 
L 1825 531 
L 1825 4091 
L 703 3866 
L 703 4441 
L 1819 4666 
L 2450 4666 
L 2450 531 
L 3481 531 
L 3481 0 
L 794 0 
L 794 531 
z
" transform="scale(0.015625)"/>
       </defs>
       <use xlink:href="#DejaVuSans-31"/>
       <use xlink:href="#DejaVuSans-6d" transform="translate(63.623047 0)"/>
      </g>
     </g>
    </g>
    <g id="xtick_7">
     <g id="line2d_7">
      <g>
       <use xlink:href="#mfc8c23664d" x="461.020701" y="288.430125" style="stroke: #000000; stroke-width: 0.8"/>
      </g>
     </g>
     <g id="text_3">
      <!-- 3m -->
      <g transform="translate(452.969139 303.028562) scale(0.1 -0.1)">
       <defs>
        <path id="DejaVuSans-33" d="M 2597 2516 
Q 3050 2419 3304 2112 
Q 3559 1806 3559 1356 
Q 3559 666 3084 287 
Q 2609 -91 1734 -91 
Q 1441 -91 1130 -33 
Q 819 25 488 141 
L 488 750 
Q 750 597 1062 519 
Q 1375 441 1716 441 
Q 2309 441 2620 675 
Q 2931 909 2931 1356 
Q 2931 1769 2642 2001 
Q 2353 2234 1838 2234 
L 1294 2234 
L 1294 2753 
L 1863 2753 
Q 2328 2753 2575 2939 
Q 2822 3125 2822 3475 
Q 2822 3834 2567 4026 
Q 2313 4219 1838 4219 
Q 1578 4219 1281 4162 
Q 984 4106 628 3988 
L 628 4550 
Q 988 4650 1302 4700 
Q 1616 4750 1894 4750 
Q 2613 4750 3031 4423 
Q 3450 4097 3450 3541 
Q 3450 3153 3228 2886 
Q 3006 2619 2597 2516 
z
" transform="scale(0.015625)"/>
       </defs>
       <use xlink:href="#DejaVuSans-33"/>
       <use xlink:href="#DejaVuSans-6d" transform="translate(63.623047 0)"/>
      </g>
     </g>
    </g>
    <g id="xtick_8">
     <g id="line2d_8">
      <g>
       <use xlink:href="#mfc8c23664d" x="521.787051" y="288.430125" style="stroke: #000000; stroke-width: 0.8"/>
      </g>
     </g>
     <g id="text_4">
      <!-- 11m -->
      <g transform="translate(510.554239 303.028562) scale(0.1 -0.1)">
       <use xlink:href="#DejaVuSans-31"/>
       <use xlink:href="#DejaVuSans-31" transform="translate(63.623047 0)"/>
       <use xlink:href="#DejaVuSans-6d" transform="translate(127.246094 0)"/>
      </g>
     </g>
    </g>
    <g id="xtick_9">
     <g id="line2d_9">
      <g>
       <use xlink:href="#mfc8c23664d" x="582.553401" y="288.430125" style="stroke: #000000; stroke-width: 0.8"/>
      </g>
     </g>
     <g id="text_5">
      <!-- 34m -->
      <g transform="translate(571.320589 303.028562) scale(0.1 -0.1)">
       <defs>
        <path id="DejaVuSans-34" d="M 2419 4116 
L 825 1625 
L 2419 1625 
L 2419 4116 
z
M 2253 4666 
L 3047 4666 
L 3047 1625 
L 3713 1625 
L 3713 1100 
L 3047 1100 
L 3047 0 
L 2419 0 
L 2419 1100 
L 313 1100 
L 313 1709 
L 2253 4666 
z
" transform="scale(0.015625)"/>
       </defs>
       <use xlink:href="#DejaVuSans-33"/>
       <use xlink:href="#DejaVuSans-34" transform="translate(63.623047 0)"/>
       <use xlink:href="#DejaVuSans-6d" transform="translate(127.246094 0)"/>
      </g>
     </g>
    </g>
    <g id="xtick_10">
     <g id="line2d_10">
      <g>
       <use xlink:href="#mfc8c23664d" x="643.319751" y="288.430125" style="stroke: #000000; stroke-width: 0.8"/>
      </g>
     </g>
     <g id="text_6">
      <!-- 1h:43m -->
      <g transform="translate(624.052563 303.028562) scale(0.1 -0.1)">
       <defs>
        <path id="DejaVuSans-68" d="M 3513 2113 
L 3513 0 
L 2938 0 
L 2938 2094 
Q 2938 2591 2744 2837 
Q 2550 3084 2163 3084 
Q 1697 3084 1428 2787 
Q 1159 2491 1159 1978 
L 1159 0 
L 581 0 
L 581 4863 
L 1159 4863 
L 1159 2956 
Q 1366 3272 1645 3428 
Q 1925 3584 2291 3584 
Q 2894 3584 3203 3211 
Q 3513 2838 3513 2113 
z
" transform="scale(0.015625)"/>
        <path id="DejaVuSans-3a" d="M 750 794 
L 1409 794 
L 1409 0 
L 750 0 
L 750 794 
z
M 750 3309 
L 1409 3309 
L 1409 2516 
L 750 2516 
L 750 3309 
z
" transform="scale(0.015625)"/>
       </defs>
       <use xlink:href="#DejaVuSans-31"/>
       <use xlink:href="#DejaVuSans-68" transform="translate(63.623047 0)"/>
       <use xlink:href="#DejaVuSans-3a" transform="translate(127.001953 0)"/>
       <use xlink:href="#DejaVuSans-34" transform="translate(160.693359 0)"/>
       <use xlink:href="#DejaVuSans-33" transform="translate(224.316406 0)"/>
       <use xlink:href="#DejaVuSans-6d" transform="translate(287.939453 0)"/>
      </g>
     </g>
    </g>
    <g id="xtick_11">
     <g id="line2d_11">
      <g>
       <use xlink:href="#mfc8c23664d" x="704.086101" y="288.430125" style="stroke: #000000; stroke-width: 0.8"/>
      </g>
     </g>
     <g id="text_7">
      <!-- 5h:7m -->
      <g transform="translate(688.000163 303.028562) scale(0.1 -0.1)">
       <defs>
        <path id="DejaVuSans-35" d="M 691 4666 
L 3169 4666 
L 3169 4134 
L 1269 4134 
L 1269 2991 
Q 1406 3038 1543 3061 
Q 1681 3084 1819 3084 
Q 2600 3084 3056 2656 
Q 3513 2228 3513 1497 
Q 3513 744 3044 326 
Q 2575 -91 1722 -91 
Q 1428 -91 1123 -41 
Q 819 9 494 109 
L 494 744 
Q 775 591 1075 516 
Q 1375 441 1709 441 
Q 2250 441 2565 725 
Q 2881 1009 2881 1497 
Q 2881 1984 2565 2268 
Q 2250 2553 1709 2553 
Q 1456 2553 1204 2497 
Q 953 2441 691 2322 
L 691 4666 
z
" transform="scale(0.015625)"/>
        <path id="DejaVuSans-37" d="M 525 4666 
L 3525 4666 
L 3525 4397 
L 1831 0 
L 1172 0 
L 2766 4134 
L 525 4134 
L 525 4666 
z
" transform="scale(0.015625)"/>
       </defs>
       <use xlink:href="#DejaVuSans-35"/>
       <use xlink:href="#DejaVuSans-68" transform="translate(63.623047 0)"/>
       <use xlink:href="#DejaVuSans-3a" transform="translate(127.001953 0)"/>
       <use xlink:href="#DejaVuSans-37" transform="translate(160.693359 0)"/>
       <use xlink:href="#DejaVuSans-6d" transform="translate(224.316406 0)"/>
      </g>
     </g>
    </g>
    <g id="xtick_12">
     <g id="line2d_12">
      <g>
       <use xlink:href="#mfc8c23664d" x="764.852451" y="288.430125" style="stroke: #000000; stroke-width: 0.8"/>
      </g>
     </g>
     <g id="text_8">
      <!-- 15h:15m -->
      <g transform="translate(742.404013 303.028562) scale(0.1 -0.1)">
       <use xlink:href="#DejaVuSans-31"/>
       <use xlink:href="#DejaVuSans-35" transform="translate(63.623047 0)"/>
       <use xlink:href="#DejaVuSans-68" transform="translate(127.246094 0)"/>
       <use xlink:href="#DejaVuSans-3a" transform="translate(190.625 0)"/>
       <use xlink:href="#DejaVuSans-31" transform="translate(224.316406 0)"/>
       <use xlink:href="#DejaVuSans-35" transform="translate(287.939453 0)"/>
       <use xlink:href="#DejaVuSans-6d" transform="translate(351.5625 0)"/>
      </g>
     </g>
    </g>
    <g id="text_9">
     <!-- Time (hour:minute) -->
     <g transform="translate(362.041094 316.706687) scale(0.1 -0.1)">
      <defs>
       <path id="DejaVuSans-54" d="M -19 4666 
L 3928 4666 
L 3928 4134 
L 2272 4134 
L 2272 0 
L 1638 0 
L 1638 4134 
L -19 4134 
L -19 4666 
z
" transform="scale(0.015625)"/>
       <path id="DejaVuSans-69" d="M 603 3500 
L 1178 3500 
L 1178 0 
L 603 0 
L 603 3500 
z
M 603 4863 
L 1178 4863 
L 1178 4134 
L 603 4134 
L 603 4863 
z
" transform="scale(0.015625)"/>
       <path id="DejaVuSans-65" d="M 3597 1894 
L 3597 1613 
L 953 1613 
Q 991 1019 1311 708 
Q 1631 397 2203 397 
Q 2534 397 2845 478 
Q 3156 559 3463 722 
L 3463 178 
Q 3153 47 2828 -22 
Q 2503 -91 2169 -91 
Q 1331 -91 842 396 
Q 353 884 353 1716 
Q 353 2575 817 3079 
Q 1281 3584 2069 3584 
Q 2775 3584 3186 3129 
Q 3597 2675 3597 1894 
z
M 3022 2063 
Q 3016 2534 2758 2815 
Q 2500 3097 2075 3097 
Q 1594 3097 1305 2825 
Q 1016 2553 972 2059 
L 3022 2063 
z
" transform="scale(0.015625)"/>
       <path id="DejaVuSans-20" transform="scale(0.015625)"/>
       <path id="DejaVuSans-28" d="M 1984 4856 
Q 1566 4138 1362 3434 
Q 1159 2731 1159 2009 
Q 1159 1288 1364 580 
Q 1569 -128 1984 -844 
L 1484 -844 
Q 1016 -109 783 600 
Q 550 1309 550 2009 
Q 550 2706 781 3412 
Q 1013 4119 1484 4856 
L 1984 4856 
z
" transform="scale(0.015625)"/>
       <path id="DejaVuSans-6f" d="M 1959 3097 
Q 1497 3097 1228 2736 
Q 959 2375 959 1747 
Q 959 1119 1226 758 
Q 1494 397 1959 397 
Q 2419 397 2687 759 
Q 2956 1122 2956 1747 
Q 2956 2369 2687 2733 
Q 2419 3097 1959 3097 
z
M 1959 3584 
Q 2709 3584 3137 3096 
Q 3566 2609 3566 1747 
Q 3566 888 3137 398 
Q 2709 -91 1959 -91 
Q 1206 -91 779 398 
Q 353 888 353 1747 
Q 353 2609 779 3096 
Q 1206 3584 1959 3584 
z
" transform="scale(0.015625)"/>
       <path id="DejaVuSans-75" d="M 544 1381 
L 544 3500 
L 1119 3500 
L 1119 1403 
Q 1119 906 1312 657 
Q 1506 409 1894 409 
Q 2359 409 2629 706 
Q 2900 1003 2900 1516 
L 2900 3500 
L 3475 3500 
L 3475 0 
L 2900 0 
L 2900 538 
Q 2691 219 2414 64 
Q 2138 -91 1772 -91 
Q 1169 -91 856 284 
Q 544 659 544 1381 
z
M 1991 3584 
L 1991 3584 
z
" transform="scale(0.015625)"/>
       <path id="DejaVuSans-72" d="M 2631 2963 
Q 2534 3019 2420 3045 
Q 2306 3072 2169 3072 
Q 1681 3072 1420 2755 
Q 1159 2438 1159 1844 
L 1159 0 
L 581 0 
L 581 3500 
L 1159 3500 
L 1159 2956 
Q 1341 3275 1631 3429 
Q 1922 3584 2338 3584 
Q 2397 3584 2469 3576 
Q 2541 3569 2628 3553 
L 2631 2963 
z
" transform="scale(0.015625)"/>
       <path id="DejaVuSans-6e" d="M 3513 2113 
L 3513 0 
L 2938 0 
L 2938 2094 
Q 2938 2591 2744 2837 
Q 2550 3084 2163 3084 
Q 1697 3084 1428 2787 
Q 1159 2491 1159 1978 
L 1159 0 
L 581 0 
L 581 3500 
L 1159 3500 
L 1159 2956 
Q 1366 3272 1645 3428 
Q 1925 3584 2291 3584 
Q 2894 3584 3203 3211 
Q 3513 2838 3513 2113 
z
" transform="scale(0.015625)"/>
       <path id="DejaVuSans-74" d="M 1172 4494 
L 1172 3500 
L 2356 3500 
L 2356 3053 
L 1172 3053 
L 1172 1153 
Q 1172 725 1289 603 
Q 1406 481 1766 481 
L 2356 481 
L 2356 0 
L 1766 0 
Q 1100 0 847 248 
Q 594 497 594 1153 
L 594 3053 
L 172 3053 
L 172 3500 
L 594 3500 
L 594 4494 
L 1172 4494 
z
" transform="scale(0.015625)"/>
       <path id="DejaVuSans-29" d="M 513 4856 
L 1013 4856 
Q 1481 4119 1714 3412 
Q 1947 2706 1947 2009 
Q 1947 1309 1714 600 
Q 1481 -109 1013 -844 
L 513 -844 
Q 928 -128 1133 580 
Q 1338 1288 1338 2009 
Q 1338 2731 1133 3434 
Q 928 4138 513 4856 
z
" transform="scale(0.015625)"/>
      </defs>
      <use xlink:href="#DejaVuSans-54"/>
      <use xlink:href="#DejaVuSans-69" transform="translate(57.958984 0)"/>
      <use xlink:href="#DejaVuSans-6d" transform="translate(85.742188 0)"/>
      <use xlink:href="#DejaVuSans-65" transform="translate(183.154297 0)"/>
      <use xlink:href="#DejaVuSans-20" transform="translate(244.677734 0)"/>
      <use xlink:href="#DejaVuSans-28" transform="translate(276.464844 0)"/>
      <use xlink:href="#DejaVuSans-68" transform="translate(315.478516 0)"/>
      <use xlink:href="#DejaVuSans-6f" transform="translate(378.857422 0)"/>
      <use xlink:href="#DejaVuSans-75" transform="translate(440.039062 0)"/>
      <use xlink:href="#DejaVuSans-72" transform="translate(503.417969 0)"/>
      <use xlink:href="#DejaVuSans-3a" transform="translate(542.78125 0)"/>
      <use xlink:href="#DejaVuSans-6d" transform="translate(576.472656 0)"/>
      <use xlink:href="#DejaVuSans-69" transform="translate(673.884766 0)"/>
      <use xlink:href="#DejaVuSans-6e" transform="translate(701.667969 0)"/>
      <use xlink:href="#DejaVuSans-75" transform="translate(765.046875 0)"/>
      <use xlink:href="#DejaVuSans-74" transform="translate(828.425781 0)"/>
      <use xlink:href="#DejaVuSans-65" transform="translate(867.634766 0)"/>
      <use xlink:href="#DejaVuSans-29" transform="translate(929.158203 0)"/>
     </g>
    </g>
   </g>
   <g id="matplotlib.axis_2">
    <g id="ytick_1">
     <g id="line2d_13">
      <defs>
       <path id="m2d068953d6" d="M 0 0 
L -3.5 0 
" style="stroke: #000000; stroke-width: 0.8"/>
      </defs>
      <g>
       <use xlink:href="#m2d068953d6" x="53.328125" y="259.241273" style="stroke: #000000; stroke-width: 0.8"/>
      </g>
     </g>
     <g id="text_10">
      <!-- 4500 -->
      <g transform="translate(20.878125 263.040492) scale(0.1 -0.1)">
       <use xlink:href="#DejaVuSans-34"/>
       <use xlink:href="#DejaVuSans-35" transform="translate(63.623047 0)"/>
       <use xlink:href="#DejaVuSans-30" transform="translate(127.246094 0)"/>
       <use xlink:href="#DejaVuSans-30" transform="translate(190.869141 0)"/>
      </g>
     </g>
    </g>
    <g id="ytick_2">
     <g id="line2d_14">
      <g>
       <use xlink:href="#m2d068953d6" x="53.328125" y="228.049937" style="stroke: #000000; stroke-width: 0.8"/>
      </g>
     </g>
     <g id="text_11">
      <!-- 4750 -->
      <g transform="translate(20.878125 231.849156) scale(0.1 -0.1)">
       <use xlink:href="#DejaVuSans-34"/>
       <use xlink:href="#DejaVuSans-37" transform="translate(63.623047 0)"/>
       <use xlink:href="#DejaVuSans-35" transform="translate(127.246094 0)"/>
       <use xlink:href="#DejaVuSans-30" transform="translate(190.869141 0)"/>
      </g>
     </g>
    </g>
    <g id="ytick_3">
     <g id="line2d_15">
      <g>
       <use xlink:href="#m2d068953d6" x="53.328125" y="196.858602" style="stroke: #000000; stroke-width: 0.8"/>
      </g>
     </g>
     <g id="text_12">
      <!-- 5000 -->
      <g transform="translate(20.878125 200.65782) scale(0.1 -0.1)">
       <use xlink:href="#DejaVuSans-35"/>
       <use xlink:href="#DejaVuSans-30" transform="translate(63.623047 0)"/>
       <use xlink:href="#DejaVuSans-30" transform="translate(127.246094 0)"/>
       <use xlink:href="#DejaVuSans-30" transform="translate(190.869141 0)"/>
      </g>
     </g>
    </g>
    <g id="ytick_4">
     <g id="line2d_16">
      <g>
       <use xlink:href="#m2d068953d6" x="53.328125" y="165.667266" style="stroke: #000000; stroke-width: 0.8"/>
      </g>
     </g>
     <g id="text_13">
      <!-- 5250 -->
      <g transform="translate(20.878125 169.466485) scale(0.1 -0.1)">
       <defs>
        <path id="DejaVuSans-32" d="M 1228 531 
L 3431 531 
L 3431 0 
L 469 0 
L 469 531 
Q 828 903 1448 1529 
Q 2069 2156 2228 2338 
Q 2531 2678 2651 2914 
Q 2772 3150 2772 3378 
Q 2772 3750 2511 3984 
Q 2250 4219 1831 4219 
Q 1534 4219 1204 4116 
Q 875 4013 500 3803 
L 500 4441 
Q 881 4594 1212 4672 
Q 1544 4750 1819 4750 
Q 2544 4750 2975 4387 
Q 3406 4025 3406 3419 
Q 3406 3131 3298 2873 
Q 3191 2616 2906 2266 
Q 2828 2175 2409 1742 
Q 1991 1309 1228 531 
z
" transform="scale(0.015625)"/>
       </defs>
       <use xlink:href="#DejaVuSans-35"/>
       <use xlink:href="#DejaVuSans-32" transform="translate(63.623047 0)"/>
       <use xlink:href="#DejaVuSans-35" transform="translate(127.246094 0)"/>
       <use xlink:href="#DejaVuSans-30" transform="translate(190.869141 0)"/>
      </g>
     </g>
    </g>
    <g id="ytick_5">
     <g id="line2d_17">
      <g>
       <use xlink:href="#m2d068953d6" x="53.328125" y="134.47593" style="stroke: #000000; stroke-width: 0.8"/>
      </g>
     </g>
     <g id="text_14">
      <!-- 5500 -->
      <g transform="translate(20.878125 138.275149) scale(0.1 -0.1)">
       <use xlink:href="#DejaVuSans-35"/>
       <use xlink:href="#DejaVuSans-35" transform="translate(63.623047 0)"/>
       <use xlink:href="#DejaVuSans-30" transform="translate(127.246094 0)"/>
       <use xlink:href="#DejaVuSans-30" transform="translate(190.869141 0)"/>
      </g>
     </g>
    </g>
    <g id="ytick_6">
     <g id="line2d_18">
      <g>
       <use xlink:href="#m2d068953d6" x="53.328125" y="103.284594" style="stroke: #000000; stroke-width: 0.8"/>
      </g>
     </g>
     <g id="text_15">
      <!-- 5750 -->
      <g transform="translate(20.878125 107.083813) scale(0.1 -0.1)">
       <use xlink:href="#DejaVuSans-35"/>
       <use xlink:href="#DejaVuSans-37" transform="translate(63.623047 0)"/>
       <use xlink:href="#DejaVuSans-35" transform="translate(127.246094 0)"/>
       <use xlink:href="#DejaVuSans-30" transform="translate(190.869141 0)"/>
      </g>
     </g>
    </g>
    <g id="ytick_7">
     <g id="line2d_19">
      <g>
       <use xlink:href="#m2d068953d6" x="53.328125" y="72.093259" style="stroke: #000000; stroke-width: 0.8"/>
      </g>
     </g>
     <g id="text_16">
      <!-- 6000 -->
      <g transform="translate(20.878125 75.892477) scale(0.1 -0.1)">
       <defs>
        <path id="DejaVuSans-36" d="M 2113 2584 
Q 1688 2584 1439 2293 
Q 1191 2003 1191 1497 
Q 1191 994 1439 701 
Q 1688 409 2113 409 
Q 2538 409 2786 701 
Q 3034 994 3034 1497 
Q 3034 2003 2786 2293 
Q 2538 2584 2113 2584 
z
M 3366 4563 
L 3366 3988 
Q 3128 4100 2886 4159 
Q 2644 4219 2406 4219 
Q 1781 4219 1451 3797 
Q 1122 3375 1075 2522 
Q 1259 2794 1537 2939 
Q 1816 3084 2150 3084 
Q 2853 3084 3261 2657 
Q 3669 2231 3669 1497 
Q 3669 778 3244 343 
Q 2819 -91 2113 -91 
Q 1303 -91 875 529 
Q 447 1150 447 2328 
Q 447 3434 972 4092 
Q 1497 4750 2381 4750 
Q 2619 4750 2861 4703 
Q 3103 4656 3366 4563 
z
" transform="scale(0.015625)"/>
       </defs>
       <use xlink:href="#DejaVuSans-36"/>
       <use xlink:href="#DejaVuSans-30" transform="translate(63.623047 0)"/>
       <use xlink:href="#DejaVuSans-30" transform="translate(127.246094 0)"/>
       <use xlink:href="#DejaVuSans-30" transform="translate(190.869141 0)"/>
      </g>
     </g>
    </g>
    <g id="ytick_8">
     <g id="line2d_20">
      <g>
       <use xlink:href="#m2d068953d6" x="53.328125" y="40.901923" style="stroke: #000000; stroke-width: 0.8"/>
      </g>
     </g>
     <g id="text_17">
      <!-- 6250 -->
      <g transform="translate(20.878125 44.701142) scale(0.1 -0.1)">
       <use xlink:href="#DejaVuSans-36"/>
       <use xlink:href="#DejaVuSans-32" transform="translate(63.623047 0)"/>
       <use xlink:href="#DejaVuSans-35" transform="translate(127.246094 0)"/>
       <use xlink:href="#DejaVuSans-30" transform="translate(190.869141 0)"/>
      </g>
     </g>
    </g>
    <g id="text_18">
     <!-- Code branch coverage -->
     <g transform="translate(14.798438 211.949125) rotate(-90) scale(0.1 -0.1)">
      <defs>
       <path id="DejaVuSans-43" d="M 4122 4306 
L 4122 3641 
Q 3803 3938 3442 4084 
Q 3081 4231 2675 4231 
Q 1875 4231 1450 3742 
Q 1025 3253 1025 2328 
Q 1025 1406 1450 917 
Q 1875 428 2675 428 
Q 3081 428 3442 575 
Q 3803 722 4122 1019 
L 4122 359 
Q 3791 134 3420 21 
Q 3050 -91 2638 -91 
Q 1578 -91 968 557 
Q 359 1206 359 2328 
Q 359 3453 968 4101 
Q 1578 4750 2638 4750 
Q 3056 4750 3426 4639 
Q 3797 4528 4122 4306 
z
" transform="scale(0.015625)"/>
       <path id="DejaVuSans-64" d="M 2906 2969 
L 2906 4863 
L 3481 4863 
L 3481 0 
L 2906 0 
L 2906 525 
Q 2725 213 2448 61 
Q 2172 -91 1784 -91 
Q 1150 -91 751 415 
Q 353 922 353 1747 
Q 353 2572 751 3078 
Q 1150 3584 1784 3584 
Q 2172 3584 2448 3432 
Q 2725 3281 2906 2969 
z
M 947 1747 
Q 947 1113 1208 752 
Q 1469 391 1925 391 
Q 2381 391 2643 752 
Q 2906 1113 2906 1747 
Q 2906 2381 2643 2742 
Q 2381 3103 1925 3103 
Q 1469 3103 1208 2742 
Q 947 2381 947 1747 
z
" transform="scale(0.015625)"/>
       <path id="DejaVuSans-62" d="M 3116 1747 
Q 3116 2381 2855 2742 
Q 2594 3103 2138 3103 
Q 1681 3103 1420 2742 
Q 1159 2381 1159 1747 
Q 1159 1113 1420 752 
Q 1681 391 2138 391 
Q 2594 391 2855 752 
Q 3116 1113 3116 1747 
z
M 1159 2969 
Q 1341 3281 1617 3432 
Q 1894 3584 2278 3584 
Q 2916 3584 3314 3078 
Q 3713 2572 3713 1747 
Q 3713 922 3314 415 
Q 2916 -91 2278 -91 
Q 1894 -91 1617 61 
Q 1341 213 1159 525 
L 1159 0 
L 581 0 
L 581 4863 
L 1159 4863 
L 1159 2969 
z
" transform="scale(0.015625)"/>
       <path id="DejaVuSans-61" d="M 2194 1759 
Q 1497 1759 1228 1600 
Q 959 1441 959 1056 
Q 959 750 1161 570 
Q 1363 391 1709 391 
Q 2188 391 2477 730 
Q 2766 1069 2766 1631 
L 2766 1759 
L 2194 1759 
z
M 3341 1997 
L 3341 0 
L 2766 0 
L 2766 531 
Q 2569 213 2275 61 
Q 1981 -91 1556 -91 
Q 1019 -91 701 211 
Q 384 513 384 1019 
Q 384 1609 779 1909 
Q 1175 2209 1959 2209 
L 2766 2209 
L 2766 2266 
Q 2766 2663 2505 2880 
Q 2244 3097 1772 3097 
Q 1472 3097 1187 3025 
Q 903 2953 641 2809 
L 641 3341 
Q 956 3463 1253 3523 
Q 1550 3584 1831 3584 
Q 2591 3584 2966 3190 
Q 3341 2797 3341 1997 
z
" transform="scale(0.015625)"/>
       <path id="DejaVuSans-63" d="M 3122 3366 
L 3122 2828 
Q 2878 2963 2633 3030 
Q 2388 3097 2138 3097 
Q 1578 3097 1268 2742 
Q 959 2388 959 1747 
Q 959 1106 1268 751 
Q 1578 397 2138 397 
Q 2388 397 2633 464 
Q 2878 531 3122 666 
L 3122 134 
Q 2881 22 2623 -34 
Q 2366 -91 2075 -91 
Q 1284 -91 818 406 
Q 353 903 353 1747 
Q 353 2603 823 3093 
Q 1294 3584 2113 3584 
Q 2378 3584 2631 3529 
Q 2884 3475 3122 3366 
z
" transform="scale(0.015625)"/>
       <path id="DejaVuSans-76" d="M 191 3500 
L 800 3500 
L 1894 563 
L 2988 3500 
L 3597 3500 
L 2284 0 
L 1503 0 
L 191 3500 
z
" transform="scale(0.015625)"/>
       <path id="DejaVuSans-67" d="M 2906 1791 
Q 2906 2416 2648 2759 
Q 2391 3103 1925 3103 
Q 1463 3103 1205 2759 
Q 947 2416 947 1791 
Q 947 1169 1205 825 
Q 1463 481 1925 481 
Q 2391 481 2648 825 
Q 2906 1169 2906 1791 
z
M 3481 434 
Q 3481 -459 3084 -895 
Q 2688 -1331 1869 -1331 
Q 1566 -1331 1297 -1286 
Q 1028 -1241 775 -1147 
L 775 -588 
Q 1028 -725 1275 -790 
Q 1522 -856 1778 -856 
Q 2344 -856 2625 -561 
Q 2906 -266 2906 331 
L 2906 616 
Q 2728 306 2450 153 
Q 2172 0 1784 0 
Q 1141 0 747 490 
Q 353 981 353 1791 
Q 353 2603 747 3093 
Q 1141 3584 1784 3584 
Q 2172 3584 2450 3431 
Q 2728 3278 2906 2969 
L 2906 3500 
L 3481 3500 
L 3481 434 
z
" transform="scale(0.015625)"/>
      </defs>
      <use xlink:href="#DejaVuSans-43"/>
      <use xlink:href="#DejaVuSans-6f" transform="translate(69.824219 0)"/>
      <use xlink:href="#DejaVuSans-64" transform="translate(131.005859 0)"/>
      <use xlink:href="#DejaVuSans-65" transform="translate(194.482422 0)"/>
      <use xlink:href="#DejaVuSans-20" transform="translate(256.005859 0)"/>
      <use xlink:href="#DejaVuSans-62" transform="translate(287.792969 0)"/>
      <use xlink:href="#DejaVuSans-72" transform="translate(351.269531 0)"/>
      <use xlink:href="#DejaVuSans-61" transform="translate(392.382812 0)"/>
      <use xlink:href="#DejaVuSans-6e" transform="translate(453.662109 0)"/>
      <use xlink:href="#DejaVuSans-63" transform="translate(517.041016 0)"/>
      <use xlink:href="#DejaVuSans-68" transform="translate(572.021484 0)"/>
      <use xlink:href="#DejaVuSans-20" transform="translate(635.400391 0)"/>
      <use xlink:href="#DejaVuSans-63" transform="translate(667.1875 0)"/>
      <use xlink:href="#DejaVuSans-6f" transform="translate(722.167969 0)"/>
      <use xlink:href="#DejaVuSans-76" transform="translate(783.349609 0)"/>
      <use xlink:href="#DejaVuSans-65" transform="translate(842.529297 0)"/>
      <use xlink:href="#DejaVuSans-72" transform="translate(904.052734 0)"/>
      <use xlink:href="#DejaVuSans-61" transform="translate(945.166016 0)"/>
      <use xlink:href="#DejaVuSans-67" transform="translate(1006.445312 0)"/>
      <use xlink:href="#DejaVuSans-65" transform="translate(1069.921875 0)"/>
     </g>
    </g>
   </g>
   <g id="line2d_21">
    <path d="M 53.328125 276.334125 
L 535.953577 195.985244 
L 574.548755 162.797663 
L 597.125486 143.833331 
L 613.143932 130.608204 
L 625.568804 130.233908 
L 635.720663 128.112898 
L 644.303938 126.990009 
L 651.739109 121.001273 
L 658.297395 115.636363 
L 664.163981 107.776147 
L 669.470954 107.526616 
L 674.315841 104.906544 
L 678.772704 102.785533 
L 682.899116 100.914053 
L 686.740713 100.539757 
L 690.334287 100.539757 
L 693.70993 96.672031 
L 696.892572 75.960984 
L 699.903093 74.089504 
L 702.759158 71.843728 
L 705.475847 71.219901 
L 708.066131 70.596074 
L 710.541253 68.475064 
L 712.911018 68.475064 
L 715.18403 66.354053 
L 717.367882 65.605461 
L 719.469304 61.987266 
L 721.494293 61.488204 
L 723.448215 58.992898 
L 725.33589 58.493836 
L 727.161662 58.369071 
L 728.929464 58.11954 
L 730.642863 57.246183 
L 732.305108 55.873764 
L 733.919165 55.748999 
L 735.487749 55.249937 
L 737.013354 54.750876 
L 738.49827 54.251815 
L 739.944613 52.629865 
L 741.354336 51.881273 
L 742.729247 51.382212 
L 744.071024 51.132681 
L 745.381228 50.88315 
L 746.661309 50.758385 
L 747.912621 50.758385 
L 749.13643 50.259324 
L 750.333919 50.259324 
L 751.506195 50.134558 
L 752.654299 50.009793 
L 753.779208 49.885028 
L 754.881839 49.760262 
L 755.963059 49.510731 
L 757.023683 48.387843 
L 758.064481 48.138313 
L 759.086181 48.138313 
L 760.08947 48.013547 
L 761.075002 47.888782 
L 762.043392 47.264955 
L 762.995229 47.015425 
L 763.931067 47.015425 
L 764.851436 46.641129 
" clip-path="url(#pc7384c4dd3)" style="fill: none; stroke: #c7c7c7; stroke-width: 1.5; stroke-linecap: square"/>
    <defs>
     <path id="mc30e93f8b7" d="M -3 -0 
L 3 3 
L 3 -3 
z
" style="stroke: #ffffff; stroke-width: 0.75; stroke-linejoin: miter"/>
    </defs>
    <g clip-path="url(#pc7384c4dd3)">
     <use xlink:href="#mc30e93f8b7" x="53.328125" y="276.334125" style="fill: #c7c7c7; stroke: #ffffff; stroke-width: 0.75; stroke-linejoin: miter"/>
     <use xlink:href="#mc30e93f8b7" x="535.953577" y="195.985244" style="fill: #c7c7c7; stroke: #ffffff; stroke-width: 0.75; stroke-linejoin: miter"/>
     <use xlink:href="#mc30e93f8b7" x="574.548755" y="162.797663" style="fill: #c7c7c7; stroke: #ffffff; stroke-width: 0.75; stroke-linejoin: miter"/>
     <use xlink:href="#mc30e93f8b7" x="597.125486" y="143.833331" style="fill: #c7c7c7; stroke: #ffffff; stroke-width: 0.75; stroke-linejoin: miter"/>
     <use xlink:href="#mc30e93f8b7" x="613.143932" y="130.608204" style="fill: #c7c7c7; stroke: #ffffff; stroke-width: 0.75; stroke-linejoin: miter"/>
     <use xlink:href="#mc30e93f8b7" x="625.568804" y="130.233908" style="fill: #c7c7c7; stroke: #ffffff; stroke-width: 0.75; stroke-linejoin: miter"/>
     <use xlink:href="#mc30e93f8b7" x="635.720663" y="128.112898" style="fill: #c7c7c7; stroke: #ffffff; stroke-width: 0.75; stroke-linejoin: miter"/>
     <use xlink:href="#mc30e93f8b7" x="644.303938" y="126.990009" style="fill: #c7c7c7; stroke: #ffffff; stroke-width: 0.75; stroke-linejoin: miter"/>
     <use xlink:href="#mc30e93f8b7" x="651.739109" y="121.001273" style="fill: #c7c7c7; stroke: #ffffff; stroke-width: 0.75; stroke-linejoin: miter"/>
     <use xlink:href="#mc30e93f8b7" x="658.297395" y="115.636363" style="fill: #c7c7c7; stroke: #ffffff; stroke-width: 0.75; stroke-linejoin: miter"/>
     <use xlink:href="#mc30e93f8b7" x="664.163981" y="107.776147" style="fill: #c7c7c7; stroke: #ffffff; stroke-width: 0.75; stroke-linejoin: miter"/>
     <use xlink:href="#mc30e93f8b7" x="669.470954" y="107.526616" style="fill: #c7c7c7; stroke: #ffffff; stroke-width: 0.75; stroke-linejoin: miter"/>
     <use xlink:href="#mc30e93f8b7" x="674.315841" y="104.906544" style="fill: #c7c7c7; stroke: #ffffff; stroke-width: 0.75; stroke-linejoin: miter"/>
     <use xlink:href="#mc30e93f8b7" x="678.772704" y="102.785533" style="fill: #c7c7c7; stroke: #ffffff; stroke-width: 0.75; stroke-linejoin: miter"/>
     <use xlink:href="#mc30e93f8b7" x="682.899116" y="100.914053" style="fill: #c7c7c7; stroke: #ffffff; stroke-width: 0.75; stroke-linejoin: miter"/>
     <use xlink:href="#mc30e93f8b7" x="686.740713" y="100.539757" style="fill: #c7c7c7; stroke: #ffffff; stroke-width: 0.75; stroke-linejoin: miter"/>
     <use xlink:href="#mc30e93f8b7" x="690.334287" y="100.539757" style="fill: #c7c7c7; stroke: #ffffff; stroke-width: 0.75; stroke-linejoin: miter"/>
     <use xlink:href="#mc30e93f8b7" x="693.70993" y="96.672031" style="fill: #c7c7c7; stroke: #ffffff; stroke-width: 0.75; stroke-linejoin: miter"/>
     <use xlink:href="#mc30e93f8b7" x="696.892572" y="75.960984" style="fill: #c7c7c7; stroke: #ffffff; stroke-width: 0.75; stroke-linejoin: miter"/>
     <use xlink:href="#mc30e93f8b7" x="699.903093" y="74.089504" style="fill: #c7c7c7; stroke: #ffffff; stroke-width: 0.75; stroke-linejoin: miter"/>
     <use xlink:href="#mc30e93f8b7" x="702.759158" y="71.843728" style="fill: #c7c7c7; stroke: #ffffff; stroke-width: 0.75; stroke-linejoin: miter"/>
     <use xlink:href="#mc30e93f8b7" x="705.475847" y="71.219901" style="fill: #c7c7c7; stroke: #ffffff; stroke-width: 0.75; stroke-linejoin: miter"/>
     <use xlink:href="#mc30e93f8b7" x="708.066131" y="70.596074" style="fill: #c7c7c7; stroke: #ffffff; stroke-width: 0.75; stroke-linejoin: miter"/>
     <use xlink:href="#mc30e93f8b7" x="710.541253" y="68.475064" style="fill: #c7c7c7; stroke: #ffffff; stroke-width: 0.75; stroke-linejoin: miter"/>
     <use xlink:href="#mc30e93f8b7" x="712.911018" y="68.475064" style="fill: #c7c7c7; stroke: #ffffff; stroke-width: 0.75; stroke-linejoin: miter"/>
     <use xlink:href="#mc30e93f8b7" x="715.18403" y="66.354053" style="fill: #c7c7c7; stroke: #ffffff; stroke-width: 0.75; stroke-linejoin: miter"/>
     <use xlink:href="#mc30e93f8b7" x="717.367882" y="65.605461" style="fill: #c7c7c7; stroke: #ffffff; stroke-width: 0.75; stroke-linejoin: miter"/>
     <use xlink:href="#mc30e93f8b7" x="719.469304" y="61.987266" style="fill: #c7c7c7; stroke: #ffffff; stroke-width: 0.75; stroke-linejoin: miter"/>
     <use xlink:href="#mc30e93f8b7" x="721.494293" y="61.488204" style="fill: #c7c7c7; stroke: #ffffff; stroke-width: 0.75; stroke-linejoin: miter"/>
     <use xlink:href="#mc30e93f8b7" x="723.448215" y="58.992898" style="fill: #c7c7c7; stroke: #ffffff; stroke-width: 0.75; stroke-linejoin: miter"/>
     <use xlink:href="#mc30e93f8b7" x="725.33589" y="58.493836" style="fill: #c7c7c7; stroke: #ffffff; stroke-width: 0.75; stroke-linejoin: miter"/>
     <use xlink:href="#mc30e93f8b7" x="727.161662" y="58.369071" style="fill: #c7c7c7; stroke: #ffffff; stroke-width: 0.75; stroke-linejoin: miter"/>
     <use xlink:href="#mc30e93f8b7" x="728.929464" y="58.11954" style="fill: #c7c7c7; stroke: #ffffff; stroke-width: 0.75; stroke-linejoin: miter"/>
     <use xlink:href="#mc30e93f8b7" x="730.642863" y="57.246183" style="fill: #c7c7c7; stroke: #ffffff; stroke-width: 0.75; stroke-linejoin: miter"/>
     <use xlink:href="#mc30e93f8b7" x="732.305108" y="55.873764" style="fill: #c7c7c7; stroke: #ffffff; stroke-width: 0.75; stroke-linejoin: miter"/>
     <use xlink:href="#mc30e93f8b7" x="733.919165" y="55.748999" style="fill: #c7c7c7; stroke: #ffffff; stroke-width: 0.75; stroke-linejoin: miter"/>
     <use xlink:href="#mc30e93f8b7" x="735.487749" y="55.249937" style="fill: #c7c7c7; stroke: #ffffff; stroke-width: 0.75; stroke-linejoin: miter"/>
     <use xlink:href="#mc30e93f8b7" x="737.013354" y="54.750876" style="fill: #c7c7c7; stroke: #ffffff; stroke-width: 0.75; stroke-linejoin: miter"/>
     <use xlink:href="#mc30e93f8b7" x="738.49827" y="54.251815" style="fill: #c7c7c7; stroke: #ffffff; stroke-width: 0.75; stroke-linejoin: miter"/>
     <use xlink:href="#mc30e93f8b7" x="739.944613" y="52.629865" style="fill: #c7c7c7; stroke: #ffffff; stroke-width: 0.75; stroke-linejoin: miter"/>
     <use xlink:href="#mc30e93f8b7" x="741.354336" y="51.881273" style="fill: #c7c7c7; stroke: #ffffff; stroke-width: 0.75; stroke-linejoin: miter"/>
     <use xlink:href="#mc30e93f8b7" x="742.729247" y="51.382212" style="fill: #c7c7c7; stroke: #ffffff; stroke-width: 0.75; stroke-linejoin: miter"/>
     <use xlink:href="#mc30e93f8b7" x="744.071024" y="51.132681" style="fill: #c7c7c7; stroke: #ffffff; stroke-width: 0.75; stroke-linejoin: miter"/>
     <use xlink:href="#mc30e93f8b7" x="745.381228" y="50.88315" style="fill: #c7c7c7; stroke: #ffffff; stroke-width: 0.75; stroke-linejoin: miter"/>
     <use xlink:href="#mc30e93f8b7" x="746.661309" y="50.758385" style="fill: #c7c7c7; stroke: #ffffff; stroke-width: 0.75; stroke-linejoin: miter"/>
     <use xlink:href="#mc30e93f8b7" x="747.912621" y="50.758385" style="fill: #c7c7c7; stroke: #ffffff; stroke-width: 0.75; stroke-linejoin: miter"/>
     <use xlink:href="#mc30e93f8b7" x="749.13643" y="50.259324" style="fill: #c7c7c7; stroke: #ffffff; stroke-width: 0.75; stroke-linejoin: miter"/>
     <use xlink:href="#mc30e93f8b7" x="750.333919" y="50.259324" style="fill: #c7c7c7; stroke: #ffffff; stroke-width: 0.75; stroke-linejoin: miter"/>
     <use xlink:href="#mc30e93f8b7" x="751.506195" y="50.134558" style="fill: #c7c7c7; stroke: #ffffff; stroke-width: 0.75; stroke-linejoin: miter"/>
     <use xlink:href="#mc30e93f8b7" x="752.654299" y="50.009793" style="fill: #c7c7c7; stroke: #ffffff; stroke-width: 0.75; stroke-linejoin: miter"/>
     <use xlink:href="#mc30e93f8b7" x="753.779208" y="49.885028" style="fill: #c7c7c7; stroke: #ffffff; stroke-width: 0.75; stroke-linejoin: miter"/>
     <use xlink:href="#mc30e93f8b7" x="754.881839" y="49.760262" style="fill: #c7c7c7; stroke: #ffffff; stroke-width: 0.75; stroke-linejoin: miter"/>
     <use xlink:href="#mc30e93f8b7" x="755.963059" y="49.510731" style="fill: #c7c7c7; stroke: #ffffff; stroke-width: 0.75; stroke-linejoin: miter"/>
     <use xlink:href="#mc30e93f8b7" x="757.023683" y="48.387843" style="fill: #c7c7c7; stroke: #ffffff; stroke-width: 0.75; stroke-linejoin: miter"/>
     <use xlink:href="#mc30e93f8b7" x="758.064481" y="48.138313" style="fill: #c7c7c7; stroke: #ffffff; stroke-width: 0.75; stroke-linejoin: miter"/>
     <use xlink:href="#mc30e93f8b7" x="759.086181" y="48.138313" style="fill: #c7c7c7; stroke: #ffffff; stroke-width: 0.75; stroke-linejoin: miter"/>
     <use xlink:href="#mc30e93f8b7" x="760.08947" y="48.013547" style="fill: #c7c7c7; stroke: #ffffff; stroke-width: 0.75; stroke-linejoin: miter"/>
     <use xlink:href="#mc30e93f8b7" x="761.075002" y="47.888782" style="fill: #c7c7c7; stroke: #ffffff; stroke-width: 0.75; stroke-linejoin: miter"/>
     <use xlink:href="#mc30e93f8b7" x="762.043392" y="47.264955" style="fill: #c7c7c7; stroke: #ffffff; stroke-width: 0.75; stroke-linejoin: miter"/>
     <use xlink:href="#mc30e93f8b7" x="762.995229" y="47.015425" style="fill: #c7c7c7; stroke: #ffffff; stroke-width: 0.75; stroke-linejoin: miter"/>
     <use xlink:href="#mc30e93f8b7" x="763.931067" y="47.015425" style="fill: #c7c7c7; stroke: #ffffff; stroke-width: 0.75; stroke-linejoin: miter"/>
     <use xlink:href="#mc30e93f8b7" x="764.851436" y="46.641129" style="fill: #c7c7c7; stroke: #ffffff; stroke-width: 0.75; stroke-linejoin: miter"/>
    </g>
   </g>
   <g id="line2d_22">
    <path d="M 53.328125 276.334125 
L 535.953577 217.819179 
L 574.548755 210.582789 
L 597.125486 172.155064 
L 613.143932 149.198241 
L 625.568804 143.708565 
L 635.720663 139.965605 
L 644.303938 136.971237 
L 651.739109 133.602573 
L 658.297395 128.736724 
L 664.163981 125.492825 
L 669.470954 122.124161 
L 674.315841 114.887771 
L 678.772704 112.267699 
L 682.899116 110.146688 
L 686.740713 106.778024 
L 690.334287 100.165461 
L 693.70993 80.951598 
L 696.892572 80.327771 
L 699.903093 78.955352 
L 702.759158 78.331526 
L 705.475847 77.458168 
L 708.066131 76.210515 
L 710.541253 75.711454 
L 712.911018 74.588565 
L 715.18403 71.095136 
L 717.367882 68.475064 
L 719.469304 66.229287 
L 721.494293 65.480695 
L 723.448215 64.981634 
L 725.33589 63.733981 
L 727.161662 62.735858 
L 728.929464 61.238674 
L 730.642863 60.739612 
L 732.305108 58.618602 
L 733.919165 55.873764 
L 735.487749 54.626111 
L 737.013354 54.37658 
L 738.49827 51.756508 
L 739.944613 51.631742 
L 741.354336 51.132681 
L 742.729247 50.88315 
L 744.071024 50.63362 
L 745.381228 50.134558 
L 746.661309 50.009793 
L 747.912621 49.635497 
L 749.13643 49.635497 
L 750.333919 49.510731 
L 751.506195 48.762139 
L 752.654299 48.762139 
L 753.779208 46.266833 
L 754.881839 45.393475 
L 755.963059 45.26871 
L 757.023683 45.26871 
L 758.064481 45.143944 
L 759.086181 44.894414 
L 760.08947 44.395352 
L 761.075002 44.395352 
L 762.043392 44.395352 
L 762.995229 44.395352 
L 763.931067 44.270587 
L 764.851436 44.021056 
" clip-path="url(#pc7384c4dd3)" style="fill: none; stroke: #98df8a; stroke-width: 1.5; stroke-linecap: square"/>
    <defs>
     <path id="md68aef0f32" d="M -0 3 
L 3 -3 
L -3 -3 
z
" style="stroke: #ffffff; stroke-width: 0.75; stroke-linejoin: miter"/>
    </defs>
    <g clip-path="url(#pc7384c4dd3)">
     <use xlink:href="#md68aef0f32" x="53.328125" y="276.334125" style="fill: #98df8a; stroke: #ffffff; stroke-width: 0.75; stroke-linejoin: miter"/>
     <use xlink:href="#md68aef0f32" x="535.953577" y="217.819179" style="fill: #98df8a; stroke: #ffffff; stroke-width: 0.75; stroke-linejoin: miter"/>
     <use xlink:href="#md68aef0f32" x="574.548755" y="210.582789" style="fill: #98df8a; stroke: #ffffff; stroke-width: 0.75; stroke-linejoin: miter"/>
     <use xlink:href="#md68aef0f32" x="597.125486" y="172.155064" style="fill: #98df8a; stroke: #ffffff; stroke-width: 0.75; stroke-linejoin: miter"/>
     <use xlink:href="#md68aef0f32" x="613.143932" y="149.198241" style="fill: #98df8a; stroke: #ffffff; stroke-width: 0.75; stroke-linejoin: miter"/>
     <use xlink:href="#md68aef0f32" x="625.568804" y="143.708565" style="fill: #98df8a; stroke: #ffffff; stroke-width: 0.75; stroke-linejoin: miter"/>
     <use xlink:href="#md68aef0f32" x="635.720663" y="139.965605" style="fill: #98df8a; stroke: #ffffff; stroke-width: 0.75; stroke-linejoin: miter"/>
     <use xlink:href="#md68aef0f32" x="644.303938" y="136.971237" style="fill: #98df8a; stroke: #ffffff; stroke-width: 0.75; stroke-linejoin: miter"/>
     <use xlink:href="#md68aef0f32" x="651.739109" y="133.602573" style="fill: #98df8a; stroke: #ffffff; stroke-width: 0.75; stroke-linejoin: miter"/>
     <use xlink:href="#md68aef0f32" x="658.297395" y="128.736724" style="fill: #98df8a; stroke: #ffffff; stroke-width: 0.75; stroke-linejoin: miter"/>
     <use xlink:href="#md68aef0f32" x="664.163981" y="125.492825" style="fill: #98df8a; stroke: #ffffff; stroke-width: 0.75; stroke-linejoin: miter"/>
     <use xlink:href="#md68aef0f32" x="669.470954" y="122.124161" style="fill: #98df8a; stroke: #ffffff; stroke-width: 0.75; stroke-linejoin: miter"/>
     <use xlink:href="#md68aef0f32" x="674.315841" y="114.887771" style="fill: #98df8a; stroke: #ffffff; stroke-width: 0.75; stroke-linejoin: miter"/>
     <use xlink:href="#md68aef0f32" x="678.772704" y="112.267699" style="fill: #98df8a; stroke: #ffffff; stroke-width: 0.75; stroke-linejoin: miter"/>
     <use xlink:href="#md68aef0f32" x="682.899116" y="110.146688" style="fill: #98df8a; stroke: #ffffff; stroke-width: 0.75; stroke-linejoin: miter"/>
     <use xlink:href="#md68aef0f32" x="686.740713" y="106.778024" style="fill: #98df8a; stroke: #ffffff; stroke-width: 0.75; stroke-linejoin: miter"/>
     <use xlink:href="#md68aef0f32" x="690.334287" y="100.165461" style="fill: #98df8a; stroke: #ffffff; stroke-width: 0.75; stroke-linejoin: miter"/>
     <use xlink:href="#md68aef0f32" x="693.70993" y="80.951598" style="fill: #98df8a; stroke: #ffffff; stroke-width: 0.75; stroke-linejoin: miter"/>
     <use xlink:href="#md68aef0f32" x="696.892572" y="80.327771" style="fill: #98df8a; stroke: #ffffff; stroke-width: 0.75; stroke-linejoin: miter"/>
     <use xlink:href="#md68aef0f32" x="699.903093" y="78.955352" style="fill: #98df8a; stroke: #ffffff; stroke-width: 0.75; stroke-linejoin: miter"/>
     <use xlink:href="#md68aef0f32" x="702.759158" y="78.331526" style="fill: #98df8a; stroke: #ffffff; stroke-width: 0.75; stroke-linejoin: miter"/>
     <use xlink:href="#md68aef0f32" x="705.475847" y="77.458168" style="fill: #98df8a; stroke: #ffffff; stroke-width: 0.75; stroke-linejoin: miter"/>
     <use xlink:href="#md68aef0f32" x="708.066131" y="76.210515" style="fill: #98df8a; stroke: #ffffff; stroke-width: 0.75; stroke-linejoin: miter"/>
     <use xlink:href="#md68aef0f32" x="710.541253" y="75.711454" style="fill: #98df8a; stroke: #ffffff; stroke-width: 0.75; stroke-linejoin: miter"/>
     <use xlink:href="#md68aef0f32" x="712.911018" y="74.588565" style="fill: #98df8a; stroke: #ffffff; stroke-width: 0.75; stroke-linejoin: miter"/>
     <use xlink:href="#md68aef0f32" x="715.18403" y="71.095136" style="fill: #98df8a; stroke: #ffffff; stroke-width: 0.75; stroke-linejoin: miter"/>
     <use xlink:href="#md68aef0f32" x="717.367882" y="68.475064" style="fill: #98df8a; stroke: #ffffff; stroke-width: 0.75; stroke-linejoin: miter"/>
     <use xlink:href="#md68aef0f32" x="719.469304" y="66.229287" style="fill: #98df8a; stroke: #ffffff; stroke-width: 0.75; stroke-linejoin: miter"/>
     <use xlink:href="#md68aef0f32" x="721.494293" y="65.480695" style="fill: #98df8a; stroke: #ffffff; stroke-width: 0.75; stroke-linejoin: miter"/>
     <use xlink:href="#md68aef0f32" x="723.448215" y="64.981634" style="fill: #98df8a; stroke: #ffffff; stroke-width: 0.75; stroke-linejoin: miter"/>
     <use xlink:href="#md68aef0f32" x="725.33589" y="63.733981" style="fill: #98df8a; stroke: #ffffff; stroke-width: 0.75; stroke-linejoin: miter"/>
     <use xlink:href="#md68aef0f32" x="727.161662" y="62.735858" style="fill: #98df8a; stroke: #ffffff; stroke-width: 0.75; stroke-linejoin: miter"/>
     <use xlink:href="#md68aef0f32" x="728.929464" y="61.238674" style="fill: #98df8a; stroke: #ffffff; stroke-width: 0.75; stroke-linejoin: miter"/>
     <use xlink:href="#md68aef0f32" x="730.642863" y="60.739612" style="fill: #98df8a; stroke: #ffffff; stroke-width: 0.75; stroke-linejoin: miter"/>
     <use xlink:href="#md68aef0f32" x="732.305108" y="58.618602" style="fill: #98df8a; stroke: #ffffff; stroke-width: 0.75; stroke-linejoin: miter"/>
     <use xlink:href="#md68aef0f32" x="733.919165" y="55.873764" style="fill: #98df8a; stroke: #ffffff; stroke-width: 0.75; stroke-linejoin: miter"/>
     <use xlink:href="#md68aef0f32" x="735.487749" y="54.626111" style="fill: #98df8a; stroke: #ffffff; stroke-width: 0.75; stroke-linejoin: miter"/>
     <use xlink:href="#md68aef0f32" x="737.013354" y="54.37658" style="fill: #98df8a; stroke: #ffffff; stroke-width: 0.75; stroke-linejoin: miter"/>
     <use xlink:href="#md68aef0f32" x="738.49827" y="51.756508" style="fill: #98df8a; stroke: #ffffff; stroke-width: 0.75; stroke-linejoin: miter"/>
     <use xlink:href="#md68aef0f32" x="739.944613" y="51.631742" style="fill: #98df8a; stroke: #ffffff; stroke-width: 0.75; stroke-linejoin: miter"/>
     <use xlink:href="#md68aef0f32" x="741.354336" y="51.132681" style="fill: #98df8a; stroke: #ffffff; stroke-width: 0.75; stroke-linejoin: miter"/>
     <use xlink:href="#md68aef0f32" x="742.729247" y="50.88315" style="fill: #98df8a; stroke: #ffffff; stroke-width: 0.75; stroke-linejoin: miter"/>
     <use xlink:href="#md68aef0f32" x="744.071024" y="50.63362" style="fill: #98df8a; stroke: #ffffff; stroke-width: 0.75; stroke-linejoin: miter"/>
     <use xlink:href="#md68aef0f32" x="745.381228" y="50.134558" style="fill: #98df8a; stroke: #ffffff; stroke-width: 0.75; stroke-linejoin: miter"/>
     <use xlink:href="#md68aef0f32" x="746.661309" y="50.009793" style="fill: #98df8a; stroke: #ffffff; stroke-width: 0.75; stroke-linejoin: miter"/>
     <use xlink:href="#md68aef0f32" x="747.912621" y="49.635497" style="fill: #98df8a; stroke: #ffffff; stroke-width: 0.75; stroke-linejoin: miter"/>
     <use xlink:href="#md68aef0f32" x="749.13643" y="49.635497" style="fill: #98df8a; stroke: #ffffff; stroke-width: 0.75; stroke-linejoin: miter"/>
     <use xlink:href="#md68aef0f32" x="750.333919" y="49.510731" style="fill: #98df8a; stroke: #ffffff; stroke-width: 0.75; stroke-linejoin: miter"/>
     <use xlink:href="#md68aef0f32" x="751.506195" y="48.762139" style="fill: #98df8a; stroke: #ffffff; stroke-width: 0.75; stroke-linejoin: miter"/>
     <use xlink:href="#md68aef0f32" x="752.654299" y="48.762139" style="fill: #98df8a; stroke: #ffffff; stroke-width: 0.75; stroke-linejoin: miter"/>
     <use xlink:href="#md68aef0f32" x="753.779208" y="46.266833" style="fill: #98df8a; stroke: #ffffff; stroke-width: 0.75; stroke-linejoin: miter"/>
     <use xlink:href="#md68aef0f32" x="754.881839" y="45.393475" style="fill: #98df8a; stroke: #ffffff; stroke-width: 0.75; stroke-linejoin: miter"/>
     <use xlink:href="#md68aef0f32" x="755.963059" y="45.26871" style="fill: #98df8a; stroke: #ffffff; stroke-width: 0.75; stroke-linejoin: miter"/>
     <use xlink:href="#md68aef0f32" x="757.023683" y="45.26871" style="fill: #98df8a; stroke: #ffffff; stroke-width: 0.75; stroke-linejoin: miter"/>
     <use xlink:href="#md68aef0f32" x="758.064481" y="45.143944" style="fill: #98df8a; stroke: #ffffff; stroke-width: 0.75; stroke-linejoin: miter"/>
     <use xlink:href="#md68aef0f32" x="759.086181" y="44.894414" style="fill: #98df8a; stroke: #ffffff; stroke-width: 0.75; stroke-linejoin: miter"/>
     <use xlink:href="#md68aef0f32" x="760.08947" y="44.395352" style="fill: #98df8a; stroke: #ffffff; stroke-width: 0.75; stroke-linejoin: miter"/>
     <use xlink:href="#md68aef0f32" x="761.075002" y="44.395352" style="fill: #98df8a; stroke: #ffffff; stroke-width: 0.75; stroke-linejoin: miter"/>
     <use xlink:href="#md68aef0f32" x="762.043392" y="44.395352" style="fill: #98df8a; stroke: #ffffff; stroke-width: 0.75; stroke-linejoin: miter"/>
     <use xlink:href="#md68aef0f32" x="762.995229" y="44.395352" style="fill: #98df8a; stroke: #ffffff; stroke-width: 0.75; stroke-linejoin: miter"/>
     <use xlink:href="#md68aef0f32" x="763.931067" y="44.270587" style="fill: #98df8a; stroke: #ffffff; stroke-width: 0.75; stroke-linejoin: miter"/>
     <use xlink:href="#md68aef0f32" x="764.851436" y="44.021056" style="fill: #98df8a; stroke: #ffffff; stroke-width: 0.75; stroke-linejoin: miter"/>
    </g>
   </g>
   <g id="line2d_23">
    <path d="M 53.328125 276.334125 
L 535.953577 220.189721 
L 574.548755 178.268565 
L 597.125486 158.680407 
L 613.143932 152.69167 
L 625.568804 136.846472 
L 635.720663 129.485316 
L 644.303938 127.364306 
L 651.739109 124.993764 
L 658.297395 122.124161 
L 664.163981 117.383078 
L 669.470954 112.641995 
L 674.315841 108.899035 
L 678.772704 107.526616 
L 682.899116 106.278963 
L 686.740713 102.660768 
L 690.334287 97.794919 
L 693.70993 97.420623 
L 696.892572 97.046327 
L 699.903093 94.426255 
L 702.759158 93.552898 
L 705.475847 92.804306 
L 708.066131 92.804306 
L 710.541253 91.806183 
L 712.911018 90.932825 
L 715.18403 90.80806 
L 717.367882 90.184233 
L 719.469304 84.569793 
L 721.494293 84.070731 
L 723.448215 83.57167 
L 725.33589 81.70019 
L 727.161662 80.577302 
L 728.929464 79.703944 
L 730.642863 78.581056 
L 732.305108 77.832464 
L 733.919165 72.59232 
L 735.487749 72.218024 
L 737.013354 71.344667 
L 738.49827 70.72084 
L 739.944613 69.847482 
L 741.354336 69.223656 
L 742.729247 49.385966 
L 744.071024 48.387843 
L 745.381228 48.138313 
L 746.661309 47.389721 
L 747.912621 46.765894 
L 749.13643 46.391598 
L 750.333919 45.393475 
L 751.506195 43.771526 
L 752.654299 43.771526 
L 753.779208 43.64676 
L 754.881839 43.022934 
L 755.963059 43.022934 
L 757.023683 42.399107 
L 758.064481 40.153331 
L 759.086181 39.9038 
L 760.08947 39.404739 
L 761.075002 38.406616 
L 762.043392 37.158963 
L 762.995229 35.786544 
L 763.931067 35.162717 
L 764.851436 35.037952 
" clip-path="url(#pc7384c4dd3)" style="fill: none; stroke: #d62728; stroke-width: 1.5; stroke-linecap: square"/>
    <defs>
     <path id="m5da6f15fd6" d="M 0 -3 
L -3 3 
L 3 3 
z
" style="stroke: #ffffff; stroke-width: 0.75; stroke-linejoin: miter"/>
    </defs>
    <g clip-path="url(#pc7384c4dd3)">
     <use xlink:href="#m5da6f15fd6" x="53.328125" y="276.334125" style="fill: #d62728; stroke: #ffffff; stroke-width: 0.75; stroke-linejoin: miter"/>
     <use xlink:href="#m5da6f15fd6" x="535.953577" y="220.189721" style="fill: #d62728; stroke: #ffffff; stroke-width: 0.75; stroke-linejoin: miter"/>
     <use xlink:href="#m5da6f15fd6" x="574.548755" y="178.268565" style="fill: #d62728; stroke: #ffffff; stroke-width: 0.75; stroke-linejoin: miter"/>
     <use xlink:href="#m5da6f15fd6" x="597.125486" y="158.680407" style="fill: #d62728; stroke: #ffffff; stroke-width: 0.75; stroke-linejoin: miter"/>
     <use xlink:href="#m5da6f15fd6" x="613.143932" y="152.69167" style="fill: #d62728; stroke: #ffffff; stroke-width: 0.75; stroke-linejoin: miter"/>
     <use xlink:href="#m5da6f15fd6" x="625.568804" y="136.846472" style="fill: #d62728; stroke: #ffffff; stroke-width: 0.75; stroke-linejoin: miter"/>
     <use xlink:href="#m5da6f15fd6" x="635.720663" y="129.485316" style="fill: #d62728; stroke: #ffffff; stroke-width: 0.75; stroke-linejoin: miter"/>
     <use xlink:href="#m5da6f15fd6" x="644.303938" y="127.364306" style="fill: #d62728; stroke: #ffffff; stroke-width: 0.75; stroke-linejoin: miter"/>
     <use xlink:href="#m5da6f15fd6" x="651.739109" y="124.993764" style="fill: #d62728; stroke: #ffffff; stroke-width: 0.75; stroke-linejoin: miter"/>
     <use xlink:href="#m5da6f15fd6" x="658.297395" y="122.124161" style="fill: #d62728; stroke: #ffffff; stroke-width: 0.75; stroke-linejoin: miter"/>
     <use xlink:href="#m5da6f15fd6" x="664.163981" y="117.383078" style="fill: #d62728; stroke: #ffffff; stroke-width: 0.75; stroke-linejoin: miter"/>
     <use xlink:href="#m5da6f15fd6" x="669.470954" y="112.641995" style="fill: #d62728; stroke: #ffffff; stroke-width: 0.75; stroke-linejoin: miter"/>
     <use xlink:href="#m5da6f15fd6" x="674.315841" y="108.899035" style="fill: #d62728; stroke: #ffffff; stroke-width: 0.75; stroke-linejoin: miter"/>
     <use xlink:href="#m5da6f15fd6" x="678.772704" y="107.526616" style="fill: #d62728; stroke: #ffffff; stroke-width: 0.75; stroke-linejoin: miter"/>
     <use xlink:href="#m5da6f15fd6" x="682.899116" y="106.278963" style="fill: #d62728; stroke: #ffffff; stroke-width: 0.75; stroke-linejoin: miter"/>
     <use xlink:href="#m5da6f15fd6" x="686.740713" y="102.660768" style="fill: #d62728; stroke: #ffffff; stroke-width: 0.75; stroke-linejoin: miter"/>
     <use xlink:href="#m5da6f15fd6" x="690.334287" y="97.794919" style="fill: #d62728; stroke: #ffffff; stroke-width: 0.75; stroke-linejoin: miter"/>
     <use xlink:href="#m5da6f15fd6" x="693.70993" y="97.420623" style="fill: #d62728; stroke: #ffffff; stroke-width: 0.75; stroke-linejoin: miter"/>
     <use xlink:href="#m5da6f15fd6" x="696.892572" y="97.046327" style="fill: #d62728; stroke: #ffffff; stroke-width: 0.75; stroke-linejoin: miter"/>
     <use xlink:href="#m5da6f15fd6" x="699.903093" y="94.426255" style="fill: #d62728; stroke: #ffffff; stroke-width: 0.75; stroke-linejoin: miter"/>
     <use xlink:href="#m5da6f15fd6" x="702.759158" y="93.552898" style="fill: #d62728; stroke: #ffffff; stroke-width: 0.75; stroke-linejoin: miter"/>
     <use xlink:href="#m5da6f15fd6" x="705.475847" y="92.804306" style="fill: #d62728; stroke: #ffffff; stroke-width: 0.75; stroke-linejoin: miter"/>
     <use xlink:href="#m5da6f15fd6" x="708.066131" y="92.804306" style="fill: #d62728; stroke: #ffffff; stroke-width: 0.75; stroke-linejoin: miter"/>
     <use xlink:href="#m5da6f15fd6" x="710.541253" y="91.806183" style="fill: #d62728; stroke: #ffffff; stroke-width: 0.75; stroke-linejoin: miter"/>
     <use xlink:href="#m5da6f15fd6" x="712.911018" y="90.932825" style="fill: #d62728; stroke: #ffffff; stroke-width: 0.75; stroke-linejoin: miter"/>
     <use xlink:href="#m5da6f15fd6" x="715.18403" y="90.80806" style="fill: #d62728; stroke: #ffffff; stroke-width: 0.75; stroke-linejoin: miter"/>
     <use xlink:href="#m5da6f15fd6" x="717.367882" y="90.184233" style="fill: #d62728; stroke: #ffffff; stroke-width: 0.75; stroke-linejoin: miter"/>
     <use xlink:href="#m5da6f15fd6" x="719.469304" y="84.569793" style="fill: #d62728; stroke: #ffffff; stroke-width: 0.75; stroke-linejoin: miter"/>
     <use xlink:href="#m5da6f15fd6" x="721.494293" y="84.070731" style="fill: #d62728; stroke: #ffffff; stroke-width: 0.75; stroke-linejoin: miter"/>
     <use xlink:href="#m5da6f15fd6" x="723.448215" y="83.57167" style="fill: #d62728; stroke: #ffffff; stroke-width: 0.75; stroke-linejoin: miter"/>
     <use xlink:href="#m5da6f15fd6" x="725.33589" y="81.70019" style="fill: #d62728; stroke: #ffffff; stroke-width: 0.75; stroke-linejoin: miter"/>
     <use xlink:href="#m5da6f15fd6" x="727.161662" y="80.577302" style="fill: #d62728; stroke: #ffffff; stroke-width: 0.75; stroke-linejoin: miter"/>
     <use xlink:href="#m5da6f15fd6" x="728.929464" y="79.703944" style="fill: #d62728; stroke: #ffffff; stroke-width: 0.75; stroke-linejoin: miter"/>
     <use xlink:href="#m5da6f15fd6" x="730.642863" y="78.581056" style="fill: #d62728; stroke: #ffffff; stroke-width: 0.75; stroke-linejoin: miter"/>
     <use xlink:href="#m5da6f15fd6" x="732.305108" y="77.832464" style="fill: #d62728; stroke: #ffffff; stroke-width: 0.75; stroke-linejoin: miter"/>
     <use xlink:href="#m5da6f15fd6" x="733.919165" y="72.59232" style="fill: #d62728; stroke: #ffffff; stroke-width: 0.75; stroke-linejoin: miter"/>
     <use xlink:href="#m5da6f15fd6" x="735.487749" y="72.218024" style="fill: #d62728; stroke: #ffffff; stroke-width: 0.75; stroke-linejoin: miter"/>
     <use xlink:href="#m5da6f15fd6" x="737.013354" y="71.344667" style="fill: #d62728; stroke: #ffffff; stroke-width: 0.75; stroke-linejoin: miter"/>
     <use xlink:href="#m5da6f15fd6" x="738.49827" y="70.72084" style="fill: #d62728; stroke: #ffffff; stroke-width: 0.75; stroke-linejoin: miter"/>
     <use xlink:href="#m5da6f15fd6" x="739.944613" y="69.847482" style="fill: #d62728; stroke: #ffffff; stroke-width: 0.75; stroke-linejoin: miter"/>
     <use xlink:href="#m5da6f15fd6" x="741.354336" y="69.223656" style="fill: #d62728; stroke: #ffffff; stroke-width: 0.75; stroke-linejoin: miter"/>
     <use xlink:href="#m5da6f15fd6" x="742.729247" y="49.385966" style="fill: #d62728; stroke: #ffffff; stroke-width: 0.75; stroke-linejoin: miter"/>
     <use xlink:href="#m5da6f15fd6" x="744.071024" y="48.387843" style="fill: #d62728; stroke: #ffffff; stroke-width: 0.75; stroke-linejoin: miter"/>
     <use xlink:href="#m5da6f15fd6" x="745.381228" y="48.138313" style="fill: #d62728; stroke: #ffffff; stroke-width: 0.75; stroke-linejoin: miter"/>
     <use xlink:href="#m5da6f15fd6" x="746.661309" y="47.389721" style="fill: #d62728; stroke: #ffffff; stroke-width: 0.75; stroke-linejoin: miter"/>
     <use xlink:href="#m5da6f15fd6" x="747.912621" y="46.765894" style="fill: #d62728; stroke: #ffffff; stroke-width: 0.75; stroke-linejoin: miter"/>
     <use xlink:href="#m5da6f15fd6" x="749.13643" y="46.391598" style="fill: #d62728; stroke: #ffffff; stroke-width: 0.75; stroke-linejoin: miter"/>
     <use xlink:href="#m5da6f15fd6" x="750.333919" y="45.393475" style="fill: #d62728; stroke: #ffffff; stroke-width: 0.75; stroke-linejoin: miter"/>
     <use xlink:href="#m5da6f15fd6" x="751.506195" y="43.771526" style="fill: #d62728; stroke: #ffffff; stroke-width: 0.75; stroke-linejoin: miter"/>
     <use xlink:href="#m5da6f15fd6" x="752.654299" y="43.771526" style="fill: #d62728; stroke: #ffffff; stroke-width: 0.75; stroke-linejoin: miter"/>
     <use xlink:href="#m5da6f15fd6" x="753.779208" y="43.64676" style="fill: #d62728; stroke: #ffffff; stroke-width: 0.75; stroke-linejoin: miter"/>
     <use xlink:href="#m5da6f15fd6" x="754.881839" y="43.022934" style="fill: #d62728; stroke: #ffffff; stroke-width: 0.75; stroke-linejoin: miter"/>
     <use xlink:href="#m5da6f15fd6" x="755.963059" y="43.022934" style="fill: #d62728; stroke: #ffffff; stroke-width: 0.75; stroke-linejoin: miter"/>
     <use xlink:href="#m5da6f15fd6" x="757.023683" y="42.399107" style="fill: #d62728; stroke: #ffffff; stroke-width: 0.75; stroke-linejoin: miter"/>
     <use xlink:href="#m5da6f15fd6" x="758.064481" y="40.153331" style="fill: #d62728; stroke: #ffffff; stroke-width: 0.75; stroke-linejoin: miter"/>
     <use xlink:href="#m5da6f15fd6" x="759.086181" y="39.9038" style="fill: #d62728; stroke: #ffffff; stroke-width: 0.75; stroke-linejoin: miter"/>
     <use xlink:href="#m5da6f15fd6" x="760.08947" y="39.404739" style="fill: #d62728; stroke: #ffffff; stroke-width: 0.75; stroke-linejoin: miter"/>
     <use xlink:href="#m5da6f15fd6" x="761.075002" y="38.406616" style="fill: #d62728; stroke: #ffffff; stroke-width: 0.75; stroke-linejoin: miter"/>
     <use xlink:href="#m5da6f15fd6" x="762.043392" y="37.158963" style="fill: #d62728; stroke: #ffffff; stroke-width: 0.75; stroke-linejoin: miter"/>
     <use xlink:href="#m5da6f15fd6" x="762.995229" y="35.786544" style="fill: #d62728; stroke: #ffffff; stroke-width: 0.75; stroke-linejoin: miter"/>
     <use xlink:href="#m5da6f15fd6" x="763.931067" y="35.162717" style="fill: #d62728; stroke: #ffffff; stroke-width: 0.75; stroke-linejoin: miter"/>
     <use xlink:href="#m5da6f15fd6" x="764.851436" y="35.037952" style="fill: #d62728; stroke: #ffffff; stroke-width: 0.75; stroke-linejoin: miter"/>
    </g>
   </g>
   <g id="line2d_24">
    <path d="M 53.328125 276.334125 
L 535.953577 220.252103 
L 574.548755 211.456147 
L 597.125486 203.658313 
L 613.143932 200.851093 
L 625.568804 182.57297 
L 635.720663 176.771381 
L 644.303938 163.296724 
L 651.739109 159.92806 
L 658.297395 157.12084 
L 664.163981 154.251237 
L 669.470954 151.444017 
L 674.315841 150.321129 
L 678.772704 147.638674 
L 682.899116 146.453403 
L 686.740713 145.891959 
L 690.334287 144.51954 
L 693.70993 143.708565 
L 696.892572 141.774703 
L 699.903093 141.338024 
L 702.759158 136.035497 
L 705.475847 131.356796 
L 708.066131 130.670587 
L 710.541253 130.421056 
L 712.911018 126.678096 
L 715.18403 125.118529 
L 717.367882 124.557085 
L 719.469304 122.685605 
L 721.494293 121.313186 
L 723.448215 118.568349 
L 725.33589 117.944522 
L 727.161662 116.010659 
L 728.929464 114.700623 
L 730.642863 113.577735 
L 732.305108 110.583367 
L 733.919165 105.592753 
L 735.487749 105.28084 
L 737.013354 104.968926 
L 738.49827 104.532248 
L 739.944613 102.536002 
L 741.354336 100.103078 
L 742.729247 99.416869 
L 744.071024 98.418746 
L 745.381228 96.983944 
L 746.661309 94.987699 
L 747.912621 93.490515 
L 749.13643 91.431887 
L 750.333919 89.622789 
L 751.506195 89.186111 
L 752.654299 87.127482 
L 753.779208 86.877952 
L 754.881839 85.879829 
L 755.963059 85.380768 
L 757.023683 82.760695 
L 758.064481 80.390154 
L 759.086181 77.520551 
L 760.08947 75.274775 
L 761.075002 74.339035 
L 762.043392 74.089504 
L 762.995229 73.278529 
L 763.931067 71.718963 
L 764.851436 69.909865 
" clip-path="url(#pc7384c4dd3)" style="fill: none; stroke: #1f77b4; stroke-width: 1.5; stroke-linecap: square"/>
    <defs>
     <path id="mc734145bd8" d="M 0 3 
C 0.795609 3 1.55874 2.683901 2.12132 2.12132 
C 2.683901 1.55874 3 0.795609 3 0 
C 3 -0.795609 2.683901 -1.55874 2.12132 -2.12132 
C 1.55874 -2.683901 0.795609 -3 0 -3 
C -0.795609 -3 -1.55874 -2.683901 -2.12132 -2.12132 
C -2.683901 -1.55874 -3 -0.795609 -3 0 
C -3 0.795609 -2.683901 1.55874 -2.12132 2.12132 
C -1.55874 2.683901 -0.795609 3 0 3 
z
" style="stroke: #ffffff; stroke-width: 0.75"/>
    </defs>
    <g clip-path="url(#pc7384c4dd3)">
     <use xlink:href="#mc734145bd8" x="53.328125" y="276.334125" style="fill: #1f77b4; stroke: #ffffff; stroke-width: 0.75"/>
     <use xlink:href="#mc734145bd8" x="535.953577" y="220.252103" style="fill: #1f77b4; stroke: #ffffff; stroke-width: 0.75"/>
     <use xlink:href="#mc734145bd8" x="574.548755" y="211.456147" style="fill: #1f77b4; stroke: #ffffff; stroke-width: 0.75"/>
     <use xlink:href="#mc734145bd8" x="597.125486" y="203.658313" style="fill: #1f77b4; stroke: #ffffff; stroke-width: 0.75"/>
     <use xlink:href="#mc734145bd8" x="613.143932" y="200.851093" style="fill: #1f77b4; stroke: #ffffff; stroke-width: 0.75"/>
     <use xlink:href="#mc734145bd8" x="625.568804" y="182.57297" style="fill: #1f77b4; stroke: #ffffff; stroke-width: 0.75"/>
     <use xlink:href="#mc734145bd8" x="635.720663" y="176.771381" style="fill: #1f77b4; stroke: #ffffff; stroke-width: 0.75"/>
     <use xlink:href="#mc734145bd8" x="644.303938" y="163.296724" style="fill: #1f77b4; stroke: #ffffff; stroke-width: 0.75"/>
     <use xlink:href="#mc734145bd8" x="651.739109" y="159.92806" style="fill: #1f77b4; stroke: #ffffff; stroke-width: 0.75"/>
     <use xlink:href="#mc734145bd8" x="658.297395" y="157.12084" style="fill: #1f77b4; stroke: #ffffff; stroke-width: 0.75"/>
     <use xlink:href="#mc734145bd8" x="664.163981" y="154.251237" style="fill: #1f77b4; stroke: #ffffff; stroke-width: 0.75"/>
     <use xlink:href="#mc734145bd8" x="669.470954" y="151.444017" style="fill: #1f77b4; stroke: #ffffff; stroke-width: 0.75"/>
     <use xlink:href="#mc734145bd8" x="674.315841" y="150.321129" style="fill: #1f77b4; stroke: #ffffff; stroke-width: 0.75"/>
     <use xlink:href="#mc734145bd8" x="678.772704" y="147.638674" style="fill: #1f77b4; stroke: #ffffff; stroke-width: 0.75"/>
     <use xlink:href="#mc734145bd8" x="682.899116" y="146.453403" style="fill: #1f77b4; stroke: #ffffff; stroke-width: 0.75"/>
     <use xlink:href="#mc734145bd8" x="686.740713" y="145.891959" style="fill: #1f77b4; stroke: #ffffff; stroke-width: 0.75"/>
     <use xlink:href="#mc734145bd8" x="690.334287" y="144.51954" style="fill: #1f77b4; stroke: #ffffff; stroke-width: 0.75"/>
     <use xlink:href="#mc734145bd8" x="693.70993" y="143.708565" style="fill: #1f77b4; stroke: #ffffff; stroke-width: 0.75"/>
     <use xlink:href="#mc734145bd8" x="696.892572" y="141.774703" style="fill: #1f77b4; stroke: #ffffff; stroke-width: 0.75"/>
     <use xlink:href="#mc734145bd8" x="699.903093" y="141.338024" style="fill: #1f77b4; stroke: #ffffff; stroke-width: 0.75"/>
     <use xlink:href="#mc734145bd8" x="702.759158" y="136.035497" style="fill: #1f77b4; stroke: #ffffff; stroke-width: 0.75"/>
     <use xlink:href="#mc734145bd8" x="705.475847" y="131.356796" style="fill: #1f77b4; stroke: #ffffff; stroke-width: 0.75"/>
     <use xlink:href="#mc734145bd8" x="708.066131" y="130.670587" style="fill: #1f77b4; stroke: #ffffff; stroke-width: 0.75"/>
     <use xlink:href="#mc734145bd8" x="710.541253" y="130.421056" style="fill: #1f77b4; stroke: #ffffff; stroke-width: 0.75"/>
     <use xlink:href="#mc734145bd8" x="712.911018" y="126.678096" style="fill: #1f77b4; stroke: #ffffff; stroke-width: 0.75"/>
     <use xlink:href="#mc734145bd8" x="715.18403" y="125.118529" style="fill: #1f77b4; stroke: #ffffff; stroke-width: 0.75"/>
     <use xlink:href="#mc734145bd8" x="717.367882" y="124.557085" style="fill: #1f77b4; stroke: #ffffff; stroke-width: 0.75"/>
     <use xlink:href="#mc734145bd8" x="719.469304" y="122.685605" style="fill: #1f77b4; stroke: #ffffff; stroke-width: 0.75"/>
     <use xlink:href="#mc734145bd8" x="721.494293" y="121.313186" style="fill: #1f77b4; stroke: #ffffff; stroke-width: 0.75"/>
     <use xlink:href="#mc734145bd8" x="723.448215" y="118.568349" style="fill: #1f77b4; stroke: #ffffff; stroke-width: 0.75"/>
     <use xlink:href="#mc734145bd8" x="725.33589" y="117.944522" style="fill: #1f77b4; stroke: #ffffff; stroke-width: 0.75"/>
     <use xlink:href="#mc734145bd8" x="727.161662" y="116.010659" style="fill: #1f77b4; stroke: #ffffff; stroke-width: 0.75"/>
     <use xlink:href="#mc734145bd8" x="728.929464" y="114.700623" style="fill: #1f77b4; stroke: #ffffff; stroke-width: 0.75"/>
     <use xlink:href="#mc734145bd8" x="730.642863" y="113.577735" style="fill: #1f77b4; stroke: #ffffff; stroke-width: 0.75"/>
     <use xlink:href="#mc734145bd8" x="732.305108" y="110.583367" style="fill: #1f77b4; stroke: #ffffff; stroke-width: 0.75"/>
     <use xlink:href="#mc734145bd8" x="733.919165" y="105.592753" style="fill: #1f77b4; stroke: #ffffff; stroke-width: 0.75"/>
     <use xlink:href="#mc734145bd8" x="735.487749" y="105.28084" style="fill: #1f77b4; stroke: #ffffff; stroke-width: 0.75"/>
     <use xlink:href="#mc734145bd8" x="737.013354" y="104.968926" style="fill: #1f77b4; stroke: #ffffff; stroke-width: 0.75"/>
     <use xlink:href="#mc734145bd8" x="738.49827" y="104.532248" style="fill: #1f77b4; stroke: #ffffff; stroke-width: 0.75"/>
     <use xlink:href="#mc734145bd8" x="739.944613" y="102.536002" style="fill: #1f77b4; stroke: #ffffff; stroke-width: 0.75"/>
     <use xlink:href="#mc734145bd8" x="741.354336" y="100.103078" style="fill: #1f77b4; stroke: #ffffff; stroke-width: 0.75"/>
     <use xlink:href="#mc734145bd8" x="742.729247" y="99.416869" style="fill: #1f77b4; stroke: #ffffff; stroke-width: 0.75"/>
     <use xlink:href="#mc734145bd8" x="744.071024" y="98.418746" style="fill: #1f77b4; stroke: #ffffff; stroke-width: 0.75"/>
     <use xlink:href="#mc734145bd8" x="745.381228" y="96.983944" style="fill: #1f77b4; stroke: #ffffff; stroke-width: 0.75"/>
     <use xlink:href="#mc734145bd8" x="746.661309" y="94.987699" style="fill: #1f77b4; stroke: #ffffff; stroke-width: 0.75"/>
     <use xlink:href="#mc734145bd8" x="747.912621" y="93.490515" style="fill: #1f77b4; stroke: #ffffff; stroke-width: 0.75"/>
     <use xlink:href="#mc734145bd8" x="749.13643" y="91.431887" style="fill: #1f77b4; stroke: #ffffff; stroke-width: 0.75"/>
     <use xlink:href="#mc734145bd8" x="750.333919" y="89.622789" style="fill: #1f77b4; stroke: #ffffff; stroke-width: 0.75"/>
     <use xlink:href="#mc734145bd8" x="751.506195" y="89.186111" style="fill: #1f77b4; stroke: #ffffff; stroke-width: 0.75"/>
     <use xlink:href="#mc734145bd8" x="752.654299" y="87.127482" style="fill: #1f77b4; stroke: #ffffff; stroke-width: 0.75"/>
     <use xlink:href="#mc734145bd8" x="753.779208" y="86.877952" style="fill: #1f77b4; stroke: #ffffff; stroke-width: 0.75"/>
     <use xlink:href="#mc734145bd8" x="754.881839" y="85.879829" style="fill: #1f77b4; stroke: #ffffff; stroke-width: 0.75"/>
     <use xlink:href="#mc734145bd8" x="755.963059" y="85.380768" style="fill: #1f77b4; stroke: #ffffff; stroke-width: 0.75"/>
     <use xlink:href="#mc734145bd8" x="757.023683" y="82.760695" style="fill: #1f77b4; stroke: #ffffff; stroke-width: 0.75"/>
     <use xlink:href="#mc734145bd8" x="758.064481" y="80.390154" style="fill: #1f77b4; stroke: #ffffff; stroke-width: 0.75"/>
     <use xlink:href="#mc734145bd8" x="759.086181" y="77.520551" style="fill: #1f77b4; stroke: #ffffff; stroke-width: 0.75"/>
     <use xlink:href="#mc734145bd8" x="760.08947" y="75.274775" style="fill: #1f77b4; stroke: #ffffff; stroke-width: 0.75"/>
     <use xlink:href="#mc734145bd8" x="761.075002" y="74.339035" style="fill: #1f77b4; stroke: #ffffff; stroke-width: 0.75"/>
     <use xlink:href="#mc734145bd8" x="762.043392" y="74.089504" style="fill: #1f77b4; stroke: #ffffff; stroke-width: 0.75"/>
     <use xlink:href="#mc734145bd8" x="762.995229" y="73.278529" style="fill: #1f77b4; stroke: #ffffff; stroke-width: 0.75"/>
     <use xlink:href="#mc734145bd8" x="763.931067" y="71.718963" style="fill: #1f77b4; stroke: #ffffff; stroke-width: 0.75"/>
     <use xlink:href="#mc734145bd8" x="764.851436" y="69.909865" style="fill: #1f77b4; stroke: #ffffff; stroke-width: 0.75"/>
    </g>
   </g>
   <g id="line2d_25"/>
   <g id="line2d_26"/>
   <g id="line2d_27"/>
   <g id="line2d_28"/>
   <g id="line2d_29">
    <path d="M 764.851436 288.430125 
L 764.851436 22.318125 
" clip-path="url(#pc7384c4dd3)" style="fill: none; stroke: #ff0000; stroke-width: 1.5; stroke-linecap: square"/>
   </g>
   <g id="patch_3">
    <path d="M 53.328125 259.241273 
L 53.328125 40.901923 
" style="fill: none; stroke: #000000; stroke-width: 0.8; stroke-linejoin: miter; stroke-linecap: square"/>
   </g>
   <g id="patch_4">
    <path d="M 53.328125 288.430125 
L 764.852451 288.430125 
" style="fill: none; stroke: #000000; stroke-width: 0.8; stroke-linejoin: miter; stroke-linecap: square"/>
   </g>
   <g id="text_19">
    <!-- bloaty_fuzz_target (15h:15m, at least 3 trials/fuzzer) -->
    <g transform="translate(252.495313 16.318125) scale(0.12 -0.12)">
     <defs>
      <path id="DejaVuSans-6c" d="M 603 4863 
L 1178 4863 
L 1178 0 
L 603 0 
L 603 4863 
z
" transform="scale(0.015625)"/>
      <path id="DejaVuSans-79" d="M 2059 -325 
Q 1816 -950 1584 -1140 
Q 1353 -1331 966 -1331 
L 506 -1331 
L 506 -850 
L 844 -850 
Q 1081 -850 1212 -737 
Q 1344 -625 1503 -206 
L 1606 56 
L 191 3500 
L 800 3500 
L 1894 763 
L 2988 3500 
L 3597 3500 
L 2059 -325 
z
" transform="scale(0.015625)"/>
      <path id="DejaVuSans-5f" d="M 3263 -1063 
L 3263 -1509 
L -63 -1509 
L -63 -1063 
L 3263 -1063 
z
" transform="scale(0.015625)"/>
      <path id="DejaVuSans-66" d="M 2375 4863 
L 2375 4384 
L 1825 4384 
Q 1516 4384 1395 4259 
Q 1275 4134 1275 3809 
L 1275 3500 
L 2222 3500 
L 2222 3053 
L 1275 3053 
L 1275 0 
L 697 0 
L 697 3053 
L 147 3053 
L 147 3500 
L 697 3500 
L 697 3744 
Q 697 4328 969 4595 
Q 1241 4863 1831 4863 
L 2375 4863 
z
" transform="scale(0.015625)"/>
      <path id="DejaVuSans-7a" d="M 353 3500 
L 3084 3500 
L 3084 2975 
L 922 459 
L 3084 459 
L 3084 0 
L 275 0 
L 275 525 
L 2438 3041 
L 353 3041 
L 353 3500 
z
" transform="scale(0.015625)"/>
      <path id="DejaVuSans-2c" d="M 750 794 
L 1409 794 
L 1409 256 
L 897 -744 
L 494 -744 
L 750 256 
L 750 794 
z
" transform="scale(0.015625)"/>
      <path id="DejaVuSans-73" d="M 2834 3397 
L 2834 2853 
Q 2591 2978 2328 3040 
Q 2066 3103 1784 3103 
Q 1356 3103 1142 2972 
Q 928 2841 928 2578 
Q 928 2378 1081 2264 
Q 1234 2150 1697 2047 
L 1894 2003 
Q 2506 1872 2764 1633 
Q 3022 1394 3022 966 
Q 3022 478 2636 193 
Q 2250 -91 1575 -91 
Q 1294 -91 989 -36 
Q 684 19 347 128 
L 347 722 
Q 666 556 975 473 
Q 1284 391 1588 391 
Q 1994 391 2212 530 
Q 2431 669 2431 922 
Q 2431 1156 2273 1281 
Q 2116 1406 1581 1522 
L 1381 1569 
Q 847 1681 609 1914 
Q 372 2147 372 2553 
Q 372 3047 722 3315 
Q 1072 3584 1716 3584 
Q 2034 3584 2315 3537 
Q 2597 3491 2834 3397 
z
" transform="scale(0.015625)"/>
      <path id="DejaVuSans-2f" d="M 1625 4666 
L 2156 4666 
L 531 -594 
L 0 -594 
L 1625 4666 
z
" transform="scale(0.015625)"/>
     </defs>
     <use xlink:href="#DejaVuSans-62"/>
     <use xlink:href="#DejaVuSans-6c" transform="translate(63.476562 0)"/>
     <use xlink:href="#DejaVuSans-6f" transform="translate(91.259766 0)"/>
     <use xlink:href="#DejaVuSans-61" transform="translate(152.441406 0)"/>
     <use xlink:href="#DejaVuSans-74" transform="translate(213.720703 0)"/>
     <use xlink:href="#DejaVuSans-79" transform="translate(252.929688 0)"/>
     <use xlink:href="#DejaVuSans-5f" transform="translate(312.109375 0)"/>
     <use xlink:href="#DejaVuSans-66" transform="translate(362.109375 0)"/>
     <use xlink:href="#DejaVuSans-75" transform="translate(397.314453 0)"/>
     <use xlink:href="#DejaVuSans-7a" transform="translate(460.693359 0)"/>
     <use xlink:href="#DejaVuSans-7a" transform="translate(513.183594 0)"/>
     <use xlink:href="#DejaVuSans-5f" transform="translate(565.673828 0)"/>
     <use xlink:href="#DejaVuSans-74" transform="translate(615.673828 0)"/>
     <use xlink:href="#DejaVuSans-61" transform="translate(654.882812 0)"/>
     <use xlink:href="#DejaVuSans-72" transform="translate(716.162109 0)"/>
     <use xlink:href="#DejaVuSans-67" transform="translate(755.525391 0)"/>
     <use xlink:href="#DejaVuSans-65" transform="translate(819.001953 0)"/>
     <use xlink:href="#DejaVuSans-74" transform="translate(880.525391 0)"/>
     <use xlink:href="#DejaVuSans-20" transform="translate(919.734375 0)"/>
     <use xlink:href="#DejaVuSans-28" transform="translate(951.521484 0)"/>
     <use xlink:href="#DejaVuSans-31" transform="translate(990.535156 0)"/>
     <use xlink:href="#DejaVuSans-35" transform="translate(1054.158203 0)"/>
     <use xlink:href="#DejaVuSans-68" transform="translate(1117.78125 0)"/>
     <use xlink:href="#DejaVuSans-3a" transform="translate(1181.160156 0)"/>
     <use xlink:href="#DejaVuSans-31" transform="translate(1214.851562 0)"/>
     <use xlink:href="#DejaVuSans-35" transform="translate(1278.474609 0)"/>
     <use xlink:href="#DejaVuSans-6d" transform="translate(1342.097656 0)"/>
     <use xlink:href="#DejaVuSans-2c" transform="translate(1439.509766 0)"/>
     <use xlink:href="#DejaVuSans-20" transform="translate(1471.296875 0)"/>
     <use xlink:href="#DejaVuSans-61" transform="translate(1503.083984 0)"/>
     <use xlink:href="#DejaVuSans-74" transform="translate(1564.363281 0)"/>
     <use xlink:href="#DejaVuSans-20" transform="translate(1603.572266 0)"/>
     <use xlink:href="#DejaVuSans-6c" transform="translate(1635.359375 0)"/>
     <use xlink:href="#DejaVuSans-65" transform="translate(1663.142578 0)"/>
     <use xlink:href="#DejaVuSans-61" transform="translate(1724.666016 0)"/>
     <use xlink:href="#DejaVuSans-73" transform="translate(1785.945312 0)"/>
     <use xlink:href="#DejaVuSans-74" transform="translate(1838.044922 0)"/>
     <use xlink:href="#DejaVuSans-20" transform="translate(1877.253906 0)"/>
     <use xlink:href="#DejaVuSans-33" transform="translate(1909.041016 0)"/>
     <use xlink:href="#DejaVuSans-20" transform="translate(1972.664062 0)"/>
     <use xlink:href="#DejaVuSans-74" transform="translate(2004.451172 0)"/>
     <use xlink:href="#DejaVuSans-72" transform="translate(2043.660156 0)"/>
     <use xlink:href="#DejaVuSans-69" transform="translate(2084.773438 0)"/>
     <use xlink:href="#DejaVuSans-61" transform="translate(2112.556641 0)"/>
     <use xlink:href="#DejaVuSans-6c" transform="translate(2173.835938 0)"/>
     <use xlink:href="#DejaVuSans-73" transform="translate(2201.619141 0)"/>
     <use xlink:href="#DejaVuSans-2f" transform="translate(2253.71875 0)"/>
     <use xlink:href="#DejaVuSans-66" transform="translate(2287.410156 0)"/>
     <use xlink:href="#DejaVuSans-75" transform="translate(2322.615234 0)"/>
     <use xlink:href="#DejaVuSans-7a" transform="translate(2385.994141 0)"/>
     <use xlink:href="#DejaVuSans-7a" transform="translate(2438.484375 0)"/>
     <use xlink:href="#DejaVuSans-65" transform="translate(2490.974609 0)"/>
     <use xlink:href="#DejaVuSans-72" transform="translate(2552.498047 0)"/>
     <use xlink:href="#DejaVuSans-29" transform="translate(2593.611328 0)"/>
    </g>
   </g>
   <g id="legend_1">
    <g id="line2d_30">
     <path d="M 771.568125 30.416562 
L 781.568125 30.416562 
L 791.568125 30.416562 
" style="fill: none; stroke: #c7c7c7; stroke-width: 1.5; stroke-linecap: square"/>
     <g>
      <use xlink:href="#mc30e93f8b7" x="781.568125" y="30.416562" style="fill: #c7c7c7; stroke: #ffffff; stroke-width: 0.75; stroke-linejoin: miter"/>
     </g>
    </g>
    <g id="text_20">
     <!-- aflplusplus_mopt -->
     <g transform="translate(799.568125 33.916562) scale(0.1 -0.1)">
      <defs>
       <path id="DejaVuSans-70" d="M 1159 525 
L 1159 -1331 
L 581 -1331 
L 581 3500 
L 1159 3500 
L 1159 2969 
Q 1341 3281 1617 3432 
Q 1894 3584 2278 3584 
Q 2916 3584 3314 3078 
Q 3713 2572 3713 1747 
Q 3713 922 3314 415 
Q 2916 -91 2278 -91 
Q 1894 -91 1617 61 
Q 1341 213 1159 525 
z
M 3116 1747 
Q 3116 2381 2855 2742 
Q 2594 3103 2138 3103 
Q 1681 3103 1420 2742 
Q 1159 2381 1159 1747 
Q 1159 1113 1420 752 
Q 1681 391 2138 391 
Q 2594 391 2855 752 
Q 3116 1113 3116 1747 
z
" transform="scale(0.015625)"/>
      </defs>
      <use xlink:href="#DejaVuSans-61"/>
      <use xlink:href="#DejaVuSans-66" transform="translate(61.279297 0)"/>
      <use xlink:href="#DejaVuSans-6c" transform="translate(96.484375 0)"/>
      <use xlink:href="#DejaVuSans-70" transform="translate(124.267578 0)"/>
      <use xlink:href="#DejaVuSans-6c" transform="translate(187.744141 0)"/>
      <use xlink:href="#DejaVuSans-75" transform="translate(215.527344 0)"/>
      <use xlink:href="#DejaVuSans-73" transform="translate(278.90625 0)"/>
      <use xlink:href="#DejaVuSans-70" transform="translate(331.005859 0)"/>
      <use xlink:href="#DejaVuSans-6c" transform="translate(394.482422 0)"/>
      <use xlink:href="#DejaVuSans-75" transform="translate(422.265625 0)"/>
      <use xlink:href="#DejaVuSans-73" transform="translate(485.644531 0)"/>
      <use xlink:href="#DejaVuSans-5f" transform="translate(537.744141 0)"/>
      <use xlink:href="#DejaVuSans-6d" transform="translate(587.744141 0)"/>
      <use xlink:href="#DejaVuSans-6f" transform="translate(685.15625 0)"/>
      <use xlink:href="#DejaVuSans-70" transform="translate(746.337891 0)"/>
      <use xlink:href="#DejaVuSans-74" transform="translate(809.814453 0)"/>
     </g>
    </g>
    <g id="line2d_31">
     <path d="M 771.568125 45.372813 
L 781.568125 45.372813 
L 791.568125 45.372813 
" style="fill: none; stroke: #98df8a; stroke-width: 1.5; stroke-linecap: square"/>
     <g>
      <use xlink:href="#md68aef0f32" x="781.568125" y="45.372813" style="fill: #98df8a; stroke: #ffffff; stroke-width: 0.75; stroke-linejoin: miter"/>
     </g>
    </g>
    <g id="text_21">
     <!-- aflplusplus_500c -->
     <g transform="translate(799.568125 48.872813) scale(0.1 -0.1)">
      <use xlink:href="#DejaVuSans-61"/>
      <use xlink:href="#DejaVuSans-66" transform="translate(61.279297 0)"/>
      <use xlink:href="#DejaVuSans-6c" transform="translate(96.484375 0)"/>
      <use xlink:href="#DejaVuSans-70" transform="translate(124.267578 0)"/>
      <use xlink:href="#DejaVuSans-6c" transform="translate(187.744141 0)"/>
      <use xlink:href="#DejaVuSans-75" transform="translate(215.527344 0)"/>
      <use xlink:href="#DejaVuSans-73" transform="translate(278.90625 0)"/>
      <use xlink:href="#DejaVuSans-70" transform="translate(331.005859 0)"/>
      <use xlink:href="#DejaVuSans-6c" transform="translate(394.482422 0)"/>
      <use xlink:href="#DejaVuSans-75" transform="translate(422.265625 0)"/>
      <use xlink:href="#DejaVuSans-73" transform="translate(485.644531 0)"/>
      <use xlink:href="#DejaVuSans-5f" transform="translate(537.744141 0)"/>
      <use xlink:href="#DejaVuSans-35" transform="translate(587.744141 0)"/>
      <use xlink:href="#DejaVuSans-30" transform="translate(651.367188 0)"/>
      <use xlink:href="#DejaVuSans-30" transform="translate(714.990234 0)"/>
      <use xlink:href="#DejaVuSans-63" transform="translate(778.613281 0)"/>
     </g>
    </g>
    <g id="line2d_32">
     <path d="M 771.568125 60.329063 
L 781.568125 60.329063 
L 791.568125 60.329063 
" style="fill: none; stroke: #d62728; stroke-width: 1.5; stroke-linecap: square"/>
     <g>
      <use xlink:href="#m5da6f15fd6" x="781.568125" y="60.329063" style="fill: #d62728; stroke: #ffffff; stroke-width: 0.75; stroke-linejoin: miter"/>
     </g>
    </g>
    <g id="text_22">
     <!-- aflplusplus_c11 -->
     <g transform="translate(799.568125 63.829063) scale(0.1 -0.1)">
      <use xlink:href="#DejaVuSans-61"/>
      <use xlink:href="#DejaVuSans-66" transform="translate(61.279297 0)"/>
      <use xlink:href="#DejaVuSans-6c" transform="translate(96.484375 0)"/>
      <use xlink:href="#DejaVuSans-70" transform="translate(124.267578 0)"/>
      <use xlink:href="#DejaVuSans-6c" transform="translate(187.744141 0)"/>
      <use xlink:href="#DejaVuSans-75" transform="translate(215.527344 0)"/>
      <use xlink:href="#DejaVuSans-73" transform="translate(278.90625 0)"/>
      <use xlink:href="#DejaVuSans-70" transform="translate(331.005859 0)"/>
      <use xlink:href="#DejaVuSans-6c" transform="translate(394.482422 0)"/>
      <use xlink:href="#DejaVuSans-75" transform="translate(422.265625 0)"/>
      <use xlink:href="#DejaVuSans-73" transform="translate(485.644531 0)"/>
      <use xlink:href="#DejaVuSans-5f" transform="translate(537.744141 0)"/>
      <use xlink:href="#DejaVuSans-63" transform="translate(587.744141 0)"/>
      <use xlink:href="#DejaVuSans-31" transform="translate(642.724609 0)"/>
      <use xlink:href="#DejaVuSans-31" transform="translate(706.347656 0)"/>
     </g>
    </g>
    <g id="line2d_33">
     <path d="M 771.568125 75.285313 
L 781.568125 75.285313 
L 791.568125 75.285313 
" style="fill: none; stroke: #1f77b4; stroke-width: 1.5; stroke-linecap: square"/>
     <g>
      <use xlink:href="#mc734145bd8" x="781.568125" y="75.285313" style="fill: #1f77b4; stroke: #ffffff; stroke-width: 0.75"/>
     </g>
    </g>
    <g id="text_23">
     <!-- aflplusplus_440c -->
     <g transform="translate(799.568125 78.785313) scale(0.1 -0.1)">
      <use xlink:href="#DejaVuSans-61"/>
      <use xlink:href="#DejaVuSans-66" transform="translate(61.279297 0)"/>
      <use xlink:href="#DejaVuSans-6c" transform="translate(96.484375 0)"/>
      <use xlink:href="#DejaVuSans-70" transform="translate(124.267578 0)"/>
      <use xlink:href="#DejaVuSans-6c" transform="translate(187.744141 0)"/>
      <use xlink:href="#DejaVuSans-75" transform="translate(215.527344 0)"/>
      <use xlink:href="#DejaVuSans-73" transform="translate(278.90625 0)"/>
      <use xlink:href="#DejaVuSans-70" transform="translate(331.005859 0)"/>
      <use xlink:href="#DejaVuSans-6c" transform="translate(394.482422 0)"/>
      <use xlink:href="#DejaVuSans-75" transform="translate(422.265625 0)"/>
      <use xlink:href="#DejaVuSans-73" transform="translate(485.644531 0)"/>
      <use xlink:href="#DejaVuSans-5f" transform="translate(537.744141 0)"/>
      <use xlink:href="#DejaVuSans-34" transform="translate(587.744141 0)"/>
      <use xlink:href="#DejaVuSans-34" transform="translate(651.367188 0)"/>
      <use xlink:href="#DejaVuSans-30" transform="translate(714.990234 0)"/>
      <use xlink:href="#DejaVuSans-63" transform="translate(778.613281 0)"/>
     </g>
    </g>
   </g>
  </g>
 </g>
 <defs>
  <clipPath id="pc7384c4dd3">
   <rect x="53.328125" y="22.318125" width="714.24" height="266.112"/>
  </clipPath>
 </defs>
</svg>
