<?xml version="1.0" encoding="utf-8" standalone="no"?>
<!DOCTYPE svg PUBLIC "-//W3C//DTD SVG 1.1//EN"
  "http://www.w3.org/Graphics/SVG/1.1/DTD/svg11.dtd">
<svg xmlns:xlink="http://www.w3.org/1999/xlink" width="902.032187pt" height="325.986375pt" viewBox="0 0 902.032187 325.986375" xmlns="http://www.w3.org/2000/svg" version="1.1">
 <metadata>
  <rdf:RDF xmlns:dc="http://purl.org/dc/elements/1.1/" xmlns:cc="http://creativecommons.org/ns#" xmlns:rdf="http://www.w3.org/1999/02/22-rdf-syntax-ns#">
   <cc:Work>
    <dc:type rdf:resource="http://purl.org/dc/dcmitype/StillImage"/>
    <dc:date>2026-06-10T03:19:17.738852</dc:date>
    <dc:format>image/svg+xml</dc:format>
    <dc:creator>
     <cc:Agent>
      <dc:title>Matplotlib v3.10.9, https://matplotlib.org/</dc:title>
     </cc:Agent>
    </dc:creator>
   </cc:Work>
  </rdf:RDF>
 </metadata>
 <defs>
  <style type="text/css">*{stroke-linejoin: round; stroke-linecap: butt}</style>
 </defs>
 <g id="figure_1">
  <g id="patch_1">
   <path d="M 0 325.986375 
L 902.032187 325.986375 
L 902.032187 0 
L 0 0 
z
" style="fill: #ffffff"/>
  </g>
  <g id="axes_1">
   <g id="patch_2">
    <path d="M 59.690625 288.430125 
L 773.930625 288.430125 
L 773.930625 22.318125 
L 59.690625 22.318125 
z
" style="fill: #ffffff"/>
   </g>
   <g id="FillBetweenPolyCollection_1">
    <defs>
     <path id="m9f48375520" d="M 59.690625 -49.65225 
L 59.690625 -49.65225 
L 552.329366 -229.047033 
L 591.725298 -235.708598 
L 614.770441 -236.292946 
L 631.121231 -238.104424 
L 643.803888 -240.792424 
L 654.166374 -242.545467 
L 662.92773 -243.363554 
L 670.517163 -243.363554 
L 677.211517 -243.363554 
L 683.19982 -243.363554 
L 688.6169 -243.363554 
L 693.562306 -243.363554 
L 698.111638 -243.363554 
L 702.323662 -243.363554 
L 706.244963 -243.363554 
L 709.913095 -243.363554 
L 713.358775 -243.480424 
L 716.607449 -243.480424 
L 719.68043 -243.480424 
L 722.595752 -243.538859 
L 725.368805 -243.714163 
L 728.012832 -243.772598 
L 730.539306 -243.772598 
L 732.958238 -243.947902 
L 735.27841 -244.473815 
L 737.50757 -244.473815 
L 739.652592 -245.175033 
L 741.719595 -250.492598 
L 743.714056 -255.108946 
L 745.640895 -257.154163 
L 747.504548 -257.563207 
L 749.309027 -262.647033 
L 751.057975 -266.795902 
L 752.754707 -269.133293 
L 754.402252 -269.834511 
L 756.003381 -270.18512 
L 757.560638 -271.29538 
L 759.076363 -271.762859 
L 760.552713 -272.113467 
L 761.991684 -273.749641 
L 763.395122 -274.041815 
L 764.764738 -274.859902 
L 766.102124 -275.210511 
L 767.408764 -275.736424 
L 768.686038 -275.853293 
L 769.935238 -276.496076 
L 771.157572 -276.846685 
L 771.157572 -289.643902 
L 771.157572 -289.643902 
L 769.935238 -289.527033 
L 768.686038 -289.527033 
L 767.408764 -289.410163 
L 766.102124 -289.351728 
L 764.764738 -288.825815 
L 763.395122 -288.825815 
L 761.991684 -288.825815 
L 760.552713 -288.825815 
L 759.076363 -288.76738 
L 757.560638 -288.708946 
L 756.003381 -288.592076 
L 754.402252 -288.475207 
L 752.754707 -287.306511 
L 751.057975 -286.780598 
L 749.309027 -286.605293 
L 747.504548 -286.254685 
L 745.640895 -285.962511 
L 743.714056 -285.845641 
L 741.719595 -285.787207 
L 739.652592 -285.261293 
L 737.50757 -285.202859 
L 735.27841 -285.202859 
L 732.958238 -284.793815 
L 730.539306 -284.618511 
L 728.012832 -284.618511 
L 725.368805 -284.560076 
L 722.595752 -284.560076 
L 719.68043 -284.384772 
L 716.607449 -284.326337 
L 713.358775 -283.858859 
L 709.913095 -283.157641 
L 706.244963 -281.346163 
L 702.323662 -278.891902 
L 698.111638 -277.197293 
L 693.562306 -277.080424 
L 688.6169 -275.32738 
L 683.19982 -274.450859 
L 677.211517 -273.808076 
L 670.517163 -272.75625 
L 662.92773 -271.353815 
L 654.166374 -266.386859 
L 643.803888 -265.101293 
L 631.121231 -258.615033 
L 614.770441 -256.219207 
L 591.725298 -251.310685 
L 552.329366 -245.058163 
L 59.690625 -49.65225 
z
" style="stroke: #c7c7c7; stroke-opacity: 0.2"/>
    </defs>
    <g clip-path="url(#p6048349564)">
     <use xlink:href="#m9f48375520" x="0" y="325.986375" style="fill: #c7c7c7; fill-opacity: 0.2; stroke: #c7c7c7; stroke-opacity: 0.2"/>
    </g>
   </g>
   <g id="FillBetweenPolyCollection_2">
    <defs>
     <path id="ma1e3de939f" d="M 59.690625 -49.710685 
L 59.690625 -49.65225 
L 552.329366 -227.469293 
L 591.725298 -228.988598 
L 614.770441 -228.988598 
L 631.121231 -230.391033 
L 643.803888 -234.832076 
L 654.166374 -235.825467 
L 662.92773 -236.46825 
L 670.517163 -236.46825 
L 677.211517 -236.46825 
L 683.19982 -236.46825 
L 688.6169 -236.46825 
L 693.562306 -236.818859 
L 698.111638 -236.818859 
L 702.323662 -236.818859 
L 706.244963 -236.818859 
L 709.913095 -236.818859 
L 713.358775 -236.818859 
L 716.607449 -236.818859 
L 719.68043 -236.818859 
L 722.595752 -237.286337 
L 725.368805 -238.922511 
L 728.012832 -241.493641 
L 730.539306 -241.668946 
L 732.958238 -241.668946 
L 735.27841 -241.72738 
L 737.50757 -242.603902 
L 739.652592 -244.123207 
L 741.719595 -244.882859 
L 743.714056 -247.453989 
L 745.640895 -250.083554 
L 747.504548 -255.225815 
L 749.309027 -255.693293 
L 751.057975 -259.024076 
L 752.754707 -260.484946 
L 754.402252 -260.952424 
L 756.003381 -261.595207 
L 757.560638 -262.530163 
L 759.076363 -263.874163 
L 760.552713 -267.49712 
L 761.991684 -268.198337 
L 763.395122 -269.483902 
L 764.764738 -270.18512 
L 766.102124 -270.594163 
L 767.408764 -270.711033 
L 768.686038 -270.944772 
L 769.935238 -271.29538 
L 771.157572 -271.996598 
L 771.157572 -289.877641 
L 771.157572 -289.877641 
L 769.935238 -289.877641 
L 768.686038 -289.877641 
L 767.408764 -289.877641 
L 766.102124 -289.877641 
L 764.764738 -289.877641 
L 763.395122 -289.877641 
L 761.991684 -286.722163 
L 760.552713 -286.722163 
L 759.076363 -286.605293 
L 757.560638 -286.429989 
L 756.003381 -286.371554 
L 754.402252 -285.904076 
L 752.754707 -285.553467 
L 751.057975 -285.553467 
L 749.309027 -285.495033 
L 747.504548 -285.436598 
L 745.640895 -285.319728 
L 743.714056 -284.793815 
L 741.719595 -284.793815 
L 739.652592 -284.676946 
L 737.50757 -283.449815 
L 735.27841 -283.39138 
L 732.958238 -283.332946 
L 730.539306 -283.099207 
L 728.012832 -282.865467 
L 725.368805 -282.690163 
L 722.595752 -282.105815 
L 719.68043 -281.755207 
L 716.607449 -280.644946 
L 713.358775 -279.768424 
L 709.913095 -277.840076 
L 706.244963 -276.554511 
L 702.323662 -274.10025 
L 698.111638 -273.223728 
L 693.562306 -271.938163 
L 688.6169 -270.301989 
L 683.19982 -269.95138 
L 677.211517 -267.789293 
L 670.517163 -266.094685 
L 662.92773 -263.34825 
L 654.166374 -261.478337 
L 643.803888 -259.842163 
L 631.121231 -255.985467 
L 614.770441 -251.018511 
L 591.725298 -244.590685 
L 552.329366 -235.357989 
L 59.690625 -49.710685 
z
" style="stroke: #d62728; stroke-opacity: 0.2"/>
    </defs>
    <g clip-path="url(#p6048349564)">
     <use xlink:href="#ma1e3de939f" x="0" y="325.986375" style="fill: #d62728; fill-opacity: 0.2; stroke: #d62728; stroke-opacity: 0.2"/>
    </g>
   </g>
   <g id="FillBetweenPolyCollection_3">
    <defs>
     <path id="m03094d5ab4" d="M 59.690625 -49.65225 
L 59.690625 -49.65225 
L 552.329366 -210.347902 
L 591.725298 -211.282859 
L 614.770441 -211.282859 
L 631.121231 -211.282859 
L 643.803888 -211.282859 
L 654.166374 -211.282859 
L 662.92773 -211.282859 
L 670.517163 -211.282859 
L 677.211517 -211.282859 
L 683.19982 -211.282859 
L 688.6169 -211.282859 
L 693.562306 -211.282859 
L 698.111638 -211.282859 
L 702.323662 -211.282859 
L 706.244963 -211.282859 
L 709.913095 -211.282859 
L 713.358775 -211.282859 
L 716.607449 -211.282859 
L 719.68043 -211.282859 
L 722.595752 -211.282859 
L 725.368805 -212.977467 
L 728.012832 -212.977467 
L 730.539306 -212.977467 
L 732.958238 -213.62025 
L 735.27841 -214.379902 
L 737.50757 -214.379902 
L 739.652592 -215.022685 
L 741.719595 -216.483554 
L 743.714056 -222.210163 
L 745.640895 -228.28738 
L 747.504548 -230.741641 
L 749.309027 -236.117641 
L 751.057975 -238.688772 
L 752.754707 -240.967728 
L 754.402252 -241.610511 
L 756.003381 -244.356946 
L 757.560638 -244.882859 
L 759.076363 -246.168424 
L 760.552713 -249.382337 
L 761.991684 -249.382337 
L 763.395122 -251.778163 
L 764.764738 -255.342685 
L 766.102124 -255.810163 
L 767.408764 -256.102337 
L 768.686038 -257.154163 
L 769.935238 -258.439728 
L 771.157572 -258.556598 
L 771.157572 -291.57225 
L 771.157572 -291.57225 
L 769.935238 -291.280076 
L 768.686038 -291.104772 
L 767.408764 -291.104772 
L 766.102124 -291.046337 
L 764.764738 -290.929467 
L 763.395122 -289.351728 
L 761.991684 -289.293293 
L 760.552713 -289.293293 
L 759.076363 -289.293293 
L 757.560638 -288.416772 
L 756.003381 -287.598685 
L 754.402252 -287.306511 
L 752.754707 -287.131207 
L 751.057975 -286.722163 
L 749.309027 -286.663728 
L 747.504548 -286.546859 
L 745.640895 -286.429989 
L 743.714056 -286.07938 
L 741.719595 -286.020946 
L 739.652592 -282.865467 
L 737.50757 -282.865467 
L 735.27841 -282.748598 
L 732.958238 -282.690163 
L 730.539306 -282.456424 
L 728.012832 -281.930511 
L 725.368805 -281.930511 
L 722.595752 -281.346163 
L 719.68043 -281.170859 
L 716.607449 -281.112424 
L 713.358775 -281.053989 
L 709.913095 -280.294337 
L 706.244963 -279.826859 
L 702.323662 -279.651554 
L 698.111638 -279.300946 
L 693.562306 -278.775033 
L 688.6169 -278.307554 
L 683.19982 -276.262337 
L 677.211517 -274.21712 
L 670.517163 -273.515902 
L 662.92773 -272.464076 
L 654.166374 -270.944772 
L 643.803888 -268.373641 
L 631.121231 -263.289815 
L 614.770441 -261.010859 
L 591.725298 -249.323902 
L 552.329366 -239.448424 
L 59.690625 -49.65225 
z
" style="stroke: #1f77b4; stroke-opacity: 0.2"/>
    </defs>
    <g clip-path="url(#p6048349564)">
     <use xlink:href="#m03094d5ab4" x="0" y="325.986375" style="fill: #1f77b4; fill-opacity: 0.2; stroke: #1f77b4; stroke-opacity: 0.2"/>
    </g>
   </g>
   <g id="FillBetweenPolyCollection_4">
    <defs>
     <path id="m23df98bf36" d="M 59.690625 -49.76912 
L 59.690625 -49.65225 
L 552.329366 -217.301641 
L 591.725298 -217.301641 
L 614.770441 -217.301641 
L 631.121231 -217.301641 
L 643.803888 -217.301641 
L 654.166374 -217.301641 
L 662.92773 -217.301641 
L 670.517163 -217.301641 
L 677.211517 -217.301641 
L 683.19982 -217.301641 
L 688.6169 -217.301641 
L 693.562306 -217.301641 
L 698.111638 -217.301641 
L 702.323662 -217.301641 
L 706.244963 -217.301641 
L 709.913095 -217.301641 
L 713.358775 -217.710685 
L 716.607449 -217.710685 
L 719.68043 -217.710685 
L 722.595752 -217.710685 
L 725.368805 -217.710685 
L 728.012832 -217.710685 
L 730.539306 -218.645641 
L 732.958238 -218.762511 
L 735.27841 -218.762511 
L 737.50757 -218.87938 
L 739.652592 -219.229989 
L 741.719595 -220.398685 
L 743.714056 -226.242163 
L 745.640895 -232.144076 
L 747.504548 -237.578511 
L 749.309027 -239.974337 
L 751.057975 -242.662337 
L 752.754707 -244.473815 
L 754.402252 -245.99312 
L 756.003381 -248.038337 
L 757.560638 -248.038337 
L 759.076363 -248.739554 
L 760.552713 -250.434163 
L 761.991684 -251.544424 
L 763.395122 -253.239033 
L 764.764738 -254.115554 
L 766.102124 -255.693293 
L 767.408764 -256.394511 
L 768.686038 -258.205989 
L 769.935238 -259.024076 
L 771.157572 -260.192772 
L 771.157572 -291.338511 
L 771.157572 -291.338511 
L 769.935238 -288.592076 
L 768.686038 -288.592076 
L 767.408764 -288.533641 
L 766.102124 -288.416772 
L 764.764738 -288.416772 
L 763.395122 -288.416772 
L 761.991684 -288.416772 
L 760.552713 -288.358337 
L 759.076363 -288.358337 
L 757.560638 -288.299902 
L 756.003381 -288.007728 
L 754.402252 -288.007728 
L 752.754707 -287.598685 
L 751.057975 -287.54025 
L 749.309027 -287.54025 
L 747.504548 -286.663728 
L 745.640895 -285.845641 
L 743.714056 -285.728772 
L 741.719595 -285.085989 
L 739.652592 -285.027554 
L 737.50757 -284.910685 
L 735.27841 -284.910685 
L 732.958238 -284.85225 
L 730.539306 -284.793815 
L 728.012832 -284.560076 
L 725.368805 -284.443207 
L 722.595752 -281.287728 
L 719.68043 -281.053989 
L 716.607449 -280.761815 
L 713.358775 -280.644946 
L 709.913095 -280.469641 
L 706.244963 -280.235902 
L 702.323662 -279.885293 
L 698.111638 -279.709989 
L 693.562306 -278.424424 
L 688.6169 -278.24912 
L 683.19982 -277.489467 
L 677.211517 -276.90512 
L 670.517163 -274.801467 
L 662.92773 -274.041815 
L 654.166374 -272.288772 
L 643.803888 -270.886337 
L 631.121231 -269.308598 
L 614.770441 -260.192772 
L 591.725298 -254.583033 
L 552.329366 -239.27312 
L 59.690625 -49.76912 
z
" style="stroke: #98df8a; stroke-opacity: 0.2"/>
    </defs>
    <g clip-path="url(#p6048349564)">
     <use xlink:href="#m23df98bf36" x="0" y="325.986375" style="fill: #98df8a; fill-opacity: 0.2; stroke: #98df8a; stroke-opacity: 0.2"/>
    </g>
   </g>
   <g id="matplotlib.axis_1">
    <g id="xtick_1">
     <g id="line2d_1">
      <defs>
       <path id="mf0e82c0e34" d="M 0 0 
L 0 3.5 
" style="stroke: #000000; stroke-width: 0.8"/>
      </defs>
      <g>
       <use xlink:href="#mf0e82c0e34" x="59.690625" y="288.430125" style="stroke: #000000; stroke-width: 0.8"/>
      </g>
     </g>
     <g id="text_1">
      <!-- 0m -->
      <g transform="translate(51.639063 303.028562) scale(0.1 -0.1)">
       <defs>
        <path id="DejaVuSans-30" d="M 2034 4250 
Q 1547 4250 1301 3770 
Q 1056 3291 1056 2328 
Q 1056 1369 1301 889 
Q 1547 409 2034 409 
Q 2525 409 2770 889 
Q 3016 1369 3016 2328 
Q 3016 3291 2770 3770 
Q 2525 4250 2034 4250 
z
M 2034 4750 
Q 2819 4750 3233 4129 
Q 3647 3509 3647 2328 
Q 3647 1150 3233 529 
Q 2819 -91 2034 -91 
Q 1250 -91 836 529 
Q 422 1150 422 2328 
Q 422 3509 836 4129 
Q 1250 4750 2034 4750 
z
" transform="scale(0.015625)"/>
        <path id="DejaVuSans-6d" d="M 3328 2828 
Q 3544 3216 3844 3400 
Q 4144 3584 4550 3584 
Q 5097 3584 5394 3201 
Q 5691 2819 5691 2113 
L 5691 0 
L 5113 0 
L 5113 2094 
Q 5113 2597 4934 2840 
Q 4756 3084 4391 3084 
Q 3944 3084 3684 2787 
Q 3425 2491 3425 1978 
L 3425 0 
L 2847 0 
L 2847 2094 
Q 2847 2600 2669 2842 
Q 2491 3084 2119 3084 
Q 1678 3084 1418 2786 
Q 1159 2488 1159 1978 
L 1159 0 
L 581 0 
L 581 3500 
L 1159 3500 
L 1159 2956 
Q 1356 3278 1631 3431 
Q 1906 3584 2284 3584 
Q 2666 3584 2933 3390 
Q 3200 3197 3328 2828 
z
" transform="scale(0.015625)"/>
       </defs>
       <use xlink:href="#DejaVuSans-30"/>
       <use xlink:href="#DejaVuSans-6d" transform="translate(63.623047 0)"/>
      </g>
     </g>
    </g>
    <g id="xtick_2">
     <g id="line2d_2">
      <g>
       <use xlink:href="#mf0e82c0e34" x="132.396433" y="288.430125" style="stroke: #000000; stroke-width: 0.8"/>
      </g>
     </g>
    </g>
    <g id="xtick_3">
     <g id="line2d_3">
      <g>
       <use xlink:href="#mf0e82c0e34" x="226.251569" y="288.430125" style="stroke: #000000; stroke-width: 0.8"/>
      </g>
     </g>
    </g>
    <g id="xtick_4">
     <g id="line2d_4">
      <g>
       <use xlink:href="#mf0e82c0e34" x="286.79683" y="288.430125" style="stroke: #000000; stroke-width: 0.8"/>
      </g>
     </g>
    </g>
    <g id="xtick_5">
     <g id="line2d_5">
      <g>
       <use xlink:href="#mf0e82c0e34" x="347.34209" y="288.430125" style="stroke: #000000; stroke-width: 0.8"/>
      </g>
     </g>
    </g>
    <g id="xtick_6">
     <g id="line2d_6">
      <g>
       <use xlink:href="#mf0e82c0e34" x="407.887351" y="288.430125" style="stroke: #000000; stroke-width: 0.8"/>
      </g>
     </g>
     <g id="text_2">
      <!-- 1m -->
      <g transform="translate(399.835789 303.028562) scale(0.1 -0.1)">
       <defs>
        <path id="DejaVuSans-31" d="M 794 531 
L 1825 531 
L 1825 4091 
L 703 3866 
L 703 4441 
L 1819 4666 
L 2450 4666 
L 2450 531 
L 3481 531 
L 3481 0 
L 794 0 
L 794 531 
z
" transform="scale(0.015625)"/>
       </defs>
       <use xlink:href="#DejaVuSans-31"/>
       <use xlink:href="#DejaVuSans-6d" transform="translate(63.623047 0)"/>
      </g>
     </g>
    </g>
    <g id="xtick_7">
     <g id="line2d_7">
      <g>
       <use xlink:href="#mf0e82c0e34" x="468.432612" y="288.430125" style="stroke: #000000; stroke-width: 0.8"/>
      </g>
     </g>
     <g id="text_3">
      <!-- 3m -->
      <g transform="translate(460.381049 303.028562) scale(0.1 -0.1)">
       <defs>
        <path id="DejaVuSans-33" d="M 2597 2516 
Q 3050 2419 3304 2112 
Q 3559 1806 3559 1356 
Q 3559 666 3084 287 
Q 2609 -91 1734 -91 
Q 1441 -91 1130 -33 
Q 819 25 488 141 
L 488 750 
Q 750 597 1062 519 
Q 1375 441 1716 441 
Q 2309 441 2620 675 
Q 2931 909 2931 1356 
Q 2931 1769 2642 2001 
Q 2353 2234 1838 2234 
L 1294 2234 
L 1294 2753 
L 1863 2753 
Q 2328 2753 2575 2939 
Q 2822 3125 2822 3475 
Q 2822 3834 2567 4026 
Q 2313 4219 1838 4219 
Q 1578 4219 1281 4162 
Q 984 4106 628 3988 
L 628 4550 
Q 988 4650 1302 4700 
Q 1616 4750 1894 4750 
Q 2613 4750 3031 4423 
Q 3450 4097 3450 3541 
Q 3450 3153 3228 2886 
Q 3006 2619 2597 2516 
z
" transform="scale(0.015625)"/>
       </defs>
       <use xlink:href="#DejaVuSans-33"/>
       <use xlink:href="#DejaVuSans-6d" transform="translate(63.623047 0)"/>
      </g>
     </g>
    </g>
    <g id="xtick_8">
     <g id="line2d_8">
      <g>
       <use xlink:href="#mf0e82c0e34" x="528.977873" y="288.430125" style="stroke: #000000; stroke-width: 0.8"/>
      </g>
     </g>
     <g id="text_4">
      <!-- 9m -->
      <g transform="translate(520.92631 303.028562) scale(0.1 -0.1)">
       <defs>
        <path id="DejaVuSans-39" d="M 703 97 
L 703 672 
Q 941 559 1184 500 
Q 1428 441 1663 441 
Q 2288 441 2617 861 
Q 2947 1281 2994 2138 
Q 2813 1869 2534 1725 
Q 2256 1581 1919 1581 
Q 1219 1581 811 2004 
Q 403 2428 403 3163 
Q 403 3881 828 4315 
Q 1253 4750 1959 4750 
Q 2769 4750 3195 4129 
Q 3622 3509 3622 2328 
Q 3622 1225 3098 567 
Q 2575 -91 1691 -91 
Q 1453 -91 1209 -44 
Q 966 3 703 97 
z
M 1959 2075 
Q 2384 2075 2632 2365 
Q 2881 2656 2881 3163 
Q 2881 3666 2632 3958 
Q 2384 4250 1959 4250 
Q 1534 4250 1286 3958 
Q 1038 3666 1038 3163 
Q 1038 2656 1286 2365 
Q 1534 2075 1959 2075 
z
" transform="scale(0.015625)"/>
       </defs>
       <use xlink:href="#DejaVuSans-39"/>
       <use xlink:href="#DejaVuSans-6d" transform="translate(63.623047 0)"/>
      </g>
     </g>
    </g>
    <g id="xtick_9">
     <g id="line2d_9">
      <g>
       <use xlink:href="#mf0e82c0e34" x="589.523133" y="288.430125" style="stroke: #000000; stroke-width: 0.8"/>
      </g>
     </g>
     <g id="text_5">
      <!-- 28m -->
      <g transform="translate(578.290321 303.028562) scale(0.1 -0.1)">
       <defs>
        <path id="DejaVuSans-32" d="M 1228 531 
L 3431 531 
L 3431 0 
L 469 0 
L 469 531 
Q 828 903 1448 1529 
Q 2069 2156 2228 2338 
Q 2531 2678 2651 2914 
Q 2772 3150 2772 3378 
Q 2772 3750 2511 3984 
Q 2250 4219 1831 4219 
Q 1534 4219 1204 4116 
Q 875 4013 500 3803 
L 500 4441 
Q 881 4594 1212 4672 
Q 1544 4750 1819 4750 
Q 2544 4750 2975 4387 
Q 3406 4025 3406 3419 
Q 3406 3131 3298 2873 
Q 3191 2616 2906 2266 
Q 2828 2175 2409 1742 
Q 1991 1309 1228 531 
z
" transform="scale(0.015625)"/>
        <path id="DejaVuSans-38" d="M 2034 2216 
Q 1584 2216 1326 1975 
Q 1069 1734 1069 1313 
Q 1069 891 1326 650 
Q 1584 409 2034 409 
Q 2484 409 2743 651 
Q 3003 894 3003 1313 
Q 3003 1734 2745 1975 
Q 2488 2216 2034 2216 
z
M 1403 2484 
Q 997 2584 770 2862 
Q 544 3141 544 3541 
Q 544 4100 942 4425 
Q 1341 4750 2034 4750 
Q 2731 4750 3128 4425 
Q 3525 4100 3525 3541 
Q 3525 3141 3298 2862 
Q 3072 2584 2669 2484 
Q 3125 2378 3379 2068 
Q 3634 1759 3634 1313 
Q 3634 634 3220 271 
Q 2806 -91 2034 -91 
Q 1263 -91 848 271 
Q 434 634 434 1313 
Q 434 1759 690 2068 
Q 947 2378 1403 2484 
z
M 1172 3481 
Q 1172 3119 1398 2916 
Q 1625 2713 2034 2713 
Q 2441 2713 2670 2916 
Q 2900 3119 2900 3481 
Q 2900 3844 2670 4047 
Q 2441 4250 2034 4250 
Q 1625 4250 1398 4047 
Q 1172 3844 1172 3481 
z
" transform="scale(0.015625)"/>
       </defs>
       <use xlink:href="#DejaVuSans-32"/>
       <use xlink:href="#DejaVuSans-38" transform="translate(63.623047 0)"/>
       <use xlink:href="#DejaVuSans-6d" transform="translate(127.246094 0)"/>
      </g>
     </g>
    </g>
    <g id="xtick_10">
     <g id="line2d_10">
      <g>
       <use xlink:href="#mf0e82c0e34" x="650.068394" y="288.430125" style="stroke: #000000; stroke-width: 0.8"/>
      </g>
     </g>
     <g id="text_6">
      <!-- 1h:23m -->
      <g transform="translate(630.801207 303.028562) scale(0.1 -0.1)">
       <defs>
        <path id="DejaVuSans-68" d="M 3513 2113 
L 3513 0 
L 2938 0 
L 2938 2094 
Q 2938 2591 2744 2837 
Q 2550 3084 2163 3084 
Q 1697 3084 1428 2787 
Q 1159 2491 1159 1978 
L 1159 0 
L 581 0 
L 581 4863 
L 1159 4863 
L 1159 2956 
Q 1366 3272 1645 3428 
Q 1925 3584 2291 3584 
Q 2894 3584 3203 3211 
Q 3513 2838 3513 2113 
z
" transform="scale(0.015625)"/>
        <path id="DejaVuSans-3a" d="M 750 794 
L 1409 794 
L 1409 0 
L 750 0 
L 750 794 
z
M 750 3309 
L 1409 3309 
L 1409 2516 
L 750 2516 
L 750 3309 
z
" transform="scale(0.015625)"/>
       </defs>
       <use xlink:href="#DejaVuSans-31"/>
       <use xlink:href="#DejaVuSans-68" transform="translate(63.623047 0)"/>
       <use xlink:href="#DejaVuSans-3a" transform="translate(127.001953 0)"/>
       <use xlink:href="#DejaVuSans-32" transform="translate(160.693359 0)"/>
       <use xlink:href="#DejaVuSans-33" transform="translate(224.316406 0)"/>
       <use xlink:href="#DejaVuSans-6d" transform="translate(287.939453 0)"/>
      </g>
     </g>
    </g>
    <g id="xtick_11">
     <g id="line2d_11">
      <g>
       <use xlink:href="#mf0e82c0e34" x="710.613655" y="288.430125" style="stroke: #000000; stroke-width: 0.8"/>
      </g>
     </g>
     <g id="text_7">
      <!-- 4h:2m -->
      <g transform="translate(694.527717 303.028562) scale(0.1 -0.1)">
       <defs>
        <path id="DejaVuSans-34" d="M 2419 4116 
L 825 1625 
L 2419 1625 
L 2419 4116 
z
M 2253 4666 
L 3047 4666 
L 3047 1625 
L 3713 1625 
L 3713 1100 
L 3047 1100 
L 3047 0 
L 2419 0 
L 2419 1100 
L 313 1100 
L 313 1709 
L 2253 4666 
z
" transform="scale(0.015625)"/>
       </defs>
       <use xlink:href="#DejaVuSans-34"/>
       <use xlink:href="#DejaVuSans-68" transform="translate(63.623047 0)"/>
       <use xlink:href="#DejaVuSans-3a" transform="translate(127.001953 0)"/>
       <use xlink:href="#DejaVuSans-32" transform="translate(160.693359 0)"/>
       <use xlink:href="#DejaVuSans-6d" transform="translate(224.316406 0)"/>
      </g>
     </g>
    </g>
    <g id="xtick_12">
     <g id="line2d_12">
      <g>
       <use xlink:href="#mf0e82c0e34" x="771.158915" y="288.430125" style="stroke: #000000; stroke-width: 0.8"/>
      </g>
     </g>
     <g id="text_8">
      <!-- 11h:45m -->
      <g transform="translate(748.710478 303.028562) scale(0.1 -0.1)">
       <defs>
        <path id="DejaVuSans-35" d="M 691 4666 
L 3169 4666 
L 3169 4134 
L 1269 4134 
L 1269 2991 
Q 1406 3038 1543 3061 
Q 1681 3084 1819 3084 
Q 2600 3084 3056 2656 
Q 3513 2228 3513 1497 
Q 3513 744 3044 326 
Q 2575 -91 1722 -91 
Q 1428 -91 1123 -41 
Q 819 9 494 109 
L 494 744 
Q 775 591 1075 516 
Q 1375 441 1709 441 
Q 2250 441 2565 725 
Q 2881 1009 2881 1497 
Q 2881 1984 2565 2268 
Q 2250 2553 1709 2553 
Q 1456 2553 1204 2497 
Q 953 2441 691 2322 
L 691 4666 
z
" transform="scale(0.015625)"/>
       </defs>
       <use xlink:href="#DejaVuSans-31"/>
       <use xlink:href="#DejaVuSans-31" transform="translate(63.623047 0)"/>
       <use xlink:href="#DejaVuSans-68" transform="translate(127.246094 0)"/>
       <use xlink:href="#DejaVuSans-3a" transform="translate(190.625 0)"/>
       <use xlink:href="#DejaVuSans-34" transform="translate(224.316406 0)"/>
       <use xlink:href="#DejaVuSans-35" transform="translate(287.939453 0)"/>
       <use xlink:href="#DejaVuSans-6d" transform="translate(351.5625 0)"/>
      </g>
     </g>
    </g>
    <g id="text_9">
     <!-- Time (hour:minute) -->
     <g transform="translate(368.403594 316.706687) scale(0.1 -0.1)">
      <defs>
       <path id="DejaVuSans-54" d="M -19 4666 
L 3928 4666 
L 3928 4134 
L 2272 4134 
L 2272 0 
L 1638 0 
L 1638 4134 
L -19 4134 
L -19 4666 
z
" transform="scale(0.015625)"/>
       <path id="DejaVuSans-69" d="M 603 3500 
L 1178 3500 
L 1178 0 
L 603 0 
L 603 3500 
z
M 603 4863 
L 1178 4863 
L 1178 4134 
L 603 4134 
L 603 4863 
z
" transform="scale(0.015625)"/>
       <path id="DejaVuSans-65" d="M 3597 1894 
L 3597 1613 
L 953 1613 
Q 991 1019 1311 708 
Q 1631 397 2203 397 
Q 2534 397 2845 478 
Q 3156 559 3463 722 
L 3463 178 
Q 3153 47 2828 -22 
Q 2503 -91 2169 -91 
Q 1331 -91 842 396 
Q 353 884 353 1716 
Q 353 2575 817 3079 
Q 1281 3584 2069 3584 
Q 2775 3584 3186 3129 
Q 3597 2675 3597 1894 
z
M 3022 2063 
Q 3016 2534 2758 2815 
Q 2500 3097 2075 3097 
Q 1594 3097 1305 2825 
Q 1016 2553 972 2059 
L 3022 2063 
z
" transform="scale(0.015625)"/>
       <path id="DejaVuSans-20" transform="scale(0.015625)"/>
       <path id="DejaVuSans-28" d="M 1984 4856 
Q 1566 4138 1362 3434 
Q 1159 2731 1159 2009 
Q 1159 1288 1364 580 
Q 1569 -128 1984 -844 
L 1484 -844 
Q 1016 -109 783 600 
Q 550 1309 550 2009 
Q 550 2706 781 3412 
Q 1013 4119 1484 4856 
L 1984 4856 
z
" transform="scale(0.015625)"/>
       <path id="DejaVuSans-6f" d="M 1959 3097 
Q 1497 3097 1228 2736 
Q 959 2375 959 1747 
Q 959 1119 1226 758 
Q 1494 397 1959 397 
Q 2419 397 2687 759 
Q 2956 1122 2956 1747 
Q 2956 2369 2687 2733 
Q 2419 3097 1959 3097 
z
M 1959 3584 
Q 2709 3584 3137 3096 
Q 3566 2609 3566 1747 
Q 3566 888 3137 398 
Q 2709 -91 1959 -91 
Q 1206 -91 779 398 
Q 353 888 353 1747 
Q 353 2609 779 3096 
Q 1206 3584 1959 3584 
z
" transform="scale(0.015625)"/>
       <path id="DejaVuSans-75" d="M 544 1381 
L 544 3500 
L 1119 3500 
L 1119 1403 
Q 1119 906 1312 657 
Q 1506 409 1894 409 
Q 2359 409 2629 706 
Q 2900 1003 2900 1516 
L 2900 3500 
L 3475 3500 
L 3475 0 
L 2900 0 
L 2900 538 
Q 2691 219 2414 64 
Q 2138 -91 1772 -91 
Q 1169 -91 856 284 
Q 544 659 544 1381 
z
M 1991 3584 
L 1991 3584 
z
" transform="scale(0.015625)"/>
       <path id="DejaVuSans-72" d="M 2631 2963 
Q 2534 3019 2420 3045 
Q 2306 3072 2169 3072 
Q 1681 3072 1420 2755 
Q 1159 2438 1159 1844 
L 1159 0 
L 581 0 
L 581 3500 
L 1159 3500 
L 1159 2956 
Q 1341 3275 1631 3429 
Q 1922 3584 2338 3584 
Q 2397 3584 2469 3576 
Q 2541 3569 2628 3553 
L 2631 2963 
z
" transform="scale(0.015625)"/>
       <path id="DejaVuSans-6e" d="M 3513 2113 
L 3513 0 
L 2938 0 
L 2938 2094 
Q 2938 2591 2744 2837 
Q 2550 3084 2163 3084 
Q 1697 3084 1428 2787 
Q 1159 2491 1159 1978 
L 1159 0 
L 581 0 
L 581 3500 
L 1159 3500 
L 1159 2956 
Q 1366 3272 1645 3428 
Q 1925 3584 2291 3584 
Q 2894 3584 3203 3211 
Q 3513 2838 3513 2113 
z
" transform="scale(0.015625)"/>
       <path id="DejaVuSans-74" d="M 1172 4494 
L 1172 3500 
L 2356 3500 
L 2356 3053 
L 1172 3053 
L 1172 1153 
Q 1172 725 1289 603 
Q 1406 481 1766 481 
L 2356 481 
L 2356 0 
L 1766 0 
Q 1100 0 847 248 
Q 594 497 594 1153 
L 594 3053 
L 172 3053 
L 172 3500 
L 594 3500 
L 594 4494 
L 1172 4494 
z
" transform="scale(0.015625)"/>
       <path id="DejaVuSans-29" d="M 513 4856 
L 1013 4856 
Q 1481 4119 1714 3412 
Q 1947 2706 1947 2009 
Q 1947 1309 1714 600 
Q 1481 -109 1013 -844 
L 513 -844 
Q 928 -128 1133 580 
Q 1338 1288 1338 2009 
Q 1338 2731 1133 3434 
Q 928 4138 513 4856 
z
" transform="scale(0.015625)"/>
      </defs>
      <use xlink:href="#DejaVuSans-54"/>
      <use xlink:href="#DejaVuSans-69" transform="translate(57.958984 0)"/>
      <use xlink:href="#DejaVuSans-6d" transform="translate(85.742188 0)"/>
      <use xlink:href="#DejaVuSans-65" transform="translate(183.154297 0)"/>
      <use xlink:href="#DejaVuSans-20" transform="translate(244.677734 0)"/>
      <use xlink:href="#DejaVuSans-28" transform="translate(276.464844 0)"/>
      <use xlink:href="#DejaVuSans-68" transform="translate(315.478516 0)"/>
      <use xlink:href="#DejaVuSans-6f" transform="translate(378.857422 0)"/>
      <use xlink:href="#DejaVuSans-75" transform="translate(440.039062 0)"/>
      <use xlink:href="#DejaVuSans-72" transform="translate(503.417969 0)"/>
      <use xlink:href="#DejaVuSans-3a" transform="translate(542.78125 0)"/>
      <use xlink:href="#DejaVuSans-6d" transform="translate(576.472656 0)"/>
      <use xlink:href="#DejaVuSans-69" transform="translate(673.884766 0)"/>
      <use xlink:href="#DejaVuSans-6e" transform="translate(701.667969 0)"/>
      <use xlink:href="#DejaVuSans-75" transform="translate(765.046875 0)"/>
      <use xlink:href="#DejaVuSans-74" transform="translate(828.425781 0)"/>
      <use xlink:href="#DejaVuSans-65" transform="translate(867.634766 0)"/>
      <use xlink:href="#DejaVuSans-29" transform="translate(929.158203 0)"/>
     </g>
    </g>
   </g>
   <g id="matplotlib.axis_2">
    <g id="ytick_1">
     <g id="line2d_13">
      <defs>
       <path id="mdcc2ed8e70" d="M 0 0 
L -3.5 0 
" style="stroke: #000000; stroke-width: 0.8"/>
      </defs>
      <g>
       <use xlink:href="#mdcc2ed8e70" x="59.690625" y="271.951516" style="stroke: #000000; stroke-width: 0.8"/>
      </g>
     </g>
     <g id="text_10">
      <!-- 7000 -->
      <g transform="translate(27.240625 275.750735) scale(0.1 -0.1)">
       <defs>
        <path id="DejaVuSans-37" d="M 525 4666 
L 3525 4666 
L 3525 4397 
L 1831 0 
L 1172 0 
L 2766 4134 
L 525 4134 
L 525 4666 
z
" transform="scale(0.015625)"/>
       </defs>
       <use xlink:href="#DejaVuSans-37"/>
       <use xlink:href="#DejaVuSans-30" transform="translate(63.623047 0)"/>
       <use xlink:href="#DejaVuSans-30" transform="translate(127.246094 0)"/>
       <use xlink:href="#DejaVuSans-30" transform="translate(190.869141 0)"/>
      </g>
     </g>
    </g>
    <g id="ytick_2">
     <g id="line2d_14">
      <g>
       <use xlink:href="#mdcc2ed8e70" x="59.690625" y="213.516734" style="stroke: #000000; stroke-width: 0.8"/>
      </g>
     </g>
     <g id="text_11">
      <!-- 8000 -->
      <g transform="translate(27.240625 217.315952) scale(0.1 -0.1)">
       <use xlink:href="#DejaVuSans-38"/>
       <use xlink:href="#DejaVuSans-30" transform="translate(63.623047 0)"/>
       <use xlink:href="#DejaVuSans-30" transform="translate(127.246094 0)"/>
       <use xlink:href="#DejaVuSans-30" transform="translate(190.869141 0)"/>
      </g>
     </g>
    </g>
    <g id="ytick_3">
     <g id="line2d_15">
      <g>
       <use xlink:href="#mdcc2ed8e70" x="59.690625" y="155.081951" style="stroke: #000000; stroke-width: 0.8"/>
      </g>
     </g>
     <g id="text_12">
      <!-- 9000 -->
      <g transform="translate(27.240625 158.88117) scale(0.1 -0.1)">
       <use xlink:href="#DejaVuSans-39"/>
       <use xlink:href="#DejaVuSans-30" transform="translate(63.623047 0)"/>
       <use xlink:href="#DejaVuSans-30" transform="translate(127.246094 0)"/>
       <use xlink:href="#DejaVuSans-30" transform="translate(190.869141 0)"/>
      </g>
     </g>
    </g>
    <g id="ytick_4">
     <g id="line2d_16">
      <g>
       <use xlink:href="#mdcc2ed8e70" x="59.690625" y="96.647168" style="stroke: #000000; stroke-width: 0.8"/>
      </g>
     </g>
     <g id="text_13">
      <!-- 10000 -->
      <g transform="translate(20.878125 100.446387) scale(0.1 -0.1)">
       <use xlink:href="#DejaVuSans-31"/>
       <use xlink:href="#DejaVuSans-30" transform="translate(63.623047 0)"/>
       <use xlink:href="#DejaVuSans-30" transform="translate(127.246094 0)"/>
       <use xlink:href="#DejaVuSans-30" transform="translate(190.869141 0)"/>
       <use xlink:href="#DejaVuSans-30" transform="translate(254.492188 0)"/>
      </g>
     </g>
    </g>
    <g id="ytick_5">
     <g id="line2d_17">
      <g>
       <use xlink:href="#mdcc2ed8e70" x="59.690625" y="38.212386" style="stroke: #000000; stroke-width: 0.8"/>
      </g>
     </g>
     <g id="text_14">
      <!-- 11000 -->
      <g transform="translate(20.878125 42.011605) scale(0.1 -0.1)">
       <use xlink:href="#DejaVuSans-31"/>
       <use xlink:href="#DejaVuSans-31" transform="translate(63.623047 0)"/>
       <use xlink:href="#DejaVuSans-30" transform="translate(127.246094 0)"/>
       <use xlink:href="#DejaVuSans-30" transform="translate(190.869141 0)"/>
       <use xlink:href="#DejaVuSans-30" transform="translate(254.492188 0)"/>
      </g>
     </g>
    </g>
    <g id="text_15">
     <!-- Code branch coverage -->
     <g transform="translate(14.798438 211.949125) rotate(-90) scale(0.1 -0.1)">
      <defs>
       <path id="DejaVuSans-43" d="M 4122 4306 
L 4122 3641 
Q 3803 3938 3442 4084 
Q 3081 4231 2675 4231 
Q 1875 4231 1450 3742 
Q 1025 3253 1025 2328 
Q 1025 1406 1450 917 
Q 1875 428 2675 428 
Q 3081 428 3442 575 
Q 3803 722 4122 1019 
L 4122 359 
Q 3791 134 3420 21 
Q 3050 -91 2638 -91 
Q 1578 -91 968 557 
Q 359 1206 359 2328 
Q 359 3453 968 4101 
Q 1578 4750 2638 4750 
Q 3056 4750 3426 4639 
Q 3797 4528 4122 4306 
z
" transform="scale(0.015625)"/>
       <path id="DejaVuSans-64" d="M 2906 2969 
L 2906 4863 
L 3481 4863 
L 3481 0 
L 2906 0 
L 2906 525 
Q 2725 213 2448 61 
Q 2172 -91 1784 -91 
Q 1150 -91 751 415 
Q 353 922 353 1747 
Q 353 2572 751 3078 
Q 1150 3584 1784 3584 
Q 2172 3584 2448 3432 
Q 2725 3281 2906 2969 
z
M 947 1747 
Q 947 1113 1208 752 
Q 1469 391 1925 391 
Q 2381 391 2643 752 
Q 2906 1113 2906 1747 
Q 2906 2381 2643 2742 
Q 2381 3103 1925 3103 
Q 1469 3103 1208 2742 
Q 947 2381 947 1747 
z
" transform="scale(0.015625)"/>
       <path id="DejaVuSans-62" d="M 3116 1747 
Q 3116 2381 2855 2742 
Q 2594 3103 2138 3103 
Q 1681 3103 1420 2742 
Q 1159 2381 1159 1747 
Q 1159 1113 1420 752 
Q 1681 391 2138 391 
Q 2594 391 2855 752 
Q 3116 1113 3116 1747 
z
M 1159 2969 
Q 1341 3281 1617 3432 
Q 1894 3584 2278 3584 
Q 2916 3584 3314 3078 
Q 3713 2572 3713 1747 
Q 3713 922 3314 415 
Q 2916 -91 2278 -91 
Q 1894 -91 1617 61 
Q 1341 213 1159 525 
L 1159 0 
L 581 0 
L 581 4863 
L 1159 4863 
L 1159 2969 
z
" transform="scale(0.015625)"/>
       <path id="DejaVuSans-61" d="M 2194 1759 
Q 1497 1759 1228 1600 
Q 959 1441 959 1056 
Q 959 750 1161 570 
Q 1363 391 1709 391 
Q 2188 391 2477 730 
Q 2766 1069 2766 1631 
L 2766 1759 
L 2194 1759 
z
M 3341 1997 
L 3341 0 
L 2766 0 
L 2766 531 
Q 2569 213 2275 61 
Q 1981 -91 1556 -91 
Q 1019 -91 701 211 
Q 384 513 384 1019 
Q 384 1609 779 1909 
Q 1175 2209 1959 2209 
L 2766 2209 
L 2766 2266 
Q 2766 2663 2505 2880 
Q 2244 3097 1772 3097 
Q 1472 3097 1187 3025 
Q 903 2953 641 2809 
L 641 3341 
Q 956 3463 1253 3523 
Q 1550 3584 1831 3584 
Q 2591 3584 2966 3190 
Q 3341 2797 3341 1997 
z
" transform="scale(0.015625)"/>
       <path id="DejaVuSans-63" d="M 3122 3366 
L 3122 2828 
Q 2878 2963 2633 3030 
Q 2388 3097 2138 3097 
Q 1578 3097 1268 2742 
Q 959 2388 959 1747 
Q 959 1106 1268 751 
Q 1578 397 2138 397 
Q 2388 397 2633 464 
Q 2878 531 3122 666 
L 3122 134 
Q 2881 22 2623 -34 
Q 2366 -91 2075 -91 
Q 1284 -91 818 406 
Q 353 903 353 1747 
Q 353 2603 823 3093 
Q 1294 3584 2113 3584 
Q 2378 3584 2631 3529 
Q 2884 3475 3122 3366 
z
" transform="scale(0.015625)"/>
       <path id="DejaVuSans-76" d="M 191 3500 
L 800 3500 
L 1894 563 
L 2988 3500 
L 3597 3500 
L 2284 0 
L 1503 0 
L 191 3500 
z
" transform="scale(0.015625)"/>
       <path id="DejaVuSans-67" d="M 2906 1791 
Q 2906 2416 2648 2759 
Q 2391 3103 1925 3103 
Q 1463 3103 1205 2759 
Q 947 2416 947 1791 
Q 947 1169 1205 825 
Q 1463 481 1925 481 
Q 2391 481 2648 825 
Q 2906 1169 2906 1791 
z
M 3481 434 
Q 3481 -459 3084 -895 
Q 2688 -1331 1869 -1331 
Q 1566 -1331 1297 -1286 
Q 1028 -1241 775 -1147 
L 775 -588 
Q 1028 -725 1275 -790 
Q 1522 -856 1778 -856 
Q 2344 -856 2625 -561 
Q 2906 -266 2906 331 
L 2906 616 
Q 2728 306 2450 153 
Q 2172 0 1784 0 
Q 1141 0 747 490 
Q 353 981 353 1791 
Q 353 2603 747 3093 
Q 1141 3584 1784 3584 
Q 2172 3584 2450 3431 
Q 2728 3278 2906 2969 
L 2906 3500 
L 3481 3500 
L 3481 434 
z
" transform="scale(0.015625)"/>
      </defs>
      <use xlink:href="#DejaVuSans-43"/>
      <use xlink:href="#DejaVuSans-6f" transform="translate(69.824219 0)"/>
      <use xlink:href="#DejaVuSans-64" transform="translate(131.005859 0)"/>
      <use xlink:href="#DejaVuSans-65" transform="translate(194.482422 0)"/>
      <use xlink:href="#DejaVuSans-20" transform="translate(256.005859 0)"/>
      <use xlink:href="#DejaVuSans-62" transform="translate(287.792969 0)"/>
      <use xlink:href="#DejaVuSans-72" transform="translate(351.269531 0)"/>
      <use xlink:href="#DejaVuSans-61" transform="translate(392.382812 0)"/>
      <use xlink:href="#DejaVuSans-6e" transform="translate(453.662109 0)"/>
      <use xlink:href="#DejaVuSans-63" transform="translate(517.041016 0)"/>
      <use xlink:href="#DejaVuSans-68" transform="translate(572.021484 0)"/>
      <use xlink:href="#DejaVuSans-20" transform="translate(635.400391 0)"/>
      <use xlink:href="#DejaVuSans-63" transform="translate(667.1875 0)"/>
      <use xlink:href="#DejaVuSans-6f" transform="translate(722.167969 0)"/>
      <use xlink:href="#DejaVuSans-76" transform="translate(783.349609 0)"/>
      <use xlink:href="#DejaVuSans-65" transform="translate(842.529297 0)"/>
      <use xlink:href="#DejaVuSans-72" transform="translate(904.052734 0)"/>
      <use xlink:href="#DejaVuSans-61" transform="translate(945.166016 0)"/>
      <use xlink:href="#DejaVuSans-67" transform="translate(1006.445312 0)"/>
      <use xlink:href="#DejaVuSans-65" transform="translate(1069.921875 0)"/>
     </g>
    </g>
   </g>
   <g id="line2d_18">
    <path d="M 59.690625 276.334125 
L 552.329366 87.44369 
L 591.725298 75.844386 
L 614.770441 72.016908 
L 631.121231 68.247864 
L 643.803888 64.800212 
L 654.166374 61.615516 
L 662.92773 56.940734 
L 670.517163 55.684386 
L 677.211517 54.983168 
L 683.19982 52.674995 
L 688.6169 51.740038 
L 693.562306 49.81169 
L 698.111638 49.402647 
L 702.323662 48.847516 
L 706.244963 47.386647 
L 709.913095 47.12369 
L 713.358775 47.006821 
L 716.607449 45.312212 
L 719.68043 45.020038 
L 722.595752 44.406473 
L 725.368805 43.909777 
L 728.012832 43.792908 
L 730.539306 43.325429 
L 732.958238 42.887168 
L 735.27841 42.770299 
L 737.50757 42.711864 
L 739.652592 42.215168 
L 741.719595 41.922995 
L 743.714056 41.630821 
L 745.640895 41.455516 
L 747.504548 41.367864 
L 749.309027 40.841951 
L 751.057975 40.462125 
L 752.754707 39.906995 
L 754.402252 39.673255 
L 756.003381 39.614821 
L 757.560638 39.614821 
L 759.076363 39.410299 
L 760.552713 39.088908 
L 761.991684 38.942821 
L 763.395122 38.913603 
L 764.764738 38.913603 
L 766.102124 38.913603 
L 767.408764 38.562995 
L 768.686038 38.533777 
L 769.935238 38.475342 
L 771.157572 38.446125 
" clip-path="url(#p6048349564)" style="fill: none; stroke: #c7c7c7; stroke-width: 1.5; stroke-linecap: square"/>
    <defs>
     <path id="mf89624ebe6" d="M -3 -0 
L 3 3 
L 3 -3 
z
" style="stroke: #ffffff; stroke-width: 0.75; stroke-linejoin: miter"/>
    </defs>
    <g clip-path="url(#p6048349564)">
     <use xlink:href="#mf89624ebe6" x="59.690625" y="276.334125" style="fill: #c7c7c7; stroke: #ffffff; stroke-width: 0.75; stroke-linejoin: miter"/>
     <use xlink:href="#mf89624ebe6" x="552.329366" y="87.44369" style="fill: #c7c7c7; stroke: #ffffff; stroke-width: 0.75; stroke-linejoin: miter"/>
     <use xlink:href="#mf89624ebe6" x="591.725298" y="75.844386" style="fill: #c7c7c7; stroke: #ffffff; stroke-width: 0.75; stroke-linejoin: miter"/>
     <use xlink:href="#mf89624ebe6" x="614.770441" y="72.016908" style="fill: #c7c7c7; stroke: #ffffff; stroke-width: 0.75; stroke-linejoin: miter"/>
     <use xlink:href="#mf89624ebe6" x="631.121231" y="68.247864" style="fill: #c7c7c7; stroke: #ffffff; stroke-width: 0.75; stroke-linejoin: miter"/>
     <use xlink:href="#mf89624ebe6" x="643.803888" y="64.800212" style="fill: #c7c7c7; stroke: #ffffff; stroke-width: 0.75; stroke-linejoin: miter"/>
     <use xlink:href="#mf89624ebe6" x="654.166374" y="61.615516" style="fill: #c7c7c7; stroke: #ffffff; stroke-width: 0.75; stroke-linejoin: miter"/>
     <use xlink:href="#mf89624ebe6" x="662.92773" y="56.940734" style="fill: #c7c7c7; stroke: #ffffff; stroke-width: 0.75; stroke-linejoin: miter"/>
     <use xlink:href="#mf89624ebe6" x="670.517163" y="55.684386" style="fill: #c7c7c7; stroke: #ffffff; stroke-width: 0.75; stroke-linejoin: miter"/>
     <use xlink:href="#mf89624ebe6" x="677.211517" y="54.983168" style="fill: #c7c7c7; stroke: #ffffff; stroke-width: 0.75; stroke-linejoin: miter"/>
     <use xlink:href="#mf89624ebe6" x="683.19982" y="52.674995" style="fill: #c7c7c7; stroke: #ffffff; stroke-width: 0.75; stroke-linejoin: miter"/>
     <use xlink:href="#mf89624ebe6" x="688.6169" y="51.740038" style="fill: #c7c7c7; stroke: #ffffff; stroke-width: 0.75; stroke-linejoin: miter"/>
     <use xlink:href="#mf89624ebe6" x="693.562306" y="49.81169" style="fill: #c7c7c7; stroke: #ffffff; stroke-width: 0.75; stroke-linejoin: miter"/>
     <use xlink:href="#mf89624ebe6" x="698.111638" y="49.402647" style="fill: #c7c7c7; stroke: #ffffff; stroke-width: 0.75; stroke-linejoin: miter"/>
     <use xlink:href="#mf89624ebe6" x="702.323662" y="48.847516" style="fill: #c7c7c7; stroke: #ffffff; stroke-width: 0.75; stroke-linejoin: miter"/>
     <use xlink:href="#mf89624ebe6" x="706.244963" y="47.386647" style="fill: #c7c7c7; stroke: #ffffff; stroke-width: 0.75; stroke-linejoin: miter"/>
     <use xlink:href="#mf89624ebe6" x="709.913095" y="47.12369" style="fill: #c7c7c7; stroke: #ffffff; stroke-width: 0.75; stroke-linejoin: miter"/>
     <use xlink:href="#mf89624ebe6" x="713.358775" y="47.006821" style="fill: #c7c7c7; stroke: #ffffff; stroke-width: 0.75; stroke-linejoin: miter"/>
     <use xlink:href="#mf89624ebe6" x="716.607449" y="45.312212" style="fill: #c7c7c7; stroke: #ffffff; stroke-width: 0.75; stroke-linejoin: miter"/>
     <use xlink:href="#mf89624ebe6" x="719.68043" y="45.020038" style="fill: #c7c7c7; stroke: #ffffff; stroke-width: 0.75; stroke-linejoin: miter"/>
     <use xlink:href="#mf89624ebe6" x="722.595752" y="44.406473" style="fill: #c7c7c7; stroke: #ffffff; stroke-width: 0.75; stroke-linejoin: miter"/>
     <use xlink:href="#mf89624ebe6" x="725.368805" y="43.909777" style="fill: #c7c7c7; stroke: #ffffff; stroke-width: 0.75; stroke-linejoin: miter"/>
     <use xlink:href="#mf89624ebe6" x="728.012832" y="43.792908" style="fill: #c7c7c7; stroke: #ffffff; stroke-width: 0.75; stroke-linejoin: miter"/>
     <use xlink:href="#mf89624ebe6" x="730.539306" y="43.325429" style="fill: #c7c7c7; stroke: #ffffff; stroke-width: 0.75; stroke-linejoin: miter"/>
     <use xlink:href="#mf89624ebe6" x="732.958238" y="42.887168" style="fill: #c7c7c7; stroke: #ffffff; stroke-width: 0.75; stroke-linejoin: miter"/>
     <use xlink:href="#mf89624ebe6" x="735.27841" y="42.770299" style="fill: #c7c7c7; stroke: #ffffff; stroke-width: 0.75; stroke-linejoin: miter"/>
     <use xlink:href="#mf89624ebe6" x="737.50757" y="42.711864" style="fill: #c7c7c7; stroke: #ffffff; stroke-width: 0.75; stroke-linejoin: miter"/>
     <use xlink:href="#mf89624ebe6" x="739.652592" y="42.215168" style="fill: #c7c7c7; stroke: #ffffff; stroke-width: 0.75; stroke-linejoin: miter"/>
     <use xlink:href="#mf89624ebe6" x="741.719595" y="41.922995" style="fill: #c7c7c7; stroke: #ffffff; stroke-width: 0.75; stroke-linejoin: miter"/>
     <use xlink:href="#mf89624ebe6" x="743.714056" y="41.630821" style="fill: #c7c7c7; stroke: #ffffff; stroke-width: 0.75; stroke-linejoin: miter"/>
     <use xlink:href="#mf89624ebe6" x="745.640895" y="41.455516" style="fill: #c7c7c7; stroke: #ffffff; stroke-width: 0.75; stroke-linejoin: miter"/>
     <use xlink:href="#mf89624ebe6" x="747.504548" y="41.367864" style="fill: #c7c7c7; stroke: #ffffff; stroke-width: 0.75; stroke-linejoin: miter"/>
     <use xlink:href="#mf89624ebe6" x="749.309027" y="40.841951" style="fill: #c7c7c7; stroke: #ffffff; stroke-width: 0.75; stroke-linejoin: miter"/>
     <use xlink:href="#mf89624ebe6" x="751.057975" y="40.462125" style="fill: #c7c7c7; stroke: #ffffff; stroke-width: 0.75; stroke-linejoin: miter"/>
     <use xlink:href="#mf89624ebe6" x="752.754707" y="39.906995" style="fill: #c7c7c7; stroke: #ffffff; stroke-width: 0.75; stroke-linejoin: miter"/>
     <use xlink:href="#mf89624ebe6" x="754.402252" y="39.673255" style="fill: #c7c7c7; stroke: #ffffff; stroke-width: 0.75; stroke-linejoin: miter"/>
     <use xlink:href="#mf89624ebe6" x="756.003381" y="39.614821" style="fill: #c7c7c7; stroke: #ffffff; stroke-width: 0.75; stroke-linejoin: miter"/>
     <use xlink:href="#mf89624ebe6" x="757.560638" y="39.614821" style="fill: #c7c7c7; stroke: #ffffff; stroke-width: 0.75; stroke-linejoin: miter"/>
     <use xlink:href="#mf89624ebe6" x="759.076363" y="39.410299" style="fill: #c7c7c7; stroke: #ffffff; stroke-width: 0.75; stroke-linejoin: miter"/>
     <use xlink:href="#mf89624ebe6" x="760.552713" y="39.088908" style="fill: #c7c7c7; stroke: #ffffff; stroke-width: 0.75; stroke-linejoin: miter"/>
     <use xlink:href="#mf89624ebe6" x="761.991684" y="38.942821" style="fill: #c7c7c7; stroke: #ffffff; stroke-width: 0.75; stroke-linejoin: miter"/>
     <use xlink:href="#mf89624ebe6" x="763.395122" y="38.913603" style="fill: #c7c7c7; stroke: #ffffff; stroke-width: 0.75; stroke-linejoin: miter"/>
     <use xlink:href="#mf89624ebe6" x="764.764738" y="38.913603" style="fill: #c7c7c7; stroke: #ffffff; stroke-width: 0.75; stroke-linejoin: miter"/>
     <use xlink:href="#mf89624ebe6" x="766.102124" y="38.913603" style="fill: #c7c7c7; stroke: #ffffff; stroke-width: 0.75; stroke-linejoin: miter"/>
     <use xlink:href="#mf89624ebe6" x="767.408764" y="38.562995" style="fill: #c7c7c7; stroke: #ffffff; stroke-width: 0.75; stroke-linejoin: miter"/>
     <use xlink:href="#mf89624ebe6" x="768.686038" y="38.533777" style="fill: #c7c7c7; stroke: #ffffff; stroke-width: 0.75; stroke-linejoin: miter"/>
     <use xlink:href="#mf89624ebe6" x="769.935238" y="38.475342" style="fill: #c7c7c7; stroke: #ffffff; stroke-width: 0.75; stroke-linejoin: miter"/>
     <use xlink:href="#mf89624ebe6" x="771.157572" y="38.446125" style="fill: #c7c7c7; stroke: #ffffff; stroke-width: 0.75; stroke-linejoin: miter"/>
    </g>
   </g>
   <g id="line2d_19">
    <path d="M 59.690625 276.334125 
L 552.329366 94.368212 
L 591.725298 82.622821 
L 614.770441 76.13656 
L 631.121231 72.572038 
L 643.803888 69.358125 
L 654.166374 67.079168 
L 662.92773 65.618299 
L 670.517163 64.332734 
L 677.211517 59.657951 
L 683.19982 58.489255 
L 688.6169 57.729603 
L 693.562306 56.969951 
L 698.111638 55.801255 
L 702.323662 55.216908 
L 706.244963 54.749429 
L 709.913095 53.814473 
L 713.358775 53.639168 
L 716.607449 53.522299 
L 719.68043 53.522299 
L 722.595752 53.463864 
L 725.368805 53.463864 
L 728.012832 53.463864 
L 730.539306 53.463864 
L 732.958238 53.113255 
L 735.27841 52.937951 
L 737.50757 52.879516 
L 739.652592 52.821082 
L 741.719595 52.528908 
L 743.714056 52.528908 
L 745.640895 52.412038 
L 747.504548 52.412038 
L 749.309027 52.295168 
L 751.057975 52.295168 
L 752.754707 51.82769 
L 754.402252 51.82769 
L 756.003381 51.769255 
L 757.560638 51.769255 
L 759.076363 51.068038 
L 760.552713 50.892734 
L 761.991684 50.834299 
L 763.395122 48.555342 
L 764.764738 48.496908 
L 766.102124 48.438473 
L 767.408764 48.204734 
L 768.686038 48.087864 
L 769.935238 48.029429 
L 771.157572 47.445082 
" clip-path="url(#p6048349564)" style="fill: none; stroke: #d62728; stroke-width: 1.5; stroke-linecap: square"/>
    <defs>
     <path id="m2513414626" d="M 0 -3 
L -3 3 
L 3 3 
z
" style="stroke: #ffffff; stroke-width: 0.75; stroke-linejoin: miter"/>
    </defs>
    <g clip-path="url(#p6048349564)">
     <use xlink:href="#m2513414626" x="59.690625" y="276.334125" style="fill: #d62728; stroke: #ffffff; stroke-width: 0.75; stroke-linejoin: miter"/>
     <use xlink:href="#m2513414626" x="552.329366" y="94.368212" style="fill: #d62728; stroke: #ffffff; stroke-width: 0.75; stroke-linejoin: miter"/>
     <use xlink:href="#m2513414626" x="591.725298" y="82.622821" style="fill: #d62728; stroke: #ffffff; stroke-width: 0.75; stroke-linejoin: miter"/>
     <use xlink:href="#m2513414626" x="614.770441" y="76.13656" style="fill: #d62728; stroke: #ffffff; stroke-width: 0.75; stroke-linejoin: miter"/>
     <use xlink:href="#m2513414626" x="631.121231" y="72.572038" style="fill: #d62728; stroke: #ffffff; stroke-width: 0.75; stroke-linejoin: miter"/>
     <use xlink:href="#m2513414626" x="643.803888" y="69.358125" style="fill: #d62728; stroke: #ffffff; stroke-width: 0.75; stroke-linejoin: miter"/>
     <use xlink:href="#m2513414626" x="654.166374" y="67.079168" style="fill: #d62728; stroke: #ffffff; stroke-width: 0.75; stroke-linejoin: miter"/>
     <use xlink:href="#m2513414626" x="662.92773" y="65.618299" style="fill: #d62728; stroke: #ffffff; stroke-width: 0.75; stroke-linejoin: miter"/>
     <use xlink:href="#m2513414626" x="670.517163" y="64.332734" style="fill: #d62728; stroke: #ffffff; stroke-width: 0.75; stroke-linejoin: miter"/>
     <use xlink:href="#m2513414626" x="677.211517" y="59.657951" style="fill: #d62728; stroke: #ffffff; stroke-width: 0.75; stroke-linejoin: miter"/>
     <use xlink:href="#m2513414626" x="683.19982" y="58.489255" style="fill: #d62728; stroke: #ffffff; stroke-width: 0.75; stroke-linejoin: miter"/>
     <use xlink:href="#m2513414626" x="688.6169" y="57.729603" style="fill: #d62728; stroke: #ffffff; stroke-width: 0.75; stroke-linejoin: miter"/>
     <use xlink:href="#m2513414626" x="693.562306" y="56.969951" style="fill: #d62728; stroke: #ffffff; stroke-width: 0.75; stroke-linejoin: miter"/>
     <use xlink:href="#m2513414626" x="698.111638" y="55.801255" style="fill: #d62728; stroke: #ffffff; stroke-width: 0.75; stroke-linejoin: miter"/>
     <use xlink:href="#m2513414626" x="702.323662" y="55.216908" style="fill: #d62728; stroke: #ffffff; stroke-width: 0.75; stroke-linejoin: miter"/>
     <use xlink:href="#m2513414626" x="706.244963" y="54.749429" style="fill: #d62728; stroke: #ffffff; stroke-width: 0.75; stroke-linejoin: miter"/>
     <use xlink:href="#m2513414626" x="709.913095" y="53.814473" style="fill: #d62728; stroke: #ffffff; stroke-width: 0.75; stroke-linejoin: miter"/>
     <use xlink:href="#m2513414626" x="713.358775" y="53.639168" style="fill: #d62728; stroke: #ffffff; stroke-width: 0.75; stroke-linejoin: miter"/>
     <use xlink:href="#m2513414626" x="716.607449" y="53.522299" style="fill: #d62728; stroke: #ffffff; stroke-width: 0.75; stroke-linejoin: miter"/>
     <use xlink:href="#m2513414626" x="719.68043" y="53.522299" style="fill: #d62728; stroke: #ffffff; stroke-width: 0.75; stroke-linejoin: miter"/>
     <use xlink:href="#m2513414626" x="722.595752" y="53.463864" style="fill: #d62728; stroke: #ffffff; stroke-width: 0.75; stroke-linejoin: miter"/>
     <use xlink:href="#m2513414626" x="725.368805" y="53.463864" style="fill: #d62728; stroke: #ffffff; stroke-width: 0.75; stroke-linejoin: miter"/>
     <use xlink:href="#m2513414626" x="728.012832" y="53.463864" style="fill: #d62728; stroke: #ffffff; stroke-width: 0.75; stroke-linejoin: miter"/>
     <use xlink:href="#m2513414626" x="730.539306" y="53.463864" style="fill: #d62728; stroke: #ffffff; stroke-width: 0.75; stroke-linejoin: miter"/>
     <use xlink:href="#m2513414626" x="732.958238" y="53.113255" style="fill: #d62728; stroke: #ffffff; stroke-width: 0.75; stroke-linejoin: miter"/>
     <use xlink:href="#m2513414626" x="735.27841" y="52.937951" style="fill: #d62728; stroke: #ffffff; stroke-width: 0.75; stroke-linejoin: miter"/>
     <use xlink:href="#m2513414626" x="737.50757" y="52.879516" style="fill: #d62728; stroke: #ffffff; stroke-width: 0.75; stroke-linejoin: miter"/>
     <use xlink:href="#m2513414626" x="739.652592" y="52.821082" style="fill: #d62728; stroke: #ffffff; stroke-width: 0.75; stroke-linejoin: miter"/>
     <use xlink:href="#m2513414626" x="741.719595" y="52.528908" style="fill: #d62728; stroke: #ffffff; stroke-width: 0.75; stroke-linejoin: miter"/>
     <use xlink:href="#m2513414626" x="743.714056" y="52.528908" style="fill: #d62728; stroke: #ffffff; stroke-width: 0.75; stroke-linejoin: miter"/>
     <use xlink:href="#m2513414626" x="745.640895" y="52.412038" style="fill: #d62728; stroke: #ffffff; stroke-width: 0.75; stroke-linejoin: miter"/>
     <use xlink:href="#m2513414626" x="747.504548" y="52.412038" style="fill: #d62728; stroke: #ffffff; stroke-width: 0.75; stroke-linejoin: miter"/>
     <use xlink:href="#m2513414626" x="749.309027" y="52.295168" style="fill: #d62728; stroke: #ffffff; stroke-width: 0.75; stroke-linejoin: miter"/>
     <use xlink:href="#m2513414626" x="751.057975" y="52.295168" style="fill: #d62728; stroke: #ffffff; stroke-width: 0.75; stroke-linejoin: miter"/>
     <use xlink:href="#m2513414626" x="752.754707" y="51.82769" style="fill: #d62728; stroke: #ffffff; stroke-width: 0.75; stroke-linejoin: miter"/>
     <use xlink:href="#m2513414626" x="754.402252" y="51.82769" style="fill: #d62728; stroke: #ffffff; stroke-width: 0.75; stroke-linejoin: miter"/>
     <use xlink:href="#m2513414626" x="756.003381" y="51.769255" style="fill: #d62728; stroke: #ffffff; stroke-width: 0.75; stroke-linejoin: miter"/>
     <use xlink:href="#m2513414626" x="757.560638" y="51.769255" style="fill: #d62728; stroke: #ffffff; stroke-width: 0.75; stroke-linejoin: miter"/>
     <use xlink:href="#m2513414626" x="759.076363" y="51.068038" style="fill: #d62728; stroke: #ffffff; stroke-width: 0.75; stroke-linejoin: miter"/>
     <use xlink:href="#m2513414626" x="760.552713" y="50.892734" style="fill: #d62728; stroke: #ffffff; stroke-width: 0.75; stroke-linejoin: miter"/>
     <use xlink:href="#m2513414626" x="761.991684" y="50.834299" style="fill: #d62728; stroke: #ffffff; stroke-width: 0.75; stroke-linejoin: miter"/>
     <use xlink:href="#m2513414626" x="763.395122" y="48.555342" style="fill: #d62728; stroke: #ffffff; stroke-width: 0.75; stroke-linejoin: miter"/>
     <use xlink:href="#m2513414626" x="764.764738" y="48.496908" style="fill: #d62728; stroke: #ffffff; stroke-width: 0.75; stroke-linejoin: miter"/>
     <use xlink:href="#m2513414626" x="766.102124" y="48.438473" style="fill: #d62728; stroke: #ffffff; stroke-width: 0.75; stroke-linejoin: miter"/>
     <use xlink:href="#m2513414626" x="767.408764" y="48.204734" style="fill: #d62728; stroke: #ffffff; stroke-width: 0.75; stroke-linejoin: miter"/>
     <use xlink:href="#m2513414626" x="768.686038" y="48.087864" style="fill: #d62728; stroke: #ffffff; stroke-width: 0.75; stroke-linejoin: miter"/>
     <use xlink:href="#m2513414626" x="769.935238" y="48.029429" style="fill: #d62728; stroke: #ffffff; stroke-width: 0.75; stroke-linejoin: miter"/>
     <use xlink:href="#m2513414626" x="771.157572" y="47.445082" style="fill: #d62728; stroke: #ffffff; stroke-width: 0.75; stroke-linejoin: miter"/>
    </g>
   </g>
   <g id="line2d_20">
    <path d="M 59.690625 276.334125 
L 552.329366 95.127864 
L 591.725298 78.70769 
L 614.770441 74.266647 
L 631.121231 69.241255 
L 643.803888 65.326125 
L 654.166374 62.988734 
L 662.92773 59.541082 
L 670.517163 58.489255 
L 677.211517 57.963342 
L 683.19982 56.151864 
L 688.6169 55.625951 
L 693.562306 55.333777 
L 698.111638 53.756038 
L 702.323662 53.522299 
L 706.244963 51.94456 
L 709.913095 51.82769 
L 713.358775 51.769255 
L 716.607449 51.009603 
L 719.68043 50.48369 
L 722.595752 49.373429 
L 725.368805 49.13969 
L 728.012832 49.022821 
L 730.539306 46.393255 
L 732.958238 46.159516 
L 735.27841 45.925777 
L 737.50757 45.750473 
L 739.652592 45.692038 
L 741.719595 45.692038 
L 743.714056 45.633603 
L 745.640895 45.049255 
L 747.504548 44.990821 
L 749.309027 44.873951 
L 751.057975 44.873951 
L 752.754707 44.523342 
L 754.402252 44.231168 
L 756.003381 44.114299 
L 757.560638 44.055864 
L 759.076363 43.997429 
L 760.552713 43.938995 
L 761.991684 43.938995 
L 763.395122 43.88056 
L 764.764738 43.88056 
L 766.102124 42.887168 
L 767.408764 42.828734 
L 768.686038 42.770299 
L 769.935238 42.770299 
L 771.157572 42.770299 
" clip-path="url(#p6048349564)" style="fill: none; stroke: #1f77b4; stroke-width: 1.5; stroke-linecap: square"/>
    <defs>
     <path id="m2c7fac9f31" d="M 0 3 
C 0.795609 3 1.55874 2.683901 2.12132 2.12132 
C 2.683901 1.55874 3 0.795609 3 0 
C 3 -0.795609 2.683901 -1.55874 2.12132 -2.12132 
C 1.55874 -2.683901 0.795609 -3 0 -3 
C -0.795609 -3 -1.55874 -2.683901 -2.12132 -2.12132 
C -2.683901 -1.55874 -3 -0.795609 -3 0 
C -3 0.795609 -2.683901 1.55874 -2.12132 2.12132 
C -1.55874 2.683901 -0.795609 3 0 3 
z
" style="stroke: #ffffff; stroke-width: 0.75"/>
    </defs>
    <g clip-path="url(#p6048349564)">
     <use xlink:href="#m2c7fac9f31" x="59.690625" y="276.334125" style="fill: #1f77b4; stroke: #ffffff; stroke-width: 0.75"/>
     <use xlink:href="#m2c7fac9f31" x="552.329366" y="95.127864" style="fill: #1f77b4; stroke: #ffffff; stroke-width: 0.75"/>
     <use xlink:href="#m2c7fac9f31" x="591.725298" y="78.70769" style="fill: #1f77b4; stroke: #ffffff; stroke-width: 0.75"/>
     <use xlink:href="#m2c7fac9f31" x="614.770441" y="74.266647" style="fill: #1f77b4; stroke: #ffffff; stroke-width: 0.75"/>
     <use xlink:href="#m2c7fac9f31" x="631.121231" y="69.241255" style="fill: #1f77b4; stroke: #ffffff; stroke-width: 0.75"/>
     <use xlink:href="#m2c7fac9f31" x="643.803888" y="65.326125" style="fill: #1f77b4; stroke: #ffffff; stroke-width: 0.75"/>
     <use xlink:href="#m2c7fac9f31" x="654.166374" y="62.988734" style="fill: #1f77b4; stroke: #ffffff; stroke-width: 0.75"/>
     <use xlink:href="#m2c7fac9f31" x="662.92773" y="59.541082" style="fill: #1f77b4; stroke: #ffffff; stroke-width: 0.75"/>
     <use xlink:href="#m2c7fac9f31" x="670.517163" y="58.489255" style="fill: #1f77b4; stroke: #ffffff; stroke-width: 0.75"/>
     <use xlink:href="#m2c7fac9f31" x="677.211517" y="57.963342" style="fill: #1f77b4; stroke: #ffffff; stroke-width: 0.75"/>
     <use xlink:href="#m2c7fac9f31" x="683.19982" y="56.151864" style="fill: #1f77b4; stroke: #ffffff; stroke-width: 0.75"/>
     <use xlink:href="#m2c7fac9f31" x="688.6169" y="55.625951" style="fill: #1f77b4; stroke: #ffffff; stroke-width: 0.75"/>
     <use xlink:href="#m2c7fac9f31" x="693.562306" y="55.333777" style="fill: #1f77b4; stroke: #ffffff; stroke-width: 0.75"/>
     <use xlink:href="#m2c7fac9f31" x="698.111638" y="53.756038" style="fill: #1f77b4; stroke: #ffffff; stroke-width: 0.75"/>
     <use xlink:href="#m2c7fac9f31" x="702.323662" y="53.522299" style="fill: #1f77b4; stroke: #ffffff; stroke-width: 0.75"/>
     <use xlink:href="#m2c7fac9f31" x="706.244963" y="51.94456" style="fill: #1f77b4; stroke: #ffffff; stroke-width: 0.75"/>
     <use xlink:href="#m2c7fac9f31" x="709.913095" y="51.82769" style="fill: #1f77b4; stroke: #ffffff; stroke-width: 0.75"/>
     <use xlink:href="#m2c7fac9f31" x="713.358775" y="51.769255" style="fill: #1f77b4; stroke: #ffffff; stroke-width: 0.75"/>
     <use xlink:href="#m2c7fac9f31" x="716.607449" y="51.009603" style="fill: #1f77b4; stroke: #ffffff; stroke-width: 0.75"/>
     <use xlink:href="#m2c7fac9f31" x="719.68043" y="50.48369" style="fill: #1f77b4; stroke: #ffffff; stroke-width: 0.75"/>
     <use xlink:href="#m2c7fac9f31" x="722.595752" y="49.373429" style="fill: #1f77b4; stroke: #ffffff; stroke-width: 0.75"/>
     <use xlink:href="#m2c7fac9f31" x="725.368805" y="49.13969" style="fill: #1f77b4; stroke: #ffffff; stroke-width: 0.75"/>
     <use xlink:href="#m2c7fac9f31" x="728.012832" y="49.022821" style="fill: #1f77b4; stroke: #ffffff; stroke-width: 0.75"/>
     <use xlink:href="#m2c7fac9f31" x="730.539306" y="46.393255" style="fill: #1f77b4; stroke: #ffffff; stroke-width: 0.75"/>
     <use xlink:href="#m2c7fac9f31" x="732.958238" y="46.159516" style="fill: #1f77b4; stroke: #ffffff; stroke-width: 0.75"/>
     <use xlink:href="#m2c7fac9f31" x="735.27841" y="45.925777" style="fill: #1f77b4; stroke: #ffffff; stroke-width: 0.75"/>
     <use xlink:href="#m2c7fac9f31" x="737.50757" y="45.750473" style="fill: #1f77b4; stroke: #ffffff; stroke-width: 0.75"/>
     <use xlink:href="#m2c7fac9f31" x="739.652592" y="45.692038" style="fill: #1f77b4; stroke: #ffffff; stroke-width: 0.75"/>
     <use xlink:href="#m2c7fac9f31" x="741.719595" y="45.692038" style="fill: #1f77b4; stroke: #ffffff; stroke-width: 0.75"/>
     <use xlink:href="#m2c7fac9f31" x="743.714056" y="45.633603" style="fill: #1f77b4; stroke: #ffffff; stroke-width: 0.75"/>
     <use xlink:href="#m2c7fac9f31" x="745.640895" y="45.049255" style="fill: #1f77b4; stroke: #ffffff; stroke-width: 0.75"/>
     <use xlink:href="#m2c7fac9f31" x="747.504548" y="44.990821" style="fill: #1f77b4; stroke: #ffffff; stroke-width: 0.75"/>
     <use xlink:href="#m2c7fac9f31" x="749.309027" y="44.873951" style="fill: #1f77b4; stroke: #ffffff; stroke-width: 0.75"/>
     <use xlink:href="#m2c7fac9f31" x="751.057975" y="44.873951" style="fill: #1f77b4; stroke: #ffffff; stroke-width: 0.75"/>
     <use xlink:href="#m2c7fac9f31" x="752.754707" y="44.523342" style="fill: #1f77b4; stroke: #ffffff; stroke-width: 0.75"/>
     <use xlink:href="#m2c7fac9f31" x="754.402252" y="44.231168" style="fill: #1f77b4; stroke: #ffffff; stroke-width: 0.75"/>
     <use xlink:href="#m2c7fac9f31" x="756.003381" y="44.114299" style="fill: #1f77b4; stroke: #ffffff; stroke-width: 0.75"/>
     <use xlink:href="#m2c7fac9f31" x="757.560638" y="44.055864" style="fill: #1f77b4; stroke: #ffffff; stroke-width: 0.75"/>
     <use xlink:href="#m2c7fac9f31" x="759.076363" y="43.997429" style="fill: #1f77b4; stroke: #ffffff; stroke-width: 0.75"/>
     <use xlink:href="#m2c7fac9f31" x="760.552713" y="43.938995" style="fill: #1f77b4; stroke: #ffffff; stroke-width: 0.75"/>
     <use xlink:href="#m2c7fac9f31" x="761.991684" y="43.938995" style="fill: #1f77b4; stroke: #ffffff; stroke-width: 0.75"/>
     <use xlink:href="#m2c7fac9f31" x="763.395122" y="43.88056" style="fill: #1f77b4; stroke: #ffffff; stroke-width: 0.75"/>
     <use xlink:href="#m2c7fac9f31" x="764.764738" y="43.88056" style="fill: #1f77b4; stroke: #ffffff; stroke-width: 0.75"/>
     <use xlink:href="#m2c7fac9f31" x="766.102124" y="42.887168" style="fill: #1f77b4; stroke: #ffffff; stroke-width: 0.75"/>
     <use xlink:href="#m2c7fac9f31" x="767.408764" y="42.828734" style="fill: #1f77b4; stroke: #ffffff; stroke-width: 0.75"/>
     <use xlink:href="#m2c7fac9f31" x="768.686038" y="42.770299" style="fill: #1f77b4; stroke: #ffffff; stroke-width: 0.75"/>
     <use xlink:href="#m2c7fac9f31" x="769.935238" y="42.770299" style="fill: #1f77b4; stroke: #ffffff; stroke-width: 0.75"/>
     <use xlink:href="#m2c7fac9f31" x="771.157572" y="42.770299" style="fill: #1f77b4; stroke: #ffffff; stroke-width: 0.75"/>
    </g>
   </g>
   <g id="line2d_21">
    <path d="M 59.690625 276.334125 
L 552.329366 90.569951 
L 591.725298 76.954647 
L 614.770441 69.182821 
L 631.121231 67.079168 
L 643.803888 62.988734 
L 654.166374 60.826647 
L 662.92773 57.729603 
L 670.517163 55.801255 
L 677.211517 54.51569 
L 683.19982 54.223516 
L 688.6169 54.048212 
L 693.562306 52.762647 
L 698.111638 52.704212 
L 702.323662 52.645777 
L 706.244963 52.645777 
L 709.913095 52.470473 
L 713.358775 52.236734 
L 716.607449 52.119864 
L 719.68043 52.002995 
L 722.595752 51.535516 
L 725.368805 50.775864 
L 728.012832 50.542125 
L 730.539306 50.542125 
L 732.958238 50.48369 
L 735.27841 50.191516 
L 737.50757 50.191516 
L 739.652592 50.191516 
L 741.719595 50.133082 
L 743.714056 50.074647 
L 745.640895 48.964386 
L 747.504548 48.847516 
L 749.309027 48.438473 
L 751.057975 48.321603 
L 752.754707 47.678821 
L 754.402252 47.678821 
L 756.003381 47.561951 
L 757.560638 45.867342 
L 759.076363 43.471516 
L 760.552713 43.004038 
L 761.991684 42.828734 
L 763.395122 42.828734 
L 764.764738 42.711864 
L 766.102124 42.711864 
L 767.408764 42.653429 
L 768.686038 42.653429 
L 769.935238 42.53656 
L 771.157572 42.53656 
" clip-path="url(#p6048349564)" style="fill: none; stroke: #98df8a; stroke-width: 1.5; stroke-linecap: square"/>
    <defs>
     <path id="mbd05590a88" d="M -0 3 
L 3 -3 
L -3 -3 
z
" style="stroke: #ffffff; stroke-width: 0.75; stroke-linejoin: miter"/>
    </defs>
    <g clip-path="url(#p6048349564)">
     <use xlink:href="#mbd05590a88" x="59.690625" y="276.334125" style="fill: #98df8a; stroke: #ffffff; stroke-width: 0.75; stroke-linejoin: miter"/>
     <use xlink:href="#mbd05590a88" x="552.329366" y="90.569951" style="fill: #98df8a; stroke: #ffffff; stroke-width: 0.75; stroke-linejoin: miter"/>
     <use xlink:href="#mbd05590a88" x="591.725298" y="76.954647" style="fill: #98df8a; stroke: #ffffff; stroke-width: 0.75; stroke-linejoin: miter"/>
     <use xlink:href="#mbd05590a88" x="614.770441" y="69.182821" style="fill: #98df8a; stroke: #ffffff; stroke-width: 0.75; stroke-linejoin: miter"/>
     <use xlink:href="#mbd05590a88" x="631.121231" y="67.079168" style="fill: #98df8a; stroke: #ffffff; stroke-width: 0.75; stroke-linejoin: miter"/>
     <use xlink:href="#mbd05590a88" x="643.803888" y="62.988734" style="fill: #98df8a; stroke: #ffffff; stroke-width: 0.75; stroke-linejoin: miter"/>
     <use xlink:href="#mbd05590a88" x="654.166374" y="60.826647" style="fill: #98df8a; stroke: #ffffff; stroke-width: 0.75; stroke-linejoin: miter"/>
     <use xlink:href="#mbd05590a88" x="662.92773" y="57.729603" style="fill: #98df8a; stroke: #ffffff; stroke-width: 0.75; stroke-linejoin: miter"/>
     <use xlink:href="#mbd05590a88" x="670.517163" y="55.801255" style="fill: #98df8a; stroke: #ffffff; stroke-width: 0.75; stroke-linejoin: miter"/>
     <use xlink:href="#mbd05590a88" x="677.211517" y="54.51569" style="fill: #98df8a; stroke: #ffffff; stroke-width: 0.75; stroke-linejoin: miter"/>
     <use xlink:href="#mbd05590a88" x="683.19982" y="54.223516" style="fill: #98df8a; stroke: #ffffff; stroke-width: 0.75; stroke-linejoin: miter"/>
     <use xlink:href="#mbd05590a88" x="688.6169" y="54.048212" style="fill: #98df8a; stroke: #ffffff; stroke-width: 0.75; stroke-linejoin: miter"/>
     <use xlink:href="#mbd05590a88" x="693.562306" y="52.762647" style="fill: #98df8a; stroke: #ffffff; stroke-width: 0.75; stroke-linejoin: miter"/>
     <use xlink:href="#mbd05590a88" x="698.111638" y="52.704212" style="fill: #98df8a; stroke: #ffffff; stroke-width: 0.75; stroke-linejoin: miter"/>
     <use xlink:href="#mbd05590a88" x="702.323662" y="52.645777" style="fill: #98df8a; stroke: #ffffff; stroke-width: 0.75; stroke-linejoin: miter"/>
     <use xlink:href="#mbd05590a88" x="706.244963" y="52.645777" style="fill: #98df8a; stroke: #ffffff; stroke-width: 0.75; stroke-linejoin: miter"/>
     <use xlink:href="#mbd05590a88" x="709.913095" y="52.470473" style="fill: #98df8a; stroke: #ffffff; stroke-width: 0.75; stroke-linejoin: miter"/>
     <use xlink:href="#mbd05590a88" x="713.358775" y="52.236734" style="fill: #98df8a; stroke: #ffffff; stroke-width: 0.75; stroke-linejoin: miter"/>
     <use xlink:href="#mbd05590a88" x="716.607449" y="52.119864" style="fill: #98df8a; stroke: #ffffff; stroke-width: 0.75; stroke-linejoin: miter"/>
     <use xlink:href="#mbd05590a88" x="719.68043" y="52.002995" style="fill: #98df8a; stroke: #ffffff; stroke-width: 0.75; stroke-linejoin: miter"/>
     <use xlink:href="#mbd05590a88" x="722.595752" y="51.535516" style="fill: #98df8a; stroke: #ffffff; stroke-width: 0.75; stroke-linejoin: miter"/>
     <use xlink:href="#mbd05590a88" x="725.368805" y="50.775864" style="fill: #98df8a; stroke: #ffffff; stroke-width: 0.75; stroke-linejoin: miter"/>
     <use xlink:href="#mbd05590a88" x="728.012832" y="50.542125" style="fill: #98df8a; stroke: #ffffff; stroke-width: 0.75; stroke-linejoin: miter"/>
     <use xlink:href="#mbd05590a88" x="730.539306" y="50.542125" style="fill: #98df8a; stroke: #ffffff; stroke-width: 0.75; stroke-linejoin: miter"/>
     <use xlink:href="#mbd05590a88" x="732.958238" y="50.48369" style="fill: #98df8a; stroke: #ffffff; stroke-width: 0.75; stroke-linejoin: miter"/>
     <use xlink:href="#mbd05590a88" x="735.27841" y="50.191516" style="fill: #98df8a; stroke: #ffffff; stroke-width: 0.75; stroke-linejoin: miter"/>
     <use xlink:href="#mbd05590a88" x="737.50757" y="50.191516" style="fill: #98df8a; stroke: #ffffff; stroke-width: 0.75; stroke-linejoin: miter"/>
     <use xlink:href="#mbd05590a88" x="739.652592" y="50.191516" style="fill: #98df8a; stroke: #ffffff; stroke-width: 0.75; stroke-linejoin: miter"/>
     <use xlink:href="#mbd05590a88" x="741.719595" y="50.133082" style="fill: #98df8a; stroke: #ffffff; stroke-width: 0.75; stroke-linejoin: miter"/>
     <use xlink:href="#mbd05590a88" x="743.714056" y="50.074647" style="fill: #98df8a; stroke: #ffffff; stroke-width: 0.75; stroke-linejoin: miter"/>
     <use xlink:href="#mbd05590a88" x="745.640895" y="48.964386" style="fill: #98df8a; stroke: #ffffff; stroke-width: 0.75; stroke-linejoin: miter"/>
     <use xlink:href="#mbd05590a88" x="747.504548" y="48.847516" style="fill: #98df8a; stroke: #ffffff; stroke-width: 0.75; stroke-linejoin: miter"/>
     <use xlink:href="#mbd05590a88" x="749.309027" y="48.438473" style="fill: #98df8a; stroke: #ffffff; stroke-width: 0.75; stroke-linejoin: miter"/>
     <use xlink:href="#mbd05590a88" x="751.057975" y="48.321603" style="fill: #98df8a; stroke: #ffffff; stroke-width: 0.75; stroke-linejoin: miter"/>
     <use xlink:href="#mbd05590a88" x="752.754707" y="47.678821" style="fill: #98df8a; stroke: #ffffff; stroke-width: 0.75; stroke-linejoin: miter"/>
     <use xlink:href="#mbd05590a88" x="754.402252" y="47.678821" style="fill: #98df8a; stroke: #ffffff; stroke-width: 0.75; stroke-linejoin: miter"/>
     <use xlink:href="#mbd05590a88" x="756.003381" y="47.561951" style="fill: #98df8a; stroke: #ffffff; stroke-width: 0.75; stroke-linejoin: miter"/>
     <use xlink:href="#mbd05590a88" x="757.560638" y="45.867342" style="fill: #98df8a; stroke: #ffffff; stroke-width: 0.75; stroke-linejoin: miter"/>
     <use xlink:href="#mbd05590a88" x="759.076363" y="43.471516" style="fill: #98df8a; stroke: #ffffff; stroke-width: 0.75; stroke-linejoin: miter"/>
     <use xlink:href="#mbd05590a88" x="760.552713" y="43.004038" style="fill: #98df8a; stroke: #ffffff; stroke-width: 0.75; stroke-linejoin: miter"/>
     <use xlink:href="#mbd05590a88" x="761.991684" y="42.828734" style="fill: #98df8a; stroke: #ffffff; stroke-width: 0.75; stroke-linejoin: miter"/>
     <use xlink:href="#mbd05590a88" x="763.395122" y="42.828734" style="fill: #98df8a; stroke: #ffffff; stroke-width: 0.75; stroke-linejoin: miter"/>
     <use xlink:href="#mbd05590a88" x="764.764738" y="42.711864" style="fill: #98df8a; stroke: #ffffff; stroke-width: 0.75; stroke-linejoin: miter"/>
     <use xlink:href="#mbd05590a88" x="766.102124" y="42.711864" style="fill: #98df8a; stroke: #ffffff; stroke-width: 0.75; stroke-linejoin: miter"/>
     <use xlink:href="#mbd05590a88" x="767.408764" y="42.653429" style="fill: #98df8a; stroke: #ffffff; stroke-width: 0.75; stroke-linejoin: miter"/>
     <use xlink:href="#mbd05590a88" x="768.686038" y="42.653429" style="fill: #98df8a; stroke: #ffffff; stroke-width: 0.75; stroke-linejoin: miter"/>
     <use xlink:href="#mbd05590a88" x="769.935238" y="42.53656" style="fill: #98df8a; stroke: #ffffff; stroke-width: 0.75; stroke-linejoin: miter"/>
     <use xlink:href="#mbd05590a88" x="771.157572" y="42.53656" style="fill: #98df8a; stroke: #ffffff; stroke-width: 0.75; stroke-linejoin: miter"/>
    </g>
   </g>
   <g id="line2d_22"/>
   <g id="line2d_23"/>
   <g id="line2d_24"/>
   <g id="line2d_25"/>
   <g id="line2d_26">
    <path d="M 771.157572 288.430125 
L 771.157572 22.318125 
" clip-path="url(#p6048349564)" style="fill: none; stroke: #ff0000; stroke-width: 1.5; stroke-linecap: square"/>
   </g>
   <g id="patch_3">
    <path d="M 59.690625 271.951516 
L 59.690625 38.212386 
" style="fill: none; stroke: #000000; stroke-width: 0.8; stroke-linejoin: miter; stroke-linecap: square"/>
   </g>
   <g id="patch_4">
    <path d="M 59.690625 288.430125 
L 771.158915 288.430125 
" style="fill: none; stroke: #000000; stroke-width: 0.8; stroke-linejoin: miter; stroke-linecap: square"/>
   </g>
   <g id="text_16">
    <!-- curl_curl_fuzzer_http (11h:45m, at least 4 trials/fuzzer) -->
    <g transform="translate(251.884688 16.318125) scale(0.12 -0.12)">
     <defs>
      <path id="DejaVuSans-6c" d="M 603 4863 
L 1178 4863 
L 1178 0 
L 603 0 
L 603 4863 
z
" transform="scale(0.015625)"/>
      <path id="DejaVuSans-5f" d="M 3263 -1063 
L 3263 -1509 
L -63 -1509 
L -63 -1063 
L 3263 -1063 
z
" transform="scale(0.015625)"/>
      <path id="DejaVuSans-66" d="M 2375 4863 
L 2375 4384 
L 1825 4384 
Q 1516 4384 1395 4259 
Q 1275 4134 1275 3809 
L 1275 3500 
L 2222 3500 
L 2222 3053 
L 1275 3053 
L 1275 0 
L 697 0 
L 697 3053 
L 147 3053 
L 147 3500 
L 697 3500 
L 697 3744 
Q 697 4328 969 4595 
Q 1241 4863 1831 4863 
L 2375 4863 
z
" transform="scale(0.015625)"/>
      <path id="DejaVuSans-7a" d="M 353 3500 
L 3084 3500 
L 3084 2975 
L 922 459 
L 3084 459 
L 3084 0 
L 275 0 
L 275 525 
L 2438 3041 
L 353 3041 
L 353 3500 
z
" transform="scale(0.015625)"/>
      <path id="DejaVuSans-70" d="M 1159 525 
L 1159 -1331 
L 581 -1331 
L 581 3500 
L 1159 3500 
L 1159 2969 
Q 1341 3281 1617 3432 
Q 1894 3584 2278 3584 
Q 2916 3584 3314 3078 
Q 3713 2572 3713 1747 
Q 3713 922 3314 415 
Q 2916 -91 2278 -91 
Q 1894 -91 1617 61 
Q 1341 213 1159 525 
z
M 3116 1747 
Q 3116 2381 2855 2742 
Q 2594 3103 2138 3103 
Q 1681 3103 1420 2742 
Q 1159 2381 1159 1747 
Q 1159 1113 1420 752 
Q 1681 391 2138 391 
Q 2594 391 2855 752 
Q 3116 1113 3116 1747 
z
" transform="scale(0.015625)"/>
      <path id="DejaVuSans-2c" d="M 750 794 
L 1409 794 
L 1409 256 
L 897 -744 
L 494 -744 
L 750 256 
L 750 794 
z
" transform="scale(0.015625)"/>
      <path id="DejaVuSans-73" d="M 2834 3397 
L 2834 2853 
Q 2591 2978 2328 3040 
Q 2066 3103 1784 3103 
Q 1356 3103 1142 2972 
Q 928 2841 928 2578 
Q 928 2378 1081 2264 
Q 1234 2150 1697 2047 
L 1894 2003 
Q 2506 1872 2764 1633 
Q 3022 1394 3022 966 
Q 3022 478 2636 193 
Q 2250 -91 1575 -91 
Q 1294 -91 989 -36 
Q 684 19 347 128 
L 347 722 
Q 666 556 975 473 
Q 1284 391 1588 391 
Q 1994 391 2212 530 
Q 2431 669 2431 922 
Q 2431 1156 2273 1281 
Q 2116 1406 1581 1522 
L 1381 1569 
Q 847 1681 609 1914 
Q 372 2147 372 2553 
Q 372 3047 722 3315 
Q 1072 3584 1716 3584 
Q 2034 3584 2315 3537 
Q 2597 3491 2834 3397 
z
" transform="scale(0.015625)"/>
      <path id="DejaVuSans-2f" d="M 1625 4666 
L 2156 4666 
L 531 -594 
L 0 -594 
L 1625 4666 
z
" transform="scale(0.015625)"/>
     </defs>
     <use xlink:href="#DejaVuSans-63"/>
     <use xlink:href="#DejaVuSans-75" transform="translate(54.980469 0)"/>
     <use xlink:href="#DejaVuSans-72" transform="translate(118.359375 0)"/>
     <use xlink:href="#DejaVuSans-6c" transform="translate(159.472656 0)"/>
     <use xlink:href="#DejaVuSans-5f" transform="translate(187.255859 0)"/>
     <use xlink:href="#DejaVuSans-63" transform="translate(237.255859 0)"/>
     <use xlink:href="#DejaVuSans-75" transform="translate(292.236328 0)"/>
     <use xlink:href="#DejaVuSans-72" transform="translate(355.615234 0)"/>
     <use xlink:href="#DejaVuSans-6c" transform="translate(396.728516 0)"/>
     <use xlink:href="#DejaVuSans-5f" transform="translate(424.511719 0)"/>
     <use xlink:href="#DejaVuSans-66" transform="translate(474.511719 0)"/>
     <use xlink:href="#DejaVuSans-75" transform="translate(509.716797 0)"/>
     <use xlink:href="#DejaVuSans-7a" transform="translate(573.095703 0)"/>
     <use xlink:href="#DejaVuSans-7a" transform="translate(625.585938 0)"/>
     <use xlink:href="#DejaVuSans-65" transform="translate(678.076172 0)"/>
     <use xlink:href="#DejaVuSans-72" transform="translate(739.599609 0)"/>
     <use xlink:href="#DejaVuSans-5f" transform="translate(780.712891 0)"/>
     <use xlink:href="#DejaVuSans-68" transform="translate(830.712891 0)"/>
     <use xlink:href="#DejaVuSans-74" transform="translate(894.091797 0)"/>
     <use xlink:href="#DejaVuSans-74" transform="translate(933.300781 0)"/>
     <use xlink:href="#DejaVuSans-70" transform="translate(972.509766 0)"/>
     <use xlink:href="#DejaVuSans-20" transform="translate(1035.986328 0)"/>
     <use xlink:href="#DejaVuSans-28" transform="translate(1067.773438 0)"/>
     <use xlink:href="#DejaVuSans-31" transform="translate(1106.787109 0)"/>
     <use xlink:href="#DejaVuSans-31" transform="translate(1170.410156 0)"/>
     <use xlink:href="#DejaVuSans-68" transform="translate(1234.033203 0)"/>
     <use xlink:href="#DejaVuSans-3a" transform="translate(1297.412109 0)"/>
     <use xlink:href="#DejaVuSans-34" transform="translate(1331.103516 0)"/>
     <use xlink:href="#DejaVuSans-35" transform="translate(1394.726562 0)"/>
     <use xlink:href="#DejaVuSans-6d" transform="translate(1458.349609 0)"/>
     <use xlink:href="#DejaVuSans-2c" transform="translate(1555.761719 0)"/>
     <use xlink:href="#DejaVuSans-20" transform="translate(1587.548828 0)"/>
     <use xlink:href="#DejaVuSans-61" transform="translate(1619.335938 0)"/>
     <use xlink:href="#DejaVuSans-74" transform="translate(1680.615234 0)"/>
     <use xlink:href="#DejaVuSans-20" transform="translate(1719.824219 0)"/>
     <use xlink:href="#DejaVuSans-6c" transform="translate(1751.611328 0)"/>
     <use xlink:href="#DejaVuSans-65" transform="translate(1779.394531 0)"/>
     <use xlink:href="#DejaVuSans-61" transform="translate(1840.917969 0)"/>
     <use xlink:href="#DejaVuSans-73" transform="translate(1902.197266 0)"/>
     <use xlink:href="#DejaVuSans-74" transform="translate(1954.296875 0)"/>
     <use xlink:href="#DejaVuSans-20" transform="translate(1993.505859 0)"/>
     <use xlink:href="#DejaVuSans-34" transform="translate(2025.292969 0)"/>
     <use xlink:href="#DejaVuSans-20" transform="translate(2088.916016 0)"/>
     <use xlink:href="#DejaVuSans-74" transform="translate(2120.703125 0)"/>
     <use xlink:href="#DejaVuSans-72" transform="translate(2159.912109 0)"/>
     <use xlink:href="#DejaVuSans-69" transform="translate(2201.025391 0)"/>
     <use xlink:href="#DejaVuSans-61" transform="translate(2228.808594 0)"/>
     <use xlink:href="#DejaVuSans-6c" transform="translate(2290.087891 0)"/>
     <use xlink:href="#DejaVuSans-73" transform="translate(2317.871094 0)"/>
     <use xlink:href="#DejaVuSans-2f" transform="translate(2369.970703 0)"/>
     <use xlink:href="#DejaVuSans-66" transform="translate(2403.662109 0)"/>
     <use xlink:href="#DejaVuSans-75" transform="translate(2438.867188 0)"/>
     <use xlink:href="#DejaVuSans-7a" transform="translate(2502.246094 0)"/>
     <use xlink:href="#DejaVuSans-7a" transform="translate(2554.736328 0)"/>
     <use xlink:href="#DejaVuSans-65" transform="translate(2607.226562 0)"/>
     <use xlink:href="#DejaVuSans-72" transform="translate(2668.75 0)"/>
     <use xlink:href="#DejaVuSans-29" transform="translate(2709.863281 0)"/>
    </g>
   </g>
   <g id="legend_1">
    <g id="line2d_27">
     <path d="M 777.930625 30.416562 
L 787.930625 30.416562 
L 797.930625 30.416562 
" style="fill: none; stroke: #c7c7c7; stroke-width: 1.5; stroke-linecap: square"/>
     <g>
      <use xlink:href="#mf89624ebe6" x="787.930625" y="30.416562" style="fill: #c7c7c7; stroke: #ffffff; stroke-width: 0.75; stroke-linejoin: miter"/>
     </g>
    </g>
    <g id="text_17">
     <!-- aflplusplus_mopt -->
     <g transform="translate(805.930625 33.916562) scale(0.1 -0.1)">
      <use xlink:href="#DejaVuSans-61"/>
      <use xlink:href="#DejaVuSans-66" transform="translate(61.279297 0)"/>
      <use xlink:href="#DejaVuSans-6c" transform="translate(96.484375 0)"/>
      <use xlink:href="#DejaVuSans-70" transform="translate(124.267578 0)"/>
      <use xlink:href="#DejaVuSans-6c" transform="translate(187.744141 0)"/>
      <use xlink:href="#DejaVuSans-75" transform="translate(215.527344 0)"/>
      <use xlink:href="#DejaVuSans-73" transform="translate(278.90625 0)"/>
      <use xlink:href="#DejaVuSans-70" transform="translate(331.005859 0)"/>
      <use xlink:href="#DejaVuSans-6c" transform="translate(394.482422 0)"/>
      <use xlink:href="#DejaVuSans-75" transform="translate(422.265625 0)"/>
      <use xlink:href="#DejaVuSans-73" transform="translate(485.644531 0)"/>
      <use xlink:href="#DejaVuSans-5f" transform="translate(537.744141 0)"/>
      <use xlink:href="#DejaVuSans-6d" transform="translate(587.744141 0)"/>
      <use xlink:href="#DejaVuSans-6f" transform="translate(685.15625 0)"/>
      <use xlink:href="#DejaVuSans-70" transform="translate(746.337891 0)"/>
      <use xlink:href="#DejaVuSans-74" transform="translate(809.814453 0)"/>
     </g>
    </g>
    <g id="line2d_28">
     <path d="M 777.930625 45.372813 
L 787.930625 45.372813 
L 797.930625 45.372813 
" style="fill: none; stroke: #d62728; stroke-width: 1.5; stroke-linecap: square"/>
     <g>
      <use xlink:href="#m2513414626" x="787.930625" y="45.372813" style="fill: #d62728; stroke: #ffffff; stroke-width: 0.75; stroke-linejoin: miter"/>
     </g>
    </g>
    <g id="text_18">
     <!-- aflplusplus_c11 -->
     <g transform="translate(805.930625 48.872813) scale(0.1 -0.1)">
      <use xlink:href="#DejaVuSans-61"/>
      <use xlink:href="#DejaVuSans-66" transform="translate(61.279297 0)"/>
      <use xlink:href="#DejaVuSans-6c" transform="translate(96.484375 0)"/>
      <use xlink:href="#DejaVuSans-70" transform="translate(124.267578 0)"/>
      <use xlink:href="#DejaVuSans-6c" transform="translate(187.744141 0)"/>
      <use xlink:href="#DejaVuSans-75" transform="translate(215.527344 0)"/>
      <use xlink:href="#DejaVuSans-73" transform="translate(278.90625 0)"/>
      <use xlink:href="#DejaVuSans-70" transform="translate(331.005859 0)"/>
      <use xlink:href="#DejaVuSans-6c" transform="translate(394.482422 0)"/>
      <use xlink:href="#DejaVuSans-75" transform="translate(422.265625 0)"/>
      <use xlink:href="#DejaVuSans-73" transform="translate(485.644531 0)"/>
      <use xlink:href="#DejaVuSans-5f" transform="translate(537.744141 0)"/>
      <use xlink:href="#DejaVuSans-63" transform="translate(587.744141 0)"/>
      <use xlink:href="#DejaVuSans-31" transform="translate(642.724609 0)"/>
      <use xlink:href="#DejaVuSans-31" transform="translate(706.347656 0)"/>
     </g>
    </g>
    <g id="line2d_29">
     <path d="M 777.930625 60.329063 
L 787.930625 60.329063 
L 797.930625 60.329063 
" style="fill: none; stroke: #1f77b4; stroke-width: 1.5; stroke-linecap: square"/>
     <g>
      <use xlink:href="#m2c7fac9f31" x="787.930625" y="60.329063" style="fill: #1f77b4; stroke: #ffffff; stroke-width: 0.75"/>
     </g>
    </g>
    <g id="text_19">
     <!-- aflplusplus_440c -->
     <g transform="translate(805.930625 63.829063) scale(0.1 -0.1)">
      <use xlink:href="#DejaVuSans-61"/>
      <use xlink:href="#DejaVuSans-66" transform="translate(61.279297 0)"/>
      <use xlink:href="#DejaVuSans-6c" transform="translate(96.484375 0)"/>
      <use xlink:href="#DejaVuSans-70" transform="translate(124.267578 0)"/>
      <use xlink:href="#DejaVuSans-6c" transform="translate(187.744141 0)"/>
      <use xlink:href="#DejaVuSans-75" transform="translate(215.527344 0)"/>
      <use xlink:href="#DejaVuSans-73" transform="translate(278.90625 0)"/>
      <use xlink:href="#DejaVuSans-70" transform="translate(331.005859 0)"/>
      <use xlink:href="#DejaVuSans-6c" transform="translate(394.482422 0)"/>
      <use xlink:href="#DejaVuSans-75" transform="translate(422.265625 0)"/>
      <use xlink:href="#DejaVuSans-73" transform="translate(485.644531 0)"/>
      <use xlink:href="#DejaVuSans-5f" transform="translate(537.744141 0)"/>
      <use xlink:href="#DejaVuSans-34" transform="translate(587.744141 0)"/>
      <use xlink:href="#DejaVuSans-34" transform="translate(651.367188 0)"/>
      <use xlink:href="#DejaVuSans-30" transform="translate(714.990234 0)"/>
      <use xlink:href="#DejaVuSans-63" transform="translate(778.613281 0)"/>
     </g>
    </g>
    <g id="line2d_30">
     <path d="M 777.930625 75.285313 
L 787.930625 75.285313 
L 797.930625 75.285313 
" style="fill: none; stroke: #98df8a; stroke-width: 1.5; stroke-linecap: square"/>
     <g>
      <use xlink:href="#mbd05590a88" x="787.930625" y="75.285313" style="fill: #98df8a; stroke: #ffffff; stroke-width: 0.75; stroke-linejoin: miter"/>
     </g>
    </g>
    <g id="text_20">
     <!-- aflplusplus_500c -->
     <g transform="translate(805.930625 78.785313) scale(0.1 -0.1)">
      <use xlink:href="#DejaVuSans-61"/>
      <use xlink:href="#DejaVuSans-66" transform="translate(61.279297 0)"/>
      <use xlink:href="#DejaVuSans-6c" transform="translate(96.484375 0)"/>
      <use xlink:href="#DejaVuSans-70" transform="translate(124.267578 0)"/>
      <use xlink:href="#DejaVuSans-6c" transform="translate(187.744141 0)"/>
      <use xlink:href="#DejaVuSans-75" transform="translate(215.527344 0)"/>
      <use xlink:href="#DejaVuSans-73" transform="translate(278.90625 0)"/>
      <use xlink:href="#DejaVuSans-70" transform="translate(331.005859 0)"/>
      <use xlink:href="#DejaVuSans-6c" transform="translate(394.482422 0)"/>
      <use xlink:href="#DejaVuSans-75" transform="translate(422.265625 0)"/>
      <use xlink:href="#DejaVuSans-73" transform="translate(485.644531 0)"/>
      <use xlink:href="#DejaVuSans-5f" transform="translate(537.744141 0)"/>
      <use xlink:href="#DejaVuSans-35" transform="translate(587.744141 0)"/>
      <use xlink:href="#DejaVuSans-30" transform="translate(651.367188 0)"/>
      <use xlink:href="#DejaVuSans-30" transform="translate(714.990234 0)"/>
      <use xlink:href="#DejaVuSans-63" transform="translate(778.613281 0)"/>
     </g>
    </g>
   </g>
  </g>
 </g>
 <defs>
  <clipPath id="p6048349564">
   <rect x="59.690625" y="22.318125" width="714.24" height="266.112"/>
  </clipPath>
 </defs>
</svg>
