<?xml version="1.0" encoding="utf-8" standalone="no"?>
<!DOCTYPE svg PUBLIC "-//W3C//DTD SVG 1.1//EN"
  "http://www.w3.org/Graphics/SVG/1.1/DTD/svg11.dtd">
<svg xmlns:xlink="http://www.w3.org/1999/xlink" width="902.032187pt" height="325.986375pt" viewBox="0 0 902.032187 325.986375" xmlns="http://www.w3.org/2000/svg" version="1.1">
 <metadata>
  <rdf:RDF xmlns:dc="http://purl.org/dc/elements/1.1/" xmlns:cc="http://creativecommons.org/ns#" xmlns:rdf="http://www.w3.org/1999/02/22-rdf-syntax-ns#">
   <cc:Work>
    <dc:type rdf:resource="http://purl.org/dc/dcmitype/StillImage"/>
    <dc:date>2026-06-10T03:41:45.519557</dc:date>
    <dc:format>image/svg+xml</dc:format>
    <dc:creator>
     <cc:Agent>
      <dc:title>Matplotlib v3.10.9, https://matplotlib.org/</dc:title>
     </cc:Agent>
    </dc:creator>
   </cc:Work>
  </rdf:RDF>
 </metadata>
 <defs>
  <style type="text/css">*{stroke-linejoin: round; stroke-linecap: butt}</style>
 </defs>
 <g id="figure_1">
  <g id="patch_1">
   <path d="M 0 325.986375 
L 902.032187 325.986375 
L 902.032187 0 
L 0 0 
z
" style="fill: #ffffff"/>
  </g>
  <g id="axes_1">
   <g id="patch_2">
    <path d="M 59.690625 288.430125 
L 773.930625 288.430125 
L 773.930625 22.318125 
L 59.690625 22.318125 
z
" style="fill: #ffffff"/>
   </g>
   <g id="FillBetweenPolyCollection_1">
    <defs>
     <path id="m882c3ae3ec" d="M 59.690625 -49.65225 
L 59.690625 -49.65225 
L 551.505407 -228.873872 
L 590.835448 -235.529007 
L 613.842047 -236.112791 
L 630.165489 -237.92252 
L 642.826934 -240.607926 
L 653.172088 -242.359277 
L 661.918791 -243.176574 
L 669.495529 -243.176574 
L 676.178687 -243.176574 
L 682.156974 -243.176574 
L 687.564994 -243.176574 
L 692.502128 -243.176574 
L 697.043852 -243.176574 
L 701.248831 -243.176574 
L 705.163573 -243.176574 
L 708.82557 -243.176574 
L 712.265487 -243.293331 
L 715.508727 -243.293331 
L 718.576569 -243.293331 
L 721.487015 -243.351709 
L 724.25543 -243.526845 
L 726.895034 -243.585223 
L 729.417283 -243.585223 
L 731.832169 -243.760358 
L 734.14846 -244.285764 
L 736.373893 -244.285764 
L 738.515326 -244.986304 
L 740.578872 -250.298736 
L 742.569998 -254.910628 
L 744.493614 -256.953872 
L 746.35415 -257.36252 
L 748.155611 -262.441439 
L 749.901633 -266.586304 
L 751.595528 -268.921439 
L 753.240317 -269.62198 
L 754.838768 -269.97225 
L 756.39342 -271.081439 
L 757.90661 -271.548466 
L 759.380492 -271.898736 
L 760.817056 -273.533331 
L 762.218146 -273.825223 
L 763.585471 -274.64252 
L 764.920621 -274.992791 
L 766.225075 -275.518196 
L 767.500213 -275.634953 
L 768.747324 -276.277115 
L 769.967613 -276.627385 
L 771.16221 -276.685764 
L 771.16221 -289.41225 
L 771.16221 -289.41225 
L 769.967613 -289.41225 
L 768.747324 -289.295493 
L 767.500213 -289.295493 
L 766.225075 -289.178736 
L 764.920621 -289.120358 
L 763.585471 -288.594953 
L 762.218146 -288.594953 
L 760.817056 -288.594953 
L 759.380492 -288.594953 
L 757.90661 -288.536574 
L 756.39342 -288.478196 
L 754.838768 -288.361439 
L 753.240317 -288.244682 
L 751.595528 -287.077115 
L 749.901633 -286.551709 
L 748.155611 -286.376574 
L 746.35415 -286.026304 
L 744.493614 -285.734412 
L 742.569998 -285.617655 
L 740.578872 -285.559277 
L 738.515326 -285.033872 
L 736.373893 -284.975493 
L 734.14846 -284.975493 
L 731.832169 -284.566845 
L 729.417283 -284.391709 
L 726.895034 -284.391709 
L 724.25543 -284.333331 
L 721.487015 -284.333331 
L 718.576569 -284.158196 
L 715.508727 -284.099818 
L 712.265487 -283.632791 
L 708.82557 -282.93225 
L 705.163573 -281.12252 
L 701.248831 -278.670628 
L 697.043852 -276.977655 
L 692.502128 -276.860899 
L 687.564994 -275.109547 
L 682.156974 -274.233872 
L 676.178687 -273.591709 
L 669.495529 -272.540899 
L 661.918791 -271.139818 
L 653.172088 -266.177655 
L 642.826934 -264.893331 
L 630.165489 -258.413331 
L 613.842047 -256.019818 
L 590.835448 -251.116034 
L 551.505407 -244.869547 
L 59.690625 -49.65225 
z
" style="stroke: #c7c7c7; stroke-opacity: 0.2"/>
    </defs>
    <g clip-path="url(#p2e3ba2f6b7)">
     <use xlink:href="#m882c3ae3ec" x="0" y="325.986375" style="fill: #c7c7c7; fill-opacity: 0.2; stroke: #c7c7c7; stroke-opacity: 0.2"/>
    </g>
   </g>
   <g id="FillBetweenPolyCollection_2">
    <defs>
     <path id="m518b8857bc" d="M 59.690625 -49.710628 
L 59.690625 -49.65225 
L 551.505407 -227.297655 
L 590.835448 -228.815493 
L 613.842047 -228.815493 
L 630.165489 -230.216574 
L 642.826934 -234.653331 
L 653.172088 -235.645764 
L 661.918791 -236.287926 
L 669.495529 -236.287926 
L 676.178687 -236.287926 
L 682.156974 -236.287926 
L 687.564994 -236.287926 
L 692.502128 -236.638196 
L 697.043852 -236.638196 
L 701.248831 -236.638196 
L 705.163573 -236.638196 
L 708.82557 -236.638196 
L 712.265487 -236.638196 
L 715.508727 -236.638196 
L 718.576569 -236.638196 
L 721.487015 -237.105223 
L 724.25543 -238.739818 
L 726.895034 -241.308466 
L 729.417283 -241.483601 
L 731.832169 -241.483601 
L 734.14846 -241.54198 
L 736.373893 -242.417655 
L 738.515326 -243.935493 
L 740.578872 -244.694412 
L 742.569998 -247.263061 
L 744.493614 -249.890088 
L 746.35415 -255.027385 
L 748.155611 -255.494412 
L 749.901633 -258.82198 
L 751.595528 -260.281439 
L 753.240317 -260.748466 
L 754.838768 -261.390628 
L 756.39342 -262.324682 
L 757.90661 -263.667385 
L 759.380492 -267.286845 
L 760.817056 -267.987385 
L 762.218146 -269.271709 
L 763.585471 -269.97225 
L 764.920621 -270.380899 
L 766.225075 -270.497655 
L 767.500213 -270.731169 
L 768.747324 -271.081439 
L 769.967613 -271.78198 
L 771.16221 -272.190628 
L 771.16221 -289.645764 
L 771.16221 -289.645764 
L 769.967613 -289.645764 
L 768.747324 -289.645764 
L 767.500213 -289.645764 
L 766.225075 -289.645764 
L 764.920621 -289.645764 
L 763.585471 -289.645764 
L 762.218146 -289.645764 
L 760.817056 -286.493331 
L 759.380492 -286.493331 
L 757.90661 -286.376574 
L 756.39342 -286.201439 
L 754.838768 -286.143061 
L 753.240317 -285.676034 
L 751.595528 -285.325764 
L 749.901633 -285.325764 
L 748.155611 -285.267385 
L 746.35415 -285.209007 
L 744.493614 -285.09225 
L 742.569998 -284.566845 
L 740.578872 -284.566845 
L 738.515326 -284.450088 
L 736.373893 -283.224142 
L 734.14846 -283.165764 
L 731.832169 -283.107385 
L 729.417283 -282.873872 
L 726.895034 -282.640358 
L 724.25543 -282.465223 
L 721.487015 -281.881439 
L 718.576569 -281.531169 
L 715.508727 -280.42198 
L 712.265487 -279.546304 
L 708.82557 -277.619818 
L 705.163573 -276.335493 
L 701.248831 -273.883601 
L 697.043852 -273.007926 
L 692.502128 -271.723601 
L 687.564994 -270.089007 
L 682.156974 -269.738736 
L 676.178687 -267.578736 
L 669.495529 -265.885764 
L 661.918791 -263.14198 
L 653.172088 -261.273872 
L 642.826934 -259.639277 
L 630.165489 -255.786304 
L 613.842047 -250.824142 
L 590.835448 -244.40252 
L 551.505407 -235.178736 
L 59.690625 -49.710628 
z
" style="stroke: #d62728; stroke-opacity: 0.2"/>
    </defs>
    <g clip-path="url(#p2e3ba2f6b7)">
     <use xlink:href="#m518b8857bc" x="0" y="325.986375" style="fill: #d62728; fill-opacity: 0.2; stroke: #d62728; stroke-opacity: 0.2"/>
    </g>
   </g>
   <g id="FillBetweenPolyCollection_3">
    <defs>
     <path id="m939c5e5a69" d="M 59.690625 -49.65225 
L 59.690625 -49.65225 
L 551.505407 -210.192791 
L 590.835448 -211.126845 
L 613.842047 -211.126845 
L 630.165489 -211.126845 
L 642.826934 -211.126845 
L 653.172088 -211.126845 
L 661.918791 -211.126845 
L 669.495529 -211.126845 
L 676.178687 -211.126845 
L 682.156974 -211.126845 
L 687.564994 -211.126845 
L 692.502128 -211.126845 
L 697.043852 -211.126845 
L 701.248831 -211.126845 
L 705.163573 -211.126845 
L 708.82557 -211.126845 
L 712.265487 -211.126845 
L 715.508727 -211.126845 
L 718.576569 -211.126845 
L 721.487015 -211.126845 
L 724.25543 -212.819818 
L 726.895034 -212.819818 
L 729.417283 -212.819818 
L 731.832169 -213.46198 
L 734.14846 -214.220899 
L 736.373893 -214.220899 
L 738.515326 -214.863061 
L 740.578872 -216.32252 
L 742.569998 -222.043601 
L 744.493614 -228.114953 
L 746.35415 -230.566845 
L 748.155611 -235.937655 
L 749.901633 -238.506304 
L 751.595528 -240.783061 
L 753.240317 -241.425223 
L 754.838768 -244.169007 
L 756.39342 -244.694412 
L 757.90661 -245.978736 
L 759.380492 -249.189547 
L 760.817056 -249.189547 
L 762.218146 -251.583061 
L 763.585471 -255.144142 
L 764.920621 -255.611169 
L 766.225075 -255.903061 
L 767.500213 -256.953872 
L 768.747324 -258.238196 
L 769.967613 -258.354953 
L 771.16221 -258.588466 
L 771.16221 -291.57225 
L 771.16221 -291.57225 
L 769.967613 -291.338736 
L 768.747324 -291.046845 
L 767.500213 -290.871709 
L 766.225075 -290.871709 
L 764.920621 -290.813331 
L 763.585471 -290.696574 
L 762.218146 -289.120358 
L 760.817056 -289.06198 
L 759.380492 -289.06198 
L 757.90661 -289.06198 
L 756.39342 -288.186304 
L 754.838768 -287.369007 
L 753.240317 -287.077115 
L 751.595528 -286.90198 
L 749.901633 -286.493331 
L 748.155611 -286.434953 
L 746.35415 -286.318196 
L 744.493614 -286.201439 
L 742.569998 -285.851169 
L 740.578872 -285.792791 
L 738.515326 -282.640358 
L 736.373893 -282.640358 
L 734.14846 -282.523601 
L 731.832169 -282.465223 
L 729.417283 -282.231709 
L 726.895034 -281.706304 
L 724.25543 -281.706304 
L 721.487015 -281.12252 
L 718.576569 -280.947385 
L 715.508727 -280.889007 
L 712.265487 -280.830628 
L 708.82557 -280.071709 
L 705.163573 -279.604682 
L 701.248831 -279.429547 
L 697.043852 -279.079277 
L 692.502128 -278.553872 
L 687.564994 -278.086845 
L 682.156974 -276.043601 
L 676.178687 -274.000358 
L 669.495529 -273.299818 
L 661.918791 -272.249007 
L 653.172088 -270.731169 
L 642.826934 -268.16252 
L 630.165489 -263.083601 
L 613.842047 -260.806845 
L 590.835448 -249.131169 
L 551.505407 -239.265223 
L 59.690625 -49.65225 
z
" style="stroke: #1f77b4; stroke-opacity: 0.2"/>
    </defs>
    <g clip-path="url(#p2e3ba2f6b7)">
     <use xlink:href="#m939c5e5a69" x="0" y="325.986375" style="fill: #1f77b4; fill-opacity: 0.2; stroke: #1f77b4; stroke-opacity: 0.2"/>
    </g>
   </g>
   <g id="FillBetweenPolyCollection_4">
    <defs>
     <path id="mff22bcaddf" d="M 59.690625 -49.769007 
L 59.690625 -49.65225 
L 551.505407 -217.139818 
L 590.835448 -217.139818 
L 613.842047 -217.139818 
L 630.165489 -217.139818 
L 642.826934 -217.139818 
L 653.172088 -217.139818 
L 661.918791 -217.139818 
L 669.495529 -217.139818 
L 676.178687 -217.139818 
L 682.156974 -217.139818 
L 687.564994 -217.139818 
L 692.502128 -217.139818 
L 697.043852 -217.139818 
L 701.248831 -217.139818 
L 705.163573 -217.139818 
L 708.82557 -217.139818 
L 712.265487 -217.548466 
L 715.508727 -217.548466 
L 718.576569 -217.548466 
L 721.487015 -217.548466 
L 724.25543 -217.548466 
L 726.895034 -217.548466 
L 729.417283 -218.48252 
L 731.832169 -218.599277 
L 734.14846 -218.599277 
L 736.373893 -218.716034 
L 738.515326 -219.066304 
L 740.578872 -220.233872 
L 742.569998 -226.071709 
L 744.493614 -231.967926 
L 746.35415 -237.397115 
L 748.155611 -239.790628 
L 749.901633 -242.476034 
L 751.595528 -244.285764 
L 753.240317 -245.803601 
L 754.838768 -247.846845 
L 756.39342 -247.846845 
L 757.90661 -248.547385 
L 759.380492 -250.240358 
L 760.817056 -251.349547 
L 762.218146 -253.04252 
L 763.585471 -253.918196 
L 764.920621 -255.494412 
L 766.225075 -256.194953 
L 767.500213 -258.004682 
L 768.747324 -258.82198 
L 769.967613 -259.989547 
L 771.16221 -260.106304 
L 771.16221 -291.280358 
L 771.16221 -291.280358 
L 769.967613 -291.105223 
L 768.747324 -288.361439 
L 767.500213 -288.361439 
L 766.225075 -288.303061 
L 764.920621 -288.186304 
L 763.585471 -288.186304 
L 762.218146 -288.186304 
L 760.817056 -288.186304 
L 759.380492 -288.127926 
L 757.90661 -288.127926 
L 756.39342 -288.069547 
L 754.838768 -287.777655 
L 753.240317 -287.777655 
L 751.595528 -287.369007 
L 749.901633 -287.310628 
L 748.155611 -287.310628 
L 746.35415 -286.434953 
L 744.493614 -285.617655 
L 742.569998 -285.500899 
L 740.578872 -284.858736 
L 738.515326 -284.800358 
L 736.373893 -284.683601 
L 734.14846 -284.683601 
L 731.832169 -284.625223 
L 729.417283 -284.566845 
L 726.895034 -284.333331 
L 724.25543 -284.216574 
L 721.487015 -281.064142 
L 718.576569 -280.830628 
L 715.508727 -280.538736 
L 712.265487 -280.42198 
L 708.82557 -280.246845 
L 705.163573 -280.013331 
L 701.248831 -279.663061 
L 697.043852 -279.487926 
L 692.502128 -278.203601 
L 687.564994 -278.028466 
L 682.156974 -277.269547 
L 676.178687 -276.685764 
L 669.495529 -274.584142 
L 661.918791 -273.825223 
L 653.172088 -272.073872 
L 642.826934 -270.672791 
L 630.165489 -269.096574 
L 613.842047 -259.989547 
L 590.835448 -254.385223 
L 551.505407 -239.090088 
L 59.690625 -49.769007 
z
" style="stroke: #98df8a; stroke-opacity: 0.2"/>
    </defs>
    <g clip-path="url(#p2e3ba2f6b7)">
     <use xlink:href="#mff22bcaddf" x="0" y="325.986375" style="fill: #98df8a; fill-opacity: 0.2; stroke: #98df8a; stroke-opacity: 0.2"/>
    </g>
   </g>
   <g id="matplotlib.axis_1">
    <g id="xtick_1">
     <g id="line2d_1">
      <defs>
       <path id="mfbe8e1d214" d="M 0 0 
L 0 3.5 
" style="stroke: #000000; stroke-width: 0.8"/>
      </defs>
      <g>
       <use xlink:href="#mfbe8e1d214" x="59.690625" y="288.430125" style="stroke: #000000; stroke-width: 0.8"/>
      </g>
     </g>
     <g id="text_1">
      <!-- 0m -->
      <g transform="translate(51.639063 303.028562) scale(0.1 -0.1)">
       <defs>
        <path id="DejaVuSans-30" d="M 2034 4250 
Q 1547 4250 1301 3770 
Q 1056 3291 1056 2328 
Q 1056 1369 1301 889 
Q 1547 409 2034 409 
Q 2525 409 2770 889 
Q 3016 1369 3016 2328 
Q 3016 3291 2770 3770 
Q 2525 4250 2034 4250 
z
M 2034 4750 
Q 2819 4750 3233 4129 
Q 3647 3509 3647 2328 
Q 3647 1150 3233 529 
Q 2819 -91 2034 -91 
Q 1250 -91 836 529 
Q 422 1150 422 2328 
Q 422 3509 836 4129 
Q 1250 4750 2034 4750 
z
" transform="scale(0.015625)"/>
        <path id="DejaVuSans-6d" d="M 3328 2828 
Q 3544 3216 3844 3400 
Q 4144 3584 4550 3584 
Q 5097 3584 5394 3201 
Q 5691 2819 5691 2113 
L 5691 0 
L 5113 0 
L 5113 2094 
Q 5113 2597 4934 2840 
Q 4756 3084 4391 3084 
Q 3944 3084 3684 2787 
Q 3425 2491 3425 1978 
L 3425 0 
L 2847 0 
L 2847 2094 
Q 2847 2600 2669 2842 
Q 2491 3084 2119 3084 
Q 1678 3084 1418 2786 
Q 1159 2488 1159 1978 
L 1159 0 
L 581 0 
L 581 3500 
L 1159 3500 
L 1159 2956 
Q 1356 3278 1631 3431 
Q 1906 3584 2284 3584 
Q 2666 3584 2933 3390 
Q 3200 3197 3328 2828 
z
" transform="scale(0.015625)"/>
       </defs>
       <use xlink:href="#DejaVuSans-30"/>
       <use xlink:href="#DejaVuSans-6d" transform="translate(63.623047 0)"/>
      </g>
     </g>
    </g>
    <g id="xtick_2">
     <g id="line2d_2">
      <g>
       <use xlink:href="#mfbe8e1d214" x="132.274829" y="288.430125" style="stroke: #000000; stroke-width: 0.8"/>
      </g>
     </g>
    </g>
    <g id="xtick_3">
     <g id="line2d_3">
      <g>
       <use xlink:href="#mfbe8e1d214" x="226.092446" y="288.430125" style="stroke: #000000; stroke-width: 0.8"/>
      </g>
     </g>
    </g>
    <g id="xtick_4">
     <g id="line2d_4">
      <g>
       <use xlink:href="#mfbe8e1d214" x="286.655899" y="288.430125" style="stroke: #000000; stroke-width: 0.8"/>
      </g>
     </g>
    </g>
    <g id="xtick_5">
     <g id="line2d_5">
      <g>
       <use xlink:href="#mfbe8e1d214" x="347.219352" y="288.430125" style="stroke: #000000; stroke-width: 0.8"/>
      </g>
     </g>
    </g>
    <g id="xtick_6">
     <g id="line2d_6">
      <g>
       <use xlink:href="#mfbe8e1d214" x="407.782805" y="288.430125" style="stroke: #000000; stroke-width: 0.8"/>
      </g>
     </g>
     <g id="text_2">
      <!-- 1m -->
      <g transform="translate(399.731242 303.028562) scale(0.1 -0.1)">
       <defs>
        <path id="DejaVuSans-31" d="M 794 531 
L 1825 531 
L 1825 4091 
L 703 3866 
L 703 4441 
L 1819 4666 
L 2450 4666 
L 2450 531 
L 3481 531 
L 3481 0 
L 794 0 
L 794 531 
z
" transform="scale(0.015625)"/>
       </defs>
       <use xlink:href="#DejaVuSans-31"/>
       <use xlink:href="#DejaVuSans-6d" transform="translate(63.623047 0)"/>
      </g>
     </g>
    </g>
    <g id="xtick_7">
     <g id="line2d_7">
      <g>
       <use xlink:href="#mfbe8e1d214" x="468.346258" y="288.430125" style="stroke: #000000; stroke-width: 0.8"/>
      </g>
     </g>
     <g id="text_3">
      <!-- 3m -->
      <g transform="translate(460.294695 303.028562) scale(0.1 -0.1)">
       <defs>
        <path id="DejaVuSans-33" d="M 2597 2516 
Q 3050 2419 3304 2112 
Q 3559 1806 3559 1356 
Q 3559 666 3084 287 
Q 2609 -91 1734 -91 
Q 1441 -91 1130 -33 
Q 819 25 488 141 
L 488 750 
Q 750 597 1062 519 
Q 1375 441 1716 441 
Q 2309 441 2620 675 
Q 2931 909 2931 1356 
Q 2931 1769 2642 2001 
Q 2353 2234 1838 2234 
L 1294 2234 
L 1294 2753 
L 1863 2753 
Q 2328 2753 2575 2939 
Q 2822 3125 2822 3475 
Q 2822 3834 2567 4026 
Q 2313 4219 1838 4219 
Q 1578 4219 1281 4162 
Q 984 4106 628 3988 
L 628 4550 
Q 988 4650 1302 4700 
Q 1616 4750 1894 4750 
Q 2613 4750 3031 4423 
Q 3450 4097 3450 3541 
Q 3450 3153 3228 2886 
Q 3006 2619 2597 2516 
z
" transform="scale(0.015625)"/>
       </defs>
       <use xlink:href="#DejaVuSans-33"/>
       <use xlink:href="#DejaVuSans-6d" transform="translate(63.623047 0)"/>
      </g>
     </g>
    </g>
    <g id="xtick_8">
     <g id="line2d_8">
      <g>
       <use xlink:href="#mfbe8e1d214" x="528.909711" y="288.430125" style="stroke: #000000; stroke-width: 0.8"/>
      </g>
     </g>
     <g id="text_4">
      <!-- 10m -->
      <g transform="translate(517.676898 303.028562) scale(0.1 -0.1)">
       <use xlink:href="#DejaVuSans-31"/>
       <use xlink:href="#DejaVuSans-30" transform="translate(63.623047 0)"/>
       <use xlink:href="#DejaVuSans-6d" transform="translate(127.246094 0)"/>
      </g>
     </g>
    </g>
    <g id="xtick_9">
     <g id="line2d_9">
      <g>
       <use xlink:href="#mfbe8e1d214" x="589.473164" y="288.430125" style="stroke: #000000; stroke-width: 0.8"/>
      </g>
     </g>
     <g id="text_5">
      <!-- 29m -->
      <g transform="translate(578.240352 303.028562) scale(0.1 -0.1)">
       <defs>
        <path id="DejaVuSans-32" d="M 1228 531 
L 3431 531 
L 3431 0 
L 469 0 
L 469 531 
Q 828 903 1448 1529 
Q 2069 2156 2228 2338 
Q 2531 2678 2651 2914 
Q 2772 3150 2772 3378 
Q 2772 3750 2511 3984 
Q 2250 4219 1831 4219 
Q 1534 4219 1204 4116 
Q 875 4013 500 3803 
L 500 4441 
Q 881 4594 1212 4672 
Q 1544 4750 1819 4750 
Q 2544 4750 2975 4387 
Q 3406 4025 3406 3419 
Q 3406 3131 3298 2873 
Q 3191 2616 2906 2266 
Q 2828 2175 2409 1742 
Q 1991 1309 1228 531 
z
" transform="scale(0.015625)"/>
        <path id="DejaVuSans-39" d="M 703 97 
L 703 672 
Q 941 559 1184 500 
Q 1428 441 1663 441 
Q 2288 441 2617 861 
Q 2947 1281 2994 2138 
Q 2813 1869 2534 1725 
Q 2256 1581 1919 1581 
Q 1219 1581 811 2004 
Q 403 2428 403 3163 
Q 403 3881 828 4315 
Q 1253 4750 1959 4750 
Q 2769 4750 3195 4129 
Q 3622 3509 3622 2328 
Q 3622 1225 3098 567 
Q 2575 -91 1691 -91 
Q 1453 -91 1209 -44 
Q 966 3 703 97 
z
M 1959 2075 
Q 2384 2075 2632 2365 
Q 2881 2656 2881 3163 
Q 2881 3666 2632 3958 
Q 2384 4250 1959 4250 
Q 1534 4250 1286 3958 
Q 1038 3666 1038 3163 
Q 1038 2656 1286 2365 
Q 1534 2075 1959 2075 
z
" transform="scale(0.015625)"/>
       </defs>
       <use xlink:href="#DejaVuSans-32"/>
       <use xlink:href="#DejaVuSans-39" transform="translate(63.623047 0)"/>
       <use xlink:href="#DejaVuSans-6d" transform="translate(127.246094 0)"/>
      </g>
     </g>
    </g>
    <g id="xtick_10">
     <g id="line2d_10">
      <g>
       <use xlink:href="#mfbe8e1d214" x="650.036617" y="288.430125" style="stroke: #000000; stroke-width: 0.8"/>
      </g>
     </g>
     <g id="text_6">
      <!-- 1h:25m -->
      <g transform="translate(630.76943 303.028562) scale(0.1 -0.1)">
       <defs>
        <path id="DejaVuSans-68" d="M 3513 2113 
L 3513 0 
L 2938 0 
L 2938 2094 
Q 2938 2591 2744 2837 
Q 2550 3084 2163 3084 
Q 1697 3084 1428 2787 
Q 1159 2491 1159 1978 
L 1159 0 
L 581 0 
L 581 4863 
L 1159 4863 
L 1159 2956 
Q 1366 3272 1645 3428 
Q 1925 3584 2291 3584 
Q 2894 3584 3203 3211 
Q 3513 2838 3513 2113 
z
" transform="scale(0.015625)"/>
        <path id="DejaVuSans-3a" d="M 750 794 
L 1409 794 
L 1409 0 
L 750 0 
L 750 794 
z
M 750 3309 
L 1409 3309 
L 1409 2516 
L 750 2516 
L 750 3309 
z
" transform="scale(0.015625)"/>
        <path id="DejaVuSans-35" d="M 691 4666 
L 3169 4666 
L 3169 4134 
L 1269 4134 
L 1269 2991 
Q 1406 3038 1543 3061 
Q 1681 3084 1819 3084 
Q 2600 3084 3056 2656 
Q 3513 2228 3513 1497 
Q 3513 744 3044 326 
Q 2575 -91 1722 -91 
Q 1428 -91 1123 -41 
Q 819 9 494 109 
L 494 744 
Q 775 591 1075 516 
Q 1375 441 1709 441 
Q 2250 441 2565 725 
Q 2881 1009 2881 1497 
Q 2881 1984 2565 2268 
Q 2250 2553 1709 2553 
Q 1456 2553 1204 2497 
Q 953 2441 691 2322 
L 691 4666 
z
" transform="scale(0.015625)"/>
       </defs>
       <use xlink:href="#DejaVuSans-31"/>
       <use xlink:href="#DejaVuSans-68" transform="translate(63.623047 0)"/>
       <use xlink:href="#DejaVuSans-3a" transform="translate(127.001953 0)"/>
       <use xlink:href="#DejaVuSans-32" transform="translate(160.693359 0)"/>
       <use xlink:href="#DejaVuSans-35" transform="translate(224.316406 0)"/>
       <use xlink:href="#DejaVuSans-6d" transform="translate(287.939453 0)"/>
      </g>
     </g>
    </g>
    <g id="xtick_11">
     <g id="line2d_11">
      <g>
       <use xlink:href="#mfbe8e1d214" x="710.60007" y="288.430125" style="stroke: #000000; stroke-width: 0.8"/>
      </g>
     </g>
     <g id="text_7">
      <!-- 4h:7m -->
      <g transform="translate(694.514133 303.028562) scale(0.1 -0.1)">
       <defs>
        <path id="DejaVuSans-34" d="M 2419 4116 
L 825 1625 
L 2419 1625 
L 2419 4116 
z
M 2253 4666 
L 3047 4666 
L 3047 1625 
L 3713 1625 
L 3713 1100 
L 3047 1100 
L 3047 0 
L 2419 0 
L 2419 1100 
L 313 1100 
L 313 1709 
L 2253 4666 
z
" transform="scale(0.015625)"/>
        <path id="DejaVuSans-37" d="M 525 4666 
L 3525 4666 
L 3525 4397 
L 1831 0 
L 1172 0 
L 2766 4134 
L 525 4134 
L 525 4666 
z
" transform="scale(0.015625)"/>
       </defs>
       <use xlink:href="#DejaVuSans-34"/>
       <use xlink:href="#DejaVuSans-68" transform="translate(63.623047 0)"/>
       <use xlink:href="#DejaVuSans-3a" transform="translate(127.001953 0)"/>
       <use xlink:href="#DejaVuSans-37" transform="translate(160.693359 0)"/>
       <use xlink:href="#DejaVuSans-6d" transform="translate(224.316406 0)"/>
      </g>
     </g>
    </g>
    <g id="xtick_12">
     <g id="line2d_12">
      <g>
       <use xlink:href="#mfbe8e1d214" x="771.163523" y="288.430125" style="stroke: #000000; stroke-width: 0.8"/>
      </g>
     </g>
     <g id="text_8">
      <!-- 12h -->
      <g transform="translate(761.632273 303.028562) scale(0.1 -0.1)">
       <use xlink:href="#DejaVuSans-31"/>
       <use xlink:href="#DejaVuSans-32" transform="translate(63.623047 0)"/>
       <use xlink:href="#DejaVuSans-68" transform="translate(127.246094 0)"/>
      </g>
     </g>
    </g>
    <g id="text_9">
     <!-- Time (hour:minute) -->
     <g transform="translate(368.403594 316.706687) scale(0.1 -0.1)">
      <defs>
       <path id="DejaVuSans-54" d="M -19 4666 
L 3928 4666 
L 3928 4134 
L 2272 4134 
L 2272 0 
L 1638 0 
L 1638 4134 
L -19 4134 
L -19 4666 
z
" transform="scale(0.015625)"/>
       <path id="DejaVuSans-69" d="M 603 3500 
L 1178 3500 
L 1178 0 
L 603 0 
L 603 3500 
z
M 603 4863 
L 1178 4863 
L 1178 4134 
L 603 4134 
L 603 4863 
z
" transform="scale(0.015625)"/>
       <path id="DejaVuSans-65" d="M 3597 1894 
L 3597 1613 
L 953 1613 
Q 991 1019 1311 708 
Q 1631 397 2203 397 
Q 2534 397 2845 478 
Q 3156 559 3463 722 
L 3463 178 
Q 3153 47 2828 -22 
Q 2503 -91 2169 -91 
Q 1331 -91 842 396 
Q 353 884 353 1716 
Q 353 2575 817 3079 
Q 1281 3584 2069 3584 
Q 2775 3584 3186 3129 
Q 3597 2675 3597 1894 
z
M 3022 2063 
Q 3016 2534 2758 2815 
Q 2500 3097 2075 3097 
Q 1594 3097 1305 2825 
Q 1016 2553 972 2059 
L 3022 2063 
z
" transform="scale(0.015625)"/>
       <path id="DejaVuSans-20" transform="scale(0.015625)"/>
       <path id="DejaVuSans-28" d="M 1984 4856 
Q 1566 4138 1362 3434 
Q 1159 2731 1159 2009 
Q 1159 1288 1364 580 
Q 1569 -128 1984 -844 
L 1484 -844 
Q 1016 -109 783 600 
Q 550 1309 550 2009 
Q 550 2706 781 3412 
Q 1013 4119 1484 4856 
L 1984 4856 
z
" transform="scale(0.015625)"/>
       <path id="DejaVuSans-6f" d="M 1959 3097 
Q 1497 3097 1228 2736 
Q 959 2375 959 1747 
Q 959 1119 1226 758 
Q 1494 397 1959 397 
Q 2419 397 2687 759 
Q 2956 1122 2956 1747 
Q 2956 2369 2687 2733 
Q 2419 3097 1959 3097 
z
M 1959 3584 
Q 2709 3584 3137 3096 
Q 3566 2609 3566 1747 
Q 3566 888 3137 398 
Q 2709 -91 1959 -91 
Q 1206 -91 779 398 
Q 353 888 353 1747 
Q 353 2609 779 3096 
Q 1206 3584 1959 3584 
z
" transform="scale(0.015625)"/>
       <path id="DejaVuSans-75" d="M 544 1381 
L 544 3500 
L 1119 3500 
L 1119 1403 
Q 1119 906 1312 657 
Q 1506 409 1894 409 
Q 2359 409 2629 706 
Q 2900 1003 2900 1516 
L 2900 3500 
L 3475 3500 
L 3475 0 
L 2900 0 
L 2900 538 
Q 2691 219 2414 64 
Q 2138 -91 1772 -91 
Q 1169 -91 856 284 
Q 544 659 544 1381 
z
M 1991 3584 
L 1991 3584 
z
" transform="scale(0.015625)"/>
       <path id="DejaVuSans-72" d="M 2631 2963 
Q 2534 3019 2420 3045 
Q 2306 3072 2169 3072 
Q 1681 3072 1420 2755 
Q 1159 2438 1159 1844 
L 1159 0 
L 581 0 
L 581 3500 
L 1159 3500 
L 1159 2956 
Q 1341 3275 1631 3429 
Q 1922 3584 2338 3584 
Q 2397 3584 2469 3576 
Q 2541 3569 2628 3553 
L 2631 2963 
z
" transform="scale(0.015625)"/>
       <path id="DejaVuSans-6e" d="M 3513 2113 
L 3513 0 
L 2938 0 
L 2938 2094 
Q 2938 2591 2744 2837 
Q 2550 3084 2163 3084 
Q 1697 3084 1428 2787 
Q 1159 2491 1159 1978 
L 1159 0 
L 581 0 
L 581 3500 
L 1159 3500 
L 1159 2956 
Q 1366 3272 1645 3428 
Q 1925 3584 2291 3584 
Q 2894 3584 3203 3211 
Q 3513 2838 3513 2113 
z
" transform="scale(0.015625)"/>
       <path id="DejaVuSans-74" d="M 1172 4494 
L 1172 3500 
L 2356 3500 
L 2356 3053 
L 1172 3053 
L 1172 1153 
Q 1172 725 1289 603 
Q 1406 481 1766 481 
L 2356 481 
L 2356 0 
L 1766 0 
Q 1100 0 847 248 
Q 594 497 594 1153 
L 594 3053 
L 172 3053 
L 172 3500 
L 594 3500 
L 594 4494 
L 1172 4494 
z
" transform="scale(0.015625)"/>
       <path id="DejaVuSans-29" d="M 513 4856 
L 1013 4856 
Q 1481 4119 1714 3412 
Q 1947 2706 1947 2009 
Q 1947 1309 1714 600 
Q 1481 -109 1013 -844 
L 513 -844 
Q 928 -128 1133 580 
Q 1338 1288 1338 2009 
Q 1338 2731 1133 3434 
Q 928 4138 513 4856 
z
" transform="scale(0.015625)"/>
      </defs>
      <use xlink:href="#DejaVuSans-54"/>
      <use xlink:href="#DejaVuSans-69" transform="translate(57.958984 0)"/>
      <use xlink:href="#DejaVuSans-6d" transform="translate(85.742188 0)"/>
      <use xlink:href="#DejaVuSans-65" transform="translate(183.154297 0)"/>
      <use xlink:href="#DejaVuSans-20" transform="translate(244.677734 0)"/>
      <use xlink:href="#DejaVuSans-28" transform="translate(276.464844 0)"/>
      <use xlink:href="#DejaVuSans-68" transform="translate(315.478516 0)"/>
      <use xlink:href="#DejaVuSans-6f" transform="translate(378.857422 0)"/>
      <use xlink:href="#DejaVuSans-75" transform="translate(440.039062 0)"/>
      <use xlink:href="#DejaVuSans-72" transform="translate(503.417969 0)"/>
      <use xlink:href="#DejaVuSans-3a" transform="translate(542.78125 0)"/>
      <use xlink:href="#DejaVuSans-6d" transform="translate(576.472656 0)"/>
      <use xlink:href="#DejaVuSans-69" transform="translate(673.884766 0)"/>
      <use xlink:href="#DejaVuSans-6e" transform="translate(701.667969 0)"/>
      <use xlink:href="#DejaVuSans-75" transform="translate(765.046875 0)"/>
      <use xlink:href="#DejaVuSans-74" transform="translate(828.425781 0)"/>
      <use xlink:href="#DejaVuSans-65" transform="translate(867.634766 0)"/>
      <use xlink:href="#DejaVuSans-29" transform="translate(929.158203 0)"/>
     </g>
    </g>
   </g>
   <g id="matplotlib.axis_2">
    <g id="ytick_1">
     <g id="line2d_13">
      <defs>
       <path id="mda31f54862" d="M 0 0 
L -3.5 0 
" style="stroke: #000000; stroke-width: 0.8"/>
      </defs>
      <g>
       <use xlink:href="#mda31f54862" x="59.690625" y="271.955747" style="stroke: #000000; stroke-width: 0.8"/>
      </g>
     </g>
     <g id="text_10">
      <!-- 7000 -->
      <g transform="translate(27.240625 275.754965) scale(0.1 -0.1)">
       <use xlink:href="#DejaVuSans-37"/>
       <use xlink:href="#DejaVuSans-30" transform="translate(63.623047 0)"/>
       <use xlink:href="#DejaVuSans-30" transform="translate(127.246094 0)"/>
       <use xlink:href="#DejaVuSans-30" transform="translate(190.869141 0)"/>
      </g>
     </g>
    </g>
    <g id="ytick_2">
     <g id="line2d_14">
      <g>
       <use xlink:href="#mda31f54862" x="59.690625" y="213.577368" style="stroke: #000000; stroke-width: 0.8"/>
      </g>
     </g>
     <g id="text_11">
      <!-- 8000 -->
      <g transform="translate(27.240625 217.376587) scale(0.1 -0.1)">
       <defs>
        <path id="DejaVuSans-38" d="M 2034 2216 
Q 1584 2216 1326 1975 
Q 1069 1734 1069 1313 
Q 1069 891 1326 650 
Q 1584 409 2034 409 
Q 2484 409 2743 651 
Q 3003 894 3003 1313 
Q 3003 1734 2745 1975 
Q 2488 2216 2034 2216 
z
M 1403 2484 
Q 997 2584 770 2862 
Q 544 3141 544 3541 
Q 544 4100 942 4425 
Q 1341 4750 2034 4750 
Q 2731 4750 3128 4425 
Q 3525 4100 3525 3541 
Q 3525 3141 3298 2862 
Q 3072 2584 2669 2484 
Q 3125 2378 3379 2068 
Q 3634 1759 3634 1313 
Q 3634 634 3220 271 
Q 2806 -91 2034 -91 
Q 1263 -91 848 271 
Q 434 634 434 1313 
Q 434 1759 690 2068 
Q 947 2378 1403 2484 
z
M 1172 3481 
Q 1172 3119 1398 2916 
Q 1625 2713 2034 2713 
Q 2441 2713 2670 2916 
Q 2900 3119 2900 3481 
Q 2900 3844 2670 4047 
Q 2441 4250 2034 4250 
Q 1625 4250 1398 4047 
Q 1172 3844 1172 3481 
z
" transform="scale(0.015625)"/>
       </defs>
       <use xlink:href="#DejaVuSans-38"/>
       <use xlink:href="#DejaVuSans-30" transform="translate(63.623047 0)"/>
       <use xlink:href="#DejaVuSans-30" transform="translate(127.246094 0)"/>
       <use xlink:href="#DejaVuSans-30" transform="translate(190.869141 0)"/>
      </g>
     </g>
    </g>
    <g id="ytick_3">
     <g id="line2d_15">
      <g>
       <use xlink:href="#mda31f54862" x="59.690625" y="155.19899" style="stroke: #000000; stroke-width: 0.8"/>
      </g>
     </g>
     <g id="text_12">
      <!-- 9000 -->
      <g transform="translate(27.240625 158.998209) scale(0.1 -0.1)">
       <use xlink:href="#DejaVuSans-39"/>
       <use xlink:href="#DejaVuSans-30" transform="translate(63.623047 0)"/>
       <use xlink:href="#DejaVuSans-30" transform="translate(127.246094 0)"/>
       <use xlink:href="#DejaVuSans-30" transform="translate(190.869141 0)"/>
      </g>
     </g>
    </g>
    <g id="ytick_4">
     <g id="line2d_16">
      <g>
       <use xlink:href="#mda31f54862" x="59.690625" y="96.820611" style="stroke: #000000; stroke-width: 0.8"/>
      </g>
     </g>
     <g id="text_13">
      <!-- 10000 -->
      <g transform="translate(20.878125 100.61983) scale(0.1 -0.1)">
       <use xlink:href="#DejaVuSans-31"/>
       <use xlink:href="#DejaVuSans-30" transform="translate(63.623047 0)"/>
       <use xlink:href="#DejaVuSans-30" transform="translate(127.246094 0)"/>
       <use xlink:href="#DejaVuSans-30" transform="translate(190.869141 0)"/>
       <use xlink:href="#DejaVuSans-30" transform="translate(254.492188 0)"/>
      </g>
     </g>
    </g>
    <g id="ytick_5">
     <g id="line2d_17">
      <g>
       <use xlink:href="#mda31f54862" x="59.690625" y="38.442233" style="stroke: #000000; stroke-width: 0.8"/>
      </g>
     </g>
     <g id="text_14">
      <!-- 11000 -->
      <g transform="translate(20.878125 42.241452) scale(0.1 -0.1)">
       <use xlink:href="#DejaVuSans-31"/>
       <use xlink:href="#DejaVuSans-31" transform="translate(63.623047 0)"/>
       <use xlink:href="#DejaVuSans-30" transform="translate(127.246094 0)"/>
       <use xlink:href="#DejaVuSans-30" transform="translate(190.869141 0)"/>
       <use xlink:href="#DejaVuSans-30" transform="translate(254.492188 0)"/>
      </g>
     </g>
    </g>
    <g id="text_15">
     <!-- Code branch coverage -->
     <g transform="translate(14.798438 211.949125) rotate(-90) scale(0.1 -0.1)">
      <defs>
       <path id="DejaVuSans-43" d="M 4122 4306 
L 4122 3641 
Q 3803 3938 3442 4084 
Q 3081 4231 2675 4231 
Q 1875 4231 1450 3742 
Q 1025 3253 1025 2328 
Q 1025 1406 1450 917 
Q 1875 428 2675 428 
Q 3081 428 3442 575 
Q 3803 722 4122 1019 
L 4122 359 
Q 3791 134 3420 21 
Q 3050 -91 2638 -91 
Q 1578 -91 968 557 
Q 359 1206 359 2328 
Q 359 3453 968 4101 
Q 1578 4750 2638 4750 
Q 3056 4750 3426 4639 
Q 3797 4528 4122 4306 
z
" transform="scale(0.015625)"/>
       <path id="DejaVuSans-64" d="M 2906 2969 
L 2906 4863 
L 3481 4863 
L 3481 0 
L 2906 0 
L 2906 525 
Q 2725 213 2448 61 
Q 2172 -91 1784 -91 
Q 1150 -91 751 415 
Q 353 922 353 1747 
Q 353 2572 751 3078 
Q 1150 3584 1784 3584 
Q 2172 3584 2448 3432 
Q 2725 3281 2906 2969 
z
M 947 1747 
Q 947 1113 1208 752 
Q 1469 391 1925 391 
Q 2381 391 2643 752 
Q 2906 1113 2906 1747 
Q 2906 2381 2643 2742 
Q 2381 3103 1925 3103 
Q 1469 3103 1208 2742 
Q 947 2381 947 1747 
z
" transform="scale(0.015625)"/>
       <path id="DejaVuSans-62" d="M 3116 1747 
Q 3116 2381 2855 2742 
Q 2594 3103 2138 3103 
Q 1681 3103 1420 2742 
Q 1159 2381 1159 1747 
Q 1159 1113 1420 752 
Q 1681 391 2138 391 
Q 2594 391 2855 752 
Q 3116 1113 3116 1747 
z
M 1159 2969 
Q 1341 3281 1617 3432 
Q 1894 3584 2278 3584 
Q 2916 3584 3314 3078 
Q 3713 2572 3713 1747 
Q 3713 922 3314 415 
Q 2916 -91 2278 -91 
Q 1894 -91 1617 61 
Q 1341 213 1159 525 
L 1159 0 
L 581 0 
L 581 4863 
L 1159 4863 
L 1159 2969 
z
" transform="scale(0.015625)"/>
       <path id="DejaVuSans-61" d="M 2194 1759 
Q 1497 1759 1228 1600 
Q 959 1441 959 1056 
Q 959 750 1161 570 
Q 1363 391 1709 391 
Q 2188 391 2477 730 
Q 2766 1069 2766 1631 
L 2766 1759 
L 2194 1759 
z
M 3341 1997 
L 3341 0 
L 2766 0 
L 2766 531 
Q 2569 213 2275 61 
Q 1981 -91 1556 -91 
Q 1019 -91 701 211 
Q 384 513 384 1019 
Q 384 1609 779 1909 
Q 1175 2209 1959 2209 
L 2766 2209 
L 2766 2266 
Q 2766 2663 2505 2880 
Q 2244 3097 1772 3097 
Q 1472 3097 1187 3025 
Q 903 2953 641 2809 
L 641 3341 
Q 956 3463 1253 3523 
Q 1550 3584 1831 3584 
Q 2591 3584 2966 3190 
Q 3341 2797 3341 1997 
z
" transform="scale(0.015625)"/>
       <path id="DejaVuSans-63" d="M 3122 3366 
L 3122 2828 
Q 2878 2963 2633 3030 
Q 2388 3097 2138 3097 
Q 1578 3097 1268 2742 
Q 959 2388 959 1747 
Q 959 1106 1268 751 
Q 1578 397 2138 397 
Q 2388 397 2633 464 
Q 2878 531 3122 666 
L 3122 134 
Q 2881 22 2623 -34 
Q 2366 -91 2075 -91 
Q 1284 -91 818 406 
Q 353 903 353 1747 
Q 353 2603 823 3093 
Q 1294 3584 2113 3584 
Q 2378 3584 2631 3529 
Q 2884 3475 3122 3366 
z
" transform="scale(0.015625)"/>
       <path id="DejaVuSans-76" d="M 191 3500 
L 800 3500 
L 1894 563 
L 2988 3500 
L 3597 3500 
L 2284 0 
L 1503 0 
L 191 3500 
z
" transform="scale(0.015625)"/>
       <path id="DejaVuSans-67" d="M 2906 1791 
Q 2906 2416 2648 2759 
Q 2391 3103 1925 3103 
Q 1463 3103 1205 2759 
Q 947 2416 947 1791 
Q 947 1169 1205 825 
Q 1463 481 1925 481 
Q 2391 481 2648 825 
Q 2906 1169 2906 1791 
z
M 3481 434 
Q 3481 -459 3084 -895 
Q 2688 -1331 1869 -1331 
Q 1566 -1331 1297 -1286 
Q 1028 -1241 775 -1147 
L 775 -588 
Q 1028 -725 1275 -790 
Q 1522 -856 1778 -856 
Q 2344 -856 2625 -561 
Q 2906 -266 2906 331 
L 2906 616 
Q 2728 306 2450 153 
Q 2172 0 1784 0 
Q 1141 0 747 490 
Q 353 981 353 1791 
Q 353 2603 747 3093 
Q 1141 3584 1784 3584 
Q 2172 3584 2450 3431 
Q 2728 3278 2906 2969 
L 2906 3500 
L 3481 3500 
L 3481 434 
z
" transform="scale(0.015625)"/>
      </defs>
      <use xlink:href="#DejaVuSans-43"/>
      <use xlink:href="#DejaVuSans-6f" transform="translate(69.824219 0)"/>
      <use xlink:href="#DejaVuSans-64" transform="translate(131.005859 0)"/>
      <use xlink:href="#DejaVuSans-65" transform="translate(194.482422 0)"/>
      <use xlink:href="#DejaVuSans-20" transform="translate(256.005859 0)"/>
      <use xlink:href="#DejaVuSans-62" transform="translate(287.792969 0)"/>
      <use xlink:href="#DejaVuSans-72" transform="translate(351.269531 0)"/>
      <use xlink:href="#DejaVuSans-61" transform="translate(392.382812 0)"/>
      <use xlink:href="#DejaVuSans-6e" transform="translate(453.662109 0)"/>
      <use xlink:href="#DejaVuSans-63" transform="translate(517.041016 0)"/>
      <use xlink:href="#DejaVuSans-68" transform="translate(572.021484 0)"/>
      <use xlink:href="#DejaVuSans-20" transform="translate(635.400391 0)"/>
      <use xlink:href="#DejaVuSans-63" transform="translate(667.1875 0)"/>
      <use xlink:href="#DejaVuSans-6f" transform="translate(722.167969 0)"/>
      <use xlink:href="#DejaVuSans-76" transform="translate(783.349609 0)"/>
      <use xlink:href="#DejaVuSans-65" transform="translate(842.529297 0)"/>
      <use xlink:href="#DejaVuSans-72" transform="translate(904.052734 0)"/>
      <use xlink:href="#DejaVuSans-61" transform="translate(945.166016 0)"/>
      <use xlink:href="#DejaVuSans-67" transform="translate(1006.445312 0)"/>
      <use xlink:href="#DejaVuSans-65" transform="translate(1069.921875 0)"/>
     </g>
    </g>
   </g>
   <g id="line2d_18">
    <path d="M 59.690625 276.334125 
L 551.505407 87.626017 
L 590.835448 76.037909 
L 613.842047 72.214125 
L 630.165489 68.44872 
L 642.826934 65.004395 
L 653.172088 61.822774 
L 661.918791 57.152503 
L 669.495529 55.897368 
L 676.178687 55.196828 
L 682.156974 52.890882 
L 687.564994 51.956828 
L 692.502128 50.030341 
L 697.043852 49.621693 
L 701.248831 49.067098 
L 705.163573 47.607639 
L 708.82557 47.344936 
L 712.265487 47.228179 
L 715.508727 45.535206 
L 718.576569 45.243314 
L 721.487015 44.630341 
L 724.25543 44.134125 
L 726.895034 44.017368 
L 729.417283 43.550341 
L 731.832169 43.112503 
L 734.14846 42.995747 
L 736.373893 42.937368 
L 738.515326 42.441152 
L 740.578872 42.14926 
L 742.569998 41.857368 
L 744.493614 41.682233 
L 746.35415 41.594666 
L 748.155611 41.06926 
L 749.901633 40.689801 
L 751.595528 40.135206 
L 753.240317 39.901693 
L 754.838768 39.843314 
L 756.39342 39.843314 
L 757.90661 39.63899 
L 759.380492 39.317909 
L 760.817056 39.171963 
L 762.218146 39.142774 
L 763.585471 39.142774 
L 764.920621 39.142774 
L 766.225075 38.792503 
L 767.500213 38.763314 
L 768.747324 38.704936 
L 769.967613 38.675747 
L 771.16221 38.500611 
" clip-path="url(#p2e3ba2f6b7)" style="fill: none; stroke: #c7c7c7; stroke-width: 1.5; stroke-linecap: square"/>
    <defs>
     <path id="m453be51dbd" d="M -3 -0 
L 3 3 
L 3 -3 
z
" style="stroke: #ffffff; stroke-width: 0.75; stroke-linejoin: miter"/>
    </defs>
    <g clip-path="url(#p2e3ba2f6b7)">
     <use xlink:href="#m453be51dbd" x="59.690625" y="276.334125" style="fill: #c7c7c7; stroke: #ffffff; stroke-width: 0.75; stroke-linejoin: miter"/>
     <use xlink:href="#m453be51dbd" x="551.505407" y="87.626017" style="fill: #c7c7c7; stroke: #ffffff; stroke-width: 0.75; stroke-linejoin: miter"/>
     <use xlink:href="#m453be51dbd" x="590.835448" y="76.037909" style="fill: #c7c7c7; stroke: #ffffff; stroke-width: 0.75; stroke-linejoin: miter"/>
     <use xlink:href="#m453be51dbd" x="613.842047" y="72.214125" style="fill: #c7c7c7; stroke: #ffffff; stroke-width: 0.75; stroke-linejoin: miter"/>
     <use xlink:href="#m453be51dbd" x="630.165489" y="68.44872" style="fill: #c7c7c7; stroke: #ffffff; stroke-width: 0.75; stroke-linejoin: miter"/>
     <use xlink:href="#m453be51dbd" x="642.826934" y="65.004395" style="fill: #c7c7c7; stroke: #ffffff; stroke-width: 0.75; stroke-linejoin: miter"/>
     <use xlink:href="#m453be51dbd" x="653.172088" y="61.822774" style="fill: #c7c7c7; stroke: #ffffff; stroke-width: 0.75; stroke-linejoin: miter"/>
     <use xlink:href="#m453be51dbd" x="661.918791" y="57.152503" style="fill: #c7c7c7; stroke: #ffffff; stroke-width: 0.75; stroke-linejoin: miter"/>
     <use xlink:href="#m453be51dbd" x="669.495529" y="55.897368" style="fill: #c7c7c7; stroke: #ffffff; stroke-width: 0.75; stroke-linejoin: miter"/>
     <use xlink:href="#m453be51dbd" x="676.178687" y="55.196828" style="fill: #c7c7c7; stroke: #ffffff; stroke-width: 0.75; stroke-linejoin: miter"/>
     <use xlink:href="#m453be51dbd" x="682.156974" y="52.890882" style="fill: #c7c7c7; stroke: #ffffff; stroke-width: 0.75; stroke-linejoin: miter"/>
     <use xlink:href="#m453be51dbd" x="687.564994" y="51.956828" style="fill: #c7c7c7; stroke: #ffffff; stroke-width: 0.75; stroke-linejoin: miter"/>
     <use xlink:href="#m453be51dbd" x="692.502128" y="50.030341" style="fill: #c7c7c7; stroke: #ffffff; stroke-width: 0.75; stroke-linejoin: miter"/>
     <use xlink:href="#m453be51dbd" x="697.043852" y="49.621693" style="fill: #c7c7c7; stroke: #ffffff; stroke-width: 0.75; stroke-linejoin: miter"/>
     <use xlink:href="#m453be51dbd" x="701.248831" y="49.067098" style="fill: #c7c7c7; stroke: #ffffff; stroke-width: 0.75; stroke-linejoin: miter"/>
     <use xlink:href="#m453be51dbd" x="705.163573" y="47.607639" style="fill: #c7c7c7; stroke: #ffffff; stroke-width: 0.75; stroke-linejoin: miter"/>
     <use xlink:href="#m453be51dbd" x="708.82557" y="47.344936" style="fill: #c7c7c7; stroke: #ffffff; stroke-width: 0.75; stroke-linejoin: miter"/>
     <use xlink:href="#m453be51dbd" x="712.265487" y="47.228179" style="fill: #c7c7c7; stroke: #ffffff; stroke-width: 0.75; stroke-linejoin: miter"/>
     <use xlink:href="#m453be51dbd" x="715.508727" y="45.535206" style="fill: #c7c7c7; stroke: #ffffff; stroke-width: 0.75; stroke-linejoin: miter"/>
     <use xlink:href="#m453be51dbd" x="718.576569" y="45.243314" style="fill: #c7c7c7; stroke: #ffffff; stroke-width: 0.75; stroke-linejoin: miter"/>
     <use xlink:href="#m453be51dbd" x="721.487015" y="44.630341" style="fill: #c7c7c7; stroke: #ffffff; stroke-width: 0.75; stroke-linejoin: miter"/>
     <use xlink:href="#m453be51dbd" x="724.25543" y="44.134125" style="fill: #c7c7c7; stroke: #ffffff; stroke-width: 0.75; stroke-linejoin: miter"/>
     <use xlink:href="#m453be51dbd" x="726.895034" y="44.017368" style="fill: #c7c7c7; stroke: #ffffff; stroke-width: 0.75; stroke-linejoin: miter"/>
     <use xlink:href="#m453be51dbd" x="729.417283" y="43.550341" style="fill: #c7c7c7; stroke: #ffffff; stroke-width: 0.75; stroke-linejoin: miter"/>
     <use xlink:href="#m453be51dbd" x="731.832169" y="43.112503" style="fill: #c7c7c7; stroke: #ffffff; stroke-width: 0.75; stroke-linejoin: miter"/>
     <use xlink:href="#m453be51dbd" x="734.14846" y="42.995747" style="fill: #c7c7c7; stroke: #ffffff; stroke-width: 0.75; stroke-linejoin: miter"/>
     <use xlink:href="#m453be51dbd" x="736.373893" y="42.937368" style="fill: #c7c7c7; stroke: #ffffff; stroke-width: 0.75; stroke-linejoin: miter"/>
     <use xlink:href="#m453be51dbd" x="738.515326" y="42.441152" style="fill: #c7c7c7; stroke: #ffffff; stroke-width: 0.75; stroke-linejoin: miter"/>
     <use xlink:href="#m453be51dbd" x="740.578872" y="42.14926" style="fill: #c7c7c7; stroke: #ffffff; stroke-width: 0.75; stroke-linejoin: miter"/>
     <use xlink:href="#m453be51dbd" x="742.569998" y="41.857368" style="fill: #c7c7c7; stroke: #ffffff; stroke-width: 0.75; stroke-linejoin: miter"/>
     <use xlink:href="#m453be51dbd" x="744.493614" y="41.682233" style="fill: #c7c7c7; stroke: #ffffff; stroke-width: 0.75; stroke-linejoin: miter"/>
     <use xlink:href="#m453be51dbd" x="746.35415" y="41.594666" style="fill: #c7c7c7; stroke: #ffffff; stroke-width: 0.75; stroke-linejoin: miter"/>
     <use xlink:href="#m453be51dbd" x="748.155611" y="41.06926" style="fill: #c7c7c7; stroke: #ffffff; stroke-width: 0.75; stroke-linejoin: miter"/>
     <use xlink:href="#m453be51dbd" x="749.901633" y="40.689801" style="fill: #c7c7c7; stroke: #ffffff; stroke-width: 0.75; stroke-linejoin: miter"/>
     <use xlink:href="#m453be51dbd" x="751.595528" y="40.135206" style="fill: #c7c7c7; stroke: #ffffff; stroke-width: 0.75; stroke-linejoin: miter"/>
     <use xlink:href="#m453be51dbd" x="753.240317" y="39.901693" style="fill: #c7c7c7; stroke: #ffffff; stroke-width: 0.75; stroke-linejoin: miter"/>
     <use xlink:href="#m453be51dbd" x="754.838768" y="39.843314" style="fill: #c7c7c7; stroke: #ffffff; stroke-width: 0.75; stroke-linejoin: miter"/>
     <use xlink:href="#m453be51dbd" x="756.39342" y="39.843314" style="fill: #c7c7c7; stroke: #ffffff; stroke-width: 0.75; stroke-linejoin: miter"/>
     <use xlink:href="#m453be51dbd" x="757.90661" y="39.63899" style="fill: #c7c7c7; stroke: #ffffff; stroke-width: 0.75; stroke-linejoin: miter"/>
     <use xlink:href="#m453be51dbd" x="759.380492" y="39.317909" style="fill: #c7c7c7; stroke: #ffffff; stroke-width: 0.75; stroke-linejoin: miter"/>
     <use xlink:href="#m453be51dbd" x="760.817056" y="39.171963" style="fill: #c7c7c7; stroke: #ffffff; stroke-width: 0.75; stroke-linejoin: miter"/>
     <use xlink:href="#m453be51dbd" x="762.218146" y="39.142774" style="fill: #c7c7c7; stroke: #ffffff; stroke-width: 0.75; stroke-linejoin: miter"/>
     <use xlink:href="#m453be51dbd" x="763.585471" y="39.142774" style="fill: #c7c7c7; stroke: #ffffff; stroke-width: 0.75; stroke-linejoin: miter"/>
     <use xlink:href="#m453be51dbd" x="764.920621" y="39.142774" style="fill: #c7c7c7; stroke: #ffffff; stroke-width: 0.75; stroke-linejoin: miter"/>
     <use xlink:href="#m453be51dbd" x="766.225075" y="38.792503" style="fill: #c7c7c7; stroke: #ffffff; stroke-width: 0.75; stroke-linejoin: miter"/>
     <use xlink:href="#m453be51dbd" x="767.500213" y="38.763314" style="fill: #c7c7c7; stroke: #ffffff; stroke-width: 0.75; stroke-linejoin: miter"/>
     <use xlink:href="#m453be51dbd" x="768.747324" y="38.704936" style="fill: #c7c7c7; stroke: #ffffff; stroke-width: 0.75; stroke-linejoin: miter"/>
     <use xlink:href="#m453be51dbd" x="769.967613" y="38.675747" style="fill: #c7c7c7; stroke: #ffffff; stroke-width: 0.75; stroke-linejoin: miter"/>
     <use xlink:href="#m453be51dbd" x="771.16221" y="38.500611" style="fill: #c7c7c7; stroke: #ffffff; stroke-width: 0.75; stroke-linejoin: miter"/>
    </g>
   </g>
   <g id="line2d_19">
    <path d="M 59.690625 276.334125 
L 551.505407 94.543855 
L 590.835448 82.809801 
L 613.842047 76.329801 
L 630.165489 72.76872 
L 642.826934 69.557909 
L 653.172088 67.281152 
L 661.918791 65.821693 
L 669.495529 64.537368 
L 676.178687 59.867098 
L 682.156974 58.69953 
L 687.564994 57.940611 
L 692.502128 57.181693 
L 697.043852 56.014125 
L 701.248831 55.430341 
L 705.163573 54.963314 
L 708.82557 54.02926 
L 712.265487 53.854125 
L 715.508727 53.737368 
L 718.576569 53.737368 
L 721.487015 53.67899 
L 724.25543 53.67899 
L 726.895034 53.67899 
L 729.417283 53.67899 
L 731.832169 53.32872 
L 734.14846 53.153584 
L 736.373893 53.095206 
L 738.515326 53.036828 
L 740.578872 52.744936 
L 742.569998 52.744936 
L 744.493614 52.628179 
L 746.35415 52.628179 
L 748.155611 52.511422 
L 749.901633 52.511422 
L 751.595528 52.044395 
L 753.240317 52.044395 
L 754.838768 51.986017 
L 756.39342 51.986017 
L 757.90661 51.285476 
L 759.380492 51.110341 
L 760.817056 51.051963 
L 762.218146 48.775206 
L 763.585471 48.716828 
L 764.920621 48.658449 
L 766.225075 48.424936 
L 767.500213 48.308179 
L 768.747324 48.249801 
L 769.967613 47.666017 
L 771.16221 47.54926 
" clip-path="url(#p2e3ba2f6b7)" style="fill: none; stroke: #d62728; stroke-width: 1.5; stroke-linecap: square"/>
    <defs>
     <path id="m7ec5470429" d="M 0 -3 
L -3 3 
L 3 3 
z
" style="stroke: #ffffff; stroke-width: 0.75; stroke-linejoin: miter"/>
    </defs>
    <g clip-path="url(#p2e3ba2f6b7)">
     <use xlink:href="#m7ec5470429" x="59.690625" y="276.334125" style="fill: #d62728; stroke: #ffffff; stroke-width: 0.75; stroke-linejoin: miter"/>
     <use xlink:href="#m7ec5470429" x="551.505407" y="94.543855" style="fill: #d62728; stroke: #ffffff; stroke-width: 0.75; stroke-linejoin: miter"/>
     <use xlink:href="#m7ec5470429" x="590.835448" y="82.809801" style="fill: #d62728; stroke: #ffffff; stroke-width: 0.75; stroke-linejoin: miter"/>
     <use xlink:href="#m7ec5470429" x="613.842047" y="76.329801" style="fill: #d62728; stroke: #ffffff; stroke-width: 0.75; stroke-linejoin: miter"/>
     <use xlink:href="#m7ec5470429" x="630.165489" y="72.76872" style="fill: #d62728; stroke: #ffffff; stroke-width: 0.75; stroke-linejoin: miter"/>
     <use xlink:href="#m7ec5470429" x="642.826934" y="69.557909" style="fill: #d62728; stroke: #ffffff; stroke-width: 0.75; stroke-linejoin: miter"/>
     <use xlink:href="#m7ec5470429" x="653.172088" y="67.281152" style="fill: #d62728; stroke: #ffffff; stroke-width: 0.75; stroke-linejoin: miter"/>
     <use xlink:href="#m7ec5470429" x="661.918791" y="65.821693" style="fill: #d62728; stroke: #ffffff; stroke-width: 0.75; stroke-linejoin: miter"/>
     <use xlink:href="#m7ec5470429" x="669.495529" y="64.537368" style="fill: #d62728; stroke: #ffffff; stroke-width: 0.75; stroke-linejoin: miter"/>
     <use xlink:href="#m7ec5470429" x="676.178687" y="59.867098" style="fill: #d62728; stroke: #ffffff; stroke-width: 0.75; stroke-linejoin: miter"/>
     <use xlink:href="#m7ec5470429" x="682.156974" y="58.69953" style="fill: #d62728; stroke: #ffffff; stroke-width: 0.75; stroke-linejoin: miter"/>
     <use xlink:href="#m7ec5470429" x="687.564994" y="57.940611" style="fill: #d62728; stroke: #ffffff; stroke-width: 0.75; stroke-linejoin: miter"/>
     <use xlink:href="#m7ec5470429" x="692.502128" y="57.181693" style="fill: #d62728; stroke: #ffffff; stroke-width: 0.75; stroke-linejoin: miter"/>
     <use xlink:href="#m7ec5470429" x="697.043852" y="56.014125" style="fill: #d62728; stroke: #ffffff; stroke-width: 0.75; stroke-linejoin: miter"/>
     <use xlink:href="#m7ec5470429" x="701.248831" y="55.430341" style="fill: #d62728; stroke: #ffffff; stroke-width: 0.75; stroke-linejoin: miter"/>
     <use xlink:href="#m7ec5470429" x="705.163573" y="54.963314" style="fill: #d62728; stroke: #ffffff; stroke-width: 0.75; stroke-linejoin: miter"/>
     <use xlink:href="#m7ec5470429" x="708.82557" y="54.02926" style="fill: #d62728; stroke: #ffffff; stroke-width: 0.75; stroke-linejoin: miter"/>
     <use xlink:href="#m7ec5470429" x="712.265487" y="53.854125" style="fill: #d62728; stroke: #ffffff; stroke-width: 0.75; stroke-linejoin: miter"/>
     <use xlink:href="#m7ec5470429" x="715.508727" y="53.737368" style="fill: #d62728; stroke: #ffffff; stroke-width: 0.75; stroke-linejoin: miter"/>
     <use xlink:href="#m7ec5470429" x="718.576569" y="53.737368" style="fill: #d62728; stroke: #ffffff; stroke-width: 0.75; stroke-linejoin: miter"/>
     <use xlink:href="#m7ec5470429" x="721.487015" y="53.67899" style="fill: #d62728; stroke: #ffffff; stroke-width: 0.75; stroke-linejoin: miter"/>
     <use xlink:href="#m7ec5470429" x="724.25543" y="53.67899" style="fill: #d62728; stroke: #ffffff; stroke-width: 0.75; stroke-linejoin: miter"/>
     <use xlink:href="#m7ec5470429" x="726.895034" y="53.67899" style="fill: #d62728; stroke: #ffffff; stroke-width: 0.75; stroke-linejoin: miter"/>
     <use xlink:href="#m7ec5470429" x="729.417283" y="53.67899" style="fill: #d62728; stroke: #ffffff; stroke-width: 0.75; stroke-linejoin: miter"/>
     <use xlink:href="#m7ec5470429" x="731.832169" y="53.32872" style="fill: #d62728; stroke: #ffffff; stroke-width: 0.75; stroke-linejoin: miter"/>
     <use xlink:href="#m7ec5470429" x="734.14846" y="53.153584" style="fill: #d62728; stroke: #ffffff; stroke-width: 0.75; stroke-linejoin: miter"/>
     <use xlink:href="#m7ec5470429" x="736.373893" y="53.095206" style="fill: #d62728; stroke: #ffffff; stroke-width: 0.75; stroke-linejoin: miter"/>
     <use xlink:href="#m7ec5470429" x="738.515326" y="53.036828" style="fill: #d62728; stroke: #ffffff; stroke-width: 0.75; stroke-linejoin: miter"/>
     <use xlink:href="#m7ec5470429" x="740.578872" y="52.744936" style="fill: #d62728; stroke: #ffffff; stroke-width: 0.75; stroke-linejoin: miter"/>
     <use xlink:href="#m7ec5470429" x="742.569998" y="52.744936" style="fill: #d62728; stroke: #ffffff; stroke-width: 0.75; stroke-linejoin: miter"/>
     <use xlink:href="#m7ec5470429" x="744.493614" y="52.628179" style="fill: #d62728; stroke: #ffffff; stroke-width: 0.75; stroke-linejoin: miter"/>
     <use xlink:href="#m7ec5470429" x="746.35415" y="52.628179" style="fill: #d62728; stroke: #ffffff; stroke-width: 0.75; stroke-linejoin: miter"/>
     <use xlink:href="#m7ec5470429" x="748.155611" y="52.511422" style="fill: #d62728; stroke: #ffffff; stroke-width: 0.75; stroke-linejoin: miter"/>
     <use xlink:href="#m7ec5470429" x="749.901633" y="52.511422" style="fill: #d62728; stroke: #ffffff; stroke-width: 0.75; stroke-linejoin: miter"/>
     <use xlink:href="#m7ec5470429" x="751.595528" y="52.044395" style="fill: #d62728; stroke: #ffffff; stroke-width: 0.75; stroke-linejoin: miter"/>
     <use xlink:href="#m7ec5470429" x="753.240317" y="52.044395" style="fill: #d62728; stroke: #ffffff; stroke-width: 0.75; stroke-linejoin: miter"/>
     <use xlink:href="#m7ec5470429" x="754.838768" y="51.986017" style="fill: #d62728; stroke: #ffffff; stroke-width: 0.75; stroke-linejoin: miter"/>
     <use xlink:href="#m7ec5470429" x="756.39342" y="51.986017" style="fill: #d62728; stroke: #ffffff; stroke-width: 0.75; stroke-linejoin: miter"/>
     <use xlink:href="#m7ec5470429" x="757.90661" y="51.285476" style="fill: #d62728; stroke: #ffffff; stroke-width: 0.75; stroke-linejoin: miter"/>
     <use xlink:href="#m7ec5470429" x="759.380492" y="51.110341" style="fill: #d62728; stroke: #ffffff; stroke-width: 0.75; stroke-linejoin: miter"/>
     <use xlink:href="#m7ec5470429" x="760.817056" y="51.051963" style="fill: #d62728; stroke: #ffffff; stroke-width: 0.75; stroke-linejoin: miter"/>
     <use xlink:href="#m7ec5470429" x="762.218146" y="48.775206" style="fill: #d62728; stroke: #ffffff; stroke-width: 0.75; stroke-linejoin: miter"/>
     <use xlink:href="#m7ec5470429" x="763.585471" y="48.716828" style="fill: #d62728; stroke: #ffffff; stroke-width: 0.75; stroke-linejoin: miter"/>
     <use xlink:href="#m7ec5470429" x="764.920621" y="48.658449" style="fill: #d62728; stroke: #ffffff; stroke-width: 0.75; stroke-linejoin: miter"/>
     <use xlink:href="#m7ec5470429" x="766.225075" y="48.424936" style="fill: #d62728; stroke: #ffffff; stroke-width: 0.75; stroke-linejoin: miter"/>
     <use xlink:href="#m7ec5470429" x="767.500213" y="48.308179" style="fill: #d62728; stroke: #ffffff; stroke-width: 0.75; stroke-linejoin: miter"/>
     <use xlink:href="#m7ec5470429" x="768.747324" y="48.249801" style="fill: #d62728; stroke: #ffffff; stroke-width: 0.75; stroke-linejoin: miter"/>
     <use xlink:href="#m7ec5470429" x="769.967613" y="47.666017" style="fill: #d62728; stroke: #ffffff; stroke-width: 0.75; stroke-linejoin: miter"/>
     <use xlink:href="#m7ec5470429" x="771.16221" y="47.54926" style="fill: #d62728; stroke: #ffffff; stroke-width: 0.75; stroke-linejoin: miter"/>
    </g>
   </g>
   <g id="line2d_20">
    <path d="M 59.690625 276.334125 
L 551.505407 95.302774 
L 590.835448 78.898449 
L 613.842047 74.461693 
L 630.165489 69.441152 
L 642.826934 65.529801 
L 653.172088 63.194666 
L 661.918791 59.750341 
L 669.495529 58.69953 
L 676.178687 58.174125 
L 682.156974 56.364395 
L 687.564994 55.83899 
L 692.502128 55.547098 
L 697.043852 53.970882 
L 701.248831 53.737368 
L 705.163573 52.161152 
L 708.82557 52.044395 
L 712.265487 51.986017 
L 715.508727 51.227098 
L 718.576569 50.701693 
L 721.487015 49.592503 
L 724.25543 49.35899 
L 726.895034 49.242233 
L 729.417283 46.615206 
L 731.832169 46.381693 
L 734.14846 46.148179 
L 736.373893 45.973044 
L 738.515326 45.914666 
L 740.578872 45.914666 
L 742.569998 45.856287 
L 744.493614 45.272503 
L 746.35415 45.214125 
L 748.155611 45.097368 
L 749.901633 45.097368 
L 751.595528 44.747098 
L 753.240317 44.455206 
L 754.838768 44.338449 
L 756.39342 44.280071 
L 757.90661 44.221693 
L 759.380492 44.163314 
L 760.817056 44.163314 
L 762.218146 44.104936 
L 763.585471 44.104936 
L 764.920621 43.112503 
L 766.225075 43.054125 
L 767.500213 42.995747 
L 768.747324 42.995747 
L 769.967613 42.995747 
L 771.16221 42.995747 
" clip-path="url(#p2e3ba2f6b7)" style="fill: none; stroke: #1f77b4; stroke-width: 1.5; stroke-linecap: square"/>
    <defs>
     <path id="mfd889d887d" d="M 0 3 
C 0.795609 3 1.55874 2.683901 2.12132 2.12132 
C 2.683901 1.55874 3 0.795609 3 0 
C 3 -0.795609 2.683901 -1.55874 2.12132 -2.12132 
C 1.55874 -2.683901 0.795609 -3 0 -3 
C -0.795609 -3 -1.55874 -2.683901 -2.12132 -2.12132 
C -2.683901 -1.55874 -3 -0.795609 -3 0 
C -3 0.795609 -2.683901 1.55874 -2.12132 2.12132 
C -1.55874 2.683901 -0.795609 3 0 3 
z
" style="stroke: #ffffff; stroke-width: 0.75"/>
    </defs>
    <g clip-path="url(#p2e3ba2f6b7)">
     <use xlink:href="#mfd889d887d" x="59.690625" y="276.334125" style="fill: #1f77b4; stroke: #ffffff; stroke-width: 0.75"/>
     <use xlink:href="#mfd889d887d" x="551.505407" y="95.302774" style="fill: #1f77b4; stroke: #ffffff; stroke-width: 0.75"/>
     <use xlink:href="#mfd889d887d" x="590.835448" y="78.898449" style="fill: #1f77b4; stroke: #ffffff; stroke-width: 0.75"/>
     <use xlink:href="#mfd889d887d" x="613.842047" y="74.461693" style="fill: #1f77b4; stroke: #ffffff; stroke-width: 0.75"/>
     <use xlink:href="#mfd889d887d" x="630.165489" y="69.441152" style="fill: #1f77b4; stroke: #ffffff; stroke-width: 0.75"/>
     <use xlink:href="#mfd889d887d" x="642.826934" y="65.529801" style="fill: #1f77b4; stroke: #ffffff; stroke-width: 0.75"/>
     <use xlink:href="#mfd889d887d" x="653.172088" y="63.194666" style="fill: #1f77b4; stroke: #ffffff; stroke-width: 0.75"/>
     <use xlink:href="#mfd889d887d" x="661.918791" y="59.750341" style="fill: #1f77b4; stroke: #ffffff; stroke-width: 0.75"/>
     <use xlink:href="#mfd889d887d" x="669.495529" y="58.69953" style="fill: #1f77b4; stroke: #ffffff; stroke-width: 0.75"/>
     <use xlink:href="#mfd889d887d" x="676.178687" y="58.174125" style="fill: #1f77b4; stroke: #ffffff; stroke-width: 0.75"/>
     <use xlink:href="#mfd889d887d" x="682.156974" y="56.364395" style="fill: #1f77b4; stroke: #ffffff; stroke-width: 0.75"/>
     <use xlink:href="#mfd889d887d" x="687.564994" y="55.83899" style="fill: #1f77b4; stroke: #ffffff; stroke-width: 0.75"/>
     <use xlink:href="#mfd889d887d" x="692.502128" y="55.547098" style="fill: #1f77b4; stroke: #ffffff; stroke-width: 0.75"/>
     <use xlink:href="#mfd889d887d" x="697.043852" y="53.970882" style="fill: #1f77b4; stroke: #ffffff; stroke-width: 0.75"/>
     <use xlink:href="#mfd889d887d" x="701.248831" y="53.737368" style="fill: #1f77b4; stroke: #ffffff; stroke-width: 0.75"/>
     <use xlink:href="#mfd889d887d" x="705.163573" y="52.161152" style="fill: #1f77b4; stroke: #ffffff; stroke-width: 0.75"/>
     <use xlink:href="#mfd889d887d" x="708.82557" y="52.044395" style="fill: #1f77b4; stroke: #ffffff; stroke-width: 0.75"/>
     <use xlink:href="#mfd889d887d" x="712.265487" y="51.986017" style="fill: #1f77b4; stroke: #ffffff; stroke-width: 0.75"/>
     <use xlink:href="#mfd889d887d" x="715.508727" y="51.227098" style="fill: #1f77b4; stroke: #ffffff; stroke-width: 0.75"/>
     <use xlink:href="#mfd889d887d" x="718.576569" y="50.701693" style="fill: #1f77b4; stroke: #ffffff; stroke-width: 0.75"/>
     <use xlink:href="#mfd889d887d" x="721.487015" y="49.592503" style="fill: #1f77b4; stroke: #ffffff; stroke-width: 0.75"/>
     <use xlink:href="#mfd889d887d" x="724.25543" y="49.35899" style="fill: #1f77b4; stroke: #ffffff; stroke-width: 0.75"/>
     <use xlink:href="#mfd889d887d" x="726.895034" y="49.242233" style="fill: #1f77b4; stroke: #ffffff; stroke-width: 0.75"/>
     <use xlink:href="#mfd889d887d" x="729.417283" y="46.615206" style="fill: #1f77b4; stroke: #ffffff; stroke-width: 0.75"/>
     <use xlink:href="#mfd889d887d" x="731.832169" y="46.381693" style="fill: #1f77b4; stroke: #ffffff; stroke-width: 0.75"/>
     <use xlink:href="#mfd889d887d" x="734.14846" y="46.148179" style="fill: #1f77b4; stroke: #ffffff; stroke-width: 0.75"/>
     <use xlink:href="#mfd889d887d" x="736.373893" y="45.973044" style="fill: #1f77b4; stroke: #ffffff; stroke-width: 0.75"/>
     <use xlink:href="#mfd889d887d" x="738.515326" y="45.914666" style="fill: #1f77b4; stroke: #ffffff; stroke-width: 0.75"/>
     <use xlink:href="#mfd889d887d" x="740.578872" y="45.914666" style="fill: #1f77b4; stroke: #ffffff; stroke-width: 0.75"/>
     <use xlink:href="#mfd889d887d" x="742.569998" y="45.856287" style="fill: #1f77b4; stroke: #ffffff; stroke-width: 0.75"/>
     <use xlink:href="#mfd889d887d" x="744.493614" y="45.272503" style="fill: #1f77b4; stroke: #ffffff; stroke-width: 0.75"/>
     <use xlink:href="#mfd889d887d" x="746.35415" y="45.214125" style="fill: #1f77b4; stroke: #ffffff; stroke-width: 0.75"/>
     <use xlink:href="#mfd889d887d" x="748.155611" y="45.097368" style="fill: #1f77b4; stroke: #ffffff; stroke-width: 0.75"/>
     <use xlink:href="#mfd889d887d" x="749.901633" y="45.097368" style="fill: #1f77b4; stroke: #ffffff; stroke-width: 0.75"/>
     <use xlink:href="#mfd889d887d" x="751.595528" y="44.747098" style="fill: #1f77b4; stroke: #ffffff; stroke-width: 0.75"/>
     <use xlink:href="#mfd889d887d" x="753.240317" y="44.455206" style="fill: #1f77b4; stroke: #ffffff; stroke-width: 0.75"/>
     <use xlink:href="#mfd889d887d" x="754.838768" y="44.338449" style="fill: #1f77b4; stroke: #ffffff; stroke-width: 0.75"/>
     <use xlink:href="#mfd889d887d" x="756.39342" y="44.280071" style="fill: #1f77b4; stroke: #ffffff; stroke-width: 0.75"/>
     <use xlink:href="#mfd889d887d" x="757.90661" y="44.221693" style="fill: #1f77b4; stroke: #ffffff; stroke-width: 0.75"/>
     <use xlink:href="#mfd889d887d" x="759.380492" y="44.163314" style="fill: #1f77b4; stroke: #ffffff; stroke-width: 0.75"/>
     <use xlink:href="#mfd889d887d" x="760.817056" y="44.163314" style="fill: #1f77b4; stroke: #ffffff; stroke-width: 0.75"/>
     <use xlink:href="#mfd889d887d" x="762.218146" y="44.104936" style="fill: #1f77b4; stroke: #ffffff; stroke-width: 0.75"/>
     <use xlink:href="#mfd889d887d" x="763.585471" y="44.104936" style="fill: #1f77b4; stroke: #ffffff; stroke-width: 0.75"/>
     <use xlink:href="#mfd889d887d" x="764.920621" y="43.112503" style="fill: #1f77b4; stroke: #ffffff; stroke-width: 0.75"/>
     <use xlink:href="#mfd889d887d" x="766.225075" y="43.054125" style="fill: #1f77b4; stroke: #ffffff; stroke-width: 0.75"/>
     <use xlink:href="#mfd889d887d" x="767.500213" y="42.995747" style="fill: #1f77b4; stroke: #ffffff; stroke-width: 0.75"/>
     <use xlink:href="#mfd889d887d" x="768.747324" y="42.995747" style="fill: #1f77b4; stroke: #ffffff; stroke-width: 0.75"/>
     <use xlink:href="#mfd889d887d" x="769.967613" y="42.995747" style="fill: #1f77b4; stroke: #ffffff; stroke-width: 0.75"/>
     <use xlink:href="#mfd889d887d" x="771.16221" y="42.995747" style="fill: #1f77b4; stroke: #ffffff; stroke-width: 0.75"/>
    </g>
   </g>
   <g id="line2d_21">
    <path d="M 59.690625 276.334125 
L 551.505407 90.74926 
L 590.835448 77.147098 
L 613.842047 69.382774 
L 630.165489 67.281152 
L 642.826934 63.194666 
L 653.172088 61.034666 
L 661.918791 57.940611 
L 669.495529 56.014125 
L 676.178687 54.729801 
L 682.156974 54.437909 
L 687.564994 54.262774 
L 692.502128 52.978449 
L 697.043852 52.920071 
L 701.248831 52.861693 
L 705.163573 52.861693 
L 708.82557 52.686557 
L 712.265487 52.453044 
L 715.508727 52.336287 
L 718.576569 52.21953 
L 721.487015 51.752503 
L 724.25543 50.993584 
L 726.895034 50.760071 
L 729.417283 50.760071 
L 731.832169 50.701693 
L 734.14846 50.409801 
L 736.373893 50.409801 
L 738.515326 50.409801 
L 740.578872 50.351422 
L 742.569998 50.293044 
L 744.493614 49.183855 
L 746.35415 49.067098 
L 748.155611 48.658449 
L 749.901633 48.541693 
L 751.595528 47.89953 
L 753.240317 47.89953 
L 754.838768 47.782774 
L 756.39342 46.089801 
L 757.90661 43.696287 
L 759.380492 43.22926 
L 760.817056 43.054125 
L 762.218146 43.054125 
L 763.585471 42.937368 
L 764.920621 42.937368 
L 766.225075 42.87899 
L 767.500213 42.87899 
L 768.747324 42.762233 
L 769.967613 42.762233 
L 771.16221 42.762233 
" clip-path="url(#p2e3ba2f6b7)" style="fill: none; stroke: #98df8a; stroke-width: 1.5; stroke-linecap: square"/>
    <defs>
     <path id="m1c2cc74fdc" d="M -0 3 
L 3 -3 
L -3 -3 
z
" style="stroke: #ffffff; stroke-width: 0.75; stroke-linejoin: miter"/>
    </defs>
    <g clip-path="url(#p2e3ba2f6b7)">
     <use xlink:href="#m1c2cc74fdc" x="59.690625" y="276.334125" style="fill: #98df8a; stroke: #ffffff; stroke-width: 0.75; stroke-linejoin: miter"/>
     <use xlink:href="#m1c2cc74fdc" x="551.505407" y="90.74926" style="fill: #98df8a; stroke: #ffffff; stroke-width: 0.75; stroke-linejoin: miter"/>
     <use xlink:href="#m1c2cc74fdc" x="590.835448" y="77.147098" style="fill: #98df8a; stroke: #ffffff; stroke-width: 0.75; stroke-linejoin: miter"/>
     <use xlink:href="#m1c2cc74fdc" x="613.842047" y="69.382774" style="fill: #98df8a; stroke: #ffffff; stroke-width: 0.75; stroke-linejoin: miter"/>
     <use xlink:href="#m1c2cc74fdc" x="630.165489" y="67.281152" style="fill: #98df8a; stroke: #ffffff; stroke-width: 0.75; stroke-linejoin: miter"/>
     <use xlink:href="#m1c2cc74fdc" x="642.826934" y="63.194666" style="fill: #98df8a; stroke: #ffffff; stroke-width: 0.75; stroke-linejoin: miter"/>
     <use xlink:href="#m1c2cc74fdc" x="653.172088" y="61.034666" style="fill: #98df8a; stroke: #ffffff; stroke-width: 0.75; stroke-linejoin: miter"/>
     <use xlink:href="#m1c2cc74fdc" x="661.918791" y="57.940611" style="fill: #98df8a; stroke: #ffffff; stroke-width: 0.75; stroke-linejoin: miter"/>
     <use xlink:href="#m1c2cc74fdc" x="669.495529" y="56.014125" style="fill: #98df8a; stroke: #ffffff; stroke-width: 0.75; stroke-linejoin: miter"/>
     <use xlink:href="#m1c2cc74fdc" x="676.178687" y="54.729801" style="fill: #98df8a; stroke: #ffffff; stroke-width: 0.75; stroke-linejoin: miter"/>
     <use xlink:href="#m1c2cc74fdc" x="682.156974" y="54.437909" style="fill: #98df8a; stroke: #ffffff; stroke-width: 0.75; stroke-linejoin: miter"/>
     <use xlink:href="#m1c2cc74fdc" x="687.564994" y="54.262774" style="fill: #98df8a; stroke: #ffffff; stroke-width: 0.75; stroke-linejoin: miter"/>
     <use xlink:href="#m1c2cc74fdc" x="692.502128" y="52.978449" style="fill: #98df8a; stroke: #ffffff; stroke-width: 0.75; stroke-linejoin: miter"/>
     <use xlink:href="#m1c2cc74fdc" x="697.043852" y="52.920071" style="fill: #98df8a; stroke: #ffffff; stroke-width: 0.75; stroke-linejoin: miter"/>
     <use xlink:href="#m1c2cc74fdc" x="701.248831" y="52.861693" style="fill: #98df8a; stroke: #ffffff; stroke-width: 0.75; stroke-linejoin: miter"/>
     <use xlink:href="#m1c2cc74fdc" x="705.163573" y="52.861693" style="fill: #98df8a; stroke: #ffffff; stroke-width: 0.75; stroke-linejoin: miter"/>
     <use xlink:href="#m1c2cc74fdc" x="708.82557" y="52.686557" style="fill: #98df8a; stroke: #ffffff; stroke-width: 0.75; stroke-linejoin: miter"/>
     <use xlink:href="#m1c2cc74fdc" x="712.265487" y="52.453044" style="fill: #98df8a; stroke: #ffffff; stroke-width: 0.75; stroke-linejoin: miter"/>
     <use xlink:href="#m1c2cc74fdc" x="715.508727" y="52.336287" style="fill: #98df8a; stroke: #ffffff; stroke-width: 0.75; stroke-linejoin: miter"/>
     <use xlink:href="#m1c2cc74fdc" x="718.576569" y="52.21953" style="fill: #98df8a; stroke: #ffffff; stroke-width: 0.75; stroke-linejoin: miter"/>
     <use xlink:href="#m1c2cc74fdc" x="721.487015" y="51.752503" style="fill: #98df8a; stroke: #ffffff; stroke-width: 0.75; stroke-linejoin: miter"/>
     <use xlink:href="#m1c2cc74fdc" x="724.25543" y="50.993584" style="fill: #98df8a; stroke: #ffffff; stroke-width: 0.75; stroke-linejoin: miter"/>
     <use xlink:href="#m1c2cc74fdc" x="726.895034" y="50.760071" style="fill: #98df8a; stroke: #ffffff; stroke-width: 0.75; stroke-linejoin: miter"/>
     <use xlink:href="#m1c2cc74fdc" x="729.417283" y="50.760071" style="fill: #98df8a; stroke: #ffffff; stroke-width: 0.75; stroke-linejoin: miter"/>
     <use xlink:href="#m1c2cc74fdc" x="731.832169" y="50.701693" style="fill: #98df8a; stroke: #ffffff; stroke-width: 0.75; stroke-linejoin: miter"/>
     <use xlink:href="#m1c2cc74fdc" x="734.14846" y="50.409801" style="fill: #98df8a; stroke: #ffffff; stroke-width: 0.75; stroke-linejoin: miter"/>
     <use xlink:href="#m1c2cc74fdc" x="736.373893" y="50.409801" style="fill: #98df8a; stroke: #ffffff; stroke-width: 0.75; stroke-linejoin: miter"/>
     <use xlink:href="#m1c2cc74fdc" x="738.515326" y="50.409801" style="fill: #98df8a; stroke: #ffffff; stroke-width: 0.75; stroke-linejoin: miter"/>
     <use xlink:href="#m1c2cc74fdc" x="740.578872" y="50.351422" style="fill: #98df8a; stroke: #ffffff; stroke-width: 0.75; stroke-linejoin: miter"/>
     <use xlink:href="#m1c2cc74fdc" x="742.569998" y="50.293044" style="fill: #98df8a; stroke: #ffffff; stroke-width: 0.75; stroke-linejoin: miter"/>
     <use xlink:href="#m1c2cc74fdc" x="744.493614" y="49.183855" style="fill: #98df8a; stroke: #ffffff; stroke-width: 0.75; stroke-linejoin: miter"/>
     <use xlink:href="#m1c2cc74fdc" x="746.35415" y="49.067098" style="fill: #98df8a; stroke: #ffffff; stroke-width: 0.75; stroke-linejoin: miter"/>
     <use xlink:href="#m1c2cc74fdc" x="748.155611" y="48.658449" style="fill: #98df8a; stroke: #ffffff; stroke-width: 0.75; stroke-linejoin: miter"/>
     <use xlink:href="#m1c2cc74fdc" x="749.901633" y="48.541693" style="fill: #98df8a; stroke: #ffffff; stroke-width: 0.75; stroke-linejoin: miter"/>
     <use xlink:href="#m1c2cc74fdc" x="751.595528" y="47.89953" style="fill: #98df8a; stroke: #ffffff; stroke-width: 0.75; stroke-linejoin: miter"/>
     <use xlink:href="#m1c2cc74fdc" x="753.240317" y="47.89953" style="fill: #98df8a; stroke: #ffffff; stroke-width: 0.75; stroke-linejoin: miter"/>
     <use xlink:href="#m1c2cc74fdc" x="754.838768" y="47.782774" style="fill: #98df8a; stroke: #ffffff; stroke-width: 0.75; stroke-linejoin: miter"/>
     <use xlink:href="#m1c2cc74fdc" x="756.39342" y="46.089801" style="fill: #98df8a; stroke: #ffffff; stroke-width: 0.75; stroke-linejoin: miter"/>
     <use xlink:href="#m1c2cc74fdc" x="757.90661" y="43.696287" style="fill: #98df8a; stroke: #ffffff; stroke-width: 0.75; stroke-linejoin: miter"/>
     <use xlink:href="#m1c2cc74fdc" x="759.380492" y="43.22926" style="fill: #98df8a; stroke: #ffffff; stroke-width: 0.75; stroke-linejoin: miter"/>
     <use xlink:href="#m1c2cc74fdc" x="760.817056" y="43.054125" style="fill: #98df8a; stroke: #ffffff; stroke-width: 0.75; stroke-linejoin: miter"/>
     <use xlink:href="#m1c2cc74fdc" x="762.218146" y="43.054125" style="fill: #98df8a; stroke: #ffffff; stroke-width: 0.75; stroke-linejoin: miter"/>
     <use xlink:href="#m1c2cc74fdc" x="763.585471" y="42.937368" style="fill: #98df8a; stroke: #ffffff; stroke-width: 0.75; stroke-linejoin: miter"/>
     <use xlink:href="#m1c2cc74fdc" x="764.920621" y="42.937368" style="fill: #98df8a; stroke: #ffffff; stroke-width: 0.75; stroke-linejoin: miter"/>
     <use xlink:href="#m1c2cc74fdc" x="766.225075" y="42.87899" style="fill: #98df8a; stroke: #ffffff; stroke-width: 0.75; stroke-linejoin: miter"/>
     <use xlink:href="#m1c2cc74fdc" x="767.500213" y="42.87899" style="fill: #98df8a; stroke: #ffffff; stroke-width: 0.75; stroke-linejoin: miter"/>
     <use xlink:href="#m1c2cc74fdc" x="768.747324" y="42.762233" style="fill: #98df8a; stroke: #ffffff; stroke-width: 0.75; stroke-linejoin: miter"/>
     <use xlink:href="#m1c2cc74fdc" x="769.967613" y="42.762233" style="fill: #98df8a; stroke: #ffffff; stroke-width: 0.75; stroke-linejoin: miter"/>
     <use xlink:href="#m1c2cc74fdc" x="771.16221" y="42.762233" style="fill: #98df8a; stroke: #ffffff; stroke-width: 0.75; stroke-linejoin: miter"/>
    </g>
   </g>
   <g id="line2d_22"/>
   <g id="line2d_23"/>
   <g id="line2d_24"/>
   <g id="line2d_25"/>
   <g id="line2d_26">
    <path d="M 771.16221 288.430125 
L 771.16221 22.318125 
" clip-path="url(#p2e3ba2f6b7)" style="fill: none; stroke: #ff0000; stroke-width: 1.5; stroke-linecap: square"/>
   </g>
   <g id="patch_3">
    <path d="M 59.690625 271.955747 
L 59.690625 38.442233 
" style="fill: none; stroke: #000000; stroke-width: 0.8; stroke-linejoin: miter; stroke-linecap: square"/>
   </g>
   <g id="patch_4">
    <path d="M 59.690625 288.430125 
L 771.163523 288.430125 
" style="fill: none; stroke: #000000; stroke-width: 0.8; stroke-linejoin: miter; stroke-linecap: square"/>
   </g>
   <g id="text_16">
    <!-- curl_curl_fuzzer_http (12h, at least 4 trials/fuzzer) -->
    <g transform="translate(267.385313 16.318125) scale(0.12 -0.12)">
     <defs>
      <path id="DejaVuSans-6c" d="M 603 4863 
L 1178 4863 
L 1178 0 
L 603 0 
L 603 4863 
z
" transform="scale(0.015625)"/>
      <path id="DejaVuSans-5f" d="M 3263 -1063 
L 3263 -1509 
L -63 -1509 
L -63 -1063 
L 3263 -1063 
z
" transform="scale(0.015625)"/>
      <path id="DejaVuSans-66" d="M 2375 4863 
L 2375 4384 
L 1825 4384 
Q 1516 4384 1395 4259 
Q 1275 4134 1275 3809 
L 1275 3500 
L 2222 3500 
L 2222 3053 
L 1275 3053 
L 1275 0 
L 697 0 
L 697 3053 
L 147 3053 
L 147 3500 
L 697 3500 
L 697 3744 
Q 697 4328 969 4595 
Q 1241 4863 1831 4863 
L 2375 4863 
z
" transform="scale(0.015625)"/>
      <path id="DejaVuSans-7a" d="M 353 3500 
L 3084 3500 
L 3084 2975 
L 922 459 
L 3084 459 
L 3084 0 
L 275 0 
L 275 525 
L 2438 3041 
L 353 3041 
L 353 3500 
z
" transform="scale(0.015625)"/>
      <path id="DejaVuSans-70" d="M 1159 525 
L 1159 -1331 
L 581 -1331 
L 581 3500 
L 1159 3500 
L 1159 2969 
Q 1341 3281 1617 3432 
Q 1894 3584 2278 3584 
Q 2916 3584 3314 3078 
Q 3713 2572 3713 1747 
Q 3713 922 3314 415 
Q 2916 -91 2278 -91 
Q 1894 -91 1617 61 
Q 1341 213 1159 525 
z
M 3116 1747 
Q 3116 2381 2855 2742 
Q 2594 3103 2138 3103 
Q 1681 3103 1420 2742 
Q 1159 2381 1159 1747 
Q 1159 1113 1420 752 
Q 1681 391 2138 391 
Q 2594 391 2855 752 
Q 3116 1113 3116 1747 
z
" transform="scale(0.015625)"/>
      <path id="DejaVuSans-2c" d="M 750 794 
L 1409 794 
L 1409 256 
L 897 -744 
L 494 -744 
L 750 256 
L 750 794 
z
" transform="scale(0.015625)"/>
      <path id="DejaVuSans-73" d="M 2834 3397 
L 2834 2853 
Q 2591 2978 2328 3040 
Q 2066 3103 1784 3103 
Q 1356 3103 1142 2972 
Q 928 2841 928 2578 
Q 928 2378 1081 2264 
Q 1234 2150 1697 2047 
L 1894 2003 
Q 2506 1872 2764 1633 
Q 3022 1394 3022 966 
Q 3022 478 2636 193 
Q 2250 -91 1575 -91 
Q 1294 -91 989 -36 
Q 684 19 347 128 
L 347 722 
Q 666 556 975 473 
Q 1284 391 1588 391 
Q 1994 391 2212 530 
Q 2431 669 2431 922 
Q 2431 1156 2273 1281 
Q 2116 1406 1581 1522 
L 1381 1569 
Q 847 1681 609 1914 
Q 372 2147 372 2553 
Q 372 3047 722 3315 
Q 1072 3584 1716 3584 
Q 2034 3584 2315 3537 
Q 2597 3491 2834 3397 
z
" transform="scale(0.015625)"/>
      <path id="DejaVuSans-2f" d="M 1625 4666 
L 2156 4666 
L 531 -594 
L 0 -594 
L 1625 4666 
z
" transform="scale(0.015625)"/>
     </defs>
     <use xlink:href="#DejaVuSans-63"/>
     <use xlink:href="#DejaVuSans-75" transform="translate(54.980469 0)"/>
     <use xlink:href="#DejaVuSans-72" transform="translate(118.359375 0)"/>
     <use xlink:href="#DejaVuSans-6c" transform="translate(159.472656 0)"/>
     <use xlink:href="#DejaVuSans-5f" transform="translate(187.255859 0)"/>
     <use xlink:href="#DejaVuSans-63" transform="translate(237.255859 0)"/>
     <use xlink:href="#DejaVuSans-75" transform="translate(292.236328 0)"/>
     <use xlink:href="#DejaVuSans-72" transform="translate(355.615234 0)"/>
     <use xlink:href="#DejaVuSans-6c" transform="translate(396.728516 0)"/>
     <use xlink:href="#DejaVuSans-5f" transform="translate(424.511719 0)"/>
     <use xlink:href="#DejaVuSans-66" transform="translate(474.511719 0)"/>
     <use xlink:href="#DejaVuSans-75" transform="translate(509.716797 0)"/>
     <use xlink:href="#DejaVuSans-7a" transform="translate(573.095703 0)"/>
     <use xlink:href="#DejaVuSans-7a" transform="translate(625.585938 0)"/>
     <use xlink:href="#DejaVuSans-65" transform="translate(678.076172 0)"/>
     <use xlink:href="#DejaVuSans-72" transform="translate(739.599609 0)"/>
     <use xlink:href="#DejaVuSans-5f" transform="translate(780.712891 0)"/>
     <use xlink:href="#DejaVuSans-68" transform="translate(830.712891 0)"/>
     <use xlink:href="#DejaVuSans-74" transform="translate(894.091797 0)"/>
     <use xlink:href="#DejaVuSans-74" transform="translate(933.300781 0)"/>
     <use xlink:href="#DejaVuSans-70" transform="translate(972.509766 0)"/>
     <use xlink:href="#DejaVuSans-20" transform="translate(1035.986328 0)"/>
     <use xlink:href="#DejaVuSans-28" transform="translate(1067.773438 0)"/>
     <use xlink:href="#DejaVuSans-31" transform="translate(1106.787109 0)"/>
     <use xlink:href="#DejaVuSans-32" transform="translate(1170.410156 0)"/>
     <use xlink:href="#DejaVuSans-68" transform="translate(1234.033203 0)"/>
     <use xlink:href="#DejaVuSans-2c" transform="translate(1297.412109 0)"/>
     <use xlink:href="#DejaVuSans-20" transform="translate(1329.199219 0)"/>
     <use xlink:href="#DejaVuSans-61" transform="translate(1360.986328 0)"/>
     <use xlink:href="#DejaVuSans-74" transform="translate(1422.265625 0)"/>
     <use xlink:href="#DejaVuSans-20" transform="translate(1461.474609 0)"/>
     <use xlink:href="#DejaVuSans-6c" transform="translate(1493.261719 0)"/>
     <use xlink:href="#DejaVuSans-65" transform="translate(1521.044922 0)"/>
     <use xlink:href="#DejaVuSans-61" transform="translate(1582.568359 0)"/>
     <use xlink:href="#DejaVuSans-73" transform="translate(1643.847656 0)"/>
     <use xlink:href="#DejaVuSans-74" transform="translate(1695.947266 0)"/>
     <use xlink:href="#DejaVuSans-20" transform="translate(1735.15625 0)"/>
     <use xlink:href="#DejaVuSans-34" transform="translate(1766.943359 0)"/>
     <use xlink:href="#DejaVuSans-20" transform="translate(1830.566406 0)"/>
     <use xlink:href="#DejaVuSans-74" transform="translate(1862.353516 0)"/>
     <use xlink:href="#DejaVuSans-72" transform="translate(1901.5625 0)"/>
     <use xlink:href="#DejaVuSans-69" transform="translate(1942.675781 0)"/>
     <use xlink:href="#DejaVuSans-61" transform="translate(1970.458984 0)"/>
     <use xlink:href="#DejaVuSans-6c" transform="translate(2031.738281 0)"/>
     <use xlink:href="#DejaVuSans-73" transform="translate(2059.521484 0)"/>
     <use xlink:href="#DejaVuSans-2f" transform="translate(2111.621094 0)"/>
     <use xlink:href="#DejaVuSans-66" transform="translate(2145.3125 0)"/>
     <use xlink:href="#DejaVuSans-75" transform="translate(2180.517578 0)"/>
     <use xlink:href="#DejaVuSans-7a" transform="translate(2243.896484 0)"/>
     <use xlink:href="#DejaVuSans-7a" transform="translate(2296.386719 0)"/>
     <use xlink:href="#DejaVuSans-65" transform="translate(2348.876953 0)"/>
     <use xlink:href="#DejaVuSans-72" transform="translate(2410.400391 0)"/>
     <use xlink:href="#DejaVuSans-29" transform="translate(2451.513672 0)"/>
    </g>
   </g>
   <g id="legend_1">
    <g id="line2d_27">
     <path d="M 777.930625 30.416562 
L 787.930625 30.416562 
L 797.930625 30.416562 
" style="fill: none; stroke: #c7c7c7; stroke-width: 1.5; stroke-linecap: square"/>
     <g>
      <use xlink:href="#m453be51dbd" x="787.930625" y="30.416562" style="fill: #c7c7c7; stroke: #ffffff; stroke-width: 0.75; stroke-linejoin: miter"/>
     </g>
    </g>
    <g id="text_17">
     <!-- aflplusplus_mopt -->
     <g transform="translate(805.930625 33.916562) scale(0.1 -0.1)">
      <use xlink:href="#DejaVuSans-61"/>
      <use xlink:href="#DejaVuSans-66" transform="translate(61.279297 0)"/>
      <use xlink:href="#DejaVuSans-6c" transform="translate(96.484375 0)"/>
      <use xlink:href="#DejaVuSans-70" transform="translate(124.267578 0)"/>
      <use xlink:href="#DejaVuSans-6c" transform="translate(187.744141 0)"/>
      <use xlink:href="#DejaVuSans-75" transform="translate(215.527344 0)"/>
      <use xlink:href="#DejaVuSans-73" transform="translate(278.90625 0)"/>
      <use xlink:href="#DejaVuSans-70" transform="translate(331.005859 0)"/>
      <use xlink:href="#DejaVuSans-6c" transform="translate(394.482422 0)"/>
      <use xlink:href="#DejaVuSans-75" transform="translate(422.265625 0)"/>
      <use xlink:href="#DejaVuSans-73" transform="translate(485.644531 0)"/>
      <use xlink:href="#DejaVuSans-5f" transform="translate(537.744141 0)"/>
      <use xlink:href="#DejaVuSans-6d" transform="translate(587.744141 0)"/>
      <use xlink:href="#DejaVuSans-6f" transform="translate(685.15625 0)"/>
      <use xlink:href="#DejaVuSans-70" transform="translate(746.337891 0)"/>
      <use xlink:href="#DejaVuSans-74" transform="translate(809.814453 0)"/>
     </g>
    </g>
    <g id="line2d_28">
     <path d="M 777.930625 45.372813 
L 787.930625 45.372813 
L 797.930625 45.372813 
" style="fill: none; stroke: #d62728; stroke-width: 1.5; stroke-linecap: square"/>
     <g>
      <use xlink:href="#m7ec5470429" x="787.930625" y="45.372813" style="fill: #d62728; stroke: #ffffff; stroke-width: 0.75; stroke-linejoin: miter"/>
     </g>
    </g>
    <g id="text_18">
     <!-- aflplusplus_c11 -->
     <g transform="translate(805.930625 48.872813) scale(0.1 -0.1)">
      <use xlink:href="#DejaVuSans-61"/>
      <use xlink:href="#DejaVuSans-66" transform="translate(61.279297 0)"/>
      <use xlink:href="#DejaVuSans-6c" transform="translate(96.484375 0)"/>
      <use xlink:href="#DejaVuSans-70" transform="translate(124.267578 0)"/>
      <use xlink:href="#DejaVuSans-6c" transform="translate(187.744141 0)"/>
      <use xlink:href="#DejaVuSans-75" transform="translate(215.527344 0)"/>
      <use xlink:href="#DejaVuSans-73" transform="translate(278.90625 0)"/>
      <use xlink:href="#DejaVuSans-70" transform="translate(331.005859 0)"/>
      <use xlink:href="#DejaVuSans-6c" transform="translate(394.482422 0)"/>
      <use xlink:href="#DejaVuSans-75" transform="translate(422.265625 0)"/>
      <use xlink:href="#DejaVuSans-73" transform="translate(485.644531 0)"/>
      <use xlink:href="#DejaVuSans-5f" transform="translate(537.744141 0)"/>
      <use xlink:href="#DejaVuSans-63" transform="translate(587.744141 0)"/>
      <use xlink:href="#DejaVuSans-31" transform="translate(642.724609 0)"/>
      <use xlink:href="#DejaVuSans-31" transform="translate(706.347656 0)"/>
     </g>
    </g>
    <g id="line2d_29">
     <path d="M 777.930625 60.329063 
L 787.930625 60.329063 
L 797.930625 60.329063 
" style="fill: none; stroke: #1f77b4; stroke-width: 1.5; stroke-linecap: square"/>
     <g>
      <use xlink:href="#mfd889d887d" x="787.930625" y="60.329063" style="fill: #1f77b4; stroke: #ffffff; stroke-width: 0.75"/>
     </g>
    </g>
    <g id="text_19">
     <!-- aflplusplus_440c -->
     <g transform="translate(805.930625 63.829063) scale(0.1 -0.1)">
      <use xlink:href="#DejaVuSans-61"/>
      <use xlink:href="#DejaVuSans-66" transform="translate(61.279297 0)"/>
      <use xlink:href="#DejaVuSans-6c" transform="translate(96.484375 0)"/>
      <use xlink:href="#DejaVuSans-70" transform="translate(124.267578 0)"/>
      <use xlink:href="#DejaVuSans-6c" transform="translate(187.744141 0)"/>
      <use xlink:href="#DejaVuSans-75" transform="translate(215.527344 0)"/>
      <use xlink:href="#DejaVuSans-73" transform="translate(278.90625 0)"/>
      <use xlink:href="#DejaVuSans-70" transform="translate(331.005859 0)"/>
      <use xlink:href="#DejaVuSans-6c" transform="translate(394.482422 0)"/>
      <use xlink:href="#DejaVuSans-75" transform="translate(422.265625 0)"/>
      <use xlink:href="#DejaVuSans-73" transform="translate(485.644531 0)"/>
      <use xlink:href="#DejaVuSans-5f" transform="translate(537.744141 0)"/>
      <use xlink:href="#DejaVuSans-34" transform="translate(587.744141 0)"/>
      <use xlink:href="#DejaVuSans-34" transform="translate(651.367188 0)"/>
      <use xlink:href="#DejaVuSans-30" transform="translate(714.990234 0)"/>
      <use xlink:href="#DejaVuSans-63" transform="translate(778.613281 0)"/>
     </g>
    </g>
    <g id="line2d_30">
     <path d="M 777.930625 75.285313 
L 787.930625 75.285313 
L 797.930625 75.285313 
" style="fill: none; stroke: #98df8a; stroke-width: 1.5; stroke-linecap: square"/>
     <g>
      <use xlink:href="#m1c2cc74fdc" x="787.930625" y="75.285313" style="fill: #98df8a; stroke: #ffffff; stroke-width: 0.75; stroke-linejoin: miter"/>
     </g>
    </g>
    <g id="text_20">
     <!-- aflplusplus_500c -->
     <g transform="translate(805.930625 78.785313) scale(0.1 -0.1)">
      <use xlink:href="#DejaVuSans-61"/>
      <use xlink:href="#DejaVuSans-66" transform="translate(61.279297 0)"/>
      <use xlink:href="#DejaVuSans-6c" transform="translate(96.484375 0)"/>
      <use xlink:href="#DejaVuSans-70" transform="translate(124.267578 0)"/>
      <use xlink:href="#DejaVuSans-6c" transform="translate(187.744141 0)"/>
      <use xlink:href="#DejaVuSans-75" transform="translate(215.527344 0)"/>
      <use xlink:href="#DejaVuSans-73" transform="translate(278.90625 0)"/>
      <use xlink:href="#DejaVuSans-70" transform="translate(331.005859 0)"/>
      <use xlink:href="#DejaVuSans-6c" transform="translate(394.482422 0)"/>
      <use xlink:href="#DejaVuSans-75" transform="translate(422.265625 0)"/>
      <use xlink:href="#DejaVuSans-73" transform="translate(485.644531 0)"/>
      <use xlink:href="#DejaVuSans-5f" transform="translate(537.744141 0)"/>
      <use xlink:href="#DejaVuSans-35" transform="translate(587.744141 0)"/>
      <use xlink:href="#DejaVuSans-30" transform="translate(651.367188 0)"/>
      <use xlink:href="#DejaVuSans-30" transform="translate(714.990234 0)"/>
      <use xlink:href="#DejaVuSans-63" transform="translate(778.613281 0)"/>
     </g>
    </g>
   </g>
  </g>
 </g>
 <defs>
  <clipPath id="p2e3ba2f6b7">
   <rect x="59.690625" y="22.318125" width="714.24" height="266.112"/>
  </clipPath>
 </defs>
</svg>
