<?xml version="1.0" encoding="utf-8" standalone="no"?>
<!DOCTYPE svg PUBLIC "-//W3C//DTD SVG 1.1//EN"
  "http://www.w3.org/Graphics/SVG/1.1/DTD/svg11.dtd">
<svg xmlns:xlink="http://www.w3.org/1999/xlink" width="902.032187pt" height="325.986375pt" viewBox="0 0 902.032187 325.986375" xmlns="http://www.w3.org/2000/svg" version="1.1">
 <metadata>
  <rdf:RDF xmlns:dc="http://purl.org/dc/elements/1.1/" xmlns:cc="http://creativecommons.org/ns#" xmlns:rdf="http://www.w3.org/1999/02/22-rdf-syntax-ns#">
   <cc:Work>
    <dc:type rdf:resource="http://purl.org/dc/dcmitype/StillImage"/>
    <dc:date>2026-06-10T07:09:07.691576</dc:date>
    <dc:format>image/svg+xml</dc:format>
    <dc:creator>
     <cc:Agent>
      <dc:title>Matplotlib v3.10.9, https://matplotlib.org/</dc:title>
     </cc:Agent>
    </dc:creator>
   </cc:Work>
  </rdf:RDF>
 </metadata>
 <defs>
  <style type="text/css">*{stroke-linejoin: round; stroke-linecap: butt}</style>
 </defs>
 <g id="figure_1">
  <g id="patch_1">
   <path d="M 0 325.986375 
L 902.032187 325.986375 
L 902.032187 0 
L 0 0 
z
" style="fill: #ffffff"/>
  </g>
  <g id="axes_1">
   <g id="patch_2">
    <path d="M 59.690625 288.430125 
L 773.930625 288.430125 
L 773.930625 22.318125 
L 59.690625 22.318125 
z
" style="fill: #ffffff"/>
   </g>
   <g id="FillBetweenPolyCollection_1">
    <defs>
     <path id="m29b7397019" d="M 59.690625 -49.65225 
L 59.690625 -49.65225 
L 541.705054 -227.970233 
L 580.251368 -234.591813 
L 602.799516 -235.172653 
L 618.797682 -236.973258 
L 631.206824 -239.645124 
L 641.345831 -241.387645 
L 649.918239 -242.200821 
L 657.343997 -242.200821 
L 663.893979 -242.200821 
L 669.753138 -242.200821 
L 675.053392 -242.200821 
L 679.892145 -242.200821 
L 684.343366 -242.200821 
L 688.464553 -242.200821 
L 692.301286 -242.200821 
L 695.890311 -242.200821 
L 699.261681 -242.316989 
L 702.440293 -242.316989 
L 705.447003 -242.316989 
L 708.299452 -242.375074 
L 711.012701 -242.549326 
L 713.599706 -242.60741 
L 716.071694 -242.60741 
L 718.438459 -242.781662 
L 720.708594 -243.304418 
L 722.88968 -243.304418 
L 724.988442 -244.001426 
L 727.010867 -249.287074 
L 728.962316 -253.875712 
L 730.847601 -255.908653 
L 732.671062 -256.315242 
L 734.436625 -261.368553 
L 736.147855 -265.492519 
L 737.807995 -267.81588 
L 739.420009 -268.512889 
L 740.986608 -268.861393 
L 742.51028 -269.964989 
L 743.993317 -270.429662 
L 745.437829 -270.778166 
L 746.845767 -272.404519 
L 748.218937 -272.694939 
L 749.559016 -273.508116 
L 750.86756 -273.85662 
L 752.146021 -274.379376 
L 753.395749 -274.495544 
L 754.618009 -275.134468 
L 755.813981 -275.482973 
L 756.984773 -275.541057 
L 758.131424 -275.947645 
L 759.254908 -276.586569 
L 760.356144 -276.818905 
L 761.435994 -276.935074 
L 762.495276 -276.993158 
L 763.534756 -277.051242 
L 764.555162 -277.051242 
L 765.557182 -277.16741 
L 766.541465 -277.341662 
L 767.50863 -278.387174 
L 768.459261 -278.677595 
L 769.393915 -278.968015 
L 770.313119 -279.897359 
L 771.217376 -279.897359 
L 771.217376 -289.829729 
L 771.217376 -289.829729 
L 770.313119 -289.248889 
L 769.393915 -289.248889 
L 768.459261 -289.132721 
L 767.50863 -289.132721 
L 766.541465 -289.074637 
L 765.557182 -288.958468 
L 764.555162 -288.668048 
L 763.534756 -288.435712 
L 762.495276 -288.435712 
L 761.435994 -288.435712 
L 760.356144 -288.319544 
L 759.254908 -288.319544 
L 758.131424 -288.203376 
L 756.984773 -288.203376 
L 755.813981 -288.203376 
L 754.618009 -288.087208 
L 753.395749 -288.087208 
L 752.146021 -287.97104 
L 750.86756 -287.912956 
L 749.559016 -287.3902 
L 748.218937 -287.3902 
L 746.845767 -287.3902 
L 745.437829 -287.3902 
L 743.993317 -287.332116 
L 742.51028 -287.274032 
L 740.986608 -287.157863 
L 739.420009 -287.041695 
L 737.807995 -285.880015 
L 736.147855 -285.357258 
L 734.436625 -285.183006 
L 732.671062 -284.834502 
L 730.847601 -284.544082 
L 728.962316 -284.427914 
L 727.010867 -284.36983 
L 724.988442 -283.847074 
L 722.88968 -283.788989 
L 720.708594 -283.788989 
L 718.438459 -283.382401 
L 716.071694 -283.208149 
L 713.599706 -283.208149 
L 711.012701 -283.150065 
L 708.299452 -283.150065 
L 705.447003 -282.975813 
L 702.440293 -282.917729 
L 699.261681 -282.453057 
L 695.890311 -281.756048 
L 692.301286 -279.955443 
L 688.464553 -277.515914 
L 684.343366 -275.831477 
L 679.892145 -275.715309 
L 675.053392 -273.972788 
L 669.753138 -273.101527 
L 663.893979 -272.462603 
L 657.343997 -271.41709 
L 649.918239 -270.023074 
L 641.345831 -265.085931 
L 631.206824 -263.808082 
L 618.797682 -257.360754 
L 602.799516 -254.979309 
L 580.251368 -250.10025 
L 541.705054 -243.885258 
L 59.690625 -49.65225 
z
" style="stroke: #c7c7c7; stroke-opacity: 0.2"/>
    </defs>
    <g clip-path="url(#pac11183e66)">
     <use xlink:href="#m29b7397019" x="0" y="325.986375" style="fill: #c7c7c7; fill-opacity: 0.2; stroke: #c7c7c7; stroke-opacity: 0.2"/>
    </g>
   </g>
   <g id="FillBetweenPolyCollection_2">
    <defs>
     <path id="mc64cf29abd" d="M 59.690625 -49.65225 
L 59.690625 -49.65225 
L 541.705054 -209.383342 
L 580.251368 -210.312687 
L 602.799516 -210.312687 
L 618.797682 -210.312687 
L 631.206824 -210.312687 
L 641.345831 -210.312687 
L 649.918239 -210.312687 
L 657.343997 -210.312687 
L 663.893979 -210.312687 
L 669.753138 -210.312687 
L 675.053392 -210.312687 
L 679.892145 -210.312687 
L 684.343366 -210.312687 
L 688.464553 -210.312687 
L 692.301286 -210.312687 
L 695.890311 -210.312687 
L 699.261681 -210.312687 
L 702.440293 -210.312687 
L 705.447003 -210.312687 
L 708.299452 -210.312687 
L 711.012701 -211.997124 
L 713.599706 -211.997124 
L 716.071694 -211.997124 
L 718.438459 -212.636048 
L 720.708594 -213.391141 
L 722.88968 -213.391141 
L 724.988442 -214.030065 
L 727.010867 -215.482166 
L 728.962316 -221.174401 
L 730.847601 -227.215141 
L 732.671062 -229.65467 
L 734.436625 -234.998401 
L 736.147855 -237.554099 
L 737.807995 -239.819376 
L 739.420009 -240.4583 
L 740.986608 -243.18825 
L 742.51028 -243.711006 
L 743.993317 -244.988855 
L 745.437829 -248.183477 
L 746.845767 -248.183477 
L 748.218937 -250.564922 
L 749.559016 -254.108048 
L 750.86756 -254.572721 
L 752.146021 -254.863141 
L 753.395749 -255.908653 
L 754.618009 -257.186502 
L 755.813981 -257.30267 
L 756.984773 -257.535006 
L 758.131424 -258.348183 
L 759.254908 -259.103275 
L 760.356144 -259.509863 
L 761.435994 -263.285326 
L 762.495276 -266.015275 
L 763.534756 -267.293124 
L 764.555162 -268.222468 
L 765.557182 -268.280553 
L 766.541465 -269.790737 
L 767.50863 -269.906905 
L 768.459261 -269.964989 
L 769.393915 -270.081158 
L 770.313119 -270.83625 
L 771.217376 -271.707511 
L 771.217376 -291.57225 
L 771.217376 -291.57225 
L 770.313119 -291.57225 
L 769.393915 -291.57225 
L 768.459261 -291.456082 
L 767.50863 -291.223746 
L 766.541465 -290.759074 
L 765.557182 -290.759074 
L 764.555162 -290.700989 
L 763.534756 -290.584821 
L 762.495276 -290.526737 
L 761.435994 -290.410569 
L 760.356144 -290.410569 
L 759.254908 -290.410569 
L 758.131424 -290.352485 
L 756.984773 -290.352485 
L 755.813981 -290.120149 
L 754.618009 -289.829729 
L 753.395749 -289.655477 
L 752.146021 -289.655477 
L 750.86756 -289.597393 
L 749.559016 -289.481225 
L 748.218937 -287.912956 
L 746.845767 -287.854872 
L 745.437829 -287.854872 
L 743.993317 -287.854872 
L 742.51028 -286.983611 
L 740.986608 -286.170435 
L 739.420009 -285.880015 
L 737.807995 -285.705763 
L 736.147855 -285.299174 
L 734.436625 -285.24109 
L 732.671062 -285.124922 
L 730.847601 -285.008754 
L 728.962316 -284.66025 
L 727.010867 -284.602166 
L 724.988442 -281.465628 
L 722.88968 -281.465628 
L 720.708594 -281.34946 
L 718.438459 -281.291376 
L 716.071694 -281.05904 
L 713.599706 -280.536284 
L 711.012701 -280.536284 
L 708.299452 -279.955443 
L 705.447003 -279.781191 
L 702.440293 -279.723107 
L 699.261681 -279.665023 
L 695.890311 -278.909931 
L 692.301286 -278.445258 
L 688.464553 -278.271006 
L 684.343366 -277.922502 
L 679.892145 -277.399746 
L 675.053392 -276.935074 
L 669.753138 -274.902132 
L 663.893979 -272.869191 
L 657.343997 -272.172183 
L 649.918239 -271.12667 
L 641.345831 -269.616485 
L 631.206824 -267.060788 
L 618.797682 -262.007477 
L 602.799516 -259.7422 
L 580.251368 -248.125393 
L 541.705054 -238.309191 
L 59.690625 -49.65225 
z
" style="stroke: #1f77b4; stroke-opacity: 0.2"/>
    </defs>
    <g clip-path="url(#pac11183e66)">
     <use xlink:href="#mc64cf29abd" x="0" y="325.986375" style="fill: #1f77b4; fill-opacity: 0.2; stroke: #1f77b4; stroke-opacity: 0.2"/>
    </g>
   </g>
   <g id="FillBetweenPolyCollection_3">
    <defs>
     <path id="m0e059c476c" d="M 59.690625 -49.710334 
L 59.690625 -49.65225 
L 541.705054 -226.401964 
L 580.251368 -227.912149 
L 602.799516 -227.912149 
L 618.797682 -229.306166 
L 631.206824 -233.720553 
L 641.345831 -234.707981 
L 649.918239 -235.346905 
L 657.343997 -235.346905 
L 663.893979 -235.346905 
L 669.753138 -235.346905 
L 675.053392 -235.346905 
L 679.892145 -235.69541 
L 684.343366 -235.69541 
L 688.464553 -235.69541 
L 692.301286 -235.69541 
L 695.890311 -235.69541 
L 699.261681 -235.69541 
L 702.440293 -235.69541 
L 705.447003 -235.69541 
L 708.299452 -236.160082 
L 711.012701 -237.786435 
L 713.599706 -240.342132 
L 716.071694 -240.516384 
L 718.438459 -240.516384 
L 720.708594 -240.574468 
L 722.88968 -241.445729 
L 724.988442 -242.955914 
L 727.010867 -243.711006 
L 728.962316 -246.266704 
L 730.847601 -248.880485 
L 732.671062 -253.99188 
L 734.436625 -254.456553 
L 736.147855 -257.767342 
L 737.807995 -259.219443 
L 739.420009 -259.684116 
L 740.986608 -260.32304 
L 742.51028 -261.252384 
L 743.993317 -262.588317 
L 745.437829 -266.189527 
L 746.845767 -266.886536 
L 748.218937 -268.164384 
L 749.559016 -268.861393 
L 750.86756 -269.267981 
L 752.146021 -269.384149 
L 753.395749 -269.616485 
L 754.618009 -269.964989 
L 755.813981 -270.661998 
L 756.984773 -271.068586 
L 758.131424 -271.533258 
L 759.254908 -272.172183 
L 760.356144 -272.172183 
L 761.435994 -273.275779 
L 762.495276 -273.450032 
L 763.534756 -273.740452 
L 764.555162 -273.740452 
L 765.557182 -273.740452 
L 766.541465 -273.798536 
L 767.50863 -274.14704 
L 768.459261 -275.0183 
L 769.393915 -275.076384 
L 770.313119 -275.541057 
L 771.217376 -275.657225 
L 771.217376 -288.958468 
L 771.217376 -288.958468 
L 770.313119 -288.958468 
L 769.393915 -288.900384 
L 768.459261 -288.900384 
L 767.50863 -288.8423 
L 766.541465 -288.726132 
L 765.557182 -288.726132 
L 764.555162 -288.668048 
L 763.534756 -288.668048 
L 762.495276 -288.668048 
L 761.435994 -288.668048 
L 760.356144 -288.435712 
L 759.254908 -288.435712 
L 758.131424 -288.435712 
L 756.984773 -288.435712 
L 755.813981 -288.435712 
L 754.618009 -288.435712 
L 753.395749 -288.435712 
L 752.146021 -288.435712 
L 750.86756 -288.435712 
L 749.559016 -288.435712 
L 748.218937 -288.435712 
L 746.845767 -285.299174 
L 745.437829 -285.299174 
L 743.993317 -285.183006 
L 742.51028 -285.008754 
L 740.986608 -284.95067 
L 739.420009 -284.485998 
L 737.807995 -284.137494 
L 736.147855 -284.137494 
L 734.436625 -284.07941 
L 732.671062 -284.021326 
L 730.847601 -283.905158 
L 728.962316 -283.382401 
L 727.010867 -283.382401 
L 724.988442 -283.266233 
L 722.88968 -282.046468 
L 720.708594 -281.988384 
L 718.438459 -281.9303 
L 716.071694 -281.697964 
L 713.599706 -281.465628 
L 711.012701 -281.291376 
L 708.299452 -280.710536 
L 705.447003 -280.362032 
L 702.440293 -279.258435 
L 699.261681 -278.387174 
L 695.890311 -276.470401 
L 692.301286 -275.192553 
L 688.464553 -272.753023 
L 684.343366 -271.881763 
L 679.892145 -270.603914 
L 675.053392 -268.977561 
L 669.753138 -268.629057 
L 663.893979 -266.479947 
L 657.343997 -264.795511 
L 649.918239 -262.065561 
L 641.345831 -260.206872 
L 631.206824 -258.580519 
L 618.797682 -254.746973 
L 602.799516 -249.80983 
L 580.251368 -243.420586 
L 541.705054 -234.243309 
L 59.690625 -49.710334 
z
" style="stroke: #d62728; stroke-opacity: 0.2"/>
    </defs>
    <g clip-path="url(#pac11183e66)">
     <use xlink:href="#m0e059c476c" x="0" y="325.986375" style="fill: #d62728; fill-opacity: 0.2; stroke: #d62728; stroke-opacity: 0.2"/>
    </g>
   </g>
   <g id="FillBetweenPolyCollection_4">
    <defs>
     <path id="m486a99e502" d="M 59.690625 -49.768418 
L 59.690625 -49.65225 
L 541.705054 -216.295342 
L 580.251368 -216.295342 
L 602.799516 -216.295342 
L 618.797682 -216.295342 
L 631.206824 -216.295342 
L 641.345831 -216.295342 
L 649.918239 -216.295342 
L 657.343997 -216.295342 
L 663.893979 -216.295342 
L 669.753138 -216.295342 
L 675.053392 -216.295342 
L 679.892145 -216.295342 
L 684.343366 -216.295342 
L 688.464553 -216.295342 
L 692.301286 -216.295342 
L 695.890311 -216.295342 
L 699.261681 -216.701931 
L 702.440293 -216.701931 
L 705.447003 -216.701931 
L 708.299452 -216.701931 
L 711.012701 -216.701931 
L 713.599706 -216.701931 
L 716.071694 -217.631275 
L 718.438459 -217.747443 
L 720.708594 -217.747443 
L 722.88968 -217.863611 
L 724.988442 -218.212116 
L 727.010867 -219.373796 
L 728.962316 -225.1822 
L 730.847601 -231.048687 
L 732.671062 -236.450502 
L 734.436625 -238.831947 
L 736.147855 -241.503813 
L 737.807995 -243.304418 
L 739.420009 -244.814603 
L 740.986608 -246.847544 
L 742.51028 -246.847544 
L 743.993317 -247.544553 
L 745.437829 -249.228989 
L 746.845767 -250.332586 
L 748.218937 -252.017023 
L 749.559016 -252.888284 
L 750.86756 -254.456553 
L 752.146021 -255.153561 
L 753.395749 -256.954166 
L 754.618009 -257.767342 
L 755.813981 -258.929023 
L 756.984773 -259.045191 
L 758.131424 -259.858368 
L 759.254908 -260.61346 
L 760.356144 -262.007477 
L 761.435994 -262.588317 
L 762.495276 -264.272754 
L 763.534756 -266.015275 
L 764.555162 -266.596116 
L 765.557182 -266.712284 
L 766.541465 -267.060788 
L 767.50863 -267.990132 
L 768.459261 -268.048216 
L 769.393915 -269.151813 
L 770.313119 -269.267981 
L 771.217376 -269.442233 
L 771.217376 -290.875242 
L 771.217376 -290.875242 
L 770.313119 -290.875242 
L 769.393915 -290.875242 
L 768.459261 -290.875242 
L 767.50863 -290.875242 
L 766.541465 -290.875242 
L 765.557182 -290.875242 
L 764.555162 -290.817158 
L 763.534756 -290.526737 
L 762.495276 -290.526737 
L 761.435994 -290.410569 
L 760.356144 -290.410569 
L 759.254908 -290.236317 
L 758.131424 -290.236317 
L 756.984773 -290.062065 
L 755.813981 -289.887813 
L 754.618009 -287.157863 
L 753.395749 -287.157863 
L 752.146021 -287.099779 
L 750.86756 -286.983611 
L 749.559016 -286.983611 
L 748.218937 -286.983611 
L 746.845767 -286.983611 
L 745.437829 -286.925527 
L 743.993317 -286.925527 
L 742.51028 -286.867443 
L 740.986608 -286.577023 
L 739.420009 -286.577023 
L 737.807995 -286.170435 
L 736.147855 -286.112351 
L 734.436625 -286.112351 
L 732.671062 -285.24109 
L 730.847601 -284.427914 
L 728.962316 -284.311746 
L 727.010867 -283.672821 
L 724.988442 -283.614737 
L 722.88968 -283.498569 
L 720.708594 -283.498569 
L 718.438459 -283.440485 
L 716.071694 -283.382401 
L 713.599706 -283.150065 
L 711.012701 -283.033897 
L 708.299452 -279.897359 
L 705.447003 -279.665023 
L 702.440293 -279.374603 
L 699.261681 -279.258435 
L 695.890311 -279.084183 
L 692.301286 -278.851847 
L 688.464553 -278.503342 
L 684.343366 -278.32909 
L 679.892145 -277.051242 
L 675.053392 -276.876989 
L 669.753138 -276.121897 
L 663.893979 -275.541057 
L 657.343997 -273.450032 
L 649.918239 -272.694939 
L 641.345831 -270.952418 
L 631.206824 -269.558401 
L 618.797682 -267.990132 
L 602.799516 -258.929023 
L 580.251368 -253.352956 
L 541.705054 -238.134939 
L 59.690625 -49.768418 
z
" style="stroke: #98df8a; stroke-opacity: 0.2"/>
    </defs>
    <g clip-path="url(#pac11183e66)">
     <use xlink:href="#m486a99e502" x="0" y="325.986375" style="fill: #98df8a; fill-opacity: 0.2; stroke: #98df8a; stroke-opacity: 0.2"/>
    </g>
   </g>
   <g id="matplotlib.axis_1">
    <g id="xtick_1">
     <g id="line2d_1">
      <defs>
       <path id="m2f1ec9c9e9" d="M 0 0 
L 0 3.5 
" style="stroke: #000000; stroke-width: 0.8"/>
      </defs>
      <g>
       <use xlink:href="#m2f1ec9c9e9" x="59.690625" y="288.430125" style="stroke: #000000; stroke-width: 0.8"/>
      </g>
     </g>
     <g id="text_1">
      <!-- 0m -->
      <g transform="translate(51.639063 303.028562) scale(0.1 -0.1)">
       <defs>
        <path id="DejaVuSans-30" d="M 2034 4250 
Q 1547 4250 1301 3770 
Q 1056 3291 1056 2328 
Q 1056 1369 1301 889 
Q 1547 409 2034 409 
Q 2525 409 2770 889 
Q 3016 1369 3016 2328 
Q 3016 3291 2770 3770 
Q 2525 4250 2034 4250 
z
M 2034 4750 
Q 2819 4750 3233 4129 
Q 3647 3509 3647 2328 
Q 3647 1150 3233 529 
Q 2819 -91 2034 -91 
Q 1250 -91 836 529 
Q 422 1150 422 2328 
Q 422 3509 836 4129 
Q 1250 4750 2034 4750 
z
" transform="scale(0.015625)"/>
        <path id="DejaVuSans-6d" d="M 3328 2828 
Q 3544 3216 3844 3400 
Q 4144 3584 4550 3584 
Q 5097 3584 5394 3201 
Q 5691 2819 5691 2113 
L 5691 0 
L 5113 0 
L 5113 2094 
Q 5113 2597 4934 2840 
Q 4756 3084 4391 3084 
Q 3944 3084 3684 2787 
Q 3425 2491 3425 1978 
L 3425 0 
L 2847 0 
L 2847 2094 
Q 2847 2600 2669 2842 
Q 2491 3084 2119 3084 
Q 1678 3084 1418 2786 
Q 1159 2488 1159 1978 
L 1159 0 
L 581 0 
L 581 3500 
L 1159 3500 
L 1159 2956 
Q 1356 3278 1631 3431 
Q 1906 3584 2284 3584 
Q 2666 3584 2933 3390 
Q 3200 3197 3328 2828 
z
" transform="scale(0.015625)"/>
       </defs>
       <use xlink:href="#DejaVuSans-30"/>
       <use xlink:href="#DejaVuSans-6d" transform="translate(63.623047 0)"/>
      </g>
     </g>
    </g>
    <g id="xtick_2">
     <g id="line2d_2">
      <g>
       <use xlink:href="#m2f1ec9c9e9" x="130.82845" y="288.430125" style="stroke: #000000; stroke-width: 0.8"/>
      </g>
     </g>
    </g>
    <g id="xtick_3">
     <g id="line2d_3">
      <g>
       <use xlink:href="#m2f1ec9c9e9" x="224.199801" y="288.430125" style="stroke: #000000; stroke-width: 0.8"/>
      </g>
     </g>
    </g>
    <g id="xtick_4">
     <g id="line2d_4">
      <g>
       <use xlink:href="#m2f1ec9c9e9" x="284.979642" y="288.430125" style="stroke: #000000; stroke-width: 0.8"/>
      </g>
     </g>
    </g>
    <g id="xtick_5">
     <g id="line2d_5">
      <g>
       <use xlink:href="#m2f1ec9c9e9" x="345.759484" y="288.430125" style="stroke: #000000; stroke-width: 0.8"/>
      </g>
     </g>
    </g>
    <g id="xtick_6">
     <g id="line2d_6">
      <g>
       <use xlink:href="#m2f1ec9c9e9" x="406.539325" y="288.430125" style="stroke: #000000; stroke-width: 0.8"/>
      </g>
     </g>
     <g id="text_2">
      <!-- 1m -->
      <g transform="translate(398.487762 303.028562) scale(0.1 -0.1)">
       <defs>
        <path id="DejaVuSans-31" d="M 794 531 
L 1825 531 
L 1825 4091 
L 703 3866 
L 703 4441 
L 1819 4666 
L 2450 4666 
L 2450 531 
L 3481 531 
L 3481 0 
L 794 0 
L 794 531 
z
" transform="scale(0.015625)"/>
       </defs>
       <use xlink:href="#DejaVuSans-31"/>
       <use xlink:href="#DejaVuSans-6d" transform="translate(63.623047 0)"/>
      </g>
     </g>
    </g>
    <g id="xtick_7">
     <g id="line2d_7">
      <g>
       <use xlink:href="#m2f1ec9c9e9" x="467.319166" y="288.430125" style="stroke: #000000; stroke-width: 0.8"/>
      </g>
     </g>
     <g id="text_3">
      <!-- 3m -->
      <g transform="translate(459.267604 303.028562) scale(0.1 -0.1)">
       <defs>
        <path id="DejaVuSans-33" d="M 2597 2516 
Q 3050 2419 3304 2112 
Q 3559 1806 3559 1356 
Q 3559 666 3084 287 
Q 2609 -91 1734 -91 
Q 1441 -91 1130 -33 
Q 819 25 488 141 
L 488 750 
Q 750 597 1062 519 
Q 1375 441 1716 441 
Q 2309 441 2620 675 
Q 2931 909 2931 1356 
Q 2931 1769 2642 2001 
Q 2353 2234 1838 2234 
L 1294 2234 
L 1294 2753 
L 1863 2753 
Q 2328 2753 2575 2939 
Q 2822 3125 2822 3475 
Q 2822 3834 2567 4026 
Q 2313 4219 1838 4219 
Q 1578 4219 1281 4162 
Q 984 4106 628 3988 
L 628 4550 
Q 988 4650 1302 4700 
Q 1616 4750 1894 4750 
Q 2613 4750 3031 4423 
Q 3450 4097 3450 3541 
Q 3450 3153 3228 2886 
Q 3006 2619 2597 2516 
z
" transform="scale(0.015625)"/>
       </defs>
       <use xlink:href="#DejaVuSans-33"/>
       <use xlink:href="#DejaVuSans-6d" transform="translate(63.623047 0)"/>
      </g>
     </g>
    </g>
    <g id="xtick_8">
     <g id="line2d_8">
      <g>
       <use xlink:href="#m2f1ec9c9e9" x="528.099007" y="288.430125" style="stroke: #000000; stroke-width: 0.8"/>
      </g>
     </g>
     <g id="text_4">
      <!-- 11m -->
      <g transform="translate(516.866195 303.028562) scale(0.1 -0.1)">
       <use xlink:href="#DejaVuSans-31"/>
       <use xlink:href="#DejaVuSans-31" transform="translate(63.623047 0)"/>
       <use xlink:href="#DejaVuSans-6d" transform="translate(127.246094 0)"/>
      </g>
     </g>
    </g>
    <g id="xtick_9">
     <g id="line2d_9">
      <g>
       <use xlink:href="#m2f1ec9c9e9" x="588.878849" y="288.430125" style="stroke: #000000; stroke-width: 0.8"/>
      </g>
     </g>
     <g id="text_5">
      <!-- 35m -->
      <g transform="translate(577.646036 303.028562) scale(0.1 -0.1)">
       <defs>
        <path id="DejaVuSans-35" d="M 691 4666 
L 3169 4666 
L 3169 4134 
L 1269 4134 
L 1269 2991 
Q 1406 3038 1543 3061 
Q 1681 3084 1819 3084 
Q 2600 3084 3056 2656 
Q 3513 2228 3513 1497 
Q 3513 744 3044 326 
Q 2575 -91 1722 -91 
Q 1428 -91 1123 -41 
Q 819 9 494 109 
L 494 744 
Q 775 591 1075 516 
Q 1375 441 1709 441 
Q 2250 441 2565 725 
Q 2881 1009 2881 1497 
Q 2881 1984 2565 2268 
Q 2250 2553 1709 2553 
Q 1456 2553 1204 2497 
Q 953 2441 691 2322 
L 691 4666 
z
" transform="scale(0.015625)"/>
       </defs>
       <use xlink:href="#DejaVuSans-33"/>
       <use xlink:href="#DejaVuSans-35" transform="translate(63.623047 0)"/>
       <use xlink:href="#DejaVuSans-6d" transform="translate(127.246094 0)"/>
      </g>
     </g>
    </g>
    <g id="xtick_10">
     <g id="line2d_10">
      <g>
       <use xlink:href="#m2f1ec9c9e9" x="649.65869" y="288.430125" style="stroke: #000000; stroke-width: 0.8"/>
      </g>
     </g>
     <g id="text_6">
      <!-- 1h:44m -->
      <g transform="translate(630.391502 303.028562) scale(0.1 -0.1)">
       <defs>
        <path id="DejaVuSans-68" d="M 3513 2113 
L 3513 0 
L 2938 0 
L 2938 2094 
Q 2938 2591 2744 2837 
Q 2550 3084 2163 3084 
Q 1697 3084 1428 2787 
Q 1159 2491 1159 1978 
L 1159 0 
L 581 0 
L 581 4863 
L 1159 4863 
L 1159 2956 
Q 1366 3272 1645 3428 
Q 1925 3584 2291 3584 
Q 2894 3584 3203 3211 
Q 3513 2838 3513 2113 
z
" transform="scale(0.015625)"/>
        <path id="DejaVuSans-3a" d="M 750 794 
L 1409 794 
L 1409 0 
L 750 0 
L 750 794 
z
M 750 3309 
L 1409 3309 
L 1409 2516 
L 750 2516 
L 750 3309 
z
" transform="scale(0.015625)"/>
        <path id="DejaVuSans-34" d="M 2419 4116 
L 825 1625 
L 2419 1625 
L 2419 4116 
z
M 2253 4666 
L 3047 4666 
L 3047 1625 
L 3713 1625 
L 3713 1100 
L 3047 1100 
L 3047 0 
L 2419 0 
L 2419 1100 
L 313 1100 
L 313 1709 
L 2253 4666 
z
" transform="scale(0.015625)"/>
       </defs>
       <use xlink:href="#DejaVuSans-31"/>
       <use xlink:href="#DejaVuSans-68" transform="translate(63.623047 0)"/>
       <use xlink:href="#DejaVuSans-3a" transform="translate(127.001953 0)"/>
       <use xlink:href="#DejaVuSans-34" transform="translate(160.693359 0)"/>
       <use xlink:href="#DejaVuSans-34" transform="translate(224.316406 0)"/>
       <use xlink:href="#DejaVuSans-6d" transform="translate(287.939453 0)"/>
      </g>
     </g>
    </g>
    <g id="xtick_11">
     <g id="line2d_11">
      <g>
       <use xlink:href="#m2f1ec9c9e9" x="710.438531" y="288.430125" style="stroke: #000000; stroke-width: 0.8"/>
      </g>
     </g>
     <g id="text_7">
      <!-- 5h:11m -->
      <g transform="translate(691.171344 303.028562) scale(0.1 -0.1)">
       <use xlink:href="#DejaVuSans-35"/>
       <use xlink:href="#DejaVuSans-68" transform="translate(63.623047 0)"/>
       <use xlink:href="#DejaVuSans-3a" transform="translate(127.001953 0)"/>
       <use xlink:href="#DejaVuSans-31" transform="translate(160.693359 0)"/>
       <use xlink:href="#DejaVuSans-31" transform="translate(224.316406 0)"/>
       <use xlink:href="#DejaVuSans-6d" transform="translate(287.939453 0)"/>
      </g>
     </g>
    </g>
    <g id="xtick_12">
     <g id="line2d_12">
      <g>
       <use xlink:href="#m2f1ec9c9e9" x="771.218372" y="288.430125" style="stroke: #000000; stroke-width: 0.8"/>
      </g>
     </g>
     <g id="text_8">
      <!-- 15h:30m -->
      <g transform="translate(748.769935 303.028562) scale(0.1 -0.1)">
       <use xlink:href="#DejaVuSans-31"/>
       <use xlink:href="#DejaVuSans-35" transform="translate(63.623047 0)"/>
       <use xlink:href="#DejaVuSans-68" transform="translate(127.246094 0)"/>
       <use xlink:href="#DejaVuSans-3a" transform="translate(190.625 0)"/>
       <use xlink:href="#DejaVuSans-33" transform="translate(224.316406 0)"/>
       <use xlink:href="#DejaVuSans-30" transform="translate(287.939453 0)"/>
       <use xlink:href="#DejaVuSans-6d" transform="translate(351.5625 0)"/>
      </g>
     </g>
    </g>
    <g id="text_9">
     <!-- Time (hour:minute) -->
     <g transform="translate(368.403594 316.706687) scale(0.1 -0.1)">
      <defs>
       <path id="DejaVuSans-54" d="M -19 4666 
L 3928 4666 
L 3928 4134 
L 2272 4134 
L 2272 0 
L 1638 0 
L 1638 4134 
L -19 4134 
L -19 4666 
z
" transform="scale(0.015625)"/>
       <path id="DejaVuSans-69" d="M 603 3500 
L 1178 3500 
L 1178 0 
L 603 0 
L 603 3500 
z
M 603 4863 
L 1178 4863 
L 1178 4134 
L 603 4134 
L 603 4863 
z
" transform="scale(0.015625)"/>
       <path id="DejaVuSans-65" d="M 3597 1894 
L 3597 1613 
L 953 1613 
Q 991 1019 1311 708 
Q 1631 397 2203 397 
Q 2534 397 2845 478 
Q 3156 559 3463 722 
L 3463 178 
Q 3153 47 2828 -22 
Q 2503 -91 2169 -91 
Q 1331 -91 842 396 
Q 353 884 353 1716 
Q 353 2575 817 3079 
Q 1281 3584 2069 3584 
Q 2775 3584 3186 3129 
Q 3597 2675 3597 1894 
z
M 3022 2063 
Q 3016 2534 2758 2815 
Q 2500 3097 2075 3097 
Q 1594 3097 1305 2825 
Q 1016 2553 972 2059 
L 3022 2063 
z
" transform="scale(0.015625)"/>
       <path id="DejaVuSans-20" transform="scale(0.015625)"/>
       <path id="DejaVuSans-28" d="M 1984 4856 
Q 1566 4138 1362 3434 
Q 1159 2731 1159 2009 
Q 1159 1288 1364 580 
Q 1569 -128 1984 -844 
L 1484 -844 
Q 1016 -109 783 600 
Q 550 1309 550 2009 
Q 550 2706 781 3412 
Q 1013 4119 1484 4856 
L 1984 4856 
z
" transform="scale(0.015625)"/>
       <path id="DejaVuSans-6f" d="M 1959 3097 
Q 1497 3097 1228 2736 
Q 959 2375 959 1747 
Q 959 1119 1226 758 
Q 1494 397 1959 397 
Q 2419 397 2687 759 
Q 2956 1122 2956 1747 
Q 2956 2369 2687 2733 
Q 2419 3097 1959 3097 
z
M 1959 3584 
Q 2709 3584 3137 3096 
Q 3566 2609 3566 1747 
Q 3566 888 3137 398 
Q 2709 -91 1959 -91 
Q 1206 -91 779 398 
Q 353 888 353 1747 
Q 353 2609 779 3096 
Q 1206 3584 1959 3584 
z
" transform="scale(0.015625)"/>
       <path id="DejaVuSans-75" d="M 544 1381 
L 544 3500 
L 1119 3500 
L 1119 1403 
Q 1119 906 1312 657 
Q 1506 409 1894 409 
Q 2359 409 2629 706 
Q 2900 1003 2900 1516 
L 2900 3500 
L 3475 3500 
L 3475 0 
L 2900 0 
L 2900 538 
Q 2691 219 2414 64 
Q 2138 -91 1772 -91 
Q 1169 -91 856 284 
Q 544 659 544 1381 
z
M 1991 3584 
L 1991 3584 
z
" transform="scale(0.015625)"/>
       <path id="DejaVuSans-72" d="M 2631 2963 
Q 2534 3019 2420 3045 
Q 2306 3072 2169 3072 
Q 1681 3072 1420 2755 
Q 1159 2438 1159 1844 
L 1159 0 
L 581 0 
L 581 3500 
L 1159 3500 
L 1159 2956 
Q 1341 3275 1631 3429 
Q 1922 3584 2338 3584 
Q 2397 3584 2469 3576 
Q 2541 3569 2628 3553 
L 2631 2963 
z
" transform="scale(0.015625)"/>
       <path id="DejaVuSans-6e" d="M 3513 2113 
L 3513 0 
L 2938 0 
L 2938 2094 
Q 2938 2591 2744 2837 
Q 2550 3084 2163 3084 
Q 1697 3084 1428 2787 
Q 1159 2491 1159 1978 
L 1159 0 
L 581 0 
L 581 3500 
L 1159 3500 
L 1159 2956 
Q 1366 3272 1645 3428 
Q 1925 3584 2291 3584 
Q 2894 3584 3203 3211 
Q 3513 2838 3513 2113 
z
" transform="scale(0.015625)"/>
       <path id="DejaVuSans-74" d="M 1172 4494 
L 1172 3500 
L 2356 3500 
L 2356 3053 
L 1172 3053 
L 1172 1153 
Q 1172 725 1289 603 
Q 1406 481 1766 481 
L 2356 481 
L 2356 0 
L 1766 0 
Q 1100 0 847 248 
Q 594 497 594 1153 
L 594 3053 
L 172 3053 
L 172 3500 
L 594 3500 
L 594 4494 
L 1172 4494 
z
" transform="scale(0.015625)"/>
       <path id="DejaVuSans-29" d="M 513 4856 
L 1013 4856 
Q 1481 4119 1714 3412 
Q 1947 2706 1947 2009 
Q 1947 1309 1714 600 
Q 1481 -109 1013 -844 
L 513 -844 
Q 928 -128 1133 580 
Q 1338 1288 1338 2009 
Q 1338 2731 1133 3434 
Q 928 4138 513 4856 
z
" transform="scale(0.015625)"/>
      </defs>
      <use xlink:href="#DejaVuSans-54"/>
      <use xlink:href="#DejaVuSans-69" transform="translate(57.958984 0)"/>
      <use xlink:href="#DejaVuSans-6d" transform="translate(85.742188 0)"/>
      <use xlink:href="#DejaVuSans-65" transform="translate(183.154297 0)"/>
      <use xlink:href="#DejaVuSans-20" transform="translate(244.677734 0)"/>
      <use xlink:href="#DejaVuSans-28" transform="translate(276.464844 0)"/>
      <use xlink:href="#DejaVuSans-68" transform="translate(315.478516 0)"/>
      <use xlink:href="#DejaVuSans-6f" transform="translate(378.857422 0)"/>
      <use xlink:href="#DejaVuSans-75" transform="translate(440.039062 0)"/>
      <use xlink:href="#DejaVuSans-72" transform="translate(503.417969 0)"/>
      <use xlink:href="#DejaVuSans-3a" transform="translate(542.78125 0)"/>
      <use xlink:href="#DejaVuSans-6d" transform="translate(576.472656 0)"/>
      <use xlink:href="#DejaVuSans-69" transform="translate(673.884766 0)"/>
      <use xlink:href="#DejaVuSans-6e" transform="translate(701.667969 0)"/>
      <use xlink:href="#DejaVuSans-75" transform="translate(765.046875 0)"/>
      <use xlink:href="#DejaVuSans-74" transform="translate(828.425781 0)"/>
      <use xlink:href="#DejaVuSans-65" transform="translate(867.634766 0)"/>
      <use xlink:href="#DejaVuSans-29" transform="translate(929.158203 0)"/>
     </g>
    </g>
   </g>
   <g id="matplotlib.axis_2">
    <g id="ytick_1">
     <g id="line2d_13">
      <defs>
       <path id="mc640b66593" d="M 0 0 
L -3.5 0 
" style="stroke: #000000; stroke-width: 0.8"/>
      </defs>
      <g>
       <use xlink:href="#mc640b66593" x="59.690625" y="271.977822" style="stroke: #000000; stroke-width: 0.8"/>
      </g>
     </g>
     <g id="text_10">
      <!-- 7000 -->
      <g transform="translate(27.240625 275.777041) scale(0.1 -0.1)">
       <defs>
        <path id="DejaVuSans-37" d="M 525 4666 
L 3525 4666 
L 3525 4397 
L 1831 0 
L 1172 0 
L 2766 4134 
L 525 4134 
L 525 4666 
z
" transform="scale(0.015625)"/>
       </defs>
       <use xlink:href="#DejaVuSans-37"/>
       <use xlink:href="#DejaVuSans-30" transform="translate(63.623047 0)"/>
       <use xlink:href="#DejaVuSans-30" transform="translate(127.246094 0)"/>
       <use xlink:href="#DejaVuSans-30" transform="translate(190.869141 0)"/>
      </g>
     </g>
    </g>
    <g id="ytick_2">
     <g id="line2d_14">
      <g>
       <use xlink:href="#mc640b66593" x="59.690625" y="213.893789" style="stroke: #000000; stroke-width: 0.8"/>
      </g>
     </g>
     <g id="text_11">
      <!-- 8000 -->
      <g transform="translate(27.240625 217.693008) scale(0.1 -0.1)">
       <defs>
        <path id="DejaVuSans-38" d="M 2034 2216 
Q 1584 2216 1326 1975 
Q 1069 1734 1069 1313 
Q 1069 891 1326 650 
Q 1584 409 2034 409 
Q 2484 409 2743 651 
Q 3003 894 3003 1313 
Q 3003 1734 2745 1975 
Q 2488 2216 2034 2216 
z
M 1403 2484 
Q 997 2584 770 2862 
Q 544 3141 544 3541 
Q 544 4100 942 4425 
Q 1341 4750 2034 4750 
Q 2731 4750 3128 4425 
Q 3525 4100 3525 3541 
Q 3525 3141 3298 2862 
Q 3072 2584 2669 2484 
Q 3125 2378 3379 2068 
Q 3634 1759 3634 1313 
Q 3634 634 3220 271 
Q 2806 -91 2034 -91 
Q 1263 -91 848 271 
Q 434 634 434 1313 
Q 434 1759 690 2068 
Q 947 2378 1403 2484 
z
M 1172 3481 
Q 1172 3119 1398 2916 
Q 1625 2713 2034 2713 
Q 2441 2713 2670 2916 
Q 2900 3119 2900 3481 
Q 2900 3844 2670 4047 
Q 2441 4250 2034 4250 
Q 1625 4250 1398 4047 
Q 1172 3844 1172 3481 
z
" transform="scale(0.015625)"/>
       </defs>
       <use xlink:href="#DejaVuSans-38"/>
       <use xlink:href="#DejaVuSans-30" transform="translate(63.623047 0)"/>
       <use xlink:href="#DejaVuSans-30" transform="translate(127.246094 0)"/>
       <use xlink:href="#DejaVuSans-30" transform="translate(190.869141 0)"/>
      </g>
     </g>
    </g>
    <g id="ytick_3">
     <g id="line2d_15">
      <g>
       <use xlink:href="#mc640b66593" x="59.690625" y="155.809755" style="stroke: #000000; stroke-width: 0.8"/>
      </g>
     </g>
     <g id="text_12">
      <!-- 9000 -->
      <g transform="translate(27.240625 159.608974) scale(0.1 -0.1)">
       <defs>
        <path id="DejaVuSans-39" d="M 703 97 
L 703 672 
Q 941 559 1184 500 
Q 1428 441 1663 441 
Q 2288 441 2617 861 
Q 2947 1281 2994 2138 
Q 2813 1869 2534 1725 
Q 2256 1581 1919 1581 
Q 1219 1581 811 2004 
Q 403 2428 403 3163 
Q 403 3881 828 4315 
Q 1253 4750 1959 4750 
Q 2769 4750 3195 4129 
Q 3622 3509 3622 2328 
Q 3622 1225 3098 567 
Q 2575 -91 1691 -91 
Q 1453 -91 1209 -44 
Q 966 3 703 97 
z
M 1959 2075 
Q 2384 2075 2632 2365 
Q 2881 2656 2881 3163 
Q 2881 3666 2632 3958 
Q 2384 4250 1959 4250 
Q 1534 4250 1286 3958 
Q 1038 3666 1038 3163 
Q 1038 2656 1286 2365 
Q 1534 2075 1959 2075 
z
" transform="scale(0.015625)"/>
       </defs>
       <use xlink:href="#DejaVuSans-39"/>
       <use xlink:href="#DejaVuSans-30" transform="translate(63.623047 0)"/>
       <use xlink:href="#DejaVuSans-30" transform="translate(127.246094 0)"/>
       <use xlink:href="#DejaVuSans-30" transform="translate(190.869141 0)"/>
      </g>
     </g>
    </g>
    <g id="ytick_4">
     <g id="line2d_16">
      <g>
       <use xlink:href="#mc640b66593" x="59.690625" y="97.725722" style="stroke: #000000; stroke-width: 0.8"/>
      </g>
     </g>
     <g id="text_13">
      <!-- 10000 -->
      <g transform="translate(20.878125 101.52494) scale(0.1 -0.1)">
       <use xlink:href="#DejaVuSans-31"/>
       <use xlink:href="#DejaVuSans-30" transform="translate(63.623047 0)"/>
       <use xlink:href="#DejaVuSans-30" transform="translate(127.246094 0)"/>
       <use xlink:href="#DejaVuSans-30" transform="translate(190.869141 0)"/>
       <use xlink:href="#DejaVuSans-30" transform="translate(254.492188 0)"/>
      </g>
     </g>
    </g>
    <g id="ytick_5">
     <g id="line2d_17">
      <g>
       <use xlink:href="#mc640b66593" x="59.690625" y="39.641688" style="stroke: #000000; stroke-width: 0.8"/>
      </g>
     </g>
     <g id="text_14">
      <!-- 11000 -->
      <g transform="translate(20.878125 43.440907) scale(0.1 -0.1)">
       <use xlink:href="#DejaVuSans-31"/>
       <use xlink:href="#DejaVuSans-31" transform="translate(63.623047 0)"/>
       <use xlink:href="#DejaVuSans-30" transform="translate(127.246094 0)"/>
       <use xlink:href="#DejaVuSans-30" transform="translate(190.869141 0)"/>
       <use xlink:href="#DejaVuSans-30" transform="translate(254.492188 0)"/>
      </g>
     </g>
    </g>
    <g id="text_15">
     <!-- Code branch coverage -->
     <g transform="translate(14.798438 211.949125) rotate(-90) scale(0.1 -0.1)">
      <defs>
       <path id="DejaVuSans-43" d="M 4122 4306 
L 4122 3641 
Q 3803 3938 3442 4084 
Q 3081 4231 2675 4231 
Q 1875 4231 1450 3742 
Q 1025 3253 1025 2328 
Q 1025 1406 1450 917 
Q 1875 428 2675 428 
Q 3081 428 3442 575 
Q 3803 722 4122 1019 
L 4122 359 
Q 3791 134 3420 21 
Q 3050 -91 2638 -91 
Q 1578 -91 968 557 
Q 359 1206 359 2328 
Q 359 3453 968 4101 
Q 1578 4750 2638 4750 
Q 3056 4750 3426 4639 
Q 3797 4528 4122 4306 
z
" transform="scale(0.015625)"/>
       <path id="DejaVuSans-64" d="M 2906 2969 
L 2906 4863 
L 3481 4863 
L 3481 0 
L 2906 0 
L 2906 525 
Q 2725 213 2448 61 
Q 2172 -91 1784 -91 
Q 1150 -91 751 415 
Q 353 922 353 1747 
Q 353 2572 751 3078 
Q 1150 3584 1784 3584 
Q 2172 3584 2448 3432 
Q 2725 3281 2906 2969 
z
M 947 1747 
Q 947 1113 1208 752 
Q 1469 391 1925 391 
Q 2381 391 2643 752 
Q 2906 1113 2906 1747 
Q 2906 2381 2643 2742 
Q 2381 3103 1925 3103 
Q 1469 3103 1208 2742 
Q 947 2381 947 1747 
z
" transform="scale(0.015625)"/>
       <path id="DejaVuSans-62" d="M 3116 1747 
Q 3116 2381 2855 2742 
Q 2594 3103 2138 3103 
Q 1681 3103 1420 2742 
Q 1159 2381 1159 1747 
Q 1159 1113 1420 752 
Q 1681 391 2138 391 
Q 2594 391 2855 752 
Q 3116 1113 3116 1747 
z
M 1159 2969 
Q 1341 3281 1617 3432 
Q 1894 3584 2278 3584 
Q 2916 3584 3314 3078 
Q 3713 2572 3713 1747 
Q 3713 922 3314 415 
Q 2916 -91 2278 -91 
Q 1894 -91 1617 61 
Q 1341 213 1159 525 
L 1159 0 
L 581 0 
L 581 4863 
L 1159 4863 
L 1159 2969 
z
" transform="scale(0.015625)"/>
       <path id="DejaVuSans-61" d="M 2194 1759 
Q 1497 1759 1228 1600 
Q 959 1441 959 1056 
Q 959 750 1161 570 
Q 1363 391 1709 391 
Q 2188 391 2477 730 
Q 2766 1069 2766 1631 
L 2766 1759 
L 2194 1759 
z
M 3341 1997 
L 3341 0 
L 2766 0 
L 2766 531 
Q 2569 213 2275 61 
Q 1981 -91 1556 -91 
Q 1019 -91 701 211 
Q 384 513 384 1019 
Q 384 1609 779 1909 
Q 1175 2209 1959 2209 
L 2766 2209 
L 2766 2266 
Q 2766 2663 2505 2880 
Q 2244 3097 1772 3097 
Q 1472 3097 1187 3025 
Q 903 2953 641 2809 
L 641 3341 
Q 956 3463 1253 3523 
Q 1550 3584 1831 3584 
Q 2591 3584 2966 3190 
Q 3341 2797 3341 1997 
z
" transform="scale(0.015625)"/>
       <path id="DejaVuSans-63" d="M 3122 3366 
L 3122 2828 
Q 2878 2963 2633 3030 
Q 2388 3097 2138 3097 
Q 1578 3097 1268 2742 
Q 959 2388 959 1747 
Q 959 1106 1268 751 
Q 1578 397 2138 397 
Q 2388 397 2633 464 
Q 2878 531 3122 666 
L 3122 134 
Q 2881 22 2623 -34 
Q 2366 -91 2075 -91 
Q 1284 -91 818 406 
Q 353 903 353 1747 
Q 353 2603 823 3093 
Q 1294 3584 2113 3584 
Q 2378 3584 2631 3529 
Q 2884 3475 3122 3366 
z
" transform="scale(0.015625)"/>
       <path id="DejaVuSans-76" d="M 191 3500 
L 800 3500 
L 1894 563 
L 2988 3500 
L 3597 3500 
L 2284 0 
L 1503 0 
L 191 3500 
z
" transform="scale(0.015625)"/>
       <path id="DejaVuSans-67" d="M 2906 1791 
Q 2906 2416 2648 2759 
Q 2391 3103 1925 3103 
Q 1463 3103 1205 2759 
Q 947 2416 947 1791 
Q 947 1169 1205 825 
Q 1463 481 1925 481 
Q 2391 481 2648 825 
Q 2906 1169 2906 1791 
z
M 3481 434 
Q 3481 -459 3084 -895 
Q 2688 -1331 1869 -1331 
Q 1566 -1331 1297 -1286 
Q 1028 -1241 775 -1147 
L 775 -588 
Q 1028 -725 1275 -790 
Q 1522 -856 1778 -856 
Q 2344 -856 2625 -561 
Q 2906 -266 2906 331 
L 2906 616 
Q 2728 306 2450 153 
Q 2172 0 1784 0 
Q 1141 0 747 490 
Q 353 981 353 1791 
Q 353 2603 747 3093 
Q 1141 3584 1784 3584 
Q 2172 3584 2450 3431 
Q 2728 3278 2906 2969 
L 2906 3500 
L 3481 3500 
L 3481 434 
z
" transform="scale(0.015625)"/>
      </defs>
      <use xlink:href="#DejaVuSans-43"/>
      <use xlink:href="#DejaVuSans-6f" transform="translate(69.824219 0)"/>
      <use xlink:href="#DejaVuSans-64" transform="translate(131.005859 0)"/>
      <use xlink:href="#DejaVuSans-65" transform="translate(194.482422 0)"/>
      <use xlink:href="#DejaVuSans-20" transform="translate(256.005859 0)"/>
      <use xlink:href="#DejaVuSans-62" transform="translate(287.792969 0)"/>
      <use xlink:href="#DejaVuSans-72" transform="translate(351.269531 0)"/>
      <use xlink:href="#DejaVuSans-61" transform="translate(392.382812 0)"/>
      <use xlink:href="#DejaVuSans-6e" transform="translate(453.662109 0)"/>
      <use xlink:href="#DejaVuSans-63" transform="translate(517.041016 0)"/>
      <use xlink:href="#DejaVuSans-68" transform="translate(572.021484 0)"/>
      <use xlink:href="#DejaVuSans-20" transform="translate(635.400391 0)"/>
      <use xlink:href="#DejaVuSans-63" transform="translate(667.1875 0)"/>
      <use xlink:href="#DejaVuSans-6f" transform="translate(722.167969 0)"/>
      <use xlink:href="#DejaVuSans-76" transform="translate(783.349609 0)"/>
      <use xlink:href="#DejaVuSans-65" transform="translate(842.529297 0)"/>
      <use xlink:href="#DejaVuSans-72" transform="translate(904.052734 0)"/>
      <use xlink:href="#DejaVuSans-61" transform="translate(945.166016 0)"/>
      <use xlink:href="#DejaVuSans-67" transform="translate(1006.445312 0)"/>
      <use xlink:href="#DejaVuSans-65" transform="translate(1069.921875 0)"/>
     </g>
    </g>
   </g>
   <g id="line2d_18">
    <path d="M 59.690625 276.334125 
L 541.705054 88.577486 
L 580.251368 77.047806 
L 602.799516 73.243301 
L 618.797682 69.496881 
L 631.206824 66.069923 
L 641.345831 62.904343 
L 649.918239 58.257621 
L 657.343997 57.008814 
L 663.893979 56.311806 
L 669.753138 54.017486 
L 675.053392 53.088142 
L 679.892145 51.171369 
L 684.343366 50.76478 
L 688.464553 50.212982 
L 692.301286 48.760881 
L 695.890311 48.499503 
L 699.261681 48.383335 
L 702.440293 46.698898 
L 705.447003 46.408478 
L 708.299452 45.798596 
L 711.012701 45.304881 
L 713.599706 45.188713 
L 716.071694 44.724041 
L 718.438459 44.288411 
L 720.708594 44.172243 
L 722.88968 44.114159 
L 724.988442 43.620444 
L 727.010867 43.330024 
L 728.962316 43.039604 
L 730.847601 42.865352 
L 732.671062 42.778226 
L 734.436625 42.25547 
L 736.147855 41.877923 
L 737.807995 41.326125 
L 739.420009 41.093789 
L 740.986608 41.035705 
L 742.51028 41.035705 
L 743.993317 40.832411 
L 745.437829 40.512949 
L 746.845767 40.367738 
L 748.218937 40.338696 
L 749.559016 40.338696 
L 750.86756 40.338696 
L 752.146021 39.990192 
L 753.395749 39.96115 
L 754.618009 39.903066 
L 755.813981 39.874024 
L 756.984773 39.699772 
L 758.131424 39.699772 
L 759.254908 39.67073 
L 760.356144 39.554562 
L 761.435994 39.52552 
L 762.495276 39.52552 
L 763.534756 39.496478 
L 764.555162 39.409352 
L 765.557182 39.2351 
L 766.541465 38.886596 
L 767.50863 38.886596 
L 768.459261 38.886596 
L 769.393915 38.886596 
L 770.313119 38.886596 
L 771.217376 38.857554 
" clip-path="url(#pac11183e66)" style="fill: none; stroke: #c7c7c7; stroke-width: 1.5; stroke-linecap: square"/>
    <defs>
     <path id="mdd8e5011fb" d="M -3 -0 
L 3 3 
L 3 -3 
z
" style="stroke: #ffffff; stroke-width: 0.75; stroke-linejoin: miter"/>
    </defs>
    <g clip-path="url(#pac11183e66)">
     <use xlink:href="#mdd8e5011fb" x="59.690625" y="276.334125" style="fill: #c7c7c7; stroke: #ffffff; stroke-width: 0.75; stroke-linejoin: miter"/>
     <use xlink:href="#mdd8e5011fb" x="541.705054" y="88.577486" style="fill: #c7c7c7; stroke: #ffffff; stroke-width: 0.75; stroke-linejoin: miter"/>
     <use xlink:href="#mdd8e5011fb" x="580.251368" y="77.047806" style="fill: #c7c7c7; stroke: #ffffff; stroke-width: 0.75; stroke-linejoin: miter"/>
     <use xlink:href="#mdd8e5011fb" x="602.799516" y="73.243301" style="fill: #c7c7c7; stroke: #ffffff; stroke-width: 0.75; stroke-linejoin: miter"/>
     <use xlink:href="#mdd8e5011fb" x="618.797682" y="69.496881" style="fill: #c7c7c7; stroke: #ffffff; stroke-width: 0.75; stroke-linejoin: miter"/>
     <use xlink:href="#mdd8e5011fb" x="631.206824" y="66.069923" style="fill: #c7c7c7; stroke: #ffffff; stroke-width: 0.75; stroke-linejoin: miter"/>
     <use xlink:href="#mdd8e5011fb" x="641.345831" y="62.904343" style="fill: #c7c7c7; stroke: #ffffff; stroke-width: 0.75; stroke-linejoin: miter"/>
     <use xlink:href="#mdd8e5011fb" x="649.918239" y="58.257621" style="fill: #c7c7c7; stroke: #ffffff; stroke-width: 0.75; stroke-linejoin: miter"/>
     <use xlink:href="#mdd8e5011fb" x="657.343997" y="57.008814" style="fill: #c7c7c7; stroke: #ffffff; stroke-width: 0.75; stroke-linejoin: miter"/>
     <use xlink:href="#mdd8e5011fb" x="663.893979" y="56.311806" style="fill: #c7c7c7; stroke: #ffffff; stroke-width: 0.75; stroke-linejoin: miter"/>
     <use xlink:href="#mdd8e5011fb" x="669.753138" y="54.017486" style="fill: #c7c7c7; stroke: #ffffff; stroke-width: 0.75; stroke-linejoin: miter"/>
     <use xlink:href="#mdd8e5011fb" x="675.053392" y="53.088142" style="fill: #c7c7c7; stroke: #ffffff; stroke-width: 0.75; stroke-linejoin: miter"/>
     <use xlink:href="#mdd8e5011fb" x="679.892145" y="51.171369" style="fill: #c7c7c7; stroke: #ffffff; stroke-width: 0.75; stroke-linejoin: miter"/>
     <use xlink:href="#mdd8e5011fb" x="684.343366" y="50.76478" style="fill: #c7c7c7; stroke: #ffffff; stroke-width: 0.75; stroke-linejoin: miter"/>
     <use xlink:href="#mdd8e5011fb" x="688.464553" y="50.212982" style="fill: #c7c7c7; stroke: #ffffff; stroke-width: 0.75; stroke-linejoin: miter"/>
     <use xlink:href="#mdd8e5011fb" x="692.301286" y="48.760881" style="fill: #c7c7c7; stroke: #ffffff; stroke-width: 0.75; stroke-linejoin: miter"/>
     <use xlink:href="#mdd8e5011fb" x="695.890311" y="48.499503" style="fill: #c7c7c7; stroke: #ffffff; stroke-width: 0.75; stroke-linejoin: miter"/>
     <use xlink:href="#mdd8e5011fb" x="699.261681" y="48.383335" style="fill: #c7c7c7; stroke: #ffffff; stroke-width: 0.75; stroke-linejoin: miter"/>
     <use xlink:href="#mdd8e5011fb" x="702.440293" y="46.698898" style="fill: #c7c7c7; stroke: #ffffff; stroke-width: 0.75; stroke-linejoin: miter"/>
     <use xlink:href="#mdd8e5011fb" x="705.447003" y="46.408478" style="fill: #c7c7c7; stroke: #ffffff; stroke-width: 0.75; stroke-linejoin: miter"/>
     <use xlink:href="#mdd8e5011fb" x="708.299452" y="45.798596" style="fill: #c7c7c7; stroke: #ffffff; stroke-width: 0.75; stroke-linejoin: miter"/>
     <use xlink:href="#mdd8e5011fb" x="711.012701" y="45.304881" style="fill: #c7c7c7; stroke: #ffffff; stroke-width: 0.75; stroke-linejoin: miter"/>
     <use xlink:href="#mdd8e5011fb" x="713.599706" y="45.188713" style="fill: #c7c7c7; stroke: #ffffff; stroke-width: 0.75; stroke-linejoin: miter"/>
     <use xlink:href="#mdd8e5011fb" x="716.071694" y="44.724041" style="fill: #c7c7c7; stroke: #ffffff; stroke-width: 0.75; stroke-linejoin: miter"/>
     <use xlink:href="#mdd8e5011fb" x="718.438459" y="44.288411" style="fill: #c7c7c7; stroke: #ffffff; stroke-width: 0.75; stroke-linejoin: miter"/>
     <use xlink:href="#mdd8e5011fb" x="720.708594" y="44.172243" style="fill: #c7c7c7; stroke: #ffffff; stroke-width: 0.75; stroke-linejoin: miter"/>
     <use xlink:href="#mdd8e5011fb" x="722.88968" y="44.114159" style="fill: #c7c7c7; stroke: #ffffff; stroke-width: 0.75; stroke-linejoin: miter"/>
     <use xlink:href="#mdd8e5011fb" x="724.988442" y="43.620444" style="fill: #c7c7c7; stroke: #ffffff; stroke-width: 0.75; stroke-linejoin: miter"/>
     <use xlink:href="#mdd8e5011fb" x="727.010867" y="43.330024" style="fill: #c7c7c7; stroke: #ffffff; stroke-width: 0.75; stroke-linejoin: miter"/>
     <use xlink:href="#mdd8e5011fb" x="728.962316" y="43.039604" style="fill: #c7c7c7; stroke: #ffffff; stroke-width: 0.75; stroke-linejoin: miter"/>
     <use xlink:href="#mdd8e5011fb" x="730.847601" y="42.865352" style="fill: #c7c7c7; stroke: #ffffff; stroke-width: 0.75; stroke-linejoin: miter"/>
     <use xlink:href="#mdd8e5011fb" x="732.671062" y="42.778226" style="fill: #c7c7c7; stroke: #ffffff; stroke-width: 0.75; stroke-linejoin: miter"/>
     <use xlink:href="#mdd8e5011fb" x="734.436625" y="42.25547" style="fill: #c7c7c7; stroke: #ffffff; stroke-width: 0.75; stroke-linejoin: miter"/>
     <use xlink:href="#mdd8e5011fb" x="736.147855" y="41.877923" style="fill: #c7c7c7; stroke: #ffffff; stroke-width: 0.75; stroke-linejoin: miter"/>
     <use xlink:href="#mdd8e5011fb" x="737.807995" y="41.326125" style="fill: #c7c7c7; stroke: #ffffff; stroke-width: 0.75; stroke-linejoin: miter"/>
     <use xlink:href="#mdd8e5011fb" x="739.420009" y="41.093789" style="fill: #c7c7c7; stroke: #ffffff; stroke-width: 0.75; stroke-linejoin: miter"/>
     <use xlink:href="#mdd8e5011fb" x="740.986608" y="41.035705" style="fill: #c7c7c7; stroke: #ffffff; stroke-width: 0.75; stroke-linejoin: miter"/>
     <use xlink:href="#mdd8e5011fb" x="742.51028" y="41.035705" style="fill: #c7c7c7; stroke: #ffffff; stroke-width: 0.75; stroke-linejoin: miter"/>
     <use xlink:href="#mdd8e5011fb" x="743.993317" y="40.832411" style="fill: #c7c7c7; stroke: #ffffff; stroke-width: 0.75; stroke-linejoin: miter"/>
     <use xlink:href="#mdd8e5011fb" x="745.437829" y="40.512949" style="fill: #c7c7c7; stroke: #ffffff; stroke-width: 0.75; stroke-linejoin: miter"/>
     <use xlink:href="#mdd8e5011fb" x="746.845767" y="40.367738" style="fill: #c7c7c7; stroke: #ffffff; stroke-width: 0.75; stroke-linejoin: miter"/>
     <use xlink:href="#mdd8e5011fb" x="748.218937" y="40.338696" style="fill: #c7c7c7; stroke: #ffffff; stroke-width: 0.75; stroke-linejoin: miter"/>
     <use xlink:href="#mdd8e5011fb" x="749.559016" y="40.338696" style="fill: #c7c7c7; stroke: #ffffff; stroke-width: 0.75; stroke-linejoin: miter"/>
     <use xlink:href="#mdd8e5011fb" x="750.86756" y="40.338696" style="fill: #c7c7c7; stroke: #ffffff; stroke-width: 0.75; stroke-linejoin: miter"/>
     <use xlink:href="#mdd8e5011fb" x="752.146021" y="39.990192" style="fill: #c7c7c7; stroke: #ffffff; stroke-width: 0.75; stroke-linejoin: miter"/>
     <use xlink:href="#mdd8e5011fb" x="753.395749" y="39.96115" style="fill: #c7c7c7; stroke: #ffffff; stroke-width: 0.75; stroke-linejoin: miter"/>
     <use xlink:href="#mdd8e5011fb" x="754.618009" y="39.903066" style="fill: #c7c7c7; stroke: #ffffff; stroke-width: 0.75; stroke-linejoin: miter"/>
     <use xlink:href="#mdd8e5011fb" x="755.813981" y="39.874024" style="fill: #c7c7c7; stroke: #ffffff; stroke-width: 0.75; stroke-linejoin: miter"/>
     <use xlink:href="#mdd8e5011fb" x="756.984773" y="39.699772" style="fill: #c7c7c7; stroke: #ffffff; stroke-width: 0.75; stroke-linejoin: miter"/>
     <use xlink:href="#mdd8e5011fb" x="758.131424" y="39.699772" style="fill: #c7c7c7; stroke: #ffffff; stroke-width: 0.75; stroke-linejoin: miter"/>
     <use xlink:href="#mdd8e5011fb" x="759.254908" y="39.67073" style="fill: #c7c7c7; stroke: #ffffff; stroke-width: 0.75; stroke-linejoin: miter"/>
     <use xlink:href="#mdd8e5011fb" x="760.356144" y="39.554562" style="fill: #c7c7c7; stroke: #ffffff; stroke-width: 0.75; stroke-linejoin: miter"/>
     <use xlink:href="#mdd8e5011fb" x="761.435994" y="39.52552" style="fill: #c7c7c7; stroke: #ffffff; stroke-width: 0.75; stroke-linejoin: miter"/>
     <use xlink:href="#mdd8e5011fb" x="762.495276" y="39.52552" style="fill: #c7c7c7; stroke: #ffffff; stroke-width: 0.75; stroke-linejoin: miter"/>
     <use xlink:href="#mdd8e5011fb" x="763.534756" y="39.496478" style="fill: #c7c7c7; stroke: #ffffff; stroke-width: 0.75; stroke-linejoin: miter"/>
     <use xlink:href="#mdd8e5011fb" x="764.555162" y="39.409352" style="fill: #c7c7c7; stroke: #ffffff; stroke-width: 0.75; stroke-linejoin: miter"/>
     <use xlink:href="#mdd8e5011fb" x="765.557182" y="39.2351" style="fill: #c7c7c7; stroke: #ffffff; stroke-width: 0.75; stroke-linejoin: miter"/>
     <use xlink:href="#mdd8e5011fb" x="766.541465" y="38.886596" style="fill: #c7c7c7; stroke: #ffffff; stroke-width: 0.75; stroke-linejoin: miter"/>
     <use xlink:href="#mdd8e5011fb" x="767.50863" y="38.886596" style="fill: #c7c7c7; stroke: #ffffff; stroke-width: 0.75; stroke-linejoin: miter"/>
     <use xlink:href="#mdd8e5011fb" x="768.459261" y="38.886596" style="fill: #c7c7c7; stroke: #ffffff; stroke-width: 0.75; stroke-linejoin: miter"/>
     <use xlink:href="#mdd8e5011fb" x="769.393915" y="38.886596" style="fill: #c7c7c7; stroke: #ffffff; stroke-width: 0.75; stroke-linejoin: miter"/>
     <use xlink:href="#mdd8e5011fb" x="770.313119" y="38.886596" style="fill: #c7c7c7; stroke: #ffffff; stroke-width: 0.75; stroke-linejoin: miter"/>
     <use xlink:href="#mdd8e5011fb" x="771.217376" y="38.857554" style="fill: #c7c7c7; stroke: #ffffff; stroke-width: 0.75; stroke-linejoin: miter"/>
    </g>
   </g>
   <g id="line2d_19">
    <path d="M 59.690625 276.334125 
L 541.705054 96.215537 
L 580.251368 79.893923 
L 602.799516 75.479537 
L 618.797682 70.48431 
L 631.206824 66.59268 
L 641.345831 64.269318 
L 649.918239 60.84236 
L 657.343997 59.796848 
L 663.893979 59.274091 
L 669.753138 57.473486 
L 675.053392 56.95073 
L 679.892145 56.66031 
L 684.343366 55.092041 
L 688.464553 54.859705 
L 692.301286 53.291436 
L 695.890311 53.175268 
L 699.261681 53.117184 
L 702.440293 52.362091 
L 705.447003 51.839335 
L 708.299452 50.735738 
L 711.012701 50.503402 
L 713.599706 50.387234 
L 716.071694 47.773453 
L 718.438459 47.541117 
L 720.708594 47.30878 
L 722.88968 47.134528 
L 724.988442 47.076444 
L 727.010867 47.076444 
L 728.962316 47.01836 
L 730.847601 46.43752 
L 732.671062 46.379436 
L 734.436625 46.263268 
L 736.147855 46.263268 
L 737.807995 45.914764 
L 739.420009 45.624343 
L 740.986608 45.508175 
L 742.51028 45.450091 
L 743.993317 45.392007 
L 745.437829 45.333923 
L 746.845767 45.333923 
L 748.218937 45.275839 
L 749.559016 45.275839 
L 750.86756 44.288411 
L 752.146021 44.230327 
L 753.395749 44.172243 
L 754.618009 44.172243 
L 755.813981 44.172243 
L 756.984773 44.172243 
L 758.131424 44.172243 
L 759.254908 43.997991 
L 760.356144 43.41715 
L 761.435994 42.83631 
L 762.495276 42.83631 
L 763.534756 42.83631 
L 764.555162 42.83631 
L 765.557182 42.83631 
L 766.541465 42.83631 
L 767.50863 42.603974 
L 768.459261 42.54589 
L 769.393915 42.54589 
L 770.313119 42.54589 
L 771.217376 42.54589 
" clip-path="url(#pac11183e66)" style="fill: none; stroke: #1f77b4; stroke-width: 1.5; stroke-linecap: square"/>
    <defs>
     <path id="m4e17fb3de7" d="M 0 3 
C 0.795609 3 1.55874 2.683901 2.12132 2.12132 
C 2.683901 1.55874 3 0.795609 3 0 
C 3 -0.795609 2.683901 -1.55874 2.12132 -2.12132 
C 1.55874 -2.683901 0.795609 -3 0 -3 
C -0.795609 -3 -1.55874 -2.683901 -2.12132 -2.12132 
C -2.683901 -1.55874 -3 -0.795609 -3 0 
C -3 0.795609 -2.683901 1.55874 -2.12132 2.12132 
C -1.55874 2.683901 -0.795609 3 0 3 
z
" style="stroke: #ffffff; stroke-width: 0.75"/>
    </defs>
    <g clip-path="url(#pac11183e66)">
     <use xlink:href="#m4e17fb3de7" x="59.690625" y="276.334125" style="fill: #1f77b4; stroke: #ffffff; stroke-width: 0.75"/>
     <use xlink:href="#m4e17fb3de7" x="541.705054" y="96.215537" style="fill: #1f77b4; stroke: #ffffff; stroke-width: 0.75"/>
     <use xlink:href="#m4e17fb3de7" x="580.251368" y="79.893923" style="fill: #1f77b4; stroke: #ffffff; stroke-width: 0.75"/>
     <use xlink:href="#m4e17fb3de7" x="602.799516" y="75.479537" style="fill: #1f77b4; stroke: #ffffff; stroke-width: 0.75"/>
     <use xlink:href="#m4e17fb3de7" x="618.797682" y="70.48431" style="fill: #1f77b4; stroke: #ffffff; stroke-width: 0.75"/>
     <use xlink:href="#m4e17fb3de7" x="631.206824" y="66.59268" style="fill: #1f77b4; stroke: #ffffff; stroke-width: 0.75"/>
     <use xlink:href="#m4e17fb3de7" x="641.345831" y="64.269318" style="fill: #1f77b4; stroke: #ffffff; stroke-width: 0.75"/>
     <use xlink:href="#m4e17fb3de7" x="649.918239" y="60.84236" style="fill: #1f77b4; stroke: #ffffff; stroke-width: 0.75"/>
     <use xlink:href="#m4e17fb3de7" x="657.343997" y="59.796848" style="fill: #1f77b4; stroke: #ffffff; stroke-width: 0.75"/>
     <use xlink:href="#m4e17fb3de7" x="663.893979" y="59.274091" style="fill: #1f77b4; stroke: #ffffff; stroke-width: 0.75"/>
     <use xlink:href="#m4e17fb3de7" x="669.753138" y="57.473486" style="fill: #1f77b4; stroke: #ffffff; stroke-width: 0.75"/>
     <use xlink:href="#m4e17fb3de7" x="675.053392" y="56.95073" style="fill: #1f77b4; stroke: #ffffff; stroke-width: 0.75"/>
     <use xlink:href="#m4e17fb3de7" x="679.892145" y="56.66031" style="fill: #1f77b4; stroke: #ffffff; stroke-width: 0.75"/>
     <use xlink:href="#m4e17fb3de7" x="684.343366" y="55.092041" style="fill: #1f77b4; stroke: #ffffff; stroke-width: 0.75"/>
     <use xlink:href="#m4e17fb3de7" x="688.464553" y="54.859705" style="fill: #1f77b4; stroke: #ffffff; stroke-width: 0.75"/>
     <use xlink:href="#m4e17fb3de7" x="692.301286" y="53.291436" style="fill: #1f77b4; stroke: #ffffff; stroke-width: 0.75"/>
     <use xlink:href="#m4e17fb3de7" x="695.890311" y="53.175268" style="fill: #1f77b4; stroke: #ffffff; stroke-width: 0.75"/>
     <use xlink:href="#m4e17fb3de7" x="699.261681" y="53.117184" style="fill: #1f77b4; stroke: #ffffff; stroke-width: 0.75"/>
     <use xlink:href="#m4e17fb3de7" x="702.440293" y="52.362091" style="fill: #1f77b4; stroke: #ffffff; stroke-width: 0.75"/>
     <use xlink:href="#m4e17fb3de7" x="705.447003" y="51.839335" style="fill: #1f77b4; stroke: #ffffff; stroke-width: 0.75"/>
     <use xlink:href="#m4e17fb3de7" x="708.299452" y="50.735738" style="fill: #1f77b4; stroke: #ffffff; stroke-width: 0.75"/>
     <use xlink:href="#m4e17fb3de7" x="711.012701" y="50.503402" style="fill: #1f77b4; stroke: #ffffff; stroke-width: 0.75"/>
     <use xlink:href="#m4e17fb3de7" x="713.599706" y="50.387234" style="fill: #1f77b4; stroke: #ffffff; stroke-width: 0.75"/>
     <use xlink:href="#m4e17fb3de7" x="716.071694" y="47.773453" style="fill: #1f77b4; stroke: #ffffff; stroke-width: 0.75"/>
     <use xlink:href="#m4e17fb3de7" x="718.438459" y="47.541117" style="fill: #1f77b4; stroke: #ffffff; stroke-width: 0.75"/>
     <use xlink:href="#m4e17fb3de7" x="720.708594" y="47.30878" style="fill: #1f77b4; stroke: #ffffff; stroke-width: 0.75"/>
     <use xlink:href="#m4e17fb3de7" x="722.88968" y="47.134528" style="fill: #1f77b4; stroke: #ffffff; stroke-width: 0.75"/>
     <use xlink:href="#m4e17fb3de7" x="724.988442" y="47.076444" style="fill: #1f77b4; stroke: #ffffff; stroke-width: 0.75"/>
     <use xlink:href="#m4e17fb3de7" x="727.010867" y="47.076444" style="fill: #1f77b4; stroke: #ffffff; stroke-width: 0.75"/>
     <use xlink:href="#m4e17fb3de7" x="728.962316" y="47.01836" style="fill: #1f77b4; stroke: #ffffff; stroke-width: 0.75"/>
     <use xlink:href="#m4e17fb3de7" x="730.847601" y="46.43752" style="fill: #1f77b4; stroke: #ffffff; stroke-width: 0.75"/>
     <use xlink:href="#m4e17fb3de7" x="732.671062" y="46.379436" style="fill: #1f77b4; stroke: #ffffff; stroke-width: 0.75"/>
     <use xlink:href="#m4e17fb3de7" x="734.436625" y="46.263268" style="fill: #1f77b4; stroke: #ffffff; stroke-width: 0.75"/>
     <use xlink:href="#m4e17fb3de7" x="736.147855" y="46.263268" style="fill: #1f77b4; stroke: #ffffff; stroke-width: 0.75"/>
     <use xlink:href="#m4e17fb3de7" x="737.807995" y="45.914764" style="fill: #1f77b4; stroke: #ffffff; stroke-width: 0.75"/>
     <use xlink:href="#m4e17fb3de7" x="739.420009" y="45.624343" style="fill: #1f77b4; stroke: #ffffff; stroke-width: 0.75"/>
     <use xlink:href="#m4e17fb3de7" x="740.986608" y="45.508175" style="fill: #1f77b4; stroke: #ffffff; stroke-width: 0.75"/>
     <use xlink:href="#m4e17fb3de7" x="742.51028" y="45.450091" style="fill: #1f77b4; stroke: #ffffff; stroke-width: 0.75"/>
     <use xlink:href="#m4e17fb3de7" x="743.993317" y="45.392007" style="fill: #1f77b4; stroke: #ffffff; stroke-width: 0.75"/>
     <use xlink:href="#m4e17fb3de7" x="745.437829" y="45.333923" style="fill: #1f77b4; stroke: #ffffff; stroke-width: 0.75"/>
     <use xlink:href="#m4e17fb3de7" x="746.845767" y="45.333923" style="fill: #1f77b4; stroke: #ffffff; stroke-width: 0.75"/>
     <use xlink:href="#m4e17fb3de7" x="748.218937" y="45.275839" style="fill: #1f77b4; stroke: #ffffff; stroke-width: 0.75"/>
     <use xlink:href="#m4e17fb3de7" x="749.559016" y="45.275839" style="fill: #1f77b4; stroke: #ffffff; stroke-width: 0.75"/>
     <use xlink:href="#m4e17fb3de7" x="750.86756" y="44.288411" style="fill: #1f77b4; stroke: #ffffff; stroke-width: 0.75"/>
     <use xlink:href="#m4e17fb3de7" x="752.146021" y="44.230327" style="fill: #1f77b4; stroke: #ffffff; stroke-width: 0.75"/>
     <use xlink:href="#m4e17fb3de7" x="753.395749" y="44.172243" style="fill: #1f77b4; stroke: #ffffff; stroke-width: 0.75"/>
     <use xlink:href="#m4e17fb3de7" x="754.618009" y="44.172243" style="fill: #1f77b4; stroke: #ffffff; stroke-width: 0.75"/>
     <use xlink:href="#m4e17fb3de7" x="755.813981" y="44.172243" style="fill: #1f77b4; stroke: #ffffff; stroke-width: 0.75"/>
     <use xlink:href="#m4e17fb3de7" x="756.984773" y="44.172243" style="fill: #1f77b4; stroke: #ffffff; stroke-width: 0.75"/>
     <use xlink:href="#m4e17fb3de7" x="758.131424" y="44.172243" style="fill: #1f77b4; stroke: #ffffff; stroke-width: 0.75"/>
     <use xlink:href="#m4e17fb3de7" x="759.254908" y="43.997991" style="fill: #1f77b4; stroke: #ffffff; stroke-width: 0.75"/>
     <use xlink:href="#m4e17fb3de7" x="760.356144" y="43.41715" style="fill: #1f77b4; stroke: #ffffff; stroke-width: 0.75"/>
     <use xlink:href="#m4e17fb3de7" x="761.435994" y="42.83631" style="fill: #1f77b4; stroke: #ffffff; stroke-width: 0.75"/>
     <use xlink:href="#m4e17fb3de7" x="762.495276" y="42.83631" style="fill: #1f77b4; stroke: #ffffff; stroke-width: 0.75"/>
     <use xlink:href="#m4e17fb3de7" x="763.534756" y="42.83631" style="fill: #1f77b4; stroke: #ffffff; stroke-width: 0.75"/>
     <use xlink:href="#m4e17fb3de7" x="764.555162" y="42.83631" style="fill: #1f77b4; stroke: #ffffff; stroke-width: 0.75"/>
     <use xlink:href="#m4e17fb3de7" x="765.557182" y="42.83631" style="fill: #1f77b4; stroke: #ffffff; stroke-width: 0.75"/>
     <use xlink:href="#m4e17fb3de7" x="766.541465" y="42.83631" style="fill: #1f77b4; stroke: #ffffff; stroke-width: 0.75"/>
     <use xlink:href="#m4e17fb3de7" x="767.50863" y="42.603974" style="fill: #1f77b4; stroke: #ffffff; stroke-width: 0.75"/>
     <use xlink:href="#m4e17fb3de7" x="768.459261" y="42.54589" style="fill: #1f77b4; stroke: #ffffff; stroke-width: 0.75"/>
     <use xlink:href="#m4e17fb3de7" x="769.393915" y="42.54589" style="fill: #1f77b4; stroke: #ffffff; stroke-width: 0.75"/>
     <use xlink:href="#m4e17fb3de7" x="770.313119" y="42.54589" style="fill: #1f77b4; stroke: #ffffff; stroke-width: 0.75"/>
     <use xlink:href="#m4e17fb3de7" x="771.217376" y="42.54589" style="fill: #1f77b4; stroke: #ffffff; stroke-width: 0.75"/>
    </g>
   </g>
   <g id="line2d_20">
    <path d="M 59.690625 276.334125 
L 541.705054 95.460444 
L 580.251368 83.785554 
L 602.799516 77.338226 
L 618.797682 73.7951 
L 631.206824 70.600478 
L 641.345831 68.335201 
L 649.918239 66.8831 
L 657.343997 65.605251 
L 663.893979 60.958528 
L 669.753138 59.796848 
L 675.053392 59.041755 
L 679.892145 58.286663 
L 684.343366 57.124982 
L 688.464553 56.544142 
L 692.301286 56.07947 
L 695.890311 55.150125 
L 699.261681 54.975873 
L 702.440293 54.859705 
L 705.447003 54.859705 
L 708.299452 54.801621 
L 711.012701 54.801621 
L 713.599706 54.801621 
L 716.071694 54.801621 
L 718.438459 54.453117 
L 720.708594 54.278864 
L 722.88968 54.22078 
L 724.988442 54.162696 
L 727.010867 53.872276 
L 728.962316 53.872276 
L 730.847601 53.756108 
L 732.671062 53.756108 
L 734.436625 53.63994 
L 736.147855 53.63994 
L 737.807995 53.175268 
L 739.420009 53.175268 
L 740.986608 53.117184 
L 742.51028 53.117184 
L 743.993317 52.420175 
L 745.437829 52.245923 
L 746.845767 52.187839 
L 748.218937 49.922562 
L 749.559016 49.864478 
L 750.86756 49.806394 
L 752.146021 49.574058 
L 753.395749 49.45789 
L 754.618009 49.399806 
L 755.813981 48.818965 
L 756.984773 48.702797 
L 758.131424 47.657285 
L 759.254908 47.30878 
L 760.356144 46.786024 
L 761.435994 46.495604 
L 762.495276 46.321352 
L 763.534756 46.321352 
L 764.555162 46.263268 
L 765.557182 46.205184 
L 766.541465 45.914764 
L 767.50863 45.682428 
L 768.459261 45.508175 
L 769.393915 45.450091 
L 770.313119 45.450091 
L 771.217376 44.346495 
" clip-path="url(#pac11183e66)" style="fill: none; stroke: #d62728; stroke-width: 1.5; stroke-linecap: square"/>
    <defs>
     <path id="m55dfa66dec" d="M 0 -3 
L -3 3 
L 3 3 
z
" style="stroke: #ffffff; stroke-width: 0.75; stroke-linejoin: miter"/>
    </defs>
    <g clip-path="url(#pac11183e66)">
     <use xlink:href="#m55dfa66dec" x="59.690625" y="276.334125" style="fill: #d62728; stroke: #ffffff; stroke-width: 0.75; stroke-linejoin: miter"/>
     <use xlink:href="#m55dfa66dec" x="541.705054" y="95.460444" style="fill: #d62728; stroke: #ffffff; stroke-width: 0.75; stroke-linejoin: miter"/>
     <use xlink:href="#m55dfa66dec" x="580.251368" y="83.785554" style="fill: #d62728; stroke: #ffffff; stroke-width: 0.75; stroke-linejoin: miter"/>
     <use xlink:href="#m55dfa66dec" x="602.799516" y="77.338226" style="fill: #d62728; stroke: #ffffff; stroke-width: 0.75; stroke-linejoin: miter"/>
     <use xlink:href="#m55dfa66dec" x="618.797682" y="73.7951" style="fill: #d62728; stroke: #ffffff; stroke-width: 0.75; stroke-linejoin: miter"/>
     <use xlink:href="#m55dfa66dec" x="631.206824" y="70.600478" style="fill: #d62728; stroke: #ffffff; stroke-width: 0.75; stroke-linejoin: miter"/>
     <use xlink:href="#m55dfa66dec" x="641.345831" y="68.335201" style="fill: #d62728; stroke: #ffffff; stroke-width: 0.75; stroke-linejoin: miter"/>
     <use xlink:href="#m55dfa66dec" x="649.918239" y="66.8831" style="fill: #d62728; stroke: #ffffff; stroke-width: 0.75; stroke-linejoin: miter"/>
     <use xlink:href="#m55dfa66dec" x="657.343997" y="65.605251" style="fill: #d62728; stroke: #ffffff; stroke-width: 0.75; stroke-linejoin: miter"/>
     <use xlink:href="#m55dfa66dec" x="663.893979" y="60.958528" style="fill: #d62728; stroke: #ffffff; stroke-width: 0.75; stroke-linejoin: miter"/>
     <use xlink:href="#m55dfa66dec" x="669.753138" y="59.796848" style="fill: #d62728; stroke: #ffffff; stroke-width: 0.75; stroke-linejoin: miter"/>
     <use xlink:href="#m55dfa66dec" x="675.053392" y="59.041755" style="fill: #d62728; stroke: #ffffff; stroke-width: 0.75; stroke-linejoin: miter"/>
     <use xlink:href="#m55dfa66dec" x="679.892145" y="58.286663" style="fill: #d62728; stroke: #ffffff; stroke-width: 0.75; stroke-linejoin: miter"/>
     <use xlink:href="#m55dfa66dec" x="684.343366" y="57.124982" style="fill: #d62728; stroke: #ffffff; stroke-width: 0.75; stroke-linejoin: miter"/>
     <use xlink:href="#m55dfa66dec" x="688.464553" y="56.544142" style="fill: #d62728; stroke: #ffffff; stroke-width: 0.75; stroke-linejoin: miter"/>
     <use xlink:href="#m55dfa66dec" x="692.301286" y="56.07947" style="fill: #d62728; stroke: #ffffff; stroke-width: 0.75; stroke-linejoin: miter"/>
     <use xlink:href="#m55dfa66dec" x="695.890311" y="55.150125" style="fill: #d62728; stroke: #ffffff; stroke-width: 0.75; stroke-linejoin: miter"/>
     <use xlink:href="#m55dfa66dec" x="699.261681" y="54.975873" style="fill: #d62728; stroke: #ffffff; stroke-width: 0.75; stroke-linejoin: miter"/>
     <use xlink:href="#m55dfa66dec" x="702.440293" y="54.859705" style="fill: #d62728; stroke: #ffffff; stroke-width: 0.75; stroke-linejoin: miter"/>
     <use xlink:href="#m55dfa66dec" x="705.447003" y="54.859705" style="fill: #d62728; stroke: #ffffff; stroke-width: 0.75; stroke-linejoin: miter"/>
     <use xlink:href="#m55dfa66dec" x="708.299452" y="54.801621" style="fill: #d62728; stroke: #ffffff; stroke-width: 0.75; stroke-linejoin: miter"/>
     <use xlink:href="#m55dfa66dec" x="711.012701" y="54.801621" style="fill: #d62728; stroke: #ffffff; stroke-width: 0.75; stroke-linejoin: miter"/>
     <use xlink:href="#m55dfa66dec" x="713.599706" y="54.801621" style="fill: #d62728; stroke: #ffffff; stroke-width: 0.75; stroke-linejoin: miter"/>
     <use xlink:href="#m55dfa66dec" x="716.071694" y="54.801621" style="fill: #d62728; stroke: #ffffff; stroke-width: 0.75; stroke-linejoin: miter"/>
     <use xlink:href="#m55dfa66dec" x="718.438459" y="54.453117" style="fill: #d62728; stroke: #ffffff; stroke-width: 0.75; stroke-linejoin: miter"/>
     <use xlink:href="#m55dfa66dec" x="720.708594" y="54.278864" style="fill: #d62728; stroke: #ffffff; stroke-width: 0.75; stroke-linejoin: miter"/>
     <use xlink:href="#m55dfa66dec" x="722.88968" y="54.22078" style="fill: #d62728; stroke: #ffffff; stroke-width: 0.75; stroke-linejoin: miter"/>
     <use xlink:href="#m55dfa66dec" x="724.988442" y="54.162696" style="fill: #d62728; stroke: #ffffff; stroke-width: 0.75; stroke-linejoin: miter"/>
     <use xlink:href="#m55dfa66dec" x="727.010867" y="53.872276" style="fill: #d62728; stroke: #ffffff; stroke-width: 0.75; stroke-linejoin: miter"/>
     <use xlink:href="#m55dfa66dec" x="728.962316" y="53.872276" style="fill: #d62728; stroke: #ffffff; stroke-width: 0.75; stroke-linejoin: miter"/>
     <use xlink:href="#m55dfa66dec" x="730.847601" y="53.756108" style="fill: #d62728; stroke: #ffffff; stroke-width: 0.75; stroke-linejoin: miter"/>
     <use xlink:href="#m55dfa66dec" x="732.671062" y="53.756108" style="fill: #d62728; stroke: #ffffff; stroke-width: 0.75; stroke-linejoin: miter"/>
     <use xlink:href="#m55dfa66dec" x="734.436625" y="53.63994" style="fill: #d62728; stroke: #ffffff; stroke-width: 0.75; stroke-linejoin: miter"/>
     <use xlink:href="#m55dfa66dec" x="736.147855" y="53.63994" style="fill: #d62728; stroke: #ffffff; stroke-width: 0.75; stroke-linejoin: miter"/>
     <use xlink:href="#m55dfa66dec" x="737.807995" y="53.175268" style="fill: #d62728; stroke: #ffffff; stroke-width: 0.75; stroke-linejoin: miter"/>
     <use xlink:href="#m55dfa66dec" x="739.420009" y="53.175268" style="fill: #d62728; stroke: #ffffff; stroke-width: 0.75; stroke-linejoin: miter"/>
     <use xlink:href="#m55dfa66dec" x="740.986608" y="53.117184" style="fill: #d62728; stroke: #ffffff; stroke-width: 0.75; stroke-linejoin: miter"/>
     <use xlink:href="#m55dfa66dec" x="742.51028" y="53.117184" style="fill: #d62728; stroke: #ffffff; stroke-width: 0.75; stroke-linejoin: miter"/>
     <use xlink:href="#m55dfa66dec" x="743.993317" y="52.420175" style="fill: #d62728; stroke: #ffffff; stroke-width: 0.75; stroke-linejoin: miter"/>
     <use xlink:href="#m55dfa66dec" x="745.437829" y="52.245923" style="fill: #d62728; stroke: #ffffff; stroke-width: 0.75; stroke-linejoin: miter"/>
     <use xlink:href="#m55dfa66dec" x="746.845767" y="52.187839" style="fill: #d62728; stroke: #ffffff; stroke-width: 0.75; stroke-linejoin: miter"/>
     <use xlink:href="#m55dfa66dec" x="748.218937" y="49.922562" style="fill: #d62728; stroke: #ffffff; stroke-width: 0.75; stroke-linejoin: miter"/>
     <use xlink:href="#m55dfa66dec" x="749.559016" y="49.864478" style="fill: #d62728; stroke: #ffffff; stroke-width: 0.75; stroke-linejoin: miter"/>
     <use xlink:href="#m55dfa66dec" x="750.86756" y="49.806394" style="fill: #d62728; stroke: #ffffff; stroke-width: 0.75; stroke-linejoin: miter"/>
     <use xlink:href="#m55dfa66dec" x="752.146021" y="49.574058" style="fill: #d62728; stroke: #ffffff; stroke-width: 0.75; stroke-linejoin: miter"/>
     <use xlink:href="#m55dfa66dec" x="753.395749" y="49.45789" style="fill: #d62728; stroke: #ffffff; stroke-width: 0.75; stroke-linejoin: miter"/>
     <use xlink:href="#m55dfa66dec" x="754.618009" y="49.399806" style="fill: #d62728; stroke: #ffffff; stroke-width: 0.75; stroke-linejoin: miter"/>
     <use xlink:href="#m55dfa66dec" x="755.813981" y="48.818965" style="fill: #d62728; stroke: #ffffff; stroke-width: 0.75; stroke-linejoin: miter"/>
     <use xlink:href="#m55dfa66dec" x="756.984773" y="48.702797" style="fill: #d62728; stroke: #ffffff; stroke-width: 0.75; stroke-linejoin: miter"/>
     <use xlink:href="#m55dfa66dec" x="758.131424" y="47.657285" style="fill: #d62728; stroke: #ffffff; stroke-width: 0.75; stroke-linejoin: miter"/>
     <use xlink:href="#m55dfa66dec" x="759.254908" y="47.30878" style="fill: #d62728; stroke: #ffffff; stroke-width: 0.75; stroke-linejoin: miter"/>
     <use xlink:href="#m55dfa66dec" x="760.356144" y="46.786024" style="fill: #d62728; stroke: #ffffff; stroke-width: 0.75; stroke-linejoin: miter"/>
     <use xlink:href="#m55dfa66dec" x="761.435994" y="46.495604" style="fill: #d62728; stroke: #ffffff; stroke-width: 0.75; stroke-linejoin: miter"/>
     <use xlink:href="#m55dfa66dec" x="762.495276" y="46.321352" style="fill: #d62728; stroke: #ffffff; stroke-width: 0.75; stroke-linejoin: miter"/>
     <use xlink:href="#m55dfa66dec" x="763.534756" y="46.321352" style="fill: #d62728; stroke: #ffffff; stroke-width: 0.75; stroke-linejoin: miter"/>
     <use xlink:href="#m55dfa66dec" x="764.555162" y="46.263268" style="fill: #d62728; stroke: #ffffff; stroke-width: 0.75; stroke-linejoin: miter"/>
     <use xlink:href="#m55dfa66dec" x="765.557182" y="46.205184" style="fill: #d62728; stroke: #ffffff; stroke-width: 0.75; stroke-linejoin: miter"/>
     <use xlink:href="#m55dfa66dec" x="766.541465" y="45.914764" style="fill: #d62728; stroke: #ffffff; stroke-width: 0.75; stroke-linejoin: miter"/>
     <use xlink:href="#m55dfa66dec" x="767.50863" y="45.682428" style="fill: #d62728; stroke: #ffffff; stroke-width: 0.75; stroke-linejoin: miter"/>
     <use xlink:href="#m55dfa66dec" x="768.459261" y="45.508175" style="fill: #d62728; stroke: #ffffff; stroke-width: 0.75; stroke-linejoin: miter"/>
     <use xlink:href="#m55dfa66dec" x="769.393915" y="45.450091" style="fill: #d62728; stroke: #ffffff; stroke-width: 0.75; stroke-linejoin: miter"/>
     <use xlink:href="#m55dfa66dec" x="770.313119" y="45.450091" style="fill: #d62728; stroke: #ffffff; stroke-width: 0.75; stroke-linejoin: miter"/>
     <use xlink:href="#m55dfa66dec" x="771.217376" y="44.346495" style="fill: #d62728; stroke: #ffffff; stroke-width: 0.75; stroke-linejoin: miter"/>
    </g>
   </g>
   <g id="line2d_21">
    <path d="M 59.690625 276.334125 
L 541.705054 91.684982 
L 580.251368 78.151402 
L 602.799516 70.426226 
L 618.797682 68.335201 
L 631.206824 64.269318 
L 641.345831 62.120209 
L 649.918239 59.041755 
L 657.343997 57.124982 
L 663.893979 55.847133 
L 669.753138 55.556713 
L 675.053392 55.382461 
L 679.892145 54.104612 
L 684.343366 54.046528 
L 688.464553 53.988444 
L 692.301286 53.988444 
L 695.890311 53.814192 
L 699.261681 53.581856 
L 702.440293 53.465688 
L 705.447003 53.34952 
L 708.299452 52.884848 
L 711.012701 52.129755 
L 713.599706 51.897419 
L 716.071694 51.897419 
L 718.438459 51.839335 
L 720.708594 51.548915 
L 722.88968 51.548915 
L 724.988442 51.548915 
L 727.010867 51.490831 
L 728.962316 51.432747 
L 730.847601 50.32915 
L 732.671062 50.212982 
L 734.436625 49.806394 
L 736.147855 49.690226 
L 737.807995 49.051301 
L 739.420009 49.051301 
L 740.986608 48.935133 
L 742.51028 47.250696 
L 743.993317 44.869251 
L 745.437829 44.404579 
L 746.845767 44.230327 
L 748.218937 44.230327 
L 749.559016 44.114159 
L 750.86756 44.114159 
L 752.146021 44.056075 
L 753.395749 44.056075 
L 754.618009 43.939907 
L 755.813981 43.939907 
L 756.984773 43.939907 
L 758.131424 43.939907 
L 759.254908 43.939907 
L 760.356144 43.939907 
L 761.435994 43.823738 
L 762.495276 43.823738 
L 763.534756 43.823738 
L 764.555162 43.823738 
L 765.557182 43.70757 
L 766.541465 43.70757 
L 767.50863 43.649486 
L 768.459261 43.591402 
L 769.393915 43.010562 
L 770.313119 42.952478 
L 771.217376 42.371638 
" clip-path="url(#pac11183e66)" style="fill: none; stroke: #98df8a; stroke-width: 1.5; stroke-linecap: square"/>
    <defs>
     <path id="m2d6b841a63" d="M -0 3 
L 3 -3 
L -3 -3 
z
" style="stroke: #ffffff; stroke-width: 0.75; stroke-linejoin: miter"/>
    </defs>
    <g clip-path="url(#pac11183e66)">
     <use xlink:href="#m2d6b841a63" x="59.690625" y="276.334125" style="fill: #98df8a; stroke: #ffffff; stroke-width: 0.75; stroke-linejoin: miter"/>
     <use xlink:href="#m2d6b841a63" x="541.705054" y="91.684982" style="fill: #98df8a; stroke: #ffffff; stroke-width: 0.75; stroke-linejoin: miter"/>
     <use xlink:href="#m2d6b841a63" x="580.251368" y="78.151402" style="fill: #98df8a; stroke: #ffffff; stroke-width: 0.75; stroke-linejoin: miter"/>
     <use xlink:href="#m2d6b841a63" x="602.799516" y="70.426226" style="fill: #98df8a; stroke: #ffffff; stroke-width: 0.75; stroke-linejoin: miter"/>
     <use xlink:href="#m2d6b841a63" x="618.797682" y="68.335201" style="fill: #98df8a; stroke: #ffffff; stroke-width: 0.75; stroke-linejoin: miter"/>
     <use xlink:href="#m2d6b841a63" x="631.206824" y="64.269318" style="fill: #98df8a; stroke: #ffffff; stroke-width: 0.75; stroke-linejoin: miter"/>
     <use xlink:href="#m2d6b841a63" x="641.345831" y="62.120209" style="fill: #98df8a; stroke: #ffffff; stroke-width: 0.75; stroke-linejoin: miter"/>
     <use xlink:href="#m2d6b841a63" x="649.918239" y="59.041755" style="fill: #98df8a; stroke: #ffffff; stroke-width: 0.75; stroke-linejoin: miter"/>
     <use xlink:href="#m2d6b841a63" x="657.343997" y="57.124982" style="fill: #98df8a; stroke: #ffffff; stroke-width: 0.75; stroke-linejoin: miter"/>
     <use xlink:href="#m2d6b841a63" x="663.893979" y="55.847133" style="fill: #98df8a; stroke: #ffffff; stroke-width: 0.75; stroke-linejoin: miter"/>
     <use xlink:href="#m2d6b841a63" x="669.753138" y="55.556713" style="fill: #98df8a; stroke: #ffffff; stroke-width: 0.75; stroke-linejoin: miter"/>
     <use xlink:href="#m2d6b841a63" x="675.053392" y="55.382461" style="fill: #98df8a; stroke: #ffffff; stroke-width: 0.75; stroke-linejoin: miter"/>
     <use xlink:href="#m2d6b841a63" x="679.892145" y="54.104612" style="fill: #98df8a; stroke: #ffffff; stroke-width: 0.75; stroke-linejoin: miter"/>
     <use xlink:href="#m2d6b841a63" x="684.343366" y="54.046528" style="fill: #98df8a; stroke: #ffffff; stroke-width: 0.75; stroke-linejoin: miter"/>
     <use xlink:href="#m2d6b841a63" x="688.464553" y="53.988444" style="fill: #98df8a; stroke: #ffffff; stroke-width: 0.75; stroke-linejoin: miter"/>
     <use xlink:href="#m2d6b841a63" x="692.301286" y="53.988444" style="fill: #98df8a; stroke: #ffffff; stroke-width: 0.75; stroke-linejoin: miter"/>
     <use xlink:href="#m2d6b841a63" x="695.890311" y="53.814192" style="fill: #98df8a; stroke: #ffffff; stroke-width: 0.75; stroke-linejoin: miter"/>
     <use xlink:href="#m2d6b841a63" x="699.261681" y="53.581856" style="fill: #98df8a; stroke: #ffffff; stroke-width: 0.75; stroke-linejoin: miter"/>
     <use xlink:href="#m2d6b841a63" x="702.440293" y="53.465688" style="fill: #98df8a; stroke: #ffffff; stroke-width: 0.75; stroke-linejoin: miter"/>
     <use xlink:href="#m2d6b841a63" x="705.447003" y="53.34952" style="fill: #98df8a; stroke: #ffffff; stroke-width: 0.75; stroke-linejoin: miter"/>
     <use xlink:href="#m2d6b841a63" x="708.299452" y="52.884848" style="fill: #98df8a; stroke: #ffffff; stroke-width: 0.75; stroke-linejoin: miter"/>
     <use xlink:href="#m2d6b841a63" x="711.012701" y="52.129755" style="fill: #98df8a; stroke: #ffffff; stroke-width: 0.75; stroke-linejoin: miter"/>
     <use xlink:href="#m2d6b841a63" x="713.599706" y="51.897419" style="fill: #98df8a; stroke: #ffffff; stroke-width: 0.75; stroke-linejoin: miter"/>
     <use xlink:href="#m2d6b841a63" x="716.071694" y="51.897419" style="fill: #98df8a; stroke: #ffffff; stroke-width: 0.75; stroke-linejoin: miter"/>
     <use xlink:href="#m2d6b841a63" x="718.438459" y="51.839335" style="fill: #98df8a; stroke: #ffffff; stroke-width: 0.75; stroke-linejoin: miter"/>
     <use xlink:href="#m2d6b841a63" x="720.708594" y="51.548915" style="fill: #98df8a; stroke: #ffffff; stroke-width: 0.75; stroke-linejoin: miter"/>
     <use xlink:href="#m2d6b841a63" x="722.88968" y="51.548915" style="fill: #98df8a; stroke: #ffffff; stroke-width: 0.75; stroke-linejoin: miter"/>
     <use xlink:href="#m2d6b841a63" x="724.988442" y="51.548915" style="fill: #98df8a; stroke: #ffffff; stroke-width: 0.75; stroke-linejoin: miter"/>
     <use xlink:href="#m2d6b841a63" x="727.010867" y="51.490831" style="fill: #98df8a; stroke: #ffffff; stroke-width: 0.75; stroke-linejoin: miter"/>
     <use xlink:href="#m2d6b841a63" x="728.962316" y="51.432747" style="fill: #98df8a; stroke: #ffffff; stroke-width: 0.75; stroke-linejoin: miter"/>
     <use xlink:href="#m2d6b841a63" x="730.847601" y="50.32915" style="fill: #98df8a; stroke: #ffffff; stroke-width: 0.75; stroke-linejoin: miter"/>
     <use xlink:href="#m2d6b841a63" x="732.671062" y="50.212982" style="fill: #98df8a; stroke: #ffffff; stroke-width: 0.75; stroke-linejoin: miter"/>
     <use xlink:href="#m2d6b841a63" x="734.436625" y="49.806394" style="fill: #98df8a; stroke: #ffffff; stroke-width: 0.75; stroke-linejoin: miter"/>
     <use xlink:href="#m2d6b841a63" x="736.147855" y="49.690226" style="fill: #98df8a; stroke: #ffffff; stroke-width: 0.75; stroke-linejoin: miter"/>
     <use xlink:href="#m2d6b841a63" x="737.807995" y="49.051301" style="fill: #98df8a; stroke: #ffffff; stroke-width: 0.75; stroke-linejoin: miter"/>
     <use xlink:href="#m2d6b841a63" x="739.420009" y="49.051301" style="fill: #98df8a; stroke: #ffffff; stroke-width: 0.75; stroke-linejoin: miter"/>
     <use xlink:href="#m2d6b841a63" x="740.986608" y="48.935133" style="fill: #98df8a; stroke: #ffffff; stroke-width: 0.75; stroke-linejoin: miter"/>
     <use xlink:href="#m2d6b841a63" x="742.51028" y="47.250696" style="fill: #98df8a; stroke: #ffffff; stroke-width: 0.75; stroke-linejoin: miter"/>
     <use xlink:href="#m2d6b841a63" x="743.993317" y="44.869251" style="fill: #98df8a; stroke: #ffffff; stroke-width: 0.75; stroke-linejoin: miter"/>
     <use xlink:href="#m2d6b841a63" x="745.437829" y="44.404579" style="fill: #98df8a; stroke: #ffffff; stroke-width: 0.75; stroke-linejoin: miter"/>
     <use xlink:href="#m2d6b841a63" x="746.845767" y="44.230327" style="fill: #98df8a; stroke: #ffffff; stroke-width: 0.75; stroke-linejoin: miter"/>
     <use xlink:href="#m2d6b841a63" x="748.218937" y="44.230327" style="fill: #98df8a; stroke: #ffffff; stroke-width: 0.75; stroke-linejoin: miter"/>
     <use xlink:href="#m2d6b841a63" x="749.559016" y="44.114159" style="fill: #98df8a; stroke: #ffffff; stroke-width: 0.75; stroke-linejoin: miter"/>
     <use xlink:href="#m2d6b841a63" x="750.86756" y="44.114159" style="fill: #98df8a; stroke: #ffffff; stroke-width: 0.75; stroke-linejoin: miter"/>
     <use xlink:href="#m2d6b841a63" x="752.146021" y="44.056075" style="fill: #98df8a; stroke: #ffffff; stroke-width: 0.75; stroke-linejoin: miter"/>
     <use xlink:href="#m2d6b841a63" x="753.395749" y="44.056075" style="fill: #98df8a; stroke: #ffffff; stroke-width: 0.75; stroke-linejoin: miter"/>
     <use xlink:href="#m2d6b841a63" x="754.618009" y="43.939907" style="fill: #98df8a; stroke: #ffffff; stroke-width: 0.75; stroke-linejoin: miter"/>
     <use xlink:href="#m2d6b841a63" x="755.813981" y="43.939907" style="fill: #98df8a; stroke: #ffffff; stroke-width: 0.75; stroke-linejoin: miter"/>
     <use xlink:href="#m2d6b841a63" x="756.984773" y="43.939907" style="fill: #98df8a; stroke: #ffffff; stroke-width: 0.75; stroke-linejoin: miter"/>
     <use xlink:href="#m2d6b841a63" x="758.131424" y="43.939907" style="fill: #98df8a; stroke: #ffffff; stroke-width: 0.75; stroke-linejoin: miter"/>
     <use xlink:href="#m2d6b841a63" x="759.254908" y="43.939907" style="fill: #98df8a; stroke: #ffffff; stroke-width: 0.75; stroke-linejoin: miter"/>
     <use xlink:href="#m2d6b841a63" x="760.356144" y="43.939907" style="fill: #98df8a; stroke: #ffffff; stroke-width: 0.75; stroke-linejoin: miter"/>
     <use xlink:href="#m2d6b841a63" x="761.435994" y="43.823738" style="fill: #98df8a; stroke: #ffffff; stroke-width: 0.75; stroke-linejoin: miter"/>
     <use xlink:href="#m2d6b841a63" x="762.495276" y="43.823738" style="fill: #98df8a; stroke: #ffffff; stroke-width: 0.75; stroke-linejoin: miter"/>
     <use xlink:href="#m2d6b841a63" x="763.534756" y="43.823738" style="fill: #98df8a; stroke: #ffffff; stroke-width: 0.75; stroke-linejoin: miter"/>
     <use xlink:href="#m2d6b841a63" x="764.555162" y="43.823738" style="fill: #98df8a; stroke: #ffffff; stroke-width: 0.75; stroke-linejoin: miter"/>
     <use xlink:href="#m2d6b841a63" x="765.557182" y="43.70757" style="fill: #98df8a; stroke: #ffffff; stroke-width: 0.75; stroke-linejoin: miter"/>
     <use xlink:href="#m2d6b841a63" x="766.541465" y="43.70757" style="fill: #98df8a; stroke: #ffffff; stroke-width: 0.75; stroke-linejoin: miter"/>
     <use xlink:href="#m2d6b841a63" x="767.50863" y="43.649486" style="fill: #98df8a; stroke: #ffffff; stroke-width: 0.75; stroke-linejoin: miter"/>
     <use xlink:href="#m2d6b841a63" x="768.459261" y="43.591402" style="fill: #98df8a; stroke: #ffffff; stroke-width: 0.75; stroke-linejoin: miter"/>
     <use xlink:href="#m2d6b841a63" x="769.393915" y="43.010562" style="fill: #98df8a; stroke: #ffffff; stroke-width: 0.75; stroke-linejoin: miter"/>
     <use xlink:href="#m2d6b841a63" x="770.313119" y="42.952478" style="fill: #98df8a; stroke: #ffffff; stroke-width: 0.75; stroke-linejoin: miter"/>
     <use xlink:href="#m2d6b841a63" x="771.217376" y="42.371638" style="fill: #98df8a; stroke: #ffffff; stroke-width: 0.75; stroke-linejoin: miter"/>
    </g>
   </g>
   <g id="line2d_22"/>
   <g id="line2d_23"/>
   <g id="line2d_24"/>
   <g id="line2d_25"/>
   <g id="line2d_26">
    <path d="M 771.217376 288.430125 
L 771.217376 22.318125 
" clip-path="url(#pac11183e66)" style="fill: none; stroke: #ff0000; stroke-width: 1.5; stroke-linecap: square"/>
   </g>
   <g id="patch_3">
    <path d="M 59.690625 271.977822 
L 59.690625 39.641688 
" style="fill: none; stroke: #000000; stroke-width: 0.8; stroke-linejoin: miter; stroke-linecap: square"/>
   </g>
   <g id="patch_4">
    <path d="M 59.690625 288.430125 
L 771.218372 288.430125 
" style="fill: none; stroke: #000000; stroke-width: 0.8; stroke-linejoin: miter; stroke-linecap: square"/>
   </g>
   <g id="text_16">
    <!-- curl_curl_fuzzer_http (15h:30m, at least 4 trials/fuzzer) -->
    <g transform="translate(251.884688 16.318125) scale(0.12 -0.12)">
     <defs>
      <path id="DejaVuSans-6c" d="M 603 4863 
L 1178 4863 
L 1178 0 
L 603 0 
L 603 4863 
z
" transform="scale(0.015625)"/>
      <path id="DejaVuSans-5f" d="M 3263 -1063 
L 3263 -1509 
L -63 -1509 
L -63 -1063 
L 3263 -1063 
z
" transform="scale(0.015625)"/>
      <path id="DejaVuSans-66" d="M 2375 4863 
L 2375 4384 
L 1825 4384 
Q 1516 4384 1395 4259 
Q 1275 4134 1275 3809 
L 1275 3500 
L 2222 3500 
L 2222 3053 
L 1275 3053 
L 1275 0 
L 697 0 
L 697 3053 
L 147 3053 
L 147 3500 
L 697 3500 
L 697 3744 
Q 697 4328 969 4595 
Q 1241 4863 1831 4863 
L 2375 4863 
z
" transform="scale(0.015625)"/>
      <path id="DejaVuSans-7a" d="M 353 3500 
L 3084 3500 
L 3084 2975 
L 922 459 
L 3084 459 
L 3084 0 
L 275 0 
L 275 525 
L 2438 3041 
L 353 3041 
L 353 3500 
z
" transform="scale(0.015625)"/>
      <path id="DejaVuSans-70" d="M 1159 525 
L 1159 -1331 
L 581 -1331 
L 581 3500 
L 1159 3500 
L 1159 2969 
Q 1341 3281 1617 3432 
Q 1894 3584 2278 3584 
Q 2916 3584 3314 3078 
Q 3713 2572 3713 1747 
Q 3713 922 3314 415 
Q 2916 -91 2278 -91 
Q 1894 -91 1617 61 
Q 1341 213 1159 525 
z
M 3116 1747 
Q 3116 2381 2855 2742 
Q 2594 3103 2138 3103 
Q 1681 3103 1420 2742 
Q 1159 2381 1159 1747 
Q 1159 1113 1420 752 
Q 1681 391 2138 391 
Q 2594 391 2855 752 
Q 3116 1113 3116 1747 
z
" transform="scale(0.015625)"/>
      <path id="DejaVuSans-2c" d="M 750 794 
L 1409 794 
L 1409 256 
L 897 -744 
L 494 -744 
L 750 256 
L 750 794 
z
" transform="scale(0.015625)"/>
      <path id="DejaVuSans-73" d="M 2834 3397 
L 2834 2853 
Q 2591 2978 2328 3040 
Q 2066 3103 1784 3103 
Q 1356 3103 1142 2972 
Q 928 2841 928 2578 
Q 928 2378 1081 2264 
Q 1234 2150 1697 2047 
L 1894 2003 
Q 2506 1872 2764 1633 
Q 3022 1394 3022 966 
Q 3022 478 2636 193 
Q 2250 -91 1575 -91 
Q 1294 -91 989 -36 
Q 684 19 347 128 
L 347 722 
Q 666 556 975 473 
Q 1284 391 1588 391 
Q 1994 391 2212 530 
Q 2431 669 2431 922 
Q 2431 1156 2273 1281 
Q 2116 1406 1581 1522 
L 1381 1569 
Q 847 1681 609 1914 
Q 372 2147 372 2553 
Q 372 3047 722 3315 
Q 1072 3584 1716 3584 
Q 2034 3584 2315 3537 
Q 2597 3491 2834 3397 
z
" transform="scale(0.015625)"/>
      <path id="DejaVuSans-2f" d="M 1625 4666 
L 2156 4666 
L 531 -594 
L 0 -594 
L 1625 4666 
z
" transform="scale(0.015625)"/>
     </defs>
     <use xlink:href="#DejaVuSans-63"/>
     <use xlink:href="#DejaVuSans-75" transform="translate(54.980469 0)"/>
     <use xlink:href="#DejaVuSans-72" transform="translate(118.359375 0)"/>
     <use xlink:href="#DejaVuSans-6c" transform="translate(159.472656 0)"/>
     <use xlink:href="#DejaVuSans-5f" transform="translate(187.255859 0)"/>
     <use xlink:href="#DejaVuSans-63" transform="translate(237.255859 0)"/>
     <use xlink:href="#DejaVuSans-75" transform="translate(292.236328 0)"/>
     <use xlink:href="#DejaVuSans-72" transform="translate(355.615234 0)"/>
     <use xlink:href="#DejaVuSans-6c" transform="translate(396.728516 0)"/>
     <use xlink:href="#DejaVuSans-5f" transform="translate(424.511719 0)"/>
     <use xlink:href="#DejaVuSans-66" transform="translate(474.511719 0)"/>
     <use xlink:href="#DejaVuSans-75" transform="translate(509.716797 0)"/>
     <use xlink:href="#DejaVuSans-7a" transform="translate(573.095703 0)"/>
     <use xlink:href="#DejaVuSans-7a" transform="translate(625.585938 0)"/>
     <use xlink:href="#DejaVuSans-65" transform="translate(678.076172 0)"/>
     <use xlink:href="#DejaVuSans-72" transform="translate(739.599609 0)"/>
     <use xlink:href="#DejaVuSans-5f" transform="translate(780.712891 0)"/>
     <use xlink:href="#DejaVuSans-68" transform="translate(830.712891 0)"/>
     <use xlink:href="#DejaVuSans-74" transform="translate(894.091797 0)"/>
     <use xlink:href="#DejaVuSans-74" transform="translate(933.300781 0)"/>
     <use xlink:href="#DejaVuSans-70" transform="translate(972.509766 0)"/>
     <use xlink:href="#DejaVuSans-20" transform="translate(1035.986328 0)"/>
     <use xlink:href="#DejaVuSans-28" transform="translate(1067.773438 0)"/>
     <use xlink:href="#DejaVuSans-31" transform="translate(1106.787109 0)"/>
     <use xlink:href="#DejaVuSans-35" transform="translate(1170.410156 0)"/>
     <use xlink:href="#DejaVuSans-68" transform="translate(1234.033203 0)"/>
     <use xlink:href="#DejaVuSans-3a" transform="translate(1297.412109 0)"/>
     <use xlink:href="#DejaVuSans-33" transform="translate(1331.103516 0)"/>
     <use xlink:href="#DejaVuSans-30" transform="translate(1394.726562 0)"/>
     <use xlink:href="#DejaVuSans-6d" transform="translate(1458.349609 0)"/>
     <use xlink:href="#DejaVuSans-2c" transform="translate(1555.761719 0)"/>
     <use xlink:href="#DejaVuSans-20" transform="translate(1587.548828 0)"/>
     <use xlink:href="#DejaVuSans-61" transform="translate(1619.335938 0)"/>
     <use xlink:href="#DejaVuSans-74" transform="translate(1680.615234 0)"/>
     <use xlink:href="#DejaVuSans-20" transform="translate(1719.824219 0)"/>
     <use xlink:href="#DejaVuSans-6c" transform="translate(1751.611328 0)"/>
     <use xlink:href="#DejaVuSans-65" transform="translate(1779.394531 0)"/>
     <use xlink:href="#DejaVuSans-61" transform="translate(1840.917969 0)"/>
     <use xlink:href="#DejaVuSans-73" transform="translate(1902.197266 0)"/>
     <use xlink:href="#DejaVuSans-74" transform="translate(1954.296875 0)"/>
     <use xlink:href="#DejaVuSans-20" transform="translate(1993.505859 0)"/>
     <use xlink:href="#DejaVuSans-34" transform="translate(2025.292969 0)"/>
     <use xlink:href="#DejaVuSans-20" transform="translate(2088.916016 0)"/>
     <use xlink:href="#DejaVuSans-74" transform="translate(2120.703125 0)"/>
     <use xlink:href="#DejaVuSans-72" transform="translate(2159.912109 0)"/>
     <use xlink:href="#DejaVuSans-69" transform="translate(2201.025391 0)"/>
     <use xlink:href="#DejaVuSans-61" transform="translate(2228.808594 0)"/>
     <use xlink:href="#DejaVuSans-6c" transform="translate(2290.087891 0)"/>
     <use xlink:href="#DejaVuSans-73" transform="translate(2317.871094 0)"/>
     <use xlink:href="#DejaVuSans-2f" transform="translate(2369.970703 0)"/>
     <use xlink:href="#DejaVuSans-66" transform="translate(2403.662109 0)"/>
     <use xlink:href="#DejaVuSans-75" transform="translate(2438.867188 0)"/>
     <use xlink:href="#DejaVuSans-7a" transform="translate(2502.246094 0)"/>
     <use xlink:href="#DejaVuSans-7a" transform="translate(2554.736328 0)"/>
     <use xlink:href="#DejaVuSans-65" transform="translate(2607.226562 0)"/>
     <use xlink:href="#DejaVuSans-72" transform="translate(2668.75 0)"/>
     <use xlink:href="#DejaVuSans-29" transform="translate(2709.863281 0)"/>
    </g>
   </g>
   <g id="legend_1">
    <g id="line2d_27">
     <path d="M 777.930625 30.416562 
L 787.930625 30.416562 
L 797.930625 30.416562 
" style="fill: none; stroke: #c7c7c7; stroke-width: 1.5; stroke-linecap: square"/>
     <g>
      <use xlink:href="#mdd8e5011fb" x="787.930625" y="30.416562" style="fill: #c7c7c7; stroke: #ffffff; stroke-width: 0.75; stroke-linejoin: miter"/>
     </g>
    </g>
    <g id="text_17">
     <!-- aflplusplus_mopt -->
     <g transform="translate(805.930625 33.916562) scale(0.1 -0.1)">
      <use xlink:href="#DejaVuSans-61"/>
      <use xlink:href="#DejaVuSans-66" transform="translate(61.279297 0)"/>
      <use xlink:href="#DejaVuSans-6c" transform="translate(96.484375 0)"/>
      <use xlink:href="#DejaVuSans-70" transform="translate(124.267578 0)"/>
      <use xlink:href="#DejaVuSans-6c" transform="translate(187.744141 0)"/>
      <use xlink:href="#DejaVuSans-75" transform="translate(215.527344 0)"/>
      <use xlink:href="#DejaVuSans-73" transform="translate(278.90625 0)"/>
      <use xlink:href="#DejaVuSans-70" transform="translate(331.005859 0)"/>
      <use xlink:href="#DejaVuSans-6c" transform="translate(394.482422 0)"/>
      <use xlink:href="#DejaVuSans-75" transform="translate(422.265625 0)"/>
      <use xlink:href="#DejaVuSans-73" transform="translate(485.644531 0)"/>
      <use xlink:href="#DejaVuSans-5f" transform="translate(537.744141 0)"/>
      <use xlink:href="#DejaVuSans-6d" transform="translate(587.744141 0)"/>
      <use xlink:href="#DejaVuSans-6f" transform="translate(685.15625 0)"/>
      <use xlink:href="#DejaVuSans-70" transform="translate(746.337891 0)"/>
      <use xlink:href="#DejaVuSans-74" transform="translate(809.814453 0)"/>
     </g>
    </g>
    <g id="line2d_28">
     <path d="M 777.930625 45.372813 
L 787.930625 45.372813 
L 797.930625 45.372813 
" style="fill: none; stroke: #1f77b4; stroke-width: 1.5; stroke-linecap: square"/>
     <g>
      <use xlink:href="#m4e17fb3de7" x="787.930625" y="45.372813" style="fill: #1f77b4; stroke: #ffffff; stroke-width: 0.75"/>
     </g>
    </g>
    <g id="text_18">
     <!-- aflplusplus_440c -->
     <g transform="translate(805.930625 48.872813) scale(0.1 -0.1)">
      <use xlink:href="#DejaVuSans-61"/>
      <use xlink:href="#DejaVuSans-66" transform="translate(61.279297 0)"/>
      <use xlink:href="#DejaVuSans-6c" transform="translate(96.484375 0)"/>
      <use xlink:href="#DejaVuSans-70" transform="translate(124.267578 0)"/>
      <use xlink:href="#DejaVuSans-6c" transform="translate(187.744141 0)"/>
      <use xlink:href="#DejaVuSans-75" transform="translate(215.527344 0)"/>
      <use xlink:href="#DejaVuSans-73" transform="translate(278.90625 0)"/>
      <use xlink:href="#DejaVuSans-70" transform="translate(331.005859 0)"/>
      <use xlink:href="#DejaVuSans-6c" transform="translate(394.482422 0)"/>
      <use xlink:href="#DejaVuSans-75" transform="translate(422.265625 0)"/>
      <use xlink:href="#DejaVuSans-73" transform="translate(485.644531 0)"/>
      <use xlink:href="#DejaVuSans-5f" transform="translate(537.744141 0)"/>
      <use xlink:href="#DejaVuSans-34" transform="translate(587.744141 0)"/>
      <use xlink:href="#DejaVuSans-34" transform="translate(651.367188 0)"/>
      <use xlink:href="#DejaVuSans-30" transform="translate(714.990234 0)"/>
      <use xlink:href="#DejaVuSans-63" transform="translate(778.613281 0)"/>
     </g>
    </g>
    <g id="line2d_29">
     <path d="M 777.930625 60.329063 
L 787.930625 60.329063 
L 797.930625 60.329063 
" style="fill: none; stroke: #d62728; stroke-width: 1.5; stroke-linecap: square"/>
     <g>
      <use xlink:href="#m55dfa66dec" x="787.930625" y="60.329063" style="fill: #d62728; stroke: #ffffff; stroke-width: 0.75; stroke-linejoin: miter"/>
     </g>
    </g>
    <g id="text_19">
     <!-- aflplusplus_c11 -->
     <g transform="translate(805.930625 63.829063) scale(0.1 -0.1)">
      <use xlink:href="#DejaVuSans-61"/>
      <use xlink:href="#DejaVuSans-66" transform="translate(61.279297 0)"/>
      <use xlink:href="#DejaVuSans-6c" transform="translate(96.484375 0)"/>
      <use xlink:href="#DejaVuSans-70" transform="translate(124.267578 0)"/>
      <use xlink:href="#DejaVuSans-6c" transform="translate(187.744141 0)"/>
      <use xlink:href="#DejaVuSans-75" transform="translate(215.527344 0)"/>
      <use xlink:href="#DejaVuSans-73" transform="translate(278.90625 0)"/>
      <use xlink:href="#DejaVuSans-70" transform="translate(331.005859 0)"/>
      <use xlink:href="#DejaVuSans-6c" transform="translate(394.482422 0)"/>
      <use xlink:href="#DejaVuSans-75" transform="translate(422.265625 0)"/>
      <use xlink:href="#DejaVuSans-73" transform="translate(485.644531 0)"/>
      <use xlink:href="#DejaVuSans-5f" transform="translate(537.744141 0)"/>
      <use xlink:href="#DejaVuSans-63" transform="translate(587.744141 0)"/>
      <use xlink:href="#DejaVuSans-31" transform="translate(642.724609 0)"/>
      <use xlink:href="#DejaVuSans-31" transform="translate(706.347656 0)"/>
     </g>
    </g>
    <g id="line2d_30">
     <path d="M 777.930625 75.285313 
L 787.930625 75.285313 
L 797.930625 75.285313 
" style="fill: none; stroke: #98df8a; stroke-width: 1.5; stroke-linecap: square"/>
     <g>
      <use xlink:href="#m2d6b841a63" x="787.930625" y="75.285313" style="fill: #98df8a; stroke: #ffffff; stroke-width: 0.75; stroke-linejoin: miter"/>
     </g>
    </g>
    <g id="text_20">
     <!-- aflplusplus_500c -->
     <g transform="translate(805.930625 78.785313) scale(0.1 -0.1)">
      <use xlink:href="#DejaVuSans-61"/>
      <use xlink:href="#DejaVuSans-66" transform="translate(61.279297 0)"/>
      <use xlink:href="#DejaVuSans-6c" transform="translate(96.484375 0)"/>
      <use xlink:href="#DejaVuSans-70" transform="translate(124.267578 0)"/>
      <use xlink:href="#DejaVuSans-6c" transform="translate(187.744141 0)"/>
      <use xlink:href="#DejaVuSans-75" transform="translate(215.527344 0)"/>
      <use xlink:href="#DejaVuSans-73" transform="translate(278.90625 0)"/>
      <use xlink:href="#DejaVuSans-70" transform="translate(331.005859 0)"/>
      <use xlink:href="#DejaVuSans-6c" transform="translate(394.482422 0)"/>
      <use xlink:href="#DejaVuSans-75" transform="translate(422.265625 0)"/>
      <use xlink:href="#DejaVuSans-73" transform="translate(485.644531 0)"/>
      <use xlink:href="#DejaVuSans-5f" transform="translate(537.744141 0)"/>
      <use xlink:href="#DejaVuSans-35" transform="translate(587.744141 0)"/>
      <use xlink:href="#DejaVuSans-30" transform="translate(651.367188 0)"/>
      <use xlink:href="#DejaVuSans-30" transform="translate(714.990234 0)"/>
      <use xlink:href="#DejaVuSans-63" transform="translate(778.613281 0)"/>
     </g>
    </g>
   </g>
  </g>
 </g>
 <defs>
  <clipPath id="pac11183e66">
   <rect x="59.690625" y="22.318125" width="714.24" height="266.112"/>
  </clipPath>
 </defs>
</svg>
