<?xml version="1.0" encoding="utf-8" standalone="no"?>
<!DOCTYPE svg PUBLIC "-//W3C//DTD SVG 1.1//EN"
  "http://www.w3.org/Graphics/SVG/1.1/DTD/svg11.dtd">
<svg xmlns:xlink="http://www.w3.org/1999/xlink" width="895.669687pt" height="325.986375pt" viewBox="0 0 895.669687 325.986375" xmlns="http://www.w3.org/2000/svg" version="1.1">
 <metadata>
  <rdf:RDF xmlns:dc="http://purl.org/dc/elements/1.1/" xmlns:cc="http://creativecommons.org/ns#" xmlns:rdf="http://www.w3.org/1999/02/22-rdf-syntax-ns#">
   <cc:Work>
    <dc:type rdf:resource="http://purl.org/dc/dcmitype/StillImage"/>
    <dc:date>2026-06-10T05:37:37.546515</dc:date>
    <dc:format>image/svg+xml</dc:format>
    <dc:creator>
     <cc:Agent>
      <dc:title>Matplotlib v3.10.9, https://matplotlib.org/</dc:title>
     </cc:Agent>
    </dc:creator>
   </cc:Work>
  </rdf:RDF>
 </metadata>
 <defs>
  <style type="text/css">*{stroke-linejoin: round; stroke-linecap: butt}</style>
 </defs>
 <g id="figure_1">
  <g id="patch_1">
   <path d="M 0 325.986375 
L 895.669688 325.986375 
L 895.669688 0 
L 0 0 
z
" style="fill: #ffffff"/>
  </g>
  <g id="axes_1">
   <g id="patch_2">
    <path d="M 53.328125 288.430125 
L 767.568125 288.430125 
L 767.568125 22.318125 
L 53.328125 22.318125 
z
" style="fill: #ffffff"/>
   </g>
   <g id="FillBetweenPolyCollection_1">
    <defs>
     <path id="mea06b23aa6" d="M 53.328125 -49.65225 
L 53.328125 -49.65225 
L 539.192925 -136.043255 
L 578.04715 -136.043255 
L 600.775415 -145.866139 
L 616.901376 -148.510761 
L 629.409643 -148.510761 
L 639.629641 -148.510761 
L 648.270526 -158.711448 
L 655.755601 -159.089252 
L 662.357906 -159.592989 
L 668.263868 -201.655082 
L 673.606461 -201.906951 
L 678.483866 -201.906951 
L 682.970644 -202.158819 
L 687.124751 -202.158819 
L 690.992133 -202.158819 
L 694.609827 -203.166295 
L 698.008128 -203.292229 
L 701.212131 -203.292229 
L 704.242858 -203.292229 
L 707.118093 -203.292229 
L 709.853016 -203.544098 
L 712.460686 -203.544098 
L 714.952421 -203.795967 
L 717.338092 -203.795967 
L 719.62636 -203.795967 
L 721.824869 -203.795967 
L 723.940396 -203.795967 
L 725.978977 -203.795967 
L 727.946014 -217.145014 
L 729.846358 -217.145014 
L 731.684385 -217.145014 
L 733.464052 -217.145014 
L 735.188951 -217.145014 
L 736.862353 -217.522817 
L 738.487244 -218.908096 
L 740.066356 -228.101308 
L 741.6022 -228.101308 
L 743.097084 -228.101308 
L 744.553134 -228.101308 
L 745.972319 -228.227242 
L 747.356458 -228.227242 
L 748.707242 -228.227242 
L 750.026239 -228.227242 
L 751.314912 -228.479111 
L 752.574623 -228.479111 
L 753.806646 -236.538913 
L 755.012172 -238.301995 
L 756.192317 -238.301995 
L 757.348127 -238.301995 
L 758.480586 -239.183536 
L 759.590618 -239.561339 
L 760.679095 -239.561339 
L 761.746837 -239.561339 
L 762.794621 -239.561339 
L 763.823178 -239.561339 
L 764.833202 -239.561339 
L 764.833202 -291.57225 
L 764.833202 -291.57225 
L 763.823178 -291.57225 
L 762.794621 -291.57225 
L 761.746837 -291.57225 
L 760.679095 -291.57225 
L 759.590618 -291.57225 
L 758.480586 -291.57225 
L 757.348127 -291.57225 
L 756.192317 -291.57225 
L 755.012172 -291.57225 
L 753.806646 -291.57225 
L 752.574623 -291.57225 
L 751.314912 -291.57225 
L 750.026239 -290.690709 
L 748.707242 -290.690709 
L 747.356458 -290.43884 
L 745.972319 -290.43884 
L 744.553134 -290.43884 
L 743.097084 -290.312906 
L 741.6022 -290.061037 
L 740.066356 -290.061037 
L 738.487244 -290.061037 
L 736.862353 -289.935103 
L 735.188951 -289.935103 
L 733.464052 -289.935103 
L 731.684385 -289.935103 
L 729.846358 -289.935103 
L 727.946014 -286.534874 
L 725.978977 -267.140975 
L 723.940396 -267.140975 
L 721.824869 -267.140975 
L 719.62636 -267.140975 
L 717.338092 -267.140975 
L 714.952421 -267.140975 
L 712.460686 -267.140975 
L 709.853016 -267.140975 
L 707.118093 -266.763171 
L 704.242858 -266.763171 
L 701.212131 -266.763171 
L 698.008128 -266.763171 
L 694.609827 -265.629762 
L 690.992133 -265.00009 
L 687.124751 -264.244483 
L 682.970644 -261.725795 
L 678.483866 -261.096123 
L 673.606461 -260.970189 
L 668.263868 -246.235863 
L 662.357906 -233.390553 
L 655.755601 -233.264619 
L 648.270526 -233.01275 
L 639.629641 -233.01275 
L 629.409643 -232.760881 
L 616.901376 -232.131209 
L 600.775415 -232.131209 
L 578.04715 -152.792531 
L 539.192925 -149.014499 
L 53.328125 -49.65225 
z
" style="stroke: #d62728; stroke-opacity: 0.2"/>
    </defs>
    <g clip-path="url(#p5c25301800)">
     <use xlink:href="#mea06b23aa6" x="0" y="325.986375" style="fill: #d62728; fill-opacity: 0.2; stroke: #d62728; stroke-opacity: 0.2"/>
    </g>
   </g>
   <g id="FillBetweenPolyCollection_2">
    <defs>
     <path id="m5c139c6115" d="M 53.328125 -49.65225 
L 53.328125 -49.65225 
L 539.192925 -127.227846 
L 578.04715 -127.227846 
L 600.775415 -130.124337 
L 616.901376 -130.124337 
L 629.409643 -130.124337 
L 639.629641 -130.124337 
L 648.270526 -130.124337 
L 655.755601 -135.413583 
L 662.357906 -135.413583 
L 668.263868 -135.413583 
L 673.606461 -135.665451 
L 678.483866 -135.91732 
L 682.970644 -136.043255 
L 687.124751 -136.043255 
L 690.992133 -136.043255 
L 694.609827 -136.043255 
L 698.008128 -136.043255 
L 701.212131 -136.043255 
L 704.242858 -136.043255 
L 707.118093 -136.043255 
L 709.853016 -136.043255 
L 712.460686 -136.043255 
L 714.952421 -136.043255 
L 717.338092 -136.043255 
L 719.62636 -136.295124 
L 721.824869 -136.295124 
L 723.940396 -136.295124 
L 725.978977 -136.295124 
L 727.946014 -148.888564 
L 729.846358 -160.348596 
L 731.684385 -220.041506 
L 733.464052 -220.545243 
L 735.188951 -220.545243 
L 736.862353 -221.930522 
L 738.487244 -221.930522 
L 740.066356 -221.930522 
L 741.6022 -221.930522 
L 743.097084 -233.894291 
L 744.553134 -233.894291 
L 745.972319 -236.035176 
L 747.356458 -236.035176 
L 748.707242 -236.035176 
L 750.026239 -236.035176 
L 751.314912 -236.035176 
L 752.574623 -236.035176 
L 753.806646 -236.035176 
L 755.012172 -236.035176 
L 756.192317 -236.16111 
L 757.348127 -236.16111 
L 758.480586 -236.16111 
L 759.590618 -236.16111 
L 760.679095 -236.16111 
L 761.746837 -236.16111 
L 762.794621 -236.16111 
L 763.823178 -236.16111 
L 764.833202 -236.16111 
L 764.833202 -273.563629 
L 764.833202 -273.563629 
L 763.823178 -273.563629 
L 762.794621 -273.563629 
L 761.746837 -273.311761 
L 760.679095 -273.185826 
L 759.590618 -273.185826 
L 758.480586 -273.185826 
L 757.348127 -273.185826 
L 756.192317 -273.185826 
L 755.012172 -273.185826 
L 753.806646 -272.933957 
L 752.574623 -272.933957 
L 751.314912 -272.808023 
L 750.026239 -272.808023 
L 748.707242 -272.808023 
L 747.356458 -272.808023 
L 745.972319 -272.808023 
L 744.553134 -270.919007 
L 743.097084 -270.289335 
L 741.6022 -249.636092 
L 740.066356 -249.510157 
L 738.487244 -248.754551 
L 736.862353 -248.376748 
L 735.188951 -247.747076 
L 733.464052 -247.117404 
L 731.684385 -246.109928 
L 729.846358 -243.465306 
L 727.946014 -236.035176 
L 725.978977 -236.035176 
L 723.940396 -236.035176 
L 721.824869 -236.035176 
L 719.62636 -236.035176 
L 717.338092 -236.035176 
L 714.952421 -236.035176 
L 712.460686 -236.035176 
L 709.853016 -236.035176 
L 707.118093 -236.035176 
L 704.242858 -236.035176 
L 701.212131 -236.035176 
L 698.008128 -236.035176 
L 694.609827 -235.405504 
L 690.992133 -235.405504 
L 687.124751 -235.279569 
L 682.970644 -234.020225 
L 678.483866 -234.020225 
L 673.606461 -234.020225 
L 668.263868 -234.020225 
L 662.357906 -233.768356 
L 655.755601 -223.441735 
L 648.270526 -222.937997 
L 639.629641 -220.671178 
L 629.409643 -219.159965 
L 616.901376 -218.278424 
L 600.775415 -217.522817 
L 578.04715 -150.651646 
L 539.192925 -135.791386 
L 53.328125 -49.65225 
z
" style="stroke: #98df8a; stroke-opacity: 0.2"/>
    </defs>
    <g clip-path="url(#p5c25301800)">
     <use xlink:href="#m5c139c6115" x="0" y="325.986375" style="fill: #98df8a; fill-opacity: 0.2; stroke: #98df8a; stroke-opacity: 0.2"/>
    </g>
   </g>
   <g id="FillBetweenPolyCollection_3">
    <defs>
     <path id="m9990bf87ed" d="M 53.328125 -49.65225 
L 53.328125 -49.65225 
L 539.192925 -125.842568 
L 578.04715 -146.243942 
L 600.775415 -148.510761 
L 616.901376 -149.014499 
L 629.409643 -149.014499 
L 639.629641 -150.147909 
L 648.270526 -150.525712 
L 655.755601 -217.522817 
L 662.357906 -217.522817 
L 668.263868 -217.774686 
L 673.606461 -217.774686 
L 678.483866 -217.774686 
L 682.970644 -217.774686 
L 687.124751 -217.774686 
L 690.992133 -217.774686 
L 694.609827 -217.774686 
L 698.008128 -217.774686 
L 701.212131 -217.774686 
L 704.242858 -217.774686 
L 707.118093 -217.774686 
L 709.853016 -217.900621 
L 712.460686 -217.900621 
L 714.952421 -219.537768 
L 717.338092 -219.663702 
L 719.62636 -219.663702 
L 721.824869 -219.663702 
L 723.940396 -219.663702 
L 725.978977 -219.663702 
L 727.946014 -219.915571 
L 729.846358 -219.915571 
L 731.684385 -219.915571 
L 733.464052 -219.915571 
L 735.188951 -219.915571 
L 736.862353 -219.915571 
L 738.487244 -221.048981 
L 740.066356 -221.048981 
L 741.6022 -222.812063 
L 743.097084 -223.441735 
L 744.553134 -224.197341 
L 745.972319 -225.58262 
L 747.356458 -226.086357 
L 748.707242 -233.894291 
L 750.026239 -233.894291 
L 751.314912 -236.790782 
L 752.574623 -236.790782 
L 753.806646 -236.916716 
L 755.012172 -236.916716 
L 756.192317 -236.916716 
L 757.348127 -236.916716 
L 758.480586 -236.916716 
L 759.590618 -236.916716 
L 760.679095 -236.916716 
L 761.746837 -237.042651 
L 762.794621 -237.29452 
L 763.823178 -237.29452 
L 764.833202 -237.29452 
L 764.833202 -264.118549 
L 764.833202 -264.118549 
L 763.823178 -264.118549 
L 762.794621 -264.118549 
L 761.746837 -264.118549 
L 760.679095 -264.118549 
L 759.590618 -264.118549 
L 758.480586 -264.118549 
L 757.348127 -264.118549 
L 756.192317 -264.118549 
L 755.012172 -264.118549 
L 753.806646 -264.118549 
L 752.574623 -261.977664 
L 751.314912 -239.057601 
L 750.026239 -239.057601 
L 748.707242 -239.057601 
L 747.356458 -239.057601 
L 745.972319 -239.057601 
L 744.553134 -239.057601 
L 743.097084 -239.057601 
L 741.6022 -239.057601 
L 740.066356 -237.798257 
L 738.487244 -237.798257 
L 736.862353 -237.546388 
L 735.188951 -237.546388 
L 733.464052 -237.546388 
L 731.684385 -235.783307 
L 729.846358 -235.783307 
L 727.946014 -235.783307 
L 725.978977 -235.783307 
L 723.940396 -235.783307 
L 721.824869 -235.531438 
L 719.62636 -235.531438 
L 717.338092 -235.531438 
L 714.952421 -235.531438 
L 712.460686 -235.531438 
L 709.853016 -235.531438 
L 707.118093 -235.531438 
L 704.242858 -235.405504 
L 701.212131 -235.405504 
L 698.008128 -235.405504 
L 694.609827 -235.405504 
L 690.992133 -235.405504 
L 687.124751 -235.405504 
L 682.970644 -235.405504 
L 678.483866 -235.153635 
L 673.606461 -234.775831 
L 668.263868 -234.649897 
L 662.357906 -234.523963 
L 655.755601 -234.523963 
L 648.270526 -233.768356 
L 639.629641 -223.063931 
L 629.409643 -222.434259 
L 616.901376 -222.182391 
L 600.775415 -220.419309 
L 578.04715 -217.270949 
L 539.192925 -135.91732 
L 53.328125 -49.65225 
z
" style="stroke: #1f77b4; stroke-opacity: 0.2"/>
    </defs>
    <g clip-path="url(#p5c25301800)">
     <use xlink:href="#m9990bf87ed" x="0" y="325.986375" style="fill: #1f77b4; fill-opacity: 0.2; stroke: #1f77b4; stroke-opacity: 0.2"/>
    </g>
   </g>
   <g id="FillBetweenPolyCollection_4">
    <defs>
     <path id="m8f1ca9ce8b" d="M 53.328125 -49.65225 
L 53.328125 -49.65225 
L 539.192925 -127.101912 
L 578.04715 -129.494665 
L 600.775415 -129.998403 
L 616.901376 -129.998403 
L 629.409643 -129.998403 
L 639.629641 -130.124337 
L 648.270526 -135.665451 
L 655.755601 -135.665451 
L 662.357906 -141.3325 
L 668.263868 -146.495811 
L 673.606461 -147.755155 
L 678.483866 -149.266368 
L 682.970644 -149.518236 
L 687.124751 -150.651646 
L 690.992133 -152.666597 
L 694.609827 -153.170334 
L 698.008128 -153.170334 
L 701.212131 -153.170334 
L 704.242858 -153.170334 
L 707.118093 -153.170334 
L 709.853016 -153.422203 
L 712.460686 -221.426784 
L 714.952421 -221.426784 
L 717.338092 -221.426784 
L 719.62636 -221.426784 
L 721.824869 -221.426784 
L 723.940396 -221.426784 
L 725.978977 -221.426784 
L 727.946014 -221.426784 
L 729.846358 -221.426784 
L 731.684385 -223.567669 
L 733.464052 -224.071407 
L 735.188951 -224.701079 
L 736.862353 -224.701079 
L 738.487244 -224.701079 
L 740.066356 -224.701079 
L 741.6022 -224.701079 
L 743.097084 -224.701079 
L 744.553134 -224.827013 
L 745.972319 -224.952948 
L 747.356458 -224.952948 
L 748.707242 -224.952948 
L 750.026239 -225.078882 
L 751.314912 -225.078882 
L 752.574623 -225.078882 
L 753.806646 -225.078882 
L 755.012172 -225.078882 
L 756.192317 -225.078882 
L 757.348127 -225.078882 
L 758.480586 -226.338226 
L 759.590618 -231.501537 
L 760.679095 -231.501537 
L 761.746837 -231.501537 
L 762.794621 -231.501537 
L 763.823178 -231.501537 
L 764.833202 -231.501537 
L 764.833202 -244.598715 
L 764.833202 -244.598715 
L 763.823178 -244.598715 
L 762.794621 -244.598715 
L 761.746837 -244.598715 
L 760.679095 -244.598715 
L 759.590618 -244.598715 
L 758.480586 -244.598715 
L 757.348127 -244.598715 
L 756.192317 -244.598715 
L 755.012172 -244.598715 
L 753.806646 -244.598715 
L 752.574623 -244.598715 
L 751.314912 -244.598715 
L 750.026239 -244.598715 
L 748.707242 -244.598715 
L 747.356458 -244.598715 
L 745.972319 -244.094978 
L 744.553134 -244.094978 
L 743.097084 -244.094978 
L 741.6022 -244.094978 
L 740.066356 -244.094978 
L 738.487244 -244.094978 
L 736.862353 -243.969043 
L 735.188951 -243.59124 
L 733.464052 -242.835634 
L 731.684385 -242.835634 
L 729.846358 -242.835634 
L 727.946014 -242.835634 
L 725.978977 -242.835634 
L 723.940396 -231.249668 
L 721.824869 -231.249668 
L 719.62636 -231.249668 
L 717.338092 -229.612521 
L 714.952421 -226.46416 
L 712.460686 -226.338226 
L 709.853016 -226.338226 
L 707.118093 -226.338226 
L 704.242858 -226.212292 
L 701.212131 -224.952948 
L 698.008128 -224.952948 
L 694.609827 -224.952948 
L 690.992133 -224.44921 
L 687.124751 -224.44921 
L 682.970644 -220.797112 
L 678.483866 -220.797112 
L 673.606461 -220.419309 
L 668.263868 -219.411834 
L 662.357906 -219.411834 
L 655.755601 -219.285899 
L 648.270526 -219.285899 
L 639.629641 -219.285899 
L 629.409643 -219.285899 
L 616.901376 -218.530293 
L 600.775415 -218.404358 
L 578.04715 -217.01908 
L 539.192925 -135.539517 
L 53.328125 -49.65225 
z
" style="stroke: #c7c7c7; stroke-opacity: 0.2"/>
    </defs>
    <g clip-path="url(#p5c25301800)">
     <use xlink:href="#m8f1ca9ce8b" x="0" y="325.986375" style="fill: #c7c7c7; fill-opacity: 0.2; stroke: #c7c7c7; stroke-opacity: 0.2"/>
    </g>
   </g>
   <g id="matplotlib.axis_1">
    <g id="xtick_1">
     <g id="line2d_1">
      <defs>
       <path id="meb82980499" d="M 0 0 
L 0 3.5 
" style="stroke: #000000; stroke-width: 0.8"/>
      </defs>
      <g>
       <use xlink:href="#meb82980499" x="53.328125" y="288.430125" style="stroke: #000000; stroke-width: 0.8"/>
      </g>
     </g>
     <g id="text_1">
      <!-- 0m -->
      <g transform="translate(45.276563 303.028562) scale(0.1 -0.1)">
       <defs>
        <path id="DejaVuSans-30" d="M 2034 4250 
Q 1547 4250 1301 3770 
Q 1056 3291 1056 2328 
Q 1056 1369 1301 889 
Q 1547 409 2034 409 
Q 2525 409 2770 889 
Q 3016 1369 3016 2328 
Q 3016 3291 2770 3770 
Q 2525 4250 2034 4250 
z
M 2034 4750 
Q 2819 4750 3233 4129 
Q 3647 3509 3647 2328 
Q 3647 1150 3233 529 
Q 2819 -91 2034 -91 
Q 1250 -91 836 529 
Q 422 1150 422 2328 
Q 422 3509 836 4129 
Q 1250 4750 2034 4750 
z
" transform="scale(0.015625)"/>
        <path id="DejaVuSans-6d" d="M 3328 2828 
Q 3544 3216 3844 3400 
Q 4144 3584 4550 3584 
Q 5097 3584 5394 3201 
Q 5691 2819 5691 2113 
L 5691 0 
L 5113 0 
L 5113 2094 
Q 5113 2597 4934 2840 
Q 4756 3084 4391 3084 
Q 3944 3084 3684 2787 
Q 3425 2491 3425 1978 
L 3425 0 
L 2847 0 
L 2847 2094 
Q 2847 2600 2669 2842 
Q 2491 3084 2119 3084 
Q 1678 3084 1418 2786 
Q 1159 2488 1159 1978 
L 1159 0 
L 581 0 
L 581 3500 
L 1159 3500 
L 1159 2956 
Q 1356 3278 1631 3431 
Q 1906 3584 2284 3584 
Q 2666 3584 2933 3390 
Q 3200 3197 3328 2828 
z
" transform="scale(0.015625)"/>
       </defs>
       <use xlink:href="#DejaVuSans-30"/>
       <use xlink:href="#DejaVuSans-6d" transform="translate(63.623047 0)"/>
      </g>
     </g>
    </g>
    <g id="xtick_2">
     <g id="line2d_2">
      <g>
       <use xlink:href="#meb82980499" x="125.034204" y="288.430125" style="stroke: #000000; stroke-width: 0.8"/>
      </g>
     </g>
    </g>
    <g id="xtick_3">
     <g id="line2d_3">
      <g>
       <use xlink:href="#meb82980499" x="218.580884" y="288.430125" style="stroke: #000000; stroke-width: 0.8"/>
      </g>
     </g>
    </g>
    <g id="xtick_4">
     <g id="line2d_4">
      <g>
       <use xlink:href="#meb82980499" x="279.27571" y="288.430125" style="stroke: #000000; stroke-width: 0.8"/>
      </g>
     </g>
    </g>
    <g id="xtick_5">
     <g id="line2d_5">
      <g>
       <use xlink:href="#meb82980499" x="339.970535" y="288.430125" style="stroke: #000000; stroke-width: 0.8"/>
      </g>
     </g>
    </g>
    <g id="xtick_6">
     <g id="line2d_6">
      <g>
       <use xlink:href="#meb82980499" x="400.665361" y="288.430125" style="stroke: #000000; stroke-width: 0.8"/>
      </g>
     </g>
     <g id="text_2">
      <!-- 1m -->
      <g transform="translate(392.613798 303.028562) scale(0.1 -0.1)">
       <defs>
        <path id="DejaVuSans-31" d="M 794 531 
L 1825 531 
L 1825 4091 
L 703 3866 
L 703 4441 
L 1819 4666 
L 2450 4666 
L 2450 531 
L 3481 531 
L 3481 0 
L 794 0 
L 794 531 
z
" transform="scale(0.015625)"/>
       </defs>
       <use xlink:href="#DejaVuSans-31"/>
       <use xlink:href="#DejaVuSans-6d" transform="translate(63.623047 0)"/>
      </g>
     </g>
    </g>
    <g id="xtick_7">
     <g id="line2d_7">
      <g>
       <use xlink:href="#meb82980499" x="461.360186" y="288.430125" style="stroke: #000000; stroke-width: 0.8"/>
      </g>
     </g>
     <g id="text_3">
      <!-- 3m -->
      <g transform="translate(453.308624 303.028562) scale(0.1 -0.1)">
       <defs>
        <path id="DejaVuSans-33" d="M 2597 2516 
Q 3050 2419 3304 2112 
Q 3559 1806 3559 1356 
Q 3559 666 3084 287 
Q 2609 -91 1734 -91 
Q 1441 -91 1130 -33 
Q 819 25 488 141 
L 488 750 
Q 750 597 1062 519 
Q 1375 441 1716 441 
Q 2309 441 2620 675 
Q 2931 909 2931 1356 
Q 2931 1769 2642 2001 
Q 2353 2234 1838 2234 
L 1294 2234 
L 1294 2753 
L 1863 2753 
Q 2328 2753 2575 2939 
Q 2822 3125 2822 3475 
Q 2822 3834 2567 4026 
Q 2313 4219 1838 4219 
Q 1578 4219 1281 4162 
Q 984 4106 628 3988 
L 628 4550 
Q 988 4650 1302 4700 
Q 1616 4750 1894 4750 
Q 2613 4750 3031 4423 
Q 3450 4097 3450 3541 
Q 3450 3153 3228 2886 
Q 3006 2619 2597 2516 
z
" transform="scale(0.015625)"/>
       </defs>
       <use xlink:href="#DejaVuSans-33"/>
       <use xlink:href="#DejaVuSans-6d" transform="translate(63.623047 0)"/>
      </g>
     </g>
    </g>
    <g id="xtick_8">
     <g id="line2d_8">
      <g>
       <use xlink:href="#meb82980499" x="522.055012" y="288.430125" style="stroke: #000000; stroke-width: 0.8"/>
      </g>
     </g>
     <g id="text_4">
      <!-- 11m -->
      <g transform="translate(510.8222 303.028562) scale(0.1 -0.1)">
       <use xlink:href="#DejaVuSans-31"/>
       <use xlink:href="#DejaVuSans-31" transform="translate(63.623047 0)"/>
       <use xlink:href="#DejaVuSans-6d" transform="translate(127.246094 0)"/>
      </g>
     </g>
    </g>
    <g id="xtick_9">
     <g id="line2d_9">
      <g>
       <use xlink:href="#meb82980499" x="582.749838" y="288.430125" style="stroke: #000000; stroke-width: 0.8"/>
      </g>
     </g>
     <g id="text_5">
      <!-- 32m -->
      <g transform="translate(571.517025 303.028562) scale(0.1 -0.1)">
       <defs>
        <path id="DejaVuSans-32" d="M 1228 531 
L 3431 531 
L 3431 0 
L 469 0 
L 469 531 
Q 828 903 1448 1529 
Q 2069 2156 2228 2338 
Q 2531 2678 2651 2914 
Q 2772 3150 2772 3378 
Q 2772 3750 2511 3984 
Q 2250 4219 1831 4219 
Q 1534 4219 1204 4116 
Q 875 4013 500 3803 
L 500 4441 
Q 881 4594 1212 4672 
Q 1544 4750 1819 4750 
Q 2544 4750 2975 4387 
Q 3406 4025 3406 3419 
Q 3406 3131 3298 2873 
Q 3191 2616 2906 2266 
Q 2828 2175 2409 1742 
Q 1991 1309 1228 531 
z
" transform="scale(0.015625)"/>
       </defs>
       <use xlink:href="#DejaVuSans-33"/>
       <use xlink:href="#DejaVuSans-32" transform="translate(63.623047 0)"/>
       <use xlink:href="#DejaVuSans-6d" transform="translate(127.246094 0)"/>
      </g>
     </g>
    </g>
    <g id="xtick_10">
     <g id="line2d_10">
      <g>
       <use xlink:href="#meb82980499" x="643.444663" y="288.430125" style="stroke: #000000; stroke-width: 0.8"/>
      </g>
     </g>
     <g id="text_6">
      <!-- 1h:36m -->
      <g transform="translate(624.177476 303.028562) scale(0.1 -0.1)">
       <defs>
        <path id="DejaVuSans-68" d="M 3513 2113 
L 3513 0 
L 2938 0 
L 2938 2094 
Q 2938 2591 2744 2837 
Q 2550 3084 2163 3084 
Q 1697 3084 1428 2787 
Q 1159 2491 1159 1978 
L 1159 0 
L 581 0 
L 581 4863 
L 1159 4863 
L 1159 2956 
Q 1366 3272 1645 3428 
Q 1925 3584 2291 3584 
Q 2894 3584 3203 3211 
Q 3513 2838 3513 2113 
z
" transform="scale(0.015625)"/>
        <path id="DejaVuSans-3a" d="M 750 794 
L 1409 794 
L 1409 0 
L 750 0 
L 750 794 
z
M 750 3309 
L 1409 3309 
L 1409 2516 
L 750 2516 
L 750 3309 
z
" transform="scale(0.015625)"/>
        <path id="DejaVuSans-36" d="M 2113 2584 
Q 1688 2584 1439 2293 
Q 1191 2003 1191 1497 
Q 1191 994 1439 701 
Q 1688 409 2113 409 
Q 2538 409 2786 701 
Q 3034 994 3034 1497 
Q 3034 2003 2786 2293 
Q 2538 2584 2113 2584 
z
M 3366 4563 
L 3366 3988 
Q 3128 4100 2886 4159 
Q 2644 4219 2406 4219 
Q 1781 4219 1451 3797 
Q 1122 3375 1075 2522 
Q 1259 2794 1537 2939 
Q 1816 3084 2150 3084 
Q 2853 3084 3261 2657 
Q 3669 2231 3669 1497 
Q 3669 778 3244 343 
Q 2819 -91 2113 -91 
Q 1303 -91 875 529 
Q 447 1150 447 2328 
Q 447 3434 972 4092 
Q 1497 4750 2381 4750 
Q 2619 4750 2861 4703 
Q 3103 4656 3366 4563 
z
" transform="scale(0.015625)"/>
       </defs>
       <use xlink:href="#DejaVuSans-31"/>
       <use xlink:href="#DejaVuSans-68" transform="translate(63.623047 0)"/>
       <use xlink:href="#DejaVuSans-3a" transform="translate(127.001953 0)"/>
       <use xlink:href="#DejaVuSans-33" transform="translate(160.693359 0)"/>
       <use xlink:href="#DejaVuSans-36" transform="translate(224.316406 0)"/>
       <use xlink:href="#DejaVuSans-6d" transform="translate(287.939453 0)"/>
      </g>
     </g>
    </g>
    <g id="xtick_11">
     <g id="line2d_11">
      <g>
       <use xlink:href="#meb82980499" x="704.139489" y="288.430125" style="stroke: #000000; stroke-width: 0.8"/>
      </g>
     </g>
     <g id="text_7">
      <!-- 4h:44m -->
      <g transform="translate(684.872301 303.028562) scale(0.1 -0.1)">
       <defs>
        <path id="DejaVuSans-34" d="M 2419 4116 
L 825 1625 
L 2419 1625 
L 2419 4116 
z
M 2253 4666 
L 3047 4666 
L 3047 1625 
L 3713 1625 
L 3713 1100 
L 3047 1100 
L 3047 0 
L 2419 0 
L 2419 1100 
L 313 1100 
L 313 1709 
L 2253 4666 
z
" transform="scale(0.015625)"/>
       </defs>
       <use xlink:href="#DejaVuSans-34"/>
       <use xlink:href="#DejaVuSans-68" transform="translate(63.623047 0)"/>
       <use xlink:href="#DejaVuSans-3a" transform="translate(127.001953 0)"/>
       <use xlink:href="#DejaVuSans-34" transform="translate(160.693359 0)"/>
       <use xlink:href="#DejaVuSans-34" transform="translate(224.316406 0)"/>
       <use xlink:href="#DejaVuSans-6d" transform="translate(287.939453 0)"/>
      </g>
     </g>
    </g>
    <g id="xtick_12">
     <g id="line2d_12">
      <g>
       <use xlink:href="#meb82980499" x="764.834314" y="288.430125" style="stroke: #000000; stroke-width: 0.8"/>
      </g>
     </g>
     <g id="text_8">
      <!-- 14h -->
      <g transform="translate(755.303064 303.028562) scale(0.1 -0.1)">
       <use xlink:href="#DejaVuSans-31"/>
       <use xlink:href="#DejaVuSans-34" transform="translate(63.623047 0)"/>
       <use xlink:href="#DejaVuSans-68" transform="translate(127.246094 0)"/>
      </g>
     </g>
    </g>
    <g id="text_9">
     <!-- Time (hour:minute) -->
     <g transform="translate(362.041094 316.706687) scale(0.1 -0.1)">
      <defs>
       <path id="DejaVuSans-54" d="M -19 4666 
L 3928 4666 
L 3928 4134 
L 2272 4134 
L 2272 0 
L 1638 0 
L 1638 4134 
L -19 4134 
L -19 4666 
z
" transform="scale(0.015625)"/>
       <path id="DejaVuSans-69" d="M 603 3500 
L 1178 3500 
L 1178 0 
L 603 0 
L 603 3500 
z
M 603 4863 
L 1178 4863 
L 1178 4134 
L 603 4134 
L 603 4863 
z
" transform="scale(0.015625)"/>
       <path id="DejaVuSans-65" d="M 3597 1894 
L 3597 1613 
L 953 1613 
Q 991 1019 1311 708 
Q 1631 397 2203 397 
Q 2534 397 2845 478 
Q 3156 559 3463 722 
L 3463 178 
Q 3153 47 2828 -22 
Q 2503 -91 2169 -91 
Q 1331 -91 842 396 
Q 353 884 353 1716 
Q 353 2575 817 3079 
Q 1281 3584 2069 3584 
Q 2775 3584 3186 3129 
Q 3597 2675 3597 1894 
z
M 3022 2063 
Q 3016 2534 2758 2815 
Q 2500 3097 2075 3097 
Q 1594 3097 1305 2825 
Q 1016 2553 972 2059 
L 3022 2063 
z
" transform="scale(0.015625)"/>
       <path id="DejaVuSans-20" transform="scale(0.015625)"/>
       <path id="DejaVuSans-28" d="M 1984 4856 
Q 1566 4138 1362 3434 
Q 1159 2731 1159 2009 
Q 1159 1288 1364 580 
Q 1569 -128 1984 -844 
L 1484 -844 
Q 1016 -109 783 600 
Q 550 1309 550 2009 
Q 550 2706 781 3412 
Q 1013 4119 1484 4856 
L 1984 4856 
z
" transform="scale(0.015625)"/>
       <path id="DejaVuSans-6f" d="M 1959 3097 
Q 1497 3097 1228 2736 
Q 959 2375 959 1747 
Q 959 1119 1226 758 
Q 1494 397 1959 397 
Q 2419 397 2687 759 
Q 2956 1122 2956 1747 
Q 2956 2369 2687 2733 
Q 2419 3097 1959 3097 
z
M 1959 3584 
Q 2709 3584 3137 3096 
Q 3566 2609 3566 1747 
Q 3566 888 3137 398 
Q 2709 -91 1959 -91 
Q 1206 -91 779 398 
Q 353 888 353 1747 
Q 353 2609 779 3096 
Q 1206 3584 1959 3584 
z
" transform="scale(0.015625)"/>
       <path id="DejaVuSans-75" d="M 544 1381 
L 544 3500 
L 1119 3500 
L 1119 1403 
Q 1119 906 1312 657 
Q 1506 409 1894 409 
Q 2359 409 2629 706 
Q 2900 1003 2900 1516 
L 2900 3500 
L 3475 3500 
L 3475 0 
L 2900 0 
L 2900 538 
Q 2691 219 2414 64 
Q 2138 -91 1772 -91 
Q 1169 -91 856 284 
Q 544 659 544 1381 
z
M 1991 3584 
L 1991 3584 
z
" transform="scale(0.015625)"/>
       <path id="DejaVuSans-72" d="M 2631 2963 
Q 2534 3019 2420 3045 
Q 2306 3072 2169 3072 
Q 1681 3072 1420 2755 
Q 1159 2438 1159 1844 
L 1159 0 
L 581 0 
L 581 3500 
L 1159 3500 
L 1159 2956 
Q 1341 3275 1631 3429 
Q 1922 3584 2338 3584 
Q 2397 3584 2469 3576 
Q 2541 3569 2628 3553 
L 2631 2963 
z
" transform="scale(0.015625)"/>
       <path id="DejaVuSans-6e" d="M 3513 2113 
L 3513 0 
L 2938 0 
L 2938 2094 
Q 2938 2591 2744 2837 
Q 2550 3084 2163 3084 
Q 1697 3084 1428 2787 
Q 1159 2491 1159 1978 
L 1159 0 
L 581 0 
L 581 3500 
L 1159 3500 
L 1159 2956 
Q 1366 3272 1645 3428 
Q 1925 3584 2291 3584 
Q 2894 3584 3203 3211 
Q 3513 2838 3513 2113 
z
" transform="scale(0.015625)"/>
       <path id="DejaVuSans-74" d="M 1172 4494 
L 1172 3500 
L 2356 3500 
L 2356 3053 
L 1172 3053 
L 1172 1153 
Q 1172 725 1289 603 
Q 1406 481 1766 481 
L 2356 481 
L 2356 0 
L 1766 0 
Q 1100 0 847 248 
Q 594 497 594 1153 
L 594 3053 
L 172 3053 
L 172 3500 
L 594 3500 
L 594 4494 
L 1172 4494 
z
" transform="scale(0.015625)"/>
       <path id="DejaVuSans-29" d="M 513 4856 
L 1013 4856 
Q 1481 4119 1714 3412 
Q 1947 2706 1947 2009 
Q 1947 1309 1714 600 
Q 1481 -109 1013 -844 
L 513 -844 
Q 928 -128 1133 580 
Q 1338 1288 1338 2009 
Q 1338 2731 1133 3434 
Q 928 4138 513 4856 
z
" transform="scale(0.015625)"/>
      </defs>
      <use xlink:href="#DejaVuSans-54"/>
      <use xlink:href="#DejaVuSans-69" transform="translate(57.958984 0)"/>
      <use xlink:href="#DejaVuSans-6d" transform="translate(85.742188 0)"/>
      <use xlink:href="#DejaVuSans-65" transform="translate(183.154297 0)"/>
      <use xlink:href="#DejaVuSans-20" transform="translate(244.677734 0)"/>
      <use xlink:href="#DejaVuSans-28" transform="translate(276.464844 0)"/>
      <use xlink:href="#DejaVuSans-68" transform="translate(315.478516 0)"/>
      <use xlink:href="#DejaVuSans-6f" transform="translate(378.857422 0)"/>
      <use xlink:href="#DejaVuSans-75" transform="translate(440.039062 0)"/>
      <use xlink:href="#DejaVuSans-72" transform="translate(503.417969 0)"/>
      <use xlink:href="#DejaVuSans-3a" transform="translate(542.78125 0)"/>
      <use xlink:href="#DejaVuSans-6d" transform="translate(576.472656 0)"/>
      <use xlink:href="#DejaVuSans-69" transform="translate(673.884766 0)"/>
      <use xlink:href="#DejaVuSans-6e" transform="translate(701.667969 0)"/>
      <use xlink:href="#DejaVuSans-75" transform="translate(765.046875 0)"/>
      <use xlink:href="#DejaVuSans-74" transform="translate(828.425781 0)"/>
      <use xlink:href="#DejaVuSans-65" transform="translate(867.634766 0)"/>
      <use xlink:href="#DejaVuSans-29" transform="translate(929.158203 0)"/>
     </g>
    </g>
   </g>
   <g id="matplotlib.axis_2">
    <g id="ytick_1">
     <g id="line2d_13">
      <defs>
       <path id="m7e859085af" d="M 0 0 
L -3.5 0 
" style="stroke: #000000; stroke-width: 0.8"/>
      </defs>
      <g>
       <use xlink:href="#m7e859085af" x="53.328125" y="281.119633" style="stroke: #000000; stroke-width: 0.8"/>
      </g>
     </g>
     <g id="text_10">
      <!-- 0 -->
      <g transform="translate(39.965625 284.918851) scale(0.1 -0.1)">
       <use xlink:href="#DejaVuSans-30"/>
      </g>
     </g>
    </g>
    <g id="ytick_2">
     <g id="line2d_14">
      <g>
       <use xlink:href="#m7e859085af" x="53.328125" y="249.63603" style="stroke: #000000; stroke-width: 0.8"/>
      </g>
     </g>
     <g id="text_11">
      <!-- 250 -->
      <g transform="translate(27.240625 253.435249) scale(0.1 -0.1)">
       <defs>
        <path id="DejaVuSans-35" d="M 691 4666 
L 3169 4666 
L 3169 4134 
L 1269 4134 
L 1269 2991 
Q 1406 3038 1543 3061 
Q 1681 3084 1819 3084 
Q 2600 3084 3056 2656 
Q 3513 2228 3513 1497 
Q 3513 744 3044 326 
Q 2575 -91 1722 -91 
Q 1428 -91 1123 -41 
Q 819 9 494 109 
L 494 744 
Q 775 591 1075 516 
Q 1375 441 1709 441 
Q 2250 441 2565 725 
Q 2881 1009 2881 1497 
Q 2881 1984 2565 2268 
Q 2250 2553 1709 2553 
Q 1456 2553 1204 2497 
Q 953 2441 691 2322 
L 691 4666 
z
" transform="scale(0.015625)"/>
       </defs>
       <use xlink:href="#DejaVuSans-32"/>
       <use xlink:href="#DejaVuSans-35" transform="translate(63.623047 0)"/>
       <use xlink:href="#DejaVuSans-30" transform="translate(127.246094 0)"/>
      </g>
     </g>
    </g>
    <g id="ytick_3">
     <g id="line2d_15">
      <g>
       <use xlink:href="#m7e859085af" x="53.328125" y="218.152428" style="stroke: #000000; stroke-width: 0.8"/>
      </g>
     </g>
     <g id="text_12">
      <!-- 500 -->
      <g transform="translate(27.240625 221.951647) scale(0.1 -0.1)">
       <use xlink:href="#DejaVuSans-35"/>
       <use xlink:href="#DejaVuSans-30" transform="translate(63.623047 0)"/>
       <use xlink:href="#DejaVuSans-30" transform="translate(127.246094 0)"/>
      </g>
     </g>
    </g>
    <g id="ytick_4">
     <g id="line2d_16">
      <g>
       <use xlink:href="#m7e859085af" x="53.328125" y="186.668826" style="stroke: #000000; stroke-width: 0.8"/>
      </g>
     </g>
     <g id="text_13">
      <!-- 750 -->
      <g transform="translate(27.240625 190.468044) scale(0.1 -0.1)">
       <defs>
        <path id="DejaVuSans-37" d="M 525 4666 
L 3525 4666 
L 3525 4397 
L 1831 0 
L 1172 0 
L 2766 4134 
L 525 4134 
L 525 4666 
z
" transform="scale(0.015625)"/>
       </defs>
       <use xlink:href="#DejaVuSans-37"/>
       <use xlink:href="#DejaVuSans-35" transform="translate(63.623047 0)"/>
       <use xlink:href="#DejaVuSans-30" transform="translate(127.246094 0)"/>
      </g>
     </g>
    </g>
    <g id="ytick_5">
     <g id="line2d_17">
      <g>
       <use xlink:href="#m7e859085af" x="53.328125" y="155.185223" style="stroke: #000000; stroke-width: 0.8"/>
      </g>
     </g>
     <g id="text_14">
      <!-- 1000 -->
      <g transform="translate(20.878125 158.984442) scale(0.1 -0.1)">
       <use xlink:href="#DejaVuSans-31"/>
       <use xlink:href="#DejaVuSans-30" transform="translate(63.623047 0)"/>
       <use xlink:href="#DejaVuSans-30" transform="translate(127.246094 0)"/>
       <use xlink:href="#DejaVuSans-30" transform="translate(190.869141 0)"/>
      </g>
     </g>
    </g>
    <g id="ytick_6">
     <g id="line2d_18">
      <g>
       <use xlink:href="#m7e859085af" x="53.328125" y="123.701621" style="stroke: #000000; stroke-width: 0.8"/>
      </g>
     </g>
     <g id="text_15">
      <!-- 1250 -->
      <g transform="translate(20.878125 127.50084) scale(0.1 -0.1)">
       <use xlink:href="#DejaVuSans-31"/>
       <use xlink:href="#DejaVuSans-32" transform="translate(63.623047 0)"/>
       <use xlink:href="#DejaVuSans-35" transform="translate(127.246094 0)"/>
       <use xlink:href="#DejaVuSans-30" transform="translate(190.869141 0)"/>
      </g>
     </g>
    </g>
    <g id="ytick_7">
     <g id="line2d_19">
      <g>
       <use xlink:href="#m7e859085af" x="53.328125" y="92.218019" style="stroke: #000000; stroke-width: 0.8"/>
      </g>
     </g>
     <g id="text_16">
      <!-- 1500 -->
      <g transform="translate(20.878125 96.017238) scale(0.1 -0.1)">
       <use xlink:href="#DejaVuSans-31"/>
       <use xlink:href="#DejaVuSans-35" transform="translate(63.623047 0)"/>
       <use xlink:href="#DejaVuSans-30" transform="translate(127.246094 0)"/>
       <use xlink:href="#DejaVuSans-30" transform="translate(190.869141 0)"/>
      </g>
     </g>
    </g>
    <g id="ytick_8">
     <g id="line2d_20">
      <g>
       <use xlink:href="#m7e859085af" x="53.328125" y="60.734417" style="stroke: #000000; stroke-width: 0.8"/>
      </g>
     </g>
     <g id="text_17">
      <!-- 1750 -->
      <g transform="translate(20.878125 64.533635) scale(0.1 -0.1)">
       <use xlink:href="#DejaVuSans-31"/>
       <use xlink:href="#DejaVuSans-37" transform="translate(63.623047 0)"/>
       <use xlink:href="#DejaVuSans-35" transform="translate(127.246094 0)"/>
       <use xlink:href="#DejaVuSans-30" transform="translate(190.869141 0)"/>
      </g>
     </g>
    </g>
    <g id="ytick_9">
     <g id="line2d_21">
      <g>
       <use xlink:href="#m7e859085af" x="53.328125" y="29.250814" style="stroke: #000000; stroke-width: 0.8"/>
      </g>
     </g>
     <g id="text_18">
      <!-- 2000 -->
      <g transform="translate(20.878125 33.050033) scale(0.1 -0.1)">
       <use xlink:href="#DejaVuSans-32"/>
       <use xlink:href="#DejaVuSans-30" transform="translate(63.623047 0)"/>
       <use xlink:href="#DejaVuSans-30" transform="translate(127.246094 0)"/>
       <use xlink:href="#DejaVuSans-30" transform="translate(190.869141 0)"/>
      </g>
     </g>
    </g>
    <g id="text_19">
     <!-- Code branch coverage -->
     <g transform="translate(14.798438 211.949125) rotate(-90) scale(0.1 -0.1)">
      <defs>
       <path id="DejaVuSans-43" d="M 4122 4306 
L 4122 3641 
Q 3803 3938 3442 4084 
Q 3081 4231 2675 4231 
Q 1875 4231 1450 3742 
Q 1025 3253 1025 2328 
Q 1025 1406 1450 917 
Q 1875 428 2675 428 
Q 3081 428 3442 575 
Q 3803 722 4122 1019 
L 4122 359 
Q 3791 134 3420 21 
Q 3050 -91 2638 -91 
Q 1578 -91 968 557 
Q 359 1206 359 2328 
Q 359 3453 968 4101 
Q 1578 4750 2638 4750 
Q 3056 4750 3426 4639 
Q 3797 4528 4122 4306 
z
" transform="scale(0.015625)"/>
       <path id="DejaVuSans-64" d="M 2906 2969 
L 2906 4863 
L 3481 4863 
L 3481 0 
L 2906 0 
L 2906 525 
Q 2725 213 2448 61 
Q 2172 -91 1784 -91 
Q 1150 -91 751 415 
Q 353 922 353 1747 
Q 353 2572 751 3078 
Q 1150 3584 1784 3584 
Q 2172 3584 2448 3432 
Q 2725 3281 2906 2969 
z
M 947 1747 
Q 947 1113 1208 752 
Q 1469 391 1925 391 
Q 2381 391 2643 752 
Q 2906 1113 2906 1747 
Q 2906 2381 2643 2742 
Q 2381 3103 1925 3103 
Q 1469 3103 1208 2742 
Q 947 2381 947 1747 
z
" transform="scale(0.015625)"/>
       <path id="DejaVuSans-62" d="M 3116 1747 
Q 3116 2381 2855 2742 
Q 2594 3103 2138 3103 
Q 1681 3103 1420 2742 
Q 1159 2381 1159 1747 
Q 1159 1113 1420 752 
Q 1681 391 2138 391 
Q 2594 391 2855 752 
Q 3116 1113 3116 1747 
z
M 1159 2969 
Q 1341 3281 1617 3432 
Q 1894 3584 2278 3584 
Q 2916 3584 3314 3078 
Q 3713 2572 3713 1747 
Q 3713 922 3314 415 
Q 2916 -91 2278 -91 
Q 1894 -91 1617 61 
Q 1341 213 1159 525 
L 1159 0 
L 581 0 
L 581 4863 
L 1159 4863 
L 1159 2969 
z
" transform="scale(0.015625)"/>
       <path id="DejaVuSans-61" d="M 2194 1759 
Q 1497 1759 1228 1600 
Q 959 1441 959 1056 
Q 959 750 1161 570 
Q 1363 391 1709 391 
Q 2188 391 2477 730 
Q 2766 1069 2766 1631 
L 2766 1759 
L 2194 1759 
z
M 3341 1997 
L 3341 0 
L 2766 0 
L 2766 531 
Q 2569 213 2275 61 
Q 1981 -91 1556 -91 
Q 1019 -91 701 211 
Q 384 513 384 1019 
Q 384 1609 779 1909 
Q 1175 2209 1959 2209 
L 2766 2209 
L 2766 2266 
Q 2766 2663 2505 2880 
Q 2244 3097 1772 3097 
Q 1472 3097 1187 3025 
Q 903 2953 641 2809 
L 641 3341 
Q 956 3463 1253 3523 
Q 1550 3584 1831 3584 
Q 2591 3584 2966 3190 
Q 3341 2797 3341 1997 
z
" transform="scale(0.015625)"/>
       <path id="DejaVuSans-63" d="M 3122 3366 
L 3122 2828 
Q 2878 2963 2633 3030 
Q 2388 3097 2138 3097 
Q 1578 3097 1268 2742 
Q 959 2388 959 1747 
Q 959 1106 1268 751 
Q 1578 397 2138 397 
Q 2388 397 2633 464 
Q 2878 531 3122 666 
L 3122 134 
Q 2881 22 2623 -34 
Q 2366 -91 2075 -91 
Q 1284 -91 818 406 
Q 353 903 353 1747 
Q 353 2603 823 3093 
Q 1294 3584 2113 3584 
Q 2378 3584 2631 3529 
Q 2884 3475 3122 3366 
z
" transform="scale(0.015625)"/>
       <path id="DejaVuSans-76" d="M 191 3500 
L 800 3500 
L 1894 563 
L 2988 3500 
L 3597 3500 
L 2284 0 
L 1503 0 
L 191 3500 
z
" transform="scale(0.015625)"/>
       <path id="DejaVuSans-67" d="M 2906 1791 
Q 2906 2416 2648 2759 
Q 2391 3103 1925 3103 
Q 1463 3103 1205 2759 
Q 947 2416 947 1791 
Q 947 1169 1205 825 
Q 1463 481 1925 481 
Q 2391 481 2648 825 
Q 2906 1169 2906 1791 
z
M 3481 434 
Q 3481 -459 3084 -895 
Q 2688 -1331 1869 -1331 
Q 1566 -1331 1297 -1286 
Q 1028 -1241 775 -1147 
L 775 -588 
Q 1028 -725 1275 -790 
Q 1522 -856 1778 -856 
Q 2344 -856 2625 -561 
Q 2906 -266 2906 331 
L 2906 616 
Q 2728 306 2450 153 
Q 2172 0 1784 0 
Q 1141 0 747 490 
Q 353 981 353 1791 
Q 353 2603 747 3093 
Q 1141 3584 1784 3584 
Q 2172 3584 2450 3431 
Q 2728 3278 2906 2969 
L 2906 3500 
L 3481 3500 
L 3481 434 
z
" transform="scale(0.015625)"/>
      </defs>
      <use xlink:href="#DejaVuSans-43"/>
      <use xlink:href="#DejaVuSans-6f" transform="translate(69.824219 0)"/>
      <use xlink:href="#DejaVuSans-64" transform="translate(131.005859 0)"/>
      <use xlink:href="#DejaVuSans-65" transform="translate(194.482422 0)"/>
      <use xlink:href="#DejaVuSans-20" transform="translate(256.005859 0)"/>
      <use xlink:href="#DejaVuSans-62" transform="translate(287.792969 0)"/>
      <use xlink:href="#DejaVuSans-72" transform="translate(351.269531 0)"/>
      <use xlink:href="#DejaVuSans-61" transform="translate(392.382812 0)"/>
      <use xlink:href="#DejaVuSans-6e" transform="translate(453.662109 0)"/>
      <use xlink:href="#DejaVuSans-63" transform="translate(517.041016 0)"/>
      <use xlink:href="#DejaVuSans-68" transform="translate(572.021484 0)"/>
      <use xlink:href="#DejaVuSans-20" transform="translate(635.400391 0)"/>
      <use xlink:href="#DejaVuSans-63" transform="translate(667.1875 0)"/>
      <use xlink:href="#DejaVuSans-6f" transform="translate(722.167969 0)"/>
      <use xlink:href="#DejaVuSans-76" transform="translate(783.349609 0)"/>
      <use xlink:href="#DejaVuSans-65" transform="translate(842.529297 0)"/>
      <use xlink:href="#DejaVuSans-72" transform="translate(904.052734 0)"/>
      <use xlink:href="#DejaVuSans-61" transform="translate(945.166016 0)"/>
      <use xlink:href="#DejaVuSans-67" transform="translate(1006.445312 0)"/>
      <use xlink:href="#DejaVuSans-65" transform="translate(1069.921875 0)"/>
     </g>
    </g>
   </g>
   <g id="line2d_22">
    <path d="M 53.328125 276.334125 
L 539.192925 180.49804 
L 578.04715 177.475614 
L 600.775415 173.823516 
L 616.901376 126.346244 
L 629.409643 125.716572 
L 639.629641 125.716572 
L 648.270526 125.716572 
L 655.755601 125.716572 
L 662.357906 125.716572 
L 668.263868 105.693001 
L 673.606461 105.693001 
L 678.483866 105.063329 
L 682.970644 105.063329 
L 687.124751 105.063329 
L 690.992133 103.929919 
L 694.609827 103.426181 
L 698.008128 102.670575 
L 701.212131 102.670575 
L 704.242858 100.52969 
L 707.118093 100.52969 
L 709.853016 100.52969 
L 712.460686 100.52969 
L 714.952421 100.52969 
L 717.338092 100.151887 
L 719.62636 100.151887 
L 721.824869 100.151887 
L 723.940396 100.151887 
L 725.978977 100.151887 
L 727.946014 100.151887 
L 729.846358 99.900018 
L 731.684385 99.900018 
L 733.464052 98.640674 
L 735.188951 98.640674 
L 736.862353 88.691855 
L 738.487244 87.054708 
L 740.066356 87.054708 
L 741.6022 87.054708 
L 743.097084 87.054708 
L 744.553134 87.054708 
L 745.972319 87.054708 
L 747.356458 87.054708 
L 748.707242 87.054708 
L 750.026239 86.928774 
L 751.314912 86.928774 
L 752.574623 86.802839 
L 753.806646 86.802839 
L 755.012172 86.802839 
L 756.192317 86.802839 
L 757.348127 85.543495 
L 758.480586 85.543495 
L 759.590618 85.291626 
L 760.679095 85.291626 
L 761.746837 85.291626 
L 762.794621 85.291626 
L 763.823178 85.291626 
L 764.833202 85.291626 
" clip-path="url(#p5c25301800)" style="fill: none; stroke: #d62728; stroke-width: 1.5; stroke-linecap: square"/>
    <defs>
     <path id="md155f9d886" d="M 0 -3 
L -3 3 
L 3 3 
z
" style="stroke: #ffffff; stroke-width: 0.75; stroke-linejoin: miter"/>
    </defs>
    <g clip-path="url(#p5c25301800)">
     <use xlink:href="#md155f9d886" x="53.328125" y="276.334125" style="fill: #d62728; stroke: #ffffff; stroke-width: 0.75; stroke-linejoin: miter"/>
     <use xlink:href="#md155f9d886" x="539.192925" y="180.49804" style="fill: #d62728; stroke: #ffffff; stroke-width: 0.75; stroke-linejoin: miter"/>
     <use xlink:href="#md155f9d886" x="578.04715" y="177.475614" style="fill: #d62728; stroke: #ffffff; stroke-width: 0.75; stroke-linejoin: miter"/>
     <use xlink:href="#md155f9d886" x="600.775415" y="173.823516" style="fill: #d62728; stroke: #ffffff; stroke-width: 0.75; stroke-linejoin: miter"/>
     <use xlink:href="#md155f9d886" x="616.901376" y="126.346244" style="fill: #d62728; stroke: #ffffff; stroke-width: 0.75; stroke-linejoin: miter"/>
     <use xlink:href="#md155f9d886" x="629.409643" y="125.716572" style="fill: #d62728; stroke: #ffffff; stroke-width: 0.75; stroke-linejoin: miter"/>
     <use xlink:href="#md155f9d886" x="639.629641" y="125.716572" style="fill: #d62728; stroke: #ffffff; stroke-width: 0.75; stroke-linejoin: miter"/>
     <use xlink:href="#md155f9d886" x="648.270526" y="125.716572" style="fill: #d62728; stroke: #ffffff; stroke-width: 0.75; stroke-linejoin: miter"/>
     <use xlink:href="#md155f9d886" x="655.755601" y="125.716572" style="fill: #d62728; stroke: #ffffff; stroke-width: 0.75; stroke-linejoin: miter"/>
     <use xlink:href="#md155f9d886" x="662.357906" y="125.716572" style="fill: #d62728; stroke: #ffffff; stroke-width: 0.75; stroke-linejoin: miter"/>
     <use xlink:href="#md155f9d886" x="668.263868" y="105.693001" style="fill: #d62728; stroke: #ffffff; stroke-width: 0.75; stroke-linejoin: miter"/>
     <use xlink:href="#md155f9d886" x="673.606461" y="105.693001" style="fill: #d62728; stroke: #ffffff; stroke-width: 0.75; stroke-linejoin: miter"/>
     <use xlink:href="#md155f9d886" x="678.483866" y="105.063329" style="fill: #d62728; stroke: #ffffff; stroke-width: 0.75; stroke-linejoin: miter"/>
     <use xlink:href="#md155f9d886" x="682.970644" y="105.063329" style="fill: #d62728; stroke: #ffffff; stroke-width: 0.75; stroke-linejoin: miter"/>
     <use xlink:href="#md155f9d886" x="687.124751" y="105.063329" style="fill: #d62728; stroke: #ffffff; stroke-width: 0.75; stroke-linejoin: miter"/>
     <use xlink:href="#md155f9d886" x="690.992133" y="103.929919" style="fill: #d62728; stroke: #ffffff; stroke-width: 0.75; stroke-linejoin: miter"/>
     <use xlink:href="#md155f9d886" x="694.609827" y="103.426181" style="fill: #d62728; stroke: #ffffff; stroke-width: 0.75; stroke-linejoin: miter"/>
     <use xlink:href="#md155f9d886" x="698.008128" y="102.670575" style="fill: #d62728; stroke: #ffffff; stroke-width: 0.75; stroke-linejoin: miter"/>
     <use xlink:href="#md155f9d886" x="701.212131" y="102.670575" style="fill: #d62728; stroke: #ffffff; stroke-width: 0.75; stroke-linejoin: miter"/>
     <use xlink:href="#md155f9d886" x="704.242858" y="100.52969" style="fill: #d62728; stroke: #ffffff; stroke-width: 0.75; stroke-linejoin: miter"/>
     <use xlink:href="#md155f9d886" x="707.118093" y="100.52969" style="fill: #d62728; stroke: #ffffff; stroke-width: 0.75; stroke-linejoin: miter"/>
     <use xlink:href="#md155f9d886" x="709.853016" y="100.52969" style="fill: #d62728; stroke: #ffffff; stroke-width: 0.75; stroke-linejoin: miter"/>
     <use xlink:href="#md155f9d886" x="712.460686" y="100.52969" style="fill: #d62728; stroke: #ffffff; stroke-width: 0.75; stroke-linejoin: miter"/>
     <use xlink:href="#md155f9d886" x="714.952421" y="100.52969" style="fill: #d62728; stroke: #ffffff; stroke-width: 0.75; stroke-linejoin: miter"/>
     <use xlink:href="#md155f9d886" x="717.338092" y="100.151887" style="fill: #d62728; stroke: #ffffff; stroke-width: 0.75; stroke-linejoin: miter"/>
     <use xlink:href="#md155f9d886" x="719.62636" y="100.151887" style="fill: #d62728; stroke: #ffffff; stroke-width: 0.75; stroke-linejoin: miter"/>
     <use xlink:href="#md155f9d886" x="721.824869" y="100.151887" style="fill: #d62728; stroke: #ffffff; stroke-width: 0.75; stroke-linejoin: miter"/>
     <use xlink:href="#md155f9d886" x="723.940396" y="100.151887" style="fill: #d62728; stroke: #ffffff; stroke-width: 0.75; stroke-linejoin: miter"/>
     <use xlink:href="#md155f9d886" x="725.978977" y="100.151887" style="fill: #d62728; stroke: #ffffff; stroke-width: 0.75; stroke-linejoin: miter"/>
     <use xlink:href="#md155f9d886" x="727.946014" y="100.151887" style="fill: #d62728; stroke: #ffffff; stroke-width: 0.75; stroke-linejoin: miter"/>
     <use xlink:href="#md155f9d886" x="729.846358" y="99.900018" style="fill: #d62728; stroke: #ffffff; stroke-width: 0.75; stroke-linejoin: miter"/>
     <use xlink:href="#md155f9d886" x="731.684385" y="99.900018" style="fill: #d62728; stroke: #ffffff; stroke-width: 0.75; stroke-linejoin: miter"/>
     <use xlink:href="#md155f9d886" x="733.464052" y="98.640674" style="fill: #d62728; stroke: #ffffff; stroke-width: 0.75; stroke-linejoin: miter"/>
     <use xlink:href="#md155f9d886" x="735.188951" y="98.640674" style="fill: #d62728; stroke: #ffffff; stroke-width: 0.75; stroke-linejoin: miter"/>
     <use xlink:href="#md155f9d886" x="736.862353" y="88.691855" style="fill: #d62728; stroke: #ffffff; stroke-width: 0.75; stroke-linejoin: miter"/>
     <use xlink:href="#md155f9d886" x="738.487244" y="87.054708" style="fill: #d62728; stroke: #ffffff; stroke-width: 0.75; stroke-linejoin: miter"/>
     <use xlink:href="#md155f9d886" x="740.066356" y="87.054708" style="fill: #d62728; stroke: #ffffff; stroke-width: 0.75; stroke-linejoin: miter"/>
     <use xlink:href="#md155f9d886" x="741.6022" y="87.054708" style="fill: #d62728; stroke: #ffffff; stroke-width: 0.75; stroke-linejoin: miter"/>
     <use xlink:href="#md155f9d886" x="743.097084" y="87.054708" style="fill: #d62728; stroke: #ffffff; stroke-width: 0.75; stroke-linejoin: miter"/>
     <use xlink:href="#md155f9d886" x="744.553134" y="87.054708" style="fill: #d62728; stroke: #ffffff; stroke-width: 0.75; stroke-linejoin: miter"/>
     <use xlink:href="#md155f9d886" x="745.972319" y="87.054708" style="fill: #d62728; stroke: #ffffff; stroke-width: 0.75; stroke-linejoin: miter"/>
     <use xlink:href="#md155f9d886" x="747.356458" y="87.054708" style="fill: #d62728; stroke: #ffffff; stroke-width: 0.75; stroke-linejoin: miter"/>
     <use xlink:href="#md155f9d886" x="748.707242" y="87.054708" style="fill: #d62728; stroke: #ffffff; stroke-width: 0.75; stroke-linejoin: miter"/>
     <use xlink:href="#md155f9d886" x="750.026239" y="86.928774" style="fill: #d62728; stroke: #ffffff; stroke-width: 0.75; stroke-linejoin: miter"/>
     <use xlink:href="#md155f9d886" x="751.314912" y="86.928774" style="fill: #d62728; stroke: #ffffff; stroke-width: 0.75; stroke-linejoin: miter"/>
     <use xlink:href="#md155f9d886" x="752.574623" y="86.802839" style="fill: #d62728; stroke: #ffffff; stroke-width: 0.75; stroke-linejoin: miter"/>
     <use xlink:href="#md155f9d886" x="753.806646" y="86.802839" style="fill: #d62728; stroke: #ffffff; stroke-width: 0.75; stroke-linejoin: miter"/>
     <use xlink:href="#md155f9d886" x="755.012172" y="86.802839" style="fill: #d62728; stroke: #ffffff; stroke-width: 0.75; stroke-linejoin: miter"/>
     <use xlink:href="#md155f9d886" x="756.192317" y="86.802839" style="fill: #d62728; stroke: #ffffff; stroke-width: 0.75; stroke-linejoin: miter"/>
     <use xlink:href="#md155f9d886" x="757.348127" y="85.543495" style="fill: #d62728; stroke: #ffffff; stroke-width: 0.75; stroke-linejoin: miter"/>
     <use xlink:href="#md155f9d886" x="758.480586" y="85.543495" style="fill: #d62728; stroke: #ffffff; stroke-width: 0.75; stroke-linejoin: miter"/>
     <use xlink:href="#md155f9d886" x="759.590618" y="85.291626" style="fill: #d62728; stroke: #ffffff; stroke-width: 0.75; stroke-linejoin: miter"/>
     <use xlink:href="#md155f9d886" x="760.679095" y="85.291626" style="fill: #d62728; stroke: #ffffff; stroke-width: 0.75; stroke-linejoin: miter"/>
     <use xlink:href="#md155f9d886" x="761.746837" y="85.291626" style="fill: #d62728; stroke: #ffffff; stroke-width: 0.75; stroke-linejoin: miter"/>
     <use xlink:href="#md155f9d886" x="762.794621" y="85.291626" style="fill: #d62728; stroke: #ffffff; stroke-width: 0.75; stroke-linejoin: miter"/>
     <use xlink:href="#md155f9d886" x="763.823178" y="85.291626" style="fill: #d62728; stroke: #ffffff; stroke-width: 0.75; stroke-linejoin: miter"/>
     <use xlink:href="#md155f9d886" x="764.833202" y="85.291626" style="fill: #d62728; stroke: #ffffff; stroke-width: 0.75; stroke-linejoin: miter"/>
    </g>
   </g>
   <g id="line2d_23">
    <path d="M 53.328125 276.334125 
L 539.192925 193.406317 
L 578.04715 184.590908 
L 600.775415 176.908909 
L 616.901376 175.775499 
L 629.409643 149.140372 
L 639.629641 148.132896 
L 648.270526 141.269471 
L 655.755601 141.143537 
L 662.357906 140.324963 
L 668.263868 140.261996 
L 673.606461 140.073094 
L 678.483866 139.254521 
L 682.970644 138.687816 
L 687.124751 138.561881 
L 690.992133 138.435947 
L 694.609827 137.428472 
L 698.008128 137.365504 
L 701.212131 136.987701 
L 704.242858 136.861767 
L 707.118093 132.139227 
L 709.853016 132.076259 
L 712.460686 132.076259 
L 714.952421 132.076259 
L 717.338092 131.950325 
L 719.62636 131.950325 
L 721.824869 131.950325 
L 723.940396 131.950325 
L 725.978977 131.950325 
L 727.946014 131.950325 
L 729.846358 94.107035 
L 731.684385 94.107035 
L 733.464052 90.203068 
L 735.188951 90.203068 
L 736.862353 90.203068 
L 738.487244 90.140101 
L 740.066356 90.140101 
L 741.6022 90.140101 
L 743.097084 90.140101 
L 744.553134 90.140101 
L 745.972319 85.984266 
L 747.356458 85.228659 
L 748.707242 85.228659 
L 750.026239 85.165692 
L 751.314912 85.165692 
L 752.574623 84.850856 
L 753.806646 84.850856 
L 755.012172 84.850856 
L 756.192317 84.850856 
L 757.348127 84.850856 
L 758.480586 84.850856 
L 759.590618 84.850856 
L 760.679095 84.850856 
L 761.746837 84.850856 
L 762.794621 84.410085 
L 763.823178 84.347118 
L 764.833202 84.158217 
" clip-path="url(#p5c25301800)" style="fill: none; stroke: #98df8a; stroke-width: 1.5; stroke-linecap: square"/>
    <defs>
     <path id="me1c458f8bf" d="M -0 3 
L 3 -3 
L -3 -3 
z
" style="stroke: #ffffff; stroke-width: 0.75; stroke-linejoin: miter"/>
    </defs>
    <g clip-path="url(#p5c25301800)">
     <use xlink:href="#me1c458f8bf" x="53.328125" y="276.334125" style="fill: #98df8a; stroke: #ffffff; stroke-width: 0.75; stroke-linejoin: miter"/>
     <use xlink:href="#me1c458f8bf" x="539.192925" y="193.406317" style="fill: #98df8a; stroke: #ffffff; stroke-width: 0.75; stroke-linejoin: miter"/>
     <use xlink:href="#me1c458f8bf" x="578.04715" y="184.590908" style="fill: #98df8a; stroke: #ffffff; stroke-width: 0.75; stroke-linejoin: miter"/>
     <use xlink:href="#me1c458f8bf" x="600.775415" y="176.908909" style="fill: #98df8a; stroke: #ffffff; stroke-width: 0.75; stroke-linejoin: miter"/>
     <use xlink:href="#me1c458f8bf" x="616.901376" y="175.775499" style="fill: #98df8a; stroke: #ffffff; stroke-width: 0.75; stroke-linejoin: miter"/>
     <use xlink:href="#me1c458f8bf" x="629.409643" y="149.140372" style="fill: #98df8a; stroke: #ffffff; stroke-width: 0.75; stroke-linejoin: miter"/>
     <use xlink:href="#me1c458f8bf" x="639.629641" y="148.132896" style="fill: #98df8a; stroke: #ffffff; stroke-width: 0.75; stroke-linejoin: miter"/>
     <use xlink:href="#me1c458f8bf" x="648.270526" y="141.269471" style="fill: #98df8a; stroke: #ffffff; stroke-width: 0.75; stroke-linejoin: miter"/>
     <use xlink:href="#me1c458f8bf" x="655.755601" y="141.143537" style="fill: #98df8a; stroke: #ffffff; stroke-width: 0.75; stroke-linejoin: miter"/>
     <use xlink:href="#me1c458f8bf" x="662.357906" y="140.324963" style="fill: #98df8a; stroke: #ffffff; stroke-width: 0.75; stroke-linejoin: miter"/>
     <use xlink:href="#me1c458f8bf" x="668.263868" y="140.261996" style="fill: #98df8a; stroke: #ffffff; stroke-width: 0.75; stroke-linejoin: miter"/>
     <use xlink:href="#me1c458f8bf" x="673.606461" y="140.073094" style="fill: #98df8a; stroke: #ffffff; stroke-width: 0.75; stroke-linejoin: miter"/>
     <use xlink:href="#me1c458f8bf" x="678.483866" y="139.254521" style="fill: #98df8a; stroke: #ffffff; stroke-width: 0.75; stroke-linejoin: miter"/>
     <use xlink:href="#me1c458f8bf" x="682.970644" y="138.687816" style="fill: #98df8a; stroke: #ffffff; stroke-width: 0.75; stroke-linejoin: miter"/>
     <use xlink:href="#me1c458f8bf" x="687.124751" y="138.561881" style="fill: #98df8a; stroke: #ffffff; stroke-width: 0.75; stroke-linejoin: miter"/>
     <use xlink:href="#me1c458f8bf" x="690.992133" y="138.435947" style="fill: #98df8a; stroke: #ffffff; stroke-width: 0.75; stroke-linejoin: miter"/>
     <use xlink:href="#me1c458f8bf" x="694.609827" y="137.428472" style="fill: #98df8a; stroke: #ffffff; stroke-width: 0.75; stroke-linejoin: miter"/>
     <use xlink:href="#me1c458f8bf" x="698.008128" y="137.365504" style="fill: #98df8a; stroke: #ffffff; stroke-width: 0.75; stroke-linejoin: miter"/>
     <use xlink:href="#me1c458f8bf" x="701.212131" y="136.987701" style="fill: #98df8a; stroke: #ffffff; stroke-width: 0.75; stroke-linejoin: miter"/>
     <use xlink:href="#me1c458f8bf" x="704.242858" y="136.861767" style="fill: #98df8a; stroke: #ffffff; stroke-width: 0.75; stroke-linejoin: miter"/>
     <use xlink:href="#me1c458f8bf" x="707.118093" y="132.139227" style="fill: #98df8a; stroke: #ffffff; stroke-width: 0.75; stroke-linejoin: miter"/>
     <use xlink:href="#me1c458f8bf" x="709.853016" y="132.076259" style="fill: #98df8a; stroke: #ffffff; stroke-width: 0.75; stroke-linejoin: miter"/>
     <use xlink:href="#me1c458f8bf" x="712.460686" y="132.076259" style="fill: #98df8a; stroke: #ffffff; stroke-width: 0.75; stroke-linejoin: miter"/>
     <use xlink:href="#me1c458f8bf" x="714.952421" y="132.076259" style="fill: #98df8a; stroke: #ffffff; stroke-width: 0.75; stroke-linejoin: miter"/>
     <use xlink:href="#me1c458f8bf" x="717.338092" y="131.950325" style="fill: #98df8a; stroke: #ffffff; stroke-width: 0.75; stroke-linejoin: miter"/>
     <use xlink:href="#me1c458f8bf" x="719.62636" y="131.950325" style="fill: #98df8a; stroke: #ffffff; stroke-width: 0.75; stroke-linejoin: miter"/>
     <use xlink:href="#me1c458f8bf" x="721.824869" y="131.950325" style="fill: #98df8a; stroke: #ffffff; stroke-width: 0.75; stroke-linejoin: miter"/>
     <use xlink:href="#me1c458f8bf" x="723.940396" y="131.950325" style="fill: #98df8a; stroke: #ffffff; stroke-width: 0.75; stroke-linejoin: miter"/>
     <use xlink:href="#me1c458f8bf" x="725.978977" y="131.950325" style="fill: #98df8a; stroke: #ffffff; stroke-width: 0.75; stroke-linejoin: miter"/>
     <use xlink:href="#me1c458f8bf" x="727.946014" y="131.950325" style="fill: #98df8a; stroke: #ffffff; stroke-width: 0.75; stroke-linejoin: miter"/>
     <use xlink:href="#me1c458f8bf" x="729.846358" y="94.107035" style="fill: #98df8a; stroke: #ffffff; stroke-width: 0.75; stroke-linejoin: miter"/>
     <use xlink:href="#me1c458f8bf" x="731.684385" y="94.107035" style="fill: #98df8a; stroke: #ffffff; stroke-width: 0.75; stroke-linejoin: miter"/>
     <use xlink:href="#me1c458f8bf" x="733.464052" y="90.203068" style="fill: #98df8a; stroke: #ffffff; stroke-width: 0.75; stroke-linejoin: miter"/>
     <use xlink:href="#me1c458f8bf" x="735.188951" y="90.203068" style="fill: #98df8a; stroke: #ffffff; stroke-width: 0.75; stroke-linejoin: miter"/>
     <use xlink:href="#me1c458f8bf" x="736.862353" y="90.203068" style="fill: #98df8a; stroke: #ffffff; stroke-width: 0.75; stroke-linejoin: miter"/>
     <use xlink:href="#me1c458f8bf" x="738.487244" y="90.140101" style="fill: #98df8a; stroke: #ffffff; stroke-width: 0.75; stroke-linejoin: miter"/>
     <use xlink:href="#me1c458f8bf" x="740.066356" y="90.140101" style="fill: #98df8a; stroke: #ffffff; stroke-width: 0.75; stroke-linejoin: miter"/>
     <use xlink:href="#me1c458f8bf" x="741.6022" y="90.140101" style="fill: #98df8a; stroke: #ffffff; stroke-width: 0.75; stroke-linejoin: miter"/>
     <use xlink:href="#me1c458f8bf" x="743.097084" y="90.140101" style="fill: #98df8a; stroke: #ffffff; stroke-width: 0.75; stroke-linejoin: miter"/>
     <use xlink:href="#me1c458f8bf" x="744.553134" y="90.140101" style="fill: #98df8a; stroke: #ffffff; stroke-width: 0.75; stroke-linejoin: miter"/>
     <use xlink:href="#me1c458f8bf" x="745.972319" y="85.984266" style="fill: #98df8a; stroke: #ffffff; stroke-width: 0.75; stroke-linejoin: miter"/>
     <use xlink:href="#me1c458f8bf" x="747.356458" y="85.228659" style="fill: #98df8a; stroke: #ffffff; stroke-width: 0.75; stroke-linejoin: miter"/>
     <use xlink:href="#me1c458f8bf" x="748.707242" y="85.228659" style="fill: #98df8a; stroke: #ffffff; stroke-width: 0.75; stroke-linejoin: miter"/>
     <use xlink:href="#me1c458f8bf" x="750.026239" y="85.165692" style="fill: #98df8a; stroke: #ffffff; stroke-width: 0.75; stroke-linejoin: miter"/>
     <use xlink:href="#me1c458f8bf" x="751.314912" y="85.165692" style="fill: #98df8a; stroke: #ffffff; stroke-width: 0.75; stroke-linejoin: miter"/>
     <use xlink:href="#me1c458f8bf" x="752.574623" y="84.850856" style="fill: #98df8a; stroke: #ffffff; stroke-width: 0.75; stroke-linejoin: miter"/>
     <use xlink:href="#me1c458f8bf" x="753.806646" y="84.850856" style="fill: #98df8a; stroke: #ffffff; stroke-width: 0.75; stroke-linejoin: miter"/>
     <use xlink:href="#me1c458f8bf" x="755.012172" y="84.850856" style="fill: #98df8a; stroke: #ffffff; stroke-width: 0.75; stroke-linejoin: miter"/>
     <use xlink:href="#me1c458f8bf" x="756.192317" y="84.850856" style="fill: #98df8a; stroke: #ffffff; stroke-width: 0.75; stroke-linejoin: miter"/>
     <use xlink:href="#me1c458f8bf" x="757.348127" y="84.850856" style="fill: #98df8a; stroke: #ffffff; stroke-width: 0.75; stroke-linejoin: miter"/>
     <use xlink:href="#me1c458f8bf" x="758.480586" y="84.850856" style="fill: #98df8a; stroke: #ffffff; stroke-width: 0.75; stroke-linejoin: miter"/>
     <use xlink:href="#me1c458f8bf" x="759.590618" y="84.850856" style="fill: #98df8a; stroke: #ffffff; stroke-width: 0.75; stroke-linejoin: miter"/>
     <use xlink:href="#me1c458f8bf" x="760.679095" y="84.850856" style="fill: #98df8a; stroke: #ffffff; stroke-width: 0.75; stroke-linejoin: miter"/>
     <use xlink:href="#me1c458f8bf" x="761.746837" y="84.850856" style="fill: #98df8a; stroke: #ffffff; stroke-width: 0.75; stroke-linejoin: miter"/>
     <use xlink:href="#me1c458f8bf" x="762.794621" y="84.410085" style="fill: #98df8a; stroke: #ffffff; stroke-width: 0.75; stroke-linejoin: miter"/>
     <use xlink:href="#me1c458f8bf" x="763.823178" y="84.347118" style="fill: #98df8a; stroke: #ffffff; stroke-width: 0.75; stroke-linejoin: miter"/>
     <use xlink:href="#me1c458f8bf" x="764.833202" y="84.158217" style="fill: #98df8a; stroke: #ffffff; stroke-width: 0.75; stroke-linejoin: miter"/>
    </g>
   </g>
   <g id="line2d_24">
    <path d="M 53.328125 276.334125 
L 539.192925 194.602693 
L 578.04715 178.609023 
L 600.775415 177.160778 
L 616.901376 142.528815 
L 629.409643 106.952345 
L 639.629641 106.133771 
L 648.270526 105.25223 
L 655.755601 99.144411 
L 662.357906 98.577706 
L 668.263868 97.129461 
L 673.606461 97.129461 
L 678.483866 97.066494 
L 682.970644 97.066494 
L 687.124751 96.877592 
L 690.992133 96.877592 
L 694.609827 96.751658 
L 698.008128 95.555281 
L 701.212131 95.429346 
L 704.242858 95.429346 
L 707.118093 95.429346 
L 709.853016 95.429346 
L 712.460686 95.303412 
L 714.952421 95.303412 
L 717.338092 95.240445 
L 719.62636 95.11451 
L 721.824869 95.11451 
L 723.940396 94.862641 
L 725.978977 94.799674 
L 727.946014 94.799674 
L 729.846358 94.67374 
L 731.684385 94.67374 
L 733.464052 90.077134 
L 735.188951 90.077134 
L 736.862353 90.077134 
L 738.487244 89.195593 
L 740.066356 89.195593 
L 741.6022 88.314052 
L 743.097084 88.314052 
L 744.553134 88.314052 
L 745.972319 88.314052 
L 747.356458 88.314052 
L 748.707242 88.314052 
L 750.026239 88.314052 
L 751.314912 88.314052 
L 752.574623 87.558446 
L 753.806646 87.558446 
L 755.012172 87.558446 
L 756.192317 87.558446 
L 757.348127 87.558446 
L 758.480586 87.558446 
L 759.590618 87.558446 
L 760.679095 87.558446 
L 761.746837 87.558446 
L 762.794621 87.558446 
L 763.823178 87.558446 
L 764.833202 87.432511 
" clip-path="url(#p5c25301800)" style="fill: none; stroke: #1f77b4; stroke-width: 1.5; stroke-linecap: square"/>
    <defs>
     <path id="m5970b2b0c0" d="M 0 3 
C 0.795609 3 1.55874 2.683901 2.12132 2.12132 
C 2.683901 1.55874 3 0.795609 3 0 
C 3 -0.795609 2.683901 -1.55874 2.12132 -2.12132 
C 1.55874 -2.683901 0.795609 -3 0 -3 
C -0.795609 -3 -1.55874 -2.683901 -2.12132 -2.12132 
C -2.683901 -1.55874 -3 -0.795609 -3 0 
C -3 0.795609 -2.683901 1.55874 -2.12132 2.12132 
C -1.55874 2.683901 -0.795609 3 0 3 
z
" style="stroke: #ffffff; stroke-width: 0.75"/>
    </defs>
    <g clip-path="url(#p5c25301800)">
     <use xlink:href="#m5970b2b0c0" x="53.328125" y="276.334125" style="fill: #1f77b4; stroke: #ffffff; stroke-width: 0.75"/>
     <use xlink:href="#m5970b2b0c0" x="539.192925" y="194.602693" style="fill: #1f77b4; stroke: #ffffff; stroke-width: 0.75"/>
     <use xlink:href="#m5970b2b0c0" x="578.04715" y="178.609023" style="fill: #1f77b4; stroke: #ffffff; stroke-width: 0.75"/>
     <use xlink:href="#m5970b2b0c0" x="600.775415" y="177.160778" style="fill: #1f77b4; stroke: #ffffff; stroke-width: 0.75"/>
     <use xlink:href="#m5970b2b0c0" x="616.901376" y="142.528815" style="fill: #1f77b4; stroke: #ffffff; stroke-width: 0.75"/>
     <use xlink:href="#m5970b2b0c0" x="629.409643" y="106.952345" style="fill: #1f77b4; stroke: #ffffff; stroke-width: 0.75"/>
     <use xlink:href="#m5970b2b0c0" x="639.629641" y="106.133771" style="fill: #1f77b4; stroke: #ffffff; stroke-width: 0.75"/>
     <use xlink:href="#m5970b2b0c0" x="648.270526" y="105.25223" style="fill: #1f77b4; stroke: #ffffff; stroke-width: 0.75"/>
     <use xlink:href="#m5970b2b0c0" x="655.755601" y="99.144411" style="fill: #1f77b4; stroke: #ffffff; stroke-width: 0.75"/>
     <use xlink:href="#m5970b2b0c0" x="662.357906" y="98.577706" style="fill: #1f77b4; stroke: #ffffff; stroke-width: 0.75"/>
     <use xlink:href="#m5970b2b0c0" x="668.263868" y="97.129461" style="fill: #1f77b4; stroke: #ffffff; stroke-width: 0.75"/>
     <use xlink:href="#m5970b2b0c0" x="673.606461" y="97.129461" style="fill: #1f77b4; stroke: #ffffff; stroke-width: 0.75"/>
     <use xlink:href="#m5970b2b0c0" x="678.483866" y="97.066494" style="fill: #1f77b4; stroke: #ffffff; stroke-width: 0.75"/>
     <use xlink:href="#m5970b2b0c0" x="682.970644" y="97.066494" style="fill: #1f77b4; stroke: #ffffff; stroke-width: 0.75"/>
     <use xlink:href="#m5970b2b0c0" x="687.124751" y="96.877592" style="fill: #1f77b4; stroke: #ffffff; stroke-width: 0.75"/>
     <use xlink:href="#m5970b2b0c0" x="690.992133" y="96.877592" style="fill: #1f77b4; stroke: #ffffff; stroke-width: 0.75"/>
     <use xlink:href="#m5970b2b0c0" x="694.609827" y="96.751658" style="fill: #1f77b4; stroke: #ffffff; stroke-width: 0.75"/>
     <use xlink:href="#m5970b2b0c0" x="698.008128" y="95.555281" style="fill: #1f77b4; stroke: #ffffff; stroke-width: 0.75"/>
     <use xlink:href="#m5970b2b0c0" x="701.212131" y="95.429346" style="fill: #1f77b4; stroke: #ffffff; stroke-width: 0.75"/>
     <use xlink:href="#m5970b2b0c0" x="704.242858" y="95.429346" style="fill: #1f77b4; stroke: #ffffff; stroke-width: 0.75"/>
     <use xlink:href="#m5970b2b0c0" x="707.118093" y="95.429346" style="fill: #1f77b4; stroke: #ffffff; stroke-width: 0.75"/>
     <use xlink:href="#m5970b2b0c0" x="709.853016" y="95.429346" style="fill: #1f77b4; stroke: #ffffff; stroke-width: 0.75"/>
     <use xlink:href="#m5970b2b0c0" x="712.460686" y="95.303412" style="fill: #1f77b4; stroke: #ffffff; stroke-width: 0.75"/>
     <use xlink:href="#m5970b2b0c0" x="714.952421" y="95.303412" style="fill: #1f77b4; stroke: #ffffff; stroke-width: 0.75"/>
     <use xlink:href="#m5970b2b0c0" x="717.338092" y="95.240445" style="fill: #1f77b4; stroke: #ffffff; stroke-width: 0.75"/>
     <use xlink:href="#m5970b2b0c0" x="719.62636" y="95.11451" style="fill: #1f77b4; stroke: #ffffff; stroke-width: 0.75"/>
     <use xlink:href="#m5970b2b0c0" x="721.824869" y="95.11451" style="fill: #1f77b4; stroke: #ffffff; stroke-width: 0.75"/>
     <use xlink:href="#m5970b2b0c0" x="723.940396" y="94.862641" style="fill: #1f77b4; stroke: #ffffff; stroke-width: 0.75"/>
     <use xlink:href="#m5970b2b0c0" x="725.978977" y="94.799674" style="fill: #1f77b4; stroke: #ffffff; stroke-width: 0.75"/>
     <use xlink:href="#m5970b2b0c0" x="727.946014" y="94.799674" style="fill: #1f77b4; stroke: #ffffff; stroke-width: 0.75"/>
     <use xlink:href="#m5970b2b0c0" x="729.846358" y="94.67374" style="fill: #1f77b4; stroke: #ffffff; stroke-width: 0.75"/>
     <use xlink:href="#m5970b2b0c0" x="731.684385" y="94.67374" style="fill: #1f77b4; stroke: #ffffff; stroke-width: 0.75"/>
     <use xlink:href="#m5970b2b0c0" x="733.464052" y="90.077134" style="fill: #1f77b4; stroke: #ffffff; stroke-width: 0.75"/>
     <use xlink:href="#m5970b2b0c0" x="735.188951" y="90.077134" style="fill: #1f77b4; stroke: #ffffff; stroke-width: 0.75"/>
     <use xlink:href="#m5970b2b0c0" x="736.862353" y="90.077134" style="fill: #1f77b4; stroke: #ffffff; stroke-width: 0.75"/>
     <use xlink:href="#m5970b2b0c0" x="738.487244" y="89.195593" style="fill: #1f77b4; stroke: #ffffff; stroke-width: 0.75"/>
     <use xlink:href="#m5970b2b0c0" x="740.066356" y="89.195593" style="fill: #1f77b4; stroke: #ffffff; stroke-width: 0.75"/>
     <use xlink:href="#m5970b2b0c0" x="741.6022" y="88.314052" style="fill: #1f77b4; stroke: #ffffff; stroke-width: 0.75"/>
     <use xlink:href="#m5970b2b0c0" x="743.097084" y="88.314052" style="fill: #1f77b4; stroke: #ffffff; stroke-width: 0.75"/>
     <use xlink:href="#m5970b2b0c0" x="744.553134" y="88.314052" style="fill: #1f77b4; stroke: #ffffff; stroke-width: 0.75"/>
     <use xlink:href="#m5970b2b0c0" x="745.972319" y="88.314052" style="fill: #1f77b4; stroke: #ffffff; stroke-width: 0.75"/>
     <use xlink:href="#m5970b2b0c0" x="747.356458" y="88.314052" style="fill: #1f77b4; stroke: #ffffff; stroke-width: 0.75"/>
     <use xlink:href="#m5970b2b0c0" x="748.707242" y="88.314052" style="fill: #1f77b4; stroke: #ffffff; stroke-width: 0.75"/>
     <use xlink:href="#m5970b2b0c0" x="750.026239" y="88.314052" style="fill: #1f77b4; stroke: #ffffff; stroke-width: 0.75"/>
     <use xlink:href="#m5970b2b0c0" x="751.314912" y="88.314052" style="fill: #1f77b4; stroke: #ffffff; stroke-width: 0.75"/>
     <use xlink:href="#m5970b2b0c0" x="752.574623" y="87.558446" style="fill: #1f77b4; stroke: #ffffff; stroke-width: 0.75"/>
     <use xlink:href="#m5970b2b0c0" x="753.806646" y="87.558446" style="fill: #1f77b4; stroke: #ffffff; stroke-width: 0.75"/>
     <use xlink:href="#m5970b2b0c0" x="755.012172" y="87.558446" style="fill: #1f77b4; stroke: #ffffff; stroke-width: 0.75"/>
     <use xlink:href="#m5970b2b0c0" x="756.192317" y="87.558446" style="fill: #1f77b4; stroke: #ffffff; stroke-width: 0.75"/>
     <use xlink:href="#m5970b2b0c0" x="757.348127" y="87.558446" style="fill: #1f77b4; stroke: #ffffff; stroke-width: 0.75"/>
     <use xlink:href="#m5970b2b0c0" x="758.480586" y="87.558446" style="fill: #1f77b4; stroke: #ffffff; stroke-width: 0.75"/>
     <use xlink:href="#m5970b2b0c0" x="759.590618" y="87.558446" style="fill: #1f77b4; stroke: #ffffff; stroke-width: 0.75"/>
     <use xlink:href="#m5970b2b0c0" x="760.679095" y="87.558446" style="fill: #1f77b4; stroke: #ffffff; stroke-width: 0.75"/>
     <use xlink:href="#m5970b2b0c0" x="761.746837" y="87.558446" style="fill: #1f77b4; stroke: #ffffff; stroke-width: 0.75"/>
     <use xlink:href="#m5970b2b0c0" x="762.794621" y="87.558446" style="fill: #1f77b4; stroke: #ffffff; stroke-width: 0.75"/>
     <use xlink:href="#m5970b2b0c0" x="763.823178" y="87.558446" style="fill: #1f77b4; stroke: #ffffff; stroke-width: 0.75"/>
     <use xlink:href="#m5970b2b0c0" x="764.833202" y="87.432511" style="fill: #1f77b4; stroke: #ffffff; stroke-width: 0.75"/>
    </g>
   </g>
   <g id="line2d_25">
    <path d="M 53.328125 276.334125 
L 539.192925 197.751054 
L 578.04715 195.987972 
L 600.775415 190.446858 
L 616.901376 174.705057 
L 629.409643 174.705057 
L 639.629641 166.015583 
L 648.270526 165.763714 
L 655.755601 165.763714 
L 662.357906 165.763714 
L 668.263868 165.763714 
L 673.606461 165.763714 
L 678.483866 164.126566 
L 682.970644 164.000632 
L 687.124751 105.189263 
L 690.992133 105.189263 
L 694.609827 104.937394 
L 698.008128 104.81146 
L 701.212131 104.81146 
L 704.242858 104.81146 
L 707.118093 104.81146 
L 709.853016 104.81146 
L 712.460686 104.433656 
L 714.952421 104.181788 
L 717.338092 102.040903 
L 719.62636 102.040903 
L 721.824869 101.789034 
L 723.940396 101.789034 
L 725.978977 100.151887 
L 727.946014 99.648149 
L 729.846358 98.26287 
L 731.684385 98.26287 
L 733.464052 98.26287 
L 735.188951 98.26287 
L 736.862353 98.26287 
L 738.487244 98.136936 
L 740.066356 98.136936 
L 741.6022 98.136936 
L 743.097084 98.011002 
L 744.553134 98.011002 
L 745.972319 98.011002 
L 747.356458 97.38133 
L 748.707242 97.255395 
L 750.026239 95.744182 
L 751.314912 94.862641 
L 752.574623 94.484838 
L 753.806646 94.484838 
L 755.012172 94.484838 
L 756.192317 94.484838 
L 757.348127 94.484838 
L 758.480586 94.484838 
L 759.590618 91.336478 
L 760.679095 91.336478 
L 761.746837 91.336478 
L 762.794621 91.336478 
L 763.823178 91.336478 
L 764.833202 91.336478 
" clip-path="url(#p5c25301800)" style="fill: none; stroke: #c7c7c7; stroke-width: 1.5; stroke-linecap: square"/>
    <defs>
     <path id="mc2a17be7a9" d="M -3 -0 
L 3 3 
L 3 -3 
z
" style="stroke: #ffffff; stroke-width: 0.75; stroke-linejoin: miter"/>
    </defs>
    <g clip-path="url(#p5c25301800)">
     <use xlink:href="#mc2a17be7a9" x="53.328125" y="276.334125" style="fill: #c7c7c7; stroke: #ffffff; stroke-width: 0.75; stroke-linejoin: miter"/>
     <use xlink:href="#mc2a17be7a9" x="539.192925" y="197.751054" style="fill: #c7c7c7; stroke: #ffffff; stroke-width: 0.75; stroke-linejoin: miter"/>
     <use xlink:href="#mc2a17be7a9" x="578.04715" y="195.987972" style="fill: #c7c7c7; stroke: #ffffff; stroke-width: 0.75; stroke-linejoin: miter"/>
     <use xlink:href="#mc2a17be7a9" x="600.775415" y="190.446858" style="fill: #c7c7c7; stroke: #ffffff; stroke-width: 0.75; stroke-linejoin: miter"/>
     <use xlink:href="#mc2a17be7a9" x="616.901376" y="174.705057" style="fill: #c7c7c7; stroke: #ffffff; stroke-width: 0.75; stroke-linejoin: miter"/>
     <use xlink:href="#mc2a17be7a9" x="629.409643" y="174.705057" style="fill: #c7c7c7; stroke: #ffffff; stroke-width: 0.75; stroke-linejoin: miter"/>
     <use xlink:href="#mc2a17be7a9" x="639.629641" y="166.015583" style="fill: #c7c7c7; stroke: #ffffff; stroke-width: 0.75; stroke-linejoin: miter"/>
     <use xlink:href="#mc2a17be7a9" x="648.270526" y="165.763714" style="fill: #c7c7c7; stroke: #ffffff; stroke-width: 0.75; stroke-linejoin: miter"/>
     <use xlink:href="#mc2a17be7a9" x="655.755601" y="165.763714" style="fill: #c7c7c7; stroke: #ffffff; stroke-width: 0.75; stroke-linejoin: miter"/>
     <use xlink:href="#mc2a17be7a9" x="662.357906" y="165.763714" style="fill: #c7c7c7; stroke: #ffffff; stroke-width: 0.75; stroke-linejoin: miter"/>
     <use xlink:href="#mc2a17be7a9" x="668.263868" y="165.763714" style="fill: #c7c7c7; stroke: #ffffff; stroke-width: 0.75; stroke-linejoin: miter"/>
     <use xlink:href="#mc2a17be7a9" x="673.606461" y="165.763714" style="fill: #c7c7c7; stroke: #ffffff; stroke-width: 0.75; stroke-linejoin: miter"/>
     <use xlink:href="#mc2a17be7a9" x="678.483866" y="164.126566" style="fill: #c7c7c7; stroke: #ffffff; stroke-width: 0.75; stroke-linejoin: miter"/>
     <use xlink:href="#mc2a17be7a9" x="682.970644" y="164.000632" style="fill: #c7c7c7; stroke: #ffffff; stroke-width: 0.75; stroke-linejoin: miter"/>
     <use xlink:href="#mc2a17be7a9" x="687.124751" y="105.189263" style="fill: #c7c7c7; stroke: #ffffff; stroke-width: 0.75; stroke-linejoin: miter"/>
     <use xlink:href="#mc2a17be7a9" x="690.992133" y="105.189263" style="fill: #c7c7c7; stroke: #ffffff; stroke-width: 0.75; stroke-linejoin: miter"/>
     <use xlink:href="#mc2a17be7a9" x="694.609827" y="104.937394" style="fill: #c7c7c7; stroke: #ffffff; stroke-width: 0.75; stroke-linejoin: miter"/>
     <use xlink:href="#mc2a17be7a9" x="698.008128" y="104.81146" style="fill: #c7c7c7; stroke: #ffffff; stroke-width: 0.75; stroke-linejoin: miter"/>
     <use xlink:href="#mc2a17be7a9" x="701.212131" y="104.81146" style="fill: #c7c7c7; stroke: #ffffff; stroke-width: 0.75; stroke-linejoin: miter"/>
     <use xlink:href="#mc2a17be7a9" x="704.242858" y="104.81146" style="fill: #c7c7c7; stroke: #ffffff; stroke-width: 0.75; stroke-linejoin: miter"/>
     <use xlink:href="#mc2a17be7a9" x="707.118093" y="104.81146" style="fill: #c7c7c7; stroke: #ffffff; stroke-width: 0.75; stroke-linejoin: miter"/>
     <use xlink:href="#mc2a17be7a9" x="709.853016" y="104.81146" style="fill: #c7c7c7; stroke: #ffffff; stroke-width: 0.75; stroke-linejoin: miter"/>
     <use xlink:href="#mc2a17be7a9" x="712.460686" y="104.433656" style="fill: #c7c7c7; stroke: #ffffff; stroke-width: 0.75; stroke-linejoin: miter"/>
     <use xlink:href="#mc2a17be7a9" x="714.952421" y="104.181788" style="fill: #c7c7c7; stroke: #ffffff; stroke-width: 0.75; stroke-linejoin: miter"/>
     <use xlink:href="#mc2a17be7a9" x="717.338092" y="102.040903" style="fill: #c7c7c7; stroke: #ffffff; stroke-width: 0.75; stroke-linejoin: miter"/>
     <use xlink:href="#mc2a17be7a9" x="719.62636" y="102.040903" style="fill: #c7c7c7; stroke: #ffffff; stroke-width: 0.75; stroke-linejoin: miter"/>
     <use xlink:href="#mc2a17be7a9" x="721.824869" y="101.789034" style="fill: #c7c7c7; stroke: #ffffff; stroke-width: 0.75; stroke-linejoin: miter"/>
     <use xlink:href="#mc2a17be7a9" x="723.940396" y="101.789034" style="fill: #c7c7c7; stroke: #ffffff; stroke-width: 0.75; stroke-linejoin: miter"/>
     <use xlink:href="#mc2a17be7a9" x="725.978977" y="100.151887" style="fill: #c7c7c7; stroke: #ffffff; stroke-width: 0.75; stroke-linejoin: miter"/>
     <use xlink:href="#mc2a17be7a9" x="727.946014" y="99.648149" style="fill: #c7c7c7; stroke: #ffffff; stroke-width: 0.75; stroke-linejoin: miter"/>
     <use xlink:href="#mc2a17be7a9" x="729.846358" y="98.26287" style="fill: #c7c7c7; stroke: #ffffff; stroke-width: 0.75; stroke-linejoin: miter"/>
     <use xlink:href="#mc2a17be7a9" x="731.684385" y="98.26287" style="fill: #c7c7c7; stroke: #ffffff; stroke-width: 0.75; stroke-linejoin: miter"/>
     <use xlink:href="#mc2a17be7a9" x="733.464052" y="98.26287" style="fill: #c7c7c7; stroke: #ffffff; stroke-width: 0.75; stroke-linejoin: miter"/>
     <use xlink:href="#mc2a17be7a9" x="735.188951" y="98.26287" style="fill: #c7c7c7; stroke: #ffffff; stroke-width: 0.75; stroke-linejoin: miter"/>
     <use xlink:href="#mc2a17be7a9" x="736.862353" y="98.26287" style="fill: #c7c7c7; stroke: #ffffff; stroke-width: 0.75; stroke-linejoin: miter"/>
     <use xlink:href="#mc2a17be7a9" x="738.487244" y="98.136936" style="fill: #c7c7c7; stroke: #ffffff; stroke-width: 0.75; stroke-linejoin: miter"/>
     <use xlink:href="#mc2a17be7a9" x="740.066356" y="98.136936" style="fill: #c7c7c7; stroke: #ffffff; stroke-width: 0.75; stroke-linejoin: miter"/>
     <use xlink:href="#mc2a17be7a9" x="741.6022" y="98.136936" style="fill: #c7c7c7; stroke: #ffffff; stroke-width: 0.75; stroke-linejoin: miter"/>
     <use xlink:href="#mc2a17be7a9" x="743.097084" y="98.011002" style="fill: #c7c7c7; stroke: #ffffff; stroke-width: 0.75; stroke-linejoin: miter"/>
     <use xlink:href="#mc2a17be7a9" x="744.553134" y="98.011002" style="fill: #c7c7c7; stroke: #ffffff; stroke-width: 0.75; stroke-linejoin: miter"/>
     <use xlink:href="#mc2a17be7a9" x="745.972319" y="98.011002" style="fill: #c7c7c7; stroke: #ffffff; stroke-width: 0.75; stroke-linejoin: miter"/>
     <use xlink:href="#mc2a17be7a9" x="747.356458" y="97.38133" style="fill: #c7c7c7; stroke: #ffffff; stroke-width: 0.75; stroke-linejoin: miter"/>
     <use xlink:href="#mc2a17be7a9" x="748.707242" y="97.255395" style="fill: #c7c7c7; stroke: #ffffff; stroke-width: 0.75; stroke-linejoin: miter"/>
     <use xlink:href="#mc2a17be7a9" x="750.026239" y="95.744182" style="fill: #c7c7c7; stroke: #ffffff; stroke-width: 0.75; stroke-linejoin: miter"/>
     <use xlink:href="#mc2a17be7a9" x="751.314912" y="94.862641" style="fill: #c7c7c7; stroke: #ffffff; stroke-width: 0.75; stroke-linejoin: miter"/>
     <use xlink:href="#mc2a17be7a9" x="752.574623" y="94.484838" style="fill: #c7c7c7; stroke: #ffffff; stroke-width: 0.75; stroke-linejoin: miter"/>
     <use xlink:href="#mc2a17be7a9" x="753.806646" y="94.484838" style="fill: #c7c7c7; stroke: #ffffff; stroke-width: 0.75; stroke-linejoin: miter"/>
     <use xlink:href="#mc2a17be7a9" x="755.012172" y="94.484838" style="fill: #c7c7c7; stroke: #ffffff; stroke-width: 0.75; stroke-linejoin: miter"/>
     <use xlink:href="#mc2a17be7a9" x="756.192317" y="94.484838" style="fill: #c7c7c7; stroke: #ffffff; stroke-width: 0.75; stroke-linejoin: miter"/>
     <use xlink:href="#mc2a17be7a9" x="757.348127" y="94.484838" style="fill: #c7c7c7; stroke: #ffffff; stroke-width: 0.75; stroke-linejoin: miter"/>
     <use xlink:href="#mc2a17be7a9" x="758.480586" y="94.484838" style="fill: #c7c7c7; stroke: #ffffff; stroke-width: 0.75; stroke-linejoin: miter"/>
     <use xlink:href="#mc2a17be7a9" x="759.590618" y="91.336478" style="fill: #c7c7c7; stroke: #ffffff; stroke-width: 0.75; stroke-linejoin: miter"/>
     <use xlink:href="#mc2a17be7a9" x="760.679095" y="91.336478" style="fill: #c7c7c7; stroke: #ffffff; stroke-width: 0.75; stroke-linejoin: miter"/>
     <use xlink:href="#mc2a17be7a9" x="761.746837" y="91.336478" style="fill: #c7c7c7; stroke: #ffffff; stroke-width: 0.75; stroke-linejoin: miter"/>
     <use xlink:href="#mc2a17be7a9" x="762.794621" y="91.336478" style="fill: #c7c7c7; stroke: #ffffff; stroke-width: 0.75; stroke-linejoin: miter"/>
     <use xlink:href="#mc2a17be7a9" x="763.823178" y="91.336478" style="fill: #c7c7c7; stroke: #ffffff; stroke-width: 0.75; stroke-linejoin: miter"/>
     <use xlink:href="#mc2a17be7a9" x="764.833202" y="91.336478" style="fill: #c7c7c7; stroke: #ffffff; stroke-width: 0.75; stroke-linejoin: miter"/>
    </g>
   </g>
   <g id="line2d_26"/>
   <g id="line2d_27"/>
   <g id="line2d_28"/>
   <g id="line2d_29"/>
   <g id="line2d_30">
    <path d="M 764.833202 288.430125 
L 764.833202 22.318125 
" clip-path="url(#p5c25301800)" style="fill: none; stroke: #ff0000; stroke-width: 1.5; stroke-linecap: square"/>
   </g>
   <g id="patch_3">
    <path d="M 53.328125 281.119633 
L 53.328125 29.250814 
" style="fill: none; stroke: #000000; stroke-width: 0.8; stroke-linejoin: miter; stroke-linecap: square"/>
   </g>
   <g id="patch_4">
    <path d="M 53.328125 288.430125 
L 764.834314 288.430125 
" style="fill: none; stroke: #000000; stroke-width: 0.8; stroke-linejoin: miter; stroke-linecap: square"/>
   </g>
   <g id="text_20">
    <!-- lcms_cms_transform_fuzzer (14h, at least 3 trials/fuzzer) -->
    <g transform="translate(240.190625 16.318125) scale(0.12 -0.12)">
     <defs>
      <path id="DejaVuSans-6c" d="M 603 4863 
L 1178 4863 
L 1178 0 
L 603 0 
L 603 4863 
z
" transform="scale(0.015625)"/>
      <path id="DejaVuSans-73" d="M 2834 3397 
L 2834 2853 
Q 2591 2978 2328 3040 
Q 2066 3103 1784 3103 
Q 1356 3103 1142 2972 
Q 928 2841 928 2578 
Q 928 2378 1081 2264 
Q 1234 2150 1697 2047 
L 1894 2003 
Q 2506 1872 2764 1633 
Q 3022 1394 3022 966 
Q 3022 478 2636 193 
Q 2250 -91 1575 -91 
Q 1294 -91 989 -36 
Q 684 19 347 128 
L 347 722 
Q 666 556 975 473 
Q 1284 391 1588 391 
Q 1994 391 2212 530 
Q 2431 669 2431 922 
Q 2431 1156 2273 1281 
Q 2116 1406 1581 1522 
L 1381 1569 
Q 847 1681 609 1914 
Q 372 2147 372 2553 
Q 372 3047 722 3315 
Q 1072 3584 1716 3584 
Q 2034 3584 2315 3537 
Q 2597 3491 2834 3397 
z
" transform="scale(0.015625)"/>
      <path id="DejaVuSans-5f" d="M 3263 -1063 
L 3263 -1509 
L -63 -1509 
L -63 -1063 
L 3263 -1063 
z
" transform="scale(0.015625)"/>
      <path id="DejaVuSans-66" d="M 2375 4863 
L 2375 4384 
L 1825 4384 
Q 1516 4384 1395 4259 
Q 1275 4134 1275 3809 
L 1275 3500 
L 2222 3500 
L 2222 3053 
L 1275 3053 
L 1275 0 
L 697 0 
L 697 3053 
L 147 3053 
L 147 3500 
L 697 3500 
L 697 3744 
Q 697 4328 969 4595 
Q 1241 4863 1831 4863 
L 2375 4863 
z
" transform="scale(0.015625)"/>
      <path id="DejaVuSans-7a" d="M 353 3500 
L 3084 3500 
L 3084 2975 
L 922 459 
L 3084 459 
L 3084 0 
L 275 0 
L 275 525 
L 2438 3041 
L 353 3041 
L 353 3500 
z
" transform="scale(0.015625)"/>
      <path id="DejaVuSans-2c" d="M 750 794 
L 1409 794 
L 1409 256 
L 897 -744 
L 494 -744 
L 750 256 
L 750 794 
z
" transform="scale(0.015625)"/>
      <path id="DejaVuSans-2f" d="M 1625 4666 
L 2156 4666 
L 531 -594 
L 0 -594 
L 1625 4666 
z
" transform="scale(0.015625)"/>
     </defs>
     <use xlink:href="#DejaVuSans-6c"/>
     <use xlink:href="#DejaVuSans-63" transform="translate(27.783203 0)"/>
     <use xlink:href="#DejaVuSans-6d" transform="translate(82.763672 0)"/>
     <use xlink:href="#DejaVuSans-73" transform="translate(180.175781 0)"/>
     <use xlink:href="#DejaVuSans-5f" transform="translate(232.275391 0)"/>
     <use xlink:href="#DejaVuSans-63" transform="translate(282.275391 0)"/>
     <use xlink:href="#DejaVuSans-6d" transform="translate(337.255859 0)"/>
     <use xlink:href="#DejaVuSans-73" transform="translate(434.667969 0)"/>
     <use xlink:href="#DejaVuSans-5f" transform="translate(486.767578 0)"/>
     <use xlink:href="#DejaVuSans-74" transform="translate(536.767578 0)"/>
     <use xlink:href="#DejaVuSans-72" transform="translate(575.976562 0)"/>
     <use xlink:href="#DejaVuSans-61" transform="translate(617.089844 0)"/>
     <use xlink:href="#DejaVuSans-6e" transform="translate(678.369141 0)"/>
     <use xlink:href="#DejaVuSans-73" transform="translate(741.748047 0)"/>
     <use xlink:href="#DejaVuSans-66" transform="translate(793.847656 0)"/>
     <use xlink:href="#DejaVuSans-6f" transform="translate(829.052734 0)"/>
     <use xlink:href="#DejaVuSans-72" transform="translate(890.234375 0)"/>
     <use xlink:href="#DejaVuSans-6d" transform="translate(929.597656 0)"/>
     <use xlink:href="#DejaVuSans-5f" transform="translate(1027.009766 0)"/>
     <use xlink:href="#DejaVuSans-66" transform="translate(1077.009766 0)"/>
     <use xlink:href="#DejaVuSans-75" transform="translate(1112.214844 0)"/>
     <use xlink:href="#DejaVuSans-7a" transform="translate(1175.59375 0)"/>
     <use xlink:href="#DejaVuSans-7a" transform="translate(1228.083984 0)"/>
     <use xlink:href="#DejaVuSans-65" transform="translate(1280.574219 0)"/>
     <use xlink:href="#DejaVuSans-72" transform="translate(1342.097656 0)"/>
     <use xlink:href="#DejaVuSans-20" transform="translate(1383.210938 0)"/>
     <use xlink:href="#DejaVuSans-28" transform="translate(1414.998047 0)"/>
     <use xlink:href="#DejaVuSans-31" transform="translate(1454.011719 0)"/>
     <use xlink:href="#DejaVuSans-34" transform="translate(1517.634766 0)"/>
     <use xlink:href="#DejaVuSans-68" transform="translate(1581.257812 0)"/>
     <use xlink:href="#DejaVuSans-2c" transform="translate(1644.636719 0)"/>
     <use xlink:href="#DejaVuSans-20" transform="translate(1676.423828 0)"/>
     <use xlink:href="#DejaVuSans-61" transform="translate(1708.210938 0)"/>
     <use xlink:href="#DejaVuSans-74" transform="translate(1769.490234 0)"/>
     <use xlink:href="#DejaVuSans-20" transform="translate(1808.699219 0)"/>
     <use xlink:href="#DejaVuSans-6c" transform="translate(1840.486328 0)"/>
     <use xlink:href="#DejaVuSans-65" transform="translate(1868.269531 0)"/>
     <use xlink:href="#DejaVuSans-61" transform="translate(1929.792969 0)"/>
     <use xlink:href="#DejaVuSans-73" transform="translate(1991.072266 0)"/>
     <use xlink:href="#DejaVuSans-74" transform="translate(2043.171875 0)"/>
     <use xlink:href="#DejaVuSans-20" transform="translate(2082.380859 0)"/>
     <use xlink:href="#DejaVuSans-33" transform="translate(2114.167969 0)"/>
     <use xlink:href="#DejaVuSans-20" transform="translate(2177.791016 0)"/>
     <use xlink:href="#DejaVuSans-74" transform="translate(2209.578125 0)"/>
     <use xlink:href="#DejaVuSans-72" transform="translate(2248.787109 0)"/>
     <use xlink:href="#DejaVuSans-69" transform="translate(2289.900391 0)"/>
     <use xlink:href="#DejaVuSans-61" transform="translate(2317.683594 0)"/>
     <use xlink:href="#DejaVuSans-6c" transform="translate(2378.962891 0)"/>
     <use xlink:href="#DejaVuSans-73" transform="translate(2406.746094 0)"/>
     <use xlink:href="#DejaVuSans-2f" transform="translate(2458.845703 0)"/>
     <use xlink:href="#DejaVuSans-66" transform="translate(2492.537109 0)"/>
     <use xlink:href="#DejaVuSans-75" transform="translate(2527.742188 0)"/>
     <use xlink:href="#DejaVuSans-7a" transform="translate(2591.121094 0)"/>
     <use xlink:href="#DejaVuSans-7a" transform="translate(2643.611328 0)"/>
     <use xlink:href="#DejaVuSans-65" transform="translate(2696.101562 0)"/>
     <use xlink:href="#DejaVuSans-72" transform="translate(2757.625 0)"/>
     <use xlink:href="#DejaVuSans-29" transform="translate(2798.738281 0)"/>
    </g>
   </g>
   <g id="legend_1">
    <g id="line2d_31">
     <path d="M 771.568125 30.416562 
L 781.568125 30.416562 
L 791.568125 30.416562 
" style="fill: none; stroke: #d62728; stroke-width: 1.5; stroke-linecap: square"/>
     <g>
      <use xlink:href="#md155f9d886" x="781.568125" y="30.416562" style="fill: #d62728; stroke: #ffffff; stroke-width: 0.75; stroke-linejoin: miter"/>
     </g>
    </g>
    <g id="text_21">
     <!-- aflplusplus_c11 -->
     <g transform="translate(799.568125 33.916562) scale(0.1 -0.1)">
      <defs>
       <path id="DejaVuSans-70" d="M 1159 525 
L 1159 -1331 
L 581 -1331 
L 581 3500 
L 1159 3500 
L 1159 2969 
Q 1341 3281 1617 3432 
Q 1894 3584 2278 3584 
Q 2916 3584 3314 3078 
Q 3713 2572 3713 1747 
Q 3713 922 3314 415 
Q 2916 -91 2278 -91 
Q 1894 -91 1617 61 
Q 1341 213 1159 525 
z
M 3116 1747 
Q 3116 2381 2855 2742 
Q 2594 3103 2138 3103 
Q 1681 3103 1420 2742 
Q 1159 2381 1159 1747 
Q 1159 1113 1420 752 
Q 1681 391 2138 391 
Q 2594 391 2855 752 
Q 3116 1113 3116 1747 
z
" transform="scale(0.015625)"/>
      </defs>
      <use xlink:href="#DejaVuSans-61"/>
      <use xlink:href="#DejaVuSans-66" transform="translate(61.279297 0)"/>
      <use xlink:href="#DejaVuSans-6c" transform="translate(96.484375 0)"/>
      <use xlink:href="#DejaVuSans-70" transform="translate(124.267578 0)"/>
      <use xlink:href="#DejaVuSans-6c" transform="translate(187.744141 0)"/>
      <use xlink:href="#DejaVuSans-75" transform="translate(215.527344 0)"/>
      <use xlink:href="#DejaVuSans-73" transform="translate(278.90625 0)"/>
      <use xlink:href="#DejaVuSans-70" transform="translate(331.005859 0)"/>
      <use xlink:href="#DejaVuSans-6c" transform="translate(394.482422 0)"/>
      <use xlink:href="#DejaVuSans-75" transform="translate(422.265625 0)"/>
      <use xlink:href="#DejaVuSans-73" transform="translate(485.644531 0)"/>
      <use xlink:href="#DejaVuSans-5f" transform="translate(537.744141 0)"/>
      <use xlink:href="#DejaVuSans-63" transform="translate(587.744141 0)"/>
      <use xlink:href="#DejaVuSans-31" transform="translate(642.724609 0)"/>
      <use xlink:href="#DejaVuSans-31" transform="translate(706.347656 0)"/>
     </g>
    </g>
    <g id="line2d_32">
     <path d="M 771.568125 45.372813 
L 781.568125 45.372813 
L 791.568125 45.372813 
" style="fill: none; stroke: #98df8a; stroke-width: 1.5; stroke-linecap: square"/>
     <g>
      <use xlink:href="#me1c458f8bf" x="781.568125" y="45.372813" style="fill: #98df8a; stroke: #ffffff; stroke-width: 0.75; stroke-linejoin: miter"/>
     </g>
    </g>
    <g id="text_22">
     <!-- aflplusplus_500c -->
     <g transform="translate(799.568125 48.872813) scale(0.1 -0.1)">
      <use xlink:href="#DejaVuSans-61"/>
      <use xlink:href="#DejaVuSans-66" transform="translate(61.279297 0)"/>
      <use xlink:href="#DejaVuSans-6c" transform="translate(96.484375 0)"/>
      <use xlink:href="#DejaVuSans-70" transform="translate(124.267578 0)"/>
      <use xlink:href="#DejaVuSans-6c" transform="translate(187.744141 0)"/>
      <use xlink:href="#DejaVuSans-75" transform="translate(215.527344 0)"/>
      <use xlink:href="#DejaVuSans-73" transform="translate(278.90625 0)"/>
      <use xlink:href="#DejaVuSans-70" transform="translate(331.005859 0)"/>
      <use xlink:href="#DejaVuSans-6c" transform="translate(394.482422 0)"/>
      <use xlink:href="#DejaVuSans-75" transform="translate(422.265625 0)"/>
      <use xlink:href="#DejaVuSans-73" transform="translate(485.644531 0)"/>
      <use xlink:href="#DejaVuSans-5f" transform="translate(537.744141 0)"/>
      <use xlink:href="#DejaVuSans-35" transform="translate(587.744141 0)"/>
      <use xlink:href="#DejaVuSans-30" transform="translate(651.367188 0)"/>
      <use xlink:href="#DejaVuSans-30" transform="translate(714.990234 0)"/>
      <use xlink:href="#DejaVuSans-63" transform="translate(778.613281 0)"/>
     </g>
    </g>
    <g id="line2d_33">
     <path d="M 771.568125 60.329063 
L 781.568125 60.329063 
L 791.568125 60.329063 
" style="fill: none; stroke: #1f77b4; stroke-width: 1.5; stroke-linecap: square"/>
     <g>
      <use xlink:href="#m5970b2b0c0" x="781.568125" y="60.329063" style="fill: #1f77b4; stroke: #ffffff; stroke-width: 0.75"/>
     </g>
    </g>
    <g id="text_23">
     <!-- aflplusplus_440c -->
     <g transform="translate(799.568125 63.829063) scale(0.1 -0.1)">
      <use xlink:href="#DejaVuSans-61"/>
      <use xlink:href="#DejaVuSans-66" transform="translate(61.279297 0)"/>
      <use xlink:href="#DejaVuSans-6c" transform="translate(96.484375 0)"/>
      <use xlink:href="#DejaVuSans-70" transform="translate(124.267578 0)"/>
      <use xlink:href="#DejaVuSans-6c" transform="translate(187.744141 0)"/>
      <use xlink:href="#DejaVuSans-75" transform="translate(215.527344 0)"/>
      <use xlink:href="#DejaVuSans-73" transform="translate(278.90625 0)"/>
      <use xlink:href="#DejaVuSans-70" transform="translate(331.005859 0)"/>
      <use xlink:href="#DejaVuSans-6c" transform="translate(394.482422 0)"/>
      <use xlink:href="#DejaVuSans-75" transform="translate(422.265625 0)"/>
      <use xlink:href="#DejaVuSans-73" transform="translate(485.644531 0)"/>
      <use xlink:href="#DejaVuSans-5f" transform="translate(537.744141 0)"/>
      <use xlink:href="#DejaVuSans-34" transform="translate(587.744141 0)"/>
      <use xlink:href="#DejaVuSans-34" transform="translate(651.367188 0)"/>
      <use xlink:href="#DejaVuSans-30" transform="translate(714.990234 0)"/>
      <use xlink:href="#DejaVuSans-63" transform="translate(778.613281 0)"/>
     </g>
    </g>
    <g id="line2d_34">
     <path d="M 771.568125 75.285313 
L 781.568125 75.285313 
L 791.568125 75.285313 
" style="fill: none; stroke: #c7c7c7; stroke-width: 1.5; stroke-linecap: square"/>
     <g>
      <use xlink:href="#mc2a17be7a9" x="781.568125" y="75.285313" style="fill: #c7c7c7; stroke: #ffffff; stroke-width: 0.75; stroke-linejoin: miter"/>
     </g>
    </g>
    <g id="text_24">
     <!-- aflplusplus_mopt -->
     <g transform="translate(799.568125 78.785313) scale(0.1 -0.1)">
      <use xlink:href="#DejaVuSans-61"/>
      <use xlink:href="#DejaVuSans-66" transform="translate(61.279297 0)"/>
      <use xlink:href="#DejaVuSans-6c" transform="translate(96.484375 0)"/>
      <use xlink:href="#DejaVuSans-70" transform="translate(124.267578 0)"/>
      <use xlink:href="#DejaVuSans-6c" transform="translate(187.744141 0)"/>
      <use xlink:href="#DejaVuSans-75" transform="translate(215.527344 0)"/>
      <use xlink:href="#DejaVuSans-73" transform="translate(278.90625 0)"/>
      <use xlink:href="#DejaVuSans-70" transform="translate(331.005859 0)"/>
      <use xlink:href="#DejaVuSans-6c" transform="translate(394.482422 0)"/>
      <use xlink:href="#DejaVuSans-75" transform="translate(422.265625 0)"/>
      <use xlink:href="#DejaVuSans-73" transform="translate(485.644531 0)"/>
      <use xlink:href="#DejaVuSans-5f" transform="translate(537.744141 0)"/>
      <use xlink:href="#DejaVuSans-6d" transform="translate(587.744141 0)"/>
      <use xlink:href="#DejaVuSans-6f" transform="translate(685.15625 0)"/>
      <use xlink:href="#DejaVuSans-70" transform="translate(746.337891 0)"/>
      <use xlink:href="#DejaVuSans-74" transform="translate(809.814453 0)"/>
     </g>
    </g>
   </g>
  </g>
 </g>
 <defs>
  <clipPath id="p5c25301800">
   <rect x="53.328125" y="22.318125" width="714.24" height="266.112"/>
  </clipPath>
 </defs>
</svg>
