<?xml version="1.0" encoding="utf-8" standalone="no"?>
<!DOCTYPE svg PUBLIC "-//W3C//DTD SVG 1.1//EN"
  "http://www.w3.org/Graphics/SVG/1.1/DTD/svg11.dtd">
<svg xmlns:xlink="http://www.w3.org/1999/xlink" width="895.669687pt" height="325.986375pt" viewBox="0 0 895.669687 325.986375" xmlns="http://www.w3.org/2000/svg" version="1.1">
 <metadata>
  <rdf:RDF xmlns:dc="http://purl.org/dc/elements/1.1/" xmlns:cc="http://creativecommons.org/ns#" xmlns:rdf="http://www.w3.org/1999/02/22-rdf-syntax-ns#">
   <cc:Work>
    <dc:type rdf:resource="http://purl.org/dc/dcmitype/StillImage"/>
    <dc:date>2026-06-10T06:15:41.530594</dc:date>
    <dc:format>image/svg+xml</dc:format>
    <dc:creator>
     <cc:Agent>
      <dc:title>Matplotlib v3.10.9, https://matplotlib.org/</dc:title>
     </cc:Agent>
    </dc:creator>
   </cc:Work>
  </rdf:RDF>
 </metadata>
 <defs>
  <style type="text/css">*{stroke-linejoin: round; stroke-linecap: butt}</style>
 </defs>
 <g id="figure_1">
  <g id="patch_1">
   <path d="M 0 325.986375 
L 895.669688 325.986375 
L 895.669688 0 
L 0 0 
z
" style="fill: #ffffff"/>
  </g>
  <g id="axes_1">
   <g id="patch_2">
    <path d="M 53.328125 288.430125 
L 767.568125 288.430125 
L 767.568125 22.318125 
L 53.328125 22.318125 
z
" style="fill: #ffffff"/>
   </g>
   <g id="FillBetweenPolyCollection_1">
    <defs>
     <path id="m93a2c47389" d="M 53.328125 -49.65225 
L 53.328125 -49.65225 
L 537.858515 -136.043255 
L 576.606028 -136.043255 
L 599.271871 -145.866139 
L 615.353542 -148.510761 
L 627.827455 -148.510761 
L 638.019385 -148.510761 
L 646.636538 -158.711448 
L 654.101056 -159.089252 
L 660.685227 -159.592989 
L 666.574969 -201.655082 
L 671.902889 -201.906951 
L 676.766898 -201.906951 
L 681.241353 -202.158819 
L 685.384052 -202.158819 
L 689.240812 -202.158819 
L 692.84857 -203.166295 
L 696.237537 -203.292229 
L 699.432741 -203.292229 
L 702.455144 -203.292229 
L 705.322483 -203.292229 
L 708.049894 -203.544098 
L 710.650402 -203.544098 
L 713.135294 -203.795967 
L 715.514412 -203.795967 
L 717.796396 -203.795967 
L 719.988867 -203.795967 
L 722.098583 -203.795967 
L 724.131565 -203.795967 
L 726.0932 -217.145014 
L 727.988325 -217.145014 
L 729.821304 -217.145014 
L 731.596083 -217.145014 
L 733.316245 -217.145014 
L 734.985051 -217.522817 
L 736.605479 -218.908096 
L 738.180255 -228.101308 
L 739.71188 -228.101308 
L 741.202658 -228.101308 
L 742.65471 -228.101308 
L 744.069996 -228.227242 
L 745.450334 -228.227242 
L 746.797408 -228.227242 
L 748.112783 -228.227242 
L 749.397916 -228.479111 
L 750.654168 -228.479111 
L 751.882807 -236.538913 
L 753.085022 -238.301995 
L 754.261926 -238.301995 
L 755.414561 -238.301995 
L 756.54391 -239.183536 
L 757.650893 -239.561339 
L 758.736381 -239.561339 
L 759.801191 -239.561339 
L 760.846097 -239.561339 
L 761.871829 -239.561339 
L 762.879079 -239.561339 
L 763.8685 -239.687273 
L 764.840714 -239.687273 
L 764.840714 -291.57225 
L 764.840714 -291.57225 
L 763.8685 -291.57225 
L 762.879079 -291.57225 
L 761.871829 -291.57225 
L 760.846097 -291.57225 
L 759.801191 -291.57225 
L 758.736381 -291.57225 
L 757.650893 -291.57225 
L 756.54391 -291.57225 
L 755.414561 -291.57225 
L 754.261926 -291.57225 
L 753.085022 -291.57225 
L 751.882807 -291.57225 
L 750.654168 -291.57225 
L 749.397916 -291.57225 
L 748.112783 -290.690709 
L 746.797408 -290.690709 
L 745.450334 -290.43884 
L 744.069996 -290.43884 
L 742.65471 -290.43884 
L 741.202658 -290.312906 
L 739.71188 -290.061037 
L 738.180255 -290.061037 
L 736.605479 -290.061037 
L 734.985051 -289.935103 
L 733.316245 -289.935103 
L 731.596083 -289.935103 
L 729.821304 -289.935103 
L 727.988325 -289.935103 
L 726.0932 -286.534874 
L 724.131565 -267.140975 
L 722.098583 -267.140975 
L 719.988867 -267.140975 
L 717.796396 -267.140975 
L 715.514412 -267.140975 
L 713.135294 -267.140975 
L 710.650402 -267.140975 
L 708.049894 -267.140975 
L 705.322483 -266.763171 
L 702.455144 -266.763171 
L 699.432741 -266.763171 
L 696.237537 -266.763171 
L 692.84857 -265.629762 
L 689.240812 -265.00009 
L 685.384052 -264.244483 
L 681.241353 -261.725795 
L 676.766898 -261.096123 
L 671.902889 -260.970189 
L 666.574969 -246.235863 
L 660.685227 -233.390553 
L 654.101056 -233.264619 
L 646.636538 -233.01275 
L 638.019385 -233.01275 
L 627.827455 -232.760881 
L 615.353542 -232.131209 
L 599.271871 -232.131209 
L 576.606028 -152.792531 
L 537.858515 -149.014499 
L 53.328125 -49.65225 
z
" style="stroke: #d62728; stroke-opacity: 0.2"/>
    </defs>
    <g clip-path="url(#p5372233923)">
     <use xlink:href="#m93a2c47389" x="0" y="325.986375" style="fill: #d62728; fill-opacity: 0.2; stroke: #d62728; stroke-opacity: 0.2"/>
    </g>
   </g>
   <g id="FillBetweenPolyCollection_2">
    <defs>
     <path id="mf8a9440e9a" d="M 53.328125 -49.65225 
L 53.328125 -49.65225 
L 537.858515 -127.227846 
L 576.606028 -127.227846 
L 599.271871 -130.124337 
L 615.353542 -130.124337 
L 627.827455 -130.124337 
L 638.019385 -130.124337 
L 646.636538 -130.124337 
L 654.101056 -135.413583 
L 660.685227 -135.413583 
L 666.574969 -135.413583 
L 671.902889 -135.665451 
L 676.766898 -135.91732 
L 681.241353 -136.043255 
L 685.384052 -136.043255 
L 689.240812 -136.043255 
L 692.84857 -136.043255 
L 696.237537 -136.043255 
L 699.432741 -136.043255 
L 702.455144 -136.043255 
L 705.322483 -136.043255 
L 708.049894 -136.043255 
L 710.650402 -136.043255 
L 713.135294 -136.043255 
L 715.514412 -136.043255 
L 717.796396 -136.295124 
L 719.988867 -136.295124 
L 722.098583 -136.295124 
L 724.131565 -136.295124 
L 726.0932 -148.888564 
L 727.988325 -160.348596 
L 729.821304 -220.041506 
L 731.596083 -220.545243 
L 733.316245 -220.545243 
L 734.985051 -221.930522 
L 736.605479 -221.930522 
L 738.180255 -221.930522 
L 739.71188 -221.930522 
L 741.202658 -233.894291 
L 742.65471 -233.894291 
L 744.069996 -236.035176 
L 745.450334 -236.035176 
L 746.797408 -236.035176 
L 748.112783 -236.035176 
L 749.397916 -236.035176 
L 750.654168 -236.035176 
L 751.882807 -236.035176 
L 753.085022 -236.035176 
L 754.261926 -236.16111 
L 755.414561 -236.16111 
L 756.54391 -236.16111 
L 757.650893 -236.16111 
L 758.736381 -236.16111 
L 759.801191 -236.16111 
L 760.846097 -236.16111 
L 761.871829 -236.16111 
L 762.879079 -236.16111 
L 763.8685 -236.16111 
L 764.840714 -236.16111 
L 764.840714 -273.563629 
L 764.840714 -273.563629 
L 763.8685 -273.563629 
L 762.879079 -273.563629 
L 761.871829 -273.563629 
L 760.846097 -273.563629 
L 759.801191 -273.311761 
L 758.736381 -273.185826 
L 757.650893 -273.185826 
L 756.54391 -273.185826 
L 755.414561 -273.185826 
L 754.261926 -273.185826 
L 753.085022 -273.185826 
L 751.882807 -272.933957 
L 750.654168 -272.933957 
L 749.397916 -272.808023 
L 748.112783 -272.808023 
L 746.797408 -272.808023 
L 745.450334 -272.808023 
L 744.069996 -272.808023 
L 742.65471 -270.919007 
L 741.202658 -270.289335 
L 739.71188 -249.636092 
L 738.180255 -249.510157 
L 736.605479 -248.754551 
L 734.985051 -248.376748 
L 733.316245 -247.747076 
L 731.596083 -247.117404 
L 729.821304 -246.109928 
L 727.988325 -243.465306 
L 726.0932 -236.035176 
L 724.131565 -236.035176 
L 722.098583 -236.035176 
L 719.988867 -236.035176 
L 717.796396 -236.035176 
L 715.514412 -236.035176 
L 713.135294 -236.035176 
L 710.650402 -236.035176 
L 708.049894 -236.035176 
L 705.322483 -236.035176 
L 702.455144 -236.035176 
L 699.432741 -236.035176 
L 696.237537 -236.035176 
L 692.84857 -235.405504 
L 689.240812 -235.405504 
L 685.384052 -235.279569 
L 681.241353 -234.020225 
L 676.766898 -234.020225 
L 671.902889 -234.020225 
L 666.574969 -234.020225 
L 660.685227 -233.768356 
L 654.101056 -223.441735 
L 646.636538 -222.937997 
L 638.019385 -220.671178 
L 627.827455 -219.159965 
L 615.353542 -218.278424 
L 599.271871 -217.522817 
L 576.606028 -150.651646 
L 537.858515 -135.791386 
L 53.328125 -49.65225 
z
" style="stroke: #98df8a; stroke-opacity: 0.2"/>
    </defs>
    <g clip-path="url(#p5372233923)">
     <use xlink:href="#mf8a9440e9a" x="0" y="325.986375" style="fill: #98df8a; fill-opacity: 0.2; stroke: #98df8a; stroke-opacity: 0.2"/>
    </g>
   </g>
   <g id="FillBetweenPolyCollection_3">
    <defs>
     <path id="mf9c1c2f7a4" d="M 53.328125 -49.65225 
L 53.328125 -49.65225 
L 537.858515 -125.842568 
L 576.606028 -146.243942 
L 599.271871 -148.510761 
L 615.353542 -149.014499 
L 627.827455 -149.014499 
L 638.019385 -150.147909 
L 646.636538 -150.525712 
L 654.101056 -217.522817 
L 660.685227 -217.522817 
L 666.574969 -217.774686 
L 671.902889 -217.774686 
L 676.766898 -217.774686 
L 681.241353 -217.774686 
L 685.384052 -217.774686 
L 689.240812 -217.774686 
L 692.84857 -217.774686 
L 696.237537 -217.774686 
L 699.432741 -217.774686 
L 702.455144 -217.774686 
L 705.322483 -217.774686 
L 708.049894 -217.900621 
L 710.650402 -217.900621 
L 713.135294 -219.537768 
L 715.514412 -219.663702 
L 717.796396 -219.663702 
L 719.988867 -219.663702 
L 722.098583 -219.663702 
L 724.131565 -219.663702 
L 726.0932 -219.915571 
L 727.988325 -219.915571 
L 729.821304 -219.915571 
L 731.596083 -219.915571 
L 733.316245 -219.915571 
L 734.985051 -219.915571 
L 736.605479 -221.048981 
L 738.180255 -221.048981 
L 739.71188 -222.812063 
L 741.202658 -223.441735 
L 742.65471 -224.197341 
L 744.069996 -225.58262 
L 745.450334 -226.086357 
L 746.797408 -233.894291 
L 748.112783 -233.894291 
L 749.397916 -236.790782 
L 750.654168 -236.790782 
L 751.882807 -236.916716 
L 753.085022 -236.916716 
L 754.261926 -236.916716 
L 755.414561 -236.916716 
L 756.54391 -236.916716 
L 757.650893 -236.916716 
L 758.736381 -236.916716 
L 759.801191 -237.042651 
L 760.846097 -237.29452 
L 761.871829 -237.29452 
L 762.879079 -237.29452 
L 763.8685 -237.29452 
L 764.840714 -237.29452 
L 764.840714 -264.118549 
L 764.840714 -264.118549 
L 763.8685 -264.118549 
L 762.879079 -264.118549 
L 761.871829 -264.118549 
L 760.846097 -264.118549 
L 759.801191 -264.118549 
L 758.736381 -264.118549 
L 757.650893 -264.118549 
L 756.54391 -264.118549 
L 755.414561 -264.118549 
L 754.261926 -264.118549 
L 753.085022 -264.118549 
L 751.882807 -264.118549 
L 750.654168 -261.977664 
L 749.397916 -239.057601 
L 748.112783 -239.057601 
L 746.797408 -239.057601 
L 745.450334 -239.057601 
L 744.069996 -239.057601 
L 742.65471 -239.057601 
L 741.202658 -239.057601 
L 739.71188 -239.057601 
L 738.180255 -237.798257 
L 736.605479 -237.798257 
L 734.985051 -237.546388 
L 733.316245 -237.546388 
L 731.596083 -237.546388 
L 729.821304 -235.783307 
L 727.988325 -235.783307 
L 726.0932 -235.783307 
L 724.131565 -235.783307 
L 722.098583 -235.783307 
L 719.988867 -235.531438 
L 717.796396 -235.531438 
L 715.514412 -235.531438 
L 713.135294 -235.531438 
L 710.650402 -235.531438 
L 708.049894 -235.531438 
L 705.322483 -235.531438 
L 702.455144 -235.405504 
L 699.432741 -235.405504 
L 696.237537 -235.405504 
L 692.84857 -235.405504 
L 689.240812 -235.405504 
L 685.384052 -235.405504 
L 681.241353 -235.405504 
L 676.766898 -235.153635 
L 671.902889 -234.775831 
L 666.574969 -234.649897 
L 660.685227 -234.523963 
L 654.101056 -234.523963 
L 646.636538 -233.768356 
L 638.019385 -223.063931 
L 627.827455 -222.434259 
L 615.353542 -222.182391 
L 599.271871 -220.419309 
L 576.606028 -217.270949 
L 537.858515 -135.91732 
L 53.328125 -49.65225 
z
" style="stroke: #1f77b4; stroke-opacity: 0.2"/>
    </defs>
    <g clip-path="url(#p5372233923)">
     <use xlink:href="#mf9c1c2f7a4" x="0" y="325.986375" style="fill: #1f77b4; fill-opacity: 0.2; stroke: #1f77b4; stroke-opacity: 0.2"/>
    </g>
   </g>
   <g id="FillBetweenPolyCollection_4">
    <defs>
     <path id="md872b97d29" d="M 53.328125 -49.65225 
L 53.328125 -49.65225 
L 537.858515 -127.101912 
L 576.606028 -129.494665 
L 599.271871 -129.998403 
L 615.353542 -129.998403 
L 627.827455 -129.998403 
L 638.019385 -130.124337 
L 646.636538 -135.665451 
L 654.101056 -135.665451 
L 660.685227 -141.3325 
L 666.574969 -146.495811 
L 671.902889 -147.755155 
L 676.766898 -149.266368 
L 681.241353 -149.518236 
L 685.384052 -150.651646 
L 689.240812 -152.666597 
L 692.84857 -153.170334 
L 696.237537 -153.170334 
L 699.432741 -153.170334 
L 702.455144 -153.170334 
L 705.322483 -153.170334 
L 708.049894 -153.422203 
L 710.650402 -221.426784 
L 713.135294 -221.426784 
L 715.514412 -221.426784 
L 717.796396 -221.426784 
L 719.988867 -221.426784 
L 722.098583 -221.426784 
L 724.131565 -221.426784 
L 726.0932 -221.426784 
L 727.988325 -221.426784 
L 729.821304 -223.567669 
L 731.596083 -224.071407 
L 733.316245 -224.701079 
L 734.985051 -224.701079 
L 736.605479 -224.701079 
L 738.180255 -224.701079 
L 739.71188 -224.701079 
L 741.202658 -224.701079 
L 742.65471 -224.827013 
L 744.069996 -224.952948 
L 745.450334 -224.952948 
L 746.797408 -224.952948 
L 748.112783 -225.078882 
L 749.397916 -225.078882 
L 750.654168 -225.078882 
L 751.882807 -225.078882 
L 753.085022 -225.078882 
L 754.261926 -225.078882 
L 755.414561 -225.078882 
L 756.54391 -226.338226 
L 757.650893 -231.501537 
L 758.736381 -231.501537 
L 759.801191 -231.501537 
L 760.846097 -231.501537 
L 761.871829 -231.501537 
L 762.879079 -231.501537 
L 763.8685 -231.501537 
L 764.840714 -231.501537 
L 764.840714 -244.72465 
L 764.840714 -244.72465 
L 763.8685 -244.598715 
L 762.879079 -244.598715 
L 761.871829 -244.598715 
L 760.846097 -244.598715 
L 759.801191 -244.598715 
L 758.736381 -244.598715 
L 757.650893 -244.598715 
L 756.54391 -244.598715 
L 755.414561 -244.598715 
L 754.261926 -244.598715 
L 753.085022 -244.598715 
L 751.882807 -244.598715 
L 750.654168 -244.598715 
L 749.397916 -244.598715 
L 748.112783 -244.598715 
L 746.797408 -244.598715 
L 745.450334 -244.598715 
L 744.069996 -244.094978 
L 742.65471 -244.094978 
L 741.202658 -244.094978 
L 739.71188 -244.094978 
L 738.180255 -244.094978 
L 736.605479 -244.094978 
L 734.985051 -243.969043 
L 733.316245 -243.59124 
L 731.596083 -242.835634 
L 729.821304 -242.835634 
L 727.988325 -242.835634 
L 726.0932 -242.835634 
L 724.131565 -242.835634 
L 722.098583 -231.249668 
L 719.988867 -231.249668 
L 717.796396 -231.249668 
L 715.514412 -229.612521 
L 713.135294 -226.46416 
L 710.650402 -226.338226 
L 708.049894 -226.338226 
L 705.322483 -226.338226 
L 702.455144 -226.212292 
L 699.432741 -224.952948 
L 696.237537 -224.952948 
L 692.84857 -224.952948 
L 689.240812 -224.44921 
L 685.384052 -224.44921 
L 681.241353 -220.797112 
L 676.766898 -220.797112 
L 671.902889 -220.419309 
L 666.574969 -219.411834 
L 660.685227 -219.411834 
L 654.101056 -219.285899 
L 646.636538 -219.285899 
L 638.019385 -219.285899 
L 627.827455 -219.285899 
L 615.353542 -218.530293 
L 599.271871 -218.404358 
L 576.606028 -217.01908 
L 537.858515 -135.539517 
L 53.328125 -49.65225 
z
" style="stroke: #c7c7c7; stroke-opacity: 0.2"/>
    </defs>
    <g clip-path="url(#p5372233923)">
     <use xlink:href="#md872b97d29" x="0" y="325.986375" style="fill: #c7c7c7; fill-opacity: 0.2; stroke: #c7c7c7; stroke-opacity: 0.2"/>
    </g>
   </g>
   <g id="matplotlib.axis_1">
    <g id="xtick_1">
     <g id="line2d_1">
      <defs>
       <path id="mbbadacd082" d="M 0 0 
L 0 3.5 
" style="stroke: #000000; stroke-width: 0.8"/>
      </defs>
      <g>
       <use xlink:href="#mbbadacd082" x="53.328125" y="288.430125" style="stroke: #000000; stroke-width: 0.8"/>
      </g>
     </g>
     <g id="text_1">
      <!-- 0m -->
      <g transform="translate(45.276563 303.028562) scale(0.1 -0.1)">
       <defs>
        <path id="DejaVuSans-30" d="M 2034 4250 
Q 1547 4250 1301 3770 
Q 1056 3291 1056 2328 
Q 1056 1369 1301 889 
Q 1547 409 2034 409 
Q 2525 409 2770 889 
Q 3016 1369 3016 2328 
Q 3016 3291 2770 3770 
Q 2525 4250 2034 4250 
z
M 2034 4750 
Q 2819 4750 3233 4129 
Q 3647 3509 3647 2328 
Q 3647 1150 3233 529 
Q 2819 -91 2034 -91 
Q 1250 -91 836 529 
Q 422 1150 422 2328 
Q 422 3509 836 4129 
Q 1250 4750 2034 4750 
z
" transform="scale(0.015625)"/>
        <path id="DejaVuSans-6d" d="M 3328 2828 
Q 3544 3216 3844 3400 
Q 4144 3584 4550 3584 
Q 5097 3584 5394 3201 
Q 5691 2819 5691 2113 
L 5691 0 
L 5113 0 
L 5113 2094 
Q 5113 2597 4934 2840 
Q 4756 3084 4391 3084 
Q 3944 3084 3684 2787 
Q 3425 2491 3425 1978 
L 3425 0 
L 2847 0 
L 2847 2094 
Q 2847 2600 2669 2842 
Q 2491 3084 2119 3084 
Q 1678 3084 1418 2786 
Q 1159 2488 1159 1978 
L 1159 0 
L 581 0 
L 581 3500 
L 1159 3500 
L 1159 2956 
Q 1356 3278 1631 3431 
Q 1906 3584 2284 3584 
Q 2666 3584 2933 3390 
Q 3200 3197 3328 2828 
z
" transform="scale(0.015625)"/>
       </defs>
       <use xlink:href="#DejaVuSans-30"/>
       <use xlink:href="#DejaVuSans-6d" transform="translate(63.623047 0)"/>
      </g>
     </g>
    </g>
    <g id="xtick_2">
     <g id="line2d_2">
      <g>
       <use xlink:href="#mbbadacd082" x="124.837266" y="288.430125" style="stroke: #000000; stroke-width: 0.8"/>
      </g>
     </g>
    </g>
    <g id="xtick_3">
     <g id="line2d_3">
      <g>
       <use xlink:href="#mbbadacd082" x="218.323183" y="288.430125" style="stroke: #000000; stroke-width: 0.8"/>
      </g>
     </g>
    </g>
    <g id="xtick_4">
     <g id="line2d_4">
      <g>
       <use xlink:href="#mbbadacd082" x="279.047472" y="288.430125" style="stroke: #000000; stroke-width: 0.8"/>
      </g>
     </g>
    </g>
    <g id="xtick_5">
     <g id="line2d_5">
      <g>
       <use xlink:href="#mbbadacd082" x="339.771761" y="288.430125" style="stroke: #000000; stroke-width: 0.8"/>
      </g>
     </g>
    </g>
    <g id="xtick_6">
     <g id="line2d_6">
      <g>
       <use xlink:href="#mbbadacd082" x="400.49605" y="288.430125" style="stroke: #000000; stroke-width: 0.8"/>
      </g>
     </g>
     <g id="text_2">
      <!-- 1m -->
      <g transform="translate(392.444488 303.028562) scale(0.1 -0.1)">
       <defs>
        <path id="DejaVuSans-31" d="M 794 531 
L 1825 531 
L 1825 4091 
L 703 3866 
L 703 4441 
L 1819 4666 
L 2450 4666 
L 2450 531 
L 3481 531 
L 3481 0 
L 794 0 
L 794 531 
z
" transform="scale(0.015625)"/>
       </defs>
       <use xlink:href="#DejaVuSans-31"/>
       <use xlink:href="#DejaVuSans-6d" transform="translate(63.623047 0)"/>
      </g>
     </g>
    </g>
    <g id="xtick_7">
     <g id="line2d_7">
      <g>
       <use xlink:href="#mbbadacd082" x="461.220339" y="288.430125" style="stroke: #000000; stroke-width: 0.8"/>
      </g>
     </g>
     <g id="text_3">
      <!-- 3m -->
      <g transform="translate(453.168777 303.028562) scale(0.1 -0.1)">
       <defs>
        <path id="DejaVuSans-33" d="M 2597 2516 
Q 3050 2419 3304 2112 
Q 3559 1806 3559 1356 
Q 3559 666 3084 287 
Q 2609 -91 1734 -91 
Q 1441 -91 1130 -33 
Q 819 25 488 141 
L 488 750 
Q 750 597 1062 519 
Q 1375 441 1716 441 
Q 2309 441 2620 675 
Q 2931 909 2931 1356 
Q 2931 1769 2642 2001 
Q 2353 2234 1838 2234 
L 1294 2234 
L 1294 2753 
L 1863 2753 
Q 2328 2753 2575 2939 
Q 2822 3125 2822 3475 
Q 2822 3834 2567 4026 
Q 2313 4219 1838 4219 
Q 1578 4219 1281 4162 
Q 984 4106 628 3988 
L 628 4550 
Q 988 4650 1302 4700 
Q 1616 4750 1894 4750 
Q 2613 4750 3031 4423 
Q 3450 4097 3450 3541 
Q 3450 3153 3228 2886 
Q 3006 2619 2597 2516 
z
" transform="scale(0.015625)"/>
       </defs>
       <use xlink:href="#DejaVuSans-33"/>
       <use xlink:href="#DejaVuSans-6d" transform="translate(63.623047 0)"/>
      </g>
     </g>
    </g>
    <g id="xtick_8">
     <g id="line2d_8">
      <g>
       <use xlink:href="#mbbadacd082" x="521.944628" y="288.430125" style="stroke: #000000; stroke-width: 0.8"/>
      </g>
     </g>
     <g id="text_4">
      <!-- 11m -->
      <g transform="translate(510.711816 303.028562) scale(0.1 -0.1)">
       <use xlink:href="#DejaVuSans-31"/>
       <use xlink:href="#DejaVuSans-31" transform="translate(63.623047 0)"/>
       <use xlink:href="#DejaVuSans-6d" transform="translate(127.246094 0)"/>
      </g>
     </g>
    </g>
    <g id="xtick_9">
     <g id="line2d_9">
      <g>
       <use xlink:href="#mbbadacd082" x="582.668917" y="288.430125" style="stroke: #000000; stroke-width: 0.8"/>
      </g>
     </g>
     <g id="text_5">
      <!-- 33m -->
      <g transform="translate(571.436105 303.028562) scale(0.1 -0.1)">
       <use xlink:href="#DejaVuSans-33"/>
       <use xlink:href="#DejaVuSans-33" transform="translate(63.623047 0)"/>
       <use xlink:href="#DejaVuSans-6d" transform="translate(127.246094 0)"/>
      </g>
     </g>
    </g>
    <g id="xtick_10">
     <g id="line2d_10">
      <g>
       <use xlink:href="#mbbadacd082" x="643.393206" y="288.430125" style="stroke: #000000; stroke-width: 0.8"/>
      </g>
     </g>
     <g id="text_6">
      <!-- 1h:39m -->
      <g transform="translate(624.126019 303.028562) scale(0.1 -0.1)">
       <defs>
        <path id="DejaVuSans-68" d="M 3513 2113 
L 3513 0 
L 2938 0 
L 2938 2094 
Q 2938 2591 2744 2837 
Q 2550 3084 2163 3084 
Q 1697 3084 1428 2787 
Q 1159 2491 1159 1978 
L 1159 0 
L 581 0 
L 581 4863 
L 1159 4863 
L 1159 2956 
Q 1366 3272 1645 3428 
Q 1925 3584 2291 3584 
Q 2894 3584 3203 3211 
Q 3513 2838 3513 2113 
z
" transform="scale(0.015625)"/>
        <path id="DejaVuSans-3a" d="M 750 794 
L 1409 794 
L 1409 0 
L 750 0 
L 750 794 
z
M 750 3309 
L 1409 3309 
L 1409 2516 
L 750 2516 
L 750 3309 
z
" transform="scale(0.015625)"/>
        <path id="DejaVuSans-39" d="M 703 97 
L 703 672 
Q 941 559 1184 500 
Q 1428 441 1663 441 
Q 2288 441 2617 861 
Q 2947 1281 2994 2138 
Q 2813 1869 2534 1725 
Q 2256 1581 1919 1581 
Q 1219 1581 811 2004 
Q 403 2428 403 3163 
Q 403 3881 828 4315 
Q 1253 4750 1959 4750 
Q 2769 4750 3195 4129 
Q 3622 3509 3622 2328 
Q 3622 1225 3098 567 
Q 2575 -91 1691 -91 
Q 1453 -91 1209 -44 
Q 966 3 703 97 
z
M 1959 2075 
Q 2384 2075 2632 2365 
Q 2881 2656 2881 3163 
Q 2881 3666 2632 3958 
Q 2384 4250 1959 4250 
Q 1534 4250 1286 3958 
Q 1038 3666 1038 3163 
Q 1038 2656 1286 2365 
Q 1534 2075 1959 2075 
z
" transform="scale(0.015625)"/>
       </defs>
       <use xlink:href="#DejaVuSans-31"/>
       <use xlink:href="#DejaVuSans-68" transform="translate(63.623047 0)"/>
       <use xlink:href="#DejaVuSans-3a" transform="translate(127.001953 0)"/>
       <use xlink:href="#DejaVuSans-33" transform="translate(160.693359 0)"/>
       <use xlink:href="#DejaVuSans-39" transform="translate(224.316406 0)"/>
       <use xlink:href="#DejaVuSans-6d" transform="translate(287.939453 0)"/>
      </g>
     </g>
    </g>
    <g id="xtick_11">
     <g id="line2d_11">
      <g>
       <use xlink:href="#mbbadacd082" x="704.117495" y="288.430125" style="stroke: #000000; stroke-width: 0.8"/>
      </g>
     </g>
     <g id="text_7">
      <!-- 4h:53m -->
      <g transform="translate(684.850308 303.028562) scale(0.1 -0.1)">
       <defs>
        <path id="DejaVuSans-34" d="M 2419 4116 
L 825 1625 
L 2419 1625 
L 2419 4116 
z
M 2253 4666 
L 3047 4666 
L 3047 1625 
L 3713 1625 
L 3713 1100 
L 3047 1100 
L 3047 0 
L 2419 0 
L 2419 1100 
L 313 1100 
L 313 1709 
L 2253 4666 
z
" transform="scale(0.015625)"/>
        <path id="DejaVuSans-35" d="M 691 4666 
L 3169 4666 
L 3169 4134 
L 1269 4134 
L 1269 2991 
Q 1406 3038 1543 3061 
Q 1681 3084 1819 3084 
Q 2600 3084 3056 2656 
Q 3513 2228 3513 1497 
Q 3513 744 3044 326 
Q 2575 -91 1722 -91 
Q 1428 -91 1123 -41 
Q 819 9 494 109 
L 494 744 
Q 775 591 1075 516 
Q 1375 441 1709 441 
Q 2250 441 2565 725 
Q 2881 1009 2881 1497 
Q 2881 1984 2565 2268 
Q 2250 2553 1709 2553 
Q 1456 2553 1204 2497 
Q 953 2441 691 2322 
L 691 4666 
z
" transform="scale(0.015625)"/>
       </defs>
       <use xlink:href="#DejaVuSans-34"/>
       <use xlink:href="#DejaVuSans-68" transform="translate(63.623047 0)"/>
       <use xlink:href="#DejaVuSans-3a" transform="translate(127.001953 0)"/>
       <use xlink:href="#DejaVuSans-35" transform="translate(160.693359 0)"/>
       <use xlink:href="#DejaVuSans-33" transform="translate(224.316406 0)"/>
       <use xlink:href="#DejaVuSans-6d" transform="translate(287.939453 0)"/>
      </g>
     </g>
    </g>
    <g id="xtick_12">
     <g id="line2d_12">
      <g>
       <use xlink:href="#mbbadacd082" x="764.841784" y="288.430125" style="stroke: #000000; stroke-width: 0.8"/>
      </g>
     </g>
     <g id="text_8">
      <!-- 14h:30m -->
      <g transform="translate(742.393347 303.028562) scale(0.1 -0.1)">
       <use xlink:href="#DejaVuSans-31"/>
       <use xlink:href="#DejaVuSans-34" transform="translate(63.623047 0)"/>
       <use xlink:href="#DejaVuSans-68" transform="translate(127.246094 0)"/>
       <use xlink:href="#DejaVuSans-3a" transform="translate(190.625 0)"/>
       <use xlink:href="#DejaVuSans-33" transform="translate(224.316406 0)"/>
       <use xlink:href="#DejaVuSans-30" transform="translate(287.939453 0)"/>
       <use xlink:href="#DejaVuSans-6d" transform="translate(351.5625 0)"/>
      </g>
     </g>
    </g>
    <g id="text_9">
     <!-- Time (hour:minute) -->
     <g transform="translate(362.041094 316.706687) scale(0.1 -0.1)">
      <defs>
       <path id="DejaVuSans-54" d="M -19 4666 
L 3928 4666 
L 3928 4134 
L 2272 4134 
L 2272 0 
L 1638 0 
L 1638 4134 
L -19 4134 
L -19 4666 
z
" transform="scale(0.015625)"/>
       <path id="DejaVuSans-69" d="M 603 3500 
L 1178 3500 
L 1178 0 
L 603 0 
L 603 3500 
z
M 603 4863 
L 1178 4863 
L 1178 4134 
L 603 4134 
L 603 4863 
z
" transform="scale(0.015625)"/>
       <path id="DejaVuSans-65" d="M 3597 1894 
L 3597 1613 
L 953 1613 
Q 991 1019 1311 708 
Q 1631 397 2203 397 
Q 2534 397 2845 478 
Q 3156 559 3463 722 
L 3463 178 
Q 3153 47 2828 -22 
Q 2503 -91 2169 -91 
Q 1331 -91 842 396 
Q 353 884 353 1716 
Q 353 2575 817 3079 
Q 1281 3584 2069 3584 
Q 2775 3584 3186 3129 
Q 3597 2675 3597 1894 
z
M 3022 2063 
Q 3016 2534 2758 2815 
Q 2500 3097 2075 3097 
Q 1594 3097 1305 2825 
Q 1016 2553 972 2059 
L 3022 2063 
z
" transform="scale(0.015625)"/>
       <path id="DejaVuSans-20" transform="scale(0.015625)"/>
       <path id="DejaVuSans-28" d="M 1984 4856 
Q 1566 4138 1362 3434 
Q 1159 2731 1159 2009 
Q 1159 1288 1364 580 
Q 1569 -128 1984 -844 
L 1484 -844 
Q 1016 -109 783 600 
Q 550 1309 550 2009 
Q 550 2706 781 3412 
Q 1013 4119 1484 4856 
L 1984 4856 
z
" transform="scale(0.015625)"/>
       <path id="DejaVuSans-6f" d="M 1959 3097 
Q 1497 3097 1228 2736 
Q 959 2375 959 1747 
Q 959 1119 1226 758 
Q 1494 397 1959 397 
Q 2419 397 2687 759 
Q 2956 1122 2956 1747 
Q 2956 2369 2687 2733 
Q 2419 3097 1959 3097 
z
M 1959 3584 
Q 2709 3584 3137 3096 
Q 3566 2609 3566 1747 
Q 3566 888 3137 398 
Q 2709 -91 1959 -91 
Q 1206 -91 779 398 
Q 353 888 353 1747 
Q 353 2609 779 3096 
Q 1206 3584 1959 3584 
z
" transform="scale(0.015625)"/>
       <path id="DejaVuSans-75" d="M 544 1381 
L 544 3500 
L 1119 3500 
L 1119 1403 
Q 1119 906 1312 657 
Q 1506 409 1894 409 
Q 2359 409 2629 706 
Q 2900 1003 2900 1516 
L 2900 3500 
L 3475 3500 
L 3475 0 
L 2900 0 
L 2900 538 
Q 2691 219 2414 64 
Q 2138 -91 1772 -91 
Q 1169 -91 856 284 
Q 544 659 544 1381 
z
M 1991 3584 
L 1991 3584 
z
" transform="scale(0.015625)"/>
       <path id="DejaVuSans-72" d="M 2631 2963 
Q 2534 3019 2420 3045 
Q 2306 3072 2169 3072 
Q 1681 3072 1420 2755 
Q 1159 2438 1159 1844 
L 1159 0 
L 581 0 
L 581 3500 
L 1159 3500 
L 1159 2956 
Q 1341 3275 1631 3429 
Q 1922 3584 2338 3584 
Q 2397 3584 2469 3576 
Q 2541 3569 2628 3553 
L 2631 2963 
z
" transform="scale(0.015625)"/>
       <path id="DejaVuSans-6e" d="M 3513 2113 
L 3513 0 
L 2938 0 
L 2938 2094 
Q 2938 2591 2744 2837 
Q 2550 3084 2163 3084 
Q 1697 3084 1428 2787 
Q 1159 2491 1159 1978 
L 1159 0 
L 581 0 
L 581 3500 
L 1159 3500 
L 1159 2956 
Q 1366 3272 1645 3428 
Q 1925 3584 2291 3584 
Q 2894 3584 3203 3211 
Q 3513 2838 3513 2113 
z
" transform="scale(0.015625)"/>
       <path id="DejaVuSans-74" d="M 1172 4494 
L 1172 3500 
L 2356 3500 
L 2356 3053 
L 1172 3053 
L 1172 1153 
Q 1172 725 1289 603 
Q 1406 481 1766 481 
L 2356 481 
L 2356 0 
L 1766 0 
Q 1100 0 847 248 
Q 594 497 594 1153 
L 594 3053 
L 172 3053 
L 172 3500 
L 594 3500 
L 594 4494 
L 1172 4494 
z
" transform="scale(0.015625)"/>
       <path id="DejaVuSans-29" d="M 513 4856 
L 1013 4856 
Q 1481 4119 1714 3412 
Q 1947 2706 1947 2009 
Q 1947 1309 1714 600 
Q 1481 -109 1013 -844 
L 513 -844 
Q 928 -128 1133 580 
Q 1338 1288 1338 2009 
Q 1338 2731 1133 3434 
Q 928 4138 513 4856 
z
" transform="scale(0.015625)"/>
      </defs>
      <use xlink:href="#DejaVuSans-54"/>
      <use xlink:href="#DejaVuSans-69" transform="translate(57.958984 0)"/>
      <use xlink:href="#DejaVuSans-6d" transform="translate(85.742188 0)"/>
      <use xlink:href="#DejaVuSans-65" transform="translate(183.154297 0)"/>
      <use xlink:href="#DejaVuSans-20" transform="translate(244.677734 0)"/>
      <use xlink:href="#DejaVuSans-28" transform="translate(276.464844 0)"/>
      <use xlink:href="#DejaVuSans-68" transform="translate(315.478516 0)"/>
      <use xlink:href="#DejaVuSans-6f" transform="translate(378.857422 0)"/>
      <use xlink:href="#DejaVuSans-75" transform="translate(440.039062 0)"/>
      <use xlink:href="#DejaVuSans-72" transform="translate(503.417969 0)"/>
      <use xlink:href="#DejaVuSans-3a" transform="translate(542.78125 0)"/>
      <use xlink:href="#DejaVuSans-6d" transform="translate(576.472656 0)"/>
      <use xlink:href="#DejaVuSans-69" transform="translate(673.884766 0)"/>
      <use xlink:href="#DejaVuSans-6e" transform="translate(701.667969 0)"/>
      <use xlink:href="#DejaVuSans-75" transform="translate(765.046875 0)"/>
      <use xlink:href="#DejaVuSans-74" transform="translate(828.425781 0)"/>
      <use xlink:href="#DejaVuSans-65" transform="translate(867.634766 0)"/>
      <use xlink:href="#DejaVuSans-29" transform="translate(929.158203 0)"/>
     </g>
    </g>
   </g>
   <g id="matplotlib.axis_2">
    <g id="ytick_1">
     <g id="line2d_13">
      <defs>
       <path id="m38aa846386" d="M 0 0 
L -3.5 0 
" style="stroke: #000000; stroke-width: 0.8"/>
      </defs>
      <g>
       <use xlink:href="#m38aa846386" x="53.328125" y="281.119633" style="stroke: #000000; stroke-width: 0.8"/>
      </g>
     </g>
     <g id="text_10">
      <!-- 0 -->
      <g transform="translate(39.965625 284.918851) scale(0.1 -0.1)">
       <use xlink:href="#DejaVuSans-30"/>
      </g>
     </g>
    </g>
    <g id="ytick_2">
     <g id="line2d_14">
      <g>
       <use xlink:href="#m38aa846386" x="53.328125" y="249.63603" style="stroke: #000000; stroke-width: 0.8"/>
      </g>
     </g>
     <g id="text_11">
      <!-- 250 -->
      <g transform="translate(27.240625 253.435249) scale(0.1 -0.1)">
       <defs>
        <path id="DejaVuSans-32" d="M 1228 531 
L 3431 531 
L 3431 0 
L 469 0 
L 469 531 
Q 828 903 1448 1529 
Q 2069 2156 2228 2338 
Q 2531 2678 2651 2914 
Q 2772 3150 2772 3378 
Q 2772 3750 2511 3984 
Q 2250 4219 1831 4219 
Q 1534 4219 1204 4116 
Q 875 4013 500 3803 
L 500 4441 
Q 881 4594 1212 4672 
Q 1544 4750 1819 4750 
Q 2544 4750 2975 4387 
Q 3406 4025 3406 3419 
Q 3406 3131 3298 2873 
Q 3191 2616 2906 2266 
Q 2828 2175 2409 1742 
Q 1991 1309 1228 531 
z
" transform="scale(0.015625)"/>
       </defs>
       <use xlink:href="#DejaVuSans-32"/>
       <use xlink:href="#DejaVuSans-35" transform="translate(63.623047 0)"/>
       <use xlink:href="#DejaVuSans-30" transform="translate(127.246094 0)"/>
      </g>
     </g>
    </g>
    <g id="ytick_3">
     <g id="line2d_15">
      <g>
       <use xlink:href="#m38aa846386" x="53.328125" y="218.152428" style="stroke: #000000; stroke-width: 0.8"/>
      </g>
     </g>
     <g id="text_12">
      <!-- 500 -->
      <g transform="translate(27.240625 221.951647) scale(0.1 -0.1)">
       <use xlink:href="#DejaVuSans-35"/>
       <use xlink:href="#DejaVuSans-30" transform="translate(63.623047 0)"/>
       <use xlink:href="#DejaVuSans-30" transform="translate(127.246094 0)"/>
      </g>
     </g>
    </g>
    <g id="ytick_4">
     <g id="line2d_16">
      <g>
       <use xlink:href="#m38aa846386" x="53.328125" y="186.668826" style="stroke: #000000; stroke-width: 0.8"/>
      </g>
     </g>
     <g id="text_13">
      <!-- 750 -->
      <g transform="translate(27.240625 190.468044) scale(0.1 -0.1)">
       <defs>
        <path id="DejaVuSans-37" d="M 525 4666 
L 3525 4666 
L 3525 4397 
L 1831 0 
L 1172 0 
L 2766 4134 
L 525 4134 
L 525 4666 
z
" transform="scale(0.015625)"/>
       </defs>
       <use xlink:href="#DejaVuSans-37"/>
       <use xlink:href="#DejaVuSans-35" transform="translate(63.623047 0)"/>
       <use xlink:href="#DejaVuSans-30" transform="translate(127.246094 0)"/>
      </g>
     </g>
    </g>
    <g id="ytick_5">
     <g id="line2d_17">
      <g>
       <use xlink:href="#m38aa846386" x="53.328125" y="155.185223" style="stroke: #000000; stroke-width: 0.8"/>
      </g>
     </g>
     <g id="text_14">
      <!-- 1000 -->
      <g transform="translate(20.878125 158.984442) scale(0.1 -0.1)">
       <use xlink:href="#DejaVuSans-31"/>
       <use xlink:href="#DejaVuSans-30" transform="translate(63.623047 0)"/>
       <use xlink:href="#DejaVuSans-30" transform="translate(127.246094 0)"/>
       <use xlink:href="#DejaVuSans-30" transform="translate(190.869141 0)"/>
      </g>
     </g>
    </g>
    <g id="ytick_6">
     <g id="line2d_18">
      <g>
       <use xlink:href="#m38aa846386" x="53.328125" y="123.701621" style="stroke: #000000; stroke-width: 0.8"/>
      </g>
     </g>
     <g id="text_15">
      <!-- 1250 -->
      <g transform="translate(20.878125 127.50084) scale(0.1 -0.1)">
       <use xlink:href="#DejaVuSans-31"/>
       <use xlink:href="#DejaVuSans-32" transform="translate(63.623047 0)"/>
       <use xlink:href="#DejaVuSans-35" transform="translate(127.246094 0)"/>
       <use xlink:href="#DejaVuSans-30" transform="translate(190.869141 0)"/>
      </g>
     </g>
    </g>
    <g id="ytick_7">
     <g id="line2d_19">
      <g>
       <use xlink:href="#m38aa846386" x="53.328125" y="92.218019" style="stroke: #000000; stroke-width: 0.8"/>
      </g>
     </g>
     <g id="text_16">
      <!-- 1500 -->
      <g transform="translate(20.878125 96.017238) scale(0.1 -0.1)">
       <use xlink:href="#DejaVuSans-31"/>
       <use xlink:href="#DejaVuSans-35" transform="translate(63.623047 0)"/>
       <use xlink:href="#DejaVuSans-30" transform="translate(127.246094 0)"/>
       <use xlink:href="#DejaVuSans-30" transform="translate(190.869141 0)"/>
      </g>
     </g>
    </g>
    <g id="ytick_8">
     <g id="line2d_20">
      <g>
       <use xlink:href="#m38aa846386" x="53.328125" y="60.734417" style="stroke: #000000; stroke-width: 0.8"/>
      </g>
     </g>
     <g id="text_17">
      <!-- 1750 -->
      <g transform="translate(20.878125 64.533635) scale(0.1 -0.1)">
       <use xlink:href="#DejaVuSans-31"/>
       <use xlink:href="#DejaVuSans-37" transform="translate(63.623047 0)"/>
       <use xlink:href="#DejaVuSans-35" transform="translate(127.246094 0)"/>
       <use xlink:href="#DejaVuSans-30" transform="translate(190.869141 0)"/>
      </g>
     </g>
    </g>
    <g id="ytick_9">
     <g id="line2d_21">
      <g>
       <use xlink:href="#m38aa846386" x="53.328125" y="29.250814" style="stroke: #000000; stroke-width: 0.8"/>
      </g>
     </g>
     <g id="text_18">
      <!-- 2000 -->
      <g transform="translate(20.878125 33.050033) scale(0.1 -0.1)">
       <use xlink:href="#DejaVuSans-32"/>
       <use xlink:href="#DejaVuSans-30" transform="translate(63.623047 0)"/>
       <use xlink:href="#DejaVuSans-30" transform="translate(127.246094 0)"/>
       <use xlink:href="#DejaVuSans-30" transform="translate(190.869141 0)"/>
      </g>
     </g>
    </g>
    <g id="text_19">
     <!-- Code branch coverage -->
     <g transform="translate(14.798438 211.949125) rotate(-90) scale(0.1 -0.1)">
      <defs>
       <path id="DejaVuSans-43" d="M 4122 4306 
L 4122 3641 
Q 3803 3938 3442 4084 
Q 3081 4231 2675 4231 
Q 1875 4231 1450 3742 
Q 1025 3253 1025 2328 
Q 1025 1406 1450 917 
Q 1875 428 2675 428 
Q 3081 428 3442 575 
Q 3803 722 4122 1019 
L 4122 359 
Q 3791 134 3420 21 
Q 3050 -91 2638 -91 
Q 1578 -91 968 557 
Q 359 1206 359 2328 
Q 359 3453 968 4101 
Q 1578 4750 2638 4750 
Q 3056 4750 3426 4639 
Q 3797 4528 4122 4306 
z
" transform="scale(0.015625)"/>
       <path id="DejaVuSans-64" d="M 2906 2969 
L 2906 4863 
L 3481 4863 
L 3481 0 
L 2906 0 
L 2906 525 
Q 2725 213 2448 61 
Q 2172 -91 1784 -91 
Q 1150 -91 751 415 
Q 353 922 353 1747 
Q 353 2572 751 3078 
Q 1150 3584 1784 3584 
Q 2172 3584 2448 3432 
Q 2725 3281 2906 2969 
z
M 947 1747 
Q 947 1113 1208 752 
Q 1469 391 1925 391 
Q 2381 391 2643 752 
Q 2906 1113 2906 1747 
Q 2906 2381 2643 2742 
Q 2381 3103 1925 3103 
Q 1469 3103 1208 2742 
Q 947 2381 947 1747 
z
" transform="scale(0.015625)"/>
       <path id="DejaVuSans-62" d="M 3116 1747 
Q 3116 2381 2855 2742 
Q 2594 3103 2138 3103 
Q 1681 3103 1420 2742 
Q 1159 2381 1159 1747 
Q 1159 1113 1420 752 
Q 1681 391 2138 391 
Q 2594 391 2855 752 
Q 3116 1113 3116 1747 
z
M 1159 2969 
Q 1341 3281 1617 3432 
Q 1894 3584 2278 3584 
Q 2916 3584 3314 3078 
Q 3713 2572 3713 1747 
Q 3713 922 3314 415 
Q 2916 -91 2278 -91 
Q 1894 -91 1617 61 
Q 1341 213 1159 525 
L 1159 0 
L 581 0 
L 581 4863 
L 1159 4863 
L 1159 2969 
z
" transform="scale(0.015625)"/>
       <path id="DejaVuSans-61" d="M 2194 1759 
Q 1497 1759 1228 1600 
Q 959 1441 959 1056 
Q 959 750 1161 570 
Q 1363 391 1709 391 
Q 2188 391 2477 730 
Q 2766 1069 2766 1631 
L 2766 1759 
L 2194 1759 
z
M 3341 1997 
L 3341 0 
L 2766 0 
L 2766 531 
Q 2569 213 2275 61 
Q 1981 -91 1556 -91 
Q 1019 -91 701 211 
Q 384 513 384 1019 
Q 384 1609 779 1909 
Q 1175 2209 1959 2209 
L 2766 2209 
L 2766 2266 
Q 2766 2663 2505 2880 
Q 2244 3097 1772 3097 
Q 1472 3097 1187 3025 
Q 903 2953 641 2809 
L 641 3341 
Q 956 3463 1253 3523 
Q 1550 3584 1831 3584 
Q 2591 3584 2966 3190 
Q 3341 2797 3341 1997 
z
" transform="scale(0.015625)"/>
       <path id="DejaVuSans-63" d="M 3122 3366 
L 3122 2828 
Q 2878 2963 2633 3030 
Q 2388 3097 2138 3097 
Q 1578 3097 1268 2742 
Q 959 2388 959 1747 
Q 959 1106 1268 751 
Q 1578 397 2138 397 
Q 2388 397 2633 464 
Q 2878 531 3122 666 
L 3122 134 
Q 2881 22 2623 -34 
Q 2366 -91 2075 -91 
Q 1284 -91 818 406 
Q 353 903 353 1747 
Q 353 2603 823 3093 
Q 1294 3584 2113 3584 
Q 2378 3584 2631 3529 
Q 2884 3475 3122 3366 
z
" transform="scale(0.015625)"/>
       <path id="DejaVuSans-76" d="M 191 3500 
L 800 3500 
L 1894 563 
L 2988 3500 
L 3597 3500 
L 2284 0 
L 1503 0 
L 191 3500 
z
" transform="scale(0.015625)"/>
       <path id="DejaVuSans-67" d="M 2906 1791 
Q 2906 2416 2648 2759 
Q 2391 3103 1925 3103 
Q 1463 3103 1205 2759 
Q 947 2416 947 1791 
Q 947 1169 1205 825 
Q 1463 481 1925 481 
Q 2391 481 2648 825 
Q 2906 1169 2906 1791 
z
M 3481 434 
Q 3481 -459 3084 -895 
Q 2688 -1331 1869 -1331 
Q 1566 -1331 1297 -1286 
Q 1028 -1241 775 -1147 
L 775 -588 
Q 1028 -725 1275 -790 
Q 1522 -856 1778 -856 
Q 2344 -856 2625 -561 
Q 2906 -266 2906 331 
L 2906 616 
Q 2728 306 2450 153 
Q 2172 0 1784 0 
Q 1141 0 747 490 
Q 353 981 353 1791 
Q 353 2603 747 3093 
Q 1141 3584 1784 3584 
Q 2172 3584 2450 3431 
Q 2728 3278 2906 2969 
L 2906 3500 
L 3481 3500 
L 3481 434 
z
" transform="scale(0.015625)"/>
      </defs>
      <use xlink:href="#DejaVuSans-43"/>
      <use xlink:href="#DejaVuSans-6f" transform="translate(69.824219 0)"/>
      <use xlink:href="#DejaVuSans-64" transform="translate(131.005859 0)"/>
      <use xlink:href="#DejaVuSans-65" transform="translate(194.482422 0)"/>
      <use xlink:href="#DejaVuSans-20" transform="translate(256.005859 0)"/>
      <use xlink:href="#DejaVuSans-62" transform="translate(287.792969 0)"/>
      <use xlink:href="#DejaVuSans-72" transform="translate(351.269531 0)"/>
      <use xlink:href="#DejaVuSans-61" transform="translate(392.382812 0)"/>
      <use xlink:href="#DejaVuSans-6e" transform="translate(453.662109 0)"/>
      <use xlink:href="#DejaVuSans-63" transform="translate(517.041016 0)"/>
      <use xlink:href="#DejaVuSans-68" transform="translate(572.021484 0)"/>
      <use xlink:href="#DejaVuSans-20" transform="translate(635.400391 0)"/>
      <use xlink:href="#DejaVuSans-63" transform="translate(667.1875 0)"/>
      <use xlink:href="#DejaVuSans-6f" transform="translate(722.167969 0)"/>
      <use xlink:href="#DejaVuSans-76" transform="translate(783.349609 0)"/>
      <use xlink:href="#DejaVuSans-65" transform="translate(842.529297 0)"/>
      <use xlink:href="#DejaVuSans-72" transform="translate(904.052734 0)"/>
      <use xlink:href="#DejaVuSans-61" transform="translate(945.166016 0)"/>
      <use xlink:href="#DejaVuSans-67" transform="translate(1006.445312 0)"/>
      <use xlink:href="#DejaVuSans-65" transform="translate(1069.921875 0)"/>
     </g>
    </g>
   </g>
   <g id="line2d_22">
    <path d="M 53.328125 276.334125 
L 537.858515 180.49804 
L 576.606028 177.475614 
L 599.271871 173.823516 
L 615.353542 126.346244 
L 627.827455 125.716572 
L 638.019385 125.716572 
L 646.636538 125.716572 
L 654.101056 125.716572 
L 660.685227 125.716572 
L 666.574969 105.693001 
L 671.902889 105.693001 
L 676.766898 105.063329 
L 681.241353 105.063329 
L 685.384052 105.063329 
L 689.240812 103.929919 
L 692.84857 103.426181 
L 696.237537 102.670575 
L 699.432741 102.670575 
L 702.455144 100.52969 
L 705.322483 100.52969 
L 708.049894 100.52969 
L 710.650402 100.52969 
L 713.135294 100.52969 
L 715.514412 100.151887 
L 717.796396 100.151887 
L 719.988867 100.151887 
L 722.098583 100.151887 
L 724.131565 100.151887 
L 726.0932 100.151887 
L 727.988325 99.900018 
L 729.821304 99.900018 
L 731.596083 98.640674 
L 733.316245 98.640674 
L 734.985051 88.691855 
L 736.605479 87.054708 
L 738.180255 87.054708 
L 739.71188 87.054708 
L 741.202658 87.054708 
L 742.65471 87.054708 
L 744.069996 87.054708 
L 745.450334 87.054708 
L 746.797408 87.054708 
L 748.112783 86.928774 
L 749.397916 86.928774 
L 750.654168 86.802839 
L 751.882807 86.802839 
L 753.085022 86.802839 
L 754.261926 86.802839 
L 755.414561 85.543495 
L 756.54391 85.543495 
L 757.650893 85.291626 
L 758.736381 85.291626 
L 759.801191 85.291626 
L 760.846097 85.291626 
L 761.871829 85.291626 
L 762.879079 85.291626 
L 763.8685 84.158217 
L 764.840714 84.158217 
" clip-path="url(#p5372233923)" style="fill: none; stroke: #d62728; stroke-width: 1.5; stroke-linecap: square"/>
    <defs>
     <path id="mec3ac91965" d="M 0 -3 
L -3 3 
L 3 3 
z
" style="stroke: #ffffff; stroke-width: 0.75; stroke-linejoin: miter"/>
    </defs>
    <g clip-path="url(#p5372233923)">
     <use xlink:href="#mec3ac91965" x="53.328125" y="276.334125" style="fill: #d62728; stroke: #ffffff; stroke-width: 0.75; stroke-linejoin: miter"/>
     <use xlink:href="#mec3ac91965" x="537.858515" y="180.49804" style="fill: #d62728; stroke: #ffffff; stroke-width: 0.75; stroke-linejoin: miter"/>
     <use xlink:href="#mec3ac91965" x="576.606028" y="177.475614" style="fill: #d62728; stroke: #ffffff; stroke-width: 0.75; stroke-linejoin: miter"/>
     <use xlink:href="#mec3ac91965" x="599.271871" y="173.823516" style="fill: #d62728; stroke: #ffffff; stroke-width: 0.75; stroke-linejoin: miter"/>
     <use xlink:href="#mec3ac91965" x="615.353542" y="126.346244" style="fill: #d62728; stroke: #ffffff; stroke-width: 0.75; stroke-linejoin: miter"/>
     <use xlink:href="#mec3ac91965" x="627.827455" y="125.716572" style="fill: #d62728; stroke: #ffffff; stroke-width: 0.75; stroke-linejoin: miter"/>
     <use xlink:href="#mec3ac91965" x="638.019385" y="125.716572" style="fill: #d62728; stroke: #ffffff; stroke-width: 0.75; stroke-linejoin: miter"/>
     <use xlink:href="#mec3ac91965" x="646.636538" y="125.716572" style="fill: #d62728; stroke: #ffffff; stroke-width: 0.75; stroke-linejoin: miter"/>
     <use xlink:href="#mec3ac91965" x="654.101056" y="125.716572" style="fill: #d62728; stroke: #ffffff; stroke-width: 0.75; stroke-linejoin: miter"/>
     <use xlink:href="#mec3ac91965" x="660.685227" y="125.716572" style="fill: #d62728; stroke: #ffffff; stroke-width: 0.75; stroke-linejoin: miter"/>
     <use xlink:href="#mec3ac91965" x="666.574969" y="105.693001" style="fill: #d62728; stroke: #ffffff; stroke-width: 0.75; stroke-linejoin: miter"/>
     <use xlink:href="#mec3ac91965" x="671.902889" y="105.693001" style="fill: #d62728; stroke: #ffffff; stroke-width: 0.75; stroke-linejoin: miter"/>
     <use xlink:href="#mec3ac91965" x="676.766898" y="105.063329" style="fill: #d62728; stroke: #ffffff; stroke-width: 0.75; stroke-linejoin: miter"/>
     <use xlink:href="#mec3ac91965" x="681.241353" y="105.063329" style="fill: #d62728; stroke: #ffffff; stroke-width: 0.75; stroke-linejoin: miter"/>
     <use xlink:href="#mec3ac91965" x="685.384052" y="105.063329" style="fill: #d62728; stroke: #ffffff; stroke-width: 0.75; stroke-linejoin: miter"/>
     <use xlink:href="#mec3ac91965" x="689.240812" y="103.929919" style="fill: #d62728; stroke: #ffffff; stroke-width: 0.75; stroke-linejoin: miter"/>
     <use xlink:href="#mec3ac91965" x="692.84857" y="103.426181" style="fill: #d62728; stroke: #ffffff; stroke-width: 0.75; stroke-linejoin: miter"/>
     <use xlink:href="#mec3ac91965" x="696.237537" y="102.670575" style="fill: #d62728; stroke: #ffffff; stroke-width: 0.75; stroke-linejoin: miter"/>
     <use xlink:href="#mec3ac91965" x="699.432741" y="102.670575" style="fill: #d62728; stroke: #ffffff; stroke-width: 0.75; stroke-linejoin: miter"/>
     <use xlink:href="#mec3ac91965" x="702.455144" y="100.52969" style="fill: #d62728; stroke: #ffffff; stroke-width: 0.75; stroke-linejoin: miter"/>
     <use xlink:href="#mec3ac91965" x="705.322483" y="100.52969" style="fill: #d62728; stroke: #ffffff; stroke-width: 0.75; stroke-linejoin: miter"/>
     <use xlink:href="#mec3ac91965" x="708.049894" y="100.52969" style="fill: #d62728; stroke: #ffffff; stroke-width: 0.75; stroke-linejoin: miter"/>
     <use xlink:href="#mec3ac91965" x="710.650402" y="100.52969" style="fill: #d62728; stroke: #ffffff; stroke-width: 0.75; stroke-linejoin: miter"/>
     <use xlink:href="#mec3ac91965" x="713.135294" y="100.52969" style="fill: #d62728; stroke: #ffffff; stroke-width: 0.75; stroke-linejoin: miter"/>
     <use xlink:href="#mec3ac91965" x="715.514412" y="100.151887" style="fill: #d62728; stroke: #ffffff; stroke-width: 0.75; stroke-linejoin: miter"/>
     <use xlink:href="#mec3ac91965" x="717.796396" y="100.151887" style="fill: #d62728; stroke: #ffffff; stroke-width: 0.75; stroke-linejoin: miter"/>
     <use xlink:href="#mec3ac91965" x="719.988867" y="100.151887" style="fill: #d62728; stroke: #ffffff; stroke-width: 0.75; stroke-linejoin: miter"/>
     <use xlink:href="#mec3ac91965" x="722.098583" y="100.151887" style="fill: #d62728; stroke: #ffffff; stroke-width: 0.75; stroke-linejoin: miter"/>
     <use xlink:href="#mec3ac91965" x="724.131565" y="100.151887" style="fill: #d62728; stroke: #ffffff; stroke-width: 0.75; stroke-linejoin: miter"/>
     <use xlink:href="#mec3ac91965" x="726.0932" y="100.151887" style="fill: #d62728; stroke: #ffffff; stroke-width: 0.75; stroke-linejoin: miter"/>
     <use xlink:href="#mec3ac91965" x="727.988325" y="99.900018" style="fill: #d62728; stroke: #ffffff; stroke-width: 0.75; stroke-linejoin: miter"/>
     <use xlink:href="#mec3ac91965" x="729.821304" y="99.900018" style="fill: #d62728; stroke: #ffffff; stroke-width: 0.75; stroke-linejoin: miter"/>
     <use xlink:href="#mec3ac91965" x="731.596083" y="98.640674" style="fill: #d62728; stroke: #ffffff; stroke-width: 0.75; stroke-linejoin: miter"/>
     <use xlink:href="#mec3ac91965" x="733.316245" y="98.640674" style="fill: #d62728; stroke: #ffffff; stroke-width: 0.75; stroke-linejoin: miter"/>
     <use xlink:href="#mec3ac91965" x="734.985051" y="88.691855" style="fill: #d62728; stroke: #ffffff; stroke-width: 0.75; stroke-linejoin: miter"/>
     <use xlink:href="#mec3ac91965" x="736.605479" y="87.054708" style="fill: #d62728; stroke: #ffffff; stroke-width: 0.75; stroke-linejoin: miter"/>
     <use xlink:href="#mec3ac91965" x="738.180255" y="87.054708" style="fill: #d62728; stroke: #ffffff; stroke-width: 0.75; stroke-linejoin: miter"/>
     <use xlink:href="#mec3ac91965" x="739.71188" y="87.054708" style="fill: #d62728; stroke: #ffffff; stroke-width: 0.75; stroke-linejoin: miter"/>
     <use xlink:href="#mec3ac91965" x="741.202658" y="87.054708" style="fill: #d62728; stroke: #ffffff; stroke-width: 0.75; stroke-linejoin: miter"/>
     <use xlink:href="#mec3ac91965" x="742.65471" y="87.054708" style="fill: #d62728; stroke: #ffffff; stroke-width: 0.75; stroke-linejoin: miter"/>
     <use xlink:href="#mec3ac91965" x="744.069996" y="87.054708" style="fill: #d62728; stroke: #ffffff; stroke-width: 0.75; stroke-linejoin: miter"/>
     <use xlink:href="#mec3ac91965" x="745.450334" y="87.054708" style="fill: #d62728; stroke: #ffffff; stroke-width: 0.75; stroke-linejoin: miter"/>
     <use xlink:href="#mec3ac91965" x="746.797408" y="87.054708" style="fill: #d62728; stroke: #ffffff; stroke-width: 0.75; stroke-linejoin: miter"/>
     <use xlink:href="#mec3ac91965" x="748.112783" y="86.928774" style="fill: #d62728; stroke: #ffffff; stroke-width: 0.75; stroke-linejoin: miter"/>
     <use xlink:href="#mec3ac91965" x="749.397916" y="86.928774" style="fill: #d62728; stroke: #ffffff; stroke-width: 0.75; stroke-linejoin: miter"/>
     <use xlink:href="#mec3ac91965" x="750.654168" y="86.802839" style="fill: #d62728; stroke: #ffffff; stroke-width: 0.75; stroke-linejoin: miter"/>
     <use xlink:href="#mec3ac91965" x="751.882807" y="86.802839" style="fill: #d62728; stroke: #ffffff; stroke-width: 0.75; stroke-linejoin: miter"/>
     <use xlink:href="#mec3ac91965" x="753.085022" y="86.802839" style="fill: #d62728; stroke: #ffffff; stroke-width: 0.75; stroke-linejoin: miter"/>
     <use xlink:href="#mec3ac91965" x="754.261926" y="86.802839" style="fill: #d62728; stroke: #ffffff; stroke-width: 0.75; stroke-linejoin: miter"/>
     <use xlink:href="#mec3ac91965" x="755.414561" y="85.543495" style="fill: #d62728; stroke: #ffffff; stroke-width: 0.75; stroke-linejoin: miter"/>
     <use xlink:href="#mec3ac91965" x="756.54391" y="85.543495" style="fill: #d62728; stroke: #ffffff; stroke-width: 0.75; stroke-linejoin: miter"/>
     <use xlink:href="#mec3ac91965" x="757.650893" y="85.291626" style="fill: #d62728; stroke: #ffffff; stroke-width: 0.75; stroke-linejoin: miter"/>
     <use xlink:href="#mec3ac91965" x="758.736381" y="85.291626" style="fill: #d62728; stroke: #ffffff; stroke-width: 0.75; stroke-linejoin: miter"/>
     <use xlink:href="#mec3ac91965" x="759.801191" y="85.291626" style="fill: #d62728; stroke: #ffffff; stroke-width: 0.75; stroke-linejoin: miter"/>
     <use xlink:href="#mec3ac91965" x="760.846097" y="85.291626" style="fill: #d62728; stroke: #ffffff; stroke-width: 0.75; stroke-linejoin: miter"/>
     <use xlink:href="#mec3ac91965" x="761.871829" y="85.291626" style="fill: #d62728; stroke: #ffffff; stroke-width: 0.75; stroke-linejoin: miter"/>
     <use xlink:href="#mec3ac91965" x="762.879079" y="85.291626" style="fill: #d62728; stroke: #ffffff; stroke-width: 0.75; stroke-linejoin: miter"/>
     <use xlink:href="#mec3ac91965" x="763.8685" y="84.158217" style="fill: #d62728; stroke: #ffffff; stroke-width: 0.75; stroke-linejoin: miter"/>
     <use xlink:href="#mec3ac91965" x="764.840714" y="84.158217" style="fill: #d62728; stroke: #ffffff; stroke-width: 0.75; stroke-linejoin: miter"/>
    </g>
   </g>
   <g id="line2d_23">
    <path d="M 53.328125 276.334125 
L 537.858515 193.406317 
L 576.606028 184.590908 
L 599.271871 176.908909 
L 615.353542 175.775499 
L 627.827455 149.140372 
L 638.019385 148.132896 
L 646.636538 141.269471 
L 654.101056 141.143537 
L 660.685227 140.324963 
L 666.574969 140.261996 
L 671.902889 140.073094 
L 676.766898 139.254521 
L 681.241353 138.687816 
L 685.384052 138.561881 
L 689.240812 138.435947 
L 692.84857 137.428472 
L 696.237537 137.365504 
L 699.432741 136.987701 
L 702.455144 136.861767 
L 705.322483 132.139227 
L 708.049894 132.076259 
L 710.650402 132.076259 
L 713.135294 132.076259 
L 715.514412 131.950325 
L 717.796396 131.950325 
L 719.988867 131.950325 
L 722.098583 131.950325 
L 724.131565 131.950325 
L 726.0932 131.950325 
L 727.988325 94.107035 
L 729.821304 94.107035 
L 731.596083 90.203068 
L 733.316245 90.203068 
L 734.985051 90.203068 
L 736.605479 90.140101 
L 738.180255 90.140101 
L 739.71188 90.140101 
L 741.202658 90.140101 
L 742.65471 90.140101 
L 744.069996 85.984266 
L 745.450334 85.228659 
L 746.797408 85.228659 
L 748.112783 85.165692 
L 749.397916 85.165692 
L 750.654168 84.850856 
L 751.882807 84.850856 
L 753.085022 84.850856 
L 754.261926 84.850856 
L 755.414561 84.850856 
L 756.54391 84.850856 
L 757.650893 84.850856 
L 758.736381 84.850856 
L 759.801191 84.850856 
L 760.846097 84.410085 
L 761.871829 84.347118 
L 762.879079 84.158217 
L 763.8685 84.095249 
L 764.840714 84.095249 
" clip-path="url(#p5372233923)" style="fill: none; stroke: #98df8a; stroke-width: 1.5; stroke-linecap: square"/>
    <defs>
     <path id="mb7d1bcfc0e" d="M -0 3 
L 3 -3 
L -3 -3 
z
" style="stroke: #ffffff; stroke-width: 0.75; stroke-linejoin: miter"/>
    </defs>
    <g clip-path="url(#p5372233923)">
     <use xlink:href="#mb7d1bcfc0e" x="53.328125" y="276.334125" style="fill: #98df8a; stroke: #ffffff; stroke-width: 0.75; stroke-linejoin: miter"/>
     <use xlink:href="#mb7d1bcfc0e" x="537.858515" y="193.406317" style="fill: #98df8a; stroke: #ffffff; stroke-width: 0.75; stroke-linejoin: miter"/>
     <use xlink:href="#mb7d1bcfc0e" x="576.606028" y="184.590908" style="fill: #98df8a; stroke: #ffffff; stroke-width: 0.75; stroke-linejoin: miter"/>
     <use xlink:href="#mb7d1bcfc0e" x="599.271871" y="176.908909" style="fill: #98df8a; stroke: #ffffff; stroke-width: 0.75; stroke-linejoin: miter"/>
     <use xlink:href="#mb7d1bcfc0e" x="615.353542" y="175.775499" style="fill: #98df8a; stroke: #ffffff; stroke-width: 0.75; stroke-linejoin: miter"/>
     <use xlink:href="#mb7d1bcfc0e" x="627.827455" y="149.140372" style="fill: #98df8a; stroke: #ffffff; stroke-width: 0.75; stroke-linejoin: miter"/>
     <use xlink:href="#mb7d1bcfc0e" x="638.019385" y="148.132896" style="fill: #98df8a; stroke: #ffffff; stroke-width: 0.75; stroke-linejoin: miter"/>
     <use xlink:href="#mb7d1bcfc0e" x="646.636538" y="141.269471" style="fill: #98df8a; stroke: #ffffff; stroke-width: 0.75; stroke-linejoin: miter"/>
     <use xlink:href="#mb7d1bcfc0e" x="654.101056" y="141.143537" style="fill: #98df8a; stroke: #ffffff; stroke-width: 0.75; stroke-linejoin: miter"/>
     <use xlink:href="#mb7d1bcfc0e" x="660.685227" y="140.324963" style="fill: #98df8a; stroke: #ffffff; stroke-width: 0.75; stroke-linejoin: miter"/>
     <use xlink:href="#mb7d1bcfc0e" x="666.574969" y="140.261996" style="fill: #98df8a; stroke: #ffffff; stroke-width: 0.75; stroke-linejoin: miter"/>
     <use xlink:href="#mb7d1bcfc0e" x="671.902889" y="140.073094" style="fill: #98df8a; stroke: #ffffff; stroke-width: 0.75; stroke-linejoin: miter"/>
     <use xlink:href="#mb7d1bcfc0e" x="676.766898" y="139.254521" style="fill: #98df8a; stroke: #ffffff; stroke-width: 0.75; stroke-linejoin: miter"/>
     <use xlink:href="#mb7d1bcfc0e" x="681.241353" y="138.687816" style="fill: #98df8a; stroke: #ffffff; stroke-width: 0.75; stroke-linejoin: miter"/>
     <use xlink:href="#mb7d1bcfc0e" x="685.384052" y="138.561881" style="fill: #98df8a; stroke: #ffffff; stroke-width: 0.75; stroke-linejoin: miter"/>
     <use xlink:href="#mb7d1bcfc0e" x="689.240812" y="138.435947" style="fill: #98df8a; stroke: #ffffff; stroke-width: 0.75; stroke-linejoin: miter"/>
     <use xlink:href="#mb7d1bcfc0e" x="692.84857" y="137.428472" style="fill: #98df8a; stroke: #ffffff; stroke-width: 0.75; stroke-linejoin: miter"/>
     <use xlink:href="#mb7d1bcfc0e" x="696.237537" y="137.365504" style="fill: #98df8a; stroke: #ffffff; stroke-width: 0.75; stroke-linejoin: miter"/>
     <use xlink:href="#mb7d1bcfc0e" x="699.432741" y="136.987701" style="fill: #98df8a; stroke: #ffffff; stroke-width: 0.75; stroke-linejoin: miter"/>
     <use xlink:href="#mb7d1bcfc0e" x="702.455144" y="136.861767" style="fill: #98df8a; stroke: #ffffff; stroke-width: 0.75; stroke-linejoin: miter"/>
     <use xlink:href="#mb7d1bcfc0e" x="705.322483" y="132.139227" style="fill: #98df8a; stroke: #ffffff; stroke-width: 0.75; stroke-linejoin: miter"/>
     <use xlink:href="#mb7d1bcfc0e" x="708.049894" y="132.076259" style="fill: #98df8a; stroke: #ffffff; stroke-width: 0.75; stroke-linejoin: miter"/>
     <use xlink:href="#mb7d1bcfc0e" x="710.650402" y="132.076259" style="fill: #98df8a; stroke: #ffffff; stroke-width: 0.75; stroke-linejoin: miter"/>
     <use xlink:href="#mb7d1bcfc0e" x="713.135294" y="132.076259" style="fill: #98df8a; stroke: #ffffff; stroke-width: 0.75; stroke-linejoin: miter"/>
     <use xlink:href="#mb7d1bcfc0e" x="715.514412" y="131.950325" style="fill: #98df8a; stroke: #ffffff; stroke-width: 0.75; stroke-linejoin: miter"/>
     <use xlink:href="#mb7d1bcfc0e" x="717.796396" y="131.950325" style="fill: #98df8a; stroke: #ffffff; stroke-width: 0.75; stroke-linejoin: miter"/>
     <use xlink:href="#mb7d1bcfc0e" x="719.988867" y="131.950325" style="fill: #98df8a; stroke: #ffffff; stroke-width: 0.75; stroke-linejoin: miter"/>
     <use xlink:href="#mb7d1bcfc0e" x="722.098583" y="131.950325" style="fill: #98df8a; stroke: #ffffff; stroke-width: 0.75; stroke-linejoin: miter"/>
     <use xlink:href="#mb7d1bcfc0e" x="724.131565" y="131.950325" style="fill: #98df8a; stroke: #ffffff; stroke-width: 0.75; stroke-linejoin: miter"/>
     <use xlink:href="#mb7d1bcfc0e" x="726.0932" y="131.950325" style="fill: #98df8a; stroke: #ffffff; stroke-width: 0.75; stroke-linejoin: miter"/>
     <use xlink:href="#mb7d1bcfc0e" x="727.988325" y="94.107035" style="fill: #98df8a; stroke: #ffffff; stroke-width: 0.75; stroke-linejoin: miter"/>
     <use xlink:href="#mb7d1bcfc0e" x="729.821304" y="94.107035" style="fill: #98df8a; stroke: #ffffff; stroke-width: 0.75; stroke-linejoin: miter"/>
     <use xlink:href="#mb7d1bcfc0e" x="731.596083" y="90.203068" style="fill: #98df8a; stroke: #ffffff; stroke-width: 0.75; stroke-linejoin: miter"/>
     <use xlink:href="#mb7d1bcfc0e" x="733.316245" y="90.203068" style="fill: #98df8a; stroke: #ffffff; stroke-width: 0.75; stroke-linejoin: miter"/>
     <use xlink:href="#mb7d1bcfc0e" x="734.985051" y="90.203068" style="fill: #98df8a; stroke: #ffffff; stroke-width: 0.75; stroke-linejoin: miter"/>
     <use xlink:href="#mb7d1bcfc0e" x="736.605479" y="90.140101" style="fill: #98df8a; stroke: #ffffff; stroke-width: 0.75; stroke-linejoin: miter"/>
     <use xlink:href="#mb7d1bcfc0e" x="738.180255" y="90.140101" style="fill: #98df8a; stroke: #ffffff; stroke-width: 0.75; stroke-linejoin: miter"/>
     <use xlink:href="#mb7d1bcfc0e" x="739.71188" y="90.140101" style="fill: #98df8a; stroke: #ffffff; stroke-width: 0.75; stroke-linejoin: miter"/>
     <use xlink:href="#mb7d1bcfc0e" x="741.202658" y="90.140101" style="fill: #98df8a; stroke: #ffffff; stroke-width: 0.75; stroke-linejoin: miter"/>
     <use xlink:href="#mb7d1bcfc0e" x="742.65471" y="90.140101" style="fill: #98df8a; stroke: #ffffff; stroke-width: 0.75; stroke-linejoin: miter"/>
     <use xlink:href="#mb7d1bcfc0e" x="744.069996" y="85.984266" style="fill: #98df8a; stroke: #ffffff; stroke-width: 0.75; stroke-linejoin: miter"/>
     <use xlink:href="#mb7d1bcfc0e" x="745.450334" y="85.228659" style="fill: #98df8a; stroke: #ffffff; stroke-width: 0.75; stroke-linejoin: miter"/>
     <use xlink:href="#mb7d1bcfc0e" x="746.797408" y="85.228659" style="fill: #98df8a; stroke: #ffffff; stroke-width: 0.75; stroke-linejoin: miter"/>
     <use xlink:href="#mb7d1bcfc0e" x="748.112783" y="85.165692" style="fill: #98df8a; stroke: #ffffff; stroke-width: 0.75; stroke-linejoin: miter"/>
     <use xlink:href="#mb7d1bcfc0e" x="749.397916" y="85.165692" style="fill: #98df8a; stroke: #ffffff; stroke-width: 0.75; stroke-linejoin: miter"/>
     <use xlink:href="#mb7d1bcfc0e" x="750.654168" y="84.850856" style="fill: #98df8a; stroke: #ffffff; stroke-width: 0.75; stroke-linejoin: miter"/>
     <use xlink:href="#mb7d1bcfc0e" x="751.882807" y="84.850856" style="fill: #98df8a; stroke: #ffffff; stroke-width: 0.75; stroke-linejoin: miter"/>
     <use xlink:href="#mb7d1bcfc0e" x="753.085022" y="84.850856" style="fill: #98df8a; stroke: #ffffff; stroke-width: 0.75; stroke-linejoin: miter"/>
     <use xlink:href="#mb7d1bcfc0e" x="754.261926" y="84.850856" style="fill: #98df8a; stroke: #ffffff; stroke-width: 0.75; stroke-linejoin: miter"/>
     <use xlink:href="#mb7d1bcfc0e" x="755.414561" y="84.850856" style="fill: #98df8a; stroke: #ffffff; stroke-width: 0.75; stroke-linejoin: miter"/>
     <use xlink:href="#mb7d1bcfc0e" x="756.54391" y="84.850856" style="fill: #98df8a; stroke: #ffffff; stroke-width: 0.75; stroke-linejoin: miter"/>
     <use xlink:href="#mb7d1bcfc0e" x="757.650893" y="84.850856" style="fill: #98df8a; stroke: #ffffff; stroke-width: 0.75; stroke-linejoin: miter"/>
     <use xlink:href="#mb7d1bcfc0e" x="758.736381" y="84.850856" style="fill: #98df8a; stroke: #ffffff; stroke-width: 0.75; stroke-linejoin: miter"/>
     <use xlink:href="#mb7d1bcfc0e" x="759.801191" y="84.850856" style="fill: #98df8a; stroke: #ffffff; stroke-width: 0.75; stroke-linejoin: miter"/>
     <use xlink:href="#mb7d1bcfc0e" x="760.846097" y="84.410085" style="fill: #98df8a; stroke: #ffffff; stroke-width: 0.75; stroke-linejoin: miter"/>
     <use xlink:href="#mb7d1bcfc0e" x="761.871829" y="84.347118" style="fill: #98df8a; stroke: #ffffff; stroke-width: 0.75; stroke-linejoin: miter"/>
     <use xlink:href="#mb7d1bcfc0e" x="762.879079" y="84.158217" style="fill: #98df8a; stroke: #ffffff; stroke-width: 0.75; stroke-linejoin: miter"/>
     <use xlink:href="#mb7d1bcfc0e" x="763.8685" y="84.095249" style="fill: #98df8a; stroke: #ffffff; stroke-width: 0.75; stroke-linejoin: miter"/>
     <use xlink:href="#mb7d1bcfc0e" x="764.840714" y="84.095249" style="fill: #98df8a; stroke: #ffffff; stroke-width: 0.75; stroke-linejoin: miter"/>
    </g>
   </g>
   <g id="line2d_24">
    <path d="M 53.328125 276.334125 
L 537.858515 194.602693 
L 576.606028 178.609023 
L 599.271871 177.160778 
L 615.353542 142.528815 
L 627.827455 106.952345 
L 638.019385 106.133771 
L 646.636538 105.25223 
L 654.101056 99.144411 
L 660.685227 98.577706 
L 666.574969 97.129461 
L 671.902889 97.129461 
L 676.766898 97.066494 
L 681.241353 97.066494 
L 685.384052 96.877592 
L 689.240812 96.877592 
L 692.84857 96.751658 
L 696.237537 95.555281 
L 699.432741 95.429346 
L 702.455144 95.429346 
L 705.322483 95.429346 
L 708.049894 95.429346 
L 710.650402 95.303412 
L 713.135294 95.303412 
L 715.514412 95.240445 
L 717.796396 95.11451 
L 719.988867 95.11451 
L 722.098583 94.862641 
L 724.131565 94.799674 
L 726.0932 94.799674 
L 727.988325 94.67374 
L 729.821304 94.67374 
L 731.596083 90.077134 
L 733.316245 90.077134 
L 734.985051 90.077134 
L 736.605479 89.195593 
L 738.180255 89.195593 
L 739.71188 88.314052 
L 741.202658 88.314052 
L 742.65471 88.314052 
L 744.069996 88.314052 
L 745.450334 88.314052 
L 746.797408 88.314052 
L 748.112783 88.314052 
L 749.397916 88.314052 
L 750.654168 87.558446 
L 751.882807 87.558446 
L 753.085022 87.558446 
L 754.261926 87.558446 
L 755.414561 87.558446 
L 756.54391 87.558446 
L 757.650893 87.558446 
L 758.736381 87.558446 
L 759.801191 87.558446 
L 760.846097 87.558446 
L 761.871829 87.558446 
L 762.879079 87.432511 
L 763.8685 87.432511 
L 764.840714 87.24361 
" clip-path="url(#p5372233923)" style="fill: none; stroke: #1f77b4; stroke-width: 1.5; stroke-linecap: square"/>
    <defs>
     <path id="m4bbc5efa0e" d="M 0 3 
C 0.795609 3 1.55874 2.683901 2.12132 2.12132 
C 2.683901 1.55874 3 0.795609 3 0 
C 3 -0.795609 2.683901 -1.55874 2.12132 -2.12132 
C 1.55874 -2.683901 0.795609 -3 0 -3 
C -0.795609 -3 -1.55874 -2.683901 -2.12132 -2.12132 
C -2.683901 -1.55874 -3 -0.795609 -3 0 
C -3 0.795609 -2.683901 1.55874 -2.12132 2.12132 
C -1.55874 2.683901 -0.795609 3 0 3 
z
" style="stroke: #ffffff; stroke-width: 0.75"/>
    </defs>
    <g clip-path="url(#p5372233923)">
     <use xlink:href="#m4bbc5efa0e" x="53.328125" y="276.334125" style="fill: #1f77b4; stroke: #ffffff; stroke-width: 0.75"/>
     <use xlink:href="#m4bbc5efa0e" x="537.858515" y="194.602693" style="fill: #1f77b4; stroke: #ffffff; stroke-width: 0.75"/>
     <use xlink:href="#m4bbc5efa0e" x="576.606028" y="178.609023" style="fill: #1f77b4; stroke: #ffffff; stroke-width: 0.75"/>
     <use xlink:href="#m4bbc5efa0e" x="599.271871" y="177.160778" style="fill: #1f77b4; stroke: #ffffff; stroke-width: 0.75"/>
     <use xlink:href="#m4bbc5efa0e" x="615.353542" y="142.528815" style="fill: #1f77b4; stroke: #ffffff; stroke-width: 0.75"/>
     <use xlink:href="#m4bbc5efa0e" x="627.827455" y="106.952345" style="fill: #1f77b4; stroke: #ffffff; stroke-width: 0.75"/>
     <use xlink:href="#m4bbc5efa0e" x="638.019385" y="106.133771" style="fill: #1f77b4; stroke: #ffffff; stroke-width: 0.75"/>
     <use xlink:href="#m4bbc5efa0e" x="646.636538" y="105.25223" style="fill: #1f77b4; stroke: #ffffff; stroke-width: 0.75"/>
     <use xlink:href="#m4bbc5efa0e" x="654.101056" y="99.144411" style="fill: #1f77b4; stroke: #ffffff; stroke-width: 0.75"/>
     <use xlink:href="#m4bbc5efa0e" x="660.685227" y="98.577706" style="fill: #1f77b4; stroke: #ffffff; stroke-width: 0.75"/>
     <use xlink:href="#m4bbc5efa0e" x="666.574969" y="97.129461" style="fill: #1f77b4; stroke: #ffffff; stroke-width: 0.75"/>
     <use xlink:href="#m4bbc5efa0e" x="671.902889" y="97.129461" style="fill: #1f77b4; stroke: #ffffff; stroke-width: 0.75"/>
     <use xlink:href="#m4bbc5efa0e" x="676.766898" y="97.066494" style="fill: #1f77b4; stroke: #ffffff; stroke-width: 0.75"/>
     <use xlink:href="#m4bbc5efa0e" x="681.241353" y="97.066494" style="fill: #1f77b4; stroke: #ffffff; stroke-width: 0.75"/>
     <use xlink:href="#m4bbc5efa0e" x="685.384052" y="96.877592" style="fill: #1f77b4; stroke: #ffffff; stroke-width: 0.75"/>
     <use xlink:href="#m4bbc5efa0e" x="689.240812" y="96.877592" style="fill: #1f77b4; stroke: #ffffff; stroke-width: 0.75"/>
     <use xlink:href="#m4bbc5efa0e" x="692.84857" y="96.751658" style="fill: #1f77b4; stroke: #ffffff; stroke-width: 0.75"/>
     <use xlink:href="#m4bbc5efa0e" x="696.237537" y="95.555281" style="fill: #1f77b4; stroke: #ffffff; stroke-width: 0.75"/>
     <use xlink:href="#m4bbc5efa0e" x="699.432741" y="95.429346" style="fill: #1f77b4; stroke: #ffffff; stroke-width: 0.75"/>
     <use xlink:href="#m4bbc5efa0e" x="702.455144" y="95.429346" style="fill: #1f77b4; stroke: #ffffff; stroke-width: 0.75"/>
     <use xlink:href="#m4bbc5efa0e" x="705.322483" y="95.429346" style="fill: #1f77b4; stroke: #ffffff; stroke-width: 0.75"/>
     <use xlink:href="#m4bbc5efa0e" x="708.049894" y="95.429346" style="fill: #1f77b4; stroke: #ffffff; stroke-width: 0.75"/>
     <use xlink:href="#m4bbc5efa0e" x="710.650402" y="95.303412" style="fill: #1f77b4; stroke: #ffffff; stroke-width: 0.75"/>
     <use xlink:href="#m4bbc5efa0e" x="713.135294" y="95.303412" style="fill: #1f77b4; stroke: #ffffff; stroke-width: 0.75"/>
     <use xlink:href="#m4bbc5efa0e" x="715.514412" y="95.240445" style="fill: #1f77b4; stroke: #ffffff; stroke-width: 0.75"/>
     <use xlink:href="#m4bbc5efa0e" x="717.796396" y="95.11451" style="fill: #1f77b4; stroke: #ffffff; stroke-width: 0.75"/>
     <use xlink:href="#m4bbc5efa0e" x="719.988867" y="95.11451" style="fill: #1f77b4; stroke: #ffffff; stroke-width: 0.75"/>
     <use xlink:href="#m4bbc5efa0e" x="722.098583" y="94.862641" style="fill: #1f77b4; stroke: #ffffff; stroke-width: 0.75"/>
     <use xlink:href="#m4bbc5efa0e" x="724.131565" y="94.799674" style="fill: #1f77b4; stroke: #ffffff; stroke-width: 0.75"/>
     <use xlink:href="#m4bbc5efa0e" x="726.0932" y="94.799674" style="fill: #1f77b4; stroke: #ffffff; stroke-width: 0.75"/>
     <use xlink:href="#m4bbc5efa0e" x="727.988325" y="94.67374" style="fill: #1f77b4; stroke: #ffffff; stroke-width: 0.75"/>
     <use xlink:href="#m4bbc5efa0e" x="729.821304" y="94.67374" style="fill: #1f77b4; stroke: #ffffff; stroke-width: 0.75"/>
     <use xlink:href="#m4bbc5efa0e" x="731.596083" y="90.077134" style="fill: #1f77b4; stroke: #ffffff; stroke-width: 0.75"/>
     <use xlink:href="#m4bbc5efa0e" x="733.316245" y="90.077134" style="fill: #1f77b4; stroke: #ffffff; stroke-width: 0.75"/>
     <use xlink:href="#m4bbc5efa0e" x="734.985051" y="90.077134" style="fill: #1f77b4; stroke: #ffffff; stroke-width: 0.75"/>
     <use xlink:href="#m4bbc5efa0e" x="736.605479" y="89.195593" style="fill: #1f77b4; stroke: #ffffff; stroke-width: 0.75"/>
     <use xlink:href="#m4bbc5efa0e" x="738.180255" y="89.195593" style="fill: #1f77b4; stroke: #ffffff; stroke-width: 0.75"/>
     <use xlink:href="#m4bbc5efa0e" x="739.71188" y="88.314052" style="fill: #1f77b4; stroke: #ffffff; stroke-width: 0.75"/>
     <use xlink:href="#m4bbc5efa0e" x="741.202658" y="88.314052" style="fill: #1f77b4; stroke: #ffffff; stroke-width: 0.75"/>
     <use xlink:href="#m4bbc5efa0e" x="742.65471" y="88.314052" style="fill: #1f77b4; stroke: #ffffff; stroke-width: 0.75"/>
     <use xlink:href="#m4bbc5efa0e" x="744.069996" y="88.314052" style="fill: #1f77b4; stroke: #ffffff; stroke-width: 0.75"/>
     <use xlink:href="#m4bbc5efa0e" x="745.450334" y="88.314052" style="fill: #1f77b4; stroke: #ffffff; stroke-width: 0.75"/>
     <use xlink:href="#m4bbc5efa0e" x="746.797408" y="88.314052" style="fill: #1f77b4; stroke: #ffffff; stroke-width: 0.75"/>
     <use xlink:href="#m4bbc5efa0e" x="748.112783" y="88.314052" style="fill: #1f77b4; stroke: #ffffff; stroke-width: 0.75"/>
     <use xlink:href="#m4bbc5efa0e" x="749.397916" y="88.314052" style="fill: #1f77b4; stroke: #ffffff; stroke-width: 0.75"/>
     <use xlink:href="#m4bbc5efa0e" x="750.654168" y="87.558446" style="fill: #1f77b4; stroke: #ffffff; stroke-width: 0.75"/>
     <use xlink:href="#m4bbc5efa0e" x="751.882807" y="87.558446" style="fill: #1f77b4; stroke: #ffffff; stroke-width: 0.75"/>
     <use xlink:href="#m4bbc5efa0e" x="753.085022" y="87.558446" style="fill: #1f77b4; stroke: #ffffff; stroke-width: 0.75"/>
     <use xlink:href="#m4bbc5efa0e" x="754.261926" y="87.558446" style="fill: #1f77b4; stroke: #ffffff; stroke-width: 0.75"/>
     <use xlink:href="#m4bbc5efa0e" x="755.414561" y="87.558446" style="fill: #1f77b4; stroke: #ffffff; stroke-width: 0.75"/>
     <use xlink:href="#m4bbc5efa0e" x="756.54391" y="87.558446" style="fill: #1f77b4; stroke: #ffffff; stroke-width: 0.75"/>
     <use xlink:href="#m4bbc5efa0e" x="757.650893" y="87.558446" style="fill: #1f77b4; stroke: #ffffff; stroke-width: 0.75"/>
     <use xlink:href="#m4bbc5efa0e" x="758.736381" y="87.558446" style="fill: #1f77b4; stroke: #ffffff; stroke-width: 0.75"/>
     <use xlink:href="#m4bbc5efa0e" x="759.801191" y="87.558446" style="fill: #1f77b4; stroke: #ffffff; stroke-width: 0.75"/>
     <use xlink:href="#m4bbc5efa0e" x="760.846097" y="87.558446" style="fill: #1f77b4; stroke: #ffffff; stroke-width: 0.75"/>
     <use xlink:href="#m4bbc5efa0e" x="761.871829" y="87.558446" style="fill: #1f77b4; stroke: #ffffff; stroke-width: 0.75"/>
     <use xlink:href="#m4bbc5efa0e" x="762.879079" y="87.432511" style="fill: #1f77b4; stroke: #ffffff; stroke-width: 0.75"/>
     <use xlink:href="#m4bbc5efa0e" x="763.8685" y="87.432511" style="fill: #1f77b4; stroke: #ffffff; stroke-width: 0.75"/>
     <use xlink:href="#m4bbc5efa0e" x="764.840714" y="87.24361" style="fill: #1f77b4; stroke: #ffffff; stroke-width: 0.75"/>
    </g>
   </g>
   <g id="line2d_25">
    <path d="M 53.328125 276.334125 
L 537.858515 197.751054 
L 576.606028 195.987972 
L 599.271871 190.446858 
L 615.353542 174.705057 
L 627.827455 174.705057 
L 638.019385 166.015583 
L 646.636538 165.763714 
L 654.101056 165.763714 
L 660.685227 165.763714 
L 666.574969 165.763714 
L 671.902889 165.763714 
L 676.766898 164.126566 
L 681.241353 164.000632 
L 685.384052 105.189263 
L 689.240812 105.189263 
L 692.84857 104.937394 
L 696.237537 104.81146 
L 699.432741 104.81146 
L 702.455144 104.81146 
L 705.322483 104.81146 
L 708.049894 104.81146 
L 710.650402 104.433656 
L 713.135294 104.181788 
L 715.514412 102.040903 
L 717.796396 102.040903 
L 719.988867 101.789034 
L 722.098583 101.789034 
L 724.131565 100.151887 
L 726.0932 99.648149 
L 727.988325 98.26287 
L 729.821304 98.26287 
L 731.596083 98.26287 
L 733.316245 98.26287 
L 734.985051 98.26287 
L 736.605479 98.136936 
L 738.180255 98.136936 
L 739.71188 98.136936 
L 741.202658 98.011002 
L 742.65471 98.011002 
L 744.069996 98.011002 
L 745.450334 97.38133 
L 746.797408 97.255395 
L 748.112783 95.744182 
L 749.397916 94.862641 
L 750.654168 94.484838 
L 751.882807 94.484838 
L 753.085022 94.484838 
L 754.261926 94.484838 
L 755.414561 94.484838 
L 756.54391 94.484838 
L 757.650893 91.336478 
L 758.736381 91.336478 
L 759.801191 91.336478 
L 760.846097 91.336478 
L 761.871829 91.336478 
L 762.879079 91.336478 
L 763.8685 91.336478 
L 764.840714 91.084609 
" clip-path="url(#p5372233923)" style="fill: none; stroke: #c7c7c7; stroke-width: 1.5; stroke-linecap: square"/>
    <defs>
     <path id="mdc17a77b29" d="M -3 -0 
L 3 3 
L 3 -3 
z
" style="stroke: #ffffff; stroke-width: 0.75; stroke-linejoin: miter"/>
    </defs>
    <g clip-path="url(#p5372233923)">
     <use xlink:href="#mdc17a77b29" x="53.328125" y="276.334125" style="fill: #c7c7c7; stroke: #ffffff; stroke-width: 0.75; stroke-linejoin: miter"/>
     <use xlink:href="#mdc17a77b29" x="537.858515" y="197.751054" style="fill: #c7c7c7; stroke: #ffffff; stroke-width: 0.75; stroke-linejoin: miter"/>
     <use xlink:href="#mdc17a77b29" x="576.606028" y="195.987972" style="fill: #c7c7c7; stroke: #ffffff; stroke-width: 0.75; stroke-linejoin: miter"/>
     <use xlink:href="#mdc17a77b29" x="599.271871" y="190.446858" style="fill: #c7c7c7; stroke: #ffffff; stroke-width: 0.75; stroke-linejoin: miter"/>
     <use xlink:href="#mdc17a77b29" x="615.353542" y="174.705057" style="fill: #c7c7c7; stroke: #ffffff; stroke-width: 0.75; stroke-linejoin: miter"/>
     <use xlink:href="#mdc17a77b29" x="627.827455" y="174.705057" style="fill: #c7c7c7; stroke: #ffffff; stroke-width: 0.75; stroke-linejoin: miter"/>
     <use xlink:href="#mdc17a77b29" x="638.019385" y="166.015583" style="fill: #c7c7c7; stroke: #ffffff; stroke-width: 0.75; stroke-linejoin: miter"/>
     <use xlink:href="#mdc17a77b29" x="646.636538" y="165.763714" style="fill: #c7c7c7; stroke: #ffffff; stroke-width: 0.75; stroke-linejoin: miter"/>
     <use xlink:href="#mdc17a77b29" x="654.101056" y="165.763714" style="fill: #c7c7c7; stroke: #ffffff; stroke-width: 0.75; stroke-linejoin: miter"/>
     <use xlink:href="#mdc17a77b29" x="660.685227" y="165.763714" style="fill: #c7c7c7; stroke: #ffffff; stroke-width: 0.75; stroke-linejoin: miter"/>
     <use xlink:href="#mdc17a77b29" x="666.574969" y="165.763714" style="fill: #c7c7c7; stroke: #ffffff; stroke-width: 0.75; stroke-linejoin: miter"/>
     <use xlink:href="#mdc17a77b29" x="671.902889" y="165.763714" style="fill: #c7c7c7; stroke: #ffffff; stroke-width: 0.75; stroke-linejoin: miter"/>
     <use xlink:href="#mdc17a77b29" x="676.766898" y="164.126566" style="fill: #c7c7c7; stroke: #ffffff; stroke-width: 0.75; stroke-linejoin: miter"/>
     <use xlink:href="#mdc17a77b29" x="681.241353" y="164.000632" style="fill: #c7c7c7; stroke: #ffffff; stroke-width: 0.75; stroke-linejoin: miter"/>
     <use xlink:href="#mdc17a77b29" x="685.384052" y="105.189263" style="fill: #c7c7c7; stroke: #ffffff; stroke-width: 0.75; stroke-linejoin: miter"/>
     <use xlink:href="#mdc17a77b29" x="689.240812" y="105.189263" style="fill: #c7c7c7; stroke: #ffffff; stroke-width: 0.75; stroke-linejoin: miter"/>
     <use xlink:href="#mdc17a77b29" x="692.84857" y="104.937394" style="fill: #c7c7c7; stroke: #ffffff; stroke-width: 0.75; stroke-linejoin: miter"/>
     <use xlink:href="#mdc17a77b29" x="696.237537" y="104.81146" style="fill: #c7c7c7; stroke: #ffffff; stroke-width: 0.75; stroke-linejoin: miter"/>
     <use xlink:href="#mdc17a77b29" x="699.432741" y="104.81146" style="fill: #c7c7c7; stroke: #ffffff; stroke-width: 0.75; stroke-linejoin: miter"/>
     <use xlink:href="#mdc17a77b29" x="702.455144" y="104.81146" style="fill: #c7c7c7; stroke: #ffffff; stroke-width: 0.75; stroke-linejoin: miter"/>
     <use xlink:href="#mdc17a77b29" x="705.322483" y="104.81146" style="fill: #c7c7c7; stroke: #ffffff; stroke-width: 0.75; stroke-linejoin: miter"/>
     <use xlink:href="#mdc17a77b29" x="708.049894" y="104.81146" style="fill: #c7c7c7; stroke: #ffffff; stroke-width: 0.75; stroke-linejoin: miter"/>
     <use xlink:href="#mdc17a77b29" x="710.650402" y="104.433656" style="fill: #c7c7c7; stroke: #ffffff; stroke-width: 0.75; stroke-linejoin: miter"/>
     <use xlink:href="#mdc17a77b29" x="713.135294" y="104.181788" style="fill: #c7c7c7; stroke: #ffffff; stroke-width: 0.75; stroke-linejoin: miter"/>
     <use xlink:href="#mdc17a77b29" x="715.514412" y="102.040903" style="fill: #c7c7c7; stroke: #ffffff; stroke-width: 0.75; stroke-linejoin: miter"/>
     <use xlink:href="#mdc17a77b29" x="717.796396" y="102.040903" style="fill: #c7c7c7; stroke: #ffffff; stroke-width: 0.75; stroke-linejoin: miter"/>
     <use xlink:href="#mdc17a77b29" x="719.988867" y="101.789034" style="fill: #c7c7c7; stroke: #ffffff; stroke-width: 0.75; stroke-linejoin: miter"/>
     <use xlink:href="#mdc17a77b29" x="722.098583" y="101.789034" style="fill: #c7c7c7; stroke: #ffffff; stroke-width: 0.75; stroke-linejoin: miter"/>
     <use xlink:href="#mdc17a77b29" x="724.131565" y="100.151887" style="fill: #c7c7c7; stroke: #ffffff; stroke-width: 0.75; stroke-linejoin: miter"/>
     <use xlink:href="#mdc17a77b29" x="726.0932" y="99.648149" style="fill: #c7c7c7; stroke: #ffffff; stroke-width: 0.75; stroke-linejoin: miter"/>
     <use xlink:href="#mdc17a77b29" x="727.988325" y="98.26287" style="fill: #c7c7c7; stroke: #ffffff; stroke-width: 0.75; stroke-linejoin: miter"/>
     <use xlink:href="#mdc17a77b29" x="729.821304" y="98.26287" style="fill: #c7c7c7; stroke: #ffffff; stroke-width: 0.75; stroke-linejoin: miter"/>
     <use xlink:href="#mdc17a77b29" x="731.596083" y="98.26287" style="fill: #c7c7c7; stroke: #ffffff; stroke-width: 0.75; stroke-linejoin: miter"/>
     <use xlink:href="#mdc17a77b29" x="733.316245" y="98.26287" style="fill: #c7c7c7; stroke: #ffffff; stroke-width: 0.75; stroke-linejoin: miter"/>
     <use xlink:href="#mdc17a77b29" x="734.985051" y="98.26287" style="fill: #c7c7c7; stroke: #ffffff; stroke-width: 0.75; stroke-linejoin: miter"/>
     <use xlink:href="#mdc17a77b29" x="736.605479" y="98.136936" style="fill: #c7c7c7; stroke: #ffffff; stroke-width: 0.75; stroke-linejoin: miter"/>
     <use xlink:href="#mdc17a77b29" x="738.180255" y="98.136936" style="fill: #c7c7c7; stroke: #ffffff; stroke-width: 0.75; stroke-linejoin: miter"/>
     <use xlink:href="#mdc17a77b29" x="739.71188" y="98.136936" style="fill: #c7c7c7; stroke: #ffffff; stroke-width: 0.75; stroke-linejoin: miter"/>
     <use xlink:href="#mdc17a77b29" x="741.202658" y="98.011002" style="fill: #c7c7c7; stroke: #ffffff; stroke-width: 0.75; stroke-linejoin: miter"/>
     <use xlink:href="#mdc17a77b29" x="742.65471" y="98.011002" style="fill: #c7c7c7; stroke: #ffffff; stroke-width: 0.75; stroke-linejoin: miter"/>
     <use xlink:href="#mdc17a77b29" x="744.069996" y="98.011002" style="fill: #c7c7c7; stroke: #ffffff; stroke-width: 0.75; stroke-linejoin: miter"/>
     <use xlink:href="#mdc17a77b29" x="745.450334" y="97.38133" style="fill: #c7c7c7; stroke: #ffffff; stroke-width: 0.75; stroke-linejoin: miter"/>
     <use xlink:href="#mdc17a77b29" x="746.797408" y="97.255395" style="fill: #c7c7c7; stroke: #ffffff; stroke-width: 0.75; stroke-linejoin: miter"/>
     <use xlink:href="#mdc17a77b29" x="748.112783" y="95.744182" style="fill: #c7c7c7; stroke: #ffffff; stroke-width: 0.75; stroke-linejoin: miter"/>
     <use xlink:href="#mdc17a77b29" x="749.397916" y="94.862641" style="fill: #c7c7c7; stroke: #ffffff; stroke-width: 0.75; stroke-linejoin: miter"/>
     <use xlink:href="#mdc17a77b29" x="750.654168" y="94.484838" style="fill: #c7c7c7; stroke: #ffffff; stroke-width: 0.75; stroke-linejoin: miter"/>
     <use xlink:href="#mdc17a77b29" x="751.882807" y="94.484838" style="fill: #c7c7c7; stroke: #ffffff; stroke-width: 0.75; stroke-linejoin: miter"/>
     <use xlink:href="#mdc17a77b29" x="753.085022" y="94.484838" style="fill: #c7c7c7; stroke: #ffffff; stroke-width: 0.75; stroke-linejoin: miter"/>
     <use xlink:href="#mdc17a77b29" x="754.261926" y="94.484838" style="fill: #c7c7c7; stroke: #ffffff; stroke-width: 0.75; stroke-linejoin: miter"/>
     <use xlink:href="#mdc17a77b29" x="755.414561" y="94.484838" style="fill: #c7c7c7; stroke: #ffffff; stroke-width: 0.75; stroke-linejoin: miter"/>
     <use xlink:href="#mdc17a77b29" x="756.54391" y="94.484838" style="fill: #c7c7c7; stroke: #ffffff; stroke-width: 0.75; stroke-linejoin: miter"/>
     <use xlink:href="#mdc17a77b29" x="757.650893" y="91.336478" style="fill: #c7c7c7; stroke: #ffffff; stroke-width: 0.75; stroke-linejoin: miter"/>
     <use xlink:href="#mdc17a77b29" x="758.736381" y="91.336478" style="fill: #c7c7c7; stroke: #ffffff; stroke-width: 0.75; stroke-linejoin: miter"/>
     <use xlink:href="#mdc17a77b29" x="759.801191" y="91.336478" style="fill: #c7c7c7; stroke: #ffffff; stroke-width: 0.75; stroke-linejoin: miter"/>
     <use xlink:href="#mdc17a77b29" x="760.846097" y="91.336478" style="fill: #c7c7c7; stroke: #ffffff; stroke-width: 0.75; stroke-linejoin: miter"/>
     <use xlink:href="#mdc17a77b29" x="761.871829" y="91.336478" style="fill: #c7c7c7; stroke: #ffffff; stroke-width: 0.75; stroke-linejoin: miter"/>
     <use xlink:href="#mdc17a77b29" x="762.879079" y="91.336478" style="fill: #c7c7c7; stroke: #ffffff; stroke-width: 0.75; stroke-linejoin: miter"/>
     <use xlink:href="#mdc17a77b29" x="763.8685" y="91.336478" style="fill: #c7c7c7; stroke: #ffffff; stroke-width: 0.75; stroke-linejoin: miter"/>
     <use xlink:href="#mdc17a77b29" x="764.840714" y="91.084609" style="fill: #c7c7c7; stroke: #ffffff; stroke-width: 0.75; stroke-linejoin: miter"/>
    </g>
   </g>
   <g id="line2d_26"/>
   <g id="line2d_27"/>
   <g id="line2d_28"/>
   <g id="line2d_29"/>
   <g id="line2d_30">
    <path d="M 764.840714 288.430125 
L 764.840714 22.318125 
" clip-path="url(#p5372233923)" style="fill: none; stroke: #ff0000; stroke-width: 1.5; stroke-linecap: square"/>
   </g>
   <g id="patch_3">
    <path d="M 53.328125 281.119633 
L 53.328125 29.250814 
" style="fill: none; stroke: #000000; stroke-width: 0.8; stroke-linejoin: miter; stroke-linecap: square"/>
   </g>
   <g id="patch_4">
    <path d="M 53.328125 288.430125 
L 764.841784 288.430125 
" style="fill: none; stroke: #000000; stroke-width: 0.8; stroke-linejoin: miter; stroke-linecap: square"/>
   </g>
   <g id="text_20">
    <!-- lcms_cms_transform_fuzzer (14h:30m, at least 3 trials/fuzzer) -->
    <g transform="translate(224.69 16.318125) scale(0.12 -0.12)">
     <defs>
      <path id="DejaVuSans-6c" d="M 603 4863 
L 1178 4863 
L 1178 0 
L 603 0 
L 603 4863 
z
" transform="scale(0.015625)"/>
      <path id="DejaVuSans-73" d="M 2834 3397 
L 2834 2853 
Q 2591 2978 2328 3040 
Q 2066 3103 1784 3103 
Q 1356 3103 1142 2972 
Q 928 2841 928 2578 
Q 928 2378 1081 2264 
Q 1234 2150 1697 2047 
L 1894 2003 
Q 2506 1872 2764 1633 
Q 3022 1394 3022 966 
Q 3022 478 2636 193 
Q 2250 -91 1575 -91 
Q 1294 -91 989 -36 
Q 684 19 347 128 
L 347 722 
Q 666 556 975 473 
Q 1284 391 1588 391 
Q 1994 391 2212 530 
Q 2431 669 2431 922 
Q 2431 1156 2273 1281 
Q 2116 1406 1581 1522 
L 1381 1569 
Q 847 1681 609 1914 
Q 372 2147 372 2553 
Q 372 3047 722 3315 
Q 1072 3584 1716 3584 
Q 2034 3584 2315 3537 
Q 2597 3491 2834 3397 
z
" transform="scale(0.015625)"/>
      <path id="DejaVuSans-5f" d="M 3263 -1063 
L 3263 -1509 
L -63 -1509 
L -63 -1063 
L 3263 -1063 
z
" transform="scale(0.015625)"/>
      <path id="DejaVuSans-66" d="M 2375 4863 
L 2375 4384 
L 1825 4384 
Q 1516 4384 1395 4259 
Q 1275 4134 1275 3809 
L 1275 3500 
L 2222 3500 
L 2222 3053 
L 1275 3053 
L 1275 0 
L 697 0 
L 697 3053 
L 147 3053 
L 147 3500 
L 697 3500 
L 697 3744 
Q 697 4328 969 4595 
Q 1241 4863 1831 4863 
L 2375 4863 
z
" transform="scale(0.015625)"/>
      <path id="DejaVuSans-7a" d="M 353 3500 
L 3084 3500 
L 3084 2975 
L 922 459 
L 3084 459 
L 3084 0 
L 275 0 
L 275 525 
L 2438 3041 
L 353 3041 
L 353 3500 
z
" transform="scale(0.015625)"/>
      <path id="DejaVuSans-2c" d="M 750 794 
L 1409 794 
L 1409 256 
L 897 -744 
L 494 -744 
L 750 256 
L 750 794 
z
" transform="scale(0.015625)"/>
      <path id="DejaVuSans-2f" d="M 1625 4666 
L 2156 4666 
L 531 -594 
L 0 -594 
L 1625 4666 
z
" transform="scale(0.015625)"/>
     </defs>
     <use xlink:href="#DejaVuSans-6c"/>
     <use xlink:href="#DejaVuSans-63" transform="translate(27.783203 0)"/>
     <use xlink:href="#DejaVuSans-6d" transform="translate(82.763672 0)"/>
     <use xlink:href="#DejaVuSans-73" transform="translate(180.175781 0)"/>
     <use xlink:href="#DejaVuSans-5f" transform="translate(232.275391 0)"/>
     <use xlink:href="#DejaVuSans-63" transform="translate(282.275391 0)"/>
     <use xlink:href="#DejaVuSans-6d" transform="translate(337.255859 0)"/>
     <use xlink:href="#DejaVuSans-73" transform="translate(434.667969 0)"/>
     <use xlink:href="#DejaVuSans-5f" transform="translate(486.767578 0)"/>
     <use xlink:href="#DejaVuSans-74" transform="translate(536.767578 0)"/>
     <use xlink:href="#DejaVuSans-72" transform="translate(575.976562 0)"/>
     <use xlink:href="#DejaVuSans-61" transform="translate(617.089844 0)"/>
     <use xlink:href="#DejaVuSans-6e" transform="translate(678.369141 0)"/>
     <use xlink:href="#DejaVuSans-73" transform="translate(741.748047 0)"/>
     <use xlink:href="#DejaVuSans-66" transform="translate(793.847656 0)"/>
     <use xlink:href="#DejaVuSans-6f" transform="translate(829.052734 0)"/>
     <use xlink:href="#DejaVuSans-72" transform="translate(890.234375 0)"/>
     <use xlink:href="#DejaVuSans-6d" transform="translate(929.597656 0)"/>
     <use xlink:href="#DejaVuSans-5f" transform="translate(1027.009766 0)"/>
     <use xlink:href="#DejaVuSans-66" transform="translate(1077.009766 0)"/>
     <use xlink:href="#DejaVuSans-75" transform="translate(1112.214844 0)"/>
     <use xlink:href="#DejaVuSans-7a" transform="translate(1175.59375 0)"/>
     <use xlink:href="#DejaVuSans-7a" transform="translate(1228.083984 0)"/>
     <use xlink:href="#DejaVuSans-65" transform="translate(1280.574219 0)"/>
     <use xlink:href="#DejaVuSans-72" transform="translate(1342.097656 0)"/>
     <use xlink:href="#DejaVuSans-20" transform="translate(1383.210938 0)"/>
     <use xlink:href="#DejaVuSans-28" transform="translate(1414.998047 0)"/>
     <use xlink:href="#DejaVuSans-31" transform="translate(1454.011719 0)"/>
     <use xlink:href="#DejaVuSans-34" transform="translate(1517.634766 0)"/>
     <use xlink:href="#DejaVuSans-68" transform="translate(1581.257812 0)"/>
     <use xlink:href="#DejaVuSans-3a" transform="translate(1644.636719 0)"/>
     <use xlink:href="#DejaVuSans-33" transform="translate(1678.328125 0)"/>
     <use xlink:href="#DejaVuSans-30" transform="translate(1741.951172 0)"/>
     <use xlink:href="#DejaVuSans-6d" transform="translate(1805.574219 0)"/>
     <use xlink:href="#DejaVuSans-2c" transform="translate(1902.986328 0)"/>
     <use xlink:href="#DejaVuSans-20" transform="translate(1934.773438 0)"/>
     <use xlink:href="#DejaVuSans-61" transform="translate(1966.560547 0)"/>
     <use xlink:href="#DejaVuSans-74" transform="translate(2027.839844 0)"/>
     <use xlink:href="#DejaVuSans-20" transform="translate(2067.048828 0)"/>
     <use xlink:href="#DejaVuSans-6c" transform="translate(2098.835938 0)"/>
     <use xlink:href="#DejaVuSans-65" transform="translate(2126.619141 0)"/>
     <use xlink:href="#DejaVuSans-61" transform="translate(2188.142578 0)"/>
     <use xlink:href="#DejaVuSans-73" transform="translate(2249.421875 0)"/>
     <use xlink:href="#DejaVuSans-74" transform="translate(2301.521484 0)"/>
     <use xlink:href="#DejaVuSans-20" transform="translate(2340.730469 0)"/>
     <use xlink:href="#DejaVuSans-33" transform="translate(2372.517578 0)"/>
     <use xlink:href="#DejaVuSans-20" transform="translate(2436.140625 0)"/>
     <use xlink:href="#DejaVuSans-74" transform="translate(2467.927734 0)"/>
     <use xlink:href="#DejaVuSans-72" transform="translate(2507.136719 0)"/>
     <use xlink:href="#DejaVuSans-69" transform="translate(2548.25 0)"/>
     <use xlink:href="#DejaVuSans-61" transform="translate(2576.033203 0)"/>
     <use xlink:href="#DejaVuSans-6c" transform="translate(2637.3125 0)"/>
     <use xlink:href="#DejaVuSans-73" transform="translate(2665.095703 0)"/>
     <use xlink:href="#DejaVuSans-2f" transform="translate(2717.195312 0)"/>
     <use xlink:href="#DejaVuSans-66" transform="translate(2750.886719 0)"/>
     <use xlink:href="#DejaVuSans-75" transform="translate(2786.091797 0)"/>
     <use xlink:href="#DejaVuSans-7a" transform="translate(2849.470703 0)"/>
     <use xlink:href="#DejaVuSans-7a" transform="translate(2901.960938 0)"/>
     <use xlink:href="#DejaVuSans-65" transform="translate(2954.451172 0)"/>
     <use xlink:href="#DejaVuSans-72" transform="translate(3015.974609 0)"/>
     <use xlink:href="#DejaVuSans-29" transform="translate(3057.087891 0)"/>
    </g>
   </g>
   <g id="legend_1">
    <g id="line2d_31">
     <path d="M 771.568125 30.416562 
L 781.568125 30.416562 
L 791.568125 30.416562 
" style="fill: none; stroke: #d62728; stroke-width: 1.5; stroke-linecap: square"/>
     <g>
      <use xlink:href="#mec3ac91965" x="781.568125" y="30.416562" style="fill: #d62728; stroke: #ffffff; stroke-width: 0.75; stroke-linejoin: miter"/>
     </g>
    </g>
    <g id="text_21">
     <!-- aflplusplus_c11 -->
     <g transform="translate(799.568125 33.916562) scale(0.1 -0.1)">
      <defs>
       <path id="DejaVuSans-70" d="M 1159 525 
L 1159 -1331 
L 581 -1331 
L 581 3500 
L 1159 3500 
L 1159 2969 
Q 1341 3281 1617 3432 
Q 1894 3584 2278 3584 
Q 2916 3584 3314 3078 
Q 3713 2572 3713 1747 
Q 3713 922 3314 415 
Q 2916 -91 2278 -91 
Q 1894 -91 1617 61 
Q 1341 213 1159 525 
z
M 3116 1747 
Q 3116 2381 2855 2742 
Q 2594 3103 2138 3103 
Q 1681 3103 1420 2742 
Q 1159 2381 1159 1747 
Q 1159 1113 1420 752 
Q 1681 391 2138 391 
Q 2594 391 2855 752 
Q 3116 1113 3116 1747 
z
" transform="scale(0.015625)"/>
      </defs>
      <use xlink:href="#DejaVuSans-61"/>
      <use xlink:href="#DejaVuSans-66" transform="translate(61.279297 0)"/>
      <use xlink:href="#DejaVuSans-6c" transform="translate(96.484375 0)"/>
      <use xlink:href="#DejaVuSans-70" transform="translate(124.267578 0)"/>
      <use xlink:href="#DejaVuSans-6c" transform="translate(187.744141 0)"/>
      <use xlink:href="#DejaVuSans-75" transform="translate(215.527344 0)"/>
      <use xlink:href="#DejaVuSans-73" transform="translate(278.90625 0)"/>
      <use xlink:href="#DejaVuSans-70" transform="translate(331.005859 0)"/>
      <use xlink:href="#DejaVuSans-6c" transform="translate(394.482422 0)"/>
      <use xlink:href="#DejaVuSans-75" transform="translate(422.265625 0)"/>
      <use xlink:href="#DejaVuSans-73" transform="translate(485.644531 0)"/>
      <use xlink:href="#DejaVuSans-5f" transform="translate(537.744141 0)"/>
      <use xlink:href="#DejaVuSans-63" transform="translate(587.744141 0)"/>
      <use xlink:href="#DejaVuSans-31" transform="translate(642.724609 0)"/>
      <use xlink:href="#DejaVuSans-31" transform="translate(706.347656 0)"/>
     </g>
    </g>
    <g id="line2d_32">
     <path d="M 771.568125 45.372813 
L 781.568125 45.372813 
L 791.568125 45.372813 
" style="fill: none; stroke: #98df8a; stroke-width: 1.5; stroke-linecap: square"/>
     <g>
      <use xlink:href="#mb7d1bcfc0e" x="781.568125" y="45.372813" style="fill: #98df8a; stroke: #ffffff; stroke-width: 0.75; stroke-linejoin: miter"/>
     </g>
    </g>
    <g id="text_22">
     <!-- aflplusplus_500c -->
     <g transform="translate(799.568125 48.872813) scale(0.1 -0.1)">
      <use xlink:href="#DejaVuSans-61"/>
      <use xlink:href="#DejaVuSans-66" transform="translate(61.279297 0)"/>
      <use xlink:href="#DejaVuSans-6c" transform="translate(96.484375 0)"/>
      <use xlink:href="#DejaVuSans-70" transform="translate(124.267578 0)"/>
      <use xlink:href="#DejaVuSans-6c" transform="translate(187.744141 0)"/>
      <use xlink:href="#DejaVuSans-75" transform="translate(215.527344 0)"/>
      <use xlink:href="#DejaVuSans-73" transform="translate(278.90625 0)"/>
      <use xlink:href="#DejaVuSans-70" transform="translate(331.005859 0)"/>
      <use xlink:href="#DejaVuSans-6c" transform="translate(394.482422 0)"/>
      <use xlink:href="#DejaVuSans-75" transform="translate(422.265625 0)"/>
      <use xlink:href="#DejaVuSans-73" transform="translate(485.644531 0)"/>
      <use xlink:href="#DejaVuSans-5f" transform="translate(537.744141 0)"/>
      <use xlink:href="#DejaVuSans-35" transform="translate(587.744141 0)"/>
      <use xlink:href="#DejaVuSans-30" transform="translate(651.367188 0)"/>
      <use xlink:href="#DejaVuSans-30" transform="translate(714.990234 0)"/>
      <use xlink:href="#DejaVuSans-63" transform="translate(778.613281 0)"/>
     </g>
    </g>
    <g id="line2d_33">
     <path d="M 771.568125 60.329063 
L 781.568125 60.329063 
L 791.568125 60.329063 
" style="fill: none; stroke: #1f77b4; stroke-width: 1.5; stroke-linecap: square"/>
     <g>
      <use xlink:href="#m4bbc5efa0e" x="781.568125" y="60.329063" style="fill: #1f77b4; stroke: #ffffff; stroke-width: 0.75"/>
     </g>
    </g>
    <g id="text_23">
     <!-- aflplusplus_440c -->
     <g transform="translate(799.568125 63.829063) scale(0.1 -0.1)">
      <use xlink:href="#DejaVuSans-61"/>
      <use xlink:href="#DejaVuSans-66" transform="translate(61.279297 0)"/>
      <use xlink:href="#DejaVuSans-6c" transform="translate(96.484375 0)"/>
      <use xlink:href="#DejaVuSans-70" transform="translate(124.267578 0)"/>
      <use xlink:href="#DejaVuSans-6c" transform="translate(187.744141 0)"/>
      <use xlink:href="#DejaVuSans-75" transform="translate(215.527344 0)"/>
      <use xlink:href="#DejaVuSans-73" transform="translate(278.90625 0)"/>
      <use xlink:href="#DejaVuSans-70" transform="translate(331.005859 0)"/>
      <use xlink:href="#DejaVuSans-6c" transform="translate(394.482422 0)"/>
      <use xlink:href="#DejaVuSans-75" transform="translate(422.265625 0)"/>
      <use xlink:href="#DejaVuSans-73" transform="translate(485.644531 0)"/>
      <use xlink:href="#DejaVuSans-5f" transform="translate(537.744141 0)"/>
      <use xlink:href="#DejaVuSans-34" transform="translate(587.744141 0)"/>
      <use xlink:href="#DejaVuSans-34" transform="translate(651.367188 0)"/>
      <use xlink:href="#DejaVuSans-30" transform="translate(714.990234 0)"/>
      <use xlink:href="#DejaVuSans-63" transform="translate(778.613281 0)"/>
     </g>
    </g>
    <g id="line2d_34">
     <path d="M 771.568125 75.285313 
L 781.568125 75.285313 
L 791.568125 75.285313 
" style="fill: none; stroke: #c7c7c7; stroke-width: 1.5; stroke-linecap: square"/>
     <g>
      <use xlink:href="#mdc17a77b29" x="781.568125" y="75.285313" style="fill: #c7c7c7; stroke: #ffffff; stroke-width: 0.75; stroke-linejoin: miter"/>
     </g>
    </g>
    <g id="text_24">
     <!-- aflplusplus_mopt -->
     <g transform="translate(799.568125 78.785313) scale(0.1 -0.1)">
      <use xlink:href="#DejaVuSans-61"/>
      <use xlink:href="#DejaVuSans-66" transform="translate(61.279297 0)"/>
      <use xlink:href="#DejaVuSans-6c" transform="translate(96.484375 0)"/>
      <use xlink:href="#DejaVuSans-70" transform="translate(124.267578 0)"/>
      <use xlink:href="#DejaVuSans-6c" transform="translate(187.744141 0)"/>
      <use xlink:href="#DejaVuSans-75" transform="translate(215.527344 0)"/>
      <use xlink:href="#DejaVuSans-73" transform="translate(278.90625 0)"/>
      <use xlink:href="#DejaVuSans-70" transform="translate(331.005859 0)"/>
      <use xlink:href="#DejaVuSans-6c" transform="translate(394.482422 0)"/>
      <use xlink:href="#DejaVuSans-75" transform="translate(422.265625 0)"/>
      <use xlink:href="#DejaVuSans-73" transform="translate(485.644531 0)"/>
      <use xlink:href="#DejaVuSans-5f" transform="translate(537.744141 0)"/>
      <use xlink:href="#DejaVuSans-6d" transform="translate(587.744141 0)"/>
      <use xlink:href="#DejaVuSans-6f" transform="translate(685.15625 0)"/>
      <use xlink:href="#DejaVuSans-70" transform="translate(746.337891 0)"/>
      <use xlink:href="#DejaVuSans-74" transform="translate(809.814453 0)"/>
     </g>
    </g>
   </g>
  </g>
 </g>
 <defs>
  <clipPath id="p5372233923">
   <rect x="53.328125" y="22.318125" width="714.24" height="266.112"/>
  </clipPath>
 </defs>
</svg>
