<?xml version="1.0" encoding="utf-8" standalone="no"?>
<!DOCTYPE svg PUBLIC "-//W3C//DTD SVG 1.1//EN"
  "http://www.w3.org/Graphics/SVG/1.1/DTD/svg11.dtd">
<svg xmlns:xlink="http://www.w3.org/1999/xlink" width="895.669687pt" height="325.986375pt" viewBox="0 0 895.669687 325.986375" xmlns="http://www.w3.org/2000/svg" version="1.1">
 <metadata>
  <rdf:RDF xmlns:dc="http://purl.org/dc/elements/1.1/" xmlns:cc="http://creativecommons.org/ns#" xmlns:rdf="http://www.w3.org/1999/02/22-rdf-syntax-ns#">
   <cc:Work>
    <dc:type rdf:resource="http://purl.org/dc/dcmitype/StillImage"/>
    <dc:date>2026-06-10T02:26:41.714310</dc:date>
    <dc:format>image/svg+xml</dc:format>
    <dc:creator>
     <cc:Agent>
      <dc:title>Matplotlib v3.10.9, https://matplotlib.org/</dc:title>
     </cc:Agent>
    </dc:creator>
   </cc:Work>
  </rdf:RDF>
 </metadata>
 <defs>
  <style type="text/css">*{stroke-linejoin: round; stroke-linecap: butt}</style>
 </defs>
 <g id="figure_1">
  <g id="patch_1">
   <path d="M 0 325.986375 
L 895.669688 325.986375 
L 895.669688 0 
L 0 0 
z
" style="fill: #ffffff"/>
  </g>
  <g id="axes_1">
   <g id="patch_2">
    <path d="M 53.328125 288.430125 
L 767.568125 288.430125 
L 767.568125 22.318125 
L 53.328125 22.318125 
z
" style="fill: #ffffff"/>
   </g>
   <g id="FillBetweenPolyCollection_1">
    <defs>
     <path id="ma5da1bafca" d="M 53.328125 -49.65225 
L 53.328125 -49.65225 
L 549.478659 -136.359209 
L 589.155427 -136.359209 
L 612.364848 -146.218018 
L 628.832194 -148.872313 
L 641.60526 -148.872313 
L 652.041615 -148.872313 
L 660.865428 -159.110306 
L 668.508962 -159.489491 
L 675.251036 -159.995071 
L 681.282028 -202.210996 
L 686.737723 -202.463786 
L 691.718383 -202.463786 
L 696.300145 -202.716576 
L 700.542195 -202.716576 
L 704.491449 -202.716576 
L 708.185729 -203.727736 
L 711.655972 -203.854131 
L 714.927804 -203.854131 
L 718.022691 -203.854131 
L 720.958795 -203.854131 
L 723.751616 -204.106921 
L 726.41449 -204.106921 
L 728.958975 -204.359711 
L 731.39515 -204.359711 
L 733.731861 -204.359711 
L 735.976913 -204.359711 
L 738.137225 -204.359711 
L 740.218962 -204.359711 
L 742.227641 -217.757579 
L 744.168216 -217.757579 
L 746.045154 -217.757579 
L 747.862496 -217.757579 
L 749.623912 -217.757579 
L 751.332739 -218.136764 
L 752.992029 -219.527109 
L 754.604571 -228.753943 
L 756.172929 -228.753943 
L 757.699459 -228.753943 
L 759.186334 -228.753943 
L 760.635563 -228.880338 
L 762.049004 -228.880338 
L 763.428384 -228.880338 
L 764.775304 -228.880338 
L 764.775304 -291.57225 
L 764.775304 -291.57225 
L 763.428384 -291.57225 
L 762.049004 -291.31946 
L 760.635563 -291.31946 
L 759.186334 -291.31946 
L 757.699459 -291.193065 
L 756.172929 -290.940275 
L 754.604571 -290.940275 
L 752.992029 -290.940275 
L 751.332739 -290.81388 
L 749.623912 -290.81388 
L 747.862496 -290.81388 
L 746.045154 -290.81388 
L 744.168216 -290.81388 
L 742.227641 -287.401216 
L 740.218962 -267.936388 
L 738.137225 -267.936388 
L 735.976913 -267.936388 
L 733.731861 -267.936388 
L 731.39515 -267.936388 
L 728.958975 -267.936388 
L 726.41449 -267.936388 
L 723.751616 -267.936388 
L 720.958795 -267.557203 
L 718.022691 -267.557203 
L 714.927804 -267.557203 
L 711.655972 -267.557203 
L 708.185729 -266.419648 
L 704.491449 -265.787673 
L 700.542195 -265.029303 
L 696.300145 -262.501404 
L 691.718383 -261.869429 
L 686.737723 -261.743034 
L 681.282028 -246.954821 
L 675.251036 -234.062532 
L 668.508962 -233.936137 
L 660.865428 -233.683347 
L 652.041615 -233.683347 
L 641.60526 -233.430557 
L 628.832194 -232.798582 
L 612.364848 -232.798582 
L 589.155427 -153.169742 
L 549.478659 -149.377893 
L 53.328125 -49.65225 
z
" style="stroke: #d62728; stroke-opacity: 0.2"/>
    </defs>
    <g clip-path="url(#pa1314d5da5)">
     <use xlink:href="#ma5da1bafca" x="0" y="325.986375" style="fill: #d62728; fill-opacity: 0.2; stroke: #d62728; stroke-opacity: 0.2"/>
    </g>
   </g>
   <g id="FillBetweenPolyCollection_2">
    <defs>
     <path id="m6f6b90fabe" d="M 53.328125 -49.65225 
L 53.328125 -49.65225 
L 549.478659 -127.51156 
L 589.155427 -127.51156 
L 612.364848 -130.418645 
L 628.832194 -130.418645 
L 641.60526 -130.418645 
L 652.041615 -130.418645 
L 660.865428 -130.418645 
L 668.508962 -135.727234 
L 675.251036 -135.727234 
L 681.282028 -135.727234 
L 686.737723 -135.980024 
L 691.718383 -136.232814 
L 696.300145 -136.359209 
L 700.542195 -136.359209 
L 704.491449 -136.359209 
L 708.185729 -136.359209 
L 711.655972 -136.359209 
L 714.927804 -136.359209 
L 718.022691 -136.359209 
L 720.958795 -136.359209 
L 723.751616 -136.359209 
L 726.41449 -136.359209 
L 728.958975 -136.359209 
L 731.39515 -136.359209 
L 733.731861 -136.611999 
L 735.976913 -136.611999 
L 738.137225 -136.611999 
L 740.218962 -136.611999 
L 742.227641 -149.251498 
L 744.168216 -160.753441 
L 746.045154 -220.664664 
L 747.862496 -221.170244 
L 749.623912 -221.170244 
L 751.332739 -222.560589 
L 752.992029 -222.560589 
L 754.604571 -222.560589 
L 756.172929 -222.560589 
L 757.699459 -234.568112 
L 759.186334 -234.568112 
L 760.635563 -236.716827 
L 762.049004 -236.716827 
L 763.428384 -236.716827 
L 764.775304 -236.716827 
L 764.775304 -273.624162 
L 764.775304 -273.624162 
L 763.428384 -273.624162 
L 762.049004 -273.624162 
L 760.635563 -273.624162 
L 759.186334 -271.728237 
L 757.699459 -271.096263 
L 756.172929 -250.367485 
L 754.604571 -250.24109 
L 752.992029 -249.48272 
L 751.332739 -249.103535 
L 749.623912 -248.47156 
L 747.862496 -247.839585 
L 746.045154 -246.828426 
L 744.168216 -244.174131 
L 742.227641 -236.716827 
L 740.218962 -236.716827 
L 738.137225 -236.716827 
L 735.976913 -236.716827 
L 733.731861 -236.716827 
L 731.39515 -236.716827 
L 728.958975 -236.716827 
L 726.41449 -236.716827 
L 723.751616 -236.716827 
L 720.958795 -236.716827 
L 718.022691 -236.716827 
L 714.927804 -236.716827 
L 711.655972 -236.716827 
L 708.185729 -236.084852 
L 704.491449 -236.084852 
L 700.542195 -235.958457 
L 696.300145 -234.694507 
L 691.718383 -234.694507 
L 686.737723 -234.694507 
L 681.282028 -234.694507 
L 675.251036 -234.441717 
L 668.508962 -224.077328 
L 660.865428 -223.571748 
L 652.041615 -221.296639 
L 641.60526 -219.779899 
L 628.832194 -218.895134 
L 612.364848 -218.136764 
L 589.155427 -151.021027 
L 549.478659 -136.106419 
L 53.328125 -49.65225 
z
" style="stroke: #98df8a; stroke-opacity: 0.2"/>
    </defs>
    <g clip-path="url(#pa1314d5da5)">
     <use xlink:href="#m6f6b90fabe" x="0" y="325.986375" style="fill: #98df8a; fill-opacity: 0.2; stroke: #98df8a; stroke-opacity: 0.2"/>
    </g>
   </g>
   <g id="FillBetweenPolyCollection_3">
    <defs>
     <path id="mc1ade86b6f" d="M 53.328125 -49.65225 
L 53.328125 -49.65225 
L 549.478659 -126.121216 
L 589.155427 -146.597203 
L 612.364848 -148.872313 
L 628.832194 -149.377893 
L 641.60526 -149.377893 
L 652.041615 -150.515447 
L 660.865428 -150.894632 
L 668.508962 -218.136764 
L 675.251036 -218.136764 
L 681.282028 -218.389554 
L 686.737723 -218.389554 
L 691.718383 -218.389554 
L 696.300145 -218.389554 
L 700.542195 -218.389554 
L 704.491449 -218.389554 
L 708.185729 -218.389554 
L 711.655972 -218.389554 
L 714.927804 -218.389554 
L 718.022691 -218.389554 
L 720.958795 -218.389554 
L 723.751616 -218.515949 
L 726.41449 -218.515949 
L 728.958975 -220.159084 
L 731.39515 -220.285479 
L 733.731861 -220.285479 
L 735.976913 -220.285479 
L 738.137225 -220.285479 
L 740.218962 -220.285479 
L 742.227641 -220.538269 
L 744.168216 -220.538269 
L 746.045154 -220.538269 
L 747.862496 -220.538269 
L 749.623912 -220.538269 
L 751.332739 -220.538269 
L 752.992029 -221.675824 
L 754.604571 -221.675824 
L 756.172929 -223.445353 
L 757.699459 -224.077328 
L 759.186334 -224.835698 
L 760.635563 -226.226043 
L 762.049004 -226.731623 
L 763.428384 -234.568112 
L 764.775304 -234.568112 
L 764.775304 -239.750306 
L 764.775304 -239.750306 
L 763.428384 -239.750306 
L 762.049004 -239.750306 
L 760.635563 -239.750306 
L 759.186334 -239.750306 
L 757.699459 -239.750306 
L 756.172929 -239.750306 
L 754.604571 -238.486357 
L 752.992029 -238.486357 
L 751.332739 -238.233567 
L 749.623912 -238.233567 
L 747.862496 -238.233567 
L 746.045154 -236.464037 
L 744.168216 -236.464037 
L 742.227641 -236.464037 
L 740.218962 -236.464037 
L 738.137225 -236.464037 
L 735.976913 -236.211247 
L 733.731861 -236.211247 
L 731.39515 -236.211247 
L 728.958975 -236.211247 
L 726.41449 -236.211247 
L 723.751616 -236.211247 
L 720.958795 -236.211247 
L 718.022691 -236.084852 
L 714.927804 -236.084852 
L 711.655972 -236.084852 
L 708.185729 -236.084852 
L 704.491449 -236.084852 
L 700.542195 -236.084852 
L 696.300145 -236.084852 
L 691.718383 -235.832062 
L 686.737723 -235.452877 
L 681.282028 -235.326482 
L 675.251036 -235.200087 
L 668.508962 -235.200087 
L 660.865428 -234.441717 
L 652.041615 -223.698143 
L 641.60526 -223.066168 
L 628.832194 -222.813379 
L 612.364848 -221.043849 
L 589.155427 -217.883974 
L 549.478659 -136.232814 
L 53.328125 -49.65225 
z
" style="stroke: #1f77b4; stroke-opacity: 0.2"/>
    </defs>
    <g clip-path="url(#pa1314d5da5)">
     <use xlink:href="#mc1ade86b6f" x="0" y="325.986375" style="fill: #1f77b4; fill-opacity: 0.2; stroke: #1f77b4; stroke-opacity: 0.2"/>
    </g>
   </g>
   <g id="FillBetweenPolyCollection_4">
    <defs>
     <path id="md2491b57f4" d="M 53.328125 -49.65225 
L 53.328125 -49.65225 
L 549.478659 -127.385165 
L 589.155427 -129.78667 
L 612.364848 -130.29225 
L 628.832194 -130.29225 
L 641.60526 -130.29225 
L 652.041615 -130.418645 
L 660.865428 -135.980024 
L 668.508962 -135.980024 
L 675.251036 -141.667799 
L 681.282028 -146.849993 
L 686.737723 -148.113943 
L 691.718383 -149.630683 
L 696.300145 -149.883473 
L 700.542195 -151.021027 
L 704.491449 -153.043347 
L 708.185729 -153.548927 
L 711.655972 -153.548927 
L 714.927804 -153.548927 
L 718.022691 -153.548927 
L 720.958795 -153.548927 
L 723.751616 -153.801717 
L 726.41449 -222.055009 
L 728.958975 -222.055009 
L 731.39515 -222.055009 
L 733.731861 -222.055009 
L 735.976913 -222.055009 
L 738.137225 -222.055009 
L 740.218962 -222.055009 
L 742.227641 -222.055009 
L 744.168216 -222.055009 
L 746.045154 -224.203723 
L 747.862496 -224.709303 
L 749.623912 -225.341278 
L 751.332739 -225.341278 
L 752.992029 -225.341278 
L 754.604571 -225.341278 
L 756.172929 -225.341278 
L 757.699459 -225.341278 
L 759.186334 -225.467673 
L 760.635563 -225.594068 
L 762.049004 -225.594068 
L 763.428384 -225.594068 
L 764.775304 -225.720463 
L 764.775304 -245.311686 
L 764.775304 -245.311686 
L 763.428384 -245.311686 
L 762.049004 -245.311686 
L 760.635563 -244.806106 
L 759.186334 -244.806106 
L 757.699459 -244.806106 
L 756.172929 -244.806106 
L 754.604571 -244.806106 
L 752.992029 -244.806106 
L 751.332739 -244.679711 
L 749.623912 -244.300526 
L 747.862496 -243.542156 
L 746.045154 -243.542156 
L 744.168216 -243.542156 
L 742.227641 -243.542156 
L 740.218962 -243.542156 
L 738.137225 -231.913817 
L 735.976913 -231.913817 
L 733.731861 -231.913817 
L 731.39515 -230.270683 
L 728.958975 -227.110808 
L 726.41449 -226.984413 
L 723.751616 -226.984413 
L 720.958795 -226.984413 
L 718.022691 -226.858018 
L 714.927804 -225.594068 
L 711.655972 -225.594068 
L 708.185729 -225.594068 
L 704.491449 -225.088488 
L 700.542195 -225.088488 
L 696.300145 -221.423034 
L 691.718383 -221.423034 
L 686.737723 -221.043849 
L 681.282028 -220.032689 
L 675.251036 -220.032689 
L 668.508962 -219.906294 
L 660.865428 -219.906294 
L 652.041615 -219.906294 
L 641.60526 -219.906294 
L 628.832194 -219.147924 
L 612.364848 -219.021529 
L 589.155427 -217.631184 
L 549.478659 -135.853629 
L 53.328125 -49.65225 
z
" style="stroke: #c7c7c7; stroke-opacity: 0.2"/>
    </defs>
    <g clip-path="url(#pa1314d5da5)">
     <use xlink:href="#md2491b57f4" x="0" y="325.986375" style="fill: #c7c7c7; fill-opacity: 0.2; stroke: #c7c7c7; stroke-opacity: 0.2"/>
    </g>
   </g>
   <g id="matplotlib.axis_1">
    <g id="xtick_1">
     <g id="line2d_1">
      <defs>
       <path id="mabe78f248f" d="M 0 0 
L 0 3.5 
" style="stroke: #000000; stroke-width: 0.8"/>
      </defs>
      <g>
       <use xlink:href="#mabe78f248f" x="53.328125" y="288.430125" style="stroke: #000000; stroke-width: 0.8"/>
      </g>
     </g>
     <g id="text_1">
      <!-- 0m -->
      <g transform="translate(45.276563 303.028562) scale(0.1 -0.1)">
       <defs>
        <path id="DejaVuSans-30" d="M 2034 4250 
Q 1547 4250 1301 3770 
Q 1056 3291 1056 2328 
Q 1056 1369 1301 889 
Q 1547 409 2034 409 
Q 2525 409 2770 889 
Q 3016 1369 3016 2328 
Q 3016 3291 2770 3770 
Q 2525 4250 2034 4250 
z
M 2034 4750 
Q 2819 4750 3233 4129 
Q 3647 3509 3647 2328 
Q 3647 1150 3233 529 
Q 2819 -91 2034 -91 
Q 1250 -91 836 529 
Q 422 1150 422 2328 
Q 422 3509 836 4129 
Q 1250 4750 2034 4750 
z
" transform="scale(0.015625)"/>
        <path id="DejaVuSans-6d" d="M 3328 2828 
Q 3544 3216 3844 3400 
Q 4144 3584 4550 3584 
Q 5097 3584 5394 3201 
Q 5691 2819 5691 2113 
L 5691 0 
L 5113 0 
L 5113 2094 
Q 5113 2597 4934 2840 
Q 4756 3084 4391 3084 
Q 3944 3084 3684 2787 
Q 3425 2491 3425 1978 
L 3425 0 
L 2847 0 
L 2847 2094 
Q 2847 2600 2669 2842 
Q 2491 3084 2119 3084 
Q 1678 3084 1418 2786 
Q 1159 2488 1159 1978 
L 1159 0 
L 581 0 
L 581 3500 
L 1159 3500 
L 1159 2956 
Q 1356 3278 1631 3431 
Q 1906 3584 2284 3584 
Q 2666 3584 2933 3390 
Q 3200 3197 3328 2828 
z
" transform="scale(0.015625)"/>
       </defs>
       <use xlink:href="#DejaVuSans-30"/>
       <use xlink:href="#DejaVuSans-6d" transform="translate(63.623047 0)"/>
      </g>
     </g>
    </g>
    <g id="xtick_2">
     <g id="line2d_2">
      <g>
       <use xlink:href="#mabe78f248f" x="126.552219" y="288.430125" style="stroke: #000000; stroke-width: 0.8"/>
      </g>
     </g>
    </g>
    <g id="xtick_3">
     <g id="line2d_3">
      <g>
       <use xlink:href="#mabe78f248f" x="220.567269" y="288.430125" style="stroke: #000000; stroke-width: 0.8"/>
      </g>
     </g>
    </g>
    <g id="xtick_4">
     <g id="line2d_4">
      <g>
       <use xlink:href="#mabe78f248f" x="281.034992" y="288.430125" style="stroke: #000000; stroke-width: 0.8"/>
      </g>
     </g>
    </g>
    <g id="xtick_5">
     <g id="line2d_5">
      <g>
       <use xlink:href="#mabe78f248f" x="341.502716" y="288.430125" style="stroke: #000000; stroke-width: 0.8"/>
      </g>
     </g>
    </g>
    <g id="xtick_6">
     <g id="line2d_6">
      <g>
       <use xlink:href="#mabe78f248f" x="401.97044" y="288.430125" style="stroke: #000000; stroke-width: 0.8"/>
      </g>
     </g>
     <g id="text_2">
      <!-- 1m -->
      <g transform="translate(393.918878 303.028562) scale(0.1 -0.1)">
       <defs>
        <path id="DejaVuSans-31" d="M 794 531 
L 1825 531 
L 1825 4091 
L 703 3866 
L 703 4441 
L 1819 4666 
L 2450 4666 
L 2450 531 
L 3481 531 
L 3481 0 
L 794 0 
L 794 531 
z
" transform="scale(0.015625)"/>
       </defs>
       <use xlink:href="#DejaVuSans-31"/>
       <use xlink:href="#DejaVuSans-6d" transform="translate(63.623047 0)"/>
      </g>
     </g>
    </g>
    <g id="xtick_7">
     <g id="line2d_7">
      <g>
       <use xlink:href="#mabe78f248f" x="462.438164" y="288.430125" style="stroke: #000000; stroke-width: 0.8"/>
      </g>
     </g>
     <g id="text_3">
      <!-- 3m -->
      <g transform="translate(454.386601 303.028562) scale(0.1 -0.1)">
       <defs>
        <path id="DejaVuSans-33" d="M 2597 2516 
Q 3050 2419 3304 2112 
Q 3559 1806 3559 1356 
Q 3559 666 3084 287 
Q 2609 -91 1734 -91 
Q 1441 -91 1130 -33 
Q 819 25 488 141 
L 488 750 
Q 750 597 1062 519 
Q 1375 441 1716 441 
Q 2309 441 2620 675 
Q 2931 909 2931 1356 
Q 2931 1769 2642 2001 
Q 2353 2234 1838 2234 
L 1294 2234 
L 1294 2753 
L 1863 2753 
Q 2328 2753 2575 2939 
Q 2822 3125 2822 3475 
Q 2822 3834 2567 4026 
Q 2313 4219 1838 4219 
Q 1578 4219 1281 4162 
Q 984 4106 628 3988 
L 628 4550 
Q 988 4650 1302 4700 
Q 1616 4750 1894 4750 
Q 2613 4750 3031 4423 
Q 3450 4097 3450 3541 
Q 3450 3153 3228 2886 
Q 3006 2619 2597 2516 
z
" transform="scale(0.015625)"/>
       </defs>
       <use xlink:href="#DejaVuSans-33"/>
       <use xlink:href="#DejaVuSans-6d" transform="translate(63.623047 0)"/>
      </g>
     </g>
    </g>
    <g id="xtick_8">
     <g id="line2d_8">
      <g>
       <use xlink:href="#mabe78f248f" x="522.905888" y="288.430125" style="stroke: #000000; stroke-width: 0.8"/>
      </g>
     </g>
     <g id="text_4">
      <!-- 9m -->
      <g transform="translate(514.854325 303.028562) scale(0.1 -0.1)">
       <defs>
        <path id="DejaVuSans-39" d="M 703 97 
L 703 672 
Q 941 559 1184 500 
Q 1428 441 1663 441 
Q 2288 441 2617 861 
Q 2947 1281 2994 2138 
Q 2813 1869 2534 1725 
Q 2256 1581 1919 1581 
Q 1219 1581 811 2004 
Q 403 2428 403 3163 
Q 403 3881 828 4315 
Q 1253 4750 1959 4750 
Q 2769 4750 3195 4129 
Q 3622 3509 3622 2328 
Q 3622 1225 3098 567 
Q 2575 -91 1691 -91 
Q 1453 -91 1209 -44 
Q 966 3 703 97 
z
M 1959 2075 
Q 2384 2075 2632 2365 
Q 2881 2656 2881 3163 
Q 2881 3666 2632 3958 
Q 2384 4250 1959 4250 
Q 1534 4250 1286 3958 
Q 1038 3666 1038 3163 
Q 1038 2656 1286 2365 
Q 1534 2075 1959 2075 
z
" transform="scale(0.015625)"/>
       </defs>
       <use xlink:href="#DejaVuSans-39"/>
       <use xlink:href="#DejaVuSans-6d" transform="translate(63.623047 0)"/>
      </g>
     </g>
    </g>
    <g id="xtick_9">
     <g id="line2d_9">
      <g>
       <use xlink:href="#mabe78f248f" x="583.373612" y="288.430125" style="stroke: #000000; stroke-width: 0.8"/>
      </g>
     </g>
     <g id="text_5">
      <!-- 27m -->
      <g transform="translate(572.140799 303.028562) scale(0.1 -0.1)">
       <defs>
        <path id="DejaVuSans-32" d="M 1228 531 
L 3431 531 
L 3431 0 
L 469 0 
L 469 531 
Q 828 903 1448 1529 
Q 2069 2156 2228 2338 
Q 2531 2678 2651 2914 
Q 2772 3150 2772 3378 
Q 2772 3750 2511 3984 
Q 2250 4219 1831 4219 
Q 1534 4219 1204 4116 
Q 875 4013 500 3803 
L 500 4441 
Q 881 4594 1212 4672 
Q 1544 4750 1819 4750 
Q 2544 4750 2975 4387 
Q 3406 4025 3406 3419 
Q 3406 3131 3298 2873 
Q 3191 2616 2906 2266 
Q 2828 2175 2409 1742 
Q 1991 1309 1228 531 
z
" transform="scale(0.015625)"/>
        <path id="DejaVuSans-37" d="M 525 4666 
L 3525 4666 
L 3525 4397 
L 1831 0 
L 1172 0 
L 2766 4134 
L 525 4134 
L 525 4666 
z
" transform="scale(0.015625)"/>
       </defs>
       <use xlink:href="#DejaVuSans-32"/>
       <use xlink:href="#DejaVuSans-37" transform="translate(63.623047 0)"/>
       <use xlink:href="#DejaVuSans-6d" transform="translate(127.246094 0)"/>
      </g>
     </g>
    </g>
    <g id="xtick_10">
     <g id="line2d_10">
      <g>
       <use xlink:href="#mabe78f248f" x="643.841335" y="288.430125" style="stroke: #000000; stroke-width: 0.8"/>
      </g>
     </g>
     <g id="text_6">
      <!-- 1h:17m -->
      <g transform="translate(624.574148 303.028562) scale(0.1 -0.1)">
       <defs>
        <path id="DejaVuSans-68" d="M 3513 2113 
L 3513 0 
L 2938 0 
L 2938 2094 
Q 2938 2591 2744 2837 
Q 2550 3084 2163 3084 
Q 1697 3084 1428 2787 
Q 1159 2491 1159 1978 
L 1159 0 
L 581 0 
L 581 4863 
L 1159 4863 
L 1159 2956 
Q 1366 3272 1645 3428 
Q 1925 3584 2291 3584 
Q 2894 3584 3203 3211 
Q 3513 2838 3513 2113 
z
" transform="scale(0.015625)"/>
        <path id="DejaVuSans-3a" d="M 750 794 
L 1409 794 
L 1409 0 
L 750 0 
L 750 794 
z
M 750 3309 
L 1409 3309 
L 1409 2516 
L 750 2516 
L 750 3309 
z
" transform="scale(0.015625)"/>
       </defs>
       <use xlink:href="#DejaVuSans-31"/>
       <use xlink:href="#DejaVuSans-68" transform="translate(63.623047 0)"/>
       <use xlink:href="#DejaVuSans-3a" transform="translate(127.001953 0)"/>
       <use xlink:href="#DejaVuSans-31" transform="translate(160.693359 0)"/>
       <use xlink:href="#DejaVuSans-37" transform="translate(224.316406 0)"/>
       <use xlink:href="#DejaVuSans-6d" transform="translate(287.939453 0)"/>
      </g>
     </g>
    </g>
    <g id="xtick_11">
     <g id="line2d_11">
      <g>
       <use xlink:href="#mabe78f248f" x="704.309059" y="288.430125" style="stroke: #000000; stroke-width: 0.8"/>
      </g>
     </g>
     <g id="text_7">
      <!-- 3h:44m -->
      <g transform="translate(685.041872 303.028562) scale(0.1 -0.1)">
       <defs>
        <path id="DejaVuSans-34" d="M 2419 4116 
L 825 1625 
L 2419 1625 
L 2419 4116 
z
M 2253 4666 
L 3047 4666 
L 3047 1625 
L 3713 1625 
L 3713 1100 
L 3047 1100 
L 3047 0 
L 2419 0 
L 2419 1100 
L 313 1100 
L 313 1709 
L 2253 4666 
z
" transform="scale(0.015625)"/>
       </defs>
       <use xlink:href="#DejaVuSans-33"/>
       <use xlink:href="#DejaVuSans-68" transform="translate(63.623047 0)"/>
       <use xlink:href="#DejaVuSans-3a" transform="translate(127.001953 0)"/>
       <use xlink:href="#DejaVuSans-34" transform="translate(160.693359 0)"/>
       <use xlink:href="#DejaVuSans-34" transform="translate(224.316406 0)"/>
       <use xlink:href="#DejaVuSans-6d" transform="translate(287.939453 0)"/>
      </g>
     </g>
    </g>
    <g id="xtick_12">
     <g id="line2d_12">
      <g>
       <use xlink:href="#mabe78f248f" x="764.776783" y="288.430125" style="stroke: #000000; stroke-width: 0.8"/>
      </g>
     </g>
     <g id="text_8">
      <!-- 10h:45m -->
      <g transform="translate(742.328346 303.028562) scale(0.1 -0.1)">
       <defs>
        <path id="DejaVuSans-35" d="M 691 4666 
L 3169 4666 
L 3169 4134 
L 1269 4134 
L 1269 2991 
Q 1406 3038 1543 3061 
Q 1681 3084 1819 3084 
Q 2600 3084 3056 2656 
Q 3513 2228 3513 1497 
Q 3513 744 3044 326 
Q 2575 -91 1722 -91 
Q 1428 -91 1123 -41 
Q 819 9 494 109 
L 494 744 
Q 775 591 1075 516 
Q 1375 441 1709 441 
Q 2250 441 2565 725 
Q 2881 1009 2881 1497 
Q 2881 1984 2565 2268 
Q 2250 2553 1709 2553 
Q 1456 2553 1204 2497 
Q 953 2441 691 2322 
L 691 4666 
z
" transform="scale(0.015625)"/>
       </defs>
       <use xlink:href="#DejaVuSans-31"/>
       <use xlink:href="#DejaVuSans-30" transform="translate(63.623047 0)"/>
       <use xlink:href="#DejaVuSans-68" transform="translate(127.246094 0)"/>
       <use xlink:href="#DejaVuSans-3a" transform="translate(190.625 0)"/>
       <use xlink:href="#DejaVuSans-34" transform="translate(224.316406 0)"/>
       <use xlink:href="#DejaVuSans-35" transform="translate(287.939453 0)"/>
       <use xlink:href="#DejaVuSans-6d" transform="translate(351.5625 0)"/>
      </g>
     </g>
    </g>
    <g id="text_9">
     <!-- Time (hour:minute) -->
     <g transform="translate(362.041094 316.706687) scale(0.1 -0.1)">
      <defs>
       <path id="DejaVuSans-54" d="M -19 4666 
L 3928 4666 
L 3928 4134 
L 2272 4134 
L 2272 0 
L 1638 0 
L 1638 4134 
L -19 4134 
L -19 4666 
z
" transform="scale(0.015625)"/>
       <path id="DejaVuSans-69" d="M 603 3500 
L 1178 3500 
L 1178 0 
L 603 0 
L 603 3500 
z
M 603 4863 
L 1178 4863 
L 1178 4134 
L 603 4134 
L 603 4863 
z
" transform="scale(0.015625)"/>
       <path id="DejaVuSans-65" d="M 3597 1894 
L 3597 1613 
L 953 1613 
Q 991 1019 1311 708 
Q 1631 397 2203 397 
Q 2534 397 2845 478 
Q 3156 559 3463 722 
L 3463 178 
Q 3153 47 2828 -22 
Q 2503 -91 2169 -91 
Q 1331 -91 842 396 
Q 353 884 353 1716 
Q 353 2575 817 3079 
Q 1281 3584 2069 3584 
Q 2775 3584 3186 3129 
Q 3597 2675 3597 1894 
z
M 3022 2063 
Q 3016 2534 2758 2815 
Q 2500 3097 2075 3097 
Q 1594 3097 1305 2825 
Q 1016 2553 972 2059 
L 3022 2063 
z
" transform="scale(0.015625)"/>
       <path id="DejaVuSans-20" transform="scale(0.015625)"/>
       <path id="DejaVuSans-28" d="M 1984 4856 
Q 1566 4138 1362 3434 
Q 1159 2731 1159 2009 
Q 1159 1288 1364 580 
Q 1569 -128 1984 -844 
L 1484 -844 
Q 1016 -109 783 600 
Q 550 1309 550 2009 
Q 550 2706 781 3412 
Q 1013 4119 1484 4856 
L 1984 4856 
z
" transform="scale(0.015625)"/>
       <path id="DejaVuSans-6f" d="M 1959 3097 
Q 1497 3097 1228 2736 
Q 959 2375 959 1747 
Q 959 1119 1226 758 
Q 1494 397 1959 397 
Q 2419 397 2687 759 
Q 2956 1122 2956 1747 
Q 2956 2369 2687 2733 
Q 2419 3097 1959 3097 
z
M 1959 3584 
Q 2709 3584 3137 3096 
Q 3566 2609 3566 1747 
Q 3566 888 3137 398 
Q 2709 -91 1959 -91 
Q 1206 -91 779 398 
Q 353 888 353 1747 
Q 353 2609 779 3096 
Q 1206 3584 1959 3584 
z
" transform="scale(0.015625)"/>
       <path id="DejaVuSans-75" d="M 544 1381 
L 544 3500 
L 1119 3500 
L 1119 1403 
Q 1119 906 1312 657 
Q 1506 409 1894 409 
Q 2359 409 2629 706 
Q 2900 1003 2900 1516 
L 2900 3500 
L 3475 3500 
L 3475 0 
L 2900 0 
L 2900 538 
Q 2691 219 2414 64 
Q 2138 -91 1772 -91 
Q 1169 -91 856 284 
Q 544 659 544 1381 
z
M 1991 3584 
L 1991 3584 
z
" transform="scale(0.015625)"/>
       <path id="DejaVuSans-72" d="M 2631 2963 
Q 2534 3019 2420 3045 
Q 2306 3072 2169 3072 
Q 1681 3072 1420 2755 
Q 1159 2438 1159 1844 
L 1159 0 
L 581 0 
L 581 3500 
L 1159 3500 
L 1159 2956 
Q 1341 3275 1631 3429 
Q 1922 3584 2338 3584 
Q 2397 3584 2469 3576 
Q 2541 3569 2628 3553 
L 2631 2963 
z
" transform="scale(0.015625)"/>
       <path id="DejaVuSans-6e" d="M 3513 2113 
L 3513 0 
L 2938 0 
L 2938 2094 
Q 2938 2591 2744 2837 
Q 2550 3084 2163 3084 
Q 1697 3084 1428 2787 
Q 1159 2491 1159 1978 
L 1159 0 
L 581 0 
L 581 3500 
L 1159 3500 
L 1159 2956 
Q 1366 3272 1645 3428 
Q 1925 3584 2291 3584 
Q 2894 3584 3203 3211 
Q 3513 2838 3513 2113 
z
" transform="scale(0.015625)"/>
       <path id="DejaVuSans-74" d="M 1172 4494 
L 1172 3500 
L 2356 3500 
L 2356 3053 
L 1172 3053 
L 1172 1153 
Q 1172 725 1289 603 
Q 1406 481 1766 481 
L 2356 481 
L 2356 0 
L 1766 0 
Q 1100 0 847 248 
Q 594 497 594 1153 
L 594 3053 
L 172 3053 
L 172 3500 
L 594 3500 
L 594 4494 
L 1172 4494 
z
" transform="scale(0.015625)"/>
       <path id="DejaVuSans-29" d="M 513 4856 
L 1013 4856 
Q 1481 4119 1714 3412 
Q 1947 2706 1947 2009 
Q 1947 1309 1714 600 
Q 1481 -109 1013 -844 
L 513 -844 
Q 928 -128 1133 580 
Q 1338 1288 1338 2009 
Q 1338 2731 1133 3434 
Q 928 4138 513 4856 
z
" transform="scale(0.015625)"/>
      </defs>
      <use xlink:href="#DejaVuSans-54"/>
      <use xlink:href="#DejaVuSans-69" transform="translate(57.958984 0)"/>
      <use xlink:href="#DejaVuSans-6d" transform="translate(85.742188 0)"/>
      <use xlink:href="#DejaVuSans-65" transform="translate(183.154297 0)"/>
      <use xlink:href="#DejaVuSans-20" transform="translate(244.677734 0)"/>
      <use xlink:href="#DejaVuSans-28" transform="translate(276.464844 0)"/>
      <use xlink:href="#DejaVuSans-68" transform="translate(315.478516 0)"/>
      <use xlink:href="#DejaVuSans-6f" transform="translate(378.857422 0)"/>
      <use xlink:href="#DejaVuSans-75" transform="translate(440.039062 0)"/>
      <use xlink:href="#DejaVuSans-72" transform="translate(503.417969 0)"/>
      <use xlink:href="#DejaVuSans-3a" transform="translate(542.78125 0)"/>
      <use xlink:href="#DejaVuSans-6d" transform="translate(576.472656 0)"/>
      <use xlink:href="#DejaVuSans-69" transform="translate(673.884766 0)"/>
      <use xlink:href="#DejaVuSans-6e" transform="translate(701.667969 0)"/>
      <use xlink:href="#DejaVuSans-75" transform="translate(765.046875 0)"/>
      <use xlink:href="#DejaVuSans-74" transform="translate(828.425781 0)"/>
      <use xlink:href="#DejaVuSans-65" transform="translate(867.634766 0)"/>
      <use xlink:href="#DejaVuSans-29" transform="translate(929.158203 0)"/>
     </g>
    </g>
   </g>
   <g id="matplotlib.axis_2">
    <g id="ytick_1">
     <g id="line2d_13">
      <defs>
       <path id="m085d992485" d="M 0 0 
L -3.5 0 
" style="stroke: #000000; stroke-width: 0.8"/>
      </defs>
      <g>
       <use xlink:href="#m085d992485" x="53.328125" y="281.137134" style="stroke: #000000; stroke-width: 0.8"/>
      </g>
     </g>
     <g id="text_10">
      <!-- 0 -->
      <g transform="translate(39.965625 284.936353) scale(0.1 -0.1)">
       <use xlink:href="#DejaVuSans-30"/>
      </g>
     </g>
    </g>
    <g id="ytick_2">
     <g id="line2d_14">
      <g>
       <use xlink:href="#m085d992485" x="53.328125" y="249.538388" style="stroke: #000000; stroke-width: 0.8"/>
      </g>
     </g>
     <g id="text_11">
      <!-- 250 -->
      <g transform="translate(27.240625 253.337607) scale(0.1 -0.1)">
       <use xlink:href="#DejaVuSans-32"/>
       <use xlink:href="#DejaVuSans-35" transform="translate(63.623047 0)"/>
       <use xlink:href="#DejaVuSans-30" transform="translate(127.246094 0)"/>
      </g>
     </g>
    </g>
    <g id="ytick_3">
     <g id="line2d_15">
      <g>
       <use xlink:href="#m085d992485" x="53.328125" y="217.939642" style="stroke: #000000; stroke-width: 0.8"/>
      </g>
     </g>
     <g id="text_12">
      <!-- 500 -->
      <g transform="translate(27.240625 221.738861) scale(0.1 -0.1)">
       <use xlink:href="#DejaVuSans-35"/>
       <use xlink:href="#DejaVuSans-30" transform="translate(63.623047 0)"/>
       <use xlink:href="#DejaVuSans-30" transform="translate(127.246094 0)"/>
      </g>
     </g>
    </g>
    <g id="ytick_4">
     <g id="line2d_16">
      <g>
       <use xlink:href="#m085d992485" x="53.328125" y="186.340896" style="stroke: #000000; stroke-width: 0.8"/>
      </g>
     </g>
     <g id="text_13">
      <!-- 750 -->
      <g transform="translate(27.240625 190.140115) scale(0.1 -0.1)">
       <use xlink:href="#DejaVuSans-37"/>
       <use xlink:href="#DejaVuSans-35" transform="translate(63.623047 0)"/>
       <use xlink:href="#DejaVuSans-30" transform="translate(127.246094 0)"/>
      </g>
     </g>
    </g>
    <g id="ytick_5">
     <g id="line2d_17">
      <g>
       <use xlink:href="#m085d992485" x="53.328125" y="154.74215" style="stroke: #000000; stroke-width: 0.8"/>
      </g>
     </g>
     <g id="text_14">
      <!-- 1000 -->
      <g transform="translate(20.878125 158.541369) scale(0.1 -0.1)">
       <use xlink:href="#DejaVuSans-31"/>
       <use xlink:href="#DejaVuSans-30" transform="translate(63.623047 0)"/>
       <use xlink:href="#DejaVuSans-30" transform="translate(127.246094 0)"/>
       <use xlink:href="#DejaVuSans-30" transform="translate(190.869141 0)"/>
      </g>
     </g>
    </g>
    <g id="ytick_6">
     <g id="line2d_18">
      <g>
       <use xlink:href="#m085d992485" x="53.328125" y="123.143404" style="stroke: #000000; stroke-width: 0.8"/>
      </g>
     </g>
     <g id="text_15">
      <!-- 1250 -->
      <g transform="translate(20.878125 126.942623) scale(0.1 -0.1)">
       <use xlink:href="#DejaVuSans-31"/>
       <use xlink:href="#DejaVuSans-32" transform="translate(63.623047 0)"/>
       <use xlink:href="#DejaVuSans-35" transform="translate(127.246094 0)"/>
       <use xlink:href="#DejaVuSans-30" transform="translate(190.869141 0)"/>
      </g>
     </g>
    </g>
    <g id="ytick_7">
     <g id="line2d_19">
      <g>
       <use xlink:href="#m085d992485" x="53.328125" y="91.544658" style="stroke: #000000; stroke-width: 0.8"/>
      </g>
     </g>
     <g id="text_16">
      <!-- 1500 -->
      <g transform="translate(20.878125 95.343877) scale(0.1 -0.1)">
       <use xlink:href="#DejaVuSans-31"/>
       <use xlink:href="#DejaVuSans-35" transform="translate(63.623047 0)"/>
       <use xlink:href="#DejaVuSans-30" transform="translate(127.246094 0)"/>
       <use xlink:href="#DejaVuSans-30" transform="translate(190.869141 0)"/>
      </g>
     </g>
    </g>
    <g id="ytick_8">
     <g id="line2d_20">
      <g>
       <use xlink:href="#m085d992485" x="53.328125" y="59.945912" style="stroke: #000000; stroke-width: 0.8"/>
      </g>
     </g>
     <g id="text_17">
      <!-- 1750 -->
      <g transform="translate(20.878125 63.745131) scale(0.1 -0.1)">
       <use xlink:href="#DejaVuSans-31"/>
       <use xlink:href="#DejaVuSans-37" transform="translate(63.623047 0)"/>
       <use xlink:href="#DejaVuSans-35" transform="translate(127.246094 0)"/>
       <use xlink:href="#DejaVuSans-30" transform="translate(190.869141 0)"/>
      </g>
     </g>
    </g>
    <g id="ytick_9">
     <g id="line2d_21">
      <g>
       <use xlink:href="#m085d992485" x="53.328125" y="28.347166" style="stroke: #000000; stroke-width: 0.8"/>
      </g>
     </g>
     <g id="text_18">
      <!-- 2000 -->
      <g transform="translate(20.878125 32.146385) scale(0.1 -0.1)">
       <use xlink:href="#DejaVuSans-32"/>
       <use xlink:href="#DejaVuSans-30" transform="translate(63.623047 0)"/>
       <use xlink:href="#DejaVuSans-30" transform="translate(127.246094 0)"/>
       <use xlink:href="#DejaVuSans-30" transform="translate(190.869141 0)"/>
      </g>
     </g>
    </g>
    <g id="text_19">
     <!-- Code branch coverage -->
     <g transform="translate(14.798438 211.949125) rotate(-90) scale(0.1 -0.1)">
      <defs>
       <path id="DejaVuSans-43" d="M 4122 4306 
L 4122 3641 
Q 3803 3938 3442 4084 
Q 3081 4231 2675 4231 
Q 1875 4231 1450 3742 
Q 1025 3253 1025 2328 
Q 1025 1406 1450 917 
Q 1875 428 2675 428 
Q 3081 428 3442 575 
Q 3803 722 4122 1019 
L 4122 359 
Q 3791 134 3420 21 
Q 3050 -91 2638 -91 
Q 1578 -91 968 557 
Q 359 1206 359 2328 
Q 359 3453 968 4101 
Q 1578 4750 2638 4750 
Q 3056 4750 3426 4639 
Q 3797 4528 4122 4306 
z
" transform="scale(0.015625)"/>
       <path id="DejaVuSans-64" d="M 2906 2969 
L 2906 4863 
L 3481 4863 
L 3481 0 
L 2906 0 
L 2906 525 
Q 2725 213 2448 61 
Q 2172 -91 1784 -91 
Q 1150 -91 751 415 
Q 353 922 353 1747 
Q 353 2572 751 3078 
Q 1150 3584 1784 3584 
Q 2172 3584 2448 3432 
Q 2725 3281 2906 2969 
z
M 947 1747 
Q 947 1113 1208 752 
Q 1469 391 1925 391 
Q 2381 391 2643 752 
Q 2906 1113 2906 1747 
Q 2906 2381 2643 2742 
Q 2381 3103 1925 3103 
Q 1469 3103 1208 2742 
Q 947 2381 947 1747 
z
" transform="scale(0.015625)"/>
       <path id="DejaVuSans-62" d="M 3116 1747 
Q 3116 2381 2855 2742 
Q 2594 3103 2138 3103 
Q 1681 3103 1420 2742 
Q 1159 2381 1159 1747 
Q 1159 1113 1420 752 
Q 1681 391 2138 391 
Q 2594 391 2855 752 
Q 3116 1113 3116 1747 
z
M 1159 2969 
Q 1341 3281 1617 3432 
Q 1894 3584 2278 3584 
Q 2916 3584 3314 3078 
Q 3713 2572 3713 1747 
Q 3713 922 3314 415 
Q 2916 -91 2278 -91 
Q 1894 -91 1617 61 
Q 1341 213 1159 525 
L 1159 0 
L 581 0 
L 581 4863 
L 1159 4863 
L 1159 2969 
z
" transform="scale(0.015625)"/>
       <path id="DejaVuSans-61" d="M 2194 1759 
Q 1497 1759 1228 1600 
Q 959 1441 959 1056 
Q 959 750 1161 570 
Q 1363 391 1709 391 
Q 2188 391 2477 730 
Q 2766 1069 2766 1631 
L 2766 1759 
L 2194 1759 
z
M 3341 1997 
L 3341 0 
L 2766 0 
L 2766 531 
Q 2569 213 2275 61 
Q 1981 -91 1556 -91 
Q 1019 -91 701 211 
Q 384 513 384 1019 
Q 384 1609 779 1909 
Q 1175 2209 1959 2209 
L 2766 2209 
L 2766 2266 
Q 2766 2663 2505 2880 
Q 2244 3097 1772 3097 
Q 1472 3097 1187 3025 
Q 903 2953 641 2809 
L 641 3341 
Q 956 3463 1253 3523 
Q 1550 3584 1831 3584 
Q 2591 3584 2966 3190 
Q 3341 2797 3341 1997 
z
" transform="scale(0.015625)"/>
       <path id="DejaVuSans-63" d="M 3122 3366 
L 3122 2828 
Q 2878 2963 2633 3030 
Q 2388 3097 2138 3097 
Q 1578 3097 1268 2742 
Q 959 2388 959 1747 
Q 959 1106 1268 751 
Q 1578 397 2138 397 
Q 2388 397 2633 464 
Q 2878 531 3122 666 
L 3122 134 
Q 2881 22 2623 -34 
Q 2366 -91 2075 -91 
Q 1284 -91 818 406 
Q 353 903 353 1747 
Q 353 2603 823 3093 
Q 1294 3584 2113 3584 
Q 2378 3584 2631 3529 
Q 2884 3475 3122 3366 
z
" transform="scale(0.015625)"/>
       <path id="DejaVuSans-76" d="M 191 3500 
L 800 3500 
L 1894 563 
L 2988 3500 
L 3597 3500 
L 2284 0 
L 1503 0 
L 191 3500 
z
" transform="scale(0.015625)"/>
       <path id="DejaVuSans-67" d="M 2906 1791 
Q 2906 2416 2648 2759 
Q 2391 3103 1925 3103 
Q 1463 3103 1205 2759 
Q 947 2416 947 1791 
Q 947 1169 1205 825 
Q 1463 481 1925 481 
Q 2391 481 2648 825 
Q 2906 1169 2906 1791 
z
M 3481 434 
Q 3481 -459 3084 -895 
Q 2688 -1331 1869 -1331 
Q 1566 -1331 1297 -1286 
Q 1028 -1241 775 -1147 
L 775 -588 
Q 1028 -725 1275 -790 
Q 1522 -856 1778 -856 
Q 2344 -856 2625 -561 
Q 2906 -266 2906 331 
L 2906 616 
Q 2728 306 2450 153 
Q 2172 0 1784 0 
Q 1141 0 747 490 
Q 353 981 353 1791 
Q 353 2603 747 3093 
Q 1141 3584 1784 3584 
Q 2172 3584 2450 3431 
Q 2728 3278 2906 2969 
L 2906 3500 
L 3481 3500 
L 3481 434 
z
" transform="scale(0.015625)"/>
      </defs>
      <use xlink:href="#DejaVuSans-43"/>
      <use xlink:href="#DejaVuSans-6f" transform="translate(69.824219 0)"/>
      <use xlink:href="#DejaVuSans-64" transform="translate(131.005859 0)"/>
      <use xlink:href="#DejaVuSans-65" transform="translate(194.482422 0)"/>
      <use xlink:href="#DejaVuSans-20" transform="translate(256.005859 0)"/>
      <use xlink:href="#DejaVuSans-62" transform="translate(287.792969 0)"/>
      <use xlink:href="#DejaVuSans-72" transform="translate(351.269531 0)"/>
      <use xlink:href="#DejaVuSans-61" transform="translate(392.382812 0)"/>
      <use xlink:href="#DejaVuSans-6e" transform="translate(453.662109 0)"/>
      <use xlink:href="#DejaVuSans-63" transform="translate(517.041016 0)"/>
      <use xlink:href="#DejaVuSans-68" transform="translate(572.021484 0)"/>
      <use xlink:href="#DejaVuSans-20" transform="translate(635.400391 0)"/>
      <use xlink:href="#DejaVuSans-63" transform="translate(667.1875 0)"/>
      <use xlink:href="#DejaVuSans-6f" transform="translate(722.167969 0)"/>
      <use xlink:href="#DejaVuSans-76" transform="translate(783.349609 0)"/>
      <use xlink:href="#DejaVuSans-65" transform="translate(842.529297 0)"/>
      <use xlink:href="#DejaVuSans-72" transform="translate(904.052734 0)"/>
      <use xlink:href="#DejaVuSans-61" transform="translate(945.166016 0)"/>
      <use xlink:href="#DejaVuSans-67" transform="translate(1006.445312 0)"/>
      <use xlink:href="#DejaVuSans-65" transform="translate(1069.921875 0)"/>
     </g>
    </g>
   </g>
   <g id="line2d_22">
    <path d="M 53.328125 276.334125 
L 549.478659 180.147542 
L 589.155427 177.114062 
L 612.364848 173.448608 
L 628.832194 125.797699 
L 641.60526 125.165724 
L 652.041615 125.165724 
L 660.865428 125.165724 
L 668.508962 125.165724 
L 675.251036 125.165724 
L 681.282028 105.068921 
L 686.737723 105.068921 
L 691.718383 104.436946 
L 696.300145 104.436946 
L 700.542195 104.436946 
L 704.491449 103.299391 
L 708.185729 102.793812 
L 711.655972 102.035442 
L 714.927804 102.035442 
L 718.022691 99.886727 
L 720.958795 99.886727 
L 723.751616 99.886727 
L 726.41449 99.886727 
L 728.958975 99.886727 
L 731.39515 99.507542 
L 733.731861 99.507542 
L 735.976913 99.507542 
L 738.137225 99.507542 
L 740.218962 99.507542 
L 742.227641 99.507542 
L 744.168216 99.254752 
L 746.045154 99.254752 
L 747.862496 97.990802 
L 749.623912 97.990802 
L 751.332739 88.005598 
L 752.992029 86.362464 
L 754.604571 86.362464 
L 756.172929 86.362464 
L 757.699459 86.362464 
L 759.186334 86.362464 
L 760.635563 86.362464 
L 762.049004 86.362464 
L 763.428384 86.362464 
L 764.775304 86.236069 
" clip-path="url(#pa1314d5da5)" style="fill: none; stroke: #d62728; stroke-width: 1.5; stroke-linecap: square"/>
    <defs>
     <path id="ma70e25b440" d="M 0 -3 
L -3 3 
L 3 3 
z
" style="stroke: #ffffff; stroke-width: 0.75; stroke-linejoin: miter"/>
    </defs>
    <g clip-path="url(#pa1314d5da5)">
     <use xlink:href="#ma70e25b440" x="53.328125" y="276.334125" style="fill: #d62728; stroke: #ffffff; stroke-width: 0.75; stroke-linejoin: miter"/>
     <use xlink:href="#ma70e25b440" x="549.478659" y="180.147542" style="fill: #d62728; stroke: #ffffff; stroke-width: 0.75; stroke-linejoin: miter"/>
     <use xlink:href="#ma70e25b440" x="589.155427" y="177.114062" style="fill: #d62728; stroke: #ffffff; stroke-width: 0.75; stroke-linejoin: miter"/>
     <use xlink:href="#ma70e25b440" x="612.364848" y="173.448608" style="fill: #d62728; stroke: #ffffff; stroke-width: 0.75; stroke-linejoin: miter"/>
     <use xlink:href="#ma70e25b440" x="628.832194" y="125.797699" style="fill: #d62728; stroke: #ffffff; stroke-width: 0.75; stroke-linejoin: miter"/>
     <use xlink:href="#ma70e25b440" x="641.60526" y="125.165724" style="fill: #d62728; stroke: #ffffff; stroke-width: 0.75; stroke-linejoin: miter"/>
     <use xlink:href="#ma70e25b440" x="652.041615" y="125.165724" style="fill: #d62728; stroke: #ffffff; stroke-width: 0.75; stroke-linejoin: miter"/>
     <use xlink:href="#ma70e25b440" x="660.865428" y="125.165724" style="fill: #d62728; stroke: #ffffff; stroke-width: 0.75; stroke-linejoin: miter"/>
     <use xlink:href="#ma70e25b440" x="668.508962" y="125.165724" style="fill: #d62728; stroke: #ffffff; stroke-width: 0.75; stroke-linejoin: miter"/>
     <use xlink:href="#ma70e25b440" x="675.251036" y="125.165724" style="fill: #d62728; stroke: #ffffff; stroke-width: 0.75; stroke-linejoin: miter"/>
     <use xlink:href="#ma70e25b440" x="681.282028" y="105.068921" style="fill: #d62728; stroke: #ffffff; stroke-width: 0.75; stroke-linejoin: miter"/>
     <use xlink:href="#ma70e25b440" x="686.737723" y="105.068921" style="fill: #d62728; stroke: #ffffff; stroke-width: 0.75; stroke-linejoin: miter"/>
     <use xlink:href="#ma70e25b440" x="691.718383" y="104.436946" style="fill: #d62728; stroke: #ffffff; stroke-width: 0.75; stroke-linejoin: miter"/>
     <use xlink:href="#ma70e25b440" x="696.300145" y="104.436946" style="fill: #d62728; stroke: #ffffff; stroke-width: 0.75; stroke-linejoin: miter"/>
     <use xlink:href="#ma70e25b440" x="700.542195" y="104.436946" style="fill: #d62728; stroke: #ffffff; stroke-width: 0.75; stroke-linejoin: miter"/>
     <use xlink:href="#ma70e25b440" x="704.491449" y="103.299391" style="fill: #d62728; stroke: #ffffff; stroke-width: 0.75; stroke-linejoin: miter"/>
     <use xlink:href="#ma70e25b440" x="708.185729" y="102.793812" style="fill: #d62728; stroke: #ffffff; stroke-width: 0.75; stroke-linejoin: miter"/>
     <use xlink:href="#ma70e25b440" x="711.655972" y="102.035442" style="fill: #d62728; stroke: #ffffff; stroke-width: 0.75; stroke-linejoin: miter"/>
     <use xlink:href="#ma70e25b440" x="714.927804" y="102.035442" style="fill: #d62728; stroke: #ffffff; stroke-width: 0.75; stroke-linejoin: miter"/>
     <use xlink:href="#ma70e25b440" x="718.022691" y="99.886727" style="fill: #d62728; stroke: #ffffff; stroke-width: 0.75; stroke-linejoin: miter"/>
     <use xlink:href="#ma70e25b440" x="720.958795" y="99.886727" style="fill: #d62728; stroke: #ffffff; stroke-width: 0.75; stroke-linejoin: miter"/>
     <use xlink:href="#ma70e25b440" x="723.751616" y="99.886727" style="fill: #d62728; stroke: #ffffff; stroke-width: 0.75; stroke-linejoin: miter"/>
     <use xlink:href="#ma70e25b440" x="726.41449" y="99.886727" style="fill: #d62728; stroke: #ffffff; stroke-width: 0.75; stroke-linejoin: miter"/>
     <use xlink:href="#ma70e25b440" x="728.958975" y="99.886727" style="fill: #d62728; stroke: #ffffff; stroke-width: 0.75; stroke-linejoin: miter"/>
     <use xlink:href="#ma70e25b440" x="731.39515" y="99.507542" style="fill: #d62728; stroke: #ffffff; stroke-width: 0.75; stroke-linejoin: miter"/>
     <use xlink:href="#ma70e25b440" x="733.731861" y="99.507542" style="fill: #d62728; stroke: #ffffff; stroke-width: 0.75; stroke-linejoin: miter"/>
     <use xlink:href="#ma70e25b440" x="735.976913" y="99.507542" style="fill: #d62728; stroke: #ffffff; stroke-width: 0.75; stroke-linejoin: miter"/>
     <use xlink:href="#ma70e25b440" x="738.137225" y="99.507542" style="fill: #d62728; stroke: #ffffff; stroke-width: 0.75; stroke-linejoin: miter"/>
     <use xlink:href="#ma70e25b440" x="740.218962" y="99.507542" style="fill: #d62728; stroke: #ffffff; stroke-width: 0.75; stroke-linejoin: miter"/>
     <use xlink:href="#ma70e25b440" x="742.227641" y="99.507542" style="fill: #d62728; stroke: #ffffff; stroke-width: 0.75; stroke-linejoin: miter"/>
     <use xlink:href="#ma70e25b440" x="744.168216" y="99.254752" style="fill: #d62728; stroke: #ffffff; stroke-width: 0.75; stroke-linejoin: miter"/>
     <use xlink:href="#ma70e25b440" x="746.045154" y="99.254752" style="fill: #d62728; stroke: #ffffff; stroke-width: 0.75; stroke-linejoin: miter"/>
     <use xlink:href="#ma70e25b440" x="747.862496" y="97.990802" style="fill: #d62728; stroke: #ffffff; stroke-width: 0.75; stroke-linejoin: miter"/>
     <use xlink:href="#ma70e25b440" x="749.623912" y="97.990802" style="fill: #d62728; stroke: #ffffff; stroke-width: 0.75; stroke-linejoin: miter"/>
     <use xlink:href="#ma70e25b440" x="751.332739" y="88.005598" style="fill: #d62728; stroke: #ffffff; stroke-width: 0.75; stroke-linejoin: miter"/>
     <use xlink:href="#ma70e25b440" x="752.992029" y="86.362464" style="fill: #d62728; stroke: #ffffff; stroke-width: 0.75; stroke-linejoin: miter"/>
     <use xlink:href="#ma70e25b440" x="754.604571" y="86.362464" style="fill: #d62728; stroke: #ffffff; stroke-width: 0.75; stroke-linejoin: miter"/>
     <use xlink:href="#ma70e25b440" x="756.172929" y="86.362464" style="fill: #d62728; stroke: #ffffff; stroke-width: 0.75; stroke-linejoin: miter"/>
     <use xlink:href="#ma70e25b440" x="757.699459" y="86.362464" style="fill: #d62728; stroke: #ffffff; stroke-width: 0.75; stroke-linejoin: miter"/>
     <use xlink:href="#ma70e25b440" x="759.186334" y="86.362464" style="fill: #d62728; stroke: #ffffff; stroke-width: 0.75; stroke-linejoin: miter"/>
     <use xlink:href="#ma70e25b440" x="760.635563" y="86.362464" style="fill: #d62728; stroke: #ffffff; stroke-width: 0.75; stroke-linejoin: miter"/>
     <use xlink:href="#ma70e25b440" x="762.049004" y="86.362464" style="fill: #d62728; stroke: #ffffff; stroke-width: 0.75; stroke-linejoin: miter"/>
     <use xlink:href="#ma70e25b440" x="763.428384" y="86.362464" style="fill: #d62728; stroke: #ffffff; stroke-width: 0.75; stroke-linejoin: miter"/>
     <use xlink:href="#ma70e25b440" x="764.775304" y="86.236069" style="fill: #d62728; stroke: #ffffff; stroke-width: 0.75; stroke-linejoin: miter"/>
    </g>
   </g>
   <g id="line2d_23">
    <path d="M 53.328125 276.334125 
L 549.478659 193.103028 
L 589.155427 184.255379 
L 612.364848 176.545285 
L 628.832194 175.40773 
L 641.60526 148.675191 
L 652.041615 147.664031 
L 660.865428 140.775504 
L 668.508962 140.649109 
L 675.251036 139.827542 
L 681.282028 139.764344 
L 686.737723 139.574752 
L 691.718383 138.753185 
L 696.300145 138.184407 
L 700.542195 138.058012 
L 704.491449 137.931617 
L 708.185729 136.920457 
L 711.655972 136.85726 
L 714.927804 136.478075 
L 718.022691 136.35168 
L 720.958795 131.611868 
L 723.751616 131.54867 
L 726.41449 131.54867 
L 728.958975 131.54867 
L 731.39515 131.422275 
L 733.731861 131.422275 
L 735.976913 131.422275 
L 738.137225 131.422275 
L 740.218962 131.422275 
L 742.227641 131.422275 
L 744.168216 93.440583 
L 746.045154 93.440583 
L 747.862496 89.522338 
L 749.623912 89.522338 
L 751.332739 89.522338 
L 752.992029 89.459141 
L 754.604571 89.459141 
L 756.172929 89.459141 
L 757.699459 89.459141 
L 759.186334 89.459141 
L 760.635563 85.288106 
L 762.049004 84.529736 
L 763.428384 84.529736 
L 764.775304 84.466539 
" clip-path="url(#pa1314d5da5)" style="fill: none; stroke: #98df8a; stroke-width: 1.5; stroke-linecap: square"/>
    <defs>
     <path id="mfbc32df697" d="M -0 3 
L 3 -3 
L -3 -3 
z
" style="stroke: #ffffff; stroke-width: 0.75; stroke-linejoin: miter"/>
    </defs>
    <g clip-path="url(#pa1314d5da5)">
     <use xlink:href="#mfbc32df697" x="53.328125" y="276.334125" style="fill: #98df8a; stroke: #ffffff; stroke-width: 0.75; stroke-linejoin: miter"/>
     <use xlink:href="#mfbc32df697" x="549.478659" y="193.103028" style="fill: #98df8a; stroke: #ffffff; stroke-width: 0.75; stroke-linejoin: miter"/>
     <use xlink:href="#mfbc32df697" x="589.155427" y="184.255379" style="fill: #98df8a; stroke: #ffffff; stroke-width: 0.75; stroke-linejoin: miter"/>
     <use xlink:href="#mfbc32df697" x="612.364848" y="176.545285" style="fill: #98df8a; stroke: #ffffff; stroke-width: 0.75; stroke-linejoin: miter"/>
     <use xlink:href="#mfbc32df697" x="628.832194" y="175.40773" style="fill: #98df8a; stroke: #ffffff; stroke-width: 0.75; stroke-linejoin: miter"/>
     <use xlink:href="#mfbc32df697" x="641.60526" y="148.675191" style="fill: #98df8a; stroke: #ffffff; stroke-width: 0.75; stroke-linejoin: miter"/>
     <use xlink:href="#mfbc32df697" x="652.041615" y="147.664031" style="fill: #98df8a; stroke: #ffffff; stroke-width: 0.75; stroke-linejoin: miter"/>
     <use xlink:href="#mfbc32df697" x="660.865428" y="140.775504" style="fill: #98df8a; stroke: #ffffff; stroke-width: 0.75; stroke-linejoin: miter"/>
     <use xlink:href="#mfbc32df697" x="668.508962" y="140.649109" style="fill: #98df8a; stroke: #ffffff; stroke-width: 0.75; stroke-linejoin: miter"/>
     <use xlink:href="#mfbc32df697" x="675.251036" y="139.827542" style="fill: #98df8a; stroke: #ffffff; stroke-width: 0.75; stroke-linejoin: miter"/>
     <use xlink:href="#mfbc32df697" x="681.282028" y="139.764344" style="fill: #98df8a; stroke: #ffffff; stroke-width: 0.75; stroke-linejoin: miter"/>
     <use xlink:href="#mfbc32df697" x="686.737723" y="139.574752" style="fill: #98df8a; stroke: #ffffff; stroke-width: 0.75; stroke-linejoin: miter"/>
     <use xlink:href="#mfbc32df697" x="691.718383" y="138.753185" style="fill: #98df8a; stroke: #ffffff; stroke-width: 0.75; stroke-linejoin: miter"/>
     <use xlink:href="#mfbc32df697" x="696.300145" y="138.184407" style="fill: #98df8a; stroke: #ffffff; stroke-width: 0.75; stroke-linejoin: miter"/>
     <use xlink:href="#mfbc32df697" x="700.542195" y="138.058012" style="fill: #98df8a; stroke: #ffffff; stroke-width: 0.75; stroke-linejoin: miter"/>
     <use xlink:href="#mfbc32df697" x="704.491449" y="137.931617" style="fill: #98df8a; stroke: #ffffff; stroke-width: 0.75; stroke-linejoin: miter"/>
     <use xlink:href="#mfbc32df697" x="708.185729" y="136.920457" style="fill: #98df8a; stroke: #ffffff; stroke-width: 0.75; stroke-linejoin: miter"/>
     <use xlink:href="#mfbc32df697" x="711.655972" y="136.85726" style="fill: #98df8a; stroke: #ffffff; stroke-width: 0.75; stroke-linejoin: miter"/>
     <use xlink:href="#mfbc32df697" x="714.927804" y="136.478075" style="fill: #98df8a; stroke: #ffffff; stroke-width: 0.75; stroke-linejoin: miter"/>
     <use xlink:href="#mfbc32df697" x="718.022691" y="136.35168" style="fill: #98df8a; stroke: #ffffff; stroke-width: 0.75; stroke-linejoin: miter"/>
     <use xlink:href="#mfbc32df697" x="720.958795" y="131.611868" style="fill: #98df8a; stroke: #ffffff; stroke-width: 0.75; stroke-linejoin: miter"/>
     <use xlink:href="#mfbc32df697" x="723.751616" y="131.54867" style="fill: #98df8a; stroke: #ffffff; stroke-width: 0.75; stroke-linejoin: miter"/>
     <use xlink:href="#mfbc32df697" x="726.41449" y="131.54867" style="fill: #98df8a; stroke: #ffffff; stroke-width: 0.75; stroke-linejoin: miter"/>
     <use xlink:href="#mfbc32df697" x="728.958975" y="131.54867" style="fill: #98df8a; stroke: #ffffff; stroke-width: 0.75; stroke-linejoin: miter"/>
     <use xlink:href="#mfbc32df697" x="731.39515" y="131.422275" style="fill: #98df8a; stroke: #ffffff; stroke-width: 0.75; stroke-linejoin: miter"/>
     <use xlink:href="#mfbc32df697" x="733.731861" y="131.422275" style="fill: #98df8a; stroke: #ffffff; stroke-width: 0.75; stroke-linejoin: miter"/>
     <use xlink:href="#mfbc32df697" x="735.976913" y="131.422275" style="fill: #98df8a; stroke: #ffffff; stroke-width: 0.75; stroke-linejoin: miter"/>
     <use xlink:href="#mfbc32df697" x="738.137225" y="131.422275" style="fill: #98df8a; stroke: #ffffff; stroke-width: 0.75; stroke-linejoin: miter"/>
     <use xlink:href="#mfbc32df697" x="740.218962" y="131.422275" style="fill: #98df8a; stroke: #ffffff; stroke-width: 0.75; stroke-linejoin: miter"/>
     <use xlink:href="#mfbc32df697" x="742.227641" y="131.422275" style="fill: #98df8a; stroke: #ffffff; stroke-width: 0.75; stroke-linejoin: miter"/>
     <use xlink:href="#mfbc32df697" x="744.168216" y="93.440583" style="fill: #98df8a; stroke: #ffffff; stroke-width: 0.75; stroke-linejoin: miter"/>
     <use xlink:href="#mfbc32df697" x="746.045154" y="93.440583" style="fill: #98df8a; stroke: #ffffff; stroke-width: 0.75; stroke-linejoin: miter"/>
     <use xlink:href="#mfbc32df697" x="747.862496" y="89.522338" style="fill: #98df8a; stroke: #ffffff; stroke-width: 0.75; stroke-linejoin: miter"/>
     <use xlink:href="#mfbc32df697" x="749.623912" y="89.522338" style="fill: #98df8a; stroke: #ffffff; stroke-width: 0.75; stroke-linejoin: miter"/>
     <use xlink:href="#mfbc32df697" x="751.332739" y="89.522338" style="fill: #98df8a; stroke: #ffffff; stroke-width: 0.75; stroke-linejoin: miter"/>
     <use xlink:href="#mfbc32df697" x="752.992029" y="89.459141" style="fill: #98df8a; stroke: #ffffff; stroke-width: 0.75; stroke-linejoin: miter"/>
     <use xlink:href="#mfbc32df697" x="754.604571" y="89.459141" style="fill: #98df8a; stroke: #ffffff; stroke-width: 0.75; stroke-linejoin: miter"/>
     <use xlink:href="#mfbc32df697" x="756.172929" y="89.459141" style="fill: #98df8a; stroke: #ffffff; stroke-width: 0.75; stroke-linejoin: miter"/>
     <use xlink:href="#mfbc32df697" x="757.699459" y="89.459141" style="fill: #98df8a; stroke: #ffffff; stroke-width: 0.75; stroke-linejoin: miter"/>
     <use xlink:href="#mfbc32df697" x="759.186334" y="89.459141" style="fill: #98df8a; stroke: #ffffff; stroke-width: 0.75; stroke-linejoin: miter"/>
     <use xlink:href="#mfbc32df697" x="760.635563" y="85.288106" style="fill: #98df8a; stroke: #ffffff; stroke-width: 0.75; stroke-linejoin: miter"/>
     <use xlink:href="#mfbc32df697" x="762.049004" y="84.529736" style="fill: #98df8a; stroke: #ffffff; stroke-width: 0.75; stroke-linejoin: miter"/>
     <use xlink:href="#mfbc32df697" x="763.428384" y="84.529736" style="fill: #98df8a; stroke: #ffffff; stroke-width: 0.75; stroke-linejoin: miter"/>
     <use xlink:href="#mfbc32df697" x="764.775304" y="84.466539" style="fill: #98df8a; stroke: #ffffff; stroke-width: 0.75; stroke-linejoin: miter"/>
    </g>
   </g>
   <g id="line2d_24">
    <path d="M 53.328125 276.334125 
L 549.478659 194.30378 
L 589.155427 178.251617 
L 612.364848 176.798075 
L 628.832194 142.039454 
L 641.60526 106.332871 
L 652.041615 105.511304 
L 660.865428 104.626539 
L 668.508962 98.496382 
L 675.251036 97.927605 
L 681.282028 96.474062 
L 686.737723 96.474062 
L 691.718383 96.410865 
L 696.300145 96.410865 
L 700.542195 96.221272 
L 704.491449 96.221272 
L 708.185729 96.094877 
L 711.655972 94.894125 
L 714.927804 94.76773 
L 718.022691 94.76773 
L 720.958795 94.76773 
L 723.751616 94.76773 
L 726.41449 94.641335 
L 728.958975 94.641335 
L 731.39515 94.578138 
L 733.731861 94.451743 
L 735.976913 94.451743 
L 738.137225 94.198953 
L 740.218962 94.135755 
L 742.227641 94.135755 
L 744.168216 94.00936 
L 746.045154 94.00936 
L 747.862496 89.395943 
L 749.623912 89.395943 
L 751.332739 89.395943 
L 752.992029 88.511178 
L 754.604571 88.511178 
L 756.172929 87.626413 
L 757.699459 87.626413 
L 759.186334 87.626413 
L 760.635563 87.626413 
L 762.049004 87.626413 
L 763.428384 87.626413 
L 764.775304 87.626413 
" clip-path="url(#pa1314d5da5)" style="fill: none; stroke: #1f77b4; stroke-width: 1.5; stroke-linecap: square"/>
    <defs>
     <path id="m180c77e94a" d="M 0 3 
C 0.795609 3 1.55874 2.683901 2.12132 2.12132 
C 2.683901 1.55874 3 0.795609 3 0 
C 3 -0.795609 2.683901 -1.55874 2.12132 -2.12132 
C 1.55874 -2.683901 0.795609 -3 0 -3 
C -0.795609 -3 -1.55874 -2.683901 -2.12132 -2.12132 
C -2.683901 -1.55874 -3 -0.795609 -3 0 
C -3 0.795609 -2.683901 1.55874 -2.12132 2.12132 
C -1.55874 2.683901 -0.795609 3 0 3 
z
" style="stroke: #ffffff; stroke-width: 0.75"/>
    </defs>
    <g clip-path="url(#pa1314d5da5)">
     <use xlink:href="#m180c77e94a" x="53.328125" y="276.334125" style="fill: #1f77b4; stroke: #ffffff; stroke-width: 0.75"/>
     <use xlink:href="#m180c77e94a" x="549.478659" y="194.30378" style="fill: #1f77b4; stroke: #ffffff; stroke-width: 0.75"/>
     <use xlink:href="#m180c77e94a" x="589.155427" y="178.251617" style="fill: #1f77b4; stroke: #ffffff; stroke-width: 0.75"/>
     <use xlink:href="#m180c77e94a" x="612.364848" y="176.798075" style="fill: #1f77b4; stroke: #ffffff; stroke-width: 0.75"/>
     <use xlink:href="#m180c77e94a" x="628.832194" y="142.039454" style="fill: #1f77b4; stroke: #ffffff; stroke-width: 0.75"/>
     <use xlink:href="#m180c77e94a" x="641.60526" y="106.332871" style="fill: #1f77b4; stroke: #ffffff; stroke-width: 0.75"/>
     <use xlink:href="#m180c77e94a" x="652.041615" y="105.511304" style="fill: #1f77b4; stroke: #ffffff; stroke-width: 0.75"/>
     <use xlink:href="#m180c77e94a" x="660.865428" y="104.626539" style="fill: #1f77b4; stroke: #ffffff; stroke-width: 0.75"/>
     <use xlink:href="#m180c77e94a" x="668.508962" y="98.496382" style="fill: #1f77b4; stroke: #ffffff; stroke-width: 0.75"/>
     <use xlink:href="#m180c77e94a" x="675.251036" y="97.927605" style="fill: #1f77b4; stroke: #ffffff; stroke-width: 0.75"/>
     <use xlink:href="#m180c77e94a" x="681.282028" y="96.474062" style="fill: #1f77b4; stroke: #ffffff; stroke-width: 0.75"/>
     <use xlink:href="#m180c77e94a" x="686.737723" y="96.474062" style="fill: #1f77b4; stroke: #ffffff; stroke-width: 0.75"/>
     <use xlink:href="#m180c77e94a" x="691.718383" y="96.410865" style="fill: #1f77b4; stroke: #ffffff; stroke-width: 0.75"/>
     <use xlink:href="#m180c77e94a" x="696.300145" y="96.410865" style="fill: #1f77b4; stroke: #ffffff; stroke-width: 0.75"/>
     <use xlink:href="#m180c77e94a" x="700.542195" y="96.221272" style="fill: #1f77b4; stroke: #ffffff; stroke-width: 0.75"/>
     <use xlink:href="#m180c77e94a" x="704.491449" y="96.221272" style="fill: #1f77b4; stroke: #ffffff; stroke-width: 0.75"/>
     <use xlink:href="#m180c77e94a" x="708.185729" y="96.094877" style="fill: #1f77b4; stroke: #ffffff; stroke-width: 0.75"/>
     <use xlink:href="#m180c77e94a" x="711.655972" y="94.894125" style="fill: #1f77b4; stroke: #ffffff; stroke-width: 0.75"/>
     <use xlink:href="#m180c77e94a" x="714.927804" y="94.76773" style="fill: #1f77b4; stroke: #ffffff; stroke-width: 0.75"/>
     <use xlink:href="#m180c77e94a" x="718.022691" y="94.76773" style="fill: #1f77b4; stroke: #ffffff; stroke-width: 0.75"/>
     <use xlink:href="#m180c77e94a" x="720.958795" y="94.76773" style="fill: #1f77b4; stroke: #ffffff; stroke-width: 0.75"/>
     <use xlink:href="#m180c77e94a" x="723.751616" y="94.76773" style="fill: #1f77b4; stroke: #ffffff; stroke-width: 0.75"/>
     <use xlink:href="#m180c77e94a" x="726.41449" y="94.641335" style="fill: #1f77b4; stroke: #ffffff; stroke-width: 0.75"/>
     <use xlink:href="#m180c77e94a" x="728.958975" y="94.641335" style="fill: #1f77b4; stroke: #ffffff; stroke-width: 0.75"/>
     <use xlink:href="#m180c77e94a" x="731.39515" y="94.578138" style="fill: #1f77b4; stroke: #ffffff; stroke-width: 0.75"/>
     <use xlink:href="#m180c77e94a" x="733.731861" y="94.451743" style="fill: #1f77b4; stroke: #ffffff; stroke-width: 0.75"/>
     <use xlink:href="#m180c77e94a" x="735.976913" y="94.451743" style="fill: #1f77b4; stroke: #ffffff; stroke-width: 0.75"/>
     <use xlink:href="#m180c77e94a" x="738.137225" y="94.198953" style="fill: #1f77b4; stroke: #ffffff; stroke-width: 0.75"/>
     <use xlink:href="#m180c77e94a" x="740.218962" y="94.135755" style="fill: #1f77b4; stroke: #ffffff; stroke-width: 0.75"/>
     <use xlink:href="#m180c77e94a" x="742.227641" y="94.135755" style="fill: #1f77b4; stroke: #ffffff; stroke-width: 0.75"/>
     <use xlink:href="#m180c77e94a" x="744.168216" y="94.00936" style="fill: #1f77b4; stroke: #ffffff; stroke-width: 0.75"/>
     <use xlink:href="#m180c77e94a" x="746.045154" y="94.00936" style="fill: #1f77b4; stroke: #ffffff; stroke-width: 0.75"/>
     <use xlink:href="#m180c77e94a" x="747.862496" y="89.395943" style="fill: #1f77b4; stroke: #ffffff; stroke-width: 0.75"/>
     <use xlink:href="#m180c77e94a" x="749.623912" y="89.395943" style="fill: #1f77b4; stroke: #ffffff; stroke-width: 0.75"/>
     <use xlink:href="#m180c77e94a" x="751.332739" y="89.395943" style="fill: #1f77b4; stroke: #ffffff; stroke-width: 0.75"/>
     <use xlink:href="#m180c77e94a" x="752.992029" y="88.511178" style="fill: #1f77b4; stroke: #ffffff; stroke-width: 0.75"/>
     <use xlink:href="#m180c77e94a" x="754.604571" y="88.511178" style="fill: #1f77b4; stroke: #ffffff; stroke-width: 0.75"/>
     <use xlink:href="#m180c77e94a" x="756.172929" y="87.626413" style="fill: #1f77b4; stroke: #ffffff; stroke-width: 0.75"/>
     <use xlink:href="#m180c77e94a" x="757.699459" y="87.626413" style="fill: #1f77b4; stroke: #ffffff; stroke-width: 0.75"/>
     <use xlink:href="#m180c77e94a" x="759.186334" y="87.626413" style="fill: #1f77b4; stroke: #ffffff; stroke-width: 0.75"/>
     <use xlink:href="#m180c77e94a" x="760.635563" y="87.626413" style="fill: #1f77b4; stroke: #ffffff; stroke-width: 0.75"/>
     <use xlink:href="#m180c77e94a" x="762.049004" y="87.626413" style="fill: #1f77b4; stroke: #ffffff; stroke-width: 0.75"/>
     <use xlink:href="#m180c77e94a" x="763.428384" y="87.626413" style="fill: #1f77b4; stroke: #ffffff; stroke-width: 0.75"/>
     <use xlink:href="#m180c77e94a" x="764.775304" y="87.626413" style="fill: #1f77b4; stroke: #ffffff; stroke-width: 0.75"/>
    </g>
   </g>
   <g id="line2d_25">
    <path d="M 53.328125 276.334125 
L 549.478659 197.463655 
L 589.155427 195.694125 
L 612.364848 190.132746 
L 628.832194 174.333373 
L 641.60526 174.333373 
L 652.041615 165.612119 
L 660.865428 165.359329 
L 668.508962 165.359329 
L 675.251036 165.359329 
L 681.282028 165.359329 
L 686.737723 165.359329 
L 691.718383 163.716194 
L 696.300145 163.589799 
L 700.542195 104.563341 
L 704.491449 104.563341 
L 708.185729 104.310551 
L 711.655972 104.184156 
L 714.927804 104.184156 
L 718.022691 104.184156 
L 720.958795 104.184156 
L 723.751616 104.184156 
L 726.41449 103.804971 
L 728.958975 103.552181 
L 731.39515 101.403467 
L 733.731861 101.403467 
L 735.976913 101.150677 
L 738.137225 101.150677 
L 740.218962 99.507542 
L 742.227641 99.001962 
L 744.168216 97.611617 
L 746.045154 97.611617 
L 747.862496 97.611617 
L 749.623912 97.611617 
L 751.332739 97.611617 
L 752.992029 97.485222 
L 754.604571 97.485222 
L 756.172929 97.485222 
L 757.699459 97.358827 
L 759.186334 97.358827 
L 760.635563 97.358827 
L 762.049004 96.726852 
L 763.428384 96.600457 
L 764.775304 95.083717 
" clip-path="url(#pa1314d5da5)" style="fill: none; stroke: #c7c7c7; stroke-width: 1.5; stroke-linecap: square"/>
    <defs>
     <path id="me092af4da4" d="M -3 -0 
L 3 3 
L 3 -3 
z
" style="stroke: #ffffff; stroke-width: 0.75; stroke-linejoin: miter"/>
    </defs>
    <g clip-path="url(#pa1314d5da5)">
     <use xlink:href="#me092af4da4" x="53.328125" y="276.334125" style="fill: #c7c7c7; stroke: #ffffff; stroke-width: 0.75; stroke-linejoin: miter"/>
     <use xlink:href="#me092af4da4" x="549.478659" y="197.463655" style="fill: #c7c7c7; stroke: #ffffff; stroke-width: 0.75; stroke-linejoin: miter"/>
     <use xlink:href="#me092af4da4" x="589.155427" y="195.694125" style="fill: #c7c7c7; stroke: #ffffff; stroke-width: 0.75; stroke-linejoin: miter"/>
     <use xlink:href="#me092af4da4" x="612.364848" y="190.132746" style="fill: #c7c7c7; stroke: #ffffff; stroke-width: 0.75; stroke-linejoin: miter"/>
     <use xlink:href="#me092af4da4" x="628.832194" y="174.333373" style="fill: #c7c7c7; stroke: #ffffff; stroke-width: 0.75; stroke-linejoin: miter"/>
     <use xlink:href="#me092af4da4" x="641.60526" y="174.333373" style="fill: #c7c7c7; stroke: #ffffff; stroke-width: 0.75; stroke-linejoin: miter"/>
     <use xlink:href="#me092af4da4" x="652.041615" y="165.612119" style="fill: #c7c7c7; stroke: #ffffff; stroke-width: 0.75; stroke-linejoin: miter"/>
     <use xlink:href="#me092af4da4" x="660.865428" y="165.359329" style="fill: #c7c7c7; stroke: #ffffff; stroke-width: 0.75; stroke-linejoin: miter"/>
     <use xlink:href="#me092af4da4" x="668.508962" y="165.359329" style="fill: #c7c7c7; stroke: #ffffff; stroke-width: 0.75; stroke-linejoin: miter"/>
     <use xlink:href="#me092af4da4" x="675.251036" y="165.359329" style="fill: #c7c7c7; stroke: #ffffff; stroke-width: 0.75; stroke-linejoin: miter"/>
     <use xlink:href="#me092af4da4" x="681.282028" y="165.359329" style="fill: #c7c7c7; stroke: #ffffff; stroke-width: 0.75; stroke-linejoin: miter"/>
     <use xlink:href="#me092af4da4" x="686.737723" y="165.359329" style="fill: #c7c7c7; stroke: #ffffff; stroke-width: 0.75; stroke-linejoin: miter"/>
     <use xlink:href="#me092af4da4" x="691.718383" y="163.716194" style="fill: #c7c7c7; stroke: #ffffff; stroke-width: 0.75; stroke-linejoin: miter"/>
     <use xlink:href="#me092af4da4" x="696.300145" y="163.589799" style="fill: #c7c7c7; stroke: #ffffff; stroke-width: 0.75; stroke-linejoin: miter"/>
     <use xlink:href="#me092af4da4" x="700.542195" y="104.563341" style="fill: #c7c7c7; stroke: #ffffff; stroke-width: 0.75; stroke-linejoin: miter"/>
     <use xlink:href="#me092af4da4" x="704.491449" y="104.563341" style="fill: #c7c7c7; stroke: #ffffff; stroke-width: 0.75; stroke-linejoin: miter"/>
     <use xlink:href="#me092af4da4" x="708.185729" y="104.310551" style="fill: #c7c7c7; stroke: #ffffff; stroke-width: 0.75; stroke-linejoin: miter"/>
     <use xlink:href="#me092af4da4" x="711.655972" y="104.184156" style="fill: #c7c7c7; stroke: #ffffff; stroke-width: 0.75; stroke-linejoin: miter"/>
     <use xlink:href="#me092af4da4" x="714.927804" y="104.184156" style="fill: #c7c7c7; stroke: #ffffff; stroke-width: 0.75; stroke-linejoin: miter"/>
     <use xlink:href="#me092af4da4" x="718.022691" y="104.184156" style="fill: #c7c7c7; stroke: #ffffff; stroke-width: 0.75; stroke-linejoin: miter"/>
     <use xlink:href="#me092af4da4" x="720.958795" y="104.184156" style="fill: #c7c7c7; stroke: #ffffff; stroke-width: 0.75; stroke-linejoin: miter"/>
     <use xlink:href="#me092af4da4" x="723.751616" y="104.184156" style="fill: #c7c7c7; stroke: #ffffff; stroke-width: 0.75; stroke-linejoin: miter"/>
     <use xlink:href="#me092af4da4" x="726.41449" y="103.804971" style="fill: #c7c7c7; stroke: #ffffff; stroke-width: 0.75; stroke-linejoin: miter"/>
     <use xlink:href="#me092af4da4" x="728.958975" y="103.552181" style="fill: #c7c7c7; stroke: #ffffff; stroke-width: 0.75; stroke-linejoin: miter"/>
     <use xlink:href="#me092af4da4" x="731.39515" y="101.403467" style="fill: #c7c7c7; stroke: #ffffff; stroke-width: 0.75; stroke-linejoin: miter"/>
     <use xlink:href="#me092af4da4" x="733.731861" y="101.403467" style="fill: #c7c7c7; stroke: #ffffff; stroke-width: 0.75; stroke-linejoin: miter"/>
     <use xlink:href="#me092af4da4" x="735.976913" y="101.150677" style="fill: #c7c7c7; stroke: #ffffff; stroke-width: 0.75; stroke-linejoin: miter"/>
     <use xlink:href="#me092af4da4" x="738.137225" y="101.150677" style="fill: #c7c7c7; stroke: #ffffff; stroke-width: 0.75; stroke-linejoin: miter"/>
     <use xlink:href="#me092af4da4" x="740.218962" y="99.507542" style="fill: #c7c7c7; stroke: #ffffff; stroke-width: 0.75; stroke-linejoin: miter"/>
     <use xlink:href="#me092af4da4" x="742.227641" y="99.001962" style="fill: #c7c7c7; stroke: #ffffff; stroke-width: 0.75; stroke-linejoin: miter"/>
     <use xlink:href="#me092af4da4" x="744.168216" y="97.611617" style="fill: #c7c7c7; stroke: #ffffff; stroke-width: 0.75; stroke-linejoin: miter"/>
     <use xlink:href="#me092af4da4" x="746.045154" y="97.611617" style="fill: #c7c7c7; stroke: #ffffff; stroke-width: 0.75; stroke-linejoin: miter"/>
     <use xlink:href="#me092af4da4" x="747.862496" y="97.611617" style="fill: #c7c7c7; stroke: #ffffff; stroke-width: 0.75; stroke-linejoin: miter"/>
     <use xlink:href="#me092af4da4" x="749.623912" y="97.611617" style="fill: #c7c7c7; stroke: #ffffff; stroke-width: 0.75; stroke-linejoin: miter"/>
     <use xlink:href="#me092af4da4" x="751.332739" y="97.611617" style="fill: #c7c7c7; stroke: #ffffff; stroke-width: 0.75; stroke-linejoin: miter"/>
     <use xlink:href="#me092af4da4" x="752.992029" y="97.485222" style="fill: #c7c7c7; stroke: #ffffff; stroke-width: 0.75; stroke-linejoin: miter"/>
     <use xlink:href="#me092af4da4" x="754.604571" y="97.485222" style="fill: #c7c7c7; stroke: #ffffff; stroke-width: 0.75; stroke-linejoin: miter"/>
     <use xlink:href="#me092af4da4" x="756.172929" y="97.485222" style="fill: #c7c7c7; stroke: #ffffff; stroke-width: 0.75; stroke-linejoin: miter"/>
     <use xlink:href="#me092af4da4" x="757.699459" y="97.358827" style="fill: #c7c7c7; stroke: #ffffff; stroke-width: 0.75; stroke-linejoin: miter"/>
     <use xlink:href="#me092af4da4" x="759.186334" y="97.358827" style="fill: #c7c7c7; stroke: #ffffff; stroke-width: 0.75; stroke-linejoin: miter"/>
     <use xlink:href="#me092af4da4" x="760.635563" y="97.358827" style="fill: #c7c7c7; stroke: #ffffff; stroke-width: 0.75; stroke-linejoin: miter"/>
     <use xlink:href="#me092af4da4" x="762.049004" y="96.726852" style="fill: #c7c7c7; stroke: #ffffff; stroke-width: 0.75; stroke-linejoin: miter"/>
     <use xlink:href="#me092af4da4" x="763.428384" y="96.600457" style="fill: #c7c7c7; stroke: #ffffff; stroke-width: 0.75; stroke-linejoin: miter"/>
     <use xlink:href="#me092af4da4" x="764.775304" y="95.083717" style="fill: #c7c7c7; stroke: #ffffff; stroke-width: 0.75; stroke-linejoin: miter"/>
    </g>
   </g>
   <g id="line2d_26"/>
   <g id="line2d_27"/>
   <g id="line2d_28"/>
   <g id="line2d_29"/>
   <g id="line2d_30">
    <path d="M 764.775304 288.430125 
L 764.775304 22.318125 
" clip-path="url(#pa1314d5da5)" style="fill: none; stroke: #ff0000; stroke-width: 1.5; stroke-linecap: square"/>
   </g>
   <g id="patch_3">
    <path d="M 53.328125 281.137134 
L 53.328125 28.347166 
" style="fill: none; stroke: #000000; stroke-width: 0.8; stroke-linejoin: miter; stroke-linecap: square"/>
   </g>
   <g id="patch_4">
    <path d="M 53.328125 288.430125 
L 764.776783 288.430125 
" style="fill: none; stroke: #000000; stroke-width: 0.8; stroke-linejoin: miter; stroke-linecap: square"/>
   </g>
   <g id="text_20">
    <!-- lcms_cms_transform_fuzzer (10h:45m, at least 3 trials/fuzzer) -->
    <g transform="translate(224.69 16.318125) scale(0.12 -0.12)">
     <defs>
      <path id="DejaVuSans-6c" d="M 603 4863 
L 1178 4863 
L 1178 0 
L 603 0 
L 603 4863 
z
" transform="scale(0.015625)"/>
      <path id="DejaVuSans-73" d="M 2834 3397 
L 2834 2853 
Q 2591 2978 2328 3040 
Q 2066 3103 1784 3103 
Q 1356 3103 1142 2972 
Q 928 2841 928 2578 
Q 928 2378 1081 2264 
Q 1234 2150 1697 2047 
L 1894 2003 
Q 2506 1872 2764 1633 
Q 3022 1394 3022 966 
Q 3022 478 2636 193 
Q 2250 -91 1575 -91 
Q 1294 -91 989 -36 
Q 684 19 347 128 
L 347 722 
Q 666 556 975 473 
Q 1284 391 1588 391 
Q 1994 391 2212 530 
Q 2431 669 2431 922 
Q 2431 1156 2273 1281 
Q 2116 1406 1581 1522 
L 1381 1569 
Q 847 1681 609 1914 
Q 372 2147 372 2553 
Q 372 3047 722 3315 
Q 1072 3584 1716 3584 
Q 2034 3584 2315 3537 
Q 2597 3491 2834 3397 
z
" transform="scale(0.015625)"/>
      <path id="DejaVuSans-5f" d="M 3263 -1063 
L 3263 -1509 
L -63 -1509 
L -63 -1063 
L 3263 -1063 
z
" transform="scale(0.015625)"/>
      <path id="DejaVuSans-66" d="M 2375 4863 
L 2375 4384 
L 1825 4384 
Q 1516 4384 1395 4259 
Q 1275 4134 1275 3809 
L 1275 3500 
L 2222 3500 
L 2222 3053 
L 1275 3053 
L 1275 0 
L 697 0 
L 697 3053 
L 147 3053 
L 147 3500 
L 697 3500 
L 697 3744 
Q 697 4328 969 4595 
Q 1241 4863 1831 4863 
L 2375 4863 
z
" transform="scale(0.015625)"/>
      <path id="DejaVuSans-7a" d="M 353 3500 
L 3084 3500 
L 3084 2975 
L 922 459 
L 3084 459 
L 3084 0 
L 275 0 
L 275 525 
L 2438 3041 
L 353 3041 
L 353 3500 
z
" transform="scale(0.015625)"/>
      <path id="DejaVuSans-2c" d="M 750 794 
L 1409 794 
L 1409 256 
L 897 -744 
L 494 -744 
L 750 256 
L 750 794 
z
" transform="scale(0.015625)"/>
      <path id="DejaVuSans-2f" d="M 1625 4666 
L 2156 4666 
L 531 -594 
L 0 -594 
L 1625 4666 
z
" transform="scale(0.015625)"/>
     </defs>
     <use xlink:href="#DejaVuSans-6c"/>
     <use xlink:href="#DejaVuSans-63" transform="translate(27.783203 0)"/>
     <use xlink:href="#DejaVuSans-6d" transform="translate(82.763672 0)"/>
     <use xlink:href="#DejaVuSans-73" transform="translate(180.175781 0)"/>
     <use xlink:href="#DejaVuSans-5f" transform="translate(232.275391 0)"/>
     <use xlink:href="#DejaVuSans-63" transform="translate(282.275391 0)"/>
     <use xlink:href="#DejaVuSans-6d" transform="translate(337.255859 0)"/>
     <use xlink:href="#DejaVuSans-73" transform="translate(434.667969 0)"/>
     <use xlink:href="#DejaVuSans-5f" transform="translate(486.767578 0)"/>
     <use xlink:href="#DejaVuSans-74" transform="translate(536.767578 0)"/>
     <use xlink:href="#DejaVuSans-72" transform="translate(575.976562 0)"/>
     <use xlink:href="#DejaVuSans-61" transform="translate(617.089844 0)"/>
     <use xlink:href="#DejaVuSans-6e" transform="translate(678.369141 0)"/>
     <use xlink:href="#DejaVuSans-73" transform="translate(741.748047 0)"/>
     <use xlink:href="#DejaVuSans-66" transform="translate(793.847656 0)"/>
     <use xlink:href="#DejaVuSans-6f" transform="translate(829.052734 0)"/>
     <use xlink:href="#DejaVuSans-72" transform="translate(890.234375 0)"/>
     <use xlink:href="#DejaVuSans-6d" transform="translate(929.597656 0)"/>
     <use xlink:href="#DejaVuSans-5f" transform="translate(1027.009766 0)"/>
     <use xlink:href="#DejaVuSans-66" transform="translate(1077.009766 0)"/>
     <use xlink:href="#DejaVuSans-75" transform="translate(1112.214844 0)"/>
     <use xlink:href="#DejaVuSans-7a" transform="translate(1175.59375 0)"/>
     <use xlink:href="#DejaVuSans-7a" transform="translate(1228.083984 0)"/>
     <use xlink:href="#DejaVuSans-65" transform="translate(1280.574219 0)"/>
     <use xlink:href="#DejaVuSans-72" transform="translate(1342.097656 0)"/>
     <use xlink:href="#DejaVuSans-20" transform="translate(1383.210938 0)"/>
     <use xlink:href="#DejaVuSans-28" transform="translate(1414.998047 0)"/>
     <use xlink:href="#DejaVuSans-31" transform="translate(1454.011719 0)"/>
     <use xlink:href="#DejaVuSans-30" transform="translate(1517.634766 0)"/>
     <use xlink:href="#DejaVuSans-68" transform="translate(1581.257812 0)"/>
     <use xlink:href="#DejaVuSans-3a" transform="translate(1644.636719 0)"/>
     <use xlink:href="#DejaVuSans-34" transform="translate(1678.328125 0)"/>
     <use xlink:href="#DejaVuSans-35" transform="translate(1741.951172 0)"/>
     <use xlink:href="#DejaVuSans-6d" transform="translate(1805.574219 0)"/>
     <use xlink:href="#DejaVuSans-2c" transform="translate(1902.986328 0)"/>
     <use xlink:href="#DejaVuSans-20" transform="translate(1934.773438 0)"/>
     <use xlink:href="#DejaVuSans-61" transform="translate(1966.560547 0)"/>
     <use xlink:href="#DejaVuSans-74" transform="translate(2027.839844 0)"/>
     <use xlink:href="#DejaVuSans-20" transform="translate(2067.048828 0)"/>
     <use xlink:href="#DejaVuSans-6c" transform="translate(2098.835938 0)"/>
     <use xlink:href="#DejaVuSans-65" transform="translate(2126.619141 0)"/>
     <use xlink:href="#DejaVuSans-61" transform="translate(2188.142578 0)"/>
     <use xlink:href="#DejaVuSans-73" transform="translate(2249.421875 0)"/>
     <use xlink:href="#DejaVuSans-74" transform="translate(2301.521484 0)"/>
     <use xlink:href="#DejaVuSans-20" transform="translate(2340.730469 0)"/>
     <use xlink:href="#DejaVuSans-33" transform="translate(2372.517578 0)"/>
     <use xlink:href="#DejaVuSans-20" transform="translate(2436.140625 0)"/>
     <use xlink:href="#DejaVuSans-74" transform="translate(2467.927734 0)"/>
     <use xlink:href="#DejaVuSans-72" transform="translate(2507.136719 0)"/>
     <use xlink:href="#DejaVuSans-69" transform="translate(2548.25 0)"/>
     <use xlink:href="#DejaVuSans-61" transform="translate(2576.033203 0)"/>
     <use xlink:href="#DejaVuSans-6c" transform="translate(2637.3125 0)"/>
     <use xlink:href="#DejaVuSans-73" transform="translate(2665.095703 0)"/>
     <use xlink:href="#DejaVuSans-2f" transform="translate(2717.195312 0)"/>
     <use xlink:href="#DejaVuSans-66" transform="translate(2750.886719 0)"/>
     <use xlink:href="#DejaVuSans-75" transform="translate(2786.091797 0)"/>
     <use xlink:href="#DejaVuSans-7a" transform="translate(2849.470703 0)"/>
     <use xlink:href="#DejaVuSans-7a" transform="translate(2901.960938 0)"/>
     <use xlink:href="#DejaVuSans-65" transform="translate(2954.451172 0)"/>
     <use xlink:href="#DejaVuSans-72" transform="translate(3015.974609 0)"/>
     <use xlink:href="#DejaVuSans-29" transform="translate(3057.087891 0)"/>
    </g>
   </g>
   <g id="legend_1">
    <g id="line2d_31">
     <path d="M 771.568125 30.416562 
L 781.568125 30.416562 
L 791.568125 30.416562 
" style="fill: none; stroke: #d62728; stroke-width: 1.5; stroke-linecap: square"/>
     <g>
      <use xlink:href="#ma70e25b440" x="781.568125" y="30.416562" style="fill: #d62728; stroke: #ffffff; stroke-width: 0.75; stroke-linejoin: miter"/>
     </g>
    </g>
    <g id="text_21">
     <!-- aflplusplus_c11 -->
     <g transform="translate(799.568125 33.916562) scale(0.1 -0.1)">
      <defs>
       <path id="DejaVuSans-70" d="M 1159 525 
L 1159 -1331 
L 581 -1331 
L 581 3500 
L 1159 3500 
L 1159 2969 
Q 1341 3281 1617 3432 
Q 1894 3584 2278 3584 
Q 2916 3584 3314 3078 
Q 3713 2572 3713 1747 
Q 3713 922 3314 415 
Q 2916 -91 2278 -91 
Q 1894 -91 1617 61 
Q 1341 213 1159 525 
z
M 3116 1747 
Q 3116 2381 2855 2742 
Q 2594 3103 2138 3103 
Q 1681 3103 1420 2742 
Q 1159 2381 1159 1747 
Q 1159 1113 1420 752 
Q 1681 391 2138 391 
Q 2594 391 2855 752 
Q 3116 1113 3116 1747 
z
" transform="scale(0.015625)"/>
      </defs>
      <use xlink:href="#DejaVuSans-61"/>
      <use xlink:href="#DejaVuSans-66" transform="translate(61.279297 0)"/>
      <use xlink:href="#DejaVuSans-6c" transform="translate(96.484375 0)"/>
      <use xlink:href="#DejaVuSans-70" transform="translate(124.267578 0)"/>
      <use xlink:href="#DejaVuSans-6c" transform="translate(187.744141 0)"/>
      <use xlink:href="#DejaVuSans-75" transform="translate(215.527344 0)"/>
      <use xlink:href="#DejaVuSans-73" transform="translate(278.90625 0)"/>
      <use xlink:href="#DejaVuSans-70" transform="translate(331.005859 0)"/>
      <use xlink:href="#DejaVuSans-6c" transform="translate(394.482422 0)"/>
      <use xlink:href="#DejaVuSans-75" transform="translate(422.265625 0)"/>
      <use xlink:href="#DejaVuSans-73" transform="translate(485.644531 0)"/>
      <use xlink:href="#DejaVuSans-5f" transform="translate(537.744141 0)"/>
      <use xlink:href="#DejaVuSans-63" transform="translate(587.744141 0)"/>
      <use xlink:href="#DejaVuSans-31" transform="translate(642.724609 0)"/>
      <use xlink:href="#DejaVuSans-31" transform="translate(706.347656 0)"/>
     </g>
    </g>
    <g id="line2d_32">
     <path d="M 771.568125 45.372813 
L 781.568125 45.372813 
L 791.568125 45.372813 
" style="fill: none; stroke: #98df8a; stroke-width: 1.5; stroke-linecap: square"/>
     <g>
      <use xlink:href="#mfbc32df697" x="781.568125" y="45.372813" style="fill: #98df8a; stroke: #ffffff; stroke-width: 0.75; stroke-linejoin: miter"/>
     </g>
    </g>
    <g id="text_22">
     <!-- aflplusplus_500c -->
     <g transform="translate(799.568125 48.872813) scale(0.1 -0.1)">
      <use xlink:href="#DejaVuSans-61"/>
      <use xlink:href="#DejaVuSans-66" transform="translate(61.279297 0)"/>
      <use xlink:href="#DejaVuSans-6c" transform="translate(96.484375 0)"/>
      <use xlink:href="#DejaVuSans-70" transform="translate(124.267578 0)"/>
      <use xlink:href="#DejaVuSans-6c" transform="translate(187.744141 0)"/>
      <use xlink:href="#DejaVuSans-75" transform="translate(215.527344 0)"/>
      <use xlink:href="#DejaVuSans-73" transform="translate(278.90625 0)"/>
      <use xlink:href="#DejaVuSans-70" transform="translate(331.005859 0)"/>
      <use xlink:href="#DejaVuSans-6c" transform="translate(394.482422 0)"/>
      <use xlink:href="#DejaVuSans-75" transform="translate(422.265625 0)"/>
      <use xlink:href="#DejaVuSans-73" transform="translate(485.644531 0)"/>
      <use xlink:href="#DejaVuSans-5f" transform="translate(537.744141 0)"/>
      <use xlink:href="#DejaVuSans-35" transform="translate(587.744141 0)"/>
      <use xlink:href="#DejaVuSans-30" transform="translate(651.367188 0)"/>
      <use xlink:href="#DejaVuSans-30" transform="translate(714.990234 0)"/>
      <use xlink:href="#DejaVuSans-63" transform="translate(778.613281 0)"/>
     </g>
    </g>
    <g id="line2d_33">
     <path d="M 771.568125 60.329063 
L 781.568125 60.329063 
L 791.568125 60.329063 
" style="fill: none; stroke: #1f77b4; stroke-width: 1.5; stroke-linecap: square"/>
     <g>
      <use xlink:href="#m180c77e94a" x="781.568125" y="60.329063" style="fill: #1f77b4; stroke: #ffffff; stroke-width: 0.75"/>
     </g>
    </g>
    <g id="text_23">
     <!-- aflplusplus_440c -->
     <g transform="translate(799.568125 63.829063) scale(0.1 -0.1)">
      <use xlink:href="#DejaVuSans-61"/>
      <use xlink:href="#DejaVuSans-66" transform="translate(61.279297 0)"/>
      <use xlink:href="#DejaVuSans-6c" transform="translate(96.484375 0)"/>
      <use xlink:href="#DejaVuSans-70" transform="translate(124.267578 0)"/>
      <use xlink:href="#DejaVuSans-6c" transform="translate(187.744141 0)"/>
      <use xlink:href="#DejaVuSans-75" transform="translate(215.527344 0)"/>
      <use xlink:href="#DejaVuSans-73" transform="translate(278.90625 0)"/>
      <use xlink:href="#DejaVuSans-70" transform="translate(331.005859 0)"/>
      <use xlink:href="#DejaVuSans-6c" transform="translate(394.482422 0)"/>
      <use xlink:href="#DejaVuSans-75" transform="translate(422.265625 0)"/>
      <use xlink:href="#DejaVuSans-73" transform="translate(485.644531 0)"/>
      <use xlink:href="#DejaVuSans-5f" transform="translate(537.744141 0)"/>
      <use xlink:href="#DejaVuSans-34" transform="translate(587.744141 0)"/>
      <use xlink:href="#DejaVuSans-34" transform="translate(651.367188 0)"/>
      <use xlink:href="#DejaVuSans-30" transform="translate(714.990234 0)"/>
      <use xlink:href="#DejaVuSans-63" transform="translate(778.613281 0)"/>
     </g>
    </g>
    <g id="line2d_34">
     <path d="M 771.568125 75.285313 
L 781.568125 75.285313 
L 791.568125 75.285313 
" style="fill: none; stroke: #c7c7c7; stroke-width: 1.5; stroke-linecap: square"/>
     <g>
      <use xlink:href="#me092af4da4" x="781.568125" y="75.285313" style="fill: #c7c7c7; stroke: #ffffff; stroke-width: 0.75; stroke-linejoin: miter"/>
     </g>
    </g>
    <g id="text_24">
     <!-- aflplusplus_mopt -->
     <g transform="translate(799.568125 78.785313) scale(0.1 -0.1)">
      <use xlink:href="#DejaVuSans-61"/>
      <use xlink:href="#DejaVuSans-66" transform="translate(61.279297 0)"/>
      <use xlink:href="#DejaVuSans-6c" transform="translate(96.484375 0)"/>
      <use xlink:href="#DejaVuSans-70" transform="translate(124.267578 0)"/>
      <use xlink:href="#DejaVuSans-6c" transform="translate(187.744141 0)"/>
      <use xlink:href="#DejaVuSans-75" transform="translate(215.527344 0)"/>
      <use xlink:href="#DejaVuSans-73" transform="translate(278.90625 0)"/>
      <use xlink:href="#DejaVuSans-70" transform="translate(331.005859 0)"/>
      <use xlink:href="#DejaVuSans-6c" transform="translate(394.482422 0)"/>
      <use xlink:href="#DejaVuSans-75" transform="translate(422.265625 0)"/>
      <use xlink:href="#DejaVuSans-73" transform="translate(485.644531 0)"/>
      <use xlink:href="#DejaVuSans-5f" transform="translate(537.744141 0)"/>
      <use xlink:href="#DejaVuSans-6d" transform="translate(587.744141 0)"/>
      <use xlink:href="#DejaVuSans-6f" transform="translate(685.15625 0)"/>
      <use xlink:href="#DejaVuSans-70" transform="translate(746.337891 0)"/>
      <use xlink:href="#DejaVuSans-74" transform="translate(809.814453 0)"/>
     </g>
    </g>
   </g>
  </g>
 </g>
 <defs>
  <clipPath id="pa1314d5da5">
   <rect x="53.328125" y="22.318125" width="714.24" height="266.112"/>
  </clipPath>
 </defs>
</svg>
