<?xml version="1.0" encoding="utf-8" standalone="no"?>
<!DOCTYPE svg PUBLIC "-//W3C//DTD SVG 1.1//EN"
  "http://www.w3.org/Graphics/SVG/1.1/DTD/svg11.dtd">
<svg xmlns:xlink="http://www.w3.org/1999/xlink" width="895.669687pt" height="325.986375pt" viewBox="0 0 895.669687 325.986375" xmlns="http://www.w3.org/2000/svg" version="1.1">
 <metadata>
  <rdf:RDF xmlns:dc="http://purl.org/dc/elements/1.1/" xmlns:cc="http://creativecommons.org/ns#" xmlns:rdf="http://www.w3.org/1999/02/22-rdf-syntax-ns#">
   <cc:Work>
    <dc:type rdf:resource="http://purl.org/dc/dcmitype/StillImage"/>
    <dc:date>2026-06-10T05:51:18.493475</dc:date>
    <dc:format>image/svg+xml</dc:format>
    <dc:creator>
     <cc:Agent>
      <dc:title>Matplotlib v3.10.9, https://matplotlib.org/</dc:title>
     </cc:Agent>
    </dc:creator>
   </cc:Work>
  </rdf:RDF>
 </metadata>
 <defs>
  <style type="text/css">*{stroke-linejoin: round; stroke-linecap: butt}</style>
 </defs>
 <g id="figure_1">
  <g id="patch_1">
   <path d="M 0 325.986375 
L 895.669688 325.986375 
L 895.669688 0 
L 0 0 
z
" style="fill: #ffffff"/>
  </g>
  <g id="axes_1">
   <g id="patch_2">
    <path d="M 53.328125 288.430125 
L 767.568125 288.430125 
L 767.568125 22.318125 
L 53.328125 22.318125 
z
" style="fill: #ffffff"/>
   </g>
   <g id="FillBetweenPolyCollection_1">
    <defs>
     <path id="m0c25d07022" d="M 53.328125 -49.65225 
L 53.328125 -49.65225 
L 65.26196 -225.551652 
L 77.195794 -227.806773 
L 89.129629 -234.960948 
L 101.063463 -239.160138 
L 112.997298 -246.236551 
L 124.931133 -253.468489 
L 136.864967 -254.868219 
L 148.798802 -254.945982 
L 160.732636 -255.17927 
L 172.666471 -255.17927 
L 184.600305 -255.334796 
L 196.53414 -256.190186 
L 208.467975 -256.656763 
L 220.401809 -258.289781 
L 232.335644 -258.367544 
L 244.269478 -258.367544 
L 256.203313 -258.445307 
L 268.137148 -258.600832 
L 280.070982 -260.544902 
L 292.004817 -260.855953 
L 303.938651 -260.933716 
L 315.872486 -261.244767 
L 327.80632 -261.555818 
L 339.740155 -261.789106 
L 351.67399 -263.111074 
L 363.607824 -263.57765 
L 375.541659 -263.499887 
L 387.475493 -264.899617 
L 399.409328 -265.132906 
L 411.343163 -265.366194 
L 423.276997 -266.454873 
L 435.210832 -267.232501 
L 447.144666 -267.77684 
L 459.078501 -267.77684 
L 471.012336 -267.932366 
L 482.94617 -268.010128 
L 494.880005 -268.087891 
L 506.813839 -268.865519 
L 518.747674 -270.109723 
L 530.681508 -270.498537 
L 542.615343 -270.498537 
L 554.549178 -270.654063 
L 566.483012 -270.731826 
L 578.416847 -271.276165 
L 590.350681 -271.353928 
L 602.284516 -272.131556 
L 614.218351 -272.209318 
L 626.152185 -273.142472 
L 638.08602 -273.37576 
L 650.019854 -273.609048 
L 661.953689 -274.77549 
L 673.887523 -274.853253 
L 685.821358 -274.853253 
L 697.755193 -274.853253 
L 709.689027 -275.086541 
L 721.622862 -275.31983 
L 733.556696 -275.864169 
L 733.556696 -288.617264 
L 733.556696 -288.617264 
L 721.622862 -288.617264 
L 709.689027 -288.539502 
L 697.755193 -288.539502 
L 685.821358 -288.150688 
L 673.887523 -288.150688 
L 661.953689 -287.995162 
L 650.019854 -287.062009 
L 638.08602 -286.284381 
L 626.152185 -286.284381 
L 614.218351 -285.040177 
L 602.284516 -284.651363 
L 590.350681 -284.651363 
L 578.416847 -284.5736 
L 566.483012 -283.951498 
L 554.549178 -283.951498 
L 542.615343 -283.951498 
L 530.681508 -283.873735 
L 518.747674 -283.795972 
L 506.813839 -283.018345 
L 494.880005 -283.018345 
L 482.94617 -283.018345 
L 471.012336 -283.018345 
L 459.078501 -282.940582 
L 447.144666 -282.862819 
L 435.210832 -282.31848 
L 423.276997 -282.31848 
L 411.343163 -282.240717 
L 399.409328 -282.162954 
L 387.475493 -282.162954 
L 375.541659 -281.929666 
L 363.607824 -281.929666 
L 351.67399 -281.696377 
L 339.740155 -281.618615 
L 327.80632 -281.463089 
L 315.872486 -281.152038 
L 303.938651 -280.37441 
L 292.004817 -278.819155 
L 280.070982 -278.819155 
L 268.137148 -278.741392 
L 256.203313 -278.663629 
L 244.269478 -278.041527 
L 232.335644 -278.041527 
L 220.401809 -277.730476 
L 208.467975 -277.652713 
L 196.53414 -277.186136 
L 184.600305 -275.864169 
L 172.666471 -274.77549 
L 160.732636 -274.77549 
L 148.798802 -272.986946 
L 136.864967 -272.753658 
L 124.931133 -272.598132 
L 112.997298 -271.587216 
L 101.063463 -263.888701 
L 89.129629 -262.566734 
L 77.195794 -260.544902 
L 65.26196 -259.37846 
L 53.328125 -49.65225 
z
" style="stroke: #1f77b4; stroke-opacity: 0.2"/>
    </defs>
    <g clip-path="url(#p465cbd2317)">
     <use xlink:href="#m0c25d07022" x="0" y="325.986375" style="fill: #1f77b4; fill-opacity: 0.2; stroke: #1f77b4; stroke-opacity: 0.2"/>
    </g>
   </g>
   <g id="FillBetweenPolyCollection_2">
    <defs>
     <path id="m4556893b25" d="M 53.328125 -49.65225 
L 53.328125 -49.65225 
L 65.26196 -220.885885 
L 77.195794 -224.38521 
L 89.129629 -226.251517 
L 101.063463 -232.083725 
L 112.997298 -233.405693 
L 124.931133 -234.494372 
L 136.864967 -235.427525 
L 148.798802 -240.404343 
L 160.732636 -241.804073 
L 172.666471 -241.881835 
L 184.600305 -242.115124 
L 196.53414 -242.5817 
L 208.467975 -245.536686 
L 220.401809 -251.368894 
L 232.335644 -253.935066 
L 244.269478 -254.090591 
L 256.203313 -254.634931 
L 268.137148 -259.611749 
L 280.070982 -259.767274 
L 292.004817 -261.478055 
L 303.938651 -261.478055 
L 315.872486 -261.478055 
L 327.80632 -263.266599 
L 339.740155 -263.266599 
L 351.67399 -263.57765 
L 363.607824 -263.655413 
L 375.541659 -263.888701 
L 387.475493 -264.12199 
L 399.409328 -264.588566 
L 411.343163 -265.132906 
L 423.276997 -265.443957 
L 435.210832 -265.443957 
L 447.144666 -265.443957 
L 459.078501 -265.52172 
L 471.012336 -265.755008 
L 482.94617 -265.988296 
L 494.880005 -266.066059 
L 506.813839 -266.066059 
L 518.747674 -266.37711 
L 530.681508 -266.532636 
L 542.615343 -267.076975 
L 554.549178 -267.154738 
L 566.483012 -267.232501 
L 578.416847 -267.388026 
L 590.350681 -267.388026 
L 602.284516 -267.543552 
L 614.218351 -267.543552 
L 626.152185 -268.554468 
L 638.08602 -268.709993 
L 650.019854 -270.5763 
L 661.953689 -270.809588 
L 673.887523 -270.965114 
L 685.821358 -271.042877 
L 697.755193 -271.276165 
L 709.689027 -272.909183 
L 721.622862 -273.453523 
L 733.556696 -273.453523 
L 733.556696 -291.57225 
L 733.556696 -291.57225 
L 721.622862 -291.57225 
L 709.689027 -291.57225 
L 697.755193 -291.57225 
L 685.821358 -291.57225 
L 673.887523 -291.494487 
L 661.953689 -291.416724 
L 650.019854 -291.416724 
L 638.08602 -291.338962 
L 626.152185 -291.183436 
L 614.218351 -291.183436 
L 602.284516 -290.872385 
L 590.350681 -290.094757 
L 578.416847 -289.861469 
L 566.483012 -289.861469 
L 554.549178 -289.083841 
L 542.615343 -289.006078 
L 530.681508 -289.006078 
L 518.747674 -289.006078 
L 506.813839 -288.461739 
L 494.880005 -288.306213 
L 482.94617 -280.607698 
L 471.012336 -280.607698 
L 459.078501 -280.296647 
L 447.144666 -280.063359 
L 435.210832 -279.752308 
L 423.276997 -279.596782 
L 411.343163 -278.741392 
L 399.409328 -278.430341 
L 387.475493 -278.430341 
L 375.541659 -278.274815 
L 363.607824 -278.274815 
L 351.67399 -278.274815 
L 339.740155 -278.197052 
L 327.80632 -277.730476 
L 315.872486 -277.57495 
L 303.938651 -277.186136 
L 292.004817 -274.075625 
L 280.070982 -274.075625 
L 268.137148 -273.997862 
L 256.203313 -273.764574 
L 244.269478 -273.764574 
L 232.335644 -273.609048 
L 220.401809 -272.753658 
L 208.467975 -271.587216 
L 196.53414 -262.955548 
L 184.600305 -262.488971 
L 172.666471 -262.17792 
L 160.732636 -261.789106 
L 148.798802 -261.400292 
L 136.864967 -259.611749 
L 124.931133 -255.645847 
L 112.997298 -255.568084 
L 101.063463 -250.591266 
L 89.129629 -250.046927 
L 77.195794 -248.025095 
L 65.26196 -243.592616 
L 53.328125 -49.65225 
z
" style="stroke: #d62728; stroke-opacity: 0.2"/>
    </defs>
    <g clip-path="url(#p465cbd2317)">
     <use xlink:href="#m4556893b25" x="0" y="325.986375" style="fill: #d62728; fill-opacity: 0.2; stroke: #d62728; stroke-opacity: 0.2"/>
    </g>
   </g>
   <g id="FillBetweenPolyCollection_3">
    <defs>
     <path id="ma4fe640fb2" d="M 53.328125 -49.65225 
L 53.328125 -49.65225 
L 65.26196 -222.752192 
L 77.195794 -224.92955 
L 89.129629 -228.351112 
L 101.063463 -229.284265 
L 112.997298 -231.850437 
L 124.931133 -233.094642 
L 136.864967 -233.094642 
L 148.798802 -233.405693 
L 160.732636 -233.638981 
L 172.666471 -235.58305 
L 184.600305 -237.449357 
L 196.53414 -239.704478 
L 208.467975 -240.482105 
L 220.401809 -241.104208 
L 232.335644 -243.281565 
L 244.269478 -243.514854 
L 256.203313 -243.514854 
L 268.137148 -243.514854 
L 280.070982 -244.059193 
L 292.004817 -244.136956 
L 303.938651 -244.136956 
L 315.872486 -244.214719 
L 327.80632 -244.292481 
L 339.740155 -244.292481 
L 351.67399 -244.292481 
L 363.607824 -244.292481 
L 375.541659 -244.292481 
L 387.475493 -244.292481 
L 399.409328 -244.370244 
L 411.343163 -244.52577 
L 423.276997 -244.52577 
L 435.210832 -244.836821 
L 447.144666 -245.38116 
L 459.078501 -245.769974 
L 471.012336 -245.769974 
L 482.94617 -246.003263 
L 494.880005 -251.057843 
L 506.813839 -251.913234 
L 518.747674 -252.068759 
L 530.681508 -252.068759 
L 542.615343 -261.089241 
L 554.549178 -261.789106 
L 566.483012 -261.944632 
L 578.416847 -261.944632 
L 590.350681 -262.72226 
L 602.284516 -264.899617 
L 614.218351 -266.299347 
L 626.152185 -267.232501 
L 638.08602 -267.543552 
L 650.019854 -267.621315 
L 661.953689 -268.554468 
L 673.887523 -268.787756 
L 685.821358 -269.332096 
L 697.755193 -269.487621 
L 709.689027 -269.72091 
L 721.622862 -270.187486 
L 733.556696 -270.187486 
L 733.556696 -291.494487 
L 733.556696 -291.494487 
L 721.622862 -291.183436 
L 709.689027 -291.105673 
L 697.755193 -291.105673 
L 685.821358 -291.027911 
L 673.887523 -290.872385 
L 661.953689 -290.872385 
L 650.019854 -290.872385 
L 638.08602 -289.783706 
L 626.152185 -289.472655 
L 614.218351 -289.472655 
L 602.284516 -289.472655 
L 590.350681 -289.394892 
L 578.416847 -289.161604 
L 566.483012 -288.539502 
L 554.549178 -288.228451 
L 542.615343 -288.150688 
L 530.681508 -288.150688 
L 518.747674 -288.150688 
L 506.813839 -288.150688 
L 494.880005 -288.150688 
L 482.94617 -288.072925 
L 471.012336 -287.761874 
L 459.078501 -287.450823 
L 447.144666 -287.450823 
L 435.210832 -287.295297 
L 423.276997 -286.517669 
L 411.343163 -286.439907 
L 399.409328 -285.273465 
L 387.475493 -284.651363 
L 375.541659 -284.107023 
L 363.607824 -283.640447 
L 351.67399 -281.152038 
L 339.740155 -280.840987 
L 327.80632 -278.663629 
L 315.872486 -278.352578 
L 303.938651 -278.274815 
L 292.004817 -278.041527 
L 280.070982 -278.041527 
L 268.137148 -277.652713 
L 256.203313 -277.57495 
L 244.269478 -277.497187 
L 232.335644 -273.764574 
L 220.401809 -273.220235 
L 208.467975 -273.064709 
L 196.53414 -273.064709 
L 184.600305 -272.675895 
L 172.666471 -271.664979 
L 160.732636 -270.965114 
L 148.798802 -270.420775 
L 136.864967 -269.565384 
L 124.931133 -268.243417 
L 112.997298 -268.165654 
L 101.063463 -266.454873 
L 89.129629 -264.355278 
L 77.195794 -262.644497 
L 65.26196 -254.479405 
L 53.328125 -49.65225 
z
" style="stroke: #98df8a; stroke-opacity: 0.2"/>
    </defs>
    <g clip-path="url(#p465cbd2317)">
     <use xlink:href="#ma4fe640fb2" x="0" y="325.986375" style="fill: #98df8a; fill-opacity: 0.2; stroke: #98df8a; stroke-opacity: 0.2"/>
    </g>
   </g>
   <g id="FillBetweenPolyCollection_4">
    <defs>
     <path id="m50c4bf8e17" d="M 53.328125 -49.65225 
L 53.328125 -49.65225 
L 65.26196 -225.396127 
L 77.195794 -228.662163 
L 89.129629 -231.694912 
L 101.063463 -232.161488 
L 112.997298 -232.861353 
L 124.931133 -232.861353 
L 136.864967 -238.226985 
L 148.798802 -240.482105 
L 160.732636 -240.870919 
L 172.666471 -240.870919 
L 184.600305 -240.870919 
L 196.53414 -240.870919 
L 208.467975 -240.948682 
L 220.401809 -240.948682 
L 232.335644 -240.948682 
L 244.269478 -241.259733 
L 256.203313 -241.259733 
L 268.137148 -241.493021 
L 280.070982 -241.493021 
L 292.004817 -241.570784 
L 303.938651 -241.881835 
L 315.872486 -246.003263 
L 327.80632 -247.091941 
L 339.740155 -247.091941 
L 351.67399 -247.247467 
L 363.607824 -247.247467 
L 375.541659 -256.345712 
L 387.475493 -256.423475 
L 399.409328 -257.589916 
L 411.343163 -257.900967 
L 423.276997 -257.97873 
L 435.210832 -258.52307 
L 447.144666 -259.845037 
L 459.078501 -261.633581 
L 471.012336 -261.711344 
L 482.94617 -261.866869 
L 494.880005 -262.100157 
L 506.813839 -262.100157 
L 518.747674 -262.100157 
L 530.681508 -262.17792 
L 542.615343 -263.033311 
L 554.549178 -263.188836 
L 566.483012 -263.422125 
L 578.416847 -263.499887 
L 590.350681 -263.655413 
L 602.284516 -264.744092 
L 614.218351 -266.610399 
L 626.152185 -266.610399 
L 638.08602 -266.610399 
L 650.019854 -266.610399 
L 661.953689 -266.688161 
L 673.887523 -266.92145 
L 685.821358 -267.154738 
L 697.755193 -267.388026 
L 709.689027 -267.77684 
L 721.622862 -267.854603 
L 733.556696 -267.854603 
L 733.556696 -287.450823 
L 733.556696 -287.450823 
L 721.622862 -287.295297 
L 709.689027 -287.295297 
L 697.755193 -287.217534 
L 685.821358 -287.062009 
L 673.887523 -286.984246 
L 661.953689 -286.750958 
L 650.019854 -286.750958 
L 638.08602 -285.817804 
L 626.152185 -285.506753 
L 614.218351 -284.029261 
L 602.284516 -283.873735 
L 590.350681 -283.096107 
L 578.416847 -282.862819 
L 566.483012 -282.240717 
L 554.549178 -281.851903 
L 542.615343 -276.71956 
L 530.681508 -275.630881 
L 518.747674 -275.630881 
L 506.813839 -272.831421 
L 494.880005 -272.598132 
L 482.94617 -272.598132 
L 471.012336 -272.131556 
L 459.078501 -272.131556 
L 447.144666 -271.431691 
L 435.210832 -271.198402 
L 423.276997 -271.198402 
L 411.343163 -270.420775 
L 399.409328 -269.876435 
L 387.475493 -269.098807 
L 375.541659 -268.943282 
L 363.607824 -268.943282 
L 351.67399 -268.554468 
L 339.740155 -268.398942 
L 327.80632 -268.398942 
L 315.872486 -268.398942 
L 303.938651 -268.398942 
L 292.004817 -267.621315 
L 280.070982 -267.621315 
L 268.137148 -267.465789 
L 256.203313 -267.465789 
L 244.269478 -267.465789 
L 232.335644 -267.388026 
L 220.401809 -266.610399 
L 208.467975 -266.454873 
L 196.53414 -266.37711 
L 184.600305 -266.37711 
L 172.666471 -265.910534 
L 160.732636 -265.832771 
L 148.798802 -264.899617 
L 136.864967 -264.588566 
L 124.931133 -264.277515 
L 112.997298 -257.512154 
L 101.063463 -256.034661 
L 89.129629 -255.101507 
L 77.195794 -246.392076 
L 65.26196 -243.903668 
L 53.328125 -49.65225 
z
" style="stroke: #c7c7c7; stroke-opacity: 0.2"/>
    </defs>
    <g clip-path="url(#p465cbd2317)">
     <use xlink:href="#m50c4bf8e17" x="0" y="325.986375" style="fill: #c7c7c7; fill-opacity: 0.2; stroke: #c7c7c7; stroke-opacity: 0.2"/>
    </g>
   </g>
   <g id="matplotlib.axis_1">
    <g id="xtick_1">
     <g id="line2d_1">
      <defs>
       <path id="m60fd0c1df4" d="M 0 0 
L 0 3.5 
" style="stroke: #000000; stroke-width: 0.8"/>
      </defs>
      <g>
       <use xlink:href="#m60fd0c1df4" x="53.328125" y="288.430125" style="stroke: #000000; stroke-width: 0.8"/>
      </g>
     </g>
     <g id="text_1">
      <!-- 0m -->
      <g transform="translate(45.276563 303.028562) scale(0.1 -0.1)">
       <defs>
        <path id="DejaVuSans-30" d="M 2034 4250 
Q 1547 4250 1301 3770 
Q 1056 3291 1056 2328 
Q 1056 1369 1301 889 
Q 1547 409 2034 409 
Q 2525 409 2770 889 
Q 3016 1369 3016 2328 
Q 3016 3291 2770 3770 
Q 2525 4250 2034 4250 
z
M 2034 4750 
Q 2819 4750 3233 4129 
Q 3647 3509 3647 2328 
Q 3647 1150 3233 529 
Q 2819 -91 2034 -91 
Q 1250 -91 836 529 
Q 422 1150 422 2328 
Q 422 3509 836 4129 
Q 1250 4750 2034 4750 
z
" transform="scale(0.015625)"/>
        <path id="DejaVuSans-6d" d="M 3328 2828 
Q 3544 3216 3844 3400 
Q 4144 3584 4550 3584 
Q 5097 3584 5394 3201 
Q 5691 2819 5691 2113 
L 5691 0 
L 5113 0 
L 5113 2094 
Q 5113 2597 4934 2840 
Q 4756 3084 4391 3084 
Q 3944 3084 3684 2787 
Q 3425 2491 3425 1978 
L 3425 0 
L 2847 0 
L 2847 2094 
Q 2847 2600 2669 2842 
Q 2491 3084 2119 3084 
Q 1678 3084 1418 2786 
Q 1159 2488 1159 1978 
L 1159 0 
L 581 0 
L 581 3500 
L 1159 3500 
L 1159 2956 
Q 1356 3278 1631 3431 
Q 1906 3584 2284 3584 
Q 2666 3584 2933 3390 
Q 3200 3197 3328 2828 
z
" transform="scale(0.015625)"/>
       </defs>
       <use xlink:href="#DejaVuSans-30"/>
       <use xlink:href="#DejaVuSans-6d" transform="translate(63.623047 0)"/>
      </g>
     </g>
    </g>
    <g id="xtick_2">
     <g id="line2d_2">
      <g>
       <use xlink:href="#m60fd0c1df4" x="110.013839" y="288.430125" style="stroke: #000000; stroke-width: 0.8"/>
      </g>
     </g>
     <g id="text_2">
      <!-- 1h:11m -->
      <g transform="translate(90.746652 303.028562) scale(0.1 -0.1)">
       <defs>
        <path id="DejaVuSans-31" d="M 794 531 
L 1825 531 
L 1825 4091 
L 703 3866 
L 703 4441 
L 1819 4666 
L 2450 4666 
L 2450 531 
L 3481 531 
L 3481 0 
L 794 0 
L 794 531 
z
" transform="scale(0.015625)"/>
        <path id="DejaVuSans-68" d="M 3513 2113 
L 3513 0 
L 2938 0 
L 2938 2094 
Q 2938 2591 2744 2837 
Q 2550 3084 2163 3084 
Q 1697 3084 1428 2787 
Q 1159 2491 1159 1978 
L 1159 0 
L 581 0 
L 581 4863 
L 1159 4863 
L 1159 2956 
Q 1366 3272 1645 3428 
Q 1925 3584 2291 3584 
Q 2894 3584 3203 3211 
Q 3513 2838 3513 2113 
z
" transform="scale(0.015625)"/>
        <path id="DejaVuSans-3a" d="M 750 794 
L 1409 794 
L 1409 0 
L 750 0 
L 750 794 
z
M 750 3309 
L 1409 3309 
L 1409 2516 
L 750 2516 
L 750 3309 
z
" transform="scale(0.015625)"/>
       </defs>
       <use xlink:href="#DejaVuSans-31"/>
       <use xlink:href="#DejaVuSans-68" transform="translate(63.623047 0)"/>
       <use xlink:href="#DejaVuSans-3a" transform="translate(127.001953 0)"/>
       <use xlink:href="#DejaVuSans-31" transform="translate(160.693359 0)"/>
       <use xlink:href="#DejaVuSans-31" transform="translate(224.316406 0)"/>
       <use xlink:href="#DejaVuSans-6d" transform="translate(287.939453 0)"/>
      </g>
     </g>
    </g>
    <g id="xtick_3">
     <g id="line2d_3">
      <g>
       <use xlink:href="#m60fd0c1df4" x="166.699554" y="288.430125" style="stroke: #000000; stroke-width: 0.8"/>
      </g>
     </g>
     <g id="text_3">
      <!-- 2h:22m -->
      <g transform="translate(147.432366 303.028562) scale(0.1 -0.1)">
       <defs>
        <path id="DejaVuSans-32" d="M 1228 531 
L 3431 531 
L 3431 0 
L 469 0 
L 469 531 
Q 828 903 1448 1529 
Q 2069 2156 2228 2338 
Q 2531 2678 2651 2914 
Q 2772 3150 2772 3378 
Q 2772 3750 2511 3984 
Q 2250 4219 1831 4219 
Q 1534 4219 1204 4116 
Q 875 4013 500 3803 
L 500 4441 
Q 881 4594 1212 4672 
Q 1544 4750 1819 4750 
Q 2544 4750 2975 4387 
Q 3406 4025 3406 3419 
Q 3406 3131 3298 2873 
Q 3191 2616 2906 2266 
Q 2828 2175 2409 1742 
Q 1991 1309 1228 531 
z
" transform="scale(0.015625)"/>
       </defs>
       <use xlink:href="#DejaVuSans-32"/>
       <use xlink:href="#DejaVuSans-68" transform="translate(63.623047 0)"/>
       <use xlink:href="#DejaVuSans-3a" transform="translate(127.001953 0)"/>
       <use xlink:href="#DejaVuSans-32" transform="translate(160.693359 0)"/>
       <use xlink:href="#DejaVuSans-32" transform="translate(224.316406 0)"/>
       <use xlink:href="#DejaVuSans-6d" transform="translate(287.939453 0)"/>
      </g>
     </g>
    </g>
    <g id="xtick_4">
     <g id="line2d_4">
      <g>
       <use xlink:href="#m60fd0c1df4" x="223.385268" y="288.430125" style="stroke: #000000; stroke-width: 0.8"/>
      </g>
     </g>
     <g id="text_4">
      <!-- 3h:33m -->
      <g transform="translate(204.11808 303.028562) scale(0.1 -0.1)">
       <defs>
        <path id="DejaVuSans-33" d="M 2597 2516 
Q 3050 2419 3304 2112 
Q 3559 1806 3559 1356 
Q 3559 666 3084 287 
Q 2609 -91 1734 -91 
Q 1441 -91 1130 -33 
Q 819 25 488 141 
L 488 750 
Q 750 597 1062 519 
Q 1375 441 1716 441 
Q 2309 441 2620 675 
Q 2931 909 2931 1356 
Q 2931 1769 2642 2001 
Q 2353 2234 1838 2234 
L 1294 2234 
L 1294 2753 
L 1863 2753 
Q 2328 2753 2575 2939 
Q 2822 3125 2822 3475 
Q 2822 3834 2567 4026 
Q 2313 4219 1838 4219 
Q 1578 4219 1281 4162 
Q 984 4106 628 3988 
L 628 4550 
Q 988 4650 1302 4700 
Q 1616 4750 1894 4750 
Q 2613 4750 3031 4423 
Q 3450 4097 3450 3541 
Q 3450 3153 3228 2886 
Q 3006 2619 2597 2516 
z
" transform="scale(0.015625)"/>
       </defs>
       <use xlink:href="#DejaVuSans-33"/>
       <use xlink:href="#DejaVuSans-68" transform="translate(63.623047 0)"/>
       <use xlink:href="#DejaVuSans-3a" transform="translate(127.001953 0)"/>
       <use xlink:href="#DejaVuSans-33" transform="translate(160.693359 0)"/>
       <use xlink:href="#DejaVuSans-33" transform="translate(224.316406 0)"/>
       <use xlink:href="#DejaVuSans-6d" transform="translate(287.939453 0)"/>
      </g>
     </g>
    </g>
    <g id="xtick_5">
     <g id="line2d_5">
      <g>
       <use xlink:href="#m60fd0c1df4" x="280.070982" y="288.430125" style="stroke: #000000; stroke-width: 0.8"/>
      </g>
     </g>
     <g id="text_5">
      <!-- 4h:45m -->
      <g transform="translate(260.803795 303.028562) scale(0.1 -0.1)">
       <defs>
        <path id="DejaVuSans-34" d="M 2419 4116 
L 825 1625 
L 2419 1625 
L 2419 4116 
z
M 2253 4666 
L 3047 4666 
L 3047 1625 
L 3713 1625 
L 3713 1100 
L 3047 1100 
L 3047 0 
L 2419 0 
L 2419 1100 
L 313 1100 
L 313 1709 
L 2253 4666 
z
" transform="scale(0.015625)"/>
        <path id="DejaVuSans-35" d="M 691 4666 
L 3169 4666 
L 3169 4134 
L 1269 4134 
L 1269 2991 
Q 1406 3038 1543 3061 
Q 1681 3084 1819 3084 
Q 2600 3084 3056 2656 
Q 3513 2228 3513 1497 
Q 3513 744 3044 326 
Q 2575 -91 1722 -91 
Q 1428 -91 1123 -41 
Q 819 9 494 109 
L 494 744 
Q 775 591 1075 516 
Q 1375 441 1709 441 
Q 2250 441 2565 725 
Q 2881 1009 2881 1497 
Q 2881 1984 2565 2268 
Q 2250 2553 1709 2553 
Q 1456 2553 1204 2497 
Q 953 2441 691 2322 
L 691 4666 
z
" transform="scale(0.015625)"/>
       </defs>
       <use xlink:href="#DejaVuSans-34"/>
       <use xlink:href="#DejaVuSans-68" transform="translate(63.623047 0)"/>
       <use xlink:href="#DejaVuSans-3a" transform="translate(127.001953 0)"/>
       <use xlink:href="#DejaVuSans-34" transform="translate(160.693359 0)"/>
       <use xlink:href="#DejaVuSans-35" transform="translate(224.316406 0)"/>
       <use xlink:href="#DejaVuSans-6d" transform="translate(287.939453 0)"/>
      </g>
     </g>
    </g>
    <g id="xtick_6">
     <g id="line2d_6">
      <g>
       <use xlink:href="#m60fd0c1df4" x="336.756696" y="288.430125" style="stroke: #000000; stroke-width: 0.8"/>
      </g>
     </g>
     <g id="text_6">
      <!-- 5h:56m -->
      <g transform="translate(317.489509 303.028562) scale(0.1 -0.1)">
       <defs>
        <path id="DejaVuSans-36" d="M 2113 2584 
Q 1688 2584 1439 2293 
Q 1191 2003 1191 1497 
Q 1191 994 1439 701 
Q 1688 409 2113 409 
Q 2538 409 2786 701 
Q 3034 994 3034 1497 
Q 3034 2003 2786 2293 
Q 2538 2584 2113 2584 
z
M 3366 4563 
L 3366 3988 
Q 3128 4100 2886 4159 
Q 2644 4219 2406 4219 
Q 1781 4219 1451 3797 
Q 1122 3375 1075 2522 
Q 1259 2794 1537 2939 
Q 1816 3084 2150 3084 
Q 2853 3084 3261 2657 
Q 3669 2231 3669 1497 
Q 3669 778 3244 343 
Q 2819 -91 2113 -91 
Q 1303 -91 875 529 
Q 447 1150 447 2328 
Q 447 3434 972 4092 
Q 1497 4750 2381 4750 
Q 2619 4750 2861 4703 
Q 3103 4656 3366 4563 
z
" transform="scale(0.015625)"/>
       </defs>
       <use xlink:href="#DejaVuSans-35"/>
       <use xlink:href="#DejaVuSans-68" transform="translate(63.623047 0)"/>
       <use xlink:href="#DejaVuSans-3a" transform="translate(127.001953 0)"/>
       <use xlink:href="#DejaVuSans-35" transform="translate(160.693359 0)"/>
       <use xlink:href="#DejaVuSans-36" transform="translate(224.316406 0)"/>
       <use xlink:href="#DejaVuSans-6d" transform="translate(287.939453 0)"/>
      </g>
     </g>
    </g>
    <g id="xtick_7">
     <g id="line2d_7">
      <g>
       <use xlink:href="#m60fd0c1df4" x="393.442411" y="288.430125" style="stroke: #000000; stroke-width: 0.8"/>
      </g>
     </g>
     <g id="text_7">
      <!-- 7h:7m -->
      <g transform="translate(377.356473 303.028562) scale(0.1 -0.1)">
       <defs>
        <path id="DejaVuSans-37" d="M 525 4666 
L 3525 4666 
L 3525 4397 
L 1831 0 
L 1172 0 
L 2766 4134 
L 525 4134 
L 525 4666 
z
" transform="scale(0.015625)"/>
       </defs>
       <use xlink:href="#DejaVuSans-37"/>
       <use xlink:href="#DejaVuSans-68" transform="translate(63.623047 0)"/>
       <use xlink:href="#DejaVuSans-3a" transform="translate(127.001953 0)"/>
       <use xlink:href="#DejaVuSans-37" transform="translate(160.693359 0)"/>
       <use xlink:href="#DejaVuSans-6d" transform="translate(224.316406 0)"/>
      </g>
     </g>
    </g>
    <g id="xtick_8">
     <g id="line2d_8">
      <g>
       <use xlink:href="#m60fd0c1df4" x="450.128125" y="288.430125" style="stroke: #000000; stroke-width: 0.8"/>
      </g>
     </g>
     <g id="text_8">
      <!-- 8h:18m -->
      <g transform="translate(430.860938 303.028562) scale(0.1 -0.1)">
       <defs>
        <path id="DejaVuSans-38" d="M 2034 2216 
Q 1584 2216 1326 1975 
Q 1069 1734 1069 1313 
Q 1069 891 1326 650 
Q 1584 409 2034 409 
Q 2484 409 2743 651 
Q 3003 894 3003 1313 
Q 3003 1734 2745 1975 
Q 2488 2216 2034 2216 
z
M 1403 2484 
Q 997 2584 770 2862 
Q 544 3141 544 3541 
Q 544 4100 942 4425 
Q 1341 4750 2034 4750 
Q 2731 4750 3128 4425 
Q 3525 4100 3525 3541 
Q 3525 3141 3298 2862 
Q 3072 2584 2669 2484 
Q 3125 2378 3379 2068 
Q 3634 1759 3634 1313 
Q 3634 634 3220 271 
Q 2806 -91 2034 -91 
Q 1263 -91 848 271 
Q 434 634 434 1313 
Q 434 1759 690 2068 
Q 947 2378 1403 2484 
z
M 1172 3481 
Q 1172 3119 1398 2916 
Q 1625 2713 2034 2713 
Q 2441 2713 2670 2916 
Q 2900 3119 2900 3481 
Q 2900 3844 2670 4047 
Q 2441 4250 2034 4250 
Q 1625 4250 1398 4047 
Q 1172 3844 1172 3481 
z
" transform="scale(0.015625)"/>
       </defs>
       <use xlink:href="#DejaVuSans-38"/>
       <use xlink:href="#DejaVuSans-68" transform="translate(63.623047 0)"/>
       <use xlink:href="#DejaVuSans-3a" transform="translate(127.001953 0)"/>
       <use xlink:href="#DejaVuSans-31" transform="translate(160.693359 0)"/>
       <use xlink:href="#DejaVuSans-38" transform="translate(224.316406 0)"/>
       <use xlink:href="#DejaVuSans-6d" transform="translate(287.939453 0)"/>
      </g>
     </g>
    </g>
    <g id="xtick_9">
     <g id="line2d_9">
      <g>
       <use xlink:href="#m60fd0c1df4" x="506.813839" y="288.430125" style="stroke: #000000; stroke-width: 0.8"/>
      </g>
     </g>
     <g id="text_9">
      <!-- 9h:30m -->
      <g transform="translate(487.546652 303.028562) scale(0.1 -0.1)">
       <defs>
        <path id="DejaVuSans-39" d="M 703 97 
L 703 672 
Q 941 559 1184 500 
Q 1428 441 1663 441 
Q 2288 441 2617 861 
Q 2947 1281 2994 2138 
Q 2813 1869 2534 1725 
Q 2256 1581 1919 1581 
Q 1219 1581 811 2004 
Q 403 2428 403 3163 
Q 403 3881 828 4315 
Q 1253 4750 1959 4750 
Q 2769 4750 3195 4129 
Q 3622 3509 3622 2328 
Q 3622 1225 3098 567 
Q 2575 -91 1691 -91 
Q 1453 -91 1209 -44 
Q 966 3 703 97 
z
M 1959 2075 
Q 2384 2075 2632 2365 
Q 2881 2656 2881 3163 
Q 2881 3666 2632 3958 
Q 2384 4250 1959 4250 
Q 1534 4250 1286 3958 
Q 1038 3666 1038 3163 
Q 1038 2656 1286 2365 
Q 1534 2075 1959 2075 
z
" transform="scale(0.015625)"/>
       </defs>
       <use xlink:href="#DejaVuSans-39"/>
       <use xlink:href="#DejaVuSans-68" transform="translate(63.623047 0)"/>
       <use xlink:href="#DejaVuSans-3a" transform="translate(127.001953 0)"/>
       <use xlink:href="#DejaVuSans-33" transform="translate(160.693359 0)"/>
       <use xlink:href="#DejaVuSans-30" transform="translate(224.316406 0)"/>
       <use xlink:href="#DejaVuSans-6d" transform="translate(287.939453 0)"/>
      </g>
     </g>
    </g>
    <g id="xtick_10">
     <g id="line2d_10">
      <g>
       <use xlink:href="#m60fd0c1df4" x="563.499554" y="288.430125" style="stroke: #000000; stroke-width: 0.8"/>
      </g>
     </g>
     <g id="text_10">
      <!-- 10h:41m -->
      <g transform="translate(541.051116 303.028562) scale(0.1 -0.1)">
       <use xlink:href="#DejaVuSans-31"/>
       <use xlink:href="#DejaVuSans-30" transform="translate(63.623047 0)"/>
       <use xlink:href="#DejaVuSans-68" transform="translate(127.246094 0)"/>
       <use xlink:href="#DejaVuSans-3a" transform="translate(190.625 0)"/>
       <use xlink:href="#DejaVuSans-34" transform="translate(224.316406 0)"/>
       <use xlink:href="#DejaVuSans-31" transform="translate(287.939453 0)"/>
       <use xlink:href="#DejaVuSans-6d" transform="translate(351.5625 0)"/>
      </g>
     </g>
    </g>
    <g id="xtick_11">
     <g id="line2d_11">
      <g>
       <use xlink:href="#m60fd0c1df4" x="620.185268" y="288.430125" style="stroke: #000000; stroke-width: 0.8"/>
      </g>
     </g>
     <g id="text_11">
      <!-- 11h:52m -->
      <g transform="translate(597.73683 303.028562) scale(0.1 -0.1)">
       <use xlink:href="#DejaVuSans-31"/>
       <use xlink:href="#DejaVuSans-31" transform="translate(63.623047 0)"/>
       <use xlink:href="#DejaVuSans-68" transform="translate(127.246094 0)"/>
       <use xlink:href="#DejaVuSans-3a" transform="translate(190.625 0)"/>
       <use xlink:href="#DejaVuSans-35" transform="translate(224.316406 0)"/>
       <use xlink:href="#DejaVuSans-32" transform="translate(287.939453 0)"/>
       <use xlink:href="#DejaVuSans-6d" transform="translate(351.5625 0)"/>
      </g>
     </g>
    </g>
    <g id="xtick_12">
     <g id="line2d_12">
      <g>
       <use xlink:href="#m60fd0c1df4" x="676.870982" y="288.430125" style="stroke: #000000; stroke-width: 0.8"/>
      </g>
     </g>
     <g id="text_12">
      <!-- 13h:3m -->
      <g transform="translate(657.603795 303.028562) scale(0.1 -0.1)">
       <use xlink:href="#DejaVuSans-31"/>
       <use xlink:href="#DejaVuSans-33" transform="translate(63.623047 0)"/>
       <use xlink:href="#DejaVuSans-68" transform="translate(127.246094 0)"/>
       <use xlink:href="#DejaVuSans-3a" transform="translate(190.625 0)"/>
       <use xlink:href="#DejaVuSans-33" transform="translate(224.316406 0)"/>
       <use xlink:href="#DejaVuSans-6d" transform="translate(287.939453 0)"/>
      </g>
     </g>
    </g>
    <g id="xtick_13">
     <g id="line2d_13">
      <g>
       <use xlink:href="#m60fd0c1df4" x="733.556696" y="288.430125" style="stroke: #000000; stroke-width: 0.8"/>
      </g>
     </g>
     <g id="text_13">
      <!-- 14h:15m -->
      <g transform="translate(711.108259 303.028562) scale(0.1 -0.1)">
       <use xlink:href="#DejaVuSans-31"/>
       <use xlink:href="#DejaVuSans-34" transform="translate(63.623047 0)"/>
       <use xlink:href="#DejaVuSans-68" transform="translate(127.246094 0)"/>
       <use xlink:href="#DejaVuSans-3a" transform="translate(190.625 0)"/>
       <use xlink:href="#DejaVuSans-31" transform="translate(224.316406 0)"/>
       <use xlink:href="#DejaVuSans-35" transform="translate(287.939453 0)"/>
       <use xlink:href="#DejaVuSans-6d" transform="translate(351.5625 0)"/>
      </g>
     </g>
    </g>
    <g id="text_14">
     <!-- Time (hour:minute) -->
     <g transform="translate(362.041094 316.706687) scale(0.1 -0.1)">
      <defs>
       <path id="DejaVuSans-54" d="M -19 4666 
L 3928 4666 
L 3928 4134 
L 2272 4134 
L 2272 0 
L 1638 0 
L 1638 4134 
L -19 4134 
L -19 4666 
z
" transform="scale(0.015625)"/>
       <path id="DejaVuSans-69" d="M 603 3500 
L 1178 3500 
L 1178 0 
L 603 0 
L 603 3500 
z
M 603 4863 
L 1178 4863 
L 1178 4134 
L 603 4134 
L 603 4863 
z
" transform="scale(0.015625)"/>
       <path id="DejaVuSans-65" d="M 3597 1894 
L 3597 1613 
L 953 1613 
Q 991 1019 1311 708 
Q 1631 397 2203 397 
Q 2534 397 2845 478 
Q 3156 559 3463 722 
L 3463 178 
Q 3153 47 2828 -22 
Q 2503 -91 2169 -91 
Q 1331 -91 842 396 
Q 353 884 353 1716 
Q 353 2575 817 3079 
Q 1281 3584 2069 3584 
Q 2775 3584 3186 3129 
Q 3597 2675 3597 1894 
z
M 3022 2063 
Q 3016 2534 2758 2815 
Q 2500 3097 2075 3097 
Q 1594 3097 1305 2825 
Q 1016 2553 972 2059 
L 3022 2063 
z
" transform="scale(0.015625)"/>
       <path id="DejaVuSans-20" transform="scale(0.015625)"/>
       <path id="DejaVuSans-28" d="M 1984 4856 
Q 1566 4138 1362 3434 
Q 1159 2731 1159 2009 
Q 1159 1288 1364 580 
Q 1569 -128 1984 -844 
L 1484 -844 
Q 1016 -109 783 600 
Q 550 1309 550 2009 
Q 550 2706 781 3412 
Q 1013 4119 1484 4856 
L 1984 4856 
z
" transform="scale(0.015625)"/>
       <path id="DejaVuSans-6f" d="M 1959 3097 
Q 1497 3097 1228 2736 
Q 959 2375 959 1747 
Q 959 1119 1226 758 
Q 1494 397 1959 397 
Q 2419 397 2687 759 
Q 2956 1122 2956 1747 
Q 2956 2369 2687 2733 
Q 2419 3097 1959 3097 
z
M 1959 3584 
Q 2709 3584 3137 3096 
Q 3566 2609 3566 1747 
Q 3566 888 3137 398 
Q 2709 -91 1959 -91 
Q 1206 -91 779 398 
Q 353 888 353 1747 
Q 353 2609 779 3096 
Q 1206 3584 1959 3584 
z
" transform="scale(0.015625)"/>
       <path id="DejaVuSans-75" d="M 544 1381 
L 544 3500 
L 1119 3500 
L 1119 1403 
Q 1119 906 1312 657 
Q 1506 409 1894 409 
Q 2359 409 2629 706 
Q 2900 1003 2900 1516 
L 2900 3500 
L 3475 3500 
L 3475 0 
L 2900 0 
L 2900 538 
Q 2691 219 2414 64 
Q 2138 -91 1772 -91 
Q 1169 -91 856 284 
Q 544 659 544 1381 
z
M 1991 3584 
L 1991 3584 
z
" transform="scale(0.015625)"/>
       <path id="DejaVuSans-72" d="M 2631 2963 
Q 2534 3019 2420 3045 
Q 2306 3072 2169 3072 
Q 1681 3072 1420 2755 
Q 1159 2438 1159 1844 
L 1159 0 
L 581 0 
L 581 3500 
L 1159 3500 
L 1159 2956 
Q 1341 3275 1631 3429 
Q 1922 3584 2338 3584 
Q 2397 3584 2469 3576 
Q 2541 3569 2628 3553 
L 2631 2963 
z
" transform="scale(0.015625)"/>
       <path id="DejaVuSans-6e" d="M 3513 2113 
L 3513 0 
L 2938 0 
L 2938 2094 
Q 2938 2591 2744 2837 
Q 2550 3084 2163 3084 
Q 1697 3084 1428 2787 
Q 1159 2491 1159 1978 
L 1159 0 
L 581 0 
L 581 3500 
L 1159 3500 
L 1159 2956 
Q 1366 3272 1645 3428 
Q 1925 3584 2291 3584 
Q 2894 3584 3203 3211 
Q 3513 2838 3513 2113 
z
" transform="scale(0.015625)"/>
       <path id="DejaVuSans-74" d="M 1172 4494 
L 1172 3500 
L 2356 3500 
L 2356 3053 
L 1172 3053 
L 1172 1153 
Q 1172 725 1289 603 
Q 1406 481 1766 481 
L 2356 481 
L 2356 0 
L 1766 0 
Q 1100 0 847 248 
Q 594 497 594 1153 
L 594 3053 
L 172 3053 
L 172 3500 
L 594 3500 
L 594 4494 
L 1172 4494 
z
" transform="scale(0.015625)"/>
       <path id="DejaVuSans-29" d="M 513 4856 
L 1013 4856 
Q 1481 4119 1714 3412 
Q 1947 2706 1947 2009 
Q 1947 1309 1714 600 
Q 1481 -109 1013 -844 
L 513 -844 
Q 928 -128 1133 580 
Q 1338 1288 1338 2009 
Q 1338 2731 1133 3434 
Q 928 4138 513 4856 
z
" transform="scale(0.015625)"/>
      </defs>
      <use xlink:href="#DejaVuSans-54"/>
      <use xlink:href="#DejaVuSans-69" transform="translate(57.958984 0)"/>
      <use xlink:href="#DejaVuSans-6d" transform="translate(85.742188 0)"/>
      <use xlink:href="#DejaVuSans-65" transform="translate(183.154297 0)"/>
      <use xlink:href="#DejaVuSans-20" transform="translate(244.677734 0)"/>
      <use xlink:href="#DejaVuSans-28" transform="translate(276.464844 0)"/>
      <use xlink:href="#DejaVuSans-68" transform="translate(315.478516 0)"/>
      <use xlink:href="#DejaVuSans-6f" transform="translate(378.857422 0)"/>
      <use xlink:href="#DejaVuSans-75" transform="translate(440.039062 0)"/>
      <use xlink:href="#DejaVuSans-72" transform="translate(503.417969 0)"/>
      <use xlink:href="#DejaVuSans-3a" transform="translate(542.78125 0)"/>
      <use xlink:href="#DejaVuSans-6d" transform="translate(576.472656 0)"/>
      <use xlink:href="#DejaVuSans-69" transform="translate(673.884766 0)"/>
      <use xlink:href="#DejaVuSans-6e" transform="translate(701.667969 0)"/>
      <use xlink:href="#DejaVuSans-75" transform="translate(765.046875 0)"/>
      <use xlink:href="#DejaVuSans-74" transform="translate(828.425781 0)"/>
      <use xlink:href="#DejaVuSans-65" transform="translate(867.634766 0)"/>
      <use xlink:href="#DejaVuSans-29" transform="translate(929.158203 0)"/>
     </g>
    </g>
   </g>
   <g id="matplotlib.axis_2">
    <g id="ytick_1">
     <g id="line2d_14">
      <defs>
       <path id="mf856e8d675" d="M 0 0 
L -3.5 0 
" style="stroke: #000000; stroke-width: 0.8"/>
      </defs>
      <g>
       <use xlink:href="#mf856e8d675" x="53.328125" y="276.334125" style="stroke: #000000; stroke-width: 0.8"/>
      </g>
     </g>
     <g id="text_15">
      <!-- 0 -->
      <g transform="translate(39.965625 280.133344) scale(0.1 -0.1)">
       <use xlink:href="#DejaVuSans-30"/>
      </g>
     </g>
    </g>
    <g id="ytick_2">
     <g id="line2d_15">
      <g>
       <use xlink:href="#mf856e8d675" x="53.328125" y="237.452736" style="stroke: #000000; stroke-width: 0.8"/>
      </g>
     </g>
     <g id="text_16">
      <!-- 500 -->
      <g transform="translate(27.240625 241.251955) scale(0.1 -0.1)">
       <use xlink:href="#DejaVuSans-35"/>
       <use xlink:href="#DejaVuSans-30" transform="translate(63.623047 0)"/>
       <use xlink:href="#DejaVuSans-30" transform="translate(127.246094 0)"/>
      </g>
     </g>
    </g>
    <g id="ytick_3">
     <g id="line2d_16">
      <g>
       <use xlink:href="#mf856e8d675" x="53.328125" y="198.571348" style="stroke: #000000; stroke-width: 0.8"/>
      </g>
     </g>
     <g id="text_17">
      <!-- 1000 -->
      <g transform="translate(20.878125 202.370567) scale(0.1 -0.1)">
       <use xlink:href="#DejaVuSans-31"/>
       <use xlink:href="#DejaVuSans-30" transform="translate(63.623047 0)"/>
       <use xlink:href="#DejaVuSans-30" transform="translate(127.246094 0)"/>
       <use xlink:href="#DejaVuSans-30" transform="translate(190.869141 0)"/>
      </g>
     </g>
    </g>
    <g id="ytick_4">
     <g id="line2d_17">
      <g>
       <use xlink:href="#mf856e8d675" x="53.328125" y="159.689959" style="stroke: #000000; stroke-width: 0.8"/>
      </g>
     </g>
     <g id="text_18">
      <!-- 1500 -->
      <g transform="translate(20.878125 163.489178) scale(0.1 -0.1)">
       <use xlink:href="#DejaVuSans-31"/>
       <use xlink:href="#DejaVuSans-35" transform="translate(63.623047 0)"/>
       <use xlink:href="#DejaVuSans-30" transform="translate(127.246094 0)"/>
       <use xlink:href="#DejaVuSans-30" transform="translate(190.869141 0)"/>
      </g>
     </g>
    </g>
    <g id="ytick_5">
     <g id="line2d_18">
      <g>
       <use xlink:href="#mf856e8d675" x="53.328125" y="120.808571" style="stroke: #000000; stroke-width: 0.8"/>
      </g>
     </g>
     <g id="text_19">
      <!-- 2000 -->
      <g transform="translate(20.878125 124.607789) scale(0.1 -0.1)">
       <use xlink:href="#DejaVuSans-32"/>
       <use xlink:href="#DejaVuSans-30" transform="translate(63.623047 0)"/>
       <use xlink:href="#DejaVuSans-30" transform="translate(127.246094 0)"/>
       <use xlink:href="#DejaVuSans-30" transform="translate(190.869141 0)"/>
      </g>
     </g>
    </g>
    <g id="ytick_6">
     <g id="line2d_19">
      <g>
       <use xlink:href="#mf856e8d675" x="53.328125" y="81.927182" style="stroke: #000000; stroke-width: 0.8"/>
      </g>
     </g>
     <g id="text_20">
      <!-- 2500 -->
      <g transform="translate(20.878125 85.726401) scale(0.1 -0.1)">
       <use xlink:href="#DejaVuSans-32"/>
       <use xlink:href="#DejaVuSans-35" transform="translate(63.623047 0)"/>
       <use xlink:href="#DejaVuSans-30" transform="translate(127.246094 0)"/>
       <use xlink:href="#DejaVuSans-30" transform="translate(190.869141 0)"/>
      </g>
     </g>
    </g>
    <g id="ytick_7">
     <g id="line2d_20">
      <g>
       <use xlink:href="#mf856e8d675" x="53.328125" y="43.045793" style="stroke: #000000; stroke-width: 0.8"/>
      </g>
     </g>
     <g id="text_21">
      <!-- 3000 -->
      <g transform="translate(20.878125 46.845012) scale(0.1 -0.1)">
       <use xlink:href="#DejaVuSans-33"/>
       <use xlink:href="#DejaVuSans-30" transform="translate(63.623047 0)"/>
       <use xlink:href="#DejaVuSans-30" transform="translate(127.246094 0)"/>
       <use xlink:href="#DejaVuSans-30" transform="translate(190.869141 0)"/>
      </g>
     </g>
    </g>
    <g id="text_22">
     <!-- Code branch coverage -->
     <g transform="translate(14.798438 211.949125) rotate(-90) scale(0.1 -0.1)">
      <defs>
       <path id="DejaVuSans-43" d="M 4122 4306 
L 4122 3641 
Q 3803 3938 3442 4084 
Q 3081 4231 2675 4231 
Q 1875 4231 1450 3742 
Q 1025 3253 1025 2328 
Q 1025 1406 1450 917 
Q 1875 428 2675 428 
Q 3081 428 3442 575 
Q 3803 722 4122 1019 
L 4122 359 
Q 3791 134 3420 21 
Q 3050 -91 2638 -91 
Q 1578 -91 968 557 
Q 359 1206 359 2328 
Q 359 3453 968 4101 
Q 1578 4750 2638 4750 
Q 3056 4750 3426 4639 
Q 3797 4528 4122 4306 
z
" transform="scale(0.015625)"/>
       <path id="DejaVuSans-64" d="M 2906 2969 
L 2906 4863 
L 3481 4863 
L 3481 0 
L 2906 0 
L 2906 525 
Q 2725 213 2448 61 
Q 2172 -91 1784 -91 
Q 1150 -91 751 415 
Q 353 922 353 1747 
Q 353 2572 751 3078 
Q 1150 3584 1784 3584 
Q 2172 3584 2448 3432 
Q 2725 3281 2906 2969 
z
M 947 1747 
Q 947 1113 1208 752 
Q 1469 391 1925 391 
Q 2381 391 2643 752 
Q 2906 1113 2906 1747 
Q 2906 2381 2643 2742 
Q 2381 3103 1925 3103 
Q 1469 3103 1208 2742 
Q 947 2381 947 1747 
z
" transform="scale(0.015625)"/>
       <path id="DejaVuSans-62" d="M 3116 1747 
Q 3116 2381 2855 2742 
Q 2594 3103 2138 3103 
Q 1681 3103 1420 2742 
Q 1159 2381 1159 1747 
Q 1159 1113 1420 752 
Q 1681 391 2138 391 
Q 2594 391 2855 752 
Q 3116 1113 3116 1747 
z
M 1159 2969 
Q 1341 3281 1617 3432 
Q 1894 3584 2278 3584 
Q 2916 3584 3314 3078 
Q 3713 2572 3713 1747 
Q 3713 922 3314 415 
Q 2916 -91 2278 -91 
Q 1894 -91 1617 61 
Q 1341 213 1159 525 
L 1159 0 
L 581 0 
L 581 4863 
L 1159 4863 
L 1159 2969 
z
" transform="scale(0.015625)"/>
       <path id="DejaVuSans-61" d="M 2194 1759 
Q 1497 1759 1228 1600 
Q 959 1441 959 1056 
Q 959 750 1161 570 
Q 1363 391 1709 391 
Q 2188 391 2477 730 
Q 2766 1069 2766 1631 
L 2766 1759 
L 2194 1759 
z
M 3341 1997 
L 3341 0 
L 2766 0 
L 2766 531 
Q 2569 213 2275 61 
Q 1981 -91 1556 -91 
Q 1019 -91 701 211 
Q 384 513 384 1019 
Q 384 1609 779 1909 
Q 1175 2209 1959 2209 
L 2766 2209 
L 2766 2266 
Q 2766 2663 2505 2880 
Q 2244 3097 1772 3097 
Q 1472 3097 1187 3025 
Q 903 2953 641 2809 
L 641 3341 
Q 956 3463 1253 3523 
Q 1550 3584 1831 3584 
Q 2591 3584 2966 3190 
Q 3341 2797 3341 1997 
z
" transform="scale(0.015625)"/>
       <path id="DejaVuSans-63" d="M 3122 3366 
L 3122 2828 
Q 2878 2963 2633 3030 
Q 2388 3097 2138 3097 
Q 1578 3097 1268 2742 
Q 959 2388 959 1747 
Q 959 1106 1268 751 
Q 1578 397 2138 397 
Q 2388 397 2633 464 
Q 2878 531 3122 666 
L 3122 134 
Q 2881 22 2623 -34 
Q 2366 -91 2075 -91 
Q 1284 -91 818 406 
Q 353 903 353 1747 
Q 353 2603 823 3093 
Q 1294 3584 2113 3584 
Q 2378 3584 2631 3529 
Q 2884 3475 3122 3366 
z
" transform="scale(0.015625)"/>
       <path id="DejaVuSans-76" d="M 191 3500 
L 800 3500 
L 1894 563 
L 2988 3500 
L 3597 3500 
L 2284 0 
L 1503 0 
L 191 3500 
z
" transform="scale(0.015625)"/>
       <path id="DejaVuSans-67" d="M 2906 1791 
Q 2906 2416 2648 2759 
Q 2391 3103 1925 3103 
Q 1463 3103 1205 2759 
Q 947 2416 947 1791 
Q 947 1169 1205 825 
Q 1463 481 1925 481 
Q 2391 481 2648 825 
Q 2906 1169 2906 1791 
z
M 3481 434 
Q 3481 -459 3084 -895 
Q 2688 -1331 1869 -1331 
Q 1566 -1331 1297 -1286 
Q 1028 -1241 775 -1147 
L 775 -588 
Q 1028 -725 1275 -790 
Q 1522 -856 1778 -856 
Q 2344 -856 2625 -561 
Q 2906 -266 2906 331 
L 2906 616 
Q 2728 306 2450 153 
Q 2172 0 1784 0 
Q 1141 0 747 490 
Q 353 981 353 1791 
Q 353 2603 747 3093 
Q 1141 3584 1784 3584 
Q 2172 3584 2450 3431 
Q 2728 3278 2906 2969 
L 2906 3500 
L 3481 3500 
L 3481 434 
z
" transform="scale(0.015625)"/>
      </defs>
      <use xlink:href="#DejaVuSans-43"/>
      <use xlink:href="#DejaVuSans-6f" transform="translate(69.824219 0)"/>
      <use xlink:href="#DejaVuSans-64" transform="translate(131.005859 0)"/>
      <use xlink:href="#DejaVuSans-65" transform="translate(194.482422 0)"/>
      <use xlink:href="#DejaVuSans-20" transform="translate(256.005859 0)"/>
      <use xlink:href="#DejaVuSans-62" transform="translate(287.792969 0)"/>
      <use xlink:href="#DejaVuSans-72" transform="translate(351.269531 0)"/>
      <use xlink:href="#DejaVuSans-61" transform="translate(392.382812 0)"/>
      <use xlink:href="#DejaVuSans-6e" transform="translate(453.662109 0)"/>
      <use xlink:href="#DejaVuSans-63" transform="translate(517.041016 0)"/>
      <use xlink:href="#DejaVuSans-68" transform="translate(572.021484 0)"/>
      <use xlink:href="#DejaVuSans-20" transform="translate(635.400391 0)"/>
      <use xlink:href="#DejaVuSans-63" transform="translate(667.1875 0)"/>
      <use xlink:href="#DejaVuSans-6f" transform="translate(722.167969 0)"/>
      <use xlink:href="#DejaVuSans-76" transform="translate(783.349609 0)"/>
      <use xlink:href="#DejaVuSans-65" transform="translate(842.529297 0)"/>
      <use xlink:href="#DejaVuSans-72" transform="translate(904.052734 0)"/>
      <use xlink:href="#DejaVuSans-61" transform="translate(945.166016 0)"/>
      <use xlink:href="#DejaVuSans-67" transform="translate(1006.445312 0)"/>
      <use xlink:href="#DejaVuSans-65" transform="translate(1069.921875 0)"/>
     </g>
    </g>
   </g>
   <g id="line2d_21">
    <path d="M 53.328125 276.334125 
L 65.26196 84.804405 
L 77.195794 74.695244 
L 89.129629 67.152254 
L 101.063463 65.441473 
L 112.997298 62.875301 
L 124.931133 62.486488 
L 136.864967 61.864385 
L 148.798802 61.786623 
L 160.732636 58.36506 
L 172.666471 58.36506 
L 184.600305 57.820721 
L 196.53414 56.654279 
L 208.467975 56.10994 
L 220.401809 55.5656 
L 232.335644 55.332312 
L 244.269478 55.176787 
L 256.203313 54.865735 
L 268.137148 54.865735 
L 280.070982 54.787973 
L 292.004817 54.71021 
L 303.938651 53.777057 
L 315.872486 53.232717 
L 327.80632 53.232717 
L 339.740155 53.154954 
L 351.67399 53.154954 
L 363.607824 52.610615 
L 375.541659 51.521936 
L 387.475493 51.521936 
L 399.409328 51.521936 
L 411.343163 51.444173 
L 423.276997 51.444173 
L 435.210832 51.444173 
L 447.144666 51.444173 
L 459.078501 51.444173 
L 471.012336 51.444173 
L 482.94617 51.444173 
L 494.880005 51.444173 
L 506.813839 51.210885 
L 518.747674 51.133122 
L 530.681508 45.456439 
L 542.615343 44.834337 
L 554.549178 44.601049 
L 566.483012 44.36776 
L 578.416847 44.289998 
L 590.350681 44.212235 
L 602.284516 44.134472 
L 614.218351 44.056709 
L 626.152185 44.056709 
L 638.08602 43.978947 
L 650.019854 43.590133 
L 661.953689 42.656979 
L 673.887523 42.656979 
L 685.821358 41.646063 
L 697.755193 41.646063 
L 709.689027 41.646063 
L 721.622862 41.646063 
L 733.556696 41.568301 
" clip-path="url(#p465cbd2317)" style="fill: none; stroke: #1f77b4; stroke-width: 1.5; stroke-linecap: square"/>
    <defs>
     <path id="m2d745fbf30" d="M 0 3 
C 0.795609 3 1.55874 2.683901 2.12132 2.12132 
C 2.683901 1.55874 3 0.795609 3 0 
C 3 -0.795609 2.683901 -1.55874 2.12132 -2.12132 
C 1.55874 -2.683901 0.795609 -3 0 -3 
C -0.795609 -3 -1.55874 -2.683901 -2.12132 -2.12132 
C -2.683901 -1.55874 -3 -0.795609 -3 0 
C -3 0.795609 -2.683901 1.55874 -2.12132 2.12132 
C -1.55874 2.683901 -0.795609 3 0 3 
z
" style="stroke: #ffffff; stroke-width: 0.75"/>
    </defs>
    <g clip-path="url(#p465cbd2317)">
     <use xlink:href="#m2d745fbf30" x="53.328125" y="276.334125" style="fill: #1f77b4; stroke: #ffffff; stroke-width: 0.75"/>
     <use xlink:href="#m2d745fbf30" x="65.26196" y="84.804405" style="fill: #1f77b4; stroke: #ffffff; stroke-width: 0.75"/>
     <use xlink:href="#m2d745fbf30" x="77.195794" y="74.695244" style="fill: #1f77b4; stroke: #ffffff; stroke-width: 0.75"/>
     <use xlink:href="#m2d745fbf30" x="89.129629" y="67.152254" style="fill: #1f77b4; stroke: #ffffff; stroke-width: 0.75"/>
     <use xlink:href="#m2d745fbf30" x="101.063463" y="65.441473" style="fill: #1f77b4; stroke: #ffffff; stroke-width: 0.75"/>
     <use xlink:href="#m2d745fbf30" x="112.997298" y="62.875301" style="fill: #1f77b4; stroke: #ffffff; stroke-width: 0.75"/>
     <use xlink:href="#m2d745fbf30" x="124.931133" y="62.486488" style="fill: #1f77b4; stroke: #ffffff; stroke-width: 0.75"/>
     <use xlink:href="#m2d745fbf30" x="136.864967" y="61.864385" style="fill: #1f77b4; stroke: #ffffff; stroke-width: 0.75"/>
     <use xlink:href="#m2d745fbf30" x="148.798802" y="61.786623" style="fill: #1f77b4; stroke: #ffffff; stroke-width: 0.75"/>
     <use xlink:href="#m2d745fbf30" x="160.732636" y="58.36506" style="fill: #1f77b4; stroke: #ffffff; stroke-width: 0.75"/>
     <use xlink:href="#m2d745fbf30" x="172.666471" y="58.36506" style="fill: #1f77b4; stroke: #ffffff; stroke-width: 0.75"/>
     <use xlink:href="#m2d745fbf30" x="184.600305" y="57.820721" style="fill: #1f77b4; stroke: #ffffff; stroke-width: 0.75"/>
     <use xlink:href="#m2d745fbf30" x="196.53414" y="56.654279" style="fill: #1f77b4; stroke: #ffffff; stroke-width: 0.75"/>
     <use xlink:href="#m2d745fbf30" x="208.467975" y="56.10994" style="fill: #1f77b4; stroke: #ffffff; stroke-width: 0.75"/>
     <use xlink:href="#m2d745fbf30" x="220.401809" y="55.5656" style="fill: #1f77b4; stroke: #ffffff; stroke-width: 0.75"/>
     <use xlink:href="#m2d745fbf30" x="232.335644" y="55.332312" style="fill: #1f77b4; stroke: #ffffff; stroke-width: 0.75"/>
     <use xlink:href="#m2d745fbf30" x="244.269478" y="55.176787" style="fill: #1f77b4; stroke: #ffffff; stroke-width: 0.75"/>
     <use xlink:href="#m2d745fbf30" x="256.203313" y="54.865735" style="fill: #1f77b4; stroke: #ffffff; stroke-width: 0.75"/>
     <use xlink:href="#m2d745fbf30" x="268.137148" y="54.865735" style="fill: #1f77b4; stroke: #ffffff; stroke-width: 0.75"/>
     <use xlink:href="#m2d745fbf30" x="280.070982" y="54.787973" style="fill: #1f77b4; stroke: #ffffff; stroke-width: 0.75"/>
     <use xlink:href="#m2d745fbf30" x="292.004817" y="54.71021" style="fill: #1f77b4; stroke: #ffffff; stroke-width: 0.75"/>
     <use xlink:href="#m2d745fbf30" x="303.938651" y="53.777057" style="fill: #1f77b4; stroke: #ffffff; stroke-width: 0.75"/>
     <use xlink:href="#m2d745fbf30" x="315.872486" y="53.232717" style="fill: #1f77b4; stroke: #ffffff; stroke-width: 0.75"/>
     <use xlink:href="#m2d745fbf30" x="327.80632" y="53.232717" style="fill: #1f77b4; stroke: #ffffff; stroke-width: 0.75"/>
     <use xlink:href="#m2d745fbf30" x="339.740155" y="53.154954" style="fill: #1f77b4; stroke: #ffffff; stroke-width: 0.75"/>
     <use xlink:href="#m2d745fbf30" x="351.67399" y="53.154954" style="fill: #1f77b4; stroke: #ffffff; stroke-width: 0.75"/>
     <use xlink:href="#m2d745fbf30" x="363.607824" y="52.610615" style="fill: #1f77b4; stroke: #ffffff; stroke-width: 0.75"/>
     <use xlink:href="#m2d745fbf30" x="375.541659" y="51.521936" style="fill: #1f77b4; stroke: #ffffff; stroke-width: 0.75"/>
     <use xlink:href="#m2d745fbf30" x="387.475493" y="51.521936" style="fill: #1f77b4; stroke: #ffffff; stroke-width: 0.75"/>
     <use xlink:href="#m2d745fbf30" x="399.409328" y="51.521936" style="fill: #1f77b4; stroke: #ffffff; stroke-width: 0.75"/>
     <use xlink:href="#m2d745fbf30" x="411.343163" y="51.444173" style="fill: #1f77b4; stroke: #ffffff; stroke-width: 0.75"/>
     <use xlink:href="#m2d745fbf30" x="423.276997" y="51.444173" style="fill: #1f77b4; stroke: #ffffff; stroke-width: 0.75"/>
     <use xlink:href="#m2d745fbf30" x="435.210832" y="51.444173" style="fill: #1f77b4; stroke: #ffffff; stroke-width: 0.75"/>
     <use xlink:href="#m2d745fbf30" x="447.144666" y="51.444173" style="fill: #1f77b4; stroke: #ffffff; stroke-width: 0.75"/>
     <use xlink:href="#m2d745fbf30" x="459.078501" y="51.444173" style="fill: #1f77b4; stroke: #ffffff; stroke-width: 0.75"/>
     <use xlink:href="#m2d745fbf30" x="471.012336" y="51.444173" style="fill: #1f77b4; stroke: #ffffff; stroke-width: 0.75"/>
     <use xlink:href="#m2d745fbf30" x="482.94617" y="51.444173" style="fill: #1f77b4; stroke: #ffffff; stroke-width: 0.75"/>
     <use xlink:href="#m2d745fbf30" x="494.880005" y="51.444173" style="fill: #1f77b4; stroke: #ffffff; stroke-width: 0.75"/>
     <use xlink:href="#m2d745fbf30" x="506.813839" y="51.210885" style="fill: #1f77b4; stroke: #ffffff; stroke-width: 0.75"/>
     <use xlink:href="#m2d745fbf30" x="518.747674" y="51.133122" style="fill: #1f77b4; stroke: #ffffff; stroke-width: 0.75"/>
     <use xlink:href="#m2d745fbf30" x="530.681508" y="45.456439" style="fill: #1f77b4; stroke: #ffffff; stroke-width: 0.75"/>
     <use xlink:href="#m2d745fbf30" x="542.615343" y="44.834337" style="fill: #1f77b4; stroke: #ffffff; stroke-width: 0.75"/>
     <use xlink:href="#m2d745fbf30" x="554.549178" y="44.601049" style="fill: #1f77b4; stroke: #ffffff; stroke-width: 0.75"/>
     <use xlink:href="#m2d745fbf30" x="566.483012" y="44.36776" style="fill: #1f77b4; stroke: #ffffff; stroke-width: 0.75"/>
     <use xlink:href="#m2d745fbf30" x="578.416847" y="44.289998" style="fill: #1f77b4; stroke: #ffffff; stroke-width: 0.75"/>
     <use xlink:href="#m2d745fbf30" x="590.350681" y="44.212235" style="fill: #1f77b4; stroke: #ffffff; stroke-width: 0.75"/>
     <use xlink:href="#m2d745fbf30" x="602.284516" y="44.134472" style="fill: #1f77b4; stroke: #ffffff; stroke-width: 0.75"/>
     <use xlink:href="#m2d745fbf30" x="614.218351" y="44.056709" style="fill: #1f77b4; stroke: #ffffff; stroke-width: 0.75"/>
     <use xlink:href="#m2d745fbf30" x="626.152185" y="44.056709" style="fill: #1f77b4; stroke: #ffffff; stroke-width: 0.75"/>
     <use xlink:href="#m2d745fbf30" x="638.08602" y="43.978947" style="fill: #1f77b4; stroke: #ffffff; stroke-width: 0.75"/>
     <use xlink:href="#m2d745fbf30" x="650.019854" y="43.590133" style="fill: #1f77b4; stroke: #ffffff; stroke-width: 0.75"/>
     <use xlink:href="#m2d745fbf30" x="661.953689" y="42.656979" style="fill: #1f77b4; stroke: #ffffff; stroke-width: 0.75"/>
     <use xlink:href="#m2d745fbf30" x="673.887523" y="42.656979" style="fill: #1f77b4; stroke: #ffffff; stroke-width: 0.75"/>
     <use xlink:href="#m2d745fbf30" x="685.821358" y="41.646063" style="fill: #1f77b4; stroke: #ffffff; stroke-width: 0.75"/>
     <use xlink:href="#m2d745fbf30" x="697.755193" y="41.646063" style="fill: #1f77b4; stroke: #ffffff; stroke-width: 0.75"/>
     <use xlink:href="#m2d745fbf30" x="709.689027" y="41.646063" style="fill: #1f77b4; stroke: #ffffff; stroke-width: 0.75"/>
     <use xlink:href="#m2d745fbf30" x="721.622862" y="41.646063" style="fill: #1f77b4; stroke: #ffffff; stroke-width: 0.75"/>
     <use xlink:href="#m2d745fbf30" x="733.556696" y="41.568301" style="fill: #1f77b4; stroke: #ffffff; stroke-width: 0.75"/>
    </g>
   </g>
   <g id="line2d_22">
    <path d="M 53.328125 276.334125 
L 65.26196 89.15912 
L 77.195794 88.30373 
L 89.129629 84.648879 
L 101.063463 83.015861 
L 112.997298 82.082707 
L 124.931133 80.682977 
L 136.864967 78.661145 
L 148.798802 78.039043 
L 160.732636 77.883517 
L 172.666471 76.328262 
L 184.600305 69.251849 
L 196.53414 68.396459 
L 208.467975 67.30778 
L 220.401809 66.141338 
L 232.335644 66.063575 
L 244.269478 63.497404 
L 256.203313 63.497404 
L 268.137148 62.719776 
L 280.070982 56.498754 
L 292.004817 55.954414 
L 303.938651 55.876652 
L 315.872486 55.798889 
L 327.80632 55.798889 
L 339.740155 55.798889 
L 351.67399 55.798889 
L 363.607824 55.798889 
L 375.541659 55.021261 
L 387.475493 54.321396 
L 399.409328 54.010345 
L 411.343163 53.777057 
L 423.276997 53.621531 
L 435.210832 53.621531 
L 447.144666 52.999429 
L 459.078501 52.843903 
L 471.012336 52.843903 
L 482.94617 51.055359 
L 494.880005 50.977597 
L 506.813839 50.588783 
L 518.747674 49.96668 
L 530.681508 49.189053 
L 542.615343 49.11129 
L 554.549178 49.189053 
L 566.483012 49.189053 
L 578.416847 49.189053 
L 590.350681 48.955764 
L 602.284516 48.955764 
L 614.218351 48.489188 
L 626.152185 48.333662 
L 638.08602 48.333662 
L 650.019854 48.333662 
L 661.953689 48.255899 
L 673.887523 48.255899 
L 685.821358 48.411425 
L 697.755193 48.255899 
L 709.689027 48.255899 
L 721.622862 48.255899 
L 733.556696 47.867085 
" clip-path="url(#p465cbd2317)" style="fill: none; stroke: #d62728; stroke-width: 1.5; stroke-linecap: square"/>
    <defs>
     <path id="m49e9baa5ac" d="M 0 -3 
L -3 3 
L 3 3 
z
" style="stroke: #ffffff; stroke-width: 0.75; stroke-linejoin: miter"/>
    </defs>
    <g clip-path="url(#p465cbd2317)">
     <use xlink:href="#m49e9baa5ac" x="53.328125" y="276.334125" style="fill: #d62728; stroke: #ffffff; stroke-width: 0.75; stroke-linejoin: miter"/>
     <use xlink:href="#m49e9baa5ac" x="65.26196" y="89.15912" style="fill: #d62728; stroke: #ffffff; stroke-width: 0.75; stroke-linejoin: miter"/>
     <use xlink:href="#m49e9baa5ac" x="77.195794" y="88.30373" style="fill: #d62728; stroke: #ffffff; stroke-width: 0.75; stroke-linejoin: miter"/>
     <use xlink:href="#m49e9baa5ac" x="89.129629" y="84.648879" style="fill: #d62728; stroke: #ffffff; stroke-width: 0.75; stroke-linejoin: miter"/>
     <use xlink:href="#m49e9baa5ac" x="101.063463" y="83.015861" style="fill: #d62728; stroke: #ffffff; stroke-width: 0.75; stroke-linejoin: miter"/>
     <use xlink:href="#m49e9baa5ac" x="112.997298" y="82.082707" style="fill: #d62728; stroke: #ffffff; stroke-width: 0.75; stroke-linejoin: miter"/>
     <use xlink:href="#m49e9baa5ac" x="124.931133" y="80.682977" style="fill: #d62728; stroke: #ffffff; stroke-width: 0.75; stroke-linejoin: miter"/>
     <use xlink:href="#m49e9baa5ac" x="136.864967" y="78.661145" style="fill: #d62728; stroke: #ffffff; stroke-width: 0.75; stroke-linejoin: miter"/>
     <use xlink:href="#m49e9baa5ac" x="148.798802" y="78.039043" style="fill: #d62728; stroke: #ffffff; stroke-width: 0.75; stroke-linejoin: miter"/>
     <use xlink:href="#m49e9baa5ac" x="160.732636" y="77.883517" style="fill: #d62728; stroke: #ffffff; stroke-width: 0.75; stroke-linejoin: miter"/>
     <use xlink:href="#m49e9baa5ac" x="172.666471" y="76.328262" style="fill: #d62728; stroke: #ffffff; stroke-width: 0.75; stroke-linejoin: miter"/>
     <use xlink:href="#m49e9baa5ac" x="184.600305" y="69.251849" style="fill: #d62728; stroke: #ffffff; stroke-width: 0.75; stroke-linejoin: miter"/>
     <use xlink:href="#m49e9baa5ac" x="196.53414" y="68.396459" style="fill: #d62728; stroke: #ffffff; stroke-width: 0.75; stroke-linejoin: miter"/>
     <use xlink:href="#m49e9baa5ac" x="208.467975" y="67.30778" style="fill: #d62728; stroke: #ffffff; stroke-width: 0.75; stroke-linejoin: miter"/>
     <use xlink:href="#m49e9baa5ac" x="220.401809" y="66.141338" style="fill: #d62728; stroke: #ffffff; stroke-width: 0.75; stroke-linejoin: miter"/>
     <use xlink:href="#m49e9baa5ac" x="232.335644" y="66.063575" style="fill: #d62728; stroke: #ffffff; stroke-width: 0.75; stroke-linejoin: miter"/>
     <use xlink:href="#m49e9baa5ac" x="244.269478" y="63.497404" style="fill: #d62728; stroke: #ffffff; stroke-width: 0.75; stroke-linejoin: miter"/>
     <use xlink:href="#m49e9baa5ac" x="256.203313" y="63.497404" style="fill: #d62728; stroke: #ffffff; stroke-width: 0.75; stroke-linejoin: miter"/>
     <use xlink:href="#m49e9baa5ac" x="268.137148" y="62.719776" style="fill: #d62728; stroke: #ffffff; stroke-width: 0.75; stroke-linejoin: miter"/>
     <use xlink:href="#m49e9baa5ac" x="280.070982" y="56.498754" style="fill: #d62728; stroke: #ffffff; stroke-width: 0.75; stroke-linejoin: miter"/>
     <use xlink:href="#m49e9baa5ac" x="292.004817" y="55.954414" style="fill: #d62728; stroke: #ffffff; stroke-width: 0.75; stroke-linejoin: miter"/>
     <use xlink:href="#m49e9baa5ac" x="303.938651" y="55.876652" style="fill: #d62728; stroke: #ffffff; stroke-width: 0.75; stroke-linejoin: miter"/>
     <use xlink:href="#m49e9baa5ac" x="315.872486" y="55.798889" style="fill: #d62728; stroke: #ffffff; stroke-width: 0.75; stroke-linejoin: miter"/>
     <use xlink:href="#m49e9baa5ac" x="327.80632" y="55.798889" style="fill: #d62728; stroke: #ffffff; stroke-width: 0.75; stroke-linejoin: miter"/>
     <use xlink:href="#m49e9baa5ac" x="339.740155" y="55.798889" style="fill: #d62728; stroke: #ffffff; stroke-width: 0.75; stroke-linejoin: miter"/>
     <use xlink:href="#m49e9baa5ac" x="351.67399" y="55.798889" style="fill: #d62728; stroke: #ffffff; stroke-width: 0.75; stroke-linejoin: miter"/>
     <use xlink:href="#m49e9baa5ac" x="363.607824" y="55.798889" style="fill: #d62728; stroke: #ffffff; stroke-width: 0.75; stroke-linejoin: miter"/>
     <use xlink:href="#m49e9baa5ac" x="375.541659" y="55.021261" style="fill: #d62728; stroke: #ffffff; stroke-width: 0.75; stroke-linejoin: miter"/>
     <use xlink:href="#m49e9baa5ac" x="387.475493" y="54.321396" style="fill: #d62728; stroke: #ffffff; stroke-width: 0.75; stroke-linejoin: miter"/>
     <use xlink:href="#m49e9baa5ac" x="399.409328" y="54.010345" style="fill: #d62728; stroke: #ffffff; stroke-width: 0.75; stroke-linejoin: miter"/>
     <use xlink:href="#m49e9baa5ac" x="411.343163" y="53.777057" style="fill: #d62728; stroke: #ffffff; stroke-width: 0.75; stroke-linejoin: miter"/>
     <use xlink:href="#m49e9baa5ac" x="423.276997" y="53.621531" style="fill: #d62728; stroke: #ffffff; stroke-width: 0.75; stroke-linejoin: miter"/>
     <use xlink:href="#m49e9baa5ac" x="435.210832" y="53.621531" style="fill: #d62728; stroke: #ffffff; stroke-width: 0.75; stroke-linejoin: miter"/>
     <use xlink:href="#m49e9baa5ac" x="447.144666" y="52.999429" style="fill: #d62728; stroke: #ffffff; stroke-width: 0.75; stroke-linejoin: miter"/>
     <use xlink:href="#m49e9baa5ac" x="459.078501" y="52.843903" style="fill: #d62728; stroke: #ffffff; stroke-width: 0.75; stroke-linejoin: miter"/>
     <use xlink:href="#m49e9baa5ac" x="471.012336" y="52.843903" style="fill: #d62728; stroke: #ffffff; stroke-width: 0.75; stroke-linejoin: miter"/>
     <use xlink:href="#m49e9baa5ac" x="482.94617" y="51.055359" style="fill: #d62728; stroke: #ffffff; stroke-width: 0.75; stroke-linejoin: miter"/>
     <use xlink:href="#m49e9baa5ac" x="494.880005" y="50.977597" style="fill: #d62728; stroke: #ffffff; stroke-width: 0.75; stroke-linejoin: miter"/>
     <use xlink:href="#m49e9baa5ac" x="506.813839" y="50.588783" style="fill: #d62728; stroke: #ffffff; stroke-width: 0.75; stroke-linejoin: miter"/>
     <use xlink:href="#m49e9baa5ac" x="518.747674" y="49.96668" style="fill: #d62728; stroke: #ffffff; stroke-width: 0.75; stroke-linejoin: miter"/>
     <use xlink:href="#m49e9baa5ac" x="530.681508" y="49.189053" style="fill: #d62728; stroke: #ffffff; stroke-width: 0.75; stroke-linejoin: miter"/>
     <use xlink:href="#m49e9baa5ac" x="542.615343" y="49.11129" style="fill: #d62728; stroke: #ffffff; stroke-width: 0.75; stroke-linejoin: miter"/>
     <use xlink:href="#m49e9baa5ac" x="554.549178" y="49.189053" style="fill: #d62728; stroke: #ffffff; stroke-width: 0.75; stroke-linejoin: miter"/>
     <use xlink:href="#m49e9baa5ac" x="566.483012" y="49.189053" style="fill: #d62728; stroke: #ffffff; stroke-width: 0.75; stroke-linejoin: miter"/>
     <use xlink:href="#m49e9baa5ac" x="578.416847" y="49.189053" style="fill: #d62728; stroke: #ffffff; stroke-width: 0.75; stroke-linejoin: miter"/>
     <use xlink:href="#m49e9baa5ac" x="590.350681" y="48.955764" style="fill: #d62728; stroke: #ffffff; stroke-width: 0.75; stroke-linejoin: miter"/>
     <use xlink:href="#m49e9baa5ac" x="602.284516" y="48.955764" style="fill: #d62728; stroke: #ffffff; stroke-width: 0.75; stroke-linejoin: miter"/>
     <use xlink:href="#m49e9baa5ac" x="614.218351" y="48.489188" style="fill: #d62728; stroke: #ffffff; stroke-width: 0.75; stroke-linejoin: miter"/>
     <use xlink:href="#m49e9baa5ac" x="626.152185" y="48.333662" style="fill: #d62728; stroke: #ffffff; stroke-width: 0.75; stroke-linejoin: miter"/>
     <use xlink:href="#m49e9baa5ac" x="638.08602" y="48.333662" style="fill: #d62728; stroke: #ffffff; stroke-width: 0.75; stroke-linejoin: miter"/>
     <use xlink:href="#m49e9baa5ac" x="650.019854" y="48.333662" style="fill: #d62728; stroke: #ffffff; stroke-width: 0.75; stroke-linejoin: miter"/>
     <use xlink:href="#m49e9baa5ac" x="661.953689" y="48.255899" style="fill: #d62728; stroke: #ffffff; stroke-width: 0.75; stroke-linejoin: miter"/>
     <use xlink:href="#m49e9baa5ac" x="673.887523" y="48.255899" style="fill: #d62728; stroke: #ffffff; stroke-width: 0.75; stroke-linejoin: miter"/>
     <use xlink:href="#m49e9baa5ac" x="685.821358" y="48.411425" style="fill: #d62728; stroke: #ffffff; stroke-width: 0.75; stroke-linejoin: miter"/>
     <use xlink:href="#m49e9baa5ac" x="697.755193" y="48.255899" style="fill: #d62728; stroke: #ffffff; stroke-width: 0.75; stroke-linejoin: miter"/>
     <use xlink:href="#m49e9baa5ac" x="709.689027" y="48.255899" style="fill: #d62728; stroke: #ffffff; stroke-width: 0.75; stroke-linejoin: miter"/>
     <use xlink:href="#m49e9baa5ac" x="721.622862" y="48.255899" style="fill: #d62728; stroke: #ffffff; stroke-width: 0.75; stroke-linejoin: miter"/>
     <use xlink:href="#m49e9baa5ac" x="733.556696" y="47.867085" style="fill: #d62728; stroke: #ffffff; stroke-width: 0.75; stroke-linejoin: miter"/>
    </g>
   </g>
   <g id="line2d_23">
    <path d="M 53.328125 276.334125 
L 65.26196 83.249149 
L 77.195794 80.682977 
L 89.129629 79.438773 
L 101.063463 78.350094 
L 112.997298 76.328262 
L 124.931133 76.094974 
L 136.864967 75.939448 
L 148.798802 75.16182 
L 160.732636 74.928532 
L 172.666471 73.76209 
L 184.600305 70.573816 
L 196.53414 70.262765 
L 208.467975 70.262765 
L 220.401809 70.10724 
L 232.335644 69.407375 
L 244.269478 68.085408 
L 256.203313 66.607915 
L 268.137148 66.374626 
L 280.070982 63.264115 
L 292.004817 57.043093 
L 303.938651 56.96533 
L 315.872486 56.809805 
L 327.80632 56.498754 
L 339.740155 56.343228 
L 351.67399 55.876652 
L 363.607824 55.721126 
L 375.541659 55.721126 
L 387.475493 55.643363 
L 399.409328 53.154954 
L 411.343163 52.921666 
L 423.276997 52.76614 
L 435.210832 52.455089 
L 447.144666 52.221801 
L 459.078501 50.977597 
L 471.012336 50.122206 
L 482.94617 50.044443 
L 494.880005 49.96668 
L 506.813839 49.733392 
L 518.747674 49.733392 
L 530.681508 49.655629 
L 542.615343 48.333662 
L 554.549178 48.333662 
L 566.483012 48.022611 
L 578.416847 47.478272 
L 590.350681 47.244983 
L 602.284516 47.244983 
L 614.218351 47.244983 
L 626.152185 46.700644 
L 638.08602 46.622881 
L 650.019854 46.000779 
L 661.953689 45.923016 
L 673.887523 45.845253 
L 685.821358 45.689728 
L 697.755193 45.611965 
L 709.689027 45.456439 
L 721.622862 45.456439 
L 733.556696 45.378677 
" clip-path="url(#p465cbd2317)" style="fill: none; stroke: #98df8a; stroke-width: 1.5; stroke-linecap: square"/>
    <defs>
     <path id="m77b96c501c" d="M -0 3 
L 3 -3 
L -3 -3 
z
" style="stroke: #ffffff; stroke-width: 0.75; stroke-linejoin: miter"/>
    </defs>
    <g clip-path="url(#p465cbd2317)">
     <use xlink:href="#m77b96c501c" x="53.328125" y="276.334125" style="fill: #98df8a; stroke: #ffffff; stroke-width: 0.75; stroke-linejoin: miter"/>
     <use xlink:href="#m77b96c501c" x="65.26196" y="83.249149" style="fill: #98df8a; stroke: #ffffff; stroke-width: 0.75; stroke-linejoin: miter"/>
     <use xlink:href="#m77b96c501c" x="77.195794" y="80.682977" style="fill: #98df8a; stroke: #ffffff; stroke-width: 0.75; stroke-linejoin: miter"/>
     <use xlink:href="#m77b96c501c" x="89.129629" y="79.438773" style="fill: #98df8a; stroke: #ffffff; stroke-width: 0.75; stroke-linejoin: miter"/>
     <use xlink:href="#m77b96c501c" x="101.063463" y="78.350094" style="fill: #98df8a; stroke: #ffffff; stroke-width: 0.75; stroke-linejoin: miter"/>
     <use xlink:href="#m77b96c501c" x="112.997298" y="76.328262" style="fill: #98df8a; stroke: #ffffff; stroke-width: 0.75; stroke-linejoin: miter"/>
     <use xlink:href="#m77b96c501c" x="124.931133" y="76.094974" style="fill: #98df8a; stroke: #ffffff; stroke-width: 0.75; stroke-linejoin: miter"/>
     <use xlink:href="#m77b96c501c" x="136.864967" y="75.939448" style="fill: #98df8a; stroke: #ffffff; stroke-width: 0.75; stroke-linejoin: miter"/>
     <use xlink:href="#m77b96c501c" x="148.798802" y="75.16182" style="fill: #98df8a; stroke: #ffffff; stroke-width: 0.75; stroke-linejoin: miter"/>
     <use xlink:href="#m77b96c501c" x="160.732636" y="74.928532" style="fill: #98df8a; stroke: #ffffff; stroke-width: 0.75; stroke-linejoin: miter"/>
     <use xlink:href="#m77b96c501c" x="172.666471" y="73.76209" style="fill: #98df8a; stroke: #ffffff; stroke-width: 0.75; stroke-linejoin: miter"/>
     <use xlink:href="#m77b96c501c" x="184.600305" y="70.573816" style="fill: #98df8a; stroke: #ffffff; stroke-width: 0.75; stroke-linejoin: miter"/>
     <use xlink:href="#m77b96c501c" x="196.53414" y="70.262765" style="fill: #98df8a; stroke: #ffffff; stroke-width: 0.75; stroke-linejoin: miter"/>
     <use xlink:href="#m77b96c501c" x="208.467975" y="70.262765" style="fill: #98df8a; stroke: #ffffff; stroke-width: 0.75; stroke-linejoin: miter"/>
     <use xlink:href="#m77b96c501c" x="220.401809" y="70.10724" style="fill: #98df8a; stroke: #ffffff; stroke-width: 0.75; stroke-linejoin: miter"/>
     <use xlink:href="#m77b96c501c" x="232.335644" y="69.407375" style="fill: #98df8a; stroke: #ffffff; stroke-width: 0.75; stroke-linejoin: miter"/>
     <use xlink:href="#m77b96c501c" x="244.269478" y="68.085408" style="fill: #98df8a; stroke: #ffffff; stroke-width: 0.75; stroke-linejoin: miter"/>
     <use xlink:href="#m77b96c501c" x="256.203313" y="66.607915" style="fill: #98df8a; stroke: #ffffff; stroke-width: 0.75; stroke-linejoin: miter"/>
     <use xlink:href="#m77b96c501c" x="268.137148" y="66.374626" style="fill: #98df8a; stroke: #ffffff; stroke-width: 0.75; stroke-linejoin: miter"/>
     <use xlink:href="#m77b96c501c" x="280.070982" y="63.264115" style="fill: #98df8a; stroke: #ffffff; stroke-width: 0.75; stroke-linejoin: miter"/>
     <use xlink:href="#m77b96c501c" x="292.004817" y="57.043093" style="fill: #98df8a; stroke: #ffffff; stroke-width: 0.75; stroke-linejoin: miter"/>
     <use xlink:href="#m77b96c501c" x="303.938651" y="56.96533" style="fill: #98df8a; stroke: #ffffff; stroke-width: 0.75; stroke-linejoin: miter"/>
     <use xlink:href="#m77b96c501c" x="315.872486" y="56.809805" style="fill: #98df8a; stroke: #ffffff; stroke-width: 0.75; stroke-linejoin: miter"/>
     <use xlink:href="#m77b96c501c" x="327.80632" y="56.498754" style="fill: #98df8a; stroke: #ffffff; stroke-width: 0.75; stroke-linejoin: miter"/>
     <use xlink:href="#m77b96c501c" x="339.740155" y="56.343228" style="fill: #98df8a; stroke: #ffffff; stroke-width: 0.75; stroke-linejoin: miter"/>
     <use xlink:href="#m77b96c501c" x="351.67399" y="55.876652" style="fill: #98df8a; stroke: #ffffff; stroke-width: 0.75; stroke-linejoin: miter"/>
     <use xlink:href="#m77b96c501c" x="363.607824" y="55.721126" style="fill: #98df8a; stroke: #ffffff; stroke-width: 0.75; stroke-linejoin: miter"/>
     <use xlink:href="#m77b96c501c" x="375.541659" y="55.721126" style="fill: #98df8a; stroke: #ffffff; stroke-width: 0.75; stroke-linejoin: miter"/>
     <use xlink:href="#m77b96c501c" x="387.475493" y="55.643363" style="fill: #98df8a; stroke: #ffffff; stroke-width: 0.75; stroke-linejoin: miter"/>
     <use xlink:href="#m77b96c501c" x="399.409328" y="53.154954" style="fill: #98df8a; stroke: #ffffff; stroke-width: 0.75; stroke-linejoin: miter"/>
     <use xlink:href="#m77b96c501c" x="411.343163" y="52.921666" style="fill: #98df8a; stroke: #ffffff; stroke-width: 0.75; stroke-linejoin: miter"/>
     <use xlink:href="#m77b96c501c" x="423.276997" y="52.76614" style="fill: #98df8a; stroke: #ffffff; stroke-width: 0.75; stroke-linejoin: miter"/>
     <use xlink:href="#m77b96c501c" x="435.210832" y="52.455089" style="fill: #98df8a; stroke: #ffffff; stroke-width: 0.75; stroke-linejoin: miter"/>
     <use xlink:href="#m77b96c501c" x="447.144666" y="52.221801" style="fill: #98df8a; stroke: #ffffff; stroke-width: 0.75; stroke-linejoin: miter"/>
     <use xlink:href="#m77b96c501c" x="459.078501" y="50.977597" style="fill: #98df8a; stroke: #ffffff; stroke-width: 0.75; stroke-linejoin: miter"/>
     <use xlink:href="#m77b96c501c" x="471.012336" y="50.122206" style="fill: #98df8a; stroke: #ffffff; stroke-width: 0.75; stroke-linejoin: miter"/>
     <use xlink:href="#m77b96c501c" x="482.94617" y="50.044443" style="fill: #98df8a; stroke: #ffffff; stroke-width: 0.75; stroke-linejoin: miter"/>
     <use xlink:href="#m77b96c501c" x="494.880005" y="49.96668" style="fill: #98df8a; stroke: #ffffff; stroke-width: 0.75; stroke-linejoin: miter"/>
     <use xlink:href="#m77b96c501c" x="506.813839" y="49.733392" style="fill: #98df8a; stroke: #ffffff; stroke-width: 0.75; stroke-linejoin: miter"/>
     <use xlink:href="#m77b96c501c" x="518.747674" y="49.733392" style="fill: #98df8a; stroke: #ffffff; stroke-width: 0.75; stroke-linejoin: miter"/>
     <use xlink:href="#m77b96c501c" x="530.681508" y="49.655629" style="fill: #98df8a; stroke: #ffffff; stroke-width: 0.75; stroke-linejoin: miter"/>
     <use xlink:href="#m77b96c501c" x="542.615343" y="48.333662" style="fill: #98df8a; stroke: #ffffff; stroke-width: 0.75; stroke-linejoin: miter"/>
     <use xlink:href="#m77b96c501c" x="554.549178" y="48.333662" style="fill: #98df8a; stroke: #ffffff; stroke-width: 0.75; stroke-linejoin: miter"/>
     <use xlink:href="#m77b96c501c" x="566.483012" y="48.022611" style="fill: #98df8a; stroke: #ffffff; stroke-width: 0.75; stroke-linejoin: miter"/>
     <use xlink:href="#m77b96c501c" x="578.416847" y="47.478272" style="fill: #98df8a; stroke: #ffffff; stroke-width: 0.75; stroke-linejoin: miter"/>
     <use xlink:href="#m77b96c501c" x="590.350681" y="47.244983" style="fill: #98df8a; stroke: #ffffff; stroke-width: 0.75; stroke-linejoin: miter"/>
     <use xlink:href="#m77b96c501c" x="602.284516" y="47.244983" style="fill: #98df8a; stroke: #ffffff; stroke-width: 0.75; stroke-linejoin: miter"/>
     <use xlink:href="#m77b96c501c" x="614.218351" y="47.244983" style="fill: #98df8a; stroke: #ffffff; stroke-width: 0.75; stroke-linejoin: miter"/>
     <use xlink:href="#m77b96c501c" x="626.152185" y="46.700644" style="fill: #98df8a; stroke: #ffffff; stroke-width: 0.75; stroke-linejoin: miter"/>
     <use xlink:href="#m77b96c501c" x="638.08602" y="46.622881" style="fill: #98df8a; stroke: #ffffff; stroke-width: 0.75; stroke-linejoin: miter"/>
     <use xlink:href="#m77b96c501c" x="650.019854" y="46.000779" style="fill: #98df8a; stroke: #ffffff; stroke-width: 0.75; stroke-linejoin: miter"/>
     <use xlink:href="#m77b96c501c" x="661.953689" y="45.923016" style="fill: #98df8a; stroke: #ffffff; stroke-width: 0.75; stroke-linejoin: miter"/>
     <use xlink:href="#m77b96c501c" x="673.887523" y="45.845253" style="fill: #98df8a; stroke: #ffffff; stroke-width: 0.75; stroke-linejoin: miter"/>
     <use xlink:href="#m77b96c501c" x="685.821358" y="45.689728" style="fill: #98df8a; stroke: #ffffff; stroke-width: 0.75; stroke-linejoin: miter"/>
     <use xlink:href="#m77b96c501c" x="697.755193" y="45.611965" style="fill: #98df8a; stroke: #ffffff; stroke-width: 0.75; stroke-linejoin: miter"/>
     <use xlink:href="#m77b96c501c" x="709.689027" y="45.456439" style="fill: #98df8a; stroke: #ffffff; stroke-width: 0.75; stroke-linejoin: miter"/>
     <use xlink:href="#m77b96c501c" x="721.622862" y="45.456439" style="fill: #98df8a; stroke: #ffffff; stroke-width: 0.75; stroke-linejoin: miter"/>
     <use xlink:href="#m77b96c501c" x="733.556696" y="45.378677" style="fill: #98df8a; stroke: #ffffff; stroke-width: 0.75; stroke-linejoin: miter"/>
    </g>
   </g>
   <g id="line2d_24">
    <path d="M 53.328125 276.334125 
L 65.26196 91.258715 
L 77.195794 81.693894 
L 89.129629 80.682977 
L 101.063463 79.36101 
L 112.997298 77.339178 
L 124.931133 76.406025 
L 136.864967 75.70616 
L 148.798802 75.628397 
L 160.732636 74.30643 
L 172.666471 73.451039 
L 184.600305 73.451039 
L 196.53414 73.139988 
L 208.467975 73.062225 
L 220.401809 72.828937 
L 232.335644 72.517886 
L 244.269478 72.517886 
L 256.203313 72.36236 
L 268.137148 72.36236 
L 280.070982 71.895784 
L 292.004817 71.429207 
L 303.938651 71.429207 
L 315.872486 71.429207 
L 327.80632 66.296864 
L 339.740155 65.830287 
L 351.67399 65.596999 
L 363.607824 65.052659 
L 375.541659 64.974896 
L 387.475493 64.974896 
L 399.409328 62.253199 
L 411.343163 61.553334 
L 423.276997 61.553334 
L 435.210832 61.553334 
L 447.144666 61.553334 
L 459.078501 61.008995 
L 471.012336 60.931232 
L 482.94617 60.697944 
L 494.880005 56.576517 
L 506.813839 56.343228 
L 518.747674 52.532852 
L 530.681508 51.988513 
L 542.615343 51.36641 
L 554.549178 50.822071 
L 566.483012 49.577867 
L 578.416847 49.577867 
L 590.350681 49.577867 
L 602.284516 49.577867 
L 614.218351 49.577867 
L 626.152185 49.577867 
L 638.08602 49.577867 
L 650.019854 48.178137 
L 661.953689 47.789323 
L 673.887523 47.322746 
L 685.821358 47.16722 
L 697.755193 47.16722 
L 709.689027 47.089458 
L 721.622862 47.011695 
L 733.556696 47.16722 
" clip-path="url(#p465cbd2317)" style="fill: none; stroke: #c7c7c7; stroke-width: 1.5; stroke-linecap: square"/>
    <defs>
     <path id="m988bdb7948" d="M -3 -0 
L 3 3 
L 3 -3 
z
" style="stroke: #ffffff; stroke-width: 0.75; stroke-linejoin: miter"/>
    </defs>
    <g clip-path="url(#p465cbd2317)">
     <use xlink:href="#m988bdb7948" x="53.328125" y="276.334125" style="fill: #c7c7c7; stroke: #ffffff; stroke-width: 0.75; stroke-linejoin: miter"/>
     <use xlink:href="#m988bdb7948" x="65.26196" y="91.258715" style="fill: #c7c7c7; stroke: #ffffff; stroke-width: 0.75; stroke-linejoin: miter"/>
     <use xlink:href="#m988bdb7948" x="77.195794" y="81.693894" style="fill: #c7c7c7; stroke: #ffffff; stroke-width: 0.75; stroke-linejoin: miter"/>
     <use xlink:href="#m988bdb7948" x="89.129629" y="80.682977" style="fill: #c7c7c7; stroke: #ffffff; stroke-width: 0.75; stroke-linejoin: miter"/>
     <use xlink:href="#m988bdb7948" x="101.063463" y="79.36101" style="fill: #c7c7c7; stroke: #ffffff; stroke-width: 0.75; stroke-linejoin: miter"/>
     <use xlink:href="#m988bdb7948" x="112.997298" y="77.339178" style="fill: #c7c7c7; stroke: #ffffff; stroke-width: 0.75; stroke-linejoin: miter"/>
     <use xlink:href="#m988bdb7948" x="124.931133" y="76.406025" style="fill: #c7c7c7; stroke: #ffffff; stroke-width: 0.75; stroke-linejoin: miter"/>
     <use xlink:href="#m988bdb7948" x="136.864967" y="75.70616" style="fill: #c7c7c7; stroke: #ffffff; stroke-width: 0.75; stroke-linejoin: miter"/>
     <use xlink:href="#m988bdb7948" x="148.798802" y="75.628397" style="fill: #c7c7c7; stroke: #ffffff; stroke-width: 0.75; stroke-linejoin: miter"/>
     <use xlink:href="#m988bdb7948" x="160.732636" y="74.30643" style="fill: #c7c7c7; stroke: #ffffff; stroke-width: 0.75; stroke-linejoin: miter"/>
     <use xlink:href="#m988bdb7948" x="172.666471" y="73.451039" style="fill: #c7c7c7; stroke: #ffffff; stroke-width: 0.75; stroke-linejoin: miter"/>
     <use xlink:href="#m988bdb7948" x="184.600305" y="73.451039" style="fill: #c7c7c7; stroke: #ffffff; stroke-width: 0.75; stroke-linejoin: miter"/>
     <use xlink:href="#m988bdb7948" x="196.53414" y="73.139988" style="fill: #c7c7c7; stroke: #ffffff; stroke-width: 0.75; stroke-linejoin: miter"/>
     <use xlink:href="#m988bdb7948" x="208.467975" y="73.062225" style="fill: #c7c7c7; stroke: #ffffff; stroke-width: 0.75; stroke-linejoin: miter"/>
     <use xlink:href="#m988bdb7948" x="220.401809" y="72.828937" style="fill: #c7c7c7; stroke: #ffffff; stroke-width: 0.75; stroke-linejoin: miter"/>
     <use xlink:href="#m988bdb7948" x="232.335644" y="72.517886" style="fill: #c7c7c7; stroke: #ffffff; stroke-width: 0.75; stroke-linejoin: miter"/>
     <use xlink:href="#m988bdb7948" x="244.269478" y="72.517886" style="fill: #c7c7c7; stroke: #ffffff; stroke-width: 0.75; stroke-linejoin: miter"/>
     <use xlink:href="#m988bdb7948" x="256.203313" y="72.36236" style="fill: #c7c7c7; stroke: #ffffff; stroke-width: 0.75; stroke-linejoin: miter"/>
     <use xlink:href="#m988bdb7948" x="268.137148" y="72.36236" style="fill: #c7c7c7; stroke: #ffffff; stroke-width: 0.75; stroke-linejoin: miter"/>
     <use xlink:href="#m988bdb7948" x="280.070982" y="71.895784" style="fill: #c7c7c7; stroke: #ffffff; stroke-width: 0.75; stroke-linejoin: miter"/>
     <use xlink:href="#m988bdb7948" x="292.004817" y="71.429207" style="fill: #c7c7c7; stroke: #ffffff; stroke-width: 0.75; stroke-linejoin: miter"/>
     <use xlink:href="#m988bdb7948" x="303.938651" y="71.429207" style="fill: #c7c7c7; stroke: #ffffff; stroke-width: 0.75; stroke-linejoin: miter"/>
     <use xlink:href="#m988bdb7948" x="315.872486" y="71.429207" style="fill: #c7c7c7; stroke: #ffffff; stroke-width: 0.75; stroke-linejoin: miter"/>
     <use xlink:href="#m988bdb7948" x="327.80632" y="66.296864" style="fill: #c7c7c7; stroke: #ffffff; stroke-width: 0.75; stroke-linejoin: miter"/>
     <use xlink:href="#m988bdb7948" x="339.740155" y="65.830287" style="fill: #c7c7c7; stroke: #ffffff; stroke-width: 0.75; stroke-linejoin: miter"/>
     <use xlink:href="#m988bdb7948" x="351.67399" y="65.596999" style="fill: #c7c7c7; stroke: #ffffff; stroke-width: 0.75; stroke-linejoin: miter"/>
     <use xlink:href="#m988bdb7948" x="363.607824" y="65.052659" style="fill: #c7c7c7; stroke: #ffffff; stroke-width: 0.75; stroke-linejoin: miter"/>
     <use xlink:href="#m988bdb7948" x="375.541659" y="64.974896" style="fill: #c7c7c7; stroke: #ffffff; stroke-width: 0.75; stroke-linejoin: miter"/>
     <use xlink:href="#m988bdb7948" x="387.475493" y="64.974896" style="fill: #c7c7c7; stroke: #ffffff; stroke-width: 0.75; stroke-linejoin: miter"/>
     <use xlink:href="#m988bdb7948" x="399.409328" y="62.253199" style="fill: #c7c7c7; stroke: #ffffff; stroke-width: 0.75; stroke-linejoin: miter"/>
     <use xlink:href="#m988bdb7948" x="411.343163" y="61.553334" style="fill: #c7c7c7; stroke: #ffffff; stroke-width: 0.75; stroke-linejoin: miter"/>
     <use xlink:href="#m988bdb7948" x="423.276997" y="61.553334" style="fill: #c7c7c7; stroke: #ffffff; stroke-width: 0.75; stroke-linejoin: miter"/>
     <use xlink:href="#m988bdb7948" x="435.210832" y="61.553334" style="fill: #c7c7c7; stroke: #ffffff; stroke-width: 0.75; stroke-linejoin: miter"/>
     <use xlink:href="#m988bdb7948" x="447.144666" y="61.553334" style="fill: #c7c7c7; stroke: #ffffff; stroke-width: 0.75; stroke-linejoin: miter"/>
     <use xlink:href="#m988bdb7948" x="459.078501" y="61.008995" style="fill: #c7c7c7; stroke: #ffffff; stroke-width: 0.75; stroke-linejoin: miter"/>
     <use xlink:href="#m988bdb7948" x="471.012336" y="60.931232" style="fill: #c7c7c7; stroke: #ffffff; stroke-width: 0.75; stroke-linejoin: miter"/>
     <use xlink:href="#m988bdb7948" x="482.94617" y="60.697944" style="fill: #c7c7c7; stroke: #ffffff; stroke-width: 0.75; stroke-linejoin: miter"/>
     <use xlink:href="#m988bdb7948" x="494.880005" y="56.576517" style="fill: #c7c7c7; stroke: #ffffff; stroke-width: 0.75; stroke-linejoin: miter"/>
     <use xlink:href="#m988bdb7948" x="506.813839" y="56.343228" style="fill: #c7c7c7; stroke: #ffffff; stroke-width: 0.75; stroke-linejoin: miter"/>
     <use xlink:href="#m988bdb7948" x="518.747674" y="52.532852" style="fill: #c7c7c7; stroke: #ffffff; stroke-width: 0.75; stroke-linejoin: miter"/>
     <use xlink:href="#m988bdb7948" x="530.681508" y="51.988513" style="fill: #c7c7c7; stroke: #ffffff; stroke-width: 0.75; stroke-linejoin: miter"/>
     <use xlink:href="#m988bdb7948" x="542.615343" y="51.36641" style="fill: #c7c7c7; stroke: #ffffff; stroke-width: 0.75; stroke-linejoin: miter"/>
     <use xlink:href="#m988bdb7948" x="554.549178" y="50.822071" style="fill: #c7c7c7; stroke: #ffffff; stroke-width: 0.75; stroke-linejoin: miter"/>
     <use xlink:href="#m988bdb7948" x="566.483012" y="49.577867" style="fill: #c7c7c7; stroke: #ffffff; stroke-width: 0.75; stroke-linejoin: miter"/>
     <use xlink:href="#m988bdb7948" x="578.416847" y="49.577867" style="fill: #c7c7c7; stroke: #ffffff; stroke-width: 0.75; stroke-linejoin: miter"/>
     <use xlink:href="#m988bdb7948" x="590.350681" y="49.577867" style="fill: #c7c7c7; stroke: #ffffff; stroke-width: 0.75; stroke-linejoin: miter"/>
     <use xlink:href="#m988bdb7948" x="602.284516" y="49.577867" style="fill: #c7c7c7; stroke: #ffffff; stroke-width: 0.75; stroke-linejoin: miter"/>
     <use xlink:href="#m988bdb7948" x="614.218351" y="49.577867" style="fill: #c7c7c7; stroke: #ffffff; stroke-width: 0.75; stroke-linejoin: miter"/>
     <use xlink:href="#m988bdb7948" x="626.152185" y="49.577867" style="fill: #c7c7c7; stroke: #ffffff; stroke-width: 0.75; stroke-linejoin: miter"/>
     <use xlink:href="#m988bdb7948" x="638.08602" y="49.577867" style="fill: #c7c7c7; stroke: #ffffff; stroke-width: 0.75; stroke-linejoin: miter"/>
     <use xlink:href="#m988bdb7948" x="650.019854" y="48.178137" style="fill: #c7c7c7; stroke: #ffffff; stroke-width: 0.75; stroke-linejoin: miter"/>
     <use xlink:href="#m988bdb7948" x="661.953689" y="47.789323" style="fill: #c7c7c7; stroke: #ffffff; stroke-width: 0.75; stroke-linejoin: miter"/>
     <use xlink:href="#m988bdb7948" x="673.887523" y="47.322746" style="fill: #c7c7c7; stroke: #ffffff; stroke-width: 0.75; stroke-linejoin: miter"/>
     <use xlink:href="#m988bdb7948" x="685.821358" y="47.16722" style="fill: #c7c7c7; stroke: #ffffff; stroke-width: 0.75; stroke-linejoin: miter"/>
     <use xlink:href="#m988bdb7948" x="697.755193" y="47.16722" style="fill: #c7c7c7; stroke: #ffffff; stroke-width: 0.75; stroke-linejoin: miter"/>
     <use xlink:href="#m988bdb7948" x="709.689027" y="47.089458" style="fill: #c7c7c7; stroke: #ffffff; stroke-width: 0.75; stroke-linejoin: miter"/>
     <use xlink:href="#m988bdb7948" x="721.622862" y="47.011695" style="fill: #c7c7c7; stroke: #ffffff; stroke-width: 0.75; stroke-linejoin: miter"/>
     <use xlink:href="#m988bdb7948" x="733.556696" y="47.16722" style="fill: #c7c7c7; stroke: #ffffff; stroke-width: 0.75; stroke-linejoin: miter"/>
    </g>
   </g>
   <g id="line2d_25"/>
   <g id="line2d_26"/>
   <g id="line2d_27"/>
   <g id="line2d_28"/>
   <g id="line2d_29">
    <path d="M 733.556696 288.430125 
L 733.556696 22.318125 
" clip-path="url(#p465cbd2317)" style="fill: none; stroke: #ff0000; stroke-width: 1.5; stroke-linecap: square"/>
   </g>
   <g id="patch_3">
    <path d="M 53.328125 276.334125 
L 53.328125 43.045793 
" style="fill: none; stroke: #000000; stroke-width: 0.8; stroke-linejoin: miter; stroke-linecap: square"/>
   </g>
   <g id="patch_4">
    <path d="M 53.328125 288.430125 
L 733.556696 288.430125 
" style="fill: none; stroke: #000000; stroke-width: 0.8; stroke-linejoin: miter; stroke-linecap: square"/>
   </g>
   <g id="text_23">
    <!-- libpcap_fuzz_both (14h:15m, at least 5 trials/fuzzer) -->
    <g transform="translate(254.094688 16.318125) scale(0.12 -0.12)">
     <defs>
      <path id="DejaVuSans-6c" d="M 603 4863 
L 1178 4863 
L 1178 0 
L 603 0 
L 603 4863 
z
" transform="scale(0.015625)"/>
      <path id="DejaVuSans-70" d="M 1159 525 
L 1159 -1331 
L 581 -1331 
L 581 3500 
L 1159 3500 
L 1159 2969 
Q 1341 3281 1617 3432 
Q 1894 3584 2278 3584 
Q 2916 3584 3314 3078 
Q 3713 2572 3713 1747 
Q 3713 922 3314 415 
Q 2916 -91 2278 -91 
Q 1894 -91 1617 61 
Q 1341 213 1159 525 
z
M 3116 1747 
Q 3116 2381 2855 2742 
Q 2594 3103 2138 3103 
Q 1681 3103 1420 2742 
Q 1159 2381 1159 1747 
Q 1159 1113 1420 752 
Q 1681 391 2138 391 
Q 2594 391 2855 752 
Q 3116 1113 3116 1747 
z
" transform="scale(0.015625)"/>
      <path id="DejaVuSans-5f" d="M 3263 -1063 
L 3263 -1509 
L -63 -1509 
L -63 -1063 
L 3263 -1063 
z
" transform="scale(0.015625)"/>
      <path id="DejaVuSans-66" d="M 2375 4863 
L 2375 4384 
L 1825 4384 
Q 1516 4384 1395 4259 
Q 1275 4134 1275 3809 
L 1275 3500 
L 2222 3500 
L 2222 3053 
L 1275 3053 
L 1275 0 
L 697 0 
L 697 3053 
L 147 3053 
L 147 3500 
L 697 3500 
L 697 3744 
Q 697 4328 969 4595 
Q 1241 4863 1831 4863 
L 2375 4863 
z
" transform="scale(0.015625)"/>
      <path id="DejaVuSans-7a" d="M 353 3500 
L 3084 3500 
L 3084 2975 
L 922 459 
L 3084 459 
L 3084 0 
L 275 0 
L 275 525 
L 2438 3041 
L 353 3041 
L 353 3500 
z
" transform="scale(0.015625)"/>
      <path id="DejaVuSans-2c" d="M 750 794 
L 1409 794 
L 1409 256 
L 897 -744 
L 494 -744 
L 750 256 
L 750 794 
z
" transform="scale(0.015625)"/>
      <path id="DejaVuSans-73" d="M 2834 3397 
L 2834 2853 
Q 2591 2978 2328 3040 
Q 2066 3103 1784 3103 
Q 1356 3103 1142 2972 
Q 928 2841 928 2578 
Q 928 2378 1081 2264 
Q 1234 2150 1697 2047 
L 1894 2003 
Q 2506 1872 2764 1633 
Q 3022 1394 3022 966 
Q 3022 478 2636 193 
Q 2250 -91 1575 -91 
Q 1294 -91 989 -36 
Q 684 19 347 128 
L 347 722 
Q 666 556 975 473 
Q 1284 391 1588 391 
Q 1994 391 2212 530 
Q 2431 669 2431 922 
Q 2431 1156 2273 1281 
Q 2116 1406 1581 1522 
L 1381 1569 
Q 847 1681 609 1914 
Q 372 2147 372 2553 
Q 372 3047 722 3315 
Q 1072 3584 1716 3584 
Q 2034 3584 2315 3537 
Q 2597 3491 2834 3397 
z
" transform="scale(0.015625)"/>
      <path id="DejaVuSans-2f" d="M 1625 4666 
L 2156 4666 
L 531 -594 
L 0 -594 
L 1625 4666 
z
" transform="scale(0.015625)"/>
     </defs>
     <use xlink:href="#DejaVuSans-6c"/>
     <use xlink:href="#DejaVuSans-69" transform="translate(27.783203 0)"/>
     <use xlink:href="#DejaVuSans-62" transform="translate(55.566406 0)"/>
     <use xlink:href="#DejaVuSans-70" transform="translate(119.042969 0)"/>
     <use xlink:href="#DejaVuSans-63" transform="translate(182.519531 0)"/>
     <use xlink:href="#DejaVuSans-61" transform="translate(237.5 0)"/>
     <use xlink:href="#DejaVuSans-70" transform="translate(298.779297 0)"/>
     <use xlink:href="#DejaVuSans-5f" transform="translate(362.255859 0)"/>
     <use xlink:href="#DejaVuSans-66" transform="translate(412.255859 0)"/>
     <use xlink:href="#DejaVuSans-75" transform="translate(447.460938 0)"/>
     <use xlink:href="#DejaVuSans-7a" transform="translate(510.839844 0)"/>
     <use xlink:href="#DejaVuSans-7a" transform="translate(563.330078 0)"/>
     <use xlink:href="#DejaVuSans-5f" transform="translate(615.820312 0)"/>
     <use xlink:href="#DejaVuSans-62" transform="translate(665.820312 0)"/>
     <use xlink:href="#DejaVuSans-6f" transform="translate(729.296875 0)"/>
     <use xlink:href="#DejaVuSans-74" transform="translate(790.478516 0)"/>
     <use xlink:href="#DejaVuSans-68" transform="translate(829.6875 0)"/>
     <use xlink:href="#DejaVuSans-20" transform="translate(893.066406 0)"/>
     <use xlink:href="#DejaVuSans-28" transform="translate(924.853516 0)"/>
     <use xlink:href="#DejaVuSans-31" transform="translate(963.867188 0)"/>
     <use xlink:href="#DejaVuSans-34" transform="translate(1027.490234 0)"/>
     <use xlink:href="#DejaVuSans-68" transform="translate(1091.113281 0)"/>
     <use xlink:href="#DejaVuSans-3a" transform="translate(1154.492188 0)"/>
     <use xlink:href="#DejaVuSans-31" transform="translate(1188.183594 0)"/>
     <use xlink:href="#DejaVuSans-35" transform="translate(1251.806641 0)"/>
     <use xlink:href="#DejaVuSans-6d" transform="translate(1315.429688 0)"/>
     <use xlink:href="#DejaVuSans-2c" transform="translate(1412.841797 0)"/>
     <use xlink:href="#DejaVuSans-20" transform="translate(1444.628906 0)"/>
     <use xlink:href="#DejaVuSans-61" transform="translate(1476.416016 0)"/>
     <use xlink:href="#DejaVuSans-74" transform="translate(1537.695312 0)"/>
     <use xlink:href="#DejaVuSans-20" transform="translate(1576.904297 0)"/>
     <use xlink:href="#DejaVuSans-6c" transform="translate(1608.691406 0)"/>
     <use xlink:href="#DejaVuSans-65" transform="translate(1636.474609 0)"/>
     <use xlink:href="#DejaVuSans-61" transform="translate(1697.998047 0)"/>
     <use xlink:href="#DejaVuSans-73" transform="translate(1759.277344 0)"/>
     <use xlink:href="#DejaVuSans-74" transform="translate(1811.376953 0)"/>
     <use xlink:href="#DejaVuSans-20" transform="translate(1850.585938 0)"/>
     <use xlink:href="#DejaVuSans-35" transform="translate(1882.373047 0)"/>
     <use xlink:href="#DejaVuSans-20" transform="translate(1945.996094 0)"/>
     <use xlink:href="#DejaVuSans-74" transform="translate(1977.783203 0)"/>
     <use xlink:href="#DejaVuSans-72" transform="translate(2016.992188 0)"/>
     <use xlink:href="#DejaVuSans-69" transform="translate(2058.105469 0)"/>
     <use xlink:href="#DejaVuSans-61" transform="translate(2085.888672 0)"/>
     <use xlink:href="#DejaVuSans-6c" transform="translate(2147.167969 0)"/>
     <use xlink:href="#DejaVuSans-73" transform="translate(2174.951172 0)"/>
     <use xlink:href="#DejaVuSans-2f" transform="translate(2227.050781 0)"/>
     <use xlink:href="#DejaVuSans-66" transform="translate(2260.742188 0)"/>
     <use xlink:href="#DejaVuSans-75" transform="translate(2295.947266 0)"/>
     <use xlink:href="#DejaVuSans-7a" transform="translate(2359.326172 0)"/>
     <use xlink:href="#DejaVuSans-7a" transform="translate(2411.816406 0)"/>
     <use xlink:href="#DejaVuSans-65" transform="translate(2464.306641 0)"/>
     <use xlink:href="#DejaVuSans-72" transform="translate(2525.830078 0)"/>
     <use xlink:href="#DejaVuSans-29" transform="translate(2566.943359 0)"/>
    </g>
   </g>
   <g id="legend_1">
    <g id="line2d_30">
     <path d="M 771.568125 30.416562 
L 781.568125 30.416562 
L 791.568125 30.416562 
" style="fill: none; stroke: #1f77b4; stroke-width: 1.5; stroke-linecap: square"/>
     <g>
      <use xlink:href="#m2d745fbf30" x="781.568125" y="30.416562" style="fill: #1f77b4; stroke: #ffffff; stroke-width: 0.75"/>
     </g>
    </g>
    <g id="text_24">
     <!-- aflplusplus_440c -->
     <g transform="translate(799.568125 33.916562) scale(0.1 -0.1)">
      <use xlink:href="#DejaVuSans-61"/>
      <use xlink:href="#DejaVuSans-66" transform="translate(61.279297 0)"/>
      <use xlink:href="#DejaVuSans-6c" transform="translate(96.484375 0)"/>
      <use xlink:href="#DejaVuSans-70" transform="translate(124.267578 0)"/>
      <use xlink:href="#DejaVuSans-6c" transform="translate(187.744141 0)"/>
      <use xlink:href="#DejaVuSans-75" transform="translate(215.527344 0)"/>
      <use xlink:href="#DejaVuSans-73" transform="translate(278.90625 0)"/>
      <use xlink:href="#DejaVuSans-70" transform="translate(331.005859 0)"/>
      <use xlink:href="#DejaVuSans-6c" transform="translate(394.482422 0)"/>
      <use xlink:href="#DejaVuSans-75" transform="translate(422.265625 0)"/>
      <use xlink:href="#DejaVuSans-73" transform="translate(485.644531 0)"/>
      <use xlink:href="#DejaVuSans-5f" transform="translate(537.744141 0)"/>
      <use xlink:href="#DejaVuSans-34" transform="translate(587.744141 0)"/>
      <use xlink:href="#DejaVuSans-34" transform="translate(651.367188 0)"/>
      <use xlink:href="#DejaVuSans-30" transform="translate(714.990234 0)"/>
      <use xlink:href="#DejaVuSans-63" transform="translate(778.613281 0)"/>
     </g>
    </g>
    <g id="line2d_31">
     <path d="M 771.568125 45.372813 
L 781.568125 45.372813 
L 791.568125 45.372813 
" style="fill: none; stroke: #d62728; stroke-width: 1.5; stroke-linecap: square"/>
     <g>
      <use xlink:href="#m49e9baa5ac" x="781.568125" y="45.372813" style="fill: #d62728; stroke: #ffffff; stroke-width: 0.75; stroke-linejoin: miter"/>
     </g>
    </g>
    <g id="text_25">
     <!-- aflplusplus_c11 -->
     <g transform="translate(799.568125 48.872813) scale(0.1 -0.1)">
      <use xlink:href="#DejaVuSans-61"/>
      <use xlink:href="#DejaVuSans-66" transform="translate(61.279297 0)"/>
      <use xlink:href="#DejaVuSans-6c" transform="translate(96.484375 0)"/>
      <use xlink:href="#DejaVuSans-70" transform="translate(124.267578 0)"/>
      <use xlink:href="#DejaVuSans-6c" transform="translate(187.744141 0)"/>
      <use xlink:href="#DejaVuSans-75" transform="translate(215.527344 0)"/>
      <use xlink:href="#DejaVuSans-73" transform="translate(278.90625 0)"/>
      <use xlink:href="#DejaVuSans-70" transform="translate(331.005859 0)"/>
      <use xlink:href="#DejaVuSans-6c" transform="translate(394.482422 0)"/>
      <use xlink:href="#DejaVuSans-75" transform="translate(422.265625 0)"/>
      <use xlink:href="#DejaVuSans-73" transform="translate(485.644531 0)"/>
      <use xlink:href="#DejaVuSans-5f" transform="translate(537.744141 0)"/>
      <use xlink:href="#DejaVuSans-63" transform="translate(587.744141 0)"/>
      <use xlink:href="#DejaVuSans-31" transform="translate(642.724609 0)"/>
      <use xlink:href="#DejaVuSans-31" transform="translate(706.347656 0)"/>
     </g>
    </g>
    <g id="line2d_32">
     <path d="M 771.568125 60.329063 
L 781.568125 60.329063 
L 791.568125 60.329063 
" style="fill: none; stroke: #98df8a; stroke-width: 1.5; stroke-linecap: square"/>
     <g>
      <use xlink:href="#m77b96c501c" x="781.568125" y="60.329063" style="fill: #98df8a; stroke: #ffffff; stroke-width: 0.75; stroke-linejoin: miter"/>
     </g>
    </g>
    <g id="text_26">
     <!-- aflplusplus_500c -->
     <g transform="translate(799.568125 63.829063) scale(0.1 -0.1)">
      <use xlink:href="#DejaVuSans-61"/>
      <use xlink:href="#DejaVuSans-66" transform="translate(61.279297 0)"/>
      <use xlink:href="#DejaVuSans-6c" transform="translate(96.484375 0)"/>
      <use xlink:href="#DejaVuSans-70" transform="translate(124.267578 0)"/>
      <use xlink:href="#DejaVuSans-6c" transform="translate(187.744141 0)"/>
      <use xlink:href="#DejaVuSans-75" transform="translate(215.527344 0)"/>
      <use xlink:href="#DejaVuSans-73" transform="translate(278.90625 0)"/>
      <use xlink:href="#DejaVuSans-70" transform="translate(331.005859 0)"/>
      <use xlink:href="#DejaVuSans-6c" transform="translate(394.482422 0)"/>
      <use xlink:href="#DejaVuSans-75" transform="translate(422.265625 0)"/>
      <use xlink:href="#DejaVuSans-73" transform="translate(485.644531 0)"/>
      <use xlink:href="#DejaVuSans-5f" transform="translate(537.744141 0)"/>
      <use xlink:href="#DejaVuSans-35" transform="translate(587.744141 0)"/>
      <use xlink:href="#DejaVuSans-30" transform="translate(651.367188 0)"/>
      <use xlink:href="#DejaVuSans-30" transform="translate(714.990234 0)"/>
      <use xlink:href="#DejaVuSans-63" transform="translate(778.613281 0)"/>
     </g>
    </g>
    <g id="line2d_33">
     <path d="M 771.568125 75.285313 
L 781.568125 75.285313 
L 791.568125 75.285313 
" style="fill: none; stroke: #c7c7c7; stroke-width: 1.5; stroke-linecap: square"/>
     <g>
      <use xlink:href="#m988bdb7948" x="781.568125" y="75.285313" style="fill: #c7c7c7; stroke: #ffffff; stroke-width: 0.75; stroke-linejoin: miter"/>
     </g>
    </g>
    <g id="text_27">
     <!-- aflplusplus_mopt -->
     <g transform="translate(799.568125 78.785313) scale(0.1 -0.1)">
      <use xlink:href="#DejaVuSans-61"/>
      <use xlink:href="#DejaVuSans-66" transform="translate(61.279297 0)"/>
      <use xlink:href="#DejaVuSans-6c" transform="translate(96.484375 0)"/>
      <use xlink:href="#DejaVuSans-70" transform="translate(124.267578 0)"/>
      <use xlink:href="#DejaVuSans-6c" transform="translate(187.744141 0)"/>
      <use xlink:href="#DejaVuSans-75" transform="translate(215.527344 0)"/>
      <use xlink:href="#DejaVuSans-73" transform="translate(278.90625 0)"/>
      <use xlink:href="#DejaVuSans-70" transform="translate(331.005859 0)"/>
      <use xlink:href="#DejaVuSans-6c" transform="translate(394.482422 0)"/>
      <use xlink:href="#DejaVuSans-75" transform="translate(422.265625 0)"/>
      <use xlink:href="#DejaVuSans-73" transform="translate(485.644531 0)"/>
      <use xlink:href="#DejaVuSans-5f" transform="translate(537.744141 0)"/>
      <use xlink:href="#DejaVuSans-6d" transform="translate(587.744141 0)"/>
      <use xlink:href="#DejaVuSans-6f" transform="translate(685.15625 0)"/>
      <use xlink:href="#DejaVuSans-70" transform="translate(746.337891 0)"/>
      <use xlink:href="#DejaVuSans-74" transform="translate(809.814453 0)"/>
     </g>
    </g>
   </g>
  </g>
 </g>
 <defs>
  <clipPath id="p465cbd2317">
   <rect x="53.328125" y="22.318125" width="714.24" height="266.112"/>
  </clipPath>
 </defs>
</svg>
