<?xml version="1.0" encoding="utf-8" standalone="no"?>
<!DOCTYPE svg PUBLIC "-//W3C//DTD SVG 1.1//EN"
  "http://www.w3.org/Graphics/SVG/1.1/DTD/svg11.dtd">
<svg xmlns:xlink="http://www.w3.org/1999/xlink" width="895.669687pt" height="325.986375pt" viewBox="0 0 895.669687 325.986375" xmlns="http://www.w3.org/2000/svg" version="1.1">
 <metadata>
  <rdf:RDF xmlns:dc="http://purl.org/dc/elements/1.1/" xmlns:cc="http://creativecommons.org/ns#" xmlns:rdf="http://www.w3.org/1999/02/22-rdf-syntax-ns#">
   <cc:Work>
    <dc:type rdf:resource="http://purl.org/dc/dcmitype/StillImage"/>
    <dc:date>2026-06-10T03:54:44.432026</dc:date>
    <dc:format>image/svg+xml</dc:format>
    <dc:creator>
     <cc:Agent>
      <dc:title>Matplotlib v3.10.9, https://matplotlib.org/</dc:title>
     </cc:Agent>
    </dc:creator>
   </cc:Work>
  </rdf:RDF>
 </metadata>
 <defs>
  <style type="text/css">*{stroke-linejoin: round; stroke-linecap: butt}</style>
 </defs>
 <g id="figure_1">
  <g id="patch_1">
   <path d="M 0 325.986375 
L 895.669688 325.986375 
L 895.669688 0 
L 0 0 
z
" style="fill: #ffffff"/>
  </g>
  <g id="axes_1">
   <g id="patch_2">
    <path d="M 53.328125 288.430125 
L 767.568125 288.430125 
L 767.568125 22.318125 
L 53.328125 22.318125 
z
" style="fill: #ffffff"/>
   </g>
   <g id="FillBetweenPolyCollection_1">
    <defs>
     <path id="mad8482cf42" d="M 53.328125 -49.65225 
L 53.328125 -49.65225 
L 544.338605 -225.721439 
L 583.604326 -227.978736 
L 606.573301 -235.139818 
L 622.870048 -239.343061 
L 635.510787 -246.426304 
L 645.839022 -253.665223 
L 654.571421 -255.066304 
L 662.135769 -255.144142 
L 668.807997 -255.377655 
L 674.776508 -255.377655 
L 680.175683 -255.533331 
L 685.104744 -256.389547 
L 689.63904 -256.856574 
L 693.837142 -258.491169 
L 697.745482 -258.569007 
L 701.40149 -258.569007 
L 704.835782 -258.646845 
L 708.073718 -258.80252 
L 711.136543 -260.748466 
L 714.042229 -261.059818 
L 716.806117 -261.137655 
L 719.441404 -261.449007 
L 721.959528 -261.760358 
L 724.370465 -261.993872 
L 726.682968 -263.317115 
L 728.904761 -263.784142 
L 731.042693 -263.706304 
L 733.102864 -265.107385 
L 735.090733 -265.340899 
L 737.011204 -265.574412 
L 738.868697 -266.664142 
L 740.667212 -267.44252 
L 742.410379 -267.987385 
L 744.101503 -267.987385 
L 745.743603 -268.143061 
L 747.33944 -268.220899 
L 748.891549 -268.298736 
L 750.402264 -269.077115 
L 751.873736 -270.32252 
L 753.307951 -270.711709 
L 754.706749 -270.711709 
L 756.071838 -270.867385 
L 757.404805 -270.945223 
L 758.707126 -271.490088 
L 759.980178 -271.567926 
L 761.22525 -272.346304 
L 762.443543 -272.424142 
L 763.636186 -273.358196 
L 764.804237 -273.591709 
L 764.804237 -286.512791 
L 764.804237 -286.512791 
L 763.636186 -286.512791 
L 762.443543 -285.267385 
L 761.22525 -284.878196 
L 759.980178 -284.878196 
L 758.707126 -284.800358 
L 757.404805 -284.177655 
L 756.071838 -284.177655 
L 754.706749 -284.177655 
L 753.307951 -284.099818 
L 751.873736 -284.02198 
L 750.402264 -283.243601 
L 748.891549 -283.243601 
L 747.33944 -283.243601 
L 745.743603 -283.243601 
L 744.101503 -283.165764 
L 742.410379 -283.087926 
L 740.667212 -282.543061 
L 738.868697 -282.543061 
L 737.011204 -282.465223 
L 735.090733 -282.387385 
L 733.102864 -282.387385 
L 731.042693 -282.153872 
L 728.904761 -282.153872 
L 726.682968 -281.920358 
L 724.370465 -281.84252 
L 721.959528 -281.686845 
L 719.441404 -281.375493 
L 716.806117 -280.597115 
L 714.042229 -279.040358 
L 711.136543 -279.040358 
L 708.073718 -278.96252 
L 704.835782 -278.884682 
L 701.40149 -278.26198 
L 697.745482 -278.26198 
L 693.837142 -277.950628 
L 689.63904 -277.872791 
L 685.104744 -277.405764 
L 680.175683 -276.08252 
L 674.776508 -274.992791 
L 668.807997 -274.992791 
L 662.135769 -273.20252 
L 654.571421 -272.969007 
L 645.839022 -272.813331 
L 635.510787 -271.801439 
L 622.870048 -264.095493 
L 606.573301 -262.77225 
L 583.604326 -260.748466 
L 544.338605 -259.580899 
L 53.328125 -49.65225 
z
" style="stroke: #1f77b4; stroke-opacity: 0.2"/>
    </defs>
    <g clip-path="url(#p18d2c1ea4a)">
     <use xlink:href="#mad8482cf42" x="0" y="325.986375" style="fill: #1f77b4; fill-opacity: 0.2; stroke: #1f77b4; stroke-opacity: 0.2"/>
    </g>
   </g>
   <g id="FillBetweenPolyCollection_2">
    <defs>
     <path id="mc8e6e41486" d="M 53.328125 -49.65225 
L 53.328125 -49.65225 
L 544.338605 -221.051169 
L 583.604326 -224.553872 
L 606.573301 -226.42198 
L 622.870048 -232.259818 
L 635.510787 -233.583061 
L 645.839022 -234.672791 
L 654.571421 -235.606845 
L 662.135769 -240.588466 
L 668.807997 -241.989547 
L 674.776508 -242.067385 
L 680.175683 -242.300899 
L 685.104744 -242.767926 
L 689.63904 -245.725764 
L 693.837142 -251.563601 
L 697.745482 -254.13225 
L 701.40149 -254.287926 
L 704.835782 -254.832791 
L 708.073718 -259.814412 
L 711.136543 -259.970088 
L 714.042229 -261.68252 
L 716.806117 -261.68252 
L 719.441404 -261.68252 
L 721.959528 -263.472791 
L 724.370465 -263.472791 
L 726.682968 -263.784142 
L 728.904761 -263.86198 
L 731.042693 -264.095493 
L 733.102864 -264.329007 
L 735.090733 -264.796034 
L 737.011204 -265.340899 
L 738.868697 -265.65225 
L 740.667212 -265.65225 
L 742.410379 -265.65225 
L 744.101503 -265.730088 
L 745.743603 -265.963601 
L 747.33944 -266.197115 
L 748.891549 -266.274953 
L 750.402264 -266.274953 
L 751.873736 -266.586304 
L 753.307951 -266.74198 
L 754.706749 -267.286845 
L 756.071838 -267.364682 
L 757.404805 -267.44252 
L 758.707126 -267.598196 
L 759.980178 -267.598196 
L 761.22525 -267.753872 
L 762.443543 -267.753872 
L 763.636186 -268.765764 
L 764.804237 -268.921439 
L 764.804237 -291.57225 
L 764.804237 -291.57225 
L 763.636186 -291.416574 
L 762.443543 -291.416574 
L 761.22525 -291.105223 
L 759.980178 -290.326845 
L 758.707126 -290.093331 
L 757.404805 -290.093331 
L 756.071838 -289.314953 
L 754.706749 -289.237115 
L 753.307951 -289.237115 
L 751.873736 -289.237115 
L 750.402264 -288.69225 
L 748.891549 -288.536574 
L 747.33944 -280.830628 
L 745.743603 -280.830628 
L 744.101503 -280.519277 
L 742.410379 -280.285764 
L 740.667212 -279.974412 
L 738.868697 -279.818736 
L 737.011204 -278.96252 
L 735.090733 -278.651169 
L 733.102864 -278.651169 
L 731.042693 -278.495493 
L 728.904761 -278.495493 
L 726.682968 -278.495493 
L 724.370465 -278.417655 
L 721.959528 -277.950628 
L 719.441404 -277.794953 
L 716.806117 -277.405764 
L 714.042229 -274.29225 
L 711.136543 -274.29225 
L 708.073718 -274.214412 
L 704.835782 -273.980899 
L 701.40149 -273.980899 
L 697.745482 -273.825223 
L 693.837142 -272.969007 
L 689.63904 -271.801439 
L 685.104744 -263.161439 
L 680.175683 -262.694412 
L 674.776508 -262.383061 
L 668.807997 -261.993872 
L 662.135769 -261.604682 
L 654.571421 -259.814412 
L 645.839022 -255.844682 
L 635.510787 -255.766845 
L 622.870048 -250.785223 
L 606.573301 -250.240358 
L 583.604326 -248.216574 
L 544.338605 -243.779818 
L 53.328125 -49.65225 
z
" style="stroke: #d62728; stroke-opacity: 0.2"/>
    </defs>
    <g clip-path="url(#p18d2c1ea4a)">
     <use xlink:href="#mc8e6e41486" x="0" y="325.986375" style="fill: #d62728; fill-opacity: 0.2; stroke: #d62728; stroke-opacity: 0.2"/>
    </g>
   </g>
   <g id="FillBetweenPolyCollection_3">
    <defs>
     <path id="mc7dd2c48f3" d="M 53.328125 -49.65225 
L 53.328125 -49.65225 
L 544.338605 -222.919277 
L 583.604326 -225.098736 
L 606.573301 -228.523601 
L 622.870048 -229.457655 
L 635.510787 -232.026304 
L 645.839022 -233.271709 
L 654.571421 -233.271709 
L 662.135769 -233.583061 
L 668.807997 -233.816574 
L 674.776508 -235.76252 
L 680.175683 -237.630628 
L 685.104744 -239.887926 
L 689.63904 -240.666304 
L 693.837142 -241.289007 
L 697.745482 -243.468466 
L 701.40149 -243.70198 
L 704.835782 -243.70198 
L 708.073718 -243.70198 
L 711.136543 -244.246845 
L 714.042229 -244.324682 
L 716.806117 -244.324682 
L 719.441404 -244.40252 
L 721.959528 -244.480358 
L 724.370465 -244.480358 
L 726.682968 -244.480358 
L 728.904761 -244.480358 
L 731.042693 -244.480358 
L 733.102864 -244.480358 
L 735.090733 -244.558196 
L 737.011204 -244.713872 
L 738.868697 -244.713872 
L 740.667212 -245.025223 
L 742.410379 -245.570088 
L 744.101503 -245.959277 
L 745.743603 -245.959277 
L 747.33944 -246.192791 
L 748.891549 -251.25225 
L 750.402264 -252.108466 
L 751.873736 -252.264142 
L 753.307951 -252.264142 
L 754.706749 -261.293331 
L 756.071838 -261.993872 
L 757.404805 -262.149547 
L 758.707126 -262.149547 
L 759.980178 -262.927926 
L 761.22525 -265.107385 
L 762.443543 -266.508466 
L 763.636186 -267.44252 
L 764.804237 -267.753872 
L 764.804237 -290.015493 
L 764.804237 -290.015493 
L 763.636186 -289.704142 
L 762.443543 -289.704142 
L 761.22525 -289.704142 
L 759.980178 -289.626304 
L 758.707126 -289.392791 
L 757.404805 -288.770088 
L 756.071838 -288.458736 
L 754.706749 -288.380899 
L 753.307951 -288.380899 
L 751.873736 -288.380899 
L 750.402264 -288.380899 
L 748.891549 -288.380899 
L 747.33944 -288.303061 
L 745.743603 -287.991709 
L 744.101503 -287.680358 
L 742.410379 -287.680358 
L 740.667212 -287.524682 
L 738.868697 -286.746304 
L 737.011204 -286.668466 
L 735.090733 -285.500899 
L 733.102864 -284.878196 
L 731.042693 -284.333331 
L 728.904761 -283.866304 
L 726.682968 -281.375493 
L 724.370465 -281.064142 
L 721.959528 -278.884682 
L 719.441404 -278.573331 
L 716.806117 -278.495493 
L 714.042229 -278.26198 
L 711.136543 -278.26198 
L 708.073718 -277.872791 
L 704.835782 -277.794953 
L 701.40149 -277.717115 
L 697.745482 -273.980899 
L 693.837142 -273.436034 
L 689.63904 -273.280358 
L 685.104744 -273.280358 
L 680.175683 -272.891169 
L 674.776508 -271.879277 
L 668.807997 -271.178736 
L 662.135769 -270.633872 
L 654.571421 -269.777655 
L 645.839022 -268.454412 
L 635.510787 -268.376574 
L 622.870048 -266.664142 
L 606.573301 -264.56252 
L 583.604326 -262.850088 
L 544.338605 -254.677115 
L 53.328125 -49.65225 
z
" style="stroke: #98df8a; stroke-opacity: 0.2"/>
    </defs>
    <g clip-path="url(#p18d2c1ea4a)">
     <use xlink:href="#mc7dd2c48f3" x="0" y="325.986375" style="fill: #98df8a; fill-opacity: 0.2; stroke: #98df8a; stroke-opacity: 0.2"/>
    </g>
   </g>
   <g id="FillBetweenPolyCollection_4">
    <defs>
     <path id="m380feb4521" d="M 53.328125 -49.65225 
L 53.328125 -49.65225 
L 544.338605 -225.565764 
L 583.604326 -228.834953 
L 606.573301 -231.870628 
L 622.870048 -232.337655 
L 635.510787 -233.038196 
L 645.839022 -233.038196 
L 654.571421 -238.409007 
L 662.135769 -240.666304 
L 668.807997 -241.055493 
L 674.776508 -241.055493 
L 680.175683 -241.055493 
L 685.104744 -241.055493 
L 689.63904 -241.133331 
L 693.837142 -241.133331 
L 697.745482 -241.133331 
L 701.40149 -241.444682 
L 704.835782 -241.444682 
L 708.073718 -241.678196 
L 711.136543 -241.678196 
L 714.042229 -241.756034 
L 716.806117 -242.067385 
L 719.441404 -246.192791 
L 721.959528 -247.28252 
L 724.370465 -247.28252 
L 726.682968 -247.438196 
L 728.904761 -247.438196 
L 731.042693 -256.545223 
L 733.102864 -256.623061 
L 735.090733 -257.790628 
L 737.011204 -258.10198 
L 738.868697 -258.179818 
L 740.667212 -258.724682 
L 742.410379 -260.047926 
L 744.101503 -261.838196 
L 745.743603 -261.916034 
L 747.33944 -262.071709 
L 748.891549 -262.305223 
L 750.402264 -262.305223 
L 751.873736 -262.305223 
L 753.307951 -262.383061 
L 754.706749 -263.239277 
L 756.071838 -263.394953 
L 757.404805 -263.628466 
L 758.707126 -263.706304 
L 759.980178 -263.86198 
L 761.22525 -264.951709 
L 762.443543 -266.819818 
L 763.636186 -266.819818 
L 764.804237 -266.819818 
L 764.804237 -286.045764 
L 764.804237 -286.045764 
L 763.636186 -285.734412 
L 762.443543 -284.255493 
L 761.22525 -284.099818 
L 759.980178 -283.321439 
L 758.707126 -283.087926 
L 757.404805 -282.465223 
L 756.071838 -282.076034 
L 754.706749 -276.938736 
L 753.307951 -275.849007 
L 751.873736 -275.849007 
L 750.402264 -273.046845 
L 748.891549 -272.813331 
L 747.33944 -272.813331 
L 745.743603 -272.346304 
L 744.101503 -272.346304 
L 742.410379 -271.645764 
L 740.667212 -271.41225 
L 738.868697 -271.41225 
L 737.011204 -270.633872 
L 735.090733 -270.089007 
L 733.102864 -269.310628 
L 731.042693 -269.154953 
L 728.904761 -269.154953 
L 726.682968 -268.765764 
L 724.370465 -268.610088 
L 721.959528 -268.610088 
L 719.441404 -268.610088 
L 716.806117 -268.610088 
L 714.042229 -267.831709 
L 711.136543 -267.831709 
L 708.073718 -267.676034 
L 704.835782 -267.676034 
L 701.40149 -267.676034 
L 697.745482 -267.598196 
L 693.837142 -266.819818 
L 689.63904 -266.664142 
L 685.104744 -266.586304 
L 680.175683 -266.586304 
L 674.776508 -266.119277 
L 668.807997 -266.041439 
L 662.135769 -265.107385 
L 654.571421 -264.796034 
L 645.839022 -264.484682 
L 635.510787 -257.712791 
L 622.870048 -256.233872 
L 606.573301 -255.299818 
L 583.604326 -246.58198 
L 544.338605 -244.091169 
L 53.328125 -49.65225 
z
" style="stroke: #c7c7c7; stroke-opacity: 0.2"/>
    </defs>
    <g clip-path="url(#p18d2c1ea4a)">
     <use xlink:href="#m380feb4521" x="0" y="325.986375" style="fill: #c7c7c7; fill-opacity: 0.2; stroke: #c7c7c7; stroke-opacity: 0.2"/>
    </g>
   </g>
   <g id="matplotlib.axis_1">
    <g id="xtick_1">
     <g id="line2d_1">
      <defs>
       <path id="m0a21036411" d="M 0 0 
L 0 3.5 
" style="stroke: #000000; stroke-width: 0.8"/>
      </defs>
      <g>
       <use xlink:href="#m0a21036411" x="53.328125" y="288.430125" style="stroke: #000000; stroke-width: 0.8"/>
      </g>
     </g>
     <g id="text_1">
      <!-- 0m -->
      <g transform="translate(45.276563 303.028562) scale(0.1 -0.1)">
       <defs>
        <path id="DejaVuSans-30" d="M 2034 4250 
Q 1547 4250 1301 3770 
Q 1056 3291 1056 2328 
Q 1056 1369 1301 889 
Q 1547 409 2034 409 
Q 2525 409 2770 889 
Q 3016 1369 3016 2328 
Q 3016 3291 2770 3770 
Q 2525 4250 2034 4250 
z
M 2034 4750 
Q 2819 4750 3233 4129 
Q 3647 3509 3647 2328 
Q 3647 1150 3233 529 
Q 2819 -91 2034 -91 
Q 1250 -91 836 529 
Q 422 1150 422 2328 
Q 422 3509 836 4129 
Q 1250 4750 2034 4750 
z
" transform="scale(0.015625)"/>
        <path id="DejaVuSans-6d" d="M 3328 2828 
Q 3544 3216 3844 3400 
Q 4144 3584 4550 3584 
Q 5097 3584 5394 3201 
Q 5691 2819 5691 2113 
L 5691 0 
L 5113 0 
L 5113 2094 
Q 5113 2597 4934 2840 
Q 4756 3084 4391 3084 
Q 3944 3084 3684 2787 
Q 3425 2491 3425 1978 
L 3425 0 
L 2847 0 
L 2847 2094 
Q 2847 2600 2669 2842 
Q 2491 3084 2119 3084 
Q 1678 3084 1418 2786 
Q 1159 2488 1159 1978 
L 1159 0 
L 581 0 
L 581 3500 
L 1159 3500 
L 1159 2956 
Q 1356 3278 1631 3431 
Q 1906 3584 2284 3584 
Q 2666 3584 2933 3390 
Q 3200 3197 3328 2828 
z
" transform="scale(0.015625)"/>
       </defs>
       <use xlink:href="#DejaVuSans-30"/>
       <use xlink:href="#DejaVuSans-6d" transform="translate(63.623047 0)"/>
      </g>
     </g>
    </g>
    <g id="xtick_2">
     <g id="line2d_2">
      <g>
       <use xlink:href="#m0a21036411" x="125.793627" y="288.430125" style="stroke: #000000; stroke-width: 0.8"/>
      </g>
     </g>
    </g>
    <g id="xtick_3">
     <g id="line2d_3">
      <g>
       <use xlink:href="#m0a21036411" x="219.574618" y="288.430125" style="stroke: #000000; stroke-width: 0.8"/>
      </g>
     </g>
    </g>
    <g id="xtick_4">
     <g id="line2d_4">
      <g>
       <use xlink:href="#m0a21036411" x="280.15583" y="288.430125" style="stroke: #000000; stroke-width: 0.8"/>
      </g>
     </g>
    </g>
    <g id="xtick_5">
     <g id="line2d_5">
      <g>
       <use xlink:href="#m0a21036411" x="340.737041" y="288.430125" style="stroke: #000000; stroke-width: 0.8"/>
      </g>
     </g>
    </g>
    <g id="xtick_6">
     <g id="line2d_6">
      <g>
       <use xlink:href="#m0a21036411" x="401.318253" y="288.430125" style="stroke: #000000; stroke-width: 0.8"/>
      </g>
     </g>
     <g id="text_2">
      <!-- 1m -->
      <g transform="translate(393.26669 303.028562) scale(0.1 -0.1)">
       <defs>
        <path id="DejaVuSans-31" d="M 794 531 
L 1825 531 
L 1825 4091 
L 703 3866 
L 703 4441 
L 1819 4666 
L 2450 4666 
L 2450 531 
L 3481 531 
L 3481 0 
L 794 0 
L 794 531 
z
" transform="scale(0.015625)"/>
       </defs>
       <use xlink:href="#DejaVuSans-31"/>
       <use xlink:href="#DejaVuSans-6d" transform="translate(63.623047 0)"/>
      </g>
     </g>
    </g>
    <g id="xtick_7">
     <g id="line2d_7">
      <g>
       <use xlink:href="#m0a21036411" x="461.899464" y="288.430125" style="stroke: #000000; stroke-width: 0.8"/>
      </g>
     </g>
     <g id="text_3">
      <!-- 3m -->
      <g transform="translate(453.847902 303.028562) scale(0.1 -0.1)">
       <defs>
        <path id="DejaVuSans-33" d="M 2597 2516 
Q 3050 2419 3304 2112 
Q 3559 1806 3559 1356 
Q 3559 666 3084 287 
Q 2609 -91 1734 -91 
Q 1441 -91 1130 -33 
Q 819 25 488 141 
L 488 750 
Q 750 597 1062 519 
Q 1375 441 1716 441 
Q 2309 441 2620 675 
Q 2931 909 2931 1356 
Q 2931 1769 2642 2001 
Q 2353 2234 1838 2234 
L 1294 2234 
L 1294 2753 
L 1863 2753 
Q 2328 2753 2575 2939 
Q 2822 3125 2822 3475 
Q 2822 3834 2567 4026 
Q 2313 4219 1838 4219 
Q 1578 4219 1281 4162 
Q 984 4106 628 3988 
L 628 4550 
Q 988 4650 1302 4700 
Q 1616 4750 1894 4750 
Q 2613 4750 3031 4423 
Q 3450 4097 3450 3541 
Q 3450 3153 3228 2886 
Q 3006 2619 2597 2516 
z
" transform="scale(0.015625)"/>
       </defs>
       <use xlink:href="#DejaVuSans-33"/>
       <use xlink:href="#DejaVuSans-6d" transform="translate(63.623047 0)"/>
      </g>
     </g>
    </g>
    <g id="xtick_8">
     <g id="line2d_8">
      <g>
       <use xlink:href="#m0a21036411" x="522.480676" y="288.430125" style="stroke: #000000; stroke-width: 0.8"/>
      </g>
     </g>
     <g id="text_4">
      <!-- 10m -->
      <g transform="translate(511.247863 303.028562) scale(0.1 -0.1)">
       <use xlink:href="#DejaVuSans-31"/>
       <use xlink:href="#DejaVuSans-30" transform="translate(63.623047 0)"/>
       <use xlink:href="#DejaVuSans-6d" transform="translate(127.246094 0)"/>
      </g>
     </g>
    </g>
    <g id="xtick_9">
     <g id="line2d_9">
      <g>
       <use xlink:href="#m0a21036411" x="583.061887" y="288.430125" style="stroke: #000000; stroke-width: 0.8"/>
      </g>
     </g>
     <g id="text_5">
      <!-- 29m -->
      <g transform="translate(571.829075 303.028562) scale(0.1 -0.1)">
       <defs>
        <path id="DejaVuSans-32" d="M 1228 531 
L 3431 531 
L 3431 0 
L 469 0 
L 469 531 
Q 828 903 1448 1529 
Q 2069 2156 2228 2338 
Q 2531 2678 2651 2914 
Q 2772 3150 2772 3378 
Q 2772 3750 2511 3984 
Q 2250 4219 1831 4219 
Q 1534 4219 1204 4116 
Q 875 4013 500 3803 
L 500 4441 
Q 881 4594 1212 4672 
Q 1544 4750 1819 4750 
Q 2544 4750 2975 4387 
Q 3406 4025 3406 3419 
Q 3406 3131 3298 2873 
Q 3191 2616 2906 2266 
Q 2828 2175 2409 1742 
Q 1991 1309 1228 531 
z
" transform="scale(0.015625)"/>
        <path id="DejaVuSans-39" d="M 703 97 
L 703 672 
Q 941 559 1184 500 
Q 1428 441 1663 441 
Q 2288 441 2617 861 
Q 2947 1281 2994 2138 
Q 2813 1869 2534 1725 
Q 2256 1581 1919 1581 
Q 1219 1581 811 2004 
Q 403 2428 403 3163 
Q 403 3881 828 4315 
Q 1253 4750 1959 4750 
Q 2769 4750 3195 4129 
Q 3622 3509 3622 2328 
Q 3622 1225 3098 567 
Q 2575 -91 1691 -91 
Q 1453 -91 1209 -44 
Q 966 3 703 97 
z
M 1959 2075 
Q 2384 2075 2632 2365 
Q 2881 2656 2881 3163 
Q 2881 3666 2632 3958 
Q 2384 4250 1959 4250 
Q 1534 4250 1286 3958 
Q 1038 3666 1038 3163 
Q 1038 2656 1286 2365 
Q 1534 2075 1959 2075 
z
" transform="scale(0.015625)"/>
       </defs>
       <use xlink:href="#DejaVuSans-32"/>
       <use xlink:href="#DejaVuSans-39" transform="translate(63.623047 0)"/>
       <use xlink:href="#DejaVuSans-6d" transform="translate(127.246094 0)"/>
      </g>
     </g>
    </g>
    <g id="xtick_10">
     <g id="line2d_10">
      <g>
       <use xlink:href="#m0a21036411" x="643.643099" y="288.430125" style="stroke: #000000; stroke-width: 0.8"/>
      </g>
     </g>
     <g id="text_6">
      <!-- 1h:26m -->
      <g transform="translate(624.375911 303.028562) scale(0.1 -0.1)">
       <defs>
        <path id="DejaVuSans-68" d="M 3513 2113 
L 3513 0 
L 2938 0 
L 2938 2094 
Q 2938 2591 2744 2837 
Q 2550 3084 2163 3084 
Q 1697 3084 1428 2787 
Q 1159 2491 1159 1978 
L 1159 0 
L 581 0 
L 581 4863 
L 1159 4863 
L 1159 2956 
Q 1366 3272 1645 3428 
Q 1925 3584 2291 3584 
Q 2894 3584 3203 3211 
Q 3513 2838 3513 2113 
z
" transform="scale(0.015625)"/>
        <path id="DejaVuSans-3a" d="M 750 794 
L 1409 794 
L 1409 0 
L 750 0 
L 750 794 
z
M 750 3309 
L 1409 3309 
L 1409 2516 
L 750 2516 
L 750 3309 
z
" transform="scale(0.015625)"/>
        <path id="DejaVuSans-36" d="M 2113 2584 
Q 1688 2584 1439 2293 
Q 1191 2003 1191 1497 
Q 1191 994 1439 701 
Q 1688 409 2113 409 
Q 2538 409 2786 701 
Q 3034 994 3034 1497 
Q 3034 2003 2786 2293 
Q 2538 2584 2113 2584 
z
M 3366 4563 
L 3366 3988 
Q 3128 4100 2886 4159 
Q 2644 4219 2406 4219 
Q 1781 4219 1451 3797 
Q 1122 3375 1075 2522 
Q 1259 2794 1537 2939 
Q 1816 3084 2150 3084 
Q 2853 3084 3261 2657 
Q 3669 2231 3669 1497 
Q 3669 778 3244 343 
Q 2819 -91 2113 -91 
Q 1303 -91 875 529 
Q 447 1150 447 2328 
Q 447 3434 972 4092 
Q 1497 4750 2381 4750 
Q 2619 4750 2861 4703 
Q 3103 4656 3366 4563 
z
" transform="scale(0.015625)"/>
       </defs>
       <use xlink:href="#DejaVuSans-31"/>
       <use xlink:href="#DejaVuSans-68" transform="translate(63.623047 0)"/>
       <use xlink:href="#DejaVuSans-3a" transform="translate(127.001953 0)"/>
       <use xlink:href="#DejaVuSans-32" transform="translate(160.693359 0)"/>
       <use xlink:href="#DejaVuSans-36" transform="translate(224.316406 0)"/>
       <use xlink:href="#DejaVuSans-6d" transform="translate(287.939453 0)"/>
      </g>
     </g>
    </g>
    <g id="xtick_11">
     <g id="line2d_11">
      <g>
       <use xlink:href="#m0a21036411" x="704.22431" y="288.430125" style="stroke: #000000; stroke-width: 0.8"/>
      </g>
     </g>
     <g id="text_7">
      <!-- 4h:12m -->
      <g transform="translate(684.957123 303.028562) scale(0.1 -0.1)">
       <defs>
        <path id="DejaVuSans-34" d="M 2419 4116 
L 825 1625 
L 2419 1625 
L 2419 4116 
z
M 2253 4666 
L 3047 4666 
L 3047 1625 
L 3713 1625 
L 3713 1100 
L 3047 1100 
L 3047 0 
L 2419 0 
L 2419 1100 
L 313 1100 
L 313 1709 
L 2253 4666 
z
" transform="scale(0.015625)"/>
       </defs>
       <use xlink:href="#DejaVuSans-34"/>
       <use xlink:href="#DejaVuSans-68" transform="translate(63.623047 0)"/>
       <use xlink:href="#DejaVuSans-3a" transform="translate(127.001953 0)"/>
       <use xlink:href="#DejaVuSans-31" transform="translate(160.693359 0)"/>
       <use xlink:href="#DejaVuSans-32" transform="translate(224.316406 0)"/>
       <use xlink:href="#DejaVuSans-6d" transform="translate(287.939453 0)"/>
      </g>
     </g>
    </g>
    <g id="xtick_12">
     <g id="line2d_12">
      <g>
       <use xlink:href="#m0a21036411" x="764.805522" y="288.430125" style="stroke: #000000; stroke-width: 0.8"/>
      </g>
     </g>
     <g id="text_8">
      <!-- 12h:15m -->
      <g transform="translate(742.357084 303.028562) scale(0.1 -0.1)">
       <defs>
        <path id="DejaVuSans-35" d="M 691 4666 
L 3169 4666 
L 3169 4134 
L 1269 4134 
L 1269 2991 
Q 1406 3038 1543 3061 
Q 1681 3084 1819 3084 
Q 2600 3084 3056 2656 
Q 3513 2228 3513 1497 
Q 3513 744 3044 326 
Q 2575 -91 1722 -91 
Q 1428 -91 1123 -41 
Q 819 9 494 109 
L 494 744 
Q 775 591 1075 516 
Q 1375 441 1709 441 
Q 2250 441 2565 725 
Q 2881 1009 2881 1497 
Q 2881 1984 2565 2268 
Q 2250 2553 1709 2553 
Q 1456 2553 1204 2497 
Q 953 2441 691 2322 
L 691 4666 
z
" transform="scale(0.015625)"/>
       </defs>
       <use xlink:href="#DejaVuSans-31"/>
       <use xlink:href="#DejaVuSans-32" transform="translate(63.623047 0)"/>
       <use xlink:href="#DejaVuSans-68" transform="translate(127.246094 0)"/>
       <use xlink:href="#DejaVuSans-3a" transform="translate(190.625 0)"/>
       <use xlink:href="#DejaVuSans-31" transform="translate(224.316406 0)"/>
       <use xlink:href="#DejaVuSans-35" transform="translate(287.939453 0)"/>
       <use xlink:href="#DejaVuSans-6d" transform="translate(351.5625 0)"/>
      </g>
     </g>
    </g>
    <g id="text_9">
     <!-- Time (hour:minute) -->
     <g transform="translate(362.041094 316.706687) scale(0.1 -0.1)">
      <defs>
       <path id="DejaVuSans-54" d="M -19 4666 
L 3928 4666 
L 3928 4134 
L 2272 4134 
L 2272 0 
L 1638 0 
L 1638 4134 
L -19 4134 
L -19 4666 
z
" transform="scale(0.015625)"/>
       <path id="DejaVuSans-69" d="M 603 3500 
L 1178 3500 
L 1178 0 
L 603 0 
L 603 3500 
z
M 603 4863 
L 1178 4863 
L 1178 4134 
L 603 4134 
L 603 4863 
z
" transform="scale(0.015625)"/>
       <path id="DejaVuSans-65" d="M 3597 1894 
L 3597 1613 
L 953 1613 
Q 991 1019 1311 708 
Q 1631 397 2203 397 
Q 2534 397 2845 478 
Q 3156 559 3463 722 
L 3463 178 
Q 3153 47 2828 -22 
Q 2503 -91 2169 -91 
Q 1331 -91 842 396 
Q 353 884 353 1716 
Q 353 2575 817 3079 
Q 1281 3584 2069 3584 
Q 2775 3584 3186 3129 
Q 3597 2675 3597 1894 
z
M 3022 2063 
Q 3016 2534 2758 2815 
Q 2500 3097 2075 3097 
Q 1594 3097 1305 2825 
Q 1016 2553 972 2059 
L 3022 2063 
z
" transform="scale(0.015625)"/>
       <path id="DejaVuSans-20" transform="scale(0.015625)"/>
       <path id="DejaVuSans-28" d="M 1984 4856 
Q 1566 4138 1362 3434 
Q 1159 2731 1159 2009 
Q 1159 1288 1364 580 
Q 1569 -128 1984 -844 
L 1484 -844 
Q 1016 -109 783 600 
Q 550 1309 550 2009 
Q 550 2706 781 3412 
Q 1013 4119 1484 4856 
L 1984 4856 
z
" transform="scale(0.015625)"/>
       <path id="DejaVuSans-6f" d="M 1959 3097 
Q 1497 3097 1228 2736 
Q 959 2375 959 1747 
Q 959 1119 1226 758 
Q 1494 397 1959 397 
Q 2419 397 2687 759 
Q 2956 1122 2956 1747 
Q 2956 2369 2687 2733 
Q 2419 3097 1959 3097 
z
M 1959 3584 
Q 2709 3584 3137 3096 
Q 3566 2609 3566 1747 
Q 3566 888 3137 398 
Q 2709 -91 1959 -91 
Q 1206 -91 779 398 
Q 353 888 353 1747 
Q 353 2609 779 3096 
Q 1206 3584 1959 3584 
z
" transform="scale(0.015625)"/>
       <path id="DejaVuSans-75" d="M 544 1381 
L 544 3500 
L 1119 3500 
L 1119 1403 
Q 1119 906 1312 657 
Q 1506 409 1894 409 
Q 2359 409 2629 706 
Q 2900 1003 2900 1516 
L 2900 3500 
L 3475 3500 
L 3475 0 
L 2900 0 
L 2900 538 
Q 2691 219 2414 64 
Q 2138 -91 1772 -91 
Q 1169 -91 856 284 
Q 544 659 544 1381 
z
M 1991 3584 
L 1991 3584 
z
" transform="scale(0.015625)"/>
       <path id="DejaVuSans-72" d="M 2631 2963 
Q 2534 3019 2420 3045 
Q 2306 3072 2169 3072 
Q 1681 3072 1420 2755 
Q 1159 2438 1159 1844 
L 1159 0 
L 581 0 
L 581 3500 
L 1159 3500 
L 1159 2956 
Q 1341 3275 1631 3429 
Q 1922 3584 2338 3584 
Q 2397 3584 2469 3576 
Q 2541 3569 2628 3553 
L 2631 2963 
z
" transform="scale(0.015625)"/>
       <path id="DejaVuSans-6e" d="M 3513 2113 
L 3513 0 
L 2938 0 
L 2938 2094 
Q 2938 2591 2744 2837 
Q 2550 3084 2163 3084 
Q 1697 3084 1428 2787 
Q 1159 2491 1159 1978 
L 1159 0 
L 581 0 
L 581 3500 
L 1159 3500 
L 1159 2956 
Q 1366 3272 1645 3428 
Q 1925 3584 2291 3584 
Q 2894 3584 3203 3211 
Q 3513 2838 3513 2113 
z
" transform="scale(0.015625)"/>
       <path id="DejaVuSans-74" d="M 1172 4494 
L 1172 3500 
L 2356 3500 
L 2356 3053 
L 1172 3053 
L 1172 1153 
Q 1172 725 1289 603 
Q 1406 481 1766 481 
L 2356 481 
L 2356 0 
L 1766 0 
Q 1100 0 847 248 
Q 594 497 594 1153 
L 594 3053 
L 172 3053 
L 172 3500 
L 594 3500 
L 594 4494 
L 1172 4494 
z
" transform="scale(0.015625)"/>
       <path id="DejaVuSans-29" d="M 513 4856 
L 1013 4856 
Q 1481 4119 1714 3412 
Q 1947 2706 1947 2009 
Q 1947 1309 1714 600 
Q 1481 -109 1013 -844 
L 513 -844 
Q 928 -128 1133 580 
Q 1338 1288 1338 2009 
Q 1338 2731 1133 3434 
Q 928 4138 513 4856 
z
" transform="scale(0.015625)"/>
      </defs>
      <use xlink:href="#DejaVuSans-54"/>
      <use xlink:href="#DejaVuSans-69" transform="translate(57.958984 0)"/>
      <use xlink:href="#DejaVuSans-6d" transform="translate(85.742188 0)"/>
      <use xlink:href="#DejaVuSans-65" transform="translate(183.154297 0)"/>
      <use xlink:href="#DejaVuSans-20" transform="translate(244.677734 0)"/>
      <use xlink:href="#DejaVuSans-28" transform="translate(276.464844 0)"/>
      <use xlink:href="#DejaVuSans-68" transform="translate(315.478516 0)"/>
      <use xlink:href="#DejaVuSans-6f" transform="translate(378.857422 0)"/>
      <use xlink:href="#DejaVuSans-75" transform="translate(440.039062 0)"/>
      <use xlink:href="#DejaVuSans-72" transform="translate(503.417969 0)"/>
      <use xlink:href="#DejaVuSans-3a" transform="translate(542.78125 0)"/>
      <use xlink:href="#DejaVuSans-6d" transform="translate(576.472656 0)"/>
      <use xlink:href="#DejaVuSans-69" transform="translate(673.884766 0)"/>
      <use xlink:href="#DejaVuSans-6e" transform="translate(701.667969 0)"/>
      <use xlink:href="#DejaVuSans-75" transform="translate(765.046875 0)"/>
      <use xlink:href="#DejaVuSans-74" transform="translate(828.425781 0)"/>
      <use xlink:href="#DejaVuSans-65" transform="translate(867.634766 0)"/>
      <use xlink:href="#DejaVuSans-29" transform="translate(929.158203 0)"/>
     </g>
    </g>
   </g>
   <g id="matplotlib.axis_2">
    <g id="ytick_1">
     <g id="line2d_13">
      <defs>
       <path id="m7d9d7f510f" d="M 0 0 
L -3.5 0 
" style="stroke: #000000; stroke-width: 0.8"/>
      </defs>
      <g>
       <use xlink:href="#m7d9d7f510f" x="53.328125" y="276.334125" style="stroke: #000000; stroke-width: 0.8"/>
      </g>
     </g>
     <g id="text_10">
      <!-- 0 -->
      <g transform="translate(39.965625 280.133344) scale(0.1 -0.1)">
       <use xlink:href="#DejaVuSans-30"/>
      </g>
     </g>
    </g>
    <g id="ytick_2">
     <g id="line2d_14">
      <g>
       <use xlink:href="#m7d9d7f510f" x="53.328125" y="237.415206" style="stroke: #000000; stroke-width: 0.8"/>
      </g>
     </g>
     <g id="text_11">
      <!-- 500 -->
      <g transform="translate(27.240625 241.214425) scale(0.1 -0.1)">
       <use xlink:href="#DejaVuSans-35"/>
       <use xlink:href="#DejaVuSans-30" transform="translate(63.623047 0)"/>
       <use xlink:href="#DejaVuSans-30" transform="translate(127.246094 0)"/>
      </g>
     </g>
    </g>
    <g id="ytick_3">
     <g id="line2d_15">
      <g>
       <use xlink:href="#m7d9d7f510f" x="53.328125" y="198.496287" style="stroke: #000000; stroke-width: 0.8"/>
      </g>
     </g>
     <g id="text_12">
      <!-- 1000 -->
      <g transform="translate(20.878125 202.295506) scale(0.1 -0.1)">
       <use xlink:href="#DejaVuSans-31"/>
       <use xlink:href="#DejaVuSans-30" transform="translate(63.623047 0)"/>
       <use xlink:href="#DejaVuSans-30" transform="translate(127.246094 0)"/>
       <use xlink:href="#DejaVuSans-30" transform="translate(190.869141 0)"/>
      </g>
     </g>
    </g>
    <g id="ytick_4">
     <g id="line2d_16">
      <g>
       <use xlink:href="#m7d9d7f510f" x="53.328125" y="159.577368" style="stroke: #000000; stroke-width: 0.8"/>
      </g>
     </g>
     <g id="text_13">
      <!-- 1500 -->
      <g transform="translate(20.878125 163.376587) scale(0.1 -0.1)">
       <use xlink:href="#DejaVuSans-31"/>
       <use xlink:href="#DejaVuSans-35" transform="translate(63.623047 0)"/>
       <use xlink:href="#DejaVuSans-30" transform="translate(127.246094 0)"/>
       <use xlink:href="#DejaVuSans-30" transform="translate(190.869141 0)"/>
      </g>
     </g>
    </g>
    <g id="ytick_5">
     <g id="line2d_17">
      <g>
       <use xlink:href="#m7d9d7f510f" x="53.328125" y="120.658449" style="stroke: #000000; stroke-width: 0.8"/>
      </g>
     </g>
     <g id="text_14">
      <!-- 2000 -->
      <g transform="translate(20.878125 124.457668) scale(0.1 -0.1)">
       <use xlink:href="#DejaVuSans-32"/>
       <use xlink:href="#DejaVuSans-30" transform="translate(63.623047 0)"/>
       <use xlink:href="#DejaVuSans-30" transform="translate(127.246094 0)"/>
       <use xlink:href="#DejaVuSans-30" transform="translate(190.869141 0)"/>
      </g>
     </g>
    </g>
    <g id="ytick_6">
     <g id="line2d_18">
      <g>
       <use xlink:href="#m7d9d7f510f" x="53.328125" y="81.73953" style="stroke: #000000; stroke-width: 0.8"/>
      </g>
     </g>
     <g id="text_15">
      <!-- 2500 -->
      <g transform="translate(20.878125 85.538749) scale(0.1 -0.1)">
       <use xlink:href="#DejaVuSans-32"/>
       <use xlink:href="#DejaVuSans-35" transform="translate(63.623047 0)"/>
       <use xlink:href="#DejaVuSans-30" transform="translate(127.246094 0)"/>
       <use xlink:href="#DejaVuSans-30" transform="translate(190.869141 0)"/>
      </g>
     </g>
    </g>
    <g id="ytick_7">
     <g id="line2d_19">
      <g>
       <use xlink:href="#m7d9d7f510f" x="53.328125" y="42.820611" style="stroke: #000000; stroke-width: 0.8"/>
      </g>
     </g>
     <g id="text_16">
      <!-- 3000 -->
      <g transform="translate(20.878125 46.61983) scale(0.1 -0.1)">
       <use xlink:href="#DejaVuSans-33"/>
       <use xlink:href="#DejaVuSans-30" transform="translate(63.623047 0)"/>
       <use xlink:href="#DejaVuSans-30" transform="translate(127.246094 0)"/>
       <use xlink:href="#DejaVuSans-30" transform="translate(190.869141 0)"/>
      </g>
     </g>
    </g>
    <g id="text_17">
     <!-- Code branch coverage -->
     <g transform="translate(14.798438 211.949125) rotate(-90) scale(0.1 -0.1)">
      <defs>
       <path id="DejaVuSans-43" d="M 4122 4306 
L 4122 3641 
Q 3803 3938 3442 4084 
Q 3081 4231 2675 4231 
Q 1875 4231 1450 3742 
Q 1025 3253 1025 2328 
Q 1025 1406 1450 917 
Q 1875 428 2675 428 
Q 3081 428 3442 575 
Q 3803 722 4122 1019 
L 4122 359 
Q 3791 134 3420 21 
Q 3050 -91 2638 -91 
Q 1578 -91 968 557 
Q 359 1206 359 2328 
Q 359 3453 968 4101 
Q 1578 4750 2638 4750 
Q 3056 4750 3426 4639 
Q 3797 4528 4122 4306 
z
" transform="scale(0.015625)"/>
       <path id="DejaVuSans-64" d="M 2906 2969 
L 2906 4863 
L 3481 4863 
L 3481 0 
L 2906 0 
L 2906 525 
Q 2725 213 2448 61 
Q 2172 -91 1784 -91 
Q 1150 -91 751 415 
Q 353 922 353 1747 
Q 353 2572 751 3078 
Q 1150 3584 1784 3584 
Q 2172 3584 2448 3432 
Q 2725 3281 2906 2969 
z
M 947 1747 
Q 947 1113 1208 752 
Q 1469 391 1925 391 
Q 2381 391 2643 752 
Q 2906 1113 2906 1747 
Q 2906 2381 2643 2742 
Q 2381 3103 1925 3103 
Q 1469 3103 1208 2742 
Q 947 2381 947 1747 
z
" transform="scale(0.015625)"/>
       <path id="DejaVuSans-62" d="M 3116 1747 
Q 3116 2381 2855 2742 
Q 2594 3103 2138 3103 
Q 1681 3103 1420 2742 
Q 1159 2381 1159 1747 
Q 1159 1113 1420 752 
Q 1681 391 2138 391 
Q 2594 391 2855 752 
Q 3116 1113 3116 1747 
z
M 1159 2969 
Q 1341 3281 1617 3432 
Q 1894 3584 2278 3584 
Q 2916 3584 3314 3078 
Q 3713 2572 3713 1747 
Q 3713 922 3314 415 
Q 2916 -91 2278 -91 
Q 1894 -91 1617 61 
Q 1341 213 1159 525 
L 1159 0 
L 581 0 
L 581 4863 
L 1159 4863 
L 1159 2969 
z
" transform="scale(0.015625)"/>
       <path id="DejaVuSans-61" d="M 2194 1759 
Q 1497 1759 1228 1600 
Q 959 1441 959 1056 
Q 959 750 1161 570 
Q 1363 391 1709 391 
Q 2188 391 2477 730 
Q 2766 1069 2766 1631 
L 2766 1759 
L 2194 1759 
z
M 3341 1997 
L 3341 0 
L 2766 0 
L 2766 531 
Q 2569 213 2275 61 
Q 1981 -91 1556 -91 
Q 1019 -91 701 211 
Q 384 513 384 1019 
Q 384 1609 779 1909 
Q 1175 2209 1959 2209 
L 2766 2209 
L 2766 2266 
Q 2766 2663 2505 2880 
Q 2244 3097 1772 3097 
Q 1472 3097 1187 3025 
Q 903 2953 641 2809 
L 641 3341 
Q 956 3463 1253 3523 
Q 1550 3584 1831 3584 
Q 2591 3584 2966 3190 
Q 3341 2797 3341 1997 
z
" transform="scale(0.015625)"/>
       <path id="DejaVuSans-63" d="M 3122 3366 
L 3122 2828 
Q 2878 2963 2633 3030 
Q 2388 3097 2138 3097 
Q 1578 3097 1268 2742 
Q 959 2388 959 1747 
Q 959 1106 1268 751 
Q 1578 397 2138 397 
Q 2388 397 2633 464 
Q 2878 531 3122 666 
L 3122 134 
Q 2881 22 2623 -34 
Q 2366 -91 2075 -91 
Q 1284 -91 818 406 
Q 353 903 353 1747 
Q 353 2603 823 3093 
Q 1294 3584 2113 3584 
Q 2378 3584 2631 3529 
Q 2884 3475 3122 3366 
z
" transform="scale(0.015625)"/>
       <path id="DejaVuSans-76" d="M 191 3500 
L 800 3500 
L 1894 563 
L 2988 3500 
L 3597 3500 
L 2284 0 
L 1503 0 
L 191 3500 
z
" transform="scale(0.015625)"/>
       <path id="DejaVuSans-67" d="M 2906 1791 
Q 2906 2416 2648 2759 
Q 2391 3103 1925 3103 
Q 1463 3103 1205 2759 
Q 947 2416 947 1791 
Q 947 1169 1205 825 
Q 1463 481 1925 481 
Q 2391 481 2648 825 
Q 2906 1169 2906 1791 
z
M 3481 434 
Q 3481 -459 3084 -895 
Q 2688 -1331 1869 -1331 
Q 1566 -1331 1297 -1286 
Q 1028 -1241 775 -1147 
L 775 -588 
Q 1028 -725 1275 -790 
Q 1522 -856 1778 -856 
Q 2344 -856 2625 -561 
Q 2906 -266 2906 331 
L 2906 616 
Q 2728 306 2450 153 
Q 2172 0 1784 0 
Q 1141 0 747 490 
Q 353 981 353 1791 
Q 353 2603 747 3093 
Q 1141 3584 1784 3584 
Q 2172 3584 2450 3431 
Q 2728 3278 2906 2969 
L 2906 3500 
L 3481 3500 
L 3481 434 
z
" transform="scale(0.015625)"/>
      </defs>
      <use xlink:href="#DejaVuSans-43"/>
      <use xlink:href="#DejaVuSans-6f" transform="translate(69.824219 0)"/>
      <use xlink:href="#DejaVuSans-64" transform="translate(131.005859 0)"/>
      <use xlink:href="#DejaVuSans-65" transform="translate(194.482422 0)"/>
      <use xlink:href="#DejaVuSans-20" transform="translate(256.005859 0)"/>
      <use xlink:href="#DejaVuSans-62" transform="translate(287.792969 0)"/>
      <use xlink:href="#DejaVuSans-72" transform="translate(351.269531 0)"/>
      <use xlink:href="#DejaVuSans-61" transform="translate(392.382812 0)"/>
      <use xlink:href="#DejaVuSans-6e" transform="translate(453.662109 0)"/>
      <use xlink:href="#DejaVuSans-63" transform="translate(517.041016 0)"/>
      <use xlink:href="#DejaVuSans-68" transform="translate(572.021484 0)"/>
      <use xlink:href="#DejaVuSans-20" transform="translate(635.400391 0)"/>
      <use xlink:href="#DejaVuSans-63" transform="translate(667.1875 0)"/>
      <use xlink:href="#DejaVuSans-6f" transform="translate(722.167969 0)"/>
      <use xlink:href="#DejaVuSans-76" transform="translate(783.349609 0)"/>
      <use xlink:href="#DejaVuSans-65" transform="translate(842.529297 0)"/>
      <use xlink:href="#DejaVuSans-72" transform="translate(904.052734 0)"/>
      <use xlink:href="#DejaVuSans-61" transform="translate(945.166016 0)"/>
      <use xlink:href="#DejaVuSans-67" transform="translate(1006.445312 0)"/>
      <use xlink:href="#DejaVuSans-65" transform="translate(1069.921875 0)"/>
     </g>
    </g>
   </g>
   <g id="line2d_20">
    <path d="M 53.328125 276.334125 
L 544.338605 84.61953 
L 583.604326 74.500611 
L 606.573301 66.950341 
L 622.870048 65.237909 
L 635.510787 62.66926 
L 645.839022 62.280071 
L 654.571421 61.657368 
L 662.135769 61.57953 
L 668.807997 58.154666 
L 674.776508 58.154666 
L 680.175683 57.609801 
L 685.104744 56.442233 
L 689.63904 55.897368 
L 693.837142 55.352503 
L 697.745482 55.11899 
L 701.40149 54.963314 
L 704.835782 54.651963 
L 708.073718 54.651963 
L 711.136543 54.574125 
L 714.042229 54.496287 
L 716.806117 53.562233 
L 719.441404 53.017368 
L 721.959528 53.017368 
L 724.370465 52.93953 
L 726.682968 52.93953 
L 728.904761 52.394666 
L 731.042693 51.304936 
L 733.102864 51.304936 
L 735.090733 51.304936 
L 737.011204 51.227098 
L 738.868697 51.227098 
L 740.667212 51.227098 
L 742.410379 51.227098 
L 744.101503 51.227098 
L 745.743603 51.227098 
L 747.33944 51.227098 
L 748.891549 51.227098 
L 750.402264 50.993584 
L 751.873736 50.915747 
L 753.307951 45.233584 
L 754.706749 44.610882 
L 756.071838 44.377368 
L 757.404805 44.143855 
L 758.707126 44.066017 
L 759.980178 43.988179 
L 761.22525 43.910341 
L 762.443543 43.832503 
L 763.636186 43.832503 
L 764.804237 43.754666 
" clip-path="url(#p18d2c1ea4a)" style="fill: none; stroke: #1f77b4; stroke-width: 1.5; stroke-linecap: square"/>
    <defs>
     <path id="mee5ae52f0e" d="M 0 3 
C 0.795609 3 1.55874 2.683901 2.12132 2.12132 
C 2.683901 1.55874 3 0.795609 3 0 
C 3 -0.795609 2.683901 -1.55874 2.12132 -2.12132 
C 1.55874 -2.683901 0.795609 -3 0 -3 
C -0.795609 -3 -1.55874 -2.683901 -2.12132 -2.12132 
C -2.683901 -1.55874 -3 -0.795609 -3 0 
C -3 0.795609 -2.683901 1.55874 -2.12132 2.12132 
C -1.55874 2.683901 -0.795609 3 0 3 
z
" style="stroke: #ffffff; stroke-width: 0.75"/>
    </defs>
    <g clip-path="url(#p18d2c1ea4a)">
     <use xlink:href="#mee5ae52f0e" x="53.328125" y="276.334125" style="fill: #1f77b4; stroke: #ffffff; stroke-width: 0.75"/>
     <use xlink:href="#mee5ae52f0e" x="544.338605" y="84.61953" style="fill: #1f77b4; stroke: #ffffff; stroke-width: 0.75"/>
     <use xlink:href="#mee5ae52f0e" x="583.604326" y="74.500611" style="fill: #1f77b4; stroke: #ffffff; stroke-width: 0.75"/>
     <use xlink:href="#mee5ae52f0e" x="606.573301" y="66.950341" style="fill: #1f77b4; stroke: #ffffff; stroke-width: 0.75"/>
     <use xlink:href="#mee5ae52f0e" x="622.870048" y="65.237909" style="fill: #1f77b4; stroke: #ffffff; stroke-width: 0.75"/>
     <use xlink:href="#mee5ae52f0e" x="635.510787" y="62.66926" style="fill: #1f77b4; stroke: #ffffff; stroke-width: 0.75"/>
     <use xlink:href="#mee5ae52f0e" x="645.839022" y="62.280071" style="fill: #1f77b4; stroke: #ffffff; stroke-width: 0.75"/>
     <use xlink:href="#mee5ae52f0e" x="654.571421" y="61.657368" style="fill: #1f77b4; stroke: #ffffff; stroke-width: 0.75"/>
     <use xlink:href="#mee5ae52f0e" x="662.135769" y="61.57953" style="fill: #1f77b4; stroke: #ffffff; stroke-width: 0.75"/>
     <use xlink:href="#mee5ae52f0e" x="668.807997" y="58.154666" style="fill: #1f77b4; stroke: #ffffff; stroke-width: 0.75"/>
     <use xlink:href="#mee5ae52f0e" x="674.776508" y="58.154666" style="fill: #1f77b4; stroke: #ffffff; stroke-width: 0.75"/>
     <use xlink:href="#mee5ae52f0e" x="680.175683" y="57.609801" style="fill: #1f77b4; stroke: #ffffff; stroke-width: 0.75"/>
     <use xlink:href="#mee5ae52f0e" x="685.104744" y="56.442233" style="fill: #1f77b4; stroke: #ffffff; stroke-width: 0.75"/>
     <use xlink:href="#mee5ae52f0e" x="689.63904" y="55.897368" style="fill: #1f77b4; stroke: #ffffff; stroke-width: 0.75"/>
     <use xlink:href="#mee5ae52f0e" x="693.837142" y="55.352503" style="fill: #1f77b4; stroke: #ffffff; stroke-width: 0.75"/>
     <use xlink:href="#mee5ae52f0e" x="697.745482" y="55.11899" style="fill: #1f77b4; stroke: #ffffff; stroke-width: 0.75"/>
     <use xlink:href="#mee5ae52f0e" x="701.40149" y="54.963314" style="fill: #1f77b4; stroke: #ffffff; stroke-width: 0.75"/>
     <use xlink:href="#mee5ae52f0e" x="704.835782" y="54.651963" style="fill: #1f77b4; stroke: #ffffff; stroke-width: 0.75"/>
     <use xlink:href="#mee5ae52f0e" x="708.073718" y="54.651963" style="fill: #1f77b4; stroke: #ffffff; stroke-width: 0.75"/>
     <use xlink:href="#mee5ae52f0e" x="711.136543" y="54.574125" style="fill: #1f77b4; stroke: #ffffff; stroke-width: 0.75"/>
     <use xlink:href="#mee5ae52f0e" x="714.042229" y="54.496287" style="fill: #1f77b4; stroke: #ffffff; stroke-width: 0.75"/>
     <use xlink:href="#mee5ae52f0e" x="716.806117" y="53.562233" style="fill: #1f77b4; stroke: #ffffff; stroke-width: 0.75"/>
     <use xlink:href="#mee5ae52f0e" x="719.441404" y="53.017368" style="fill: #1f77b4; stroke: #ffffff; stroke-width: 0.75"/>
     <use xlink:href="#mee5ae52f0e" x="721.959528" y="53.017368" style="fill: #1f77b4; stroke: #ffffff; stroke-width: 0.75"/>
     <use xlink:href="#mee5ae52f0e" x="724.370465" y="52.93953" style="fill: #1f77b4; stroke: #ffffff; stroke-width: 0.75"/>
     <use xlink:href="#mee5ae52f0e" x="726.682968" y="52.93953" style="fill: #1f77b4; stroke: #ffffff; stroke-width: 0.75"/>
     <use xlink:href="#mee5ae52f0e" x="728.904761" y="52.394666" style="fill: #1f77b4; stroke: #ffffff; stroke-width: 0.75"/>
     <use xlink:href="#mee5ae52f0e" x="731.042693" y="51.304936" style="fill: #1f77b4; stroke: #ffffff; stroke-width: 0.75"/>
     <use xlink:href="#mee5ae52f0e" x="733.102864" y="51.304936" style="fill: #1f77b4; stroke: #ffffff; stroke-width: 0.75"/>
     <use xlink:href="#mee5ae52f0e" x="735.090733" y="51.304936" style="fill: #1f77b4; stroke: #ffffff; stroke-width: 0.75"/>
     <use xlink:href="#mee5ae52f0e" x="737.011204" y="51.227098" style="fill: #1f77b4; stroke: #ffffff; stroke-width: 0.75"/>
     <use xlink:href="#mee5ae52f0e" x="738.868697" y="51.227098" style="fill: #1f77b4; stroke: #ffffff; stroke-width: 0.75"/>
     <use xlink:href="#mee5ae52f0e" x="740.667212" y="51.227098" style="fill: #1f77b4; stroke: #ffffff; stroke-width: 0.75"/>
     <use xlink:href="#mee5ae52f0e" x="742.410379" y="51.227098" style="fill: #1f77b4; stroke: #ffffff; stroke-width: 0.75"/>
     <use xlink:href="#mee5ae52f0e" x="744.101503" y="51.227098" style="fill: #1f77b4; stroke: #ffffff; stroke-width: 0.75"/>
     <use xlink:href="#mee5ae52f0e" x="745.743603" y="51.227098" style="fill: #1f77b4; stroke: #ffffff; stroke-width: 0.75"/>
     <use xlink:href="#mee5ae52f0e" x="747.33944" y="51.227098" style="fill: #1f77b4; stroke: #ffffff; stroke-width: 0.75"/>
     <use xlink:href="#mee5ae52f0e" x="748.891549" y="51.227098" style="fill: #1f77b4; stroke: #ffffff; stroke-width: 0.75"/>
     <use xlink:href="#mee5ae52f0e" x="750.402264" y="50.993584" style="fill: #1f77b4; stroke: #ffffff; stroke-width: 0.75"/>
     <use xlink:href="#mee5ae52f0e" x="751.873736" y="50.915747" style="fill: #1f77b4; stroke: #ffffff; stroke-width: 0.75"/>
     <use xlink:href="#mee5ae52f0e" x="753.307951" y="45.233584" style="fill: #1f77b4; stroke: #ffffff; stroke-width: 0.75"/>
     <use xlink:href="#mee5ae52f0e" x="754.706749" y="44.610882" style="fill: #1f77b4; stroke: #ffffff; stroke-width: 0.75"/>
     <use xlink:href="#mee5ae52f0e" x="756.071838" y="44.377368" style="fill: #1f77b4; stroke: #ffffff; stroke-width: 0.75"/>
     <use xlink:href="#mee5ae52f0e" x="757.404805" y="44.143855" style="fill: #1f77b4; stroke: #ffffff; stroke-width: 0.75"/>
     <use xlink:href="#mee5ae52f0e" x="758.707126" y="44.066017" style="fill: #1f77b4; stroke: #ffffff; stroke-width: 0.75"/>
     <use xlink:href="#mee5ae52f0e" x="759.980178" y="43.988179" style="fill: #1f77b4; stroke: #ffffff; stroke-width: 0.75"/>
     <use xlink:href="#mee5ae52f0e" x="761.22525" y="43.910341" style="fill: #1f77b4; stroke: #ffffff; stroke-width: 0.75"/>
     <use xlink:href="#mee5ae52f0e" x="762.443543" y="43.832503" style="fill: #1f77b4; stroke: #ffffff; stroke-width: 0.75"/>
     <use xlink:href="#mee5ae52f0e" x="763.636186" y="43.832503" style="fill: #1f77b4; stroke: #ffffff; stroke-width: 0.75"/>
     <use xlink:href="#mee5ae52f0e" x="764.804237" y="43.754666" style="fill: #1f77b4; stroke: #ffffff; stroke-width: 0.75"/>
    </g>
   </g>
   <g id="line2d_21">
    <path d="M 53.328125 276.334125 
L 544.338605 88.978449 
L 583.604326 88.122233 
L 606.573301 84.463855 
L 622.870048 82.82926 
L 635.510787 81.895206 
L 645.839022 80.494125 
L 654.571421 78.470341 
L 662.135769 77.847639 
L 668.807997 77.691963 
L 674.776508 76.135206 
L 680.175683 69.051963 
L 685.104744 68.195747 
L 689.63904 67.106017 
L 693.837142 65.938449 
L 697.745482 65.860611 
L 701.40149 63.291963 
L 704.835782 63.291963 
L 708.073718 62.513584 
L 711.136543 56.286557 
L 714.042229 55.741693 
L 716.806117 55.663855 
L 719.441404 55.586017 
L 721.959528 55.586017 
L 724.370465 55.586017 
L 726.682968 55.586017 
L 728.904761 55.586017 
L 731.042693 54.807639 
L 733.102864 54.107098 
L 735.090733 53.795747 
L 737.011204 53.562233 
L 738.868697 53.406557 
L 740.667212 53.406557 
L 742.410379 52.783855 
L 744.101503 52.628179 
L 745.743603 52.628179 
L 747.33944 50.837909 
L 748.891549 50.760071 
L 750.402264 50.370882 
L 751.873736 49.748179 
L 753.307951 48.969801 
L 754.706749 48.891963 
L 756.071838 48.969801 
L 757.404805 48.969801 
L 758.707126 48.969801 
L 759.980178 48.736287 
L 761.22525 48.736287 
L 762.443543 48.26926 
L 763.636186 48.113584 
L 764.804237 48.113584 
" clip-path="url(#p18d2c1ea4a)" style="fill: none; stroke: #d62728; stroke-width: 1.5; stroke-linecap: square"/>
    <defs>
     <path id="mc10ddef830" d="M 0 -3 
L -3 3 
L 3 3 
z
" style="stroke: #ffffff; stroke-width: 0.75; stroke-linejoin: miter"/>
    </defs>
    <g clip-path="url(#p18d2c1ea4a)">
     <use xlink:href="#mc10ddef830" x="53.328125" y="276.334125" style="fill: #d62728; stroke: #ffffff; stroke-width: 0.75; stroke-linejoin: miter"/>
     <use xlink:href="#mc10ddef830" x="544.338605" y="88.978449" style="fill: #d62728; stroke: #ffffff; stroke-width: 0.75; stroke-linejoin: miter"/>
     <use xlink:href="#mc10ddef830" x="583.604326" y="88.122233" style="fill: #d62728; stroke: #ffffff; stroke-width: 0.75; stroke-linejoin: miter"/>
     <use xlink:href="#mc10ddef830" x="606.573301" y="84.463855" style="fill: #d62728; stroke: #ffffff; stroke-width: 0.75; stroke-linejoin: miter"/>
     <use xlink:href="#mc10ddef830" x="622.870048" y="82.82926" style="fill: #d62728; stroke: #ffffff; stroke-width: 0.75; stroke-linejoin: miter"/>
     <use xlink:href="#mc10ddef830" x="635.510787" y="81.895206" style="fill: #d62728; stroke: #ffffff; stroke-width: 0.75; stroke-linejoin: miter"/>
     <use xlink:href="#mc10ddef830" x="645.839022" y="80.494125" style="fill: #d62728; stroke: #ffffff; stroke-width: 0.75; stroke-linejoin: miter"/>
     <use xlink:href="#mc10ddef830" x="654.571421" y="78.470341" style="fill: #d62728; stroke: #ffffff; stroke-width: 0.75; stroke-linejoin: miter"/>
     <use xlink:href="#mc10ddef830" x="662.135769" y="77.847639" style="fill: #d62728; stroke: #ffffff; stroke-width: 0.75; stroke-linejoin: miter"/>
     <use xlink:href="#mc10ddef830" x="668.807997" y="77.691963" style="fill: #d62728; stroke: #ffffff; stroke-width: 0.75; stroke-linejoin: miter"/>
     <use xlink:href="#mc10ddef830" x="674.776508" y="76.135206" style="fill: #d62728; stroke: #ffffff; stroke-width: 0.75; stroke-linejoin: miter"/>
     <use xlink:href="#mc10ddef830" x="680.175683" y="69.051963" style="fill: #d62728; stroke: #ffffff; stroke-width: 0.75; stroke-linejoin: miter"/>
     <use xlink:href="#mc10ddef830" x="685.104744" y="68.195747" style="fill: #d62728; stroke: #ffffff; stroke-width: 0.75; stroke-linejoin: miter"/>
     <use xlink:href="#mc10ddef830" x="689.63904" y="67.106017" style="fill: #d62728; stroke: #ffffff; stroke-width: 0.75; stroke-linejoin: miter"/>
     <use xlink:href="#mc10ddef830" x="693.837142" y="65.938449" style="fill: #d62728; stroke: #ffffff; stroke-width: 0.75; stroke-linejoin: miter"/>
     <use xlink:href="#mc10ddef830" x="697.745482" y="65.860611" style="fill: #d62728; stroke: #ffffff; stroke-width: 0.75; stroke-linejoin: miter"/>
     <use xlink:href="#mc10ddef830" x="701.40149" y="63.291963" style="fill: #d62728; stroke: #ffffff; stroke-width: 0.75; stroke-linejoin: miter"/>
     <use xlink:href="#mc10ddef830" x="704.835782" y="63.291963" style="fill: #d62728; stroke: #ffffff; stroke-width: 0.75; stroke-linejoin: miter"/>
     <use xlink:href="#mc10ddef830" x="708.073718" y="62.513584" style="fill: #d62728; stroke: #ffffff; stroke-width: 0.75; stroke-linejoin: miter"/>
     <use xlink:href="#mc10ddef830" x="711.136543" y="56.286557" style="fill: #d62728; stroke: #ffffff; stroke-width: 0.75; stroke-linejoin: miter"/>
     <use xlink:href="#mc10ddef830" x="714.042229" y="55.741693" style="fill: #d62728; stroke: #ffffff; stroke-width: 0.75; stroke-linejoin: miter"/>
     <use xlink:href="#mc10ddef830" x="716.806117" y="55.663855" style="fill: #d62728; stroke: #ffffff; stroke-width: 0.75; stroke-linejoin: miter"/>
     <use xlink:href="#mc10ddef830" x="719.441404" y="55.586017" style="fill: #d62728; stroke: #ffffff; stroke-width: 0.75; stroke-linejoin: miter"/>
     <use xlink:href="#mc10ddef830" x="721.959528" y="55.586017" style="fill: #d62728; stroke: #ffffff; stroke-width: 0.75; stroke-linejoin: miter"/>
     <use xlink:href="#mc10ddef830" x="724.370465" y="55.586017" style="fill: #d62728; stroke: #ffffff; stroke-width: 0.75; stroke-linejoin: miter"/>
     <use xlink:href="#mc10ddef830" x="726.682968" y="55.586017" style="fill: #d62728; stroke: #ffffff; stroke-width: 0.75; stroke-linejoin: miter"/>
     <use xlink:href="#mc10ddef830" x="728.904761" y="55.586017" style="fill: #d62728; stroke: #ffffff; stroke-width: 0.75; stroke-linejoin: miter"/>
     <use xlink:href="#mc10ddef830" x="731.042693" y="54.807639" style="fill: #d62728; stroke: #ffffff; stroke-width: 0.75; stroke-linejoin: miter"/>
     <use xlink:href="#mc10ddef830" x="733.102864" y="54.107098" style="fill: #d62728; stroke: #ffffff; stroke-width: 0.75; stroke-linejoin: miter"/>
     <use xlink:href="#mc10ddef830" x="735.090733" y="53.795747" style="fill: #d62728; stroke: #ffffff; stroke-width: 0.75; stroke-linejoin: miter"/>
     <use xlink:href="#mc10ddef830" x="737.011204" y="53.562233" style="fill: #d62728; stroke: #ffffff; stroke-width: 0.75; stroke-linejoin: miter"/>
     <use xlink:href="#mc10ddef830" x="738.868697" y="53.406557" style="fill: #d62728; stroke: #ffffff; stroke-width: 0.75; stroke-linejoin: miter"/>
     <use xlink:href="#mc10ddef830" x="740.667212" y="53.406557" style="fill: #d62728; stroke: #ffffff; stroke-width: 0.75; stroke-linejoin: miter"/>
     <use xlink:href="#mc10ddef830" x="742.410379" y="52.783855" style="fill: #d62728; stroke: #ffffff; stroke-width: 0.75; stroke-linejoin: miter"/>
     <use xlink:href="#mc10ddef830" x="744.101503" y="52.628179" style="fill: #d62728; stroke: #ffffff; stroke-width: 0.75; stroke-linejoin: miter"/>
     <use xlink:href="#mc10ddef830" x="745.743603" y="52.628179" style="fill: #d62728; stroke: #ffffff; stroke-width: 0.75; stroke-linejoin: miter"/>
     <use xlink:href="#mc10ddef830" x="747.33944" y="50.837909" style="fill: #d62728; stroke: #ffffff; stroke-width: 0.75; stroke-linejoin: miter"/>
     <use xlink:href="#mc10ddef830" x="748.891549" y="50.760071" style="fill: #d62728; stroke: #ffffff; stroke-width: 0.75; stroke-linejoin: miter"/>
     <use xlink:href="#mc10ddef830" x="750.402264" y="50.370882" style="fill: #d62728; stroke: #ffffff; stroke-width: 0.75; stroke-linejoin: miter"/>
     <use xlink:href="#mc10ddef830" x="751.873736" y="49.748179" style="fill: #d62728; stroke: #ffffff; stroke-width: 0.75; stroke-linejoin: miter"/>
     <use xlink:href="#mc10ddef830" x="753.307951" y="48.969801" style="fill: #d62728; stroke: #ffffff; stroke-width: 0.75; stroke-linejoin: miter"/>
     <use xlink:href="#mc10ddef830" x="754.706749" y="48.891963" style="fill: #d62728; stroke: #ffffff; stroke-width: 0.75; stroke-linejoin: miter"/>
     <use xlink:href="#mc10ddef830" x="756.071838" y="48.969801" style="fill: #d62728; stroke: #ffffff; stroke-width: 0.75; stroke-linejoin: miter"/>
     <use xlink:href="#mc10ddef830" x="757.404805" y="48.969801" style="fill: #d62728; stroke: #ffffff; stroke-width: 0.75; stroke-linejoin: miter"/>
     <use xlink:href="#mc10ddef830" x="758.707126" y="48.969801" style="fill: #d62728; stroke: #ffffff; stroke-width: 0.75; stroke-linejoin: miter"/>
     <use xlink:href="#mc10ddef830" x="759.980178" y="48.736287" style="fill: #d62728; stroke: #ffffff; stroke-width: 0.75; stroke-linejoin: miter"/>
     <use xlink:href="#mc10ddef830" x="761.22525" y="48.736287" style="fill: #d62728; stroke: #ffffff; stroke-width: 0.75; stroke-linejoin: miter"/>
     <use xlink:href="#mc10ddef830" x="762.443543" y="48.26926" style="fill: #d62728; stroke: #ffffff; stroke-width: 0.75; stroke-linejoin: miter"/>
     <use xlink:href="#mc10ddef830" x="763.636186" y="48.113584" style="fill: #d62728; stroke: #ffffff; stroke-width: 0.75; stroke-linejoin: miter"/>
     <use xlink:href="#mc10ddef830" x="764.804237" y="48.113584" style="fill: #d62728; stroke: #ffffff; stroke-width: 0.75; stroke-linejoin: miter"/>
    </g>
   </g>
   <g id="line2d_22">
    <path d="M 53.328125 276.334125 
L 544.338605 83.062774 
L 583.604326 80.494125 
L 606.573301 79.24872 
L 622.870048 78.15899 
L 635.510787 76.135206 
L 645.839022 75.901693 
L 654.571421 75.746017 
L 662.135769 74.967639 
L 668.807997 74.734125 
L 674.776508 73.566557 
L 680.175683 70.375206 
L 685.104744 70.063855 
L 689.63904 70.063855 
L 693.837142 69.908179 
L 697.745482 69.207639 
L 701.40149 67.884395 
L 704.835782 66.405476 
L 708.073718 66.171963 
L 711.136543 63.058449 
L 714.042229 56.831422 
L 716.806117 56.753584 
L 719.441404 56.597909 
L 721.959528 56.286557 
L 724.370465 56.130882 
L 726.682968 55.663855 
L 728.904761 55.508179 
L 731.042693 55.508179 
L 733.102864 55.430341 
L 735.090733 52.93953 
L 737.011204 52.706017 
L 738.868697 52.550341 
L 740.667212 52.23899 
L 742.410379 52.005476 
L 744.101503 50.760071 
L 745.743603 49.903855 
L 747.33944 49.826017 
L 748.891549 49.748179 
L 750.402264 49.514666 
L 751.873736 49.514666 
L 753.307951 49.436828 
L 754.706749 48.113584 
L 756.071838 48.113584 
L 757.404805 47.802233 
L 758.707126 47.257368 
L 759.980178 47.023855 
L 761.22525 47.023855 
L 762.443543 47.023855 
L 763.636186 46.47899 
L 764.804237 46.401152 
" clip-path="url(#p18d2c1ea4a)" style="fill: none; stroke: #98df8a; stroke-width: 1.5; stroke-linecap: square"/>
    <defs>
     <path id="m4949b79ddf" d="M -0 3 
L 3 -3 
L -3 -3 
z
" style="stroke: #ffffff; stroke-width: 0.75; stroke-linejoin: miter"/>
    </defs>
    <g clip-path="url(#p18d2c1ea4a)">
     <use xlink:href="#m4949b79ddf" x="53.328125" y="276.334125" style="fill: #98df8a; stroke: #ffffff; stroke-width: 0.75; stroke-linejoin: miter"/>
     <use xlink:href="#m4949b79ddf" x="544.338605" y="83.062774" style="fill: #98df8a; stroke: #ffffff; stroke-width: 0.75; stroke-linejoin: miter"/>
     <use xlink:href="#m4949b79ddf" x="583.604326" y="80.494125" style="fill: #98df8a; stroke: #ffffff; stroke-width: 0.75; stroke-linejoin: miter"/>
     <use xlink:href="#m4949b79ddf" x="606.573301" y="79.24872" style="fill: #98df8a; stroke: #ffffff; stroke-width: 0.75; stroke-linejoin: miter"/>
     <use xlink:href="#m4949b79ddf" x="622.870048" y="78.15899" style="fill: #98df8a; stroke: #ffffff; stroke-width: 0.75; stroke-linejoin: miter"/>
     <use xlink:href="#m4949b79ddf" x="635.510787" y="76.135206" style="fill: #98df8a; stroke: #ffffff; stroke-width: 0.75; stroke-linejoin: miter"/>
     <use xlink:href="#m4949b79ddf" x="645.839022" y="75.901693" style="fill: #98df8a; stroke: #ffffff; stroke-width: 0.75; stroke-linejoin: miter"/>
     <use xlink:href="#m4949b79ddf" x="654.571421" y="75.746017" style="fill: #98df8a; stroke: #ffffff; stroke-width: 0.75; stroke-linejoin: miter"/>
     <use xlink:href="#m4949b79ddf" x="662.135769" y="74.967639" style="fill: #98df8a; stroke: #ffffff; stroke-width: 0.75; stroke-linejoin: miter"/>
     <use xlink:href="#m4949b79ddf" x="668.807997" y="74.734125" style="fill: #98df8a; stroke: #ffffff; stroke-width: 0.75; stroke-linejoin: miter"/>
     <use xlink:href="#m4949b79ddf" x="674.776508" y="73.566557" style="fill: #98df8a; stroke: #ffffff; stroke-width: 0.75; stroke-linejoin: miter"/>
     <use xlink:href="#m4949b79ddf" x="680.175683" y="70.375206" style="fill: #98df8a; stroke: #ffffff; stroke-width: 0.75; stroke-linejoin: miter"/>
     <use xlink:href="#m4949b79ddf" x="685.104744" y="70.063855" style="fill: #98df8a; stroke: #ffffff; stroke-width: 0.75; stroke-linejoin: miter"/>
     <use xlink:href="#m4949b79ddf" x="689.63904" y="70.063855" style="fill: #98df8a; stroke: #ffffff; stroke-width: 0.75; stroke-linejoin: miter"/>
     <use xlink:href="#m4949b79ddf" x="693.837142" y="69.908179" style="fill: #98df8a; stroke: #ffffff; stroke-width: 0.75; stroke-linejoin: miter"/>
     <use xlink:href="#m4949b79ddf" x="697.745482" y="69.207639" style="fill: #98df8a; stroke: #ffffff; stroke-width: 0.75; stroke-linejoin: miter"/>
     <use xlink:href="#m4949b79ddf" x="701.40149" y="67.884395" style="fill: #98df8a; stroke: #ffffff; stroke-width: 0.75; stroke-linejoin: miter"/>
     <use xlink:href="#m4949b79ddf" x="704.835782" y="66.405476" style="fill: #98df8a; stroke: #ffffff; stroke-width: 0.75; stroke-linejoin: miter"/>
     <use xlink:href="#m4949b79ddf" x="708.073718" y="66.171963" style="fill: #98df8a; stroke: #ffffff; stroke-width: 0.75; stroke-linejoin: miter"/>
     <use xlink:href="#m4949b79ddf" x="711.136543" y="63.058449" style="fill: #98df8a; stroke: #ffffff; stroke-width: 0.75; stroke-linejoin: miter"/>
     <use xlink:href="#m4949b79ddf" x="714.042229" y="56.831422" style="fill: #98df8a; stroke: #ffffff; stroke-width: 0.75; stroke-linejoin: miter"/>
     <use xlink:href="#m4949b79ddf" x="716.806117" y="56.753584" style="fill: #98df8a; stroke: #ffffff; stroke-width: 0.75; stroke-linejoin: miter"/>
     <use xlink:href="#m4949b79ddf" x="719.441404" y="56.597909" style="fill: #98df8a; stroke: #ffffff; stroke-width: 0.75; stroke-linejoin: miter"/>
     <use xlink:href="#m4949b79ddf" x="721.959528" y="56.286557" style="fill: #98df8a; stroke: #ffffff; stroke-width: 0.75; stroke-linejoin: miter"/>
     <use xlink:href="#m4949b79ddf" x="724.370465" y="56.130882" style="fill: #98df8a; stroke: #ffffff; stroke-width: 0.75; stroke-linejoin: miter"/>
     <use xlink:href="#m4949b79ddf" x="726.682968" y="55.663855" style="fill: #98df8a; stroke: #ffffff; stroke-width: 0.75; stroke-linejoin: miter"/>
     <use xlink:href="#m4949b79ddf" x="728.904761" y="55.508179" style="fill: #98df8a; stroke: #ffffff; stroke-width: 0.75; stroke-linejoin: miter"/>
     <use xlink:href="#m4949b79ddf" x="731.042693" y="55.508179" style="fill: #98df8a; stroke: #ffffff; stroke-width: 0.75; stroke-linejoin: miter"/>
     <use xlink:href="#m4949b79ddf" x="733.102864" y="55.430341" style="fill: #98df8a; stroke: #ffffff; stroke-width: 0.75; stroke-linejoin: miter"/>
     <use xlink:href="#m4949b79ddf" x="735.090733" y="52.93953" style="fill: #98df8a; stroke: #ffffff; stroke-width: 0.75; stroke-linejoin: miter"/>
     <use xlink:href="#m4949b79ddf" x="737.011204" y="52.706017" style="fill: #98df8a; stroke: #ffffff; stroke-width: 0.75; stroke-linejoin: miter"/>
     <use xlink:href="#m4949b79ddf" x="738.868697" y="52.550341" style="fill: #98df8a; stroke: #ffffff; stroke-width: 0.75; stroke-linejoin: miter"/>
     <use xlink:href="#m4949b79ddf" x="740.667212" y="52.23899" style="fill: #98df8a; stroke: #ffffff; stroke-width: 0.75; stroke-linejoin: miter"/>
     <use xlink:href="#m4949b79ddf" x="742.410379" y="52.005476" style="fill: #98df8a; stroke: #ffffff; stroke-width: 0.75; stroke-linejoin: miter"/>
     <use xlink:href="#m4949b79ddf" x="744.101503" y="50.760071" style="fill: #98df8a; stroke: #ffffff; stroke-width: 0.75; stroke-linejoin: miter"/>
     <use xlink:href="#m4949b79ddf" x="745.743603" y="49.903855" style="fill: #98df8a; stroke: #ffffff; stroke-width: 0.75; stroke-linejoin: miter"/>
     <use xlink:href="#m4949b79ddf" x="747.33944" y="49.826017" style="fill: #98df8a; stroke: #ffffff; stroke-width: 0.75; stroke-linejoin: miter"/>
     <use xlink:href="#m4949b79ddf" x="748.891549" y="49.748179" style="fill: #98df8a; stroke: #ffffff; stroke-width: 0.75; stroke-linejoin: miter"/>
     <use xlink:href="#m4949b79ddf" x="750.402264" y="49.514666" style="fill: #98df8a; stroke: #ffffff; stroke-width: 0.75; stroke-linejoin: miter"/>
     <use xlink:href="#m4949b79ddf" x="751.873736" y="49.514666" style="fill: #98df8a; stroke: #ffffff; stroke-width: 0.75; stroke-linejoin: miter"/>
     <use xlink:href="#m4949b79ddf" x="753.307951" y="49.436828" style="fill: #98df8a; stroke: #ffffff; stroke-width: 0.75; stroke-linejoin: miter"/>
     <use xlink:href="#m4949b79ddf" x="754.706749" y="48.113584" style="fill: #98df8a; stroke: #ffffff; stroke-width: 0.75; stroke-linejoin: miter"/>
     <use xlink:href="#m4949b79ddf" x="756.071838" y="48.113584" style="fill: #98df8a; stroke: #ffffff; stroke-width: 0.75; stroke-linejoin: miter"/>
     <use xlink:href="#m4949b79ddf" x="757.404805" y="47.802233" style="fill: #98df8a; stroke: #ffffff; stroke-width: 0.75; stroke-linejoin: miter"/>
     <use xlink:href="#m4949b79ddf" x="758.707126" y="47.257368" style="fill: #98df8a; stroke: #ffffff; stroke-width: 0.75; stroke-linejoin: miter"/>
     <use xlink:href="#m4949b79ddf" x="759.980178" y="47.023855" style="fill: #98df8a; stroke: #ffffff; stroke-width: 0.75; stroke-linejoin: miter"/>
     <use xlink:href="#m4949b79ddf" x="761.22525" y="47.023855" style="fill: #98df8a; stroke: #ffffff; stroke-width: 0.75; stroke-linejoin: miter"/>
     <use xlink:href="#m4949b79ddf" x="762.443543" y="47.023855" style="fill: #98df8a; stroke: #ffffff; stroke-width: 0.75; stroke-linejoin: miter"/>
     <use xlink:href="#m4949b79ddf" x="763.636186" y="46.47899" style="fill: #98df8a; stroke: #ffffff; stroke-width: 0.75; stroke-linejoin: miter"/>
     <use xlink:href="#m4949b79ddf" x="764.804237" y="46.401152" style="fill: #98df8a; stroke: #ffffff; stroke-width: 0.75; stroke-linejoin: miter"/>
    </g>
   </g>
   <g id="line2d_23">
    <path d="M 53.328125 276.334125 
L 544.338605 91.080071 
L 583.604326 81.506017 
L 606.573301 80.494125 
L 622.870048 79.170882 
L 635.510787 77.147098 
L 645.839022 76.213044 
L 654.571421 75.512503 
L 662.135769 75.434666 
L 668.807997 74.111422 
L 674.776508 73.255206 
L 680.175683 73.255206 
L 685.104744 72.943855 
L 689.63904 72.866017 
L 693.837142 72.632503 
L 697.745482 72.321152 
L 701.40149 72.321152 
L 704.835782 72.165476 
L 708.073718 72.165476 
L 711.136543 71.698449 
L 714.042229 71.231422 
L 716.806117 71.231422 
L 719.441404 71.231422 
L 721.959528 66.094125 
L 724.370465 65.627098 
L 726.682968 65.393584 
L 728.904761 64.84872 
L 731.042693 64.770882 
L 733.102864 64.770882 
L 735.090733 62.046557 
L 737.011204 61.346017 
L 738.868697 61.346017 
L 740.667212 61.346017 
L 742.410379 61.346017 
L 744.101503 60.801152 
L 745.743603 60.723314 
L 747.33944 60.489801 
L 748.891549 56.364395 
L 750.402264 56.130882 
L 751.873736 52.316828 
L 753.307951 51.771963 
L 754.706749 51.14926 
L 756.071838 50.604395 
L 757.404805 49.35899 
L 758.707126 49.35899 
L 759.980178 49.35899 
L 761.22525 49.35899 
L 762.443543 49.35899 
L 763.636186 49.35899 
L 764.804237 49.35899 
" clip-path="url(#p18d2c1ea4a)" style="fill: none; stroke: #c7c7c7; stroke-width: 1.5; stroke-linecap: square"/>
    <defs>
     <path id="m93934ae516" d="M -3 -0 
L 3 3 
L 3 -3 
z
" style="stroke: #ffffff; stroke-width: 0.75; stroke-linejoin: miter"/>
    </defs>
    <g clip-path="url(#p18d2c1ea4a)">
     <use xlink:href="#m93934ae516" x="53.328125" y="276.334125" style="fill: #c7c7c7; stroke: #ffffff; stroke-width: 0.75; stroke-linejoin: miter"/>
     <use xlink:href="#m93934ae516" x="544.338605" y="91.080071" style="fill: #c7c7c7; stroke: #ffffff; stroke-width: 0.75; stroke-linejoin: miter"/>
     <use xlink:href="#m93934ae516" x="583.604326" y="81.506017" style="fill: #c7c7c7; stroke: #ffffff; stroke-width: 0.75; stroke-linejoin: miter"/>
     <use xlink:href="#m93934ae516" x="606.573301" y="80.494125" style="fill: #c7c7c7; stroke: #ffffff; stroke-width: 0.75; stroke-linejoin: miter"/>
     <use xlink:href="#m93934ae516" x="622.870048" y="79.170882" style="fill: #c7c7c7; stroke: #ffffff; stroke-width: 0.75; stroke-linejoin: miter"/>
     <use xlink:href="#m93934ae516" x="635.510787" y="77.147098" style="fill: #c7c7c7; stroke: #ffffff; stroke-width: 0.75; stroke-linejoin: miter"/>
     <use xlink:href="#m93934ae516" x="645.839022" y="76.213044" style="fill: #c7c7c7; stroke: #ffffff; stroke-width: 0.75; stroke-linejoin: miter"/>
     <use xlink:href="#m93934ae516" x="654.571421" y="75.512503" style="fill: #c7c7c7; stroke: #ffffff; stroke-width: 0.75; stroke-linejoin: miter"/>
     <use xlink:href="#m93934ae516" x="662.135769" y="75.434666" style="fill: #c7c7c7; stroke: #ffffff; stroke-width: 0.75; stroke-linejoin: miter"/>
     <use xlink:href="#m93934ae516" x="668.807997" y="74.111422" style="fill: #c7c7c7; stroke: #ffffff; stroke-width: 0.75; stroke-linejoin: miter"/>
     <use xlink:href="#m93934ae516" x="674.776508" y="73.255206" style="fill: #c7c7c7; stroke: #ffffff; stroke-width: 0.75; stroke-linejoin: miter"/>
     <use xlink:href="#m93934ae516" x="680.175683" y="73.255206" style="fill: #c7c7c7; stroke: #ffffff; stroke-width: 0.75; stroke-linejoin: miter"/>
     <use xlink:href="#m93934ae516" x="685.104744" y="72.943855" style="fill: #c7c7c7; stroke: #ffffff; stroke-width: 0.75; stroke-linejoin: miter"/>
     <use xlink:href="#m93934ae516" x="689.63904" y="72.866017" style="fill: #c7c7c7; stroke: #ffffff; stroke-width: 0.75; stroke-linejoin: miter"/>
     <use xlink:href="#m93934ae516" x="693.837142" y="72.632503" style="fill: #c7c7c7; stroke: #ffffff; stroke-width: 0.75; stroke-linejoin: miter"/>
     <use xlink:href="#m93934ae516" x="697.745482" y="72.321152" style="fill: #c7c7c7; stroke: #ffffff; stroke-width: 0.75; stroke-linejoin: miter"/>
     <use xlink:href="#m93934ae516" x="701.40149" y="72.321152" style="fill: #c7c7c7; stroke: #ffffff; stroke-width: 0.75; stroke-linejoin: miter"/>
     <use xlink:href="#m93934ae516" x="704.835782" y="72.165476" style="fill: #c7c7c7; stroke: #ffffff; stroke-width: 0.75; stroke-linejoin: miter"/>
     <use xlink:href="#m93934ae516" x="708.073718" y="72.165476" style="fill: #c7c7c7; stroke: #ffffff; stroke-width: 0.75; stroke-linejoin: miter"/>
     <use xlink:href="#m93934ae516" x="711.136543" y="71.698449" style="fill: #c7c7c7; stroke: #ffffff; stroke-width: 0.75; stroke-linejoin: miter"/>
     <use xlink:href="#m93934ae516" x="714.042229" y="71.231422" style="fill: #c7c7c7; stroke: #ffffff; stroke-width: 0.75; stroke-linejoin: miter"/>
     <use xlink:href="#m93934ae516" x="716.806117" y="71.231422" style="fill: #c7c7c7; stroke: #ffffff; stroke-width: 0.75; stroke-linejoin: miter"/>
     <use xlink:href="#m93934ae516" x="719.441404" y="71.231422" style="fill: #c7c7c7; stroke: #ffffff; stroke-width: 0.75; stroke-linejoin: miter"/>
     <use xlink:href="#m93934ae516" x="721.959528" y="66.094125" style="fill: #c7c7c7; stroke: #ffffff; stroke-width: 0.75; stroke-linejoin: miter"/>
     <use xlink:href="#m93934ae516" x="724.370465" y="65.627098" style="fill: #c7c7c7; stroke: #ffffff; stroke-width: 0.75; stroke-linejoin: miter"/>
     <use xlink:href="#m93934ae516" x="726.682968" y="65.393584" style="fill: #c7c7c7; stroke: #ffffff; stroke-width: 0.75; stroke-linejoin: miter"/>
     <use xlink:href="#m93934ae516" x="728.904761" y="64.84872" style="fill: #c7c7c7; stroke: #ffffff; stroke-width: 0.75; stroke-linejoin: miter"/>
     <use xlink:href="#m93934ae516" x="731.042693" y="64.770882" style="fill: #c7c7c7; stroke: #ffffff; stroke-width: 0.75; stroke-linejoin: miter"/>
     <use xlink:href="#m93934ae516" x="733.102864" y="64.770882" style="fill: #c7c7c7; stroke: #ffffff; stroke-width: 0.75; stroke-linejoin: miter"/>
     <use xlink:href="#m93934ae516" x="735.090733" y="62.046557" style="fill: #c7c7c7; stroke: #ffffff; stroke-width: 0.75; stroke-linejoin: miter"/>
     <use xlink:href="#m93934ae516" x="737.011204" y="61.346017" style="fill: #c7c7c7; stroke: #ffffff; stroke-width: 0.75; stroke-linejoin: miter"/>
     <use xlink:href="#m93934ae516" x="738.868697" y="61.346017" style="fill: #c7c7c7; stroke: #ffffff; stroke-width: 0.75; stroke-linejoin: miter"/>
     <use xlink:href="#m93934ae516" x="740.667212" y="61.346017" style="fill: #c7c7c7; stroke: #ffffff; stroke-width: 0.75; stroke-linejoin: miter"/>
     <use xlink:href="#m93934ae516" x="742.410379" y="61.346017" style="fill: #c7c7c7; stroke: #ffffff; stroke-width: 0.75; stroke-linejoin: miter"/>
     <use xlink:href="#m93934ae516" x="744.101503" y="60.801152" style="fill: #c7c7c7; stroke: #ffffff; stroke-width: 0.75; stroke-linejoin: miter"/>
     <use xlink:href="#m93934ae516" x="745.743603" y="60.723314" style="fill: #c7c7c7; stroke: #ffffff; stroke-width: 0.75; stroke-linejoin: miter"/>
     <use xlink:href="#m93934ae516" x="747.33944" y="60.489801" style="fill: #c7c7c7; stroke: #ffffff; stroke-width: 0.75; stroke-linejoin: miter"/>
     <use xlink:href="#m93934ae516" x="748.891549" y="56.364395" style="fill: #c7c7c7; stroke: #ffffff; stroke-width: 0.75; stroke-linejoin: miter"/>
     <use xlink:href="#m93934ae516" x="750.402264" y="56.130882" style="fill: #c7c7c7; stroke: #ffffff; stroke-width: 0.75; stroke-linejoin: miter"/>
     <use xlink:href="#m93934ae516" x="751.873736" y="52.316828" style="fill: #c7c7c7; stroke: #ffffff; stroke-width: 0.75; stroke-linejoin: miter"/>
     <use xlink:href="#m93934ae516" x="753.307951" y="51.771963" style="fill: #c7c7c7; stroke: #ffffff; stroke-width: 0.75; stroke-linejoin: miter"/>
     <use xlink:href="#m93934ae516" x="754.706749" y="51.14926" style="fill: #c7c7c7; stroke: #ffffff; stroke-width: 0.75; stroke-linejoin: miter"/>
     <use xlink:href="#m93934ae516" x="756.071838" y="50.604395" style="fill: #c7c7c7; stroke: #ffffff; stroke-width: 0.75; stroke-linejoin: miter"/>
     <use xlink:href="#m93934ae516" x="757.404805" y="49.35899" style="fill: #c7c7c7; stroke: #ffffff; stroke-width: 0.75; stroke-linejoin: miter"/>
     <use xlink:href="#m93934ae516" x="758.707126" y="49.35899" style="fill: #c7c7c7; stroke: #ffffff; stroke-width: 0.75; stroke-linejoin: miter"/>
     <use xlink:href="#m93934ae516" x="759.980178" y="49.35899" style="fill: #c7c7c7; stroke: #ffffff; stroke-width: 0.75; stroke-linejoin: miter"/>
     <use xlink:href="#m93934ae516" x="761.22525" y="49.35899" style="fill: #c7c7c7; stroke: #ffffff; stroke-width: 0.75; stroke-linejoin: miter"/>
     <use xlink:href="#m93934ae516" x="762.443543" y="49.35899" style="fill: #c7c7c7; stroke: #ffffff; stroke-width: 0.75; stroke-linejoin: miter"/>
     <use xlink:href="#m93934ae516" x="763.636186" y="49.35899" style="fill: #c7c7c7; stroke: #ffffff; stroke-width: 0.75; stroke-linejoin: miter"/>
     <use xlink:href="#m93934ae516" x="764.804237" y="49.35899" style="fill: #c7c7c7; stroke: #ffffff; stroke-width: 0.75; stroke-linejoin: miter"/>
    </g>
   </g>
   <g id="line2d_24"/>
   <g id="line2d_25"/>
   <g id="line2d_26"/>
   <g id="line2d_27"/>
   <g id="line2d_28">
    <path d="M 764.804237 288.430125 
L 764.804237 22.318125 
" clip-path="url(#p18d2c1ea4a)" style="fill: none; stroke: #ff0000; stroke-width: 1.5; stroke-linecap: square"/>
   </g>
   <g id="patch_3">
    <path d="M 53.328125 276.334125 
L 53.328125 42.820611 
" style="fill: none; stroke: #000000; stroke-width: 0.8; stroke-linejoin: miter; stroke-linecap: square"/>
   </g>
   <g id="patch_4">
    <path d="M 53.328125 288.430125 
L 764.805522 288.430125 
" style="fill: none; stroke: #000000; stroke-width: 0.8; stroke-linejoin: miter; stroke-linecap: square"/>
   </g>
   <g id="text_18">
    <!-- libpcap_fuzz_both (12h:15m, at least 5 trials/fuzzer) -->
    <g transform="translate(254.094688 16.318125) scale(0.12 -0.12)">
     <defs>
      <path id="DejaVuSans-6c" d="M 603 4863 
L 1178 4863 
L 1178 0 
L 603 0 
L 603 4863 
z
" transform="scale(0.015625)"/>
      <path id="DejaVuSans-70" d="M 1159 525 
L 1159 -1331 
L 581 -1331 
L 581 3500 
L 1159 3500 
L 1159 2969 
Q 1341 3281 1617 3432 
Q 1894 3584 2278 3584 
Q 2916 3584 3314 3078 
Q 3713 2572 3713 1747 
Q 3713 922 3314 415 
Q 2916 -91 2278 -91 
Q 1894 -91 1617 61 
Q 1341 213 1159 525 
z
M 3116 1747 
Q 3116 2381 2855 2742 
Q 2594 3103 2138 3103 
Q 1681 3103 1420 2742 
Q 1159 2381 1159 1747 
Q 1159 1113 1420 752 
Q 1681 391 2138 391 
Q 2594 391 2855 752 
Q 3116 1113 3116 1747 
z
" transform="scale(0.015625)"/>
      <path id="DejaVuSans-5f" d="M 3263 -1063 
L 3263 -1509 
L -63 -1509 
L -63 -1063 
L 3263 -1063 
z
" transform="scale(0.015625)"/>
      <path id="DejaVuSans-66" d="M 2375 4863 
L 2375 4384 
L 1825 4384 
Q 1516 4384 1395 4259 
Q 1275 4134 1275 3809 
L 1275 3500 
L 2222 3500 
L 2222 3053 
L 1275 3053 
L 1275 0 
L 697 0 
L 697 3053 
L 147 3053 
L 147 3500 
L 697 3500 
L 697 3744 
Q 697 4328 969 4595 
Q 1241 4863 1831 4863 
L 2375 4863 
z
" transform="scale(0.015625)"/>
      <path id="DejaVuSans-7a" d="M 353 3500 
L 3084 3500 
L 3084 2975 
L 922 459 
L 3084 459 
L 3084 0 
L 275 0 
L 275 525 
L 2438 3041 
L 353 3041 
L 353 3500 
z
" transform="scale(0.015625)"/>
      <path id="DejaVuSans-2c" d="M 750 794 
L 1409 794 
L 1409 256 
L 897 -744 
L 494 -744 
L 750 256 
L 750 794 
z
" transform="scale(0.015625)"/>
      <path id="DejaVuSans-73" d="M 2834 3397 
L 2834 2853 
Q 2591 2978 2328 3040 
Q 2066 3103 1784 3103 
Q 1356 3103 1142 2972 
Q 928 2841 928 2578 
Q 928 2378 1081 2264 
Q 1234 2150 1697 2047 
L 1894 2003 
Q 2506 1872 2764 1633 
Q 3022 1394 3022 966 
Q 3022 478 2636 193 
Q 2250 -91 1575 -91 
Q 1294 -91 989 -36 
Q 684 19 347 128 
L 347 722 
Q 666 556 975 473 
Q 1284 391 1588 391 
Q 1994 391 2212 530 
Q 2431 669 2431 922 
Q 2431 1156 2273 1281 
Q 2116 1406 1581 1522 
L 1381 1569 
Q 847 1681 609 1914 
Q 372 2147 372 2553 
Q 372 3047 722 3315 
Q 1072 3584 1716 3584 
Q 2034 3584 2315 3537 
Q 2597 3491 2834 3397 
z
" transform="scale(0.015625)"/>
      <path id="DejaVuSans-2f" d="M 1625 4666 
L 2156 4666 
L 531 -594 
L 0 -594 
L 1625 4666 
z
" transform="scale(0.015625)"/>
     </defs>
     <use xlink:href="#DejaVuSans-6c"/>
     <use xlink:href="#DejaVuSans-69" transform="translate(27.783203 0)"/>
     <use xlink:href="#DejaVuSans-62" transform="translate(55.566406 0)"/>
     <use xlink:href="#DejaVuSans-70" transform="translate(119.042969 0)"/>
     <use xlink:href="#DejaVuSans-63" transform="translate(182.519531 0)"/>
     <use xlink:href="#DejaVuSans-61" transform="translate(237.5 0)"/>
     <use xlink:href="#DejaVuSans-70" transform="translate(298.779297 0)"/>
     <use xlink:href="#DejaVuSans-5f" transform="translate(362.255859 0)"/>
     <use xlink:href="#DejaVuSans-66" transform="translate(412.255859 0)"/>
     <use xlink:href="#DejaVuSans-75" transform="translate(447.460938 0)"/>
     <use xlink:href="#DejaVuSans-7a" transform="translate(510.839844 0)"/>
     <use xlink:href="#DejaVuSans-7a" transform="translate(563.330078 0)"/>
     <use xlink:href="#DejaVuSans-5f" transform="translate(615.820312 0)"/>
     <use xlink:href="#DejaVuSans-62" transform="translate(665.820312 0)"/>
     <use xlink:href="#DejaVuSans-6f" transform="translate(729.296875 0)"/>
     <use xlink:href="#DejaVuSans-74" transform="translate(790.478516 0)"/>
     <use xlink:href="#DejaVuSans-68" transform="translate(829.6875 0)"/>
     <use xlink:href="#DejaVuSans-20" transform="translate(893.066406 0)"/>
     <use xlink:href="#DejaVuSans-28" transform="translate(924.853516 0)"/>
     <use xlink:href="#DejaVuSans-31" transform="translate(963.867188 0)"/>
     <use xlink:href="#DejaVuSans-32" transform="translate(1027.490234 0)"/>
     <use xlink:href="#DejaVuSans-68" transform="translate(1091.113281 0)"/>
     <use xlink:href="#DejaVuSans-3a" transform="translate(1154.492188 0)"/>
     <use xlink:href="#DejaVuSans-31" transform="translate(1188.183594 0)"/>
     <use xlink:href="#DejaVuSans-35" transform="translate(1251.806641 0)"/>
     <use xlink:href="#DejaVuSans-6d" transform="translate(1315.429688 0)"/>
     <use xlink:href="#DejaVuSans-2c" transform="translate(1412.841797 0)"/>
     <use xlink:href="#DejaVuSans-20" transform="translate(1444.628906 0)"/>
     <use xlink:href="#DejaVuSans-61" transform="translate(1476.416016 0)"/>
     <use xlink:href="#DejaVuSans-74" transform="translate(1537.695312 0)"/>
     <use xlink:href="#DejaVuSans-20" transform="translate(1576.904297 0)"/>
     <use xlink:href="#DejaVuSans-6c" transform="translate(1608.691406 0)"/>
     <use xlink:href="#DejaVuSans-65" transform="translate(1636.474609 0)"/>
     <use xlink:href="#DejaVuSans-61" transform="translate(1697.998047 0)"/>
     <use xlink:href="#DejaVuSans-73" transform="translate(1759.277344 0)"/>
     <use xlink:href="#DejaVuSans-74" transform="translate(1811.376953 0)"/>
     <use xlink:href="#DejaVuSans-20" transform="translate(1850.585938 0)"/>
     <use xlink:href="#DejaVuSans-35" transform="translate(1882.373047 0)"/>
     <use xlink:href="#DejaVuSans-20" transform="translate(1945.996094 0)"/>
     <use xlink:href="#DejaVuSans-74" transform="translate(1977.783203 0)"/>
     <use xlink:href="#DejaVuSans-72" transform="translate(2016.992188 0)"/>
     <use xlink:href="#DejaVuSans-69" transform="translate(2058.105469 0)"/>
     <use xlink:href="#DejaVuSans-61" transform="translate(2085.888672 0)"/>
     <use xlink:href="#DejaVuSans-6c" transform="translate(2147.167969 0)"/>
     <use xlink:href="#DejaVuSans-73" transform="translate(2174.951172 0)"/>
     <use xlink:href="#DejaVuSans-2f" transform="translate(2227.050781 0)"/>
     <use xlink:href="#DejaVuSans-66" transform="translate(2260.742188 0)"/>
     <use xlink:href="#DejaVuSans-75" transform="translate(2295.947266 0)"/>
     <use xlink:href="#DejaVuSans-7a" transform="translate(2359.326172 0)"/>
     <use xlink:href="#DejaVuSans-7a" transform="translate(2411.816406 0)"/>
     <use xlink:href="#DejaVuSans-65" transform="translate(2464.306641 0)"/>
     <use xlink:href="#DejaVuSans-72" transform="translate(2525.830078 0)"/>
     <use xlink:href="#DejaVuSans-29" transform="translate(2566.943359 0)"/>
    </g>
   </g>
   <g id="legend_1">
    <g id="line2d_29">
     <path d="M 771.568125 30.416562 
L 781.568125 30.416562 
L 791.568125 30.416562 
" style="fill: none; stroke: #1f77b4; stroke-width: 1.5; stroke-linecap: square"/>
     <g>
      <use xlink:href="#mee5ae52f0e" x="781.568125" y="30.416562" style="fill: #1f77b4; stroke: #ffffff; stroke-width: 0.75"/>
     </g>
    </g>
    <g id="text_19">
     <!-- aflplusplus_440c -->
     <g transform="translate(799.568125 33.916562) scale(0.1 -0.1)">
      <use xlink:href="#DejaVuSans-61"/>
      <use xlink:href="#DejaVuSans-66" transform="translate(61.279297 0)"/>
      <use xlink:href="#DejaVuSans-6c" transform="translate(96.484375 0)"/>
      <use xlink:href="#DejaVuSans-70" transform="translate(124.267578 0)"/>
      <use xlink:href="#DejaVuSans-6c" transform="translate(187.744141 0)"/>
      <use xlink:href="#DejaVuSans-75" transform="translate(215.527344 0)"/>
      <use xlink:href="#DejaVuSans-73" transform="translate(278.90625 0)"/>
      <use xlink:href="#DejaVuSans-70" transform="translate(331.005859 0)"/>
      <use xlink:href="#DejaVuSans-6c" transform="translate(394.482422 0)"/>
      <use xlink:href="#DejaVuSans-75" transform="translate(422.265625 0)"/>
      <use xlink:href="#DejaVuSans-73" transform="translate(485.644531 0)"/>
      <use xlink:href="#DejaVuSans-5f" transform="translate(537.744141 0)"/>
      <use xlink:href="#DejaVuSans-34" transform="translate(587.744141 0)"/>
      <use xlink:href="#DejaVuSans-34" transform="translate(651.367188 0)"/>
      <use xlink:href="#DejaVuSans-30" transform="translate(714.990234 0)"/>
      <use xlink:href="#DejaVuSans-63" transform="translate(778.613281 0)"/>
     </g>
    </g>
    <g id="line2d_30">
     <path d="M 771.568125 45.372813 
L 781.568125 45.372813 
L 791.568125 45.372813 
" style="fill: none; stroke: #d62728; stroke-width: 1.5; stroke-linecap: square"/>
     <g>
      <use xlink:href="#mc10ddef830" x="781.568125" y="45.372813" style="fill: #d62728; stroke: #ffffff; stroke-width: 0.75; stroke-linejoin: miter"/>
     </g>
    </g>
    <g id="text_20">
     <!-- aflplusplus_c11 -->
     <g transform="translate(799.568125 48.872813) scale(0.1 -0.1)">
      <use xlink:href="#DejaVuSans-61"/>
      <use xlink:href="#DejaVuSans-66" transform="translate(61.279297 0)"/>
      <use xlink:href="#DejaVuSans-6c" transform="translate(96.484375 0)"/>
      <use xlink:href="#DejaVuSans-70" transform="translate(124.267578 0)"/>
      <use xlink:href="#DejaVuSans-6c" transform="translate(187.744141 0)"/>
      <use xlink:href="#DejaVuSans-75" transform="translate(215.527344 0)"/>
      <use xlink:href="#DejaVuSans-73" transform="translate(278.90625 0)"/>
      <use xlink:href="#DejaVuSans-70" transform="translate(331.005859 0)"/>
      <use xlink:href="#DejaVuSans-6c" transform="translate(394.482422 0)"/>
      <use xlink:href="#DejaVuSans-75" transform="translate(422.265625 0)"/>
      <use xlink:href="#DejaVuSans-73" transform="translate(485.644531 0)"/>
      <use xlink:href="#DejaVuSans-5f" transform="translate(537.744141 0)"/>
      <use xlink:href="#DejaVuSans-63" transform="translate(587.744141 0)"/>
      <use xlink:href="#DejaVuSans-31" transform="translate(642.724609 0)"/>
      <use xlink:href="#DejaVuSans-31" transform="translate(706.347656 0)"/>
     </g>
    </g>
    <g id="line2d_31">
     <path d="M 771.568125 60.329063 
L 781.568125 60.329063 
L 791.568125 60.329063 
" style="fill: none; stroke: #98df8a; stroke-width: 1.5; stroke-linecap: square"/>
     <g>
      <use xlink:href="#m4949b79ddf" x="781.568125" y="60.329063" style="fill: #98df8a; stroke: #ffffff; stroke-width: 0.75; stroke-linejoin: miter"/>
     </g>
    </g>
    <g id="text_21">
     <!-- aflplusplus_500c -->
     <g transform="translate(799.568125 63.829063) scale(0.1 -0.1)">
      <use xlink:href="#DejaVuSans-61"/>
      <use xlink:href="#DejaVuSans-66" transform="translate(61.279297 0)"/>
      <use xlink:href="#DejaVuSans-6c" transform="translate(96.484375 0)"/>
      <use xlink:href="#DejaVuSans-70" transform="translate(124.267578 0)"/>
      <use xlink:href="#DejaVuSans-6c" transform="translate(187.744141 0)"/>
      <use xlink:href="#DejaVuSans-75" transform="translate(215.527344 0)"/>
      <use xlink:href="#DejaVuSans-73" transform="translate(278.90625 0)"/>
      <use xlink:href="#DejaVuSans-70" transform="translate(331.005859 0)"/>
      <use xlink:href="#DejaVuSans-6c" transform="translate(394.482422 0)"/>
      <use xlink:href="#DejaVuSans-75" transform="translate(422.265625 0)"/>
      <use xlink:href="#DejaVuSans-73" transform="translate(485.644531 0)"/>
      <use xlink:href="#DejaVuSans-5f" transform="translate(537.744141 0)"/>
      <use xlink:href="#DejaVuSans-35" transform="translate(587.744141 0)"/>
      <use xlink:href="#DejaVuSans-30" transform="translate(651.367188 0)"/>
      <use xlink:href="#DejaVuSans-30" transform="translate(714.990234 0)"/>
      <use xlink:href="#DejaVuSans-63" transform="translate(778.613281 0)"/>
     </g>
    </g>
    <g id="line2d_32">
     <path d="M 771.568125 75.285313 
L 781.568125 75.285313 
L 791.568125 75.285313 
" style="fill: none; stroke: #c7c7c7; stroke-width: 1.5; stroke-linecap: square"/>
     <g>
      <use xlink:href="#m93934ae516" x="781.568125" y="75.285313" style="fill: #c7c7c7; stroke: #ffffff; stroke-width: 0.75; stroke-linejoin: miter"/>
     </g>
    </g>
    <g id="text_22">
     <!-- aflplusplus_mopt -->
     <g transform="translate(799.568125 78.785313) scale(0.1 -0.1)">
      <use xlink:href="#DejaVuSans-61"/>
      <use xlink:href="#DejaVuSans-66" transform="translate(61.279297 0)"/>
      <use xlink:href="#DejaVuSans-6c" transform="translate(96.484375 0)"/>
      <use xlink:href="#DejaVuSans-70" transform="translate(124.267578 0)"/>
      <use xlink:href="#DejaVuSans-6c" transform="translate(187.744141 0)"/>
      <use xlink:href="#DejaVuSans-75" transform="translate(215.527344 0)"/>
      <use xlink:href="#DejaVuSans-73" transform="translate(278.90625 0)"/>
      <use xlink:href="#DejaVuSans-70" transform="translate(331.005859 0)"/>
      <use xlink:href="#DejaVuSans-6c" transform="translate(394.482422 0)"/>
      <use xlink:href="#DejaVuSans-75" transform="translate(422.265625 0)"/>
      <use xlink:href="#DejaVuSans-73" transform="translate(485.644531 0)"/>
      <use xlink:href="#DejaVuSans-5f" transform="translate(537.744141 0)"/>
      <use xlink:href="#DejaVuSans-6d" transform="translate(587.744141 0)"/>
      <use xlink:href="#DejaVuSans-6f" transform="translate(685.15625 0)"/>
      <use xlink:href="#DejaVuSans-70" transform="translate(746.337891 0)"/>
      <use xlink:href="#DejaVuSans-74" transform="translate(809.814453 0)"/>
     </g>
    </g>
   </g>
  </g>
 </g>
 <defs>
  <clipPath id="p18d2c1ea4a">
   <rect x="53.328125" y="22.318125" width="714.24" height="266.112"/>
  </clipPath>
 </defs>
</svg>
