<?xml version="1.0" encoding="utf-8" standalone="no"?>
<!DOCTYPE svg PUBLIC "-//W3C//DTD SVG 1.1//EN"
  "http://www.w3.org/Graphics/SVG/1.1/DTD/svg11.dtd">
<svg xmlns:xlink="http://www.w3.org/1999/xlink" width="895.669687pt" height="325.986375pt" viewBox="0 0 895.669687 325.986375" xmlns="http://www.w3.org/2000/svg" version="1.1">
 <metadata>
  <rdf:RDF xmlns:dc="http://purl.org/dc/elements/1.1/" xmlns:cc="http://creativecommons.org/ns#" xmlns:rdf="http://www.w3.org/1999/02/22-rdf-syntax-ns#">
   <cc:Work>
    <dc:type rdf:resource="http://purl.org/dc/dcmitype/StillImage"/>
    <dc:date>2026-06-09T23:22:31.669132</dc:date>
    <dc:format>image/svg+xml</dc:format>
    <dc:creator>
     <cc:Agent>
      <dc:title>Matplotlib v3.10.9, https://matplotlib.org/</dc:title>
     </cc:Agent>
    </dc:creator>
   </cc:Work>
  </rdf:RDF>
 </metadata>
 <defs>
  <style type="text/css">*{stroke-linejoin: round; stroke-linecap: butt}</style>
 </defs>
 <g id="figure_1">
  <g id="patch_1">
   <path d="M 0 325.986375 
L 895.669688 325.986375 
L 895.669688 0 
L 0 0 
z
" style="fill: #ffffff"/>
  </g>
  <g id="axes_1">
   <g id="patch_2">
    <path d="M 53.328125 288.430125 
L 767.568125 288.430125 
L 767.568125 22.318125 
L 53.328125 22.318125 
z
" style="fill: #ffffff"/>
   </g>
   <g id="FillBetweenPolyCollection_1">
    <defs>
     <path id="m8b2465d8a2" d="M 53.328125 -49.65225 
L 53.328125 -49.65225 
L 75.270982 -229.305251 
L 97.213839 -231.608494 
L 119.156696 -238.915336 
L 141.099554 -243.204134 
L 163.042411 -250.431554 
L 184.985268 -257.817818 
L 206.928125 -259.247417 
L 228.870982 -259.32684 
L 250.813839 -259.565106 
L 272.756696 -259.565106 
L 294.699554 -259.723951 
L 316.642411 -260.597595 
L 338.585268 -261.074128 
L 360.528125 -262.741994 
L 382.470982 -262.821416 
L 404.413839 -262.821416 
L 426.356696 -262.900838 
L 448.299554 -263.059683 
L 470.242411 -265.045238 
L 492.185268 -265.362926 
L 514.128125 -265.442348 
L 536.070982 -265.760037 
L 558.013839 -266.077726 
L 579.956696 -266.315993 
L 601.899554 -267.66617 
L 623.842411 -268.142703 
L 645.785268 -268.063281 
L 667.728125 -269.49288 
L 689.670982 -269.731147 
L 711.613839 -269.969413 
L 733.556696 -271.081324 
L 733.556696 -287.283452 
L 733.556696 -287.283452 
L 711.613839 -287.204029 
L 689.670982 -287.124607 
L 667.728125 -287.124607 
L 645.785268 -286.886341 
L 623.842411 -286.886341 
L 601.899554 -286.648074 
L 579.956696 -286.568652 
L 558.013839 -286.409807 
L 536.070982 -286.092119 
L 514.128125 -285.297897 
L 492.185268 -283.709453 
L 470.242411 -283.709453 
L 448.299554 -283.630031 
L 426.356696 -283.550609 
L 404.413839 -282.915231 
L 382.470982 -282.915231 
L 360.528125 -282.597542 
L 338.585268 -282.51812 
L 316.642411 -282.041587 
L 294.699554 -280.69141 
L 272.756696 -279.579499 
L 250.813839 -279.579499 
L 228.870982 -277.752788 
L 206.928125 -277.514522 
L 184.985268 -277.355677 
L 163.042411 -276.323189 
L 141.099554 -268.460392 
L 119.156696 -267.110215 
L 97.213839 -265.045238 
L 75.270982 -263.853905 
L 53.328125 -49.65225 
z
" style="stroke: #1f77b4; stroke-opacity: 0.2"/>
    </defs>
    <g clip-path="url(#pef5900fda7)">
     <use xlink:href="#m8b2465d8a2" x="0" y="325.986375" style="fill: #1f77b4; fill-opacity: 0.2; stroke: #1f77b4; stroke-opacity: 0.2"/>
    </g>
   </g>
   <g id="FillBetweenPolyCollection_2">
    <defs>
     <path id="m4be4e0c5a2" d="M 53.328125 -49.65225 
L 53.328125 -49.65225 
L 75.270982 -224.539919 
L 97.213839 -228.113918 
L 119.156696 -230.02005 
L 141.099554 -235.976715 
L 163.042411 -237.326892 
L 184.985268 -238.438803 
L 206.928125 -239.391869 
L 228.870982 -244.47489 
L 250.813839 -245.904489 
L 272.756696 -245.983911 
L 294.699554 -246.222178 
L 316.642411 -246.698711 
L 338.585268 -249.716754 
L 360.528125 -255.673419 
L 382.470982 -258.294351 
L 404.413839 -258.453196 
L 426.356696 -259.009151 
L 448.299554 -264.092171 
L 470.242411 -264.251016 
L 492.185268 -265.998304 
L 514.128125 -265.998304 
L 536.070982 -265.998304 
L 558.013839 -267.825014 
L 579.956696 -267.825014 
L 601.899554 -268.142703 
L 623.842411 -268.222125 
L 645.785268 -268.460392 
L 667.728125 -268.698658 
L 689.670982 -269.175192 
L 711.613839 -269.731147 
L 733.556696 -270.048836 
L 733.556696 -284.503675 
L 733.556696 -284.503675 
L 711.613839 -283.630031 
L 689.670982 -283.312342 
L 667.728125 -283.312342 
L 645.785268 -283.153498 
L 623.842411 -283.153498 
L 601.899554 -283.153498 
L 579.956696 -283.074075 
L 558.013839 -282.597542 
L 536.070982 -282.438698 
L 514.128125 -282.041587 
L 492.185268 -278.864699 
L 470.242411 -278.864699 
L 448.299554 -278.785277 
L 426.356696 -278.54701 
L 404.413839 -278.54701 
L 382.470982 -278.388166 
L 360.528125 -277.514522 
L 338.585268 -276.323189 
L 316.642411 -267.507326 
L 294.699554 -267.030792 
L 272.756696 -266.713104 
L 250.813839 -266.315993 
L 228.870982 -265.918882 
L 206.928125 -264.092171 
L 184.985268 -260.041639 
L 163.042411 -259.962217 
L 141.099554 -254.879197 
L 119.156696 -254.323241 
L 97.213839 -252.258264 
L 75.270982 -247.731199 
L 53.328125 -49.65225 
z
" style="stroke: #d62728; stroke-opacity: 0.2"/>
    </defs>
    <g clip-path="url(#pef5900fda7)">
     <use xlink:href="#m4be4e0c5a2" x="0" y="325.986375" style="fill: #d62728; fill-opacity: 0.2; stroke: #d62728; stroke-opacity: 0.2"/>
    </g>
   </g>
   <g id="FillBetweenPolyCollection_3">
    <defs>
     <path id="m354feac7cc" d="M 53.328125 -49.65225 
L 53.328125 -49.65225 
L 75.270982 -226.446052 
L 97.213839 -228.669873 
L 119.156696 -232.16445 
L 141.099554 -233.117516 
L 163.042411 -235.738448 
L 184.985268 -237.009203 
L 206.928125 -237.009203 
L 228.870982 -237.326892 
L 250.813839 -237.565159 
L 272.756696 -239.550714 
L 294.699554 -241.456846 
L 316.642411 -243.76009 
L 338.585268 -244.554312 
L 360.528125 -245.189689 
L 382.470982 -247.413511 
L 404.413839 -247.651777 
L 426.356696 -247.651777 
L 448.299554 -247.651777 
L 470.242411 -248.207733 
L 492.185268 -248.287155 
L 514.128125 -248.287155 
L 536.070982 -248.366577 
L 558.013839 -248.445999 
L 579.956696 -248.445999 
L 601.899554 -248.445999 
L 623.842411 -248.445999 
L 645.785268 -248.445999 
L 667.728125 -248.445999 
L 689.670982 -248.525421 
L 711.613839 -248.684266 
L 733.556696 -248.684266 
L 733.556696 -291.57225 
L 733.556696 -291.57225 
L 711.613839 -291.492828 
L 689.670982 -290.301495 
L 667.728125 -289.666117 
L 645.785268 -289.110162 
L 623.842411 -288.633629 
L 601.899554 -286.092119 
L 579.956696 -285.77443 
L 558.013839 -283.550609 
L 536.070982 -283.23292 
L 514.128125 -283.153498 
L 492.185268 -282.915231 
L 470.242411 -282.915231 
L 448.299554 -282.51812 
L 426.356696 -282.438698 
L 404.413839 -282.359276 
L 382.470982 -278.54701 
L 360.528125 -277.991055 
L 338.585268 -277.832211 
L 316.642411 -277.832211 
L 294.699554 -277.4351 
L 272.756696 -276.402611 
L 250.813839 -275.687811 
L 228.870982 -275.131856 
L 206.928125 -274.258212 
L 184.985268 -272.908035 
L 163.042411 -272.828612 
L 141.099554 -271.081324 
L 119.156696 -268.936925 
L 97.213839 -267.189637 
L 75.270982 -258.850306 
L 53.328125 -49.65225 
z
" style="stroke: #98df8a; stroke-opacity: 0.2"/>
    </defs>
    <g clip-path="url(#pef5900fda7)">
     <use xlink:href="#m354feac7cc" x="0" y="325.986375" style="fill: #98df8a; fill-opacity: 0.2; stroke: #98df8a; stroke-opacity: 0.2"/>
    </g>
   </g>
   <g id="FillBetweenPolyCollection_4">
    <defs>
     <path id="m3b0a90b5ad" d="M 53.328125 -49.65225 
L 53.328125 -49.65225 
L 75.270982 -229.146406 
L 97.213839 -232.482138 
L 119.156696 -235.579604 
L 141.099554 -236.056137 
L 163.042411 -236.770937 
L 184.985268 -236.770937 
L 206.928125 -242.251068 
L 228.870982 -244.554312 
L 250.813839 -244.951423 
L 272.756696 -244.951423 
L 294.699554 -244.951423 
L 316.642411 -244.951423 
L 338.585268 -245.030845 
L 360.528125 -245.030845 
L 382.470982 -245.030845 
L 404.413839 -245.348534 
L 426.356696 -245.348534 
L 448.299554 -245.5868 
L 470.242411 -245.5868 
L 492.185268 -245.666222 
L 514.128125 -245.983911 
L 536.070982 -250.193287 
L 558.013839 -251.305198 
L 579.956696 -251.305198 
L 601.899554 -251.464043 
L 623.842411 -251.464043 
L 645.785268 -260.756439 
L 667.728125 -260.835861 
L 689.670982 -262.027194 
L 711.613839 -262.344883 
L 733.556696 -262.424305 
L 733.556696 -275.926078 
L 733.556696 -275.926078 
L 711.613839 -275.131856 
L 689.670982 -274.575901 
L 667.728125 -273.781679 
L 645.785268 -273.622834 
L 623.842411 -273.622834 
L 601.899554 -273.225723 
L 579.956696 -273.066879 
L 558.013839 -273.066879 
L 536.070982 -273.066879 
L 514.128125 -273.066879 
L 492.185268 -272.272657 
L 470.242411 -272.272657 
L 448.299554 -272.113813 
L 426.356696 -272.113813 
L 404.413839 -272.113813 
L 382.470982 -272.034391 
L 360.528125 -271.240169 
L 338.585268 -271.081324 
L 316.642411 -271.001902 
L 294.699554 -271.001902 
L 272.756696 -270.525369 
L 250.813839 -270.445947 
L 228.870982 -269.49288 
L 206.928125 -269.175192 
L 184.985268 -268.857503 
L 163.042411 -261.947772 
L 141.099554 -260.43875 
L 119.156696 -259.485684 
L 97.213839 -250.590398 
L 75.270982 -248.048888 
L 53.328125 -49.65225 
z
" style="stroke: #c7c7c7; stroke-opacity: 0.2"/>
    </defs>
    <g clip-path="url(#pef5900fda7)">
     <use xlink:href="#m3b0a90b5ad" x="0" y="325.986375" style="fill: #c7c7c7; fill-opacity: 0.2; stroke: #c7c7c7; stroke-opacity: 0.2"/>
    </g>
   </g>
   <g id="matplotlib.axis_1">
    <g id="xtick_1">
     <g id="line2d_1">
      <defs>
       <path id="m552a2ed8cb" d="M 0 0 
L 0 3.5 
" style="stroke: #000000; stroke-width: 0.8"/>
      </defs>
      <g>
       <use xlink:href="#m552a2ed8cb" x="53.328125" y="288.430125" style="stroke: #000000; stroke-width: 0.8"/>
      </g>
     </g>
     <g id="text_1">
      <!-- 0m -->
      <g transform="translate(45.276563 303.028562) scale(0.1 -0.1)">
       <defs>
        <path id="DejaVuSans-30" d="M 2034 4250 
Q 1547 4250 1301 3770 
Q 1056 3291 1056 2328 
Q 1056 1369 1301 889 
Q 1547 409 2034 409 
Q 2525 409 2770 889 
Q 3016 1369 3016 2328 
Q 3016 3291 2770 3770 
Q 2525 4250 2034 4250 
z
M 2034 4750 
Q 2819 4750 3233 4129 
Q 3647 3509 3647 2328 
Q 3647 1150 3233 529 
Q 2819 -91 2034 -91 
Q 1250 -91 836 529 
Q 422 1150 422 2328 
Q 422 3509 836 4129 
Q 1250 4750 2034 4750 
z
" transform="scale(0.015625)"/>
        <path id="DejaVuSans-6d" d="M 3328 2828 
Q 3544 3216 3844 3400 
Q 4144 3584 4550 3584 
Q 5097 3584 5394 3201 
Q 5691 2819 5691 2113 
L 5691 0 
L 5113 0 
L 5113 2094 
Q 5113 2597 4934 2840 
Q 4756 3084 4391 3084 
Q 3944 3084 3684 2787 
Q 3425 2491 3425 1978 
L 3425 0 
L 2847 0 
L 2847 2094 
Q 2847 2600 2669 2842 
Q 2491 3084 2119 3084 
Q 1678 3084 1418 2786 
Q 1159 2488 1159 1978 
L 1159 0 
L 581 0 
L 581 3500 
L 1159 3500 
L 1159 2956 
Q 1356 3278 1631 3431 
Q 1906 3584 2284 3584 
Q 2666 3584 2933 3390 
Q 3200 3197 3328 2828 
z
" transform="scale(0.015625)"/>
       </defs>
       <use xlink:href="#DejaVuSans-30"/>
       <use xlink:href="#DejaVuSans-6d" transform="translate(63.623047 0)"/>
      </g>
     </g>
    </g>
    <g id="xtick_2">
     <g id="line2d_2">
      <g>
       <use xlink:href="#m552a2ed8cb" x="110.013839" y="288.430125" style="stroke: #000000; stroke-width: 0.8"/>
      </g>
     </g>
     <g id="text_2">
      <!-- 38m -->
      <g transform="translate(98.781027 303.028562) scale(0.1 -0.1)">
       <defs>
        <path id="DejaVuSans-33" d="M 2597 2516 
Q 3050 2419 3304 2112 
Q 3559 1806 3559 1356 
Q 3559 666 3084 287 
Q 2609 -91 1734 -91 
Q 1441 -91 1130 -33 
Q 819 25 488 141 
L 488 750 
Q 750 597 1062 519 
Q 1375 441 1716 441 
Q 2309 441 2620 675 
Q 2931 909 2931 1356 
Q 2931 1769 2642 2001 
Q 2353 2234 1838 2234 
L 1294 2234 
L 1294 2753 
L 1863 2753 
Q 2328 2753 2575 2939 
Q 2822 3125 2822 3475 
Q 2822 3834 2567 4026 
Q 2313 4219 1838 4219 
Q 1578 4219 1281 4162 
Q 984 4106 628 3988 
L 628 4550 
Q 988 4650 1302 4700 
Q 1616 4750 1894 4750 
Q 2613 4750 3031 4423 
Q 3450 4097 3450 3541 
Q 3450 3153 3228 2886 
Q 3006 2619 2597 2516 
z
" transform="scale(0.015625)"/>
        <path id="DejaVuSans-38" d="M 2034 2216 
Q 1584 2216 1326 1975 
Q 1069 1734 1069 1313 
Q 1069 891 1326 650 
Q 1584 409 2034 409 
Q 2484 409 2743 651 
Q 3003 894 3003 1313 
Q 3003 1734 2745 1975 
Q 2488 2216 2034 2216 
z
M 1403 2484 
Q 997 2584 770 2862 
Q 544 3141 544 3541 
Q 544 4100 942 4425 
Q 1341 4750 2034 4750 
Q 2731 4750 3128 4425 
Q 3525 4100 3525 3541 
Q 3525 3141 3298 2862 
Q 3072 2584 2669 2484 
Q 3125 2378 3379 2068 
Q 3634 1759 3634 1313 
Q 3634 634 3220 271 
Q 2806 -91 2034 -91 
Q 1263 -91 848 271 
Q 434 634 434 1313 
Q 434 1759 690 2068 
Q 947 2378 1403 2484 
z
M 1172 3481 
Q 1172 3119 1398 2916 
Q 1625 2713 2034 2713 
Q 2441 2713 2670 2916 
Q 2900 3119 2900 3481 
Q 2900 3844 2670 4047 
Q 2441 4250 2034 4250 
Q 1625 4250 1398 4047 
Q 1172 3844 1172 3481 
z
" transform="scale(0.015625)"/>
       </defs>
       <use xlink:href="#DejaVuSans-33"/>
       <use xlink:href="#DejaVuSans-38" transform="translate(63.623047 0)"/>
       <use xlink:href="#DejaVuSans-6d" transform="translate(127.246094 0)"/>
      </g>
     </g>
    </g>
    <g id="xtick_3">
     <g id="line2d_3">
      <g>
       <use xlink:href="#m552a2ed8cb" x="166.699554" y="288.430125" style="stroke: #000000; stroke-width: 0.8"/>
      </g>
     </g>
     <g id="text_3">
      <!-- 1h:17m -->
      <g transform="translate(147.432366 303.028562) scale(0.1 -0.1)">
       <defs>
        <path id="DejaVuSans-31" d="M 794 531 
L 1825 531 
L 1825 4091 
L 703 3866 
L 703 4441 
L 1819 4666 
L 2450 4666 
L 2450 531 
L 3481 531 
L 3481 0 
L 794 0 
L 794 531 
z
" transform="scale(0.015625)"/>
        <path id="DejaVuSans-68" d="M 3513 2113 
L 3513 0 
L 2938 0 
L 2938 2094 
Q 2938 2591 2744 2837 
Q 2550 3084 2163 3084 
Q 1697 3084 1428 2787 
Q 1159 2491 1159 1978 
L 1159 0 
L 581 0 
L 581 4863 
L 1159 4863 
L 1159 2956 
Q 1366 3272 1645 3428 
Q 1925 3584 2291 3584 
Q 2894 3584 3203 3211 
Q 3513 2838 3513 2113 
z
" transform="scale(0.015625)"/>
        <path id="DejaVuSans-3a" d="M 750 794 
L 1409 794 
L 1409 0 
L 750 0 
L 750 794 
z
M 750 3309 
L 1409 3309 
L 1409 2516 
L 750 2516 
L 750 3309 
z
" transform="scale(0.015625)"/>
        <path id="DejaVuSans-37" d="M 525 4666 
L 3525 4666 
L 3525 4397 
L 1831 0 
L 1172 0 
L 2766 4134 
L 525 4134 
L 525 4666 
z
" transform="scale(0.015625)"/>
       </defs>
       <use xlink:href="#DejaVuSans-31"/>
       <use xlink:href="#DejaVuSans-68" transform="translate(63.623047 0)"/>
       <use xlink:href="#DejaVuSans-3a" transform="translate(127.001953 0)"/>
       <use xlink:href="#DejaVuSans-31" transform="translate(160.693359 0)"/>
       <use xlink:href="#DejaVuSans-37" transform="translate(224.316406 0)"/>
       <use xlink:href="#DejaVuSans-6d" transform="translate(287.939453 0)"/>
      </g>
     </g>
    </g>
    <g id="xtick_4">
     <g id="line2d_4">
      <g>
       <use xlink:href="#m552a2ed8cb" x="223.385268" y="288.430125" style="stroke: #000000; stroke-width: 0.8"/>
      </g>
     </g>
     <g id="text_4">
      <!-- 1h:56m -->
      <g transform="translate(204.11808 303.028562) scale(0.1 -0.1)">
       <defs>
        <path id="DejaVuSans-35" d="M 691 4666 
L 3169 4666 
L 3169 4134 
L 1269 4134 
L 1269 2991 
Q 1406 3038 1543 3061 
Q 1681 3084 1819 3084 
Q 2600 3084 3056 2656 
Q 3513 2228 3513 1497 
Q 3513 744 3044 326 
Q 2575 -91 1722 -91 
Q 1428 -91 1123 -41 
Q 819 9 494 109 
L 494 744 
Q 775 591 1075 516 
Q 1375 441 1709 441 
Q 2250 441 2565 725 
Q 2881 1009 2881 1497 
Q 2881 1984 2565 2268 
Q 2250 2553 1709 2553 
Q 1456 2553 1204 2497 
Q 953 2441 691 2322 
L 691 4666 
z
" transform="scale(0.015625)"/>
        <path id="DejaVuSans-36" d="M 2113 2584 
Q 1688 2584 1439 2293 
Q 1191 2003 1191 1497 
Q 1191 994 1439 701 
Q 1688 409 2113 409 
Q 2538 409 2786 701 
Q 3034 994 3034 1497 
Q 3034 2003 2786 2293 
Q 2538 2584 2113 2584 
z
M 3366 4563 
L 3366 3988 
Q 3128 4100 2886 4159 
Q 2644 4219 2406 4219 
Q 1781 4219 1451 3797 
Q 1122 3375 1075 2522 
Q 1259 2794 1537 2939 
Q 1816 3084 2150 3084 
Q 2853 3084 3261 2657 
Q 3669 2231 3669 1497 
Q 3669 778 3244 343 
Q 2819 -91 2113 -91 
Q 1303 -91 875 529 
Q 447 1150 447 2328 
Q 447 3434 972 4092 
Q 1497 4750 2381 4750 
Q 2619 4750 2861 4703 
Q 3103 4656 3366 4563 
z
" transform="scale(0.015625)"/>
       </defs>
       <use xlink:href="#DejaVuSans-31"/>
       <use xlink:href="#DejaVuSans-68" transform="translate(63.623047 0)"/>
       <use xlink:href="#DejaVuSans-3a" transform="translate(127.001953 0)"/>
       <use xlink:href="#DejaVuSans-35" transform="translate(160.693359 0)"/>
       <use xlink:href="#DejaVuSans-36" transform="translate(224.316406 0)"/>
       <use xlink:href="#DejaVuSans-6d" transform="translate(287.939453 0)"/>
      </g>
     </g>
    </g>
    <g id="xtick_5">
     <g id="line2d_5">
      <g>
       <use xlink:href="#m552a2ed8cb" x="280.070982" y="288.430125" style="stroke: #000000; stroke-width: 0.8"/>
      </g>
     </g>
     <g id="text_5">
      <!-- 2h:35m -->
      <g transform="translate(260.803795 303.028562) scale(0.1 -0.1)">
       <defs>
        <path id="DejaVuSans-32" d="M 1228 531 
L 3431 531 
L 3431 0 
L 469 0 
L 469 531 
Q 828 903 1448 1529 
Q 2069 2156 2228 2338 
Q 2531 2678 2651 2914 
Q 2772 3150 2772 3378 
Q 2772 3750 2511 3984 
Q 2250 4219 1831 4219 
Q 1534 4219 1204 4116 
Q 875 4013 500 3803 
L 500 4441 
Q 881 4594 1212 4672 
Q 1544 4750 1819 4750 
Q 2544 4750 2975 4387 
Q 3406 4025 3406 3419 
Q 3406 3131 3298 2873 
Q 3191 2616 2906 2266 
Q 2828 2175 2409 1742 
Q 1991 1309 1228 531 
z
" transform="scale(0.015625)"/>
       </defs>
       <use xlink:href="#DejaVuSans-32"/>
       <use xlink:href="#DejaVuSans-68" transform="translate(63.623047 0)"/>
       <use xlink:href="#DejaVuSans-3a" transform="translate(127.001953 0)"/>
       <use xlink:href="#DejaVuSans-33" transform="translate(160.693359 0)"/>
       <use xlink:href="#DejaVuSans-35" transform="translate(224.316406 0)"/>
       <use xlink:href="#DejaVuSans-6d" transform="translate(287.939453 0)"/>
      </g>
     </g>
    </g>
    <g id="xtick_6">
     <g id="line2d_6">
      <g>
       <use xlink:href="#m552a2ed8cb" x="336.756696" y="288.430125" style="stroke: #000000; stroke-width: 0.8"/>
      </g>
     </g>
     <g id="text_6">
      <!-- 3h:13m -->
      <g transform="translate(317.489509 303.028562) scale(0.1 -0.1)">
       <use xlink:href="#DejaVuSans-33"/>
       <use xlink:href="#DejaVuSans-68" transform="translate(63.623047 0)"/>
       <use xlink:href="#DejaVuSans-3a" transform="translate(127.001953 0)"/>
       <use xlink:href="#DejaVuSans-31" transform="translate(160.693359 0)"/>
       <use xlink:href="#DejaVuSans-33" transform="translate(224.316406 0)"/>
       <use xlink:href="#DejaVuSans-6d" transform="translate(287.939453 0)"/>
      </g>
     </g>
    </g>
    <g id="xtick_7">
     <g id="line2d_7">
      <g>
       <use xlink:href="#m552a2ed8cb" x="393.442411" y="288.430125" style="stroke: #000000; stroke-width: 0.8"/>
      </g>
     </g>
     <g id="text_7">
      <!-- 3h:52m -->
      <g transform="translate(374.175223 303.028562) scale(0.1 -0.1)">
       <use xlink:href="#DejaVuSans-33"/>
       <use xlink:href="#DejaVuSans-68" transform="translate(63.623047 0)"/>
       <use xlink:href="#DejaVuSans-3a" transform="translate(127.001953 0)"/>
       <use xlink:href="#DejaVuSans-35" transform="translate(160.693359 0)"/>
       <use xlink:href="#DejaVuSans-32" transform="translate(224.316406 0)"/>
       <use xlink:href="#DejaVuSans-6d" transform="translate(287.939453 0)"/>
      </g>
     </g>
    </g>
    <g id="xtick_8">
     <g id="line2d_8">
      <g>
       <use xlink:href="#m552a2ed8cb" x="450.128125" y="288.430125" style="stroke: #000000; stroke-width: 0.8"/>
      </g>
     </g>
     <g id="text_8">
      <!-- 4h:31m -->
      <g transform="translate(430.860938 303.028562) scale(0.1 -0.1)">
       <defs>
        <path id="DejaVuSans-34" d="M 2419 4116 
L 825 1625 
L 2419 1625 
L 2419 4116 
z
M 2253 4666 
L 3047 4666 
L 3047 1625 
L 3713 1625 
L 3713 1100 
L 3047 1100 
L 3047 0 
L 2419 0 
L 2419 1100 
L 313 1100 
L 313 1709 
L 2253 4666 
z
" transform="scale(0.015625)"/>
       </defs>
       <use xlink:href="#DejaVuSans-34"/>
       <use xlink:href="#DejaVuSans-68" transform="translate(63.623047 0)"/>
       <use xlink:href="#DejaVuSans-3a" transform="translate(127.001953 0)"/>
       <use xlink:href="#DejaVuSans-33" transform="translate(160.693359 0)"/>
       <use xlink:href="#DejaVuSans-31" transform="translate(224.316406 0)"/>
       <use xlink:href="#DejaVuSans-6d" transform="translate(287.939453 0)"/>
      </g>
     </g>
    </g>
    <g id="xtick_9">
     <g id="line2d_9">
      <g>
       <use xlink:href="#m552a2ed8cb" x="506.813839" y="288.430125" style="stroke: #000000; stroke-width: 0.8"/>
      </g>
     </g>
     <g id="text_9">
      <!-- 5h:10m -->
      <g transform="translate(487.546652 303.028562) scale(0.1 -0.1)">
       <use xlink:href="#DejaVuSans-35"/>
       <use xlink:href="#DejaVuSans-68" transform="translate(63.623047 0)"/>
       <use xlink:href="#DejaVuSans-3a" transform="translate(127.001953 0)"/>
       <use xlink:href="#DejaVuSans-31" transform="translate(160.693359 0)"/>
       <use xlink:href="#DejaVuSans-30" transform="translate(224.316406 0)"/>
       <use xlink:href="#DejaVuSans-6d" transform="translate(287.939453 0)"/>
      </g>
     </g>
    </g>
    <g id="xtick_10">
     <g id="line2d_10">
      <g>
       <use xlink:href="#m552a2ed8cb" x="563.499554" y="288.430125" style="stroke: #000000; stroke-width: 0.8"/>
      </g>
     </g>
     <g id="text_10">
      <!-- 5h:48m -->
      <g transform="translate(544.232366 303.028562) scale(0.1 -0.1)">
       <use xlink:href="#DejaVuSans-35"/>
       <use xlink:href="#DejaVuSans-68" transform="translate(63.623047 0)"/>
       <use xlink:href="#DejaVuSans-3a" transform="translate(127.001953 0)"/>
       <use xlink:href="#DejaVuSans-34" transform="translate(160.693359 0)"/>
       <use xlink:href="#DejaVuSans-38" transform="translate(224.316406 0)"/>
       <use xlink:href="#DejaVuSans-6d" transform="translate(287.939453 0)"/>
      </g>
     </g>
    </g>
    <g id="xtick_11">
     <g id="line2d_11">
      <g>
       <use xlink:href="#m552a2ed8cb" x="620.185268" y="288.430125" style="stroke: #000000; stroke-width: 0.8"/>
      </g>
     </g>
     <g id="text_11">
      <!-- 6h:27m -->
      <g transform="translate(600.91808 303.028562) scale(0.1 -0.1)">
       <use xlink:href="#DejaVuSans-36"/>
       <use xlink:href="#DejaVuSans-68" transform="translate(63.623047 0)"/>
       <use xlink:href="#DejaVuSans-3a" transform="translate(127.001953 0)"/>
       <use xlink:href="#DejaVuSans-32" transform="translate(160.693359 0)"/>
       <use xlink:href="#DejaVuSans-37" transform="translate(224.316406 0)"/>
       <use xlink:href="#DejaVuSans-6d" transform="translate(287.939453 0)"/>
      </g>
     </g>
    </g>
    <g id="xtick_12">
     <g id="line2d_12">
      <g>
       <use xlink:href="#m552a2ed8cb" x="676.870982" y="288.430125" style="stroke: #000000; stroke-width: 0.8"/>
      </g>
     </g>
     <g id="text_12">
      <!-- 7h:6m -->
      <g transform="translate(660.785045 303.028562) scale(0.1 -0.1)">
       <use xlink:href="#DejaVuSans-37"/>
       <use xlink:href="#DejaVuSans-68" transform="translate(63.623047 0)"/>
       <use xlink:href="#DejaVuSans-3a" transform="translate(127.001953 0)"/>
       <use xlink:href="#DejaVuSans-36" transform="translate(160.693359 0)"/>
       <use xlink:href="#DejaVuSans-6d" transform="translate(224.316406 0)"/>
      </g>
     </g>
    </g>
    <g id="xtick_13">
     <g id="line2d_13">
      <g>
       <use xlink:href="#m552a2ed8cb" x="733.556696" y="288.430125" style="stroke: #000000; stroke-width: 0.8"/>
      </g>
     </g>
     <g id="text_13">
      <!-- 7h:45m -->
      <g transform="translate(714.289509 303.028562) scale(0.1 -0.1)">
       <use xlink:href="#DejaVuSans-37"/>
       <use xlink:href="#DejaVuSans-68" transform="translate(63.623047 0)"/>
       <use xlink:href="#DejaVuSans-3a" transform="translate(127.001953 0)"/>
       <use xlink:href="#DejaVuSans-34" transform="translate(160.693359 0)"/>
       <use xlink:href="#DejaVuSans-35" transform="translate(224.316406 0)"/>
       <use xlink:href="#DejaVuSans-6d" transform="translate(287.939453 0)"/>
      </g>
     </g>
    </g>
    <g id="text_14">
     <!-- Time (hour:minute) -->
     <g transform="translate(362.041094 316.706687) scale(0.1 -0.1)">
      <defs>
       <path id="DejaVuSans-54" d="M -19 4666 
L 3928 4666 
L 3928 4134 
L 2272 4134 
L 2272 0 
L 1638 0 
L 1638 4134 
L -19 4134 
L -19 4666 
z
" transform="scale(0.015625)"/>
       <path id="DejaVuSans-69" d="M 603 3500 
L 1178 3500 
L 1178 0 
L 603 0 
L 603 3500 
z
M 603 4863 
L 1178 4863 
L 1178 4134 
L 603 4134 
L 603 4863 
z
" transform="scale(0.015625)"/>
       <path id="DejaVuSans-65" d="M 3597 1894 
L 3597 1613 
L 953 1613 
Q 991 1019 1311 708 
Q 1631 397 2203 397 
Q 2534 397 2845 478 
Q 3156 559 3463 722 
L 3463 178 
Q 3153 47 2828 -22 
Q 2503 -91 2169 -91 
Q 1331 -91 842 396 
Q 353 884 353 1716 
Q 353 2575 817 3079 
Q 1281 3584 2069 3584 
Q 2775 3584 3186 3129 
Q 3597 2675 3597 1894 
z
M 3022 2063 
Q 3016 2534 2758 2815 
Q 2500 3097 2075 3097 
Q 1594 3097 1305 2825 
Q 1016 2553 972 2059 
L 3022 2063 
z
" transform="scale(0.015625)"/>
       <path id="DejaVuSans-20" transform="scale(0.015625)"/>
       <path id="DejaVuSans-28" d="M 1984 4856 
Q 1566 4138 1362 3434 
Q 1159 2731 1159 2009 
Q 1159 1288 1364 580 
Q 1569 -128 1984 -844 
L 1484 -844 
Q 1016 -109 783 600 
Q 550 1309 550 2009 
Q 550 2706 781 3412 
Q 1013 4119 1484 4856 
L 1984 4856 
z
" transform="scale(0.015625)"/>
       <path id="DejaVuSans-6f" d="M 1959 3097 
Q 1497 3097 1228 2736 
Q 959 2375 959 1747 
Q 959 1119 1226 758 
Q 1494 397 1959 397 
Q 2419 397 2687 759 
Q 2956 1122 2956 1747 
Q 2956 2369 2687 2733 
Q 2419 3097 1959 3097 
z
M 1959 3584 
Q 2709 3584 3137 3096 
Q 3566 2609 3566 1747 
Q 3566 888 3137 398 
Q 2709 -91 1959 -91 
Q 1206 -91 779 398 
Q 353 888 353 1747 
Q 353 2609 779 3096 
Q 1206 3584 1959 3584 
z
" transform="scale(0.015625)"/>
       <path id="DejaVuSans-75" d="M 544 1381 
L 544 3500 
L 1119 3500 
L 1119 1403 
Q 1119 906 1312 657 
Q 1506 409 1894 409 
Q 2359 409 2629 706 
Q 2900 1003 2900 1516 
L 2900 3500 
L 3475 3500 
L 3475 0 
L 2900 0 
L 2900 538 
Q 2691 219 2414 64 
Q 2138 -91 1772 -91 
Q 1169 -91 856 284 
Q 544 659 544 1381 
z
M 1991 3584 
L 1991 3584 
z
" transform="scale(0.015625)"/>
       <path id="DejaVuSans-72" d="M 2631 2963 
Q 2534 3019 2420 3045 
Q 2306 3072 2169 3072 
Q 1681 3072 1420 2755 
Q 1159 2438 1159 1844 
L 1159 0 
L 581 0 
L 581 3500 
L 1159 3500 
L 1159 2956 
Q 1341 3275 1631 3429 
Q 1922 3584 2338 3584 
Q 2397 3584 2469 3576 
Q 2541 3569 2628 3553 
L 2631 2963 
z
" transform="scale(0.015625)"/>
       <path id="DejaVuSans-6e" d="M 3513 2113 
L 3513 0 
L 2938 0 
L 2938 2094 
Q 2938 2591 2744 2837 
Q 2550 3084 2163 3084 
Q 1697 3084 1428 2787 
Q 1159 2491 1159 1978 
L 1159 0 
L 581 0 
L 581 3500 
L 1159 3500 
L 1159 2956 
Q 1366 3272 1645 3428 
Q 1925 3584 2291 3584 
Q 2894 3584 3203 3211 
Q 3513 2838 3513 2113 
z
" transform="scale(0.015625)"/>
       <path id="DejaVuSans-74" d="M 1172 4494 
L 1172 3500 
L 2356 3500 
L 2356 3053 
L 1172 3053 
L 1172 1153 
Q 1172 725 1289 603 
Q 1406 481 1766 481 
L 2356 481 
L 2356 0 
L 1766 0 
Q 1100 0 847 248 
Q 594 497 594 1153 
L 594 3053 
L 172 3053 
L 172 3500 
L 594 3500 
L 594 4494 
L 1172 4494 
z
" transform="scale(0.015625)"/>
       <path id="DejaVuSans-29" d="M 513 4856 
L 1013 4856 
Q 1481 4119 1714 3412 
Q 1947 2706 1947 2009 
Q 1947 1309 1714 600 
Q 1481 -109 1013 -844 
L 513 -844 
Q 928 -128 1133 580 
Q 1338 1288 1338 2009 
Q 1338 2731 1133 3434 
Q 928 4138 513 4856 
z
" transform="scale(0.015625)"/>
      </defs>
      <use xlink:href="#DejaVuSans-54"/>
      <use xlink:href="#DejaVuSans-69" transform="translate(57.958984 0)"/>
      <use xlink:href="#DejaVuSans-6d" transform="translate(85.742188 0)"/>
      <use xlink:href="#DejaVuSans-65" transform="translate(183.154297 0)"/>
      <use xlink:href="#DejaVuSans-20" transform="translate(244.677734 0)"/>
      <use xlink:href="#DejaVuSans-28" transform="translate(276.464844 0)"/>
      <use xlink:href="#DejaVuSans-68" transform="translate(315.478516 0)"/>
      <use xlink:href="#DejaVuSans-6f" transform="translate(378.857422 0)"/>
      <use xlink:href="#DejaVuSans-75" transform="translate(440.039062 0)"/>
      <use xlink:href="#DejaVuSans-72" transform="translate(503.417969 0)"/>
      <use xlink:href="#DejaVuSans-3a" transform="translate(542.78125 0)"/>
      <use xlink:href="#DejaVuSans-6d" transform="translate(576.472656 0)"/>
      <use xlink:href="#DejaVuSans-69" transform="translate(673.884766 0)"/>
      <use xlink:href="#DejaVuSans-6e" transform="translate(701.667969 0)"/>
      <use xlink:href="#DejaVuSans-75" transform="translate(765.046875 0)"/>
      <use xlink:href="#DejaVuSans-74" transform="translate(828.425781 0)"/>
      <use xlink:href="#DejaVuSans-65" transform="translate(867.634766 0)"/>
      <use xlink:href="#DejaVuSans-29" transform="translate(929.158203 0)"/>
     </g>
    </g>
   </g>
   <g id="matplotlib.axis_2">
    <g id="ytick_1">
     <g id="line2d_14">
      <defs>
       <path id="m885b1b55eb" d="M 0 0 
L -3.5 0 
" style="stroke: #000000; stroke-width: 0.8"/>
      </defs>
      <g>
       <use xlink:href="#m885b1b55eb" x="53.328125" y="276.334125" style="stroke: #000000; stroke-width: 0.8"/>
      </g>
     </g>
     <g id="text_15">
      <!-- 0 -->
      <g transform="translate(39.965625 280.133344) scale(0.1 -0.1)">
       <use xlink:href="#DejaVuSans-30"/>
      </g>
     </g>
    </g>
    <g id="ytick_2">
     <g id="line2d_15">
      <g>
       <use xlink:href="#m885b1b55eb" x="53.328125" y="236.623028" style="stroke: #000000; stroke-width: 0.8"/>
      </g>
     </g>
     <g id="text_16">
      <!-- 500 -->
      <g transform="translate(27.240625 240.422247) scale(0.1 -0.1)">
       <use xlink:href="#DejaVuSans-35"/>
       <use xlink:href="#DejaVuSans-30" transform="translate(63.623047 0)"/>
       <use xlink:href="#DejaVuSans-30" transform="translate(127.246094 0)"/>
      </g>
     </g>
    </g>
    <g id="ytick_3">
     <g id="line2d_16">
      <g>
       <use xlink:href="#m885b1b55eb" x="53.328125" y="196.911932" style="stroke: #000000; stroke-width: 0.8"/>
      </g>
     </g>
     <g id="text_17">
      <!-- 1000 -->
      <g transform="translate(20.878125 200.711151) scale(0.1 -0.1)">
       <use xlink:href="#DejaVuSans-31"/>
       <use xlink:href="#DejaVuSans-30" transform="translate(63.623047 0)"/>
       <use xlink:href="#DejaVuSans-30" transform="translate(127.246094 0)"/>
       <use xlink:href="#DejaVuSans-30" transform="translate(190.869141 0)"/>
      </g>
     </g>
    </g>
    <g id="ytick_4">
     <g id="line2d_17">
      <g>
       <use xlink:href="#m885b1b55eb" x="53.328125" y="157.200835" style="stroke: #000000; stroke-width: 0.8"/>
      </g>
     </g>
     <g id="text_18">
      <!-- 1500 -->
      <g transform="translate(20.878125 161.000054) scale(0.1 -0.1)">
       <use xlink:href="#DejaVuSans-31"/>
       <use xlink:href="#DejaVuSans-35" transform="translate(63.623047 0)"/>
       <use xlink:href="#DejaVuSans-30" transform="translate(127.246094 0)"/>
       <use xlink:href="#DejaVuSans-30" transform="translate(190.869141 0)"/>
      </g>
     </g>
    </g>
    <g id="ytick_5">
     <g id="line2d_18">
      <g>
       <use xlink:href="#m885b1b55eb" x="53.328125" y="117.489739" style="stroke: #000000; stroke-width: 0.8"/>
      </g>
     </g>
     <g id="text_19">
      <!-- 2000 -->
      <g transform="translate(20.878125 121.288958) scale(0.1 -0.1)">
       <use xlink:href="#DejaVuSans-32"/>
       <use xlink:href="#DejaVuSans-30" transform="translate(63.623047 0)"/>
       <use xlink:href="#DejaVuSans-30" transform="translate(127.246094 0)"/>
       <use xlink:href="#DejaVuSans-30" transform="translate(190.869141 0)"/>
      </g>
     </g>
    </g>
    <g id="ytick_6">
     <g id="line2d_19">
      <g>
       <use xlink:href="#m885b1b55eb" x="53.328125" y="77.778642" style="stroke: #000000; stroke-width: 0.8"/>
      </g>
     </g>
     <g id="text_20">
      <!-- 2500 -->
      <g transform="translate(20.878125 81.577861) scale(0.1 -0.1)">
       <use xlink:href="#DejaVuSans-32"/>
       <use xlink:href="#DejaVuSans-35" transform="translate(63.623047 0)"/>
       <use xlink:href="#DejaVuSans-30" transform="translate(127.246094 0)"/>
       <use xlink:href="#DejaVuSans-30" transform="translate(190.869141 0)"/>
      </g>
     </g>
    </g>
    <g id="ytick_7">
     <g id="line2d_20">
      <g>
       <use xlink:href="#m885b1b55eb" x="53.328125" y="38.067546" style="stroke: #000000; stroke-width: 0.8"/>
      </g>
     </g>
     <g id="text_21">
      <!-- 3000 -->
      <g transform="translate(20.878125 41.866765) scale(0.1 -0.1)">
       <use xlink:href="#DejaVuSans-33"/>
       <use xlink:href="#DejaVuSans-30" transform="translate(63.623047 0)"/>
       <use xlink:href="#DejaVuSans-30" transform="translate(127.246094 0)"/>
       <use xlink:href="#DejaVuSans-30" transform="translate(190.869141 0)"/>
      </g>
     </g>
    </g>
    <g id="text_22">
     <!-- Code branch coverage -->
     <g transform="translate(14.798438 211.949125) rotate(-90) scale(0.1 -0.1)">
      <defs>
       <path id="DejaVuSans-43" d="M 4122 4306 
L 4122 3641 
Q 3803 3938 3442 4084 
Q 3081 4231 2675 4231 
Q 1875 4231 1450 3742 
Q 1025 3253 1025 2328 
Q 1025 1406 1450 917 
Q 1875 428 2675 428 
Q 3081 428 3442 575 
Q 3803 722 4122 1019 
L 4122 359 
Q 3791 134 3420 21 
Q 3050 -91 2638 -91 
Q 1578 -91 968 557 
Q 359 1206 359 2328 
Q 359 3453 968 4101 
Q 1578 4750 2638 4750 
Q 3056 4750 3426 4639 
Q 3797 4528 4122 4306 
z
" transform="scale(0.015625)"/>
       <path id="DejaVuSans-64" d="M 2906 2969 
L 2906 4863 
L 3481 4863 
L 3481 0 
L 2906 0 
L 2906 525 
Q 2725 213 2448 61 
Q 2172 -91 1784 -91 
Q 1150 -91 751 415 
Q 353 922 353 1747 
Q 353 2572 751 3078 
Q 1150 3584 1784 3584 
Q 2172 3584 2448 3432 
Q 2725 3281 2906 2969 
z
M 947 1747 
Q 947 1113 1208 752 
Q 1469 391 1925 391 
Q 2381 391 2643 752 
Q 2906 1113 2906 1747 
Q 2906 2381 2643 2742 
Q 2381 3103 1925 3103 
Q 1469 3103 1208 2742 
Q 947 2381 947 1747 
z
" transform="scale(0.015625)"/>
       <path id="DejaVuSans-62" d="M 3116 1747 
Q 3116 2381 2855 2742 
Q 2594 3103 2138 3103 
Q 1681 3103 1420 2742 
Q 1159 2381 1159 1747 
Q 1159 1113 1420 752 
Q 1681 391 2138 391 
Q 2594 391 2855 752 
Q 3116 1113 3116 1747 
z
M 1159 2969 
Q 1341 3281 1617 3432 
Q 1894 3584 2278 3584 
Q 2916 3584 3314 3078 
Q 3713 2572 3713 1747 
Q 3713 922 3314 415 
Q 2916 -91 2278 -91 
Q 1894 -91 1617 61 
Q 1341 213 1159 525 
L 1159 0 
L 581 0 
L 581 4863 
L 1159 4863 
L 1159 2969 
z
" transform="scale(0.015625)"/>
       <path id="DejaVuSans-61" d="M 2194 1759 
Q 1497 1759 1228 1600 
Q 959 1441 959 1056 
Q 959 750 1161 570 
Q 1363 391 1709 391 
Q 2188 391 2477 730 
Q 2766 1069 2766 1631 
L 2766 1759 
L 2194 1759 
z
M 3341 1997 
L 3341 0 
L 2766 0 
L 2766 531 
Q 2569 213 2275 61 
Q 1981 -91 1556 -91 
Q 1019 -91 701 211 
Q 384 513 384 1019 
Q 384 1609 779 1909 
Q 1175 2209 1959 2209 
L 2766 2209 
L 2766 2266 
Q 2766 2663 2505 2880 
Q 2244 3097 1772 3097 
Q 1472 3097 1187 3025 
Q 903 2953 641 2809 
L 641 3341 
Q 956 3463 1253 3523 
Q 1550 3584 1831 3584 
Q 2591 3584 2966 3190 
Q 3341 2797 3341 1997 
z
" transform="scale(0.015625)"/>
       <path id="DejaVuSans-63" d="M 3122 3366 
L 3122 2828 
Q 2878 2963 2633 3030 
Q 2388 3097 2138 3097 
Q 1578 3097 1268 2742 
Q 959 2388 959 1747 
Q 959 1106 1268 751 
Q 1578 397 2138 397 
Q 2388 397 2633 464 
Q 2878 531 3122 666 
L 3122 134 
Q 2881 22 2623 -34 
Q 2366 -91 2075 -91 
Q 1284 -91 818 406 
Q 353 903 353 1747 
Q 353 2603 823 3093 
Q 1294 3584 2113 3584 
Q 2378 3584 2631 3529 
Q 2884 3475 3122 3366 
z
" transform="scale(0.015625)"/>
       <path id="DejaVuSans-76" d="M 191 3500 
L 800 3500 
L 1894 563 
L 2988 3500 
L 3597 3500 
L 2284 0 
L 1503 0 
L 191 3500 
z
" transform="scale(0.015625)"/>
       <path id="DejaVuSans-67" d="M 2906 1791 
Q 2906 2416 2648 2759 
Q 2391 3103 1925 3103 
Q 1463 3103 1205 2759 
Q 947 2416 947 1791 
Q 947 1169 1205 825 
Q 1463 481 1925 481 
Q 2391 481 2648 825 
Q 2906 1169 2906 1791 
z
M 3481 434 
Q 3481 -459 3084 -895 
Q 2688 -1331 1869 -1331 
Q 1566 -1331 1297 -1286 
Q 1028 -1241 775 -1147 
L 775 -588 
Q 1028 -725 1275 -790 
Q 1522 -856 1778 -856 
Q 2344 -856 2625 -561 
Q 2906 -266 2906 331 
L 2906 616 
Q 2728 306 2450 153 
Q 2172 0 1784 0 
Q 1141 0 747 490 
Q 353 981 353 1791 
Q 353 2603 747 3093 
Q 1141 3584 1784 3584 
Q 2172 3584 2450 3431 
Q 2728 3278 2906 2969 
L 2906 3500 
L 3481 3500 
L 3481 434 
z
" transform="scale(0.015625)"/>
      </defs>
      <use xlink:href="#DejaVuSans-43"/>
      <use xlink:href="#DejaVuSans-6f" transform="translate(69.824219 0)"/>
      <use xlink:href="#DejaVuSans-64" transform="translate(131.005859 0)"/>
      <use xlink:href="#DejaVuSans-65" transform="translate(194.482422 0)"/>
      <use xlink:href="#DejaVuSans-20" transform="translate(256.005859 0)"/>
      <use xlink:href="#DejaVuSans-62" transform="translate(287.792969 0)"/>
      <use xlink:href="#DejaVuSans-72" transform="translate(351.269531 0)"/>
      <use xlink:href="#DejaVuSans-61" transform="translate(392.382812 0)"/>
      <use xlink:href="#DejaVuSans-6e" transform="translate(453.662109 0)"/>
      <use xlink:href="#DejaVuSans-63" transform="translate(517.041016 0)"/>
      <use xlink:href="#DejaVuSans-68" transform="translate(572.021484 0)"/>
      <use xlink:href="#DejaVuSans-20" transform="translate(635.400391 0)"/>
      <use xlink:href="#DejaVuSans-63" transform="translate(667.1875 0)"/>
      <use xlink:href="#DejaVuSans-6f" transform="translate(722.167969 0)"/>
      <use xlink:href="#DejaVuSans-76" transform="translate(783.349609 0)"/>
      <use xlink:href="#DejaVuSans-65" transform="translate(842.529297 0)"/>
      <use xlink:href="#DejaVuSans-72" transform="translate(904.052734 0)"/>
      <use xlink:href="#DejaVuSans-61" transform="translate(945.166016 0)"/>
      <use xlink:href="#DejaVuSans-67" transform="translate(1006.445312 0)"/>
      <use xlink:href="#DejaVuSans-65" transform="translate(1069.921875 0)"/>
     </g>
    </g>
   </g>
   <g id="line2d_21">
    <path d="M 53.328125 276.334125 
L 75.270982 80.717264 
L 97.213839 70.392378 
L 119.156696 62.688426 
L 141.099554 60.941137 
L 163.042411 58.320205 
L 184.985268 57.923094 
L 206.928125 57.287717 
L 228.870982 57.208294 
L 250.813839 53.713718 
L 272.756696 53.713718 
L 294.699554 53.157763 
L 316.642411 51.96643 
L 338.585268 51.410474 
L 360.528125 50.854519 
L 382.470982 50.616252 
L 404.413839 50.457408 
L 426.356696 50.139719 
L 448.299554 50.139719 
L 470.242411 50.060297 
L 492.185268 49.980875 
L 514.128125 49.027809 
L 536.070982 48.471853 
L 558.013839 48.471853 
L 579.956696 48.392431 
L 601.899554 48.392431 
L 623.842411 47.836476 
L 645.785268 46.724565 
L 667.728125 46.724565 
L 689.670982 46.724565 
L 711.613839 46.645143 
L 733.556696 46.645143 
" clip-path="url(#pef5900fda7)" style="fill: none; stroke: #1f77b4; stroke-width: 1.5; stroke-linecap: square"/>
    <defs>
     <path id="m812094e671" d="M 0 3 
C 0.795609 3 1.55874 2.683901 2.12132 2.12132 
C 2.683901 1.55874 3 0.795609 3 0 
C 3 -0.795609 2.683901 -1.55874 2.12132 -2.12132 
C 1.55874 -2.683901 0.795609 -3 0 -3 
C -0.795609 -3 -1.55874 -2.683901 -2.12132 -2.12132 
C -2.683901 -1.55874 -3 -0.795609 -3 0 
C -3 0.795609 -2.683901 1.55874 -2.12132 2.12132 
C -1.55874 2.683901 -0.795609 3 0 3 
z
" style="stroke: #ffffff; stroke-width: 0.75"/>
    </defs>
    <g clip-path="url(#pef5900fda7)">
     <use xlink:href="#m812094e671" x="53.328125" y="276.334125" style="fill: #1f77b4; stroke: #ffffff; stroke-width: 0.75"/>
     <use xlink:href="#m812094e671" x="75.270982" y="80.717264" style="fill: #1f77b4; stroke: #ffffff; stroke-width: 0.75"/>
     <use xlink:href="#m812094e671" x="97.213839" y="70.392378" style="fill: #1f77b4; stroke: #ffffff; stroke-width: 0.75"/>
     <use xlink:href="#m812094e671" x="119.156696" y="62.688426" style="fill: #1f77b4; stroke: #ffffff; stroke-width: 0.75"/>
     <use xlink:href="#m812094e671" x="141.099554" y="60.941137" style="fill: #1f77b4; stroke: #ffffff; stroke-width: 0.75"/>
     <use xlink:href="#m812094e671" x="163.042411" y="58.320205" style="fill: #1f77b4; stroke: #ffffff; stroke-width: 0.75"/>
     <use xlink:href="#m812094e671" x="184.985268" y="57.923094" style="fill: #1f77b4; stroke: #ffffff; stroke-width: 0.75"/>
     <use xlink:href="#m812094e671" x="206.928125" y="57.287717" style="fill: #1f77b4; stroke: #ffffff; stroke-width: 0.75"/>
     <use xlink:href="#m812094e671" x="228.870982" y="57.208294" style="fill: #1f77b4; stroke: #ffffff; stroke-width: 0.75"/>
     <use xlink:href="#m812094e671" x="250.813839" y="53.713718" style="fill: #1f77b4; stroke: #ffffff; stroke-width: 0.75"/>
     <use xlink:href="#m812094e671" x="272.756696" y="53.713718" style="fill: #1f77b4; stroke: #ffffff; stroke-width: 0.75"/>
     <use xlink:href="#m812094e671" x="294.699554" y="53.157763" style="fill: #1f77b4; stroke: #ffffff; stroke-width: 0.75"/>
     <use xlink:href="#m812094e671" x="316.642411" y="51.96643" style="fill: #1f77b4; stroke: #ffffff; stroke-width: 0.75"/>
     <use xlink:href="#m812094e671" x="338.585268" y="51.410474" style="fill: #1f77b4; stroke: #ffffff; stroke-width: 0.75"/>
     <use xlink:href="#m812094e671" x="360.528125" y="50.854519" style="fill: #1f77b4; stroke: #ffffff; stroke-width: 0.75"/>
     <use xlink:href="#m812094e671" x="382.470982" y="50.616252" style="fill: #1f77b4; stroke: #ffffff; stroke-width: 0.75"/>
     <use xlink:href="#m812094e671" x="404.413839" y="50.457408" style="fill: #1f77b4; stroke: #ffffff; stroke-width: 0.75"/>
     <use xlink:href="#m812094e671" x="426.356696" y="50.139719" style="fill: #1f77b4; stroke: #ffffff; stroke-width: 0.75"/>
     <use xlink:href="#m812094e671" x="448.299554" y="50.139719" style="fill: #1f77b4; stroke: #ffffff; stroke-width: 0.75"/>
     <use xlink:href="#m812094e671" x="470.242411" y="50.060297" style="fill: #1f77b4; stroke: #ffffff; stroke-width: 0.75"/>
     <use xlink:href="#m812094e671" x="492.185268" y="49.980875" style="fill: #1f77b4; stroke: #ffffff; stroke-width: 0.75"/>
     <use xlink:href="#m812094e671" x="514.128125" y="49.027809" style="fill: #1f77b4; stroke: #ffffff; stroke-width: 0.75"/>
     <use xlink:href="#m812094e671" x="536.070982" y="48.471853" style="fill: #1f77b4; stroke: #ffffff; stroke-width: 0.75"/>
     <use xlink:href="#m812094e671" x="558.013839" y="48.471853" style="fill: #1f77b4; stroke: #ffffff; stroke-width: 0.75"/>
     <use xlink:href="#m812094e671" x="579.956696" y="48.392431" style="fill: #1f77b4; stroke: #ffffff; stroke-width: 0.75"/>
     <use xlink:href="#m812094e671" x="601.899554" y="48.392431" style="fill: #1f77b4; stroke: #ffffff; stroke-width: 0.75"/>
     <use xlink:href="#m812094e671" x="623.842411" y="47.836476" style="fill: #1f77b4; stroke: #ffffff; stroke-width: 0.75"/>
     <use xlink:href="#m812094e671" x="645.785268" y="46.724565" style="fill: #1f77b4; stroke: #ffffff; stroke-width: 0.75"/>
     <use xlink:href="#m812094e671" x="667.728125" y="46.724565" style="fill: #1f77b4; stroke: #ffffff; stroke-width: 0.75"/>
     <use xlink:href="#m812094e671" x="689.670982" y="46.724565" style="fill: #1f77b4; stroke: #ffffff; stroke-width: 0.75"/>
     <use xlink:href="#m812094e671" x="711.613839" y="46.645143" style="fill: #1f77b4; stroke: #ffffff; stroke-width: 0.75"/>
     <use xlink:href="#m812094e671" x="733.556696" y="46.645143" style="fill: #1f77b4; stroke: #ffffff; stroke-width: 0.75"/>
    </g>
   </g>
   <g id="line2d_22">
    <path d="M 53.328125 276.334125 
L 75.270982 85.164906 
L 97.213839 84.291262 
L 119.156696 80.558419 
L 141.099554 78.890553 
L 163.042411 77.937487 
L 184.985268 76.507887 
L 206.928125 74.44291 
L 228.870982 73.807533 
L 250.813839 73.648688 
L 272.756696 72.060245 
L 294.699554 64.832825 
L 316.642411 63.959181 
L 338.585268 62.84727 
L 360.528125 61.655937 
L 382.470982 61.576515 
L 404.413839 58.955583 
L 426.356696 58.955583 
L 448.299554 58.161361 
L 470.242411 51.807585 
L 492.185268 51.25163 
L 514.128125 51.172208 
L 536.070982 51.092786 
L 558.013839 51.092786 
L 579.956696 51.092786 
L 601.899554 51.092786 
L 623.842411 51.092786 
L 645.785268 50.298564 
L 667.728125 49.583764 
L 689.670982 49.266075 
L 711.613839 49.027809 
L 733.556696 48.868964 
" clip-path="url(#pef5900fda7)" style="fill: none; stroke: #d62728; stroke-width: 1.5; stroke-linecap: square"/>
    <defs>
     <path id="m0891df32e7" d="M 0 -3 
L -3 3 
L 3 3 
z
" style="stroke: #ffffff; stroke-width: 0.75; stroke-linejoin: miter"/>
    </defs>
    <g clip-path="url(#pef5900fda7)">
     <use xlink:href="#m0891df32e7" x="53.328125" y="276.334125" style="fill: #d62728; stroke: #ffffff; stroke-width: 0.75; stroke-linejoin: miter"/>
     <use xlink:href="#m0891df32e7" x="75.270982" y="85.164906" style="fill: #d62728; stroke: #ffffff; stroke-width: 0.75; stroke-linejoin: miter"/>
     <use xlink:href="#m0891df32e7" x="97.213839" y="84.291262" style="fill: #d62728; stroke: #ffffff; stroke-width: 0.75; stroke-linejoin: miter"/>
     <use xlink:href="#m0891df32e7" x="119.156696" y="80.558419" style="fill: #d62728; stroke: #ffffff; stroke-width: 0.75; stroke-linejoin: miter"/>
     <use xlink:href="#m0891df32e7" x="141.099554" y="78.890553" style="fill: #d62728; stroke: #ffffff; stroke-width: 0.75; stroke-linejoin: miter"/>
     <use xlink:href="#m0891df32e7" x="163.042411" y="77.937487" style="fill: #d62728; stroke: #ffffff; stroke-width: 0.75; stroke-linejoin: miter"/>
     <use xlink:href="#m0891df32e7" x="184.985268" y="76.507887" style="fill: #d62728; stroke: #ffffff; stroke-width: 0.75; stroke-linejoin: miter"/>
     <use xlink:href="#m0891df32e7" x="206.928125" y="74.44291" style="fill: #d62728; stroke: #ffffff; stroke-width: 0.75; stroke-linejoin: miter"/>
     <use xlink:href="#m0891df32e7" x="228.870982" y="73.807533" style="fill: #d62728; stroke: #ffffff; stroke-width: 0.75; stroke-linejoin: miter"/>
     <use xlink:href="#m0891df32e7" x="250.813839" y="73.648688" style="fill: #d62728; stroke: #ffffff; stroke-width: 0.75; stroke-linejoin: miter"/>
     <use xlink:href="#m0891df32e7" x="272.756696" y="72.060245" style="fill: #d62728; stroke: #ffffff; stroke-width: 0.75; stroke-linejoin: miter"/>
     <use xlink:href="#m0891df32e7" x="294.699554" y="64.832825" style="fill: #d62728; stroke: #ffffff; stroke-width: 0.75; stroke-linejoin: miter"/>
     <use xlink:href="#m0891df32e7" x="316.642411" y="63.959181" style="fill: #d62728; stroke: #ffffff; stroke-width: 0.75; stroke-linejoin: miter"/>
     <use xlink:href="#m0891df32e7" x="338.585268" y="62.84727" style="fill: #d62728; stroke: #ffffff; stroke-width: 0.75; stroke-linejoin: miter"/>
     <use xlink:href="#m0891df32e7" x="360.528125" y="61.655937" style="fill: #d62728; stroke: #ffffff; stroke-width: 0.75; stroke-linejoin: miter"/>
     <use xlink:href="#m0891df32e7" x="382.470982" y="61.576515" style="fill: #d62728; stroke: #ffffff; stroke-width: 0.75; stroke-linejoin: miter"/>
     <use xlink:href="#m0891df32e7" x="404.413839" y="58.955583" style="fill: #d62728; stroke: #ffffff; stroke-width: 0.75; stroke-linejoin: miter"/>
     <use xlink:href="#m0891df32e7" x="426.356696" y="58.955583" style="fill: #d62728; stroke: #ffffff; stroke-width: 0.75; stroke-linejoin: miter"/>
     <use xlink:href="#m0891df32e7" x="448.299554" y="58.161361" style="fill: #d62728; stroke: #ffffff; stroke-width: 0.75; stroke-linejoin: miter"/>
     <use xlink:href="#m0891df32e7" x="470.242411" y="51.807585" style="fill: #d62728; stroke: #ffffff; stroke-width: 0.75; stroke-linejoin: miter"/>
     <use xlink:href="#m0891df32e7" x="492.185268" y="51.25163" style="fill: #d62728; stroke: #ffffff; stroke-width: 0.75; stroke-linejoin: miter"/>
     <use xlink:href="#m0891df32e7" x="514.128125" y="51.172208" style="fill: #d62728; stroke: #ffffff; stroke-width: 0.75; stroke-linejoin: miter"/>
     <use xlink:href="#m0891df32e7" x="536.070982" y="51.092786" style="fill: #d62728; stroke: #ffffff; stroke-width: 0.75; stroke-linejoin: miter"/>
     <use xlink:href="#m0891df32e7" x="558.013839" y="51.092786" style="fill: #d62728; stroke: #ffffff; stroke-width: 0.75; stroke-linejoin: miter"/>
     <use xlink:href="#m0891df32e7" x="579.956696" y="51.092786" style="fill: #d62728; stroke: #ffffff; stroke-width: 0.75; stroke-linejoin: miter"/>
     <use xlink:href="#m0891df32e7" x="601.899554" y="51.092786" style="fill: #d62728; stroke: #ffffff; stroke-width: 0.75; stroke-linejoin: miter"/>
     <use xlink:href="#m0891df32e7" x="623.842411" y="51.092786" style="fill: #d62728; stroke: #ffffff; stroke-width: 0.75; stroke-linejoin: miter"/>
     <use xlink:href="#m0891df32e7" x="645.785268" y="50.298564" style="fill: #d62728; stroke: #ffffff; stroke-width: 0.75; stroke-linejoin: miter"/>
     <use xlink:href="#m0891df32e7" x="667.728125" y="49.583764" style="fill: #d62728; stroke: #ffffff; stroke-width: 0.75; stroke-linejoin: miter"/>
     <use xlink:href="#m0891df32e7" x="689.670982" y="49.266075" style="fill: #d62728; stroke: #ffffff; stroke-width: 0.75; stroke-linejoin: miter"/>
     <use xlink:href="#m0891df32e7" x="711.613839" y="49.027809" style="fill: #d62728; stroke: #ffffff; stroke-width: 0.75; stroke-linejoin: miter"/>
     <use xlink:href="#m0891df32e7" x="733.556696" y="48.868964" style="fill: #d62728; stroke: #ffffff; stroke-width: 0.75; stroke-linejoin: miter"/>
    </g>
   </g>
   <g id="line2d_23">
    <path d="M 53.328125 276.334125 
L 75.270982 79.12882 
L 97.213839 76.507887 
L 119.156696 75.237132 
L 141.099554 74.125222 
L 163.042411 72.060245 
L 184.985268 71.821978 
L 206.928125 71.663134 
L 228.870982 70.868912 
L 250.813839 70.630645 
L 272.756696 69.439312 
L 294.699554 66.183002 
L 316.642411 65.865313 
L 338.585268 65.865313 
L 360.528125 65.706469 
L 382.470982 64.991669 
L 404.413839 63.641492 
L 426.356696 62.13247 
L 448.299554 61.894204 
L 470.242411 58.717316 
L 492.185268 52.363541 
L 514.128125 52.284118 
L 536.070982 52.125274 
L 558.013839 51.807585 
L 579.956696 51.648741 
L 601.899554 51.172208 
L 623.842411 51.013363 
L 645.785268 51.013363 
L 667.728125 50.933941 
L 689.670982 48.392431 
L 711.613839 48.154164 
L 733.556696 47.99532 
" clip-path="url(#pef5900fda7)" style="fill: none; stroke: #98df8a; stroke-width: 1.5; stroke-linecap: square"/>
    <defs>
     <path id="m465ceed817" d="M -0 3 
L 3 -3 
L -3 -3 
z
" style="stroke: #ffffff; stroke-width: 0.75; stroke-linejoin: miter"/>
    </defs>
    <g clip-path="url(#pef5900fda7)">
     <use xlink:href="#m465ceed817" x="53.328125" y="276.334125" style="fill: #98df8a; stroke: #ffffff; stroke-width: 0.75; stroke-linejoin: miter"/>
     <use xlink:href="#m465ceed817" x="75.270982" y="79.12882" style="fill: #98df8a; stroke: #ffffff; stroke-width: 0.75; stroke-linejoin: miter"/>
     <use xlink:href="#m465ceed817" x="97.213839" y="76.507887" style="fill: #98df8a; stroke: #ffffff; stroke-width: 0.75; stroke-linejoin: miter"/>
     <use xlink:href="#m465ceed817" x="119.156696" y="75.237132" style="fill: #98df8a; stroke: #ffffff; stroke-width: 0.75; stroke-linejoin: miter"/>
     <use xlink:href="#m465ceed817" x="141.099554" y="74.125222" style="fill: #98df8a; stroke: #ffffff; stroke-width: 0.75; stroke-linejoin: miter"/>
     <use xlink:href="#m465ceed817" x="163.042411" y="72.060245" style="fill: #98df8a; stroke: #ffffff; stroke-width: 0.75; stroke-linejoin: miter"/>
     <use xlink:href="#m465ceed817" x="184.985268" y="71.821978" style="fill: #98df8a; stroke: #ffffff; stroke-width: 0.75; stroke-linejoin: miter"/>
     <use xlink:href="#m465ceed817" x="206.928125" y="71.663134" style="fill: #98df8a; stroke: #ffffff; stroke-width: 0.75; stroke-linejoin: miter"/>
     <use xlink:href="#m465ceed817" x="228.870982" y="70.868912" style="fill: #98df8a; stroke: #ffffff; stroke-width: 0.75; stroke-linejoin: miter"/>
     <use xlink:href="#m465ceed817" x="250.813839" y="70.630645" style="fill: #98df8a; stroke: #ffffff; stroke-width: 0.75; stroke-linejoin: miter"/>
     <use xlink:href="#m465ceed817" x="272.756696" y="69.439312" style="fill: #98df8a; stroke: #ffffff; stroke-width: 0.75; stroke-linejoin: miter"/>
     <use xlink:href="#m465ceed817" x="294.699554" y="66.183002" style="fill: #98df8a; stroke: #ffffff; stroke-width: 0.75; stroke-linejoin: miter"/>
     <use xlink:href="#m465ceed817" x="316.642411" y="65.865313" style="fill: #98df8a; stroke: #ffffff; stroke-width: 0.75; stroke-linejoin: miter"/>
     <use xlink:href="#m465ceed817" x="338.585268" y="65.865313" style="fill: #98df8a; stroke: #ffffff; stroke-width: 0.75; stroke-linejoin: miter"/>
     <use xlink:href="#m465ceed817" x="360.528125" y="65.706469" style="fill: #98df8a; stroke: #ffffff; stroke-width: 0.75; stroke-linejoin: miter"/>
     <use xlink:href="#m465ceed817" x="382.470982" y="64.991669" style="fill: #98df8a; stroke: #ffffff; stroke-width: 0.75; stroke-linejoin: miter"/>
     <use xlink:href="#m465ceed817" x="404.413839" y="63.641492" style="fill: #98df8a; stroke: #ffffff; stroke-width: 0.75; stroke-linejoin: miter"/>
     <use xlink:href="#m465ceed817" x="426.356696" y="62.13247" style="fill: #98df8a; stroke: #ffffff; stroke-width: 0.75; stroke-linejoin: miter"/>
     <use xlink:href="#m465ceed817" x="448.299554" y="61.894204" style="fill: #98df8a; stroke: #ffffff; stroke-width: 0.75; stroke-linejoin: miter"/>
     <use xlink:href="#m465ceed817" x="470.242411" y="58.717316" style="fill: #98df8a; stroke: #ffffff; stroke-width: 0.75; stroke-linejoin: miter"/>
     <use xlink:href="#m465ceed817" x="492.185268" y="52.363541" style="fill: #98df8a; stroke: #ffffff; stroke-width: 0.75; stroke-linejoin: miter"/>
     <use xlink:href="#m465ceed817" x="514.128125" y="52.284118" style="fill: #98df8a; stroke: #ffffff; stroke-width: 0.75; stroke-linejoin: miter"/>
     <use xlink:href="#m465ceed817" x="536.070982" y="52.125274" style="fill: #98df8a; stroke: #ffffff; stroke-width: 0.75; stroke-linejoin: miter"/>
     <use xlink:href="#m465ceed817" x="558.013839" y="51.807585" style="fill: #98df8a; stroke: #ffffff; stroke-width: 0.75; stroke-linejoin: miter"/>
     <use xlink:href="#m465ceed817" x="579.956696" y="51.648741" style="fill: #98df8a; stroke: #ffffff; stroke-width: 0.75; stroke-linejoin: miter"/>
     <use xlink:href="#m465ceed817" x="601.899554" y="51.172208" style="fill: #98df8a; stroke: #ffffff; stroke-width: 0.75; stroke-linejoin: miter"/>
     <use xlink:href="#m465ceed817" x="623.842411" y="51.013363" style="fill: #98df8a; stroke: #ffffff; stroke-width: 0.75; stroke-linejoin: miter"/>
     <use xlink:href="#m465ceed817" x="645.785268" y="51.013363" style="fill: #98df8a; stroke: #ffffff; stroke-width: 0.75; stroke-linejoin: miter"/>
     <use xlink:href="#m465ceed817" x="667.728125" y="50.933941" style="fill: #98df8a; stroke: #ffffff; stroke-width: 0.75; stroke-linejoin: miter"/>
     <use xlink:href="#m465ceed817" x="689.670982" y="48.392431" style="fill: #98df8a; stroke: #ffffff; stroke-width: 0.75; stroke-linejoin: miter"/>
     <use xlink:href="#m465ceed817" x="711.613839" y="48.154164" style="fill: #98df8a; stroke: #ffffff; stroke-width: 0.75; stroke-linejoin: miter"/>
     <use xlink:href="#m465ceed817" x="733.556696" y="47.99532" style="fill: #98df8a; stroke: #ffffff; stroke-width: 0.75; stroke-linejoin: miter"/>
    </g>
   </g>
   <g id="line2d_24">
    <path d="M 53.328125 276.334125 
L 75.270982 87.309306 
L 97.213839 77.540376 
L 119.156696 76.507887 
L 141.099554 75.15771 
L 163.042411 73.092733 
L 184.985268 72.139667 
L 206.928125 71.424867 
L 228.870982 71.345445 
L 250.813839 69.995267 
L 272.756696 69.121623 
L 294.699554 69.121623 
L 316.642411 68.803935 
L 338.585268 68.724512 
L 360.528125 68.486246 
L 382.470982 68.168557 
L 404.413839 68.168557 
L 426.356696 68.009713 
L 448.299554 68.009713 
L 470.242411 67.533179 
L 492.185268 67.056646 
L 514.128125 67.056646 
L 536.070982 67.056646 
L 558.013839 61.814782 
L 579.956696 61.338248 
L 601.899554 61.099982 
L 623.842411 60.544027 
L 645.785268 60.464604 
L 667.728125 60.464604 
L 689.670982 57.684828 
L 711.613839 56.970028 
L 733.556696 56.970028 
" clip-path="url(#pef5900fda7)" style="fill: none; stroke: #c7c7c7; stroke-width: 1.5; stroke-linecap: square"/>
    <defs>
     <path id="m5b677146a3" d="M -3 -0 
L 3 3 
L 3 -3 
z
" style="stroke: #ffffff; stroke-width: 0.75; stroke-linejoin: miter"/>
    </defs>
    <g clip-path="url(#pef5900fda7)">
     <use xlink:href="#m5b677146a3" x="53.328125" y="276.334125" style="fill: #c7c7c7; stroke: #ffffff; stroke-width: 0.75; stroke-linejoin: miter"/>
     <use xlink:href="#m5b677146a3" x="75.270982" y="87.309306" style="fill: #c7c7c7; stroke: #ffffff; stroke-width: 0.75; stroke-linejoin: miter"/>
     <use xlink:href="#m5b677146a3" x="97.213839" y="77.540376" style="fill: #c7c7c7; stroke: #ffffff; stroke-width: 0.75; stroke-linejoin: miter"/>
     <use xlink:href="#m5b677146a3" x="119.156696" y="76.507887" style="fill: #c7c7c7; stroke: #ffffff; stroke-width: 0.75; stroke-linejoin: miter"/>
     <use xlink:href="#m5b677146a3" x="141.099554" y="75.15771" style="fill: #c7c7c7; stroke: #ffffff; stroke-width: 0.75; stroke-linejoin: miter"/>
     <use xlink:href="#m5b677146a3" x="163.042411" y="73.092733" style="fill: #c7c7c7; stroke: #ffffff; stroke-width: 0.75; stroke-linejoin: miter"/>
     <use xlink:href="#m5b677146a3" x="184.985268" y="72.139667" style="fill: #c7c7c7; stroke: #ffffff; stroke-width: 0.75; stroke-linejoin: miter"/>
     <use xlink:href="#m5b677146a3" x="206.928125" y="71.424867" style="fill: #c7c7c7; stroke: #ffffff; stroke-width: 0.75; stroke-linejoin: miter"/>
     <use xlink:href="#m5b677146a3" x="228.870982" y="71.345445" style="fill: #c7c7c7; stroke: #ffffff; stroke-width: 0.75; stroke-linejoin: miter"/>
     <use xlink:href="#m5b677146a3" x="250.813839" y="69.995267" style="fill: #c7c7c7; stroke: #ffffff; stroke-width: 0.75; stroke-linejoin: miter"/>
     <use xlink:href="#m5b677146a3" x="272.756696" y="69.121623" style="fill: #c7c7c7; stroke: #ffffff; stroke-width: 0.75; stroke-linejoin: miter"/>
     <use xlink:href="#m5b677146a3" x="294.699554" y="69.121623" style="fill: #c7c7c7; stroke: #ffffff; stroke-width: 0.75; stroke-linejoin: miter"/>
     <use xlink:href="#m5b677146a3" x="316.642411" y="68.803935" style="fill: #c7c7c7; stroke: #ffffff; stroke-width: 0.75; stroke-linejoin: miter"/>
     <use xlink:href="#m5b677146a3" x="338.585268" y="68.724512" style="fill: #c7c7c7; stroke: #ffffff; stroke-width: 0.75; stroke-linejoin: miter"/>
     <use xlink:href="#m5b677146a3" x="360.528125" y="68.486246" style="fill: #c7c7c7; stroke: #ffffff; stroke-width: 0.75; stroke-linejoin: miter"/>
     <use xlink:href="#m5b677146a3" x="382.470982" y="68.168557" style="fill: #c7c7c7; stroke: #ffffff; stroke-width: 0.75; stroke-linejoin: miter"/>
     <use xlink:href="#m5b677146a3" x="404.413839" y="68.168557" style="fill: #c7c7c7; stroke: #ffffff; stroke-width: 0.75; stroke-linejoin: miter"/>
     <use xlink:href="#m5b677146a3" x="426.356696" y="68.009713" style="fill: #c7c7c7; stroke: #ffffff; stroke-width: 0.75; stroke-linejoin: miter"/>
     <use xlink:href="#m5b677146a3" x="448.299554" y="68.009713" style="fill: #c7c7c7; stroke: #ffffff; stroke-width: 0.75; stroke-linejoin: miter"/>
     <use xlink:href="#m5b677146a3" x="470.242411" y="67.533179" style="fill: #c7c7c7; stroke: #ffffff; stroke-width: 0.75; stroke-linejoin: miter"/>
     <use xlink:href="#m5b677146a3" x="492.185268" y="67.056646" style="fill: #c7c7c7; stroke: #ffffff; stroke-width: 0.75; stroke-linejoin: miter"/>
     <use xlink:href="#m5b677146a3" x="514.128125" y="67.056646" style="fill: #c7c7c7; stroke: #ffffff; stroke-width: 0.75; stroke-linejoin: miter"/>
     <use xlink:href="#m5b677146a3" x="536.070982" y="67.056646" style="fill: #c7c7c7; stroke: #ffffff; stroke-width: 0.75; stroke-linejoin: miter"/>
     <use xlink:href="#m5b677146a3" x="558.013839" y="61.814782" style="fill: #c7c7c7; stroke: #ffffff; stroke-width: 0.75; stroke-linejoin: miter"/>
     <use xlink:href="#m5b677146a3" x="579.956696" y="61.338248" style="fill: #c7c7c7; stroke: #ffffff; stroke-width: 0.75; stroke-linejoin: miter"/>
     <use xlink:href="#m5b677146a3" x="601.899554" y="61.099982" style="fill: #c7c7c7; stroke: #ffffff; stroke-width: 0.75; stroke-linejoin: miter"/>
     <use xlink:href="#m5b677146a3" x="623.842411" y="60.544027" style="fill: #c7c7c7; stroke: #ffffff; stroke-width: 0.75; stroke-linejoin: miter"/>
     <use xlink:href="#m5b677146a3" x="645.785268" y="60.464604" style="fill: #c7c7c7; stroke: #ffffff; stroke-width: 0.75; stroke-linejoin: miter"/>
     <use xlink:href="#m5b677146a3" x="667.728125" y="60.464604" style="fill: #c7c7c7; stroke: #ffffff; stroke-width: 0.75; stroke-linejoin: miter"/>
     <use xlink:href="#m5b677146a3" x="689.670982" y="57.684828" style="fill: #c7c7c7; stroke: #ffffff; stroke-width: 0.75; stroke-linejoin: miter"/>
     <use xlink:href="#m5b677146a3" x="711.613839" y="56.970028" style="fill: #c7c7c7; stroke: #ffffff; stroke-width: 0.75; stroke-linejoin: miter"/>
     <use xlink:href="#m5b677146a3" x="733.556696" y="56.970028" style="fill: #c7c7c7; stroke: #ffffff; stroke-width: 0.75; stroke-linejoin: miter"/>
    </g>
   </g>
   <g id="line2d_25"/>
   <g id="line2d_26"/>
   <g id="line2d_27"/>
   <g id="line2d_28"/>
   <g id="line2d_29">
    <path d="M 733.556696 288.430125 
L 733.556696 22.318125 
" clip-path="url(#pef5900fda7)" style="fill: none; stroke: #ff0000; stroke-width: 1.5; stroke-linecap: square"/>
   </g>
   <g id="patch_3">
    <path d="M 53.328125 276.334125 
L 53.328125 38.067546 
" style="fill: none; stroke: #000000; stroke-width: 0.8; stroke-linejoin: miter; stroke-linecap: square"/>
   </g>
   <g id="patch_4">
    <path d="M 53.328125 288.430125 
L 733.556696 288.430125 
" style="fill: none; stroke: #000000; stroke-width: 0.8; stroke-linejoin: miter; stroke-linecap: square"/>
   </g>
   <g id="text_23">
    <!-- libpcap_fuzz_both (7h:45m, at least 5 trials/fuzzer) -->
    <g transform="translate(257.912188 16.318125) scale(0.12 -0.12)">
     <defs>
      <path id="DejaVuSans-6c" d="M 603 4863 
L 1178 4863 
L 1178 0 
L 603 0 
L 603 4863 
z
" transform="scale(0.015625)"/>
      <path id="DejaVuSans-70" d="M 1159 525 
L 1159 -1331 
L 581 -1331 
L 581 3500 
L 1159 3500 
L 1159 2969 
Q 1341 3281 1617 3432 
Q 1894 3584 2278 3584 
Q 2916 3584 3314 3078 
Q 3713 2572 3713 1747 
Q 3713 922 3314 415 
Q 2916 -91 2278 -91 
Q 1894 -91 1617 61 
Q 1341 213 1159 525 
z
M 3116 1747 
Q 3116 2381 2855 2742 
Q 2594 3103 2138 3103 
Q 1681 3103 1420 2742 
Q 1159 2381 1159 1747 
Q 1159 1113 1420 752 
Q 1681 391 2138 391 
Q 2594 391 2855 752 
Q 3116 1113 3116 1747 
z
" transform="scale(0.015625)"/>
      <path id="DejaVuSans-5f" d="M 3263 -1063 
L 3263 -1509 
L -63 -1509 
L -63 -1063 
L 3263 -1063 
z
" transform="scale(0.015625)"/>
      <path id="DejaVuSans-66" d="M 2375 4863 
L 2375 4384 
L 1825 4384 
Q 1516 4384 1395 4259 
Q 1275 4134 1275 3809 
L 1275 3500 
L 2222 3500 
L 2222 3053 
L 1275 3053 
L 1275 0 
L 697 0 
L 697 3053 
L 147 3053 
L 147 3500 
L 697 3500 
L 697 3744 
Q 697 4328 969 4595 
Q 1241 4863 1831 4863 
L 2375 4863 
z
" transform="scale(0.015625)"/>
      <path id="DejaVuSans-7a" d="M 353 3500 
L 3084 3500 
L 3084 2975 
L 922 459 
L 3084 459 
L 3084 0 
L 275 0 
L 275 525 
L 2438 3041 
L 353 3041 
L 353 3500 
z
" transform="scale(0.015625)"/>
      <path id="DejaVuSans-2c" d="M 750 794 
L 1409 794 
L 1409 256 
L 897 -744 
L 494 -744 
L 750 256 
L 750 794 
z
" transform="scale(0.015625)"/>
      <path id="DejaVuSans-73" d="M 2834 3397 
L 2834 2853 
Q 2591 2978 2328 3040 
Q 2066 3103 1784 3103 
Q 1356 3103 1142 2972 
Q 928 2841 928 2578 
Q 928 2378 1081 2264 
Q 1234 2150 1697 2047 
L 1894 2003 
Q 2506 1872 2764 1633 
Q 3022 1394 3022 966 
Q 3022 478 2636 193 
Q 2250 -91 1575 -91 
Q 1294 -91 989 -36 
Q 684 19 347 128 
L 347 722 
Q 666 556 975 473 
Q 1284 391 1588 391 
Q 1994 391 2212 530 
Q 2431 669 2431 922 
Q 2431 1156 2273 1281 
Q 2116 1406 1581 1522 
L 1381 1569 
Q 847 1681 609 1914 
Q 372 2147 372 2553 
Q 372 3047 722 3315 
Q 1072 3584 1716 3584 
Q 2034 3584 2315 3537 
Q 2597 3491 2834 3397 
z
" transform="scale(0.015625)"/>
      <path id="DejaVuSans-2f" d="M 1625 4666 
L 2156 4666 
L 531 -594 
L 0 -594 
L 1625 4666 
z
" transform="scale(0.015625)"/>
     </defs>
     <use xlink:href="#DejaVuSans-6c"/>
     <use xlink:href="#DejaVuSans-69" transform="translate(27.783203 0)"/>
     <use xlink:href="#DejaVuSans-62" transform="translate(55.566406 0)"/>
     <use xlink:href="#DejaVuSans-70" transform="translate(119.042969 0)"/>
     <use xlink:href="#DejaVuSans-63" transform="translate(182.519531 0)"/>
     <use xlink:href="#DejaVuSans-61" transform="translate(237.5 0)"/>
     <use xlink:href="#DejaVuSans-70" transform="translate(298.779297 0)"/>
     <use xlink:href="#DejaVuSans-5f" transform="translate(362.255859 0)"/>
     <use xlink:href="#DejaVuSans-66" transform="translate(412.255859 0)"/>
     <use xlink:href="#DejaVuSans-75" transform="translate(447.460938 0)"/>
     <use xlink:href="#DejaVuSans-7a" transform="translate(510.839844 0)"/>
     <use xlink:href="#DejaVuSans-7a" transform="translate(563.330078 0)"/>
     <use xlink:href="#DejaVuSans-5f" transform="translate(615.820312 0)"/>
     <use xlink:href="#DejaVuSans-62" transform="translate(665.820312 0)"/>
     <use xlink:href="#DejaVuSans-6f" transform="translate(729.296875 0)"/>
     <use xlink:href="#DejaVuSans-74" transform="translate(790.478516 0)"/>
     <use xlink:href="#DejaVuSans-68" transform="translate(829.6875 0)"/>
     <use xlink:href="#DejaVuSans-20" transform="translate(893.066406 0)"/>
     <use xlink:href="#DejaVuSans-28" transform="translate(924.853516 0)"/>
     <use xlink:href="#DejaVuSans-37" transform="translate(963.867188 0)"/>
     <use xlink:href="#DejaVuSans-68" transform="translate(1027.490234 0)"/>
     <use xlink:href="#DejaVuSans-3a" transform="translate(1090.869141 0)"/>
     <use xlink:href="#DejaVuSans-34" transform="translate(1124.560547 0)"/>
     <use xlink:href="#DejaVuSans-35" transform="translate(1188.183594 0)"/>
     <use xlink:href="#DejaVuSans-6d" transform="translate(1251.806641 0)"/>
     <use xlink:href="#DejaVuSans-2c" transform="translate(1349.21875 0)"/>
     <use xlink:href="#DejaVuSans-20" transform="translate(1381.005859 0)"/>
     <use xlink:href="#DejaVuSans-61" transform="translate(1412.792969 0)"/>
     <use xlink:href="#DejaVuSans-74" transform="translate(1474.072266 0)"/>
     <use xlink:href="#DejaVuSans-20" transform="translate(1513.28125 0)"/>
     <use xlink:href="#DejaVuSans-6c" transform="translate(1545.068359 0)"/>
     <use xlink:href="#DejaVuSans-65" transform="translate(1572.851562 0)"/>
     <use xlink:href="#DejaVuSans-61" transform="translate(1634.375 0)"/>
     <use xlink:href="#DejaVuSans-73" transform="translate(1695.654297 0)"/>
     <use xlink:href="#DejaVuSans-74" transform="translate(1747.753906 0)"/>
     <use xlink:href="#DejaVuSans-20" transform="translate(1786.962891 0)"/>
     <use xlink:href="#DejaVuSans-35" transform="translate(1818.75 0)"/>
     <use xlink:href="#DejaVuSans-20" transform="translate(1882.373047 0)"/>
     <use xlink:href="#DejaVuSans-74" transform="translate(1914.160156 0)"/>
     <use xlink:href="#DejaVuSans-72" transform="translate(1953.369141 0)"/>
     <use xlink:href="#DejaVuSans-69" transform="translate(1994.482422 0)"/>
     <use xlink:href="#DejaVuSans-61" transform="translate(2022.265625 0)"/>
     <use xlink:href="#DejaVuSans-6c" transform="translate(2083.544922 0)"/>
     <use xlink:href="#DejaVuSans-73" transform="translate(2111.328125 0)"/>
     <use xlink:href="#DejaVuSans-2f" transform="translate(2163.427734 0)"/>
     <use xlink:href="#DejaVuSans-66" transform="translate(2197.119141 0)"/>
     <use xlink:href="#DejaVuSans-75" transform="translate(2232.324219 0)"/>
     <use xlink:href="#DejaVuSans-7a" transform="translate(2295.703125 0)"/>
     <use xlink:href="#DejaVuSans-7a" transform="translate(2348.193359 0)"/>
     <use xlink:href="#DejaVuSans-65" transform="translate(2400.683594 0)"/>
     <use xlink:href="#DejaVuSans-72" transform="translate(2462.207031 0)"/>
     <use xlink:href="#DejaVuSans-29" transform="translate(2503.320312 0)"/>
    </g>
   </g>
   <g id="legend_1">
    <g id="line2d_30">
     <path d="M 771.568125 30.416562 
L 781.568125 30.416562 
L 791.568125 30.416562 
" style="fill: none; stroke: #1f77b4; stroke-width: 1.5; stroke-linecap: square"/>
     <g>
      <use xlink:href="#m812094e671" x="781.568125" y="30.416562" style="fill: #1f77b4; stroke: #ffffff; stroke-width: 0.75"/>
     </g>
    </g>
    <g id="text_24">
     <!-- aflplusplus_440c -->
     <g transform="translate(799.568125 33.916562) scale(0.1 -0.1)">
      <use xlink:href="#DejaVuSans-61"/>
      <use xlink:href="#DejaVuSans-66" transform="translate(61.279297 0)"/>
      <use xlink:href="#DejaVuSans-6c" transform="translate(96.484375 0)"/>
      <use xlink:href="#DejaVuSans-70" transform="translate(124.267578 0)"/>
      <use xlink:href="#DejaVuSans-6c" transform="translate(187.744141 0)"/>
      <use xlink:href="#DejaVuSans-75" transform="translate(215.527344 0)"/>
      <use xlink:href="#DejaVuSans-73" transform="translate(278.90625 0)"/>
      <use xlink:href="#DejaVuSans-70" transform="translate(331.005859 0)"/>
      <use xlink:href="#DejaVuSans-6c" transform="translate(394.482422 0)"/>
      <use xlink:href="#DejaVuSans-75" transform="translate(422.265625 0)"/>
      <use xlink:href="#DejaVuSans-73" transform="translate(485.644531 0)"/>
      <use xlink:href="#DejaVuSans-5f" transform="translate(537.744141 0)"/>
      <use xlink:href="#DejaVuSans-34" transform="translate(587.744141 0)"/>
      <use xlink:href="#DejaVuSans-34" transform="translate(651.367188 0)"/>
      <use xlink:href="#DejaVuSans-30" transform="translate(714.990234 0)"/>
      <use xlink:href="#DejaVuSans-63" transform="translate(778.613281 0)"/>
     </g>
    </g>
    <g id="line2d_31">
     <path d="M 771.568125 45.372813 
L 781.568125 45.372813 
L 791.568125 45.372813 
" style="fill: none; stroke: #d62728; stroke-width: 1.5; stroke-linecap: square"/>
     <g>
      <use xlink:href="#m0891df32e7" x="781.568125" y="45.372813" style="fill: #d62728; stroke: #ffffff; stroke-width: 0.75; stroke-linejoin: miter"/>
     </g>
    </g>
    <g id="text_25">
     <!-- aflplusplus_c11 -->
     <g transform="translate(799.568125 48.872813) scale(0.1 -0.1)">
      <use xlink:href="#DejaVuSans-61"/>
      <use xlink:href="#DejaVuSans-66" transform="translate(61.279297 0)"/>
      <use xlink:href="#DejaVuSans-6c" transform="translate(96.484375 0)"/>
      <use xlink:href="#DejaVuSans-70" transform="translate(124.267578 0)"/>
      <use xlink:href="#DejaVuSans-6c" transform="translate(187.744141 0)"/>
      <use xlink:href="#DejaVuSans-75" transform="translate(215.527344 0)"/>
      <use xlink:href="#DejaVuSans-73" transform="translate(278.90625 0)"/>
      <use xlink:href="#DejaVuSans-70" transform="translate(331.005859 0)"/>
      <use xlink:href="#DejaVuSans-6c" transform="translate(394.482422 0)"/>
      <use xlink:href="#DejaVuSans-75" transform="translate(422.265625 0)"/>
      <use xlink:href="#DejaVuSans-73" transform="translate(485.644531 0)"/>
      <use xlink:href="#DejaVuSans-5f" transform="translate(537.744141 0)"/>
      <use xlink:href="#DejaVuSans-63" transform="translate(587.744141 0)"/>
      <use xlink:href="#DejaVuSans-31" transform="translate(642.724609 0)"/>
      <use xlink:href="#DejaVuSans-31" transform="translate(706.347656 0)"/>
     </g>
    </g>
    <g id="line2d_32">
     <path d="M 771.568125 60.329063 
L 781.568125 60.329063 
L 791.568125 60.329063 
" style="fill: none; stroke: #98df8a; stroke-width: 1.5; stroke-linecap: square"/>
     <g>
      <use xlink:href="#m465ceed817" x="781.568125" y="60.329063" style="fill: #98df8a; stroke: #ffffff; stroke-width: 0.75; stroke-linejoin: miter"/>
     </g>
    </g>
    <g id="text_26">
     <!-- aflplusplus_500c -->
     <g transform="translate(799.568125 63.829063) scale(0.1 -0.1)">
      <use xlink:href="#DejaVuSans-61"/>
      <use xlink:href="#DejaVuSans-66" transform="translate(61.279297 0)"/>
      <use xlink:href="#DejaVuSans-6c" transform="translate(96.484375 0)"/>
      <use xlink:href="#DejaVuSans-70" transform="translate(124.267578 0)"/>
      <use xlink:href="#DejaVuSans-6c" transform="translate(187.744141 0)"/>
      <use xlink:href="#DejaVuSans-75" transform="translate(215.527344 0)"/>
      <use xlink:href="#DejaVuSans-73" transform="translate(278.90625 0)"/>
      <use xlink:href="#DejaVuSans-70" transform="translate(331.005859 0)"/>
      <use xlink:href="#DejaVuSans-6c" transform="translate(394.482422 0)"/>
      <use xlink:href="#DejaVuSans-75" transform="translate(422.265625 0)"/>
      <use xlink:href="#DejaVuSans-73" transform="translate(485.644531 0)"/>
      <use xlink:href="#DejaVuSans-5f" transform="translate(537.744141 0)"/>
      <use xlink:href="#DejaVuSans-35" transform="translate(587.744141 0)"/>
      <use xlink:href="#DejaVuSans-30" transform="translate(651.367188 0)"/>
      <use xlink:href="#DejaVuSans-30" transform="translate(714.990234 0)"/>
      <use xlink:href="#DejaVuSans-63" transform="translate(778.613281 0)"/>
     </g>
    </g>
    <g id="line2d_33">
     <path d="M 771.568125 75.285313 
L 781.568125 75.285313 
L 791.568125 75.285313 
" style="fill: none; stroke: #c7c7c7; stroke-width: 1.5; stroke-linecap: square"/>
     <g>
      <use xlink:href="#m5b677146a3" x="781.568125" y="75.285313" style="fill: #c7c7c7; stroke: #ffffff; stroke-width: 0.75; stroke-linejoin: miter"/>
     </g>
    </g>
    <g id="text_27">
     <!-- aflplusplus_mopt -->
     <g transform="translate(799.568125 78.785313) scale(0.1 -0.1)">
      <use xlink:href="#DejaVuSans-61"/>
      <use xlink:href="#DejaVuSans-66" transform="translate(61.279297 0)"/>
      <use xlink:href="#DejaVuSans-6c" transform="translate(96.484375 0)"/>
      <use xlink:href="#DejaVuSans-70" transform="translate(124.267578 0)"/>
      <use xlink:href="#DejaVuSans-6c" transform="translate(187.744141 0)"/>
      <use xlink:href="#DejaVuSans-75" transform="translate(215.527344 0)"/>
      <use xlink:href="#DejaVuSans-73" transform="translate(278.90625 0)"/>
      <use xlink:href="#DejaVuSans-70" transform="translate(331.005859 0)"/>
      <use xlink:href="#DejaVuSans-6c" transform="translate(394.482422 0)"/>
      <use xlink:href="#DejaVuSans-75" transform="translate(422.265625 0)"/>
      <use xlink:href="#DejaVuSans-73" transform="translate(485.644531 0)"/>
      <use xlink:href="#DejaVuSans-5f" transform="translate(537.744141 0)"/>
      <use xlink:href="#DejaVuSans-6d" transform="translate(587.744141 0)"/>
      <use xlink:href="#DejaVuSans-6f" transform="translate(685.15625 0)"/>
      <use xlink:href="#DejaVuSans-70" transform="translate(746.337891 0)"/>
      <use xlink:href="#DejaVuSans-74" transform="translate(809.814453 0)"/>
     </g>
    </g>
   </g>
  </g>
 </g>
 <defs>
  <clipPath id="pef5900fda7">
   <rect x="53.328125" y="22.318125" width="714.24" height="266.112"/>
  </clipPath>
 </defs>
</svg>
