<?xml version="1.0" encoding="utf-8" standalone="no"?>
<!DOCTYPE svg PUBLIC "-//W3C//DTD SVG 1.1//EN"
  "http://www.w3.org/Graphics/SVG/1.1/DTD/svg11.dtd">
<svg xmlns:xlink="http://www.w3.org/1999/xlink" width="895.669687pt" height="325.986375pt" viewBox="0 0 895.669687 325.986375" xmlns="http://www.w3.org/2000/svg" version="1.1">
 <metadata>
  <rdf:RDF xmlns:dc="http://purl.org/dc/elements/1.1/" xmlns:cc="http://creativecommons.org/ns#" xmlns:rdf="http://www.w3.org/1999/02/22-rdf-syntax-ns#">
   <cc:Work>
    <dc:type rdf:resource="http://purl.org/dc/dcmitype/StillImage"/>
    <dc:date>2026-06-10T04:29:16.929307</dc:date>
    <dc:format>image/svg+xml</dc:format>
    <dc:creator>
     <cc:Agent>
      <dc:title>Matplotlib v3.10.9, https://matplotlib.org/</dc:title>
     </cc:Agent>
    </dc:creator>
   </cc:Work>
  </rdf:RDF>
 </metadata>
 <defs>
  <style type="text/css">*{stroke-linejoin: round; stroke-linecap: butt}</style>
 </defs>
 <g id="figure_1">
  <g id="patch_1">
   <path d="M 0 325.986375 
L 895.669688 325.986375 
L 895.669688 0 
L 0 0 
z
" style="fill: #ffffff"/>
  </g>
  <g id="axes_1">
   <g id="patch_2">
    <path d="M 53.328125 288.430125 
L 767.568125 288.430125 
L 767.568125 22.318125 
L 53.328125 22.318125 
z
" style="fill: #ffffff"/>
   </g>
   <g id="FillBetweenPolyCollection_1">
    <defs>
     <path id="m78e48acfe0" d="M 53.328125 -49.65225 
L 53.328125 -49.65225 
L 542.785586 -225.664807 
L 581.927113 -227.921378 
L 604.823439 -235.080156 
L 621.068641 -239.282047 
L 633.669399 -246.363012 
L 643.964967 -253.599603 
L 652.669746 -255.000233 
L 660.210169 -255.078046 
L 666.861293 -255.311484 
L 672.810926 -255.311484 
L 678.193024 -255.46711 
L 683.106495 -256.323051 
L 687.626449 -256.789928 
L 691.811274 -258.423997 
L 695.707252 -258.501809 
L 699.351696 -258.501809 
L 702.775126 -258.579622 
L 706.002821 -258.735248 
L 709.055958 -260.680568 
L 711.952454 -260.991819 
L 714.7076 -261.069632 
L 717.334552 -261.380883 
L 719.844711 -261.692134 
L 722.248022 -261.925573 
L 724.553211 -263.24839 
L 726.767977 -263.715267 
L 728.899146 -263.637454 
L 730.952801 -265.038085 
L 732.934383 -265.271523 
L 734.84878 -265.504961 
L 736.700398 -266.594341 
L 738.493224 -267.372469 
L 740.230878 -267.917158 
L 741.916653 -267.917158 
L 743.553559 -268.072784 
L 745.144348 -268.150597 
L 746.691549 -268.22841 
L 748.197486 -269.006538 
L 749.664303 -270.251542 
L 751.093981 -270.640606 
L 752.488356 -270.640606 
L 753.849127 -270.796232 
L 755.177878 -270.874045 
L 756.476079 -271.418734 
L 757.745106 -271.496547 
L 758.986239 -272.274675 
L 760.200679 -272.352488 
L 761.38955 -273.286242 
L 762.553906 -273.51968 
L 763.694739 -273.753118 
L 764.812979 -274.92031 
L 764.812979 -288.148487 
L 764.812979 -288.148487 
L 763.694739 -287.214733 
L 762.553906 -286.436605 
L 761.38955 -286.436605 
L 760.200679 -285.1916 
L 758.986239 -284.802536 
L 757.745106 -284.802536 
L 756.476079 -284.724723 
L 755.177878 -284.102221 
L 753.849127 -284.102221 
L 752.488356 -284.102221 
L 751.093981 -284.024408 
L 749.664303 -283.946595 
L 748.197486 -283.168467 
L 746.691549 -283.168467 
L 745.144348 -283.168467 
L 743.553559 -283.168467 
L 741.916653 -283.090655 
L 740.230878 -283.012842 
L 738.493224 -282.468152 
L 736.700398 -282.468152 
L 734.84878 -282.390339 
L 732.934383 -282.312527 
L 730.952801 -282.312527 
L 728.899146 -282.079088 
L 726.767977 -282.079088 
L 724.553211 -281.84565 
L 722.248022 -281.767837 
L 719.844711 -281.612211 
L 717.334552 -281.30096 
L 714.7076 -280.522832 
L 711.952454 -278.966576 
L 709.055958 -278.966576 
L 706.002821 -278.888763 
L 702.775126 -278.810951 
L 699.351696 -278.188448 
L 695.707252 -278.188448 
L 691.811274 -277.877197 
L 687.626449 -277.799384 
L 683.106495 -277.332507 
L 678.193024 -276.00969 
L 672.810926 -274.92031 
L 666.861293 -274.92031 
L 660.210169 -273.130616 
L 652.669746 -272.897178 
L 643.964967 -272.741552 
L 633.669399 -271.729986 
L 621.068641 -264.026518 
L 604.823439 -262.703701 
L 581.927113 -260.680568 
L 542.785586 -259.513376 
L 53.328125 -49.65225 
z
" style="stroke: #1f77b4; stroke-opacity: 0.2"/>
    </defs>
    <g clip-path="url(#pc90df28f8a)">
     <use xlink:href="#m78e48acfe0" x="0" y="325.986375" style="fill: #1f77b4; fill-opacity: 0.2; stroke: #1f77b4; stroke-opacity: 0.2"/>
    </g>
   </g>
   <g id="FillBetweenPolyCollection_2">
    <defs>
     <path id="me883423bc6" d="M 53.328125 -49.65225 
L 53.328125 -49.65225 
L 542.785586 -220.996039 
L 581.927113 -224.497615 
L 604.823439 -226.365122 
L 621.068641 -232.201082 
L 633.669399 -233.5239 
L 643.964967 -234.613279 
L 652.669746 -235.547033 
L 660.210169 -240.527052 
L 666.861293 -241.927683 
L 672.810926 -242.005495 
L 678.193024 -242.238934 
L 683.106495 -242.705811 
L 687.626449 -245.662697 
L 691.811274 -251.498657 
L 695.707252 -254.06648 
L 699.351696 -254.222105 
L 702.775126 -254.766795 
L 706.002821 -259.746814 
L 709.055958 -259.90244 
L 711.952454 -261.614321 
L 714.7076 -261.614321 
L 717.334552 -261.614321 
L 719.844711 -263.404016 
L 722.248022 -263.404016 
L 724.553211 -263.715267 
L 726.767977 -263.79308 
L 728.899146 -264.026518 
L 730.952801 -264.259957 
L 732.934383 -264.726833 
L 734.84878 -265.271523 
L 736.700398 -265.582774 
L 738.493224 -265.582774 
L 740.230878 -265.582774 
L 741.916653 -265.660587 
L 743.553559 -265.894025 
L 745.144348 -266.127464 
L 746.691549 -266.205277 
L 748.197486 -266.205277 
L 749.664303 -266.516528 
L 751.093981 -266.672154 
L 752.488356 -267.216843 
L 753.849127 -267.294656 
L 755.177878 -267.372469 
L 756.476079 -267.528094 
L 757.745106 -267.528094 
L 758.986239 -267.68372 
L 760.200679 -267.68372 
L 761.38955 -268.695286 
L 762.553906 -268.850912 
L 763.694739 -270.718419 
L 764.812979 -270.951858 
L 764.812979 -291.57225 
L 764.812979 -291.57225 
L 763.694739 -291.57225 
L 762.553906 -291.494437 
L 761.38955 -291.338812 
L 760.200679 -291.338812 
L 758.986239 -291.02756 
L 757.745106 -290.249432 
L 756.476079 -290.015994 
L 755.177878 -290.015994 
L 753.849127 -289.237866 
L 752.488356 -289.160053 
L 751.093981 -289.160053 
L 749.664303 -289.160053 
L 748.197486 -288.615364 
L 746.691549 -288.459738 
L 745.144348 -280.756271 
L 743.553559 -280.756271 
L 741.916653 -280.445019 
L 740.230878 -280.211581 
L 738.493224 -279.90033 
L 736.700398 -279.744704 
L 734.84878 -278.888763 
L 732.934383 -278.577512 
L 730.952801 -278.577512 
L 728.899146 -278.421887 
L 726.767977 -278.421887 
L 724.553211 -278.421887 
L 722.248022 -278.344074 
L 719.844711 -277.877197 
L 717.334552 -277.721571 
L 714.7076 -277.332507 
L 711.952454 -274.219995 
L 709.055958 -274.219995 
L 706.002821 -274.142182 
L 702.775126 -273.908744 
L 699.351696 -273.908744 
L 695.707252 -273.753118 
L 691.811274 -272.897178 
L 687.626449 -271.729986 
L 683.106495 -263.092765 
L 678.193024 -262.625888 
L 672.810926 -262.314637 
L 666.861293 -261.925573 
L 660.210169 -261.536509 
L 652.669746 -259.746814 
L 643.964967 -255.778361 
L 633.669399 -255.700548 
L 621.068641 -250.720529 
L 604.823439 -250.17584 
L 581.927113 -248.152707 
L 542.785586 -243.717377 
L 53.328125 -49.65225 
z
" style="stroke: #d62728; stroke-opacity: 0.2"/>
    </defs>
    <g clip-path="url(#pc90df28f8a)">
     <use xlink:href="#me883423bc6" x="0" y="325.986375" style="fill: #d62728; fill-opacity: 0.2; stroke: #d62728; stroke-opacity: 0.2"/>
    </g>
   </g>
   <g id="FillBetweenPolyCollection_3">
    <defs>
     <path id="m41e0be711e" d="M 53.328125 -49.65225 
L 53.328125 -49.65225 
L 542.785586 -222.863546 
L 581.927113 -225.042305 
L 604.823439 -228.466068 
L 621.068641 -229.399822 
L 633.669399 -231.967644 
L 643.964967 -233.212649 
L 652.669746 -233.212649 
L 660.210169 -233.5239 
L 666.861293 -233.757338 
L 672.810926 -235.702658 
L 678.193024 -237.570166 
L 683.106495 -239.826737 
L 687.626449 -240.604865 
L 691.811274 -241.227367 
L 695.707252 -243.406126 
L 699.351696 -243.639564 
L 702.775126 -243.639564 
L 706.002821 -243.639564 
L 709.055958 -244.184254 
L 711.952454 -244.262067 
L 714.7076 -244.262067 
L 717.334552 -244.339879 
L 719.844711 -244.417692 
L 722.248022 -244.417692 
L 724.553211 -244.417692 
L 726.767977 -244.417692 
L 728.899146 -244.417692 
L 730.952801 -244.417692 
L 732.934383 -244.495505 
L 734.84878 -244.651131 
L 736.700398 -244.651131 
L 738.493224 -244.962382 
L 740.230878 -245.507071 
L 741.916653 -245.896135 
L 743.553559 -245.896135 
L 745.144348 -246.129574 
L 746.691549 -251.187406 
L 748.197486 -252.043347 
L 749.664303 -252.198972 
L 751.093981 -252.198972 
L 752.488356 -261.225257 
L 753.849127 -261.925573 
L 755.177878 -262.081198 
L 756.476079 -262.081198 
L 757.745106 -262.859326 
L 758.986239 -265.038085 
L 760.200679 -266.438715 
L 761.38955 -267.372469 
L 762.553906 -267.68372 
L 763.694739 -267.761533 
L 764.812979 -268.695286 
L 764.812979 -291.02756 
L 764.812979 -291.02756 
L 763.694739 -291.02756 
L 762.553906 -289.938181 
L 761.38955 -289.62693 
L 760.200679 -289.62693 
L 758.986239 -289.62693 
L 757.745106 -289.549117 
L 756.476079 -289.315679 
L 755.177878 -288.693176 
L 753.849127 -288.381925 
L 752.488356 -288.304112 
L 751.093981 -288.304112 
L 749.664303 -288.304112 
L 748.197486 -288.304112 
L 746.691549 -288.304112 
L 745.144348 -288.2263 
L 743.553559 -287.915048 
L 741.916653 -287.603797 
L 740.230878 -287.603797 
L 738.493224 -287.448172 
L 736.700398 -286.670044 
L 734.84878 -286.592231 
L 732.934383 -285.425039 
L 730.952801 -284.802536 
L 728.899146 -284.257847 
L 726.767977 -283.79097 
L 724.553211 -281.30096 
L 722.248022 -280.989709 
L 719.844711 -278.810951 
L 717.334552 -278.499699 
L 714.7076 -278.421887 
L 711.952454 -278.188448 
L 709.055958 -278.188448 
L 706.002821 -277.799384 
L 702.775126 -277.721571 
L 699.351696 -277.643759 
L 695.707252 -273.908744 
L 691.811274 -273.364054 
L 687.626449 -273.208429 
L 683.106495 -273.208429 
L 678.193024 -272.819365 
L 672.810926 -271.807798 
L 666.861293 -271.107483 
L 660.210169 -270.562794 
L 652.669746 -269.706853 
L 643.964967 -268.384035 
L 633.669399 -268.306222 
L 621.068641 -266.594341 
L 604.823439 -264.493395 
L 581.927113 -262.781513 
L 542.785586 -254.611169 
L 53.328125 -49.65225 
z
" style="stroke: #98df8a; stroke-opacity: 0.2"/>
    </defs>
    <g clip-path="url(#pc90df28f8a)">
     <use xlink:href="#m41e0be711e" x="0" y="325.986375" style="fill: #98df8a; fill-opacity: 0.2; stroke: #98df8a; stroke-opacity: 0.2"/>
    </g>
   </g>
   <g id="FillBetweenPolyCollection_4">
    <defs>
     <path id="m9c51744498" d="M 53.328125 -49.65225 
L 53.328125 -49.65225 
L 542.785586 -225.509181 
L 581.927113 -228.777319 
L 604.823439 -231.812018 
L 621.068641 -232.278895 
L 633.669399 -232.97921 
L 643.964967 -232.97921 
L 652.669746 -238.348294 
L 660.210169 -240.604865 
L 666.861293 -240.993929 
L 672.810926 -240.993929 
L 678.193024 -240.993929 
L 683.106495 -240.993929 
L 687.626449 -241.071742 
L 691.811274 -241.071742 
L 695.707252 -241.071742 
L 699.351696 -241.382993 
L 702.775126 -241.382993 
L 706.002821 -241.616431 
L 709.055958 -241.616431 
L 711.952454 -241.694244 
L 714.7076 -242.005495 
L 717.334552 -246.129574 
L 719.844711 -247.218953 
L 722.248022 -247.218953 
L 724.553211 -247.374579 
L 726.767977 -247.374579 
L 728.899146 -256.478677 
L 730.952801 -256.556489 
L 732.934383 -257.723681 
L 734.84878 -258.034933 
L 736.700398 -258.112745 
L 738.493224 -258.657435 
L 740.230878 -259.980253 
L 741.916653 -261.769947 
L 743.553559 -261.84776 
L 745.144348 -262.003385 
L 746.691549 -262.236824 
L 748.197486 -262.236824 
L 749.664303 -262.236824 
L 751.093981 -262.314637 
L 752.488356 -263.170577 
L 753.849127 -263.326203 
L 755.177878 -263.559641 
L 756.476079 -263.637454 
L 757.745106 -263.79308 
L 758.986239 -264.882459 
L 760.200679 -266.749966 
L 761.38955 -266.749966 
L 762.553906 -266.749966 
L 763.694739 -266.749966 
L 764.812979 -266.827779 
L 764.812979 -286.903482 
L 764.812979 -286.903482 
L 763.694739 -286.903482 
L 762.553906 -285.969728 
L 761.38955 -285.658477 
L 760.200679 -284.180034 
L 758.986239 -284.024408 
L 757.745106 -283.24628 
L 756.476079 -283.012842 
L 755.177878 -282.390339 
L 753.849127 -282.001275 
L 752.488356 -276.865631 
L 751.093981 -275.776251 
L 749.664303 -275.776251 
L 748.197486 -272.97499 
L 746.691549 -272.741552 
L 745.144348 -272.741552 
L 743.553559 -272.274675 
L 741.916653 -272.274675 
L 740.230878 -271.57436 
L 738.493224 -271.340922 
L 736.700398 -271.340922 
L 734.84878 -270.562794 
L 732.934383 -270.018104 
L 730.952801 -269.239976 
L 728.899146 -269.08435 
L 726.767977 -269.08435 
L 724.553211 -268.695286 
L 722.248022 -268.539661 
L 719.844711 -268.539661 
L 717.334552 -268.539661 
L 714.7076 -268.539661 
L 711.952454 -267.761533 
L 709.055958 -267.761533 
L 706.002821 -267.605907 
L 702.775126 -267.605907 
L 699.351696 -267.605907 
L 695.707252 -267.528094 
L 691.811274 -266.749966 
L 687.626449 -266.594341 
L 683.106495 -266.516528 
L 678.193024 -266.516528 
L 672.810926 -266.049651 
L 666.861293 -265.971838 
L 660.210169 -265.038085 
L 652.669746 -264.726833 
L 643.964967 -264.415582 
L 633.669399 -257.645869 
L 621.068641 -256.167425 
L 604.823439 -255.233672 
L 581.927113 -246.518638 
L 542.785586 -244.028628 
L 53.328125 -49.65225 
z
" style="stroke: #c7c7c7; stroke-opacity: 0.2"/>
    </defs>
    <g clip-path="url(#pc90df28f8a)">
     <use xlink:href="#m9c51744498" x="0" y="325.986375" style="fill: #c7c7c7; fill-opacity: 0.2; stroke: #c7c7c7; stroke-opacity: 0.2"/>
    </g>
   </g>
   <g id="matplotlib.axis_1">
    <g id="xtick_1">
     <g id="line2d_1">
      <defs>
       <path id="m162fed46c9" d="M 0 0 
L 0 3.5 
" style="stroke: #000000; stroke-width: 0.8"/>
      </defs>
      <g>
       <use xlink:href="#m162fed46c9" x="53.328125" y="288.430125" style="stroke: #000000; stroke-width: 0.8"/>
      </g>
     </g>
     <g id="text_1">
      <!-- 0m -->
      <g transform="translate(45.276563 303.028562) scale(0.1 -0.1)">
       <defs>
        <path id="DejaVuSans-30" d="M 2034 4250 
Q 1547 4250 1301 3770 
Q 1056 3291 1056 2328 
Q 1056 1369 1301 889 
Q 1547 409 2034 409 
Q 2525 409 2770 889 
Q 3016 1369 3016 2328 
Q 3016 3291 2770 3770 
Q 2525 4250 2034 4250 
z
M 2034 4750 
Q 2819 4750 3233 4129 
Q 3647 3509 3647 2328 
Q 3647 1150 3233 529 
Q 2819 -91 2034 -91 
Q 1250 -91 836 529 
Q 422 1150 422 2328 
Q 422 3509 836 4129 
Q 1250 4750 2034 4750 
z
" transform="scale(0.015625)"/>
        <path id="DejaVuSans-6d" d="M 3328 2828 
Q 3544 3216 3844 3400 
Q 4144 3584 4550 3584 
Q 5097 3584 5394 3201 
Q 5691 2819 5691 2113 
L 5691 0 
L 5113 0 
L 5113 2094 
Q 5113 2597 4934 2840 
Q 4756 3084 4391 3084 
Q 3944 3084 3684 2787 
Q 3425 2491 3425 1978 
L 3425 0 
L 2847 0 
L 2847 2094 
Q 2847 2600 2669 2842 
Q 2491 3084 2119 3084 
Q 1678 3084 1418 2786 
Q 1159 2488 1159 1978 
L 1159 0 
L 581 0 
L 581 3500 
L 1159 3500 
L 1159 2956 
Q 1356 3278 1631 3431 
Q 1906 3584 2284 3584 
Q 2666 3584 2933 3390 
Q 3200 3197 3328 2828 
z
" transform="scale(0.015625)"/>
       </defs>
       <use xlink:href="#DejaVuSans-30"/>
       <use xlink:href="#DejaVuSans-6d" transform="translate(63.623047 0)"/>
      </g>
     </g>
    </g>
    <g id="xtick_2">
     <g id="line2d_2">
      <g>
       <use xlink:href="#m162fed46c9" x="125.564425" y="288.430125" style="stroke: #000000; stroke-width: 0.8"/>
      </g>
     </g>
    </g>
    <g id="xtick_3">
     <g id="line2d_3">
      <g>
       <use xlink:href="#m162fed46c9" x="219.274699" y="288.430125" style="stroke: #000000; stroke-width: 0.8"/>
      </g>
     </g>
    </g>
    <g id="xtick_4">
     <g id="line2d_4">
      <g>
       <use xlink:href="#m162fed46c9" x="279.8902" y="288.430125" style="stroke: #000000; stroke-width: 0.8"/>
      </g>
     </g>
    </g>
    <g id="xtick_5">
     <g id="line2d_5">
      <g>
       <use xlink:href="#m162fed46c9" x="340.505701" y="288.430125" style="stroke: #000000; stroke-width: 0.8"/>
      </g>
     </g>
    </g>
    <g id="xtick_6">
     <g id="line2d_6">
      <g>
       <use xlink:href="#m162fed46c9" x="401.121202" y="288.430125" style="stroke: #000000; stroke-width: 0.8"/>
      </g>
     </g>
     <g id="text_2">
      <!-- 1m -->
      <g transform="translate(393.06964 303.028562) scale(0.1 -0.1)">
       <defs>
        <path id="DejaVuSans-31" d="M 794 531 
L 1825 531 
L 1825 4091 
L 703 3866 
L 703 4441 
L 1819 4666 
L 2450 4666 
L 2450 531 
L 3481 531 
L 3481 0 
L 794 0 
L 794 531 
z
" transform="scale(0.015625)"/>
       </defs>
       <use xlink:href="#DejaVuSans-31"/>
       <use xlink:href="#DejaVuSans-6d" transform="translate(63.623047 0)"/>
      </g>
     </g>
    </g>
    <g id="xtick_7">
     <g id="line2d_7">
      <g>
       <use xlink:href="#m162fed46c9" x="461.736704" y="288.430125" style="stroke: #000000; stroke-width: 0.8"/>
      </g>
     </g>
     <g id="text_3">
      <!-- 3m -->
      <g transform="translate(453.685141 303.028562) scale(0.1 -0.1)">
       <defs>
        <path id="DejaVuSans-33" d="M 2597 2516 
Q 3050 2419 3304 2112 
Q 3559 1806 3559 1356 
Q 3559 666 3084 287 
Q 2609 -91 1734 -91 
Q 1441 -91 1130 -33 
Q 819 25 488 141 
L 488 750 
Q 750 597 1062 519 
Q 1375 441 1716 441 
Q 2309 441 2620 675 
Q 2931 909 2931 1356 
Q 2931 1769 2642 2001 
Q 2353 2234 1838 2234 
L 1294 2234 
L 1294 2753 
L 1863 2753 
Q 2328 2753 2575 2939 
Q 2822 3125 2822 3475 
Q 2822 3834 2567 4026 
Q 2313 4219 1838 4219 
Q 1578 4219 1281 4162 
Q 984 4106 628 3988 
L 628 4550 
Q 988 4650 1302 4700 
Q 1616 4750 1894 4750 
Q 2613 4750 3031 4423 
Q 3450 4097 3450 3541 
Q 3450 3153 3228 2886 
Q 3006 2619 2597 2516 
z
" transform="scale(0.015625)"/>
       </defs>
       <use xlink:href="#DejaVuSans-33"/>
       <use xlink:href="#DejaVuSans-6d" transform="translate(63.623047 0)"/>
      </g>
     </g>
    </g>
    <g id="xtick_8">
     <g id="line2d_8">
      <g>
       <use xlink:href="#m162fed46c9" x="522.352205" y="288.430125" style="stroke: #000000; stroke-width: 0.8"/>
      </g>
     </g>
     <g id="text_4">
      <!-- 10m -->
      <g transform="translate(511.119392 303.028562) scale(0.1 -0.1)">
       <use xlink:href="#DejaVuSans-31"/>
       <use xlink:href="#DejaVuSans-30" transform="translate(63.623047 0)"/>
       <use xlink:href="#DejaVuSans-6d" transform="translate(127.246094 0)"/>
      </g>
     </g>
    </g>
    <g id="xtick_9">
     <g id="line2d_9">
      <g>
       <use xlink:href="#m162fed46c9" x="582.967706" y="288.430125" style="stroke: #000000; stroke-width: 0.8"/>
      </g>
     </g>
     <g id="text_5">
      <!-- 30m -->
      <g transform="translate(571.734893 303.028562) scale(0.1 -0.1)">
       <use xlink:href="#DejaVuSans-33"/>
       <use xlink:href="#DejaVuSans-30" transform="translate(63.623047 0)"/>
       <use xlink:href="#DejaVuSans-6d" transform="translate(127.246094 0)"/>
      </g>
     </g>
    </g>
    <g id="xtick_10">
     <g id="line2d_10">
      <g>
       <use xlink:href="#m162fed46c9" x="643.583207" y="288.430125" style="stroke: #000000; stroke-width: 0.8"/>
      </g>
     </g>
     <g id="text_6">
      <!-- 1h:29m -->
      <g transform="translate(624.31602 303.028562) scale(0.1 -0.1)">
       <defs>
        <path id="DejaVuSans-68" d="M 3513 2113 
L 3513 0 
L 2938 0 
L 2938 2094 
Q 2938 2591 2744 2837 
Q 2550 3084 2163 3084 
Q 1697 3084 1428 2787 
Q 1159 2491 1159 1978 
L 1159 0 
L 581 0 
L 581 4863 
L 1159 4863 
L 1159 2956 
Q 1366 3272 1645 3428 
Q 1925 3584 2291 3584 
Q 2894 3584 3203 3211 
Q 3513 2838 3513 2113 
z
" transform="scale(0.015625)"/>
        <path id="DejaVuSans-3a" d="M 750 794 
L 1409 794 
L 1409 0 
L 750 0 
L 750 794 
z
M 750 3309 
L 1409 3309 
L 1409 2516 
L 750 2516 
L 750 3309 
z
" transform="scale(0.015625)"/>
        <path id="DejaVuSans-32" d="M 1228 531 
L 3431 531 
L 3431 0 
L 469 0 
L 469 531 
Q 828 903 1448 1529 
Q 2069 2156 2228 2338 
Q 2531 2678 2651 2914 
Q 2772 3150 2772 3378 
Q 2772 3750 2511 3984 
Q 2250 4219 1831 4219 
Q 1534 4219 1204 4116 
Q 875 4013 500 3803 
L 500 4441 
Q 881 4594 1212 4672 
Q 1544 4750 1819 4750 
Q 2544 4750 2975 4387 
Q 3406 4025 3406 3419 
Q 3406 3131 3298 2873 
Q 3191 2616 2906 2266 
Q 2828 2175 2409 1742 
Q 1991 1309 1228 531 
z
" transform="scale(0.015625)"/>
        <path id="DejaVuSans-39" d="M 703 97 
L 703 672 
Q 941 559 1184 500 
Q 1428 441 1663 441 
Q 2288 441 2617 861 
Q 2947 1281 2994 2138 
Q 2813 1869 2534 1725 
Q 2256 1581 1919 1581 
Q 1219 1581 811 2004 
Q 403 2428 403 3163 
Q 403 3881 828 4315 
Q 1253 4750 1959 4750 
Q 2769 4750 3195 4129 
Q 3622 3509 3622 2328 
Q 3622 1225 3098 567 
Q 2575 -91 1691 -91 
Q 1453 -91 1209 -44 
Q 966 3 703 97 
z
M 1959 2075 
Q 2384 2075 2632 2365 
Q 2881 2656 2881 3163 
Q 2881 3666 2632 3958 
Q 2384 4250 1959 4250 
Q 1534 4250 1286 3958 
Q 1038 3666 1038 3163 
Q 1038 2656 1286 2365 
Q 1534 2075 1959 2075 
z
" transform="scale(0.015625)"/>
       </defs>
       <use xlink:href="#DejaVuSans-31"/>
       <use xlink:href="#DejaVuSans-68" transform="translate(63.623047 0)"/>
       <use xlink:href="#DejaVuSans-3a" transform="translate(127.001953 0)"/>
       <use xlink:href="#DejaVuSans-32" transform="translate(160.693359 0)"/>
       <use xlink:href="#DejaVuSans-39" transform="translate(224.316406 0)"/>
       <use xlink:href="#DejaVuSans-6d" transform="translate(287.939453 0)"/>
      </g>
     </g>
    </g>
    <g id="xtick_11">
     <g id="line2d_11">
      <g>
       <use xlink:href="#m162fed46c9" x="704.198708" y="288.430125" style="stroke: #000000; stroke-width: 0.8"/>
      </g>
     </g>
     <g id="text_7">
      <!-- 4h:21m -->
      <g transform="translate(684.931521 303.028562) scale(0.1 -0.1)">
       <defs>
        <path id="DejaVuSans-34" d="M 2419 4116 
L 825 1625 
L 2419 1625 
L 2419 4116 
z
M 2253 4666 
L 3047 4666 
L 3047 1625 
L 3713 1625 
L 3713 1100 
L 3047 1100 
L 3047 0 
L 2419 0 
L 2419 1100 
L 313 1100 
L 313 1709 
L 2253 4666 
z
" transform="scale(0.015625)"/>
       </defs>
       <use xlink:href="#DejaVuSans-34"/>
       <use xlink:href="#DejaVuSans-68" transform="translate(63.623047 0)"/>
       <use xlink:href="#DejaVuSans-3a" transform="translate(127.001953 0)"/>
       <use xlink:href="#DejaVuSans-32" transform="translate(160.693359 0)"/>
       <use xlink:href="#DejaVuSans-31" transform="translate(224.316406 0)"/>
       <use xlink:href="#DejaVuSans-6d" transform="translate(287.939453 0)"/>
      </g>
     </g>
    </g>
    <g id="xtick_12">
     <g id="line2d_12">
      <g>
       <use xlink:href="#m162fed46c9" x="764.814209" y="288.430125" style="stroke: #000000; stroke-width: 0.8"/>
      </g>
     </g>
     <g id="text_8">
      <!-- 12h:45m -->
      <g transform="translate(742.365772 303.028562) scale(0.1 -0.1)">
       <defs>
        <path id="DejaVuSans-35" d="M 691 4666 
L 3169 4666 
L 3169 4134 
L 1269 4134 
L 1269 2991 
Q 1406 3038 1543 3061 
Q 1681 3084 1819 3084 
Q 2600 3084 3056 2656 
Q 3513 2228 3513 1497 
Q 3513 744 3044 326 
Q 2575 -91 1722 -91 
Q 1428 -91 1123 -41 
Q 819 9 494 109 
L 494 744 
Q 775 591 1075 516 
Q 1375 441 1709 441 
Q 2250 441 2565 725 
Q 2881 1009 2881 1497 
Q 2881 1984 2565 2268 
Q 2250 2553 1709 2553 
Q 1456 2553 1204 2497 
Q 953 2441 691 2322 
L 691 4666 
z
" transform="scale(0.015625)"/>
       </defs>
       <use xlink:href="#DejaVuSans-31"/>
       <use xlink:href="#DejaVuSans-32" transform="translate(63.623047 0)"/>
       <use xlink:href="#DejaVuSans-68" transform="translate(127.246094 0)"/>
       <use xlink:href="#DejaVuSans-3a" transform="translate(190.625 0)"/>
       <use xlink:href="#DejaVuSans-34" transform="translate(224.316406 0)"/>
       <use xlink:href="#DejaVuSans-35" transform="translate(287.939453 0)"/>
       <use xlink:href="#DejaVuSans-6d" transform="translate(351.5625 0)"/>
      </g>
     </g>
    </g>
    <g id="text_9">
     <!-- Time (hour:minute) -->
     <g transform="translate(362.041094 316.706687) scale(0.1 -0.1)">
      <defs>
       <path id="DejaVuSans-54" d="M -19 4666 
L 3928 4666 
L 3928 4134 
L 2272 4134 
L 2272 0 
L 1638 0 
L 1638 4134 
L -19 4134 
L -19 4666 
z
" transform="scale(0.015625)"/>
       <path id="DejaVuSans-69" d="M 603 3500 
L 1178 3500 
L 1178 0 
L 603 0 
L 603 3500 
z
M 603 4863 
L 1178 4863 
L 1178 4134 
L 603 4134 
L 603 4863 
z
" transform="scale(0.015625)"/>
       <path id="DejaVuSans-65" d="M 3597 1894 
L 3597 1613 
L 953 1613 
Q 991 1019 1311 708 
Q 1631 397 2203 397 
Q 2534 397 2845 478 
Q 3156 559 3463 722 
L 3463 178 
Q 3153 47 2828 -22 
Q 2503 -91 2169 -91 
Q 1331 -91 842 396 
Q 353 884 353 1716 
Q 353 2575 817 3079 
Q 1281 3584 2069 3584 
Q 2775 3584 3186 3129 
Q 3597 2675 3597 1894 
z
M 3022 2063 
Q 3016 2534 2758 2815 
Q 2500 3097 2075 3097 
Q 1594 3097 1305 2825 
Q 1016 2553 972 2059 
L 3022 2063 
z
" transform="scale(0.015625)"/>
       <path id="DejaVuSans-20" transform="scale(0.015625)"/>
       <path id="DejaVuSans-28" d="M 1984 4856 
Q 1566 4138 1362 3434 
Q 1159 2731 1159 2009 
Q 1159 1288 1364 580 
Q 1569 -128 1984 -844 
L 1484 -844 
Q 1016 -109 783 600 
Q 550 1309 550 2009 
Q 550 2706 781 3412 
Q 1013 4119 1484 4856 
L 1984 4856 
z
" transform="scale(0.015625)"/>
       <path id="DejaVuSans-6f" d="M 1959 3097 
Q 1497 3097 1228 2736 
Q 959 2375 959 1747 
Q 959 1119 1226 758 
Q 1494 397 1959 397 
Q 2419 397 2687 759 
Q 2956 1122 2956 1747 
Q 2956 2369 2687 2733 
Q 2419 3097 1959 3097 
z
M 1959 3584 
Q 2709 3584 3137 3096 
Q 3566 2609 3566 1747 
Q 3566 888 3137 398 
Q 2709 -91 1959 -91 
Q 1206 -91 779 398 
Q 353 888 353 1747 
Q 353 2609 779 3096 
Q 1206 3584 1959 3584 
z
" transform="scale(0.015625)"/>
       <path id="DejaVuSans-75" d="M 544 1381 
L 544 3500 
L 1119 3500 
L 1119 1403 
Q 1119 906 1312 657 
Q 1506 409 1894 409 
Q 2359 409 2629 706 
Q 2900 1003 2900 1516 
L 2900 3500 
L 3475 3500 
L 3475 0 
L 2900 0 
L 2900 538 
Q 2691 219 2414 64 
Q 2138 -91 1772 -91 
Q 1169 -91 856 284 
Q 544 659 544 1381 
z
M 1991 3584 
L 1991 3584 
z
" transform="scale(0.015625)"/>
       <path id="DejaVuSans-72" d="M 2631 2963 
Q 2534 3019 2420 3045 
Q 2306 3072 2169 3072 
Q 1681 3072 1420 2755 
Q 1159 2438 1159 1844 
L 1159 0 
L 581 0 
L 581 3500 
L 1159 3500 
L 1159 2956 
Q 1341 3275 1631 3429 
Q 1922 3584 2338 3584 
Q 2397 3584 2469 3576 
Q 2541 3569 2628 3553 
L 2631 2963 
z
" transform="scale(0.015625)"/>
       <path id="DejaVuSans-6e" d="M 3513 2113 
L 3513 0 
L 2938 0 
L 2938 2094 
Q 2938 2591 2744 2837 
Q 2550 3084 2163 3084 
Q 1697 3084 1428 2787 
Q 1159 2491 1159 1978 
L 1159 0 
L 581 0 
L 581 3500 
L 1159 3500 
L 1159 2956 
Q 1366 3272 1645 3428 
Q 1925 3584 2291 3584 
Q 2894 3584 3203 3211 
Q 3513 2838 3513 2113 
z
" transform="scale(0.015625)"/>
       <path id="DejaVuSans-74" d="M 1172 4494 
L 1172 3500 
L 2356 3500 
L 2356 3053 
L 1172 3053 
L 1172 1153 
Q 1172 725 1289 603 
Q 1406 481 1766 481 
L 2356 481 
L 2356 0 
L 1766 0 
Q 1100 0 847 248 
Q 594 497 594 1153 
L 594 3053 
L 172 3053 
L 172 3500 
L 594 3500 
L 594 4494 
L 1172 4494 
z
" transform="scale(0.015625)"/>
       <path id="DejaVuSans-29" d="M 513 4856 
L 1013 4856 
Q 1481 4119 1714 3412 
Q 1947 2706 1947 2009 
Q 1947 1309 1714 600 
Q 1481 -109 1013 -844 
L 513 -844 
Q 928 -128 1133 580 
Q 1338 1288 1338 2009 
Q 1338 2731 1133 3434 
Q 928 4138 513 4856 
z
" transform="scale(0.015625)"/>
      </defs>
      <use xlink:href="#DejaVuSans-54"/>
      <use xlink:href="#DejaVuSans-69" transform="translate(57.958984 0)"/>
      <use xlink:href="#DejaVuSans-6d" transform="translate(85.742188 0)"/>
      <use xlink:href="#DejaVuSans-65" transform="translate(183.154297 0)"/>
      <use xlink:href="#DejaVuSans-20" transform="translate(244.677734 0)"/>
      <use xlink:href="#DejaVuSans-28" transform="translate(276.464844 0)"/>
      <use xlink:href="#DejaVuSans-68" transform="translate(315.478516 0)"/>
      <use xlink:href="#DejaVuSans-6f" transform="translate(378.857422 0)"/>
      <use xlink:href="#DejaVuSans-75" transform="translate(440.039062 0)"/>
      <use xlink:href="#DejaVuSans-72" transform="translate(503.417969 0)"/>
      <use xlink:href="#DejaVuSans-3a" transform="translate(542.78125 0)"/>
      <use xlink:href="#DejaVuSans-6d" transform="translate(576.472656 0)"/>
      <use xlink:href="#DejaVuSans-69" transform="translate(673.884766 0)"/>
      <use xlink:href="#DejaVuSans-6e" transform="translate(701.667969 0)"/>
      <use xlink:href="#DejaVuSans-75" transform="translate(765.046875 0)"/>
      <use xlink:href="#DejaVuSans-74" transform="translate(828.425781 0)"/>
      <use xlink:href="#DejaVuSans-65" transform="translate(867.634766 0)"/>
      <use xlink:href="#DejaVuSans-29" transform="translate(929.158203 0)"/>
     </g>
    </g>
   </g>
   <g id="matplotlib.axis_2">
    <g id="ytick_1">
     <g id="line2d_13">
      <defs>
       <path id="m88b67f7547" d="M 0 0 
L -3.5 0 
" style="stroke: #000000; stroke-width: 0.8"/>
      </defs>
      <g>
       <use xlink:href="#m88b67f7547" x="53.328125" y="276.334125" style="stroke: #000000; stroke-width: 0.8"/>
      </g>
     </g>
     <g id="text_10">
      <!-- 0 -->
      <g transform="translate(39.965625 280.133344) scale(0.1 -0.1)">
       <use xlink:href="#DejaVuSans-30"/>
      </g>
     </g>
    </g>
    <g id="ytick_2">
     <g id="line2d_14">
      <g>
       <use xlink:href="#m88b67f7547" x="53.328125" y="237.427724" style="stroke: #000000; stroke-width: 0.8"/>
      </g>
     </g>
     <g id="text_11">
      <!-- 500 -->
      <g transform="translate(27.240625 241.226943) scale(0.1 -0.1)">
       <use xlink:href="#DejaVuSans-35"/>
       <use xlink:href="#DejaVuSans-30" transform="translate(63.623047 0)"/>
       <use xlink:href="#DejaVuSans-30" transform="translate(127.246094 0)"/>
      </g>
     </g>
    </g>
    <g id="ytick_3">
     <g id="line2d_15">
      <g>
       <use xlink:href="#m88b67f7547" x="53.328125" y="198.521323" style="stroke: #000000; stroke-width: 0.8"/>
      </g>
     </g>
     <g id="text_12">
      <!-- 1000 -->
      <g transform="translate(20.878125 202.320542) scale(0.1 -0.1)">
       <use xlink:href="#DejaVuSans-31"/>
       <use xlink:href="#DejaVuSans-30" transform="translate(63.623047 0)"/>
       <use xlink:href="#DejaVuSans-30" transform="translate(127.246094 0)"/>
       <use xlink:href="#DejaVuSans-30" transform="translate(190.869141 0)"/>
      </g>
     </g>
    </g>
    <g id="ytick_4">
     <g id="line2d_16">
      <g>
       <use xlink:href="#m88b67f7547" x="53.328125" y="159.614923" style="stroke: #000000; stroke-width: 0.8"/>
      </g>
     </g>
     <g id="text_13">
      <!-- 1500 -->
      <g transform="translate(20.878125 163.414141) scale(0.1 -0.1)">
       <use xlink:href="#DejaVuSans-31"/>
       <use xlink:href="#DejaVuSans-35" transform="translate(63.623047 0)"/>
       <use xlink:href="#DejaVuSans-30" transform="translate(127.246094 0)"/>
       <use xlink:href="#DejaVuSans-30" transform="translate(190.869141 0)"/>
      </g>
     </g>
    </g>
    <g id="ytick_5">
     <g id="line2d_17">
      <g>
       <use xlink:href="#m88b67f7547" x="53.328125" y="120.708522" style="stroke: #000000; stroke-width: 0.8"/>
      </g>
     </g>
     <g id="text_14">
      <!-- 2000 -->
      <g transform="translate(20.878125 124.507741) scale(0.1 -0.1)">
       <use xlink:href="#DejaVuSans-32"/>
       <use xlink:href="#DejaVuSans-30" transform="translate(63.623047 0)"/>
       <use xlink:href="#DejaVuSans-30" transform="translate(127.246094 0)"/>
       <use xlink:href="#DejaVuSans-30" transform="translate(190.869141 0)"/>
      </g>
     </g>
    </g>
    <g id="ytick_6">
     <g id="line2d_18">
      <g>
       <use xlink:href="#m88b67f7547" x="53.328125" y="81.802121" style="stroke: #000000; stroke-width: 0.8"/>
      </g>
     </g>
     <g id="text_15">
      <!-- 2500 -->
      <g transform="translate(20.878125 85.60134) scale(0.1 -0.1)">
       <use xlink:href="#DejaVuSans-32"/>
       <use xlink:href="#DejaVuSans-35" transform="translate(63.623047 0)"/>
       <use xlink:href="#DejaVuSans-30" transform="translate(127.246094 0)"/>
       <use xlink:href="#DejaVuSans-30" transform="translate(190.869141 0)"/>
      </g>
     </g>
    </g>
    <g id="ytick_7">
     <g id="line2d_19">
      <g>
       <use xlink:href="#m88b67f7547" x="53.328125" y="42.89572" style="stroke: #000000; stroke-width: 0.8"/>
      </g>
     </g>
     <g id="text_16">
      <!-- 3000 -->
      <g transform="translate(20.878125 46.694939) scale(0.1 -0.1)">
       <use xlink:href="#DejaVuSans-33"/>
       <use xlink:href="#DejaVuSans-30" transform="translate(63.623047 0)"/>
       <use xlink:href="#DejaVuSans-30" transform="translate(127.246094 0)"/>
       <use xlink:href="#DejaVuSans-30" transform="translate(190.869141 0)"/>
      </g>
     </g>
    </g>
    <g id="text_17">
     <!-- Code branch coverage -->
     <g transform="translate(14.798438 211.949125) rotate(-90) scale(0.1 -0.1)">
      <defs>
       <path id="DejaVuSans-43" d="M 4122 4306 
L 4122 3641 
Q 3803 3938 3442 4084 
Q 3081 4231 2675 4231 
Q 1875 4231 1450 3742 
Q 1025 3253 1025 2328 
Q 1025 1406 1450 917 
Q 1875 428 2675 428 
Q 3081 428 3442 575 
Q 3803 722 4122 1019 
L 4122 359 
Q 3791 134 3420 21 
Q 3050 -91 2638 -91 
Q 1578 -91 968 557 
Q 359 1206 359 2328 
Q 359 3453 968 4101 
Q 1578 4750 2638 4750 
Q 3056 4750 3426 4639 
Q 3797 4528 4122 4306 
z
" transform="scale(0.015625)"/>
       <path id="DejaVuSans-64" d="M 2906 2969 
L 2906 4863 
L 3481 4863 
L 3481 0 
L 2906 0 
L 2906 525 
Q 2725 213 2448 61 
Q 2172 -91 1784 -91 
Q 1150 -91 751 415 
Q 353 922 353 1747 
Q 353 2572 751 3078 
Q 1150 3584 1784 3584 
Q 2172 3584 2448 3432 
Q 2725 3281 2906 2969 
z
M 947 1747 
Q 947 1113 1208 752 
Q 1469 391 1925 391 
Q 2381 391 2643 752 
Q 2906 1113 2906 1747 
Q 2906 2381 2643 2742 
Q 2381 3103 1925 3103 
Q 1469 3103 1208 2742 
Q 947 2381 947 1747 
z
" transform="scale(0.015625)"/>
       <path id="DejaVuSans-62" d="M 3116 1747 
Q 3116 2381 2855 2742 
Q 2594 3103 2138 3103 
Q 1681 3103 1420 2742 
Q 1159 2381 1159 1747 
Q 1159 1113 1420 752 
Q 1681 391 2138 391 
Q 2594 391 2855 752 
Q 3116 1113 3116 1747 
z
M 1159 2969 
Q 1341 3281 1617 3432 
Q 1894 3584 2278 3584 
Q 2916 3584 3314 3078 
Q 3713 2572 3713 1747 
Q 3713 922 3314 415 
Q 2916 -91 2278 -91 
Q 1894 -91 1617 61 
Q 1341 213 1159 525 
L 1159 0 
L 581 0 
L 581 4863 
L 1159 4863 
L 1159 2969 
z
" transform="scale(0.015625)"/>
       <path id="DejaVuSans-61" d="M 2194 1759 
Q 1497 1759 1228 1600 
Q 959 1441 959 1056 
Q 959 750 1161 570 
Q 1363 391 1709 391 
Q 2188 391 2477 730 
Q 2766 1069 2766 1631 
L 2766 1759 
L 2194 1759 
z
M 3341 1997 
L 3341 0 
L 2766 0 
L 2766 531 
Q 2569 213 2275 61 
Q 1981 -91 1556 -91 
Q 1019 -91 701 211 
Q 384 513 384 1019 
Q 384 1609 779 1909 
Q 1175 2209 1959 2209 
L 2766 2209 
L 2766 2266 
Q 2766 2663 2505 2880 
Q 2244 3097 1772 3097 
Q 1472 3097 1187 3025 
Q 903 2953 641 2809 
L 641 3341 
Q 956 3463 1253 3523 
Q 1550 3584 1831 3584 
Q 2591 3584 2966 3190 
Q 3341 2797 3341 1997 
z
" transform="scale(0.015625)"/>
       <path id="DejaVuSans-63" d="M 3122 3366 
L 3122 2828 
Q 2878 2963 2633 3030 
Q 2388 3097 2138 3097 
Q 1578 3097 1268 2742 
Q 959 2388 959 1747 
Q 959 1106 1268 751 
Q 1578 397 2138 397 
Q 2388 397 2633 464 
Q 2878 531 3122 666 
L 3122 134 
Q 2881 22 2623 -34 
Q 2366 -91 2075 -91 
Q 1284 -91 818 406 
Q 353 903 353 1747 
Q 353 2603 823 3093 
Q 1294 3584 2113 3584 
Q 2378 3584 2631 3529 
Q 2884 3475 3122 3366 
z
" transform="scale(0.015625)"/>
       <path id="DejaVuSans-76" d="M 191 3500 
L 800 3500 
L 1894 563 
L 2988 3500 
L 3597 3500 
L 2284 0 
L 1503 0 
L 191 3500 
z
" transform="scale(0.015625)"/>
       <path id="DejaVuSans-67" d="M 2906 1791 
Q 2906 2416 2648 2759 
Q 2391 3103 1925 3103 
Q 1463 3103 1205 2759 
Q 947 2416 947 1791 
Q 947 1169 1205 825 
Q 1463 481 1925 481 
Q 2391 481 2648 825 
Q 2906 1169 2906 1791 
z
M 3481 434 
Q 3481 -459 3084 -895 
Q 2688 -1331 1869 -1331 
Q 1566 -1331 1297 -1286 
Q 1028 -1241 775 -1147 
L 775 -588 
Q 1028 -725 1275 -790 
Q 1522 -856 1778 -856 
Q 2344 -856 2625 -561 
Q 2906 -266 2906 331 
L 2906 616 
Q 2728 306 2450 153 
Q 2172 0 1784 0 
Q 1141 0 747 490 
Q 353 981 353 1791 
Q 353 2603 747 3093 
Q 1141 3584 1784 3584 
Q 2172 3584 2450 3431 
Q 2728 3278 2906 2969 
L 2906 3500 
L 3481 3500 
L 3481 434 
z
" transform="scale(0.015625)"/>
      </defs>
      <use xlink:href="#DejaVuSans-43"/>
      <use xlink:href="#DejaVuSans-6f" transform="translate(69.824219 0)"/>
      <use xlink:href="#DejaVuSans-64" transform="translate(131.005859 0)"/>
      <use xlink:href="#DejaVuSans-65" transform="translate(194.482422 0)"/>
      <use xlink:href="#DejaVuSans-20" transform="translate(256.005859 0)"/>
      <use xlink:href="#DejaVuSans-62" transform="translate(287.792969 0)"/>
      <use xlink:href="#DejaVuSans-72" transform="translate(351.269531 0)"/>
      <use xlink:href="#DejaVuSans-61" transform="translate(392.382812 0)"/>
      <use xlink:href="#DejaVuSans-6e" transform="translate(453.662109 0)"/>
      <use xlink:href="#DejaVuSans-63" transform="translate(517.041016 0)"/>
      <use xlink:href="#DejaVuSans-68" transform="translate(572.021484 0)"/>
      <use xlink:href="#DejaVuSans-20" transform="translate(635.400391 0)"/>
      <use xlink:href="#DejaVuSans-63" transform="translate(667.1875 0)"/>
      <use xlink:href="#DejaVuSans-6f" transform="translate(722.167969 0)"/>
      <use xlink:href="#DejaVuSans-76" transform="translate(783.349609 0)"/>
      <use xlink:href="#DejaVuSans-65" transform="translate(842.529297 0)"/>
      <use xlink:href="#DejaVuSans-72" transform="translate(904.052734 0)"/>
      <use xlink:href="#DejaVuSans-61" transform="translate(945.166016 0)"/>
      <use xlink:href="#DejaVuSans-67" transform="translate(1006.445312 0)"/>
      <use xlink:href="#DejaVuSans-65" transform="translate(1069.921875 0)"/>
     </g>
    </g>
   </g>
   <g id="line2d_20">
    <path d="M 53.328125 276.334125 
L 542.785586 84.681195 
L 581.927113 74.565531 
L 604.823439 67.017689 
L 621.068641 65.305807 
L 633.669399 62.737985 
L 643.964967 62.348921 
L 652.669746 61.726418 
L 660.210169 61.648606 
L 666.861293 58.224842 
L 672.810926 58.224842 
L 678.193024 57.680153 
L 683.106495 56.512961 
L 687.626449 55.968271 
L 691.811274 55.423581 
L 695.707252 55.190143 
L 699.351696 55.034517 
L 702.775126 54.723266 
L 706.002821 54.723266 
L 709.055958 54.645453 
L 711.952454 54.567641 
L 714.7076 53.633887 
L 717.334552 53.089197 
L 719.844711 53.089197 
L 722.248022 53.011385 
L 724.553211 53.011385 
L 726.767977 52.466695 
L 728.899146 51.377316 
L 730.952801 51.377316 
L 732.934383 51.377316 
L 734.84878 51.299503 
L 736.700398 51.299503 
L 738.493224 51.299503 
L 740.230878 51.299503 
L 741.916653 51.299503 
L 743.553559 51.299503 
L 745.144348 51.299503 
L 746.691549 51.299503 
L 748.197486 51.066065 
L 749.664303 50.988252 
L 751.093981 45.307917 
L 752.488356 44.685415 
L 753.849127 44.451976 
L 755.177878 44.218538 
L 756.476079 44.140725 
L 757.745106 44.062912 
L 758.986239 43.9851 
L 760.200679 43.907287 
L 761.38955 43.907287 
L 762.553906 43.829474 
L 763.694739 43.44041 
L 764.812979 42.506656 
" clip-path="url(#pc90df28f8a)" style="fill: none; stroke: #1f77b4; stroke-width: 1.5; stroke-linecap: square"/>
    <defs>
     <path id="mcc6ea54e35" d="M 0 3 
C 0.795609 3 1.55874 2.683901 2.12132 2.12132 
C 2.683901 1.55874 3 0.795609 3 0 
C 3 -0.795609 2.683901 -1.55874 2.12132 -2.12132 
C 1.55874 -2.683901 0.795609 -3 0 -3 
C -0.795609 -3 -1.55874 -2.683901 -2.12132 -2.12132 
C -2.683901 -1.55874 -3 -0.795609 -3 0 
C -3 0.795609 -2.683901 1.55874 -2.12132 2.12132 
C -1.55874 2.683901 -0.795609 3 0 3 
z
" style="stroke: #ffffff; stroke-width: 0.75"/>
    </defs>
    <g clip-path="url(#pc90df28f8a)">
     <use xlink:href="#mcc6ea54e35" x="53.328125" y="276.334125" style="fill: #1f77b4; stroke: #ffffff; stroke-width: 0.75"/>
     <use xlink:href="#mcc6ea54e35" x="542.785586" y="84.681195" style="fill: #1f77b4; stroke: #ffffff; stroke-width: 0.75"/>
     <use xlink:href="#mcc6ea54e35" x="581.927113" y="74.565531" style="fill: #1f77b4; stroke: #ffffff; stroke-width: 0.75"/>
     <use xlink:href="#mcc6ea54e35" x="604.823439" y="67.017689" style="fill: #1f77b4; stroke: #ffffff; stroke-width: 0.75"/>
     <use xlink:href="#mcc6ea54e35" x="621.068641" y="65.305807" style="fill: #1f77b4; stroke: #ffffff; stroke-width: 0.75"/>
     <use xlink:href="#mcc6ea54e35" x="633.669399" y="62.737985" style="fill: #1f77b4; stroke: #ffffff; stroke-width: 0.75"/>
     <use xlink:href="#mcc6ea54e35" x="643.964967" y="62.348921" style="fill: #1f77b4; stroke: #ffffff; stroke-width: 0.75"/>
     <use xlink:href="#mcc6ea54e35" x="652.669746" y="61.726418" style="fill: #1f77b4; stroke: #ffffff; stroke-width: 0.75"/>
     <use xlink:href="#mcc6ea54e35" x="660.210169" y="61.648606" style="fill: #1f77b4; stroke: #ffffff; stroke-width: 0.75"/>
     <use xlink:href="#mcc6ea54e35" x="666.861293" y="58.224842" style="fill: #1f77b4; stroke: #ffffff; stroke-width: 0.75"/>
     <use xlink:href="#mcc6ea54e35" x="672.810926" y="58.224842" style="fill: #1f77b4; stroke: #ffffff; stroke-width: 0.75"/>
     <use xlink:href="#mcc6ea54e35" x="678.193024" y="57.680153" style="fill: #1f77b4; stroke: #ffffff; stroke-width: 0.75"/>
     <use xlink:href="#mcc6ea54e35" x="683.106495" y="56.512961" style="fill: #1f77b4; stroke: #ffffff; stroke-width: 0.75"/>
     <use xlink:href="#mcc6ea54e35" x="687.626449" y="55.968271" style="fill: #1f77b4; stroke: #ffffff; stroke-width: 0.75"/>
     <use xlink:href="#mcc6ea54e35" x="691.811274" y="55.423581" style="fill: #1f77b4; stroke: #ffffff; stroke-width: 0.75"/>
     <use xlink:href="#mcc6ea54e35" x="695.707252" y="55.190143" style="fill: #1f77b4; stroke: #ffffff; stroke-width: 0.75"/>
     <use xlink:href="#mcc6ea54e35" x="699.351696" y="55.034517" style="fill: #1f77b4; stroke: #ffffff; stroke-width: 0.75"/>
     <use xlink:href="#mcc6ea54e35" x="702.775126" y="54.723266" style="fill: #1f77b4; stroke: #ffffff; stroke-width: 0.75"/>
     <use xlink:href="#mcc6ea54e35" x="706.002821" y="54.723266" style="fill: #1f77b4; stroke: #ffffff; stroke-width: 0.75"/>
     <use xlink:href="#mcc6ea54e35" x="709.055958" y="54.645453" style="fill: #1f77b4; stroke: #ffffff; stroke-width: 0.75"/>
     <use xlink:href="#mcc6ea54e35" x="711.952454" y="54.567641" style="fill: #1f77b4; stroke: #ffffff; stroke-width: 0.75"/>
     <use xlink:href="#mcc6ea54e35" x="714.7076" y="53.633887" style="fill: #1f77b4; stroke: #ffffff; stroke-width: 0.75"/>
     <use xlink:href="#mcc6ea54e35" x="717.334552" y="53.089197" style="fill: #1f77b4; stroke: #ffffff; stroke-width: 0.75"/>
     <use xlink:href="#mcc6ea54e35" x="719.844711" y="53.089197" style="fill: #1f77b4; stroke: #ffffff; stroke-width: 0.75"/>
     <use xlink:href="#mcc6ea54e35" x="722.248022" y="53.011385" style="fill: #1f77b4; stroke: #ffffff; stroke-width: 0.75"/>
     <use xlink:href="#mcc6ea54e35" x="724.553211" y="53.011385" style="fill: #1f77b4; stroke: #ffffff; stroke-width: 0.75"/>
     <use xlink:href="#mcc6ea54e35" x="726.767977" y="52.466695" style="fill: #1f77b4; stroke: #ffffff; stroke-width: 0.75"/>
     <use xlink:href="#mcc6ea54e35" x="728.899146" y="51.377316" style="fill: #1f77b4; stroke: #ffffff; stroke-width: 0.75"/>
     <use xlink:href="#mcc6ea54e35" x="730.952801" y="51.377316" style="fill: #1f77b4; stroke: #ffffff; stroke-width: 0.75"/>
     <use xlink:href="#mcc6ea54e35" x="732.934383" y="51.377316" style="fill: #1f77b4; stroke: #ffffff; stroke-width: 0.75"/>
     <use xlink:href="#mcc6ea54e35" x="734.84878" y="51.299503" style="fill: #1f77b4; stroke: #ffffff; stroke-width: 0.75"/>
     <use xlink:href="#mcc6ea54e35" x="736.700398" y="51.299503" style="fill: #1f77b4; stroke: #ffffff; stroke-width: 0.75"/>
     <use xlink:href="#mcc6ea54e35" x="738.493224" y="51.299503" style="fill: #1f77b4; stroke: #ffffff; stroke-width: 0.75"/>
     <use xlink:href="#mcc6ea54e35" x="740.230878" y="51.299503" style="fill: #1f77b4; stroke: #ffffff; stroke-width: 0.75"/>
     <use xlink:href="#mcc6ea54e35" x="741.916653" y="51.299503" style="fill: #1f77b4; stroke: #ffffff; stroke-width: 0.75"/>
     <use xlink:href="#mcc6ea54e35" x="743.553559" y="51.299503" style="fill: #1f77b4; stroke: #ffffff; stroke-width: 0.75"/>
     <use xlink:href="#mcc6ea54e35" x="745.144348" y="51.299503" style="fill: #1f77b4; stroke: #ffffff; stroke-width: 0.75"/>
     <use xlink:href="#mcc6ea54e35" x="746.691549" y="51.299503" style="fill: #1f77b4; stroke: #ffffff; stroke-width: 0.75"/>
     <use xlink:href="#mcc6ea54e35" x="748.197486" y="51.066065" style="fill: #1f77b4; stroke: #ffffff; stroke-width: 0.75"/>
     <use xlink:href="#mcc6ea54e35" x="749.664303" y="50.988252" style="fill: #1f77b4; stroke: #ffffff; stroke-width: 0.75"/>
     <use xlink:href="#mcc6ea54e35" x="751.093981" y="45.307917" style="fill: #1f77b4; stroke: #ffffff; stroke-width: 0.75"/>
     <use xlink:href="#mcc6ea54e35" x="752.488356" y="44.685415" style="fill: #1f77b4; stroke: #ffffff; stroke-width: 0.75"/>
     <use xlink:href="#mcc6ea54e35" x="753.849127" y="44.451976" style="fill: #1f77b4; stroke: #ffffff; stroke-width: 0.75"/>
     <use xlink:href="#mcc6ea54e35" x="755.177878" y="44.218538" style="fill: #1f77b4; stroke: #ffffff; stroke-width: 0.75"/>
     <use xlink:href="#mcc6ea54e35" x="756.476079" y="44.140725" style="fill: #1f77b4; stroke: #ffffff; stroke-width: 0.75"/>
     <use xlink:href="#mcc6ea54e35" x="757.745106" y="44.062912" style="fill: #1f77b4; stroke: #ffffff; stroke-width: 0.75"/>
     <use xlink:href="#mcc6ea54e35" x="758.986239" y="43.9851" style="fill: #1f77b4; stroke: #ffffff; stroke-width: 0.75"/>
     <use xlink:href="#mcc6ea54e35" x="760.200679" y="43.907287" style="fill: #1f77b4; stroke: #ffffff; stroke-width: 0.75"/>
     <use xlink:href="#mcc6ea54e35" x="761.38955" y="43.907287" style="fill: #1f77b4; stroke: #ffffff; stroke-width: 0.75"/>
     <use xlink:href="#mcc6ea54e35" x="762.553906" y="43.829474" style="fill: #1f77b4; stroke: #ffffff; stroke-width: 0.75"/>
     <use xlink:href="#mcc6ea54e35" x="763.694739" y="43.44041" style="fill: #1f77b4; stroke: #ffffff; stroke-width: 0.75"/>
     <use xlink:href="#mcc6ea54e35" x="764.812979" y="42.506656" style="fill: #1f77b4; stroke: #ffffff; stroke-width: 0.75"/>
    </g>
   </g>
   <g id="line2d_21">
    <path d="M 53.328125 276.334125 
L 542.785586 89.038712 
L 581.927113 88.182771 
L 604.823439 84.525569 
L 621.068641 82.8915 
L 633.669399 81.957747 
L 643.964967 80.557116 
L 652.669746 78.533983 
L 660.210169 77.911481 
L 666.861293 77.755855 
L 672.810926 76.199599 
L 678.193024 69.118634 
L 683.106495 68.262694 
L 687.626449 67.173314 
L 691.811274 66.006122 
L 695.707252 65.92831 
L 699.351696 63.360487 
L 702.775126 63.360487 
L 706.002821 62.582359 
L 709.055958 56.357335 
L 711.952454 55.812645 
L 714.7076 55.734833 
L 717.334552 55.65702 
L 719.844711 55.65702 
L 722.248022 55.65702 
L 724.553211 55.65702 
L 726.767977 55.65702 
L 728.899146 54.878892 
L 730.952801 54.178577 
L 732.934383 53.867325 
L 734.84878 53.633887 
L 736.700398 53.478261 
L 738.493224 53.478261 
L 740.230878 52.855759 
L 741.916653 52.700133 
L 743.553559 52.700133 
L 745.144348 50.910439 
L 746.691549 50.832626 
L 748.197486 50.443562 
L 749.664303 49.82106 
L 751.093981 49.042932 
L 752.488356 48.965119 
L 753.849127 49.042932 
L 755.177878 49.042932 
L 756.476079 49.042932 
L 757.745106 48.809493 
L 758.986239 48.809493 
L 760.200679 48.342616 
L 761.38955 48.186991 
L 762.553906 48.186991 
L 763.694739 48.186991 
L 764.812979 48.109178 
" clip-path="url(#pc90df28f8a)" style="fill: none; stroke: #d62728; stroke-width: 1.5; stroke-linecap: square"/>
    <defs>
     <path id="md390b28b83" d="M 0 -3 
L -3 3 
L 3 3 
z
" style="stroke: #ffffff; stroke-width: 0.75; stroke-linejoin: miter"/>
    </defs>
    <g clip-path="url(#pc90df28f8a)">
     <use xlink:href="#md390b28b83" x="53.328125" y="276.334125" style="fill: #d62728; stroke: #ffffff; stroke-width: 0.75; stroke-linejoin: miter"/>
     <use xlink:href="#md390b28b83" x="542.785586" y="89.038712" style="fill: #d62728; stroke: #ffffff; stroke-width: 0.75; stroke-linejoin: miter"/>
     <use xlink:href="#md390b28b83" x="581.927113" y="88.182771" style="fill: #d62728; stroke: #ffffff; stroke-width: 0.75; stroke-linejoin: miter"/>
     <use xlink:href="#md390b28b83" x="604.823439" y="84.525569" style="fill: #d62728; stroke: #ffffff; stroke-width: 0.75; stroke-linejoin: miter"/>
     <use xlink:href="#md390b28b83" x="621.068641" y="82.8915" style="fill: #d62728; stroke: #ffffff; stroke-width: 0.75; stroke-linejoin: miter"/>
     <use xlink:href="#md390b28b83" x="633.669399" y="81.957747" style="fill: #d62728; stroke: #ffffff; stroke-width: 0.75; stroke-linejoin: miter"/>
     <use xlink:href="#md390b28b83" x="643.964967" y="80.557116" style="fill: #d62728; stroke: #ffffff; stroke-width: 0.75; stroke-linejoin: miter"/>
     <use xlink:href="#md390b28b83" x="652.669746" y="78.533983" style="fill: #d62728; stroke: #ffffff; stroke-width: 0.75; stroke-linejoin: miter"/>
     <use xlink:href="#md390b28b83" x="660.210169" y="77.911481" style="fill: #d62728; stroke: #ffffff; stroke-width: 0.75; stroke-linejoin: miter"/>
     <use xlink:href="#md390b28b83" x="666.861293" y="77.755855" style="fill: #d62728; stroke: #ffffff; stroke-width: 0.75; stroke-linejoin: miter"/>
     <use xlink:href="#md390b28b83" x="672.810926" y="76.199599" style="fill: #d62728; stroke: #ffffff; stroke-width: 0.75; stroke-linejoin: miter"/>
     <use xlink:href="#md390b28b83" x="678.193024" y="69.118634" style="fill: #d62728; stroke: #ffffff; stroke-width: 0.75; stroke-linejoin: miter"/>
     <use xlink:href="#md390b28b83" x="683.106495" y="68.262694" style="fill: #d62728; stroke: #ffffff; stroke-width: 0.75; stroke-linejoin: miter"/>
     <use xlink:href="#md390b28b83" x="687.626449" y="67.173314" style="fill: #d62728; stroke: #ffffff; stroke-width: 0.75; stroke-linejoin: miter"/>
     <use xlink:href="#md390b28b83" x="691.811274" y="66.006122" style="fill: #d62728; stroke: #ffffff; stroke-width: 0.75; stroke-linejoin: miter"/>
     <use xlink:href="#md390b28b83" x="695.707252" y="65.92831" style="fill: #d62728; stroke: #ffffff; stroke-width: 0.75; stroke-linejoin: miter"/>
     <use xlink:href="#md390b28b83" x="699.351696" y="63.360487" style="fill: #d62728; stroke: #ffffff; stroke-width: 0.75; stroke-linejoin: miter"/>
     <use xlink:href="#md390b28b83" x="702.775126" y="63.360487" style="fill: #d62728; stroke: #ffffff; stroke-width: 0.75; stroke-linejoin: miter"/>
     <use xlink:href="#md390b28b83" x="706.002821" y="62.582359" style="fill: #d62728; stroke: #ffffff; stroke-width: 0.75; stroke-linejoin: miter"/>
     <use xlink:href="#md390b28b83" x="709.055958" y="56.357335" style="fill: #d62728; stroke: #ffffff; stroke-width: 0.75; stroke-linejoin: miter"/>
     <use xlink:href="#md390b28b83" x="711.952454" y="55.812645" style="fill: #d62728; stroke: #ffffff; stroke-width: 0.75; stroke-linejoin: miter"/>
     <use xlink:href="#md390b28b83" x="714.7076" y="55.734833" style="fill: #d62728; stroke: #ffffff; stroke-width: 0.75; stroke-linejoin: miter"/>
     <use xlink:href="#md390b28b83" x="717.334552" y="55.65702" style="fill: #d62728; stroke: #ffffff; stroke-width: 0.75; stroke-linejoin: miter"/>
     <use xlink:href="#md390b28b83" x="719.844711" y="55.65702" style="fill: #d62728; stroke: #ffffff; stroke-width: 0.75; stroke-linejoin: miter"/>
     <use xlink:href="#md390b28b83" x="722.248022" y="55.65702" style="fill: #d62728; stroke: #ffffff; stroke-width: 0.75; stroke-linejoin: miter"/>
     <use xlink:href="#md390b28b83" x="724.553211" y="55.65702" style="fill: #d62728; stroke: #ffffff; stroke-width: 0.75; stroke-linejoin: miter"/>
     <use xlink:href="#md390b28b83" x="726.767977" y="55.65702" style="fill: #d62728; stroke: #ffffff; stroke-width: 0.75; stroke-linejoin: miter"/>
     <use xlink:href="#md390b28b83" x="728.899146" y="54.878892" style="fill: #d62728; stroke: #ffffff; stroke-width: 0.75; stroke-linejoin: miter"/>
     <use xlink:href="#md390b28b83" x="730.952801" y="54.178577" style="fill: #d62728; stroke: #ffffff; stroke-width: 0.75; stroke-linejoin: miter"/>
     <use xlink:href="#md390b28b83" x="732.934383" y="53.867325" style="fill: #d62728; stroke: #ffffff; stroke-width: 0.75; stroke-linejoin: miter"/>
     <use xlink:href="#md390b28b83" x="734.84878" y="53.633887" style="fill: #d62728; stroke: #ffffff; stroke-width: 0.75; stroke-linejoin: miter"/>
     <use xlink:href="#md390b28b83" x="736.700398" y="53.478261" style="fill: #d62728; stroke: #ffffff; stroke-width: 0.75; stroke-linejoin: miter"/>
     <use xlink:href="#md390b28b83" x="738.493224" y="53.478261" style="fill: #d62728; stroke: #ffffff; stroke-width: 0.75; stroke-linejoin: miter"/>
     <use xlink:href="#md390b28b83" x="740.230878" y="52.855759" style="fill: #d62728; stroke: #ffffff; stroke-width: 0.75; stroke-linejoin: miter"/>
     <use xlink:href="#md390b28b83" x="741.916653" y="52.700133" style="fill: #d62728; stroke: #ffffff; stroke-width: 0.75; stroke-linejoin: miter"/>
     <use xlink:href="#md390b28b83" x="743.553559" y="52.700133" style="fill: #d62728; stroke: #ffffff; stroke-width: 0.75; stroke-linejoin: miter"/>
     <use xlink:href="#md390b28b83" x="745.144348" y="50.910439" style="fill: #d62728; stroke: #ffffff; stroke-width: 0.75; stroke-linejoin: miter"/>
     <use xlink:href="#md390b28b83" x="746.691549" y="50.832626" style="fill: #d62728; stroke: #ffffff; stroke-width: 0.75; stroke-linejoin: miter"/>
     <use xlink:href="#md390b28b83" x="748.197486" y="50.443562" style="fill: #d62728; stroke: #ffffff; stroke-width: 0.75; stroke-linejoin: miter"/>
     <use xlink:href="#md390b28b83" x="749.664303" y="49.82106" style="fill: #d62728; stroke: #ffffff; stroke-width: 0.75; stroke-linejoin: miter"/>
     <use xlink:href="#md390b28b83" x="751.093981" y="49.042932" style="fill: #d62728; stroke: #ffffff; stroke-width: 0.75; stroke-linejoin: miter"/>
     <use xlink:href="#md390b28b83" x="752.488356" y="48.965119" style="fill: #d62728; stroke: #ffffff; stroke-width: 0.75; stroke-linejoin: miter"/>
     <use xlink:href="#md390b28b83" x="753.849127" y="49.042932" style="fill: #d62728; stroke: #ffffff; stroke-width: 0.75; stroke-linejoin: miter"/>
     <use xlink:href="#md390b28b83" x="755.177878" y="49.042932" style="fill: #d62728; stroke: #ffffff; stroke-width: 0.75; stroke-linejoin: miter"/>
     <use xlink:href="#md390b28b83" x="756.476079" y="49.042932" style="fill: #d62728; stroke: #ffffff; stroke-width: 0.75; stroke-linejoin: miter"/>
     <use xlink:href="#md390b28b83" x="757.745106" y="48.809493" style="fill: #d62728; stroke: #ffffff; stroke-width: 0.75; stroke-linejoin: miter"/>
     <use xlink:href="#md390b28b83" x="758.986239" y="48.809493" style="fill: #d62728; stroke: #ffffff; stroke-width: 0.75; stroke-linejoin: miter"/>
     <use xlink:href="#md390b28b83" x="760.200679" y="48.342616" style="fill: #d62728; stroke: #ffffff; stroke-width: 0.75; stroke-linejoin: miter"/>
     <use xlink:href="#md390b28b83" x="761.38955" y="48.186991" style="fill: #d62728; stroke: #ffffff; stroke-width: 0.75; stroke-linejoin: miter"/>
     <use xlink:href="#md390b28b83" x="762.553906" y="48.186991" style="fill: #d62728; stroke: #ffffff; stroke-width: 0.75; stroke-linejoin: miter"/>
     <use xlink:href="#md390b28b83" x="763.694739" y="48.186991" style="fill: #d62728; stroke: #ffffff; stroke-width: 0.75; stroke-linejoin: miter"/>
     <use xlink:href="#md390b28b83" x="764.812979" y="48.109178" style="fill: #d62728; stroke: #ffffff; stroke-width: 0.75; stroke-linejoin: miter"/>
    </g>
   </g>
   <g id="line2d_22">
    <path d="M 53.328125 276.334125 
L 542.785586 83.124939 
L 581.927113 80.557116 
L 604.823439 79.312111 
L 621.068641 78.222732 
L 633.669399 76.199599 
L 643.964967 75.966161 
L 652.669746 75.810535 
L 660.210169 75.032407 
L 666.861293 74.798969 
L 672.810926 73.631777 
L 678.193024 70.441452 
L 683.106495 70.130201 
L 687.626449 70.130201 
L 691.811274 69.974575 
L 695.707252 69.27426 
L 699.351696 67.951442 
L 702.775126 66.472999 
L 706.002821 66.239561 
L 709.055958 63.127049 
L 711.952454 56.902025 
L 714.7076 56.824212 
L 717.334552 56.668586 
L 719.844711 56.357335 
L 722.248022 56.201709 
L 724.553211 55.734833 
L 726.767977 55.579207 
L 728.899146 55.579207 
L 730.952801 55.501394 
L 732.934383 53.011385 
L 734.84878 52.777946 
L 736.700398 52.622321 
L 738.493224 52.311069 
L 740.230878 52.077631 
L 741.916653 50.832626 
L 743.553559 49.976685 
L 745.144348 49.898873 
L 746.691549 49.82106 
L 748.197486 49.587621 
L 749.664303 49.587621 
L 751.093981 49.509808 
L 752.488356 48.186991 
L 753.849127 48.186991 
L 755.177878 47.87574 
L 756.476079 47.33105 
L 757.745106 47.097612 
L 758.986239 47.097612 
L 760.200679 47.097612 
L 761.38955 46.552922 
L 762.553906 46.475109 
L 763.694739 45.852607 
L 764.812979 45.774794 
" clip-path="url(#pc90df28f8a)" style="fill: none; stroke: #98df8a; stroke-width: 1.5; stroke-linecap: square"/>
    <defs>
     <path id="m0003463c45" d="M -0 3 
L 3 -3 
L -3 -3 
z
" style="stroke: #ffffff; stroke-width: 0.75; stroke-linejoin: miter"/>
    </defs>
    <g clip-path="url(#pc90df28f8a)">
     <use xlink:href="#m0003463c45" x="53.328125" y="276.334125" style="fill: #98df8a; stroke: #ffffff; stroke-width: 0.75; stroke-linejoin: miter"/>
     <use xlink:href="#m0003463c45" x="542.785586" y="83.124939" style="fill: #98df8a; stroke: #ffffff; stroke-width: 0.75; stroke-linejoin: miter"/>
     <use xlink:href="#m0003463c45" x="581.927113" y="80.557116" style="fill: #98df8a; stroke: #ffffff; stroke-width: 0.75; stroke-linejoin: miter"/>
     <use xlink:href="#m0003463c45" x="604.823439" y="79.312111" style="fill: #98df8a; stroke: #ffffff; stroke-width: 0.75; stroke-linejoin: miter"/>
     <use xlink:href="#m0003463c45" x="621.068641" y="78.222732" style="fill: #98df8a; stroke: #ffffff; stroke-width: 0.75; stroke-linejoin: miter"/>
     <use xlink:href="#m0003463c45" x="633.669399" y="76.199599" style="fill: #98df8a; stroke: #ffffff; stroke-width: 0.75; stroke-linejoin: miter"/>
     <use xlink:href="#m0003463c45" x="643.964967" y="75.966161" style="fill: #98df8a; stroke: #ffffff; stroke-width: 0.75; stroke-linejoin: miter"/>
     <use xlink:href="#m0003463c45" x="652.669746" y="75.810535" style="fill: #98df8a; stroke: #ffffff; stroke-width: 0.75; stroke-linejoin: miter"/>
     <use xlink:href="#m0003463c45" x="660.210169" y="75.032407" style="fill: #98df8a; stroke: #ffffff; stroke-width: 0.75; stroke-linejoin: miter"/>
     <use xlink:href="#m0003463c45" x="666.861293" y="74.798969" style="fill: #98df8a; stroke: #ffffff; stroke-width: 0.75; stroke-linejoin: miter"/>
     <use xlink:href="#m0003463c45" x="672.810926" y="73.631777" style="fill: #98df8a; stroke: #ffffff; stroke-width: 0.75; stroke-linejoin: miter"/>
     <use xlink:href="#m0003463c45" x="678.193024" y="70.441452" style="fill: #98df8a; stroke: #ffffff; stroke-width: 0.75; stroke-linejoin: miter"/>
     <use xlink:href="#m0003463c45" x="683.106495" y="70.130201" style="fill: #98df8a; stroke: #ffffff; stroke-width: 0.75; stroke-linejoin: miter"/>
     <use xlink:href="#m0003463c45" x="687.626449" y="70.130201" style="fill: #98df8a; stroke: #ffffff; stroke-width: 0.75; stroke-linejoin: miter"/>
     <use xlink:href="#m0003463c45" x="691.811274" y="69.974575" style="fill: #98df8a; stroke: #ffffff; stroke-width: 0.75; stroke-linejoin: miter"/>
     <use xlink:href="#m0003463c45" x="695.707252" y="69.27426" style="fill: #98df8a; stroke: #ffffff; stroke-width: 0.75; stroke-linejoin: miter"/>
     <use xlink:href="#m0003463c45" x="699.351696" y="67.951442" style="fill: #98df8a; stroke: #ffffff; stroke-width: 0.75; stroke-linejoin: miter"/>
     <use xlink:href="#m0003463c45" x="702.775126" y="66.472999" style="fill: #98df8a; stroke: #ffffff; stroke-width: 0.75; stroke-linejoin: miter"/>
     <use xlink:href="#m0003463c45" x="706.002821" y="66.239561" style="fill: #98df8a; stroke: #ffffff; stroke-width: 0.75; stroke-linejoin: miter"/>
     <use xlink:href="#m0003463c45" x="709.055958" y="63.127049" style="fill: #98df8a; stroke: #ffffff; stroke-width: 0.75; stroke-linejoin: miter"/>
     <use xlink:href="#m0003463c45" x="711.952454" y="56.902025" style="fill: #98df8a; stroke: #ffffff; stroke-width: 0.75; stroke-linejoin: miter"/>
     <use xlink:href="#m0003463c45" x="714.7076" y="56.824212" style="fill: #98df8a; stroke: #ffffff; stroke-width: 0.75; stroke-linejoin: miter"/>
     <use xlink:href="#m0003463c45" x="717.334552" y="56.668586" style="fill: #98df8a; stroke: #ffffff; stroke-width: 0.75; stroke-linejoin: miter"/>
     <use xlink:href="#m0003463c45" x="719.844711" y="56.357335" style="fill: #98df8a; stroke: #ffffff; stroke-width: 0.75; stroke-linejoin: miter"/>
     <use xlink:href="#m0003463c45" x="722.248022" y="56.201709" style="fill: #98df8a; stroke: #ffffff; stroke-width: 0.75; stroke-linejoin: miter"/>
     <use xlink:href="#m0003463c45" x="724.553211" y="55.734833" style="fill: #98df8a; stroke: #ffffff; stroke-width: 0.75; stroke-linejoin: miter"/>
     <use xlink:href="#m0003463c45" x="726.767977" y="55.579207" style="fill: #98df8a; stroke: #ffffff; stroke-width: 0.75; stroke-linejoin: miter"/>
     <use xlink:href="#m0003463c45" x="728.899146" y="55.579207" style="fill: #98df8a; stroke: #ffffff; stroke-width: 0.75; stroke-linejoin: miter"/>
     <use xlink:href="#m0003463c45" x="730.952801" y="55.501394" style="fill: #98df8a; stroke: #ffffff; stroke-width: 0.75; stroke-linejoin: miter"/>
     <use xlink:href="#m0003463c45" x="732.934383" y="53.011385" style="fill: #98df8a; stroke: #ffffff; stroke-width: 0.75; stroke-linejoin: miter"/>
     <use xlink:href="#m0003463c45" x="734.84878" y="52.777946" style="fill: #98df8a; stroke: #ffffff; stroke-width: 0.75; stroke-linejoin: miter"/>
     <use xlink:href="#m0003463c45" x="736.700398" y="52.622321" style="fill: #98df8a; stroke: #ffffff; stroke-width: 0.75; stroke-linejoin: miter"/>
     <use xlink:href="#m0003463c45" x="738.493224" y="52.311069" style="fill: #98df8a; stroke: #ffffff; stroke-width: 0.75; stroke-linejoin: miter"/>
     <use xlink:href="#m0003463c45" x="740.230878" y="52.077631" style="fill: #98df8a; stroke: #ffffff; stroke-width: 0.75; stroke-linejoin: miter"/>
     <use xlink:href="#m0003463c45" x="741.916653" y="50.832626" style="fill: #98df8a; stroke: #ffffff; stroke-width: 0.75; stroke-linejoin: miter"/>
     <use xlink:href="#m0003463c45" x="743.553559" y="49.976685" style="fill: #98df8a; stroke: #ffffff; stroke-width: 0.75; stroke-linejoin: miter"/>
     <use xlink:href="#m0003463c45" x="745.144348" y="49.898873" style="fill: #98df8a; stroke: #ffffff; stroke-width: 0.75; stroke-linejoin: miter"/>
     <use xlink:href="#m0003463c45" x="746.691549" y="49.82106" style="fill: #98df8a; stroke: #ffffff; stroke-width: 0.75; stroke-linejoin: miter"/>
     <use xlink:href="#m0003463c45" x="748.197486" y="49.587621" style="fill: #98df8a; stroke: #ffffff; stroke-width: 0.75; stroke-linejoin: miter"/>
     <use xlink:href="#m0003463c45" x="749.664303" y="49.587621" style="fill: #98df8a; stroke: #ffffff; stroke-width: 0.75; stroke-linejoin: miter"/>
     <use xlink:href="#m0003463c45" x="751.093981" y="49.509808" style="fill: #98df8a; stroke: #ffffff; stroke-width: 0.75; stroke-linejoin: miter"/>
     <use xlink:href="#m0003463c45" x="752.488356" y="48.186991" style="fill: #98df8a; stroke: #ffffff; stroke-width: 0.75; stroke-linejoin: miter"/>
     <use xlink:href="#m0003463c45" x="753.849127" y="48.186991" style="fill: #98df8a; stroke: #ffffff; stroke-width: 0.75; stroke-linejoin: miter"/>
     <use xlink:href="#m0003463c45" x="755.177878" y="47.87574" style="fill: #98df8a; stroke: #ffffff; stroke-width: 0.75; stroke-linejoin: miter"/>
     <use xlink:href="#m0003463c45" x="756.476079" y="47.33105" style="fill: #98df8a; stroke: #ffffff; stroke-width: 0.75; stroke-linejoin: miter"/>
     <use xlink:href="#m0003463c45" x="757.745106" y="47.097612" style="fill: #98df8a; stroke: #ffffff; stroke-width: 0.75; stroke-linejoin: miter"/>
     <use xlink:href="#m0003463c45" x="758.986239" y="47.097612" style="fill: #98df8a; stroke: #ffffff; stroke-width: 0.75; stroke-linejoin: miter"/>
     <use xlink:href="#m0003463c45" x="760.200679" y="47.097612" style="fill: #98df8a; stroke: #ffffff; stroke-width: 0.75; stroke-linejoin: miter"/>
     <use xlink:href="#m0003463c45" x="761.38955" y="46.552922" style="fill: #98df8a; stroke: #ffffff; stroke-width: 0.75; stroke-linejoin: miter"/>
     <use xlink:href="#m0003463c45" x="762.553906" y="46.475109" style="fill: #98df8a; stroke: #ffffff; stroke-width: 0.75; stroke-linejoin: miter"/>
     <use xlink:href="#m0003463c45" x="763.694739" y="45.852607" style="fill: #98df8a; stroke: #ffffff; stroke-width: 0.75; stroke-linejoin: miter"/>
     <use xlink:href="#m0003463c45" x="764.812979" y="45.774794" style="fill: #98df8a; stroke: #ffffff; stroke-width: 0.75; stroke-linejoin: miter"/>
    </g>
   </g>
   <g id="line2d_23">
    <path d="M 53.328125 276.334125 
L 542.785586 91.139657 
L 581.927113 81.568683 
L 604.823439 80.557116 
L 621.068641 79.234299 
L 633.669399 77.211166 
L 643.964967 76.277412 
L 652.669746 75.577097 
L 660.210169 75.499284 
L 666.861293 74.176467 
L 672.810926 73.320526 
L 678.193024 73.320526 
L 683.106495 73.009275 
L 687.626449 72.931462 
L 691.811274 72.698023 
L 695.707252 72.386772 
L 699.351696 72.386772 
L 702.775126 72.231147 
L 706.002821 72.231147 
L 709.055958 71.76427 
L 711.952454 71.297393 
L 714.7076 71.297393 
L 717.334552 71.297393 
L 719.844711 66.161748 
L 722.248022 65.694871 
L 724.553211 65.461433 
L 726.767977 64.916743 
L 728.899146 64.83893 
L 730.952801 64.83893 
L 732.934383 62.115482 
L 734.84878 61.415167 
L 736.700398 61.415167 
L 738.493224 61.415167 
L 740.230878 61.415167 
L 741.916653 60.870478 
L 743.553559 60.792665 
L 745.144348 60.559226 
L 746.691549 56.435148 
L 748.197486 56.201709 
L 749.664303 52.388882 
L 751.093981 51.844193 
L 752.488356 51.22169 
L 753.849127 50.677001 
L 755.177878 49.431996 
L 756.476079 49.431996 
L 757.745106 49.431996 
L 758.986239 49.431996 
L 760.200679 49.431996 
L 761.38955 49.431996 
L 762.553906 49.431996 
L 763.694739 48.031365 
L 764.812979 47.642301 
" clip-path="url(#pc90df28f8a)" style="fill: none; stroke: #c7c7c7; stroke-width: 1.5; stroke-linecap: square"/>
    <defs>
     <path id="m4fe448f4a6" d="M -3 -0 
L 3 3 
L 3 -3 
z
" style="stroke: #ffffff; stroke-width: 0.75; stroke-linejoin: miter"/>
    </defs>
    <g clip-path="url(#pc90df28f8a)">
     <use xlink:href="#m4fe448f4a6" x="53.328125" y="276.334125" style="fill: #c7c7c7; stroke: #ffffff; stroke-width: 0.75; stroke-linejoin: miter"/>
     <use xlink:href="#m4fe448f4a6" x="542.785586" y="91.139657" style="fill: #c7c7c7; stroke: #ffffff; stroke-width: 0.75; stroke-linejoin: miter"/>
     <use xlink:href="#m4fe448f4a6" x="581.927113" y="81.568683" style="fill: #c7c7c7; stroke: #ffffff; stroke-width: 0.75; stroke-linejoin: miter"/>
     <use xlink:href="#m4fe448f4a6" x="604.823439" y="80.557116" style="fill: #c7c7c7; stroke: #ffffff; stroke-width: 0.75; stroke-linejoin: miter"/>
     <use xlink:href="#m4fe448f4a6" x="621.068641" y="79.234299" style="fill: #c7c7c7; stroke: #ffffff; stroke-width: 0.75; stroke-linejoin: miter"/>
     <use xlink:href="#m4fe448f4a6" x="633.669399" y="77.211166" style="fill: #c7c7c7; stroke: #ffffff; stroke-width: 0.75; stroke-linejoin: miter"/>
     <use xlink:href="#m4fe448f4a6" x="643.964967" y="76.277412" style="fill: #c7c7c7; stroke: #ffffff; stroke-width: 0.75; stroke-linejoin: miter"/>
     <use xlink:href="#m4fe448f4a6" x="652.669746" y="75.577097" style="fill: #c7c7c7; stroke: #ffffff; stroke-width: 0.75; stroke-linejoin: miter"/>
     <use xlink:href="#m4fe448f4a6" x="660.210169" y="75.499284" style="fill: #c7c7c7; stroke: #ffffff; stroke-width: 0.75; stroke-linejoin: miter"/>
     <use xlink:href="#m4fe448f4a6" x="666.861293" y="74.176467" style="fill: #c7c7c7; stroke: #ffffff; stroke-width: 0.75; stroke-linejoin: miter"/>
     <use xlink:href="#m4fe448f4a6" x="672.810926" y="73.320526" style="fill: #c7c7c7; stroke: #ffffff; stroke-width: 0.75; stroke-linejoin: miter"/>
     <use xlink:href="#m4fe448f4a6" x="678.193024" y="73.320526" style="fill: #c7c7c7; stroke: #ffffff; stroke-width: 0.75; stroke-linejoin: miter"/>
     <use xlink:href="#m4fe448f4a6" x="683.106495" y="73.009275" style="fill: #c7c7c7; stroke: #ffffff; stroke-width: 0.75; stroke-linejoin: miter"/>
     <use xlink:href="#m4fe448f4a6" x="687.626449" y="72.931462" style="fill: #c7c7c7; stroke: #ffffff; stroke-width: 0.75; stroke-linejoin: miter"/>
     <use xlink:href="#m4fe448f4a6" x="691.811274" y="72.698023" style="fill: #c7c7c7; stroke: #ffffff; stroke-width: 0.75; stroke-linejoin: miter"/>
     <use xlink:href="#m4fe448f4a6" x="695.707252" y="72.386772" style="fill: #c7c7c7; stroke: #ffffff; stroke-width: 0.75; stroke-linejoin: miter"/>
     <use xlink:href="#m4fe448f4a6" x="699.351696" y="72.386772" style="fill: #c7c7c7; stroke: #ffffff; stroke-width: 0.75; stroke-linejoin: miter"/>
     <use xlink:href="#m4fe448f4a6" x="702.775126" y="72.231147" style="fill: #c7c7c7; stroke: #ffffff; stroke-width: 0.75; stroke-linejoin: miter"/>
     <use xlink:href="#m4fe448f4a6" x="706.002821" y="72.231147" style="fill: #c7c7c7; stroke: #ffffff; stroke-width: 0.75; stroke-linejoin: miter"/>
     <use xlink:href="#m4fe448f4a6" x="709.055958" y="71.76427" style="fill: #c7c7c7; stroke: #ffffff; stroke-width: 0.75; stroke-linejoin: miter"/>
     <use xlink:href="#m4fe448f4a6" x="711.952454" y="71.297393" style="fill: #c7c7c7; stroke: #ffffff; stroke-width: 0.75; stroke-linejoin: miter"/>
     <use xlink:href="#m4fe448f4a6" x="714.7076" y="71.297393" style="fill: #c7c7c7; stroke: #ffffff; stroke-width: 0.75; stroke-linejoin: miter"/>
     <use xlink:href="#m4fe448f4a6" x="717.334552" y="71.297393" style="fill: #c7c7c7; stroke: #ffffff; stroke-width: 0.75; stroke-linejoin: miter"/>
     <use xlink:href="#m4fe448f4a6" x="719.844711" y="66.161748" style="fill: #c7c7c7; stroke: #ffffff; stroke-width: 0.75; stroke-linejoin: miter"/>
     <use xlink:href="#m4fe448f4a6" x="722.248022" y="65.694871" style="fill: #c7c7c7; stroke: #ffffff; stroke-width: 0.75; stroke-linejoin: miter"/>
     <use xlink:href="#m4fe448f4a6" x="724.553211" y="65.461433" style="fill: #c7c7c7; stroke: #ffffff; stroke-width: 0.75; stroke-linejoin: miter"/>
     <use xlink:href="#m4fe448f4a6" x="726.767977" y="64.916743" style="fill: #c7c7c7; stroke: #ffffff; stroke-width: 0.75; stroke-linejoin: miter"/>
     <use xlink:href="#m4fe448f4a6" x="728.899146" y="64.83893" style="fill: #c7c7c7; stroke: #ffffff; stroke-width: 0.75; stroke-linejoin: miter"/>
     <use xlink:href="#m4fe448f4a6" x="730.952801" y="64.83893" style="fill: #c7c7c7; stroke: #ffffff; stroke-width: 0.75; stroke-linejoin: miter"/>
     <use xlink:href="#m4fe448f4a6" x="732.934383" y="62.115482" style="fill: #c7c7c7; stroke: #ffffff; stroke-width: 0.75; stroke-linejoin: miter"/>
     <use xlink:href="#m4fe448f4a6" x="734.84878" y="61.415167" style="fill: #c7c7c7; stroke: #ffffff; stroke-width: 0.75; stroke-linejoin: miter"/>
     <use xlink:href="#m4fe448f4a6" x="736.700398" y="61.415167" style="fill: #c7c7c7; stroke: #ffffff; stroke-width: 0.75; stroke-linejoin: miter"/>
     <use xlink:href="#m4fe448f4a6" x="738.493224" y="61.415167" style="fill: #c7c7c7; stroke: #ffffff; stroke-width: 0.75; stroke-linejoin: miter"/>
     <use xlink:href="#m4fe448f4a6" x="740.230878" y="61.415167" style="fill: #c7c7c7; stroke: #ffffff; stroke-width: 0.75; stroke-linejoin: miter"/>
     <use xlink:href="#m4fe448f4a6" x="741.916653" y="60.870478" style="fill: #c7c7c7; stroke: #ffffff; stroke-width: 0.75; stroke-linejoin: miter"/>
     <use xlink:href="#m4fe448f4a6" x="743.553559" y="60.792665" style="fill: #c7c7c7; stroke: #ffffff; stroke-width: 0.75; stroke-linejoin: miter"/>
     <use xlink:href="#m4fe448f4a6" x="745.144348" y="60.559226" style="fill: #c7c7c7; stroke: #ffffff; stroke-width: 0.75; stroke-linejoin: miter"/>
     <use xlink:href="#m4fe448f4a6" x="746.691549" y="56.435148" style="fill: #c7c7c7; stroke: #ffffff; stroke-width: 0.75; stroke-linejoin: miter"/>
     <use xlink:href="#m4fe448f4a6" x="748.197486" y="56.201709" style="fill: #c7c7c7; stroke: #ffffff; stroke-width: 0.75; stroke-linejoin: miter"/>
     <use xlink:href="#m4fe448f4a6" x="749.664303" y="52.388882" style="fill: #c7c7c7; stroke: #ffffff; stroke-width: 0.75; stroke-linejoin: miter"/>
     <use xlink:href="#m4fe448f4a6" x="751.093981" y="51.844193" style="fill: #c7c7c7; stroke: #ffffff; stroke-width: 0.75; stroke-linejoin: miter"/>
     <use xlink:href="#m4fe448f4a6" x="752.488356" y="51.22169" style="fill: #c7c7c7; stroke: #ffffff; stroke-width: 0.75; stroke-linejoin: miter"/>
     <use xlink:href="#m4fe448f4a6" x="753.849127" y="50.677001" style="fill: #c7c7c7; stroke: #ffffff; stroke-width: 0.75; stroke-linejoin: miter"/>
     <use xlink:href="#m4fe448f4a6" x="755.177878" y="49.431996" style="fill: #c7c7c7; stroke: #ffffff; stroke-width: 0.75; stroke-linejoin: miter"/>
     <use xlink:href="#m4fe448f4a6" x="756.476079" y="49.431996" style="fill: #c7c7c7; stroke: #ffffff; stroke-width: 0.75; stroke-linejoin: miter"/>
     <use xlink:href="#m4fe448f4a6" x="757.745106" y="49.431996" style="fill: #c7c7c7; stroke: #ffffff; stroke-width: 0.75; stroke-linejoin: miter"/>
     <use xlink:href="#m4fe448f4a6" x="758.986239" y="49.431996" style="fill: #c7c7c7; stroke: #ffffff; stroke-width: 0.75; stroke-linejoin: miter"/>
     <use xlink:href="#m4fe448f4a6" x="760.200679" y="49.431996" style="fill: #c7c7c7; stroke: #ffffff; stroke-width: 0.75; stroke-linejoin: miter"/>
     <use xlink:href="#m4fe448f4a6" x="761.38955" y="49.431996" style="fill: #c7c7c7; stroke: #ffffff; stroke-width: 0.75; stroke-linejoin: miter"/>
     <use xlink:href="#m4fe448f4a6" x="762.553906" y="49.431996" style="fill: #c7c7c7; stroke: #ffffff; stroke-width: 0.75; stroke-linejoin: miter"/>
     <use xlink:href="#m4fe448f4a6" x="763.694739" y="48.031365" style="fill: #c7c7c7; stroke: #ffffff; stroke-width: 0.75; stroke-linejoin: miter"/>
     <use xlink:href="#m4fe448f4a6" x="764.812979" y="47.642301" style="fill: #c7c7c7; stroke: #ffffff; stroke-width: 0.75; stroke-linejoin: miter"/>
    </g>
   </g>
   <g id="line2d_24"/>
   <g id="line2d_25"/>
   <g id="line2d_26"/>
   <g id="line2d_27"/>
   <g id="line2d_28">
    <path d="M 764.812979 288.430125 
L 764.812979 22.318125 
" clip-path="url(#pc90df28f8a)" style="fill: none; stroke: #ff0000; stroke-width: 1.5; stroke-linecap: square"/>
   </g>
   <g id="patch_3">
    <path d="M 53.328125 276.334125 
L 53.328125 42.89572 
" style="fill: none; stroke: #000000; stroke-width: 0.8; stroke-linejoin: miter; stroke-linecap: square"/>
   </g>
   <g id="patch_4">
    <path d="M 53.328125 288.430125 
L 764.814209 288.430125 
" style="fill: none; stroke: #000000; stroke-width: 0.8; stroke-linejoin: miter; stroke-linecap: square"/>
   </g>
   <g id="text_18">
    <!-- libpcap_fuzz_both (12h:45m, at least 5 trials/fuzzer) -->
    <g transform="translate(254.094688 16.318125) scale(0.12 -0.12)">
     <defs>
      <path id="DejaVuSans-6c" d="M 603 4863 
L 1178 4863 
L 1178 0 
L 603 0 
L 603 4863 
z
" transform="scale(0.015625)"/>
      <path id="DejaVuSans-70" d="M 1159 525 
L 1159 -1331 
L 581 -1331 
L 581 3500 
L 1159 3500 
L 1159 2969 
Q 1341 3281 1617 3432 
Q 1894 3584 2278 3584 
Q 2916 3584 3314 3078 
Q 3713 2572 3713 1747 
Q 3713 922 3314 415 
Q 2916 -91 2278 -91 
Q 1894 -91 1617 61 
Q 1341 213 1159 525 
z
M 3116 1747 
Q 3116 2381 2855 2742 
Q 2594 3103 2138 3103 
Q 1681 3103 1420 2742 
Q 1159 2381 1159 1747 
Q 1159 1113 1420 752 
Q 1681 391 2138 391 
Q 2594 391 2855 752 
Q 3116 1113 3116 1747 
z
" transform="scale(0.015625)"/>
      <path id="DejaVuSans-5f" d="M 3263 -1063 
L 3263 -1509 
L -63 -1509 
L -63 -1063 
L 3263 -1063 
z
" transform="scale(0.015625)"/>
      <path id="DejaVuSans-66" d="M 2375 4863 
L 2375 4384 
L 1825 4384 
Q 1516 4384 1395 4259 
Q 1275 4134 1275 3809 
L 1275 3500 
L 2222 3500 
L 2222 3053 
L 1275 3053 
L 1275 0 
L 697 0 
L 697 3053 
L 147 3053 
L 147 3500 
L 697 3500 
L 697 3744 
Q 697 4328 969 4595 
Q 1241 4863 1831 4863 
L 2375 4863 
z
" transform="scale(0.015625)"/>
      <path id="DejaVuSans-7a" d="M 353 3500 
L 3084 3500 
L 3084 2975 
L 922 459 
L 3084 459 
L 3084 0 
L 275 0 
L 275 525 
L 2438 3041 
L 353 3041 
L 353 3500 
z
" transform="scale(0.015625)"/>
      <path id="DejaVuSans-2c" d="M 750 794 
L 1409 794 
L 1409 256 
L 897 -744 
L 494 -744 
L 750 256 
L 750 794 
z
" transform="scale(0.015625)"/>
      <path id="DejaVuSans-73" d="M 2834 3397 
L 2834 2853 
Q 2591 2978 2328 3040 
Q 2066 3103 1784 3103 
Q 1356 3103 1142 2972 
Q 928 2841 928 2578 
Q 928 2378 1081 2264 
Q 1234 2150 1697 2047 
L 1894 2003 
Q 2506 1872 2764 1633 
Q 3022 1394 3022 966 
Q 3022 478 2636 193 
Q 2250 -91 1575 -91 
Q 1294 -91 989 -36 
Q 684 19 347 128 
L 347 722 
Q 666 556 975 473 
Q 1284 391 1588 391 
Q 1994 391 2212 530 
Q 2431 669 2431 922 
Q 2431 1156 2273 1281 
Q 2116 1406 1581 1522 
L 1381 1569 
Q 847 1681 609 1914 
Q 372 2147 372 2553 
Q 372 3047 722 3315 
Q 1072 3584 1716 3584 
Q 2034 3584 2315 3537 
Q 2597 3491 2834 3397 
z
" transform="scale(0.015625)"/>
      <path id="DejaVuSans-2f" d="M 1625 4666 
L 2156 4666 
L 531 -594 
L 0 -594 
L 1625 4666 
z
" transform="scale(0.015625)"/>
     </defs>
     <use xlink:href="#DejaVuSans-6c"/>
     <use xlink:href="#DejaVuSans-69" transform="translate(27.783203 0)"/>
     <use xlink:href="#DejaVuSans-62" transform="translate(55.566406 0)"/>
     <use xlink:href="#DejaVuSans-70" transform="translate(119.042969 0)"/>
     <use xlink:href="#DejaVuSans-63" transform="translate(182.519531 0)"/>
     <use xlink:href="#DejaVuSans-61" transform="translate(237.5 0)"/>
     <use xlink:href="#DejaVuSans-70" transform="translate(298.779297 0)"/>
     <use xlink:href="#DejaVuSans-5f" transform="translate(362.255859 0)"/>
     <use xlink:href="#DejaVuSans-66" transform="translate(412.255859 0)"/>
     <use xlink:href="#DejaVuSans-75" transform="translate(447.460938 0)"/>
     <use xlink:href="#DejaVuSans-7a" transform="translate(510.839844 0)"/>
     <use xlink:href="#DejaVuSans-7a" transform="translate(563.330078 0)"/>
     <use xlink:href="#DejaVuSans-5f" transform="translate(615.820312 0)"/>
     <use xlink:href="#DejaVuSans-62" transform="translate(665.820312 0)"/>
     <use xlink:href="#DejaVuSans-6f" transform="translate(729.296875 0)"/>
     <use xlink:href="#DejaVuSans-74" transform="translate(790.478516 0)"/>
     <use xlink:href="#DejaVuSans-68" transform="translate(829.6875 0)"/>
     <use xlink:href="#DejaVuSans-20" transform="translate(893.066406 0)"/>
     <use xlink:href="#DejaVuSans-28" transform="translate(924.853516 0)"/>
     <use xlink:href="#DejaVuSans-31" transform="translate(963.867188 0)"/>
     <use xlink:href="#DejaVuSans-32" transform="translate(1027.490234 0)"/>
     <use xlink:href="#DejaVuSans-68" transform="translate(1091.113281 0)"/>
     <use xlink:href="#DejaVuSans-3a" transform="translate(1154.492188 0)"/>
     <use xlink:href="#DejaVuSans-34" transform="translate(1188.183594 0)"/>
     <use xlink:href="#DejaVuSans-35" transform="translate(1251.806641 0)"/>
     <use xlink:href="#DejaVuSans-6d" transform="translate(1315.429688 0)"/>
     <use xlink:href="#DejaVuSans-2c" transform="translate(1412.841797 0)"/>
     <use xlink:href="#DejaVuSans-20" transform="translate(1444.628906 0)"/>
     <use xlink:href="#DejaVuSans-61" transform="translate(1476.416016 0)"/>
     <use xlink:href="#DejaVuSans-74" transform="translate(1537.695312 0)"/>
     <use xlink:href="#DejaVuSans-20" transform="translate(1576.904297 0)"/>
     <use xlink:href="#DejaVuSans-6c" transform="translate(1608.691406 0)"/>
     <use xlink:href="#DejaVuSans-65" transform="translate(1636.474609 0)"/>
     <use xlink:href="#DejaVuSans-61" transform="translate(1697.998047 0)"/>
     <use xlink:href="#DejaVuSans-73" transform="translate(1759.277344 0)"/>
     <use xlink:href="#DejaVuSans-74" transform="translate(1811.376953 0)"/>
     <use xlink:href="#DejaVuSans-20" transform="translate(1850.585938 0)"/>
     <use xlink:href="#DejaVuSans-35" transform="translate(1882.373047 0)"/>
     <use xlink:href="#DejaVuSans-20" transform="translate(1945.996094 0)"/>
     <use xlink:href="#DejaVuSans-74" transform="translate(1977.783203 0)"/>
     <use xlink:href="#DejaVuSans-72" transform="translate(2016.992188 0)"/>
     <use xlink:href="#DejaVuSans-69" transform="translate(2058.105469 0)"/>
     <use xlink:href="#DejaVuSans-61" transform="translate(2085.888672 0)"/>
     <use xlink:href="#DejaVuSans-6c" transform="translate(2147.167969 0)"/>
     <use xlink:href="#DejaVuSans-73" transform="translate(2174.951172 0)"/>
     <use xlink:href="#DejaVuSans-2f" transform="translate(2227.050781 0)"/>
     <use xlink:href="#DejaVuSans-66" transform="translate(2260.742188 0)"/>
     <use xlink:href="#DejaVuSans-75" transform="translate(2295.947266 0)"/>
     <use xlink:href="#DejaVuSans-7a" transform="translate(2359.326172 0)"/>
     <use xlink:href="#DejaVuSans-7a" transform="translate(2411.816406 0)"/>
     <use xlink:href="#DejaVuSans-65" transform="translate(2464.306641 0)"/>
     <use xlink:href="#DejaVuSans-72" transform="translate(2525.830078 0)"/>
     <use xlink:href="#DejaVuSans-29" transform="translate(2566.943359 0)"/>
    </g>
   </g>
   <g id="legend_1">
    <g id="line2d_29">
     <path d="M 771.568125 30.416562 
L 781.568125 30.416562 
L 791.568125 30.416562 
" style="fill: none; stroke: #1f77b4; stroke-width: 1.5; stroke-linecap: square"/>
     <g>
      <use xlink:href="#mcc6ea54e35" x="781.568125" y="30.416562" style="fill: #1f77b4; stroke: #ffffff; stroke-width: 0.75"/>
     </g>
    </g>
    <g id="text_19">
     <!-- aflplusplus_440c -->
     <g transform="translate(799.568125 33.916562) scale(0.1 -0.1)">
      <use xlink:href="#DejaVuSans-61"/>
      <use xlink:href="#DejaVuSans-66" transform="translate(61.279297 0)"/>
      <use xlink:href="#DejaVuSans-6c" transform="translate(96.484375 0)"/>
      <use xlink:href="#DejaVuSans-70" transform="translate(124.267578 0)"/>
      <use xlink:href="#DejaVuSans-6c" transform="translate(187.744141 0)"/>
      <use xlink:href="#DejaVuSans-75" transform="translate(215.527344 0)"/>
      <use xlink:href="#DejaVuSans-73" transform="translate(278.90625 0)"/>
      <use xlink:href="#DejaVuSans-70" transform="translate(331.005859 0)"/>
      <use xlink:href="#DejaVuSans-6c" transform="translate(394.482422 0)"/>
      <use xlink:href="#DejaVuSans-75" transform="translate(422.265625 0)"/>
      <use xlink:href="#DejaVuSans-73" transform="translate(485.644531 0)"/>
      <use xlink:href="#DejaVuSans-5f" transform="translate(537.744141 0)"/>
      <use xlink:href="#DejaVuSans-34" transform="translate(587.744141 0)"/>
      <use xlink:href="#DejaVuSans-34" transform="translate(651.367188 0)"/>
      <use xlink:href="#DejaVuSans-30" transform="translate(714.990234 0)"/>
      <use xlink:href="#DejaVuSans-63" transform="translate(778.613281 0)"/>
     </g>
    </g>
    <g id="line2d_30">
     <path d="M 771.568125 45.372813 
L 781.568125 45.372813 
L 791.568125 45.372813 
" style="fill: none; stroke: #d62728; stroke-width: 1.5; stroke-linecap: square"/>
     <g>
      <use xlink:href="#md390b28b83" x="781.568125" y="45.372813" style="fill: #d62728; stroke: #ffffff; stroke-width: 0.75; stroke-linejoin: miter"/>
     </g>
    </g>
    <g id="text_20">
     <!-- aflplusplus_c11 -->
     <g transform="translate(799.568125 48.872813) scale(0.1 -0.1)">
      <use xlink:href="#DejaVuSans-61"/>
      <use xlink:href="#DejaVuSans-66" transform="translate(61.279297 0)"/>
      <use xlink:href="#DejaVuSans-6c" transform="translate(96.484375 0)"/>
      <use xlink:href="#DejaVuSans-70" transform="translate(124.267578 0)"/>
      <use xlink:href="#DejaVuSans-6c" transform="translate(187.744141 0)"/>
      <use xlink:href="#DejaVuSans-75" transform="translate(215.527344 0)"/>
      <use xlink:href="#DejaVuSans-73" transform="translate(278.90625 0)"/>
      <use xlink:href="#DejaVuSans-70" transform="translate(331.005859 0)"/>
      <use xlink:href="#DejaVuSans-6c" transform="translate(394.482422 0)"/>
      <use xlink:href="#DejaVuSans-75" transform="translate(422.265625 0)"/>
      <use xlink:href="#DejaVuSans-73" transform="translate(485.644531 0)"/>
      <use xlink:href="#DejaVuSans-5f" transform="translate(537.744141 0)"/>
      <use xlink:href="#DejaVuSans-63" transform="translate(587.744141 0)"/>
      <use xlink:href="#DejaVuSans-31" transform="translate(642.724609 0)"/>
      <use xlink:href="#DejaVuSans-31" transform="translate(706.347656 0)"/>
     </g>
    </g>
    <g id="line2d_31">
     <path d="M 771.568125 60.329063 
L 781.568125 60.329063 
L 791.568125 60.329063 
" style="fill: none; stroke: #98df8a; stroke-width: 1.5; stroke-linecap: square"/>
     <g>
      <use xlink:href="#m0003463c45" x="781.568125" y="60.329063" style="fill: #98df8a; stroke: #ffffff; stroke-width: 0.75; stroke-linejoin: miter"/>
     </g>
    </g>
    <g id="text_21">
     <!-- aflplusplus_500c -->
     <g transform="translate(799.568125 63.829063) scale(0.1 -0.1)">
      <use xlink:href="#DejaVuSans-61"/>
      <use xlink:href="#DejaVuSans-66" transform="translate(61.279297 0)"/>
      <use xlink:href="#DejaVuSans-6c" transform="translate(96.484375 0)"/>
      <use xlink:href="#DejaVuSans-70" transform="translate(124.267578 0)"/>
      <use xlink:href="#DejaVuSans-6c" transform="translate(187.744141 0)"/>
      <use xlink:href="#DejaVuSans-75" transform="translate(215.527344 0)"/>
      <use xlink:href="#DejaVuSans-73" transform="translate(278.90625 0)"/>
      <use xlink:href="#DejaVuSans-70" transform="translate(331.005859 0)"/>
      <use xlink:href="#DejaVuSans-6c" transform="translate(394.482422 0)"/>
      <use xlink:href="#DejaVuSans-75" transform="translate(422.265625 0)"/>
      <use xlink:href="#DejaVuSans-73" transform="translate(485.644531 0)"/>
      <use xlink:href="#DejaVuSans-5f" transform="translate(537.744141 0)"/>
      <use xlink:href="#DejaVuSans-35" transform="translate(587.744141 0)"/>
      <use xlink:href="#DejaVuSans-30" transform="translate(651.367188 0)"/>
      <use xlink:href="#DejaVuSans-30" transform="translate(714.990234 0)"/>
      <use xlink:href="#DejaVuSans-63" transform="translate(778.613281 0)"/>
     </g>
    </g>
    <g id="line2d_32">
     <path d="M 771.568125 75.285313 
L 781.568125 75.285313 
L 791.568125 75.285313 
" style="fill: none; stroke: #c7c7c7; stroke-width: 1.5; stroke-linecap: square"/>
     <g>
      <use xlink:href="#m4fe448f4a6" x="781.568125" y="75.285313" style="fill: #c7c7c7; stroke: #ffffff; stroke-width: 0.75; stroke-linejoin: miter"/>
     </g>
    </g>
    <g id="text_22">
     <!-- aflplusplus_mopt -->
     <g transform="translate(799.568125 78.785313) scale(0.1 -0.1)">
      <use xlink:href="#DejaVuSans-61"/>
      <use xlink:href="#DejaVuSans-66" transform="translate(61.279297 0)"/>
      <use xlink:href="#DejaVuSans-6c" transform="translate(96.484375 0)"/>
      <use xlink:href="#DejaVuSans-70" transform="translate(124.267578 0)"/>
      <use xlink:href="#DejaVuSans-6c" transform="translate(187.744141 0)"/>
      <use xlink:href="#DejaVuSans-75" transform="translate(215.527344 0)"/>
      <use xlink:href="#DejaVuSans-73" transform="translate(278.90625 0)"/>
      <use xlink:href="#DejaVuSans-70" transform="translate(331.005859 0)"/>
      <use xlink:href="#DejaVuSans-6c" transform="translate(394.482422 0)"/>
      <use xlink:href="#DejaVuSans-75" transform="translate(422.265625 0)"/>
      <use xlink:href="#DejaVuSans-73" transform="translate(485.644531 0)"/>
      <use xlink:href="#DejaVuSans-5f" transform="translate(537.744141 0)"/>
      <use xlink:href="#DejaVuSans-6d" transform="translate(587.744141 0)"/>
      <use xlink:href="#DejaVuSans-6f" transform="translate(685.15625 0)"/>
      <use xlink:href="#DejaVuSans-70" transform="translate(746.337891 0)"/>
      <use xlink:href="#DejaVuSans-74" transform="translate(809.814453 0)"/>
     </g>
    </g>
   </g>
  </g>
 </g>
 <defs>
  <clipPath id="pc90df28f8a">
   <rect x="53.328125" y="22.318125" width="714.24" height="266.112"/>
  </clipPath>
 </defs>
</svg>
