<?xml version="1.0" encoding="utf-8" standalone="no"?>
<!DOCTYPE svg PUBLIC "-//W3C//DTD SVG 1.1//EN"
  "http://www.w3.org/Graphics/SVG/1.1/DTD/svg11.dtd">
<svg xmlns:xlink="http://www.w3.org/1999/xlink" width="895.669687pt" height="325.986375pt" viewBox="0 0 895.669687 325.986375" xmlns="http://www.w3.org/2000/svg" version="1.1">
 <metadata>
  <rdf:RDF xmlns:dc="http://purl.org/dc/elements/1.1/" xmlns:cc="http://creativecommons.org/ns#" xmlns:rdf="http://www.w3.org/1999/02/22-rdf-syntax-ns#">
   <cc:Work>
    <dc:type rdf:resource="http://purl.org/dc/dcmitype/StillImage"/>
    <dc:date>2026-06-10T01:16:11.408473</dc:date>
    <dc:format>image/svg+xml</dc:format>
    <dc:creator>
     <cc:Agent>
      <dc:title>Matplotlib v3.10.9, https://matplotlib.org/</dc:title>
     </cc:Agent>
    </dc:creator>
   </cc:Work>
  </rdf:RDF>
 </metadata>
 <defs>
  <style type="text/css">*{stroke-linejoin: round; stroke-linecap: butt}</style>
 </defs>
 <g id="figure_1">
  <g id="patch_1">
   <path d="M 0 325.986375 
L 895.669688 325.986375 
L 895.669688 0 
L 0 0 
z
" style="fill: #ffffff"/>
  </g>
  <g id="axes_1">
   <g id="patch_2">
    <path d="M 53.328125 288.430125 
L 767.568125 288.430125 
L 767.568125 22.318125 
L 53.328125 22.318125 
z
" style="fill: #ffffff"/>
   </g>
   <g id="FillBetweenPolyCollection_1">
    <defs>
     <path id="mb59c556238" d="M 53.328125 -49.65225 
L 53.328125 -49.65225 
L 71.228877 -223.116216 
L 89.129629 -226.66112 
L 107.030381 -228.551736 
L 124.931133 -234.459909 
L 142.831884 -235.799095 
L 160.732636 -236.901954 
L 178.633388 -237.847261 
L 196.53414 -242.888903 
L 214.434892 -244.306864 
L 232.335644 -244.38564 
L 250.236396 -244.621967 
L 268.137148 -245.094621 
L 286.037899 -248.088095 
L 303.938651 -253.996268 
L 321.839403 -256.595864 
L 339.740155 -256.753416 
L 357.640907 -257.304845 
L 375.541659 -262.346486 
L 393.442411 -262.504038 
L 411.343163 -264.237102 
L 429.243914 -264.237102 
L 447.144666 -264.237102 
L 465.045418 -266.048942 
L 482.94617 -266.048942 
L 500.846922 -266.364044 
L 518.747674 -266.44282 
L 536.648426 -266.679147 
L 554.549178 -266.915474 
L 572.44993 -267.388128 
L 590.350681 -267.939557 
L 608.251433 -268.25466 
L 626.152185 -268.25466 
L 644.052937 -268.25466 
L 661.953689 -268.333435 
L 679.854441 -268.569762 
L 697.755193 -268.806089 
L 715.655945 -268.884865 
L 733.556696 -268.884865 
L 733.556696 -291.57225 
L 733.556696 -291.57225 
L 715.655945 -291.414699 
L 697.755193 -283.61591 
L 679.854441 -283.61591 
L 661.953689 -283.300807 
L 644.052937 -283.064481 
L 626.152185 -282.749378 
L 608.251433 -282.591827 
L 590.350681 -281.725295 
L 572.44993 -281.410192 
L 554.549178 -281.410192 
L 536.648426 -281.252641 
L 518.747674 -281.252641 
L 500.846922 -281.252641 
L 482.94617 -281.173865 
L 465.045418 -280.701211 
L 447.144666 -280.54366 
L 429.243914 -280.149782 
L 411.343163 -276.998756 
L 393.442411 -276.998756 
L 375.541659 -276.91998 
L 357.640907 -276.683653 
L 339.740155 -276.683653 
L 321.839403 -276.526102 
L 303.938651 -275.65957 
L 286.037899 -274.477935 
L 268.137148 -265.733839 
L 250.236396 -265.261185 
L 232.335644 -264.946083 
L 214.434892 -264.552204 
L 196.53414 -264.158326 
L 178.633388 -262.346486 
L 160.732636 -258.328929 
L 142.831884 -258.250153 
L 124.931133 -253.208512 
L 107.030381 -252.657082 
L 89.129629 -250.608916 
L 71.228877 -246.118704 
L 53.328125 -49.65225 
z
" style="stroke: #d62728; stroke-opacity: 0.2"/>
    </defs>
    <g clip-path="url(#p6b7b266e94)">
     <use xlink:href="#mb59c556238" x="0" y="325.986375" style="fill: #d62728; fill-opacity: 0.2; stroke: #d62728; stroke-opacity: 0.2"/>
    </g>
   </g>
   <g id="FillBetweenPolyCollection_2">
    <defs>
     <path id="m6980052988" d="M 53.328125 -49.65225 
L 53.328125 -49.65225 
L 71.228877 -227.842755 
L 89.129629 -230.127248 
L 107.030381 -237.374608 
L 124.931133 -241.628492 
L 142.831884 -248.797076 
L 160.732636 -256.123211 
L 178.633388 -257.541172 
L 196.53414 -257.619948 
L 214.434892 -257.856275 
L 232.335644 -257.856275 
L 250.236396 -258.013826 
L 268.137148 -258.880358 
L 286.037899 -259.353012 
L 303.938651 -261.0073 
L 321.839403 -261.086076 
L 339.740155 -261.086076 
L 357.640907 -261.164852 
L 375.541659 -261.322403 
L 393.442411 -263.291794 
L 411.343163 -263.606897 
L 429.243914 -263.685672 
L 447.144666 -264.000775 
L 465.045418 -264.315877 
L 482.94617 -264.552204 
L 500.846922 -265.89139 
L 518.747674 -266.364044 
L 536.648426 -266.285269 
L 554.549178 -267.70323 
L 572.44993 -267.939557 
L 590.350681 -268.175884 
L 608.251433 -269.278743 
L 626.152185 -270.066499 
L 644.052937 -270.617929 
L 661.953689 -270.617929 
L 679.854441 -270.77548 
L 697.755193 -270.854256 
L 715.655945 -270.933032 
L 733.556696 -271.720788 
L 733.556696 -286.057955 
L 733.556696 -286.057955 
L 715.655945 -286.057955 
L 697.755193 -286.057955 
L 679.854441 -286.057955 
L 661.953689 -285.979179 
L 644.052937 -285.900404 
L 626.152185 -285.348974 
L 608.251433 -285.348974 
L 590.350681 -285.270199 
L 572.44993 -285.191423 
L 554.549178 -285.191423 
L 536.648426 -284.955096 
L 518.747674 -284.955096 
L 500.846922 -284.718769 
L 482.94617 -284.639993 
L 465.045418 -284.482442 
L 447.144666 -284.16734 
L 429.243914 -283.379583 
L 411.343163 -281.80407 
L 393.442411 -281.80407 
L 375.541659 -281.725295 
L 357.640907 -281.646519 
L 339.740155 -281.016314 
L 321.839403 -281.016314 
L 303.938651 -280.701211 
L 286.037899 -280.622436 
L 268.137148 -280.149782 
L 250.236396 -278.810596 
L 232.335644 -277.707737 
L 214.434892 -277.707737 
L 196.53414 -275.895897 
L 178.633388 -275.65957 
L 160.732636 -275.502019 
L 142.831884 -274.477935 
L 124.931133 -266.679147 
L 107.030381 -265.339961 
L 89.129629 -263.291794 
L 71.228877 -262.110159 
L 53.328125 -49.65225 
z
" style="stroke: #1f77b4; stroke-opacity: 0.2"/>
    </defs>
    <g clip-path="url(#p6b7b266e94)">
     <use xlink:href="#m6980052988" x="0" y="325.986375" style="fill: #1f77b4; fill-opacity: 0.2; stroke: #1f77b4; stroke-opacity: 0.2"/>
    </g>
   </g>
   <g id="FillBetweenPolyCollection_3">
    <defs>
     <path id="m43d64c14a4" d="M 53.328125 -49.65225 
L 53.328125 -49.65225 
L 71.228877 -225.006832 
L 89.129629 -227.21255 
L 107.030381 -230.678678 
L 124.931133 -231.623986 
L 142.831884 -234.223582 
L 160.732636 -235.483992 
L 178.633388 -235.483992 
L 196.53414 -235.799095 
L 214.434892 -236.035422 
L 232.335644 -238.004813 
L 250.236396 -239.895428 
L 268.137148 -242.179922 
L 286.037899 -242.967678 
L 303.938651 -243.597883 
L 321.839403 -245.803601 
L 339.740155 -246.039928 
L 357.640907 -246.039928 
L 375.541659 -246.039928 
L 393.442411 -246.591358 
L 411.343163 -246.670133 
L 429.243914 -246.670133 
L 447.144666 -246.748909 
L 465.045418 -246.827685 
L 482.94617 -246.827685 
L 500.846922 -246.827685 
L 518.747674 -246.827685 
L 536.648426 -246.827685 
L 554.549178 -246.827685 
L 572.44993 -246.90646 
L 590.350681 -247.064012 
L 608.251433 -247.064012 
L 626.152185 -247.379114 
L 644.052937 -247.930544 
L 661.953689 -248.324422 
L 679.854441 -248.324422 
L 697.755193 -248.560749 
L 715.655945 -253.681166 
L 733.556696 -254.547698 
L 733.556696 -291.257147 
L 733.556696 -291.257147 
L 715.655945 -291.257147 
L 697.755193 -291.178372 
L 679.854441 -290.863269 
L 661.953689 -290.548167 
L 644.052937 -290.548167 
L 626.152185 -290.390615 
L 608.251433 -289.602859 
L 590.350681 -289.524083 
L 572.44993 -288.342449 
L 554.549178 -287.712243 
L 536.648426 -287.160814 
L 518.747674 -286.68816 
L 500.846922 -284.16734 
L 482.94617 -283.852237 
L 465.045418 -281.646519 
L 447.144666 -281.331416 
L 429.243914 -281.252641 
L 411.343163 -281.016314 
L 393.442411 -281.016314 
L 375.541659 -280.622436 
L 357.640907 -280.54366 
L 339.740155 -280.464884 
L 321.839403 -276.683653 
L 303.938651 -276.132224 
L 286.037899 -275.974673 
L 268.137148 -275.974673 
L 250.236396 -275.580794 
L 232.335644 -274.556711 
L 214.434892 -273.84773 
L 196.53414 -273.296301 
L 178.633388 -272.429769 
L 160.732636 -271.090583 
L 142.831884 -271.011807 
L 124.931133 -269.278743 
L 107.030381 -267.151801 
L 89.129629 -265.418736 
L 71.228877 -257.147294 
L 53.328125 -49.65225 
z
" style="stroke: #98df8a; stroke-opacity: 0.2"/>
    </defs>
    <g clip-path="url(#p6b7b266e94)">
     <use xlink:href="#m43d64c14a4" x="0" y="325.986375" style="fill: #98df8a; fill-opacity: 0.2; stroke: #98df8a; stroke-opacity: 0.2"/>
    </g>
   </g>
   <g id="FillBetweenPolyCollection_4">
    <defs>
     <path id="m3c1e287e7d" d="M 53.328125 -49.65225 
L 53.328125 -49.65225 
L 71.228877 -227.685203 
L 89.129629 -230.99378 
L 107.030381 -234.066031 
L 124.931133 -234.538684 
L 142.831884 -235.247665 
L 160.732636 -235.247665 
L 178.633388 -240.683185 
L 196.53414 -242.967678 
L 214.434892 -243.361556 
L 232.335644 -243.361556 
L 250.236396 -243.361556 
L 268.137148 -243.361556 
L 286.037899 -243.440332 
L 303.938651 -243.440332 
L 321.839403 -243.440332 
L 339.740155 -243.755435 
L 357.640907 -243.755435 
L 375.541659 -243.991762 
L 393.442411 -243.991762 
L 411.343163 -244.070537 
L 429.243914 -244.38564 
L 447.144666 -248.560749 
L 465.045418 -249.663608 
L 482.94617 -249.663608 
L 500.846922 -249.821159 
L 518.747674 -249.821159 
L 536.648426 -259.037909 
L 554.549178 -259.116685 
L 572.44993 -260.29832 
L 590.350681 -260.613422 
L 608.251433 -260.692198 
L 626.152185 -261.243627 
L 644.052937 -262.582813 
L 661.953689 -264.394653 
L 679.854441 -264.473429 
L 697.755193 -264.63098 
L 715.655945 -264.867307 
L 733.556696 -264.867307 
L 733.556696 -275.738346 
L 733.556696 -275.738346 
L 715.655945 -275.502019 
L 697.755193 -275.502019 
L 679.854441 -275.029365 
L 661.953689 -275.029365 
L 644.052937 -274.320384 
L 626.152185 -274.084057 
L 608.251433 -274.084057 
L 590.350681 -273.296301 
L 572.44993 -272.744871 
L 554.549178 -271.957115 
L 536.648426 -271.799564 
L 518.747674 -271.799564 
L 500.846922 -271.405685 
L 482.94617 -271.248134 
L 465.045418 -271.248134 
L 447.144666 -271.248134 
L 429.243914 -271.248134 
L 411.343163 -270.460378 
L 393.442411 -270.460378 
L 375.541659 -270.302826 
L 357.640907 -270.302826 
L 339.740155 -270.302826 
L 321.839403 -270.224051 
L 303.938651 -269.436294 
L 286.037899 -269.278743 
L 268.137148 -269.199967 
L 250.236396 -269.199967 
L 232.335644 -268.727313 
L 214.434892 -268.648538 
L 196.53414 -267.70323 
L 178.633388 -267.388128 
L 160.732636 -267.073025 
L 142.831884 -260.219544 
L 124.931133 -258.722807 
L 107.030381 -257.777499 
L 89.129629 -248.954627 
L 71.228877 -246.433806 
L 53.328125 -49.65225 
z
" style="stroke: #c7c7c7; stroke-opacity: 0.2"/>
    </defs>
    <g clip-path="url(#p6b7b266e94)">
     <use xlink:href="#m3c1e287e7d" x="0" y="325.986375" style="fill: #c7c7c7; fill-opacity: 0.2; stroke: #c7c7c7; stroke-opacity: 0.2"/>
    </g>
   </g>
   <g id="matplotlib.axis_1">
    <g id="xtick_1">
     <g id="line2d_1">
      <defs>
       <path id="mf9730e1d36" d="M 0 0 
L 0 3.5 
" style="stroke: #000000; stroke-width: 0.8"/>
      </defs>
      <g>
       <use xlink:href="#mf9730e1d36" x="53.328125" y="288.430125" style="stroke: #000000; stroke-width: 0.8"/>
      </g>
     </g>
     <g id="text_1">
      <!-- 0m -->
      <g transform="translate(45.276563 303.028562) scale(0.1 -0.1)">
       <defs>
        <path id="DejaVuSans-30" d="M 2034 4250 
Q 1547 4250 1301 3770 
Q 1056 3291 1056 2328 
Q 1056 1369 1301 889 
Q 1547 409 2034 409 
Q 2525 409 2770 889 
Q 3016 1369 3016 2328 
Q 3016 3291 2770 3770 
Q 2525 4250 2034 4250 
z
M 2034 4750 
Q 2819 4750 3233 4129 
Q 3647 3509 3647 2328 
Q 3647 1150 3233 529 
Q 2819 -91 2034 -91 
Q 1250 -91 836 529 
Q 422 1150 422 2328 
Q 422 3509 836 4129 
Q 1250 4750 2034 4750 
z
" transform="scale(0.015625)"/>
        <path id="DejaVuSans-6d" d="M 3328 2828 
Q 3544 3216 3844 3400 
Q 4144 3584 4550 3584 
Q 5097 3584 5394 3201 
Q 5691 2819 5691 2113 
L 5691 0 
L 5113 0 
L 5113 2094 
Q 5113 2597 4934 2840 
Q 4756 3084 4391 3084 
Q 3944 3084 3684 2787 
Q 3425 2491 3425 1978 
L 3425 0 
L 2847 0 
L 2847 2094 
Q 2847 2600 2669 2842 
Q 2491 3084 2119 3084 
Q 1678 3084 1418 2786 
Q 1159 2488 1159 1978 
L 1159 0 
L 581 0 
L 581 3500 
L 1159 3500 
L 1159 2956 
Q 1356 3278 1631 3431 
Q 1906 3584 2284 3584 
Q 2666 3584 2933 3390 
Q 3200 3197 3328 2828 
z
" transform="scale(0.015625)"/>
       </defs>
       <use xlink:href="#DejaVuSans-30"/>
       <use xlink:href="#DejaVuSans-6d" transform="translate(63.623047 0)"/>
      </g>
     </g>
    </g>
    <g id="xtick_2">
     <g id="line2d_2">
      <g>
       <use xlink:href="#mf9730e1d36" x="110.013839" y="288.430125" style="stroke: #000000; stroke-width: 0.8"/>
      </g>
     </g>
     <g id="text_2">
      <!-- 47m -->
      <g transform="translate(98.781027 303.028562) scale(0.1 -0.1)">
       <defs>
        <path id="DejaVuSans-34" d="M 2419 4116 
L 825 1625 
L 2419 1625 
L 2419 4116 
z
M 2253 4666 
L 3047 4666 
L 3047 1625 
L 3713 1625 
L 3713 1100 
L 3047 1100 
L 3047 0 
L 2419 0 
L 2419 1100 
L 313 1100 
L 313 1709 
L 2253 4666 
z
" transform="scale(0.015625)"/>
        <path id="DejaVuSans-37" d="M 525 4666 
L 3525 4666 
L 3525 4397 
L 1831 0 
L 1172 0 
L 2766 4134 
L 525 4134 
L 525 4666 
z
" transform="scale(0.015625)"/>
       </defs>
       <use xlink:href="#DejaVuSans-34"/>
       <use xlink:href="#DejaVuSans-37" transform="translate(63.623047 0)"/>
       <use xlink:href="#DejaVuSans-6d" transform="translate(127.246094 0)"/>
      </g>
     </g>
    </g>
    <g id="xtick_3">
     <g id="line2d_3">
      <g>
       <use xlink:href="#mf9730e1d36" x="166.699554" y="288.430125" style="stroke: #000000; stroke-width: 0.8"/>
      </g>
     </g>
     <g id="text_3">
      <!-- 1h:35m -->
      <g transform="translate(147.432366 303.028562) scale(0.1 -0.1)">
       <defs>
        <path id="DejaVuSans-31" d="M 794 531 
L 1825 531 
L 1825 4091 
L 703 3866 
L 703 4441 
L 1819 4666 
L 2450 4666 
L 2450 531 
L 3481 531 
L 3481 0 
L 794 0 
L 794 531 
z
" transform="scale(0.015625)"/>
        <path id="DejaVuSans-68" d="M 3513 2113 
L 3513 0 
L 2938 0 
L 2938 2094 
Q 2938 2591 2744 2837 
Q 2550 3084 2163 3084 
Q 1697 3084 1428 2787 
Q 1159 2491 1159 1978 
L 1159 0 
L 581 0 
L 581 4863 
L 1159 4863 
L 1159 2956 
Q 1366 3272 1645 3428 
Q 1925 3584 2291 3584 
Q 2894 3584 3203 3211 
Q 3513 2838 3513 2113 
z
" transform="scale(0.015625)"/>
        <path id="DejaVuSans-3a" d="M 750 794 
L 1409 794 
L 1409 0 
L 750 0 
L 750 794 
z
M 750 3309 
L 1409 3309 
L 1409 2516 
L 750 2516 
L 750 3309 
z
" transform="scale(0.015625)"/>
        <path id="DejaVuSans-33" d="M 2597 2516 
Q 3050 2419 3304 2112 
Q 3559 1806 3559 1356 
Q 3559 666 3084 287 
Q 2609 -91 1734 -91 
Q 1441 -91 1130 -33 
Q 819 25 488 141 
L 488 750 
Q 750 597 1062 519 
Q 1375 441 1716 441 
Q 2309 441 2620 675 
Q 2931 909 2931 1356 
Q 2931 1769 2642 2001 
Q 2353 2234 1838 2234 
L 1294 2234 
L 1294 2753 
L 1863 2753 
Q 2328 2753 2575 2939 
Q 2822 3125 2822 3475 
Q 2822 3834 2567 4026 
Q 2313 4219 1838 4219 
Q 1578 4219 1281 4162 
Q 984 4106 628 3988 
L 628 4550 
Q 988 4650 1302 4700 
Q 1616 4750 1894 4750 
Q 2613 4750 3031 4423 
Q 3450 4097 3450 3541 
Q 3450 3153 3228 2886 
Q 3006 2619 2597 2516 
z
" transform="scale(0.015625)"/>
        <path id="DejaVuSans-35" d="M 691 4666 
L 3169 4666 
L 3169 4134 
L 1269 4134 
L 1269 2991 
Q 1406 3038 1543 3061 
Q 1681 3084 1819 3084 
Q 2600 3084 3056 2656 
Q 3513 2228 3513 1497 
Q 3513 744 3044 326 
Q 2575 -91 1722 -91 
Q 1428 -91 1123 -41 
Q 819 9 494 109 
L 494 744 
Q 775 591 1075 516 
Q 1375 441 1709 441 
Q 2250 441 2565 725 
Q 2881 1009 2881 1497 
Q 2881 1984 2565 2268 
Q 2250 2553 1709 2553 
Q 1456 2553 1204 2497 
Q 953 2441 691 2322 
L 691 4666 
z
" transform="scale(0.015625)"/>
       </defs>
       <use xlink:href="#DejaVuSans-31"/>
       <use xlink:href="#DejaVuSans-68" transform="translate(63.623047 0)"/>
       <use xlink:href="#DejaVuSans-3a" transform="translate(127.001953 0)"/>
       <use xlink:href="#DejaVuSans-33" transform="translate(160.693359 0)"/>
       <use xlink:href="#DejaVuSans-35" transform="translate(224.316406 0)"/>
       <use xlink:href="#DejaVuSans-6d" transform="translate(287.939453 0)"/>
      </g>
     </g>
    </g>
    <g id="xtick_4">
     <g id="line2d_4">
      <g>
       <use xlink:href="#mf9730e1d36" x="223.385268" y="288.430125" style="stroke: #000000; stroke-width: 0.8"/>
      </g>
     </g>
     <g id="text_4">
      <!-- 2h:22m -->
      <g transform="translate(204.11808 303.028562) scale(0.1 -0.1)">
       <defs>
        <path id="DejaVuSans-32" d="M 1228 531 
L 3431 531 
L 3431 0 
L 469 0 
L 469 531 
Q 828 903 1448 1529 
Q 2069 2156 2228 2338 
Q 2531 2678 2651 2914 
Q 2772 3150 2772 3378 
Q 2772 3750 2511 3984 
Q 2250 4219 1831 4219 
Q 1534 4219 1204 4116 
Q 875 4013 500 3803 
L 500 4441 
Q 881 4594 1212 4672 
Q 1544 4750 1819 4750 
Q 2544 4750 2975 4387 
Q 3406 4025 3406 3419 
Q 3406 3131 3298 2873 
Q 3191 2616 2906 2266 
Q 2828 2175 2409 1742 
Q 1991 1309 1228 531 
z
" transform="scale(0.015625)"/>
       </defs>
       <use xlink:href="#DejaVuSans-32"/>
       <use xlink:href="#DejaVuSans-68" transform="translate(63.623047 0)"/>
       <use xlink:href="#DejaVuSans-3a" transform="translate(127.001953 0)"/>
       <use xlink:href="#DejaVuSans-32" transform="translate(160.693359 0)"/>
       <use xlink:href="#DejaVuSans-32" transform="translate(224.316406 0)"/>
       <use xlink:href="#DejaVuSans-6d" transform="translate(287.939453 0)"/>
      </g>
     </g>
    </g>
    <g id="xtick_5">
     <g id="line2d_5">
      <g>
       <use xlink:href="#mf9730e1d36" x="280.070982" y="288.430125" style="stroke: #000000; stroke-width: 0.8"/>
      </g>
     </g>
     <g id="text_5">
      <!-- 3h:10m -->
      <g transform="translate(260.803795 303.028562) scale(0.1 -0.1)">
       <use xlink:href="#DejaVuSans-33"/>
       <use xlink:href="#DejaVuSans-68" transform="translate(63.623047 0)"/>
       <use xlink:href="#DejaVuSans-3a" transform="translate(127.001953 0)"/>
       <use xlink:href="#DejaVuSans-31" transform="translate(160.693359 0)"/>
       <use xlink:href="#DejaVuSans-30" transform="translate(224.316406 0)"/>
       <use xlink:href="#DejaVuSans-6d" transform="translate(287.939453 0)"/>
      </g>
     </g>
    </g>
    <g id="xtick_6">
     <g id="line2d_6">
      <g>
       <use xlink:href="#mf9730e1d36" x="336.756696" y="288.430125" style="stroke: #000000; stroke-width: 0.8"/>
      </g>
     </g>
     <g id="text_6">
      <!-- 3h:57m -->
      <g transform="translate(317.489509 303.028562) scale(0.1 -0.1)">
       <use xlink:href="#DejaVuSans-33"/>
       <use xlink:href="#DejaVuSans-68" transform="translate(63.623047 0)"/>
       <use xlink:href="#DejaVuSans-3a" transform="translate(127.001953 0)"/>
       <use xlink:href="#DejaVuSans-35" transform="translate(160.693359 0)"/>
       <use xlink:href="#DejaVuSans-37" transform="translate(224.316406 0)"/>
       <use xlink:href="#DejaVuSans-6d" transform="translate(287.939453 0)"/>
      </g>
     </g>
    </g>
    <g id="xtick_7">
     <g id="line2d_7">
      <g>
       <use xlink:href="#mf9730e1d36" x="393.442411" y="288.430125" style="stroke: #000000; stroke-width: 0.8"/>
      </g>
     </g>
     <g id="text_7">
      <!-- 4h:45m -->
      <g transform="translate(374.175223 303.028562) scale(0.1 -0.1)">
       <use xlink:href="#DejaVuSans-34"/>
       <use xlink:href="#DejaVuSans-68" transform="translate(63.623047 0)"/>
       <use xlink:href="#DejaVuSans-3a" transform="translate(127.001953 0)"/>
       <use xlink:href="#DejaVuSans-34" transform="translate(160.693359 0)"/>
       <use xlink:href="#DejaVuSans-35" transform="translate(224.316406 0)"/>
       <use xlink:href="#DejaVuSans-6d" transform="translate(287.939453 0)"/>
      </g>
     </g>
    </g>
    <g id="xtick_8">
     <g id="line2d_8">
      <g>
       <use xlink:href="#mf9730e1d36" x="450.128125" y="288.430125" style="stroke: #000000; stroke-width: 0.8"/>
      </g>
     </g>
     <g id="text_8">
      <!-- 5h:32m -->
      <g transform="translate(430.860938 303.028562) scale(0.1 -0.1)">
       <use xlink:href="#DejaVuSans-35"/>
       <use xlink:href="#DejaVuSans-68" transform="translate(63.623047 0)"/>
       <use xlink:href="#DejaVuSans-3a" transform="translate(127.001953 0)"/>
       <use xlink:href="#DejaVuSans-33" transform="translate(160.693359 0)"/>
       <use xlink:href="#DejaVuSans-32" transform="translate(224.316406 0)"/>
       <use xlink:href="#DejaVuSans-6d" transform="translate(287.939453 0)"/>
      </g>
     </g>
    </g>
    <g id="xtick_9">
     <g id="line2d_9">
      <g>
       <use xlink:href="#mf9730e1d36" x="506.813839" y="288.430125" style="stroke: #000000; stroke-width: 0.8"/>
      </g>
     </g>
     <g id="text_9">
      <!-- 6h:20m -->
      <g transform="translate(487.546652 303.028562) scale(0.1 -0.1)">
       <defs>
        <path id="DejaVuSans-36" d="M 2113 2584 
Q 1688 2584 1439 2293 
Q 1191 2003 1191 1497 
Q 1191 994 1439 701 
Q 1688 409 2113 409 
Q 2538 409 2786 701 
Q 3034 994 3034 1497 
Q 3034 2003 2786 2293 
Q 2538 2584 2113 2584 
z
M 3366 4563 
L 3366 3988 
Q 3128 4100 2886 4159 
Q 2644 4219 2406 4219 
Q 1781 4219 1451 3797 
Q 1122 3375 1075 2522 
Q 1259 2794 1537 2939 
Q 1816 3084 2150 3084 
Q 2853 3084 3261 2657 
Q 3669 2231 3669 1497 
Q 3669 778 3244 343 
Q 2819 -91 2113 -91 
Q 1303 -91 875 529 
Q 447 1150 447 2328 
Q 447 3434 972 4092 
Q 1497 4750 2381 4750 
Q 2619 4750 2861 4703 
Q 3103 4656 3366 4563 
z
" transform="scale(0.015625)"/>
       </defs>
       <use xlink:href="#DejaVuSans-36"/>
       <use xlink:href="#DejaVuSans-68" transform="translate(63.623047 0)"/>
       <use xlink:href="#DejaVuSans-3a" transform="translate(127.001953 0)"/>
       <use xlink:href="#DejaVuSans-32" transform="translate(160.693359 0)"/>
       <use xlink:href="#DejaVuSans-30" transform="translate(224.316406 0)"/>
       <use xlink:href="#DejaVuSans-6d" transform="translate(287.939453 0)"/>
      </g>
     </g>
    </g>
    <g id="xtick_10">
     <g id="line2d_10">
      <g>
       <use xlink:href="#mf9730e1d36" x="563.499554" y="288.430125" style="stroke: #000000; stroke-width: 0.8"/>
      </g>
     </g>
     <g id="text_10">
      <!-- 7h:7m -->
      <g transform="translate(547.413616 303.028562) scale(0.1 -0.1)">
       <use xlink:href="#DejaVuSans-37"/>
       <use xlink:href="#DejaVuSans-68" transform="translate(63.623047 0)"/>
       <use xlink:href="#DejaVuSans-3a" transform="translate(127.001953 0)"/>
       <use xlink:href="#DejaVuSans-37" transform="translate(160.693359 0)"/>
       <use xlink:href="#DejaVuSans-6d" transform="translate(224.316406 0)"/>
      </g>
     </g>
    </g>
    <g id="xtick_11">
     <g id="line2d_11">
      <g>
       <use xlink:href="#mf9730e1d36" x="620.185268" y="288.430125" style="stroke: #000000; stroke-width: 0.8"/>
      </g>
     </g>
     <g id="text_11">
      <!-- 7h:55m -->
      <g transform="translate(600.91808 303.028562) scale(0.1 -0.1)">
       <use xlink:href="#DejaVuSans-37"/>
       <use xlink:href="#DejaVuSans-68" transform="translate(63.623047 0)"/>
       <use xlink:href="#DejaVuSans-3a" transform="translate(127.001953 0)"/>
       <use xlink:href="#DejaVuSans-35" transform="translate(160.693359 0)"/>
       <use xlink:href="#DejaVuSans-35" transform="translate(224.316406 0)"/>
       <use xlink:href="#DejaVuSans-6d" transform="translate(287.939453 0)"/>
      </g>
     </g>
    </g>
    <g id="xtick_12">
     <g id="line2d_12">
      <g>
       <use xlink:href="#mf9730e1d36" x="676.870982" y="288.430125" style="stroke: #000000; stroke-width: 0.8"/>
      </g>
     </g>
     <g id="text_12">
      <!-- 8h:42m -->
      <g transform="translate(657.603795 303.028562) scale(0.1 -0.1)">
       <defs>
        <path id="DejaVuSans-38" d="M 2034 2216 
Q 1584 2216 1326 1975 
Q 1069 1734 1069 1313 
Q 1069 891 1326 650 
Q 1584 409 2034 409 
Q 2484 409 2743 651 
Q 3003 894 3003 1313 
Q 3003 1734 2745 1975 
Q 2488 2216 2034 2216 
z
M 1403 2484 
Q 997 2584 770 2862 
Q 544 3141 544 3541 
Q 544 4100 942 4425 
Q 1341 4750 2034 4750 
Q 2731 4750 3128 4425 
Q 3525 4100 3525 3541 
Q 3525 3141 3298 2862 
Q 3072 2584 2669 2484 
Q 3125 2378 3379 2068 
Q 3634 1759 3634 1313 
Q 3634 634 3220 271 
Q 2806 -91 2034 -91 
Q 1263 -91 848 271 
Q 434 634 434 1313 
Q 434 1759 690 2068 
Q 947 2378 1403 2484 
z
M 1172 3481 
Q 1172 3119 1398 2916 
Q 1625 2713 2034 2713 
Q 2441 2713 2670 2916 
Q 2900 3119 2900 3481 
Q 2900 3844 2670 4047 
Q 2441 4250 2034 4250 
Q 1625 4250 1398 4047 
Q 1172 3844 1172 3481 
z
" transform="scale(0.015625)"/>
       </defs>
       <use xlink:href="#DejaVuSans-38"/>
       <use xlink:href="#DejaVuSans-68" transform="translate(63.623047 0)"/>
       <use xlink:href="#DejaVuSans-3a" transform="translate(127.001953 0)"/>
       <use xlink:href="#DejaVuSans-34" transform="translate(160.693359 0)"/>
       <use xlink:href="#DejaVuSans-32" transform="translate(224.316406 0)"/>
       <use xlink:href="#DejaVuSans-6d" transform="translate(287.939453 0)"/>
      </g>
     </g>
    </g>
    <g id="xtick_13">
     <g id="line2d_13">
      <g>
       <use xlink:href="#mf9730e1d36" x="733.556696" y="288.430125" style="stroke: #000000; stroke-width: 0.8"/>
      </g>
     </g>
     <g id="text_13">
      <!-- 9h:30m -->
      <g transform="translate(714.289509 303.028562) scale(0.1 -0.1)">
       <defs>
        <path id="DejaVuSans-39" d="M 703 97 
L 703 672 
Q 941 559 1184 500 
Q 1428 441 1663 441 
Q 2288 441 2617 861 
Q 2947 1281 2994 2138 
Q 2813 1869 2534 1725 
Q 2256 1581 1919 1581 
Q 1219 1581 811 2004 
Q 403 2428 403 3163 
Q 403 3881 828 4315 
Q 1253 4750 1959 4750 
Q 2769 4750 3195 4129 
Q 3622 3509 3622 2328 
Q 3622 1225 3098 567 
Q 2575 -91 1691 -91 
Q 1453 -91 1209 -44 
Q 966 3 703 97 
z
M 1959 2075 
Q 2384 2075 2632 2365 
Q 2881 2656 2881 3163 
Q 2881 3666 2632 3958 
Q 2384 4250 1959 4250 
Q 1534 4250 1286 3958 
Q 1038 3666 1038 3163 
Q 1038 2656 1286 2365 
Q 1534 2075 1959 2075 
z
" transform="scale(0.015625)"/>
       </defs>
       <use xlink:href="#DejaVuSans-39"/>
       <use xlink:href="#DejaVuSans-68" transform="translate(63.623047 0)"/>
       <use xlink:href="#DejaVuSans-3a" transform="translate(127.001953 0)"/>
       <use xlink:href="#DejaVuSans-33" transform="translate(160.693359 0)"/>
       <use xlink:href="#DejaVuSans-30" transform="translate(224.316406 0)"/>
       <use xlink:href="#DejaVuSans-6d" transform="translate(287.939453 0)"/>
      </g>
     </g>
    </g>
    <g id="text_14">
     <!-- Time (hour:minute) -->
     <g transform="translate(362.041094 316.706687) scale(0.1 -0.1)">
      <defs>
       <path id="DejaVuSans-54" d="M -19 4666 
L 3928 4666 
L 3928 4134 
L 2272 4134 
L 2272 0 
L 1638 0 
L 1638 4134 
L -19 4134 
L -19 4666 
z
" transform="scale(0.015625)"/>
       <path id="DejaVuSans-69" d="M 603 3500 
L 1178 3500 
L 1178 0 
L 603 0 
L 603 3500 
z
M 603 4863 
L 1178 4863 
L 1178 4134 
L 603 4134 
L 603 4863 
z
" transform="scale(0.015625)"/>
       <path id="DejaVuSans-65" d="M 3597 1894 
L 3597 1613 
L 953 1613 
Q 991 1019 1311 708 
Q 1631 397 2203 397 
Q 2534 397 2845 478 
Q 3156 559 3463 722 
L 3463 178 
Q 3153 47 2828 -22 
Q 2503 -91 2169 -91 
Q 1331 -91 842 396 
Q 353 884 353 1716 
Q 353 2575 817 3079 
Q 1281 3584 2069 3584 
Q 2775 3584 3186 3129 
Q 3597 2675 3597 1894 
z
M 3022 2063 
Q 3016 2534 2758 2815 
Q 2500 3097 2075 3097 
Q 1594 3097 1305 2825 
Q 1016 2553 972 2059 
L 3022 2063 
z
" transform="scale(0.015625)"/>
       <path id="DejaVuSans-20" transform="scale(0.015625)"/>
       <path id="DejaVuSans-28" d="M 1984 4856 
Q 1566 4138 1362 3434 
Q 1159 2731 1159 2009 
Q 1159 1288 1364 580 
Q 1569 -128 1984 -844 
L 1484 -844 
Q 1016 -109 783 600 
Q 550 1309 550 2009 
Q 550 2706 781 3412 
Q 1013 4119 1484 4856 
L 1984 4856 
z
" transform="scale(0.015625)"/>
       <path id="DejaVuSans-6f" d="M 1959 3097 
Q 1497 3097 1228 2736 
Q 959 2375 959 1747 
Q 959 1119 1226 758 
Q 1494 397 1959 397 
Q 2419 397 2687 759 
Q 2956 1122 2956 1747 
Q 2956 2369 2687 2733 
Q 2419 3097 1959 3097 
z
M 1959 3584 
Q 2709 3584 3137 3096 
Q 3566 2609 3566 1747 
Q 3566 888 3137 398 
Q 2709 -91 1959 -91 
Q 1206 -91 779 398 
Q 353 888 353 1747 
Q 353 2609 779 3096 
Q 1206 3584 1959 3584 
z
" transform="scale(0.015625)"/>
       <path id="DejaVuSans-75" d="M 544 1381 
L 544 3500 
L 1119 3500 
L 1119 1403 
Q 1119 906 1312 657 
Q 1506 409 1894 409 
Q 2359 409 2629 706 
Q 2900 1003 2900 1516 
L 2900 3500 
L 3475 3500 
L 3475 0 
L 2900 0 
L 2900 538 
Q 2691 219 2414 64 
Q 2138 -91 1772 -91 
Q 1169 -91 856 284 
Q 544 659 544 1381 
z
M 1991 3584 
L 1991 3584 
z
" transform="scale(0.015625)"/>
       <path id="DejaVuSans-72" d="M 2631 2963 
Q 2534 3019 2420 3045 
Q 2306 3072 2169 3072 
Q 1681 3072 1420 2755 
Q 1159 2438 1159 1844 
L 1159 0 
L 581 0 
L 581 3500 
L 1159 3500 
L 1159 2956 
Q 1341 3275 1631 3429 
Q 1922 3584 2338 3584 
Q 2397 3584 2469 3576 
Q 2541 3569 2628 3553 
L 2631 2963 
z
" transform="scale(0.015625)"/>
       <path id="DejaVuSans-6e" d="M 3513 2113 
L 3513 0 
L 2938 0 
L 2938 2094 
Q 2938 2591 2744 2837 
Q 2550 3084 2163 3084 
Q 1697 3084 1428 2787 
Q 1159 2491 1159 1978 
L 1159 0 
L 581 0 
L 581 3500 
L 1159 3500 
L 1159 2956 
Q 1366 3272 1645 3428 
Q 1925 3584 2291 3584 
Q 2894 3584 3203 3211 
Q 3513 2838 3513 2113 
z
" transform="scale(0.015625)"/>
       <path id="DejaVuSans-74" d="M 1172 4494 
L 1172 3500 
L 2356 3500 
L 2356 3053 
L 1172 3053 
L 1172 1153 
Q 1172 725 1289 603 
Q 1406 481 1766 481 
L 2356 481 
L 2356 0 
L 1766 0 
Q 1100 0 847 248 
Q 594 497 594 1153 
L 594 3053 
L 172 3053 
L 172 3500 
L 594 3500 
L 594 4494 
L 1172 4494 
z
" transform="scale(0.015625)"/>
       <path id="DejaVuSans-29" d="M 513 4856 
L 1013 4856 
Q 1481 4119 1714 3412 
Q 1947 2706 1947 2009 
Q 1947 1309 1714 600 
Q 1481 -109 1013 -844 
L 513 -844 
Q 928 -128 1133 580 
Q 1338 1288 1338 2009 
Q 1338 2731 1133 3434 
Q 928 4138 513 4856 
z
" transform="scale(0.015625)"/>
      </defs>
      <use xlink:href="#DejaVuSans-54"/>
      <use xlink:href="#DejaVuSans-69" transform="translate(57.958984 0)"/>
      <use xlink:href="#DejaVuSans-6d" transform="translate(85.742188 0)"/>
      <use xlink:href="#DejaVuSans-65" transform="translate(183.154297 0)"/>
      <use xlink:href="#DejaVuSans-20" transform="translate(244.677734 0)"/>
      <use xlink:href="#DejaVuSans-28" transform="translate(276.464844 0)"/>
      <use xlink:href="#DejaVuSans-68" transform="translate(315.478516 0)"/>
      <use xlink:href="#DejaVuSans-6f" transform="translate(378.857422 0)"/>
      <use xlink:href="#DejaVuSans-75" transform="translate(440.039062 0)"/>
      <use xlink:href="#DejaVuSans-72" transform="translate(503.417969 0)"/>
      <use xlink:href="#DejaVuSans-3a" transform="translate(542.78125 0)"/>
      <use xlink:href="#DejaVuSans-6d" transform="translate(576.472656 0)"/>
      <use xlink:href="#DejaVuSans-69" transform="translate(673.884766 0)"/>
      <use xlink:href="#DejaVuSans-6e" transform="translate(701.667969 0)"/>
      <use xlink:href="#DejaVuSans-75" transform="translate(765.046875 0)"/>
      <use xlink:href="#DejaVuSans-74" transform="translate(828.425781 0)"/>
      <use xlink:href="#DejaVuSans-65" transform="translate(867.634766 0)"/>
      <use xlink:href="#DejaVuSans-29" transform="translate(929.158203 0)"/>
     </g>
    </g>
   </g>
   <g id="matplotlib.axis_2">
    <g id="ytick_1">
     <g id="line2d_14">
      <defs>
       <path id="m436741215c" d="M 0 0 
L -3.5 0 
" style="stroke: #000000; stroke-width: 0.8"/>
      </defs>
      <g>
       <use xlink:href="#m436741215c" x="53.328125" y="276.334125" style="stroke: #000000; stroke-width: 0.8"/>
      </g>
     </g>
     <g id="text_15">
      <!-- 0 -->
      <g transform="translate(39.965625 280.133344) scale(0.1 -0.1)">
       <use xlink:href="#DejaVuSans-30"/>
      </g>
     </g>
    </g>
    <g id="ytick_2">
     <g id="line2d_15">
      <g>
       <use xlink:href="#m436741215c" x="53.328125" y="236.946303" style="stroke: #000000; stroke-width: 0.8"/>
      </g>
     </g>
     <g id="text_16">
      <!-- 500 -->
      <g transform="translate(27.240625 240.745522) scale(0.1 -0.1)">
       <use xlink:href="#DejaVuSans-35"/>
       <use xlink:href="#DejaVuSans-30" transform="translate(63.623047 0)"/>
       <use xlink:href="#DejaVuSans-30" transform="translate(127.246094 0)"/>
      </g>
     </g>
    </g>
    <g id="ytick_3">
     <g id="line2d_16">
      <g>
       <use xlink:href="#m436741215c" x="53.328125" y="197.558482" style="stroke: #000000; stroke-width: 0.8"/>
      </g>
     </g>
     <g id="text_17">
      <!-- 1000 -->
      <g transform="translate(20.878125 201.357701) scale(0.1 -0.1)">
       <use xlink:href="#DejaVuSans-31"/>
       <use xlink:href="#DejaVuSans-30" transform="translate(63.623047 0)"/>
       <use xlink:href="#DejaVuSans-30" transform="translate(127.246094 0)"/>
       <use xlink:href="#DejaVuSans-30" transform="translate(190.869141 0)"/>
      </g>
     </g>
    </g>
    <g id="ytick_4">
     <g id="line2d_17">
      <g>
       <use xlink:href="#m436741215c" x="53.328125" y="158.17066" style="stroke: #000000; stroke-width: 0.8"/>
      </g>
     </g>
     <g id="text_18">
      <!-- 1500 -->
      <g transform="translate(20.878125 161.969879) scale(0.1 -0.1)">
       <use xlink:href="#DejaVuSans-31"/>
       <use xlink:href="#DejaVuSans-35" transform="translate(63.623047 0)"/>
       <use xlink:href="#DejaVuSans-30" transform="translate(127.246094 0)"/>
       <use xlink:href="#DejaVuSans-30" transform="translate(190.869141 0)"/>
      </g>
     </g>
    </g>
    <g id="ytick_5">
     <g id="line2d_18">
      <g>
       <use xlink:href="#m436741215c" x="53.328125" y="118.782839" style="stroke: #000000; stroke-width: 0.8"/>
      </g>
     </g>
     <g id="text_19">
      <!-- 2000 -->
      <g transform="translate(20.878125 122.582058) scale(0.1 -0.1)">
       <use xlink:href="#DejaVuSans-32"/>
       <use xlink:href="#DejaVuSans-30" transform="translate(63.623047 0)"/>
       <use xlink:href="#DejaVuSans-30" transform="translate(127.246094 0)"/>
       <use xlink:href="#DejaVuSans-30" transform="translate(190.869141 0)"/>
      </g>
     </g>
    </g>
    <g id="ytick_6">
     <g id="line2d_19">
      <g>
       <use xlink:href="#m436741215c" x="53.328125" y="79.395017" style="stroke: #000000; stroke-width: 0.8"/>
      </g>
     </g>
     <g id="text_20">
      <!-- 2500 -->
      <g transform="translate(20.878125 83.194236) scale(0.1 -0.1)">
       <use xlink:href="#DejaVuSans-32"/>
       <use xlink:href="#DejaVuSans-35" transform="translate(63.623047 0)"/>
       <use xlink:href="#DejaVuSans-30" transform="translate(127.246094 0)"/>
       <use xlink:href="#DejaVuSans-30" transform="translate(190.869141 0)"/>
      </g>
     </g>
    </g>
    <g id="ytick_7">
     <g id="line2d_20">
      <g>
       <use xlink:href="#m436741215c" x="53.328125" y="40.007196" style="stroke: #000000; stroke-width: 0.8"/>
      </g>
     </g>
     <g id="text_21">
      <!-- 3000 -->
      <g transform="translate(20.878125 43.806414) scale(0.1 -0.1)">
       <use xlink:href="#DejaVuSans-33"/>
       <use xlink:href="#DejaVuSans-30" transform="translate(63.623047 0)"/>
       <use xlink:href="#DejaVuSans-30" transform="translate(127.246094 0)"/>
       <use xlink:href="#DejaVuSans-30" transform="translate(190.869141 0)"/>
      </g>
     </g>
    </g>
    <g id="text_22">
     <!-- Code branch coverage -->
     <g transform="translate(14.798438 211.949125) rotate(-90) scale(0.1 -0.1)">
      <defs>
       <path id="DejaVuSans-43" d="M 4122 4306 
L 4122 3641 
Q 3803 3938 3442 4084 
Q 3081 4231 2675 4231 
Q 1875 4231 1450 3742 
Q 1025 3253 1025 2328 
Q 1025 1406 1450 917 
Q 1875 428 2675 428 
Q 3081 428 3442 575 
Q 3803 722 4122 1019 
L 4122 359 
Q 3791 134 3420 21 
Q 3050 -91 2638 -91 
Q 1578 -91 968 557 
Q 359 1206 359 2328 
Q 359 3453 968 4101 
Q 1578 4750 2638 4750 
Q 3056 4750 3426 4639 
Q 3797 4528 4122 4306 
z
" transform="scale(0.015625)"/>
       <path id="DejaVuSans-64" d="M 2906 2969 
L 2906 4863 
L 3481 4863 
L 3481 0 
L 2906 0 
L 2906 525 
Q 2725 213 2448 61 
Q 2172 -91 1784 -91 
Q 1150 -91 751 415 
Q 353 922 353 1747 
Q 353 2572 751 3078 
Q 1150 3584 1784 3584 
Q 2172 3584 2448 3432 
Q 2725 3281 2906 2969 
z
M 947 1747 
Q 947 1113 1208 752 
Q 1469 391 1925 391 
Q 2381 391 2643 752 
Q 2906 1113 2906 1747 
Q 2906 2381 2643 2742 
Q 2381 3103 1925 3103 
Q 1469 3103 1208 2742 
Q 947 2381 947 1747 
z
" transform="scale(0.015625)"/>
       <path id="DejaVuSans-62" d="M 3116 1747 
Q 3116 2381 2855 2742 
Q 2594 3103 2138 3103 
Q 1681 3103 1420 2742 
Q 1159 2381 1159 1747 
Q 1159 1113 1420 752 
Q 1681 391 2138 391 
Q 2594 391 2855 752 
Q 3116 1113 3116 1747 
z
M 1159 2969 
Q 1341 3281 1617 3432 
Q 1894 3584 2278 3584 
Q 2916 3584 3314 3078 
Q 3713 2572 3713 1747 
Q 3713 922 3314 415 
Q 2916 -91 2278 -91 
Q 1894 -91 1617 61 
Q 1341 213 1159 525 
L 1159 0 
L 581 0 
L 581 4863 
L 1159 4863 
L 1159 2969 
z
" transform="scale(0.015625)"/>
       <path id="DejaVuSans-61" d="M 2194 1759 
Q 1497 1759 1228 1600 
Q 959 1441 959 1056 
Q 959 750 1161 570 
Q 1363 391 1709 391 
Q 2188 391 2477 730 
Q 2766 1069 2766 1631 
L 2766 1759 
L 2194 1759 
z
M 3341 1997 
L 3341 0 
L 2766 0 
L 2766 531 
Q 2569 213 2275 61 
Q 1981 -91 1556 -91 
Q 1019 -91 701 211 
Q 384 513 384 1019 
Q 384 1609 779 1909 
Q 1175 2209 1959 2209 
L 2766 2209 
L 2766 2266 
Q 2766 2663 2505 2880 
Q 2244 3097 1772 3097 
Q 1472 3097 1187 3025 
Q 903 2953 641 2809 
L 641 3341 
Q 956 3463 1253 3523 
Q 1550 3584 1831 3584 
Q 2591 3584 2966 3190 
Q 3341 2797 3341 1997 
z
" transform="scale(0.015625)"/>
       <path id="DejaVuSans-63" d="M 3122 3366 
L 3122 2828 
Q 2878 2963 2633 3030 
Q 2388 3097 2138 3097 
Q 1578 3097 1268 2742 
Q 959 2388 959 1747 
Q 959 1106 1268 751 
Q 1578 397 2138 397 
Q 2388 397 2633 464 
Q 2878 531 3122 666 
L 3122 134 
Q 2881 22 2623 -34 
Q 2366 -91 2075 -91 
Q 1284 -91 818 406 
Q 353 903 353 1747 
Q 353 2603 823 3093 
Q 1294 3584 2113 3584 
Q 2378 3584 2631 3529 
Q 2884 3475 3122 3366 
z
" transform="scale(0.015625)"/>
       <path id="DejaVuSans-76" d="M 191 3500 
L 800 3500 
L 1894 563 
L 2988 3500 
L 3597 3500 
L 2284 0 
L 1503 0 
L 191 3500 
z
" transform="scale(0.015625)"/>
       <path id="DejaVuSans-67" d="M 2906 1791 
Q 2906 2416 2648 2759 
Q 2391 3103 1925 3103 
Q 1463 3103 1205 2759 
Q 947 2416 947 1791 
Q 947 1169 1205 825 
Q 1463 481 1925 481 
Q 2391 481 2648 825 
Q 2906 1169 2906 1791 
z
M 3481 434 
Q 3481 -459 3084 -895 
Q 2688 -1331 1869 -1331 
Q 1566 -1331 1297 -1286 
Q 1028 -1241 775 -1147 
L 775 -588 
Q 1028 -725 1275 -790 
Q 1522 -856 1778 -856 
Q 2344 -856 2625 -561 
Q 2906 -266 2906 331 
L 2906 616 
Q 2728 306 2450 153 
Q 2172 0 1784 0 
Q 1141 0 747 490 
Q 353 981 353 1791 
Q 353 2603 747 3093 
Q 1141 3584 1784 3584 
Q 2172 3584 2450 3431 
Q 2728 3278 2906 2969 
L 2906 3500 
L 3481 3500 
L 3481 434 
z
" transform="scale(0.015625)"/>
      </defs>
      <use xlink:href="#DejaVuSans-43"/>
      <use xlink:href="#DejaVuSans-6f" transform="translate(69.824219 0)"/>
      <use xlink:href="#DejaVuSans-64" transform="translate(131.005859 0)"/>
      <use xlink:href="#DejaVuSans-65" transform="translate(194.482422 0)"/>
      <use xlink:href="#DejaVuSans-20" transform="translate(256.005859 0)"/>
      <use xlink:href="#DejaVuSans-62" transform="translate(287.792969 0)"/>
      <use xlink:href="#DejaVuSans-72" transform="translate(351.269531 0)"/>
      <use xlink:href="#DejaVuSans-61" transform="translate(392.382812 0)"/>
      <use xlink:href="#DejaVuSans-6e" transform="translate(453.662109 0)"/>
      <use xlink:href="#DejaVuSans-63" transform="translate(517.041016 0)"/>
      <use xlink:href="#DejaVuSans-68" transform="translate(572.021484 0)"/>
      <use xlink:href="#DejaVuSans-20" transform="translate(635.400391 0)"/>
      <use xlink:href="#DejaVuSans-63" transform="translate(667.1875 0)"/>
      <use xlink:href="#DejaVuSans-6f" transform="translate(722.167969 0)"/>
      <use xlink:href="#DejaVuSans-76" transform="translate(783.349609 0)"/>
      <use xlink:href="#DejaVuSans-65" transform="translate(842.529297 0)"/>
      <use xlink:href="#DejaVuSans-72" transform="translate(904.052734 0)"/>
      <use xlink:href="#DejaVuSans-61" transform="translate(945.166016 0)"/>
      <use xlink:href="#DejaVuSans-67" transform="translate(1006.445312 0)"/>
      <use xlink:href="#DejaVuSans-65" transform="translate(1069.921875 0)"/>
     </g>
    </g>
   </g>
   <g id="line2d_21">
    <path d="M 53.328125 276.334125 
L 71.228877 86.721152 
L 89.129629 85.85462 
L 107.030381 82.152165 
L 124.931133 80.497876 
L 142.831884 79.552569 
L 160.732636 78.134607 
L 178.633388 76.08644 
L 196.53414 75.456235 
L 214.434892 75.298684 
L 232.335644 73.723171 
L 250.236396 66.554587 
L 268.137148 65.688055 
L 286.037899 64.585196 
L 303.938651 63.403562 
L 321.839403 63.324786 
L 339.740155 60.72519 
L 357.640907 60.72519 
L 375.541659 59.937433 
L 393.442411 53.635382 
L 411.343163 53.083952 
L 429.243914 53.005177 
L 447.144666 52.926401 
L 465.045418 52.926401 
L 482.94617 52.926401 
L 500.846922 52.926401 
L 518.747674 52.926401 
L 536.648426 52.138645 
L 554.549178 51.429664 
L 572.44993 51.114561 
L 590.350681 50.878234 
L 608.251433 50.720683 
L 626.152185 50.720683 
L 644.052937 50.090478 
L 661.953689 49.932927 
L 679.854441 49.932927 
L 697.755193 48.121087 
L 715.655945 48.042311 
L 733.556696 47.648433 
" clip-path="url(#p6b7b266e94)" style="fill: none; stroke: #d62728; stroke-width: 1.5; stroke-linecap: square"/>
    <defs>
     <path id="m2d562a7552" d="M 0 -3 
L -3 3 
L 3 3 
z
" style="stroke: #ffffff; stroke-width: 0.75; stroke-linejoin: miter"/>
    </defs>
    <g clip-path="url(#p6b7b266e94)">
     <use xlink:href="#m2d562a7552" x="53.328125" y="276.334125" style="fill: #d62728; stroke: #ffffff; stroke-width: 0.75; stroke-linejoin: miter"/>
     <use xlink:href="#m2d562a7552" x="71.228877" y="86.721152" style="fill: #d62728; stroke: #ffffff; stroke-width: 0.75; stroke-linejoin: miter"/>
     <use xlink:href="#m2d562a7552" x="89.129629" y="85.85462" style="fill: #d62728; stroke: #ffffff; stroke-width: 0.75; stroke-linejoin: miter"/>
     <use xlink:href="#m2d562a7552" x="107.030381" y="82.152165" style="fill: #d62728; stroke: #ffffff; stroke-width: 0.75; stroke-linejoin: miter"/>
     <use xlink:href="#m2d562a7552" x="124.931133" y="80.497876" style="fill: #d62728; stroke: #ffffff; stroke-width: 0.75; stroke-linejoin: miter"/>
     <use xlink:href="#m2d562a7552" x="142.831884" y="79.552569" style="fill: #d62728; stroke: #ffffff; stroke-width: 0.75; stroke-linejoin: miter"/>
     <use xlink:href="#m2d562a7552" x="160.732636" y="78.134607" style="fill: #d62728; stroke: #ffffff; stroke-width: 0.75; stroke-linejoin: miter"/>
     <use xlink:href="#m2d562a7552" x="178.633388" y="76.08644" style="fill: #d62728; stroke: #ffffff; stroke-width: 0.75; stroke-linejoin: miter"/>
     <use xlink:href="#m2d562a7552" x="196.53414" y="75.456235" style="fill: #d62728; stroke: #ffffff; stroke-width: 0.75; stroke-linejoin: miter"/>
     <use xlink:href="#m2d562a7552" x="214.434892" y="75.298684" style="fill: #d62728; stroke: #ffffff; stroke-width: 0.75; stroke-linejoin: miter"/>
     <use xlink:href="#m2d562a7552" x="232.335644" y="73.723171" style="fill: #d62728; stroke: #ffffff; stroke-width: 0.75; stroke-linejoin: miter"/>
     <use xlink:href="#m2d562a7552" x="250.236396" y="66.554587" style="fill: #d62728; stroke: #ffffff; stroke-width: 0.75; stroke-linejoin: miter"/>
     <use xlink:href="#m2d562a7552" x="268.137148" y="65.688055" style="fill: #d62728; stroke: #ffffff; stroke-width: 0.75; stroke-linejoin: miter"/>
     <use xlink:href="#m2d562a7552" x="286.037899" y="64.585196" style="fill: #d62728; stroke: #ffffff; stroke-width: 0.75; stroke-linejoin: miter"/>
     <use xlink:href="#m2d562a7552" x="303.938651" y="63.403562" style="fill: #d62728; stroke: #ffffff; stroke-width: 0.75; stroke-linejoin: miter"/>
     <use xlink:href="#m2d562a7552" x="321.839403" y="63.324786" style="fill: #d62728; stroke: #ffffff; stroke-width: 0.75; stroke-linejoin: miter"/>
     <use xlink:href="#m2d562a7552" x="339.740155" y="60.72519" style="fill: #d62728; stroke: #ffffff; stroke-width: 0.75; stroke-linejoin: miter"/>
     <use xlink:href="#m2d562a7552" x="357.640907" y="60.72519" style="fill: #d62728; stroke: #ffffff; stroke-width: 0.75; stroke-linejoin: miter"/>
     <use xlink:href="#m2d562a7552" x="375.541659" y="59.937433" style="fill: #d62728; stroke: #ffffff; stroke-width: 0.75; stroke-linejoin: miter"/>
     <use xlink:href="#m2d562a7552" x="393.442411" y="53.635382" style="fill: #d62728; stroke: #ffffff; stroke-width: 0.75; stroke-linejoin: miter"/>
     <use xlink:href="#m2d562a7552" x="411.343163" y="53.083952" style="fill: #d62728; stroke: #ffffff; stroke-width: 0.75; stroke-linejoin: miter"/>
     <use xlink:href="#m2d562a7552" x="429.243914" y="53.005177" style="fill: #d62728; stroke: #ffffff; stroke-width: 0.75; stroke-linejoin: miter"/>
     <use xlink:href="#m2d562a7552" x="447.144666" y="52.926401" style="fill: #d62728; stroke: #ffffff; stroke-width: 0.75; stroke-linejoin: miter"/>
     <use xlink:href="#m2d562a7552" x="465.045418" y="52.926401" style="fill: #d62728; stroke: #ffffff; stroke-width: 0.75; stroke-linejoin: miter"/>
     <use xlink:href="#m2d562a7552" x="482.94617" y="52.926401" style="fill: #d62728; stroke: #ffffff; stroke-width: 0.75; stroke-linejoin: miter"/>
     <use xlink:href="#m2d562a7552" x="500.846922" y="52.926401" style="fill: #d62728; stroke: #ffffff; stroke-width: 0.75; stroke-linejoin: miter"/>
     <use xlink:href="#m2d562a7552" x="518.747674" y="52.926401" style="fill: #d62728; stroke: #ffffff; stroke-width: 0.75; stroke-linejoin: miter"/>
     <use xlink:href="#m2d562a7552" x="536.648426" y="52.138645" style="fill: #d62728; stroke: #ffffff; stroke-width: 0.75; stroke-linejoin: miter"/>
     <use xlink:href="#m2d562a7552" x="554.549178" y="51.429664" style="fill: #d62728; stroke: #ffffff; stroke-width: 0.75; stroke-linejoin: miter"/>
     <use xlink:href="#m2d562a7552" x="572.44993" y="51.114561" style="fill: #d62728; stroke: #ffffff; stroke-width: 0.75; stroke-linejoin: miter"/>
     <use xlink:href="#m2d562a7552" x="590.350681" y="50.878234" style="fill: #d62728; stroke: #ffffff; stroke-width: 0.75; stroke-linejoin: miter"/>
     <use xlink:href="#m2d562a7552" x="608.251433" y="50.720683" style="fill: #d62728; stroke: #ffffff; stroke-width: 0.75; stroke-linejoin: miter"/>
     <use xlink:href="#m2d562a7552" x="626.152185" y="50.720683" style="fill: #d62728; stroke: #ffffff; stroke-width: 0.75; stroke-linejoin: miter"/>
     <use xlink:href="#m2d562a7552" x="644.052937" y="50.090478" style="fill: #d62728; stroke: #ffffff; stroke-width: 0.75; stroke-linejoin: miter"/>
     <use xlink:href="#m2d562a7552" x="661.953689" y="49.932927" style="fill: #d62728; stroke: #ffffff; stroke-width: 0.75; stroke-linejoin: miter"/>
     <use xlink:href="#m2d562a7552" x="679.854441" y="49.932927" style="fill: #d62728; stroke: #ffffff; stroke-width: 0.75; stroke-linejoin: miter"/>
     <use xlink:href="#m2d562a7552" x="697.755193" y="48.121087" style="fill: #d62728; stroke: #ffffff; stroke-width: 0.75; stroke-linejoin: miter"/>
     <use xlink:href="#m2d562a7552" x="715.655945" y="48.042311" style="fill: #d62728; stroke: #ffffff; stroke-width: 0.75; stroke-linejoin: miter"/>
     <use xlink:href="#m2d562a7552" x="733.556696" y="47.648433" style="fill: #d62728; stroke: #ffffff; stroke-width: 0.75; stroke-linejoin: miter"/>
    </g>
   </g>
   <g id="line2d_22">
    <path d="M 53.328125 276.334125 
L 71.228877 82.309716 
L 89.129629 72.068882 
L 107.030381 64.427645 
L 124.931133 62.694581 
L 142.831884 60.094985 
L 160.732636 59.701106 
L 178.633388 59.070901 
L 196.53414 58.992126 
L 214.434892 55.525997 
L 232.335644 55.525997 
L 250.236396 54.974568 
L 268.137148 53.792933 
L 286.037899 53.241504 
L 303.938651 52.690074 
L 321.839403 52.453747 
L 339.740155 52.296196 
L 357.640907 51.981093 
L 375.541659 51.981093 
L 393.442411 51.902318 
L 411.343163 51.823542 
L 429.243914 50.878234 
L 447.144666 50.326805 
L 465.045418 50.326805 
L 482.94617 50.248029 
L 500.846922 50.248029 
L 518.747674 49.6966 
L 536.648426 48.593741 
L 554.549178 48.593741 
L 572.44993 48.593741 
L 590.350681 48.514965 
L 608.251433 48.514965 
L 626.152185 48.514965 
L 644.052937 48.514965 
L 661.953689 48.514965 
L 679.854441 48.514965 
L 697.755193 48.514965 
L 715.655945 48.514965 
L 733.556696 48.278638 
" clip-path="url(#p6b7b266e94)" style="fill: none; stroke: #1f77b4; stroke-width: 1.5; stroke-linecap: square"/>
    <defs>
     <path id="m4ad67acfd0" d="M 0 3 
C 0.795609 3 1.55874 2.683901 2.12132 2.12132 
C 2.683901 1.55874 3 0.795609 3 0 
C 3 -0.795609 2.683901 -1.55874 2.12132 -2.12132 
C 1.55874 -2.683901 0.795609 -3 0 -3 
C -0.795609 -3 -1.55874 -2.683901 -2.12132 -2.12132 
C -2.683901 -1.55874 -3 -0.795609 -3 0 
C -3 0.795609 -2.683901 1.55874 -2.12132 2.12132 
C -1.55874 2.683901 -0.795609 3 0 3 
z
" style="stroke: #ffffff; stroke-width: 0.75"/>
    </defs>
    <g clip-path="url(#p6b7b266e94)">
     <use xlink:href="#m4ad67acfd0" x="53.328125" y="276.334125" style="fill: #1f77b4; stroke: #ffffff; stroke-width: 0.75"/>
     <use xlink:href="#m4ad67acfd0" x="71.228877" y="82.309716" style="fill: #1f77b4; stroke: #ffffff; stroke-width: 0.75"/>
     <use xlink:href="#m4ad67acfd0" x="89.129629" y="72.068882" style="fill: #1f77b4; stroke: #ffffff; stroke-width: 0.75"/>
     <use xlink:href="#m4ad67acfd0" x="107.030381" y="64.427645" style="fill: #1f77b4; stroke: #ffffff; stroke-width: 0.75"/>
     <use xlink:href="#m4ad67acfd0" x="124.931133" y="62.694581" style="fill: #1f77b4; stroke: #ffffff; stroke-width: 0.75"/>
     <use xlink:href="#m4ad67acfd0" x="142.831884" y="60.094985" style="fill: #1f77b4; stroke: #ffffff; stroke-width: 0.75"/>
     <use xlink:href="#m4ad67acfd0" x="160.732636" y="59.701106" style="fill: #1f77b4; stroke: #ffffff; stroke-width: 0.75"/>
     <use xlink:href="#m4ad67acfd0" x="178.633388" y="59.070901" style="fill: #1f77b4; stroke: #ffffff; stroke-width: 0.75"/>
     <use xlink:href="#m4ad67acfd0" x="196.53414" y="58.992126" style="fill: #1f77b4; stroke: #ffffff; stroke-width: 0.75"/>
     <use xlink:href="#m4ad67acfd0" x="214.434892" y="55.525997" style="fill: #1f77b4; stroke: #ffffff; stroke-width: 0.75"/>
     <use xlink:href="#m4ad67acfd0" x="232.335644" y="55.525997" style="fill: #1f77b4; stroke: #ffffff; stroke-width: 0.75"/>
     <use xlink:href="#m4ad67acfd0" x="250.236396" y="54.974568" style="fill: #1f77b4; stroke: #ffffff; stroke-width: 0.75"/>
     <use xlink:href="#m4ad67acfd0" x="268.137148" y="53.792933" style="fill: #1f77b4; stroke: #ffffff; stroke-width: 0.75"/>
     <use xlink:href="#m4ad67acfd0" x="286.037899" y="53.241504" style="fill: #1f77b4; stroke: #ffffff; stroke-width: 0.75"/>
     <use xlink:href="#m4ad67acfd0" x="303.938651" y="52.690074" style="fill: #1f77b4; stroke: #ffffff; stroke-width: 0.75"/>
     <use xlink:href="#m4ad67acfd0" x="321.839403" y="52.453747" style="fill: #1f77b4; stroke: #ffffff; stroke-width: 0.75"/>
     <use xlink:href="#m4ad67acfd0" x="339.740155" y="52.296196" style="fill: #1f77b4; stroke: #ffffff; stroke-width: 0.75"/>
     <use xlink:href="#m4ad67acfd0" x="357.640907" y="51.981093" style="fill: #1f77b4; stroke: #ffffff; stroke-width: 0.75"/>
     <use xlink:href="#m4ad67acfd0" x="375.541659" y="51.981093" style="fill: #1f77b4; stroke: #ffffff; stroke-width: 0.75"/>
     <use xlink:href="#m4ad67acfd0" x="393.442411" y="51.902318" style="fill: #1f77b4; stroke: #ffffff; stroke-width: 0.75"/>
     <use xlink:href="#m4ad67acfd0" x="411.343163" y="51.823542" style="fill: #1f77b4; stroke: #ffffff; stroke-width: 0.75"/>
     <use xlink:href="#m4ad67acfd0" x="429.243914" y="50.878234" style="fill: #1f77b4; stroke: #ffffff; stroke-width: 0.75"/>
     <use xlink:href="#m4ad67acfd0" x="447.144666" y="50.326805" style="fill: #1f77b4; stroke: #ffffff; stroke-width: 0.75"/>
     <use xlink:href="#m4ad67acfd0" x="465.045418" y="50.326805" style="fill: #1f77b4; stroke: #ffffff; stroke-width: 0.75"/>
     <use xlink:href="#m4ad67acfd0" x="482.94617" y="50.248029" style="fill: #1f77b4; stroke: #ffffff; stroke-width: 0.75"/>
     <use xlink:href="#m4ad67acfd0" x="500.846922" y="50.248029" style="fill: #1f77b4; stroke: #ffffff; stroke-width: 0.75"/>
     <use xlink:href="#m4ad67acfd0" x="518.747674" y="49.6966" style="fill: #1f77b4; stroke: #ffffff; stroke-width: 0.75"/>
     <use xlink:href="#m4ad67acfd0" x="536.648426" y="48.593741" style="fill: #1f77b4; stroke: #ffffff; stroke-width: 0.75"/>
     <use xlink:href="#m4ad67acfd0" x="554.549178" y="48.593741" style="fill: #1f77b4; stroke: #ffffff; stroke-width: 0.75"/>
     <use xlink:href="#m4ad67acfd0" x="572.44993" y="48.593741" style="fill: #1f77b4; stroke: #ffffff; stroke-width: 0.75"/>
     <use xlink:href="#m4ad67acfd0" x="590.350681" y="48.514965" style="fill: #1f77b4; stroke: #ffffff; stroke-width: 0.75"/>
     <use xlink:href="#m4ad67acfd0" x="608.251433" y="48.514965" style="fill: #1f77b4; stroke: #ffffff; stroke-width: 0.75"/>
     <use xlink:href="#m4ad67acfd0" x="626.152185" y="48.514965" style="fill: #1f77b4; stroke: #ffffff; stroke-width: 0.75"/>
     <use xlink:href="#m4ad67acfd0" x="644.052937" y="48.514965" style="fill: #1f77b4; stroke: #ffffff; stroke-width: 0.75"/>
     <use xlink:href="#m4ad67acfd0" x="661.953689" y="48.514965" style="fill: #1f77b4; stroke: #ffffff; stroke-width: 0.75"/>
     <use xlink:href="#m4ad67acfd0" x="679.854441" y="48.514965" style="fill: #1f77b4; stroke: #ffffff; stroke-width: 0.75"/>
     <use xlink:href="#m4ad67acfd0" x="697.755193" y="48.514965" style="fill: #1f77b4; stroke: #ffffff; stroke-width: 0.75"/>
     <use xlink:href="#m4ad67acfd0" x="715.655945" y="48.514965" style="fill: #1f77b4; stroke: #ffffff; stroke-width: 0.75"/>
     <use xlink:href="#m4ad67acfd0" x="733.556696" y="48.278638" style="fill: #1f77b4; stroke: #ffffff; stroke-width: 0.75"/>
    </g>
   </g>
   <g id="line2d_23">
    <path d="M 53.328125 276.334125 
L 71.228877 80.734203 
L 89.129629 78.134607 
L 107.030381 76.874197 
L 124.931133 75.771338 
L 142.831884 73.723171 
L 160.732636 73.486844 
L 178.633388 73.329293 
L 196.53414 72.541536 
L 214.434892 72.305209 
L 232.335644 71.123575 
L 250.236396 67.893773 
L 268.137148 67.578671 
L 286.037899 67.578671 
L 303.938651 67.421119 
L 321.839403 66.712139 
L 339.740155 65.372953 
L 357.640907 63.876216 
L 375.541659 63.639889 
L 393.442411 60.488863 
L 411.343163 54.186811 
L 429.243914 54.108036 
L 447.144666 53.950484 
L 465.045418 53.635382 
L 482.94617 53.477831 
L 500.846922 53.005177 
L 518.747674 52.847625 
L 536.648426 52.847625 
L 554.549178 52.76885 
L 572.44993 50.248029 
L 590.350681 50.011702 
L 608.251433 49.854151 
L 626.152185 49.539048 
L 644.052937 49.302722 
L 661.953689 48.042311 
L 679.854441 47.175779 
L 697.755193 47.097004 
L 715.655945 47.018228 
L 733.556696 46.781901 
" clip-path="url(#p6b7b266e94)" style="fill: none; stroke: #98df8a; stroke-width: 1.5; stroke-linecap: square"/>
    <defs>
     <path id="mb9bb2b1c75" d="M -0 3 
L 3 -3 
L -3 -3 
z
" style="stroke: #ffffff; stroke-width: 0.75; stroke-linejoin: miter"/>
    </defs>
    <g clip-path="url(#p6b7b266e94)">
     <use xlink:href="#mb9bb2b1c75" x="53.328125" y="276.334125" style="fill: #98df8a; stroke: #ffffff; stroke-width: 0.75; stroke-linejoin: miter"/>
     <use xlink:href="#mb9bb2b1c75" x="71.228877" y="80.734203" style="fill: #98df8a; stroke: #ffffff; stroke-width: 0.75; stroke-linejoin: miter"/>
     <use xlink:href="#mb9bb2b1c75" x="89.129629" y="78.134607" style="fill: #98df8a; stroke: #ffffff; stroke-width: 0.75; stroke-linejoin: miter"/>
     <use xlink:href="#mb9bb2b1c75" x="107.030381" y="76.874197" style="fill: #98df8a; stroke: #ffffff; stroke-width: 0.75; stroke-linejoin: miter"/>
     <use xlink:href="#mb9bb2b1c75" x="124.931133" y="75.771338" style="fill: #98df8a; stroke: #ffffff; stroke-width: 0.75; stroke-linejoin: miter"/>
     <use xlink:href="#mb9bb2b1c75" x="142.831884" y="73.723171" style="fill: #98df8a; stroke: #ffffff; stroke-width: 0.75; stroke-linejoin: miter"/>
     <use xlink:href="#mb9bb2b1c75" x="160.732636" y="73.486844" style="fill: #98df8a; stroke: #ffffff; stroke-width: 0.75; stroke-linejoin: miter"/>
     <use xlink:href="#mb9bb2b1c75" x="178.633388" y="73.329293" style="fill: #98df8a; stroke: #ffffff; stroke-width: 0.75; stroke-linejoin: miter"/>
     <use xlink:href="#mb9bb2b1c75" x="196.53414" y="72.541536" style="fill: #98df8a; stroke: #ffffff; stroke-width: 0.75; stroke-linejoin: miter"/>
     <use xlink:href="#mb9bb2b1c75" x="214.434892" y="72.305209" style="fill: #98df8a; stroke: #ffffff; stroke-width: 0.75; stroke-linejoin: miter"/>
     <use xlink:href="#mb9bb2b1c75" x="232.335644" y="71.123575" style="fill: #98df8a; stroke: #ffffff; stroke-width: 0.75; stroke-linejoin: miter"/>
     <use xlink:href="#mb9bb2b1c75" x="250.236396" y="67.893773" style="fill: #98df8a; stroke: #ffffff; stroke-width: 0.75; stroke-linejoin: miter"/>
     <use xlink:href="#mb9bb2b1c75" x="268.137148" y="67.578671" style="fill: #98df8a; stroke: #ffffff; stroke-width: 0.75; stroke-linejoin: miter"/>
     <use xlink:href="#mb9bb2b1c75" x="286.037899" y="67.578671" style="fill: #98df8a; stroke: #ffffff; stroke-width: 0.75; stroke-linejoin: miter"/>
     <use xlink:href="#mb9bb2b1c75" x="303.938651" y="67.421119" style="fill: #98df8a; stroke: #ffffff; stroke-width: 0.75; stroke-linejoin: miter"/>
     <use xlink:href="#mb9bb2b1c75" x="321.839403" y="66.712139" style="fill: #98df8a; stroke: #ffffff; stroke-width: 0.75; stroke-linejoin: miter"/>
     <use xlink:href="#mb9bb2b1c75" x="339.740155" y="65.372953" style="fill: #98df8a; stroke: #ffffff; stroke-width: 0.75; stroke-linejoin: miter"/>
     <use xlink:href="#mb9bb2b1c75" x="357.640907" y="63.876216" style="fill: #98df8a; stroke: #ffffff; stroke-width: 0.75; stroke-linejoin: miter"/>
     <use xlink:href="#mb9bb2b1c75" x="375.541659" y="63.639889" style="fill: #98df8a; stroke: #ffffff; stroke-width: 0.75; stroke-linejoin: miter"/>
     <use xlink:href="#mb9bb2b1c75" x="393.442411" y="60.488863" style="fill: #98df8a; stroke: #ffffff; stroke-width: 0.75; stroke-linejoin: miter"/>
     <use xlink:href="#mb9bb2b1c75" x="411.343163" y="54.186811" style="fill: #98df8a; stroke: #ffffff; stroke-width: 0.75; stroke-linejoin: miter"/>
     <use xlink:href="#mb9bb2b1c75" x="429.243914" y="54.108036" style="fill: #98df8a; stroke: #ffffff; stroke-width: 0.75; stroke-linejoin: miter"/>
     <use xlink:href="#mb9bb2b1c75" x="447.144666" y="53.950484" style="fill: #98df8a; stroke: #ffffff; stroke-width: 0.75; stroke-linejoin: miter"/>
     <use xlink:href="#mb9bb2b1c75" x="465.045418" y="53.635382" style="fill: #98df8a; stroke: #ffffff; stroke-width: 0.75; stroke-linejoin: miter"/>
     <use xlink:href="#mb9bb2b1c75" x="482.94617" y="53.477831" style="fill: #98df8a; stroke: #ffffff; stroke-width: 0.75; stroke-linejoin: miter"/>
     <use xlink:href="#mb9bb2b1c75" x="500.846922" y="53.005177" style="fill: #98df8a; stroke: #ffffff; stroke-width: 0.75; stroke-linejoin: miter"/>
     <use xlink:href="#mb9bb2b1c75" x="518.747674" y="52.847625" style="fill: #98df8a; stroke: #ffffff; stroke-width: 0.75; stroke-linejoin: miter"/>
     <use xlink:href="#mb9bb2b1c75" x="536.648426" y="52.847625" style="fill: #98df8a; stroke: #ffffff; stroke-width: 0.75; stroke-linejoin: miter"/>
     <use xlink:href="#mb9bb2b1c75" x="554.549178" y="52.76885" style="fill: #98df8a; stroke: #ffffff; stroke-width: 0.75; stroke-linejoin: miter"/>
     <use xlink:href="#mb9bb2b1c75" x="572.44993" y="50.248029" style="fill: #98df8a; stroke: #ffffff; stroke-width: 0.75; stroke-linejoin: miter"/>
     <use xlink:href="#mb9bb2b1c75" x="590.350681" y="50.011702" style="fill: #98df8a; stroke: #ffffff; stroke-width: 0.75; stroke-linejoin: miter"/>
     <use xlink:href="#mb9bb2b1c75" x="608.251433" y="49.854151" style="fill: #98df8a; stroke: #ffffff; stroke-width: 0.75; stroke-linejoin: miter"/>
     <use xlink:href="#mb9bb2b1c75" x="626.152185" y="49.539048" style="fill: #98df8a; stroke: #ffffff; stroke-width: 0.75; stroke-linejoin: miter"/>
     <use xlink:href="#mb9bb2b1c75" x="644.052937" y="49.302722" style="fill: #98df8a; stroke: #ffffff; stroke-width: 0.75; stroke-linejoin: miter"/>
     <use xlink:href="#mb9bb2b1c75" x="661.953689" y="48.042311" style="fill: #98df8a; stroke: #ffffff; stroke-width: 0.75; stroke-linejoin: miter"/>
     <use xlink:href="#mb9bb2b1c75" x="679.854441" y="47.175779" style="fill: #98df8a; stroke: #ffffff; stroke-width: 0.75; stroke-linejoin: miter"/>
     <use xlink:href="#mb9bb2b1c75" x="697.755193" y="47.097004" style="fill: #98df8a; stroke: #ffffff; stroke-width: 0.75; stroke-linejoin: miter"/>
     <use xlink:href="#mb9bb2b1c75" x="715.655945" y="47.018228" style="fill: #98df8a; stroke: #ffffff; stroke-width: 0.75; stroke-linejoin: miter"/>
     <use xlink:href="#mb9bb2b1c75" x="733.556696" y="46.781901" style="fill: #98df8a; stroke: #ffffff; stroke-width: 0.75; stroke-linejoin: miter"/>
    </g>
   </g>
   <g id="line2d_24">
    <path d="M 53.328125 276.334125 
L 71.228877 88.848094 
L 89.129629 79.15869 
L 107.030381 78.134607 
L 124.931133 76.795421 
L 142.831884 74.747254 
L 160.732636 73.801947 
L 178.633388 73.092966 
L 196.53414 73.01419 
L 214.434892 71.675004 
L 232.335644 70.808472 
L 250.236396 70.808472 
L 268.137148 70.49337 
L 286.037899 70.414594 
L 303.938651 70.178267 
L 321.839403 69.863164 
L 339.740155 69.863164 
L 357.640907 69.705613 
L 375.541659 69.705613 
L 393.442411 69.232959 
L 411.343163 68.760305 
L 429.243914 68.760305 
L 447.144666 68.760305 
L 465.045418 63.561113 
L 482.94617 63.088459 
L 500.846922 62.852132 
L 518.747674 62.300703 
L 536.648426 62.221927 
L 554.549178 62.221927 
L 572.44993 59.46478 
L 590.350681 58.755799 
L 608.251433 58.755799 
L 626.152185 58.755799 
L 644.052937 58.755799 
L 661.953689 58.204369 
L 679.854441 58.125594 
L 697.755193 57.889267 
L 715.655945 53.714158 
L 733.556696 53.477831 
" clip-path="url(#p6b7b266e94)" style="fill: none; stroke: #c7c7c7; stroke-width: 1.5; stroke-linecap: square"/>
    <defs>
     <path id="m7e7e7826f4" d="M -3 -0 
L 3 3 
L 3 -3 
z
" style="stroke: #ffffff; stroke-width: 0.75; stroke-linejoin: miter"/>
    </defs>
    <g clip-path="url(#p6b7b266e94)">
     <use xlink:href="#m7e7e7826f4" x="53.328125" y="276.334125" style="fill: #c7c7c7; stroke: #ffffff; stroke-width: 0.75; stroke-linejoin: miter"/>
     <use xlink:href="#m7e7e7826f4" x="71.228877" y="88.848094" style="fill: #c7c7c7; stroke: #ffffff; stroke-width: 0.75; stroke-linejoin: miter"/>
     <use xlink:href="#m7e7e7826f4" x="89.129629" y="79.15869" style="fill: #c7c7c7; stroke: #ffffff; stroke-width: 0.75; stroke-linejoin: miter"/>
     <use xlink:href="#m7e7e7826f4" x="107.030381" y="78.134607" style="fill: #c7c7c7; stroke: #ffffff; stroke-width: 0.75; stroke-linejoin: miter"/>
     <use xlink:href="#m7e7e7826f4" x="124.931133" y="76.795421" style="fill: #c7c7c7; stroke: #ffffff; stroke-width: 0.75; stroke-linejoin: miter"/>
     <use xlink:href="#m7e7e7826f4" x="142.831884" y="74.747254" style="fill: #c7c7c7; stroke: #ffffff; stroke-width: 0.75; stroke-linejoin: miter"/>
     <use xlink:href="#m7e7e7826f4" x="160.732636" y="73.801947" style="fill: #c7c7c7; stroke: #ffffff; stroke-width: 0.75; stroke-linejoin: miter"/>
     <use xlink:href="#m7e7e7826f4" x="178.633388" y="73.092966" style="fill: #c7c7c7; stroke: #ffffff; stroke-width: 0.75; stroke-linejoin: miter"/>
     <use xlink:href="#m7e7e7826f4" x="196.53414" y="73.01419" style="fill: #c7c7c7; stroke: #ffffff; stroke-width: 0.75; stroke-linejoin: miter"/>
     <use xlink:href="#m7e7e7826f4" x="214.434892" y="71.675004" style="fill: #c7c7c7; stroke: #ffffff; stroke-width: 0.75; stroke-linejoin: miter"/>
     <use xlink:href="#m7e7e7826f4" x="232.335644" y="70.808472" style="fill: #c7c7c7; stroke: #ffffff; stroke-width: 0.75; stroke-linejoin: miter"/>
     <use xlink:href="#m7e7e7826f4" x="250.236396" y="70.808472" style="fill: #c7c7c7; stroke: #ffffff; stroke-width: 0.75; stroke-linejoin: miter"/>
     <use xlink:href="#m7e7e7826f4" x="268.137148" y="70.49337" style="fill: #c7c7c7; stroke: #ffffff; stroke-width: 0.75; stroke-linejoin: miter"/>
     <use xlink:href="#m7e7e7826f4" x="286.037899" y="70.414594" style="fill: #c7c7c7; stroke: #ffffff; stroke-width: 0.75; stroke-linejoin: miter"/>
     <use xlink:href="#m7e7e7826f4" x="303.938651" y="70.178267" style="fill: #c7c7c7; stroke: #ffffff; stroke-width: 0.75; stroke-linejoin: miter"/>
     <use xlink:href="#m7e7e7826f4" x="321.839403" y="69.863164" style="fill: #c7c7c7; stroke: #ffffff; stroke-width: 0.75; stroke-linejoin: miter"/>
     <use xlink:href="#m7e7e7826f4" x="339.740155" y="69.863164" style="fill: #c7c7c7; stroke: #ffffff; stroke-width: 0.75; stroke-linejoin: miter"/>
     <use xlink:href="#m7e7e7826f4" x="357.640907" y="69.705613" style="fill: #c7c7c7; stroke: #ffffff; stroke-width: 0.75; stroke-linejoin: miter"/>
     <use xlink:href="#m7e7e7826f4" x="375.541659" y="69.705613" style="fill: #c7c7c7; stroke: #ffffff; stroke-width: 0.75; stroke-linejoin: miter"/>
     <use xlink:href="#m7e7e7826f4" x="393.442411" y="69.232959" style="fill: #c7c7c7; stroke: #ffffff; stroke-width: 0.75; stroke-linejoin: miter"/>
     <use xlink:href="#m7e7e7826f4" x="411.343163" y="68.760305" style="fill: #c7c7c7; stroke: #ffffff; stroke-width: 0.75; stroke-linejoin: miter"/>
     <use xlink:href="#m7e7e7826f4" x="429.243914" y="68.760305" style="fill: #c7c7c7; stroke: #ffffff; stroke-width: 0.75; stroke-linejoin: miter"/>
     <use xlink:href="#m7e7e7826f4" x="447.144666" y="68.760305" style="fill: #c7c7c7; stroke: #ffffff; stroke-width: 0.75; stroke-linejoin: miter"/>
     <use xlink:href="#m7e7e7826f4" x="465.045418" y="63.561113" style="fill: #c7c7c7; stroke: #ffffff; stroke-width: 0.75; stroke-linejoin: miter"/>
     <use xlink:href="#m7e7e7826f4" x="482.94617" y="63.088459" style="fill: #c7c7c7; stroke: #ffffff; stroke-width: 0.75; stroke-linejoin: miter"/>
     <use xlink:href="#m7e7e7826f4" x="500.846922" y="62.852132" style="fill: #c7c7c7; stroke: #ffffff; stroke-width: 0.75; stroke-linejoin: miter"/>
     <use xlink:href="#m7e7e7826f4" x="518.747674" y="62.300703" style="fill: #c7c7c7; stroke: #ffffff; stroke-width: 0.75; stroke-linejoin: miter"/>
     <use xlink:href="#m7e7e7826f4" x="536.648426" y="62.221927" style="fill: #c7c7c7; stroke: #ffffff; stroke-width: 0.75; stroke-linejoin: miter"/>
     <use xlink:href="#m7e7e7826f4" x="554.549178" y="62.221927" style="fill: #c7c7c7; stroke: #ffffff; stroke-width: 0.75; stroke-linejoin: miter"/>
     <use xlink:href="#m7e7e7826f4" x="572.44993" y="59.46478" style="fill: #c7c7c7; stroke: #ffffff; stroke-width: 0.75; stroke-linejoin: miter"/>
     <use xlink:href="#m7e7e7826f4" x="590.350681" y="58.755799" style="fill: #c7c7c7; stroke: #ffffff; stroke-width: 0.75; stroke-linejoin: miter"/>
     <use xlink:href="#m7e7e7826f4" x="608.251433" y="58.755799" style="fill: #c7c7c7; stroke: #ffffff; stroke-width: 0.75; stroke-linejoin: miter"/>
     <use xlink:href="#m7e7e7826f4" x="626.152185" y="58.755799" style="fill: #c7c7c7; stroke: #ffffff; stroke-width: 0.75; stroke-linejoin: miter"/>
     <use xlink:href="#m7e7e7826f4" x="644.052937" y="58.755799" style="fill: #c7c7c7; stroke: #ffffff; stroke-width: 0.75; stroke-linejoin: miter"/>
     <use xlink:href="#m7e7e7826f4" x="661.953689" y="58.204369" style="fill: #c7c7c7; stroke: #ffffff; stroke-width: 0.75; stroke-linejoin: miter"/>
     <use xlink:href="#m7e7e7826f4" x="679.854441" y="58.125594" style="fill: #c7c7c7; stroke: #ffffff; stroke-width: 0.75; stroke-linejoin: miter"/>
     <use xlink:href="#m7e7e7826f4" x="697.755193" y="57.889267" style="fill: #c7c7c7; stroke: #ffffff; stroke-width: 0.75; stroke-linejoin: miter"/>
     <use xlink:href="#m7e7e7826f4" x="715.655945" y="53.714158" style="fill: #c7c7c7; stroke: #ffffff; stroke-width: 0.75; stroke-linejoin: miter"/>
     <use xlink:href="#m7e7e7826f4" x="733.556696" y="53.477831" style="fill: #c7c7c7; stroke: #ffffff; stroke-width: 0.75; stroke-linejoin: miter"/>
    </g>
   </g>
   <g id="line2d_25"/>
   <g id="line2d_26"/>
   <g id="line2d_27"/>
   <g id="line2d_28"/>
   <g id="line2d_29">
    <path d="M 733.556696 288.430125 
L 733.556696 22.318125 
" clip-path="url(#p6b7b266e94)" style="fill: none; stroke: #ff0000; stroke-width: 1.5; stroke-linecap: square"/>
   </g>
   <g id="patch_3">
    <path d="M 53.328125 276.334125 
L 53.328125 40.007196 
" style="fill: none; stroke: #000000; stroke-width: 0.8; stroke-linejoin: miter; stroke-linecap: square"/>
   </g>
   <g id="patch_4">
    <path d="M 53.328125 288.430125 
L 733.556696 288.430125 
" style="fill: none; stroke: #000000; stroke-width: 0.8; stroke-linejoin: miter; stroke-linecap: square"/>
   </g>
   <g id="text_23">
    <!-- libpcap_fuzz_both (9h:30m, at least 5 trials/fuzzer) -->
    <g transform="translate(257.912188 16.318125) scale(0.12 -0.12)">
     <defs>
      <path id="DejaVuSans-6c" d="M 603 4863 
L 1178 4863 
L 1178 0 
L 603 0 
L 603 4863 
z
" transform="scale(0.015625)"/>
      <path id="DejaVuSans-70" d="M 1159 525 
L 1159 -1331 
L 581 -1331 
L 581 3500 
L 1159 3500 
L 1159 2969 
Q 1341 3281 1617 3432 
Q 1894 3584 2278 3584 
Q 2916 3584 3314 3078 
Q 3713 2572 3713 1747 
Q 3713 922 3314 415 
Q 2916 -91 2278 -91 
Q 1894 -91 1617 61 
Q 1341 213 1159 525 
z
M 3116 1747 
Q 3116 2381 2855 2742 
Q 2594 3103 2138 3103 
Q 1681 3103 1420 2742 
Q 1159 2381 1159 1747 
Q 1159 1113 1420 752 
Q 1681 391 2138 391 
Q 2594 391 2855 752 
Q 3116 1113 3116 1747 
z
" transform="scale(0.015625)"/>
      <path id="DejaVuSans-5f" d="M 3263 -1063 
L 3263 -1509 
L -63 -1509 
L -63 -1063 
L 3263 -1063 
z
" transform="scale(0.015625)"/>
      <path id="DejaVuSans-66" d="M 2375 4863 
L 2375 4384 
L 1825 4384 
Q 1516 4384 1395 4259 
Q 1275 4134 1275 3809 
L 1275 3500 
L 2222 3500 
L 2222 3053 
L 1275 3053 
L 1275 0 
L 697 0 
L 697 3053 
L 147 3053 
L 147 3500 
L 697 3500 
L 697 3744 
Q 697 4328 969 4595 
Q 1241 4863 1831 4863 
L 2375 4863 
z
" transform="scale(0.015625)"/>
      <path id="DejaVuSans-7a" d="M 353 3500 
L 3084 3500 
L 3084 2975 
L 922 459 
L 3084 459 
L 3084 0 
L 275 0 
L 275 525 
L 2438 3041 
L 353 3041 
L 353 3500 
z
" transform="scale(0.015625)"/>
      <path id="DejaVuSans-2c" d="M 750 794 
L 1409 794 
L 1409 256 
L 897 -744 
L 494 -744 
L 750 256 
L 750 794 
z
" transform="scale(0.015625)"/>
      <path id="DejaVuSans-73" d="M 2834 3397 
L 2834 2853 
Q 2591 2978 2328 3040 
Q 2066 3103 1784 3103 
Q 1356 3103 1142 2972 
Q 928 2841 928 2578 
Q 928 2378 1081 2264 
Q 1234 2150 1697 2047 
L 1894 2003 
Q 2506 1872 2764 1633 
Q 3022 1394 3022 966 
Q 3022 478 2636 193 
Q 2250 -91 1575 -91 
Q 1294 -91 989 -36 
Q 684 19 347 128 
L 347 722 
Q 666 556 975 473 
Q 1284 391 1588 391 
Q 1994 391 2212 530 
Q 2431 669 2431 922 
Q 2431 1156 2273 1281 
Q 2116 1406 1581 1522 
L 1381 1569 
Q 847 1681 609 1914 
Q 372 2147 372 2553 
Q 372 3047 722 3315 
Q 1072 3584 1716 3584 
Q 2034 3584 2315 3537 
Q 2597 3491 2834 3397 
z
" transform="scale(0.015625)"/>
      <path id="DejaVuSans-2f" d="M 1625 4666 
L 2156 4666 
L 531 -594 
L 0 -594 
L 1625 4666 
z
" transform="scale(0.015625)"/>
     </defs>
     <use xlink:href="#DejaVuSans-6c"/>
     <use xlink:href="#DejaVuSans-69" transform="translate(27.783203 0)"/>
     <use xlink:href="#DejaVuSans-62" transform="translate(55.566406 0)"/>
     <use xlink:href="#DejaVuSans-70" transform="translate(119.042969 0)"/>
     <use xlink:href="#DejaVuSans-63" transform="translate(182.519531 0)"/>
     <use xlink:href="#DejaVuSans-61" transform="translate(237.5 0)"/>
     <use xlink:href="#DejaVuSans-70" transform="translate(298.779297 0)"/>
     <use xlink:href="#DejaVuSans-5f" transform="translate(362.255859 0)"/>
     <use xlink:href="#DejaVuSans-66" transform="translate(412.255859 0)"/>
     <use xlink:href="#DejaVuSans-75" transform="translate(447.460938 0)"/>
     <use xlink:href="#DejaVuSans-7a" transform="translate(510.839844 0)"/>
     <use xlink:href="#DejaVuSans-7a" transform="translate(563.330078 0)"/>
     <use xlink:href="#DejaVuSans-5f" transform="translate(615.820312 0)"/>
     <use xlink:href="#DejaVuSans-62" transform="translate(665.820312 0)"/>
     <use xlink:href="#DejaVuSans-6f" transform="translate(729.296875 0)"/>
     <use xlink:href="#DejaVuSans-74" transform="translate(790.478516 0)"/>
     <use xlink:href="#DejaVuSans-68" transform="translate(829.6875 0)"/>
     <use xlink:href="#DejaVuSans-20" transform="translate(893.066406 0)"/>
     <use xlink:href="#DejaVuSans-28" transform="translate(924.853516 0)"/>
     <use xlink:href="#DejaVuSans-39" transform="translate(963.867188 0)"/>
     <use xlink:href="#DejaVuSans-68" transform="translate(1027.490234 0)"/>
     <use xlink:href="#DejaVuSans-3a" transform="translate(1090.869141 0)"/>
     <use xlink:href="#DejaVuSans-33" transform="translate(1124.560547 0)"/>
     <use xlink:href="#DejaVuSans-30" transform="translate(1188.183594 0)"/>
     <use xlink:href="#DejaVuSans-6d" transform="translate(1251.806641 0)"/>
     <use xlink:href="#DejaVuSans-2c" transform="translate(1349.21875 0)"/>
     <use xlink:href="#DejaVuSans-20" transform="translate(1381.005859 0)"/>
     <use xlink:href="#DejaVuSans-61" transform="translate(1412.792969 0)"/>
     <use xlink:href="#DejaVuSans-74" transform="translate(1474.072266 0)"/>
     <use xlink:href="#DejaVuSans-20" transform="translate(1513.28125 0)"/>
     <use xlink:href="#DejaVuSans-6c" transform="translate(1545.068359 0)"/>
     <use xlink:href="#DejaVuSans-65" transform="translate(1572.851562 0)"/>
     <use xlink:href="#DejaVuSans-61" transform="translate(1634.375 0)"/>
     <use xlink:href="#DejaVuSans-73" transform="translate(1695.654297 0)"/>
     <use xlink:href="#DejaVuSans-74" transform="translate(1747.753906 0)"/>
     <use xlink:href="#DejaVuSans-20" transform="translate(1786.962891 0)"/>
     <use xlink:href="#DejaVuSans-35" transform="translate(1818.75 0)"/>
     <use xlink:href="#DejaVuSans-20" transform="translate(1882.373047 0)"/>
     <use xlink:href="#DejaVuSans-74" transform="translate(1914.160156 0)"/>
     <use xlink:href="#DejaVuSans-72" transform="translate(1953.369141 0)"/>
     <use xlink:href="#DejaVuSans-69" transform="translate(1994.482422 0)"/>
     <use xlink:href="#DejaVuSans-61" transform="translate(2022.265625 0)"/>
     <use xlink:href="#DejaVuSans-6c" transform="translate(2083.544922 0)"/>
     <use xlink:href="#DejaVuSans-73" transform="translate(2111.328125 0)"/>
     <use xlink:href="#DejaVuSans-2f" transform="translate(2163.427734 0)"/>
     <use xlink:href="#DejaVuSans-66" transform="translate(2197.119141 0)"/>
     <use xlink:href="#DejaVuSans-75" transform="translate(2232.324219 0)"/>
     <use xlink:href="#DejaVuSans-7a" transform="translate(2295.703125 0)"/>
     <use xlink:href="#DejaVuSans-7a" transform="translate(2348.193359 0)"/>
     <use xlink:href="#DejaVuSans-65" transform="translate(2400.683594 0)"/>
     <use xlink:href="#DejaVuSans-72" transform="translate(2462.207031 0)"/>
     <use xlink:href="#DejaVuSans-29" transform="translate(2503.320312 0)"/>
    </g>
   </g>
   <g id="legend_1">
    <g id="line2d_30">
     <path d="M 771.568125 30.416562 
L 781.568125 30.416562 
L 791.568125 30.416562 
" style="fill: none; stroke: #d62728; stroke-width: 1.5; stroke-linecap: square"/>
     <g>
      <use xlink:href="#m2d562a7552" x="781.568125" y="30.416562" style="fill: #d62728; stroke: #ffffff; stroke-width: 0.75; stroke-linejoin: miter"/>
     </g>
    </g>
    <g id="text_24">
     <!-- aflplusplus_c11 -->
     <g transform="translate(799.568125 33.916562) scale(0.1 -0.1)">
      <use xlink:href="#DejaVuSans-61"/>
      <use xlink:href="#DejaVuSans-66" transform="translate(61.279297 0)"/>
      <use xlink:href="#DejaVuSans-6c" transform="translate(96.484375 0)"/>
      <use xlink:href="#DejaVuSans-70" transform="translate(124.267578 0)"/>
      <use xlink:href="#DejaVuSans-6c" transform="translate(187.744141 0)"/>
      <use xlink:href="#DejaVuSans-75" transform="translate(215.527344 0)"/>
      <use xlink:href="#DejaVuSans-73" transform="translate(278.90625 0)"/>
      <use xlink:href="#DejaVuSans-70" transform="translate(331.005859 0)"/>
      <use xlink:href="#DejaVuSans-6c" transform="translate(394.482422 0)"/>
      <use xlink:href="#DejaVuSans-75" transform="translate(422.265625 0)"/>
      <use xlink:href="#DejaVuSans-73" transform="translate(485.644531 0)"/>
      <use xlink:href="#DejaVuSans-5f" transform="translate(537.744141 0)"/>
      <use xlink:href="#DejaVuSans-63" transform="translate(587.744141 0)"/>
      <use xlink:href="#DejaVuSans-31" transform="translate(642.724609 0)"/>
      <use xlink:href="#DejaVuSans-31" transform="translate(706.347656 0)"/>
     </g>
    </g>
    <g id="line2d_31">
     <path d="M 771.568125 45.372813 
L 781.568125 45.372813 
L 791.568125 45.372813 
" style="fill: none; stroke: #1f77b4; stroke-width: 1.5; stroke-linecap: square"/>
     <g>
      <use xlink:href="#m4ad67acfd0" x="781.568125" y="45.372813" style="fill: #1f77b4; stroke: #ffffff; stroke-width: 0.75"/>
     </g>
    </g>
    <g id="text_25">
     <!-- aflplusplus_440c -->
     <g transform="translate(799.568125 48.872813) scale(0.1 -0.1)">
      <use xlink:href="#DejaVuSans-61"/>
      <use xlink:href="#DejaVuSans-66" transform="translate(61.279297 0)"/>
      <use xlink:href="#DejaVuSans-6c" transform="translate(96.484375 0)"/>
      <use xlink:href="#DejaVuSans-70" transform="translate(124.267578 0)"/>
      <use xlink:href="#DejaVuSans-6c" transform="translate(187.744141 0)"/>
      <use xlink:href="#DejaVuSans-75" transform="translate(215.527344 0)"/>
      <use xlink:href="#DejaVuSans-73" transform="translate(278.90625 0)"/>
      <use xlink:href="#DejaVuSans-70" transform="translate(331.005859 0)"/>
      <use xlink:href="#DejaVuSans-6c" transform="translate(394.482422 0)"/>
      <use xlink:href="#DejaVuSans-75" transform="translate(422.265625 0)"/>
      <use xlink:href="#DejaVuSans-73" transform="translate(485.644531 0)"/>
      <use xlink:href="#DejaVuSans-5f" transform="translate(537.744141 0)"/>
      <use xlink:href="#DejaVuSans-34" transform="translate(587.744141 0)"/>
      <use xlink:href="#DejaVuSans-34" transform="translate(651.367188 0)"/>
      <use xlink:href="#DejaVuSans-30" transform="translate(714.990234 0)"/>
      <use xlink:href="#DejaVuSans-63" transform="translate(778.613281 0)"/>
     </g>
    </g>
    <g id="line2d_32">
     <path d="M 771.568125 60.329063 
L 781.568125 60.329063 
L 791.568125 60.329063 
" style="fill: none; stroke: #98df8a; stroke-width: 1.5; stroke-linecap: square"/>
     <g>
      <use xlink:href="#mb9bb2b1c75" x="781.568125" y="60.329063" style="fill: #98df8a; stroke: #ffffff; stroke-width: 0.75; stroke-linejoin: miter"/>
     </g>
    </g>
    <g id="text_26">
     <!-- aflplusplus_500c -->
     <g transform="translate(799.568125 63.829063) scale(0.1 -0.1)">
      <use xlink:href="#DejaVuSans-61"/>
      <use xlink:href="#DejaVuSans-66" transform="translate(61.279297 0)"/>
      <use xlink:href="#DejaVuSans-6c" transform="translate(96.484375 0)"/>
      <use xlink:href="#DejaVuSans-70" transform="translate(124.267578 0)"/>
      <use xlink:href="#DejaVuSans-6c" transform="translate(187.744141 0)"/>
      <use xlink:href="#DejaVuSans-75" transform="translate(215.527344 0)"/>
      <use xlink:href="#DejaVuSans-73" transform="translate(278.90625 0)"/>
      <use xlink:href="#DejaVuSans-70" transform="translate(331.005859 0)"/>
      <use xlink:href="#DejaVuSans-6c" transform="translate(394.482422 0)"/>
      <use xlink:href="#DejaVuSans-75" transform="translate(422.265625 0)"/>
      <use xlink:href="#DejaVuSans-73" transform="translate(485.644531 0)"/>
      <use xlink:href="#DejaVuSans-5f" transform="translate(537.744141 0)"/>
      <use xlink:href="#DejaVuSans-35" transform="translate(587.744141 0)"/>
      <use xlink:href="#DejaVuSans-30" transform="translate(651.367188 0)"/>
      <use xlink:href="#DejaVuSans-30" transform="translate(714.990234 0)"/>
      <use xlink:href="#DejaVuSans-63" transform="translate(778.613281 0)"/>
     </g>
    </g>
    <g id="line2d_33">
     <path d="M 771.568125 75.285313 
L 781.568125 75.285313 
L 791.568125 75.285313 
" style="fill: none; stroke: #c7c7c7; stroke-width: 1.5; stroke-linecap: square"/>
     <g>
      <use xlink:href="#m7e7e7826f4" x="781.568125" y="75.285313" style="fill: #c7c7c7; stroke: #ffffff; stroke-width: 0.75; stroke-linejoin: miter"/>
     </g>
    </g>
    <g id="text_27">
     <!-- aflplusplus_mopt -->
     <g transform="translate(799.568125 78.785313) scale(0.1 -0.1)">
      <use xlink:href="#DejaVuSans-61"/>
      <use xlink:href="#DejaVuSans-66" transform="translate(61.279297 0)"/>
      <use xlink:href="#DejaVuSans-6c" transform="translate(96.484375 0)"/>
      <use xlink:href="#DejaVuSans-70" transform="translate(124.267578 0)"/>
      <use xlink:href="#DejaVuSans-6c" transform="translate(187.744141 0)"/>
      <use xlink:href="#DejaVuSans-75" transform="translate(215.527344 0)"/>
      <use xlink:href="#DejaVuSans-73" transform="translate(278.90625 0)"/>
      <use xlink:href="#DejaVuSans-70" transform="translate(331.005859 0)"/>
      <use xlink:href="#DejaVuSans-6c" transform="translate(394.482422 0)"/>
      <use xlink:href="#DejaVuSans-75" transform="translate(422.265625 0)"/>
      <use xlink:href="#DejaVuSans-73" transform="translate(485.644531 0)"/>
      <use xlink:href="#DejaVuSans-5f" transform="translate(537.744141 0)"/>
      <use xlink:href="#DejaVuSans-6d" transform="translate(587.744141 0)"/>
      <use xlink:href="#DejaVuSans-6f" transform="translate(685.15625 0)"/>
      <use xlink:href="#DejaVuSans-70" transform="translate(746.337891 0)"/>
      <use xlink:href="#DejaVuSans-74" transform="translate(809.814453 0)"/>
     </g>
    </g>
   </g>
  </g>
 </g>
 <defs>
  <clipPath id="p6b7b266e94">
   <rect x="53.328125" y="22.318125" width="714.24" height="266.112"/>
  </clipPath>
 </defs>
</svg>
