<?xml version="1.0" encoding="utf-8" standalone="no"?>
<!DOCTYPE svg PUBLIC "-//W3C//DTD SVG 1.1//EN"
  "http://www.w3.org/Graphics/SVG/1.1/DTD/svg11.dtd">
<svg xmlns:xlink="http://www.w3.org/1999/xlink" width="902.032187pt" height="325.986375pt" viewBox="0 0 902.032187 325.986375" xmlns="http://www.w3.org/2000/svg" version="1.1">
 <metadata>
  <rdf:RDF xmlns:dc="http://purl.org/dc/elements/1.1/" xmlns:cc="http://creativecommons.org/ns#" xmlns:rdf="http://www.w3.org/1999/02/22-rdf-syntax-ns#">
   <cc:Work>
    <dc:type rdf:resource="http://purl.org/dc/dcmitype/StillImage"/>
    <dc:date>2026-06-10T03:21:13.664776</dc:date>
    <dc:format>image/svg+xml</dc:format>
    <dc:creator>
     <cc:Agent>
      <dc:title>Matplotlib v3.10.9, https://matplotlib.org/</dc:title>
     </cc:Agent>
    </dc:creator>
   </cc:Work>
  </rdf:RDF>
 </metadata>
 <defs>
  <style type="text/css">*{stroke-linejoin: round; stroke-linecap: butt}</style>
 </defs>
 <g id="figure_1">
  <g id="patch_1">
   <path d="M 0 325.986375 
L 902.032187 325.986375 
L 902.032187 0 
L 0 0 
z
" style="fill: #ffffff"/>
  </g>
  <g id="axes_1">
   <g id="patch_2">
    <path d="M 59.690625 288.430125 
L 773.930625 288.430125 
L 773.930625 22.318125 
L 59.690625 22.318125 
z
" style="fill: #ffffff"/>
   </g>
   <g id="FillBetweenPolyCollection_1">
    <defs>
     <path id="mab46577850" d="M 59.690625 -49.65225 
L 59.690625 -49.65225 
L 74.163573 -158.499333 
L 88.636522 -158.668507 
L 103.10947 -158.668507 
L 117.582418 -158.668507 
L 132.055367 -158.668507 
L 146.528315 -158.668507 
L 161.001263 -158.668507 
L 175.474212 -158.770012 
L 189.94716 -159.142197 
L 204.420108 -159.142197 
L 218.893057 -159.717391 
L 233.366005 -159.717391 
L 247.838953 -175.992009 
L 262.311902 -176.025844 
L 276.78485 -176.059679 
L 291.257798 -176.059679 
L 305.730747 -176.702544 
L 320.203695 -176.702544 
L 334.676643 -176.702544 
L 349.149592 -176.702544 
L 363.62254 -176.702544 
L 378.095488 -176.702544 
L 392.568437 -176.702544 
L 407.041385 -177.007058 
L 421.514333 -177.040893 
L 435.987282 -177.040893 
L 450.46023 -177.040893 
L 464.933178 -177.040893 
L 479.406127 -177.040893 
L 493.879075 -177.548418 
L 508.352023 -177.548418 
L 522.824972 -214.42853 
L 537.29792 -223.056446 
L 551.770868 -224.680524 
L 566.243816 -233.24077 
L 580.716765 -239.094219 
L 595.189713 -240.650628 
L 609.662661 -240.650628 
L 624.13561 -246.740921 
L 638.608558 -253.2034 
L 653.081506 -255.774857 
L 667.554455 -256.113207 
L 682.027403 -258.075635 
L 696.500351 -258.853839 
L 710.9733 -261.492966 
L 725.446248 -262.508015 
L 739.919196 -266.094521 
L 739.919196 -291.57225 
L 739.919196 -291.57225 
L 725.446248 -291.538415 
L 710.9733 -291.50458 
L 696.500351 -291.335405 
L 682.027403 -291.16623 
L 667.554455 -290.895551 
L 653.081506 -290.354191 
L 638.608558 -289.982007 
L 624.13561 -289.305307 
L 609.662661 -289.169967 
L 595.189713 -288.730113 
L 580.716765 -287.20754 
L 566.243816 -286.26016 
L 551.770868 -285.414286 
L 537.29792 -285.278947 
L 522.824972 -283.451858 
L 508.352023 -281.286421 
L 493.879075 -280.948071 
L 479.406127 -279.899187 
L 464.933178 -279.527002 
L 450.46023 -279.323993 
L 435.987282 -279.256323 
L 421.514333 -278.748798 
L 407.041385 -278.173604 
L 392.568437 -278.004429 
L 378.095488 -277.902924 
L 363.62254 -277.699914 
L 349.149592 -276.008166 
L 334.676643 -275.399137 
L 320.203695 -274.248748 
L 305.730747 -273.369039 
L 291.257798 -267.684765 
L 276.78485 -265.790007 
L 262.311902 -263.759909 
L 247.838953 -263.184714 
L 233.366005 -261.932821 
L 218.893057 -256.756071 
L 204.420108 -250.192088 
L 189.94716 -242.816065 
L 175.474212 -233.44378 
L 161.001263 -215.815763 
L 146.528315 -177.243903 
L 132.055367 -177.243903 
L 117.582418 -177.243903 
L 103.10947 -177.243903 
L 88.636522 -177.243903 
L 74.163573 -177.210068 
L 59.690625 -49.65225 
z
" style="stroke: #1f77b4; stroke-opacity: 0.2"/>
    </defs>
    <g clip-path="url(#p041ee61302)">
     <use xlink:href="#mab46577850" x="0" y="325.986375" style="fill: #1f77b4; fill-opacity: 0.2; stroke: #1f77b4; stroke-opacity: 0.2"/>
    </g>
   </g>
   <g id="FillBetweenPolyCollection_2">
    <defs>
     <path id="mb9eb431383" d="M 59.690625 -49.65225 
L 59.690625 -49.65225 
L 74.163573 -166.349044 
L 88.636522 -166.349044 
L 103.10947 -167.025744 
L 117.582418 -167.025744 
L 132.055367 -174.503271 
L 146.528315 -174.503271 
L 161.001263 -174.503271 
L 175.474212 -174.503271 
L 189.94716 -174.503271 
L 204.420108 -174.503271 
L 218.893057 -174.503271 
L 233.366005 -174.604776 
L 247.838953 -174.638611 
L 262.311902 -174.638611 
L 276.78485 -214.665374 
L 291.257798 -215.714258 
L 305.730747 -219.030085 
L 320.203695 -219.3346 
L 334.676643 -222.075232 
L 349.149592 -223.327126 
L 363.62254 -223.327126 
L 378.095488 -229.315914 
L 392.568437 -230.263293 
L 407.041385 -230.330963 
L 421.514333 -237.740821 
L 435.987282 -238.789705 
L 450.46023 -238.789705 
L 464.933178 -240.041598 
L 479.406127 -240.109268 
L 493.879075 -240.244608 
L 508.352023 -242.511551 
L 522.824972 -244.203299 
L 537.29792 -244.304804 
L 551.770868 -244.338639 
L 566.243816 -244.575484 
L 580.716765 -244.676988 
L 595.189713 -245.049173 
L 609.662661 -246.165727 
L 624.13561 -246.470242 
L 638.608558 -250.530437 
L 653.081506 -257.466605 
L 667.554455 -264.707288 
L 682.027403 -266.940395 
L 696.500351 -269.004328 
L 710.9733 -270.120882 
L 725.446248 -270.323892 
L 739.919196 -270.797581 
L 739.919196 -287.309044 
L 739.919196 -287.309044 
L 725.446248 -287.106035 
L 710.9733 -286.564675 
L 696.500351 -286.497005 
L 682.027403 -286.3955 
L 667.554455 -286.32783 
L 653.081506 -286.023316 
L 638.608558 -286.023316 
L 624.13561 -285.989481 
L 609.662661 -285.989481 
L 595.189713 -285.684966 
L 580.716765 -285.617296 
L 566.243816 -285.414286 
L 551.770868 -285.312781 
L 537.29792 -285.211277 
L 522.824972 -284.974432 
L 508.352023 -284.906762 
L 493.879075 -284.771422 
L 479.406127 -284.027053 
L 464.933178 -282.775159 
L 450.46023 -281.387926 
L 435.987282 -280.745061 
L 421.514333 -280.542051 
L 407.041385 -280.508216 
L 392.568437 -280.203702 
L 378.095488 -278.985643 
L 363.62254 -278.613458 
L 349.149592 -276.58336 
L 334.676643 -276.414186 
L 320.203695 -276.312681 
L 305.730747 -271.81263 
L 291.257798 -269.342678 
L 276.78485 -269.004328 
L 262.311902 -268.395299 
L 247.838953 -268.192289 
L 233.366005 -264.267433 
L 218.893057 -264.132093 
L 204.420108 -255.402672 
L 189.94716 -252.289856 
L 175.474212 -247.55296 
L 161.001263 -244.609319 
L 146.528315 -233.477615 
L 132.055367 -221.567707 
L 117.582418 -213.75183 
L 103.10947 -176.601039 
L 88.636522 -176.601039 
L 74.163573 -176.533369 
L 59.690625 -49.65225 
z
" style="stroke: #d62728; stroke-opacity: 0.2"/>
    </defs>
    <g clip-path="url(#p041ee61302)">
     <use xlink:href="#mb9eb431383" x="0" y="325.986375" style="fill: #d62728; fill-opacity: 0.2; stroke: #d62728; stroke-opacity: 0.2"/>
    </g>
   </g>
   <g id="FillBetweenPolyCollection_3">
    <defs>
     <path id="m2fb9cd5777" d="M 59.690625 -49.65225 
L 59.690625 -49.65225 
L 74.163573 -170.121643 
L 88.636522 -170.561498 
L 103.10947 -170.899847 
L 117.582418 -170.916765 
L 132.055367 -171.441207 
L 146.528315 -171.576547 
L 161.001263 -171.661134 
L 175.474212 -171.678051 
L 189.94716 -171.779556 
L 204.420108 -174.215674 
L 218.893057 -171.779556 
L 233.366005 -171.965649 
L 247.838953 -175.281475 
L 262.311902 -175.281475 
L 276.78485 -175.281475 
L 291.257798 -175.298393 
L 305.730747 -175.298393 
L 320.203695 -175.349145 
L 334.676643 -175.399898 
L 349.149592 -175.51832 
L 363.62254 -181.608614 
L 378.095488 -175.51832 
L 392.568437 -175.51832 
L 407.041385 -175.51832 
L 421.514333 -175.51832 
L 435.987282 -192.689565 
L 450.46023 -218.421056 
L 464.933178 -219.757537 
L 479.406127 -225.543316 
L 493.879075 -228.114773 
L 508.352023 -228.571545 
L 522.824972 -234.221984 
L 537.29792 -237.334801 
L 551.770868 -244.795411 
L 566.243816 -244.930751 
L 580.716765 -251.917671 
L 595.189713 -254.759808 
L 609.662661 -256.925246 
L 624.13561 -259.209106 
L 638.608558 -262.389593 
L 653.081506 -264.92214 
L 667.554455 -265.722337 
L 682.027403 -266.821973 
L 696.500351 -267.346415 
L 710.9733 -268.682896 
L 725.446248 -271.694208 
L 739.919196 -272.337072 
L 739.919196 -289.305307 
L 739.919196 -289.305307 
L 725.446248 -289.136133 
L 710.9733 -288.95004 
L 696.500351 -288.933123 
L 682.027403 -288.8147 
L 667.554455 -288.662443 
L 653.081506 -288.408681 
L 638.608558 -288.256423 
L 624.13561 -287.322155 
L 609.662661 -287.630477 
L 595.189713 -287.444384 
L 580.716765 -287.224457 
L 566.243816 -286.86919 
L 551.770868 -286.277078 
L 537.29792 -285.109772 
L 522.824972 -283.90863 
L 508.352023 -283.028921 
L 493.879075 -282.047707 
L 479.406127 -280.829649 
L 464.933178 -278.545788 
L 450.46023 -279.74693 
L 435.987282 -279.036395 
L 421.514333 -278.714963 
L 407.041385 -277.936759 
L 392.568437 -277.496905 
L 378.095488 -276.177341 
L 363.62254 -274.807025 
L 349.149592 -273.182947 
L 334.676643 -272.573917 
L 320.203695 -271.423528 
L 305.730747 -269.207338 
L 291.257798 -266.821973 
L 276.78485 -263.709156 
L 262.311902 -259.801218 
L 247.838953 -254.827478 
L 233.366005 -247.722135 
L 218.893057 -243.171333 
L 204.420108 -232.191886 
L 189.94716 -225.797078 
L 175.474212 -200.234762 
L 161.001263 -181.202594 
L 146.528315 -181.202594 
L 132.055367 -181.168759 
L 117.582418 -181.168759 
L 103.10947 -180.982667 
L 88.636522 -180.982667 
L 74.163573 -180.711987 
L 59.690625 -49.65225 
z
" style="stroke: #c7c7c7; stroke-opacity: 0.2"/>
    </defs>
    <g clip-path="url(#p041ee61302)">
     <use xlink:href="#m2fb9cd5777" x="0" y="325.986375" style="fill: #c7c7c7; fill-opacity: 0.2; stroke: #c7c7c7; stroke-opacity: 0.2"/>
    </g>
   </g>
   <g id="FillBetweenPolyCollection_4">
    <defs>
     <path id="m8e13397cfd" d="M 59.690625 -49.65225 
L 59.690625 -49.65225 
L 74.163573 -171.728804 
L 88.636522 -171.864144 
L 103.10947 -171.864144 
L 117.582418 -171.864144 
L 132.055367 -171.864144 
L 146.528315 -171.864144 
L 161.001263 -172.236328 
L 175.474212 -172.236328 
L 189.94716 -172.270163 
L 204.420108 -172.913028 
L 218.893057 -172.913028 
L 233.366005 -173.014533 
L 247.838953 -173.014533 
L 262.311902 -173.014533 
L 276.78485 -173.014533 
L 291.257798 -173.014533 
L 305.730747 -173.014533 
L 320.203695 -173.014533 
L 334.676643 -173.014533 
L 349.149592 -173.014533 
L 363.62254 -173.014533 
L 378.095488 -173.014533 
L 392.568437 -173.014533 
L 407.041385 -173.014533 
L 421.514333 -173.014533 
L 435.987282 -173.048367 
L 450.46023 -173.082202 
L 464.933178 -173.082202 
L 479.406127 -173.082202 
L 493.879075 -173.082202 
L 508.352023 -176.059679 
L 522.824972 -176.059679 
L 537.29792 -210.097654 
L 551.770868 -216.898482 
L 566.243816 -218.962415 
L 580.716765 -226.372272 
L 595.189713 -226.981302 
L 609.662661 -227.116642 
L 624.13561 -231.853537 
L 638.608558 -238.519025 
L 653.081506 -247.485291 
L 667.554455 -247.654465 
L 682.027403 -248.02665 
L 696.500351 -249.312379 
L 710.9733 -250.970292 
L 725.446248 -253.2034 
L 739.919196 -257.060586 
L 739.919196 -286.970695 
L 739.919196 -286.970695 
L 725.446248 -286.59851 
L 710.9733 -286.59851 
L 696.500351 -286.3955 
L 682.027403 -286.090986 
L 667.554455 -285.617296 
L 653.081506 -285.549626 
L 638.608558 -285.414286 
L 624.13561 -285.042102 
L 609.662661 -284.669917 
L 595.189713 -284.399237 
L 580.716765 -284.230063 
L 566.243816 -282.36914 
L 551.770868 -281.218751 
L 537.29792 -278.511953 
L 522.824972 -278.511953 
L 508.352023 -278.173604 
L 493.879075 -278.105934 
L 479.406127 -276.617195 
L 464.933178 -275.432972 
L 450.46023 -274.451758 
L 435.987282 -273.944233 
L 421.514333 -273.876563 
L 407.041385 -273.639719 
L 392.568437 -272.726174 
L 378.095488 -269.004328 
L 363.62254 -268.056949 
L 349.149592 -267.617095 
L 334.676643 -266.297531 
L 320.203695 -265.180977 
L 305.730747 -264.199763 
L 291.257798 -261.289956 
L 276.78485 -260.647092 
L 262.311902 -255.064323 
L 247.838953 -252.831215 
L 233.366005 -252.763545 
L 218.893057 -248.974029 
L 204.420108 -242.748395 
L 189.94716 -236.116742 
L 175.474212 -218.556395 
L 161.001263 -176.939388 
L 146.528315 -176.939388 
L 132.055367 -176.939388 
L 117.582418 -176.905553 
L 103.10947 -176.804049 
L 88.636522 -176.804049 
L 74.163573 -176.364194 
L 59.690625 -49.65225 
z
" style="stroke: #98df8a; stroke-opacity: 0.2"/>
    </defs>
    <g clip-path="url(#p041ee61302)">
     <use xlink:href="#m8e13397cfd" x="0" y="325.986375" style="fill: #98df8a; fill-opacity: 0.2; stroke: #98df8a; stroke-opacity: 0.2"/>
    </g>
   </g>
   <g id="matplotlib.axis_1">
    <g id="xtick_1">
     <g id="line2d_1">
      <defs>
       <path id="m2eb7f21b58" d="M 0 0 
L 0 3.5 
" style="stroke: #000000; stroke-width: 0.8"/>
      </defs>
      <g>
       <use xlink:href="#m2eb7f21b58" x="59.690625" y="288.430125" style="stroke: #000000; stroke-width: 0.8"/>
      </g>
     </g>
     <g id="text_1">
      <!-- 0m -->
      <g transform="translate(51.639063 303.028562) scale(0.1 -0.1)">
       <defs>
        <path id="DejaVuSans-30" d="M 2034 4250 
Q 1547 4250 1301 3770 
Q 1056 3291 1056 2328 
Q 1056 1369 1301 889 
Q 1547 409 2034 409 
Q 2525 409 2770 889 
Q 3016 1369 3016 2328 
Q 3016 3291 2770 3770 
Q 2525 4250 2034 4250 
z
M 2034 4750 
Q 2819 4750 3233 4129 
Q 3647 3509 3647 2328 
Q 3647 1150 3233 529 
Q 2819 -91 2034 -91 
Q 1250 -91 836 529 
Q 422 1150 422 2328 
Q 422 3509 836 4129 
Q 1250 4750 2034 4750 
z
" transform="scale(0.015625)"/>
        <path id="DejaVuSans-6d" d="M 3328 2828 
Q 3544 3216 3844 3400 
Q 4144 3584 4550 3584 
Q 5097 3584 5394 3201 
Q 5691 2819 5691 2113 
L 5691 0 
L 5113 0 
L 5113 2094 
Q 5113 2597 4934 2840 
Q 4756 3084 4391 3084 
Q 3944 3084 3684 2787 
Q 3425 2491 3425 1978 
L 3425 0 
L 2847 0 
L 2847 2094 
Q 2847 2600 2669 2842 
Q 2491 3084 2119 3084 
Q 1678 3084 1418 2786 
Q 1159 2488 1159 1978 
L 1159 0 
L 581 0 
L 581 3500 
L 1159 3500 
L 1159 2956 
Q 1356 3278 1631 3431 
Q 1906 3584 2284 3584 
Q 2666 3584 2933 3390 
Q 3200 3197 3328 2828 
z
" transform="scale(0.015625)"/>
       </defs>
       <use xlink:href="#DejaVuSans-30"/>
       <use xlink:href="#DejaVuSans-6d" transform="translate(63.623047 0)"/>
      </g>
     </g>
    </g>
    <g id="xtick_2">
     <g id="line2d_2">
      <g>
       <use xlink:href="#m2eb7f21b58" x="116.376339" y="288.430125" style="stroke: #000000; stroke-width: 0.8"/>
      </g>
     </g>
     <g id="text_2">
      <!-- 58m -->
      <g transform="translate(105.143527 303.028562) scale(0.1 -0.1)">
       <defs>
        <path id="DejaVuSans-35" d="M 691 4666 
L 3169 4666 
L 3169 4134 
L 1269 4134 
L 1269 2991 
Q 1406 3038 1543 3061 
Q 1681 3084 1819 3084 
Q 2600 3084 3056 2656 
Q 3513 2228 3513 1497 
Q 3513 744 3044 326 
Q 2575 -91 1722 -91 
Q 1428 -91 1123 -41 
Q 819 9 494 109 
L 494 744 
Q 775 591 1075 516 
Q 1375 441 1709 441 
Q 2250 441 2565 725 
Q 2881 1009 2881 1497 
Q 2881 1984 2565 2268 
Q 2250 2553 1709 2553 
Q 1456 2553 1204 2497 
Q 953 2441 691 2322 
L 691 4666 
z
" transform="scale(0.015625)"/>
        <path id="DejaVuSans-38" d="M 2034 2216 
Q 1584 2216 1326 1975 
Q 1069 1734 1069 1313 
Q 1069 891 1326 650 
Q 1584 409 2034 409 
Q 2484 409 2743 651 
Q 3003 894 3003 1313 
Q 3003 1734 2745 1975 
Q 2488 2216 2034 2216 
z
M 1403 2484 
Q 997 2584 770 2862 
Q 544 3141 544 3541 
Q 544 4100 942 4425 
Q 1341 4750 2034 4750 
Q 2731 4750 3128 4425 
Q 3525 4100 3525 3541 
Q 3525 3141 3298 2862 
Q 3072 2584 2669 2484 
Q 3125 2378 3379 2068 
Q 3634 1759 3634 1313 
Q 3634 634 3220 271 
Q 2806 -91 2034 -91 
Q 1263 -91 848 271 
Q 434 634 434 1313 
Q 434 1759 690 2068 
Q 947 2378 1403 2484 
z
M 1172 3481 
Q 1172 3119 1398 2916 
Q 1625 2713 2034 2713 
Q 2441 2713 2670 2916 
Q 2900 3119 2900 3481 
Q 2900 3844 2670 4047 
Q 2441 4250 2034 4250 
Q 1625 4250 1398 4047 
Q 1172 3844 1172 3481 
z
" transform="scale(0.015625)"/>
       </defs>
       <use xlink:href="#DejaVuSans-35"/>
       <use xlink:href="#DejaVuSans-38" transform="translate(63.623047 0)"/>
       <use xlink:href="#DejaVuSans-6d" transform="translate(127.246094 0)"/>
      </g>
     </g>
    </g>
    <g id="xtick_3">
     <g id="line2d_3">
      <g>
       <use xlink:href="#m2eb7f21b58" x="173.062054" y="288.430125" style="stroke: #000000; stroke-width: 0.8"/>
      </g>
     </g>
     <g id="text_3">
      <!-- 1h:57m -->
      <g transform="translate(153.794866 303.028562) scale(0.1 -0.1)">
       <defs>
        <path id="DejaVuSans-31" d="M 794 531 
L 1825 531 
L 1825 4091 
L 703 3866 
L 703 4441 
L 1819 4666 
L 2450 4666 
L 2450 531 
L 3481 531 
L 3481 0 
L 794 0 
L 794 531 
z
" transform="scale(0.015625)"/>
        <path id="DejaVuSans-68" d="M 3513 2113 
L 3513 0 
L 2938 0 
L 2938 2094 
Q 2938 2591 2744 2837 
Q 2550 3084 2163 3084 
Q 1697 3084 1428 2787 
Q 1159 2491 1159 1978 
L 1159 0 
L 581 0 
L 581 4863 
L 1159 4863 
L 1159 2956 
Q 1366 3272 1645 3428 
Q 1925 3584 2291 3584 
Q 2894 3584 3203 3211 
Q 3513 2838 3513 2113 
z
" transform="scale(0.015625)"/>
        <path id="DejaVuSans-3a" d="M 750 794 
L 1409 794 
L 1409 0 
L 750 0 
L 750 794 
z
M 750 3309 
L 1409 3309 
L 1409 2516 
L 750 2516 
L 750 3309 
z
" transform="scale(0.015625)"/>
        <path id="DejaVuSans-37" d="M 525 4666 
L 3525 4666 
L 3525 4397 
L 1831 0 
L 1172 0 
L 2766 4134 
L 525 4134 
L 525 4666 
z
" transform="scale(0.015625)"/>
       </defs>
       <use xlink:href="#DejaVuSans-31"/>
       <use xlink:href="#DejaVuSans-68" transform="translate(63.623047 0)"/>
       <use xlink:href="#DejaVuSans-3a" transform="translate(127.001953 0)"/>
       <use xlink:href="#DejaVuSans-35" transform="translate(160.693359 0)"/>
       <use xlink:href="#DejaVuSans-37" transform="translate(224.316406 0)"/>
       <use xlink:href="#DejaVuSans-6d" transform="translate(287.939453 0)"/>
      </g>
     </g>
    </g>
    <g id="xtick_4">
     <g id="line2d_4">
      <g>
       <use xlink:href="#m2eb7f21b58" x="229.747768" y="288.430125" style="stroke: #000000; stroke-width: 0.8"/>
      </g>
     </g>
     <g id="text_4">
      <!-- 2h:56m -->
      <g transform="translate(210.48058 303.028562) scale(0.1 -0.1)">
       <defs>
        <path id="DejaVuSans-32" d="M 1228 531 
L 3431 531 
L 3431 0 
L 469 0 
L 469 531 
Q 828 903 1448 1529 
Q 2069 2156 2228 2338 
Q 2531 2678 2651 2914 
Q 2772 3150 2772 3378 
Q 2772 3750 2511 3984 
Q 2250 4219 1831 4219 
Q 1534 4219 1204 4116 
Q 875 4013 500 3803 
L 500 4441 
Q 881 4594 1212 4672 
Q 1544 4750 1819 4750 
Q 2544 4750 2975 4387 
Q 3406 4025 3406 3419 
Q 3406 3131 3298 2873 
Q 3191 2616 2906 2266 
Q 2828 2175 2409 1742 
Q 1991 1309 1228 531 
z
" transform="scale(0.015625)"/>
        <path id="DejaVuSans-36" d="M 2113 2584 
Q 1688 2584 1439 2293 
Q 1191 2003 1191 1497 
Q 1191 994 1439 701 
Q 1688 409 2113 409 
Q 2538 409 2786 701 
Q 3034 994 3034 1497 
Q 3034 2003 2786 2293 
Q 2538 2584 2113 2584 
z
M 3366 4563 
L 3366 3988 
Q 3128 4100 2886 4159 
Q 2644 4219 2406 4219 
Q 1781 4219 1451 3797 
Q 1122 3375 1075 2522 
Q 1259 2794 1537 2939 
Q 1816 3084 2150 3084 
Q 2853 3084 3261 2657 
Q 3669 2231 3669 1497 
Q 3669 778 3244 343 
Q 2819 -91 2113 -91 
Q 1303 -91 875 529 
Q 447 1150 447 2328 
Q 447 3434 972 4092 
Q 1497 4750 2381 4750 
Q 2619 4750 2861 4703 
Q 3103 4656 3366 4563 
z
" transform="scale(0.015625)"/>
       </defs>
       <use xlink:href="#DejaVuSans-32"/>
       <use xlink:href="#DejaVuSans-68" transform="translate(63.623047 0)"/>
       <use xlink:href="#DejaVuSans-3a" transform="translate(127.001953 0)"/>
       <use xlink:href="#DejaVuSans-35" transform="translate(160.693359 0)"/>
       <use xlink:href="#DejaVuSans-36" transform="translate(224.316406 0)"/>
       <use xlink:href="#DejaVuSans-6d" transform="translate(287.939453 0)"/>
      </g>
     </g>
    </g>
    <g id="xtick_5">
     <g id="line2d_5">
      <g>
       <use xlink:href="#m2eb7f21b58" x="286.433482" y="288.430125" style="stroke: #000000; stroke-width: 0.8"/>
      </g>
     </g>
     <g id="text_5">
      <!-- 3h:55m -->
      <g transform="translate(267.166295 303.028562) scale(0.1 -0.1)">
       <defs>
        <path id="DejaVuSans-33" d="M 2597 2516 
Q 3050 2419 3304 2112 
Q 3559 1806 3559 1356 
Q 3559 666 3084 287 
Q 2609 -91 1734 -91 
Q 1441 -91 1130 -33 
Q 819 25 488 141 
L 488 750 
Q 750 597 1062 519 
Q 1375 441 1716 441 
Q 2309 441 2620 675 
Q 2931 909 2931 1356 
Q 2931 1769 2642 2001 
Q 2353 2234 1838 2234 
L 1294 2234 
L 1294 2753 
L 1863 2753 
Q 2328 2753 2575 2939 
Q 2822 3125 2822 3475 
Q 2822 3834 2567 4026 
Q 2313 4219 1838 4219 
Q 1578 4219 1281 4162 
Q 984 4106 628 3988 
L 628 4550 
Q 988 4650 1302 4700 
Q 1616 4750 1894 4750 
Q 2613 4750 3031 4423 
Q 3450 4097 3450 3541 
Q 3450 3153 3228 2886 
Q 3006 2619 2597 2516 
z
" transform="scale(0.015625)"/>
       </defs>
       <use xlink:href="#DejaVuSans-33"/>
       <use xlink:href="#DejaVuSans-68" transform="translate(63.623047 0)"/>
       <use xlink:href="#DejaVuSans-3a" transform="translate(127.001953 0)"/>
       <use xlink:href="#DejaVuSans-35" transform="translate(160.693359 0)"/>
       <use xlink:href="#DejaVuSans-35" transform="translate(224.316406 0)"/>
       <use xlink:href="#DejaVuSans-6d" transform="translate(287.939453 0)"/>
      </g>
     </g>
    </g>
    <g id="xtick_6">
     <g id="line2d_6">
      <g>
       <use xlink:href="#m2eb7f21b58" x="343.119196" y="288.430125" style="stroke: #000000; stroke-width: 0.8"/>
      </g>
     </g>
     <g id="text_6">
      <!-- 4h:53m -->
      <g transform="translate(323.852009 303.028562) scale(0.1 -0.1)">
       <defs>
        <path id="DejaVuSans-34" d="M 2419 4116 
L 825 1625 
L 2419 1625 
L 2419 4116 
z
M 2253 4666 
L 3047 4666 
L 3047 1625 
L 3713 1625 
L 3713 1100 
L 3047 1100 
L 3047 0 
L 2419 0 
L 2419 1100 
L 313 1100 
L 313 1709 
L 2253 4666 
z
" transform="scale(0.015625)"/>
       </defs>
       <use xlink:href="#DejaVuSans-34"/>
       <use xlink:href="#DejaVuSans-68" transform="translate(63.623047 0)"/>
       <use xlink:href="#DejaVuSans-3a" transform="translate(127.001953 0)"/>
       <use xlink:href="#DejaVuSans-35" transform="translate(160.693359 0)"/>
       <use xlink:href="#DejaVuSans-33" transform="translate(224.316406 0)"/>
       <use xlink:href="#DejaVuSans-6d" transform="translate(287.939453 0)"/>
      </g>
     </g>
    </g>
    <g id="xtick_7">
     <g id="line2d_7">
      <g>
       <use xlink:href="#m2eb7f21b58" x="399.804911" y="288.430125" style="stroke: #000000; stroke-width: 0.8"/>
      </g>
     </g>
     <g id="text_7">
      <!-- 5h:52m -->
      <g transform="translate(380.537723 303.028562) scale(0.1 -0.1)">
       <use xlink:href="#DejaVuSans-35"/>
       <use xlink:href="#DejaVuSans-68" transform="translate(63.623047 0)"/>
       <use xlink:href="#DejaVuSans-3a" transform="translate(127.001953 0)"/>
       <use xlink:href="#DejaVuSans-35" transform="translate(160.693359 0)"/>
       <use xlink:href="#DejaVuSans-32" transform="translate(224.316406 0)"/>
       <use xlink:href="#DejaVuSans-6d" transform="translate(287.939453 0)"/>
      </g>
     </g>
    </g>
    <g id="xtick_8">
     <g id="line2d_8">
      <g>
       <use xlink:href="#m2eb7f21b58" x="456.490625" y="288.430125" style="stroke: #000000; stroke-width: 0.8"/>
      </g>
     </g>
     <g id="text_8">
      <!-- 6h:51m -->
      <g transform="translate(437.223438 303.028562) scale(0.1 -0.1)">
       <use xlink:href="#DejaVuSans-36"/>
       <use xlink:href="#DejaVuSans-68" transform="translate(63.623047 0)"/>
       <use xlink:href="#DejaVuSans-3a" transform="translate(127.001953 0)"/>
       <use xlink:href="#DejaVuSans-35" transform="translate(160.693359 0)"/>
       <use xlink:href="#DejaVuSans-31" transform="translate(224.316406 0)"/>
       <use xlink:href="#DejaVuSans-6d" transform="translate(287.939453 0)"/>
      </g>
     </g>
    </g>
    <g id="xtick_9">
     <g id="line2d_9">
      <g>
       <use xlink:href="#m2eb7f21b58" x="513.176339" y="288.430125" style="stroke: #000000; stroke-width: 0.8"/>
      </g>
     </g>
     <g id="text_9">
      <!-- 7h:50m -->
      <g transform="translate(493.909152 303.028562) scale(0.1 -0.1)">
       <use xlink:href="#DejaVuSans-37"/>
       <use xlink:href="#DejaVuSans-68" transform="translate(63.623047 0)"/>
       <use xlink:href="#DejaVuSans-3a" transform="translate(127.001953 0)"/>
       <use xlink:href="#DejaVuSans-35" transform="translate(160.693359 0)"/>
       <use xlink:href="#DejaVuSans-30" transform="translate(224.316406 0)"/>
       <use xlink:href="#DejaVuSans-6d" transform="translate(287.939453 0)"/>
      </g>
     </g>
    </g>
    <g id="xtick_10">
     <g id="line2d_10">
      <g>
       <use xlink:href="#m2eb7f21b58" x="569.862054" y="288.430125" style="stroke: #000000; stroke-width: 0.8"/>
      </g>
     </g>
     <g id="text_10">
      <!-- 8h:48m -->
      <g transform="translate(550.594866 303.028562) scale(0.1 -0.1)">
       <use xlink:href="#DejaVuSans-38"/>
       <use xlink:href="#DejaVuSans-68" transform="translate(63.623047 0)"/>
       <use xlink:href="#DejaVuSans-3a" transform="translate(127.001953 0)"/>
       <use xlink:href="#DejaVuSans-34" transform="translate(160.693359 0)"/>
       <use xlink:href="#DejaVuSans-38" transform="translate(224.316406 0)"/>
       <use xlink:href="#DejaVuSans-6d" transform="translate(287.939453 0)"/>
      </g>
     </g>
    </g>
    <g id="xtick_11">
     <g id="line2d_11">
      <g>
       <use xlink:href="#m2eb7f21b58" x="626.547768" y="288.430125" style="stroke: #000000; stroke-width: 0.8"/>
      </g>
     </g>
     <g id="text_11">
      <!-- 9h:47m -->
      <g transform="translate(607.28058 303.028562) scale(0.1 -0.1)">
       <defs>
        <path id="DejaVuSans-39" d="M 703 97 
L 703 672 
Q 941 559 1184 500 
Q 1428 441 1663 441 
Q 2288 441 2617 861 
Q 2947 1281 2994 2138 
Q 2813 1869 2534 1725 
Q 2256 1581 1919 1581 
Q 1219 1581 811 2004 
Q 403 2428 403 3163 
Q 403 3881 828 4315 
Q 1253 4750 1959 4750 
Q 2769 4750 3195 4129 
Q 3622 3509 3622 2328 
Q 3622 1225 3098 567 
Q 2575 -91 1691 -91 
Q 1453 -91 1209 -44 
Q 966 3 703 97 
z
M 1959 2075 
Q 2384 2075 2632 2365 
Q 2881 2656 2881 3163 
Q 2881 3666 2632 3958 
Q 2384 4250 1959 4250 
Q 1534 4250 1286 3958 
Q 1038 3666 1038 3163 
Q 1038 2656 1286 2365 
Q 1534 2075 1959 2075 
z
" transform="scale(0.015625)"/>
       </defs>
       <use xlink:href="#DejaVuSans-39"/>
       <use xlink:href="#DejaVuSans-68" transform="translate(63.623047 0)"/>
       <use xlink:href="#DejaVuSans-3a" transform="translate(127.001953 0)"/>
       <use xlink:href="#DejaVuSans-34" transform="translate(160.693359 0)"/>
       <use xlink:href="#DejaVuSans-37" transform="translate(224.316406 0)"/>
       <use xlink:href="#DejaVuSans-6d" transform="translate(287.939453 0)"/>
      </g>
     </g>
    </g>
    <g id="xtick_12">
     <g id="line2d_12">
      <g>
       <use xlink:href="#m2eb7f21b58" x="683.233482" y="288.430125" style="stroke: #000000; stroke-width: 0.8"/>
      </g>
     </g>
     <g id="text_12">
      <!-- 10h:46m -->
      <g transform="translate(660.785045 303.028562) scale(0.1 -0.1)">
       <use xlink:href="#DejaVuSans-31"/>
       <use xlink:href="#DejaVuSans-30" transform="translate(63.623047 0)"/>
       <use xlink:href="#DejaVuSans-68" transform="translate(127.246094 0)"/>
       <use xlink:href="#DejaVuSans-3a" transform="translate(190.625 0)"/>
       <use xlink:href="#DejaVuSans-34" transform="translate(224.316406 0)"/>
       <use xlink:href="#DejaVuSans-36" transform="translate(287.939453 0)"/>
       <use xlink:href="#DejaVuSans-6d" transform="translate(351.5625 0)"/>
      </g>
     </g>
    </g>
    <g id="xtick_13">
     <g id="line2d_13">
      <g>
       <use xlink:href="#m2eb7f21b58" x="739.919196" y="288.430125" style="stroke: #000000; stroke-width: 0.8"/>
      </g>
     </g>
     <g id="text_13">
      <!-- 11h:45m -->
      <g transform="translate(717.470759 303.028562) scale(0.1 -0.1)">
       <use xlink:href="#DejaVuSans-31"/>
       <use xlink:href="#DejaVuSans-31" transform="translate(63.623047 0)"/>
       <use xlink:href="#DejaVuSans-68" transform="translate(127.246094 0)"/>
       <use xlink:href="#DejaVuSans-3a" transform="translate(190.625 0)"/>
       <use xlink:href="#DejaVuSans-34" transform="translate(224.316406 0)"/>
       <use xlink:href="#DejaVuSans-35" transform="translate(287.939453 0)"/>
       <use xlink:href="#DejaVuSans-6d" transform="translate(351.5625 0)"/>
      </g>
     </g>
    </g>
    <g id="text_14">
     <!-- Time (hour:minute) -->
     <g transform="translate(368.403594 316.706687) scale(0.1 -0.1)">
      <defs>
       <path id="DejaVuSans-54" d="M -19 4666 
L 3928 4666 
L 3928 4134 
L 2272 4134 
L 2272 0 
L 1638 0 
L 1638 4134 
L -19 4134 
L -19 4666 
z
" transform="scale(0.015625)"/>
       <path id="DejaVuSans-69" d="M 603 3500 
L 1178 3500 
L 1178 0 
L 603 0 
L 603 3500 
z
M 603 4863 
L 1178 4863 
L 1178 4134 
L 603 4134 
L 603 4863 
z
" transform="scale(0.015625)"/>
       <path id="DejaVuSans-65" d="M 3597 1894 
L 3597 1613 
L 953 1613 
Q 991 1019 1311 708 
Q 1631 397 2203 397 
Q 2534 397 2845 478 
Q 3156 559 3463 722 
L 3463 178 
Q 3153 47 2828 -22 
Q 2503 -91 2169 -91 
Q 1331 -91 842 396 
Q 353 884 353 1716 
Q 353 2575 817 3079 
Q 1281 3584 2069 3584 
Q 2775 3584 3186 3129 
Q 3597 2675 3597 1894 
z
M 3022 2063 
Q 3016 2534 2758 2815 
Q 2500 3097 2075 3097 
Q 1594 3097 1305 2825 
Q 1016 2553 972 2059 
L 3022 2063 
z
" transform="scale(0.015625)"/>
       <path id="DejaVuSans-20" transform="scale(0.015625)"/>
       <path id="DejaVuSans-28" d="M 1984 4856 
Q 1566 4138 1362 3434 
Q 1159 2731 1159 2009 
Q 1159 1288 1364 580 
Q 1569 -128 1984 -844 
L 1484 -844 
Q 1016 -109 783 600 
Q 550 1309 550 2009 
Q 550 2706 781 3412 
Q 1013 4119 1484 4856 
L 1984 4856 
z
" transform="scale(0.015625)"/>
       <path id="DejaVuSans-6f" d="M 1959 3097 
Q 1497 3097 1228 2736 
Q 959 2375 959 1747 
Q 959 1119 1226 758 
Q 1494 397 1959 397 
Q 2419 397 2687 759 
Q 2956 1122 2956 1747 
Q 2956 2369 2687 2733 
Q 2419 3097 1959 3097 
z
M 1959 3584 
Q 2709 3584 3137 3096 
Q 3566 2609 3566 1747 
Q 3566 888 3137 398 
Q 2709 -91 1959 -91 
Q 1206 -91 779 398 
Q 353 888 353 1747 
Q 353 2609 779 3096 
Q 1206 3584 1959 3584 
z
" transform="scale(0.015625)"/>
       <path id="DejaVuSans-75" d="M 544 1381 
L 544 3500 
L 1119 3500 
L 1119 1403 
Q 1119 906 1312 657 
Q 1506 409 1894 409 
Q 2359 409 2629 706 
Q 2900 1003 2900 1516 
L 2900 3500 
L 3475 3500 
L 3475 0 
L 2900 0 
L 2900 538 
Q 2691 219 2414 64 
Q 2138 -91 1772 -91 
Q 1169 -91 856 284 
Q 544 659 544 1381 
z
M 1991 3584 
L 1991 3584 
z
" transform="scale(0.015625)"/>
       <path id="DejaVuSans-72" d="M 2631 2963 
Q 2534 3019 2420 3045 
Q 2306 3072 2169 3072 
Q 1681 3072 1420 2755 
Q 1159 2438 1159 1844 
L 1159 0 
L 581 0 
L 581 3500 
L 1159 3500 
L 1159 2956 
Q 1341 3275 1631 3429 
Q 1922 3584 2338 3584 
Q 2397 3584 2469 3576 
Q 2541 3569 2628 3553 
L 2631 2963 
z
" transform="scale(0.015625)"/>
       <path id="DejaVuSans-6e" d="M 3513 2113 
L 3513 0 
L 2938 0 
L 2938 2094 
Q 2938 2591 2744 2837 
Q 2550 3084 2163 3084 
Q 1697 3084 1428 2787 
Q 1159 2491 1159 1978 
L 1159 0 
L 581 0 
L 581 3500 
L 1159 3500 
L 1159 2956 
Q 1366 3272 1645 3428 
Q 1925 3584 2291 3584 
Q 2894 3584 3203 3211 
Q 3513 2838 3513 2113 
z
" transform="scale(0.015625)"/>
       <path id="DejaVuSans-74" d="M 1172 4494 
L 1172 3500 
L 2356 3500 
L 2356 3053 
L 1172 3053 
L 1172 1153 
Q 1172 725 1289 603 
Q 1406 481 1766 481 
L 2356 481 
L 2356 0 
L 1766 0 
Q 1100 0 847 248 
Q 594 497 594 1153 
L 594 3053 
L 172 3053 
L 172 3500 
L 594 3500 
L 594 4494 
L 1172 4494 
z
" transform="scale(0.015625)"/>
       <path id="DejaVuSans-29" d="M 513 4856 
L 1013 4856 
Q 1481 4119 1714 3412 
Q 1947 2706 1947 2009 
Q 1947 1309 1714 600 
Q 1481 -109 1013 -844 
L 513 -844 
Q 928 -128 1133 580 
Q 1338 1288 1338 2009 
Q 1338 2731 1133 3434 
Q 928 4138 513 4856 
z
" transform="scale(0.015625)"/>
      </defs>
      <use xlink:href="#DejaVuSans-54"/>
      <use xlink:href="#DejaVuSans-69" transform="translate(57.958984 0)"/>
      <use xlink:href="#DejaVuSans-6d" transform="translate(85.742188 0)"/>
      <use xlink:href="#DejaVuSans-65" transform="translate(183.154297 0)"/>
      <use xlink:href="#DejaVuSans-20" transform="translate(244.677734 0)"/>
      <use xlink:href="#DejaVuSans-28" transform="translate(276.464844 0)"/>
      <use xlink:href="#DejaVuSans-68" transform="translate(315.478516 0)"/>
      <use xlink:href="#DejaVuSans-6f" transform="translate(378.857422 0)"/>
      <use xlink:href="#DejaVuSans-75" transform="translate(440.039062 0)"/>
      <use xlink:href="#DejaVuSans-72" transform="translate(503.417969 0)"/>
      <use xlink:href="#DejaVuSans-3a" transform="translate(542.78125 0)"/>
      <use xlink:href="#DejaVuSans-6d" transform="translate(576.472656 0)"/>
      <use xlink:href="#DejaVuSans-69" transform="translate(673.884766 0)"/>
      <use xlink:href="#DejaVuSans-6e" transform="translate(701.667969 0)"/>
      <use xlink:href="#DejaVuSans-75" transform="translate(765.046875 0)"/>
      <use xlink:href="#DejaVuSans-74" transform="translate(828.425781 0)"/>
      <use xlink:href="#DejaVuSans-65" transform="translate(867.634766 0)"/>
      <use xlink:href="#DejaVuSans-29" transform="translate(929.158203 0)"/>
     </g>
    </g>
   </g>
   <g id="matplotlib.axis_2">
    <g id="ytick_1">
     <g id="line2d_14">
      <defs>
       <path id="m75cf0d4b4c" d="M 0 0 
L -3.5 0 
" style="stroke: #000000; stroke-width: 0.8"/>
      </defs>
      <g>
       <use xlink:href="#m75cf0d4b4c" x="59.690625" y="261.311401" style="stroke: #000000; stroke-width: 0.8"/>
      </g>
     </g>
     <g id="text_15">
      <!-- 9000 -->
      <g transform="translate(27.240625 265.110619) scale(0.1 -0.1)">
       <use xlink:href="#DejaVuSans-39"/>
       <use xlink:href="#DejaVuSans-30" transform="translate(63.623047 0)"/>
       <use xlink:href="#DejaVuSans-30" transform="translate(127.246094 0)"/>
       <use xlink:href="#DejaVuSans-30" transform="translate(190.869141 0)"/>
      </g>
     </g>
    </g>
    <g id="ytick_2">
     <g id="line2d_15">
      <g>
       <use xlink:href="#m75cf0d4b4c" x="59.690625" y="227.476435" style="stroke: #000000; stroke-width: 0.8"/>
      </g>
     </g>
     <g id="text_16">
      <!-- 10000 -->
      <g transform="translate(20.878125 231.275654) scale(0.1 -0.1)">
       <use xlink:href="#DejaVuSans-31"/>
       <use xlink:href="#DejaVuSans-30" transform="translate(63.623047 0)"/>
       <use xlink:href="#DejaVuSans-30" transform="translate(127.246094 0)"/>
       <use xlink:href="#DejaVuSans-30" transform="translate(190.869141 0)"/>
       <use xlink:href="#DejaVuSans-30" transform="translate(254.492188 0)"/>
      </g>
     </g>
    </g>
    <g id="ytick_3">
     <g id="line2d_16">
      <g>
       <use xlink:href="#m75cf0d4b4c" x="59.690625" y="193.64147" style="stroke: #000000; stroke-width: 0.8"/>
      </g>
     </g>
     <g id="text_17">
      <!-- 11000 -->
      <g transform="translate(20.878125 197.440689) scale(0.1 -0.1)">
       <use xlink:href="#DejaVuSans-31"/>
       <use xlink:href="#DejaVuSans-31" transform="translate(63.623047 0)"/>
       <use xlink:href="#DejaVuSans-30" transform="translate(127.246094 0)"/>
       <use xlink:href="#DejaVuSans-30" transform="translate(190.869141 0)"/>
       <use xlink:href="#DejaVuSans-30" transform="translate(254.492188 0)"/>
      </g>
     </g>
    </g>
    <g id="ytick_4">
     <g id="line2d_17">
      <g>
       <use xlink:href="#m75cf0d4b4c" x="59.690625" y="159.806505" style="stroke: #000000; stroke-width: 0.8"/>
      </g>
     </g>
     <g id="text_18">
      <!-- 12000 -->
      <g transform="translate(20.878125 163.605724) scale(0.1 -0.1)">
       <use xlink:href="#DejaVuSans-31"/>
       <use xlink:href="#DejaVuSans-32" transform="translate(63.623047 0)"/>
       <use xlink:href="#DejaVuSans-30" transform="translate(127.246094 0)"/>
       <use xlink:href="#DejaVuSans-30" transform="translate(190.869141 0)"/>
       <use xlink:href="#DejaVuSans-30" transform="translate(254.492188 0)"/>
      </g>
     </g>
    </g>
    <g id="ytick_5">
     <g id="line2d_18">
      <g>
       <use xlink:href="#m75cf0d4b4c" x="59.690625" y="125.97154" style="stroke: #000000; stroke-width: 0.8"/>
      </g>
     </g>
     <g id="text_19">
      <!-- 13000 -->
      <g transform="translate(20.878125 129.770759) scale(0.1 -0.1)">
       <use xlink:href="#DejaVuSans-31"/>
       <use xlink:href="#DejaVuSans-33" transform="translate(63.623047 0)"/>
       <use xlink:href="#DejaVuSans-30" transform="translate(127.246094 0)"/>
       <use xlink:href="#DejaVuSans-30" transform="translate(190.869141 0)"/>
       <use xlink:href="#DejaVuSans-30" transform="translate(254.492188 0)"/>
      </g>
     </g>
    </g>
    <g id="ytick_6">
     <g id="line2d_19">
      <g>
       <use xlink:href="#m75cf0d4b4c" x="59.690625" y="92.136575" style="stroke: #000000; stroke-width: 0.8"/>
      </g>
     </g>
     <g id="text_20">
      <!-- 14000 -->
      <g transform="translate(20.878125 95.935794) scale(0.1 -0.1)">
       <use xlink:href="#DejaVuSans-31"/>
       <use xlink:href="#DejaVuSans-34" transform="translate(63.623047 0)"/>
       <use xlink:href="#DejaVuSans-30" transform="translate(127.246094 0)"/>
       <use xlink:href="#DejaVuSans-30" transform="translate(190.869141 0)"/>
       <use xlink:href="#DejaVuSans-30" transform="translate(254.492188 0)"/>
      </g>
     </g>
    </g>
    <g id="ytick_7">
     <g id="line2d_20">
      <g>
       <use xlink:href="#m75cf0d4b4c" x="59.690625" y="58.30161" style="stroke: #000000; stroke-width: 0.8"/>
      </g>
     </g>
     <g id="text_21">
      <!-- 15000 -->
      <g transform="translate(20.878125 62.100829) scale(0.1 -0.1)">
       <use xlink:href="#DejaVuSans-31"/>
       <use xlink:href="#DejaVuSans-35" transform="translate(63.623047 0)"/>
       <use xlink:href="#DejaVuSans-30" transform="translate(127.246094 0)"/>
       <use xlink:href="#DejaVuSans-30" transform="translate(190.869141 0)"/>
       <use xlink:href="#DejaVuSans-30" transform="translate(254.492188 0)"/>
      </g>
     </g>
    </g>
    <g id="ytick_8">
     <g id="line2d_21">
      <g>
       <use xlink:href="#m75cf0d4b4c" x="59.690625" y="24.466645" style="stroke: #000000; stroke-width: 0.8"/>
      </g>
     </g>
     <g id="text_22">
      <!-- 16000 -->
      <g transform="translate(20.878125 28.265864) scale(0.1 -0.1)">
       <use xlink:href="#DejaVuSans-31"/>
       <use xlink:href="#DejaVuSans-36" transform="translate(63.623047 0)"/>
       <use xlink:href="#DejaVuSans-30" transform="translate(127.246094 0)"/>
       <use xlink:href="#DejaVuSans-30" transform="translate(190.869141 0)"/>
       <use xlink:href="#DejaVuSans-30" transform="translate(254.492188 0)"/>
      </g>
     </g>
    </g>
    <g id="text_23">
     <!-- Code branch coverage -->
     <g transform="translate(14.798438 211.949125) rotate(-90) scale(0.1 -0.1)">
      <defs>
       <path id="DejaVuSans-43" d="M 4122 4306 
L 4122 3641 
Q 3803 3938 3442 4084 
Q 3081 4231 2675 4231 
Q 1875 4231 1450 3742 
Q 1025 3253 1025 2328 
Q 1025 1406 1450 917 
Q 1875 428 2675 428 
Q 3081 428 3442 575 
Q 3803 722 4122 1019 
L 4122 359 
Q 3791 134 3420 21 
Q 3050 -91 2638 -91 
Q 1578 -91 968 557 
Q 359 1206 359 2328 
Q 359 3453 968 4101 
Q 1578 4750 2638 4750 
Q 3056 4750 3426 4639 
Q 3797 4528 4122 4306 
z
" transform="scale(0.015625)"/>
       <path id="DejaVuSans-64" d="M 2906 2969 
L 2906 4863 
L 3481 4863 
L 3481 0 
L 2906 0 
L 2906 525 
Q 2725 213 2448 61 
Q 2172 -91 1784 -91 
Q 1150 -91 751 415 
Q 353 922 353 1747 
Q 353 2572 751 3078 
Q 1150 3584 1784 3584 
Q 2172 3584 2448 3432 
Q 2725 3281 2906 2969 
z
M 947 1747 
Q 947 1113 1208 752 
Q 1469 391 1925 391 
Q 2381 391 2643 752 
Q 2906 1113 2906 1747 
Q 2906 2381 2643 2742 
Q 2381 3103 1925 3103 
Q 1469 3103 1208 2742 
Q 947 2381 947 1747 
z
" transform="scale(0.015625)"/>
       <path id="DejaVuSans-62" d="M 3116 1747 
Q 3116 2381 2855 2742 
Q 2594 3103 2138 3103 
Q 1681 3103 1420 2742 
Q 1159 2381 1159 1747 
Q 1159 1113 1420 752 
Q 1681 391 2138 391 
Q 2594 391 2855 752 
Q 3116 1113 3116 1747 
z
M 1159 2969 
Q 1341 3281 1617 3432 
Q 1894 3584 2278 3584 
Q 2916 3584 3314 3078 
Q 3713 2572 3713 1747 
Q 3713 922 3314 415 
Q 2916 -91 2278 -91 
Q 1894 -91 1617 61 
Q 1341 213 1159 525 
L 1159 0 
L 581 0 
L 581 4863 
L 1159 4863 
L 1159 2969 
z
" transform="scale(0.015625)"/>
       <path id="DejaVuSans-61" d="M 2194 1759 
Q 1497 1759 1228 1600 
Q 959 1441 959 1056 
Q 959 750 1161 570 
Q 1363 391 1709 391 
Q 2188 391 2477 730 
Q 2766 1069 2766 1631 
L 2766 1759 
L 2194 1759 
z
M 3341 1997 
L 3341 0 
L 2766 0 
L 2766 531 
Q 2569 213 2275 61 
Q 1981 -91 1556 -91 
Q 1019 -91 701 211 
Q 384 513 384 1019 
Q 384 1609 779 1909 
Q 1175 2209 1959 2209 
L 2766 2209 
L 2766 2266 
Q 2766 2663 2505 2880 
Q 2244 3097 1772 3097 
Q 1472 3097 1187 3025 
Q 903 2953 641 2809 
L 641 3341 
Q 956 3463 1253 3523 
Q 1550 3584 1831 3584 
Q 2591 3584 2966 3190 
Q 3341 2797 3341 1997 
z
" transform="scale(0.015625)"/>
       <path id="DejaVuSans-63" d="M 3122 3366 
L 3122 2828 
Q 2878 2963 2633 3030 
Q 2388 3097 2138 3097 
Q 1578 3097 1268 2742 
Q 959 2388 959 1747 
Q 959 1106 1268 751 
Q 1578 397 2138 397 
Q 2388 397 2633 464 
Q 2878 531 3122 666 
L 3122 134 
Q 2881 22 2623 -34 
Q 2366 -91 2075 -91 
Q 1284 -91 818 406 
Q 353 903 353 1747 
Q 353 2603 823 3093 
Q 1294 3584 2113 3584 
Q 2378 3584 2631 3529 
Q 2884 3475 3122 3366 
z
" transform="scale(0.015625)"/>
       <path id="DejaVuSans-76" d="M 191 3500 
L 800 3500 
L 1894 563 
L 2988 3500 
L 3597 3500 
L 2284 0 
L 1503 0 
L 191 3500 
z
" transform="scale(0.015625)"/>
       <path id="DejaVuSans-67" d="M 2906 1791 
Q 2906 2416 2648 2759 
Q 2391 3103 1925 3103 
Q 1463 3103 1205 2759 
Q 947 2416 947 1791 
Q 947 1169 1205 825 
Q 1463 481 1925 481 
Q 2391 481 2648 825 
Q 2906 1169 2906 1791 
z
M 3481 434 
Q 3481 -459 3084 -895 
Q 2688 -1331 1869 -1331 
Q 1566 -1331 1297 -1286 
Q 1028 -1241 775 -1147 
L 775 -588 
Q 1028 -725 1275 -790 
Q 1522 -856 1778 -856 
Q 2344 -856 2625 -561 
Q 2906 -266 2906 331 
L 2906 616 
Q 2728 306 2450 153 
Q 2172 0 1784 0 
Q 1141 0 747 490 
Q 353 981 353 1791 
Q 353 2603 747 3093 
Q 1141 3584 1784 3584 
Q 2172 3584 2450 3431 
Q 2728 3278 2906 2969 
L 2906 3500 
L 3481 3500 
L 3481 434 
z
" transform="scale(0.015625)"/>
      </defs>
      <use xlink:href="#DejaVuSans-43"/>
      <use xlink:href="#DejaVuSans-6f" transform="translate(69.824219 0)"/>
      <use xlink:href="#DejaVuSans-64" transform="translate(131.005859 0)"/>
      <use xlink:href="#DejaVuSans-65" transform="translate(194.482422 0)"/>
      <use xlink:href="#DejaVuSans-20" transform="translate(256.005859 0)"/>
      <use xlink:href="#DejaVuSans-62" transform="translate(287.792969 0)"/>
      <use xlink:href="#DejaVuSans-72" transform="translate(351.269531 0)"/>
      <use xlink:href="#DejaVuSans-61" transform="translate(392.382812 0)"/>
      <use xlink:href="#DejaVuSans-6e" transform="translate(453.662109 0)"/>
      <use xlink:href="#DejaVuSans-63" transform="translate(517.041016 0)"/>
      <use xlink:href="#DejaVuSans-68" transform="translate(572.021484 0)"/>
      <use xlink:href="#DejaVuSans-20" transform="translate(635.400391 0)"/>
      <use xlink:href="#DejaVuSans-63" transform="translate(667.1875 0)"/>
      <use xlink:href="#DejaVuSans-6f" transform="translate(722.167969 0)"/>
      <use xlink:href="#DejaVuSans-76" transform="translate(783.349609 0)"/>
      <use xlink:href="#DejaVuSans-65" transform="translate(842.529297 0)"/>
      <use xlink:href="#DejaVuSans-72" transform="translate(904.052734 0)"/>
      <use xlink:href="#DejaVuSans-61" transform="translate(945.166016 0)"/>
      <use xlink:href="#DejaVuSans-67" transform="translate(1006.445312 0)"/>
      <use xlink:href="#DejaVuSans-65" transform="translate(1069.921875 0)"/>
     </g>
    </g>
   </g>
   <g id="line2d_22">
    <path d="M 59.690625 276.334125 
L 74.163573 150.468055 
L 88.636522 150.43422 
L 103.10947 150.43422 
L 117.582418 150.43422 
L 132.055367 150.43422 
L 146.528315 150.36655 
L 161.001263 149.216161 
L 175.474212 149.216161 
L 189.94716 149.216161 
L 204.420108 149.148491 
L 218.893057 149.148491 
L 233.366005 148.607132 
L 247.838953 125.599356 
L 262.311902 99.140413 
L 276.78485 91.223031 
L 291.257798 77.046181 
L 305.730747 70.685208 
L 320.203695 65.677633 
L 334.676643 65.643798 
L 349.149592 64.053554 
L 363.62254 58.030931 
L 378.095488 53.53088 
L 392.568437 52.685006 
L 407.041385 51.872967 
L 421.514333 51.669957 
L 435.987282 50.891753 
L 450.46023 50.248889 
L 464.933178 50.012044 
L 479.406127 49.36918 
L 493.879075 48.929325 
L 508.352023 48.89549 
L 522.824972 48.55714 
L 537.29792 47.812771 
L 551.770868 47.440587 
L 566.243816 46.560877 
L 580.716765 45.748838 
L 595.189713 45.241314 
L 609.662661 44.767624 
L 624.13561 44.767624 
L 638.608558 44.158595 
L 653.081506 43.65107 
L 667.554455 41.925487 
L 682.027403 41.316458 
L 696.500351 41.011943 
L 710.9733 40.775098 
L 725.446248 40.572089 
L 739.919196 40.402914 
" clip-path="url(#p041ee61302)" style="fill: none; stroke: #1f77b4; stroke-width: 1.5; stroke-linecap: square"/>
    <defs>
     <path id="m5786279ea0" d="M 0 3 
C 0.795609 3 1.55874 2.683901 2.12132 2.12132 
C 2.683901 1.55874 3 0.795609 3 0 
C 3 -0.795609 2.683901 -1.55874 2.12132 -2.12132 
C 1.55874 -2.683901 0.795609 -3 0 -3 
C -0.795609 -3 -1.55874 -2.683901 -2.12132 -2.12132 
C -2.683901 -1.55874 -3 -0.795609 -3 0 
C -3 0.795609 -2.683901 1.55874 -2.12132 2.12132 
C -1.55874 2.683901 -0.795609 3 0 3 
z
" style="stroke: #ffffff; stroke-width: 0.75"/>
    </defs>
    <g clip-path="url(#p041ee61302)">
     <use xlink:href="#m5786279ea0" x="59.690625" y="276.334125" style="fill: #1f77b4; stroke: #ffffff; stroke-width: 0.75"/>
     <use xlink:href="#m5786279ea0" x="74.163573" y="150.468055" style="fill: #1f77b4; stroke: #ffffff; stroke-width: 0.75"/>
     <use xlink:href="#m5786279ea0" x="88.636522" y="150.43422" style="fill: #1f77b4; stroke: #ffffff; stroke-width: 0.75"/>
     <use xlink:href="#m5786279ea0" x="103.10947" y="150.43422" style="fill: #1f77b4; stroke: #ffffff; stroke-width: 0.75"/>
     <use xlink:href="#m5786279ea0" x="117.582418" y="150.43422" style="fill: #1f77b4; stroke: #ffffff; stroke-width: 0.75"/>
     <use xlink:href="#m5786279ea0" x="132.055367" y="150.43422" style="fill: #1f77b4; stroke: #ffffff; stroke-width: 0.75"/>
     <use xlink:href="#m5786279ea0" x="146.528315" y="150.36655" style="fill: #1f77b4; stroke: #ffffff; stroke-width: 0.75"/>
     <use xlink:href="#m5786279ea0" x="161.001263" y="149.216161" style="fill: #1f77b4; stroke: #ffffff; stroke-width: 0.75"/>
     <use xlink:href="#m5786279ea0" x="175.474212" y="149.216161" style="fill: #1f77b4; stroke: #ffffff; stroke-width: 0.75"/>
     <use xlink:href="#m5786279ea0" x="189.94716" y="149.216161" style="fill: #1f77b4; stroke: #ffffff; stroke-width: 0.75"/>
     <use xlink:href="#m5786279ea0" x="204.420108" y="149.148491" style="fill: #1f77b4; stroke: #ffffff; stroke-width: 0.75"/>
     <use xlink:href="#m5786279ea0" x="218.893057" y="149.148491" style="fill: #1f77b4; stroke: #ffffff; stroke-width: 0.75"/>
     <use xlink:href="#m5786279ea0" x="233.366005" y="148.607132" style="fill: #1f77b4; stroke: #ffffff; stroke-width: 0.75"/>
     <use xlink:href="#m5786279ea0" x="247.838953" y="125.599356" style="fill: #1f77b4; stroke: #ffffff; stroke-width: 0.75"/>
     <use xlink:href="#m5786279ea0" x="262.311902" y="99.140413" style="fill: #1f77b4; stroke: #ffffff; stroke-width: 0.75"/>
     <use xlink:href="#m5786279ea0" x="276.78485" y="91.223031" style="fill: #1f77b4; stroke: #ffffff; stroke-width: 0.75"/>
     <use xlink:href="#m5786279ea0" x="291.257798" y="77.046181" style="fill: #1f77b4; stroke: #ffffff; stroke-width: 0.75"/>
     <use xlink:href="#m5786279ea0" x="305.730747" y="70.685208" style="fill: #1f77b4; stroke: #ffffff; stroke-width: 0.75"/>
     <use xlink:href="#m5786279ea0" x="320.203695" y="65.677633" style="fill: #1f77b4; stroke: #ffffff; stroke-width: 0.75"/>
     <use xlink:href="#m5786279ea0" x="334.676643" y="65.643798" style="fill: #1f77b4; stroke: #ffffff; stroke-width: 0.75"/>
     <use xlink:href="#m5786279ea0" x="349.149592" y="64.053554" style="fill: #1f77b4; stroke: #ffffff; stroke-width: 0.75"/>
     <use xlink:href="#m5786279ea0" x="363.62254" y="58.030931" style="fill: #1f77b4; stroke: #ffffff; stroke-width: 0.75"/>
     <use xlink:href="#m5786279ea0" x="378.095488" y="53.53088" style="fill: #1f77b4; stroke: #ffffff; stroke-width: 0.75"/>
     <use xlink:href="#m5786279ea0" x="392.568437" y="52.685006" style="fill: #1f77b4; stroke: #ffffff; stroke-width: 0.75"/>
     <use xlink:href="#m5786279ea0" x="407.041385" y="51.872967" style="fill: #1f77b4; stroke: #ffffff; stroke-width: 0.75"/>
     <use xlink:href="#m5786279ea0" x="421.514333" y="51.669957" style="fill: #1f77b4; stroke: #ffffff; stroke-width: 0.75"/>
     <use xlink:href="#m5786279ea0" x="435.987282" y="50.891753" style="fill: #1f77b4; stroke: #ffffff; stroke-width: 0.75"/>
     <use xlink:href="#m5786279ea0" x="450.46023" y="50.248889" style="fill: #1f77b4; stroke: #ffffff; stroke-width: 0.75"/>
     <use xlink:href="#m5786279ea0" x="464.933178" y="50.012044" style="fill: #1f77b4; stroke: #ffffff; stroke-width: 0.75"/>
     <use xlink:href="#m5786279ea0" x="479.406127" y="49.36918" style="fill: #1f77b4; stroke: #ffffff; stroke-width: 0.75"/>
     <use xlink:href="#m5786279ea0" x="493.879075" y="48.929325" style="fill: #1f77b4; stroke: #ffffff; stroke-width: 0.75"/>
     <use xlink:href="#m5786279ea0" x="508.352023" y="48.89549" style="fill: #1f77b4; stroke: #ffffff; stroke-width: 0.75"/>
     <use xlink:href="#m5786279ea0" x="522.824972" y="48.55714" style="fill: #1f77b4; stroke: #ffffff; stroke-width: 0.75"/>
     <use xlink:href="#m5786279ea0" x="537.29792" y="47.812771" style="fill: #1f77b4; stroke: #ffffff; stroke-width: 0.75"/>
     <use xlink:href="#m5786279ea0" x="551.770868" y="47.440587" style="fill: #1f77b4; stroke: #ffffff; stroke-width: 0.75"/>
     <use xlink:href="#m5786279ea0" x="566.243816" y="46.560877" style="fill: #1f77b4; stroke: #ffffff; stroke-width: 0.75"/>
     <use xlink:href="#m5786279ea0" x="580.716765" y="45.748838" style="fill: #1f77b4; stroke: #ffffff; stroke-width: 0.75"/>
     <use xlink:href="#m5786279ea0" x="595.189713" y="45.241314" style="fill: #1f77b4; stroke: #ffffff; stroke-width: 0.75"/>
     <use xlink:href="#m5786279ea0" x="609.662661" y="44.767624" style="fill: #1f77b4; stroke: #ffffff; stroke-width: 0.75"/>
     <use xlink:href="#m5786279ea0" x="624.13561" y="44.767624" style="fill: #1f77b4; stroke: #ffffff; stroke-width: 0.75"/>
     <use xlink:href="#m5786279ea0" x="638.608558" y="44.158595" style="fill: #1f77b4; stroke: #ffffff; stroke-width: 0.75"/>
     <use xlink:href="#m5786279ea0" x="653.081506" y="43.65107" style="fill: #1f77b4; stroke: #ffffff; stroke-width: 0.75"/>
     <use xlink:href="#m5786279ea0" x="667.554455" y="41.925487" style="fill: #1f77b4; stroke: #ffffff; stroke-width: 0.75"/>
     <use xlink:href="#m5786279ea0" x="682.027403" y="41.316458" style="fill: #1f77b4; stroke: #ffffff; stroke-width: 0.75"/>
     <use xlink:href="#m5786279ea0" x="696.500351" y="41.011943" style="fill: #1f77b4; stroke: #ffffff; stroke-width: 0.75"/>
     <use xlink:href="#m5786279ea0" x="710.9733" y="40.775098" style="fill: #1f77b4; stroke: #ffffff; stroke-width: 0.75"/>
     <use xlink:href="#m5786279ea0" x="725.446248" y="40.572089" style="fill: #1f77b4; stroke: #ffffff; stroke-width: 0.75"/>
     <use xlink:href="#m5786279ea0" x="739.919196" y="40.402914" style="fill: #1f77b4; stroke: #ffffff; stroke-width: 0.75"/>
    </g>
   </g>
   <g id="line2d_23">
    <path d="M 59.690625 276.334125 
L 74.163573 151.652279 
L 88.636522 151.618444 
L 103.10947 151.618444 
L 117.582418 151.483104 
L 132.055367 123.332413 
L 146.528315 123.332413 
L 161.001263 123.332413 
L 175.474212 123.332413 
L 189.94716 123.332413 
L 204.420108 123.332413 
L 218.893057 123.332413 
L 233.366005 123.332413 
L 247.838953 123.332413 
L 262.311902 123.332413 
L 276.78485 101.441191 
L 291.257798 98.159199 
L 305.730747 96.602791 
L 320.203695 90.647837 
L 334.676643 82.56128 
L 349.149592 79.651473 
L 363.62254 68.959624 
L 378.095488 68.31676 
L 392.568437 62.260301 
L 407.041385 55.053454 
L 421.514333 54.579764 
L 435.987282 53.497045 
L 450.46023 53.361705 
L 464.933178 52.820346 
L 479.406127 51.365442 
L 493.879075 50.587238 
L 508.352023 47.880441 
L 522.824972 46.357868 
L 537.29792 45.444324 
L 551.770868 43.549566 
L 566.243816 42.906701 
L 580.716765 41.823982 
L 595.189713 41.688642 
L 609.662661 41.350293 
L 624.13561 40.639759 
L 638.608558 40.639759 
L 653.081506 40.369079 
L 667.554455 40.098399 
L 682.027403 39.827719 
L 696.500351 39.48937 
L 710.9733 39.48937 
L 725.446248 39.320195 
L 739.919196 39.184855 
" clip-path="url(#p041ee61302)" style="fill: none; stroke: #d62728; stroke-width: 1.5; stroke-linecap: square"/>
    <defs>
     <path id="m1ef9ab7bd5" d="M 0 -3 
L -3 3 
L 3 3 
z
" style="stroke: #ffffff; stroke-width: 0.75; stroke-linejoin: miter"/>
    </defs>
    <g clip-path="url(#p041ee61302)">
     <use xlink:href="#m1ef9ab7bd5" x="59.690625" y="276.334125" style="fill: #d62728; stroke: #ffffff; stroke-width: 0.75; stroke-linejoin: miter"/>
     <use xlink:href="#m1ef9ab7bd5" x="74.163573" y="151.652279" style="fill: #d62728; stroke: #ffffff; stroke-width: 0.75; stroke-linejoin: miter"/>
     <use xlink:href="#m1ef9ab7bd5" x="88.636522" y="151.618444" style="fill: #d62728; stroke: #ffffff; stroke-width: 0.75; stroke-linejoin: miter"/>
     <use xlink:href="#m1ef9ab7bd5" x="103.10947" y="151.618444" style="fill: #d62728; stroke: #ffffff; stroke-width: 0.75; stroke-linejoin: miter"/>
     <use xlink:href="#m1ef9ab7bd5" x="117.582418" y="151.483104" style="fill: #d62728; stroke: #ffffff; stroke-width: 0.75; stroke-linejoin: miter"/>
     <use xlink:href="#m1ef9ab7bd5" x="132.055367" y="123.332413" style="fill: #d62728; stroke: #ffffff; stroke-width: 0.75; stroke-linejoin: miter"/>
     <use xlink:href="#m1ef9ab7bd5" x="146.528315" y="123.332413" style="fill: #d62728; stroke: #ffffff; stroke-width: 0.75; stroke-linejoin: miter"/>
     <use xlink:href="#m1ef9ab7bd5" x="161.001263" y="123.332413" style="fill: #d62728; stroke: #ffffff; stroke-width: 0.75; stroke-linejoin: miter"/>
     <use xlink:href="#m1ef9ab7bd5" x="175.474212" y="123.332413" style="fill: #d62728; stroke: #ffffff; stroke-width: 0.75; stroke-linejoin: miter"/>
     <use xlink:href="#m1ef9ab7bd5" x="189.94716" y="123.332413" style="fill: #d62728; stroke: #ffffff; stroke-width: 0.75; stroke-linejoin: miter"/>
     <use xlink:href="#m1ef9ab7bd5" x="204.420108" y="123.332413" style="fill: #d62728; stroke: #ffffff; stroke-width: 0.75; stroke-linejoin: miter"/>
     <use xlink:href="#m1ef9ab7bd5" x="218.893057" y="123.332413" style="fill: #d62728; stroke: #ffffff; stroke-width: 0.75; stroke-linejoin: miter"/>
     <use xlink:href="#m1ef9ab7bd5" x="233.366005" y="123.332413" style="fill: #d62728; stroke: #ffffff; stroke-width: 0.75; stroke-linejoin: miter"/>
     <use xlink:href="#m1ef9ab7bd5" x="247.838953" y="123.332413" style="fill: #d62728; stroke: #ffffff; stroke-width: 0.75; stroke-linejoin: miter"/>
     <use xlink:href="#m1ef9ab7bd5" x="262.311902" y="123.332413" style="fill: #d62728; stroke: #ffffff; stroke-width: 0.75; stroke-linejoin: miter"/>
     <use xlink:href="#m1ef9ab7bd5" x="276.78485" y="101.441191" style="fill: #d62728; stroke: #ffffff; stroke-width: 0.75; stroke-linejoin: miter"/>
     <use xlink:href="#m1ef9ab7bd5" x="291.257798" y="98.159199" style="fill: #d62728; stroke: #ffffff; stroke-width: 0.75; stroke-linejoin: miter"/>
     <use xlink:href="#m1ef9ab7bd5" x="305.730747" y="96.602791" style="fill: #d62728; stroke: #ffffff; stroke-width: 0.75; stroke-linejoin: miter"/>
     <use xlink:href="#m1ef9ab7bd5" x="320.203695" y="90.647837" style="fill: #d62728; stroke: #ffffff; stroke-width: 0.75; stroke-linejoin: miter"/>
     <use xlink:href="#m1ef9ab7bd5" x="334.676643" y="82.56128" style="fill: #d62728; stroke: #ffffff; stroke-width: 0.75; stroke-linejoin: miter"/>
     <use xlink:href="#m1ef9ab7bd5" x="349.149592" y="79.651473" style="fill: #d62728; stroke: #ffffff; stroke-width: 0.75; stroke-linejoin: miter"/>
     <use xlink:href="#m1ef9ab7bd5" x="363.62254" y="68.959624" style="fill: #d62728; stroke: #ffffff; stroke-width: 0.75; stroke-linejoin: miter"/>
     <use xlink:href="#m1ef9ab7bd5" x="378.095488" y="68.31676" style="fill: #d62728; stroke: #ffffff; stroke-width: 0.75; stroke-linejoin: miter"/>
     <use xlink:href="#m1ef9ab7bd5" x="392.568437" y="62.260301" style="fill: #d62728; stroke: #ffffff; stroke-width: 0.75; stroke-linejoin: miter"/>
     <use xlink:href="#m1ef9ab7bd5" x="407.041385" y="55.053454" style="fill: #d62728; stroke: #ffffff; stroke-width: 0.75; stroke-linejoin: miter"/>
     <use xlink:href="#m1ef9ab7bd5" x="421.514333" y="54.579764" style="fill: #d62728; stroke: #ffffff; stroke-width: 0.75; stroke-linejoin: miter"/>
     <use xlink:href="#m1ef9ab7bd5" x="435.987282" y="53.497045" style="fill: #d62728; stroke: #ffffff; stroke-width: 0.75; stroke-linejoin: miter"/>
     <use xlink:href="#m1ef9ab7bd5" x="450.46023" y="53.361705" style="fill: #d62728; stroke: #ffffff; stroke-width: 0.75; stroke-linejoin: miter"/>
     <use xlink:href="#m1ef9ab7bd5" x="464.933178" y="52.820346" style="fill: #d62728; stroke: #ffffff; stroke-width: 0.75; stroke-linejoin: miter"/>
     <use xlink:href="#m1ef9ab7bd5" x="479.406127" y="51.365442" style="fill: #d62728; stroke: #ffffff; stroke-width: 0.75; stroke-linejoin: miter"/>
     <use xlink:href="#m1ef9ab7bd5" x="493.879075" y="50.587238" style="fill: #d62728; stroke: #ffffff; stroke-width: 0.75; stroke-linejoin: miter"/>
     <use xlink:href="#m1ef9ab7bd5" x="508.352023" y="47.880441" style="fill: #d62728; stroke: #ffffff; stroke-width: 0.75; stroke-linejoin: miter"/>
     <use xlink:href="#m1ef9ab7bd5" x="522.824972" y="46.357868" style="fill: #d62728; stroke: #ffffff; stroke-width: 0.75; stroke-linejoin: miter"/>
     <use xlink:href="#m1ef9ab7bd5" x="537.29792" y="45.444324" style="fill: #d62728; stroke: #ffffff; stroke-width: 0.75; stroke-linejoin: miter"/>
     <use xlink:href="#m1ef9ab7bd5" x="551.770868" y="43.549566" style="fill: #d62728; stroke: #ffffff; stroke-width: 0.75; stroke-linejoin: miter"/>
     <use xlink:href="#m1ef9ab7bd5" x="566.243816" y="42.906701" style="fill: #d62728; stroke: #ffffff; stroke-width: 0.75; stroke-linejoin: miter"/>
     <use xlink:href="#m1ef9ab7bd5" x="580.716765" y="41.823982" style="fill: #d62728; stroke: #ffffff; stroke-width: 0.75; stroke-linejoin: miter"/>
     <use xlink:href="#m1ef9ab7bd5" x="595.189713" y="41.688642" style="fill: #d62728; stroke: #ffffff; stroke-width: 0.75; stroke-linejoin: miter"/>
     <use xlink:href="#m1ef9ab7bd5" x="609.662661" y="41.350293" style="fill: #d62728; stroke: #ffffff; stroke-width: 0.75; stroke-linejoin: miter"/>
     <use xlink:href="#m1ef9ab7bd5" x="624.13561" y="40.639759" style="fill: #d62728; stroke: #ffffff; stroke-width: 0.75; stroke-linejoin: miter"/>
     <use xlink:href="#m1ef9ab7bd5" x="638.608558" y="40.639759" style="fill: #d62728; stroke: #ffffff; stroke-width: 0.75; stroke-linejoin: miter"/>
     <use xlink:href="#m1ef9ab7bd5" x="653.081506" y="40.369079" style="fill: #d62728; stroke: #ffffff; stroke-width: 0.75; stroke-linejoin: miter"/>
     <use xlink:href="#m1ef9ab7bd5" x="667.554455" y="40.098399" style="fill: #d62728; stroke: #ffffff; stroke-width: 0.75; stroke-linejoin: miter"/>
     <use xlink:href="#m1ef9ab7bd5" x="682.027403" y="39.827719" style="fill: #d62728; stroke: #ffffff; stroke-width: 0.75; stroke-linejoin: miter"/>
     <use xlink:href="#m1ef9ab7bd5" x="696.500351" y="39.48937" style="fill: #d62728; stroke: #ffffff; stroke-width: 0.75; stroke-linejoin: miter"/>
     <use xlink:href="#m1ef9ab7bd5" x="710.9733" y="39.48937" style="fill: #d62728; stroke: #ffffff; stroke-width: 0.75; stroke-linejoin: miter"/>
     <use xlink:href="#m1ef9ab7bd5" x="725.446248" y="39.320195" style="fill: #d62728; stroke: #ffffff; stroke-width: 0.75; stroke-linejoin: miter"/>
     <use xlink:href="#m1ef9ab7bd5" x="739.919196" y="39.184855" style="fill: #d62728; stroke: #ffffff; stroke-width: 0.75; stroke-linejoin: miter"/>
    </g>
   </g>
   <g id="line2d_24">
    <path d="M 59.690625 276.334125 
L 74.163573 146.593952 
L 88.636522 146.424777 
L 103.10947 146.424777 
L 117.582418 146.407859 
L 132.055367 146.407859 
L 146.528315 146.407859 
L 161.001263 146.407859 
L 175.474212 146.390942 
L 189.94716 145.46048 
L 204.420108 145.409728 
L 218.893057 145.409728 
L 233.366005 127.358774 
L 247.838953 111.185661 
L 262.311902 104.87544 
L 276.78485 98.548301 
L 291.257798 87.8057 
L 305.730747 85.098903 
L 320.203695 76.640161 
L 334.676643 74.999166 
L 349.149592 67.453968 
L 363.62254 65.034768 
L 378.095488 62.395641 
L 392.568437 61.177582 
L 407.041385 59.265907 
L 421.514333 57.557241 
L 435.987282 56.982047 
L 450.46023 56.576027 
L 464.933178 56.15309 
L 479.406127 54.951949 
L 493.879075 53.192531 
L 508.352023 52.786511 
L 522.824972 52.515831 
L 537.29792 52.075977 
L 551.770868 50.333476 
L 566.243816 49.876704 
L 580.716765 48.929325 
L 595.189713 48.69248 
L 609.662661 48.438718 
L 624.13561 48.320296 
L 638.608558 47.914276 
L 653.081506 47.237577 
L 667.554455 46.577795 
L 682.027403 45.867261 
L 696.500351 45.511994 
L 710.9733 44.716872 
L 725.446248 44.446192 
L 739.919196 44.361605 
" clip-path="url(#p041ee61302)" style="fill: none; stroke: #c7c7c7; stroke-width: 1.5; stroke-linecap: square"/>
    <defs>
     <path id="mab56219d99" d="M -3 -0 
L 3 3 
L 3 -3 
z
" style="stroke: #ffffff; stroke-width: 0.75; stroke-linejoin: miter"/>
    </defs>
    <g clip-path="url(#p041ee61302)">
     <use xlink:href="#mab56219d99" x="59.690625" y="276.334125" style="fill: #c7c7c7; stroke: #ffffff; stroke-width: 0.75; stroke-linejoin: miter"/>
     <use xlink:href="#mab56219d99" x="74.163573" y="146.593952" style="fill: #c7c7c7; stroke: #ffffff; stroke-width: 0.75; stroke-linejoin: miter"/>
     <use xlink:href="#mab56219d99" x="88.636522" y="146.424777" style="fill: #c7c7c7; stroke: #ffffff; stroke-width: 0.75; stroke-linejoin: miter"/>
     <use xlink:href="#mab56219d99" x="103.10947" y="146.424777" style="fill: #c7c7c7; stroke: #ffffff; stroke-width: 0.75; stroke-linejoin: miter"/>
     <use xlink:href="#mab56219d99" x="117.582418" y="146.407859" style="fill: #c7c7c7; stroke: #ffffff; stroke-width: 0.75; stroke-linejoin: miter"/>
     <use xlink:href="#mab56219d99" x="132.055367" y="146.407859" style="fill: #c7c7c7; stroke: #ffffff; stroke-width: 0.75; stroke-linejoin: miter"/>
     <use xlink:href="#mab56219d99" x="146.528315" y="146.407859" style="fill: #c7c7c7; stroke: #ffffff; stroke-width: 0.75; stroke-linejoin: miter"/>
     <use xlink:href="#mab56219d99" x="161.001263" y="146.407859" style="fill: #c7c7c7; stroke: #ffffff; stroke-width: 0.75; stroke-linejoin: miter"/>
     <use xlink:href="#mab56219d99" x="175.474212" y="146.390942" style="fill: #c7c7c7; stroke: #ffffff; stroke-width: 0.75; stroke-linejoin: miter"/>
     <use xlink:href="#mab56219d99" x="189.94716" y="145.46048" style="fill: #c7c7c7; stroke: #ffffff; stroke-width: 0.75; stroke-linejoin: miter"/>
     <use xlink:href="#mab56219d99" x="204.420108" y="145.409728" style="fill: #c7c7c7; stroke: #ffffff; stroke-width: 0.75; stroke-linejoin: miter"/>
     <use xlink:href="#mab56219d99" x="218.893057" y="145.409728" style="fill: #c7c7c7; stroke: #ffffff; stroke-width: 0.75; stroke-linejoin: miter"/>
     <use xlink:href="#mab56219d99" x="233.366005" y="127.358774" style="fill: #c7c7c7; stroke: #ffffff; stroke-width: 0.75; stroke-linejoin: miter"/>
     <use xlink:href="#mab56219d99" x="247.838953" y="111.185661" style="fill: #c7c7c7; stroke: #ffffff; stroke-width: 0.75; stroke-linejoin: miter"/>
     <use xlink:href="#mab56219d99" x="262.311902" y="104.87544" style="fill: #c7c7c7; stroke: #ffffff; stroke-width: 0.75; stroke-linejoin: miter"/>
     <use xlink:href="#mab56219d99" x="276.78485" y="98.548301" style="fill: #c7c7c7; stroke: #ffffff; stroke-width: 0.75; stroke-linejoin: miter"/>
     <use xlink:href="#mab56219d99" x="291.257798" y="87.8057" style="fill: #c7c7c7; stroke: #ffffff; stroke-width: 0.75; stroke-linejoin: miter"/>
     <use xlink:href="#mab56219d99" x="305.730747" y="85.098903" style="fill: #c7c7c7; stroke: #ffffff; stroke-width: 0.75; stroke-linejoin: miter"/>
     <use xlink:href="#mab56219d99" x="320.203695" y="76.640161" style="fill: #c7c7c7; stroke: #ffffff; stroke-width: 0.75; stroke-linejoin: miter"/>
     <use xlink:href="#mab56219d99" x="334.676643" y="74.999166" style="fill: #c7c7c7; stroke: #ffffff; stroke-width: 0.75; stroke-linejoin: miter"/>
     <use xlink:href="#mab56219d99" x="349.149592" y="67.453968" style="fill: #c7c7c7; stroke: #ffffff; stroke-width: 0.75; stroke-linejoin: miter"/>
     <use xlink:href="#mab56219d99" x="363.62254" y="65.034768" style="fill: #c7c7c7; stroke: #ffffff; stroke-width: 0.75; stroke-linejoin: miter"/>
     <use xlink:href="#mab56219d99" x="378.095488" y="62.395641" style="fill: #c7c7c7; stroke: #ffffff; stroke-width: 0.75; stroke-linejoin: miter"/>
     <use xlink:href="#mab56219d99" x="392.568437" y="61.177582" style="fill: #c7c7c7; stroke: #ffffff; stroke-width: 0.75; stroke-linejoin: miter"/>
     <use xlink:href="#mab56219d99" x="407.041385" y="59.265907" style="fill: #c7c7c7; stroke: #ffffff; stroke-width: 0.75; stroke-linejoin: miter"/>
     <use xlink:href="#mab56219d99" x="421.514333" y="57.557241" style="fill: #c7c7c7; stroke: #ffffff; stroke-width: 0.75; stroke-linejoin: miter"/>
     <use xlink:href="#mab56219d99" x="435.987282" y="56.982047" style="fill: #c7c7c7; stroke: #ffffff; stroke-width: 0.75; stroke-linejoin: miter"/>
     <use xlink:href="#mab56219d99" x="450.46023" y="56.576027" style="fill: #c7c7c7; stroke: #ffffff; stroke-width: 0.75; stroke-linejoin: miter"/>
     <use xlink:href="#mab56219d99" x="464.933178" y="56.15309" style="fill: #c7c7c7; stroke: #ffffff; stroke-width: 0.75; stroke-linejoin: miter"/>
     <use xlink:href="#mab56219d99" x="479.406127" y="54.951949" style="fill: #c7c7c7; stroke: #ffffff; stroke-width: 0.75; stroke-linejoin: miter"/>
     <use xlink:href="#mab56219d99" x="493.879075" y="53.192531" style="fill: #c7c7c7; stroke: #ffffff; stroke-width: 0.75; stroke-linejoin: miter"/>
     <use xlink:href="#mab56219d99" x="508.352023" y="52.786511" style="fill: #c7c7c7; stroke: #ffffff; stroke-width: 0.75; stroke-linejoin: miter"/>
     <use xlink:href="#mab56219d99" x="522.824972" y="52.515831" style="fill: #c7c7c7; stroke: #ffffff; stroke-width: 0.75; stroke-linejoin: miter"/>
     <use xlink:href="#mab56219d99" x="537.29792" y="52.075977" style="fill: #c7c7c7; stroke: #ffffff; stroke-width: 0.75; stroke-linejoin: miter"/>
     <use xlink:href="#mab56219d99" x="551.770868" y="50.333476" style="fill: #c7c7c7; stroke: #ffffff; stroke-width: 0.75; stroke-linejoin: miter"/>
     <use xlink:href="#mab56219d99" x="566.243816" y="49.876704" style="fill: #c7c7c7; stroke: #ffffff; stroke-width: 0.75; stroke-linejoin: miter"/>
     <use xlink:href="#mab56219d99" x="580.716765" y="48.929325" style="fill: #c7c7c7; stroke: #ffffff; stroke-width: 0.75; stroke-linejoin: miter"/>
     <use xlink:href="#mab56219d99" x="595.189713" y="48.69248" style="fill: #c7c7c7; stroke: #ffffff; stroke-width: 0.75; stroke-linejoin: miter"/>
     <use xlink:href="#mab56219d99" x="609.662661" y="48.438718" style="fill: #c7c7c7; stroke: #ffffff; stroke-width: 0.75; stroke-linejoin: miter"/>
     <use xlink:href="#mab56219d99" x="624.13561" y="48.320296" style="fill: #c7c7c7; stroke: #ffffff; stroke-width: 0.75; stroke-linejoin: miter"/>
     <use xlink:href="#mab56219d99" x="638.608558" y="47.914276" style="fill: #c7c7c7; stroke: #ffffff; stroke-width: 0.75; stroke-linejoin: miter"/>
     <use xlink:href="#mab56219d99" x="653.081506" y="47.237577" style="fill: #c7c7c7; stroke: #ffffff; stroke-width: 0.75; stroke-linejoin: miter"/>
     <use xlink:href="#mab56219d99" x="667.554455" y="46.577795" style="fill: #c7c7c7; stroke: #ffffff; stroke-width: 0.75; stroke-linejoin: miter"/>
     <use xlink:href="#mab56219d99" x="682.027403" y="45.867261" style="fill: #c7c7c7; stroke: #ffffff; stroke-width: 0.75; stroke-linejoin: miter"/>
     <use xlink:href="#mab56219d99" x="696.500351" y="45.511994" style="fill: #c7c7c7; stroke: #ffffff; stroke-width: 0.75; stroke-linejoin: miter"/>
     <use xlink:href="#mab56219d99" x="710.9733" y="44.716872" style="fill: #c7c7c7; stroke: #ffffff; stroke-width: 0.75; stroke-linejoin: miter"/>
     <use xlink:href="#mab56219d99" x="725.446248" y="44.446192" style="fill: #c7c7c7; stroke: #ffffff; stroke-width: 0.75; stroke-linejoin: miter"/>
     <use xlink:href="#mab56219d99" x="739.919196" y="44.361605" style="fill: #c7c7c7; stroke: #ffffff; stroke-width: 0.75; stroke-linejoin: miter"/>
    </g>
   </g>
   <g id="line2d_25">
    <path d="M 59.690625 276.334125 
L 74.163573 152.396648 
L 88.636522 152.159803 
L 103.10947 151.719949 
L 117.582418 151.652279 
L 132.055367 151.381599 
L 146.528315 151.381599 
L 161.001263 151.381599 
L 175.474212 149.046987 
L 189.94716 149.046987 
L 204.420108 149.046987 
L 218.893057 149.046987 
L 233.366005 149.046987 
L 247.838953 149.013152 
L 262.311902 149.013152 
L 276.78485 148.911647 
L 291.257798 148.911647 
L 305.730747 148.877812 
L 320.203695 148.370287 
L 334.676643 148.370287 
L 349.149592 148.370287 
L 363.62254 148.370287 
L 378.095488 148.370287 
L 392.568437 148.370287 
L 407.041385 148.099608 
L 421.514333 148.099608 
L 435.987282 148.099608 
L 450.46023 148.099608 
L 464.933178 105.298377 
L 479.406127 104.858522 
L 493.879075 98.362209 
L 508.352023 96.907305 
L 522.824972 94.302013 
L 537.29792 86.553806 
L 551.770868 86.452301 
L 566.243816 86.418466 
L 580.716765 84.151524 
L 595.189713 82.62895 
L 609.662661 79.651473 
L 624.13561 77.452201 
L 638.608558 73.798024 
L 653.081506 72.444626 
L 667.554455 69.940838 
L 682.027403 68.65511 
L 696.500351 65.711468 
L 710.9733 63.68137 
L 725.446248 60.061028 
L 739.919196 48.743233 
" clip-path="url(#p041ee61302)" style="fill: none; stroke: #98df8a; stroke-width: 1.5; stroke-linecap: square"/>
    <defs>
     <path id="meba55357a2" d="M -0 3 
L 3 -3 
L -3 -3 
z
" style="stroke: #ffffff; stroke-width: 0.75; stroke-linejoin: miter"/>
    </defs>
    <g clip-path="url(#p041ee61302)">
     <use xlink:href="#meba55357a2" x="59.690625" y="276.334125" style="fill: #98df8a; stroke: #ffffff; stroke-width: 0.75; stroke-linejoin: miter"/>
     <use xlink:href="#meba55357a2" x="74.163573" y="152.396648" style="fill: #98df8a; stroke: #ffffff; stroke-width: 0.75; stroke-linejoin: miter"/>
     <use xlink:href="#meba55357a2" x="88.636522" y="152.159803" style="fill: #98df8a; stroke: #ffffff; stroke-width: 0.75; stroke-linejoin: miter"/>
     <use xlink:href="#meba55357a2" x="103.10947" y="151.719949" style="fill: #98df8a; stroke: #ffffff; stroke-width: 0.75; stroke-linejoin: miter"/>
     <use xlink:href="#meba55357a2" x="117.582418" y="151.652279" style="fill: #98df8a; stroke: #ffffff; stroke-width: 0.75; stroke-linejoin: miter"/>
     <use xlink:href="#meba55357a2" x="132.055367" y="151.381599" style="fill: #98df8a; stroke: #ffffff; stroke-width: 0.75; stroke-linejoin: miter"/>
     <use xlink:href="#meba55357a2" x="146.528315" y="151.381599" style="fill: #98df8a; stroke: #ffffff; stroke-width: 0.75; stroke-linejoin: miter"/>
     <use xlink:href="#meba55357a2" x="161.001263" y="151.381599" style="fill: #98df8a; stroke: #ffffff; stroke-width: 0.75; stroke-linejoin: miter"/>
     <use xlink:href="#meba55357a2" x="175.474212" y="149.046987" style="fill: #98df8a; stroke: #ffffff; stroke-width: 0.75; stroke-linejoin: miter"/>
     <use xlink:href="#meba55357a2" x="189.94716" y="149.046987" style="fill: #98df8a; stroke: #ffffff; stroke-width: 0.75; stroke-linejoin: miter"/>
     <use xlink:href="#meba55357a2" x="204.420108" y="149.046987" style="fill: #98df8a; stroke: #ffffff; stroke-width: 0.75; stroke-linejoin: miter"/>
     <use xlink:href="#meba55357a2" x="218.893057" y="149.046987" style="fill: #98df8a; stroke: #ffffff; stroke-width: 0.75; stroke-linejoin: miter"/>
     <use xlink:href="#meba55357a2" x="233.366005" y="149.046987" style="fill: #98df8a; stroke: #ffffff; stroke-width: 0.75; stroke-linejoin: miter"/>
     <use xlink:href="#meba55357a2" x="247.838953" y="149.013152" style="fill: #98df8a; stroke: #ffffff; stroke-width: 0.75; stroke-linejoin: miter"/>
     <use xlink:href="#meba55357a2" x="262.311902" y="149.013152" style="fill: #98df8a; stroke: #ffffff; stroke-width: 0.75; stroke-linejoin: miter"/>
     <use xlink:href="#meba55357a2" x="276.78485" y="148.911647" style="fill: #98df8a; stroke: #ffffff; stroke-width: 0.75; stroke-linejoin: miter"/>
     <use xlink:href="#meba55357a2" x="291.257798" y="148.911647" style="fill: #98df8a; stroke: #ffffff; stroke-width: 0.75; stroke-linejoin: miter"/>
     <use xlink:href="#meba55357a2" x="305.730747" y="148.877812" style="fill: #98df8a; stroke: #ffffff; stroke-width: 0.75; stroke-linejoin: miter"/>
     <use xlink:href="#meba55357a2" x="320.203695" y="148.370287" style="fill: #98df8a; stroke: #ffffff; stroke-width: 0.75; stroke-linejoin: miter"/>
     <use xlink:href="#meba55357a2" x="334.676643" y="148.370287" style="fill: #98df8a; stroke: #ffffff; stroke-width: 0.75; stroke-linejoin: miter"/>
     <use xlink:href="#meba55357a2" x="349.149592" y="148.370287" style="fill: #98df8a; stroke: #ffffff; stroke-width: 0.75; stroke-linejoin: miter"/>
     <use xlink:href="#meba55357a2" x="363.62254" y="148.370287" style="fill: #98df8a; stroke: #ffffff; stroke-width: 0.75; stroke-linejoin: miter"/>
     <use xlink:href="#meba55357a2" x="378.095488" y="148.370287" style="fill: #98df8a; stroke: #ffffff; stroke-width: 0.75; stroke-linejoin: miter"/>
     <use xlink:href="#meba55357a2" x="392.568437" y="148.370287" style="fill: #98df8a; stroke: #ffffff; stroke-width: 0.75; stroke-linejoin: miter"/>
     <use xlink:href="#meba55357a2" x="407.041385" y="148.099608" style="fill: #98df8a; stroke: #ffffff; stroke-width: 0.75; stroke-linejoin: miter"/>
     <use xlink:href="#meba55357a2" x="421.514333" y="148.099608" style="fill: #98df8a; stroke: #ffffff; stroke-width: 0.75; stroke-linejoin: miter"/>
     <use xlink:href="#meba55357a2" x="435.987282" y="148.099608" style="fill: #98df8a; stroke: #ffffff; stroke-width: 0.75; stroke-linejoin: miter"/>
     <use xlink:href="#meba55357a2" x="450.46023" y="148.099608" style="fill: #98df8a; stroke: #ffffff; stroke-width: 0.75; stroke-linejoin: miter"/>
     <use xlink:href="#meba55357a2" x="464.933178" y="105.298377" style="fill: #98df8a; stroke: #ffffff; stroke-width: 0.75; stroke-linejoin: miter"/>
     <use xlink:href="#meba55357a2" x="479.406127" y="104.858522" style="fill: #98df8a; stroke: #ffffff; stroke-width: 0.75; stroke-linejoin: miter"/>
     <use xlink:href="#meba55357a2" x="493.879075" y="98.362209" style="fill: #98df8a; stroke: #ffffff; stroke-width: 0.75; stroke-linejoin: miter"/>
     <use xlink:href="#meba55357a2" x="508.352023" y="96.907305" style="fill: #98df8a; stroke: #ffffff; stroke-width: 0.75; stroke-linejoin: miter"/>
     <use xlink:href="#meba55357a2" x="522.824972" y="94.302013" style="fill: #98df8a; stroke: #ffffff; stroke-width: 0.75; stroke-linejoin: miter"/>
     <use xlink:href="#meba55357a2" x="537.29792" y="86.553806" style="fill: #98df8a; stroke: #ffffff; stroke-width: 0.75; stroke-linejoin: miter"/>
     <use xlink:href="#meba55357a2" x="551.770868" y="86.452301" style="fill: #98df8a; stroke: #ffffff; stroke-width: 0.75; stroke-linejoin: miter"/>
     <use xlink:href="#meba55357a2" x="566.243816" y="86.418466" style="fill: #98df8a; stroke: #ffffff; stroke-width: 0.75; stroke-linejoin: miter"/>
     <use xlink:href="#meba55357a2" x="580.716765" y="84.151524" style="fill: #98df8a; stroke: #ffffff; stroke-width: 0.75; stroke-linejoin: miter"/>
     <use xlink:href="#meba55357a2" x="595.189713" y="82.62895" style="fill: #98df8a; stroke: #ffffff; stroke-width: 0.75; stroke-linejoin: miter"/>
     <use xlink:href="#meba55357a2" x="609.662661" y="79.651473" style="fill: #98df8a; stroke: #ffffff; stroke-width: 0.75; stroke-linejoin: miter"/>
     <use xlink:href="#meba55357a2" x="624.13561" y="77.452201" style="fill: #98df8a; stroke: #ffffff; stroke-width: 0.75; stroke-linejoin: miter"/>
     <use xlink:href="#meba55357a2" x="638.608558" y="73.798024" style="fill: #98df8a; stroke: #ffffff; stroke-width: 0.75; stroke-linejoin: miter"/>
     <use xlink:href="#meba55357a2" x="653.081506" y="72.444626" style="fill: #98df8a; stroke: #ffffff; stroke-width: 0.75; stroke-linejoin: miter"/>
     <use xlink:href="#meba55357a2" x="667.554455" y="69.940838" style="fill: #98df8a; stroke: #ffffff; stroke-width: 0.75; stroke-linejoin: miter"/>
     <use xlink:href="#meba55357a2" x="682.027403" y="68.65511" style="fill: #98df8a; stroke: #ffffff; stroke-width: 0.75; stroke-linejoin: miter"/>
     <use xlink:href="#meba55357a2" x="696.500351" y="65.711468" style="fill: #98df8a; stroke: #ffffff; stroke-width: 0.75; stroke-linejoin: miter"/>
     <use xlink:href="#meba55357a2" x="710.9733" y="63.68137" style="fill: #98df8a; stroke: #ffffff; stroke-width: 0.75; stroke-linejoin: miter"/>
     <use xlink:href="#meba55357a2" x="725.446248" y="60.061028" style="fill: #98df8a; stroke: #ffffff; stroke-width: 0.75; stroke-linejoin: miter"/>
     <use xlink:href="#meba55357a2" x="739.919196" y="48.743233" style="fill: #98df8a; stroke: #ffffff; stroke-width: 0.75; stroke-linejoin: miter"/>
    </g>
   </g>
   <g id="line2d_26"/>
   <g id="line2d_27"/>
   <g id="line2d_28"/>
   <g id="line2d_29"/>
   <g id="line2d_30">
    <path d="M 739.919196 288.430125 
L 739.919196 22.318125 
" clip-path="url(#p041ee61302)" style="fill: none; stroke: #ff0000; stroke-width: 1.5; stroke-linecap: square"/>
   </g>
   <g id="patch_3">
    <path d="M 59.690625 261.311401 
L 59.690625 24.466645 
" style="fill: none; stroke: #000000; stroke-width: 0.8; stroke-linejoin: miter; stroke-linecap: square"/>
   </g>
   <g id="patch_4">
    <path d="M 59.690625 288.430125 
L 739.919196 288.430125 
" style="fill: none; stroke: #000000; stroke-width: 0.8; stroke-linejoin: miter; stroke-linecap: square"/>
   </g>
   <g id="text_24">
    <!-- libxml2_xml (11h:45m, at least 3 trials/fuzzer) -->
    <g transform="translate(277.956563 16.318125) scale(0.12 -0.12)">
     <defs>
      <path id="DejaVuSans-6c" d="M 603 4863 
L 1178 4863 
L 1178 0 
L 603 0 
L 603 4863 
z
" transform="scale(0.015625)"/>
      <path id="DejaVuSans-78" d="M 3513 3500 
L 2247 1797 
L 3578 0 
L 2900 0 
L 1881 1375 
L 863 0 
L 184 0 
L 1544 1831 
L 300 3500 
L 978 3500 
L 1906 2253 
L 2834 3500 
L 3513 3500 
z
" transform="scale(0.015625)"/>
      <path id="DejaVuSans-5f" d="M 3263 -1063 
L 3263 -1509 
L -63 -1509 
L -63 -1063 
L 3263 -1063 
z
" transform="scale(0.015625)"/>
      <path id="DejaVuSans-2c" d="M 750 794 
L 1409 794 
L 1409 256 
L 897 -744 
L 494 -744 
L 750 256 
L 750 794 
z
" transform="scale(0.015625)"/>
      <path id="DejaVuSans-73" d="M 2834 3397 
L 2834 2853 
Q 2591 2978 2328 3040 
Q 2066 3103 1784 3103 
Q 1356 3103 1142 2972 
Q 928 2841 928 2578 
Q 928 2378 1081 2264 
Q 1234 2150 1697 2047 
L 1894 2003 
Q 2506 1872 2764 1633 
Q 3022 1394 3022 966 
Q 3022 478 2636 193 
Q 2250 -91 1575 -91 
Q 1294 -91 989 -36 
Q 684 19 347 128 
L 347 722 
Q 666 556 975 473 
Q 1284 391 1588 391 
Q 1994 391 2212 530 
Q 2431 669 2431 922 
Q 2431 1156 2273 1281 
Q 2116 1406 1581 1522 
L 1381 1569 
Q 847 1681 609 1914 
Q 372 2147 372 2553 
Q 372 3047 722 3315 
Q 1072 3584 1716 3584 
Q 2034 3584 2315 3537 
Q 2597 3491 2834 3397 
z
" transform="scale(0.015625)"/>
      <path id="DejaVuSans-2f" d="M 1625 4666 
L 2156 4666 
L 531 -594 
L 0 -594 
L 1625 4666 
z
" transform="scale(0.015625)"/>
      <path id="DejaVuSans-66" d="M 2375 4863 
L 2375 4384 
L 1825 4384 
Q 1516 4384 1395 4259 
Q 1275 4134 1275 3809 
L 1275 3500 
L 2222 3500 
L 2222 3053 
L 1275 3053 
L 1275 0 
L 697 0 
L 697 3053 
L 147 3053 
L 147 3500 
L 697 3500 
L 697 3744 
Q 697 4328 969 4595 
Q 1241 4863 1831 4863 
L 2375 4863 
z
" transform="scale(0.015625)"/>
      <path id="DejaVuSans-7a" d="M 353 3500 
L 3084 3500 
L 3084 2975 
L 922 459 
L 3084 459 
L 3084 0 
L 275 0 
L 275 525 
L 2438 3041 
L 353 3041 
L 353 3500 
z
" transform="scale(0.015625)"/>
     </defs>
     <use xlink:href="#DejaVuSans-6c"/>
     <use xlink:href="#DejaVuSans-69" transform="translate(27.783203 0)"/>
     <use xlink:href="#DejaVuSans-62" transform="translate(55.566406 0)"/>
     <use xlink:href="#DejaVuSans-78" transform="translate(119.042969 0)"/>
     <use xlink:href="#DejaVuSans-6d" transform="translate(178.222656 0)"/>
     <use xlink:href="#DejaVuSans-6c" transform="translate(275.634766 0)"/>
     <use xlink:href="#DejaVuSans-32" transform="translate(303.417969 0)"/>
     <use xlink:href="#DejaVuSans-5f" transform="translate(367.041016 0)"/>
     <use xlink:href="#DejaVuSans-78" transform="translate(417.041016 0)"/>
     <use xlink:href="#DejaVuSans-6d" transform="translate(476.220703 0)"/>
     <use xlink:href="#DejaVuSans-6c" transform="translate(573.632812 0)"/>
     <use xlink:href="#DejaVuSans-20" transform="translate(601.416016 0)"/>
     <use xlink:href="#DejaVuSans-28" transform="translate(633.203125 0)"/>
     <use xlink:href="#DejaVuSans-31" transform="translate(672.216797 0)"/>
     <use xlink:href="#DejaVuSans-31" transform="translate(735.839844 0)"/>
     <use xlink:href="#DejaVuSans-68" transform="translate(799.462891 0)"/>
     <use xlink:href="#DejaVuSans-3a" transform="translate(862.841797 0)"/>
     <use xlink:href="#DejaVuSans-34" transform="translate(896.533203 0)"/>
     <use xlink:href="#DejaVuSans-35" transform="translate(960.15625 0)"/>
     <use xlink:href="#DejaVuSans-6d" transform="translate(1023.779297 0)"/>
     <use xlink:href="#DejaVuSans-2c" transform="translate(1121.191406 0)"/>
     <use xlink:href="#DejaVuSans-20" transform="translate(1152.978516 0)"/>
     <use xlink:href="#DejaVuSans-61" transform="translate(1184.765625 0)"/>
     <use xlink:href="#DejaVuSans-74" transform="translate(1246.044922 0)"/>
     <use xlink:href="#DejaVuSans-20" transform="translate(1285.253906 0)"/>
     <use xlink:href="#DejaVuSans-6c" transform="translate(1317.041016 0)"/>
     <use xlink:href="#DejaVuSans-65" transform="translate(1344.824219 0)"/>
     <use xlink:href="#DejaVuSans-61" transform="translate(1406.347656 0)"/>
     <use xlink:href="#DejaVuSans-73" transform="translate(1467.626953 0)"/>
     <use xlink:href="#DejaVuSans-74" transform="translate(1519.726562 0)"/>
     <use xlink:href="#DejaVuSans-20" transform="translate(1558.935547 0)"/>
     <use xlink:href="#DejaVuSans-33" transform="translate(1590.722656 0)"/>
     <use xlink:href="#DejaVuSans-20" transform="translate(1654.345703 0)"/>
     <use xlink:href="#DejaVuSans-74" transform="translate(1686.132812 0)"/>
     <use xlink:href="#DejaVuSans-72" transform="translate(1725.341797 0)"/>
     <use xlink:href="#DejaVuSans-69" transform="translate(1766.455078 0)"/>
     <use xlink:href="#DejaVuSans-61" transform="translate(1794.238281 0)"/>
     <use xlink:href="#DejaVuSans-6c" transform="translate(1855.517578 0)"/>
     <use xlink:href="#DejaVuSans-73" transform="translate(1883.300781 0)"/>
     <use xlink:href="#DejaVuSans-2f" transform="translate(1935.400391 0)"/>
     <use xlink:href="#DejaVuSans-66" transform="translate(1969.091797 0)"/>
     <use xlink:href="#DejaVuSans-75" transform="translate(2004.296875 0)"/>
     <use xlink:href="#DejaVuSans-7a" transform="translate(2067.675781 0)"/>
     <use xlink:href="#DejaVuSans-7a" transform="translate(2120.166016 0)"/>
     <use xlink:href="#DejaVuSans-65" transform="translate(2172.65625 0)"/>
     <use xlink:href="#DejaVuSans-72" transform="translate(2234.179688 0)"/>
     <use xlink:href="#DejaVuSans-29" transform="translate(2275.292969 0)"/>
    </g>
   </g>
   <g id="legend_1">
    <g id="line2d_31">
     <path d="M 777.930625 30.416562 
L 787.930625 30.416562 
L 797.930625 30.416562 
" style="fill: none; stroke: #1f77b4; stroke-width: 1.5; stroke-linecap: square"/>
     <g>
      <use xlink:href="#m5786279ea0" x="787.930625" y="30.416562" style="fill: #1f77b4; stroke: #ffffff; stroke-width: 0.75"/>
     </g>
    </g>
    <g id="text_25">
     <!-- aflplusplus_440c -->
     <g transform="translate(805.930625 33.916562) scale(0.1 -0.1)">
      <defs>
       <path id="DejaVuSans-70" d="M 1159 525 
L 1159 -1331 
L 581 -1331 
L 581 3500 
L 1159 3500 
L 1159 2969 
Q 1341 3281 1617 3432 
Q 1894 3584 2278 3584 
Q 2916 3584 3314 3078 
Q 3713 2572 3713 1747 
Q 3713 922 3314 415 
Q 2916 -91 2278 -91 
Q 1894 -91 1617 61 
Q 1341 213 1159 525 
z
M 3116 1747 
Q 3116 2381 2855 2742 
Q 2594 3103 2138 3103 
Q 1681 3103 1420 2742 
Q 1159 2381 1159 1747 
Q 1159 1113 1420 752 
Q 1681 391 2138 391 
Q 2594 391 2855 752 
Q 3116 1113 3116 1747 
z
" transform="scale(0.015625)"/>
      </defs>
      <use xlink:href="#DejaVuSans-61"/>
      <use xlink:href="#DejaVuSans-66" transform="translate(61.279297 0)"/>
      <use xlink:href="#DejaVuSans-6c" transform="translate(96.484375 0)"/>
      <use xlink:href="#DejaVuSans-70" transform="translate(124.267578 0)"/>
      <use xlink:href="#DejaVuSans-6c" transform="translate(187.744141 0)"/>
      <use xlink:href="#DejaVuSans-75" transform="translate(215.527344 0)"/>
      <use xlink:href="#DejaVuSans-73" transform="translate(278.90625 0)"/>
      <use xlink:href="#DejaVuSans-70" transform="translate(331.005859 0)"/>
      <use xlink:href="#DejaVuSans-6c" transform="translate(394.482422 0)"/>
      <use xlink:href="#DejaVuSans-75" transform="translate(422.265625 0)"/>
      <use xlink:href="#DejaVuSans-73" transform="translate(485.644531 0)"/>
      <use xlink:href="#DejaVuSans-5f" transform="translate(537.744141 0)"/>
      <use xlink:href="#DejaVuSans-34" transform="translate(587.744141 0)"/>
      <use xlink:href="#DejaVuSans-34" transform="translate(651.367188 0)"/>
      <use xlink:href="#DejaVuSans-30" transform="translate(714.990234 0)"/>
      <use xlink:href="#DejaVuSans-63" transform="translate(778.613281 0)"/>
     </g>
    </g>
    <g id="line2d_32">
     <path d="M 777.930625 45.372813 
L 787.930625 45.372813 
L 797.930625 45.372813 
" style="fill: none; stroke: #d62728; stroke-width: 1.5; stroke-linecap: square"/>
     <g>
      <use xlink:href="#m1ef9ab7bd5" x="787.930625" y="45.372813" style="fill: #d62728; stroke: #ffffff; stroke-width: 0.75; stroke-linejoin: miter"/>
     </g>
    </g>
    <g id="text_26">
     <!-- aflplusplus_c11 -->
     <g transform="translate(805.930625 48.872813) scale(0.1 -0.1)">
      <use xlink:href="#DejaVuSans-61"/>
      <use xlink:href="#DejaVuSans-66" transform="translate(61.279297 0)"/>
      <use xlink:href="#DejaVuSans-6c" transform="translate(96.484375 0)"/>
      <use xlink:href="#DejaVuSans-70" transform="translate(124.267578 0)"/>
      <use xlink:href="#DejaVuSans-6c" transform="translate(187.744141 0)"/>
      <use xlink:href="#DejaVuSans-75" transform="translate(215.527344 0)"/>
      <use xlink:href="#DejaVuSans-73" transform="translate(278.90625 0)"/>
      <use xlink:href="#DejaVuSans-70" transform="translate(331.005859 0)"/>
      <use xlink:href="#DejaVuSans-6c" transform="translate(394.482422 0)"/>
      <use xlink:href="#DejaVuSans-75" transform="translate(422.265625 0)"/>
      <use xlink:href="#DejaVuSans-73" transform="translate(485.644531 0)"/>
      <use xlink:href="#DejaVuSans-5f" transform="translate(537.744141 0)"/>
      <use xlink:href="#DejaVuSans-63" transform="translate(587.744141 0)"/>
      <use xlink:href="#DejaVuSans-31" transform="translate(642.724609 0)"/>
      <use xlink:href="#DejaVuSans-31" transform="translate(706.347656 0)"/>
     </g>
    </g>
    <g id="line2d_33">
     <path d="M 777.930625 60.329063 
L 787.930625 60.329063 
L 797.930625 60.329063 
" style="fill: none; stroke: #c7c7c7; stroke-width: 1.5; stroke-linecap: square"/>
     <g>
      <use xlink:href="#mab56219d99" x="787.930625" y="60.329063" style="fill: #c7c7c7; stroke: #ffffff; stroke-width: 0.75; stroke-linejoin: miter"/>
     </g>
    </g>
    <g id="text_27">
     <!-- aflplusplus_mopt -->
     <g transform="translate(805.930625 63.829063) scale(0.1 -0.1)">
      <use xlink:href="#DejaVuSans-61"/>
      <use xlink:href="#DejaVuSans-66" transform="translate(61.279297 0)"/>
      <use xlink:href="#DejaVuSans-6c" transform="translate(96.484375 0)"/>
      <use xlink:href="#DejaVuSans-70" transform="translate(124.267578 0)"/>
      <use xlink:href="#DejaVuSans-6c" transform="translate(187.744141 0)"/>
      <use xlink:href="#DejaVuSans-75" transform="translate(215.527344 0)"/>
      <use xlink:href="#DejaVuSans-73" transform="translate(278.90625 0)"/>
      <use xlink:href="#DejaVuSans-70" transform="translate(331.005859 0)"/>
      <use xlink:href="#DejaVuSans-6c" transform="translate(394.482422 0)"/>
      <use xlink:href="#DejaVuSans-75" transform="translate(422.265625 0)"/>
      <use xlink:href="#DejaVuSans-73" transform="translate(485.644531 0)"/>
      <use xlink:href="#DejaVuSans-5f" transform="translate(537.744141 0)"/>
      <use xlink:href="#DejaVuSans-6d" transform="translate(587.744141 0)"/>
      <use xlink:href="#DejaVuSans-6f" transform="translate(685.15625 0)"/>
      <use xlink:href="#DejaVuSans-70" transform="translate(746.337891 0)"/>
      <use xlink:href="#DejaVuSans-74" transform="translate(809.814453 0)"/>
     </g>
    </g>
    <g id="line2d_34">
     <path d="M 777.930625 75.285313 
L 787.930625 75.285313 
L 797.930625 75.285313 
" style="fill: none; stroke: #98df8a; stroke-width: 1.5; stroke-linecap: square"/>
     <g>
      <use xlink:href="#meba55357a2" x="787.930625" y="75.285313" style="fill: #98df8a; stroke: #ffffff; stroke-width: 0.75; stroke-linejoin: miter"/>
     </g>
    </g>
    <g id="text_28">
     <!-- aflplusplus_500c -->
     <g transform="translate(805.930625 78.785313) scale(0.1 -0.1)">
      <use xlink:href="#DejaVuSans-61"/>
      <use xlink:href="#DejaVuSans-66" transform="translate(61.279297 0)"/>
      <use xlink:href="#DejaVuSans-6c" transform="translate(96.484375 0)"/>
      <use xlink:href="#DejaVuSans-70" transform="translate(124.267578 0)"/>
      <use xlink:href="#DejaVuSans-6c" transform="translate(187.744141 0)"/>
      <use xlink:href="#DejaVuSans-75" transform="translate(215.527344 0)"/>
      <use xlink:href="#DejaVuSans-73" transform="translate(278.90625 0)"/>
      <use xlink:href="#DejaVuSans-70" transform="translate(331.005859 0)"/>
      <use xlink:href="#DejaVuSans-6c" transform="translate(394.482422 0)"/>
      <use xlink:href="#DejaVuSans-75" transform="translate(422.265625 0)"/>
      <use xlink:href="#DejaVuSans-73" transform="translate(485.644531 0)"/>
      <use xlink:href="#DejaVuSans-5f" transform="translate(537.744141 0)"/>
      <use xlink:href="#DejaVuSans-35" transform="translate(587.744141 0)"/>
      <use xlink:href="#DejaVuSans-30" transform="translate(651.367188 0)"/>
      <use xlink:href="#DejaVuSans-30" transform="translate(714.990234 0)"/>
      <use xlink:href="#DejaVuSans-63" transform="translate(778.613281 0)"/>
     </g>
    </g>
   </g>
  </g>
 </g>
 <defs>
  <clipPath id="p041ee61302">
   <rect x="59.690625" y="22.318125" width="714.24" height="266.112"/>
  </clipPath>
 </defs>
</svg>
