<?xml version="1.0" encoding="utf-8" standalone="no"?>
<!DOCTYPE svg PUBLIC "-//W3C//DTD SVG 1.1//EN"
  "http://www.w3.org/Graphics/SVG/1.1/DTD/svg11.dtd">
<svg xmlns:xlink="http://www.w3.org/1999/xlink" width="902.032187pt" height="325.986375pt" viewBox="0 0 902.032187 325.986375" xmlns="http://www.w3.org/2000/svg" version="1.1">
 <metadata>
  <rdf:RDF xmlns:dc="http://purl.org/dc/elements/1.1/" xmlns:cc="http://creativecommons.org/ns#" xmlns:rdf="http://www.w3.org/1999/02/22-rdf-syntax-ns#">
   <cc:Work>
    <dc:type rdf:resource="http://purl.org/dc/dcmitype/StillImage"/>
    <dc:date>2026-06-10T02:07:12.353110</dc:date>
    <dc:format>image/svg+xml</dc:format>
    <dc:creator>
     <cc:Agent>
      <dc:title>Matplotlib v3.10.9, https://matplotlib.org/</dc:title>
     </cc:Agent>
    </dc:creator>
   </cc:Work>
  </rdf:RDF>
 </metadata>
 <defs>
  <style type="text/css">*{stroke-linejoin: round; stroke-linecap: butt}</style>
 </defs>
 <g id="figure_1">
  <g id="patch_1">
   <path d="M 0 325.986375 
L 902.032187 325.986375 
L 902.032187 0 
L 0 0 
z
" style="fill: #ffffff"/>
  </g>
  <g id="axes_1">
   <g id="patch_2">
    <path d="M 59.690625 288.430125 
L 773.930625 288.430125 
L 773.930625 22.318125 
L 59.690625 22.318125 
z
" style="fill: #ffffff"/>
   </g>
   <g id="FillBetweenPolyCollection_1">
    <defs>
     <path id="mfa8794d741" d="M 59.690625 -49.65225 
L 59.690625 -49.65225 
L 75.886543 -166.676385 
L 92.082462 -166.676385 
L 108.27838 -167.354982 
L 124.474298 -167.354982 
L 140.670217 -174.853484 
L 156.866135 -174.853484 
L 173.062054 -174.853484 
L 189.257972 -174.853484 
L 205.45389 -174.853484 
L 221.649809 -174.853484 
L 237.845727 -174.853484 
L 254.041645 -174.955274 
L 270.237564 -174.989204 
L 286.433482 -174.989204 
L 302.629401 -215.128244 
L 318.825319 -216.18007 
L 335.021237 -219.505198 
L 351.217156 -219.810567 
L 367.413074 -222.558887 
L 383.608992 -223.814292 
L 399.804911 -223.814292 
L 416.000829 -229.81988 
L 432.196747 -230.769916 
L 448.392666 -230.837776 
L 464.588584 -238.268418 
L 480.784503 -239.320244 
L 496.980421 -239.320244 
L 513.176339 -240.57565 
L 529.372258 -240.643509 
L 545.568176 -240.779229 
L 561.764094 -243.052531 
L 577.960013 -244.749024 
L 594.155931 -244.850814 
L 610.351849 -244.884744 
L 626.547768 -245.122253 
L 642.743686 -245.224042 
L 658.939605 -245.597271 
L 675.135523 -246.716957 
L 691.331441 -247.022326 
L 707.52736 -251.093911 
L 723.723278 -258.049535 
L 739.919196 -265.310528 
L 739.919196 -286.991717 
L 739.919196 -286.991717 
L 723.723278 -286.686348 
L 707.52736 -286.686348 
L 691.331441 -286.652418 
L 675.135523 -286.652418 
L 658.939605 -286.347049 
L 642.743686 -286.27919 
L 626.547768 -286.07561 
L 610.351849 -285.973821 
L 594.155931 -285.872031 
L 577.960013 -285.634522 
L 561.764094 -285.566662 
L 545.568176 -285.430943 
L 529.372258 -284.684486 
L 513.176339 -283.42908 
L 496.980421 -282.037955 
L 480.784503 -281.393288 
L 464.588584 -281.189709 
L 448.392666 -281.155779 
L 432.196747 -280.85041 
L 416.000829 -279.628934 
L 399.804911 -279.255706 
L 383.608992 -277.219913 
L 367.413074 -277.050264 
L 351.217156 -276.948474 
L 335.021237 -272.435801 
L 318.825319 -269.95892 
L 302.629401 -269.619622 
L 286.433482 -269.008884 
L 270.237564 -268.805305 
L 254.041645 -264.869439 
L 237.845727 -264.73372 
L 221.649809 -255.979812 
L 205.45389 -252.858264 
L 189.257972 -248.108082 
L 173.062054 -245.156183 
L 156.866135 -233.993254 
L 140.670217 -222.049939 
L 124.474298 -214.212138 
L 108.27838 -176.957136 
L 92.082462 -176.957136 
L 75.886543 -176.889277 
L 59.690625 -49.65225 
z
" style="stroke: #d62728; stroke-opacity: 0.2"/>
    </defs>
    <g clip-path="url(#p25982df047)">
     <use xlink:href="#mfa8794d741" x="0" y="325.986375" style="fill: #d62728; fill-opacity: 0.2; stroke: #d62728; stroke-opacity: 0.2"/>
    </g>
   </g>
   <g id="FillBetweenPolyCollection_2">
    <defs>
     <path id="m3c46c4b393" d="M 59.690625 -49.65225 
L 59.690625 -49.65225 
L 75.886543 -158.804654 
L 92.082462 -158.974303 
L 108.27838 -158.974303 
L 124.474298 -158.974303 
L 140.670217 -158.974303 
L 156.866135 -158.974303 
L 173.062054 -158.974303 
L 189.257972 -159.076093 
L 205.45389 -159.449322 
L 221.649809 -159.449322 
L 237.845727 -160.026129 
L 254.041645 -160.026129 
L 270.237564 -176.346399 
L 286.433482 -176.380329 
L 302.629401 -176.414258 
L 318.825319 -176.414258 
L 335.021237 -177.058926 
L 351.217156 -177.058926 
L 367.413074 -177.058926 
L 383.608992 -177.058926 
L 399.804911 -177.058926 
L 416.000829 -177.058926 
L 432.196747 -177.058926 
L 448.392666 -177.364295 
L 464.588584 -177.398225 
L 480.784503 -177.398225 
L 496.980421 -177.398225 
L 513.176339 -177.398225 
L 529.372258 -177.398225 
L 545.568176 -177.907173 
L 561.764094 -177.907173 
L 577.960013 -214.890735 
L 594.155931 -223.542853 
L 610.351849 -225.171487 
L 626.547768 -233.755745 
L 642.743686 -239.625613 
L 658.939605 -241.186387 
L 675.135523 -241.186387 
L 691.331441 -247.293765 
L 707.52736 -253.774371 
L 723.723278 -256.353041 
L 739.919196 -256.69234 
L 739.919196 -291.57225 
L 739.919196 -291.57225 
L 723.723278 -291.029372 
L 707.52736 -290.656143 
L 691.331441 -289.977546 
L 675.135523 -289.841826 
L 658.939605 -289.400738 
L 642.743686 -287.873894 
L 626.547768 -286.923857 
L 610.351849 -286.07561 
L 594.155931 -285.939891 
L 577.960013 -284.107678 
L 561.764094 -281.936166 
L 545.568176 -281.596867 
L 529.372258 -280.545041 
L 513.176339 -280.171812 
L 496.980421 -279.968233 
L 480.784503 -279.900373 
L 464.588584 -279.391425 
L 448.392666 -278.814617 
L 432.196747 -278.644968 
L 416.000829 -278.543178 
L 399.804911 -278.339599 
L 383.608992 -276.643106 
L 367.413074 -276.032368 
L 351.217156 -274.878752 
L 335.021237 -273.996575 
L 318.825319 -268.296357 
L 302.629401 -266.396284 
L 286.433482 -264.360491 
L 270.237564 -263.783683 
L 254.041645 -262.528278 
L 237.845727 -257.337007 
L 221.649809 -250.754612 
L 205.45389 -243.357899 
L 189.257972 -233.959324 
L 173.062054 -216.28186 
L 156.866135 -177.601804 
L 140.670217 -177.601804 
L 124.474298 -177.601804 
L 108.27838 -177.601804 
L 92.082462 -177.601804 
L 75.886543 -177.567874 
L 59.690625 -49.65225 
z
" style="stroke: #1f77b4; stroke-opacity: 0.2"/>
    </defs>
    <g clip-path="url(#p25982df047)">
     <use xlink:href="#m3c46c4b393" x="0" y="325.986375" style="fill: #1f77b4; fill-opacity: 0.2; stroke: #1f77b4; stroke-opacity: 0.2"/>
    </g>
   </g>
   <g id="FillBetweenPolyCollection_3">
    <defs>
     <path id="mac59477974" d="M 59.690625 -49.65225 
L 59.690625 -49.65225 
L 75.886543 -170.459566 
L 92.082462 -170.900654 
L 108.27838 -171.239953 
L 124.474298 -171.256918 
L 140.670217 -171.782831 
L 156.866135 -171.91855 
L 173.062054 -172.003375 
L 189.257972 -172.02034 
L 205.45389 -172.122129 
L 221.649809 -172.122129 
L 237.845727 -172.122129 
L 254.041645 -172.308744 
L 270.237564 -181.843038 
L 286.433482 -175.633871 
L 302.629401 -175.633871 
L 318.825319 -175.650836 
L 335.021237 -175.650836 
L 351.217156 -175.701731 
L 367.413074 -175.752626 
L 383.608992 -175.87138 
L 399.804911 -175.87138 
L 416.000829 -175.87138 
L 432.196747 -175.87138 
L 448.392666 -175.87138 
L 464.588584 -175.87138 
L 480.784503 -193.090791 
L 496.980421 -218.89446 
L 513.176339 -220.23469 
L 529.372258 -226.036699 
L 545.568176 -228.615369 
L 561.764094 -229.073423 
L 577.960013 -234.739711 
L 594.155931 -237.86126 
L 610.351849 -245.342797 
L 626.547768 -248.472404 
L 642.743686 -252.485035 
L 658.939605 -255.335145 
L 675.135523 -257.506657 
L 691.331441 -259.796923 
L 707.52736 -262.986331 
L 723.723278 -264.66586 
L 739.919196 -266.328424 
L 739.919196 -289.332878 
L 739.919196 -289.332878 
L 723.723278 -289.078404 
L 707.52736 -288.92572 
L 691.331441 -288.501596 
L 675.135523 -288.298017 
L 658.939605 -288.111403 
L 642.743686 -287.890859 
L 626.547768 -287.534595 
L 610.351849 -286.940822 
L 594.155931 -285.770242 
L 577.960013 -284.565731 
L 561.764094 -283.683554 
L 545.568176 -282.699588 
L 529.372258 -281.478113 
L 513.176339 -281.087919 
L 496.980421 -280.392357 
L 480.784503 -279.679829 
L 464.588584 -279.357495 
L 448.392666 -278.577108 
L 432.196747 -278.13602 
L 416.000829 -276.812755 
L 399.804911 -275.438595 
L 383.608992 -273.809961 
L 367.413074 -273.199223 
L 351.217156 -272.045608 
L 335.021237 -269.823201 
L 318.825319 -267.431145 
L 302.629401 -264.309596 
L 286.433482 -260.390696 
L 270.237564 -255.403005 
L 254.041645 -248.277731 
L 237.845727 -243.714163 
L 221.649809 -232.703919 
L 205.45389 -226.291173 
L 189.257972 -200.657153 
L 173.062054 -181.571599 
L 156.866135 -181.571599 
L 140.670217 -181.537669 
L 124.474298 -181.537669 
L 108.27838 -181.351055 
L 92.082462 -181.351055 
L 75.886543 -181.079616 
L 59.690625 -49.65225 
z
" style="stroke: #c7c7c7; stroke-opacity: 0.2"/>
    </defs>
    <g clip-path="url(#p25982df047)">
     <use xlink:href="#mac59477974" x="0" y="325.986375" style="fill: #c7c7c7; fill-opacity: 0.2; stroke: #c7c7c7; stroke-opacity: 0.2"/>
    </g>
   </g>
   <g id="FillBetweenPolyCollection_4">
    <defs>
     <path id="m0d8880e9cb" d="M 59.690625 -49.65225 
L 59.690625 -49.65225 
L 75.886543 -172.071235 
L 92.082462 -172.206954 
L 108.27838 -172.206954 
L 124.474298 -172.206954 
L 140.670217 -172.206954 
L 156.866135 -172.206954 
L 173.062054 -172.580183 
L 189.257972 -172.580183 
L 205.45389 -172.614113 
L 221.649809 -173.25878 
L 237.845727 -173.25878 
L 254.041645 -173.36057 
L 270.237564 -173.36057 
L 286.433482 -173.36057 
L 302.629401 -173.36057 
L 318.825319 -173.36057 
L 335.021237 -173.36057 
L 351.217156 -173.36057 
L 367.413074 -173.36057 
L 383.608992 -173.36057 
L 399.804911 -173.36057 
L 416.000829 -173.36057 
L 432.196747 -173.36057 
L 448.392666 -173.36057 
L 464.588584 -173.36057 
L 480.784503 -173.3945 
L 496.980421 -173.42843 
L 513.176339 -173.42843 
L 529.372258 -173.42843 
L 545.568176 -173.42843 
L 561.764094 -176.414258 
L 577.960013 -176.414258 
L 594.155931 -210.547711 
L 610.351849 -217.367616 
L 626.547768 -219.437338 
L 642.743686 -226.867981 
L 658.939605 -227.478718 
L 675.135523 -227.614438 
L 691.331441 -232.36462 
L 707.52736 -239.048805 
L 723.723278 -248.040222 
L 739.919196 -248.209871 
L 739.919196 -286.27919 
L 739.919196 -286.27919 
L 723.723278 -286.21133 
L 707.52736 -286.07561 
L 691.331441 -285.702382 
L 675.135523 -285.329153 
L 658.939605 -285.057714 
L 642.743686 -284.888065 
L 626.547768 -283.021922 
L 610.351849 -281.868306 
L 594.155931 -279.153916 
L 577.960013 -279.153916 
L 561.764094 -278.814617 
L 545.568176 -278.746758 
L 529.372258 -277.253843 
L 513.176339 -276.066298 
L 496.980421 -275.082331 
L 480.784503 -274.573383 
L 464.588584 -274.505523 
L 448.392666 -274.268014 
L 432.196747 -273.351908 
L 416.000829 -269.619622 
L 399.804911 -268.669585 
L 383.608992 -268.228497 
L 367.413074 -266.905232 
L 351.217156 -265.785546 
L 335.021237 -264.80158 
L 318.825319 -261.88361 
L 302.629401 -261.238943 
L 286.433482 -255.640514 
L 270.237564 -253.401142 
L 254.041645 -253.333282 
L 237.845727 -249.533136 
L 221.649809 -243.29004 
L 205.45389 -236.639784 
L 189.257972 -219.03018 
L 173.062054 -177.296435 
L 156.866135 -177.296435 
L 140.670217 -177.296435 
L 124.474298 -177.262505 
L 108.27838 -177.160716 
L 92.082462 -177.160716 
L 75.886543 -176.719627 
L 59.690625 -49.65225 
z
" style="stroke: #98df8a; stroke-opacity: 0.2"/>
    </defs>
    <g clip-path="url(#p25982df047)">
     <use xlink:href="#m0d8880e9cb" x="0" y="325.986375" style="fill: #98df8a; fill-opacity: 0.2; stroke: #98df8a; stroke-opacity: 0.2"/>
    </g>
   </g>
   <g id="matplotlib.axis_1">
    <g id="xtick_1">
     <g id="line2d_1">
      <defs>
       <path id="m970ebc957e" d="M 0 0 
L 0 3.5 
" style="stroke: #000000; stroke-width: 0.8"/>
      </defs>
      <g>
       <use xlink:href="#m970ebc957e" x="59.690625" y="288.430125" style="stroke: #000000; stroke-width: 0.8"/>
      </g>
     </g>
     <g id="text_1">
      <!-- 0m -->
      <g transform="translate(51.639063 303.028562) scale(0.1 -0.1)">
       <defs>
        <path id="DejaVuSans-30" d="M 2034 4250 
Q 1547 4250 1301 3770 
Q 1056 3291 1056 2328 
Q 1056 1369 1301 889 
Q 1547 409 2034 409 
Q 2525 409 2770 889 
Q 3016 1369 3016 2328 
Q 3016 3291 2770 3770 
Q 2525 4250 2034 4250 
z
M 2034 4750 
Q 2819 4750 3233 4129 
Q 3647 3509 3647 2328 
Q 3647 1150 3233 529 
Q 2819 -91 2034 -91 
Q 1250 -91 836 529 
Q 422 1150 422 2328 
Q 422 3509 836 4129 
Q 1250 4750 2034 4750 
z
" transform="scale(0.015625)"/>
        <path id="DejaVuSans-6d" d="M 3328 2828 
Q 3544 3216 3844 3400 
Q 4144 3584 4550 3584 
Q 5097 3584 5394 3201 
Q 5691 2819 5691 2113 
L 5691 0 
L 5113 0 
L 5113 2094 
Q 5113 2597 4934 2840 
Q 4756 3084 4391 3084 
Q 3944 3084 3684 2787 
Q 3425 2491 3425 1978 
L 3425 0 
L 2847 0 
L 2847 2094 
Q 2847 2600 2669 2842 
Q 2491 3084 2119 3084 
Q 1678 3084 1418 2786 
Q 1159 2488 1159 1978 
L 1159 0 
L 581 0 
L 581 3500 
L 1159 3500 
L 1159 2956 
Q 1356 3278 1631 3431 
Q 1906 3584 2284 3584 
Q 2666 3584 2933 3390 
Q 3200 3197 3328 2828 
z
" transform="scale(0.015625)"/>
       </defs>
       <use xlink:href="#DejaVuSans-30"/>
       <use xlink:href="#DejaVuSans-6d" transform="translate(63.623047 0)"/>
      </g>
     </g>
    </g>
    <g id="xtick_2">
     <g id="line2d_2">
      <g>
       <use xlink:href="#m970ebc957e" x="116.376339" y="288.430125" style="stroke: #000000; stroke-width: 0.8"/>
      </g>
     </g>
     <g id="text_2">
      <!-- 52m -->
      <g transform="translate(105.143527 303.028562) scale(0.1 -0.1)">
       <defs>
        <path id="DejaVuSans-35" d="M 691 4666 
L 3169 4666 
L 3169 4134 
L 1269 4134 
L 1269 2991 
Q 1406 3038 1543 3061 
Q 1681 3084 1819 3084 
Q 2600 3084 3056 2656 
Q 3513 2228 3513 1497 
Q 3513 744 3044 326 
Q 2575 -91 1722 -91 
Q 1428 -91 1123 -41 
Q 819 9 494 109 
L 494 744 
Q 775 591 1075 516 
Q 1375 441 1709 441 
Q 2250 441 2565 725 
Q 2881 1009 2881 1497 
Q 2881 1984 2565 2268 
Q 2250 2553 1709 2553 
Q 1456 2553 1204 2497 
Q 953 2441 691 2322 
L 691 4666 
z
" transform="scale(0.015625)"/>
        <path id="DejaVuSans-32" d="M 1228 531 
L 3431 531 
L 3431 0 
L 469 0 
L 469 531 
Q 828 903 1448 1529 
Q 2069 2156 2228 2338 
Q 2531 2678 2651 2914 
Q 2772 3150 2772 3378 
Q 2772 3750 2511 3984 
Q 2250 4219 1831 4219 
Q 1534 4219 1204 4116 
Q 875 4013 500 3803 
L 500 4441 
Q 881 4594 1212 4672 
Q 1544 4750 1819 4750 
Q 2544 4750 2975 4387 
Q 3406 4025 3406 3419 
Q 3406 3131 3298 2873 
Q 3191 2616 2906 2266 
Q 2828 2175 2409 1742 
Q 1991 1309 1228 531 
z
" transform="scale(0.015625)"/>
       </defs>
       <use xlink:href="#DejaVuSans-35"/>
       <use xlink:href="#DejaVuSans-32" transform="translate(63.623047 0)"/>
       <use xlink:href="#DejaVuSans-6d" transform="translate(127.246094 0)"/>
      </g>
     </g>
    </g>
    <g id="xtick_3">
     <g id="line2d_3">
      <g>
       <use xlink:href="#m970ebc957e" x="173.062054" y="288.430125" style="stroke: #000000; stroke-width: 0.8"/>
      </g>
     </g>
     <g id="text_3">
      <!-- 1h:45m -->
      <g transform="translate(153.794866 303.028562) scale(0.1 -0.1)">
       <defs>
        <path id="DejaVuSans-31" d="M 794 531 
L 1825 531 
L 1825 4091 
L 703 3866 
L 703 4441 
L 1819 4666 
L 2450 4666 
L 2450 531 
L 3481 531 
L 3481 0 
L 794 0 
L 794 531 
z
" transform="scale(0.015625)"/>
        <path id="DejaVuSans-68" d="M 3513 2113 
L 3513 0 
L 2938 0 
L 2938 2094 
Q 2938 2591 2744 2837 
Q 2550 3084 2163 3084 
Q 1697 3084 1428 2787 
Q 1159 2491 1159 1978 
L 1159 0 
L 581 0 
L 581 4863 
L 1159 4863 
L 1159 2956 
Q 1366 3272 1645 3428 
Q 1925 3584 2291 3584 
Q 2894 3584 3203 3211 
Q 3513 2838 3513 2113 
z
" transform="scale(0.015625)"/>
        <path id="DejaVuSans-3a" d="M 750 794 
L 1409 794 
L 1409 0 
L 750 0 
L 750 794 
z
M 750 3309 
L 1409 3309 
L 1409 2516 
L 750 2516 
L 750 3309 
z
" transform="scale(0.015625)"/>
        <path id="DejaVuSans-34" d="M 2419 4116 
L 825 1625 
L 2419 1625 
L 2419 4116 
z
M 2253 4666 
L 3047 4666 
L 3047 1625 
L 3713 1625 
L 3713 1100 
L 3047 1100 
L 3047 0 
L 2419 0 
L 2419 1100 
L 313 1100 
L 313 1709 
L 2253 4666 
z
" transform="scale(0.015625)"/>
       </defs>
       <use xlink:href="#DejaVuSans-31"/>
       <use xlink:href="#DejaVuSans-68" transform="translate(63.623047 0)"/>
       <use xlink:href="#DejaVuSans-3a" transform="translate(127.001953 0)"/>
       <use xlink:href="#DejaVuSans-34" transform="translate(160.693359 0)"/>
       <use xlink:href="#DejaVuSans-35" transform="translate(224.316406 0)"/>
       <use xlink:href="#DejaVuSans-6d" transform="translate(287.939453 0)"/>
      </g>
     </g>
    </g>
    <g id="xtick_4">
     <g id="line2d_4">
      <g>
       <use xlink:href="#m970ebc957e" x="229.747768" y="288.430125" style="stroke: #000000; stroke-width: 0.8"/>
      </g>
     </g>
     <g id="text_4">
      <!-- 2h:37m -->
      <g transform="translate(210.48058 303.028562) scale(0.1 -0.1)">
       <defs>
        <path id="DejaVuSans-33" d="M 2597 2516 
Q 3050 2419 3304 2112 
Q 3559 1806 3559 1356 
Q 3559 666 3084 287 
Q 2609 -91 1734 -91 
Q 1441 -91 1130 -33 
Q 819 25 488 141 
L 488 750 
Q 750 597 1062 519 
Q 1375 441 1716 441 
Q 2309 441 2620 675 
Q 2931 909 2931 1356 
Q 2931 1769 2642 2001 
Q 2353 2234 1838 2234 
L 1294 2234 
L 1294 2753 
L 1863 2753 
Q 2328 2753 2575 2939 
Q 2822 3125 2822 3475 
Q 2822 3834 2567 4026 
Q 2313 4219 1838 4219 
Q 1578 4219 1281 4162 
Q 984 4106 628 3988 
L 628 4550 
Q 988 4650 1302 4700 
Q 1616 4750 1894 4750 
Q 2613 4750 3031 4423 
Q 3450 4097 3450 3541 
Q 3450 3153 3228 2886 
Q 3006 2619 2597 2516 
z
" transform="scale(0.015625)"/>
        <path id="DejaVuSans-37" d="M 525 4666 
L 3525 4666 
L 3525 4397 
L 1831 0 
L 1172 0 
L 2766 4134 
L 525 4134 
L 525 4666 
z
" transform="scale(0.015625)"/>
       </defs>
       <use xlink:href="#DejaVuSans-32"/>
       <use xlink:href="#DejaVuSans-68" transform="translate(63.623047 0)"/>
       <use xlink:href="#DejaVuSans-3a" transform="translate(127.001953 0)"/>
       <use xlink:href="#DejaVuSans-33" transform="translate(160.693359 0)"/>
       <use xlink:href="#DejaVuSans-37" transform="translate(224.316406 0)"/>
       <use xlink:href="#DejaVuSans-6d" transform="translate(287.939453 0)"/>
      </g>
     </g>
    </g>
    <g id="xtick_5">
     <g id="line2d_5">
      <g>
       <use xlink:href="#m970ebc957e" x="286.433482" y="288.430125" style="stroke: #000000; stroke-width: 0.8"/>
      </g>
     </g>
     <g id="text_5">
      <!-- 3h:30m -->
      <g transform="translate(267.166295 303.028562) scale(0.1 -0.1)">
       <use xlink:href="#DejaVuSans-33"/>
       <use xlink:href="#DejaVuSans-68" transform="translate(63.623047 0)"/>
       <use xlink:href="#DejaVuSans-3a" transform="translate(127.001953 0)"/>
       <use xlink:href="#DejaVuSans-33" transform="translate(160.693359 0)"/>
       <use xlink:href="#DejaVuSans-30" transform="translate(224.316406 0)"/>
       <use xlink:href="#DejaVuSans-6d" transform="translate(287.939453 0)"/>
      </g>
     </g>
    </g>
    <g id="xtick_6">
     <g id="line2d_6">
      <g>
       <use xlink:href="#m970ebc957e" x="343.119196" y="288.430125" style="stroke: #000000; stroke-width: 0.8"/>
      </g>
     </g>
     <g id="text_6">
      <!-- 4h:22m -->
      <g transform="translate(323.852009 303.028562) scale(0.1 -0.1)">
       <use xlink:href="#DejaVuSans-34"/>
       <use xlink:href="#DejaVuSans-68" transform="translate(63.623047 0)"/>
       <use xlink:href="#DejaVuSans-3a" transform="translate(127.001953 0)"/>
       <use xlink:href="#DejaVuSans-32" transform="translate(160.693359 0)"/>
       <use xlink:href="#DejaVuSans-32" transform="translate(224.316406 0)"/>
       <use xlink:href="#DejaVuSans-6d" transform="translate(287.939453 0)"/>
      </g>
     </g>
    </g>
    <g id="xtick_7">
     <g id="line2d_7">
      <g>
       <use xlink:href="#m970ebc957e" x="399.804911" y="288.430125" style="stroke: #000000; stroke-width: 0.8"/>
      </g>
     </g>
     <g id="text_7">
      <!-- 5h:15m -->
      <g transform="translate(380.537723 303.028562) scale(0.1 -0.1)">
       <use xlink:href="#DejaVuSans-35"/>
       <use xlink:href="#DejaVuSans-68" transform="translate(63.623047 0)"/>
       <use xlink:href="#DejaVuSans-3a" transform="translate(127.001953 0)"/>
       <use xlink:href="#DejaVuSans-31" transform="translate(160.693359 0)"/>
       <use xlink:href="#DejaVuSans-35" transform="translate(224.316406 0)"/>
       <use xlink:href="#DejaVuSans-6d" transform="translate(287.939453 0)"/>
      </g>
     </g>
    </g>
    <g id="xtick_8">
     <g id="line2d_8">
      <g>
       <use xlink:href="#m970ebc957e" x="456.490625" y="288.430125" style="stroke: #000000; stroke-width: 0.8"/>
      </g>
     </g>
     <g id="text_8">
      <!-- 6h:7m -->
      <g transform="translate(440.404688 303.028562) scale(0.1 -0.1)">
       <defs>
        <path id="DejaVuSans-36" d="M 2113 2584 
Q 1688 2584 1439 2293 
Q 1191 2003 1191 1497 
Q 1191 994 1439 701 
Q 1688 409 2113 409 
Q 2538 409 2786 701 
Q 3034 994 3034 1497 
Q 3034 2003 2786 2293 
Q 2538 2584 2113 2584 
z
M 3366 4563 
L 3366 3988 
Q 3128 4100 2886 4159 
Q 2644 4219 2406 4219 
Q 1781 4219 1451 3797 
Q 1122 3375 1075 2522 
Q 1259 2794 1537 2939 
Q 1816 3084 2150 3084 
Q 2853 3084 3261 2657 
Q 3669 2231 3669 1497 
Q 3669 778 3244 343 
Q 2819 -91 2113 -91 
Q 1303 -91 875 529 
Q 447 1150 447 2328 
Q 447 3434 972 4092 
Q 1497 4750 2381 4750 
Q 2619 4750 2861 4703 
Q 3103 4656 3366 4563 
z
" transform="scale(0.015625)"/>
       </defs>
       <use xlink:href="#DejaVuSans-36"/>
       <use xlink:href="#DejaVuSans-68" transform="translate(63.623047 0)"/>
       <use xlink:href="#DejaVuSans-3a" transform="translate(127.001953 0)"/>
       <use xlink:href="#DejaVuSans-37" transform="translate(160.693359 0)"/>
       <use xlink:href="#DejaVuSans-6d" transform="translate(224.316406 0)"/>
      </g>
     </g>
    </g>
    <g id="xtick_9">
     <g id="line2d_9">
      <g>
       <use xlink:href="#m970ebc957e" x="513.176339" y="288.430125" style="stroke: #000000; stroke-width: 0.8"/>
      </g>
     </g>
     <g id="text_9">
      <!-- 7h -->
      <g transform="translate(506.826339 303.028562) scale(0.1 -0.1)">
       <use xlink:href="#DejaVuSans-37"/>
       <use xlink:href="#DejaVuSans-68" transform="translate(63.623047 0)"/>
      </g>
     </g>
    </g>
    <g id="xtick_10">
     <g id="line2d_10">
      <g>
       <use xlink:href="#m970ebc957e" x="569.862054" y="288.430125" style="stroke: #000000; stroke-width: 0.8"/>
      </g>
     </g>
     <g id="text_10">
      <!-- 7h:52m -->
      <g transform="translate(550.594866 303.028562) scale(0.1 -0.1)">
       <use xlink:href="#DejaVuSans-37"/>
       <use xlink:href="#DejaVuSans-68" transform="translate(63.623047 0)"/>
       <use xlink:href="#DejaVuSans-3a" transform="translate(127.001953 0)"/>
       <use xlink:href="#DejaVuSans-35" transform="translate(160.693359 0)"/>
       <use xlink:href="#DejaVuSans-32" transform="translate(224.316406 0)"/>
       <use xlink:href="#DejaVuSans-6d" transform="translate(287.939453 0)"/>
      </g>
     </g>
    </g>
    <g id="xtick_11">
     <g id="line2d_11">
      <g>
       <use xlink:href="#m970ebc957e" x="626.547768" y="288.430125" style="stroke: #000000; stroke-width: 0.8"/>
      </g>
     </g>
     <g id="text_11">
      <!-- 8h:45m -->
      <g transform="translate(607.28058 303.028562) scale(0.1 -0.1)">
       <defs>
        <path id="DejaVuSans-38" d="M 2034 2216 
Q 1584 2216 1326 1975 
Q 1069 1734 1069 1313 
Q 1069 891 1326 650 
Q 1584 409 2034 409 
Q 2484 409 2743 651 
Q 3003 894 3003 1313 
Q 3003 1734 2745 1975 
Q 2488 2216 2034 2216 
z
M 1403 2484 
Q 997 2584 770 2862 
Q 544 3141 544 3541 
Q 544 4100 942 4425 
Q 1341 4750 2034 4750 
Q 2731 4750 3128 4425 
Q 3525 4100 3525 3541 
Q 3525 3141 3298 2862 
Q 3072 2584 2669 2484 
Q 3125 2378 3379 2068 
Q 3634 1759 3634 1313 
Q 3634 634 3220 271 
Q 2806 -91 2034 -91 
Q 1263 -91 848 271 
Q 434 634 434 1313 
Q 434 1759 690 2068 
Q 947 2378 1403 2484 
z
M 1172 3481 
Q 1172 3119 1398 2916 
Q 1625 2713 2034 2713 
Q 2441 2713 2670 2916 
Q 2900 3119 2900 3481 
Q 2900 3844 2670 4047 
Q 2441 4250 2034 4250 
Q 1625 4250 1398 4047 
Q 1172 3844 1172 3481 
z
" transform="scale(0.015625)"/>
       </defs>
       <use xlink:href="#DejaVuSans-38"/>
       <use xlink:href="#DejaVuSans-68" transform="translate(63.623047 0)"/>
       <use xlink:href="#DejaVuSans-3a" transform="translate(127.001953 0)"/>
       <use xlink:href="#DejaVuSans-34" transform="translate(160.693359 0)"/>
       <use xlink:href="#DejaVuSans-35" transform="translate(224.316406 0)"/>
       <use xlink:href="#DejaVuSans-6d" transform="translate(287.939453 0)"/>
      </g>
     </g>
    </g>
    <g id="xtick_12">
     <g id="line2d_12">
      <g>
       <use xlink:href="#m970ebc957e" x="683.233482" y="288.430125" style="stroke: #000000; stroke-width: 0.8"/>
      </g>
     </g>
     <g id="text_12">
      <!-- 9h:37m -->
      <g transform="translate(663.966295 303.028562) scale(0.1 -0.1)">
       <defs>
        <path id="DejaVuSans-39" d="M 703 97 
L 703 672 
Q 941 559 1184 500 
Q 1428 441 1663 441 
Q 2288 441 2617 861 
Q 2947 1281 2994 2138 
Q 2813 1869 2534 1725 
Q 2256 1581 1919 1581 
Q 1219 1581 811 2004 
Q 403 2428 403 3163 
Q 403 3881 828 4315 
Q 1253 4750 1959 4750 
Q 2769 4750 3195 4129 
Q 3622 3509 3622 2328 
Q 3622 1225 3098 567 
Q 2575 -91 1691 -91 
Q 1453 -91 1209 -44 
Q 966 3 703 97 
z
M 1959 2075 
Q 2384 2075 2632 2365 
Q 2881 2656 2881 3163 
Q 2881 3666 2632 3958 
Q 2384 4250 1959 4250 
Q 1534 4250 1286 3958 
Q 1038 3666 1038 3163 
Q 1038 2656 1286 2365 
Q 1534 2075 1959 2075 
z
" transform="scale(0.015625)"/>
       </defs>
       <use xlink:href="#DejaVuSans-39"/>
       <use xlink:href="#DejaVuSans-68" transform="translate(63.623047 0)"/>
       <use xlink:href="#DejaVuSans-3a" transform="translate(127.001953 0)"/>
       <use xlink:href="#DejaVuSans-33" transform="translate(160.693359 0)"/>
       <use xlink:href="#DejaVuSans-37" transform="translate(224.316406 0)"/>
       <use xlink:href="#DejaVuSans-6d" transform="translate(287.939453 0)"/>
      </g>
     </g>
    </g>
    <g id="xtick_13">
     <g id="line2d_13">
      <g>
       <use xlink:href="#m970ebc957e" x="739.919196" y="288.430125" style="stroke: #000000; stroke-width: 0.8"/>
      </g>
     </g>
     <g id="text_13">
      <!-- 10h:30m -->
      <g transform="translate(717.470759 303.028562) scale(0.1 -0.1)">
       <use xlink:href="#DejaVuSans-31"/>
       <use xlink:href="#DejaVuSans-30" transform="translate(63.623047 0)"/>
       <use xlink:href="#DejaVuSans-68" transform="translate(127.246094 0)"/>
       <use xlink:href="#DejaVuSans-3a" transform="translate(190.625 0)"/>
       <use xlink:href="#DejaVuSans-33" transform="translate(224.316406 0)"/>
       <use xlink:href="#DejaVuSans-30" transform="translate(287.939453 0)"/>
       <use xlink:href="#DejaVuSans-6d" transform="translate(351.5625 0)"/>
      </g>
     </g>
    </g>
    <g id="text_14">
     <!-- Time (hour:minute) -->
     <g transform="translate(368.403594 316.706687) scale(0.1 -0.1)">
      <defs>
       <path id="DejaVuSans-54" d="M -19 4666 
L 3928 4666 
L 3928 4134 
L 2272 4134 
L 2272 0 
L 1638 0 
L 1638 4134 
L -19 4134 
L -19 4666 
z
" transform="scale(0.015625)"/>
       <path id="DejaVuSans-69" d="M 603 3500 
L 1178 3500 
L 1178 0 
L 603 0 
L 603 3500 
z
M 603 4863 
L 1178 4863 
L 1178 4134 
L 603 4134 
L 603 4863 
z
" transform="scale(0.015625)"/>
       <path id="DejaVuSans-65" d="M 3597 1894 
L 3597 1613 
L 953 1613 
Q 991 1019 1311 708 
Q 1631 397 2203 397 
Q 2534 397 2845 478 
Q 3156 559 3463 722 
L 3463 178 
Q 3153 47 2828 -22 
Q 2503 -91 2169 -91 
Q 1331 -91 842 396 
Q 353 884 353 1716 
Q 353 2575 817 3079 
Q 1281 3584 2069 3584 
Q 2775 3584 3186 3129 
Q 3597 2675 3597 1894 
z
M 3022 2063 
Q 3016 2534 2758 2815 
Q 2500 3097 2075 3097 
Q 1594 3097 1305 2825 
Q 1016 2553 972 2059 
L 3022 2063 
z
" transform="scale(0.015625)"/>
       <path id="DejaVuSans-20" transform="scale(0.015625)"/>
       <path id="DejaVuSans-28" d="M 1984 4856 
Q 1566 4138 1362 3434 
Q 1159 2731 1159 2009 
Q 1159 1288 1364 580 
Q 1569 -128 1984 -844 
L 1484 -844 
Q 1016 -109 783 600 
Q 550 1309 550 2009 
Q 550 2706 781 3412 
Q 1013 4119 1484 4856 
L 1984 4856 
z
" transform="scale(0.015625)"/>
       <path id="DejaVuSans-6f" d="M 1959 3097 
Q 1497 3097 1228 2736 
Q 959 2375 959 1747 
Q 959 1119 1226 758 
Q 1494 397 1959 397 
Q 2419 397 2687 759 
Q 2956 1122 2956 1747 
Q 2956 2369 2687 2733 
Q 2419 3097 1959 3097 
z
M 1959 3584 
Q 2709 3584 3137 3096 
Q 3566 2609 3566 1747 
Q 3566 888 3137 398 
Q 2709 -91 1959 -91 
Q 1206 -91 779 398 
Q 353 888 353 1747 
Q 353 2609 779 3096 
Q 1206 3584 1959 3584 
z
" transform="scale(0.015625)"/>
       <path id="DejaVuSans-75" d="M 544 1381 
L 544 3500 
L 1119 3500 
L 1119 1403 
Q 1119 906 1312 657 
Q 1506 409 1894 409 
Q 2359 409 2629 706 
Q 2900 1003 2900 1516 
L 2900 3500 
L 3475 3500 
L 3475 0 
L 2900 0 
L 2900 538 
Q 2691 219 2414 64 
Q 2138 -91 1772 -91 
Q 1169 -91 856 284 
Q 544 659 544 1381 
z
M 1991 3584 
L 1991 3584 
z
" transform="scale(0.015625)"/>
       <path id="DejaVuSans-72" d="M 2631 2963 
Q 2534 3019 2420 3045 
Q 2306 3072 2169 3072 
Q 1681 3072 1420 2755 
Q 1159 2438 1159 1844 
L 1159 0 
L 581 0 
L 581 3500 
L 1159 3500 
L 1159 2956 
Q 1341 3275 1631 3429 
Q 1922 3584 2338 3584 
Q 2397 3584 2469 3576 
Q 2541 3569 2628 3553 
L 2631 2963 
z
" transform="scale(0.015625)"/>
       <path id="DejaVuSans-6e" d="M 3513 2113 
L 3513 0 
L 2938 0 
L 2938 2094 
Q 2938 2591 2744 2837 
Q 2550 3084 2163 3084 
Q 1697 3084 1428 2787 
Q 1159 2491 1159 1978 
L 1159 0 
L 581 0 
L 581 3500 
L 1159 3500 
L 1159 2956 
Q 1366 3272 1645 3428 
Q 1925 3584 2291 3584 
Q 2894 3584 3203 3211 
Q 3513 2838 3513 2113 
z
" transform="scale(0.015625)"/>
       <path id="DejaVuSans-74" d="M 1172 4494 
L 1172 3500 
L 2356 3500 
L 2356 3053 
L 1172 3053 
L 1172 1153 
Q 1172 725 1289 603 
Q 1406 481 1766 481 
L 2356 481 
L 2356 0 
L 1766 0 
Q 1100 0 847 248 
Q 594 497 594 1153 
L 594 3053 
L 172 3053 
L 172 3500 
L 594 3500 
L 594 4494 
L 1172 4494 
z
" transform="scale(0.015625)"/>
       <path id="DejaVuSans-29" d="M 513 4856 
L 1013 4856 
Q 1481 4119 1714 3412 
Q 1947 2706 1947 2009 
Q 1947 1309 1714 600 
Q 1481 -109 1013 -844 
L 513 -844 
Q 928 -128 1133 580 
Q 1338 1288 1338 2009 
Q 1338 2731 1133 3434 
Q 928 4138 513 4856 
z
" transform="scale(0.015625)"/>
      </defs>
      <use xlink:href="#DejaVuSans-54"/>
      <use xlink:href="#DejaVuSans-69" transform="translate(57.958984 0)"/>
      <use xlink:href="#DejaVuSans-6d" transform="translate(85.742188 0)"/>
      <use xlink:href="#DejaVuSans-65" transform="translate(183.154297 0)"/>
      <use xlink:href="#DejaVuSans-20" transform="translate(244.677734 0)"/>
      <use xlink:href="#DejaVuSans-28" transform="translate(276.464844 0)"/>
      <use xlink:href="#DejaVuSans-68" transform="translate(315.478516 0)"/>
      <use xlink:href="#DejaVuSans-6f" transform="translate(378.857422 0)"/>
      <use xlink:href="#DejaVuSans-75" transform="translate(440.039062 0)"/>
      <use xlink:href="#DejaVuSans-72" transform="translate(503.417969 0)"/>
      <use xlink:href="#DejaVuSans-3a" transform="translate(542.78125 0)"/>
      <use xlink:href="#DejaVuSans-6d" transform="translate(576.472656 0)"/>
      <use xlink:href="#DejaVuSans-69" transform="translate(673.884766 0)"/>
      <use xlink:href="#DejaVuSans-6e" transform="translate(701.667969 0)"/>
      <use xlink:href="#DejaVuSans-75" transform="translate(765.046875 0)"/>
      <use xlink:href="#DejaVuSans-74" transform="translate(828.425781 0)"/>
      <use xlink:href="#DejaVuSans-65" transform="translate(867.634766 0)"/>
      <use xlink:href="#DejaVuSans-29" transform="translate(929.158203 0)"/>
     </g>
    </g>
   </g>
   <g id="matplotlib.axis_2">
    <g id="ytick_1">
     <g id="line2d_14">
      <defs>
       <path id="m6c12e99966" d="M 0 0 
L -3.5 0 
" style="stroke: #000000; stroke-width: 0.8"/>
      </defs>
      <g>
       <use xlink:href="#m6c12e99966" x="59.690625" y="261.269261" style="stroke: #000000; stroke-width: 0.8"/>
      </g>
     </g>
     <g id="text_15">
      <!-- 9000 -->
      <g transform="translate(27.240625 265.06848) scale(0.1 -0.1)">
       <use xlink:href="#DejaVuSans-39"/>
       <use xlink:href="#DejaVuSans-30" transform="translate(63.623047 0)"/>
       <use xlink:href="#DejaVuSans-30" transform="translate(127.246094 0)"/>
       <use xlink:href="#DejaVuSans-30" transform="translate(190.869141 0)"/>
      </g>
     </g>
    </g>
    <g id="ytick_2">
     <g id="line2d_15">
      <g>
       <use xlink:href="#m6c12e99966" x="59.690625" y="227.339387" style="stroke: #000000; stroke-width: 0.8"/>
      </g>
     </g>
     <g id="text_16">
      <!-- 10000 -->
      <g transform="translate(20.878125 231.138606) scale(0.1 -0.1)">
       <use xlink:href="#DejaVuSans-31"/>
       <use xlink:href="#DejaVuSans-30" transform="translate(63.623047 0)"/>
       <use xlink:href="#DejaVuSans-30" transform="translate(127.246094 0)"/>
       <use xlink:href="#DejaVuSans-30" transform="translate(190.869141 0)"/>
       <use xlink:href="#DejaVuSans-30" transform="translate(254.492188 0)"/>
      </g>
     </g>
    </g>
    <g id="ytick_3">
     <g id="line2d_16">
      <g>
       <use xlink:href="#m6c12e99966" x="59.690625" y="193.409513" style="stroke: #000000; stroke-width: 0.8"/>
      </g>
     </g>
     <g id="text_17">
      <!-- 11000 -->
      <g transform="translate(20.878125 197.208732) scale(0.1 -0.1)">
       <use xlink:href="#DejaVuSans-31"/>
       <use xlink:href="#DejaVuSans-31" transform="translate(63.623047 0)"/>
       <use xlink:href="#DejaVuSans-30" transform="translate(127.246094 0)"/>
       <use xlink:href="#DejaVuSans-30" transform="translate(190.869141 0)"/>
       <use xlink:href="#DejaVuSans-30" transform="translate(254.492188 0)"/>
      </g>
     </g>
    </g>
    <g id="ytick_4">
     <g id="line2d_17">
      <g>
       <use xlink:href="#m6c12e99966" x="59.690625" y="159.47964" style="stroke: #000000; stroke-width: 0.8"/>
      </g>
     </g>
     <g id="text_18">
      <!-- 12000 -->
      <g transform="translate(20.878125 163.278858) scale(0.1 -0.1)">
       <use xlink:href="#DejaVuSans-31"/>
       <use xlink:href="#DejaVuSans-32" transform="translate(63.623047 0)"/>
       <use xlink:href="#DejaVuSans-30" transform="translate(127.246094 0)"/>
       <use xlink:href="#DejaVuSans-30" transform="translate(190.869141 0)"/>
       <use xlink:href="#DejaVuSans-30" transform="translate(254.492188 0)"/>
      </g>
     </g>
    </g>
    <g id="ytick_5">
     <g id="line2d_18">
      <g>
       <use xlink:href="#m6c12e99966" x="59.690625" y="125.549766" style="stroke: #000000; stroke-width: 0.8"/>
      </g>
     </g>
     <g id="text_19">
      <!-- 13000 -->
      <g transform="translate(20.878125 129.348985) scale(0.1 -0.1)">
       <use xlink:href="#DejaVuSans-31"/>
       <use xlink:href="#DejaVuSans-33" transform="translate(63.623047 0)"/>
       <use xlink:href="#DejaVuSans-30" transform="translate(127.246094 0)"/>
       <use xlink:href="#DejaVuSans-30" transform="translate(190.869141 0)"/>
       <use xlink:href="#DejaVuSans-30" transform="translate(254.492188 0)"/>
      </g>
     </g>
    </g>
    <g id="ytick_6">
     <g id="line2d_19">
      <g>
       <use xlink:href="#m6c12e99966" x="59.690625" y="91.619892" style="stroke: #000000; stroke-width: 0.8"/>
      </g>
     </g>
     <g id="text_20">
      <!-- 14000 -->
      <g transform="translate(20.878125 95.419111) scale(0.1 -0.1)">
       <use xlink:href="#DejaVuSans-31"/>
       <use xlink:href="#DejaVuSans-34" transform="translate(63.623047 0)"/>
       <use xlink:href="#DejaVuSans-30" transform="translate(127.246094 0)"/>
       <use xlink:href="#DejaVuSans-30" transform="translate(190.869141 0)"/>
       <use xlink:href="#DejaVuSans-30" transform="translate(254.492188 0)"/>
      </g>
     </g>
    </g>
    <g id="ytick_7">
     <g id="line2d_20">
      <g>
       <use xlink:href="#m6c12e99966" x="59.690625" y="57.690018" style="stroke: #000000; stroke-width: 0.8"/>
      </g>
     </g>
     <g id="text_21">
      <!-- 15000 -->
      <g transform="translate(20.878125 61.489237) scale(0.1 -0.1)">
       <use xlink:href="#DejaVuSans-31"/>
       <use xlink:href="#DejaVuSans-35" transform="translate(63.623047 0)"/>
       <use xlink:href="#DejaVuSans-30" transform="translate(127.246094 0)"/>
       <use xlink:href="#DejaVuSans-30" transform="translate(190.869141 0)"/>
       <use xlink:href="#DejaVuSans-30" transform="translate(254.492188 0)"/>
      </g>
     </g>
    </g>
    <g id="ytick_8">
     <g id="line2d_21">
      <g>
       <use xlink:href="#m6c12e99966" x="59.690625" y="23.760145" style="stroke: #000000; stroke-width: 0.8"/>
      </g>
     </g>
     <g id="text_22">
      <!-- 16000 -->
      <g transform="translate(20.878125 27.559363) scale(0.1 -0.1)">
       <use xlink:href="#DejaVuSans-31"/>
       <use xlink:href="#DejaVuSans-36" transform="translate(63.623047 0)"/>
       <use xlink:href="#DejaVuSans-30" transform="translate(127.246094 0)"/>
       <use xlink:href="#DejaVuSans-30" transform="translate(190.869141 0)"/>
       <use xlink:href="#DejaVuSans-30" transform="translate(254.492188 0)"/>
      </g>
     </g>
    </g>
    <g id="text_23">
     <!-- Code branch coverage -->
     <g transform="translate(14.798438 211.949125) rotate(-90) scale(0.1 -0.1)">
      <defs>
       <path id="DejaVuSans-43" d="M 4122 4306 
L 4122 3641 
Q 3803 3938 3442 4084 
Q 3081 4231 2675 4231 
Q 1875 4231 1450 3742 
Q 1025 3253 1025 2328 
Q 1025 1406 1450 917 
Q 1875 428 2675 428 
Q 3081 428 3442 575 
Q 3803 722 4122 1019 
L 4122 359 
Q 3791 134 3420 21 
Q 3050 -91 2638 -91 
Q 1578 -91 968 557 
Q 359 1206 359 2328 
Q 359 3453 968 4101 
Q 1578 4750 2638 4750 
Q 3056 4750 3426 4639 
Q 3797 4528 4122 4306 
z
" transform="scale(0.015625)"/>
       <path id="DejaVuSans-64" d="M 2906 2969 
L 2906 4863 
L 3481 4863 
L 3481 0 
L 2906 0 
L 2906 525 
Q 2725 213 2448 61 
Q 2172 -91 1784 -91 
Q 1150 -91 751 415 
Q 353 922 353 1747 
Q 353 2572 751 3078 
Q 1150 3584 1784 3584 
Q 2172 3584 2448 3432 
Q 2725 3281 2906 2969 
z
M 947 1747 
Q 947 1113 1208 752 
Q 1469 391 1925 391 
Q 2381 391 2643 752 
Q 2906 1113 2906 1747 
Q 2906 2381 2643 2742 
Q 2381 3103 1925 3103 
Q 1469 3103 1208 2742 
Q 947 2381 947 1747 
z
" transform="scale(0.015625)"/>
       <path id="DejaVuSans-62" d="M 3116 1747 
Q 3116 2381 2855 2742 
Q 2594 3103 2138 3103 
Q 1681 3103 1420 2742 
Q 1159 2381 1159 1747 
Q 1159 1113 1420 752 
Q 1681 391 2138 391 
Q 2594 391 2855 752 
Q 3116 1113 3116 1747 
z
M 1159 2969 
Q 1341 3281 1617 3432 
Q 1894 3584 2278 3584 
Q 2916 3584 3314 3078 
Q 3713 2572 3713 1747 
Q 3713 922 3314 415 
Q 2916 -91 2278 -91 
Q 1894 -91 1617 61 
Q 1341 213 1159 525 
L 1159 0 
L 581 0 
L 581 4863 
L 1159 4863 
L 1159 2969 
z
" transform="scale(0.015625)"/>
       <path id="DejaVuSans-61" d="M 2194 1759 
Q 1497 1759 1228 1600 
Q 959 1441 959 1056 
Q 959 750 1161 570 
Q 1363 391 1709 391 
Q 2188 391 2477 730 
Q 2766 1069 2766 1631 
L 2766 1759 
L 2194 1759 
z
M 3341 1997 
L 3341 0 
L 2766 0 
L 2766 531 
Q 2569 213 2275 61 
Q 1981 -91 1556 -91 
Q 1019 -91 701 211 
Q 384 513 384 1019 
Q 384 1609 779 1909 
Q 1175 2209 1959 2209 
L 2766 2209 
L 2766 2266 
Q 2766 2663 2505 2880 
Q 2244 3097 1772 3097 
Q 1472 3097 1187 3025 
Q 903 2953 641 2809 
L 641 3341 
Q 956 3463 1253 3523 
Q 1550 3584 1831 3584 
Q 2591 3584 2966 3190 
Q 3341 2797 3341 1997 
z
" transform="scale(0.015625)"/>
       <path id="DejaVuSans-63" d="M 3122 3366 
L 3122 2828 
Q 2878 2963 2633 3030 
Q 2388 3097 2138 3097 
Q 1578 3097 1268 2742 
Q 959 2388 959 1747 
Q 959 1106 1268 751 
Q 1578 397 2138 397 
Q 2388 397 2633 464 
Q 2878 531 3122 666 
L 3122 134 
Q 2881 22 2623 -34 
Q 2366 -91 2075 -91 
Q 1284 -91 818 406 
Q 353 903 353 1747 
Q 353 2603 823 3093 
Q 1294 3584 2113 3584 
Q 2378 3584 2631 3529 
Q 2884 3475 3122 3366 
z
" transform="scale(0.015625)"/>
       <path id="DejaVuSans-76" d="M 191 3500 
L 800 3500 
L 1894 563 
L 2988 3500 
L 3597 3500 
L 2284 0 
L 1503 0 
L 191 3500 
z
" transform="scale(0.015625)"/>
       <path id="DejaVuSans-67" d="M 2906 1791 
Q 2906 2416 2648 2759 
Q 2391 3103 1925 3103 
Q 1463 3103 1205 2759 
Q 947 2416 947 1791 
Q 947 1169 1205 825 
Q 1463 481 1925 481 
Q 2391 481 2648 825 
Q 2906 1169 2906 1791 
z
M 3481 434 
Q 3481 -459 3084 -895 
Q 2688 -1331 1869 -1331 
Q 1566 -1331 1297 -1286 
Q 1028 -1241 775 -1147 
L 775 -588 
Q 1028 -725 1275 -790 
Q 1522 -856 1778 -856 
Q 2344 -856 2625 -561 
Q 2906 -266 2906 331 
L 2906 616 
Q 2728 306 2450 153 
Q 2172 0 1784 0 
Q 1141 0 747 490 
Q 353 981 353 1791 
Q 353 2603 747 3093 
Q 1141 3584 1784 3584 
Q 2172 3584 2450 3431 
Q 2728 3278 2906 2969 
L 2906 3500 
L 3481 3500 
L 3481 434 
z
" transform="scale(0.015625)"/>
      </defs>
      <use xlink:href="#DejaVuSans-43"/>
      <use xlink:href="#DejaVuSans-6f" transform="translate(69.824219 0)"/>
      <use xlink:href="#DejaVuSans-64" transform="translate(131.005859 0)"/>
      <use xlink:href="#DejaVuSans-65" transform="translate(194.482422 0)"/>
      <use xlink:href="#DejaVuSans-20" transform="translate(256.005859 0)"/>
      <use xlink:href="#DejaVuSans-62" transform="translate(287.792969 0)"/>
      <use xlink:href="#DejaVuSans-72" transform="translate(351.269531 0)"/>
      <use xlink:href="#DejaVuSans-61" transform="translate(392.382812 0)"/>
      <use xlink:href="#DejaVuSans-6e" transform="translate(453.662109 0)"/>
      <use xlink:href="#DejaVuSans-63" transform="translate(517.041016 0)"/>
      <use xlink:href="#DejaVuSans-68" transform="translate(572.021484 0)"/>
      <use xlink:href="#DejaVuSans-20" transform="translate(635.400391 0)"/>
      <use xlink:href="#DejaVuSans-63" transform="translate(667.1875 0)"/>
      <use xlink:href="#DejaVuSans-6f" transform="translate(722.167969 0)"/>
      <use xlink:href="#DejaVuSans-76" transform="translate(783.349609 0)"/>
      <use xlink:href="#DejaVuSans-65" transform="translate(842.529297 0)"/>
      <use xlink:href="#DejaVuSans-72" transform="translate(904.052734 0)"/>
      <use xlink:href="#DejaVuSans-61" transform="translate(945.166016 0)"/>
      <use xlink:href="#DejaVuSans-67" transform="translate(1006.445312 0)"/>
      <use xlink:href="#DejaVuSans-65" transform="translate(1069.921875 0)"/>
     </g>
    </g>
   </g>
   <g id="line2d_22">
    <path d="M 59.690625 276.334125 
L 75.886543 151.30254 
L 92.082462 151.26861 
L 108.27838 151.26861 
L 124.474298 151.132891 
L 140.670217 122.903236 
L 156.866135 122.903236 
L 173.062054 122.903236 
L 189.257972 122.903236 
L 205.45389 122.903236 
L 221.649809 122.903236 
L 237.845727 122.903236 
L 254.041645 122.903236 
L 270.237564 122.903236 
L 286.433482 122.903236 
L 302.629401 100.950607 
L 318.825319 97.65941 
L 335.021237 96.098636 
L 351.217156 90.126978 
L 367.413074 82.017738 
L 383.608992 79.099769 
L 399.804911 68.377929 
L 416.000829 67.733261 
L 432.196747 61.659814 
L 448.392666 54.432751 
L 464.588584 53.957732 
L 480.784503 52.871976 
L 496.980421 52.736257 
L 513.176339 52.193379 
L 529.372258 50.734394 
L 545.568176 49.954007 
L 561.764094 47.239617 
L 577.960013 45.712773 
L 594.155931 44.796666 
L 610.351849 42.896593 
L 626.547768 42.251926 
L 642.743686 41.16617 
L 658.939605 41.03045 
L 675.135523 40.691152 
L 691.331441 39.978624 
L 707.52736 39.978624 
L 723.723278 39.707185 
L 739.919196 39.435746 
" clip-path="url(#p25982df047)" style="fill: none; stroke: #d62728; stroke-width: 1.5; stroke-linecap: square"/>
    <defs>
     <path id="m87dac842c7" d="M 0 -3 
L -3 3 
L 3 3 
z
" style="stroke: #ffffff; stroke-width: 0.75; stroke-linejoin: miter"/>
    </defs>
    <g clip-path="url(#p25982df047)">
     <use xlink:href="#m87dac842c7" x="59.690625" y="276.334125" style="fill: #d62728; stroke: #ffffff; stroke-width: 0.75; stroke-linejoin: miter"/>
     <use xlink:href="#m87dac842c7" x="75.886543" y="151.30254" style="fill: #d62728; stroke: #ffffff; stroke-width: 0.75; stroke-linejoin: miter"/>
     <use xlink:href="#m87dac842c7" x="92.082462" y="151.26861" style="fill: #d62728; stroke: #ffffff; stroke-width: 0.75; stroke-linejoin: miter"/>
     <use xlink:href="#m87dac842c7" x="108.27838" y="151.26861" style="fill: #d62728; stroke: #ffffff; stroke-width: 0.75; stroke-linejoin: miter"/>
     <use xlink:href="#m87dac842c7" x="124.474298" y="151.132891" style="fill: #d62728; stroke: #ffffff; stroke-width: 0.75; stroke-linejoin: miter"/>
     <use xlink:href="#m87dac842c7" x="140.670217" y="122.903236" style="fill: #d62728; stroke: #ffffff; stroke-width: 0.75; stroke-linejoin: miter"/>
     <use xlink:href="#m87dac842c7" x="156.866135" y="122.903236" style="fill: #d62728; stroke: #ffffff; stroke-width: 0.75; stroke-linejoin: miter"/>
     <use xlink:href="#m87dac842c7" x="173.062054" y="122.903236" style="fill: #d62728; stroke: #ffffff; stroke-width: 0.75; stroke-linejoin: miter"/>
     <use xlink:href="#m87dac842c7" x="189.257972" y="122.903236" style="fill: #d62728; stroke: #ffffff; stroke-width: 0.75; stroke-linejoin: miter"/>
     <use xlink:href="#m87dac842c7" x="205.45389" y="122.903236" style="fill: #d62728; stroke: #ffffff; stroke-width: 0.75; stroke-linejoin: miter"/>
     <use xlink:href="#m87dac842c7" x="221.649809" y="122.903236" style="fill: #d62728; stroke: #ffffff; stroke-width: 0.75; stroke-linejoin: miter"/>
     <use xlink:href="#m87dac842c7" x="237.845727" y="122.903236" style="fill: #d62728; stroke: #ffffff; stroke-width: 0.75; stroke-linejoin: miter"/>
     <use xlink:href="#m87dac842c7" x="254.041645" y="122.903236" style="fill: #d62728; stroke: #ffffff; stroke-width: 0.75; stroke-linejoin: miter"/>
     <use xlink:href="#m87dac842c7" x="270.237564" y="122.903236" style="fill: #d62728; stroke: #ffffff; stroke-width: 0.75; stroke-linejoin: miter"/>
     <use xlink:href="#m87dac842c7" x="286.433482" y="122.903236" style="fill: #d62728; stroke: #ffffff; stroke-width: 0.75; stroke-linejoin: miter"/>
     <use xlink:href="#m87dac842c7" x="302.629401" y="100.950607" style="fill: #d62728; stroke: #ffffff; stroke-width: 0.75; stroke-linejoin: miter"/>
     <use xlink:href="#m87dac842c7" x="318.825319" y="97.65941" style="fill: #d62728; stroke: #ffffff; stroke-width: 0.75; stroke-linejoin: miter"/>
     <use xlink:href="#m87dac842c7" x="335.021237" y="96.098636" style="fill: #d62728; stroke: #ffffff; stroke-width: 0.75; stroke-linejoin: miter"/>
     <use xlink:href="#m87dac842c7" x="351.217156" y="90.126978" style="fill: #d62728; stroke: #ffffff; stroke-width: 0.75; stroke-linejoin: miter"/>
     <use xlink:href="#m87dac842c7" x="367.413074" y="82.017738" style="fill: #d62728; stroke: #ffffff; stroke-width: 0.75; stroke-linejoin: miter"/>
     <use xlink:href="#m87dac842c7" x="383.608992" y="79.099769" style="fill: #d62728; stroke: #ffffff; stroke-width: 0.75; stroke-linejoin: miter"/>
     <use xlink:href="#m87dac842c7" x="399.804911" y="68.377929" style="fill: #d62728; stroke: #ffffff; stroke-width: 0.75; stroke-linejoin: miter"/>
     <use xlink:href="#m87dac842c7" x="416.000829" y="67.733261" style="fill: #d62728; stroke: #ffffff; stroke-width: 0.75; stroke-linejoin: miter"/>
     <use xlink:href="#m87dac842c7" x="432.196747" y="61.659814" style="fill: #d62728; stroke: #ffffff; stroke-width: 0.75; stroke-linejoin: miter"/>
     <use xlink:href="#m87dac842c7" x="448.392666" y="54.432751" style="fill: #d62728; stroke: #ffffff; stroke-width: 0.75; stroke-linejoin: miter"/>
     <use xlink:href="#m87dac842c7" x="464.588584" y="53.957732" style="fill: #d62728; stroke: #ffffff; stroke-width: 0.75; stroke-linejoin: miter"/>
     <use xlink:href="#m87dac842c7" x="480.784503" y="52.871976" style="fill: #d62728; stroke: #ffffff; stroke-width: 0.75; stroke-linejoin: miter"/>
     <use xlink:href="#m87dac842c7" x="496.980421" y="52.736257" style="fill: #d62728; stroke: #ffffff; stroke-width: 0.75; stroke-linejoin: miter"/>
     <use xlink:href="#m87dac842c7" x="513.176339" y="52.193379" style="fill: #d62728; stroke: #ffffff; stroke-width: 0.75; stroke-linejoin: miter"/>
     <use xlink:href="#m87dac842c7" x="529.372258" y="50.734394" style="fill: #d62728; stroke: #ffffff; stroke-width: 0.75; stroke-linejoin: miter"/>
     <use xlink:href="#m87dac842c7" x="545.568176" y="49.954007" style="fill: #d62728; stroke: #ffffff; stroke-width: 0.75; stroke-linejoin: miter"/>
     <use xlink:href="#m87dac842c7" x="561.764094" y="47.239617" style="fill: #d62728; stroke: #ffffff; stroke-width: 0.75; stroke-linejoin: miter"/>
     <use xlink:href="#m87dac842c7" x="577.960013" y="45.712773" style="fill: #d62728; stroke: #ffffff; stroke-width: 0.75; stroke-linejoin: miter"/>
     <use xlink:href="#m87dac842c7" x="594.155931" y="44.796666" style="fill: #d62728; stroke: #ffffff; stroke-width: 0.75; stroke-linejoin: miter"/>
     <use xlink:href="#m87dac842c7" x="610.351849" y="42.896593" style="fill: #d62728; stroke: #ffffff; stroke-width: 0.75; stroke-linejoin: miter"/>
     <use xlink:href="#m87dac842c7" x="626.547768" y="42.251926" style="fill: #d62728; stroke: #ffffff; stroke-width: 0.75; stroke-linejoin: miter"/>
     <use xlink:href="#m87dac842c7" x="642.743686" y="41.16617" style="fill: #d62728; stroke: #ffffff; stroke-width: 0.75; stroke-linejoin: miter"/>
     <use xlink:href="#m87dac842c7" x="658.939605" y="41.03045" style="fill: #d62728; stroke: #ffffff; stroke-width: 0.75; stroke-linejoin: miter"/>
     <use xlink:href="#m87dac842c7" x="675.135523" y="40.691152" style="fill: #d62728; stroke: #ffffff; stroke-width: 0.75; stroke-linejoin: miter"/>
     <use xlink:href="#m87dac842c7" x="691.331441" y="39.978624" style="fill: #d62728; stroke: #ffffff; stroke-width: 0.75; stroke-linejoin: miter"/>
     <use xlink:href="#m87dac842c7" x="707.52736" y="39.978624" style="fill: #d62728; stroke: #ffffff; stroke-width: 0.75; stroke-linejoin: miter"/>
     <use xlink:href="#m87dac842c7" x="723.723278" y="39.707185" style="fill: #d62728; stroke: #ffffff; stroke-width: 0.75; stroke-linejoin: miter"/>
     <use xlink:href="#m87dac842c7" x="739.919196" y="39.435746" style="fill: #d62728; stroke: #ffffff; stroke-width: 0.75; stroke-linejoin: miter"/>
    </g>
   </g>
   <g id="line2d_23">
    <path d="M 59.690625 276.334125 
L 75.886543 150.114995 
L 92.082462 150.081065 
L 108.27838 150.081065 
L 124.474298 150.081065 
L 140.670217 150.081065 
L 156.866135 150.013205 
L 173.062054 148.859589 
L 189.257972 148.859589 
L 205.45389 148.859589 
L 221.649809 148.791729 
L 237.845727 148.791729 
L 254.041645 148.248852 
L 270.237564 125.176537 
L 286.433482 98.643376 
L 302.629401 90.703786 
L 318.825319 76.487168 
L 335.021237 70.108352 
L 351.217156 65.086731 
L 367.413074 65.052801 
L 383.608992 63.458097 
L 399.804911 57.418579 
L 416.000829 52.905906 
L 432.196747 52.057659 
L 448.392666 51.243342 
L 464.588584 51.039763 
L 480.784503 50.259376 
L 496.980421 49.614708 
L 513.176339 49.377199 
L 529.372258 48.732532 
L 545.568176 48.291443 
L 561.764094 48.257513 
L 577.960013 47.918215 
L 594.155931 47.171758 
L 610.351849 46.798529 
L 626.547768 45.916352 
L 642.743686 45.102035 
L 658.939605 44.593087 
L 675.135523 44.118069 
L 691.331441 44.118069 
L 707.52736 43.507331 
L 723.723278 42.998383 
L 739.919196 41.26796 
" clip-path="url(#p25982df047)" style="fill: none; stroke: #1f77b4; stroke-width: 1.5; stroke-linecap: square"/>
    <defs>
     <path id="md2b2dab3d8" d="M 0 3 
C 0.795609 3 1.55874 2.683901 2.12132 2.12132 
C 2.683901 1.55874 3 0.795609 3 0 
C 3 -0.795609 2.683901 -1.55874 2.12132 -2.12132 
C 1.55874 -2.683901 0.795609 -3 0 -3 
C -0.795609 -3 -1.55874 -2.683901 -2.12132 -2.12132 
C -2.683901 -1.55874 -3 -0.795609 -3 0 
C -3 0.795609 -2.683901 1.55874 -2.12132 2.12132 
C -1.55874 2.683901 -0.795609 3 0 3 
z
" style="stroke: #ffffff; stroke-width: 0.75"/>
    </defs>
    <g clip-path="url(#p25982df047)">
     <use xlink:href="#md2b2dab3d8" x="59.690625" y="276.334125" style="fill: #1f77b4; stroke: #ffffff; stroke-width: 0.75"/>
     <use xlink:href="#md2b2dab3d8" x="75.886543" y="150.114995" style="fill: #1f77b4; stroke: #ffffff; stroke-width: 0.75"/>
     <use xlink:href="#md2b2dab3d8" x="92.082462" y="150.081065" style="fill: #1f77b4; stroke: #ffffff; stroke-width: 0.75"/>
     <use xlink:href="#md2b2dab3d8" x="108.27838" y="150.081065" style="fill: #1f77b4; stroke: #ffffff; stroke-width: 0.75"/>
     <use xlink:href="#md2b2dab3d8" x="124.474298" y="150.081065" style="fill: #1f77b4; stroke: #ffffff; stroke-width: 0.75"/>
     <use xlink:href="#md2b2dab3d8" x="140.670217" y="150.081065" style="fill: #1f77b4; stroke: #ffffff; stroke-width: 0.75"/>
     <use xlink:href="#md2b2dab3d8" x="156.866135" y="150.013205" style="fill: #1f77b4; stroke: #ffffff; stroke-width: 0.75"/>
     <use xlink:href="#md2b2dab3d8" x="173.062054" y="148.859589" style="fill: #1f77b4; stroke: #ffffff; stroke-width: 0.75"/>
     <use xlink:href="#md2b2dab3d8" x="189.257972" y="148.859589" style="fill: #1f77b4; stroke: #ffffff; stroke-width: 0.75"/>
     <use xlink:href="#md2b2dab3d8" x="205.45389" y="148.859589" style="fill: #1f77b4; stroke: #ffffff; stroke-width: 0.75"/>
     <use xlink:href="#md2b2dab3d8" x="221.649809" y="148.791729" style="fill: #1f77b4; stroke: #ffffff; stroke-width: 0.75"/>
     <use xlink:href="#md2b2dab3d8" x="237.845727" y="148.791729" style="fill: #1f77b4; stroke: #ffffff; stroke-width: 0.75"/>
     <use xlink:href="#md2b2dab3d8" x="254.041645" y="148.248852" style="fill: #1f77b4; stroke: #ffffff; stroke-width: 0.75"/>
     <use xlink:href="#md2b2dab3d8" x="270.237564" y="125.176537" style="fill: #1f77b4; stroke: #ffffff; stroke-width: 0.75"/>
     <use xlink:href="#md2b2dab3d8" x="286.433482" y="98.643376" style="fill: #1f77b4; stroke: #ffffff; stroke-width: 0.75"/>
     <use xlink:href="#md2b2dab3d8" x="302.629401" y="90.703786" style="fill: #1f77b4; stroke: #ffffff; stroke-width: 0.75"/>
     <use xlink:href="#md2b2dab3d8" x="318.825319" y="76.487168" style="fill: #1f77b4; stroke: #ffffff; stroke-width: 0.75"/>
     <use xlink:href="#md2b2dab3d8" x="335.021237" y="70.108352" style="fill: #1f77b4; stroke: #ffffff; stroke-width: 0.75"/>
     <use xlink:href="#md2b2dab3d8" x="351.217156" y="65.086731" style="fill: #1f77b4; stroke: #ffffff; stroke-width: 0.75"/>
     <use xlink:href="#md2b2dab3d8" x="367.413074" y="65.052801" style="fill: #1f77b4; stroke: #ffffff; stroke-width: 0.75"/>
     <use xlink:href="#md2b2dab3d8" x="383.608992" y="63.458097" style="fill: #1f77b4; stroke: #ffffff; stroke-width: 0.75"/>
     <use xlink:href="#md2b2dab3d8" x="399.804911" y="57.418579" style="fill: #1f77b4; stroke: #ffffff; stroke-width: 0.75"/>
     <use xlink:href="#md2b2dab3d8" x="416.000829" y="52.905906" style="fill: #1f77b4; stroke: #ffffff; stroke-width: 0.75"/>
     <use xlink:href="#md2b2dab3d8" x="432.196747" y="52.057659" style="fill: #1f77b4; stroke: #ffffff; stroke-width: 0.75"/>
     <use xlink:href="#md2b2dab3d8" x="448.392666" y="51.243342" style="fill: #1f77b4; stroke: #ffffff; stroke-width: 0.75"/>
     <use xlink:href="#md2b2dab3d8" x="464.588584" y="51.039763" style="fill: #1f77b4; stroke: #ffffff; stroke-width: 0.75"/>
     <use xlink:href="#md2b2dab3d8" x="480.784503" y="50.259376" style="fill: #1f77b4; stroke: #ffffff; stroke-width: 0.75"/>
     <use xlink:href="#md2b2dab3d8" x="496.980421" y="49.614708" style="fill: #1f77b4; stroke: #ffffff; stroke-width: 0.75"/>
     <use xlink:href="#md2b2dab3d8" x="513.176339" y="49.377199" style="fill: #1f77b4; stroke: #ffffff; stroke-width: 0.75"/>
     <use xlink:href="#md2b2dab3d8" x="529.372258" y="48.732532" style="fill: #1f77b4; stroke: #ffffff; stroke-width: 0.75"/>
     <use xlink:href="#md2b2dab3d8" x="545.568176" y="48.291443" style="fill: #1f77b4; stroke: #ffffff; stroke-width: 0.75"/>
     <use xlink:href="#md2b2dab3d8" x="561.764094" y="48.257513" style="fill: #1f77b4; stroke: #ffffff; stroke-width: 0.75"/>
     <use xlink:href="#md2b2dab3d8" x="577.960013" y="47.918215" style="fill: #1f77b4; stroke: #ffffff; stroke-width: 0.75"/>
     <use xlink:href="#md2b2dab3d8" x="594.155931" y="47.171758" style="fill: #1f77b4; stroke: #ffffff; stroke-width: 0.75"/>
     <use xlink:href="#md2b2dab3d8" x="610.351849" y="46.798529" style="fill: #1f77b4; stroke: #ffffff; stroke-width: 0.75"/>
     <use xlink:href="#md2b2dab3d8" x="626.547768" y="45.916352" style="fill: #1f77b4; stroke: #ffffff; stroke-width: 0.75"/>
     <use xlink:href="#md2b2dab3d8" x="642.743686" y="45.102035" style="fill: #1f77b4; stroke: #ffffff; stroke-width: 0.75"/>
     <use xlink:href="#md2b2dab3d8" x="658.939605" y="44.593087" style="fill: #1f77b4; stroke: #ffffff; stroke-width: 0.75"/>
     <use xlink:href="#md2b2dab3d8" x="675.135523" y="44.118069" style="fill: #1f77b4; stroke: #ffffff; stroke-width: 0.75"/>
     <use xlink:href="#md2b2dab3d8" x="691.331441" y="44.118069" style="fill: #1f77b4; stroke: #ffffff; stroke-width: 0.75"/>
     <use xlink:href="#md2b2dab3d8" x="707.52736" y="43.507331" style="fill: #1f77b4; stroke: #ffffff; stroke-width: 0.75"/>
     <use xlink:href="#md2b2dab3d8" x="723.723278" y="42.998383" style="fill: #1f77b4; stroke: #ffffff; stroke-width: 0.75"/>
     <use xlink:href="#md2b2dab3d8" x="739.919196" y="41.26796" style="fill: #1f77b4; stroke: #ffffff; stroke-width: 0.75"/>
    </g>
   </g>
   <g id="line2d_24">
    <path d="M 59.690625 276.334125 
L 75.886543 146.230024 
L 92.082462 146.060375 
L 108.27838 146.060375 
L 124.474298 146.04341 
L 140.670217 146.04341 
L 156.866135 146.04341 
L 173.062054 146.04341 
L 189.257972 146.026445 
L 205.45389 145.093373 
L 221.649809 145.042478 
L 237.845727 145.042478 
L 254.041645 126.940891 
L 270.237564 110.722411 
L 286.433482 104.39449 
L 302.629401 98.049603 
L 318.825319 87.276868 
L 335.021237 84.562478 
L 351.217156 76.08001 
L 367.413074 74.434411 
L 383.608992 66.868049 
L 399.804911 64.442063 
L 416.000829 61.795533 
L 432.196747 60.574058 
L 448.392666 58.65702 
L 464.588584 56.943561 
L 480.784503 56.366753 
L 496.980421 55.959595 
L 513.176339 55.535471 
L 529.372258 54.330961 
L 545.568176 52.566607 
L 561.764094 52.159449 
L 577.960013 51.88801 
L 594.155931 51.446922 
L 610.351849 49.699533 
L 626.547768 49.24148 
L 642.743686 48.291443 
L 658.939605 48.053934 
L 675.135523 47.79946 
L 691.331441 47.680706 
L 707.52736 47.273547 
L 723.723278 46.59495 
L 739.919196 45.933317 
" clip-path="url(#p25982df047)" style="fill: none; stroke: #c7c7c7; stroke-width: 1.5; stroke-linecap: square"/>
    <defs>
     <path id="m82fd458e10" d="M -3 -0 
L 3 3 
L 3 -3 
z
" style="stroke: #ffffff; stroke-width: 0.75; stroke-linejoin: miter"/>
    </defs>
    <g clip-path="url(#p25982df047)">
     <use xlink:href="#m82fd458e10" x="59.690625" y="276.334125" style="fill: #c7c7c7; stroke: #ffffff; stroke-width: 0.75; stroke-linejoin: miter"/>
     <use xlink:href="#m82fd458e10" x="75.886543" y="146.230024" style="fill: #c7c7c7; stroke: #ffffff; stroke-width: 0.75; stroke-linejoin: miter"/>
     <use xlink:href="#m82fd458e10" x="92.082462" y="146.060375" style="fill: #c7c7c7; stroke: #ffffff; stroke-width: 0.75; stroke-linejoin: miter"/>
     <use xlink:href="#m82fd458e10" x="108.27838" y="146.060375" style="fill: #c7c7c7; stroke: #ffffff; stroke-width: 0.75; stroke-linejoin: miter"/>
     <use xlink:href="#m82fd458e10" x="124.474298" y="146.04341" style="fill: #c7c7c7; stroke: #ffffff; stroke-width: 0.75; stroke-linejoin: miter"/>
     <use xlink:href="#m82fd458e10" x="140.670217" y="146.04341" style="fill: #c7c7c7; stroke: #ffffff; stroke-width: 0.75; stroke-linejoin: miter"/>
     <use xlink:href="#m82fd458e10" x="156.866135" y="146.04341" style="fill: #c7c7c7; stroke: #ffffff; stroke-width: 0.75; stroke-linejoin: miter"/>
     <use xlink:href="#m82fd458e10" x="173.062054" y="146.04341" style="fill: #c7c7c7; stroke: #ffffff; stroke-width: 0.75; stroke-linejoin: miter"/>
     <use xlink:href="#m82fd458e10" x="189.257972" y="146.026445" style="fill: #c7c7c7; stroke: #ffffff; stroke-width: 0.75; stroke-linejoin: miter"/>
     <use xlink:href="#m82fd458e10" x="205.45389" y="145.093373" style="fill: #c7c7c7; stroke: #ffffff; stroke-width: 0.75; stroke-linejoin: miter"/>
     <use xlink:href="#m82fd458e10" x="221.649809" y="145.042478" style="fill: #c7c7c7; stroke: #ffffff; stroke-width: 0.75; stroke-linejoin: miter"/>
     <use xlink:href="#m82fd458e10" x="237.845727" y="145.042478" style="fill: #c7c7c7; stroke: #ffffff; stroke-width: 0.75; stroke-linejoin: miter"/>
     <use xlink:href="#m82fd458e10" x="254.041645" y="126.940891" style="fill: #c7c7c7; stroke: #ffffff; stroke-width: 0.75; stroke-linejoin: miter"/>
     <use xlink:href="#m82fd458e10" x="270.237564" y="110.722411" style="fill: #c7c7c7; stroke: #ffffff; stroke-width: 0.75; stroke-linejoin: miter"/>
     <use xlink:href="#m82fd458e10" x="286.433482" y="104.39449" style="fill: #c7c7c7; stroke: #ffffff; stroke-width: 0.75; stroke-linejoin: miter"/>
     <use xlink:href="#m82fd458e10" x="302.629401" y="98.049603" style="fill: #c7c7c7; stroke: #ffffff; stroke-width: 0.75; stroke-linejoin: miter"/>
     <use xlink:href="#m82fd458e10" x="318.825319" y="87.276868" style="fill: #c7c7c7; stroke: #ffffff; stroke-width: 0.75; stroke-linejoin: miter"/>
     <use xlink:href="#m82fd458e10" x="335.021237" y="84.562478" style="fill: #c7c7c7; stroke: #ffffff; stroke-width: 0.75; stroke-linejoin: miter"/>
     <use xlink:href="#m82fd458e10" x="351.217156" y="76.08001" style="fill: #c7c7c7; stroke: #ffffff; stroke-width: 0.75; stroke-linejoin: miter"/>
     <use xlink:href="#m82fd458e10" x="367.413074" y="74.434411" style="fill: #c7c7c7; stroke: #ffffff; stroke-width: 0.75; stroke-linejoin: miter"/>
     <use xlink:href="#m82fd458e10" x="383.608992" y="66.868049" style="fill: #c7c7c7; stroke: #ffffff; stroke-width: 0.75; stroke-linejoin: miter"/>
     <use xlink:href="#m82fd458e10" x="399.804911" y="64.442063" style="fill: #c7c7c7; stroke: #ffffff; stroke-width: 0.75; stroke-linejoin: miter"/>
     <use xlink:href="#m82fd458e10" x="416.000829" y="61.795533" style="fill: #c7c7c7; stroke: #ffffff; stroke-width: 0.75; stroke-linejoin: miter"/>
     <use xlink:href="#m82fd458e10" x="432.196747" y="60.574058" style="fill: #c7c7c7; stroke: #ffffff; stroke-width: 0.75; stroke-linejoin: miter"/>
     <use xlink:href="#m82fd458e10" x="448.392666" y="58.65702" style="fill: #c7c7c7; stroke: #ffffff; stroke-width: 0.75; stroke-linejoin: miter"/>
     <use xlink:href="#m82fd458e10" x="464.588584" y="56.943561" style="fill: #c7c7c7; stroke: #ffffff; stroke-width: 0.75; stroke-linejoin: miter"/>
     <use xlink:href="#m82fd458e10" x="480.784503" y="56.366753" style="fill: #c7c7c7; stroke: #ffffff; stroke-width: 0.75; stroke-linejoin: miter"/>
     <use xlink:href="#m82fd458e10" x="496.980421" y="55.959595" style="fill: #c7c7c7; stroke: #ffffff; stroke-width: 0.75; stroke-linejoin: miter"/>
     <use xlink:href="#m82fd458e10" x="513.176339" y="55.535471" style="fill: #c7c7c7; stroke: #ffffff; stroke-width: 0.75; stroke-linejoin: miter"/>
     <use xlink:href="#m82fd458e10" x="529.372258" y="54.330961" style="fill: #c7c7c7; stroke: #ffffff; stroke-width: 0.75; stroke-linejoin: miter"/>
     <use xlink:href="#m82fd458e10" x="545.568176" y="52.566607" style="fill: #c7c7c7; stroke: #ffffff; stroke-width: 0.75; stroke-linejoin: miter"/>
     <use xlink:href="#m82fd458e10" x="561.764094" y="52.159449" style="fill: #c7c7c7; stroke: #ffffff; stroke-width: 0.75; stroke-linejoin: miter"/>
     <use xlink:href="#m82fd458e10" x="577.960013" y="51.88801" style="fill: #c7c7c7; stroke: #ffffff; stroke-width: 0.75; stroke-linejoin: miter"/>
     <use xlink:href="#m82fd458e10" x="594.155931" y="51.446922" style="fill: #c7c7c7; stroke: #ffffff; stroke-width: 0.75; stroke-linejoin: miter"/>
     <use xlink:href="#m82fd458e10" x="610.351849" y="49.699533" style="fill: #c7c7c7; stroke: #ffffff; stroke-width: 0.75; stroke-linejoin: miter"/>
     <use xlink:href="#m82fd458e10" x="626.547768" y="49.24148" style="fill: #c7c7c7; stroke: #ffffff; stroke-width: 0.75; stroke-linejoin: miter"/>
     <use xlink:href="#m82fd458e10" x="642.743686" y="48.291443" style="fill: #c7c7c7; stroke: #ffffff; stroke-width: 0.75; stroke-linejoin: miter"/>
     <use xlink:href="#m82fd458e10" x="658.939605" y="48.053934" style="fill: #c7c7c7; stroke: #ffffff; stroke-width: 0.75; stroke-linejoin: miter"/>
     <use xlink:href="#m82fd458e10" x="675.135523" y="47.79946" style="fill: #c7c7c7; stroke: #ffffff; stroke-width: 0.75; stroke-linejoin: miter"/>
     <use xlink:href="#m82fd458e10" x="691.331441" y="47.680706" style="fill: #c7c7c7; stroke: #ffffff; stroke-width: 0.75; stroke-linejoin: miter"/>
     <use xlink:href="#m82fd458e10" x="707.52736" y="47.273547" style="fill: #c7c7c7; stroke: #ffffff; stroke-width: 0.75; stroke-linejoin: miter"/>
     <use xlink:href="#m82fd458e10" x="723.723278" y="46.59495" style="fill: #c7c7c7; stroke: #ffffff; stroke-width: 0.75; stroke-linejoin: miter"/>
     <use xlink:href="#m82fd458e10" x="739.919196" y="45.933317" style="fill: #c7c7c7; stroke: #ffffff; stroke-width: 0.75; stroke-linejoin: miter"/>
    </g>
   </g>
   <g id="line2d_25">
    <path d="M 59.690625 276.334125 
L 75.886543 152.048997 
L 92.082462 151.811488 
L 108.27838 151.3704 
L 124.474298 151.30254 
L 140.670217 151.031101 
L 156.866135 151.031101 
L 173.062054 151.031101 
L 189.257972 148.68994 
L 205.45389 148.68994 
L 221.649809 148.68994 
L 237.845727 148.68994 
L 254.041645 148.68994 
L 270.237564 148.65601 
L 286.433482 148.65601 
L 302.629401 148.55422 
L 318.825319 148.55422 
L 335.021237 148.52029 
L 351.217156 148.011342 
L 367.413074 148.011342 
L 383.608992 148.011342 
L 399.804911 148.011342 
L 416.000829 148.011342 
L 432.196747 148.011342 
L 448.392666 147.739903 
L 464.588584 147.739903 
L 480.784503 147.739903 
L 496.980421 147.739903 
L 513.176339 104.818613 
L 529.372258 104.377525 
L 545.568176 97.862989 
L 561.764094 96.404004 
L 577.960013 93.791404 
L 594.155931 86.021463 
L 610.351849 85.919673 
L 626.547768 85.885744 
L 642.743686 83.612442 
L 658.939605 82.085598 
L 675.135523 79.099769 
L 691.331441 76.894327 
L 707.52736 73.229901 
L 723.723278 71.872706 
L 739.919196 69.361895 
" clip-path="url(#p25982df047)" style="fill: none; stroke: #98df8a; stroke-width: 1.5; stroke-linecap: square"/>
    <defs>
     <path id="m10013ca239" d="M -0 3 
L 3 -3 
L -3 -3 
z
" style="stroke: #ffffff; stroke-width: 0.75; stroke-linejoin: miter"/>
    </defs>
    <g clip-path="url(#p25982df047)">
     <use xlink:href="#m10013ca239" x="59.690625" y="276.334125" style="fill: #98df8a; stroke: #ffffff; stroke-width: 0.75; stroke-linejoin: miter"/>
     <use xlink:href="#m10013ca239" x="75.886543" y="152.048997" style="fill: #98df8a; stroke: #ffffff; stroke-width: 0.75; stroke-linejoin: miter"/>
     <use xlink:href="#m10013ca239" x="92.082462" y="151.811488" style="fill: #98df8a; stroke: #ffffff; stroke-width: 0.75; stroke-linejoin: miter"/>
     <use xlink:href="#m10013ca239" x="108.27838" y="151.3704" style="fill: #98df8a; stroke: #ffffff; stroke-width: 0.75; stroke-linejoin: miter"/>
     <use xlink:href="#m10013ca239" x="124.474298" y="151.30254" style="fill: #98df8a; stroke: #ffffff; stroke-width: 0.75; stroke-linejoin: miter"/>
     <use xlink:href="#m10013ca239" x="140.670217" y="151.031101" style="fill: #98df8a; stroke: #ffffff; stroke-width: 0.75; stroke-linejoin: miter"/>
     <use xlink:href="#m10013ca239" x="156.866135" y="151.031101" style="fill: #98df8a; stroke: #ffffff; stroke-width: 0.75; stroke-linejoin: miter"/>
     <use xlink:href="#m10013ca239" x="173.062054" y="151.031101" style="fill: #98df8a; stroke: #ffffff; stroke-width: 0.75; stroke-linejoin: miter"/>
     <use xlink:href="#m10013ca239" x="189.257972" y="148.68994" style="fill: #98df8a; stroke: #ffffff; stroke-width: 0.75; stroke-linejoin: miter"/>
     <use xlink:href="#m10013ca239" x="205.45389" y="148.68994" style="fill: #98df8a; stroke: #ffffff; stroke-width: 0.75; stroke-linejoin: miter"/>
     <use xlink:href="#m10013ca239" x="221.649809" y="148.68994" style="fill: #98df8a; stroke: #ffffff; stroke-width: 0.75; stroke-linejoin: miter"/>
     <use xlink:href="#m10013ca239" x="237.845727" y="148.68994" style="fill: #98df8a; stroke: #ffffff; stroke-width: 0.75; stroke-linejoin: miter"/>
     <use xlink:href="#m10013ca239" x="254.041645" y="148.68994" style="fill: #98df8a; stroke: #ffffff; stroke-width: 0.75; stroke-linejoin: miter"/>
     <use xlink:href="#m10013ca239" x="270.237564" y="148.65601" style="fill: #98df8a; stroke: #ffffff; stroke-width: 0.75; stroke-linejoin: miter"/>
     <use xlink:href="#m10013ca239" x="286.433482" y="148.65601" style="fill: #98df8a; stroke: #ffffff; stroke-width: 0.75; stroke-linejoin: miter"/>
     <use xlink:href="#m10013ca239" x="302.629401" y="148.55422" style="fill: #98df8a; stroke: #ffffff; stroke-width: 0.75; stroke-linejoin: miter"/>
     <use xlink:href="#m10013ca239" x="318.825319" y="148.55422" style="fill: #98df8a; stroke: #ffffff; stroke-width: 0.75; stroke-linejoin: miter"/>
     <use xlink:href="#m10013ca239" x="335.021237" y="148.52029" style="fill: #98df8a; stroke: #ffffff; stroke-width: 0.75; stroke-linejoin: miter"/>
     <use xlink:href="#m10013ca239" x="351.217156" y="148.011342" style="fill: #98df8a; stroke: #ffffff; stroke-width: 0.75; stroke-linejoin: miter"/>
     <use xlink:href="#m10013ca239" x="367.413074" y="148.011342" style="fill: #98df8a; stroke: #ffffff; stroke-width: 0.75; stroke-linejoin: miter"/>
     <use xlink:href="#m10013ca239" x="383.608992" y="148.011342" style="fill: #98df8a; stroke: #ffffff; stroke-width: 0.75; stroke-linejoin: miter"/>
     <use xlink:href="#m10013ca239" x="399.804911" y="148.011342" style="fill: #98df8a; stroke: #ffffff; stroke-width: 0.75; stroke-linejoin: miter"/>
     <use xlink:href="#m10013ca239" x="416.000829" y="148.011342" style="fill: #98df8a; stroke: #ffffff; stroke-width: 0.75; stroke-linejoin: miter"/>
     <use xlink:href="#m10013ca239" x="432.196747" y="148.011342" style="fill: #98df8a; stroke: #ffffff; stroke-width: 0.75; stroke-linejoin: miter"/>
     <use xlink:href="#m10013ca239" x="448.392666" y="147.739903" style="fill: #98df8a; stroke: #ffffff; stroke-width: 0.75; stroke-linejoin: miter"/>
     <use xlink:href="#m10013ca239" x="464.588584" y="147.739903" style="fill: #98df8a; stroke: #ffffff; stroke-width: 0.75; stroke-linejoin: miter"/>
     <use xlink:href="#m10013ca239" x="480.784503" y="147.739903" style="fill: #98df8a; stroke: #ffffff; stroke-width: 0.75; stroke-linejoin: miter"/>
     <use xlink:href="#m10013ca239" x="496.980421" y="147.739903" style="fill: #98df8a; stroke: #ffffff; stroke-width: 0.75; stroke-linejoin: miter"/>
     <use xlink:href="#m10013ca239" x="513.176339" y="104.818613" style="fill: #98df8a; stroke: #ffffff; stroke-width: 0.75; stroke-linejoin: miter"/>
     <use xlink:href="#m10013ca239" x="529.372258" y="104.377525" style="fill: #98df8a; stroke: #ffffff; stroke-width: 0.75; stroke-linejoin: miter"/>
     <use xlink:href="#m10013ca239" x="545.568176" y="97.862989" style="fill: #98df8a; stroke: #ffffff; stroke-width: 0.75; stroke-linejoin: miter"/>
     <use xlink:href="#m10013ca239" x="561.764094" y="96.404004" style="fill: #98df8a; stroke: #ffffff; stroke-width: 0.75; stroke-linejoin: miter"/>
     <use xlink:href="#m10013ca239" x="577.960013" y="93.791404" style="fill: #98df8a; stroke: #ffffff; stroke-width: 0.75; stroke-linejoin: miter"/>
     <use xlink:href="#m10013ca239" x="594.155931" y="86.021463" style="fill: #98df8a; stroke: #ffffff; stroke-width: 0.75; stroke-linejoin: miter"/>
     <use xlink:href="#m10013ca239" x="610.351849" y="85.919673" style="fill: #98df8a; stroke: #ffffff; stroke-width: 0.75; stroke-linejoin: miter"/>
     <use xlink:href="#m10013ca239" x="626.547768" y="85.885744" style="fill: #98df8a; stroke: #ffffff; stroke-width: 0.75; stroke-linejoin: miter"/>
     <use xlink:href="#m10013ca239" x="642.743686" y="83.612442" style="fill: #98df8a; stroke: #ffffff; stroke-width: 0.75; stroke-linejoin: miter"/>
     <use xlink:href="#m10013ca239" x="658.939605" y="82.085598" style="fill: #98df8a; stroke: #ffffff; stroke-width: 0.75; stroke-linejoin: miter"/>
     <use xlink:href="#m10013ca239" x="675.135523" y="79.099769" style="fill: #98df8a; stroke: #ffffff; stroke-width: 0.75; stroke-linejoin: miter"/>
     <use xlink:href="#m10013ca239" x="691.331441" y="76.894327" style="fill: #98df8a; stroke: #ffffff; stroke-width: 0.75; stroke-linejoin: miter"/>
     <use xlink:href="#m10013ca239" x="707.52736" y="73.229901" style="fill: #98df8a; stroke: #ffffff; stroke-width: 0.75; stroke-linejoin: miter"/>
     <use xlink:href="#m10013ca239" x="723.723278" y="71.872706" style="fill: #98df8a; stroke: #ffffff; stroke-width: 0.75; stroke-linejoin: miter"/>
     <use xlink:href="#m10013ca239" x="739.919196" y="69.361895" style="fill: #98df8a; stroke: #ffffff; stroke-width: 0.75; stroke-linejoin: miter"/>
    </g>
   </g>
   <g id="line2d_26"/>
   <g id="line2d_27"/>
   <g id="line2d_28"/>
   <g id="line2d_29"/>
   <g id="line2d_30">
    <path d="M 739.919196 288.430125 
L 739.919196 22.318125 
" clip-path="url(#p25982df047)" style="fill: none; stroke: #ff0000; stroke-width: 1.5; stroke-linecap: square"/>
   </g>
   <g id="patch_3">
    <path d="M 59.690625 261.269261 
L 59.690625 23.760145 
" style="fill: none; stroke: #000000; stroke-width: 0.8; stroke-linejoin: miter; stroke-linecap: square"/>
   </g>
   <g id="patch_4">
    <path d="M 59.690625 288.430125 
L 739.919196 288.430125 
" style="fill: none; stroke: #000000; stroke-width: 0.8; stroke-linejoin: miter; stroke-linecap: square"/>
   </g>
   <g id="text_24">
    <!-- libxml2_xml (10h:30m, at least 3 trials/fuzzer) -->
    <g transform="translate(277.956563 16.318125) scale(0.12 -0.12)">
     <defs>
      <path id="DejaVuSans-6c" d="M 603 4863 
L 1178 4863 
L 1178 0 
L 603 0 
L 603 4863 
z
" transform="scale(0.015625)"/>
      <path id="DejaVuSans-78" d="M 3513 3500 
L 2247 1797 
L 3578 0 
L 2900 0 
L 1881 1375 
L 863 0 
L 184 0 
L 1544 1831 
L 300 3500 
L 978 3500 
L 1906 2253 
L 2834 3500 
L 3513 3500 
z
" transform="scale(0.015625)"/>
      <path id="DejaVuSans-5f" d="M 3263 -1063 
L 3263 -1509 
L -63 -1509 
L -63 -1063 
L 3263 -1063 
z
" transform="scale(0.015625)"/>
      <path id="DejaVuSans-2c" d="M 750 794 
L 1409 794 
L 1409 256 
L 897 -744 
L 494 -744 
L 750 256 
L 750 794 
z
" transform="scale(0.015625)"/>
      <path id="DejaVuSans-73" d="M 2834 3397 
L 2834 2853 
Q 2591 2978 2328 3040 
Q 2066 3103 1784 3103 
Q 1356 3103 1142 2972 
Q 928 2841 928 2578 
Q 928 2378 1081 2264 
Q 1234 2150 1697 2047 
L 1894 2003 
Q 2506 1872 2764 1633 
Q 3022 1394 3022 966 
Q 3022 478 2636 193 
Q 2250 -91 1575 -91 
Q 1294 -91 989 -36 
Q 684 19 347 128 
L 347 722 
Q 666 556 975 473 
Q 1284 391 1588 391 
Q 1994 391 2212 530 
Q 2431 669 2431 922 
Q 2431 1156 2273 1281 
Q 2116 1406 1581 1522 
L 1381 1569 
Q 847 1681 609 1914 
Q 372 2147 372 2553 
Q 372 3047 722 3315 
Q 1072 3584 1716 3584 
Q 2034 3584 2315 3537 
Q 2597 3491 2834 3397 
z
" transform="scale(0.015625)"/>
      <path id="DejaVuSans-2f" d="M 1625 4666 
L 2156 4666 
L 531 -594 
L 0 -594 
L 1625 4666 
z
" transform="scale(0.015625)"/>
      <path id="DejaVuSans-66" d="M 2375 4863 
L 2375 4384 
L 1825 4384 
Q 1516 4384 1395 4259 
Q 1275 4134 1275 3809 
L 1275 3500 
L 2222 3500 
L 2222 3053 
L 1275 3053 
L 1275 0 
L 697 0 
L 697 3053 
L 147 3053 
L 147 3500 
L 697 3500 
L 697 3744 
Q 697 4328 969 4595 
Q 1241 4863 1831 4863 
L 2375 4863 
z
" transform="scale(0.015625)"/>
      <path id="DejaVuSans-7a" d="M 353 3500 
L 3084 3500 
L 3084 2975 
L 922 459 
L 3084 459 
L 3084 0 
L 275 0 
L 275 525 
L 2438 3041 
L 353 3041 
L 353 3500 
z
" transform="scale(0.015625)"/>
     </defs>
     <use xlink:href="#DejaVuSans-6c"/>
     <use xlink:href="#DejaVuSans-69" transform="translate(27.783203 0)"/>
     <use xlink:href="#DejaVuSans-62" transform="translate(55.566406 0)"/>
     <use xlink:href="#DejaVuSans-78" transform="translate(119.042969 0)"/>
     <use xlink:href="#DejaVuSans-6d" transform="translate(178.222656 0)"/>
     <use xlink:href="#DejaVuSans-6c" transform="translate(275.634766 0)"/>
     <use xlink:href="#DejaVuSans-32" transform="translate(303.417969 0)"/>
     <use xlink:href="#DejaVuSans-5f" transform="translate(367.041016 0)"/>
     <use xlink:href="#DejaVuSans-78" transform="translate(417.041016 0)"/>
     <use xlink:href="#DejaVuSans-6d" transform="translate(476.220703 0)"/>
     <use xlink:href="#DejaVuSans-6c" transform="translate(573.632812 0)"/>
     <use xlink:href="#DejaVuSans-20" transform="translate(601.416016 0)"/>
     <use xlink:href="#DejaVuSans-28" transform="translate(633.203125 0)"/>
     <use xlink:href="#DejaVuSans-31" transform="translate(672.216797 0)"/>
     <use xlink:href="#DejaVuSans-30" transform="translate(735.839844 0)"/>
     <use xlink:href="#DejaVuSans-68" transform="translate(799.462891 0)"/>
     <use xlink:href="#DejaVuSans-3a" transform="translate(862.841797 0)"/>
     <use xlink:href="#DejaVuSans-33" transform="translate(896.533203 0)"/>
     <use xlink:href="#DejaVuSans-30" transform="translate(960.15625 0)"/>
     <use xlink:href="#DejaVuSans-6d" transform="translate(1023.779297 0)"/>
     <use xlink:href="#DejaVuSans-2c" transform="translate(1121.191406 0)"/>
     <use xlink:href="#DejaVuSans-20" transform="translate(1152.978516 0)"/>
     <use xlink:href="#DejaVuSans-61" transform="translate(1184.765625 0)"/>
     <use xlink:href="#DejaVuSans-74" transform="translate(1246.044922 0)"/>
     <use xlink:href="#DejaVuSans-20" transform="translate(1285.253906 0)"/>
     <use xlink:href="#DejaVuSans-6c" transform="translate(1317.041016 0)"/>
     <use xlink:href="#DejaVuSans-65" transform="translate(1344.824219 0)"/>
     <use xlink:href="#DejaVuSans-61" transform="translate(1406.347656 0)"/>
     <use xlink:href="#DejaVuSans-73" transform="translate(1467.626953 0)"/>
     <use xlink:href="#DejaVuSans-74" transform="translate(1519.726562 0)"/>
     <use xlink:href="#DejaVuSans-20" transform="translate(1558.935547 0)"/>
     <use xlink:href="#DejaVuSans-33" transform="translate(1590.722656 0)"/>
     <use xlink:href="#DejaVuSans-20" transform="translate(1654.345703 0)"/>
     <use xlink:href="#DejaVuSans-74" transform="translate(1686.132812 0)"/>
     <use xlink:href="#DejaVuSans-72" transform="translate(1725.341797 0)"/>
     <use xlink:href="#DejaVuSans-69" transform="translate(1766.455078 0)"/>
     <use xlink:href="#DejaVuSans-61" transform="translate(1794.238281 0)"/>
     <use xlink:href="#DejaVuSans-6c" transform="translate(1855.517578 0)"/>
     <use xlink:href="#DejaVuSans-73" transform="translate(1883.300781 0)"/>
     <use xlink:href="#DejaVuSans-2f" transform="translate(1935.400391 0)"/>
     <use xlink:href="#DejaVuSans-66" transform="translate(1969.091797 0)"/>
     <use xlink:href="#DejaVuSans-75" transform="translate(2004.296875 0)"/>
     <use xlink:href="#DejaVuSans-7a" transform="translate(2067.675781 0)"/>
     <use xlink:href="#DejaVuSans-7a" transform="translate(2120.166016 0)"/>
     <use xlink:href="#DejaVuSans-65" transform="translate(2172.65625 0)"/>
     <use xlink:href="#DejaVuSans-72" transform="translate(2234.179688 0)"/>
     <use xlink:href="#DejaVuSans-29" transform="translate(2275.292969 0)"/>
    </g>
   </g>
   <g id="legend_1">
    <g id="line2d_31">
     <path d="M 777.930625 30.416562 
L 787.930625 30.416562 
L 797.930625 30.416562 
" style="fill: none; stroke: #d62728; stroke-width: 1.5; stroke-linecap: square"/>
     <g>
      <use xlink:href="#m87dac842c7" x="787.930625" y="30.416562" style="fill: #d62728; stroke: #ffffff; stroke-width: 0.75; stroke-linejoin: miter"/>
     </g>
    </g>
    <g id="text_25">
     <!-- aflplusplus_c11 -->
     <g transform="translate(805.930625 33.916562) scale(0.1 -0.1)">
      <defs>
       <path id="DejaVuSans-70" d="M 1159 525 
L 1159 -1331 
L 581 -1331 
L 581 3500 
L 1159 3500 
L 1159 2969 
Q 1341 3281 1617 3432 
Q 1894 3584 2278 3584 
Q 2916 3584 3314 3078 
Q 3713 2572 3713 1747 
Q 3713 922 3314 415 
Q 2916 -91 2278 -91 
Q 1894 -91 1617 61 
Q 1341 213 1159 525 
z
M 3116 1747 
Q 3116 2381 2855 2742 
Q 2594 3103 2138 3103 
Q 1681 3103 1420 2742 
Q 1159 2381 1159 1747 
Q 1159 1113 1420 752 
Q 1681 391 2138 391 
Q 2594 391 2855 752 
Q 3116 1113 3116 1747 
z
" transform="scale(0.015625)"/>
      </defs>
      <use xlink:href="#DejaVuSans-61"/>
      <use xlink:href="#DejaVuSans-66" transform="translate(61.279297 0)"/>
      <use xlink:href="#DejaVuSans-6c" transform="translate(96.484375 0)"/>
      <use xlink:href="#DejaVuSans-70" transform="translate(124.267578 0)"/>
      <use xlink:href="#DejaVuSans-6c" transform="translate(187.744141 0)"/>
      <use xlink:href="#DejaVuSans-75" transform="translate(215.527344 0)"/>
      <use xlink:href="#DejaVuSans-73" transform="translate(278.90625 0)"/>
      <use xlink:href="#DejaVuSans-70" transform="translate(331.005859 0)"/>
      <use xlink:href="#DejaVuSans-6c" transform="translate(394.482422 0)"/>
      <use xlink:href="#DejaVuSans-75" transform="translate(422.265625 0)"/>
      <use xlink:href="#DejaVuSans-73" transform="translate(485.644531 0)"/>
      <use xlink:href="#DejaVuSans-5f" transform="translate(537.744141 0)"/>
      <use xlink:href="#DejaVuSans-63" transform="translate(587.744141 0)"/>
      <use xlink:href="#DejaVuSans-31" transform="translate(642.724609 0)"/>
      <use xlink:href="#DejaVuSans-31" transform="translate(706.347656 0)"/>
     </g>
    </g>
    <g id="line2d_32">
     <path d="M 777.930625 45.372813 
L 787.930625 45.372813 
L 797.930625 45.372813 
" style="fill: none; stroke: #1f77b4; stroke-width: 1.5; stroke-linecap: square"/>
     <g>
      <use xlink:href="#md2b2dab3d8" x="787.930625" y="45.372813" style="fill: #1f77b4; stroke: #ffffff; stroke-width: 0.75"/>
     </g>
    </g>
    <g id="text_26">
     <!-- aflplusplus_440c -->
     <g transform="translate(805.930625 48.872813) scale(0.1 -0.1)">
      <use xlink:href="#DejaVuSans-61"/>
      <use xlink:href="#DejaVuSans-66" transform="translate(61.279297 0)"/>
      <use xlink:href="#DejaVuSans-6c" transform="translate(96.484375 0)"/>
      <use xlink:href="#DejaVuSans-70" transform="translate(124.267578 0)"/>
      <use xlink:href="#DejaVuSans-6c" transform="translate(187.744141 0)"/>
      <use xlink:href="#DejaVuSans-75" transform="translate(215.527344 0)"/>
      <use xlink:href="#DejaVuSans-73" transform="translate(278.90625 0)"/>
      <use xlink:href="#DejaVuSans-70" transform="translate(331.005859 0)"/>
      <use xlink:href="#DejaVuSans-6c" transform="translate(394.482422 0)"/>
      <use xlink:href="#DejaVuSans-75" transform="translate(422.265625 0)"/>
      <use xlink:href="#DejaVuSans-73" transform="translate(485.644531 0)"/>
      <use xlink:href="#DejaVuSans-5f" transform="translate(537.744141 0)"/>
      <use xlink:href="#DejaVuSans-34" transform="translate(587.744141 0)"/>
      <use xlink:href="#DejaVuSans-34" transform="translate(651.367188 0)"/>
      <use xlink:href="#DejaVuSans-30" transform="translate(714.990234 0)"/>
      <use xlink:href="#DejaVuSans-63" transform="translate(778.613281 0)"/>
     </g>
    </g>
    <g id="line2d_33">
     <path d="M 777.930625 60.329063 
L 787.930625 60.329063 
L 797.930625 60.329063 
" style="fill: none; stroke: #c7c7c7; stroke-width: 1.5; stroke-linecap: square"/>
     <g>
      <use xlink:href="#m82fd458e10" x="787.930625" y="60.329063" style="fill: #c7c7c7; stroke: #ffffff; stroke-width: 0.75; stroke-linejoin: miter"/>
     </g>
    </g>
    <g id="text_27">
     <!-- aflplusplus_mopt -->
     <g transform="translate(805.930625 63.829063) scale(0.1 -0.1)">
      <use xlink:href="#DejaVuSans-61"/>
      <use xlink:href="#DejaVuSans-66" transform="translate(61.279297 0)"/>
      <use xlink:href="#DejaVuSans-6c" transform="translate(96.484375 0)"/>
      <use xlink:href="#DejaVuSans-70" transform="translate(124.267578 0)"/>
      <use xlink:href="#DejaVuSans-6c" transform="translate(187.744141 0)"/>
      <use xlink:href="#DejaVuSans-75" transform="translate(215.527344 0)"/>
      <use xlink:href="#DejaVuSans-73" transform="translate(278.90625 0)"/>
      <use xlink:href="#DejaVuSans-70" transform="translate(331.005859 0)"/>
      <use xlink:href="#DejaVuSans-6c" transform="translate(394.482422 0)"/>
      <use xlink:href="#DejaVuSans-75" transform="translate(422.265625 0)"/>
      <use xlink:href="#DejaVuSans-73" transform="translate(485.644531 0)"/>
      <use xlink:href="#DejaVuSans-5f" transform="translate(537.744141 0)"/>
      <use xlink:href="#DejaVuSans-6d" transform="translate(587.744141 0)"/>
      <use xlink:href="#DejaVuSans-6f" transform="translate(685.15625 0)"/>
      <use xlink:href="#DejaVuSans-70" transform="translate(746.337891 0)"/>
      <use xlink:href="#DejaVuSans-74" transform="translate(809.814453 0)"/>
     </g>
    </g>
    <g id="line2d_34">
     <path d="M 777.930625 75.285313 
L 787.930625 75.285313 
L 797.930625 75.285313 
" style="fill: none; stroke: #98df8a; stroke-width: 1.5; stroke-linecap: square"/>
     <g>
      <use xlink:href="#m10013ca239" x="787.930625" y="75.285313" style="fill: #98df8a; stroke: #ffffff; stroke-width: 0.75; stroke-linejoin: miter"/>
     </g>
    </g>
    <g id="text_28">
     <!-- aflplusplus_500c -->
     <g transform="translate(805.930625 78.785313) scale(0.1 -0.1)">
      <use xlink:href="#DejaVuSans-61"/>
      <use xlink:href="#DejaVuSans-66" transform="translate(61.279297 0)"/>
      <use xlink:href="#DejaVuSans-6c" transform="translate(96.484375 0)"/>
      <use xlink:href="#DejaVuSans-70" transform="translate(124.267578 0)"/>
      <use xlink:href="#DejaVuSans-6c" transform="translate(187.744141 0)"/>
      <use xlink:href="#DejaVuSans-75" transform="translate(215.527344 0)"/>
      <use xlink:href="#DejaVuSans-73" transform="translate(278.90625 0)"/>
      <use xlink:href="#DejaVuSans-70" transform="translate(331.005859 0)"/>
      <use xlink:href="#DejaVuSans-6c" transform="translate(394.482422 0)"/>
      <use xlink:href="#DejaVuSans-75" transform="translate(422.265625 0)"/>
      <use xlink:href="#DejaVuSans-73" transform="translate(485.644531 0)"/>
      <use xlink:href="#DejaVuSans-5f" transform="translate(537.744141 0)"/>
      <use xlink:href="#DejaVuSans-35" transform="translate(587.744141 0)"/>
      <use xlink:href="#DejaVuSans-30" transform="translate(651.367188 0)"/>
      <use xlink:href="#DejaVuSans-30" transform="translate(714.990234 0)"/>
      <use xlink:href="#DejaVuSans-63" transform="translate(778.613281 0)"/>
     </g>
    </g>
   </g>
  </g>
 </g>
 <defs>
  <clipPath id="p25982df047">
   <rect x="59.690625" y="22.318125" width="714.24" height="266.112"/>
  </clipPath>
 </defs>
</svg>
