<?xml version="1.0" encoding="utf-8" standalone="no"?>
<!DOCTYPE svg PUBLIC "-//W3C//DTD SVG 1.1//EN"
  "http://www.w3.org/Graphics/SVG/1.1/DTD/svg11.dtd">
<svg xmlns:xlink="http://www.w3.org/1999/xlink" width="895.669687pt" height="325.986375pt" viewBox="0 0 895.669687 325.986375" xmlns="http://www.w3.org/2000/svg" version="1.1">
 <metadata>
  <rdf:RDF xmlns:dc="http://purl.org/dc/elements/1.1/" xmlns:cc="http://creativecommons.org/ns#" xmlns:rdf="http://www.w3.org/1999/02/22-rdf-syntax-ns#">
   <cc:Work>
    <dc:type rdf:resource="http://purl.org/dc/dcmitype/StillImage"/>
    <dc:date>2026-06-10T05:26:29.110893</dc:date>
    <dc:format>image/svg+xml</dc:format>
    <dc:creator>
     <cc:Agent>
      <dc:title>Matplotlib v3.10.9, https://matplotlib.org/</dc:title>
     </cc:Agent>
    </dc:creator>
   </cc:Work>
  </rdf:RDF>
 </metadata>
 <defs>
  <style type="text/css">*{stroke-linejoin: round; stroke-linecap: butt}</style>
 </defs>
 <g id="figure_1">
  <g id="patch_1">
   <path d="M 0 325.986375 
L 895.669688 325.986375 
L 895.669688 0 
L 0 0 
z
" style="fill: #ffffff"/>
  </g>
  <g id="axes_1">
   <g id="patch_2">
    <path d="M 53.328125 288.430125 
L 767.568125 288.430125 
L 767.568125 22.318125 
L 53.328125 22.318125 
z
" style="fill: #ffffff"/>
   </g>
   <g id="FillBetweenPolyCollection_1">
    <defs>
     <path id="m74341b080b" d="M 53.328125 -49.65225 
L 53.328125 -49.65225 
L 539.880971 -137.126148 
L 578.790219 -143.413335 
L 601.55067 -145.05347 
L 617.699467 -147.923708 
L 630.225447 -147.923708 
L 640.459918 -147.923708 
L 649.11304 -147.923708 
L 656.608715 -148.197064 
L 663.220369 -148.197064 
L 669.134695 -148.470419 
L 674.484853 -149.290487 
L 679.369166 -149.290487 
L 683.862297 -149.290487 
L 688.022287 -149.700521 
L 691.895146 -152.434081 
L 695.517963 -152.434081 
L 698.921076 -152.434081 
L 702.129617 -152.707436 
L 705.164636 -153.390826 
L 708.043943 -154.757606 
L 710.782738 -155.030962 
L 713.394101 -155.030962 
L 715.889364 -156.671097 
L 718.278413 -156.671097 
L 720.569923 -156.671097 
L 722.771545 -157.081131 
L 724.890067 -158.994623 
L 726.931535 -158.994623 
L 728.901358 -159.678013 
L 730.804394 -160.771436 
L 732.645023 -161.591504 
L 734.42721 -161.591504 
L 736.154552 -161.591504 
L 737.830324 -161.86486 
L 739.457515 -161.86486 
L 741.038864 -162.001538 
L 742.576883 -162.001538 
L 744.073883 -162.001538 
L 745.531996 -162.001538 
L 746.95319 -162.001538 
L 748.33929 -162.001538 
L 749.691986 -162.001538 
L 751.012851 -162.138216 
L 752.303349 -162.138216 
L 753.564844 -162.138216 
L 754.798612 -162.274894 
L 756.005846 -162.274894 
L 757.187661 -163.504996 
L 758.345108 -164.735097 
L 759.47917 -164.871775 
L 760.590775 -165.008453 
L 761.680793 -165.008453 
L 762.750048 -165.008453 
L 763.799315 -165.008453 
L 764.829329 -165.008453 
L 764.829329 -291.57225 
L 764.829329 -291.57225 
L 763.799315 -291.298894 
L 762.750048 -291.298894 
L 761.680793 -288.975369 
L 760.590775 -288.975369 
L 759.47917 -288.975369 
L 758.345108 -288.975369 
L 757.187661 -288.975369 
L 756.005846 -285.695097 
L 754.798612 -285.695097 
L 753.564844 -285.695097 
L 752.303349 -285.695097 
L 751.012851 -285.695097 
L 749.691986 -282.688182 
L 748.33929 -265.740114 
L 746.95319 -256.992725 
L 745.531996 -256.992725 
L 744.073883 -256.992725 
L 742.576883 -177.036114 
L 741.038864 -176.899436 
L 739.457515 -176.762758 
L 737.830324 -172.115708 
L 736.154552 -172.115708 
L 734.42721 -172.115708 
L 732.645023 -171.705674 
L 730.804394 -170.475572 
L 728.901358 -170.338894 
L 726.931535 -170.338894 
L 724.890067 -170.338894 
L 722.771545 -169.92886 
L 720.569923 -169.92886 
L 718.278413 -169.92886 
L 715.889364 -169.92886 
L 713.394101 -169.92886 
L 710.782738 -169.92886 
L 708.043943 -169.92886 
L 705.164636 -169.92886 
L 702.129617 -169.92886 
L 698.921076 -169.655504 
L 695.517963 -169.655504 
L 691.895146 -169.655504 
L 688.022287 -169.655504 
L 683.862297 -168.425403 
L 679.369166 -168.425403 
L 674.484853 -168.425403 
L 669.134695 -168.425403 
L 663.220369 -168.425403 
L 656.608715 -168.425403 
L 649.11304 -166.101877 
L 640.459918 -165.281809 
L 630.225447 -164.735097 
L 617.699467 -162.821606 
L 601.55067 -161.454826 
L 578.790219 -158.447911 
L 539.880971 -156.807775 
L 53.328125 -49.65225 
z
" style="stroke: #98df8a; stroke-opacity: 0.2"/>
    </defs>
    <g clip-path="url(#p63301ee816)">
     <use xlink:href="#m74341b080b" x="0" y="325.986375" style="fill: #98df8a; fill-opacity: 0.2; stroke: #98df8a; stroke-opacity: 0.2"/>
    </g>
   </g>
   <g id="FillBetweenPolyCollection_2">
    <defs>
     <path id="m9ec23ff499" d="M 53.328125 -49.65225 
L 53.328125 -49.65225 
L 539.880971 -138.766284 
L 578.790219 -140.269742 
L 601.55067 -148.470419 
L 617.699467 -150.657267 
L 630.225447 -155.714352 
L 640.459918 -158.857945 
L 649.11304 -159.678013 
L 656.608715 -159.814691 
L 663.220369 -160.224725 
L 669.134695 -161.591504 
L 674.484853 -161.728182 
L 679.369166 -162.411572 
L 683.862297 -162.958284 
L 688.022287 -162.958284 
L 691.895146 -163.368318 
L 695.517963 -164.051708 
L 698.921076 -164.051708 
L 702.129617 -164.051708 
L 705.164636 -164.051708 
L 708.043943 -165.418487 
L 710.782738 -165.828521 
L 713.394101 -165.828521 
L 715.889364 -166.101877 
L 718.278413 -166.238555 
L 720.569923 -166.238555 
L 722.771545 -166.238555 
L 724.890067 -166.238555 
L 726.931535 -166.238555 
L 728.901358 -166.238555 
L 730.804394 -166.238555 
L 732.645023 -166.511911 
L 734.42721 -166.511911 
L 736.154552 -166.511911 
L 737.830324 -166.648589 
L 739.457515 -166.648589 
L 741.038864 -166.648589 
L 742.576883 -166.648589 
L 744.073883 -166.648589 
L 745.531996 -166.648589 
L 746.95319 -166.648589 
L 748.33929 -166.648589 
L 749.691986 -166.648589 
L 751.012851 -166.785267 
L 752.303349 -166.921945 
L 753.564844 -166.921945 
L 754.798612 -166.921945 
L 756.005846 -166.921945 
L 757.187661 -166.921945 
L 758.345108 -166.921945 
L 759.47917 -166.921945 
L 760.590775 -166.921945 
L 761.680793 -166.921945 
L 762.750048 -166.921945 
L 763.799315 -166.921945 
L 764.829329 -166.921945 
L 764.829329 -181.409809 
L 764.829329 -181.409809 
L 763.799315 -181.409809 
L 762.750048 -181.409809 
L 761.680793 -181.409809 
L 760.590775 -181.409809 
L 759.47917 -181.409809 
L 758.345108 -181.409809 
L 757.187661 -181.409809 
L 756.005846 -181.409809 
L 754.798612 -181.409809 
L 753.564844 -181.409809 
L 752.303349 -181.409809 
L 751.012851 -181.409809 
L 749.691986 -181.409809 
L 748.33929 -181.409809 
L 746.95319 -181.409809 
L 745.531996 -181.409809 
L 744.073883 -181.409809 
L 742.576883 -179.222962 
L 741.038864 -178.812928 
L 739.457515 -178.812928 
L 737.830324 -178.812928 
L 736.154552 -178.812928 
L 734.42721 -178.812928 
L 732.645023 -178.539572 
L 730.804394 -178.539572 
L 728.901358 -178.539572 
L 726.931535 -178.539572 
L 724.890067 -178.539572 
L 722.771545 -178.539572 
L 720.569923 -178.539572 
L 718.278413 -178.539572 
L 715.889364 -178.266216 
L 713.394101 -178.266216 
L 710.782738 -177.036114 
L 708.043943 -176.626081 
L 705.164636 -176.216047 
L 702.129617 -175.669335 
L 698.921076 -166.238555 
L 695.517963 -166.238555 
L 691.895146 -165.828521 
L 688.022287 -165.828521 
L 683.862297 -165.828521 
L 679.369166 -165.828521 
L 674.484853 -165.691843 
L 669.134695 -164.871775 
L 663.220369 -163.641674 
L 656.608715 -162.001538 
L 649.11304 -160.908114 
L 640.459918 -160.361403 
L 630.225447 -160.088047 
L 617.699467 -159.541335 
L 601.55067 -155.16764 
L 578.790219 -153.80086 
L 539.880971 -145.873538 
L 53.328125 -49.65225 
z
" style="stroke: #c7c7c7; stroke-opacity: 0.2"/>
    </defs>
    <g clip-path="url(#p63301ee816)">
     <use xlink:href="#m9ec23ff499" x="0" y="325.986375" style="fill: #c7c7c7; fill-opacity: 0.2; stroke: #c7c7c7; stroke-opacity: 0.2"/>
    </g>
   </g>
   <g id="FillBetweenPolyCollection_3">
    <defs>
     <path id="m1d7de3ec6d" d="M 53.328125 -49.65225 
L 53.328125 -49.65225 
L 539.880971 -137.467843 
L 578.790219 -141.02147 
L 601.55067 -142.251572 
L 617.699467 -144.711775 
L 630.225447 -145.463504 
L 640.459918 -147.035301 
L 649.11304 -147.376996 
L 656.608715 -147.376996 
L 663.220369 -147.718691 
L 669.134695 -148.948792 
L 674.484853 -149.017131 
L 679.369166 -149.632182 
L 683.862297 -149.700521 
L 688.022287 -150.520589 
L 691.895146 -150.520589 
L 695.517963 -151.203979 
L 698.921076 -151.272318 
L 702.129617 -151.272318 
L 705.164636 -151.272318 
L 708.043943 -151.614013 
L 710.782738 -151.682352 
L 713.394101 -151.750691 
L 715.889364 -152.024047 
L 718.278413 -152.024047 
L 720.569923 -153.322487 
L 722.771545 -153.322487 
L 724.890067 -153.322487 
L 726.931535 -153.390826 
L 728.901358 -155.714352 
L 730.804394 -155.782691 
L 732.645023 -156.397742 
L 734.42721 -156.807775 
L 736.154552 -158.174555 
L 737.830324 -158.174555 
L 739.457515 -158.447911 
L 741.038864 -159.19964 
L 742.576883 -159.472996 
L 744.073883 -159.541335 
L 745.531996 -159.541335 
L 746.95319 -159.746352 
L 748.33929 -161.113131 
L 749.691986 -161.18147 
L 751.012851 -161.18147 
L 752.303349 -161.386487 
L 753.564844 -162.343233 
L 754.798612 -162.411572 
L 756.005846 -163.299979 
L 757.187661 -163.436657 
L 758.345108 -163.436657 
L 759.47917 -163.436657 
L 760.590775 -163.710013 
L 761.680793 -163.706596 
L 762.750048 -163.641674 
L 763.799315 -163.641674 
L 764.829329 -163.641674 
L 764.829329 -175.395979 
L 764.829329 -175.395979 
L 763.799315 -175.395979 
L 762.750048 -175.395979 
L 761.680793 -175.259301 
L 760.590775 -175.259301 
L 759.47917 -175.259301 
L 758.345108 -175.259301 
L 757.187661 -175.259301 
L 756.005846 -175.259301 
L 754.798612 -175.259301 
L 753.564844 -175.259301 
L 752.303349 -175.259301 
L 751.012851 -175.190962 
L 749.691986 -175.122623 
L 748.33929 -175.122623 
L 746.95319 -175.122623 
L 745.531996 -175.122623 
L 744.073883 -174.589579 
L 742.576883 -174.917606 
L 741.038864 -174.917606 
L 739.457515 -174.780928 
L 737.830324 -174.780928 
L 736.154552 -174.507572 
L 734.42721 -174.507572 
L 732.645023 -174.370894 
L 730.804394 -174.370894 
L 728.901358 -174.370894 
L 726.931535 -174.370894 
L 724.890067 -174.370894 
L 722.771545 -173.345809 
L 720.569923 -174.370894 
L 718.278413 -174.370894 
L 715.889364 -173.619165 
L 713.394101 -173.619165 
L 710.782738 -173.209131 
L 708.043943 -172.525742 
L 705.164636 -173.140792 
L 702.129617 -173.072453 
L 698.921076 -172.115708 
L 695.517963 -171.910691 
L 691.895146 -171.637335 
L 688.022287 -170.817267 
L 683.862297 -168.220386 
L 679.369166 -166.142881 
L 674.484853 -167.742013 
L 669.134695 -167.468657 
L 663.220369 -163.368318 
L 656.608715 -159.746352 
L 649.11304 -158.174555 
L 640.459918 -156.807775 
L 630.225447 -156.671097 
L 617.699467 -156.671097 
L 601.55067 -155.099301 
L 578.790219 -152.502419 
L 539.880971 -147.376996 
L 53.328125 -49.65225 
z
" style="stroke: #d62728; stroke-opacity: 0.2"/>
    </defs>
    <g clip-path="url(#p63301ee816)">
     <use xlink:href="#m1d7de3ec6d" x="0" y="325.986375" style="fill: #d62728; fill-opacity: 0.2; stroke: #d62728; stroke-opacity: 0.2"/>
    </g>
   </g>
   <g id="FillBetweenPolyCollection_4">
    <defs>
     <path id="m711e6931b7" d="M 53.328125 -49.65225 
L 53.328125 -49.65225 
L 539.880971 -133.572521 
L 578.790219 -136.442758 
L 601.55067 -137.262826 
L 617.699467 -140.406419 
L 630.225447 -140.543097 
L 640.459918 -140.816453 
L 649.11304 -142.015803 
L 656.608715 -143.960047 
L 663.220369 -144.096725 
L 669.134695 -145.73686 
L 674.484853 -146.42025 
L 679.369166 -146.42025 
L 683.862297 -146.693606 
L 688.022287 -146.556928 
L 691.895146 -146.830284 
L 695.517963 -146.830284 
L 698.921076 -146.966962 
L 702.129617 -147.10364 
L 705.164636 -149.153809 
L 708.043943 -148.880453 
L 710.782738 -148.880453 
L 713.394101 -148.880453 
L 715.889364 -149.290487 
L 718.278413 -149.700521 
L 720.569923 -149.290487 
L 722.771545 -149.290487 
L 724.890067 -150.383911 
L 726.931535 -150.725606 
L 728.901358 -150.793945 
L 730.804394 -152.434081 
L 732.645023 -152.570758 
L 734.42721 -152.570758 
L 736.154552 -154.620928 
L 737.830324 -154.757606 
L 739.457515 -155.304318 
L 741.038864 -155.85103 
L 742.576883 -156.602758 
L 744.073883 -155.85103 
L 745.531996 -158.994623 
L 746.95319 -158.994623 
L 748.33929 -159.814691 
L 749.691986 -160.224725 
L 751.012851 -160.634758 
L 752.303349 -160.634758 
L 753.564844 -161.044792 
L 754.798612 -161.796521 
L 756.005846 -161.18147 
L 757.187661 -161.86486 
L 758.345108 -162.54825 
L 759.47917 -162.54825 
L 760.590775 -162.54825 
L 761.680793 -162.54825 
L 762.750048 -163.91503 
L 763.799315 -164.325064 
L 764.829329 -164.325064 
L 764.829329 -176.899436 
L 764.829329 -176.899436 
L 763.799315 -172.935775 
L 762.750048 -174.029199 
L 761.680793 -174.029199 
L 760.590775 -174.029199 
L 759.47917 -174.029199 
L 758.345108 -174.029199 
L 757.187661 -171.910691 
L 756.005846 -173.892521 
L 754.798612 -173.345809 
L 753.564844 -171.568996 
L 752.303349 -171.432318 
L 751.012851 -171.432318 
L 749.691986 -170.61225 
L 748.33929 -171.432318 
L 746.95319 -171.432318 
L 745.531996 -169.92886 
L 744.073883 -169.92886 
L 742.576883 -169.92886 
L 741.038864 -169.92886 
L 739.457515 -169.92886 
L 737.830324 -169.92886 
L 736.154552 -169.92886 
L 734.42721 -169.92886 
L 732.645023 -169.92886 
L 730.804394 -169.92886 
L 728.901358 -169.92886 
L 726.931535 -168.152047 
L 724.890067 -167.26364 
L 722.771545 -168.288725 
L 720.569923 -168.152047 
L 718.278413 -165.965199 
L 715.889364 -165.828521 
L 713.394101 -165.828521 
L 710.782738 -165.828521 
L 708.043943 -165.418487 
L 705.164636 -165.145131 
L 702.129617 -165.008453 
L 698.921076 -164.120047 
L 695.517963 -165.008453 
L 691.895146 -165.008453 
L 688.022287 -159.951369 
L 683.862297 -159.951369 
L 679.369166 -159.951369 
L 674.484853 -159.951369 
L 669.134695 -159.951369 
L 663.220369 -159.814691 
L 656.608715 -158.242894 
L 649.11304 -156.124386 
L 640.459918 -156.397742 
L 630.225447 -153.937538 
L 617.699467 -151.887369 
L 601.55067 -150.110555 
L 578.790219 -148.880453 
L 539.880971 -142.183233 
L 53.328125 -49.65225 
z
" style="stroke: #1f77b4; stroke-opacity: 0.2"/>
    </defs>
    <g clip-path="url(#p63301ee816)">
     <use xlink:href="#m711e6931b7" x="0" y="325.986375" style="fill: #1f77b4; fill-opacity: 0.2; stroke: #1f77b4; stroke-opacity: 0.2"/>
    </g>
   </g>
   <g id="matplotlib.axis_1">
    <g id="xtick_1">
     <g id="line2d_1">
      <defs>
       <path id="me9de6b4b23" d="M 0 0 
L 0 3.5 
" style="stroke: #000000; stroke-width: 0.8"/>
      </defs>
      <g>
       <use xlink:href="#me9de6b4b23" x="53.328125" y="288.430125" style="stroke: #000000; stroke-width: 0.8"/>
      </g>
     </g>
     <g id="text_1">
      <!-- 0m -->
      <g transform="translate(45.276563 303.028562) scale(0.1 -0.1)">
       <defs>
        <path id="DejaVuSans-30" d="M 2034 4250 
Q 1547 4250 1301 3770 
Q 1056 3291 1056 2328 
Q 1056 1369 1301 889 
Q 1547 409 2034 409 
Q 2525 409 2770 889 
Q 3016 1369 3016 2328 
Q 3016 3291 2770 3770 
Q 2525 4250 2034 4250 
z
M 2034 4750 
Q 2819 4750 3233 4129 
Q 3647 3509 3647 2328 
Q 3647 1150 3233 529 
Q 2819 -91 2034 -91 
Q 1250 -91 836 529 
Q 422 1150 422 2328 
Q 422 3509 836 4129 
Q 1250 4750 2034 4750 
z
" transform="scale(0.015625)"/>
        <path id="DejaVuSans-6d" d="M 3328 2828 
Q 3544 3216 3844 3400 
Q 4144 3584 4550 3584 
Q 5097 3584 5394 3201 
Q 5691 2819 5691 2113 
L 5691 0 
L 5113 0 
L 5113 2094 
Q 5113 2597 4934 2840 
Q 4756 3084 4391 3084 
Q 3944 3084 3684 2787 
Q 3425 2491 3425 1978 
L 3425 0 
L 2847 0 
L 2847 2094 
Q 2847 2600 2669 2842 
Q 2491 3084 2119 3084 
Q 1678 3084 1418 2786 
Q 1159 2488 1159 1978 
L 1159 0 
L 581 0 
L 581 3500 
L 1159 3500 
L 1159 2956 
Q 1356 3278 1631 3431 
Q 1906 3584 2284 3584 
Q 2666 3584 2933 3390 
Q 3200 3197 3328 2828 
z
" transform="scale(0.015625)"/>
       </defs>
       <use xlink:href="#DejaVuSans-30"/>
       <use xlink:href="#DejaVuSans-6d" transform="translate(63.623047 0)"/>
      </g>
     </g>
    </g>
    <g id="xtick_2">
     <g id="line2d_2">
      <g>
       <use xlink:href="#me9de6b4b23" x="125.135749" y="288.430125" style="stroke: #000000; stroke-width: 0.8"/>
      </g>
     </g>
    </g>
    <g id="xtick_3">
     <g id="line2d_3">
      <g>
       <use xlink:href="#me9de6b4b23" x="218.713759" y="288.430125" style="stroke: #000000; stroke-width: 0.8"/>
      </g>
     </g>
    </g>
    <g id="xtick_4">
     <g id="line2d_4">
      <g>
       <use xlink:href="#me9de6b4b23" x="279.393393" y="288.430125" style="stroke: #000000; stroke-width: 0.8"/>
      </g>
     </g>
    </g>
    <g id="xtick_5">
     <g id="line2d_5">
      <g>
       <use xlink:href="#me9de6b4b23" x="340.073027" y="288.430125" style="stroke: #000000; stroke-width: 0.8"/>
      </g>
     </g>
    </g>
    <g id="xtick_6">
     <g id="line2d_6">
      <g>
       <use xlink:href="#me9de6b4b23" x="400.752661" y="288.430125" style="stroke: #000000; stroke-width: 0.8"/>
      </g>
     </g>
     <g id="text_2">
      <!-- 1m -->
      <g transform="translate(392.701098 303.028562) scale(0.1 -0.1)">
       <defs>
        <path id="DejaVuSans-31" d="M 794 531 
L 1825 531 
L 1825 4091 
L 703 3866 
L 703 4441 
L 1819 4666 
L 2450 4666 
L 2450 531 
L 3481 531 
L 3481 0 
L 794 0 
L 794 531 
z
" transform="scale(0.015625)"/>
       </defs>
       <use xlink:href="#DejaVuSans-31"/>
       <use xlink:href="#DejaVuSans-6d" transform="translate(63.623047 0)"/>
      </g>
     </g>
    </g>
    <g id="xtick_7">
     <g id="line2d_7">
      <g>
       <use xlink:href="#me9de6b4b23" x="461.432294" y="288.430125" style="stroke: #000000; stroke-width: 0.8"/>
      </g>
     </g>
     <g id="text_3">
      <!-- 3m -->
      <g transform="translate(453.380732 303.028562) scale(0.1 -0.1)">
       <defs>
        <path id="DejaVuSans-33" d="M 2597 2516 
Q 3050 2419 3304 2112 
Q 3559 1806 3559 1356 
Q 3559 666 3084 287 
Q 2609 -91 1734 -91 
Q 1441 -91 1130 -33 
Q 819 25 488 141 
L 488 750 
Q 750 597 1062 519 
Q 1375 441 1716 441 
Q 2309 441 2620 675 
Q 2931 909 2931 1356 
Q 2931 1769 2642 2001 
Q 2353 2234 1838 2234 
L 1294 2234 
L 1294 2753 
L 1863 2753 
Q 2328 2753 2575 2939 
Q 2822 3125 2822 3475 
Q 2822 3834 2567 4026 
Q 2313 4219 1838 4219 
Q 1578 4219 1281 4162 
Q 984 4106 628 3988 
L 628 4550 
Q 988 4650 1302 4700 
Q 1616 4750 1894 4750 
Q 2613 4750 3031 4423 
Q 3450 4097 3450 3541 
Q 3450 3153 3228 2886 
Q 3006 2619 2597 2516 
z
" transform="scale(0.015625)"/>
       </defs>
       <use xlink:href="#DejaVuSans-33"/>
       <use xlink:href="#DejaVuSans-6d" transform="translate(63.623047 0)"/>
      </g>
     </g>
    </g>
    <g id="xtick_8">
     <g id="line2d_8">
      <g>
       <use xlink:href="#me9de6b4b23" x="522.111928" y="288.430125" style="stroke: #000000; stroke-width: 0.8"/>
      </g>
     </g>
     <g id="text_4">
      <!-- 10m -->
      <g transform="translate(510.879116 303.028562) scale(0.1 -0.1)">
       <use xlink:href="#DejaVuSans-31"/>
       <use xlink:href="#DejaVuSans-30" transform="translate(63.623047 0)"/>
       <use xlink:href="#DejaVuSans-6d" transform="translate(127.246094 0)"/>
      </g>
     </g>
    </g>
    <g id="xtick_9">
     <g id="line2d_9">
      <g>
       <use xlink:href="#me9de6b4b23" x="582.791562" y="288.430125" style="stroke: #000000; stroke-width: 0.8"/>
      </g>
     </g>
     <g id="text_5">
      <!-- 32m -->
      <g transform="translate(571.558749 303.028562) scale(0.1 -0.1)">
       <defs>
        <path id="DejaVuSans-32" d="M 1228 531 
L 3431 531 
L 3431 0 
L 469 0 
L 469 531 
Q 828 903 1448 1529 
Q 2069 2156 2228 2338 
Q 2531 2678 2651 2914 
Q 2772 3150 2772 3378 
Q 2772 3750 2511 3984 
Q 2250 4219 1831 4219 
Q 1534 4219 1204 4116 
Q 875 4013 500 3803 
L 500 4441 
Q 881 4594 1212 4672 
Q 1544 4750 1819 4750 
Q 2544 4750 2975 4387 
Q 3406 4025 3406 3419 
Q 3406 3131 3298 2873 
Q 3191 2616 2906 2266 
Q 2828 2175 2409 1742 
Q 1991 1309 1228 531 
z
" transform="scale(0.015625)"/>
       </defs>
       <use xlink:href="#DejaVuSans-33"/>
       <use xlink:href="#DejaVuSans-32" transform="translate(63.623047 0)"/>
       <use xlink:href="#DejaVuSans-6d" transform="translate(127.246094 0)"/>
      </g>
     </g>
    </g>
    <g id="xtick_10">
     <g id="line2d_10">
      <g>
       <use xlink:href="#me9de6b4b23" x="643.471196" y="288.430125" style="stroke: #000000; stroke-width: 0.8"/>
      </g>
     </g>
     <g id="text_6">
      <!-- 1h:34m -->
      <g transform="translate(624.204008 303.028562) scale(0.1 -0.1)">
       <defs>
        <path id="DejaVuSans-68" d="M 3513 2113 
L 3513 0 
L 2938 0 
L 2938 2094 
Q 2938 2591 2744 2837 
Q 2550 3084 2163 3084 
Q 1697 3084 1428 2787 
Q 1159 2491 1159 1978 
L 1159 0 
L 581 0 
L 581 4863 
L 1159 4863 
L 1159 2956 
Q 1366 3272 1645 3428 
Q 1925 3584 2291 3584 
Q 2894 3584 3203 3211 
Q 3513 2838 3513 2113 
z
" transform="scale(0.015625)"/>
        <path id="DejaVuSans-3a" d="M 750 794 
L 1409 794 
L 1409 0 
L 750 0 
L 750 794 
z
M 750 3309 
L 1409 3309 
L 1409 2516 
L 750 2516 
L 750 3309 
z
" transform="scale(0.015625)"/>
        <path id="DejaVuSans-34" d="M 2419 4116 
L 825 1625 
L 2419 1625 
L 2419 4116 
z
M 2253 4666 
L 3047 4666 
L 3047 1625 
L 3713 1625 
L 3713 1100 
L 3047 1100 
L 3047 0 
L 2419 0 
L 2419 1100 
L 313 1100 
L 313 1709 
L 2253 4666 
z
" transform="scale(0.015625)"/>
       </defs>
       <use xlink:href="#DejaVuSans-31"/>
       <use xlink:href="#DejaVuSans-68" transform="translate(63.623047 0)"/>
       <use xlink:href="#DejaVuSans-3a" transform="translate(127.001953 0)"/>
       <use xlink:href="#DejaVuSans-33" transform="translate(160.693359 0)"/>
       <use xlink:href="#DejaVuSans-34" transform="translate(224.316406 0)"/>
       <use xlink:href="#DejaVuSans-6d" transform="translate(287.939453 0)"/>
      </g>
     </g>
    </g>
    <g id="xtick_11">
     <g id="line2d_11">
      <g>
       <use xlink:href="#me9de6b4b23" x="704.150829" y="288.430125" style="stroke: #000000; stroke-width: 0.8"/>
      </g>
     </g>
     <g id="text_7">
      <!-- 4h:39m -->
      <g transform="translate(684.883642 303.028562) scale(0.1 -0.1)">
       <defs>
        <path id="DejaVuSans-39" d="M 703 97 
L 703 672 
Q 941 559 1184 500 
Q 1428 441 1663 441 
Q 2288 441 2617 861 
Q 2947 1281 2994 2138 
Q 2813 1869 2534 1725 
Q 2256 1581 1919 1581 
Q 1219 1581 811 2004 
Q 403 2428 403 3163 
Q 403 3881 828 4315 
Q 1253 4750 1959 4750 
Q 2769 4750 3195 4129 
Q 3622 3509 3622 2328 
Q 3622 1225 3098 567 
Q 2575 -91 1691 -91 
Q 1453 -91 1209 -44 
Q 966 3 703 97 
z
M 1959 2075 
Q 2384 2075 2632 2365 
Q 2881 2656 2881 3163 
Q 2881 3666 2632 3958 
Q 2384 4250 1959 4250 
Q 1534 4250 1286 3958 
Q 1038 3666 1038 3163 
Q 1038 2656 1286 2365 
Q 1534 2075 1959 2075 
z
" transform="scale(0.015625)"/>
       </defs>
       <use xlink:href="#DejaVuSans-34"/>
       <use xlink:href="#DejaVuSans-68" transform="translate(63.623047 0)"/>
       <use xlink:href="#DejaVuSans-3a" transform="translate(127.001953 0)"/>
       <use xlink:href="#DejaVuSans-33" transform="translate(160.693359 0)"/>
       <use xlink:href="#DejaVuSans-39" transform="translate(224.316406 0)"/>
       <use xlink:href="#DejaVuSans-6d" transform="translate(287.939453 0)"/>
      </g>
     </g>
    </g>
    <g id="xtick_12">
     <g id="line2d_12">
      <g>
       <use xlink:href="#me9de6b4b23" x="764.830463" y="288.430125" style="stroke: #000000; stroke-width: 0.8"/>
      </g>
     </g>
     <g id="text_8">
      <!-- 13h:45m -->
      <g transform="translate(742.382026 303.028562) scale(0.1 -0.1)">
       <defs>
        <path id="DejaVuSans-35" d="M 691 4666 
L 3169 4666 
L 3169 4134 
L 1269 4134 
L 1269 2991 
Q 1406 3038 1543 3061 
Q 1681 3084 1819 3084 
Q 2600 3084 3056 2656 
Q 3513 2228 3513 1497 
Q 3513 744 3044 326 
Q 2575 -91 1722 -91 
Q 1428 -91 1123 -41 
Q 819 9 494 109 
L 494 744 
Q 775 591 1075 516 
Q 1375 441 1709 441 
Q 2250 441 2565 725 
Q 2881 1009 2881 1497 
Q 2881 1984 2565 2268 
Q 2250 2553 1709 2553 
Q 1456 2553 1204 2497 
Q 953 2441 691 2322 
L 691 4666 
z
" transform="scale(0.015625)"/>
       </defs>
       <use xlink:href="#DejaVuSans-31"/>
       <use xlink:href="#DejaVuSans-33" transform="translate(63.623047 0)"/>
       <use xlink:href="#DejaVuSans-68" transform="translate(127.246094 0)"/>
       <use xlink:href="#DejaVuSans-3a" transform="translate(190.625 0)"/>
       <use xlink:href="#DejaVuSans-34" transform="translate(224.316406 0)"/>
       <use xlink:href="#DejaVuSans-35" transform="translate(287.939453 0)"/>
       <use xlink:href="#DejaVuSans-6d" transform="translate(351.5625 0)"/>
      </g>
     </g>
    </g>
    <g id="text_9">
     <!-- Time (hour:minute) -->
     <g transform="translate(362.041094 316.706687) scale(0.1 -0.1)">
      <defs>
       <path id="DejaVuSans-54" d="M -19 4666 
L 3928 4666 
L 3928 4134 
L 2272 4134 
L 2272 0 
L 1638 0 
L 1638 4134 
L -19 4134 
L -19 4666 
z
" transform="scale(0.015625)"/>
       <path id="DejaVuSans-69" d="M 603 3500 
L 1178 3500 
L 1178 0 
L 603 0 
L 603 3500 
z
M 603 4863 
L 1178 4863 
L 1178 4134 
L 603 4134 
L 603 4863 
z
" transform="scale(0.015625)"/>
       <path id="DejaVuSans-65" d="M 3597 1894 
L 3597 1613 
L 953 1613 
Q 991 1019 1311 708 
Q 1631 397 2203 397 
Q 2534 397 2845 478 
Q 3156 559 3463 722 
L 3463 178 
Q 3153 47 2828 -22 
Q 2503 -91 2169 -91 
Q 1331 -91 842 396 
Q 353 884 353 1716 
Q 353 2575 817 3079 
Q 1281 3584 2069 3584 
Q 2775 3584 3186 3129 
Q 3597 2675 3597 1894 
z
M 3022 2063 
Q 3016 2534 2758 2815 
Q 2500 3097 2075 3097 
Q 1594 3097 1305 2825 
Q 1016 2553 972 2059 
L 3022 2063 
z
" transform="scale(0.015625)"/>
       <path id="DejaVuSans-20" transform="scale(0.015625)"/>
       <path id="DejaVuSans-28" d="M 1984 4856 
Q 1566 4138 1362 3434 
Q 1159 2731 1159 2009 
Q 1159 1288 1364 580 
Q 1569 -128 1984 -844 
L 1484 -844 
Q 1016 -109 783 600 
Q 550 1309 550 2009 
Q 550 2706 781 3412 
Q 1013 4119 1484 4856 
L 1984 4856 
z
" transform="scale(0.015625)"/>
       <path id="DejaVuSans-6f" d="M 1959 3097 
Q 1497 3097 1228 2736 
Q 959 2375 959 1747 
Q 959 1119 1226 758 
Q 1494 397 1959 397 
Q 2419 397 2687 759 
Q 2956 1122 2956 1747 
Q 2956 2369 2687 2733 
Q 2419 3097 1959 3097 
z
M 1959 3584 
Q 2709 3584 3137 3096 
Q 3566 2609 3566 1747 
Q 3566 888 3137 398 
Q 2709 -91 1959 -91 
Q 1206 -91 779 398 
Q 353 888 353 1747 
Q 353 2609 779 3096 
Q 1206 3584 1959 3584 
z
" transform="scale(0.015625)"/>
       <path id="DejaVuSans-75" d="M 544 1381 
L 544 3500 
L 1119 3500 
L 1119 1403 
Q 1119 906 1312 657 
Q 1506 409 1894 409 
Q 2359 409 2629 706 
Q 2900 1003 2900 1516 
L 2900 3500 
L 3475 3500 
L 3475 0 
L 2900 0 
L 2900 538 
Q 2691 219 2414 64 
Q 2138 -91 1772 -91 
Q 1169 -91 856 284 
Q 544 659 544 1381 
z
M 1991 3584 
L 1991 3584 
z
" transform="scale(0.015625)"/>
       <path id="DejaVuSans-72" d="M 2631 2963 
Q 2534 3019 2420 3045 
Q 2306 3072 2169 3072 
Q 1681 3072 1420 2755 
Q 1159 2438 1159 1844 
L 1159 0 
L 581 0 
L 581 3500 
L 1159 3500 
L 1159 2956 
Q 1341 3275 1631 3429 
Q 1922 3584 2338 3584 
Q 2397 3584 2469 3576 
Q 2541 3569 2628 3553 
L 2631 2963 
z
" transform="scale(0.015625)"/>
       <path id="DejaVuSans-6e" d="M 3513 2113 
L 3513 0 
L 2938 0 
L 2938 2094 
Q 2938 2591 2744 2837 
Q 2550 3084 2163 3084 
Q 1697 3084 1428 2787 
Q 1159 2491 1159 1978 
L 1159 0 
L 581 0 
L 581 3500 
L 1159 3500 
L 1159 2956 
Q 1366 3272 1645 3428 
Q 1925 3584 2291 3584 
Q 2894 3584 3203 3211 
Q 3513 2838 3513 2113 
z
" transform="scale(0.015625)"/>
       <path id="DejaVuSans-74" d="M 1172 4494 
L 1172 3500 
L 2356 3500 
L 2356 3053 
L 1172 3053 
L 1172 1153 
Q 1172 725 1289 603 
Q 1406 481 1766 481 
L 2356 481 
L 2356 0 
L 1766 0 
Q 1100 0 847 248 
Q 594 497 594 1153 
L 594 3053 
L 172 3053 
L 172 3500 
L 594 3500 
L 594 4494 
L 1172 4494 
z
" transform="scale(0.015625)"/>
       <path id="DejaVuSans-29" d="M 513 4856 
L 1013 4856 
Q 1481 4119 1714 3412 
Q 1947 2706 1947 2009 
Q 1947 1309 1714 600 
Q 1481 -109 1013 -844 
L 513 -844 
Q 928 -128 1133 580 
Q 1338 1288 1338 2009 
Q 1338 2731 1133 3434 
Q 928 4138 513 4856 
z
" transform="scale(0.015625)"/>
      </defs>
      <use xlink:href="#DejaVuSans-54"/>
      <use xlink:href="#DejaVuSans-69" transform="translate(57.958984 0)"/>
      <use xlink:href="#DejaVuSans-6d" transform="translate(85.742188 0)"/>
      <use xlink:href="#DejaVuSans-65" transform="translate(183.154297 0)"/>
      <use xlink:href="#DejaVuSans-20" transform="translate(244.677734 0)"/>
      <use xlink:href="#DejaVuSans-28" transform="translate(276.464844 0)"/>
      <use xlink:href="#DejaVuSans-68" transform="translate(315.478516 0)"/>
      <use xlink:href="#DejaVuSans-6f" transform="translate(378.857422 0)"/>
      <use xlink:href="#DejaVuSans-75" transform="translate(440.039062 0)"/>
      <use xlink:href="#DejaVuSans-72" transform="translate(503.417969 0)"/>
      <use xlink:href="#DejaVuSans-3a" transform="translate(542.78125 0)"/>
      <use xlink:href="#DejaVuSans-6d" transform="translate(576.472656 0)"/>
      <use xlink:href="#DejaVuSans-69" transform="translate(673.884766 0)"/>
      <use xlink:href="#DejaVuSans-6e" transform="translate(701.667969 0)"/>
      <use xlink:href="#DejaVuSans-75" transform="translate(765.046875 0)"/>
      <use xlink:href="#DejaVuSans-74" transform="translate(828.425781 0)"/>
      <use xlink:href="#DejaVuSans-65" transform="translate(867.634766 0)"/>
      <use xlink:href="#DejaVuSans-29" transform="translate(929.158203 0)"/>
     </g>
    </g>
   </g>
   <g id="matplotlib.axis_2">
    <g id="ytick_1">
     <g id="line2d_13">
      <defs>
       <path id="m003d0c1257" d="M 0 0 
L -3.5 0 
" style="stroke: #000000; stroke-width: 0.8"/>
      </defs>
      <g>
       <use xlink:href="#m003d0c1257" x="53.328125" y="256.925854" style="stroke: #000000; stroke-width: 0.8"/>
      </g>
     </g>
     <g id="text_10">
      <!-- 2000 -->
      <g transform="translate(20.878125 260.725073) scale(0.1 -0.1)">
       <use xlink:href="#DejaVuSans-32"/>
       <use xlink:href="#DejaVuSans-30" transform="translate(63.623047 0)"/>
       <use xlink:href="#DejaVuSans-30" transform="translate(127.246094 0)"/>
       <use xlink:href="#DejaVuSans-30" transform="translate(190.869141 0)"/>
      </g>
     </g>
    </g>
    <g id="ytick_2">
     <g id="line2d_14">
      <g>
       <use xlink:href="#m003d0c1257" x="53.328125" y="222.756362" style="stroke: #000000; stroke-width: 0.8"/>
      </g>
     </g>
     <g id="text_11">
      <!-- 2250 -->
      <g transform="translate(20.878125 226.555581) scale(0.1 -0.1)">
       <use xlink:href="#DejaVuSans-32"/>
       <use xlink:href="#DejaVuSans-32" transform="translate(63.623047 0)"/>
       <use xlink:href="#DejaVuSans-35" transform="translate(127.246094 0)"/>
       <use xlink:href="#DejaVuSans-30" transform="translate(190.869141 0)"/>
      </g>
     </g>
    </g>
    <g id="ytick_3">
     <g id="line2d_15">
      <g>
       <use xlink:href="#m003d0c1257" x="53.328125" y="188.586871" style="stroke: #000000; stroke-width: 0.8"/>
      </g>
     </g>
     <g id="text_12">
      <!-- 2500 -->
      <g transform="translate(20.878125 192.38609) scale(0.1 -0.1)">
       <use xlink:href="#DejaVuSans-32"/>
       <use xlink:href="#DejaVuSans-35" transform="translate(63.623047 0)"/>
       <use xlink:href="#DejaVuSans-30" transform="translate(127.246094 0)"/>
       <use xlink:href="#DejaVuSans-30" transform="translate(190.869141 0)"/>
      </g>
     </g>
    </g>
    <g id="ytick_4">
     <g id="line2d_16">
      <g>
       <use xlink:href="#m003d0c1257" x="53.328125" y="154.417379" style="stroke: #000000; stroke-width: 0.8"/>
      </g>
     </g>
     <g id="text_13">
      <!-- 2750 -->
      <g transform="translate(20.878125 158.216598) scale(0.1 -0.1)">
       <defs>
        <path id="DejaVuSans-37" d="M 525 4666 
L 3525 4666 
L 3525 4397 
L 1831 0 
L 1172 0 
L 2766 4134 
L 525 4134 
L 525 4666 
z
" transform="scale(0.015625)"/>
       </defs>
       <use xlink:href="#DejaVuSans-32"/>
       <use xlink:href="#DejaVuSans-37" transform="translate(63.623047 0)"/>
       <use xlink:href="#DejaVuSans-35" transform="translate(127.246094 0)"/>
       <use xlink:href="#DejaVuSans-30" transform="translate(190.869141 0)"/>
      </g>
     </g>
    </g>
    <g id="ytick_5">
     <g id="line2d_17">
      <g>
       <use xlink:href="#m003d0c1257" x="53.328125" y="120.247888" style="stroke: #000000; stroke-width: 0.8"/>
      </g>
     </g>
     <g id="text_14">
      <!-- 3000 -->
      <g transform="translate(20.878125 124.047106) scale(0.1 -0.1)">
       <use xlink:href="#DejaVuSans-33"/>
       <use xlink:href="#DejaVuSans-30" transform="translate(63.623047 0)"/>
       <use xlink:href="#DejaVuSans-30" transform="translate(127.246094 0)"/>
       <use xlink:href="#DejaVuSans-30" transform="translate(190.869141 0)"/>
      </g>
     </g>
    </g>
    <g id="ytick_6">
     <g id="line2d_18">
      <g>
       <use xlink:href="#m003d0c1257" x="53.328125" y="86.078396" style="stroke: #000000; stroke-width: 0.8"/>
      </g>
     </g>
     <g id="text_15">
      <!-- 3250 -->
      <g transform="translate(20.878125 89.877615) scale(0.1 -0.1)">
       <use xlink:href="#DejaVuSans-33"/>
       <use xlink:href="#DejaVuSans-32" transform="translate(63.623047 0)"/>
       <use xlink:href="#DejaVuSans-35" transform="translate(127.246094 0)"/>
       <use xlink:href="#DejaVuSans-30" transform="translate(190.869141 0)"/>
      </g>
     </g>
    </g>
    <g id="ytick_7">
     <g id="line2d_19">
      <g>
       <use xlink:href="#m003d0c1257" x="53.328125" y="51.908905" style="stroke: #000000; stroke-width: 0.8"/>
      </g>
     </g>
     <g id="text_16">
      <!-- 3500 -->
      <g transform="translate(20.878125 55.708123) scale(0.1 -0.1)">
       <use xlink:href="#DejaVuSans-33"/>
       <use xlink:href="#DejaVuSans-35" transform="translate(63.623047 0)"/>
       <use xlink:href="#DejaVuSans-30" transform="translate(127.246094 0)"/>
       <use xlink:href="#DejaVuSans-30" transform="translate(190.869141 0)"/>
      </g>
     </g>
    </g>
    <g id="text_17">
     <!-- Code branch coverage -->
     <g transform="translate(14.798438 211.949125) rotate(-90) scale(0.1 -0.1)">
      <defs>
       <path id="DejaVuSans-43" d="M 4122 4306 
L 4122 3641 
Q 3803 3938 3442 4084 
Q 3081 4231 2675 4231 
Q 1875 4231 1450 3742 
Q 1025 3253 1025 2328 
Q 1025 1406 1450 917 
Q 1875 428 2675 428 
Q 3081 428 3442 575 
Q 3803 722 4122 1019 
L 4122 359 
Q 3791 134 3420 21 
Q 3050 -91 2638 -91 
Q 1578 -91 968 557 
Q 359 1206 359 2328 
Q 359 3453 968 4101 
Q 1578 4750 2638 4750 
Q 3056 4750 3426 4639 
Q 3797 4528 4122 4306 
z
" transform="scale(0.015625)"/>
       <path id="DejaVuSans-64" d="M 2906 2969 
L 2906 4863 
L 3481 4863 
L 3481 0 
L 2906 0 
L 2906 525 
Q 2725 213 2448 61 
Q 2172 -91 1784 -91 
Q 1150 -91 751 415 
Q 353 922 353 1747 
Q 353 2572 751 3078 
Q 1150 3584 1784 3584 
Q 2172 3584 2448 3432 
Q 2725 3281 2906 2969 
z
M 947 1747 
Q 947 1113 1208 752 
Q 1469 391 1925 391 
Q 2381 391 2643 752 
Q 2906 1113 2906 1747 
Q 2906 2381 2643 2742 
Q 2381 3103 1925 3103 
Q 1469 3103 1208 2742 
Q 947 2381 947 1747 
z
" transform="scale(0.015625)"/>
       <path id="DejaVuSans-62" d="M 3116 1747 
Q 3116 2381 2855 2742 
Q 2594 3103 2138 3103 
Q 1681 3103 1420 2742 
Q 1159 2381 1159 1747 
Q 1159 1113 1420 752 
Q 1681 391 2138 391 
Q 2594 391 2855 752 
Q 3116 1113 3116 1747 
z
M 1159 2969 
Q 1341 3281 1617 3432 
Q 1894 3584 2278 3584 
Q 2916 3584 3314 3078 
Q 3713 2572 3713 1747 
Q 3713 922 3314 415 
Q 2916 -91 2278 -91 
Q 1894 -91 1617 61 
Q 1341 213 1159 525 
L 1159 0 
L 581 0 
L 581 4863 
L 1159 4863 
L 1159 2969 
z
" transform="scale(0.015625)"/>
       <path id="DejaVuSans-61" d="M 2194 1759 
Q 1497 1759 1228 1600 
Q 959 1441 959 1056 
Q 959 750 1161 570 
Q 1363 391 1709 391 
Q 2188 391 2477 730 
Q 2766 1069 2766 1631 
L 2766 1759 
L 2194 1759 
z
M 3341 1997 
L 3341 0 
L 2766 0 
L 2766 531 
Q 2569 213 2275 61 
Q 1981 -91 1556 -91 
Q 1019 -91 701 211 
Q 384 513 384 1019 
Q 384 1609 779 1909 
Q 1175 2209 1959 2209 
L 2766 2209 
L 2766 2266 
Q 2766 2663 2505 2880 
Q 2244 3097 1772 3097 
Q 1472 3097 1187 3025 
Q 903 2953 641 2809 
L 641 3341 
Q 956 3463 1253 3523 
Q 1550 3584 1831 3584 
Q 2591 3584 2966 3190 
Q 3341 2797 3341 1997 
z
" transform="scale(0.015625)"/>
       <path id="DejaVuSans-63" d="M 3122 3366 
L 3122 2828 
Q 2878 2963 2633 3030 
Q 2388 3097 2138 3097 
Q 1578 3097 1268 2742 
Q 959 2388 959 1747 
Q 959 1106 1268 751 
Q 1578 397 2138 397 
Q 2388 397 2633 464 
Q 2878 531 3122 666 
L 3122 134 
Q 2881 22 2623 -34 
Q 2366 -91 2075 -91 
Q 1284 -91 818 406 
Q 353 903 353 1747 
Q 353 2603 823 3093 
Q 1294 3584 2113 3584 
Q 2378 3584 2631 3529 
Q 2884 3475 3122 3366 
z
" transform="scale(0.015625)"/>
       <path id="DejaVuSans-76" d="M 191 3500 
L 800 3500 
L 1894 563 
L 2988 3500 
L 3597 3500 
L 2284 0 
L 1503 0 
L 191 3500 
z
" transform="scale(0.015625)"/>
       <path id="DejaVuSans-67" d="M 2906 1791 
Q 2906 2416 2648 2759 
Q 2391 3103 1925 3103 
Q 1463 3103 1205 2759 
Q 947 2416 947 1791 
Q 947 1169 1205 825 
Q 1463 481 1925 481 
Q 2391 481 2648 825 
Q 2906 1169 2906 1791 
z
M 3481 434 
Q 3481 -459 3084 -895 
Q 2688 -1331 1869 -1331 
Q 1566 -1331 1297 -1286 
Q 1028 -1241 775 -1147 
L 775 -588 
Q 1028 -725 1275 -790 
Q 1522 -856 1778 -856 
Q 2344 -856 2625 -561 
Q 2906 -266 2906 331 
L 2906 616 
Q 2728 306 2450 153 
Q 2172 0 1784 0 
Q 1141 0 747 490 
Q 353 981 353 1791 
Q 353 2603 747 3093 
Q 1141 3584 1784 3584 
Q 2172 3584 2450 3431 
Q 2728 3278 2906 2969 
L 2906 3500 
L 3481 3500 
L 3481 434 
z
" transform="scale(0.015625)"/>
      </defs>
      <use xlink:href="#DejaVuSans-43"/>
      <use xlink:href="#DejaVuSans-6f" transform="translate(69.824219 0)"/>
      <use xlink:href="#DejaVuSans-64" transform="translate(131.005859 0)"/>
      <use xlink:href="#DejaVuSans-65" transform="translate(194.482422 0)"/>
      <use xlink:href="#DejaVuSans-20" transform="translate(256.005859 0)"/>
      <use xlink:href="#DejaVuSans-62" transform="translate(287.792969 0)"/>
      <use xlink:href="#DejaVuSans-72" transform="translate(351.269531 0)"/>
      <use xlink:href="#DejaVuSans-61" transform="translate(392.382812 0)"/>
      <use xlink:href="#DejaVuSans-6e" transform="translate(453.662109 0)"/>
      <use xlink:href="#DejaVuSans-63" transform="translate(517.041016 0)"/>
      <use xlink:href="#DejaVuSans-68" transform="translate(572.021484 0)"/>
      <use xlink:href="#DejaVuSans-20" transform="translate(635.400391 0)"/>
      <use xlink:href="#DejaVuSans-63" transform="translate(667.1875 0)"/>
      <use xlink:href="#DejaVuSans-6f" transform="translate(722.167969 0)"/>
      <use xlink:href="#DejaVuSans-76" transform="translate(783.349609 0)"/>
      <use xlink:href="#DejaVuSans-65" transform="translate(842.529297 0)"/>
      <use xlink:href="#DejaVuSans-72" transform="translate(904.052734 0)"/>
      <use xlink:href="#DejaVuSans-61" transform="translate(945.166016 0)"/>
      <use xlink:href="#DejaVuSans-67" transform="translate(1006.445312 0)"/>
      <use xlink:href="#DejaVuSans-65" transform="translate(1069.921875 0)"/>
     </g>
    </g>
   </g>
   <g id="line2d_20">
    <path d="M 53.328125 276.334125 
L 539.880971 184.213176 
L 578.790219 180.112837 
L 601.55067 173.962328 
L 617.699467 169.998667 
L 630.225447 169.588633 
L 640.459918 168.49521 
L 649.11304 167.948498 
L 656.608715 166.991752 
L 663.220369 166.035006 
L 669.134695 164.941583 
L 674.484853 164.941583 
L 679.369166 164.258193 
L 683.862297 164.258193 
L 688.022287 163.984837 
L 691.895146 162.754735 
L 695.517963 162.618057 
L 698.921076 162.618057 
L 702.129617 162.071345 
L 705.164636 161.797989 
L 708.043943 159.06443 
L 710.782738 159.06443 
L 713.394101 159.06443 
L 715.889364 159.06443 
L 718.278413 157.69765 
L 720.569923 156.877583 
L 722.771545 156.604227 
L 724.890067 156.194193 
L 726.931535 156.194193 
L 728.901358 156.194193 
L 730.804394 156.194193 
L 732.645023 156.057515 
L 734.42721 156.057515 
L 736.154552 156.057515 
L 737.830324 156.057515 
L 739.457515 155.237447 
L 741.038864 155.237447 
L 742.576883 154.690735 
L 744.073883 153.870667 
L 745.531996 153.870667 
L 746.95319 153.733989 
L 748.33929 153.733989 
L 749.691986 152.230532 
L 751.012851 152.230532 
L 752.303349 152.230532 
L 753.564844 152.230532 
L 754.798612 151.820498 
L 756.005846 151.00043 
L 757.187661 151.00043 
L 758.345108 149.907006 
L 759.47917 149.907006 
L 760.590775 149.907006 
L 761.680793 149.907006 
L 762.750048 149.907006 
L 763.799315 149.907006 
L 764.829329 149.907006 
" clip-path="url(#p63301ee816)" style="fill: none; stroke: #98df8a; stroke-width: 1.5; stroke-linecap: square"/>
    <defs>
     <path id="m34dedd4cc6" d="M -0 3 
L 3 -3 
L -3 -3 
z
" style="stroke: #ffffff; stroke-width: 0.75; stroke-linejoin: miter"/>
    </defs>
    <g clip-path="url(#p63301ee816)">
     <use xlink:href="#m34dedd4cc6" x="53.328125" y="276.334125" style="fill: #98df8a; stroke: #ffffff; stroke-width: 0.75; stroke-linejoin: miter"/>
     <use xlink:href="#m34dedd4cc6" x="539.880971" y="184.213176" style="fill: #98df8a; stroke: #ffffff; stroke-width: 0.75; stroke-linejoin: miter"/>
     <use xlink:href="#m34dedd4cc6" x="578.790219" y="180.112837" style="fill: #98df8a; stroke: #ffffff; stroke-width: 0.75; stroke-linejoin: miter"/>
     <use xlink:href="#m34dedd4cc6" x="601.55067" y="173.962328" style="fill: #98df8a; stroke: #ffffff; stroke-width: 0.75; stroke-linejoin: miter"/>
     <use xlink:href="#m34dedd4cc6" x="617.699467" y="169.998667" style="fill: #98df8a; stroke: #ffffff; stroke-width: 0.75; stroke-linejoin: miter"/>
     <use xlink:href="#m34dedd4cc6" x="630.225447" y="169.588633" style="fill: #98df8a; stroke: #ffffff; stroke-width: 0.75; stroke-linejoin: miter"/>
     <use xlink:href="#m34dedd4cc6" x="640.459918" y="168.49521" style="fill: #98df8a; stroke: #ffffff; stroke-width: 0.75; stroke-linejoin: miter"/>
     <use xlink:href="#m34dedd4cc6" x="649.11304" y="167.948498" style="fill: #98df8a; stroke: #ffffff; stroke-width: 0.75; stroke-linejoin: miter"/>
     <use xlink:href="#m34dedd4cc6" x="656.608715" y="166.991752" style="fill: #98df8a; stroke: #ffffff; stroke-width: 0.75; stroke-linejoin: miter"/>
     <use xlink:href="#m34dedd4cc6" x="663.220369" y="166.035006" style="fill: #98df8a; stroke: #ffffff; stroke-width: 0.75; stroke-linejoin: miter"/>
     <use xlink:href="#m34dedd4cc6" x="669.134695" y="164.941583" style="fill: #98df8a; stroke: #ffffff; stroke-width: 0.75; stroke-linejoin: miter"/>
     <use xlink:href="#m34dedd4cc6" x="674.484853" y="164.941583" style="fill: #98df8a; stroke: #ffffff; stroke-width: 0.75; stroke-linejoin: miter"/>
     <use xlink:href="#m34dedd4cc6" x="679.369166" y="164.258193" style="fill: #98df8a; stroke: #ffffff; stroke-width: 0.75; stroke-linejoin: miter"/>
     <use xlink:href="#m34dedd4cc6" x="683.862297" y="164.258193" style="fill: #98df8a; stroke: #ffffff; stroke-width: 0.75; stroke-linejoin: miter"/>
     <use xlink:href="#m34dedd4cc6" x="688.022287" y="163.984837" style="fill: #98df8a; stroke: #ffffff; stroke-width: 0.75; stroke-linejoin: miter"/>
     <use xlink:href="#m34dedd4cc6" x="691.895146" y="162.754735" style="fill: #98df8a; stroke: #ffffff; stroke-width: 0.75; stroke-linejoin: miter"/>
     <use xlink:href="#m34dedd4cc6" x="695.517963" y="162.618057" style="fill: #98df8a; stroke: #ffffff; stroke-width: 0.75; stroke-linejoin: miter"/>
     <use xlink:href="#m34dedd4cc6" x="698.921076" y="162.618057" style="fill: #98df8a; stroke: #ffffff; stroke-width: 0.75; stroke-linejoin: miter"/>
     <use xlink:href="#m34dedd4cc6" x="702.129617" y="162.071345" style="fill: #98df8a; stroke: #ffffff; stroke-width: 0.75; stroke-linejoin: miter"/>
     <use xlink:href="#m34dedd4cc6" x="705.164636" y="161.797989" style="fill: #98df8a; stroke: #ffffff; stroke-width: 0.75; stroke-linejoin: miter"/>
     <use xlink:href="#m34dedd4cc6" x="708.043943" y="159.06443" style="fill: #98df8a; stroke: #ffffff; stroke-width: 0.75; stroke-linejoin: miter"/>
     <use xlink:href="#m34dedd4cc6" x="710.782738" y="159.06443" style="fill: #98df8a; stroke: #ffffff; stroke-width: 0.75; stroke-linejoin: miter"/>
     <use xlink:href="#m34dedd4cc6" x="713.394101" y="159.06443" style="fill: #98df8a; stroke: #ffffff; stroke-width: 0.75; stroke-linejoin: miter"/>
     <use xlink:href="#m34dedd4cc6" x="715.889364" y="159.06443" style="fill: #98df8a; stroke: #ffffff; stroke-width: 0.75; stroke-linejoin: miter"/>
     <use xlink:href="#m34dedd4cc6" x="718.278413" y="157.69765" style="fill: #98df8a; stroke: #ffffff; stroke-width: 0.75; stroke-linejoin: miter"/>
     <use xlink:href="#m34dedd4cc6" x="720.569923" y="156.877583" style="fill: #98df8a; stroke: #ffffff; stroke-width: 0.75; stroke-linejoin: miter"/>
     <use xlink:href="#m34dedd4cc6" x="722.771545" y="156.604227" style="fill: #98df8a; stroke: #ffffff; stroke-width: 0.75; stroke-linejoin: miter"/>
     <use xlink:href="#m34dedd4cc6" x="724.890067" y="156.194193" style="fill: #98df8a; stroke: #ffffff; stroke-width: 0.75; stroke-linejoin: miter"/>
     <use xlink:href="#m34dedd4cc6" x="726.931535" y="156.194193" style="fill: #98df8a; stroke: #ffffff; stroke-width: 0.75; stroke-linejoin: miter"/>
     <use xlink:href="#m34dedd4cc6" x="728.901358" y="156.194193" style="fill: #98df8a; stroke: #ffffff; stroke-width: 0.75; stroke-linejoin: miter"/>
     <use xlink:href="#m34dedd4cc6" x="730.804394" y="156.194193" style="fill: #98df8a; stroke: #ffffff; stroke-width: 0.75; stroke-linejoin: miter"/>
     <use xlink:href="#m34dedd4cc6" x="732.645023" y="156.057515" style="fill: #98df8a; stroke: #ffffff; stroke-width: 0.75; stroke-linejoin: miter"/>
     <use xlink:href="#m34dedd4cc6" x="734.42721" y="156.057515" style="fill: #98df8a; stroke: #ffffff; stroke-width: 0.75; stroke-linejoin: miter"/>
     <use xlink:href="#m34dedd4cc6" x="736.154552" y="156.057515" style="fill: #98df8a; stroke: #ffffff; stroke-width: 0.75; stroke-linejoin: miter"/>
     <use xlink:href="#m34dedd4cc6" x="737.830324" y="156.057515" style="fill: #98df8a; stroke: #ffffff; stroke-width: 0.75; stroke-linejoin: miter"/>
     <use xlink:href="#m34dedd4cc6" x="739.457515" y="155.237447" style="fill: #98df8a; stroke: #ffffff; stroke-width: 0.75; stroke-linejoin: miter"/>
     <use xlink:href="#m34dedd4cc6" x="741.038864" y="155.237447" style="fill: #98df8a; stroke: #ffffff; stroke-width: 0.75; stroke-linejoin: miter"/>
     <use xlink:href="#m34dedd4cc6" x="742.576883" y="154.690735" style="fill: #98df8a; stroke: #ffffff; stroke-width: 0.75; stroke-linejoin: miter"/>
     <use xlink:href="#m34dedd4cc6" x="744.073883" y="153.870667" style="fill: #98df8a; stroke: #ffffff; stroke-width: 0.75; stroke-linejoin: miter"/>
     <use xlink:href="#m34dedd4cc6" x="745.531996" y="153.870667" style="fill: #98df8a; stroke: #ffffff; stroke-width: 0.75; stroke-linejoin: miter"/>
     <use xlink:href="#m34dedd4cc6" x="746.95319" y="153.733989" style="fill: #98df8a; stroke: #ffffff; stroke-width: 0.75; stroke-linejoin: miter"/>
     <use xlink:href="#m34dedd4cc6" x="748.33929" y="153.733989" style="fill: #98df8a; stroke: #ffffff; stroke-width: 0.75; stroke-linejoin: miter"/>
     <use xlink:href="#m34dedd4cc6" x="749.691986" y="152.230532" style="fill: #98df8a; stroke: #ffffff; stroke-width: 0.75; stroke-linejoin: miter"/>
     <use xlink:href="#m34dedd4cc6" x="751.012851" y="152.230532" style="fill: #98df8a; stroke: #ffffff; stroke-width: 0.75; stroke-linejoin: miter"/>
     <use xlink:href="#m34dedd4cc6" x="752.303349" y="152.230532" style="fill: #98df8a; stroke: #ffffff; stroke-width: 0.75; stroke-linejoin: miter"/>
     <use xlink:href="#m34dedd4cc6" x="753.564844" y="152.230532" style="fill: #98df8a; stroke: #ffffff; stroke-width: 0.75; stroke-linejoin: miter"/>
     <use xlink:href="#m34dedd4cc6" x="754.798612" y="151.820498" style="fill: #98df8a; stroke: #ffffff; stroke-width: 0.75; stroke-linejoin: miter"/>
     <use xlink:href="#m34dedd4cc6" x="756.005846" y="151.00043" style="fill: #98df8a; stroke: #ffffff; stroke-width: 0.75; stroke-linejoin: miter"/>
     <use xlink:href="#m34dedd4cc6" x="757.187661" y="151.00043" style="fill: #98df8a; stroke: #ffffff; stroke-width: 0.75; stroke-linejoin: miter"/>
     <use xlink:href="#m34dedd4cc6" x="758.345108" y="149.907006" style="fill: #98df8a; stroke: #ffffff; stroke-width: 0.75; stroke-linejoin: miter"/>
     <use xlink:href="#m34dedd4cc6" x="759.47917" y="149.907006" style="fill: #98df8a; stroke: #ffffff; stroke-width: 0.75; stroke-linejoin: miter"/>
     <use xlink:href="#m34dedd4cc6" x="760.590775" y="149.907006" style="fill: #98df8a; stroke: #ffffff; stroke-width: 0.75; stroke-linejoin: miter"/>
     <use xlink:href="#m34dedd4cc6" x="761.680793" y="149.907006" style="fill: #98df8a; stroke: #ffffff; stroke-width: 0.75; stroke-linejoin: miter"/>
     <use xlink:href="#m34dedd4cc6" x="762.750048" y="149.907006" style="fill: #98df8a; stroke: #ffffff; stroke-width: 0.75; stroke-linejoin: miter"/>
     <use xlink:href="#m34dedd4cc6" x="763.799315" y="149.907006" style="fill: #98df8a; stroke: #ffffff; stroke-width: 0.75; stroke-linejoin: miter"/>
     <use xlink:href="#m34dedd4cc6" x="764.829329" y="149.907006" style="fill: #98df8a; stroke: #ffffff; stroke-width: 0.75; stroke-linejoin: miter"/>
    </g>
   </g>
   <g id="line2d_21">
    <path d="M 53.328125 276.334125 
L 539.880971 183.93982 
L 578.790219 174.50904 
L 601.55067 172.185515 
L 617.699467 170.818735 
L 630.225447 168.221854 
L 640.459918 165.898328 
L 649.11304 165.76165 
L 656.608715 165.351617 
L 663.220369 163.574803 
L 669.134695 163.028091 
L 674.484853 162.754735 
L 679.369166 161.387956 
L 683.862297 161.251278 
L 688.022287 161.251278 
L 691.895146 160.977922 
L 695.517963 160.567888 
L 698.921076 160.567888 
L 702.129617 159.337786 
L 705.164636 159.337786 
L 708.043943 159.337786 
L 710.782738 159.337786 
L 713.394101 159.201108 
L 715.889364 159.201108 
L 718.278413 159.201108 
L 720.569923 159.201108 
L 722.771545 159.201108 
L 724.890067 159.06443 
L 726.931535 158.654396 
L 728.901358 158.654396 
L 730.804394 158.654396 
L 732.645023 158.654396 
L 734.42721 157.69765 
L 736.154552 157.69765 
L 737.830324 157.424294 
L 739.457515 157.150939 
L 741.038864 157.014261 
L 742.576883 157.014261 
L 744.073883 157.014261 
L 745.531996 157.014261 
L 746.95319 157.014261 
L 748.33929 157.014261 
L 749.691986 156.330871 
L 751.012851 154.554057 
L 752.303349 152.230532 
L 753.564844 152.230532 
L 754.798612 152.230532 
L 756.005846 152.230532 
L 757.187661 152.230532 
L 758.345108 152.230532 
L 759.47917 152.230532 
L 760.590775 152.230532 
L 761.680793 151.137108 
L 762.750048 151.137108 
L 763.799315 151.137108 
L 764.829329 151.137108 
" clip-path="url(#p63301ee816)" style="fill: none; stroke: #c7c7c7; stroke-width: 1.5; stroke-linecap: square"/>
    <defs>
     <path id="m34b7be7a3c" d="M -3 -0 
L 3 3 
L 3 -3 
z
" style="stroke: #ffffff; stroke-width: 0.75; stroke-linejoin: miter"/>
    </defs>
    <g clip-path="url(#p63301ee816)">
     <use xlink:href="#m34b7be7a3c" x="53.328125" y="276.334125" style="fill: #c7c7c7; stroke: #ffffff; stroke-width: 0.75; stroke-linejoin: miter"/>
     <use xlink:href="#m34b7be7a3c" x="539.880971" y="183.93982" style="fill: #c7c7c7; stroke: #ffffff; stroke-width: 0.75; stroke-linejoin: miter"/>
     <use xlink:href="#m34b7be7a3c" x="578.790219" y="174.50904" style="fill: #c7c7c7; stroke: #ffffff; stroke-width: 0.75; stroke-linejoin: miter"/>
     <use xlink:href="#m34b7be7a3c" x="601.55067" y="172.185515" style="fill: #c7c7c7; stroke: #ffffff; stroke-width: 0.75; stroke-linejoin: miter"/>
     <use xlink:href="#m34b7be7a3c" x="617.699467" y="170.818735" style="fill: #c7c7c7; stroke: #ffffff; stroke-width: 0.75; stroke-linejoin: miter"/>
     <use xlink:href="#m34b7be7a3c" x="630.225447" y="168.221854" style="fill: #c7c7c7; stroke: #ffffff; stroke-width: 0.75; stroke-linejoin: miter"/>
     <use xlink:href="#m34b7be7a3c" x="640.459918" y="165.898328" style="fill: #c7c7c7; stroke: #ffffff; stroke-width: 0.75; stroke-linejoin: miter"/>
     <use xlink:href="#m34b7be7a3c" x="649.11304" y="165.76165" style="fill: #c7c7c7; stroke: #ffffff; stroke-width: 0.75; stroke-linejoin: miter"/>
     <use xlink:href="#m34b7be7a3c" x="656.608715" y="165.351617" style="fill: #c7c7c7; stroke: #ffffff; stroke-width: 0.75; stroke-linejoin: miter"/>
     <use xlink:href="#m34b7be7a3c" x="663.220369" y="163.574803" style="fill: #c7c7c7; stroke: #ffffff; stroke-width: 0.75; stroke-linejoin: miter"/>
     <use xlink:href="#m34b7be7a3c" x="669.134695" y="163.028091" style="fill: #c7c7c7; stroke: #ffffff; stroke-width: 0.75; stroke-linejoin: miter"/>
     <use xlink:href="#m34b7be7a3c" x="674.484853" y="162.754735" style="fill: #c7c7c7; stroke: #ffffff; stroke-width: 0.75; stroke-linejoin: miter"/>
     <use xlink:href="#m34b7be7a3c" x="679.369166" y="161.387956" style="fill: #c7c7c7; stroke: #ffffff; stroke-width: 0.75; stroke-linejoin: miter"/>
     <use xlink:href="#m34b7be7a3c" x="683.862297" y="161.251278" style="fill: #c7c7c7; stroke: #ffffff; stroke-width: 0.75; stroke-linejoin: miter"/>
     <use xlink:href="#m34b7be7a3c" x="688.022287" y="161.251278" style="fill: #c7c7c7; stroke: #ffffff; stroke-width: 0.75; stroke-linejoin: miter"/>
     <use xlink:href="#m34b7be7a3c" x="691.895146" y="160.977922" style="fill: #c7c7c7; stroke: #ffffff; stroke-width: 0.75; stroke-linejoin: miter"/>
     <use xlink:href="#m34b7be7a3c" x="695.517963" y="160.567888" style="fill: #c7c7c7; stroke: #ffffff; stroke-width: 0.75; stroke-linejoin: miter"/>
     <use xlink:href="#m34b7be7a3c" x="698.921076" y="160.567888" style="fill: #c7c7c7; stroke: #ffffff; stroke-width: 0.75; stroke-linejoin: miter"/>
     <use xlink:href="#m34b7be7a3c" x="702.129617" y="159.337786" style="fill: #c7c7c7; stroke: #ffffff; stroke-width: 0.75; stroke-linejoin: miter"/>
     <use xlink:href="#m34b7be7a3c" x="705.164636" y="159.337786" style="fill: #c7c7c7; stroke: #ffffff; stroke-width: 0.75; stroke-linejoin: miter"/>
     <use xlink:href="#m34b7be7a3c" x="708.043943" y="159.337786" style="fill: #c7c7c7; stroke: #ffffff; stroke-width: 0.75; stroke-linejoin: miter"/>
     <use xlink:href="#m34b7be7a3c" x="710.782738" y="159.337786" style="fill: #c7c7c7; stroke: #ffffff; stroke-width: 0.75; stroke-linejoin: miter"/>
     <use xlink:href="#m34b7be7a3c" x="713.394101" y="159.201108" style="fill: #c7c7c7; stroke: #ffffff; stroke-width: 0.75; stroke-linejoin: miter"/>
     <use xlink:href="#m34b7be7a3c" x="715.889364" y="159.201108" style="fill: #c7c7c7; stroke: #ffffff; stroke-width: 0.75; stroke-linejoin: miter"/>
     <use xlink:href="#m34b7be7a3c" x="718.278413" y="159.201108" style="fill: #c7c7c7; stroke: #ffffff; stroke-width: 0.75; stroke-linejoin: miter"/>
     <use xlink:href="#m34b7be7a3c" x="720.569923" y="159.201108" style="fill: #c7c7c7; stroke: #ffffff; stroke-width: 0.75; stroke-linejoin: miter"/>
     <use xlink:href="#m34b7be7a3c" x="722.771545" y="159.201108" style="fill: #c7c7c7; stroke: #ffffff; stroke-width: 0.75; stroke-linejoin: miter"/>
     <use xlink:href="#m34b7be7a3c" x="724.890067" y="159.06443" style="fill: #c7c7c7; stroke: #ffffff; stroke-width: 0.75; stroke-linejoin: miter"/>
     <use xlink:href="#m34b7be7a3c" x="726.931535" y="158.654396" style="fill: #c7c7c7; stroke: #ffffff; stroke-width: 0.75; stroke-linejoin: miter"/>
     <use xlink:href="#m34b7be7a3c" x="728.901358" y="158.654396" style="fill: #c7c7c7; stroke: #ffffff; stroke-width: 0.75; stroke-linejoin: miter"/>
     <use xlink:href="#m34b7be7a3c" x="730.804394" y="158.654396" style="fill: #c7c7c7; stroke: #ffffff; stroke-width: 0.75; stroke-linejoin: miter"/>
     <use xlink:href="#m34b7be7a3c" x="732.645023" y="158.654396" style="fill: #c7c7c7; stroke: #ffffff; stroke-width: 0.75; stroke-linejoin: miter"/>
     <use xlink:href="#m34b7be7a3c" x="734.42721" y="157.69765" style="fill: #c7c7c7; stroke: #ffffff; stroke-width: 0.75; stroke-linejoin: miter"/>
     <use xlink:href="#m34b7be7a3c" x="736.154552" y="157.69765" style="fill: #c7c7c7; stroke: #ffffff; stroke-width: 0.75; stroke-linejoin: miter"/>
     <use xlink:href="#m34b7be7a3c" x="737.830324" y="157.424294" style="fill: #c7c7c7; stroke: #ffffff; stroke-width: 0.75; stroke-linejoin: miter"/>
     <use xlink:href="#m34b7be7a3c" x="739.457515" y="157.150939" style="fill: #c7c7c7; stroke: #ffffff; stroke-width: 0.75; stroke-linejoin: miter"/>
     <use xlink:href="#m34b7be7a3c" x="741.038864" y="157.014261" style="fill: #c7c7c7; stroke: #ffffff; stroke-width: 0.75; stroke-linejoin: miter"/>
     <use xlink:href="#m34b7be7a3c" x="742.576883" y="157.014261" style="fill: #c7c7c7; stroke: #ffffff; stroke-width: 0.75; stroke-linejoin: miter"/>
     <use xlink:href="#m34b7be7a3c" x="744.073883" y="157.014261" style="fill: #c7c7c7; stroke: #ffffff; stroke-width: 0.75; stroke-linejoin: miter"/>
     <use xlink:href="#m34b7be7a3c" x="745.531996" y="157.014261" style="fill: #c7c7c7; stroke: #ffffff; stroke-width: 0.75; stroke-linejoin: miter"/>
     <use xlink:href="#m34b7be7a3c" x="746.95319" y="157.014261" style="fill: #c7c7c7; stroke: #ffffff; stroke-width: 0.75; stroke-linejoin: miter"/>
     <use xlink:href="#m34b7be7a3c" x="748.33929" y="157.014261" style="fill: #c7c7c7; stroke: #ffffff; stroke-width: 0.75; stroke-linejoin: miter"/>
     <use xlink:href="#m34b7be7a3c" x="749.691986" y="156.330871" style="fill: #c7c7c7; stroke: #ffffff; stroke-width: 0.75; stroke-linejoin: miter"/>
     <use xlink:href="#m34b7be7a3c" x="751.012851" y="154.554057" style="fill: #c7c7c7; stroke: #ffffff; stroke-width: 0.75; stroke-linejoin: miter"/>
     <use xlink:href="#m34b7be7a3c" x="752.303349" y="152.230532" style="fill: #c7c7c7; stroke: #ffffff; stroke-width: 0.75; stroke-linejoin: miter"/>
     <use xlink:href="#m34b7be7a3c" x="753.564844" y="152.230532" style="fill: #c7c7c7; stroke: #ffffff; stroke-width: 0.75; stroke-linejoin: miter"/>
     <use xlink:href="#m34b7be7a3c" x="754.798612" y="152.230532" style="fill: #c7c7c7; stroke: #ffffff; stroke-width: 0.75; stroke-linejoin: miter"/>
     <use xlink:href="#m34b7be7a3c" x="756.005846" y="152.230532" style="fill: #c7c7c7; stroke: #ffffff; stroke-width: 0.75; stroke-linejoin: miter"/>
     <use xlink:href="#m34b7be7a3c" x="757.187661" y="152.230532" style="fill: #c7c7c7; stroke: #ffffff; stroke-width: 0.75; stroke-linejoin: miter"/>
     <use xlink:href="#m34b7be7a3c" x="758.345108" y="152.230532" style="fill: #c7c7c7; stroke: #ffffff; stroke-width: 0.75; stroke-linejoin: miter"/>
     <use xlink:href="#m34b7be7a3c" x="759.47917" y="152.230532" style="fill: #c7c7c7; stroke: #ffffff; stroke-width: 0.75; stroke-linejoin: miter"/>
     <use xlink:href="#m34b7be7a3c" x="760.590775" y="152.230532" style="fill: #c7c7c7; stroke: #ffffff; stroke-width: 0.75; stroke-linejoin: miter"/>
     <use xlink:href="#m34b7be7a3c" x="761.680793" y="151.137108" style="fill: #c7c7c7; stroke: #ffffff; stroke-width: 0.75; stroke-linejoin: miter"/>
     <use xlink:href="#m34b7be7a3c" x="762.750048" y="151.137108" style="fill: #c7c7c7; stroke: #ffffff; stroke-width: 0.75; stroke-linejoin: miter"/>
     <use xlink:href="#m34b7be7a3c" x="763.799315" y="151.137108" style="fill: #c7c7c7; stroke: #ffffff; stroke-width: 0.75; stroke-linejoin: miter"/>
     <use xlink:href="#m34b7be7a3c" x="764.829329" y="151.137108" style="fill: #c7c7c7; stroke: #ffffff; stroke-width: 0.75; stroke-linejoin: miter"/>
    </g>
   </g>
   <g id="line2d_22">
    <path d="M 53.328125 276.334125 
L 539.880971 185.648294 
L 578.790219 182.299684 
L 601.55067 181.684633 
L 617.699467 178.814396 
L 630.225447 178.677718 
L 640.459918 175.602464 
L 649.11304 174.714057 
L 656.608715 174.714057 
L 663.220369 173.962328 
L 669.134695 173.073922 
L 674.484853 171.912159 
L 679.369166 171.092091 
L 683.862297 171.092091 
L 688.022287 170.340362 
L 691.895146 170.203684 
L 695.517963 169.520294 
L 698.921076 169.1786 
L 702.129617 169.041922 
L 705.164636 169.041922 
L 708.043943 168.973583 
L 710.782738 168.973583 
L 713.394101 168.973583 
L 715.889364 168.221854 
L 718.278413 167.81182 
L 720.569923 167.81182 
L 722.771545 167.81182 
L 724.890067 167.81182 
L 726.931535 167.538464 
L 728.901358 166.991752 
L 730.804394 165.624972 
L 732.645023 165.624972 
L 734.42721 165.556633 
L 736.154552 165.009922 
L 737.830324 164.668227 
L 739.457515 164.668227 
L 741.038864 163.574803 
L 742.576883 163.574803 
L 744.073883 162.754735 
L 745.531996 162.686396 
L 746.95319 162.481379 
L 748.33929 162.344701 
L 749.691986 161.72965 
L 751.012851 161.524633 
L 752.303349 161.456294 
L 753.564844 161.456294 
L 754.798612 160.294532 
L 756.005846 157.902667 
L 757.187661 157.834328 
L 758.345108 157.69765 
L 759.47917 157.424294 
L 760.590775 157.424294 
L 761.680793 157.0826 
L 762.750048 157.014261 
L 763.799315 157.014261 
L 764.829329 157.014261 
" clip-path="url(#p63301ee816)" style="fill: none; stroke: #d62728; stroke-width: 1.5; stroke-linecap: square"/>
    <defs>
     <path id="m6098346ce7" d="M 0 -3 
L -3 3 
L 3 3 
z
" style="stroke: #ffffff; stroke-width: 0.75; stroke-linejoin: miter"/>
    </defs>
    <g clip-path="url(#p63301ee816)">
     <use xlink:href="#m6098346ce7" x="53.328125" y="276.334125" style="fill: #d62728; stroke: #ffffff; stroke-width: 0.75; stroke-linejoin: miter"/>
     <use xlink:href="#m6098346ce7" x="539.880971" y="185.648294" style="fill: #d62728; stroke: #ffffff; stroke-width: 0.75; stroke-linejoin: miter"/>
     <use xlink:href="#m6098346ce7" x="578.790219" y="182.299684" style="fill: #d62728; stroke: #ffffff; stroke-width: 0.75; stroke-linejoin: miter"/>
     <use xlink:href="#m6098346ce7" x="601.55067" y="181.684633" style="fill: #d62728; stroke: #ffffff; stroke-width: 0.75; stroke-linejoin: miter"/>
     <use xlink:href="#m6098346ce7" x="617.699467" y="178.814396" style="fill: #d62728; stroke: #ffffff; stroke-width: 0.75; stroke-linejoin: miter"/>
     <use xlink:href="#m6098346ce7" x="630.225447" y="178.677718" style="fill: #d62728; stroke: #ffffff; stroke-width: 0.75; stroke-linejoin: miter"/>
     <use xlink:href="#m6098346ce7" x="640.459918" y="175.602464" style="fill: #d62728; stroke: #ffffff; stroke-width: 0.75; stroke-linejoin: miter"/>
     <use xlink:href="#m6098346ce7" x="649.11304" y="174.714057" style="fill: #d62728; stroke: #ffffff; stroke-width: 0.75; stroke-linejoin: miter"/>
     <use xlink:href="#m6098346ce7" x="656.608715" y="174.714057" style="fill: #d62728; stroke: #ffffff; stroke-width: 0.75; stroke-linejoin: miter"/>
     <use xlink:href="#m6098346ce7" x="663.220369" y="173.962328" style="fill: #d62728; stroke: #ffffff; stroke-width: 0.75; stroke-linejoin: miter"/>
     <use xlink:href="#m6098346ce7" x="669.134695" y="173.073922" style="fill: #d62728; stroke: #ffffff; stroke-width: 0.75; stroke-linejoin: miter"/>
     <use xlink:href="#m6098346ce7" x="674.484853" y="171.912159" style="fill: #d62728; stroke: #ffffff; stroke-width: 0.75; stroke-linejoin: miter"/>
     <use xlink:href="#m6098346ce7" x="679.369166" y="171.092091" style="fill: #d62728; stroke: #ffffff; stroke-width: 0.75; stroke-linejoin: miter"/>
     <use xlink:href="#m6098346ce7" x="683.862297" y="171.092091" style="fill: #d62728; stroke: #ffffff; stroke-width: 0.75; stroke-linejoin: miter"/>
     <use xlink:href="#m6098346ce7" x="688.022287" y="170.340362" style="fill: #d62728; stroke: #ffffff; stroke-width: 0.75; stroke-linejoin: miter"/>
     <use xlink:href="#m6098346ce7" x="691.895146" y="170.203684" style="fill: #d62728; stroke: #ffffff; stroke-width: 0.75; stroke-linejoin: miter"/>
     <use xlink:href="#m6098346ce7" x="695.517963" y="169.520294" style="fill: #d62728; stroke: #ffffff; stroke-width: 0.75; stroke-linejoin: miter"/>
     <use xlink:href="#m6098346ce7" x="698.921076" y="169.1786" style="fill: #d62728; stroke: #ffffff; stroke-width: 0.75; stroke-linejoin: miter"/>
     <use xlink:href="#m6098346ce7" x="702.129617" y="169.041922" style="fill: #d62728; stroke: #ffffff; stroke-width: 0.75; stroke-linejoin: miter"/>
     <use xlink:href="#m6098346ce7" x="705.164636" y="169.041922" style="fill: #d62728; stroke: #ffffff; stroke-width: 0.75; stroke-linejoin: miter"/>
     <use xlink:href="#m6098346ce7" x="708.043943" y="168.973583" style="fill: #d62728; stroke: #ffffff; stroke-width: 0.75; stroke-linejoin: miter"/>
     <use xlink:href="#m6098346ce7" x="710.782738" y="168.973583" style="fill: #d62728; stroke: #ffffff; stroke-width: 0.75; stroke-linejoin: miter"/>
     <use xlink:href="#m6098346ce7" x="713.394101" y="168.973583" style="fill: #d62728; stroke: #ffffff; stroke-width: 0.75; stroke-linejoin: miter"/>
     <use xlink:href="#m6098346ce7" x="715.889364" y="168.221854" style="fill: #d62728; stroke: #ffffff; stroke-width: 0.75; stroke-linejoin: miter"/>
     <use xlink:href="#m6098346ce7" x="718.278413" y="167.81182" style="fill: #d62728; stroke: #ffffff; stroke-width: 0.75; stroke-linejoin: miter"/>
     <use xlink:href="#m6098346ce7" x="720.569923" y="167.81182" style="fill: #d62728; stroke: #ffffff; stroke-width: 0.75; stroke-linejoin: miter"/>
     <use xlink:href="#m6098346ce7" x="722.771545" y="167.81182" style="fill: #d62728; stroke: #ffffff; stroke-width: 0.75; stroke-linejoin: miter"/>
     <use xlink:href="#m6098346ce7" x="724.890067" y="167.81182" style="fill: #d62728; stroke: #ffffff; stroke-width: 0.75; stroke-linejoin: miter"/>
     <use xlink:href="#m6098346ce7" x="726.931535" y="167.538464" style="fill: #d62728; stroke: #ffffff; stroke-width: 0.75; stroke-linejoin: miter"/>
     <use xlink:href="#m6098346ce7" x="728.901358" y="166.991752" style="fill: #d62728; stroke: #ffffff; stroke-width: 0.75; stroke-linejoin: miter"/>
     <use xlink:href="#m6098346ce7" x="730.804394" y="165.624972" style="fill: #d62728; stroke: #ffffff; stroke-width: 0.75; stroke-linejoin: miter"/>
     <use xlink:href="#m6098346ce7" x="732.645023" y="165.624972" style="fill: #d62728; stroke: #ffffff; stroke-width: 0.75; stroke-linejoin: miter"/>
     <use xlink:href="#m6098346ce7" x="734.42721" y="165.556633" style="fill: #d62728; stroke: #ffffff; stroke-width: 0.75; stroke-linejoin: miter"/>
     <use xlink:href="#m6098346ce7" x="736.154552" y="165.009922" style="fill: #d62728; stroke: #ffffff; stroke-width: 0.75; stroke-linejoin: miter"/>
     <use xlink:href="#m6098346ce7" x="737.830324" y="164.668227" style="fill: #d62728; stroke: #ffffff; stroke-width: 0.75; stroke-linejoin: miter"/>
     <use xlink:href="#m6098346ce7" x="739.457515" y="164.668227" style="fill: #d62728; stroke: #ffffff; stroke-width: 0.75; stroke-linejoin: miter"/>
     <use xlink:href="#m6098346ce7" x="741.038864" y="163.574803" style="fill: #d62728; stroke: #ffffff; stroke-width: 0.75; stroke-linejoin: miter"/>
     <use xlink:href="#m6098346ce7" x="742.576883" y="163.574803" style="fill: #d62728; stroke: #ffffff; stroke-width: 0.75; stroke-linejoin: miter"/>
     <use xlink:href="#m6098346ce7" x="744.073883" y="162.754735" style="fill: #d62728; stroke: #ffffff; stroke-width: 0.75; stroke-linejoin: miter"/>
     <use xlink:href="#m6098346ce7" x="745.531996" y="162.686396" style="fill: #d62728; stroke: #ffffff; stroke-width: 0.75; stroke-linejoin: miter"/>
     <use xlink:href="#m6098346ce7" x="746.95319" y="162.481379" style="fill: #d62728; stroke: #ffffff; stroke-width: 0.75; stroke-linejoin: miter"/>
     <use xlink:href="#m6098346ce7" x="748.33929" y="162.344701" style="fill: #d62728; stroke: #ffffff; stroke-width: 0.75; stroke-linejoin: miter"/>
     <use xlink:href="#m6098346ce7" x="749.691986" y="161.72965" style="fill: #d62728; stroke: #ffffff; stroke-width: 0.75; stroke-linejoin: miter"/>
     <use xlink:href="#m6098346ce7" x="751.012851" y="161.524633" style="fill: #d62728; stroke: #ffffff; stroke-width: 0.75; stroke-linejoin: miter"/>
     <use xlink:href="#m6098346ce7" x="752.303349" y="161.456294" style="fill: #d62728; stroke: #ffffff; stroke-width: 0.75; stroke-linejoin: miter"/>
     <use xlink:href="#m6098346ce7" x="753.564844" y="161.456294" style="fill: #d62728; stroke: #ffffff; stroke-width: 0.75; stroke-linejoin: miter"/>
     <use xlink:href="#m6098346ce7" x="754.798612" y="160.294532" style="fill: #d62728; stroke: #ffffff; stroke-width: 0.75; stroke-linejoin: miter"/>
     <use xlink:href="#m6098346ce7" x="756.005846" y="157.902667" style="fill: #d62728; stroke: #ffffff; stroke-width: 0.75; stroke-linejoin: miter"/>
     <use xlink:href="#m6098346ce7" x="757.187661" y="157.834328" style="fill: #d62728; stroke: #ffffff; stroke-width: 0.75; stroke-linejoin: miter"/>
     <use xlink:href="#m6098346ce7" x="758.345108" y="157.69765" style="fill: #d62728; stroke: #ffffff; stroke-width: 0.75; stroke-linejoin: miter"/>
     <use xlink:href="#m6098346ce7" x="759.47917" y="157.424294" style="fill: #d62728; stroke: #ffffff; stroke-width: 0.75; stroke-linejoin: miter"/>
     <use xlink:href="#m6098346ce7" x="760.590775" y="157.424294" style="fill: #d62728; stroke: #ffffff; stroke-width: 0.75; stroke-linejoin: miter"/>
     <use xlink:href="#m6098346ce7" x="761.680793" y="157.0826" style="fill: #d62728; stroke: #ffffff; stroke-width: 0.75; stroke-linejoin: miter"/>
     <use xlink:href="#m6098346ce7" x="762.750048" y="157.014261" style="fill: #d62728; stroke: #ffffff; stroke-width: 0.75; stroke-linejoin: miter"/>
     <use xlink:href="#m6098346ce7" x="763.799315" y="157.014261" style="fill: #d62728; stroke: #ffffff; stroke-width: 0.75; stroke-linejoin: miter"/>
     <use xlink:href="#m6098346ce7" x="764.829329" y="157.014261" style="fill: #d62728; stroke: #ffffff; stroke-width: 0.75; stroke-linejoin: miter"/>
    </g>
   </g>
   <g id="line2d_23">
    <path d="M 53.328125 276.334125 
L 539.880971 188.518532 
L 578.790219 184.418193 
L 601.55067 184.008159 
L 617.699467 183.461447 
L 630.225447 182.026328 
L 640.459918 180.727888 
L 649.11304 179.497786 
L 656.608715 178.746057 
L 663.220369 178.54104 
L 669.134695 178.336023 
L 674.484853 177.720972 
L 679.369166 177.652633 
L 683.862297 176.900905 
L 688.022287 176.900905 
L 691.895146 176.900905 
L 695.517963 176.832566 
L 698.921076 176.764227 
L 702.129617 174.645718 
L 705.164636 173.005583 
L 708.043943 172.937244 
L 710.782738 172.868905 
L 713.394101 172.322193 
L 715.889364 172.322193 
L 718.278413 172.048837 
L 720.569923 171.707142 
L 722.771545 171.502125 
L 724.890067 171.365447 
L 726.931535 169.998667 
L 728.901358 169.315278 
L 730.804394 168.836905 
L 732.645023 168.631888 
L 734.42721 167.948498 
L 736.154552 167.538464 
L 737.830324 167.470125 
L 739.457515 167.060091 
L 741.038864 166.718396 
L 742.576883 165.966667 
L 744.073883 165.693311 
L 745.531996 164.873244 
L 746.95319 164.736566 
L 748.33929 163.984837 
L 749.691986 163.301447 
L 751.012851 163.028091 
L 752.303349 162.686396 
L 753.564844 162.686396 
L 754.798612 162.686396 
L 756.005846 162.618057 
L 757.187661 162.549718 
L 758.345108 162.481379 
L 759.47917 161.046261 
L 760.590775 160.499549 
L 761.680793 160.499549 
L 762.750048 159.611142 
L 763.799315 159.201108 
L 764.829329 159.201108 
" clip-path="url(#p63301ee816)" style="fill: none; stroke: #1f77b4; stroke-width: 1.5; stroke-linecap: square"/>
    <defs>
     <path id="me1bed37e8e" d="M 0 3 
C 0.795609 3 1.55874 2.683901 2.12132 2.12132 
C 2.683901 1.55874 3 0.795609 3 0 
C 3 -0.795609 2.683901 -1.55874 2.12132 -2.12132 
C 1.55874 -2.683901 0.795609 -3 0 -3 
C -0.795609 -3 -1.55874 -2.683901 -2.12132 -2.12132 
C -2.683901 -1.55874 -3 -0.795609 -3 0 
C -3 0.795609 -2.683901 1.55874 -2.12132 2.12132 
C -1.55874 2.683901 -0.795609 3 0 3 
z
" style="stroke: #ffffff; stroke-width: 0.75"/>
    </defs>
    <g clip-path="url(#p63301ee816)">
     <use xlink:href="#me1bed37e8e" x="53.328125" y="276.334125" style="fill: #1f77b4; stroke: #ffffff; stroke-width: 0.75"/>
     <use xlink:href="#me1bed37e8e" x="539.880971" y="188.518532" style="fill: #1f77b4; stroke: #ffffff; stroke-width: 0.75"/>
     <use xlink:href="#me1bed37e8e" x="578.790219" y="184.418193" style="fill: #1f77b4; stroke: #ffffff; stroke-width: 0.75"/>
     <use xlink:href="#me1bed37e8e" x="601.55067" y="184.008159" style="fill: #1f77b4; stroke: #ffffff; stroke-width: 0.75"/>
     <use xlink:href="#me1bed37e8e" x="617.699467" y="183.461447" style="fill: #1f77b4; stroke: #ffffff; stroke-width: 0.75"/>
     <use xlink:href="#me1bed37e8e" x="630.225447" y="182.026328" style="fill: #1f77b4; stroke: #ffffff; stroke-width: 0.75"/>
     <use xlink:href="#me1bed37e8e" x="640.459918" y="180.727888" style="fill: #1f77b4; stroke: #ffffff; stroke-width: 0.75"/>
     <use xlink:href="#me1bed37e8e" x="649.11304" y="179.497786" style="fill: #1f77b4; stroke: #ffffff; stroke-width: 0.75"/>
     <use xlink:href="#me1bed37e8e" x="656.608715" y="178.746057" style="fill: #1f77b4; stroke: #ffffff; stroke-width: 0.75"/>
     <use xlink:href="#me1bed37e8e" x="663.220369" y="178.54104" style="fill: #1f77b4; stroke: #ffffff; stroke-width: 0.75"/>
     <use xlink:href="#me1bed37e8e" x="669.134695" y="178.336023" style="fill: #1f77b4; stroke: #ffffff; stroke-width: 0.75"/>
     <use xlink:href="#me1bed37e8e" x="674.484853" y="177.720972" style="fill: #1f77b4; stroke: #ffffff; stroke-width: 0.75"/>
     <use xlink:href="#me1bed37e8e" x="679.369166" y="177.652633" style="fill: #1f77b4; stroke: #ffffff; stroke-width: 0.75"/>
     <use xlink:href="#me1bed37e8e" x="683.862297" y="176.900905" style="fill: #1f77b4; stroke: #ffffff; stroke-width: 0.75"/>
     <use xlink:href="#me1bed37e8e" x="688.022287" y="176.900905" style="fill: #1f77b4; stroke: #ffffff; stroke-width: 0.75"/>
     <use xlink:href="#me1bed37e8e" x="691.895146" y="176.900905" style="fill: #1f77b4; stroke: #ffffff; stroke-width: 0.75"/>
     <use xlink:href="#me1bed37e8e" x="695.517963" y="176.832566" style="fill: #1f77b4; stroke: #ffffff; stroke-width: 0.75"/>
     <use xlink:href="#me1bed37e8e" x="698.921076" y="176.764227" style="fill: #1f77b4; stroke: #ffffff; stroke-width: 0.75"/>
     <use xlink:href="#me1bed37e8e" x="702.129617" y="174.645718" style="fill: #1f77b4; stroke: #ffffff; stroke-width: 0.75"/>
     <use xlink:href="#me1bed37e8e" x="705.164636" y="173.005583" style="fill: #1f77b4; stroke: #ffffff; stroke-width: 0.75"/>
     <use xlink:href="#me1bed37e8e" x="708.043943" y="172.937244" style="fill: #1f77b4; stroke: #ffffff; stroke-width: 0.75"/>
     <use xlink:href="#me1bed37e8e" x="710.782738" y="172.868905" style="fill: #1f77b4; stroke: #ffffff; stroke-width: 0.75"/>
     <use xlink:href="#me1bed37e8e" x="713.394101" y="172.322193" style="fill: #1f77b4; stroke: #ffffff; stroke-width: 0.75"/>
     <use xlink:href="#me1bed37e8e" x="715.889364" y="172.322193" style="fill: #1f77b4; stroke: #ffffff; stroke-width: 0.75"/>
     <use xlink:href="#me1bed37e8e" x="718.278413" y="172.048837" style="fill: #1f77b4; stroke: #ffffff; stroke-width: 0.75"/>
     <use xlink:href="#me1bed37e8e" x="720.569923" y="171.707142" style="fill: #1f77b4; stroke: #ffffff; stroke-width: 0.75"/>
     <use xlink:href="#me1bed37e8e" x="722.771545" y="171.502125" style="fill: #1f77b4; stroke: #ffffff; stroke-width: 0.75"/>
     <use xlink:href="#me1bed37e8e" x="724.890067" y="171.365447" style="fill: #1f77b4; stroke: #ffffff; stroke-width: 0.75"/>
     <use xlink:href="#me1bed37e8e" x="726.931535" y="169.998667" style="fill: #1f77b4; stroke: #ffffff; stroke-width: 0.75"/>
     <use xlink:href="#me1bed37e8e" x="728.901358" y="169.315278" style="fill: #1f77b4; stroke: #ffffff; stroke-width: 0.75"/>
     <use xlink:href="#me1bed37e8e" x="730.804394" y="168.836905" style="fill: #1f77b4; stroke: #ffffff; stroke-width: 0.75"/>
     <use xlink:href="#me1bed37e8e" x="732.645023" y="168.631888" style="fill: #1f77b4; stroke: #ffffff; stroke-width: 0.75"/>
     <use xlink:href="#me1bed37e8e" x="734.42721" y="167.948498" style="fill: #1f77b4; stroke: #ffffff; stroke-width: 0.75"/>
     <use xlink:href="#me1bed37e8e" x="736.154552" y="167.538464" style="fill: #1f77b4; stroke: #ffffff; stroke-width: 0.75"/>
     <use xlink:href="#me1bed37e8e" x="737.830324" y="167.470125" style="fill: #1f77b4; stroke: #ffffff; stroke-width: 0.75"/>
     <use xlink:href="#me1bed37e8e" x="739.457515" y="167.060091" style="fill: #1f77b4; stroke: #ffffff; stroke-width: 0.75"/>
     <use xlink:href="#me1bed37e8e" x="741.038864" y="166.718396" style="fill: #1f77b4; stroke: #ffffff; stroke-width: 0.75"/>
     <use xlink:href="#me1bed37e8e" x="742.576883" y="165.966667" style="fill: #1f77b4; stroke: #ffffff; stroke-width: 0.75"/>
     <use xlink:href="#me1bed37e8e" x="744.073883" y="165.693311" style="fill: #1f77b4; stroke: #ffffff; stroke-width: 0.75"/>
     <use xlink:href="#me1bed37e8e" x="745.531996" y="164.873244" style="fill: #1f77b4; stroke: #ffffff; stroke-width: 0.75"/>
     <use xlink:href="#me1bed37e8e" x="746.95319" y="164.736566" style="fill: #1f77b4; stroke: #ffffff; stroke-width: 0.75"/>
     <use xlink:href="#me1bed37e8e" x="748.33929" y="163.984837" style="fill: #1f77b4; stroke: #ffffff; stroke-width: 0.75"/>
     <use xlink:href="#me1bed37e8e" x="749.691986" y="163.301447" style="fill: #1f77b4; stroke: #ffffff; stroke-width: 0.75"/>
     <use xlink:href="#me1bed37e8e" x="751.012851" y="163.028091" style="fill: #1f77b4; stroke: #ffffff; stroke-width: 0.75"/>
     <use xlink:href="#me1bed37e8e" x="752.303349" y="162.686396" style="fill: #1f77b4; stroke: #ffffff; stroke-width: 0.75"/>
     <use xlink:href="#me1bed37e8e" x="753.564844" y="162.686396" style="fill: #1f77b4; stroke: #ffffff; stroke-width: 0.75"/>
     <use xlink:href="#me1bed37e8e" x="754.798612" y="162.686396" style="fill: #1f77b4; stroke: #ffffff; stroke-width: 0.75"/>
     <use xlink:href="#me1bed37e8e" x="756.005846" y="162.618057" style="fill: #1f77b4; stroke: #ffffff; stroke-width: 0.75"/>
     <use xlink:href="#me1bed37e8e" x="757.187661" y="162.549718" style="fill: #1f77b4; stroke: #ffffff; stroke-width: 0.75"/>
     <use xlink:href="#me1bed37e8e" x="758.345108" y="162.481379" style="fill: #1f77b4; stroke: #ffffff; stroke-width: 0.75"/>
     <use xlink:href="#me1bed37e8e" x="759.47917" y="161.046261" style="fill: #1f77b4; stroke: #ffffff; stroke-width: 0.75"/>
     <use xlink:href="#me1bed37e8e" x="760.590775" y="160.499549" style="fill: #1f77b4; stroke: #ffffff; stroke-width: 0.75"/>
     <use xlink:href="#me1bed37e8e" x="761.680793" y="160.499549" style="fill: #1f77b4; stroke: #ffffff; stroke-width: 0.75"/>
     <use xlink:href="#me1bed37e8e" x="762.750048" y="159.611142" style="fill: #1f77b4; stroke: #ffffff; stroke-width: 0.75"/>
     <use xlink:href="#me1bed37e8e" x="763.799315" y="159.201108" style="fill: #1f77b4; stroke: #ffffff; stroke-width: 0.75"/>
     <use xlink:href="#me1bed37e8e" x="764.829329" y="159.201108" style="fill: #1f77b4; stroke: #ffffff; stroke-width: 0.75"/>
    </g>
   </g>
   <g id="line2d_24"/>
   <g id="line2d_25"/>
   <g id="line2d_26"/>
   <g id="line2d_27"/>
   <g id="line2d_28">
    <path d="M 764.829329 288.430125 
L 764.829329 22.318125 
" clip-path="url(#p63301ee816)" style="fill: none; stroke: #ff0000; stroke-width: 1.5; stroke-linecap: square"/>
   </g>
   <g id="patch_3">
    <path d="M 53.328125 256.925854 
L 53.328125 51.908905 
" style="fill: none; stroke: #000000; stroke-width: 0.8; stroke-linejoin: miter; stroke-linecap: square"/>
   </g>
   <g id="patch_4">
    <path d="M 53.328125 288.430125 
L 764.830463 288.430125 
" style="fill: none; stroke: #000000; stroke-width: 0.8; stroke-linejoin: miter; stroke-linecap: square"/>
   </g>
   <g id="text_18">
    <!-- mbedtls_fuzz_dtlsclient (13h:45m, at least 5 trials/fuzzer) -->
    <g transform="translate(237.734375 16.318125) scale(0.12 -0.12)">
     <defs>
      <path id="DejaVuSans-6c" d="M 603 4863 
L 1178 4863 
L 1178 0 
L 603 0 
L 603 4863 
z
" transform="scale(0.015625)"/>
      <path id="DejaVuSans-73" d="M 2834 3397 
L 2834 2853 
Q 2591 2978 2328 3040 
Q 2066 3103 1784 3103 
Q 1356 3103 1142 2972 
Q 928 2841 928 2578 
Q 928 2378 1081 2264 
Q 1234 2150 1697 2047 
L 1894 2003 
Q 2506 1872 2764 1633 
Q 3022 1394 3022 966 
Q 3022 478 2636 193 
Q 2250 -91 1575 -91 
Q 1294 -91 989 -36 
Q 684 19 347 128 
L 347 722 
Q 666 556 975 473 
Q 1284 391 1588 391 
Q 1994 391 2212 530 
Q 2431 669 2431 922 
Q 2431 1156 2273 1281 
Q 2116 1406 1581 1522 
L 1381 1569 
Q 847 1681 609 1914 
Q 372 2147 372 2553 
Q 372 3047 722 3315 
Q 1072 3584 1716 3584 
Q 2034 3584 2315 3537 
Q 2597 3491 2834 3397 
z
" transform="scale(0.015625)"/>
      <path id="DejaVuSans-5f" d="M 3263 -1063 
L 3263 -1509 
L -63 -1509 
L -63 -1063 
L 3263 -1063 
z
" transform="scale(0.015625)"/>
      <path id="DejaVuSans-66" d="M 2375 4863 
L 2375 4384 
L 1825 4384 
Q 1516 4384 1395 4259 
Q 1275 4134 1275 3809 
L 1275 3500 
L 2222 3500 
L 2222 3053 
L 1275 3053 
L 1275 0 
L 697 0 
L 697 3053 
L 147 3053 
L 147 3500 
L 697 3500 
L 697 3744 
Q 697 4328 969 4595 
Q 1241 4863 1831 4863 
L 2375 4863 
z
" transform="scale(0.015625)"/>
      <path id="DejaVuSans-7a" d="M 353 3500 
L 3084 3500 
L 3084 2975 
L 922 459 
L 3084 459 
L 3084 0 
L 275 0 
L 275 525 
L 2438 3041 
L 353 3041 
L 353 3500 
z
" transform="scale(0.015625)"/>
      <path id="DejaVuSans-2c" d="M 750 794 
L 1409 794 
L 1409 256 
L 897 -744 
L 494 -744 
L 750 256 
L 750 794 
z
" transform="scale(0.015625)"/>
      <path id="DejaVuSans-2f" d="M 1625 4666 
L 2156 4666 
L 531 -594 
L 0 -594 
L 1625 4666 
z
" transform="scale(0.015625)"/>
     </defs>
     <use xlink:href="#DejaVuSans-6d"/>
     <use xlink:href="#DejaVuSans-62" transform="translate(97.412109 0)"/>
     <use xlink:href="#DejaVuSans-65" transform="translate(160.888672 0)"/>
     <use xlink:href="#DejaVuSans-64" transform="translate(222.412109 0)"/>
     <use xlink:href="#DejaVuSans-74" transform="translate(285.888672 0)"/>
     <use xlink:href="#DejaVuSans-6c" transform="translate(325.097656 0)"/>
     <use xlink:href="#DejaVuSans-73" transform="translate(352.880859 0)"/>
     <use xlink:href="#DejaVuSans-5f" transform="translate(404.980469 0)"/>
     <use xlink:href="#DejaVuSans-66" transform="translate(454.980469 0)"/>
     <use xlink:href="#DejaVuSans-75" transform="translate(490.185547 0)"/>
     <use xlink:href="#DejaVuSans-7a" transform="translate(553.564453 0)"/>
     <use xlink:href="#DejaVuSans-7a" transform="translate(606.054688 0)"/>
     <use xlink:href="#DejaVuSans-5f" transform="translate(658.544922 0)"/>
     <use xlink:href="#DejaVuSans-64" transform="translate(708.544922 0)"/>
     <use xlink:href="#DejaVuSans-74" transform="translate(772.021484 0)"/>
     <use xlink:href="#DejaVuSans-6c" transform="translate(811.230469 0)"/>
     <use xlink:href="#DejaVuSans-73" transform="translate(839.013672 0)"/>
     <use xlink:href="#DejaVuSans-63" transform="translate(891.113281 0)"/>
     <use xlink:href="#DejaVuSans-6c" transform="translate(946.09375 0)"/>
     <use xlink:href="#DejaVuSans-69" transform="translate(973.876953 0)"/>
     <use xlink:href="#DejaVuSans-65" transform="translate(1001.660156 0)"/>
     <use xlink:href="#DejaVuSans-6e" transform="translate(1063.183594 0)"/>
     <use xlink:href="#DejaVuSans-74" transform="translate(1126.5625 0)"/>
     <use xlink:href="#DejaVuSans-20" transform="translate(1165.771484 0)"/>
     <use xlink:href="#DejaVuSans-28" transform="translate(1197.558594 0)"/>
     <use xlink:href="#DejaVuSans-31" transform="translate(1236.572266 0)"/>
     <use xlink:href="#DejaVuSans-33" transform="translate(1300.195312 0)"/>
     <use xlink:href="#DejaVuSans-68" transform="translate(1363.818359 0)"/>
     <use xlink:href="#DejaVuSans-3a" transform="translate(1427.197266 0)"/>
     <use xlink:href="#DejaVuSans-34" transform="translate(1460.888672 0)"/>
     <use xlink:href="#DejaVuSans-35" transform="translate(1524.511719 0)"/>
     <use xlink:href="#DejaVuSans-6d" transform="translate(1588.134766 0)"/>
     <use xlink:href="#DejaVuSans-2c" transform="translate(1685.546875 0)"/>
     <use xlink:href="#DejaVuSans-20" transform="translate(1717.333984 0)"/>
     <use xlink:href="#DejaVuSans-61" transform="translate(1749.121094 0)"/>
     <use xlink:href="#DejaVuSans-74" transform="translate(1810.400391 0)"/>
     <use xlink:href="#DejaVuSans-20" transform="translate(1849.609375 0)"/>
     <use xlink:href="#DejaVuSans-6c" transform="translate(1881.396484 0)"/>
     <use xlink:href="#DejaVuSans-65" transform="translate(1909.179688 0)"/>
     <use xlink:href="#DejaVuSans-61" transform="translate(1970.703125 0)"/>
     <use xlink:href="#DejaVuSans-73" transform="translate(2031.982422 0)"/>
     <use xlink:href="#DejaVuSans-74" transform="translate(2084.082031 0)"/>
     <use xlink:href="#DejaVuSans-20" transform="translate(2123.291016 0)"/>
     <use xlink:href="#DejaVuSans-35" transform="translate(2155.078125 0)"/>
     <use xlink:href="#DejaVuSans-20" transform="translate(2218.701172 0)"/>
     <use xlink:href="#DejaVuSans-74" transform="translate(2250.488281 0)"/>
     <use xlink:href="#DejaVuSans-72" transform="translate(2289.697266 0)"/>
     <use xlink:href="#DejaVuSans-69" transform="translate(2330.810547 0)"/>
     <use xlink:href="#DejaVuSans-61" transform="translate(2358.59375 0)"/>
     <use xlink:href="#DejaVuSans-6c" transform="translate(2419.873047 0)"/>
     <use xlink:href="#DejaVuSans-73" transform="translate(2447.65625 0)"/>
     <use xlink:href="#DejaVuSans-2f" transform="translate(2499.755859 0)"/>
     <use xlink:href="#DejaVuSans-66" transform="translate(2533.447266 0)"/>
     <use xlink:href="#DejaVuSans-75" transform="translate(2568.652344 0)"/>
     <use xlink:href="#DejaVuSans-7a" transform="translate(2632.03125 0)"/>
     <use xlink:href="#DejaVuSans-7a" transform="translate(2684.521484 0)"/>
     <use xlink:href="#DejaVuSans-65" transform="translate(2737.011719 0)"/>
     <use xlink:href="#DejaVuSans-72" transform="translate(2798.535156 0)"/>
     <use xlink:href="#DejaVuSans-29" transform="translate(2839.648438 0)"/>
    </g>
   </g>
   <g id="legend_1">
    <g id="line2d_29">
     <path d="M 771.568125 30.416562 
L 781.568125 30.416562 
L 791.568125 30.416562 
" style="fill: none; stroke: #98df8a; stroke-width: 1.5; stroke-linecap: square"/>
     <g>
      <use xlink:href="#m34dedd4cc6" x="781.568125" y="30.416562" style="fill: #98df8a; stroke: #ffffff; stroke-width: 0.75; stroke-linejoin: miter"/>
     </g>
    </g>
    <g id="text_19">
     <!-- aflplusplus_500c -->
     <g transform="translate(799.568125 33.916562) scale(0.1 -0.1)">
      <defs>
       <path id="DejaVuSans-70" d="M 1159 525 
L 1159 -1331 
L 581 -1331 
L 581 3500 
L 1159 3500 
L 1159 2969 
Q 1341 3281 1617 3432 
Q 1894 3584 2278 3584 
Q 2916 3584 3314 3078 
Q 3713 2572 3713 1747 
Q 3713 922 3314 415 
Q 2916 -91 2278 -91 
Q 1894 -91 1617 61 
Q 1341 213 1159 525 
z
M 3116 1747 
Q 3116 2381 2855 2742 
Q 2594 3103 2138 3103 
Q 1681 3103 1420 2742 
Q 1159 2381 1159 1747 
Q 1159 1113 1420 752 
Q 1681 391 2138 391 
Q 2594 391 2855 752 
Q 3116 1113 3116 1747 
z
" transform="scale(0.015625)"/>
      </defs>
      <use xlink:href="#DejaVuSans-61"/>
      <use xlink:href="#DejaVuSans-66" transform="translate(61.279297 0)"/>
      <use xlink:href="#DejaVuSans-6c" transform="translate(96.484375 0)"/>
      <use xlink:href="#DejaVuSans-70" transform="translate(124.267578 0)"/>
      <use xlink:href="#DejaVuSans-6c" transform="translate(187.744141 0)"/>
      <use xlink:href="#DejaVuSans-75" transform="translate(215.527344 0)"/>
      <use xlink:href="#DejaVuSans-73" transform="translate(278.90625 0)"/>
      <use xlink:href="#DejaVuSans-70" transform="translate(331.005859 0)"/>
      <use xlink:href="#DejaVuSans-6c" transform="translate(394.482422 0)"/>
      <use xlink:href="#DejaVuSans-75" transform="translate(422.265625 0)"/>
      <use xlink:href="#DejaVuSans-73" transform="translate(485.644531 0)"/>
      <use xlink:href="#DejaVuSans-5f" transform="translate(537.744141 0)"/>
      <use xlink:href="#DejaVuSans-35" transform="translate(587.744141 0)"/>
      <use xlink:href="#DejaVuSans-30" transform="translate(651.367188 0)"/>
      <use xlink:href="#DejaVuSans-30" transform="translate(714.990234 0)"/>
      <use xlink:href="#DejaVuSans-63" transform="translate(778.613281 0)"/>
     </g>
    </g>
    <g id="line2d_30">
     <path d="M 771.568125 45.372813 
L 781.568125 45.372813 
L 791.568125 45.372813 
" style="fill: none; stroke: #c7c7c7; stroke-width: 1.5; stroke-linecap: square"/>
     <g>
      <use xlink:href="#m34b7be7a3c" x="781.568125" y="45.372813" style="fill: #c7c7c7; stroke: #ffffff; stroke-width: 0.75; stroke-linejoin: miter"/>
     </g>
    </g>
    <g id="text_20">
     <!-- aflplusplus_mopt -->
     <g transform="translate(799.568125 48.872813) scale(0.1 -0.1)">
      <use xlink:href="#DejaVuSans-61"/>
      <use xlink:href="#DejaVuSans-66" transform="translate(61.279297 0)"/>
      <use xlink:href="#DejaVuSans-6c" transform="translate(96.484375 0)"/>
      <use xlink:href="#DejaVuSans-70" transform="translate(124.267578 0)"/>
      <use xlink:href="#DejaVuSans-6c" transform="translate(187.744141 0)"/>
      <use xlink:href="#DejaVuSans-75" transform="translate(215.527344 0)"/>
      <use xlink:href="#DejaVuSans-73" transform="translate(278.90625 0)"/>
      <use xlink:href="#DejaVuSans-70" transform="translate(331.005859 0)"/>
      <use xlink:href="#DejaVuSans-6c" transform="translate(394.482422 0)"/>
      <use xlink:href="#DejaVuSans-75" transform="translate(422.265625 0)"/>
      <use xlink:href="#DejaVuSans-73" transform="translate(485.644531 0)"/>
      <use xlink:href="#DejaVuSans-5f" transform="translate(537.744141 0)"/>
      <use xlink:href="#DejaVuSans-6d" transform="translate(587.744141 0)"/>
      <use xlink:href="#DejaVuSans-6f" transform="translate(685.15625 0)"/>
      <use xlink:href="#DejaVuSans-70" transform="translate(746.337891 0)"/>
      <use xlink:href="#DejaVuSans-74" transform="translate(809.814453 0)"/>
     </g>
    </g>
    <g id="line2d_31">
     <path d="M 771.568125 60.329063 
L 781.568125 60.329063 
L 791.568125 60.329063 
" style="fill: none; stroke: #d62728; stroke-width: 1.5; stroke-linecap: square"/>
     <g>
      <use xlink:href="#m6098346ce7" x="781.568125" y="60.329063" style="fill: #d62728; stroke: #ffffff; stroke-width: 0.75; stroke-linejoin: miter"/>
     </g>
    </g>
    <g id="text_21">
     <!-- aflplusplus_c11 -->
     <g transform="translate(799.568125 63.829063) scale(0.1 -0.1)">
      <use xlink:href="#DejaVuSans-61"/>
      <use xlink:href="#DejaVuSans-66" transform="translate(61.279297 0)"/>
      <use xlink:href="#DejaVuSans-6c" transform="translate(96.484375 0)"/>
      <use xlink:href="#DejaVuSans-70" transform="translate(124.267578 0)"/>
      <use xlink:href="#DejaVuSans-6c" transform="translate(187.744141 0)"/>
      <use xlink:href="#DejaVuSans-75" transform="translate(215.527344 0)"/>
      <use xlink:href="#DejaVuSans-73" transform="translate(278.90625 0)"/>
      <use xlink:href="#DejaVuSans-70" transform="translate(331.005859 0)"/>
      <use xlink:href="#DejaVuSans-6c" transform="translate(394.482422 0)"/>
      <use xlink:href="#DejaVuSans-75" transform="translate(422.265625 0)"/>
      <use xlink:href="#DejaVuSans-73" transform="translate(485.644531 0)"/>
      <use xlink:href="#DejaVuSans-5f" transform="translate(537.744141 0)"/>
      <use xlink:href="#DejaVuSans-63" transform="translate(587.744141 0)"/>
      <use xlink:href="#DejaVuSans-31" transform="translate(642.724609 0)"/>
      <use xlink:href="#DejaVuSans-31" transform="translate(706.347656 0)"/>
     </g>
    </g>
    <g id="line2d_32">
     <path d="M 771.568125 75.285313 
L 781.568125 75.285313 
L 791.568125 75.285313 
" style="fill: none; stroke: #1f77b4; stroke-width: 1.5; stroke-linecap: square"/>
     <g>
      <use xlink:href="#me1bed37e8e" x="781.568125" y="75.285313" style="fill: #1f77b4; stroke: #ffffff; stroke-width: 0.75"/>
     </g>
    </g>
    <g id="text_22">
     <!-- aflplusplus_440c -->
     <g transform="translate(799.568125 78.785313) scale(0.1 -0.1)">
      <use xlink:href="#DejaVuSans-61"/>
      <use xlink:href="#DejaVuSans-66" transform="translate(61.279297 0)"/>
      <use xlink:href="#DejaVuSans-6c" transform="translate(96.484375 0)"/>
      <use xlink:href="#DejaVuSans-70" transform="translate(124.267578 0)"/>
      <use xlink:href="#DejaVuSans-6c" transform="translate(187.744141 0)"/>
      <use xlink:href="#DejaVuSans-75" transform="translate(215.527344 0)"/>
      <use xlink:href="#DejaVuSans-73" transform="translate(278.90625 0)"/>
      <use xlink:href="#DejaVuSans-70" transform="translate(331.005859 0)"/>
      <use xlink:href="#DejaVuSans-6c" transform="translate(394.482422 0)"/>
      <use xlink:href="#DejaVuSans-75" transform="translate(422.265625 0)"/>
      <use xlink:href="#DejaVuSans-73" transform="translate(485.644531 0)"/>
      <use xlink:href="#DejaVuSans-5f" transform="translate(537.744141 0)"/>
      <use xlink:href="#DejaVuSans-34" transform="translate(587.744141 0)"/>
      <use xlink:href="#DejaVuSans-34" transform="translate(651.367188 0)"/>
      <use xlink:href="#DejaVuSans-30" transform="translate(714.990234 0)"/>
      <use xlink:href="#DejaVuSans-63" transform="translate(778.613281 0)"/>
     </g>
    </g>
   </g>
  </g>
 </g>
 <defs>
  <clipPath id="p63301ee816">
   <rect x="53.328125" y="22.318125" width="714.24" height="266.112"/>
  </clipPath>
 </defs>
</svg>
