<?xml version="1.0" encoding="utf-8" standalone="no"?>
<!DOCTYPE svg PUBLIC "-//W3C//DTD SVG 1.1//EN"
  "http://www.w3.org/Graphics/SVG/1.1/DTD/svg11.dtd">
<svg xmlns:xlink="http://www.w3.org/1999/xlink" width="895.669687pt" height="325.986375pt" viewBox="0 0 895.669687 325.986375" xmlns="http://www.w3.org/2000/svg" version="1.1">
 <metadata>
  <rdf:RDF xmlns:dc="http://purl.org/dc/elements/1.1/" xmlns:cc="http://creativecommons.org/ns#" xmlns:rdf="http://www.w3.org/1999/02/22-rdf-syntax-ns#">
   <cc:Work>
    <dc:type rdf:resource="http://purl.org/dc/dcmitype/StillImage"/>
    <dc:date>2026-06-10T03:44:15.949628</dc:date>
    <dc:format>image/svg+xml</dc:format>
    <dc:creator>
     <cc:Agent>
      <dc:title>Matplotlib v3.10.9, https://matplotlib.org/</dc:title>
     </cc:Agent>
    </dc:creator>
   </cc:Work>
  </rdf:RDF>
 </metadata>
 <defs>
  <style type="text/css">*{stroke-linejoin: round; stroke-linecap: butt}</style>
 </defs>
 <g id="figure_1">
  <g id="patch_1">
   <path d="M 0 325.986375 
L 895.669688 325.986375 
L 895.669688 0 
L 0 0 
z
" style="fill: #ffffff"/>
  </g>
  <g id="axes_1">
   <g id="patch_2">
    <path d="M 53.328125 288.430125 
L 767.568125 288.430125 
L 767.568125 22.318125 
L 53.328125 22.318125 
z
" style="fill: #ffffff"/>
   </g>
   <g id="FillBetweenPolyCollection_1">
    <defs>
     <path id="mba0f14a35c" d="M 53.328125 -49.65225 
L 53.328125 -49.65225 
L 545.142907 -138.075323 
L 584.472948 -144.430731 
L 607.479547 -146.088663 
L 623.802989 -148.990046 
L 636.464434 -148.990046 
L 646.809588 -148.990046 
L 655.556291 -148.990046 
L 663.133029 -149.266368 
L 669.816187 -149.266368 
L 675.794474 -149.54269 
L 681.202494 -150.371656 
L 686.139628 -150.371656 
L 690.681352 -150.371656 
L 694.886331 -150.786139 
L 698.801073 -153.54936 
L 702.46307 -153.54936 
L 705.902987 -153.54936 
L 709.146227 -153.825682 
L 712.214069 -154.516488 
L 715.124515 -155.898098 
L 717.89293 -156.17442 
L 720.532534 -156.17442 
L 723.054783 -157.832353 
L 725.469669 -157.832353 
L 727.78596 -157.832353 
L 730.011393 -158.246836 
L 732.152826 -160.181091 
L 734.216372 -160.181091 
L 736.207498 -160.871896 
L 738.131114 -161.977184 
L 739.99165 -162.806151 
L 741.793111 -162.806151 
L 743.539133 -162.806151 
L 745.233028 -163.082473 
L 746.877817 -163.082473 
L 748.476268 -163.220634 
L 750.03092 -163.220634 
L 751.54411 -163.220634 
L 753.017992 -163.220634 
L 754.454556 -163.220634 
L 755.855646 -163.220634 
L 757.222971 -163.220634 
L 758.558121 -163.358795 
L 759.862575 -163.358795 
L 761.137713 -163.358795 
L 762.384824 -163.496956 
L 763.605113 -163.496956 
L 764.79971 -164.740405 
L 764.79971 -291.57225 
L 764.79971 -291.57225 
L 763.605113 -288.256385 
L 762.384824 -288.256385 
L 761.137713 -288.256385 
L 759.862575 -288.256385 
L 758.558121 -288.256385 
L 757.222971 -285.216842 
L 755.855646 -268.084871 
L 754.454556 -259.242564 
L 753.017992 -259.242564 
L 751.54411 -259.242564 
L 750.03092 -178.418349 
L 748.476268 -178.280188 
L 746.877817 -178.142027 
L 745.233028 -173.444552 
L 743.539133 -173.444552 
L 741.793111 -173.444552 
L 739.99165 -173.030068 
L 738.131114 -171.786619 
L 736.207498 -171.648458 
L 734.216372 -171.648458 
L 732.152826 -171.648458 
L 730.011393 -171.233975 
L 727.78596 -171.233975 
L 725.469669 -171.233975 
L 723.054783 -171.233975 
L 720.532534 -171.233975 
L 717.89293 -171.233975 
L 715.124515 -171.233975 
L 712.214069 -171.233975 
L 709.146227 -171.233975 
L 705.902987 -170.957653 
L 702.46307 -170.957653 
L 698.801073 -170.957653 
L 694.886331 -170.957653 
L 690.681352 -169.714203 
L 686.139628 -169.714203 
L 681.202494 -169.714203 
L 675.794474 -169.714203 
L 669.816187 -169.714203 
L 663.133029 -169.714203 
L 655.556291 -167.365465 
L 646.809588 -166.536499 
L 636.464434 -165.983855 
L 623.802989 -164.0496 
L 607.479547 -162.66799 
L 584.472948 -159.628446 
L 545.142907 -157.970514 
L 53.328125 -49.65225 
z
" style="stroke: #98df8a; stroke-opacity: 0.2"/>
    </defs>
    <g clip-path="url(#pfad02c60d3)">
     <use xlink:href="#mba0f14a35c" x="0" y="325.986375" style="fill: #98df8a; fill-opacity: 0.2; stroke: #98df8a; stroke-opacity: 0.2"/>
    </g>
   </g>
   <g id="FillBetweenPolyCollection_2">
    <defs>
     <path id="m669dd62270" d="M 53.328125 -49.65225 
L 53.328125 -49.65225 
L 545.142907 -139.733255 
L 584.472948 -141.253027 
L 607.479547 -149.54269 
L 623.802989 -151.753267 
L 636.464434 -156.865225 
L 646.809588 -160.04293 
L 655.556291 -160.871896 
L 663.133029 -161.010057 
L 669.816187 -161.42454 
L 675.794474 -162.806151 
L 681.202494 -162.944312 
L 686.139628 -163.635117 
L 690.681352 -164.187761 
L 694.886331 -164.187761 
L 698.801073 -164.602244 
L 702.46307 -165.29305 
L 705.902987 -165.29305 
L 709.146227 -165.29305 
L 712.214069 -165.29305 
L 715.124515 -166.67466 
L 717.89293 -167.089143 
L 720.532534 -167.089143 
L 723.054783 -167.365465 
L 725.469669 -167.503626 
L 727.78596 -167.503626 
L 730.011393 -167.503626 
L 732.152826 -167.503626 
L 734.216372 -167.503626 
L 736.207498 -167.503626 
L 738.131114 -167.503626 
L 739.99165 -167.779948 
L 741.793111 -167.779948 
L 743.539133 -167.779948 
L 745.233028 -167.91811 
L 746.877817 -167.91811 
L 748.476268 -167.91811 
L 750.03092 -167.91811 
L 751.54411 -167.91811 
L 753.017992 -167.91811 
L 754.454556 -167.91811 
L 755.855646 -167.91811 
L 757.222971 -167.91811 
L 758.558121 -168.056271 
L 759.862575 -168.194432 
L 761.137713 -168.194432 
L 762.384824 -168.194432 
L 763.605113 -168.194432 
L 764.79971 -168.194432 
L 764.79971 -182.839503 
L 764.79971 -182.839503 
L 763.605113 -182.839503 
L 762.384824 -182.839503 
L 761.137713 -182.839503 
L 759.862575 -182.839503 
L 758.558121 -182.839503 
L 757.222971 -182.839503 
L 755.855646 -182.839503 
L 754.454556 -182.839503 
L 753.017992 -182.839503 
L 751.54411 -182.839503 
L 750.03092 -180.628926 
L 748.476268 -180.214443 
L 746.877817 -180.214443 
L 745.233028 -180.214443 
L 743.539133 -180.214443 
L 741.793111 -180.214443 
L 739.99165 -179.938121 
L 738.131114 -179.938121 
L 736.207498 -179.938121 
L 734.216372 -179.938121 
L 732.152826 -179.938121 
L 730.011393 -179.938121 
L 727.78596 -179.938121 
L 725.469669 -179.938121 
L 723.054783 -179.661799 
L 720.532534 -179.661799 
L 717.89293 -178.418349 
L 715.124515 -178.003866 
L 712.214069 -177.589383 
L 709.146227 -177.036739 
L 705.902987 -167.503626 
L 702.46307 -167.503626 
L 698.801073 -167.089143 
L 694.886331 -167.089143 
L 690.681352 -167.089143 
L 686.139628 -167.089143 
L 681.202494 -166.950982 
L 675.794474 -166.122016 
L 669.816187 -164.878566 
L 663.133029 -163.220634 
L 655.556291 -162.115345 
L 646.809588 -161.562701 
L 636.464434 -161.286379 
L 623.802989 -160.733735 
L 607.479547 -156.312581 
L 584.472948 -154.930971 
L 545.142907 -146.91763 
L 53.328125 -49.65225 
z
" style="stroke: #c7c7c7; stroke-opacity: 0.2"/>
    </defs>
    <g clip-path="url(#pfad02c60d3)">
     <use xlink:href="#m669dd62270" x="0" y="325.986375" style="fill: #c7c7c7; fill-opacity: 0.2; stroke: #c7c7c7; stroke-opacity: 0.2"/>
    </g>
   </g>
   <g id="FillBetweenPolyCollection_3">
    <defs>
     <path id="m6fbf013ce8" d="M 53.328125 -49.65225 
L 53.328125 -49.65225 
L 545.142907 -138.420725 
L 584.472948 -142.012912 
L 607.479547 -143.256362 
L 623.802989 -145.743261 
L 636.464434 -146.503147 
L 646.809588 -148.091999 
L 655.556291 -148.437401 
L 663.133029 -148.437401 
L 669.816187 -148.782804 
L 675.794474 -150.026253 
L 681.202494 -150.095334 
L 686.139628 -150.717059 
L 690.681352 -150.786139 
L 694.886331 -151.615106 
L 698.801073 -151.615106 
L 702.46307 -152.305911 
L 705.902987 -152.374991 
L 709.146227 -152.374991 
L 712.214069 -152.374991 
L 715.124515 -152.720394 
L 717.89293 -152.789474 
L 720.532534 -152.858555 
L 723.054783 -153.134877 
L 725.469669 -153.134877 
L 727.78596 -154.447407 
L 730.011393 -154.447407 
L 732.152826 -154.447407 
L 734.216372 -154.516488 
L 736.207498 -156.865225 
L 738.131114 -156.934306 
L 739.99165 -157.556031 
L 741.793111 -158.105221 
L 743.539133 -159.352124 
L 745.233028 -159.352124 
L 746.877817 -159.628446 
L 748.476268 -160.388332 
L 750.03092 -160.664654 
L 751.54411 -160.733735 
L 753.017992 -160.733735 
L 754.454556 -160.940976 
L 755.855646 -162.322587 
L 757.222971 -162.391667 
L 758.558121 -162.391667 
L 759.862575 -162.598909 
L 761.137713 -163.566036 
L 762.384824 -163.635117 
L 763.605113 -164.533164 
L 764.79971 -164.671325 
L 764.79971 -176.622256 
L 764.79971 -176.622256 
L 763.605113 -176.622256 
L 762.384824 -176.622256 
L 761.137713 -176.622256 
L 759.862575 -175.93145 
L 758.558121 -176.553175 
L 757.222971 -176.484095 
L 755.855646 -176.484095 
L 754.454556 -176.484095 
L 753.017992 -176.484095 
L 751.54411 -176.484095 
L 750.03092 -176.276853 
L 748.476268 -176.276853 
L 746.877817 -176.138692 
L 745.233028 -176.138692 
L 743.539133 -175.86237 
L 741.793111 -175.86237 
L 739.99165 -175.724209 
L 738.131114 -175.724209 
L 736.207498 -175.724209 
L 734.216372 -174.713906 
L 732.152826 -175.724209 
L 730.011393 -175.724209 
L 727.78596 -175.724209 
L 725.469669 -175.724209 
L 723.054783 -174.964323 
L 720.532534 -174.964323 
L 717.89293 -174.54984 
L 715.124515 -174.54984 
L 712.214069 -174.480759 
L 709.146227 -174.411679 
L 705.902987 -173.444552 
L 702.46307 -173.23731 
L 698.801073 -172.960988 
L 694.886331 -172.132022 
L 690.681352 -169.506962 
L 686.139628 -169.023398 
L 681.202494 -169.023398 
L 675.794474 -168.747076 
L 669.816187 -164.602244 
L 663.133029 -160.940976 
L 655.556291 -159.352124 
L 646.809588 -157.970514 
L 636.464434 -157.832353 
L 623.802989 -157.832353 
L 607.479547 -156.243501 
L 584.472948 -152.473431 
L 545.142907 -148.437401 
L 53.328125 -49.65225 
z
" style="stroke: #d62728; stroke-opacity: 0.2"/>
    </defs>
    <g clip-path="url(#pfad02c60d3)">
     <use xlink:href="#m6fbf013ce8" x="0" y="325.986375" style="fill: #d62728; fill-opacity: 0.2; stroke: #d62728; stroke-opacity: 0.2"/>
    </g>
   </g>
   <g id="FillBetweenPolyCollection_4">
    <defs>
     <path id="m69bfd9fa07" d="M 53.328125 -49.65225 
L 53.328125 -49.65225 
L 545.142907 -135.10486 
L 584.472948 -136.279229 
L 607.479547 -138.213484 
L 623.802989 -141.391188 
L 636.464434 -141.874751 
L 646.809588 -141.805671 
L 655.556291 -143.318534 
L 663.133029 -144.983375 
L 669.816187 -145.121536 
L 675.794474 -146.779469 
L 681.202494 -147.470274 
L 686.139628 -147.539355 
L 690.681352 -147.608435 
L 694.886331 -147.608435 
L 698.801073 -147.884757 
L 702.46307 -147.884757 
L 705.902987 -148.022918 
L 709.146227 -148.161079 
L 712.214069 -149.819012 
L 715.124515 -149.957173 
L 717.89293 -150.578898 
L 720.532534 -150.575444 
L 723.054783 -150.786139 
L 725.469669 -150.371656 
L 727.78596 -150.371656 
L 730.011393 -150.371656 
L 732.152826 -151.476944 
L 734.216372 -151.476944 
L 736.207498 -151.960508 
L 738.131114 -153.54936 
L 739.99165 -153.54936 
L 741.793111 -153.687521 
L 743.539133 -155.759937 
L 745.233028 -155.898098 
L 746.877817 -156.450742 
L 748.476268 -157.003386 
L 750.03092 -157.003386 
L 751.54411 -157.970514 
L 753.017992 -160.181091 
L 754.454556 -160.181091 
L 755.855646 -161.010057 
L 757.222971 -161.42454 
L 758.558121 -161.839023 
L 759.862575 -161.839023 
L 761.137713 -162.253506 
L 762.384824 -162.391667 
L 763.605113 -162.391667 
L 764.79971 -162.391667 
L 764.79971 -175.240645 
L 764.79971 -175.240645 
L 763.605113 -175.240645 
L 762.384824 -174.688001 
L 761.137713 -174.688001 
L 759.862575 -172.753746 
L 758.558121 -172.753746 
L 757.222971 -171.92478 
L 755.855646 -172.753746 
L 754.454556 -172.753746 
L 753.017992 -171.233975 
L 751.54411 -171.166621 
L 750.03092 -171.233975 
L 748.476268 -171.233975 
L 746.877817 -171.233975 
L 745.233028 -171.233975 
L 743.539133 -170.957653 
L 741.793111 -171.233975 
L 739.99165 -170.957653 
L 738.131114 -170.957653 
L 736.207498 -171.233975 
L 734.216372 -170.266847 
L 732.152826 -169.990525 
L 730.011393 -168.677995 
L 727.78596 -169.437881 
L 725.469669 -167.227304 
L 723.054783 -167.089143 
L 720.532534 -166.881902 
L 717.89293 -167.089143 
L 715.124515 -166.67466 
L 712.214069 -166.398338 
L 709.146227 -166.398338 
L 705.902987 -166.398338 
L 702.46307 -166.260177 
L 698.801073 -164.104865 
L 694.886331 -161.148218 
L 690.681352 -161.148218 
L 686.139628 -160.205269 
L 681.202494 -161.148218 
L 675.794474 -161.148218 
L 669.816187 -161.010057 
L 663.133029 -160.526493 
L 655.556291 -159.904769 
L 646.809588 -157.556031 
L 636.464434 -155.069132 
L 623.802989 -152.996716 
L 607.479547 -151.200622 
L 584.472948 -149.957173 
L 545.142907 -143.187281 
L 53.328125 -49.65225 
z
" style="stroke: #1f77b4; stroke-opacity: 0.2"/>
    </defs>
    <g clip-path="url(#pfad02c60d3)">
     <use xlink:href="#m69bfd9fa07" x="0" y="325.986375" style="fill: #1f77b4; fill-opacity: 0.2; stroke: #1f77b4; stroke-opacity: 0.2"/>
    </g>
   </g>
   <g id="matplotlib.axis_1">
    <g id="xtick_1">
     <g id="line2d_1">
      <defs>
       <path id="mc727f09866" d="M 0 0 
L 0 3.5 
" style="stroke: #000000; stroke-width: 0.8"/>
      </defs>
      <g>
       <use xlink:href="#mc727f09866" x="53.328125" y="288.430125" style="stroke: #000000; stroke-width: 0.8"/>
      </g>
     </g>
     <g id="text_1">
      <!-- 0m -->
      <g transform="translate(45.276563 303.028562) scale(0.1 -0.1)">
       <defs>
        <path id="DejaVuSans-30" d="M 2034 4250 
Q 1547 4250 1301 3770 
Q 1056 3291 1056 2328 
Q 1056 1369 1301 889 
Q 1547 409 2034 409 
Q 2525 409 2770 889 
Q 3016 1369 3016 2328 
Q 3016 3291 2770 3770 
Q 2525 4250 2034 4250 
z
M 2034 4750 
Q 2819 4750 3233 4129 
Q 3647 3509 3647 2328 
Q 3647 1150 3233 529 
Q 2819 -91 2034 -91 
Q 1250 -91 836 529 
Q 422 1150 422 2328 
Q 422 3509 836 4129 
Q 1250 4750 2034 4750 
z
" transform="scale(0.015625)"/>
        <path id="DejaVuSans-6d" d="M 3328 2828 
Q 3544 3216 3844 3400 
Q 4144 3584 4550 3584 
Q 5097 3584 5394 3201 
Q 5691 2819 5691 2113 
L 5691 0 
L 5113 0 
L 5113 2094 
Q 5113 2597 4934 2840 
Q 4756 3084 4391 3084 
Q 3944 3084 3684 2787 
Q 3425 2491 3425 1978 
L 3425 0 
L 2847 0 
L 2847 2094 
Q 2847 2600 2669 2842 
Q 2491 3084 2119 3084 
Q 1678 3084 1418 2786 
Q 1159 2488 1159 1978 
L 1159 0 
L 581 0 
L 581 3500 
L 1159 3500 
L 1159 2956 
Q 1356 3278 1631 3431 
Q 1906 3584 2284 3584 
Q 2666 3584 2933 3390 
Q 3200 3197 3328 2828 
z
" transform="scale(0.015625)"/>
       </defs>
       <use xlink:href="#DejaVuSans-30"/>
       <use xlink:href="#DejaVuSans-6d" transform="translate(63.623047 0)"/>
      </g>
     </g>
    </g>
    <g id="xtick_2">
     <g id="line2d_2">
      <g>
       <use xlink:href="#mc727f09866" x="125.912329" y="288.430125" style="stroke: #000000; stroke-width: 0.8"/>
      </g>
     </g>
    </g>
    <g id="xtick_3">
     <g id="line2d_3">
      <g>
       <use xlink:href="#mc727f09866" x="219.729946" y="288.430125" style="stroke: #000000; stroke-width: 0.8"/>
      </g>
     </g>
    </g>
    <g id="xtick_4">
     <g id="line2d_4">
      <g>
       <use xlink:href="#mc727f09866" x="280.293399" y="288.430125" style="stroke: #000000; stroke-width: 0.8"/>
      </g>
     </g>
    </g>
    <g id="xtick_5">
     <g id="line2d_5">
      <g>
       <use xlink:href="#mc727f09866" x="340.856852" y="288.430125" style="stroke: #000000; stroke-width: 0.8"/>
      </g>
     </g>
    </g>
    <g id="xtick_6">
     <g id="line2d_6">
      <g>
       <use xlink:href="#mc727f09866" x="401.420305" y="288.430125" style="stroke: #000000; stroke-width: 0.8"/>
      </g>
     </g>
     <g id="text_2">
      <!-- 1m -->
      <g transform="translate(393.368742 303.028562) scale(0.1 -0.1)">
       <defs>
        <path id="DejaVuSans-31" d="M 794 531 
L 1825 531 
L 1825 4091 
L 703 3866 
L 703 4441 
L 1819 4666 
L 2450 4666 
L 2450 531 
L 3481 531 
L 3481 0 
L 794 0 
L 794 531 
z
" transform="scale(0.015625)"/>
       </defs>
       <use xlink:href="#DejaVuSans-31"/>
       <use xlink:href="#DejaVuSans-6d" transform="translate(63.623047 0)"/>
      </g>
     </g>
    </g>
    <g id="xtick_7">
     <g id="line2d_7">
      <g>
       <use xlink:href="#mc727f09866" x="461.983758" y="288.430125" style="stroke: #000000; stroke-width: 0.8"/>
      </g>
     </g>
     <g id="text_3">
      <!-- 3m -->
      <g transform="translate(453.932195 303.028562) scale(0.1 -0.1)">
       <defs>
        <path id="DejaVuSans-33" d="M 2597 2516 
Q 3050 2419 3304 2112 
Q 3559 1806 3559 1356 
Q 3559 666 3084 287 
Q 2609 -91 1734 -91 
Q 1441 -91 1130 -33 
Q 819 25 488 141 
L 488 750 
Q 750 597 1062 519 
Q 1375 441 1716 441 
Q 2309 441 2620 675 
Q 2931 909 2931 1356 
Q 2931 1769 2642 2001 
Q 2353 2234 1838 2234 
L 1294 2234 
L 1294 2753 
L 1863 2753 
Q 2328 2753 2575 2939 
Q 2822 3125 2822 3475 
Q 2822 3834 2567 4026 
Q 2313 4219 1838 4219 
Q 1578 4219 1281 4162 
Q 984 4106 628 3988 
L 628 4550 
Q 988 4650 1302 4700 
Q 1616 4750 1894 4750 
Q 2613 4750 3031 4423 
Q 3450 4097 3450 3541 
Q 3450 3153 3228 2886 
Q 3006 2619 2597 2516 
z
" transform="scale(0.015625)"/>
       </defs>
       <use xlink:href="#DejaVuSans-33"/>
       <use xlink:href="#DejaVuSans-6d" transform="translate(63.623047 0)"/>
      </g>
     </g>
    </g>
    <g id="xtick_8">
     <g id="line2d_8">
      <g>
       <use xlink:href="#mc727f09866" x="522.547211" y="288.430125" style="stroke: #000000; stroke-width: 0.8"/>
      </g>
     </g>
     <g id="text_4">
      <!-- 10m -->
      <g transform="translate(511.314398 303.028562) scale(0.1 -0.1)">
       <use xlink:href="#DejaVuSans-31"/>
       <use xlink:href="#DejaVuSans-30" transform="translate(63.623047 0)"/>
       <use xlink:href="#DejaVuSans-6d" transform="translate(127.246094 0)"/>
      </g>
     </g>
    </g>
    <g id="xtick_9">
     <g id="line2d_9">
      <g>
       <use xlink:href="#mc727f09866" x="583.110664" y="288.430125" style="stroke: #000000; stroke-width: 0.8"/>
      </g>
     </g>
     <g id="text_5">
      <!-- 29m -->
      <g transform="translate(571.877852 303.028562) scale(0.1 -0.1)">
       <defs>
        <path id="DejaVuSans-32" d="M 1228 531 
L 3431 531 
L 3431 0 
L 469 0 
L 469 531 
Q 828 903 1448 1529 
Q 2069 2156 2228 2338 
Q 2531 2678 2651 2914 
Q 2772 3150 2772 3378 
Q 2772 3750 2511 3984 
Q 2250 4219 1831 4219 
Q 1534 4219 1204 4116 
Q 875 4013 500 3803 
L 500 4441 
Q 881 4594 1212 4672 
Q 1544 4750 1819 4750 
Q 2544 4750 2975 4387 
Q 3406 4025 3406 3419 
Q 3406 3131 3298 2873 
Q 3191 2616 2906 2266 
Q 2828 2175 2409 1742 
Q 1991 1309 1228 531 
z
" transform="scale(0.015625)"/>
        <path id="DejaVuSans-39" d="M 703 97 
L 703 672 
Q 941 559 1184 500 
Q 1428 441 1663 441 
Q 2288 441 2617 861 
Q 2947 1281 2994 2138 
Q 2813 1869 2534 1725 
Q 2256 1581 1919 1581 
Q 1219 1581 811 2004 
Q 403 2428 403 3163 
Q 403 3881 828 4315 
Q 1253 4750 1959 4750 
Q 2769 4750 3195 4129 
Q 3622 3509 3622 2328 
Q 3622 1225 3098 567 
Q 2575 -91 1691 -91 
Q 1453 -91 1209 -44 
Q 966 3 703 97 
z
M 1959 2075 
Q 2384 2075 2632 2365 
Q 2881 2656 2881 3163 
Q 2881 3666 2632 3958 
Q 2384 4250 1959 4250 
Q 1534 4250 1286 3958 
Q 1038 3666 1038 3163 
Q 1038 2656 1286 2365 
Q 1534 2075 1959 2075 
z
" transform="scale(0.015625)"/>
       </defs>
       <use xlink:href="#DejaVuSans-32"/>
       <use xlink:href="#DejaVuSans-39" transform="translate(63.623047 0)"/>
       <use xlink:href="#DejaVuSans-6d" transform="translate(127.246094 0)"/>
      </g>
     </g>
    </g>
    <g id="xtick_10">
     <g id="line2d_10">
      <g>
       <use xlink:href="#mc727f09866" x="643.674117" y="288.430125" style="stroke: #000000; stroke-width: 0.8"/>
      </g>
     </g>
     <g id="text_6">
      <!-- 1h:25m -->
      <g transform="translate(624.40693 303.028562) scale(0.1 -0.1)">
       <defs>
        <path id="DejaVuSans-68" d="M 3513 2113 
L 3513 0 
L 2938 0 
L 2938 2094 
Q 2938 2591 2744 2837 
Q 2550 3084 2163 3084 
Q 1697 3084 1428 2787 
Q 1159 2491 1159 1978 
L 1159 0 
L 581 0 
L 581 4863 
L 1159 4863 
L 1159 2956 
Q 1366 3272 1645 3428 
Q 1925 3584 2291 3584 
Q 2894 3584 3203 3211 
Q 3513 2838 3513 2113 
z
" transform="scale(0.015625)"/>
        <path id="DejaVuSans-3a" d="M 750 794 
L 1409 794 
L 1409 0 
L 750 0 
L 750 794 
z
M 750 3309 
L 1409 3309 
L 1409 2516 
L 750 2516 
L 750 3309 
z
" transform="scale(0.015625)"/>
        <path id="DejaVuSans-35" d="M 691 4666 
L 3169 4666 
L 3169 4134 
L 1269 4134 
L 1269 2991 
Q 1406 3038 1543 3061 
Q 1681 3084 1819 3084 
Q 2600 3084 3056 2656 
Q 3513 2228 3513 1497 
Q 3513 744 3044 326 
Q 2575 -91 1722 -91 
Q 1428 -91 1123 -41 
Q 819 9 494 109 
L 494 744 
Q 775 591 1075 516 
Q 1375 441 1709 441 
Q 2250 441 2565 725 
Q 2881 1009 2881 1497 
Q 2881 1984 2565 2268 
Q 2250 2553 1709 2553 
Q 1456 2553 1204 2497 
Q 953 2441 691 2322 
L 691 4666 
z
" transform="scale(0.015625)"/>
       </defs>
       <use xlink:href="#DejaVuSans-31"/>
       <use xlink:href="#DejaVuSans-68" transform="translate(63.623047 0)"/>
       <use xlink:href="#DejaVuSans-3a" transform="translate(127.001953 0)"/>
       <use xlink:href="#DejaVuSans-32" transform="translate(160.693359 0)"/>
       <use xlink:href="#DejaVuSans-35" transform="translate(224.316406 0)"/>
       <use xlink:href="#DejaVuSans-6d" transform="translate(287.939453 0)"/>
      </g>
     </g>
    </g>
    <g id="xtick_11">
     <g id="line2d_11">
      <g>
       <use xlink:href="#mc727f09866" x="704.23757" y="288.430125" style="stroke: #000000; stroke-width: 0.8"/>
      </g>
     </g>
     <g id="text_7">
      <!-- 4h:7m -->
      <g transform="translate(688.151633 303.028562) scale(0.1 -0.1)">
       <defs>
        <path id="DejaVuSans-34" d="M 2419 4116 
L 825 1625 
L 2419 1625 
L 2419 4116 
z
M 2253 4666 
L 3047 4666 
L 3047 1625 
L 3713 1625 
L 3713 1100 
L 3047 1100 
L 3047 0 
L 2419 0 
L 2419 1100 
L 313 1100 
L 313 1709 
L 2253 4666 
z
" transform="scale(0.015625)"/>
        <path id="DejaVuSans-37" d="M 525 4666 
L 3525 4666 
L 3525 4397 
L 1831 0 
L 1172 0 
L 2766 4134 
L 525 4134 
L 525 4666 
z
" transform="scale(0.015625)"/>
       </defs>
       <use xlink:href="#DejaVuSans-34"/>
       <use xlink:href="#DejaVuSans-68" transform="translate(63.623047 0)"/>
       <use xlink:href="#DejaVuSans-3a" transform="translate(127.001953 0)"/>
       <use xlink:href="#DejaVuSans-37" transform="translate(160.693359 0)"/>
       <use xlink:href="#DejaVuSans-6d" transform="translate(224.316406 0)"/>
      </g>
     </g>
    </g>
    <g id="xtick_12">
     <g id="line2d_12">
      <g>
       <use xlink:href="#mc727f09866" x="764.801023" y="288.430125" style="stroke: #000000; stroke-width: 0.8"/>
      </g>
     </g>
     <g id="text_8">
      <!-- 12h -->
      <g transform="translate(755.269773 303.028562) scale(0.1 -0.1)">
       <use xlink:href="#DejaVuSans-31"/>
       <use xlink:href="#DejaVuSans-32" transform="translate(63.623047 0)"/>
       <use xlink:href="#DejaVuSans-68" transform="translate(127.246094 0)"/>
      </g>
     </g>
    </g>
    <g id="text_9">
     <!-- Time (hour:minute) -->
     <g transform="translate(362.041094 316.706687) scale(0.1 -0.1)">
      <defs>
       <path id="DejaVuSans-54" d="M -19 4666 
L 3928 4666 
L 3928 4134 
L 2272 4134 
L 2272 0 
L 1638 0 
L 1638 4134 
L -19 4134 
L -19 4666 
z
" transform="scale(0.015625)"/>
       <path id="DejaVuSans-69" d="M 603 3500 
L 1178 3500 
L 1178 0 
L 603 0 
L 603 3500 
z
M 603 4863 
L 1178 4863 
L 1178 4134 
L 603 4134 
L 603 4863 
z
" transform="scale(0.015625)"/>
       <path id="DejaVuSans-65" d="M 3597 1894 
L 3597 1613 
L 953 1613 
Q 991 1019 1311 708 
Q 1631 397 2203 397 
Q 2534 397 2845 478 
Q 3156 559 3463 722 
L 3463 178 
Q 3153 47 2828 -22 
Q 2503 -91 2169 -91 
Q 1331 -91 842 396 
Q 353 884 353 1716 
Q 353 2575 817 3079 
Q 1281 3584 2069 3584 
Q 2775 3584 3186 3129 
Q 3597 2675 3597 1894 
z
M 3022 2063 
Q 3016 2534 2758 2815 
Q 2500 3097 2075 3097 
Q 1594 3097 1305 2825 
Q 1016 2553 972 2059 
L 3022 2063 
z
" transform="scale(0.015625)"/>
       <path id="DejaVuSans-20" transform="scale(0.015625)"/>
       <path id="DejaVuSans-28" d="M 1984 4856 
Q 1566 4138 1362 3434 
Q 1159 2731 1159 2009 
Q 1159 1288 1364 580 
Q 1569 -128 1984 -844 
L 1484 -844 
Q 1016 -109 783 600 
Q 550 1309 550 2009 
Q 550 2706 781 3412 
Q 1013 4119 1484 4856 
L 1984 4856 
z
" transform="scale(0.015625)"/>
       <path id="DejaVuSans-6f" d="M 1959 3097 
Q 1497 3097 1228 2736 
Q 959 2375 959 1747 
Q 959 1119 1226 758 
Q 1494 397 1959 397 
Q 2419 397 2687 759 
Q 2956 1122 2956 1747 
Q 2956 2369 2687 2733 
Q 2419 3097 1959 3097 
z
M 1959 3584 
Q 2709 3584 3137 3096 
Q 3566 2609 3566 1747 
Q 3566 888 3137 398 
Q 2709 -91 1959 -91 
Q 1206 -91 779 398 
Q 353 888 353 1747 
Q 353 2609 779 3096 
Q 1206 3584 1959 3584 
z
" transform="scale(0.015625)"/>
       <path id="DejaVuSans-75" d="M 544 1381 
L 544 3500 
L 1119 3500 
L 1119 1403 
Q 1119 906 1312 657 
Q 1506 409 1894 409 
Q 2359 409 2629 706 
Q 2900 1003 2900 1516 
L 2900 3500 
L 3475 3500 
L 3475 0 
L 2900 0 
L 2900 538 
Q 2691 219 2414 64 
Q 2138 -91 1772 -91 
Q 1169 -91 856 284 
Q 544 659 544 1381 
z
M 1991 3584 
L 1991 3584 
z
" transform="scale(0.015625)"/>
       <path id="DejaVuSans-72" d="M 2631 2963 
Q 2534 3019 2420 3045 
Q 2306 3072 2169 3072 
Q 1681 3072 1420 2755 
Q 1159 2438 1159 1844 
L 1159 0 
L 581 0 
L 581 3500 
L 1159 3500 
L 1159 2956 
Q 1341 3275 1631 3429 
Q 1922 3584 2338 3584 
Q 2397 3584 2469 3576 
Q 2541 3569 2628 3553 
L 2631 2963 
z
" transform="scale(0.015625)"/>
       <path id="DejaVuSans-6e" d="M 3513 2113 
L 3513 0 
L 2938 0 
L 2938 2094 
Q 2938 2591 2744 2837 
Q 2550 3084 2163 3084 
Q 1697 3084 1428 2787 
Q 1159 2491 1159 1978 
L 1159 0 
L 581 0 
L 581 3500 
L 1159 3500 
L 1159 2956 
Q 1366 3272 1645 3428 
Q 1925 3584 2291 3584 
Q 2894 3584 3203 3211 
Q 3513 2838 3513 2113 
z
" transform="scale(0.015625)"/>
       <path id="DejaVuSans-74" d="M 1172 4494 
L 1172 3500 
L 2356 3500 
L 2356 3053 
L 1172 3053 
L 1172 1153 
Q 1172 725 1289 603 
Q 1406 481 1766 481 
L 2356 481 
L 2356 0 
L 1766 0 
Q 1100 0 847 248 
Q 594 497 594 1153 
L 594 3053 
L 172 3053 
L 172 3500 
L 594 3500 
L 594 4494 
L 1172 4494 
z
" transform="scale(0.015625)"/>
       <path id="DejaVuSans-29" d="M 513 4856 
L 1013 4856 
Q 1481 4119 1714 3412 
Q 1947 2706 1947 2009 
Q 1947 1309 1714 600 
Q 1481 -109 1013 -844 
L 513 -844 
Q 928 -128 1133 580 
Q 1338 1288 1338 2009 
Q 1338 2731 1133 3434 
Q 928 4138 513 4856 
z
" transform="scale(0.015625)"/>
      </defs>
      <use xlink:href="#DejaVuSans-54"/>
      <use xlink:href="#DejaVuSans-69" transform="translate(57.958984 0)"/>
      <use xlink:href="#DejaVuSans-6d" transform="translate(85.742188 0)"/>
      <use xlink:href="#DejaVuSans-65" transform="translate(183.154297 0)"/>
      <use xlink:href="#DejaVuSans-20" transform="translate(244.677734 0)"/>
      <use xlink:href="#DejaVuSans-28" transform="translate(276.464844 0)"/>
      <use xlink:href="#DejaVuSans-68" transform="translate(315.478516 0)"/>
      <use xlink:href="#DejaVuSans-6f" transform="translate(378.857422 0)"/>
      <use xlink:href="#DejaVuSans-75" transform="translate(440.039062 0)"/>
      <use xlink:href="#DejaVuSans-72" transform="translate(503.417969 0)"/>
      <use xlink:href="#DejaVuSans-3a" transform="translate(542.78125 0)"/>
      <use xlink:href="#DejaVuSans-6d" transform="translate(576.472656 0)"/>
      <use xlink:href="#DejaVuSans-69" transform="translate(673.884766 0)"/>
      <use xlink:href="#DejaVuSans-6e" transform="translate(701.667969 0)"/>
      <use xlink:href="#DejaVuSans-75" transform="translate(765.046875 0)"/>
      <use xlink:href="#DejaVuSans-74" transform="translate(828.425781 0)"/>
      <use xlink:href="#DejaVuSans-65" transform="translate(867.634766 0)"/>
      <use xlink:href="#DejaVuSans-29" transform="translate(929.158203 0)"/>
     </g>
    </g>
   </g>
   <g id="matplotlib.axis_2">
    <g id="ytick_1">
     <g id="line2d_13">
      <defs>
       <path id="m66635ee970" d="M 0 0 
L -3.5 0 
" style="stroke: #000000; stroke-width: 0.8"/>
      </defs>
      <g>
       <use xlink:href="#m66635ee970" x="53.328125" y="256.715256" style="stroke: #000000; stroke-width: 0.8"/>
      </g>
     </g>
     <g id="text_10">
      <!-- 2000 -->
      <g transform="translate(20.878125 260.514475) scale(0.1 -0.1)">
       <use xlink:href="#DejaVuSans-32"/>
       <use xlink:href="#DejaVuSans-30" transform="translate(63.623047 0)"/>
       <use xlink:href="#DejaVuSans-30" transform="translate(127.246094 0)"/>
       <use xlink:href="#DejaVuSans-30" transform="translate(190.869141 0)"/>
      </g>
     </g>
    </g>
    <g id="ytick_2">
     <g id="line2d_14">
      <g>
       <use xlink:href="#m66635ee970" x="53.328125" y="222.174993" style="stroke: #000000; stroke-width: 0.8"/>
      </g>
     </g>
     <g id="text_11">
      <!-- 2250 -->
      <g transform="translate(20.878125 225.974212) scale(0.1 -0.1)">
       <use xlink:href="#DejaVuSans-32"/>
       <use xlink:href="#DejaVuSans-32" transform="translate(63.623047 0)"/>
       <use xlink:href="#DejaVuSans-35" transform="translate(127.246094 0)"/>
       <use xlink:href="#DejaVuSans-30" transform="translate(190.869141 0)"/>
      </g>
     </g>
    </g>
    <g id="ytick_3">
     <g id="line2d_15">
      <g>
       <use xlink:href="#m66635ee970" x="53.328125" y="187.63473" style="stroke: #000000; stroke-width: 0.8"/>
      </g>
     </g>
     <g id="text_12">
      <!-- 2500 -->
      <g transform="translate(20.878125 191.433949) scale(0.1 -0.1)">
       <use xlink:href="#DejaVuSans-32"/>
       <use xlink:href="#DejaVuSans-35" transform="translate(63.623047 0)"/>
       <use xlink:href="#DejaVuSans-30" transform="translate(127.246094 0)"/>
       <use xlink:href="#DejaVuSans-30" transform="translate(190.869141 0)"/>
      </g>
     </g>
    </g>
    <g id="ytick_4">
     <g id="line2d_16">
      <g>
       <use xlink:href="#m66635ee970" x="53.328125" y="153.094468" style="stroke: #000000; stroke-width: 0.8"/>
      </g>
     </g>
     <g id="text_13">
      <!-- 2750 -->
      <g transform="translate(20.878125 156.893686) scale(0.1 -0.1)">
       <use xlink:href="#DejaVuSans-32"/>
       <use xlink:href="#DejaVuSans-37" transform="translate(63.623047 0)"/>
       <use xlink:href="#DejaVuSans-35" transform="translate(127.246094 0)"/>
       <use xlink:href="#DejaVuSans-30" transform="translate(190.869141 0)"/>
      </g>
     </g>
    </g>
    <g id="ytick_5">
     <g id="line2d_17">
      <g>
       <use xlink:href="#m66635ee970" x="53.328125" y="118.554205" style="stroke: #000000; stroke-width: 0.8"/>
      </g>
     </g>
     <g id="text_14">
      <!-- 3000 -->
      <g transform="translate(20.878125 122.353424) scale(0.1 -0.1)">
       <use xlink:href="#DejaVuSans-33"/>
       <use xlink:href="#DejaVuSans-30" transform="translate(63.623047 0)"/>
       <use xlink:href="#DejaVuSans-30" transform="translate(127.246094 0)"/>
       <use xlink:href="#DejaVuSans-30" transform="translate(190.869141 0)"/>
      </g>
     </g>
    </g>
    <g id="ytick_6">
     <g id="line2d_18">
      <g>
       <use xlink:href="#m66635ee970" x="53.328125" y="84.013942" style="stroke: #000000; stroke-width: 0.8"/>
      </g>
     </g>
     <g id="text_15">
      <!-- 3250 -->
      <g transform="translate(20.878125 87.813161) scale(0.1 -0.1)">
       <use xlink:href="#DejaVuSans-33"/>
       <use xlink:href="#DejaVuSans-32" transform="translate(63.623047 0)"/>
       <use xlink:href="#DejaVuSans-35" transform="translate(127.246094 0)"/>
       <use xlink:href="#DejaVuSans-30" transform="translate(190.869141 0)"/>
      </g>
     </g>
    </g>
    <g id="ytick_7">
     <g id="line2d_19">
      <g>
       <use xlink:href="#m66635ee970" x="53.328125" y="49.47368" style="stroke: #000000; stroke-width: 0.8"/>
      </g>
     </g>
     <g id="text_16">
      <!-- 3500 -->
      <g transform="translate(20.878125 53.272898) scale(0.1 -0.1)">
       <use xlink:href="#DejaVuSans-33"/>
       <use xlink:href="#DejaVuSans-35" transform="translate(63.623047 0)"/>
       <use xlink:href="#DejaVuSans-30" transform="translate(127.246094 0)"/>
       <use xlink:href="#DejaVuSans-30" transform="translate(190.869141 0)"/>
      </g>
     </g>
    </g>
    <g id="text_17">
     <!-- Code branch coverage -->
     <g transform="translate(14.798438 211.949125) rotate(-90) scale(0.1 -0.1)">
      <defs>
       <path id="DejaVuSans-43" d="M 4122 4306 
L 4122 3641 
Q 3803 3938 3442 4084 
Q 3081 4231 2675 4231 
Q 1875 4231 1450 3742 
Q 1025 3253 1025 2328 
Q 1025 1406 1450 917 
Q 1875 428 2675 428 
Q 3081 428 3442 575 
Q 3803 722 4122 1019 
L 4122 359 
Q 3791 134 3420 21 
Q 3050 -91 2638 -91 
Q 1578 -91 968 557 
Q 359 1206 359 2328 
Q 359 3453 968 4101 
Q 1578 4750 2638 4750 
Q 3056 4750 3426 4639 
Q 3797 4528 4122 4306 
z
" transform="scale(0.015625)"/>
       <path id="DejaVuSans-64" d="M 2906 2969 
L 2906 4863 
L 3481 4863 
L 3481 0 
L 2906 0 
L 2906 525 
Q 2725 213 2448 61 
Q 2172 -91 1784 -91 
Q 1150 -91 751 415 
Q 353 922 353 1747 
Q 353 2572 751 3078 
Q 1150 3584 1784 3584 
Q 2172 3584 2448 3432 
Q 2725 3281 2906 2969 
z
M 947 1747 
Q 947 1113 1208 752 
Q 1469 391 1925 391 
Q 2381 391 2643 752 
Q 2906 1113 2906 1747 
Q 2906 2381 2643 2742 
Q 2381 3103 1925 3103 
Q 1469 3103 1208 2742 
Q 947 2381 947 1747 
z
" transform="scale(0.015625)"/>
       <path id="DejaVuSans-62" d="M 3116 1747 
Q 3116 2381 2855 2742 
Q 2594 3103 2138 3103 
Q 1681 3103 1420 2742 
Q 1159 2381 1159 1747 
Q 1159 1113 1420 752 
Q 1681 391 2138 391 
Q 2594 391 2855 752 
Q 3116 1113 3116 1747 
z
M 1159 2969 
Q 1341 3281 1617 3432 
Q 1894 3584 2278 3584 
Q 2916 3584 3314 3078 
Q 3713 2572 3713 1747 
Q 3713 922 3314 415 
Q 2916 -91 2278 -91 
Q 1894 -91 1617 61 
Q 1341 213 1159 525 
L 1159 0 
L 581 0 
L 581 4863 
L 1159 4863 
L 1159 2969 
z
" transform="scale(0.015625)"/>
       <path id="DejaVuSans-61" d="M 2194 1759 
Q 1497 1759 1228 1600 
Q 959 1441 959 1056 
Q 959 750 1161 570 
Q 1363 391 1709 391 
Q 2188 391 2477 730 
Q 2766 1069 2766 1631 
L 2766 1759 
L 2194 1759 
z
M 3341 1997 
L 3341 0 
L 2766 0 
L 2766 531 
Q 2569 213 2275 61 
Q 1981 -91 1556 -91 
Q 1019 -91 701 211 
Q 384 513 384 1019 
Q 384 1609 779 1909 
Q 1175 2209 1959 2209 
L 2766 2209 
L 2766 2266 
Q 2766 2663 2505 2880 
Q 2244 3097 1772 3097 
Q 1472 3097 1187 3025 
Q 903 2953 641 2809 
L 641 3341 
Q 956 3463 1253 3523 
Q 1550 3584 1831 3584 
Q 2591 3584 2966 3190 
Q 3341 2797 3341 1997 
z
" transform="scale(0.015625)"/>
       <path id="DejaVuSans-63" d="M 3122 3366 
L 3122 2828 
Q 2878 2963 2633 3030 
Q 2388 3097 2138 3097 
Q 1578 3097 1268 2742 
Q 959 2388 959 1747 
Q 959 1106 1268 751 
Q 1578 397 2138 397 
Q 2388 397 2633 464 
Q 2878 531 3122 666 
L 3122 134 
Q 2881 22 2623 -34 
Q 2366 -91 2075 -91 
Q 1284 -91 818 406 
Q 353 903 353 1747 
Q 353 2603 823 3093 
Q 1294 3584 2113 3584 
Q 2378 3584 2631 3529 
Q 2884 3475 3122 3366 
z
" transform="scale(0.015625)"/>
       <path id="DejaVuSans-76" d="M 191 3500 
L 800 3500 
L 1894 563 
L 2988 3500 
L 3597 3500 
L 2284 0 
L 1503 0 
L 191 3500 
z
" transform="scale(0.015625)"/>
       <path id="DejaVuSans-67" d="M 2906 1791 
Q 2906 2416 2648 2759 
Q 2391 3103 1925 3103 
Q 1463 3103 1205 2759 
Q 947 2416 947 1791 
Q 947 1169 1205 825 
Q 1463 481 1925 481 
Q 2391 481 2648 825 
Q 2906 1169 2906 1791 
z
M 3481 434 
Q 3481 -459 3084 -895 
Q 2688 -1331 1869 -1331 
Q 1566 -1331 1297 -1286 
Q 1028 -1241 775 -1147 
L 775 -588 
Q 1028 -725 1275 -790 
Q 1522 -856 1778 -856 
Q 2344 -856 2625 -561 
Q 2906 -266 2906 331 
L 2906 616 
Q 2728 306 2450 153 
Q 2172 0 1784 0 
Q 1141 0 747 490 
Q 353 981 353 1791 
Q 353 2603 747 3093 
Q 1141 3584 1784 3584 
Q 2172 3584 2450 3431 
Q 2728 3278 2906 2969 
L 2906 3500 
L 3481 3500 
L 3481 434 
z
" transform="scale(0.015625)"/>
      </defs>
      <use xlink:href="#DejaVuSans-43"/>
      <use xlink:href="#DejaVuSans-6f" transform="translate(69.824219 0)"/>
      <use xlink:href="#DejaVuSans-64" transform="translate(131.005859 0)"/>
      <use xlink:href="#DejaVuSans-65" transform="translate(194.482422 0)"/>
      <use xlink:href="#DejaVuSans-20" transform="translate(256.005859 0)"/>
      <use xlink:href="#DejaVuSans-62" transform="translate(287.792969 0)"/>
      <use xlink:href="#DejaVuSans-72" transform="translate(351.269531 0)"/>
      <use xlink:href="#DejaVuSans-61" transform="translate(392.382812 0)"/>
      <use xlink:href="#DejaVuSans-6e" transform="translate(453.662109 0)"/>
      <use xlink:href="#DejaVuSans-63" transform="translate(517.041016 0)"/>
      <use xlink:href="#DejaVuSans-68" transform="translate(572.021484 0)"/>
      <use xlink:href="#DejaVuSans-20" transform="translate(635.400391 0)"/>
      <use xlink:href="#DejaVuSans-63" transform="translate(667.1875 0)"/>
      <use xlink:href="#DejaVuSans-6f" transform="translate(722.167969 0)"/>
      <use xlink:href="#DejaVuSans-76" transform="translate(783.349609 0)"/>
      <use xlink:href="#DejaVuSans-65" transform="translate(842.529297 0)"/>
      <use xlink:href="#DejaVuSans-72" transform="translate(904.052734 0)"/>
      <use xlink:href="#DejaVuSans-61" transform="translate(945.166016 0)"/>
      <use xlink:href="#DejaVuSans-67" transform="translate(1006.445312 0)"/>
      <use xlink:href="#DejaVuSans-65" transform="translate(1069.921875 0)"/>
     </g>
    </g>
   </g>
   <g id="line2d_20">
    <path d="M 53.328125 276.334125 
L 545.142907 183.213577 
L 584.472948 179.068745 
L 607.479547 172.851498 
L 623.802989 168.844827 
L 636.464434 168.430344 
L 646.809588 167.325056 
L 655.556291 166.772412 
L 663.133029 165.805284 
L 669.816187 164.838157 
L 675.794474 163.732869 
L 681.202494 163.732869 
L 686.139628 163.042063 
L 690.681352 163.042063 
L 694.886331 162.765741 
L 698.801073 161.522292 
L 702.46307 161.384131 
L 705.902987 161.384131 
L 709.146227 160.831487 
L 712.214069 160.555164 
L 715.124515 157.791943 
L 717.89293 157.791943 
L 720.532534 157.791943 
L 723.054783 157.791943 
L 725.469669 156.410333 
L 727.78596 155.581367 
L 730.011393 155.305044 
L 732.152826 154.890561 
L 734.216372 154.890561 
L 736.207498 154.890561 
L 738.131114 154.890561 
L 739.99165 154.7524 
L 741.793111 154.7524 
L 743.539133 154.7524 
L 745.233028 154.7524 
L 746.877817 153.923434 
L 748.476268 153.923434 
L 750.03092 153.37079 
L 751.54411 152.541823 
L 753.017992 152.541823 
L 754.454556 152.403662 
L 755.855646 152.403662 
L 757.222971 150.883891 
L 758.558121 150.883891 
L 759.862575 150.883891 
L 761.137713 150.883891 
L 762.384824 150.469408 
L 763.605113 149.640441 
L 764.79971 149.640441 
" clip-path="url(#pfad02c60d3)" style="fill: none; stroke: #98df8a; stroke-width: 1.5; stroke-linecap: square"/>
    <defs>
     <path id="mdf6883f555" d="M -0 3 
L 3 -3 
L -3 -3 
z
" style="stroke: #ffffff; stroke-width: 0.75; stroke-linejoin: miter"/>
    </defs>
    <g clip-path="url(#pfad02c60d3)">
     <use xlink:href="#mdf6883f555" x="53.328125" y="276.334125" style="fill: #98df8a; stroke: #ffffff; stroke-width: 0.75; stroke-linejoin: miter"/>
     <use xlink:href="#mdf6883f555" x="545.142907" y="183.213577" style="fill: #98df8a; stroke: #ffffff; stroke-width: 0.75; stroke-linejoin: miter"/>
     <use xlink:href="#mdf6883f555" x="584.472948" y="179.068745" style="fill: #98df8a; stroke: #ffffff; stroke-width: 0.75; stroke-linejoin: miter"/>
     <use xlink:href="#mdf6883f555" x="607.479547" y="172.851498" style="fill: #98df8a; stroke: #ffffff; stroke-width: 0.75; stroke-linejoin: miter"/>
     <use xlink:href="#mdf6883f555" x="623.802989" y="168.844827" style="fill: #98df8a; stroke: #ffffff; stroke-width: 0.75; stroke-linejoin: miter"/>
     <use xlink:href="#mdf6883f555" x="636.464434" y="168.430344" style="fill: #98df8a; stroke: #ffffff; stroke-width: 0.75; stroke-linejoin: miter"/>
     <use xlink:href="#mdf6883f555" x="646.809588" y="167.325056" style="fill: #98df8a; stroke: #ffffff; stroke-width: 0.75; stroke-linejoin: miter"/>
     <use xlink:href="#mdf6883f555" x="655.556291" y="166.772412" style="fill: #98df8a; stroke: #ffffff; stroke-width: 0.75; stroke-linejoin: miter"/>
     <use xlink:href="#mdf6883f555" x="663.133029" y="165.805284" style="fill: #98df8a; stroke: #ffffff; stroke-width: 0.75; stroke-linejoin: miter"/>
     <use xlink:href="#mdf6883f555" x="669.816187" y="164.838157" style="fill: #98df8a; stroke: #ffffff; stroke-width: 0.75; stroke-linejoin: miter"/>
     <use xlink:href="#mdf6883f555" x="675.794474" y="163.732869" style="fill: #98df8a; stroke: #ffffff; stroke-width: 0.75; stroke-linejoin: miter"/>
     <use xlink:href="#mdf6883f555" x="681.202494" y="163.732869" style="fill: #98df8a; stroke: #ffffff; stroke-width: 0.75; stroke-linejoin: miter"/>
     <use xlink:href="#mdf6883f555" x="686.139628" y="163.042063" style="fill: #98df8a; stroke: #ffffff; stroke-width: 0.75; stroke-linejoin: miter"/>
     <use xlink:href="#mdf6883f555" x="690.681352" y="163.042063" style="fill: #98df8a; stroke: #ffffff; stroke-width: 0.75; stroke-linejoin: miter"/>
     <use xlink:href="#mdf6883f555" x="694.886331" y="162.765741" style="fill: #98df8a; stroke: #ffffff; stroke-width: 0.75; stroke-linejoin: miter"/>
     <use xlink:href="#mdf6883f555" x="698.801073" y="161.522292" style="fill: #98df8a; stroke: #ffffff; stroke-width: 0.75; stroke-linejoin: miter"/>
     <use xlink:href="#mdf6883f555" x="702.46307" y="161.384131" style="fill: #98df8a; stroke: #ffffff; stroke-width: 0.75; stroke-linejoin: miter"/>
     <use xlink:href="#mdf6883f555" x="705.902987" y="161.384131" style="fill: #98df8a; stroke: #ffffff; stroke-width: 0.75; stroke-linejoin: miter"/>
     <use xlink:href="#mdf6883f555" x="709.146227" y="160.831487" style="fill: #98df8a; stroke: #ffffff; stroke-width: 0.75; stroke-linejoin: miter"/>
     <use xlink:href="#mdf6883f555" x="712.214069" y="160.555164" style="fill: #98df8a; stroke: #ffffff; stroke-width: 0.75; stroke-linejoin: miter"/>
     <use xlink:href="#mdf6883f555" x="715.124515" y="157.791943" style="fill: #98df8a; stroke: #ffffff; stroke-width: 0.75; stroke-linejoin: miter"/>
     <use xlink:href="#mdf6883f555" x="717.89293" y="157.791943" style="fill: #98df8a; stroke: #ffffff; stroke-width: 0.75; stroke-linejoin: miter"/>
     <use xlink:href="#mdf6883f555" x="720.532534" y="157.791943" style="fill: #98df8a; stroke: #ffffff; stroke-width: 0.75; stroke-linejoin: miter"/>
     <use xlink:href="#mdf6883f555" x="723.054783" y="157.791943" style="fill: #98df8a; stroke: #ffffff; stroke-width: 0.75; stroke-linejoin: miter"/>
     <use xlink:href="#mdf6883f555" x="725.469669" y="156.410333" style="fill: #98df8a; stroke: #ffffff; stroke-width: 0.75; stroke-linejoin: miter"/>
     <use xlink:href="#mdf6883f555" x="727.78596" y="155.581367" style="fill: #98df8a; stroke: #ffffff; stroke-width: 0.75; stroke-linejoin: miter"/>
     <use xlink:href="#mdf6883f555" x="730.011393" y="155.305044" style="fill: #98df8a; stroke: #ffffff; stroke-width: 0.75; stroke-linejoin: miter"/>
     <use xlink:href="#mdf6883f555" x="732.152826" y="154.890561" style="fill: #98df8a; stroke: #ffffff; stroke-width: 0.75; stroke-linejoin: miter"/>
     <use xlink:href="#mdf6883f555" x="734.216372" y="154.890561" style="fill: #98df8a; stroke: #ffffff; stroke-width: 0.75; stroke-linejoin: miter"/>
     <use xlink:href="#mdf6883f555" x="736.207498" y="154.890561" style="fill: #98df8a; stroke: #ffffff; stroke-width: 0.75; stroke-linejoin: miter"/>
     <use xlink:href="#mdf6883f555" x="738.131114" y="154.890561" style="fill: #98df8a; stroke: #ffffff; stroke-width: 0.75; stroke-linejoin: miter"/>
     <use xlink:href="#mdf6883f555" x="739.99165" y="154.7524" style="fill: #98df8a; stroke: #ffffff; stroke-width: 0.75; stroke-linejoin: miter"/>
     <use xlink:href="#mdf6883f555" x="741.793111" y="154.7524" style="fill: #98df8a; stroke: #ffffff; stroke-width: 0.75; stroke-linejoin: miter"/>
     <use xlink:href="#mdf6883f555" x="743.539133" y="154.7524" style="fill: #98df8a; stroke: #ffffff; stroke-width: 0.75; stroke-linejoin: miter"/>
     <use xlink:href="#mdf6883f555" x="745.233028" y="154.7524" style="fill: #98df8a; stroke: #ffffff; stroke-width: 0.75; stroke-linejoin: miter"/>
     <use xlink:href="#mdf6883f555" x="746.877817" y="153.923434" style="fill: #98df8a; stroke: #ffffff; stroke-width: 0.75; stroke-linejoin: miter"/>
     <use xlink:href="#mdf6883f555" x="748.476268" y="153.923434" style="fill: #98df8a; stroke: #ffffff; stroke-width: 0.75; stroke-linejoin: miter"/>
     <use xlink:href="#mdf6883f555" x="750.03092" y="153.37079" style="fill: #98df8a; stroke: #ffffff; stroke-width: 0.75; stroke-linejoin: miter"/>
     <use xlink:href="#mdf6883f555" x="751.54411" y="152.541823" style="fill: #98df8a; stroke: #ffffff; stroke-width: 0.75; stroke-linejoin: miter"/>
     <use xlink:href="#mdf6883f555" x="753.017992" y="152.541823" style="fill: #98df8a; stroke: #ffffff; stroke-width: 0.75; stroke-linejoin: miter"/>
     <use xlink:href="#mdf6883f555" x="754.454556" y="152.403662" style="fill: #98df8a; stroke: #ffffff; stroke-width: 0.75; stroke-linejoin: miter"/>
     <use xlink:href="#mdf6883f555" x="755.855646" y="152.403662" style="fill: #98df8a; stroke: #ffffff; stroke-width: 0.75; stroke-linejoin: miter"/>
     <use xlink:href="#mdf6883f555" x="757.222971" y="150.883891" style="fill: #98df8a; stroke: #ffffff; stroke-width: 0.75; stroke-linejoin: miter"/>
     <use xlink:href="#mdf6883f555" x="758.558121" y="150.883891" style="fill: #98df8a; stroke: #ffffff; stroke-width: 0.75; stroke-linejoin: miter"/>
     <use xlink:href="#mdf6883f555" x="759.862575" y="150.883891" style="fill: #98df8a; stroke: #ffffff; stroke-width: 0.75; stroke-linejoin: miter"/>
     <use xlink:href="#mdf6883f555" x="761.137713" y="150.883891" style="fill: #98df8a; stroke: #ffffff; stroke-width: 0.75; stroke-linejoin: miter"/>
     <use xlink:href="#mdf6883f555" x="762.384824" y="150.469408" style="fill: #98df8a; stroke: #ffffff; stroke-width: 0.75; stroke-linejoin: miter"/>
     <use xlink:href="#mdf6883f555" x="763.605113" y="149.640441" style="fill: #98df8a; stroke: #ffffff; stroke-width: 0.75; stroke-linejoin: miter"/>
     <use xlink:href="#mdf6883f555" x="764.79971" y="149.640441" style="fill: #98df8a; stroke: #ffffff; stroke-width: 0.75; stroke-linejoin: miter"/>
    </g>
   </g>
   <g id="line2d_21">
    <path d="M 53.328125 276.334125 
L 545.142907 182.937255 
L 584.472948 173.404142 
L 607.479547 171.055404 
L 623.802989 169.673794 
L 636.464434 167.048734 
L 646.809588 164.699996 
L 655.556291 164.561835 
L 663.133029 164.147352 
L 669.816187 162.351258 
L 675.794474 161.798614 
L 681.202494 161.522292 
L 686.139628 160.140681 
L 690.681352 160.00252 
L 694.886331 160.00252 
L 698.801073 159.726198 
L 702.46307 159.311715 
L 705.902987 159.311715 
L 709.146227 158.068265 
L 712.214069 158.068265 
L 715.124515 158.068265 
L 717.89293 158.068265 
L 720.532534 157.930104 
L 723.054783 157.930104 
L 725.469669 157.930104 
L 727.78596 157.930104 
L 730.011393 157.930104 
L 732.152826 157.791943 
L 734.216372 157.37746 
L 736.207498 157.37746 
L 738.131114 157.37746 
L 739.99165 157.37746 
L 741.793111 156.410333 
L 743.539133 156.410333 
L 745.233028 156.134011 
L 746.877817 155.857689 
L 748.476268 155.719528 
L 750.03092 155.719528 
L 751.54411 155.719528 
L 753.017992 155.719528 
L 754.454556 155.719528 
L 755.855646 155.719528 
L 757.222971 155.028722 
L 758.558121 153.232629 
L 759.862575 150.883891 
L 761.137713 150.883891 
L 762.384824 150.883891 
L 763.605113 150.883891 
L 764.79971 150.883891 
" clip-path="url(#pfad02c60d3)" style="fill: none; stroke: #c7c7c7; stroke-width: 1.5; stroke-linecap: square"/>
    <defs>
     <path id="me7aa5ca440" d="M -3 -0 
L 3 3 
L 3 -3 
z
" style="stroke: #ffffff; stroke-width: 0.75; stroke-linejoin: miter"/>
    </defs>
    <g clip-path="url(#pfad02c60d3)">
     <use xlink:href="#me7aa5ca440" x="53.328125" y="276.334125" style="fill: #c7c7c7; stroke: #ffffff; stroke-width: 0.75; stroke-linejoin: miter"/>
     <use xlink:href="#me7aa5ca440" x="545.142907" y="182.937255" style="fill: #c7c7c7; stroke: #ffffff; stroke-width: 0.75; stroke-linejoin: miter"/>
     <use xlink:href="#me7aa5ca440" x="584.472948" y="173.404142" style="fill: #c7c7c7; stroke: #ffffff; stroke-width: 0.75; stroke-linejoin: miter"/>
     <use xlink:href="#me7aa5ca440" x="607.479547" y="171.055404" style="fill: #c7c7c7; stroke: #ffffff; stroke-width: 0.75; stroke-linejoin: miter"/>
     <use xlink:href="#me7aa5ca440" x="623.802989" y="169.673794" style="fill: #c7c7c7; stroke: #ffffff; stroke-width: 0.75; stroke-linejoin: miter"/>
     <use xlink:href="#me7aa5ca440" x="636.464434" y="167.048734" style="fill: #c7c7c7; stroke: #ffffff; stroke-width: 0.75; stroke-linejoin: miter"/>
     <use xlink:href="#me7aa5ca440" x="646.809588" y="164.699996" style="fill: #c7c7c7; stroke: #ffffff; stroke-width: 0.75; stroke-linejoin: miter"/>
     <use xlink:href="#me7aa5ca440" x="655.556291" y="164.561835" style="fill: #c7c7c7; stroke: #ffffff; stroke-width: 0.75; stroke-linejoin: miter"/>
     <use xlink:href="#me7aa5ca440" x="663.133029" y="164.147352" style="fill: #c7c7c7; stroke: #ffffff; stroke-width: 0.75; stroke-linejoin: miter"/>
     <use xlink:href="#me7aa5ca440" x="669.816187" y="162.351258" style="fill: #c7c7c7; stroke: #ffffff; stroke-width: 0.75; stroke-linejoin: miter"/>
     <use xlink:href="#me7aa5ca440" x="675.794474" y="161.798614" style="fill: #c7c7c7; stroke: #ffffff; stroke-width: 0.75; stroke-linejoin: miter"/>
     <use xlink:href="#me7aa5ca440" x="681.202494" y="161.522292" style="fill: #c7c7c7; stroke: #ffffff; stroke-width: 0.75; stroke-linejoin: miter"/>
     <use xlink:href="#me7aa5ca440" x="686.139628" y="160.140681" style="fill: #c7c7c7; stroke: #ffffff; stroke-width: 0.75; stroke-linejoin: miter"/>
     <use xlink:href="#me7aa5ca440" x="690.681352" y="160.00252" style="fill: #c7c7c7; stroke: #ffffff; stroke-width: 0.75; stroke-linejoin: miter"/>
     <use xlink:href="#me7aa5ca440" x="694.886331" y="160.00252" style="fill: #c7c7c7; stroke: #ffffff; stroke-width: 0.75; stroke-linejoin: miter"/>
     <use xlink:href="#me7aa5ca440" x="698.801073" y="159.726198" style="fill: #c7c7c7; stroke: #ffffff; stroke-width: 0.75; stroke-linejoin: miter"/>
     <use xlink:href="#me7aa5ca440" x="702.46307" y="159.311715" style="fill: #c7c7c7; stroke: #ffffff; stroke-width: 0.75; stroke-linejoin: miter"/>
     <use xlink:href="#me7aa5ca440" x="705.902987" y="159.311715" style="fill: #c7c7c7; stroke: #ffffff; stroke-width: 0.75; stroke-linejoin: miter"/>
     <use xlink:href="#me7aa5ca440" x="709.146227" y="158.068265" style="fill: #c7c7c7; stroke: #ffffff; stroke-width: 0.75; stroke-linejoin: miter"/>
     <use xlink:href="#me7aa5ca440" x="712.214069" y="158.068265" style="fill: #c7c7c7; stroke: #ffffff; stroke-width: 0.75; stroke-linejoin: miter"/>
     <use xlink:href="#me7aa5ca440" x="715.124515" y="158.068265" style="fill: #c7c7c7; stroke: #ffffff; stroke-width: 0.75; stroke-linejoin: miter"/>
     <use xlink:href="#me7aa5ca440" x="717.89293" y="158.068265" style="fill: #c7c7c7; stroke: #ffffff; stroke-width: 0.75; stroke-linejoin: miter"/>
     <use xlink:href="#me7aa5ca440" x="720.532534" y="157.930104" style="fill: #c7c7c7; stroke: #ffffff; stroke-width: 0.75; stroke-linejoin: miter"/>
     <use xlink:href="#me7aa5ca440" x="723.054783" y="157.930104" style="fill: #c7c7c7; stroke: #ffffff; stroke-width: 0.75; stroke-linejoin: miter"/>
     <use xlink:href="#me7aa5ca440" x="725.469669" y="157.930104" style="fill: #c7c7c7; stroke: #ffffff; stroke-width: 0.75; stroke-linejoin: miter"/>
     <use xlink:href="#me7aa5ca440" x="727.78596" y="157.930104" style="fill: #c7c7c7; stroke: #ffffff; stroke-width: 0.75; stroke-linejoin: miter"/>
     <use xlink:href="#me7aa5ca440" x="730.011393" y="157.930104" style="fill: #c7c7c7; stroke: #ffffff; stroke-width: 0.75; stroke-linejoin: miter"/>
     <use xlink:href="#me7aa5ca440" x="732.152826" y="157.791943" style="fill: #c7c7c7; stroke: #ffffff; stroke-width: 0.75; stroke-linejoin: miter"/>
     <use xlink:href="#me7aa5ca440" x="734.216372" y="157.37746" style="fill: #c7c7c7; stroke: #ffffff; stroke-width: 0.75; stroke-linejoin: miter"/>
     <use xlink:href="#me7aa5ca440" x="736.207498" y="157.37746" style="fill: #c7c7c7; stroke: #ffffff; stroke-width: 0.75; stroke-linejoin: miter"/>
     <use xlink:href="#me7aa5ca440" x="738.131114" y="157.37746" style="fill: #c7c7c7; stroke: #ffffff; stroke-width: 0.75; stroke-linejoin: miter"/>
     <use xlink:href="#me7aa5ca440" x="739.99165" y="157.37746" style="fill: #c7c7c7; stroke: #ffffff; stroke-width: 0.75; stroke-linejoin: miter"/>
     <use xlink:href="#me7aa5ca440" x="741.793111" y="156.410333" style="fill: #c7c7c7; stroke: #ffffff; stroke-width: 0.75; stroke-linejoin: miter"/>
     <use xlink:href="#me7aa5ca440" x="743.539133" y="156.410333" style="fill: #c7c7c7; stroke: #ffffff; stroke-width: 0.75; stroke-linejoin: miter"/>
     <use xlink:href="#me7aa5ca440" x="745.233028" y="156.134011" style="fill: #c7c7c7; stroke: #ffffff; stroke-width: 0.75; stroke-linejoin: miter"/>
     <use xlink:href="#me7aa5ca440" x="746.877817" y="155.857689" style="fill: #c7c7c7; stroke: #ffffff; stroke-width: 0.75; stroke-linejoin: miter"/>
     <use xlink:href="#me7aa5ca440" x="748.476268" y="155.719528" style="fill: #c7c7c7; stroke: #ffffff; stroke-width: 0.75; stroke-linejoin: miter"/>
     <use xlink:href="#me7aa5ca440" x="750.03092" y="155.719528" style="fill: #c7c7c7; stroke: #ffffff; stroke-width: 0.75; stroke-linejoin: miter"/>
     <use xlink:href="#me7aa5ca440" x="751.54411" y="155.719528" style="fill: #c7c7c7; stroke: #ffffff; stroke-width: 0.75; stroke-linejoin: miter"/>
     <use xlink:href="#me7aa5ca440" x="753.017992" y="155.719528" style="fill: #c7c7c7; stroke: #ffffff; stroke-width: 0.75; stroke-linejoin: miter"/>
     <use xlink:href="#me7aa5ca440" x="754.454556" y="155.719528" style="fill: #c7c7c7; stroke: #ffffff; stroke-width: 0.75; stroke-linejoin: miter"/>
     <use xlink:href="#me7aa5ca440" x="755.855646" y="155.719528" style="fill: #c7c7c7; stroke: #ffffff; stroke-width: 0.75; stroke-linejoin: miter"/>
     <use xlink:href="#me7aa5ca440" x="757.222971" y="155.028722" style="fill: #c7c7c7; stroke: #ffffff; stroke-width: 0.75; stroke-linejoin: miter"/>
     <use xlink:href="#me7aa5ca440" x="758.558121" y="153.232629" style="fill: #c7c7c7; stroke: #ffffff; stroke-width: 0.75; stroke-linejoin: miter"/>
     <use xlink:href="#me7aa5ca440" x="759.862575" y="150.883891" style="fill: #c7c7c7; stroke: #ffffff; stroke-width: 0.75; stroke-linejoin: miter"/>
     <use xlink:href="#me7aa5ca440" x="761.137713" y="150.883891" style="fill: #c7c7c7; stroke: #ffffff; stroke-width: 0.75; stroke-linejoin: miter"/>
     <use xlink:href="#me7aa5ca440" x="762.384824" y="150.883891" style="fill: #c7c7c7; stroke: #ffffff; stroke-width: 0.75; stroke-linejoin: miter"/>
     <use xlink:href="#me7aa5ca440" x="763.605113" y="150.883891" style="fill: #c7c7c7; stroke: #ffffff; stroke-width: 0.75; stroke-linejoin: miter"/>
     <use xlink:href="#me7aa5ca440" x="764.79971" y="150.883891" style="fill: #c7c7c7; stroke: #ffffff; stroke-width: 0.75; stroke-linejoin: miter"/>
    </g>
   </g>
   <g id="line2d_22">
    <path d="M 53.328125 276.334125 
L 545.142907 184.664268 
L 584.472948 181.279322 
L 607.479547 180.657597 
L 623.802989 177.756215 
L 636.464434 177.618054 
L 646.809588 174.509431 
L 655.556291 173.611384 
L 663.133029 173.611384 
L 669.816187 172.851498 
L 675.794474 171.953451 
L 681.202494 170.779082 
L 686.139628 169.950116 
L 690.681352 169.950116 
L 694.886331 169.19023 
L 698.801073 169.052069 
L 702.46307 168.361264 
L 705.902987 168.015861 
L 709.146227 167.8777 
L 712.214069 167.8777 
L 715.124515 167.80862 
L 717.89293 167.80862 
L 720.532534 167.80862 
L 723.054783 167.048734 
L 725.469669 166.634251 
L 727.78596 166.634251 
L 730.011393 166.634251 
L 732.152826 166.634251 
L 734.216372 166.357929 
L 736.207498 165.805284 
L 738.131114 164.423674 
L 739.99165 164.423674 
L 741.793111 164.354593 
L 743.539133 163.801949 
L 745.233028 163.456546 
L 746.877817 163.456546 
L 748.476268 162.351258 
L 750.03092 162.351258 
L 751.54411 161.522292 
L 753.017992 161.453211 
L 754.454556 161.24597 
L 755.855646 161.107809 
L 757.222971 160.486084 
L 758.558121 160.278842 
L 759.862575 160.209762 
L 761.137713 160.209762 
L 762.384824 159.035393 
L 763.605113 156.617574 
L 764.79971 156.548494 
" clip-path="url(#pfad02c60d3)" style="fill: none; stroke: #d62728; stroke-width: 1.5; stroke-linecap: square"/>
    <defs>
     <path id="mbeb2580335" d="M 0 -3 
L -3 3 
L 3 3 
z
" style="stroke: #ffffff; stroke-width: 0.75; stroke-linejoin: miter"/>
    </defs>
    <g clip-path="url(#pfad02c60d3)">
     <use xlink:href="#mbeb2580335" x="53.328125" y="276.334125" style="fill: #d62728; stroke: #ffffff; stroke-width: 0.75; stroke-linejoin: miter"/>
     <use xlink:href="#mbeb2580335" x="545.142907" y="184.664268" style="fill: #d62728; stroke: #ffffff; stroke-width: 0.75; stroke-linejoin: miter"/>
     <use xlink:href="#mbeb2580335" x="584.472948" y="181.279322" style="fill: #d62728; stroke: #ffffff; stroke-width: 0.75; stroke-linejoin: miter"/>
     <use xlink:href="#mbeb2580335" x="607.479547" y="180.657597" style="fill: #d62728; stroke: #ffffff; stroke-width: 0.75; stroke-linejoin: miter"/>
     <use xlink:href="#mbeb2580335" x="623.802989" y="177.756215" style="fill: #d62728; stroke: #ffffff; stroke-width: 0.75; stroke-linejoin: miter"/>
     <use xlink:href="#mbeb2580335" x="636.464434" y="177.618054" style="fill: #d62728; stroke: #ffffff; stroke-width: 0.75; stroke-linejoin: miter"/>
     <use xlink:href="#mbeb2580335" x="646.809588" y="174.509431" style="fill: #d62728; stroke: #ffffff; stroke-width: 0.75; stroke-linejoin: miter"/>
     <use xlink:href="#mbeb2580335" x="655.556291" y="173.611384" style="fill: #d62728; stroke: #ffffff; stroke-width: 0.75; stroke-linejoin: miter"/>
     <use xlink:href="#mbeb2580335" x="663.133029" y="173.611384" style="fill: #d62728; stroke: #ffffff; stroke-width: 0.75; stroke-linejoin: miter"/>
     <use xlink:href="#mbeb2580335" x="669.816187" y="172.851498" style="fill: #d62728; stroke: #ffffff; stroke-width: 0.75; stroke-linejoin: miter"/>
     <use xlink:href="#mbeb2580335" x="675.794474" y="171.953451" style="fill: #d62728; stroke: #ffffff; stroke-width: 0.75; stroke-linejoin: miter"/>
     <use xlink:href="#mbeb2580335" x="681.202494" y="170.779082" style="fill: #d62728; stroke: #ffffff; stroke-width: 0.75; stroke-linejoin: miter"/>
     <use xlink:href="#mbeb2580335" x="686.139628" y="169.950116" style="fill: #d62728; stroke: #ffffff; stroke-width: 0.75; stroke-linejoin: miter"/>
     <use xlink:href="#mbeb2580335" x="690.681352" y="169.950116" style="fill: #d62728; stroke: #ffffff; stroke-width: 0.75; stroke-linejoin: miter"/>
     <use xlink:href="#mbeb2580335" x="694.886331" y="169.19023" style="fill: #d62728; stroke: #ffffff; stroke-width: 0.75; stroke-linejoin: miter"/>
     <use xlink:href="#mbeb2580335" x="698.801073" y="169.052069" style="fill: #d62728; stroke: #ffffff; stroke-width: 0.75; stroke-linejoin: miter"/>
     <use xlink:href="#mbeb2580335" x="702.46307" y="168.361264" style="fill: #d62728; stroke: #ffffff; stroke-width: 0.75; stroke-linejoin: miter"/>
     <use xlink:href="#mbeb2580335" x="705.902987" y="168.015861" style="fill: #d62728; stroke: #ffffff; stroke-width: 0.75; stroke-linejoin: miter"/>
     <use xlink:href="#mbeb2580335" x="709.146227" y="167.8777" style="fill: #d62728; stroke: #ffffff; stroke-width: 0.75; stroke-linejoin: miter"/>
     <use xlink:href="#mbeb2580335" x="712.214069" y="167.8777" style="fill: #d62728; stroke: #ffffff; stroke-width: 0.75; stroke-linejoin: miter"/>
     <use xlink:href="#mbeb2580335" x="715.124515" y="167.80862" style="fill: #d62728; stroke: #ffffff; stroke-width: 0.75; stroke-linejoin: miter"/>
     <use xlink:href="#mbeb2580335" x="717.89293" y="167.80862" style="fill: #d62728; stroke: #ffffff; stroke-width: 0.75; stroke-linejoin: miter"/>
     <use xlink:href="#mbeb2580335" x="720.532534" y="167.80862" style="fill: #d62728; stroke: #ffffff; stroke-width: 0.75; stroke-linejoin: miter"/>
     <use xlink:href="#mbeb2580335" x="723.054783" y="167.048734" style="fill: #d62728; stroke: #ffffff; stroke-width: 0.75; stroke-linejoin: miter"/>
     <use xlink:href="#mbeb2580335" x="725.469669" y="166.634251" style="fill: #d62728; stroke: #ffffff; stroke-width: 0.75; stroke-linejoin: miter"/>
     <use xlink:href="#mbeb2580335" x="727.78596" y="166.634251" style="fill: #d62728; stroke: #ffffff; stroke-width: 0.75; stroke-linejoin: miter"/>
     <use xlink:href="#mbeb2580335" x="730.011393" y="166.634251" style="fill: #d62728; stroke: #ffffff; stroke-width: 0.75; stroke-linejoin: miter"/>
     <use xlink:href="#mbeb2580335" x="732.152826" y="166.634251" style="fill: #d62728; stroke: #ffffff; stroke-width: 0.75; stroke-linejoin: miter"/>
     <use xlink:href="#mbeb2580335" x="734.216372" y="166.357929" style="fill: #d62728; stroke: #ffffff; stroke-width: 0.75; stroke-linejoin: miter"/>
     <use xlink:href="#mbeb2580335" x="736.207498" y="165.805284" style="fill: #d62728; stroke: #ffffff; stroke-width: 0.75; stroke-linejoin: miter"/>
     <use xlink:href="#mbeb2580335" x="738.131114" y="164.423674" style="fill: #d62728; stroke: #ffffff; stroke-width: 0.75; stroke-linejoin: miter"/>
     <use xlink:href="#mbeb2580335" x="739.99165" y="164.423674" style="fill: #d62728; stroke: #ffffff; stroke-width: 0.75; stroke-linejoin: miter"/>
     <use xlink:href="#mbeb2580335" x="741.793111" y="164.354593" style="fill: #d62728; stroke: #ffffff; stroke-width: 0.75; stroke-linejoin: miter"/>
     <use xlink:href="#mbeb2580335" x="743.539133" y="163.801949" style="fill: #d62728; stroke: #ffffff; stroke-width: 0.75; stroke-linejoin: miter"/>
     <use xlink:href="#mbeb2580335" x="745.233028" y="163.456546" style="fill: #d62728; stroke: #ffffff; stroke-width: 0.75; stroke-linejoin: miter"/>
     <use xlink:href="#mbeb2580335" x="746.877817" y="163.456546" style="fill: #d62728; stroke: #ffffff; stroke-width: 0.75; stroke-linejoin: miter"/>
     <use xlink:href="#mbeb2580335" x="748.476268" y="162.351258" style="fill: #d62728; stroke: #ffffff; stroke-width: 0.75; stroke-linejoin: miter"/>
     <use xlink:href="#mbeb2580335" x="750.03092" y="162.351258" style="fill: #d62728; stroke: #ffffff; stroke-width: 0.75; stroke-linejoin: miter"/>
     <use xlink:href="#mbeb2580335" x="751.54411" y="161.522292" style="fill: #d62728; stroke: #ffffff; stroke-width: 0.75; stroke-linejoin: miter"/>
     <use xlink:href="#mbeb2580335" x="753.017992" y="161.453211" style="fill: #d62728; stroke: #ffffff; stroke-width: 0.75; stroke-linejoin: miter"/>
     <use xlink:href="#mbeb2580335" x="754.454556" y="161.24597" style="fill: #d62728; stroke: #ffffff; stroke-width: 0.75; stroke-linejoin: miter"/>
     <use xlink:href="#mbeb2580335" x="755.855646" y="161.107809" style="fill: #d62728; stroke: #ffffff; stroke-width: 0.75; stroke-linejoin: miter"/>
     <use xlink:href="#mbeb2580335" x="757.222971" y="160.486084" style="fill: #d62728; stroke: #ffffff; stroke-width: 0.75; stroke-linejoin: miter"/>
     <use xlink:href="#mbeb2580335" x="758.558121" y="160.278842" style="fill: #d62728; stroke: #ffffff; stroke-width: 0.75; stroke-linejoin: miter"/>
     <use xlink:href="#mbeb2580335" x="759.862575" y="160.209762" style="fill: #d62728; stroke: #ffffff; stroke-width: 0.75; stroke-linejoin: miter"/>
     <use xlink:href="#mbeb2580335" x="761.137713" y="160.209762" style="fill: #d62728; stroke: #ffffff; stroke-width: 0.75; stroke-linejoin: miter"/>
     <use xlink:href="#mbeb2580335" x="762.384824" y="159.035393" style="fill: #d62728; stroke: #ffffff; stroke-width: 0.75; stroke-linejoin: miter"/>
     <use xlink:href="#mbeb2580335" x="763.605113" y="156.617574" style="fill: #d62728; stroke: #ffffff; stroke-width: 0.75; stroke-linejoin: miter"/>
     <use xlink:href="#mbeb2580335" x="764.79971" y="156.548494" style="fill: #d62728; stroke: #ffffff; stroke-width: 0.75; stroke-linejoin: miter"/>
    </g>
   </g>
   <g id="line2d_23">
    <path d="M 53.328125 276.334125 
L 545.142907 187.56565 
L 584.472948 183.420818 
L 607.479547 183.006335 
L 623.802989 182.453691 
L 636.464434 181.003 
L 646.809588 179.69047 
L 655.556291 178.44702 
L 663.133029 177.687135 
L 669.816187 177.479893 
L 675.794474 177.272652 
L 681.202494 176.650927 
L 686.139628 176.581846 
L 690.681352 175.821961 
L 694.886331 175.821961 
L 698.801073 175.821961 
L 702.46307 175.75288 
L 705.902987 175.683799 
L 709.146227 173.542303 
L 712.214069 171.884371 
L 715.124515 171.81529 
L 717.89293 171.74621 
L 720.532534 171.193565 
L 723.054783 171.193565 
L 725.469669 170.917243 
L 727.78596 170.571841 
L 730.011393 170.364599 
L 732.152826 170.226438 
L 734.216372 168.844827 
L 736.207498 168.154022 
L 738.131114 167.670459 
L 739.99165 167.463217 
L 741.793111 166.772412 
L 743.539133 166.357929 
L 745.233028 166.288848 
L 746.877817 165.874365 
L 748.476268 165.528962 
L 750.03092 164.769076 
L 751.54411 164.492754 
L 753.017992 163.663788 
L 754.454556 163.525627 
L 755.855646 162.765741 
L 757.222971 162.074936 
L 758.558121 161.798614 
L 759.862575 161.453211 
L 761.137713 161.453211 
L 762.384824 161.453211 
L 763.605113 161.384131 
L 764.79971 161.31505 
" clip-path="url(#pfad02c60d3)" style="fill: none; stroke: #1f77b4; stroke-width: 1.5; stroke-linecap: square"/>
    <defs>
     <path id="mf1fc79edf8" d="M 0 3 
C 0.795609 3 1.55874 2.683901 2.12132 2.12132 
C 2.683901 1.55874 3 0.795609 3 0 
C 3 -0.795609 2.683901 -1.55874 2.12132 -2.12132 
C 1.55874 -2.683901 0.795609 -3 0 -3 
C -0.795609 -3 -1.55874 -2.683901 -2.12132 -2.12132 
C -2.683901 -1.55874 -3 -0.795609 -3 0 
C -3 0.795609 -2.683901 1.55874 -2.12132 2.12132 
C -1.55874 2.683901 -0.795609 3 0 3 
z
" style="stroke: #ffffff; stroke-width: 0.75"/>
    </defs>
    <g clip-path="url(#pfad02c60d3)">
     <use xlink:href="#mf1fc79edf8" x="53.328125" y="276.334125" style="fill: #1f77b4; stroke: #ffffff; stroke-width: 0.75"/>
     <use xlink:href="#mf1fc79edf8" x="545.142907" y="187.56565" style="fill: #1f77b4; stroke: #ffffff; stroke-width: 0.75"/>
     <use xlink:href="#mf1fc79edf8" x="584.472948" y="183.420818" style="fill: #1f77b4; stroke: #ffffff; stroke-width: 0.75"/>
     <use xlink:href="#mf1fc79edf8" x="607.479547" y="183.006335" style="fill: #1f77b4; stroke: #ffffff; stroke-width: 0.75"/>
     <use xlink:href="#mf1fc79edf8" x="623.802989" y="182.453691" style="fill: #1f77b4; stroke: #ffffff; stroke-width: 0.75"/>
     <use xlink:href="#mf1fc79edf8" x="636.464434" y="181.003" style="fill: #1f77b4; stroke: #ffffff; stroke-width: 0.75"/>
     <use xlink:href="#mf1fc79edf8" x="646.809588" y="179.69047" style="fill: #1f77b4; stroke: #ffffff; stroke-width: 0.75"/>
     <use xlink:href="#mf1fc79edf8" x="655.556291" y="178.44702" style="fill: #1f77b4; stroke: #ffffff; stroke-width: 0.75"/>
     <use xlink:href="#mf1fc79edf8" x="663.133029" y="177.687135" style="fill: #1f77b4; stroke: #ffffff; stroke-width: 0.75"/>
     <use xlink:href="#mf1fc79edf8" x="669.816187" y="177.479893" style="fill: #1f77b4; stroke: #ffffff; stroke-width: 0.75"/>
     <use xlink:href="#mf1fc79edf8" x="675.794474" y="177.272652" style="fill: #1f77b4; stroke: #ffffff; stroke-width: 0.75"/>
     <use xlink:href="#mf1fc79edf8" x="681.202494" y="176.650927" style="fill: #1f77b4; stroke: #ffffff; stroke-width: 0.75"/>
     <use xlink:href="#mf1fc79edf8" x="686.139628" y="176.581846" style="fill: #1f77b4; stroke: #ffffff; stroke-width: 0.75"/>
     <use xlink:href="#mf1fc79edf8" x="690.681352" y="175.821961" style="fill: #1f77b4; stroke: #ffffff; stroke-width: 0.75"/>
     <use xlink:href="#mf1fc79edf8" x="694.886331" y="175.821961" style="fill: #1f77b4; stroke: #ffffff; stroke-width: 0.75"/>
     <use xlink:href="#mf1fc79edf8" x="698.801073" y="175.821961" style="fill: #1f77b4; stroke: #ffffff; stroke-width: 0.75"/>
     <use xlink:href="#mf1fc79edf8" x="702.46307" y="175.75288" style="fill: #1f77b4; stroke: #ffffff; stroke-width: 0.75"/>
     <use xlink:href="#mf1fc79edf8" x="705.902987" y="175.683799" style="fill: #1f77b4; stroke: #ffffff; stroke-width: 0.75"/>
     <use xlink:href="#mf1fc79edf8" x="709.146227" y="173.542303" style="fill: #1f77b4; stroke: #ffffff; stroke-width: 0.75"/>
     <use xlink:href="#mf1fc79edf8" x="712.214069" y="171.884371" style="fill: #1f77b4; stroke: #ffffff; stroke-width: 0.75"/>
     <use xlink:href="#mf1fc79edf8" x="715.124515" y="171.81529" style="fill: #1f77b4; stroke: #ffffff; stroke-width: 0.75"/>
     <use xlink:href="#mf1fc79edf8" x="717.89293" y="171.74621" style="fill: #1f77b4; stroke: #ffffff; stroke-width: 0.75"/>
     <use xlink:href="#mf1fc79edf8" x="720.532534" y="171.193565" style="fill: #1f77b4; stroke: #ffffff; stroke-width: 0.75"/>
     <use xlink:href="#mf1fc79edf8" x="723.054783" y="171.193565" style="fill: #1f77b4; stroke: #ffffff; stroke-width: 0.75"/>
     <use xlink:href="#mf1fc79edf8" x="725.469669" y="170.917243" style="fill: #1f77b4; stroke: #ffffff; stroke-width: 0.75"/>
     <use xlink:href="#mf1fc79edf8" x="727.78596" y="170.571841" style="fill: #1f77b4; stroke: #ffffff; stroke-width: 0.75"/>
     <use xlink:href="#mf1fc79edf8" x="730.011393" y="170.364599" style="fill: #1f77b4; stroke: #ffffff; stroke-width: 0.75"/>
     <use xlink:href="#mf1fc79edf8" x="732.152826" y="170.226438" style="fill: #1f77b4; stroke: #ffffff; stroke-width: 0.75"/>
     <use xlink:href="#mf1fc79edf8" x="734.216372" y="168.844827" style="fill: #1f77b4; stroke: #ffffff; stroke-width: 0.75"/>
     <use xlink:href="#mf1fc79edf8" x="736.207498" y="168.154022" style="fill: #1f77b4; stroke: #ffffff; stroke-width: 0.75"/>
     <use xlink:href="#mf1fc79edf8" x="738.131114" y="167.670459" style="fill: #1f77b4; stroke: #ffffff; stroke-width: 0.75"/>
     <use xlink:href="#mf1fc79edf8" x="739.99165" y="167.463217" style="fill: #1f77b4; stroke: #ffffff; stroke-width: 0.75"/>
     <use xlink:href="#mf1fc79edf8" x="741.793111" y="166.772412" style="fill: #1f77b4; stroke: #ffffff; stroke-width: 0.75"/>
     <use xlink:href="#mf1fc79edf8" x="743.539133" y="166.357929" style="fill: #1f77b4; stroke: #ffffff; stroke-width: 0.75"/>
     <use xlink:href="#mf1fc79edf8" x="745.233028" y="166.288848" style="fill: #1f77b4; stroke: #ffffff; stroke-width: 0.75"/>
     <use xlink:href="#mf1fc79edf8" x="746.877817" y="165.874365" style="fill: #1f77b4; stroke: #ffffff; stroke-width: 0.75"/>
     <use xlink:href="#mf1fc79edf8" x="748.476268" y="165.528962" style="fill: #1f77b4; stroke: #ffffff; stroke-width: 0.75"/>
     <use xlink:href="#mf1fc79edf8" x="750.03092" y="164.769076" style="fill: #1f77b4; stroke: #ffffff; stroke-width: 0.75"/>
     <use xlink:href="#mf1fc79edf8" x="751.54411" y="164.492754" style="fill: #1f77b4; stroke: #ffffff; stroke-width: 0.75"/>
     <use xlink:href="#mf1fc79edf8" x="753.017992" y="163.663788" style="fill: #1f77b4; stroke: #ffffff; stroke-width: 0.75"/>
     <use xlink:href="#mf1fc79edf8" x="754.454556" y="163.525627" style="fill: #1f77b4; stroke: #ffffff; stroke-width: 0.75"/>
     <use xlink:href="#mf1fc79edf8" x="755.855646" y="162.765741" style="fill: #1f77b4; stroke: #ffffff; stroke-width: 0.75"/>
     <use xlink:href="#mf1fc79edf8" x="757.222971" y="162.074936" style="fill: #1f77b4; stroke: #ffffff; stroke-width: 0.75"/>
     <use xlink:href="#mf1fc79edf8" x="758.558121" y="161.798614" style="fill: #1f77b4; stroke: #ffffff; stroke-width: 0.75"/>
     <use xlink:href="#mf1fc79edf8" x="759.862575" y="161.453211" style="fill: #1f77b4; stroke: #ffffff; stroke-width: 0.75"/>
     <use xlink:href="#mf1fc79edf8" x="761.137713" y="161.453211" style="fill: #1f77b4; stroke: #ffffff; stroke-width: 0.75"/>
     <use xlink:href="#mf1fc79edf8" x="762.384824" y="161.453211" style="fill: #1f77b4; stroke: #ffffff; stroke-width: 0.75"/>
     <use xlink:href="#mf1fc79edf8" x="763.605113" y="161.384131" style="fill: #1f77b4; stroke: #ffffff; stroke-width: 0.75"/>
     <use xlink:href="#mf1fc79edf8" x="764.79971" y="161.31505" style="fill: #1f77b4; stroke: #ffffff; stroke-width: 0.75"/>
    </g>
   </g>
   <g id="line2d_24"/>
   <g id="line2d_25"/>
   <g id="line2d_26"/>
   <g id="line2d_27"/>
   <g id="line2d_28">
    <path d="M 764.79971 288.430125 
L 764.79971 22.318125 
" clip-path="url(#pfad02c60d3)" style="fill: none; stroke: #ff0000; stroke-width: 1.5; stroke-linecap: square"/>
   </g>
   <g id="patch_3">
    <path d="M 53.328125 256.715256 
L 53.328125 49.47368 
" style="fill: none; stroke: #000000; stroke-width: 0.8; stroke-linejoin: miter; stroke-linecap: square"/>
   </g>
   <g id="patch_4">
    <path d="M 53.328125 288.430125 
L 764.801023 288.430125 
" style="fill: none; stroke: #000000; stroke-width: 0.8; stroke-linejoin: miter; stroke-linecap: square"/>
   </g>
   <g id="text_18">
    <!-- mbedtls_fuzz_dtlsclient (12h, at least 5 trials/fuzzer) -->
    <g transform="translate(253.235 16.318125) scale(0.12 -0.12)">
     <defs>
      <path id="DejaVuSans-6c" d="M 603 4863 
L 1178 4863 
L 1178 0 
L 603 0 
L 603 4863 
z
" transform="scale(0.015625)"/>
      <path id="DejaVuSans-73" d="M 2834 3397 
L 2834 2853 
Q 2591 2978 2328 3040 
Q 2066 3103 1784 3103 
Q 1356 3103 1142 2972 
Q 928 2841 928 2578 
Q 928 2378 1081 2264 
Q 1234 2150 1697 2047 
L 1894 2003 
Q 2506 1872 2764 1633 
Q 3022 1394 3022 966 
Q 3022 478 2636 193 
Q 2250 -91 1575 -91 
Q 1294 -91 989 -36 
Q 684 19 347 128 
L 347 722 
Q 666 556 975 473 
Q 1284 391 1588 391 
Q 1994 391 2212 530 
Q 2431 669 2431 922 
Q 2431 1156 2273 1281 
Q 2116 1406 1581 1522 
L 1381 1569 
Q 847 1681 609 1914 
Q 372 2147 372 2553 
Q 372 3047 722 3315 
Q 1072 3584 1716 3584 
Q 2034 3584 2315 3537 
Q 2597 3491 2834 3397 
z
" transform="scale(0.015625)"/>
      <path id="DejaVuSans-5f" d="M 3263 -1063 
L 3263 -1509 
L -63 -1509 
L -63 -1063 
L 3263 -1063 
z
" transform="scale(0.015625)"/>
      <path id="DejaVuSans-66" d="M 2375 4863 
L 2375 4384 
L 1825 4384 
Q 1516 4384 1395 4259 
Q 1275 4134 1275 3809 
L 1275 3500 
L 2222 3500 
L 2222 3053 
L 1275 3053 
L 1275 0 
L 697 0 
L 697 3053 
L 147 3053 
L 147 3500 
L 697 3500 
L 697 3744 
Q 697 4328 969 4595 
Q 1241 4863 1831 4863 
L 2375 4863 
z
" transform="scale(0.015625)"/>
      <path id="DejaVuSans-7a" d="M 353 3500 
L 3084 3500 
L 3084 2975 
L 922 459 
L 3084 459 
L 3084 0 
L 275 0 
L 275 525 
L 2438 3041 
L 353 3041 
L 353 3500 
z
" transform="scale(0.015625)"/>
      <path id="DejaVuSans-2c" d="M 750 794 
L 1409 794 
L 1409 256 
L 897 -744 
L 494 -744 
L 750 256 
L 750 794 
z
" transform="scale(0.015625)"/>
      <path id="DejaVuSans-2f" d="M 1625 4666 
L 2156 4666 
L 531 -594 
L 0 -594 
L 1625 4666 
z
" transform="scale(0.015625)"/>
     </defs>
     <use xlink:href="#DejaVuSans-6d"/>
     <use xlink:href="#DejaVuSans-62" transform="translate(97.412109 0)"/>
     <use xlink:href="#DejaVuSans-65" transform="translate(160.888672 0)"/>
     <use xlink:href="#DejaVuSans-64" transform="translate(222.412109 0)"/>
     <use xlink:href="#DejaVuSans-74" transform="translate(285.888672 0)"/>
     <use xlink:href="#DejaVuSans-6c" transform="translate(325.097656 0)"/>
     <use xlink:href="#DejaVuSans-73" transform="translate(352.880859 0)"/>
     <use xlink:href="#DejaVuSans-5f" transform="translate(404.980469 0)"/>
     <use xlink:href="#DejaVuSans-66" transform="translate(454.980469 0)"/>
     <use xlink:href="#DejaVuSans-75" transform="translate(490.185547 0)"/>
     <use xlink:href="#DejaVuSans-7a" transform="translate(553.564453 0)"/>
     <use xlink:href="#DejaVuSans-7a" transform="translate(606.054688 0)"/>
     <use xlink:href="#DejaVuSans-5f" transform="translate(658.544922 0)"/>
     <use xlink:href="#DejaVuSans-64" transform="translate(708.544922 0)"/>
     <use xlink:href="#DejaVuSans-74" transform="translate(772.021484 0)"/>
     <use xlink:href="#DejaVuSans-6c" transform="translate(811.230469 0)"/>
     <use xlink:href="#DejaVuSans-73" transform="translate(839.013672 0)"/>
     <use xlink:href="#DejaVuSans-63" transform="translate(891.113281 0)"/>
     <use xlink:href="#DejaVuSans-6c" transform="translate(946.09375 0)"/>
     <use xlink:href="#DejaVuSans-69" transform="translate(973.876953 0)"/>
     <use xlink:href="#DejaVuSans-65" transform="translate(1001.660156 0)"/>
     <use xlink:href="#DejaVuSans-6e" transform="translate(1063.183594 0)"/>
     <use xlink:href="#DejaVuSans-74" transform="translate(1126.5625 0)"/>
     <use xlink:href="#DejaVuSans-20" transform="translate(1165.771484 0)"/>
     <use xlink:href="#DejaVuSans-28" transform="translate(1197.558594 0)"/>
     <use xlink:href="#DejaVuSans-31" transform="translate(1236.572266 0)"/>
     <use xlink:href="#DejaVuSans-32" transform="translate(1300.195312 0)"/>
     <use xlink:href="#DejaVuSans-68" transform="translate(1363.818359 0)"/>
     <use xlink:href="#DejaVuSans-2c" transform="translate(1427.197266 0)"/>
     <use xlink:href="#DejaVuSans-20" transform="translate(1458.984375 0)"/>
     <use xlink:href="#DejaVuSans-61" transform="translate(1490.771484 0)"/>
     <use xlink:href="#DejaVuSans-74" transform="translate(1552.050781 0)"/>
     <use xlink:href="#DejaVuSans-20" transform="translate(1591.259766 0)"/>
     <use xlink:href="#DejaVuSans-6c" transform="translate(1623.046875 0)"/>
     <use xlink:href="#DejaVuSans-65" transform="translate(1650.830078 0)"/>
     <use xlink:href="#DejaVuSans-61" transform="translate(1712.353516 0)"/>
     <use xlink:href="#DejaVuSans-73" transform="translate(1773.632812 0)"/>
     <use xlink:href="#DejaVuSans-74" transform="translate(1825.732422 0)"/>
     <use xlink:href="#DejaVuSans-20" transform="translate(1864.941406 0)"/>
     <use xlink:href="#DejaVuSans-35" transform="translate(1896.728516 0)"/>
     <use xlink:href="#DejaVuSans-20" transform="translate(1960.351562 0)"/>
     <use xlink:href="#DejaVuSans-74" transform="translate(1992.138672 0)"/>
     <use xlink:href="#DejaVuSans-72" transform="translate(2031.347656 0)"/>
     <use xlink:href="#DejaVuSans-69" transform="translate(2072.460938 0)"/>
     <use xlink:href="#DejaVuSans-61" transform="translate(2100.244141 0)"/>
     <use xlink:href="#DejaVuSans-6c" transform="translate(2161.523438 0)"/>
     <use xlink:href="#DejaVuSans-73" transform="translate(2189.306641 0)"/>
     <use xlink:href="#DejaVuSans-2f" transform="translate(2241.40625 0)"/>
     <use xlink:href="#DejaVuSans-66" transform="translate(2275.097656 0)"/>
     <use xlink:href="#DejaVuSans-75" transform="translate(2310.302734 0)"/>
     <use xlink:href="#DejaVuSans-7a" transform="translate(2373.681641 0)"/>
     <use xlink:href="#DejaVuSans-7a" transform="translate(2426.171875 0)"/>
     <use xlink:href="#DejaVuSans-65" transform="translate(2478.662109 0)"/>
     <use xlink:href="#DejaVuSans-72" transform="translate(2540.185547 0)"/>
     <use xlink:href="#DejaVuSans-29" transform="translate(2581.298828 0)"/>
    </g>
   </g>
   <g id="legend_1">
    <g id="line2d_29">
     <path d="M 771.568125 30.416562 
L 781.568125 30.416562 
L 791.568125 30.416562 
" style="fill: none; stroke: #98df8a; stroke-width: 1.5; stroke-linecap: square"/>
     <g>
      <use xlink:href="#mdf6883f555" x="781.568125" y="30.416562" style="fill: #98df8a; stroke: #ffffff; stroke-width: 0.75; stroke-linejoin: miter"/>
     </g>
    </g>
    <g id="text_19">
     <!-- aflplusplus_500c -->
     <g transform="translate(799.568125 33.916562) scale(0.1 -0.1)">
      <defs>
       <path id="DejaVuSans-70" d="M 1159 525 
L 1159 -1331 
L 581 -1331 
L 581 3500 
L 1159 3500 
L 1159 2969 
Q 1341 3281 1617 3432 
Q 1894 3584 2278 3584 
Q 2916 3584 3314 3078 
Q 3713 2572 3713 1747 
Q 3713 922 3314 415 
Q 2916 -91 2278 -91 
Q 1894 -91 1617 61 
Q 1341 213 1159 525 
z
M 3116 1747 
Q 3116 2381 2855 2742 
Q 2594 3103 2138 3103 
Q 1681 3103 1420 2742 
Q 1159 2381 1159 1747 
Q 1159 1113 1420 752 
Q 1681 391 2138 391 
Q 2594 391 2855 752 
Q 3116 1113 3116 1747 
z
" transform="scale(0.015625)"/>
      </defs>
      <use xlink:href="#DejaVuSans-61"/>
      <use xlink:href="#DejaVuSans-66" transform="translate(61.279297 0)"/>
      <use xlink:href="#DejaVuSans-6c" transform="translate(96.484375 0)"/>
      <use xlink:href="#DejaVuSans-70" transform="translate(124.267578 0)"/>
      <use xlink:href="#DejaVuSans-6c" transform="translate(187.744141 0)"/>
      <use xlink:href="#DejaVuSans-75" transform="translate(215.527344 0)"/>
      <use xlink:href="#DejaVuSans-73" transform="translate(278.90625 0)"/>
      <use xlink:href="#DejaVuSans-70" transform="translate(331.005859 0)"/>
      <use xlink:href="#DejaVuSans-6c" transform="translate(394.482422 0)"/>
      <use xlink:href="#DejaVuSans-75" transform="translate(422.265625 0)"/>
      <use xlink:href="#DejaVuSans-73" transform="translate(485.644531 0)"/>
      <use xlink:href="#DejaVuSans-5f" transform="translate(537.744141 0)"/>
      <use xlink:href="#DejaVuSans-35" transform="translate(587.744141 0)"/>
      <use xlink:href="#DejaVuSans-30" transform="translate(651.367188 0)"/>
      <use xlink:href="#DejaVuSans-30" transform="translate(714.990234 0)"/>
      <use xlink:href="#DejaVuSans-63" transform="translate(778.613281 0)"/>
     </g>
    </g>
    <g id="line2d_30">
     <path d="M 771.568125 45.372813 
L 781.568125 45.372813 
L 791.568125 45.372813 
" style="fill: none; stroke: #c7c7c7; stroke-width: 1.5; stroke-linecap: square"/>
     <g>
      <use xlink:href="#me7aa5ca440" x="781.568125" y="45.372813" style="fill: #c7c7c7; stroke: #ffffff; stroke-width: 0.75; stroke-linejoin: miter"/>
     </g>
    </g>
    <g id="text_20">
     <!-- aflplusplus_mopt -->
     <g transform="translate(799.568125 48.872813) scale(0.1 -0.1)">
      <use xlink:href="#DejaVuSans-61"/>
      <use xlink:href="#DejaVuSans-66" transform="translate(61.279297 0)"/>
      <use xlink:href="#DejaVuSans-6c" transform="translate(96.484375 0)"/>
      <use xlink:href="#DejaVuSans-70" transform="translate(124.267578 0)"/>
      <use xlink:href="#DejaVuSans-6c" transform="translate(187.744141 0)"/>
      <use xlink:href="#DejaVuSans-75" transform="translate(215.527344 0)"/>
      <use xlink:href="#DejaVuSans-73" transform="translate(278.90625 0)"/>
      <use xlink:href="#DejaVuSans-70" transform="translate(331.005859 0)"/>
      <use xlink:href="#DejaVuSans-6c" transform="translate(394.482422 0)"/>
      <use xlink:href="#DejaVuSans-75" transform="translate(422.265625 0)"/>
      <use xlink:href="#DejaVuSans-73" transform="translate(485.644531 0)"/>
      <use xlink:href="#DejaVuSans-5f" transform="translate(537.744141 0)"/>
      <use xlink:href="#DejaVuSans-6d" transform="translate(587.744141 0)"/>
      <use xlink:href="#DejaVuSans-6f" transform="translate(685.15625 0)"/>
      <use xlink:href="#DejaVuSans-70" transform="translate(746.337891 0)"/>
      <use xlink:href="#DejaVuSans-74" transform="translate(809.814453 0)"/>
     </g>
    </g>
    <g id="line2d_31">
     <path d="M 771.568125 60.329063 
L 781.568125 60.329063 
L 791.568125 60.329063 
" style="fill: none; stroke: #d62728; stroke-width: 1.5; stroke-linecap: square"/>
     <g>
      <use xlink:href="#mbeb2580335" x="781.568125" y="60.329063" style="fill: #d62728; stroke: #ffffff; stroke-width: 0.75; stroke-linejoin: miter"/>
     </g>
    </g>
    <g id="text_21">
     <!-- aflplusplus_c11 -->
     <g transform="translate(799.568125 63.829063) scale(0.1 -0.1)">
      <use xlink:href="#DejaVuSans-61"/>
      <use xlink:href="#DejaVuSans-66" transform="translate(61.279297 0)"/>
      <use xlink:href="#DejaVuSans-6c" transform="translate(96.484375 0)"/>
      <use xlink:href="#DejaVuSans-70" transform="translate(124.267578 0)"/>
      <use xlink:href="#DejaVuSans-6c" transform="translate(187.744141 0)"/>
      <use xlink:href="#DejaVuSans-75" transform="translate(215.527344 0)"/>
      <use xlink:href="#DejaVuSans-73" transform="translate(278.90625 0)"/>
      <use xlink:href="#DejaVuSans-70" transform="translate(331.005859 0)"/>
      <use xlink:href="#DejaVuSans-6c" transform="translate(394.482422 0)"/>
      <use xlink:href="#DejaVuSans-75" transform="translate(422.265625 0)"/>
      <use xlink:href="#DejaVuSans-73" transform="translate(485.644531 0)"/>
      <use xlink:href="#DejaVuSans-5f" transform="translate(537.744141 0)"/>
      <use xlink:href="#DejaVuSans-63" transform="translate(587.744141 0)"/>
      <use xlink:href="#DejaVuSans-31" transform="translate(642.724609 0)"/>
      <use xlink:href="#DejaVuSans-31" transform="translate(706.347656 0)"/>
     </g>
    </g>
    <g id="line2d_32">
     <path d="M 771.568125 75.285313 
L 781.568125 75.285313 
L 791.568125 75.285313 
" style="fill: none; stroke: #1f77b4; stroke-width: 1.5; stroke-linecap: square"/>
     <g>
      <use xlink:href="#mf1fc79edf8" x="781.568125" y="75.285313" style="fill: #1f77b4; stroke: #ffffff; stroke-width: 0.75"/>
     </g>
    </g>
    <g id="text_22">
     <!-- aflplusplus_440c -->
     <g transform="translate(799.568125 78.785313) scale(0.1 -0.1)">
      <use xlink:href="#DejaVuSans-61"/>
      <use xlink:href="#DejaVuSans-66" transform="translate(61.279297 0)"/>
      <use xlink:href="#DejaVuSans-6c" transform="translate(96.484375 0)"/>
      <use xlink:href="#DejaVuSans-70" transform="translate(124.267578 0)"/>
      <use xlink:href="#DejaVuSans-6c" transform="translate(187.744141 0)"/>
      <use xlink:href="#DejaVuSans-75" transform="translate(215.527344 0)"/>
      <use xlink:href="#DejaVuSans-73" transform="translate(278.90625 0)"/>
      <use xlink:href="#DejaVuSans-70" transform="translate(331.005859 0)"/>
      <use xlink:href="#DejaVuSans-6c" transform="translate(394.482422 0)"/>
      <use xlink:href="#DejaVuSans-75" transform="translate(422.265625 0)"/>
      <use xlink:href="#DejaVuSans-73" transform="translate(485.644531 0)"/>
      <use xlink:href="#DejaVuSans-5f" transform="translate(537.744141 0)"/>
      <use xlink:href="#DejaVuSans-34" transform="translate(587.744141 0)"/>
      <use xlink:href="#DejaVuSans-34" transform="translate(651.367188 0)"/>
      <use xlink:href="#DejaVuSans-30" transform="translate(714.990234 0)"/>
      <use xlink:href="#DejaVuSans-63" transform="translate(778.613281 0)"/>
     </g>
    </g>
   </g>
  </g>
 </g>
 <defs>
  <clipPath id="pfad02c60d3">
   <rect x="53.328125" y="22.318125" width="714.24" height="266.112"/>
  </clipPath>
 </defs>
</svg>
