<?xml version="1.0" encoding="utf-8" standalone="no"?>
<!DOCTYPE svg PUBLIC "-//W3C//DTD SVG 1.1//EN"
  "http://www.w3.org/Graphics/SVG/1.1/DTD/svg11.dtd">
<svg xmlns:xlink="http://www.w3.org/1999/xlink" width="895.669687pt" height="325.986375pt" viewBox="0 0 895.669687 325.986375" xmlns="http://www.w3.org/2000/svg" version="1.1">
 <metadata>
  <rdf:RDF xmlns:dc="http://purl.org/dc/elements/1.1/" xmlns:cc="http://creativecommons.org/ns#" xmlns:rdf="http://www.w3.org/1999/02/22-rdf-syntax-ns#">
   <cc:Work>
    <dc:type rdf:resource="http://purl.org/dc/dcmitype/StillImage"/>
    <dc:date>2026-06-10T04:18:54.156111</dc:date>
    <dc:format>image/svg+xml</dc:format>
    <dc:creator>
     <cc:Agent>
      <dc:title>Matplotlib v3.10.9, https://matplotlib.org/</dc:title>
     </cc:Agent>
    </dc:creator>
   </cc:Work>
  </rdf:RDF>
 </metadata>
 <defs>
  <style type="text/css">*{stroke-linejoin: round; stroke-linecap: butt}</style>
 </defs>
 <g id="figure_1">
  <g id="patch_1">
   <path d="M 0 325.986375 
L 895.669688 325.986375 
L 895.669688 0 
L 0 0 
z
" style="fill: #ffffff"/>
  </g>
  <g id="axes_1">
   <g id="patch_2">
    <path d="M 53.328125 288.430125 
L 767.568125 288.430125 
L 767.568125 22.318125 
L 53.328125 22.318125 
z
" style="fill: #ffffff"/>
   </g>
   <g id="FillBetweenPolyCollection_1">
    <defs>
     <path id="md741457a17" d="M 53.328125 -49.65225 
L 53.328125 -49.65225 
L 543.5531 -178.267946 
L 582.756005 -187.454782 
L 605.688234 -187.454782 
L 621.95891 -187.454782 
L 634.579427 -190.51706 
L 644.89114 -190.51706 
L 653.609569 -190.51706 
L 661.161815 -190.51706 
L 667.823369 -193.579339 
L 673.782332 -193.579339 
L 679.17287 -193.579339 
L 684.094045 -193.579339 
L 688.621087 -193.579339 
L 692.812474 -193.579339 
L 696.714561 -193.579339 
L 700.364721 -193.579339 
L 703.793518 -193.579339 
L 707.026274 -193.579339 
L 710.084199 -193.579339 
L 712.985237 -193.579339 
L 715.744703 -193.579339 
L 718.375775 -193.579339 
L 720.88987 -193.579339 
L 723.29695 -193.579339 
L 725.605754 -193.579339 
L 727.823992 -193.579339 
L 729.958504 -193.579339 
L 732.015379 -193.579339 
L 734.000068 -193.579339 
L 735.917467 -193.579339 
L 737.771988 -193.579339 
L 739.567626 -193.579339 
L 741.308004 -196.641617 
L 742.996423 -196.641617 
L 744.635896 -221.139845 
L 746.229179 -221.139845 
L 747.778806 -230.32668 
L 749.287105 -236.451237 
L 750.756222 -236.451237 
L 752.188142 -236.451237 
L 753.584703 -236.451237 
L 754.947608 -236.451237 
L 756.278442 -236.451237 
L 757.57868 -236.451237 
L 758.849696 -236.451237 
L 760.092775 -236.451237 
L 761.30912 -236.451237 
L 762.499855 -236.451237 
L 763.666037 -236.451237 
L 764.808659 -236.451237 
L 764.808659 -291.57225 
L 764.808659 -291.57225 
L 763.666037 -291.57225 
L 762.499855 -291.57225 
L 761.30912 -291.57225 
L 760.092775 -291.57225 
L 758.849696 -291.57225 
L 757.57868 -291.57225 
L 756.278442 -291.57225 
L 754.947608 -291.57225 
L 753.584703 -291.57225 
L 752.188142 -291.57225 
L 750.756222 -291.57225 
L 749.287105 -291.57225 
L 747.778806 -291.57225 
L 746.229179 -291.57225 
L 744.635896 -291.57225 
L 742.996423 -291.57225 
L 741.308004 -291.57225 
L 739.567626 -291.57225 
L 737.771988 -291.57225 
L 735.917467 -267.074022 
L 734.000068 -257.887187 
L 732.015379 -257.887187 
L 729.958504 -257.887187 
L 727.823992 -257.887187 
L 725.605754 -257.887187 
L 723.29695 -257.887187 
L 720.88987 -257.887187 
L 718.375775 -257.887187 
L 715.744703 -257.887187 
L 712.985237 -236.451237 
L 710.084199 -236.451237 
L 707.026274 -236.451237 
L 703.793518 -236.451237 
L 700.364721 -236.451237 
L 696.714561 -236.451237 
L 692.812474 -236.451237 
L 688.621087 -236.451237 
L 684.094045 -236.451237 
L 679.17287 -236.451237 
L 673.782332 -236.451237 
L 667.823369 -236.451237 
L 661.161815 -236.451237 
L 653.609569 -236.451237 
L 644.89114 -233.388959 
L 634.579427 -233.388959 
L 621.95891 -233.388959 
L 605.688234 -233.388959 
L 582.756005 -215.015288 
L 543.5531 -211.953009 
L 53.328125 -49.65225 
z
" style="stroke: #d62728; stroke-opacity: 0.2"/>
    </defs>
    <g clip-path="url(#p49f895ba64)">
     <use xlink:href="#md741457a17" x="0" y="325.986375" style="fill: #d62728; fill-opacity: 0.2; stroke: #d62728; stroke-opacity: 0.2"/>
    </g>
   </g>
   <g id="FillBetweenPolyCollection_2">
    <defs>
     <path id="m05e3b3a08d" d="M 53.328125 -49.65225 
L 53.328125 -49.65225 
L 543.5531 -149.176301 
L 582.756005 -155.300858 
L 605.688234 -169.081111 
L 621.95891 -169.081111 
L 634.579427 -172.143389 
L 644.89114 -172.143389 
L 653.609569 -176.736807 
L 661.161815 -176.736807 
L 667.823369 -179.799085 
L 673.782332 -179.799085 
L 679.17287 -179.799085 
L 684.094045 -179.799085 
L 688.621087 -179.799085 
L 692.812474 -184.392503 
L 696.714561 -187.454782 
L 700.364721 -187.454782 
L 703.793518 -190.51706 
L 707.026274 -187.454782 
L 710.084199 -187.454782 
L 712.985237 -187.454782 
L 715.744703 -187.454782 
L 718.375775 -187.454782 
L 720.88987 -187.454782 
L 723.29695 -187.454782 
L 725.605754 -187.454782 
L 727.823992 -187.454782 
L 729.958504 -193.502782 
L 732.015379 -192.048199 
L 734.000068 -192.048199 
L 735.917467 -192.048199 
L 737.771988 -192.048199 
L 739.567626 -192.048199 
L 741.308004 -192.048199 
L 742.996423 -192.048199 
L 744.635896 -192.048199 
L 746.229179 -210.42187 
L 747.778806 -210.42187 
L 749.287105 -210.42187 
L 750.756222 -213.484149 
L 752.188142 -225.733263 
L 753.584703 -225.733263 
L 754.947608 -225.733263 
L 756.278442 -230.32668 
L 757.57868 -230.32668 
L 758.849696 -230.32668 
L 760.092775 -230.32668 
L 761.30912 -230.32668 
L 762.499855 -230.32668 
L 763.666037 -230.32668 
L 764.808659 -230.32668 
L 764.808659 -276.260858 
L 764.808659 -276.260858 
L 763.666037 -276.260858 
L 762.499855 -276.260858 
L 761.30912 -276.260858 
L 760.092775 -276.260858 
L 758.849696 -276.260858 
L 757.57868 -276.260858 
L 756.278442 -276.260858 
L 754.947608 -276.260858 
L 753.584703 -276.260858 
L 752.188142 -274.729718 
L 750.756222 -274.729718 
L 749.287105 -274.729718 
L 747.778806 -274.729718 
L 746.229179 -274.729718 
L 744.635896 -274.729718 
L 742.996423 -274.729718 
L 741.308004 -274.729718 
L 739.567626 -274.729718 
L 737.771988 -273.198579 
L 735.917467 -273.198579 
L 734.000068 -273.198579 
L 732.015379 -273.198579 
L 729.958504 -273.198579 
L 727.823992 -273.198579 
L 725.605754 -273.198579 
L 723.29695 -264.011744 
L 720.88987 -264.011744 
L 718.375775 -264.011744 
L 715.744703 -264.011744 
L 712.985237 -262.480604 
L 710.084199 -259.418326 
L 707.026274 -234.920098 
L 703.793518 -234.920098 
L 700.364721 -234.920098 
L 696.714561 -234.920098 
L 692.812474 -233.388959 
L 688.621087 -234.920098 
L 684.094045 -234.920098 
L 679.17287 -233.427237 
L 673.782332 -231.85782 
L 667.823369 -231.85782 
L 661.161815 -222.670984 
L 653.609569 -222.670984 
L 644.89114 -222.670984 
L 634.579427 -222.670984 
L 621.95891 -222.670984 
L 605.688234 -213.484149 
L 582.756005 -202.766174 
L 543.5531 -188.985921 
L 53.328125 -49.65225 
z
" style="stroke: #98df8a; stroke-opacity: 0.2"/>
    </defs>
    <g clip-path="url(#p49f895ba64)">
     <use xlink:href="#m05e3b3a08d" x="0" y="325.986375" style="fill: #98df8a; fill-opacity: 0.2; stroke: #98df8a; stroke-opacity: 0.2"/>
    </g>
   </g>
   <g id="FillBetweenPolyCollection_3">
    <defs>
     <path id="m82b098ac1f" d="M 53.328125 -49.65225 
L 53.328125 -49.65225 
L 543.5531 -153.769718 
L 582.756005 -166.018832 
L 605.688234 -166.018832 
L 621.95891 -172.143389 
L 634.579427 -172.143389 
L 644.89114 -172.143389 
L 653.609569 -208.890731 
L 661.161815 -208.890731 
L 667.823369 -208.890731 
L 673.782332 -208.890731 
L 679.17287 -208.890731 
L 684.094045 -215.015288 
L 688.621087 -221.139845 
L 692.812474 -233.388959 
L 696.714561 -233.388959 
L 700.364721 -233.388959 
L 703.793518 -233.388959 
L 707.026274 -233.388959 
L 710.084199 -233.388959 
L 712.985237 -233.388959 
L 715.744703 -233.388959 
L 718.375775 -233.388959 
L 720.88987 -233.388959 
L 723.29695 -233.388959 
L 725.605754 -233.388959 
L 727.823992 -233.388959 
L 729.958504 -233.388959 
L 732.015379 -233.388959 
L 734.000068 -233.388959 
L 735.917467 -233.388959 
L 737.771988 -233.388959 
L 739.567626 -233.388959 
L 741.308004 -233.388959 
L 742.996423 -233.388959 
L 744.635896 -233.388959 
L 746.229179 -233.388959 
L 747.778806 -233.388959 
L 749.287105 -233.388959 
L 750.756222 -233.388959 
L 752.188142 -233.388959 
L 753.584703 -233.388959 
L 754.947608 -233.388959 
L 756.278442 -233.388959 
L 757.57868 -233.388959 
L 758.849696 -233.388959 
L 760.092775 -233.388959 
L 761.30912 -233.388959 
L 762.499855 -233.388959 
L 763.666037 -233.388959 
L 764.808659 -233.388959 
L 764.808659 -242.575794 
L 764.808659 -242.575794 
L 763.666037 -242.575794 
L 762.499855 -242.575794 
L 761.30912 -242.575794 
L 760.092775 -242.575794 
L 758.849696 -242.575794 
L 757.57868 -242.575794 
L 756.278442 -242.575794 
L 754.947608 -242.575794 
L 753.584703 -242.575794 
L 752.188142 -242.575794 
L 750.756222 -242.575794 
L 749.287105 -242.575794 
L 747.778806 -242.575794 
L 746.229179 -242.575794 
L 744.635896 -242.575794 
L 742.996423 -242.575794 
L 741.308004 -242.575794 
L 739.567626 -242.575794 
L 737.771988 -242.575794 
L 735.917467 -242.575794 
L 734.000068 -242.575794 
L 732.015379 -242.575794 
L 729.958504 -242.575794 
L 727.823992 -242.575794 
L 725.605754 -242.575794 
L 723.29695 -242.575794 
L 720.88987 -239.513516 
L 718.375775 -239.513516 
L 715.744703 -239.513516 
L 712.985237 -239.513516 
L 710.084199 -239.513516 
L 707.026274 -233.388959 
L 703.793518 -233.388959 
L 700.364721 -233.388959 
L 696.714561 -233.388959 
L 692.812474 -233.388959 
L 688.621087 -224.202123 
L 684.094045 -224.202123 
L 679.17287 -224.202123 
L 673.782332 -224.202123 
L 667.823369 -221.139845 
L 661.161815 -221.139845 
L 653.609569 -221.139845 
L 644.89114 -184.392503 
L 634.579427 -184.392503 
L 621.95891 -184.392503 
L 605.688234 -181.330225 
L 582.756005 -181.330225 
L 543.5531 -159.894275 
L 53.328125 -49.65225 
z
" style="stroke: #1f77b4; stroke-opacity: 0.2"/>
    </defs>
    <g clip-path="url(#p49f895ba64)">
     <use xlink:href="#m82b098ac1f" x="0" y="325.986375" style="fill: #1f77b4; fill-opacity: 0.2; stroke: #1f77b4; stroke-opacity: 0.2"/>
    </g>
   </g>
   <g id="FillBetweenPolyCollection_4">
    <defs>
     <path id="m5823dc170f" d="M 53.328125 -49.65225 
L 53.328125 -49.65225 
L 543.5531 -138.458326 
L 582.756005 -159.894275 
L 605.688234 -159.894275 
L 621.95891 -159.894275 
L 634.579427 -159.894275 
L 644.89114 -196.641617 
L 653.609569 -196.641617 
L 661.161815 -221.139845 
L 667.823369 -221.139845 
L 673.782332 -221.139845 
L 679.17287 -221.139845 
L 684.094045 -221.139845 
L 688.621087 -221.139845 
L 692.812474 -221.139845 
L 696.714561 -221.139845 
L 700.364721 -221.139845 
L 703.793518 -221.139845 
L 707.026274 -221.139845 
L 710.084199 -221.139845 
L 712.985237 -221.139845 
L 715.744703 -221.139845 
L 718.375775 -221.139845 
L 720.88987 -221.139845 
L 723.29695 -221.139845 
L 725.605754 -221.139845 
L 727.823992 -221.139845 
L 729.958504 -221.139845 
L 732.015379 -221.139845 
L 734.000068 -221.139845 
L 735.917467 -221.139845 
L 737.771988 -221.139845 
L 739.567626 -221.139845 
L 741.308004 -221.139845 
L 742.996423 -221.139845 
L 744.635896 -221.139845 
L 746.229179 -221.139845 
L 747.778806 -221.139845 
L 749.287105 -221.139845 
L 750.756222 -221.139845 
L 752.188142 -221.139845 
L 753.584703 -221.139845 
L 754.947608 -221.139845 
L 756.278442 -221.139845 
L 757.57868 -221.139845 
L 758.849696 -221.139845 
L 760.092775 -221.139845 
L 761.30912 -221.139845 
L 762.499855 -221.139845 
L 763.666037 -221.139845 
L 764.808659 -221.139845 
L 764.808659 -239.513516 
L 764.808659 -239.513516 
L 763.666037 -239.513516 
L 762.499855 -239.513516 
L 761.30912 -239.513516 
L 760.092775 -239.513516 
L 758.849696 -239.513516 
L 757.57868 -239.513516 
L 756.278442 -239.513516 
L 754.947608 -239.513516 
L 753.584703 -239.513516 
L 752.188142 -239.513516 
L 750.756222 -239.513516 
L 749.287105 -239.513516 
L 747.778806 -239.513516 
L 746.229179 -239.513516 
L 744.635896 -239.513516 
L 742.996423 -239.513516 
L 741.308004 -239.513516 
L 739.567626 -233.388959 
L 737.771988 -233.388959 
L 735.917467 -233.388959 
L 734.000068 -233.388959 
L 732.015379 -233.388959 
L 729.958504 -233.388959 
L 727.823992 -233.388959 
L 725.605754 -233.388959 
L 723.29695 -233.388959 
L 720.88987 -233.388959 
L 718.375775 -233.388959 
L 715.744703 -233.388959 
L 712.985237 -233.388959 
L 710.084199 -233.388959 
L 707.026274 -233.388959 
L 703.793518 -233.388959 
L 700.364721 -233.388959 
L 696.714561 -233.388959 
L 692.812474 -233.388959 
L 688.621087 -233.388959 
L 684.094045 -233.388959 
L 679.17287 -233.388959 
L 673.782332 -221.139845 
L 667.823369 -221.139845 
L 661.161815 -221.139845 
L 653.609569 -221.139845 
L 644.89114 -215.015288 
L 634.579427 -215.015288 
L 621.95891 -215.015288 
L 605.688234 -215.015288 
L 582.756005 -215.015288 
L 543.5531 -172.143389 
L 53.328125 -49.65225 
z
" style="stroke: #c7c7c7; stroke-opacity: 0.2"/>
    </defs>
    <g clip-path="url(#p49f895ba64)">
     <use xlink:href="#m5823dc170f" x="0" y="325.986375" style="fill: #c7c7c7; fill-opacity: 0.2; stroke: #c7c7c7; stroke-opacity: 0.2"/>
    </g>
   </g>
   <g id="matplotlib.axis_1">
    <g id="xtick_1">
     <g id="line2d_1">
      <defs>
       <path id="m00f2638100" d="M 0 0 
L 0 3.5 
" style="stroke: #000000; stroke-width: 0.8"/>
      </defs>
      <g>
       <use xlink:href="#m00f2638100" x="53.328125" y="288.430125" style="stroke: #000000; stroke-width: 0.8"/>
      </g>
     </g>
     <g id="text_1">
      <!-- 0m -->
      <g transform="translate(45.276563 303.028562) scale(0.1 -0.1)">
       <defs>
        <path id="DejaVuSans-30" d="M 2034 4250 
Q 1547 4250 1301 3770 
Q 1056 3291 1056 2328 
Q 1056 1369 1301 889 
Q 1547 409 2034 409 
Q 2525 409 2770 889 
Q 3016 1369 3016 2328 
Q 3016 3291 2770 3770 
Q 2525 4250 2034 4250 
z
M 2034 4750 
Q 2819 4750 3233 4129 
Q 3647 3509 3647 2328 
Q 3647 1150 3233 529 
Q 2819 -91 2034 -91 
Q 1250 -91 836 529 
Q 422 1150 422 2328 
Q 422 3509 836 4129 
Q 1250 4750 2034 4750 
z
" transform="scale(0.015625)"/>
        <path id="DejaVuSans-6d" d="M 3328 2828 
Q 3544 3216 3844 3400 
Q 4144 3584 4550 3584 
Q 5097 3584 5394 3201 
Q 5691 2819 5691 2113 
L 5691 0 
L 5113 0 
L 5113 2094 
Q 5113 2597 4934 2840 
Q 4756 3084 4391 3084 
Q 3944 3084 3684 2787 
Q 3425 2491 3425 1978 
L 3425 0 
L 2847 0 
L 2847 2094 
Q 2847 2600 2669 2842 
Q 2491 3084 2119 3084 
Q 1678 3084 1418 2786 
Q 1159 2488 1159 1978 
L 1159 0 
L 581 0 
L 581 3500 
L 1159 3500 
L 1159 2956 
Q 1356 3278 1631 3431 
Q 1906 3584 2284 3584 
Q 2666 3584 2933 3390 
Q 3200 3197 3328 2828 
z
" transform="scale(0.015625)"/>
       </defs>
       <use xlink:href="#DejaVuSans-30"/>
       <use xlink:href="#DejaVuSans-6d" transform="translate(63.623047 0)"/>
      </g>
     </g>
    </g>
    <g id="xtick_2">
     <g id="line2d_2">
      <g>
       <use xlink:href="#m00f2638100" x="125.677698" y="288.430125" style="stroke: #000000; stroke-width: 0.8"/>
      </g>
     </g>
    </g>
    <g id="xtick_3">
     <g id="line2d_3">
      <g>
       <use xlink:href="#m00f2638100" x="219.422921" y="288.430125" style="stroke: #000000; stroke-width: 0.8"/>
      </g>
     </g>
    </g>
    <g id="xtick_4">
     <g id="line2d_4">
      <g>
       <use xlink:href="#m00f2638100" x="280.021476" y="288.430125" style="stroke: #000000; stroke-width: 0.8"/>
      </g>
     </g>
    </g>
    <g id="xtick_5">
     <g id="line2d_5">
      <g>
       <use xlink:href="#m00f2638100" x="340.620031" y="288.430125" style="stroke: #000000; stroke-width: 0.8"/>
      </g>
     </g>
    </g>
    <g id="xtick_6">
     <g id="line2d_6">
      <g>
       <use xlink:href="#m00f2638100" x="401.218586" y="288.430125" style="stroke: #000000; stroke-width: 0.8"/>
      </g>
     </g>
     <g id="text_2">
      <!-- 1m -->
      <g transform="translate(393.167024 303.028562) scale(0.1 -0.1)">
       <defs>
        <path id="DejaVuSans-31" d="M 794 531 
L 1825 531 
L 1825 4091 
L 703 3866 
L 703 4441 
L 1819 4666 
L 2450 4666 
L 2450 531 
L 3481 531 
L 3481 0 
L 794 0 
L 794 531 
z
" transform="scale(0.015625)"/>
       </defs>
       <use xlink:href="#DejaVuSans-31"/>
       <use xlink:href="#DejaVuSans-6d" transform="translate(63.623047 0)"/>
      </g>
     </g>
    </g>
    <g id="xtick_7">
     <g id="line2d_7">
      <g>
       <use xlink:href="#m00f2638100" x="461.817141" y="288.430125" style="stroke: #000000; stroke-width: 0.8"/>
      </g>
     </g>
     <g id="text_3">
      <!-- 3m -->
      <g transform="translate(453.765579 303.028562) scale(0.1 -0.1)">
       <defs>
        <path id="DejaVuSans-33" d="M 2597 2516 
Q 3050 2419 3304 2112 
Q 3559 1806 3559 1356 
Q 3559 666 3084 287 
Q 2609 -91 1734 -91 
Q 1441 -91 1130 -33 
Q 819 25 488 141 
L 488 750 
Q 750 597 1062 519 
Q 1375 441 1716 441 
Q 2309 441 2620 675 
Q 2931 909 2931 1356 
Q 2931 1769 2642 2001 
Q 2353 2234 1838 2234 
L 1294 2234 
L 1294 2753 
L 1863 2753 
Q 2328 2753 2575 2939 
Q 2822 3125 2822 3475 
Q 2822 3834 2567 4026 
Q 2313 4219 1838 4219 
Q 1578 4219 1281 4162 
Q 984 4106 628 3988 
L 628 4550 
Q 988 4650 1302 4700 
Q 1616 4750 1894 4750 
Q 2613 4750 3031 4423 
Q 3450 4097 3450 3541 
Q 3450 3153 3228 2886 
Q 3006 2619 2597 2516 
z
" transform="scale(0.015625)"/>
       </defs>
       <use xlink:href="#DejaVuSans-33"/>
       <use xlink:href="#DejaVuSans-6d" transform="translate(63.623047 0)"/>
      </g>
     </g>
    </g>
    <g id="xtick_8">
     <g id="line2d_8">
      <g>
       <use xlink:href="#m00f2638100" x="522.415696" y="288.430125" style="stroke: #000000; stroke-width: 0.8"/>
      </g>
     </g>
     <g id="text_4">
      <!-- 10m -->
      <g transform="translate(511.182884 303.028562) scale(0.1 -0.1)">
       <use xlink:href="#DejaVuSans-31"/>
       <use xlink:href="#DejaVuSans-30" transform="translate(63.623047 0)"/>
       <use xlink:href="#DejaVuSans-6d" transform="translate(127.246094 0)"/>
      </g>
     </g>
    </g>
    <g id="xtick_9">
     <g id="line2d_9">
      <g>
       <use xlink:href="#m00f2638100" x="583.014251" y="288.430125" style="stroke: #000000; stroke-width: 0.8"/>
      </g>
     </g>
     <g id="text_5">
      <!-- 30m -->
      <g transform="translate(571.781438 303.028562) scale(0.1 -0.1)">
       <use xlink:href="#DejaVuSans-33"/>
       <use xlink:href="#DejaVuSans-30" transform="translate(63.623047 0)"/>
       <use xlink:href="#DejaVuSans-6d" transform="translate(127.246094 0)"/>
      </g>
     </g>
    </g>
    <g id="xtick_10">
     <g id="line2d_10">
      <g>
       <use xlink:href="#m00f2638100" x="643.612806" y="288.430125" style="stroke: #000000; stroke-width: 0.8"/>
      </g>
     </g>
     <g id="text_6">
      <!-- 1h:27m -->
      <g transform="translate(624.345618 303.028562) scale(0.1 -0.1)">
       <defs>
        <path id="DejaVuSans-68" d="M 3513 2113 
L 3513 0 
L 2938 0 
L 2938 2094 
Q 2938 2591 2744 2837 
Q 2550 3084 2163 3084 
Q 1697 3084 1428 2787 
Q 1159 2491 1159 1978 
L 1159 0 
L 581 0 
L 581 4863 
L 1159 4863 
L 1159 2956 
Q 1366 3272 1645 3428 
Q 1925 3584 2291 3584 
Q 2894 3584 3203 3211 
Q 3513 2838 3513 2113 
z
" transform="scale(0.015625)"/>
        <path id="DejaVuSans-3a" d="M 750 794 
L 1409 794 
L 1409 0 
L 750 0 
L 750 794 
z
M 750 3309 
L 1409 3309 
L 1409 2516 
L 750 2516 
L 750 3309 
z
" transform="scale(0.015625)"/>
        <path id="DejaVuSans-32" d="M 1228 531 
L 3431 531 
L 3431 0 
L 469 0 
L 469 531 
Q 828 903 1448 1529 
Q 2069 2156 2228 2338 
Q 2531 2678 2651 2914 
Q 2772 3150 2772 3378 
Q 2772 3750 2511 3984 
Q 2250 4219 1831 4219 
Q 1534 4219 1204 4116 
Q 875 4013 500 3803 
L 500 4441 
Q 881 4594 1212 4672 
Q 1544 4750 1819 4750 
Q 2544 4750 2975 4387 
Q 3406 4025 3406 3419 
Q 3406 3131 3298 2873 
Q 3191 2616 2906 2266 
Q 2828 2175 2409 1742 
Q 1991 1309 1228 531 
z
" transform="scale(0.015625)"/>
        <path id="DejaVuSans-37" d="M 525 4666 
L 3525 4666 
L 3525 4397 
L 1831 0 
L 1172 0 
L 2766 4134 
L 525 4134 
L 525 4666 
z
" transform="scale(0.015625)"/>
       </defs>
       <use xlink:href="#DejaVuSans-31"/>
       <use xlink:href="#DejaVuSans-68" transform="translate(63.623047 0)"/>
       <use xlink:href="#DejaVuSans-3a" transform="translate(127.001953 0)"/>
       <use xlink:href="#DejaVuSans-32" transform="translate(160.693359 0)"/>
       <use xlink:href="#DejaVuSans-37" transform="translate(224.316406 0)"/>
       <use xlink:href="#DejaVuSans-6d" transform="translate(287.939453 0)"/>
      </g>
     </g>
    </g>
    <g id="xtick_11">
     <g id="line2d_11">
      <g>
       <use xlink:href="#m00f2638100" x="704.211361" y="288.430125" style="stroke: #000000; stroke-width: 0.8"/>
      </g>
     </g>
     <g id="text_7">
      <!-- 4h:16m -->
      <g transform="translate(684.944173 303.028562) scale(0.1 -0.1)">
       <defs>
        <path id="DejaVuSans-34" d="M 2419 4116 
L 825 1625 
L 2419 1625 
L 2419 4116 
z
M 2253 4666 
L 3047 4666 
L 3047 1625 
L 3713 1625 
L 3713 1100 
L 3047 1100 
L 3047 0 
L 2419 0 
L 2419 1100 
L 313 1100 
L 313 1709 
L 2253 4666 
z
" transform="scale(0.015625)"/>
        <path id="DejaVuSans-36" d="M 2113 2584 
Q 1688 2584 1439 2293 
Q 1191 2003 1191 1497 
Q 1191 994 1439 701 
Q 1688 409 2113 409 
Q 2538 409 2786 701 
Q 3034 994 3034 1497 
Q 3034 2003 2786 2293 
Q 2538 2584 2113 2584 
z
M 3366 4563 
L 3366 3988 
Q 3128 4100 2886 4159 
Q 2644 4219 2406 4219 
Q 1781 4219 1451 3797 
Q 1122 3375 1075 2522 
Q 1259 2794 1537 2939 
Q 1816 3084 2150 3084 
Q 2853 3084 3261 2657 
Q 3669 2231 3669 1497 
Q 3669 778 3244 343 
Q 2819 -91 2113 -91 
Q 1303 -91 875 529 
Q 447 1150 447 2328 
Q 447 3434 972 4092 
Q 1497 4750 2381 4750 
Q 2619 4750 2861 4703 
Q 3103 4656 3366 4563 
z
" transform="scale(0.015625)"/>
       </defs>
       <use xlink:href="#DejaVuSans-34"/>
       <use xlink:href="#DejaVuSans-68" transform="translate(63.623047 0)"/>
       <use xlink:href="#DejaVuSans-3a" transform="translate(127.001953 0)"/>
       <use xlink:href="#DejaVuSans-31" transform="translate(160.693359 0)"/>
       <use xlink:href="#DejaVuSans-36" transform="translate(224.316406 0)"/>
       <use xlink:href="#DejaVuSans-6d" transform="translate(287.939453 0)"/>
      </g>
     </g>
    </g>
    <g id="xtick_12">
     <g id="line2d_12">
      <g>
       <use xlink:href="#m00f2638100" x="764.809916" y="288.430125" style="stroke: #000000; stroke-width: 0.8"/>
      </g>
     </g>
     <g id="text_8">
      <!-- 12h:30m -->
      <g transform="translate(742.361478 303.028562) scale(0.1 -0.1)">
       <use xlink:href="#DejaVuSans-31"/>
       <use xlink:href="#DejaVuSans-32" transform="translate(63.623047 0)"/>
       <use xlink:href="#DejaVuSans-68" transform="translate(127.246094 0)"/>
       <use xlink:href="#DejaVuSans-3a" transform="translate(190.625 0)"/>
       <use xlink:href="#DejaVuSans-33" transform="translate(224.316406 0)"/>
       <use xlink:href="#DejaVuSans-30" transform="translate(287.939453 0)"/>
       <use xlink:href="#DejaVuSans-6d" transform="translate(351.5625 0)"/>
      </g>
     </g>
    </g>
    <g id="text_9">
     <!-- Time (hour:minute) -->
     <g transform="translate(362.041094 316.706687) scale(0.1 -0.1)">
      <defs>
       <path id="DejaVuSans-54" d="M -19 4666 
L 3928 4666 
L 3928 4134 
L 2272 4134 
L 2272 0 
L 1638 0 
L 1638 4134 
L -19 4134 
L -19 4666 
z
" transform="scale(0.015625)"/>
       <path id="DejaVuSans-69" d="M 603 3500 
L 1178 3500 
L 1178 0 
L 603 0 
L 603 3500 
z
M 603 4863 
L 1178 4863 
L 1178 4134 
L 603 4134 
L 603 4863 
z
" transform="scale(0.015625)"/>
       <path id="DejaVuSans-65" d="M 3597 1894 
L 3597 1613 
L 953 1613 
Q 991 1019 1311 708 
Q 1631 397 2203 397 
Q 2534 397 2845 478 
Q 3156 559 3463 722 
L 3463 178 
Q 3153 47 2828 -22 
Q 2503 -91 2169 -91 
Q 1331 -91 842 396 
Q 353 884 353 1716 
Q 353 2575 817 3079 
Q 1281 3584 2069 3584 
Q 2775 3584 3186 3129 
Q 3597 2675 3597 1894 
z
M 3022 2063 
Q 3016 2534 2758 2815 
Q 2500 3097 2075 3097 
Q 1594 3097 1305 2825 
Q 1016 2553 972 2059 
L 3022 2063 
z
" transform="scale(0.015625)"/>
       <path id="DejaVuSans-20" transform="scale(0.015625)"/>
       <path id="DejaVuSans-28" d="M 1984 4856 
Q 1566 4138 1362 3434 
Q 1159 2731 1159 2009 
Q 1159 1288 1364 580 
Q 1569 -128 1984 -844 
L 1484 -844 
Q 1016 -109 783 600 
Q 550 1309 550 2009 
Q 550 2706 781 3412 
Q 1013 4119 1484 4856 
L 1984 4856 
z
" transform="scale(0.015625)"/>
       <path id="DejaVuSans-6f" d="M 1959 3097 
Q 1497 3097 1228 2736 
Q 959 2375 959 1747 
Q 959 1119 1226 758 
Q 1494 397 1959 397 
Q 2419 397 2687 759 
Q 2956 1122 2956 1747 
Q 2956 2369 2687 2733 
Q 2419 3097 1959 3097 
z
M 1959 3584 
Q 2709 3584 3137 3096 
Q 3566 2609 3566 1747 
Q 3566 888 3137 398 
Q 2709 -91 1959 -91 
Q 1206 -91 779 398 
Q 353 888 353 1747 
Q 353 2609 779 3096 
Q 1206 3584 1959 3584 
z
" transform="scale(0.015625)"/>
       <path id="DejaVuSans-75" d="M 544 1381 
L 544 3500 
L 1119 3500 
L 1119 1403 
Q 1119 906 1312 657 
Q 1506 409 1894 409 
Q 2359 409 2629 706 
Q 2900 1003 2900 1516 
L 2900 3500 
L 3475 3500 
L 3475 0 
L 2900 0 
L 2900 538 
Q 2691 219 2414 64 
Q 2138 -91 1772 -91 
Q 1169 -91 856 284 
Q 544 659 544 1381 
z
M 1991 3584 
L 1991 3584 
z
" transform="scale(0.015625)"/>
       <path id="DejaVuSans-72" d="M 2631 2963 
Q 2534 3019 2420 3045 
Q 2306 3072 2169 3072 
Q 1681 3072 1420 2755 
Q 1159 2438 1159 1844 
L 1159 0 
L 581 0 
L 581 3500 
L 1159 3500 
L 1159 2956 
Q 1341 3275 1631 3429 
Q 1922 3584 2338 3584 
Q 2397 3584 2469 3576 
Q 2541 3569 2628 3553 
L 2631 2963 
z
" transform="scale(0.015625)"/>
       <path id="DejaVuSans-6e" d="M 3513 2113 
L 3513 0 
L 2938 0 
L 2938 2094 
Q 2938 2591 2744 2837 
Q 2550 3084 2163 3084 
Q 1697 3084 1428 2787 
Q 1159 2491 1159 1978 
L 1159 0 
L 581 0 
L 581 3500 
L 1159 3500 
L 1159 2956 
Q 1366 3272 1645 3428 
Q 1925 3584 2291 3584 
Q 2894 3584 3203 3211 
Q 3513 2838 3513 2113 
z
" transform="scale(0.015625)"/>
       <path id="DejaVuSans-74" d="M 1172 4494 
L 1172 3500 
L 2356 3500 
L 2356 3053 
L 1172 3053 
L 1172 1153 
Q 1172 725 1289 603 
Q 1406 481 1766 481 
L 2356 481 
L 2356 0 
L 1766 0 
Q 1100 0 847 248 
Q 594 497 594 1153 
L 594 3053 
L 172 3053 
L 172 3500 
L 594 3500 
L 594 4494 
L 1172 4494 
z
" transform="scale(0.015625)"/>
       <path id="DejaVuSans-29" d="M 513 4856 
L 1013 4856 
Q 1481 4119 1714 3412 
Q 1947 2706 1947 2009 
Q 1947 1309 1714 600 
Q 1481 -109 1013 -844 
L 513 -844 
Q 928 -128 1133 580 
Q 1338 1288 1338 2009 
Q 1338 2731 1133 3434 
Q 928 4138 513 4856 
z
" transform="scale(0.015625)"/>
      </defs>
      <use xlink:href="#DejaVuSans-54"/>
      <use xlink:href="#DejaVuSans-69" transform="translate(57.958984 0)"/>
      <use xlink:href="#DejaVuSans-6d" transform="translate(85.742188 0)"/>
      <use xlink:href="#DejaVuSans-65" transform="translate(183.154297 0)"/>
      <use xlink:href="#DejaVuSans-20" transform="translate(244.677734 0)"/>
      <use xlink:href="#DejaVuSans-28" transform="translate(276.464844 0)"/>
      <use xlink:href="#DejaVuSans-68" transform="translate(315.478516 0)"/>
      <use xlink:href="#DejaVuSans-6f" transform="translate(378.857422 0)"/>
      <use xlink:href="#DejaVuSans-75" transform="translate(440.039062 0)"/>
      <use xlink:href="#DejaVuSans-72" transform="translate(503.417969 0)"/>
      <use xlink:href="#DejaVuSans-3a" transform="translate(542.78125 0)"/>
      <use xlink:href="#DejaVuSans-6d" transform="translate(576.472656 0)"/>
      <use xlink:href="#DejaVuSans-69" transform="translate(673.884766 0)"/>
      <use xlink:href="#DejaVuSans-6e" transform="translate(701.667969 0)"/>
      <use xlink:href="#DejaVuSans-75" transform="translate(765.046875 0)"/>
      <use xlink:href="#DejaVuSans-74" transform="translate(828.425781 0)"/>
      <use xlink:href="#DejaVuSans-65" transform="translate(867.634766 0)"/>
      <use xlink:href="#DejaVuSans-29" transform="translate(929.158203 0)"/>
     </g>
    </g>
   </g>
   <g id="matplotlib.axis_2">
    <g id="ytick_1">
     <g id="line2d_13">
      <defs>
       <path id="mb0ad191890" d="M 0 0 
L -3.5 0 
" style="stroke: #000000; stroke-width: 0.8"/>
      </defs>
      <g>
       <use xlink:href="#mb0ad191890" x="53.328125" y="257.960454" style="stroke: #000000; stroke-width: 0.8"/>
      </g>
     </g>
     <g id="text_10">
      <!-- 5780 -->
      <g transform="translate(20.878125 261.759673) scale(0.1 -0.1)">
       <defs>
        <path id="DejaVuSans-35" d="M 691 4666 
L 3169 4666 
L 3169 4134 
L 1269 4134 
L 1269 2991 
Q 1406 3038 1543 3061 
Q 1681 3084 1819 3084 
Q 2600 3084 3056 2656 
Q 3513 2228 3513 1497 
Q 3513 744 3044 326 
Q 2575 -91 1722 -91 
Q 1428 -91 1123 -41 
Q 819 9 494 109 
L 494 744 
Q 775 591 1075 516 
Q 1375 441 1709 441 
Q 2250 441 2565 725 
Q 2881 1009 2881 1497 
Q 2881 1984 2565 2268 
Q 2250 2553 1709 2553 
Q 1456 2553 1204 2497 
Q 953 2441 691 2322 
L 691 4666 
z
" transform="scale(0.015625)"/>
        <path id="DejaVuSans-38" d="M 2034 2216 
Q 1584 2216 1326 1975 
Q 1069 1734 1069 1313 
Q 1069 891 1326 650 
Q 1584 409 2034 409 
Q 2484 409 2743 651 
Q 3003 894 3003 1313 
Q 3003 1734 2745 1975 
Q 2488 2216 2034 2216 
z
M 1403 2484 
Q 997 2584 770 2862 
Q 544 3141 544 3541 
Q 544 4100 942 4425 
Q 1341 4750 2034 4750 
Q 2731 4750 3128 4425 
Q 3525 4100 3525 3541 
Q 3525 3141 3298 2862 
Q 3072 2584 2669 2484 
Q 3125 2378 3379 2068 
Q 3634 1759 3634 1313 
Q 3634 634 3220 271 
Q 2806 -91 2034 -91 
Q 1263 -91 848 271 
Q 434 634 434 1313 
Q 434 1759 690 2068 
Q 947 2378 1403 2484 
z
M 1172 3481 
Q 1172 3119 1398 2916 
Q 1625 2713 2034 2713 
Q 2441 2713 2670 2916 
Q 2900 3119 2900 3481 
Q 2900 3844 2670 4047 
Q 2441 4250 2034 4250 
Q 1625 4250 1398 4047 
Q 1172 3844 1172 3481 
z
" transform="scale(0.015625)"/>
       </defs>
       <use xlink:href="#DejaVuSans-35"/>
       <use xlink:href="#DejaVuSans-37" transform="translate(63.623047 0)"/>
       <use xlink:href="#DejaVuSans-38" transform="translate(127.246094 0)"/>
       <use xlink:href="#DejaVuSans-30" transform="translate(190.869141 0)"/>
      </g>
     </g>
    </g>
    <g id="ytick_2">
     <g id="line2d_14">
      <g>
       <use xlink:href="#mb0ad191890" x="53.328125" y="227.337669" style="stroke: #000000; stroke-width: 0.8"/>
      </g>
     </g>
     <g id="text_11">
      <!-- 5790 -->
      <g transform="translate(20.878125 231.136888) scale(0.1 -0.1)">
       <defs>
        <path id="DejaVuSans-39" d="M 703 97 
L 703 672 
Q 941 559 1184 500 
Q 1428 441 1663 441 
Q 2288 441 2617 861 
Q 2947 1281 2994 2138 
Q 2813 1869 2534 1725 
Q 2256 1581 1919 1581 
Q 1219 1581 811 2004 
Q 403 2428 403 3163 
Q 403 3881 828 4315 
Q 1253 4750 1959 4750 
Q 2769 4750 3195 4129 
Q 3622 3509 3622 2328 
Q 3622 1225 3098 567 
Q 2575 -91 1691 -91 
Q 1453 -91 1209 -44 
Q 966 3 703 97 
z
M 1959 2075 
Q 2384 2075 2632 2365 
Q 2881 2656 2881 3163 
Q 2881 3666 2632 3958 
Q 2384 4250 1959 4250 
Q 1534 4250 1286 3958 
Q 1038 3666 1038 3163 
Q 1038 2656 1286 2365 
Q 1534 2075 1959 2075 
z
" transform="scale(0.015625)"/>
       </defs>
       <use xlink:href="#DejaVuSans-35"/>
       <use xlink:href="#DejaVuSans-37" transform="translate(63.623047 0)"/>
       <use xlink:href="#DejaVuSans-39" transform="translate(127.246094 0)"/>
       <use xlink:href="#DejaVuSans-30" transform="translate(190.869141 0)"/>
      </g>
     </g>
    </g>
    <g id="ytick_3">
     <g id="line2d_15">
      <g>
       <use xlink:href="#mb0ad191890" x="53.328125" y="196.714884" style="stroke: #000000; stroke-width: 0.8"/>
      </g>
     </g>
     <g id="text_12">
      <!-- 5800 -->
      <g transform="translate(20.878125 200.514103) scale(0.1 -0.1)">
       <use xlink:href="#DejaVuSans-35"/>
       <use xlink:href="#DejaVuSans-38" transform="translate(63.623047 0)"/>
       <use xlink:href="#DejaVuSans-30" transform="translate(127.246094 0)"/>
       <use xlink:href="#DejaVuSans-30" transform="translate(190.869141 0)"/>
      </g>
     </g>
    </g>
    <g id="ytick_4">
     <g id="line2d_16">
      <g>
       <use xlink:href="#mb0ad191890" x="53.328125" y="166.0921" style="stroke: #000000; stroke-width: 0.8"/>
      </g>
     </g>
     <g id="text_13">
      <!-- 5810 -->
      <g transform="translate(20.878125 169.891318) scale(0.1 -0.1)">
       <use xlink:href="#DejaVuSans-35"/>
       <use xlink:href="#DejaVuSans-38" transform="translate(63.623047 0)"/>
       <use xlink:href="#DejaVuSans-31" transform="translate(127.246094 0)"/>
       <use xlink:href="#DejaVuSans-30" transform="translate(190.869141 0)"/>
      </g>
     </g>
    </g>
    <g id="ytick_5">
     <g id="line2d_17">
      <g>
       <use xlink:href="#mb0ad191890" x="53.328125" y="135.469315" style="stroke: #000000; stroke-width: 0.8"/>
      </g>
     </g>
     <g id="text_14">
      <!-- 5820 -->
      <g transform="translate(20.878125 139.268534) scale(0.1 -0.1)">
       <use xlink:href="#DejaVuSans-35"/>
       <use xlink:href="#DejaVuSans-38" transform="translate(63.623047 0)"/>
       <use xlink:href="#DejaVuSans-32" transform="translate(127.246094 0)"/>
       <use xlink:href="#DejaVuSans-30" transform="translate(190.869141 0)"/>
      </g>
     </g>
    </g>
    <g id="ytick_6">
     <g id="line2d_18">
      <g>
       <use xlink:href="#mb0ad191890" x="53.328125" y="104.84653" style="stroke: #000000; stroke-width: 0.8"/>
      </g>
     </g>
     <g id="text_15">
      <!-- 5830 -->
      <g transform="translate(20.878125 108.645749) scale(0.1 -0.1)">
       <use xlink:href="#DejaVuSans-35"/>
       <use xlink:href="#DejaVuSans-38" transform="translate(63.623047 0)"/>
       <use xlink:href="#DejaVuSans-33" transform="translate(127.246094 0)"/>
       <use xlink:href="#DejaVuSans-30" transform="translate(190.869141 0)"/>
      </g>
     </g>
    </g>
    <g id="ytick_7">
     <g id="line2d_19">
      <g>
       <use xlink:href="#mb0ad191890" x="53.328125" y="74.223745" style="stroke: #000000; stroke-width: 0.8"/>
      </g>
     </g>
     <g id="text_16">
      <!-- 5840 -->
      <g transform="translate(20.878125 78.022964) scale(0.1 -0.1)">
       <use xlink:href="#DejaVuSans-35"/>
       <use xlink:href="#DejaVuSans-38" transform="translate(63.623047 0)"/>
       <use xlink:href="#DejaVuSans-34" transform="translate(127.246094 0)"/>
       <use xlink:href="#DejaVuSans-30" transform="translate(190.869141 0)"/>
      </g>
     </g>
    </g>
    <g id="ytick_8">
     <g id="line2d_20">
      <g>
       <use xlink:href="#mb0ad191890" x="53.328125" y="43.60096" style="stroke: #000000; stroke-width: 0.8"/>
      </g>
     </g>
     <g id="text_17">
      <!-- 5850 -->
      <g transform="translate(20.878125 47.400179) scale(0.1 -0.1)">
       <use xlink:href="#DejaVuSans-35"/>
       <use xlink:href="#DejaVuSans-38" transform="translate(63.623047 0)"/>
       <use xlink:href="#DejaVuSans-35" transform="translate(127.246094 0)"/>
       <use xlink:href="#DejaVuSans-30" transform="translate(190.869141 0)"/>
      </g>
     </g>
    </g>
    <g id="text_18">
     <!-- Code branch coverage -->
     <g transform="translate(14.798438 211.949125) rotate(-90) scale(0.1 -0.1)">
      <defs>
       <path id="DejaVuSans-43" d="M 4122 4306 
L 4122 3641 
Q 3803 3938 3442 4084 
Q 3081 4231 2675 4231 
Q 1875 4231 1450 3742 
Q 1025 3253 1025 2328 
Q 1025 1406 1450 917 
Q 1875 428 2675 428 
Q 3081 428 3442 575 
Q 3803 722 4122 1019 
L 4122 359 
Q 3791 134 3420 21 
Q 3050 -91 2638 -91 
Q 1578 -91 968 557 
Q 359 1206 359 2328 
Q 359 3453 968 4101 
Q 1578 4750 2638 4750 
Q 3056 4750 3426 4639 
Q 3797 4528 4122 4306 
z
" transform="scale(0.015625)"/>
       <path id="DejaVuSans-64" d="M 2906 2969 
L 2906 4863 
L 3481 4863 
L 3481 0 
L 2906 0 
L 2906 525 
Q 2725 213 2448 61 
Q 2172 -91 1784 -91 
Q 1150 -91 751 415 
Q 353 922 353 1747 
Q 353 2572 751 3078 
Q 1150 3584 1784 3584 
Q 2172 3584 2448 3432 
Q 2725 3281 2906 2969 
z
M 947 1747 
Q 947 1113 1208 752 
Q 1469 391 1925 391 
Q 2381 391 2643 752 
Q 2906 1113 2906 1747 
Q 2906 2381 2643 2742 
Q 2381 3103 1925 3103 
Q 1469 3103 1208 2742 
Q 947 2381 947 1747 
z
" transform="scale(0.015625)"/>
       <path id="DejaVuSans-62" d="M 3116 1747 
Q 3116 2381 2855 2742 
Q 2594 3103 2138 3103 
Q 1681 3103 1420 2742 
Q 1159 2381 1159 1747 
Q 1159 1113 1420 752 
Q 1681 391 2138 391 
Q 2594 391 2855 752 
Q 3116 1113 3116 1747 
z
M 1159 2969 
Q 1341 3281 1617 3432 
Q 1894 3584 2278 3584 
Q 2916 3584 3314 3078 
Q 3713 2572 3713 1747 
Q 3713 922 3314 415 
Q 2916 -91 2278 -91 
Q 1894 -91 1617 61 
Q 1341 213 1159 525 
L 1159 0 
L 581 0 
L 581 4863 
L 1159 4863 
L 1159 2969 
z
" transform="scale(0.015625)"/>
       <path id="DejaVuSans-61" d="M 2194 1759 
Q 1497 1759 1228 1600 
Q 959 1441 959 1056 
Q 959 750 1161 570 
Q 1363 391 1709 391 
Q 2188 391 2477 730 
Q 2766 1069 2766 1631 
L 2766 1759 
L 2194 1759 
z
M 3341 1997 
L 3341 0 
L 2766 0 
L 2766 531 
Q 2569 213 2275 61 
Q 1981 -91 1556 -91 
Q 1019 -91 701 211 
Q 384 513 384 1019 
Q 384 1609 779 1909 
Q 1175 2209 1959 2209 
L 2766 2209 
L 2766 2266 
Q 2766 2663 2505 2880 
Q 2244 3097 1772 3097 
Q 1472 3097 1187 3025 
Q 903 2953 641 2809 
L 641 3341 
Q 956 3463 1253 3523 
Q 1550 3584 1831 3584 
Q 2591 3584 2966 3190 
Q 3341 2797 3341 1997 
z
" transform="scale(0.015625)"/>
       <path id="DejaVuSans-63" d="M 3122 3366 
L 3122 2828 
Q 2878 2963 2633 3030 
Q 2388 3097 2138 3097 
Q 1578 3097 1268 2742 
Q 959 2388 959 1747 
Q 959 1106 1268 751 
Q 1578 397 2138 397 
Q 2388 397 2633 464 
Q 2878 531 3122 666 
L 3122 134 
Q 2881 22 2623 -34 
Q 2366 -91 2075 -91 
Q 1284 -91 818 406 
Q 353 903 353 1747 
Q 353 2603 823 3093 
Q 1294 3584 2113 3584 
Q 2378 3584 2631 3529 
Q 2884 3475 3122 3366 
z
" transform="scale(0.015625)"/>
       <path id="DejaVuSans-76" d="M 191 3500 
L 800 3500 
L 1894 563 
L 2988 3500 
L 3597 3500 
L 2284 0 
L 1503 0 
L 191 3500 
z
" transform="scale(0.015625)"/>
       <path id="DejaVuSans-67" d="M 2906 1791 
Q 2906 2416 2648 2759 
Q 2391 3103 1925 3103 
Q 1463 3103 1205 2759 
Q 947 2416 947 1791 
Q 947 1169 1205 825 
Q 1463 481 1925 481 
Q 2391 481 2648 825 
Q 2906 1169 2906 1791 
z
M 3481 434 
Q 3481 -459 3084 -895 
Q 2688 -1331 1869 -1331 
Q 1566 -1331 1297 -1286 
Q 1028 -1241 775 -1147 
L 775 -588 
Q 1028 -725 1275 -790 
Q 1522 -856 1778 -856 
Q 2344 -856 2625 -561 
Q 2906 -266 2906 331 
L 2906 616 
Q 2728 306 2450 153 
Q 2172 0 1784 0 
Q 1141 0 747 490 
Q 353 981 353 1791 
Q 353 2603 747 3093 
Q 1141 3584 1784 3584 
Q 2172 3584 2450 3431 
Q 2728 3278 2906 2969 
L 2906 3500 
L 3481 3500 
L 3481 434 
z
" transform="scale(0.015625)"/>
      </defs>
      <use xlink:href="#DejaVuSans-43"/>
      <use xlink:href="#DejaVuSans-6f" transform="translate(69.824219 0)"/>
      <use xlink:href="#DejaVuSans-64" transform="translate(131.005859 0)"/>
      <use xlink:href="#DejaVuSans-65" transform="translate(194.482422 0)"/>
      <use xlink:href="#DejaVuSans-20" transform="translate(256.005859 0)"/>
      <use xlink:href="#DejaVuSans-62" transform="translate(287.792969 0)"/>
      <use xlink:href="#DejaVuSans-72" transform="translate(351.269531 0)"/>
      <use xlink:href="#DejaVuSans-61" transform="translate(392.382812 0)"/>
      <use xlink:href="#DejaVuSans-6e" transform="translate(453.662109 0)"/>
      <use xlink:href="#DejaVuSans-63" transform="translate(517.041016 0)"/>
      <use xlink:href="#DejaVuSans-68" transform="translate(572.021484 0)"/>
      <use xlink:href="#DejaVuSans-20" transform="translate(635.400391 0)"/>
      <use xlink:href="#DejaVuSans-63" transform="translate(667.1875 0)"/>
      <use xlink:href="#DejaVuSans-6f" transform="translate(722.167969 0)"/>
      <use xlink:href="#DejaVuSans-76" transform="translate(783.349609 0)"/>
      <use xlink:href="#DejaVuSans-65" transform="translate(842.529297 0)"/>
      <use xlink:href="#DejaVuSans-72" transform="translate(904.052734 0)"/>
      <use xlink:href="#DejaVuSans-61" transform="translate(945.166016 0)"/>
      <use xlink:href="#DejaVuSans-67" transform="translate(1006.445312 0)"/>
      <use xlink:href="#DejaVuSans-65" transform="translate(1069.921875 0)"/>
     </g>
    </g>
   </g>
   <g id="line2d_21">
    <path d="M 53.328125 276.334125 
L 543.5531 141.593872 
L 582.756005 117.095644 
L 605.688234 117.095644 
L 621.95891 117.095644 
L 634.579427 104.84653 
L 644.89114 101.784252 
L 653.609569 101.784252 
L 661.161815 101.784252 
L 667.823369 101.784252 
L 673.782332 101.784252 
L 679.17287 101.784252 
L 684.094045 101.784252 
L 688.621087 101.784252 
L 692.812474 101.784252 
L 696.714561 101.784252 
L 700.364721 101.784252 
L 703.793518 101.784252 
L 707.026274 92.597416 
L 710.084199 89.535138 
L 712.985237 89.535138 
L 715.744703 89.535138 
L 718.375775 89.535138 
L 720.88987 89.535138 
L 723.29695 89.535138 
L 725.605754 89.535138 
L 727.823992 89.535138 
L 729.958504 89.535138 
L 732.015379 89.535138 
L 734.000068 89.535138 
L 735.917467 89.535138 
L 737.771988 89.535138 
L 739.567626 89.535138 
L 741.308004 89.535138 
L 742.996423 89.535138 
L 744.635896 89.535138 
L 746.229179 89.535138 
L 747.778806 83.410581 
L 749.287105 83.410581 
L 750.756222 83.410581 
L 752.188142 83.410581 
L 753.584703 83.410581 
L 754.947608 83.410581 
L 756.278442 83.410581 
L 757.57868 83.410581 
L 758.849696 83.410581 
L 760.092775 83.410581 
L 761.30912 83.410581 
L 762.499855 83.410581 
L 763.666037 83.410581 
L 764.808659 83.410581 
" clip-path="url(#p49f895ba64)" style="fill: none; stroke: #d62728; stroke-width: 1.5; stroke-linecap: square"/>
    <defs>
     <path id="m573261d5a8" d="M 0 -3 
L -3 3 
L 3 3 
z
" style="stroke: #ffffff; stroke-width: 0.75; stroke-linejoin: miter"/>
    </defs>
    <g clip-path="url(#p49f895ba64)">
     <use xlink:href="#m573261d5a8" x="53.328125" y="276.334125" style="fill: #d62728; stroke: #ffffff; stroke-width: 0.75; stroke-linejoin: miter"/>
     <use xlink:href="#m573261d5a8" x="543.5531" y="141.593872" style="fill: #d62728; stroke: #ffffff; stroke-width: 0.75; stroke-linejoin: miter"/>
     <use xlink:href="#m573261d5a8" x="582.756005" y="117.095644" style="fill: #d62728; stroke: #ffffff; stroke-width: 0.75; stroke-linejoin: miter"/>
     <use xlink:href="#m573261d5a8" x="605.688234" y="117.095644" style="fill: #d62728; stroke: #ffffff; stroke-width: 0.75; stroke-linejoin: miter"/>
     <use xlink:href="#m573261d5a8" x="621.95891" y="117.095644" style="fill: #d62728; stroke: #ffffff; stroke-width: 0.75; stroke-linejoin: miter"/>
     <use xlink:href="#m573261d5a8" x="634.579427" y="104.84653" style="fill: #d62728; stroke: #ffffff; stroke-width: 0.75; stroke-linejoin: miter"/>
     <use xlink:href="#m573261d5a8" x="644.89114" y="101.784252" style="fill: #d62728; stroke: #ffffff; stroke-width: 0.75; stroke-linejoin: miter"/>
     <use xlink:href="#m573261d5a8" x="653.609569" y="101.784252" style="fill: #d62728; stroke: #ffffff; stroke-width: 0.75; stroke-linejoin: miter"/>
     <use xlink:href="#m573261d5a8" x="661.161815" y="101.784252" style="fill: #d62728; stroke: #ffffff; stroke-width: 0.75; stroke-linejoin: miter"/>
     <use xlink:href="#m573261d5a8" x="667.823369" y="101.784252" style="fill: #d62728; stroke: #ffffff; stroke-width: 0.75; stroke-linejoin: miter"/>
     <use xlink:href="#m573261d5a8" x="673.782332" y="101.784252" style="fill: #d62728; stroke: #ffffff; stroke-width: 0.75; stroke-linejoin: miter"/>
     <use xlink:href="#m573261d5a8" x="679.17287" y="101.784252" style="fill: #d62728; stroke: #ffffff; stroke-width: 0.75; stroke-linejoin: miter"/>
     <use xlink:href="#m573261d5a8" x="684.094045" y="101.784252" style="fill: #d62728; stroke: #ffffff; stroke-width: 0.75; stroke-linejoin: miter"/>
     <use xlink:href="#m573261d5a8" x="688.621087" y="101.784252" style="fill: #d62728; stroke: #ffffff; stroke-width: 0.75; stroke-linejoin: miter"/>
     <use xlink:href="#m573261d5a8" x="692.812474" y="101.784252" style="fill: #d62728; stroke: #ffffff; stroke-width: 0.75; stroke-linejoin: miter"/>
     <use xlink:href="#m573261d5a8" x="696.714561" y="101.784252" style="fill: #d62728; stroke: #ffffff; stroke-width: 0.75; stroke-linejoin: miter"/>
     <use xlink:href="#m573261d5a8" x="700.364721" y="101.784252" style="fill: #d62728; stroke: #ffffff; stroke-width: 0.75; stroke-linejoin: miter"/>
     <use xlink:href="#m573261d5a8" x="703.793518" y="101.784252" style="fill: #d62728; stroke: #ffffff; stroke-width: 0.75; stroke-linejoin: miter"/>
     <use xlink:href="#m573261d5a8" x="707.026274" y="92.597416" style="fill: #d62728; stroke: #ffffff; stroke-width: 0.75; stroke-linejoin: miter"/>
     <use xlink:href="#m573261d5a8" x="710.084199" y="89.535138" style="fill: #d62728; stroke: #ffffff; stroke-width: 0.75; stroke-linejoin: miter"/>
     <use xlink:href="#m573261d5a8" x="712.985237" y="89.535138" style="fill: #d62728; stroke: #ffffff; stroke-width: 0.75; stroke-linejoin: miter"/>
     <use xlink:href="#m573261d5a8" x="715.744703" y="89.535138" style="fill: #d62728; stroke: #ffffff; stroke-width: 0.75; stroke-linejoin: miter"/>
     <use xlink:href="#m573261d5a8" x="718.375775" y="89.535138" style="fill: #d62728; stroke: #ffffff; stroke-width: 0.75; stroke-linejoin: miter"/>
     <use xlink:href="#m573261d5a8" x="720.88987" y="89.535138" style="fill: #d62728; stroke: #ffffff; stroke-width: 0.75; stroke-linejoin: miter"/>
     <use xlink:href="#m573261d5a8" x="723.29695" y="89.535138" style="fill: #d62728; stroke: #ffffff; stroke-width: 0.75; stroke-linejoin: miter"/>
     <use xlink:href="#m573261d5a8" x="725.605754" y="89.535138" style="fill: #d62728; stroke: #ffffff; stroke-width: 0.75; stroke-linejoin: miter"/>
     <use xlink:href="#m573261d5a8" x="727.823992" y="89.535138" style="fill: #d62728; stroke: #ffffff; stroke-width: 0.75; stroke-linejoin: miter"/>
     <use xlink:href="#m573261d5a8" x="729.958504" y="89.535138" style="fill: #d62728; stroke: #ffffff; stroke-width: 0.75; stroke-linejoin: miter"/>
     <use xlink:href="#m573261d5a8" x="732.015379" y="89.535138" style="fill: #d62728; stroke: #ffffff; stroke-width: 0.75; stroke-linejoin: miter"/>
     <use xlink:href="#m573261d5a8" x="734.000068" y="89.535138" style="fill: #d62728; stroke: #ffffff; stroke-width: 0.75; stroke-linejoin: miter"/>
     <use xlink:href="#m573261d5a8" x="735.917467" y="89.535138" style="fill: #d62728; stroke: #ffffff; stroke-width: 0.75; stroke-linejoin: miter"/>
     <use xlink:href="#m573261d5a8" x="737.771988" y="89.535138" style="fill: #d62728; stroke: #ffffff; stroke-width: 0.75; stroke-linejoin: miter"/>
     <use xlink:href="#m573261d5a8" x="739.567626" y="89.535138" style="fill: #d62728; stroke: #ffffff; stroke-width: 0.75; stroke-linejoin: miter"/>
     <use xlink:href="#m573261d5a8" x="741.308004" y="89.535138" style="fill: #d62728; stroke: #ffffff; stroke-width: 0.75; stroke-linejoin: miter"/>
     <use xlink:href="#m573261d5a8" x="742.996423" y="89.535138" style="fill: #d62728; stroke: #ffffff; stroke-width: 0.75; stroke-linejoin: miter"/>
     <use xlink:href="#m573261d5a8" x="744.635896" y="89.535138" style="fill: #d62728; stroke: #ffffff; stroke-width: 0.75; stroke-linejoin: miter"/>
     <use xlink:href="#m573261d5a8" x="746.229179" y="89.535138" style="fill: #d62728; stroke: #ffffff; stroke-width: 0.75; stroke-linejoin: miter"/>
     <use xlink:href="#m573261d5a8" x="747.778806" y="83.410581" style="fill: #d62728; stroke: #ffffff; stroke-width: 0.75; stroke-linejoin: miter"/>
     <use xlink:href="#m573261d5a8" x="749.287105" y="83.410581" style="fill: #d62728; stroke: #ffffff; stroke-width: 0.75; stroke-linejoin: miter"/>
     <use xlink:href="#m573261d5a8" x="750.756222" y="83.410581" style="fill: #d62728; stroke: #ffffff; stroke-width: 0.75; stroke-linejoin: miter"/>
     <use xlink:href="#m573261d5a8" x="752.188142" y="83.410581" style="fill: #d62728; stroke: #ffffff; stroke-width: 0.75; stroke-linejoin: miter"/>
     <use xlink:href="#m573261d5a8" x="753.584703" y="83.410581" style="fill: #d62728; stroke: #ffffff; stroke-width: 0.75; stroke-linejoin: miter"/>
     <use xlink:href="#m573261d5a8" x="754.947608" y="83.410581" style="fill: #d62728; stroke: #ffffff; stroke-width: 0.75; stroke-linejoin: miter"/>
     <use xlink:href="#m573261d5a8" x="756.278442" y="83.410581" style="fill: #d62728; stroke: #ffffff; stroke-width: 0.75; stroke-linejoin: miter"/>
     <use xlink:href="#m573261d5a8" x="757.57868" y="83.410581" style="fill: #d62728; stroke: #ffffff; stroke-width: 0.75; stroke-linejoin: miter"/>
     <use xlink:href="#m573261d5a8" x="758.849696" y="83.410581" style="fill: #d62728; stroke: #ffffff; stroke-width: 0.75; stroke-linejoin: miter"/>
     <use xlink:href="#m573261d5a8" x="760.092775" y="83.410581" style="fill: #d62728; stroke: #ffffff; stroke-width: 0.75; stroke-linejoin: miter"/>
     <use xlink:href="#m573261d5a8" x="761.30912" y="83.410581" style="fill: #d62728; stroke: #ffffff; stroke-width: 0.75; stroke-linejoin: miter"/>
     <use xlink:href="#m573261d5a8" x="762.499855" y="83.410581" style="fill: #d62728; stroke: #ffffff; stroke-width: 0.75; stroke-linejoin: miter"/>
     <use xlink:href="#m573261d5a8" x="763.666037" y="83.410581" style="fill: #d62728; stroke: #ffffff; stroke-width: 0.75; stroke-linejoin: miter"/>
     <use xlink:href="#m573261d5a8" x="764.808659" y="83.410581" style="fill: #d62728; stroke: #ffffff; stroke-width: 0.75; stroke-linejoin: miter"/>
    </g>
   </g>
   <g id="line2d_22">
    <path d="M 53.328125 276.334125 
L 543.5531 159.967543 
L 582.756005 137.000454 
L 605.688234 123.220201 
L 621.95891 123.220201 
L 634.579427 123.220201 
L 644.89114 123.220201 
L 653.609569 118.626783 
L 661.161815 118.626783 
L 667.823369 112.502226 
L 673.782332 106.377669 
L 679.17287 106.377669 
L 684.094045 106.377669 
L 688.621087 106.377669 
L 692.812474 103.315391 
L 696.714561 101.784252 
L 700.364721 98.721973 
L 703.793518 95.659695 
L 707.026274 95.659695 
L 710.084199 95.659695 
L 712.985237 95.659695 
L 715.744703 95.659695 
L 718.375775 94.128555 
L 720.88987 94.128555 
L 723.29695 94.128555 
L 725.605754 94.128555 
L 727.823992 94.128555 
L 729.958504 91.066277 
L 732.015379 91.066277 
L 734.000068 91.066277 
L 735.917467 91.066277 
L 737.771988 91.066277 
L 739.567626 89.535138 
L 741.308004 89.535138 
L 742.996423 89.535138 
L 744.635896 89.535138 
L 746.229179 89.535138 
L 747.778806 89.535138 
L 749.287105 89.535138 
L 750.756222 89.535138 
L 752.188142 89.535138 
L 753.584703 88.003998 
L 754.947608 88.003998 
L 756.278442 88.003998 
L 757.57868 88.003998 
L 758.849696 88.003998 
L 760.092775 88.003998 
L 761.30912 88.003998 
L 762.499855 88.003998 
L 763.666037 88.003998 
L 764.808659 88.003998 
" clip-path="url(#p49f895ba64)" style="fill: none; stroke: #98df8a; stroke-width: 1.5; stroke-linecap: square"/>
    <defs>
     <path id="m5e54caa064" d="M -0 3 
L 3 -3 
L -3 -3 
z
" style="stroke: #ffffff; stroke-width: 0.75; stroke-linejoin: miter"/>
    </defs>
    <g clip-path="url(#p49f895ba64)">
     <use xlink:href="#m5e54caa064" x="53.328125" y="276.334125" style="fill: #98df8a; stroke: #ffffff; stroke-width: 0.75; stroke-linejoin: miter"/>
     <use xlink:href="#m5e54caa064" x="543.5531" y="159.967543" style="fill: #98df8a; stroke: #ffffff; stroke-width: 0.75; stroke-linejoin: miter"/>
     <use xlink:href="#m5e54caa064" x="582.756005" y="137.000454" style="fill: #98df8a; stroke: #ffffff; stroke-width: 0.75; stroke-linejoin: miter"/>
     <use xlink:href="#m5e54caa064" x="605.688234" y="123.220201" style="fill: #98df8a; stroke: #ffffff; stroke-width: 0.75; stroke-linejoin: miter"/>
     <use xlink:href="#m5e54caa064" x="621.95891" y="123.220201" style="fill: #98df8a; stroke: #ffffff; stroke-width: 0.75; stroke-linejoin: miter"/>
     <use xlink:href="#m5e54caa064" x="634.579427" y="123.220201" style="fill: #98df8a; stroke: #ffffff; stroke-width: 0.75; stroke-linejoin: miter"/>
     <use xlink:href="#m5e54caa064" x="644.89114" y="123.220201" style="fill: #98df8a; stroke: #ffffff; stroke-width: 0.75; stroke-linejoin: miter"/>
     <use xlink:href="#m5e54caa064" x="653.609569" y="118.626783" style="fill: #98df8a; stroke: #ffffff; stroke-width: 0.75; stroke-linejoin: miter"/>
     <use xlink:href="#m5e54caa064" x="661.161815" y="118.626783" style="fill: #98df8a; stroke: #ffffff; stroke-width: 0.75; stroke-linejoin: miter"/>
     <use xlink:href="#m5e54caa064" x="667.823369" y="112.502226" style="fill: #98df8a; stroke: #ffffff; stroke-width: 0.75; stroke-linejoin: miter"/>
     <use xlink:href="#m5e54caa064" x="673.782332" y="106.377669" style="fill: #98df8a; stroke: #ffffff; stroke-width: 0.75; stroke-linejoin: miter"/>
     <use xlink:href="#m5e54caa064" x="679.17287" y="106.377669" style="fill: #98df8a; stroke: #ffffff; stroke-width: 0.75; stroke-linejoin: miter"/>
     <use xlink:href="#m5e54caa064" x="684.094045" y="106.377669" style="fill: #98df8a; stroke: #ffffff; stroke-width: 0.75; stroke-linejoin: miter"/>
     <use xlink:href="#m5e54caa064" x="688.621087" y="106.377669" style="fill: #98df8a; stroke: #ffffff; stroke-width: 0.75; stroke-linejoin: miter"/>
     <use xlink:href="#m5e54caa064" x="692.812474" y="103.315391" style="fill: #98df8a; stroke: #ffffff; stroke-width: 0.75; stroke-linejoin: miter"/>
     <use xlink:href="#m5e54caa064" x="696.714561" y="101.784252" style="fill: #98df8a; stroke: #ffffff; stroke-width: 0.75; stroke-linejoin: miter"/>
     <use xlink:href="#m5e54caa064" x="700.364721" y="98.721973" style="fill: #98df8a; stroke: #ffffff; stroke-width: 0.75; stroke-linejoin: miter"/>
     <use xlink:href="#m5e54caa064" x="703.793518" y="95.659695" style="fill: #98df8a; stroke: #ffffff; stroke-width: 0.75; stroke-linejoin: miter"/>
     <use xlink:href="#m5e54caa064" x="707.026274" y="95.659695" style="fill: #98df8a; stroke: #ffffff; stroke-width: 0.75; stroke-linejoin: miter"/>
     <use xlink:href="#m5e54caa064" x="710.084199" y="95.659695" style="fill: #98df8a; stroke: #ffffff; stroke-width: 0.75; stroke-linejoin: miter"/>
     <use xlink:href="#m5e54caa064" x="712.985237" y="95.659695" style="fill: #98df8a; stroke: #ffffff; stroke-width: 0.75; stroke-linejoin: miter"/>
     <use xlink:href="#m5e54caa064" x="715.744703" y="95.659695" style="fill: #98df8a; stroke: #ffffff; stroke-width: 0.75; stroke-linejoin: miter"/>
     <use xlink:href="#m5e54caa064" x="718.375775" y="94.128555" style="fill: #98df8a; stroke: #ffffff; stroke-width: 0.75; stroke-linejoin: miter"/>
     <use xlink:href="#m5e54caa064" x="720.88987" y="94.128555" style="fill: #98df8a; stroke: #ffffff; stroke-width: 0.75; stroke-linejoin: miter"/>
     <use xlink:href="#m5e54caa064" x="723.29695" y="94.128555" style="fill: #98df8a; stroke: #ffffff; stroke-width: 0.75; stroke-linejoin: miter"/>
     <use xlink:href="#m5e54caa064" x="725.605754" y="94.128555" style="fill: #98df8a; stroke: #ffffff; stroke-width: 0.75; stroke-linejoin: miter"/>
     <use xlink:href="#m5e54caa064" x="727.823992" y="94.128555" style="fill: #98df8a; stroke: #ffffff; stroke-width: 0.75; stroke-linejoin: miter"/>
     <use xlink:href="#m5e54caa064" x="729.958504" y="91.066277" style="fill: #98df8a; stroke: #ffffff; stroke-width: 0.75; stroke-linejoin: miter"/>
     <use xlink:href="#m5e54caa064" x="732.015379" y="91.066277" style="fill: #98df8a; stroke: #ffffff; stroke-width: 0.75; stroke-linejoin: miter"/>
     <use xlink:href="#m5e54caa064" x="734.000068" y="91.066277" style="fill: #98df8a; stroke: #ffffff; stroke-width: 0.75; stroke-linejoin: miter"/>
     <use xlink:href="#m5e54caa064" x="735.917467" y="91.066277" style="fill: #98df8a; stroke: #ffffff; stroke-width: 0.75; stroke-linejoin: miter"/>
     <use xlink:href="#m5e54caa064" x="737.771988" y="91.066277" style="fill: #98df8a; stroke: #ffffff; stroke-width: 0.75; stroke-linejoin: miter"/>
     <use xlink:href="#m5e54caa064" x="739.567626" y="89.535138" style="fill: #98df8a; stroke: #ffffff; stroke-width: 0.75; stroke-linejoin: miter"/>
     <use xlink:href="#m5e54caa064" x="741.308004" y="89.535138" style="fill: #98df8a; stroke: #ffffff; stroke-width: 0.75; stroke-linejoin: miter"/>
     <use xlink:href="#m5e54caa064" x="742.996423" y="89.535138" style="fill: #98df8a; stroke: #ffffff; stroke-width: 0.75; stroke-linejoin: miter"/>
     <use xlink:href="#m5e54caa064" x="744.635896" y="89.535138" style="fill: #98df8a; stroke: #ffffff; stroke-width: 0.75; stroke-linejoin: miter"/>
     <use xlink:href="#m5e54caa064" x="746.229179" y="89.535138" style="fill: #98df8a; stroke: #ffffff; stroke-width: 0.75; stroke-linejoin: miter"/>
     <use xlink:href="#m5e54caa064" x="747.778806" y="89.535138" style="fill: #98df8a; stroke: #ffffff; stroke-width: 0.75; stroke-linejoin: miter"/>
     <use xlink:href="#m5e54caa064" x="749.287105" y="89.535138" style="fill: #98df8a; stroke: #ffffff; stroke-width: 0.75; stroke-linejoin: miter"/>
     <use xlink:href="#m5e54caa064" x="750.756222" y="89.535138" style="fill: #98df8a; stroke: #ffffff; stroke-width: 0.75; stroke-linejoin: miter"/>
     <use xlink:href="#m5e54caa064" x="752.188142" y="89.535138" style="fill: #98df8a; stroke: #ffffff; stroke-width: 0.75; stroke-linejoin: miter"/>
     <use xlink:href="#m5e54caa064" x="753.584703" y="88.003998" style="fill: #98df8a; stroke: #ffffff; stroke-width: 0.75; stroke-linejoin: miter"/>
     <use xlink:href="#m5e54caa064" x="754.947608" y="88.003998" style="fill: #98df8a; stroke: #ffffff; stroke-width: 0.75; stroke-linejoin: miter"/>
     <use xlink:href="#m5e54caa064" x="756.278442" y="88.003998" style="fill: #98df8a; stroke: #ffffff; stroke-width: 0.75; stroke-linejoin: miter"/>
     <use xlink:href="#m5e54caa064" x="757.57868" y="88.003998" style="fill: #98df8a; stroke: #ffffff; stroke-width: 0.75; stroke-linejoin: miter"/>
     <use xlink:href="#m5e54caa064" x="758.849696" y="88.003998" style="fill: #98df8a; stroke: #ffffff; stroke-width: 0.75; stroke-linejoin: miter"/>
     <use xlink:href="#m5e54caa064" x="760.092775" y="88.003998" style="fill: #98df8a; stroke: #ffffff; stroke-width: 0.75; stroke-linejoin: miter"/>
     <use xlink:href="#m5e54caa064" x="761.30912" y="88.003998" style="fill: #98df8a; stroke: #ffffff; stroke-width: 0.75; stroke-linejoin: miter"/>
     <use xlink:href="#m5e54caa064" x="762.499855" y="88.003998" style="fill: #98df8a; stroke: #ffffff; stroke-width: 0.75; stroke-linejoin: miter"/>
     <use xlink:href="#m5e54caa064" x="763.666037" y="88.003998" style="fill: #98df8a; stroke: #ffffff; stroke-width: 0.75; stroke-linejoin: miter"/>
     <use xlink:href="#m5e54caa064" x="764.808659" y="88.003998" style="fill: #98df8a; stroke: #ffffff; stroke-width: 0.75; stroke-linejoin: miter"/>
    </g>
   </g>
   <g id="line2d_23">
    <path d="M 53.328125 276.334125 
L 543.5531 169.154378 
L 582.756005 152.311847 
L 605.688234 152.311847 
L 621.95891 147.718429 
L 634.579427 147.718429 
L 644.89114 147.718429 
L 653.609569 110.971087 
L 661.161815 110.971087 
L 667.823369 110.971087 
L 673.782332 109.439948 
L 679.17287 109.439948 
L 684.094045 106.377669 
L 688.621087 103.315391 
L 692.812474 92.597416 
L 696.714561 92.597416 
L 700.364721 92.597416 
L 703.793518 92.597416 
L 707.026274 92.597416 
L 710.084199 89.535138 
L 712.985237 89.535138 
L 715.744703 89.535138 
L 718.375775 89.535138 
L 720.88987 89.535138 
L 723.29695 88.003998 
L 725.605754 88.003998 
L 727.823992 88.003998 
L 729.958504 88.003998 
L 732.015379 88.003998 
L 734.000068 88.003998 
L 735.917467 88.003998 
L 737.771988 88.003998 
L 739.567626 88.003998 
L 741.308004 88.003998 
L 742.996423 88.003998 
L 744.635896 88.003998 
L 746.229179 88.003998 
L 747.778806 88.003998 
L 749.287105 88.003998 
L 750.756222 88.003998 
L 752.188142 88.003998 
L 753.584703 88.003998 
L 754.947608 88.003998 
L 756.278442 88.003998 
L 757.57868 88.003998 
L 758.849696 88.003998 
L 760.092775 88.003998 
L 761.30912 88.003998 
L 762.499855 88.003998 
L 763.666037 88.003998 
L 764.808659 88.003998 
" clip-path="url(#p49f895ba64)" style="fill: none; stroke: #1f77b4; stroke-width: 1.5; stroke-linecap: square"/>
    <defs>
     <path id="me3d0e35360" d="M 0 3 
C 0.795609 3 1.55874 2.683901 2.12132 2.12132 
C 2.683901 1.55874 3 0.795609 3 0 
C 3 -0.795609 2.683901 -1.55874 2.12132 -2.12132 
C 1.55874 -2.683901 0.795609 -3 0 -3 
C -0.795609 -3 -1.55874 -2.683901 -2.12132 -2.12132 
C -2.683901 -1.55874 -3 -0.795609 -3 0 
C -3 0.795609 -2.683901 1.55874 -2.12132 2.12132 
C -1.55874 2.683901 -0.795609 3 0 3 
z
" style="stroke: #ffffff; stroke-width: 0.75"/>
    </defs>
    <g clip-path="url(#p49f895ba64)">
     <use xlink:href="#me3d0e35360" x="53.328125" y="276.334125" style="fill: #1f77b4; stroke: #ffffff; stroke-width: 0.75"/>
     <use xlink:href="#me3d0e35360" x="543.5531" y="169.154378" style="fill: #1f77b4; stroke: #ffffff; stroke-width: 0.75"/>
     <use xlink:href="#me3d0e35360" x="582.756005" y="152.311847" style="fill: #1f77b4; stroke: #ffffff; stroke-width: 0.75"/>
     <use xlink:href="#me3d0e35360" x="605.688234" y="152.311847" style="fill: #1f77b4; stroke: #ffffff; stroke-width: 0.75"/>
     <use xlink:href="#me3d0e35360" x="621.95891" y="147.718429" style="fill: #1f77b4; stroke: #ffffff; stroke-width: 0.75"/>
     <use xlink:href="#me3d0e35360" x="634.579427" y="147.718429" style="fill: #1f77b4; stroke: #ffffff; stroke-width: 0.75"/>
     <use xlink:href="#me3d0e35360" x="644.89114" y="147.718429" style="fill: #1f77b4; stroke: #ffffff; stroke-width: 0.75"/>
     <use xlink:href="#me3d0e35360" x="653.609569" y="110.971087" style="fill: #1f77b4; stroke: #ffffff; stroke-width: 0.75"/>
     <use xlink:href="#me3d0e35360" x="661.161815" y="110.971087" style="fill: #1f77b4; stroke: #ffffff; stroke-width: 0.75"/>
     <use xlink:href="#me3d0e35360" x="667.823369" y="110.971087" style="fill: #1f77b4; stroke: #ffffff; stroke-width: 0.75"/>
     <use xlink:href="#me3d0e35360" x="673.782332" y="109.439948" style="fill: #1f77b4; stroke: #ffffff; stroke-width: 0.75"/>
     <use xlink:href="#me3d0e35360" x="679.17287" y="109.439948" style="fill: #1f77b4; stroke: #ffffff; stroke-width: 0.75"/>
     <use xlink:href="#me3d0e35360" x="684.094045" y="106.377669" style="fill: #1f77b4; stroke: #ffffff; stroke-width: 0.75"/>
     <use xlink:href="#me3d0e35360" x="688.621087" y="103.315391" style="fill: #1f77b4; stroke: #ffffff; stroke-width: 0.75"/>
     <use xlink:href="#me3d0e35360" x="692.812474" y="92.597416" style="fill: #1f77b4; stroke: #ffffff; stroke-width: 0.75"/>
     <use xlink:href="#me3d0e35360" x="696.714561" y="92.597416" style="fill: #1f77b4; stroke: #ffffff; stroke-width: 0.75"/>
     <use xlink:href="#me3d0e35360" x="700.364721" y="92.597416" style="fill: #1f77b4; stroke: #ffffff; stroke-width: 0.75"/>
     <use xlink:href="#me3d0e35360" x="703.793518" y="92.597416" style="fill: #1f77b4; stroke: #ffffff; stroke-width: 0.75"/>
     <use xlink:href="#me3d0e35360" x="707.026274" y="92.597416" style="fill: #1f77b4; stroke: #ffffff; stroke-width: 0.75"/>
     <use xlink:href="#me3d0e35360" x="710.084199" y="89.535138" style="fill: #1f77b4; stroke: #ffffff; stroke-width: 0.75"/>
     <use xlink:href="#me3d0e35360" x="712.985237" y="89.535138" style="fill: #1f77b4; stroke: #ffffff; stroke-width: 0.75"/>
     <use xlink:href="#me3d0e35360" x="715.744703" y="89.535138" style="fill: #1f77b4; stroke: #ffffff; stroke-width: 0.75"/>
     <use xlink:href="#me3d0e35360" x="718.375775" y="89.535138" style="fill: #1f77b4; stroke: #ffffff; stroke-width: 0.75"/>
     <use xlink:href="#me3d0e35360" x="720.88987" y="89.535138" style="fill: #1f77b4; stroke: #ffffff; stroke-width: 0.75"/>
     <use xlink:href="#me3d0e35360" x="723.29695" y="88.003998" style="fill: #1f77b4; stroke: #ffffff; stroke-width: 0.75"/>
     <use xlink:href="#me3d0e35360" x="725.605754" y="88.003998" style="fill: #1f77b4; stroke: #ffffff; stroke-width: 0.75"/>
     <use xlink:href="#me3d0e35360" x="727.823992" y="88.003998" style="fill: #1f77b4; stroke: #ffffff; stroke-width: 0.75"/>
     <use xlink:href="#me3d0e35360" x="729.958504" y="88.003998" style="fill: #1f77b4; stroke: #ffffff; stroke-width: 0.75"/>
     <use xlink:href="#me3d0e35360" x="732.015379" y="88.003998" style="fill: #1f77b4; stroke: #ffffff; stroke-width: 0.75"/>
     <use xlink:href="#me3d0e35360" x="734.000068" y="88.003998" style="fill: #1f77b4; stroke: #ffffff; stroke-width: 0.75"/>
     <use xlink:href="#me3d0e35360" x="735.917467" y="88.003998" style="fill: #1f77b4; stroke: #ffffff; stroke-width: 0.75"/>
     <use xlink:href="#me3d0e35360" x="737.771988" y="88.003998" style="fill: #1f77b4; stroke: #ffffff; stroke-width: 0.75"/>
     <use xlink:href="#me3d0e35360" x="739.567626" y="88.003998" style="fill: #1f77b4; stroke: #ffffff; stroke-width: 0.75"/>
     <use xlink:href="#me3d0e35360" x="741.308004" y="88.003998" style="fill: #1f77b4; stroke: #ffffff; stroke-width: 0.75"/>
     <use xlink:href="#me3d0e35360" x="742.996423" y="88.003998" style="fill: #1f77b4; stroke: #ffffff; stroke-width: 0.75"/>
     <use xlink:href="#me3d0e35360" x="744.635896" y="88.003998" style="fill: #1f77b4; stroke: #ffffff; stroke-width: 0.75"/>
     <use xlink:href="#me3d0e35360" x="746.229179" y="88.003998" style="fill: #1f77b4; stroke: #ffffff; stroke-width: 0.75"/>
     <use xlink:href="#me3d0e35360" x="747.778806" y="88.003998" style="fill: #1f77b4; stroke: #ffffff; stroke-width: 0.75"/>
     <use xlink:href="#me3d0e35360" x="749.287105" y="88.003998" style="fill: #1f77b4; stroke: #ffffff; stroke-width: 0.75"/>
     <use xlink:href="#me3d0e35360" x="750.756222" y="88.003998" style="fill: #1f77b4; stroke: #ffffff; stroke-width: 0.75"/>
     <use xlink:href="#me3d0e35360" x="752.188142" y="88.003998" style="fill: #1f77b4; stroke: #ffffff; stroke-width: 0.75"/>
     <use xlink:href="#me3d0e35360" x="753.584703" y="88.003998" style="fill: #1f77b4; stroke: #ffffff; stroke-width: 0.75"/>
     <use xlink:href="#me3d0e35360" x="754.947608" y="88.003998" style="fill: #1f77b4; stroke: #ffffff; stroke-width: 0.75"/>
     <use xlink:href="#me3d0e35360" x="756.278442" y="88.003998" style="fill: #1f77b4; stroke: #ffffff; stroke-width: 0.75"/>
     <use xlink:href="#me3d0e35360" x="757.57868" y="88.003998" style="fill: #1f77b4; stroke: #ffffff; stroke-width: 0.75"/>
     <use xlink:href="#me3d0e35360" x="758.849696" y="88.003998" style="fill: #1f77b4; stroke: #ffffff; stroke-width: 0.75"/>
     <use xlink:href="#me3d0e35360" x="760.092775" y="88.003998" style="fill: #1f77b4; stroke: #ffffff; stroke-width: 0.75"/>
     <use xlink:href="#me3d0e35360" x="761.30912" y="88.003998" style="fill: #1f77b4; stroke: #ffffff; stroke-width: 0.75"/>
     <use xlink:href="#me3d0e35360" x="762.499855" y="88.003998" style="fill: #1f77b4; stroke: #ffffff; stroke-width: 0.75"/>
     <use xlink:href="#me3d0e35360" x="763.666037" y="88.003998" style="fill: #1f77b4; stroke: #ffffff; stroke-width: 0.75"/>
     <use xlink:href="#me3d0e35360" x="764.808659" y="88.003998" style="fill: #1f77b4; stroke: #ffffff; stroke-width: 0.75"/>
    </g>
   </g>
   <g id="line2d_24">
    <path d="M 53.328125 276.334125 
L 543.5531 170.685517 
L 582.756005 138.531593 
L 605.688234 138.531593 
L 621.95891 138.531593 
L 634.579427 138.531593 
L 644.89114 120.157922 
L 653.609569 117.095644 
L 661.161815 104.84653 
L 667.823369 104.84653 
L 673.782332 104.84653 
L 679.17287 98.721973 
L 684.094045 98.721973 
L 688.621087 98.721973 
L 692.812474 98.721973 
L 696.714561 98.721973 
L 700.364721 98.721973 
L 703.793518 98.721973 
L 707.026274 98.721973 
L 710.084199 98.721973 
L 712.985237 98.721973 
L 715.744703 98.721973 
L 718.375775 98.721973 
L 720.88987 98.721973 
L 723.29695 98.721973 
L 725.605754 98.721973 
L 727.823992 98.721973 
L 729.958504 98.721973 
L 732.015379 98.721973 
L 734.000068 98.721973 
L 735.917467 98.721973 
L 737.771988 98.721973 
L 739.567626 98.721973 
L 741.308004 95.659695 
L 742.996423 95.659695 
L 744.635896 95.659695 
L 746.229179 95.659695 
L 747.778806 95.659695 
L 749.287105 95.659695 
L 750.756222 95.659695 
L 752.188142 95.659695 
L 753.584703 95.659695 
L 754.947608 95.659695 
L 756.278442 95.659695 
L 757.57868 95.659695 
L 758.849696 95.659695 
L 760.092775 95.659695 
L 761.30912 95.659695 
L 762.499855 95.659695 
L 763.666037 95.659695 
L 764.808659 95.659695 
" clip-path="url(#p49f895ba64)" style="fill: none; stroke: #c7c7c7; stroke-width: 1.5; stroke-linecap: square"/>
    <defs>
     <path id="mc971b134bf" d="M -3 -0 
L 3 3 
L 3 -3 
z
" style="stroke: #ffffff; stroke-width: 0.75; stroke-linejoin: miter"/>
    </defs>
    <g clip-path="url(#p49f895ba64)">
     <use xlink:href="#mc971b134bf" x="53.328125" y="276.334125" style="fill: #c7c7c7; stroke: #ffffff; stroke-width: 0.75; stroke-linejoin: miter"/>
     <use xlink:href="#mc971b134bf" x="543.5531" y="170.685517" style="fill: #c7c7c7; stroke: #ffffff; stroke-width: 0.75; stroke-linejoin: miter"/>
     <use xlink:href="#mc971b134bf" x="582.756005" y="138.531593" style="fill: #c7c7c7; stroke: #ffffff; stroke-width: 0.75; stroke-linejoin: miter"/>
     <use xlink:href="#mc971b134bf" x="605.688234" y="138.531593" style="fill: #c7c7c7; stroke: #ffffff; stroke-width: 0.75; stroke-linejoin: miter"/>
     <use xlink:href="#mc971b134bf" x="621.95891" y="138.531593" style="fill: #c7c7c7; stroke: #ffffff; stroke-width: 0.75; stroke-linejoin: miter"/>
     <use xlink:href="#mc971b134bf" x="634.579427" y="138.531593" style="fill: #c7c7c7; stroke: #ffffff; stroke-width: 0.75; stroke-linejoin: miter"/>
     <use xlink:href="#mc971b134bf" x="644.89114" y="120.157922" style="fill: #c7c7c7; stroke: #ffffff; stroke-width: 0.75; stroke-linejoin: miter"/>
     <use xlink:href="#mc971b134bf" x="653.609569" y="117.095644" style="fill: #c7c7c7; stroke: #ffffff; stroke-width: 0.75; stroke-linejoin: miter"/>
     <use xlink:href="#mc971b134bf" x="661.161815" y="104.84653" style="fill: #c7c7c7; stroke: #ffffff; stroke-width: 0.75; stroke-linejoin: miter"/>
     <use xlink:href="#mc971b134bf" x="667.823369" y="104.84653" style="fill: #c7c7c7; stroke: #ffffff; stroke-width: 0.75; stroke-linejoin: miter"/>
     <use xlink:href="#mc971b134bf" x="673.782332" y="104.84653" style="fill: #c7c7c7; stroke: #ffffff; stroke-width: 0.75; stroke-linejoin: miter"/>
     <use xlink:href="#mc971b134bf" x="679.17287" y="98.721973" style="fill: #c7c7c7; stroke: #ffffff; stroke-width: 0.75; stroke-linejoin: miter"/>
     <use xlink:href="#mc971b134bf" x="684.094045" y="98.721973" style="fill: #c7c7c7; stroke: #ffffff; stroke-width: 0.75; stroke-linejoin: miter"/>
     <use xlink:href="#mc971b134bf" x="688.621087" y="98.721973" style="fill: #c7c7c7; stroke: #ffffff; stroke-width: 0.75; stroke-linejoin: miter"/>
     <use xlink:href="#mc971b134bf" x="692.812474" y="98.721973" style="fill: #c7c7c7; stroke: #ffffff; stroke-width: 0.75; stroke-linejoin: miter"/>
     <use xlink:href="#mc971b134bf" x="696.714561" y="98.721973" style="fill: #c7c7c7; stroke: #ffffff; stroke-width: 0.75; stroke-linejoin: miter"/>
     <use xlink:href="#mc971b134bf" x="700.364721" y="98.721973" style="fill: #c7c7c7; stroke: #ffffff; stroke-width: 0.75; stroke-linejoin: miter"/>
     <use xlink:href="#mc971b134bf" x="703.793518" y="98.721973" style="fill: #c7c7c7; stroke: #ffffff; stroke-width: 0.75; stroke-linejoin: miter"/>
     <use xlink:href="#mc971b134bf" x="707.026274" y="98.721973" style="fill: #c7c7c7; stroke: #ffffff; stroke-width: 0.75; stroke-linejoin: miter"/>
     <use xlink:href="#mc971b134bf" x="710.084199" y="98.721973" style="fill: #c7c7c7; stroke: #ffffff; stroke-width: 0.75; stroke-linejoin: miter"/>
     <use xlink:href="#mc971b134bf" x="712.985237" y="98.721973" style="fill: #c7c7c7; stroke: #ffffff; stroke-width: 0.75; stroke-linejoin: miter"/>
     <use xlink:href="#mc971b134bf" x="715.744703" y="98.721973" style="fill: #c7c7c7; stroke: #ffffff; stroke-width: 0.75; stroke-linejoin: miter"/>
     <use xlink:href="#mc971b134bf" x="718.375775" y="98.721973" style="fill: #c7c7c7; stroke: #ffffff; stroke-width: 0.75; stroke-linejoin: miter"/>
     <use xlink:href="#mc971b134bf" x="720.88987" y="98.721973" style="fill: #c7c7c7; stroke: #ffffff; stroke-width: 0.75; stroke-linejoin: miter"/>
     <use xlink:href="#mc971b134bf" x="723.29695" y="98.721973" style="fill: #c7c7c7; stroke: #ffffff; stroke-width: 0.75; stroke-linejoin: miter"/>
     <use xlink:href="#mc971b134bf" x="725.605754" y="98.721973" style="fill: #c7c7c7; stroke: #ffffff; stroke-width: 0.75; stroke-linejoin: miter"/>
     <use xlink:href="#mc971b134bf" x="727.823992" y="98.721973" style="fill: #c7c7c7; stroke: #ffffff; stroke-width: 0.75; stroke-linejoin: miter"/>
     <use xlink:href="#mc971b134bf" x="729.958504" y="98.721973" style="fill: #c7c7c7; stroke: #ffffff; stroke-width: 0.75; stroke-linejoin: miter"/>
     <use xlink:href="#mc971b134bf" x="732.015379" y="98.721973" style="fill: #c7c7c7; stroke: #ffffff; stroke-width: 0.75; stroke-linejoin: miter"/>
     <use xlink:href="#mc971b134bf" x="734.000068" y="98.721973" style="fill: #c7c7c7; stroke: #ffffff; stroke-width: 0.75; stroke-linejoin: miter"/>
     <use xlink:href="#mc971b134bf" x="735.917467" y="98.721973" style="fill: #c7c7c7; stroke: #ffffff; stroke-width: 0.75; stroke-linejoin: miter"/>
     <use xlink:href="#mc971b134bf" x="737.771988" y="98.721973" style="fill: #c7c7c7; stroke: #ffffff; stroke-width: 0.75; stroke-linejoin: miter"/>
     <use xlink:href="#mc971b134bf" x="739.567626" y="98.721973" style="fill: #c7c7c7; stroke: #ffffff; stroke-width: 0.75; stroke-linejoin: miter"/>
     <use xlink:href="#mc971b134bf" x="741.308004" y="95.659695" style="fill: #c7c7c7; stroke: #ffffff; stroke-width: 0.75; stroke-linejoin: miter"/>
     <use xlink:href="#mc971b134bf" x="742.996423" y="95.659695" style="fill: #c7c7c7; stroke: #ffffff; stroke-width: 0.75; stroke-linejoin: miter"/>
     <use xlink:href="#mc971b134bf" x="744.635896" y="95.659695" style="fill: #c7c7c7; stroke: #ffffff; stroke-width: 0.75; stroke-linejoin: miter"/>
     <use xlink:href="#mc971b134bf" x="746.229179" y="95.659695" style="fill: #c7c7c7; stroke: #ffffff; stroke-width: 0.75; stroke-linejoin: miter"/>
     <use xlink:href="#mc971b134bf" x="747.778806" y="95.659695" style="fill: #c7c7c7; stroke: #ffffff; stroke-width: 0.75; stroke-linejoin: miter"/>
     <use xlink:href="#mc971b134bf" x="749.287105" y="95.659695" style="fill: #c7c7c7; stroke: #ffffff; stroke-width: 0.75; stroke-linejoin: miter"/>
     <use xlink:href="#mc971b134bf" x="750.756222" y="95.659695" style="fill: #c7c7c7; stroke: #ffffff; stroke-width: 0.75; stroke-linejoin: miter"/>
     <use xlink:href="#mc971b134bf" x="752.188142" y="95.659695" style="fill: #c7c7c7; stroke: #ffffff; stroke-width: 0.75; stroke-linejoin: miter"/>
     <use xlink:href="#mc971b134bf" x="753.584703" y="95.659695" style="fill: #c7c7c7; stroke: #ffffff; stroke-width: 0.75; stroke-linejoin: miter"/>
     <use xlink:href="#mc971b134bf" x="754.947608" y="95.659695" style="fill: #c7c7c7; stroke: #ffffff; stroke-width: 0.75; stroke-linejoin: miter"/>
     <use xlink:href="#mc971b134bf" x="756.278442" y="95.659695" style="fill: #c7c7c7; stroke: #ffffff; stroke-width: 0.75; stroke-linejoin: miter"/>
     <use xlink:href="#mc971b134bf" x="757.57868" y="95.659695" style="fill: #c7c7c7; stroke: #ffffff; stroke-width: 0.75; stroke-linejoin: miter"/>
     <use xlink:href="#mc971b134bf" x="758.849696" y="95.659695" style="fill: #c7c7c7; stroke: #ffffff; stroke-width: 0.75; stroke-linejoin: miter"/>
     <use xlink:href="#mc971b134bf" x="760.092775" y="95.659695" style="fill: #c7c7c7; stroke: #ffffff; stroke-width: 0.75; stroke-linejoin: miter"/>
     <use xlink:href="#mc971b134bf" x="761.30912" y="95.659695" style="fill: #c7c7c7; stroke: #ffffff; stroke-width: 0.75; stroke-linejoin: miter"/>
     <use xlink:href="#mc971b134bf" x="762.499855" y="95.659695" style="fill: #c7c7c7; stroke: #ffffff; stroke-width: 0.75; stroke-linejoin: miter"/>
     <use xlink:href="#mc971b134bf" x="763.666037" y="95.659695" style="fill: #c7c7c7; stroke: #ffffff; stroke-width: 0.75; stroke-linejoin: miter"/>
     <use xlink:href="#mc971b134bf" x="764.808659" y="95.659695" style="fill: #c7c7c7; stroke: #ffffff; stroke-width: 0.75; stroke-linejoin: miter"/>
    </g>
   </g>
   <g id="line2d_25"/>
   <g id="line2d_26"/>
   <g id="line2d_27"/>
   <g id="line2d_28"/>
   <g id="line2d_29">
    <path d="M 764.808659 288.430125 
L 764.808659 22.318125 
" clip-path="url(#p49f895ba64)" style="fill: none; stroke: #ff0000; stroke-width: 1.5; stroke-linecap: square"/>
   </g>
   <g id="patch_3">
    <path d="M 53.328125 257.960454 
L 53.328125 43.60096 
" style="fill: none; stroke: #000000; stroke-width: 0.8; stroke-linejoin: miter; stroke-linecap: square"/>
   </g>
   <g id="patch_4">
    <path d="M 53.328125 288.430125 
L 764.809916 288.430125 
" style="fill: none; stroke: #000000; stroke-width: 0.8; stroke-linejoin: miter; stroke-linecap: square"/>
   </g>
   <g id="text_19">
    <!-- openssl_x509 (12h:30m, at least 2 trials/fuzzer) -->
    <g transform="translate(266.782813 16.318125) scale(0.12 -0.12)">
     <defs>
      <path id="DejaVuSans-70" d="M 1159 525 
L 1159 -1331 
L 581 -1331 
L 581 3500 
L 1159 3500 
L 1159 2969 
Q 1341 3281 1617 3432 
Q 1894 3584 2278 3584 
Q 2916 3584 3314 3078 
Q 3713 2572 3713 1747 
Q 3713 922 3314 415 
Q 2916 -91 2278 -91 
Q 1894 -91 1617 61 
Q 1341 213 1159 525 
z
M 3116 1747 
Q 3116 2381 2855 2742 
Q 2594 3103 2138 3103 
Q 1681 3103 1420 2742 
Q 1159 2381 1159 1747 
Q 1159 1113 1420 752 
Q 1681 391 2138 391 
Q 2594 391 2855 752 
Q 3116 1113 3116 1747 
z
" transform="scale(0.015625)"/>
      <path id="DejaVuSans-73" d="M 2834 3397 
L 2834 2853 
Q 2591 2978 2328 3040 
Q 2066 3103 1784 3103 
Q 1356 3103 1142 2972 
Q 928 2841 928 2578 
Q 928 2378 1081 2264 
Q 1234 2150 1697 2047 
L 1894 2003 
Q 2506 1872 2764 1633 
Q 3022 1394 3022 966 
Q 3022 478 2636 193 
Q 2250 -91 1575 -91 
Q 1294 -91 989 -36 
Q 684 19 347 128 
L 347 722 
Q 666 556 975 473 
Q 1284 391 1588 391 
Q 1994 391 2212 530 
Q 2431 669 2431 922 
Q 2431 1156 2273 1281 
Q 2116 1406 1581 1522 
L 1381 1569 
Q 847 1681 609 1914 
Q 372 2147 372 2553 
Q 372 3047 722 3315 
Q 1072 3584 1716 3584 
Q 2034 3584 2315 3537 
Q 2597 3491 2834 3397 
z
" transform="scale(0.015625)"/>
      <path id="DejaVuSans-6c" d="M 603 4863 
L 1178 4863 
L 1178 0 
L 603 0 
L 603 4863 
z
" transform="scale(0.015625)"/>
      <path id="DejaVuSans-5f" d="M 3263 -1063 
L 3263 -1509 
L -63 -1509 
L -63 -1063 
L 3263 -1063 
z
" transform="scale(0.015625)"/>
      <path id="DejaVuSans-78" d="M 3513 3500 
L 2247 1797 
L 3578 0 
L 2900 0 
L 1881 1375 
L 863 0 
L 184 0 
L 1544 1831 
L 300 3500 
L 978 3500 
L 1906 2253 
L 2834 3500 
L 3513 3500 
z
" transform="scale(0.015625)"/>
      <path id="DejaVuSans-2c" d="M 750 794 
L 1409 794 
L 1409 256 
L 897 -744 
L 494 -744 
L 750 256 
L 750 794 
z
" transform="scale(0.015625)"/>
      <path id="DejaVuSans-2f" d="M 1625 4666 
L 2156 4666 
L 531 -594 
L 0 -594 
L 1625 4666 
z
" transform="scale(0.015625)"/>
      <path id="DejaVuSans-66" d="M 2375 4863 
L 2375 4384 
L 1825 4384 
Q 1516 4384 1395 4259 
Q 1275 4134 1275 3809 
L 1275 3500 
L 2222 3500 
L 2222 3053 
L 1275 3053 
L 1275 0 
L 697 0 
L 697 3053 
L 147 3053 
L 147 3500 
L 697 3500 
L 697 3744 
Q 697 4328 969 4595 
Q 1241 4863 1831 4863 
L 2375 4863 
z
" transform="scale(0.015625)"/>
      <path id="DejaVuSans-7a" d="M 353 3500 
L 3084 3500 
L 3084 2975 
L 922 459 
L 3084 459 
L 3084 0 
L 275 0 
L 275 525 
L 2438 3041 
L 353 3041 
L 353 3500 
z
" transform="scale(0.015625)"/>
     </defs>
     <use xlink:href="#DejaVuSans-6f"/>
     <use xlink:href="#DejaVuSans-70" transform="translate(61.181641 0)"/>
     <use xlink:href="#DejaVuSans-65" transform="translate(124.658203 0)"/>
     <use xlink:href="#DejaVuSans-6e" transform="translate(186.181641 0)"/>
     <use xlink:href="#DejaVuSans-73" transform="translate(249.560547 0)"/>
     <use xlink:href="#DejaVuSans-73" transform="translate(301.660156 0)"/>
     <use xlink:href="#DejaVuSans-6c" transform="translate(353.759766 0)"/>
     <use xlink:href="#DejaVuSans-5f" transform="translate(381.542969 0)"/>
     <use xlink:href="#DejaVuSans-78" transform="translate(431.542969 0)"/>
     <use xlink:href="#DejaVuSans-35" transform="translate(490.722656 0)"/>
     <use xlink:href="#DejaVuSans-30" transform="translate(554.345703 0)"/>
     <use xlink:href="#DejaVuSans-39" transform="translate(617.96875 0)"/>
     <use xlink:href="#DejaVuSans-20" transform="translate(681.591797 0)"/>
     <use xlink:href="#DejaVuSans-28" transform="translate(713.378906 0)"/>
     <use xlink:href="#DejaVuSans-31" transform="translate(752.392578 0)"/>
     <use xlink:href="#DejaVuSans-32" transform="translate(816.015625 0)"/>
     <use xlink:href="#DejaVuSans-68" transform="translate(879.638672 0)"/>
     <use xlink:href="#DejaVuSans-3a" transform="translate(943.017578 0)"/>
     <use xlink:href="#DejaVuSans-33" transform="translate(976.708984 0)"/>
     <use xlink:href="#DejaVuSans-30" transform="translate(1040.332031 0)"/>
     <use xlink:href="#DejaVuSans-6d" transform="translate(1103.955078 0)"/>
     <use xlink:href="#DejaVuSans-2c" transform="translate(1201.367188 0)"/>
     <use xlink:href="#DejaVuSans-20" transform="translate(1233.154297 0)"/>
     <use xlink:href="#DejaVuSans-61" transform="translate(1264.941406 0)"/>
     <use xlink:href="#DejaVuSans-74" transform="translate(1326.220703 0)"/>
     <use xlink:href="#DejaVuSans-20" transform="translate(1365.429688 0)"/>
     <use xlink:href="#DejaVuSans-6c" transform="translate(1397.216797 0)"/>
     <use xlink:href="#DejaVuSans-65" transform="translate(1425 0)"/>
     <use xlink:href="#DejaVuSans-61" transform="translate(1486.523438 0)"/>
     <use xlink:href="#DejaVuSans-73" transform="translate(1547.802734 0)"/>
     <use xlink:href="#DejaVuSans-74" transform="translate(1599.902344 0)"/>
     <use xlink:href="#DejaVuSans-20" transform="translate(1639.111328 0)"/>
     <use xlink:href="#DejaVuSans-32" transform="translate(1670.898438 0)"/>
     <use xlink:href="#DejaVuSans-20" transform="translate(1734.521484 0)"/>
     <use xlink:href="#DejaVuSans-74" transform="translate(1766.308594 0)"/>
     <use xlink:href="#DejaVuSans-72" transform="translate(1805.517578 0)"/>
     <use xlink:href="#DejaVuSans-69" transform="translate(1846.630859 0)"/>
     <use xlink:href="#DejaVuSans-61" transform="translate(1874.414062 0)"/>
     <use xlink:href="#DejaVuSans-6c" transform="translate(1935.693359 0)"/>
     <use xlink:href="#DejaVuSans-73" transform="translate(1963.476562 0)"/>
     <use xlink:href="#DejaVuSans-2f" transform="translate(2015.576172 0)"/>
     <use xlink:href="#DejaVuSans-66" transform="translate(2049.267578 0)"/>
     <use xlink:href="#DejaVuSans-75" transform="translate(2084.472656 0)"/>
     <use xlink:href="#DejaVuSans-7a" transform="translate(2147.851562 0)"/>
     <use xlink:href="#DejaVuSans-7a" transform="translate(2200.341797 0)"/>
     <use xlink:href="#DejaVuSans-65" transform="translate(2252.832031 0)"/>
     <use xlink:href="#DejaVuSans-72" transform="translate(2314.355469 0)"/>
     <use xlink:href="#DejaVuSans-29" transform="translate(2355.46875 0)"/>
    </g>
   </g>
   <g id="legend_1">
    <g id="line2d_30">
     <path d="M 771.568125 30.416562 
L 781.568125 30.416562 
L 791.568125 30.416562 
" style="fill: none; stroke: #d62728; stroke-width: 1.5; stroke-linecap: square"/>
     <g>
      <use xlink:href="#m573261d5a8" x="781.568125" y="30.416562" style="fill: #d62728; stroke: #ffffff; stroke-width: 0.75; stroke-linejoin: miter"/>
     </g>
    </g>
    <g id="text_20">
     <!-- aflplusplus_c11 -->
     <g transform="translate(799.568125 33.916562) scale(0.1 -0.1)">
      <use xlink:href="#DejaVuSans-61"/>
      <use xlink:href="#DejaVuSans-66" transform="translate(61.279297 0)"/>
      <use xlink:href="#DejaVuSans-6c" transform="translate(96.484375 0)"/>
      <use xlink:href="#DejaVuSans-70" transform="translate(124.267578 0)"/>
      <use xlink:href="#DejaVuSans-6c" transform="translate(187.744141 0)"/>
      <use xlink:href="#DejaVuSans-75" transform="translate(215.527344 0)"/>
      <use xlink:href="#DejaVuSans-73" transform="translate(278.90625 0)"/>
      <use xlink:href="#DejaVuSans-70" transform="translate(331.005859 0)"/>
      <use xlink:href="#DejaVuSans-6c" transform="translate(394.482422 0)"/>
      <use xlink:href="#DejaVuSans-75" transform="translate(422.265625 0)"/>
      <use xlink:href="#DejaVuSans-73" transform="translate(485.644531 0)"/>
      <use xlink:href="#DejaVuSans-5f" transform="translate(537.744141 0)"/>
      <use xlink:href="#DejaVuSans-63" transform="translate(587.744141 0)"/>
      <use xlink:href="#DejaVuSans-31" transform="translate(642.724609 0)"/>
      <use xlink:href="#DejaVuSans-31" transform="translate(706.347656 0)"/>
     </g>
    </g>
    <g id="line2d_31">
     <path d="M 771.568125 45.372813 
L 781.568125 45.372813 
L 791.568125 45.372813 
" style="fill: none; stroke: #98df8a; stroke-width: 1.5; stroke-linecap: square"/>
     <g>
      <use xlink:href="#m5e54caa064" x="781.568125" y="45.372813" style="fill: #98df8a; stroke: #ffffff; stroke-width: 0.75; stroke-linejoin: miter"/>
     </g>
    </g>
    <g id="text_21">
     <!-- aflplusplus_500c -->
     <g transform="translate(799.568125 48.872813) scale(0.1 -0.1)">
      <use xlink:href="#DejaVuSans-61"/>
      <use xlink:href="#DejaVuSans-66" transform="translate(61.279297 0)"/>
      <use xlink:href="#DejaVuSans-6c" transform="translate(96.484375 0)"/>
      <use xlink:href="#DejaVuSans-70" transform="translate(124.267578 0)"/>
      <use xlink:href="#DejaVuSans-6c" transform="translate(187.744141 0)"/>
      <use xlink:href="#DejaVuSans-75" transform="translate(215.527344 0)"/>
      <use xlink:href="#DejaVuSans-73" transform="translate(278.90625 0)"/>
      <use xlink:href="#DejaVuSans-70" transform="translate(331.005859 0)"/>
      <use xlink:href="#DejaVuSans-6c" transform="translate(394.482422 0)"/>
      <use xlink:href="#DejaVuSans-75" transform="translate(422.265625 0)"/>
      <use xlink:href="#DejaVuSans-73" transform="translate(485.644531 0)"/>
      <use xlink:href="#DejaVuSans-5f" transform="translate(537.744141 0)"/>
      <use xlink:href="#DejaVuSans-35" transform="translate(587.744141 0)"/>
      <use xlink:href="#DejaVuSans-30" transform="translate(651.367188 0)"/>
      <use xlink:href="#DejaVuSans-30" transform="translate(714.990234 0)"/>
      <use xlink:href="#DejaVuSans-63" transform="translate(778.613281 0)"/>
     </g>
    </g>
    <g id="line2d_32">
     <path d="M 771.568125 60.329063 
L 781.568125 60.329063 
L 791.568125 60.329063 
" style="fill: none; stroke: #1f77b4; stroke-width: 1.5; stroke-linecap: square"/>
     <g>
      <use xlink:href="#me3d0e35360" x="781.568125" y="60.329063" style="fill: #1f77b4; stroke: #ffffff; stroke-width: 0.75"/>
     </g>
    </g>
    <g id="text_22">
     <!-- aflplusplus_440c -->
     <g transform="translate(799.568125 63.829063) scale(0.1 -0.1)">
      <use xlink:href="#DejaVuSans-61"/>
      <use xlink:href="#DejaVuSans-66" transform="translate(61.279297 0)"/>
      <use xlink:href="#DejaVuSans-6c" transform="translate(96.484375 0)"/>
      <use xlink:href="#DejaVuSans-70" transform="translate(124.267578 0)"/>
      <use xlink:href="#DejaVuSans-6c" transform="translate(187.744141 0)"/>
      <use xlink:href="#DejaVuSans-75" transform="translate(215.527344 0)"/>
      <use xlink:href="#DejaVuSans-73" transform="translate(278.90625 0)"/>
      <use xlink:href="#DejaVuSans-70" transform="translate(331.005859 0)"/>
      <use xlink:href="#DejaVuSans-6c" transform="translate(394.482422 0)"/>
      <use xlink:href="#DejaVuSans-75" transform="translate(422.265625 0)"/>
      <use xlink:href="#DejaVuSans-73" transform="translate(485.644531 0)"/>
      <use xlink:href="#DejaVuSans-5f" transform="translate(537.744141 0)"/>
      <use xlink:href="#DejaVuSans-34" transform="translate(587.744141 0)"/>
      <use xlink:href="#DejaVuSans-34" transform="translate(651.367188 0)"/>
      <use xlink:href="#DejaVuSans-30" transform="translate(714.990234 0)"/>
      <use xlink:href="#DejaVuSans-63" transform="translate(778.613281 0)"/>
     </g>
    </g>
    <g id="line2d_33">
     <path d="M 771.568125 75.285313 
L 781.568125 75.285313 
L 791.568125 75.285313 
" style="fill: none; stroke: #c7c7c7; stroke-width: 1.5; stroke-linecap: square"/>
     <g>
      <use xlink:href="#mc971b134bf" x="781.568125" y="75.285313" style="fill: #c7c7c7; stroke: #ffffff; stroke-width: 0.75; stroke-linejoin: miter"/>
     </g>
    </g>
    <g id="text_23">
     <!-- aflplusplus_mopt -->
     <g transform="translate(799.568125 78.785313) scale(0.1 -0.1)">
      <use xlink:href="#DejaVuSans-61"/>
      <use xlink:href="#DejaVuSans-66" transform="translate(61.279297 0)"/>
      <use xlink:href="#DejaVuSans-6c" transform="translate(96.484375 0)"/>
      <use xlink:href="#DejaVuSans-70" transform="translate(124.267578 0)"/>
      <use xlink:href="#DejaVuSans-6c" transform="translate(187.744141 0)"/>
      <use xlink:href="#DejaVuSans-75" transform="translate(215.527344 0)"/>
      <use xlink:href="#DejaVuSans-73" transform="translate(278.90625 0)"/>
      <use xlink:href="#DejaVuSans-70" transform="translate(331.005859 0)"/>
      <use xlink:href="#DejaVuSans-6c" transform="translate(394.482422 0)"/>
      <use xlink:href="#DejaVuSans-75" transform="translate(422.265625 0)"/>
      <use xlink:href="#DejaVuSans-73" transform="translate(485.644531 0)"/>
      <use xlink:href="#DejaVuSans-5f" transform="translate(537.744141 0)"/>
      <use xlink:href="#DejaVuSans-6d" transform="translate(587.744141 0)"/>
      <use xlink:href="#DejaVuSans-6f" transform="translate(685.15625 0)"/>
      <use xlink:href="#DejaVuSans-70" transform="translate(746.337891 0)"/>
      <use xlink:href="#DejaVuSans-74" transform="translate(809.814453 0)"/>
     </g>
    </g>
   </g>
  </g>
 </g>
 <defs>
  <clipPath id="p49f895ba64">
   <rect x="53.328125" y="22.318125" width="714.24" height="266.112"/>
  </clipPath>
 </defs>
</svg>
