<?xml version="1.0" encoding="utf-8" standalone="no"?>
<!DOCTYPE svg PUBLIC "-//W3C//DTD SVG 1.1//EN"
  "http://www.w3.org/Graphics/SVG/1.1/DTD/svg11.dtd">
<svg xmlns:xlink="http://www.w3.org/1999/xlink" width="895.669687pt" height="325.986375pt" viewBox="0 0 895.669687 325.986375" xmlns="http://www.w3.org/2000/svg" version="1.1">
 <metadata>
  <rdf:RDF xmlns:dc="http://purl.org/dc/elements/1.1/" xmlns:cc="http://creativecommons.org/ns#" xmlns:rdf="http://www.w3.org/1999/02/22-rdf-syntax-ns#">
   <cc:Work>
    <dc:type rdf:resource="http://purl.org/dc/dcmitype/StillImage"/>
    <dc:date>2026-06-10T04:41:31.710795</dc:date>
    <dc:format>image/svg+xml</dc:format>
    <dc:creator>
     <cc:Agent>
      <dc:title>Matplotlib v3.10.9, https://matplotlib.org/</dc:title>
     </cc:Agent>
    </dc:creator>
   </cc:Work>
  </rdf:RDF>
 </metadata>
 <defs>
  <style type="text/css">*{stroke-linejoin: round; stroke-linecap: butt}</style>
 </defs>
 <g id="figure_1">
  <g id="patch_1">
   <path d="M 0 325.986375 
L 895.669688 325.986375 
L 895.669688 0 
L 0 0 
z
" style="fill: #ffffff"/>
  </g>
  <g id="axes_1">
   <g id="patch_2">
    <path d="M 53.328125 288.430125 
L 767.568125 288.430125 
L 767.568125 22.318125 
L 53.328125 22.318125 
z
" style="fill: #ffffff"/>
   </g>
   <g id="FillBetweenPolyCollection_1">
    <defs>
     <path id="md6803a4932" d="M 53.328125 -49.65225 
L 53.328125 -49.65225 
L 66.409444 -233.815983 
L 79.490762 -233.947247 
L 92.572081 -234.012879 
L 105.6534 -234.012879 
L 118.734718 -234.078512 
L 131.816037 -234.537936 
L 144.897356 -234.537936 
L 157.978674 -235.522418 
L 171.059993 -235.522418 
L 184.141312 -235.522418 
L 197.22263 -235.522418 
L 210.303949 -235.58805 
L 223.385268 -235.58805 
L 236.466587 -235.58805 
L 249.547905 -235.58805 
L 262.629224 -235.58805 
L 275.710543 -235.719315 
L 288.791861 -235.719315 
L 301.87318 -235.719315 
L 314.954499 -235.719315 
L 328.035817 -235.719315 
L 341.117136 -235.719315 
L 354.198455 -235.719315 
L 367.279773 -235.719315 
L 380.361092 -235.719315 
L 393.442411 -235.719315 
L 406.523729 -235.719315 
L 419.605048 -235.719315 
L 432.686367 -235.719315 
L 445.767685 -235.719315 
L 458.849004 -235.719315 
L 471.930323 -235.719315 
L 485.011641 -235.719315 
L 498.09296 -235.719315 
L 511.174279 -235.719315 
L 524.255598 -235.719315 
L 537.336916 -235.719315 
L 550.418235 -235.719315 
L 563.499554 -235.719315 
L 576.580872 -235.719315 
L 589.662191 -235.719315 
L 602.74351 -235.719315 
L 615.824828 -235.719315 
L 628.906147 -235.719315 
L 641.987466 -235.719315 
L 655.068784 -235.719315 
L 668.150103 -235.719315 
L 681.231422 -235.719315 
L 694.31274 -235.719315 
L 707.394059 -235.719315 
L 720.475378 -235.719315 
L 733.556696 -235.719315 
L 733.556696 -291.57225 
L 733.556696 -291.57225 
L 720.475378 -288.356276 
L 707.394059 -288.356276 
L 694.31274 -288.225012 
L 681.231422 -288.15938 
L 668.150103 -288.028115 
L 655.068784 -284.287085 
L 641.987466 -283.696395 
L 628.906147 -283.696395 
L 615.824828 -283.433867 
L 602.74351 -280.546054 
L 589.662191 -280.546054 
L 576.580872 -251.274127 
L 563.499554 -243.201376 
L 550.418235 -243.070112 
L 537.336916 -242.348159 
L 524.255598 -242.348159 
L 511.174279 -242.348159 
L 498.09296 -242.348159 
L 485.011641 -242.282527 
L 471.930323 -242.282527 
L 458.849004 -242.282527 
L 445.767685 -242.216895 
L 432.686367 -242.216895 
L 419.605048 -242.216895 
L 406.523729 -242.216895 
L 393.442411 -242.216895 
L 380.361092 -242.216895 
L 367.279773 -242.216895 
L 354.198455 -242.216895 
L 341.117136 -242.151262 
L 328.035817 -242.151262 
L 314.954499 -242.151262 
L 301.87318 -242.151262 
L 288.791861 -242.151262 
L 275.710543 -242.151262 
L 262.629224 -241.035516 
L 249.547905 -241.035516 
L 236.466587 -241.035516 
L 223.385268 -240.969884 
L 210.303949 -240.969884 
L 197.22263 -240.969884 
L 184.141312 -240.969884 
L 171.059993 -240.969884 
L 157.978674 -240.969884 
L 144.897356 -240.969884 
L 131.816037 -240.904252 
L 118.734718 -240.707356 
L 105.6534 -240.707356 
L 92.572081 -239.460345 
L 79.490762 -238.804024 
L 66.409444 -238.607128 
L 53.328125 -49.65225 
z
" style="stroke: #d62728; stroke-opacity: 0.2"/>
    </defs>
    <g clip-path="url(#pb2032102f0)">
     <use xlink:href="#md6803a4932" x="0" y="325.986375" style="fill: #d62728; fill-opacity: 0.2; stroke: #d62728; stroke-opacity: 0.2"/>
    </g>
   </g>
   <g id="FillBetweenPolyCollection_2">
    <defs>
     <path id="me068e9d8b5" d="M 53.328125 -49.65225 
L 53.328125 -49.65225 
L 66.409444 -233.848799 
L 79.490762 -234.242592 
L 92.572081 -234.931729 
L 105.6534 -234.997361 
L 118.734718 -235.128625 
L 131.816037 -235.128625 
L 144.897356 -235.227074 
L 157.978674 -235.522418 
L 171.059993 -235.555234 
L 184.141312 -235.653682 
L 197.22263 -235.686499 
L 210.303949 -235.686499 
L 223.385268 -235.916211 
L 236.466587 -235.916211 
L 249.547905 -235.949027 
L 262.629224 -235.949027 
L 275.710543 -235.981843 
L 288.791861 -236.080291 
L 301.87318 -236.080291 
L 314.954499 -236.080291 
L 328.035817 -236.080291 
L 341.117136 -236.080291 
L 354.198455 -236.080291 
L 367.279773 -236.080291 
L 380.361092 -236.080291 
L 393.442411 -236.080291 
L 406.523729 -236.080291 
L 419.605048 -236.080291 
L 432.686367 -239.000921 
L 445.767685 -239.000921 
L 458.849004 -239.000921 
L 471.930323 -239.000921 
L 485.011641 -239.000921 
L 498.09296 -239.000921 
L 511.174279 -239.000921 
L 524.255598 -239.000921 
L 537.336916 -239.000921 
L 550.418235 -239.000921 
L 563.499554 -239.033737 
L 576.580872 -239.033737 
L 589.662191 -239.033737 
L 602.74351 -239.033737 
L 615.824828 -239.033737 
L 628.906147 -239.033737 
L 641.987466 -239.033737 
L 655.068784 -239.033737 
L 668.150103 -239.033737 
L 681.231422 -239.033737 
L 694.31274 -239.033737 
L 707.394059 -239.033737 
L 720.475378 -239.033737 
L 733.556696 -239.033737 
L 733.556696 -264.794344 
L 733.556696 -264.794344 
L 720.475378 -264.794344 
L 707.394059 -264.794344 
L 694.31274 -264.281593 
L 681.231422 -264.761528 
L 668.150103 -264.761528 
L 655.068784 -263.284806 
L 641.987466 -261.381474 
L 628.906147 -260.036016 
L 615.824828 -259.970383 
L 602.74351 -259.970383 
L 589.662191 -259.970383 
L 576.580872 -259.970383 
L 563.499554 -259.970383 
L 550.418235 -259.839119 
L 537.336916 -259.773487 
L 524.255598 -259.773487 
L 511.174279 -259.41251 
L 498.09296 -249.66614 
L 485.011641 -248.156602 
L 471.930323 -248.616026 
L 458.849004 -247.861257 
L 445.767685 -248.320682 
L 432.686367 -248.320682 
L 419.605048 -248.287866 
L 406.523729 -248.287866 
L 393.442411 -248.090969 
L 380.361092 -248.090969 
L 367.279773 -248.058153 
L 354.198455 -248.058153 
L 341.117136 -248.058153 
L 328.035817 -248.058153 
L 314.954499 -248.058153 
L 301.87318 -248.058153 
L 288.791861 -247.226266 
L 275.710543 -247.828441 
L 262.629224 -247.762809 
L 249.547905 -247.697177 
L 236.466587 -247.369016 
L 223.385268 -243.234192 
L 210.303949 -243.16856 
L 197.22263 -243.070112 
L 184.141312 -243.037296 
L 171.059993 -243.00448 
L 157.978674 -242.971664 
L 144.897356 -242.938848 
L 131.816037 -242.906032 
L 118.734718 -241.823102 
L 105.6534 -241.724654 
L 92.572081 -238.541496 
L 79.490762 -238.213335 
L 66.409444 -234.898913 
L 53.328125 -49.65225 
z
" style="stroke: #c7c7c7; stroke-opacity: 0.2"/>
    </defs>
    <g clip-path="url(#pb2032102f0)">
     <use xlink:href="#me068e9d8b5" x="0" y="325.986375" style="fill: #c7c7c7; fill-opacity: 0.2; stroke: #c7c7c7; stroke-opacity: 0.2"/>
    </g>
   </g>
   <g id="FillBetweenPolyCollection_3">
    <defs>
     <path id="m95ee4c4fa5" d="M 53.328125 -49.65225 
L 53.328125 -49.65225 
L 66.409444 -232.109548 
L 79.490762 -233.947247 
L 92.572081 -234.078512 
L 105.6534 -234.144144 
L 118.734718 -234.406672 
L 131.816037 -234.406672 
L 144.897356 -234.406672 
L 157.978674 -234.406672 
L 171.059993 -234.406672 
L 184.141312 -234.406672 
L 197.22263 -234.406672 
L 210.303949 -234.406672 
L 223.385268 -234.406672 
L 236.466587 -234.537936 
L 249.547905 -234.537936 
L 262.629224 -234.537936 
L 275.710543 -234.537936 
L 288.791861 -234.537936 
L 301.87318 -234.537936 
L 314.954499 -234.537936 
L 328.035817 -234.537936 
L 341.117136 -234.603569 
L 354.198455 -234.603569 
L 367.279773 -234.603569 
L 380.361092 -234.603569 
L 393.442411 -234.603569 
L 406.523729 -234.669201 
L 419.605048 -234.800465 
L 432.686367 -235.194258 
L 445.767685 -235.194258 
L 458.849004 -235.194258 
L 471.930323 -235.25989 
L 485.011641 -235.25989 
L 498.09296 -235.25989 
L 511.174279 -235.456786 
L 524.255598 -235.456786 
L 537.336916 -235.456786 
L 550.418235 -235.58805 
L 563.499554 -235.58805 
L 576.580872 -235.58805 
L 589.662191 -235.58805 
L 602.74351 -235.58805 
L 615.824828 -235.58805 
L 628.906147 -235.58805 
L 641.987466 -235.58805 
L 655.068784 -235.58805 
L 668.150103 -235.784947 
L 681.231422 -235.784947 
L 694.31274 -235.784947 
L 707.394059 -235.784947 
L 720.475378 -235.784947 
L 733.556696 -235.784947 
L 733.556696 -242.610687 
L 733.556696 -242.610687 
L 720.475378 -242.610687 
L 707.394059 -242.610687 
L 694.31274 -242.610687 
L 681.231422 -242.610687 
L 668.150103 -242.610687 
L 655.068784 -242.610687 
L 641.987466 -242.610687 
L 628.906147 -242.610687 
L 615.824828 -242.610687 
L 602.74351 -242.610687 
L 589.662191 -242.610687 
L 576.580872 -242.610687 
L 563.499554 -242.610687 
L 550.418235 -242.610687 
L 537.336916 -242.610687 
L 524.255598 -242.610687 
L 511.174279 -242.610687 
L 498.09296 -242.610687 
L 485.011641 -242.610687 
L 471.930323 -242.610687 
L 458.849004 -242.610687 
L 445.767685 -242.610687 
L 432.686367 -242.610687 
L 419.605048 -242.610687 
L 406.523729 -242.610687 
L 393.442411 -242.610687 
L 380.361092 -242.610687 
L 367.279773 -242.610687 
L 354.198455 -242.610687 
L 341.117136 -242.610687 
L 328.035817 -242.610687 
L 314.954499 -242.610687 
L 301.87318 -242.610687 
L 288.791861 -242.610687 
L 275.710543 -242.610687 
L 262.629224 -242.610687 
L 249.547905 -242.610687 
L 236.466587 -242.610687 
L 223.385268 -242.610687 
L 210.303949 -242.545055 
L 197.22263 -242.545055 
L 184.141312 -242.545055 
L 171.059993 -242.413791 
L 157.978674 -242.413791 
L 144.897356 -242.413791 
L 131.816037 -242.413791 
L 118.734718 -242.413791 
L 105.6534 -241.232413 
L 92.572081 -240.83862 
L 79.490762 -240.707356 
L 66.409444 -234.603569 
L 53.328125 -49.65225 
z
" style="stroke: #98df8a; stroke-opacity: 0.2"/>
    </defs>
    <g clip-path="url(#pb2032102f0)">
     <use xlink:href="#m95ee4c4fa5" x="0" y="325.986375" style="fill: #98df8a; fill-opacity: 0.2; stroke: #98df8a; stroke-opacity: 0.2"/>
    </g>
   </g>
   <g id="FillBetweenPolyCollection_4">
    <defs>
     <path id="mf15dee7cad" d="M 53.328125 -49.65225 
L 53.328125 -49.65225 
L 66.409444 -232.109548 
L 79.490762 -232.634605 
L 92.572081 -233.225294 
L 105.6534 -233.881615 
L 118.734718 -233.881615 
L 131.816037 -233.881615 
L 144.897356 -233.881615 
L 157.978674 -233.947247 
L 171.059993 -233.947247 
L 184.141312 -233.947247 
L 197.22263 -233.947247 
L 210.303949 -234.012879 
L 223.385268 -234.078512 
L 236.466587 -234.078512 
L 249.547905 -234.078512 
L 262.629224 -234.078512 
L 275.710543 -234.078512 
L 288.791861 -234.078512 
L 301.87318 -234.275408 
L 314.954499 -234.275408 
L 328.035817 -234.275408 
L 341.117136 -234.275408 
L 354.198455 -234.275408 
L 367.279773 -234.275408 
L 380.361092 -234.275408 
L 393.442411 -234.34104 
L 406.523729 -234.34104 
L 419.605048 -234.34104 
L 432.686367 -234.931729 
L 445.767685 -234.931729 
L 458.849004 -234.931729 
L 471.930323 -235.391154 
L 485.011641 -235.58805 
L 498.09296 -235.58805 
L 511.174279 -235.653682 
L 524.255598 -235.653682 
L 537.336916 -235.653682 
L 550.418235 -235.653682 
L 563.499554 -235.653682 
L 576.580872 -235.653682 
L 589.662191 -235.719315 
L 602.74351 -235.719315 
L 615.824828 -235.719315 
L 628.906147 -235.719315 
L 641.987466 -235.719315 
L 655.068784 -235.719315 
L 668.150103 -235.719315 
L 681.231422 -235.719315 
L 694.31274 -235.719315 
L 707.394059 -235.719315 
L 720.475378 -235.719315 
L 733.556696 -235.719315 
L 733.556696 -236.441268 
L 733.556696 -236.441268 
L 720.475378 -236.441268 
L 707.394059 -236.441268 
L 694.31274 -236.441268 
L 681.231422 -236.441268 
L 668.150103 -236.441268 
L 655.068784 -236.441268 
L 641.987466 -236.441268 
L 628.906147 -236.441268 
L 615.824828 -236.441268 
L 602.74351 -236.441268 
L 589.662191 -236.441268 
L 576.580872 -236.441268 
L 563.499554 -236.441268 
L 550.418235 -236.441268 
L 537.336916 -236.441268 
L 524.255598 -236.441268 
L 511.174279 -236.441268 
L 498.09296 -236.441268 
L 485.011641 -236.441268 
L 471.930323 -236.375636 
L 458.849004 -236.375636 
L 445.767685 -236.244372 
L 432.686367 -236.244372 
L 419.605048 -236.244372 
L 406.523729 -236.244372 
L 393.442411 -236.244372 
L 380.361092 -236.244372 
L 367.279773 -236.244372 
L 354.198455 -236.244372 
L 341.117136 -236.244372 
L 328.035817 -236.244372 
L 314.954499 -236.244372 
L 301.87318 -236.244372 
L 288.791861 -236.244372 
L 275.710543 -236.244372 
L 262.629224 -236.244372 
L 249.547905 -236.244372 
L 236.466587 -236.244372 
L 223.385268 -236.113107 
L 210.303949 -236.047475 
L 197.22263 -236.047475 
L 184.141312 -235.981843 
L 171.059993 -235.981843 
L 157.978674 -235.784947 
L 144.897356 -235.653682 
L 131.816037 -235.522418 
L 118.734718 -235.325522 
L 105.6534 -235.062993 
L 92.572081 -234.997361 
L 79.490762 -234.866097 
L 66.409444 -234.275408 
L 53.328125 -49.65225 
z
" style="stroke: #1f77b4; stroke-opacity: 0.2"/>
    </defs>
    <g clip-path="url(#pb2032102f0)">
     <use xlink:href="#mf15dee7cad" x="0" y="325.986375" style="fill: #1f77b4; fill-opacity: 0.2; stroke: #1f77b4; stroke-opacity: 0.2"/>
    </g>
   </g>
   <g id="matplotlib.axis_1">
    <g id="xtick_1">
     <g id="line2d_1">
      <defs>
       <path id="ma47aa538ac" d="M 0 0 
L 0 3.5 
" style="stroke: #000000; stroke-width: 0.8"/>
      </defs>
      <g>
       <use xlink:href="#ma47aa538ac" x="53.328125" y="288.430125" style="stroke: #000000; stroke-width: 0.8"/>
      </g>
     </g>
     <g id="text_1">
      <!-- 0m -->
      <g transform="translate(45.276563 303.028562) scale(0.1 -0.1)">
       <defs>
        <path id="DejaVuSans-30" d="M 2034 4250 
Q 1547 4250 1301 3770 
Q 1056 3291 1056 2328 
Q 1056 1369 1301 889 
Q 1547 409 2034 409 
Q 2525 409 2770 889 
Q 3016 1369 3016 2328 
Q 3016 3291 2770 3770 
Q 2525 4250 2034 4250 
z
M 2034 4750 
Q 2819 4750 3233 4129 
Q 3647 3509 3647 2328 
Q 3647 1150 3233 529 
Q 2819 -91 2034 -91 
Q 1250 -91 836 529 
Q 422 1150 422 2328 
Q 422 3509 836 4129 
Q 1250 4750 2034 4750 
z
" transform="scale(0.015625)"/>
        <path id="DejaVuSans-6d" d="M 3328 2828 
Q 3544 3216 3844 3400 
Q 4144 3584 4550 3584 
Q 5097 3584 5394 3201 
Q 5691 2819 5691 2113 
L 5691 0 
L 5113 0 
L 5113 2094 
Q 5113 2597 4934 2840 
Q 4756 3084 4391 3084 
Q 3944 3084 3684 2787 
Q 3425 2491 3425 1978 
L 3425 0 
L 2847 0 
L 2847 2094 
Q 2847 2600 2669 2842 
Q 2491 3084 2119 3084 
Q 1678 3084 1418 2786 
Q 1159 2488 1159 1978 
L 1159 0 
L 581 0 
L 581 3500 
L 1159 3500 
L 1159 2956 
Q 1356 3278 1631 3431 
Q 1906 3584 2284 3584 
Q 2666 3584 2933 3390 
Q 3200 3197 3328 2828 
z
" transform="scale(0.015625)"/>
       </defs>
       <use xlink:href="#DejaVuSans-30"/>
       <use xlink:href="#DejaVuSans-6d" transform="translate(63.623047 0)"/>
      </g>
     </g>
    </g>
    <g id="xtick_2">
     <g id="line2d_2">
      <g>
       <use xlink:href="#ma47aa538ac" x="110.013839" y="288.430125" style="stroke: #000000; stroke-width: 0.8"/>
      </g>
     </g>
     <g id="text_2">
      <!-- 1h:5m -->
      <g transform="translate(93.927902 303.028562) scale(0.1 -0.1)">
       <defs>
        <path id="DejaVuSans-31" d="M 794 531 
L 1825 531 
L 1825 4091 
L 703 3866 
L 703 4441 
L 1819 4666 
L 2450 4666 
L 2450 531 
L 3481 531 
L 3481 0 
L 794 0 
L 794 531 
z
" transform="scale(0.015625)"/>
        <path id="DejaVuSans-68" d="M 3513 2113 
L 3513 0 
L 2938 0 
L 2938 2094 
Q 2938 2591 2744 2837 
Q 2550 3084 2163 3084 
Q 1697 3084 1428 2787 
Q 1159 2491 1159 1978 
L 1159 0 
L 581 0 
L 581 4863 
L 1159 4863 
L 1159 2956 
Q 1366 3272 1645 3428 
Q 1925 3584 2291 3584 
Q 2894 3584 3203 3211 
Q 3513 2838 3513 2113 
z
" transform="scale(0.015625)"/>
        <path id="DejaVuSans-3a" d="M 750 794 
L 1409 794 
L 1409 0 
L 750 0 
L 750 794 
z
M 750 3309 
L 1409 3309 
L 1409 2516 
L 750 2516 
L 750 3309 
z
" transform="scale(0.015625)"/>
        <path id="DejaVuSans-35" d="M 691 4666 
L 3169 4666 
L 3169 4134 
L 1269 4134 
L 1269 2991 
Q 1406 3038 1543 3061 
Q 1681 3084 1819 3084 
Q 2600 3084 3056 2656 
Q 3513 2228 3513 1497 
Q 3513 744 3044 326 
Q 2575 -91 1722 -91 
Q 1428 -91 1123 -41 
Q 819 9 494 109 
L 494 744 
Q 775 591 1075 516 
Q 1375 441 1709 441 
Q 2250 441 2565 725 
Q 2881 1009 2881 1497 
Q 2881 1984 2565 2268 
Q 2250 2553 1709 2553 
Q 1456 2553 1204 2497 
Q 953 2441 691 2322 
L 691 4666 
z
" transform="scale(0.015625)"/>
       </defs>
       <use xlink:href="#DejaVuSans-31"/>
       <use xlink:href="#DejaVuSans-68" transform="translate(63.623047 0)"/>
       <use xlink:href="#DejaVuSans-3a" transform="translate(127.001953 0)"/>
       <use xlink:href="#DejaVuSans-35" transform="translate(160.693359 0)"/>
       <use xlink:href="#DejaVuSans-6d" transform="translate(224.316406 0)"/>
      </g>
     </g>
    </g>
    <g id="xtick_3">
     <g id="line2d_3">
      <g>
       <use xlink:href="#ma47aa538ac" x="166.699554" y="288.430125" style="stroke: #000000; stroke-width: 0.8"/>
      </g>
     </g>
     <g id="text_3">
      <!-- 2h:10m -->
      <g transform="translate(147.432366 303.028562) scale(0.1 -0.1)">
       <defs>
        <path id="DejaVuSans-32" d="M 1228 531 
L 3431 531 
L 3431 0 
L 469 0 
L 469 531 
Q 828 903 1448 1529 
Q 2069 2156 2228 2338 
Q 2531 2678 2651 2914 
Q 2772 3150 2772 3378 
Q 2772 3750 2511 3984 
Q 2250 4219 1831 4219 
Q 1534 4219 1204 4116 
Q 875 4013 500 3803 
L 500 4441 
Q 881 4594 1212 4672 
Q 1544 4750 1819 4750 
Q 2544 4750 2975 4387 
Q 3406 4025 3406 3419 
Q 3406 3131 3298 2873 
Q 3191 2616 2906 2266 
Q 2828 2175 2409 1742 
Q 1991 1309 1228 531 
z
" transform="scale(0.015625)"/>
       </defs>
       <use xlink:href="#DejaVuSans-32"/>
       <use xlink:href="#DejaVuSans-68" transform="translate(63.623047 0)"/>
       <use xlink:href="#DejaVuSans-3a" transform="translate(127.001953 0)"/>
       <use xlink:href="#DejaVuSans-31" transform="translate(160.693359 0)"/>
       <use xlink:href="#DejaVuSans-30" transform="translate(224.316406 0)"/>
       <use xlink:href="#DejaVuSans-6d" transform="translate(287.939453 0)"/>
      </g>
     </g>
    </g>
    <g id="xtick_4">
     <g id="line2d_4">
      <g>
       <use xlink:href="#ma47aa538ac" x="223.385268" y="288.430125" style="stroke: #000000; stroke-width: 0.8"/>
      </g>
     </g>
     <g id="text_4">
      <!-- 3h:15m -->
      <g transform="translate(204.11808 303.028562) scale(0.1 -0.1)">
       <defs>
        <path id="DejaVuSans-33" d="M 2597 2516 
Q 3050 2419 3304 2112 
Q 3559 1806 3559 1356 
Q 3559 666 3084 287 
Q 2609 -91 1734 -91 
Q 1441 -91 1130 -33 
Q 819 25 488 141 
L 488 750 
Q 750 597 1062 519 
Q 1375 441 1716 441 
Q 2309 441 2620 675 
Q 2931 909 2931 1356 
Q 2931 1769 2642 2001 
Q 2353 2234 1838 2234 
L 1294 2234 
L 1294 2753 
L 1863 2753 
Q 2328 2753 2575 2939 
Q 2822 3125 2822 3475 
Q 2822 3834 2567 4026 
Q 2313 4219 1838 4219 
Q 1578 4219 1281 4162 
Q 984 4106 628 3988 
L 628 4550 
Q 988 4650 1302 4700 
Q 1616 4750 1894 4750 
Q 2613 4750 3031 4423 
Q 3450 4097 3450 3541 
Q 3450 3153 3228 2886 
Q 3006 2619 2597 2516 
z
" transform="scale(0.015625)"/>
       </defs>
       <use xlink:href="#DejaVuSans-33"/>
       <use xlink:href="#DejaVuSans-68" transform="translate(63.623047 0)"/>
       <use xlink:href="#DejaVuSans-3a" transform="translate(127.001953 0)"/>
       <use xlink:href="#DejaVuSans-31" transform="translate(160.693359 0)"/>
       <use xlink:href="#DejaVuSans-35" transform="translate(224.316406 0)"/>
       <use xlink:href="#DejaVuSans-6d" transform="translate(287.939453 0)"/>
      </g>
     </g>
    </g>
    <g id="xtick_5">
     <g id="line2d_5">
      <g>
       <use xlink:href="#ma47aa538ac" x="280.070982" y="288.430125" style="stroke: #000000; stroke-width: 0.8"/>
      </g>
     </g>
     <g id="text_5">
      <!-- 4h:20m -->
      <g transform="translate(260.803795 303.028562) scale(0.1 -0.1)">
       <defs>
        <path id="DejaVuSans-34" d="M 2419 4116 
L 825 1625 
L 2419 1625 
L 2419 4116 
z
M 2253 4666 
L 3047 4666 
L 3047 1625 
L 3713 1625 
L 3713 1100 
L 3047 1100 
L 3047 0 
L 2419 0 
L 2419 1100 
L 313 1100 
L 313 1709 
L 2253 4666 
z
" transform="scale(0.015625)"/>
       </defs>
       <use xlink:href="#DejaVuSans-34"/>
       <use xlink:href="#DejaVuSans-68" transform="translate(63.623047 0)"/>
       <use xlink:href="#DejaVuSans-3a" transform="translate(127.001953 0)"/>
       <use xlink:href="#DejaVuSans-32" transform="translate(160.693359 0)"/>
       <use xlink:href="#DejaVuSans-30" transform="translate(224.316406 0)"/>
       <use xlink:href="#DejaVuSans-6d" transform="translate(287.939453 0)"/>
      </g>
     </g>
    </g>
    <g id="xtick_6">
     <g id="line2d_6">
      <g>
       <use xlink:href="#ma47aa538ac" x="336.756696" y="288.430125" style="stroke: #000000; stroke-width: 0.8"/>
      </g>
     </g>
     <g id="text_6">
      <!-- 5h:25m -->
      <g transform="translate(317.489509 303.028562) scale(0.1 -0.1)">
       <use xlink:href="#DejaVuSans-35"/>
       <use xlink:href="#DejaVuSans-68" transform="translate(63.623047 0)"/>
       <use xlink:href="#DejaVuSans-3a" transform="translate(127.001953 0)"/>
       <use xlink:href="#DejaVuSans-32" transform="translate(160.693359 0)"/>
       <use xlink:href="#DejaVuSans-35" transform="translate(224.316406 0)"/>
       <use xlink:href="#DejaVuSans-6d" transform="translate(287.939453 0)"/>
      </g>
     </g>
    </g>
    <g id="xtick_7">
     <g id="line2d_7">
      <g>
       <use xlink:href="#ma47aa538ac" x="393.442411" y="288.430125" style="stroke: #000000; stroke-width: 0.8"/>
      </g>
     </g>
     <g id="text_7">
      <!-- 6h:30m -->
      <g transform="translate(374.175223 303.028562) scale(0.1 -0.1)">
       <defs>
        <path id="DejaVuSans-36" d="M 2113 2584 
Q 1688 2584 1439 2293 
Q 1191 2003 1191 1497 
Q 1191 994 1439 701 
Q 1688 409 2113 409 
Q 2538 409 2786 701 
Q 3034 994 3034 1497 
Q 3034 2003 2786 2293 
Q 2538 2584 2113 2584 
z
M 3366 4563 
L 3366 3988 
Q 3128 4100 2886 4159 
Q 2644 4219 2406 4219 
Q 1781 4219 1451 3797 
Q 1122 3375 1075 2522 
Q 1259 2794 1537 2939 
Q 1816 3084 2150 3084 
Q 2853 3084 3261 2657 
Q 3669 2231 3669 1497 
Q 3669 778 3244 343 
Q 2819 -91 2113 -91 
Q 1303 -91 875 529 
Q 447 1150 447 2328 
Q 447 3434 972 4092 
Q 1497 4750 2381 4750 
Q 2619 4750 2861 4703 
Q 3103 4656 3366 4563 
z
" transform="scale(0.015625)"/>
       </defs>
       <use xlink:href="#DejaVuSans-36"/>
       <use xlink:href="#DejaVuSans-68" transform="translate(63.623047 0)"/>
       <use xlink:href="#DejaVuSans-3a" transform="translate(127.001953 0)"/>
       <use xlink:href="#DejaVuSans-33" transform="translate(160.693359 0)"/>
       <use xlink:href="#DejaVuSans-30" transform="translate(224.316406 0)"/>
       <use xlink:href="#DejaVuSans-6d" transform="translate(287.939453 0)"/>
      </g>
     </g>
    </g>
    <g id="xtick_8">
     <g id="line2d_8">
      <g>
       <use xlink:href="#ma47aa538ac" x="450.128125" y="288.430125" style="stroke: #000000; stroke-width: 0.8"/>
      </g>
     </g>
     <g id="text_8">
      <!-- 7h:35m -->
      <g transform="translate(430.860938 303.028562) scale(0.1 -0.1)">
       <defs>
        <path id="DejaVuSans-37" d="M 525 4666 
L 3525 4666 
L 3525 4397 
L 1831 0 
L 1172 0 
L 2766 4134 
L 525 4134 
L 525 4666 
z
" transform="scale(0.015625)"/>
       </defs>
       <use xlink:href="#DejaVuSans-37"/>
       <use xlink:href="#DejaVuSans-68" transform="translate(63.623047 0)"/>
       <use xlink:href="#DejaVuSans-3a" transform="translate(127.001953 0)"/>
       <use xlink:href="#DejaVuSans-33" transform="translate(160.693359 0)"/>
       <use xlink:href="#DejaVuSans-35" transform="translate(224.316406 0)"/>
       <use xlink:href="#DejaVuSans-6d" transform="translate(287.939453 0)"/>
      </g>
     </g>
    </g>
    <g id="xtick_9">
     <g id="line2d_9">
      <g>
       <use xlink:href="#ma47aa538ac" x="506.813839" y="288.430125" style="stroke: #000000; stroke-width: 0.8"/>
      </g>
     </g>
     <g id="text_9">
      <!-- 8h:40m -->
      <g transform="translate(487.546652 303.028562) scale(0.1 -0.1)">
       <defs>
        <path id="DejaVuSans-38" d="M 2034 2216 
Q 1584 2216 1326 1975 
Q 1069 1734 1069 1313 
Q 1069 891 1326 650 
Q 1584 409 2034 409 
Q 2484 409 2743 651 
Q 3003 894 3003 1313 
Q 3003 1734 2745 1975 
Q 2488 2216 2034 2216 
z
M 1403 2484 
Q 997 2584 770 2862 
Q 544 3141 544 3541 
Q 544 4100 942 4425 
Q 1341 4750 2034 4750 
Q 2731 4750 3128 4425 
Q 3525 4100 3525 3541 
Q 3525 3141 3298 2862 
Q 3072 2584 2669 2484 
Q 3125 2378 3379 2068 
Q 3634 1759 3634 1313 
Q 3634 634 3220 271 
Q 2806 -91 2034 -91 
Q 1263 -91 848 271 
Q 434 634 434 1313 
Q 434 1759 690 2068 
Q 947 2378 1403 2484 
z
M 1172 3481 
Q 1172 3119 1398 2916 
Q 1625 2713 2034 2713 
Q 2441 2713 2670 2916 
Q 2900 3119 2900 3481 
Q 2900 3844 2670 4047 
Q 2441 4250 2034 4250 
Q 1625 4250 1398 4047 
Q 1172 3844 1172 3481 
z
" transform="scale(0.015625)"/>
       </defs>
       <use xlink:href="#DejaVuSans-38"/>
       <use xlink:href="#DejaVuSans-68" transform="translate(63.623047 0)"/>
       <use xlink:href="#DejaVuSans-3a" transform="translate(127.001953 0)"/>
       <use xlink:href="#DejaVuSans-34" transform="translate(160.693359 0)"/>
       <use xlink:href="#DejaVuSans-30" transform="translate(224.316406 0)"/>
       <use xlink:href="#DejaVuSans-6d" transform="translate(287.939453 0)"/>
      </g>
     </g>
    </g>
    <g id="xtick_10">
     <g id="line2d_10">
      <g>
       <use xlink:href="#ma47aa538ac" x="563.499554" y="288.430125" style="stroke: #000000; stroke-width: 0.8"/>
      </g>
     </g>
     <g id="text_10">
      <!-- 9h:45m -->
      <g transform="translate(544.232366 303.028562) scale(0.1 -0.1)">
       <defs>
        <path id="DejaVuSans-39" d="M 703 97 
L 703 672 
Q 941 559 1184 500 
Q 1428 441 1663 441 
Q 2288 441 2617 861 
Q 2947 1281 2994 2138 
Q 2813 1869 2534 1725 
Q 2256 1581 1919 1581 
Q 1219 1581 811 2004 
Q 403 2428 403 3163 
Q 403 3881 828 4315 
Q 1253 4750 1959 4750 
Q 2769 4750 3195 4129 
Q 3622 3509 3622 2328 
Q 3622 1225 3098 567 
Q 2575 -91 1691 -91 
Q 1453 -91 1209 -44 
Q 966 3 703 97 
z
M 1959 2075 
Q 2384 2075 2632 2365 
Q 2881 2656 2881 3163 
Q 2881 3666 2632 3958 
Q 2384 4250 1959 4250 
Q 1534 4250 1286 3958 
Q 1038 3666 1038 3163 
Q 1038 2656 1286 2365 
Q 1534 2075 1959 2075 
z
" transform="scale(0.015625)"/>
       </defs>
       <use xlink:href="#DejaVuSans-39"/>
       <use xlink:href="#DejaVuSans-68" transform="translate(63.623047 0)"/>
       <use xlink:href="#DejaVuSans-3a" transform="translate(127.001953 0)"/>
       <use xlink:href="#DejaVuSans-34" transform="translate(160.693359 0)"/>
       <use xlink:href="#DejaVuSans-35" transform="translate(224.316406 0)"/>
       <use xlink:href="#DejaVuSans-6d" transform="translate(287.939453 0)"/>
      </g>
     </g>
    </g>
    <g id="xtick_11">
     <g id="line2d_11">
      <g>
       <use xlink:href="#ma47aa538ac" x="620.185268" y="288.430125" style="stroke: #000000; stroke-width: 0.8"/>
      </g>
     </g>
     <g id="text_11">
      <!-- 10h:50m -->
      <g transform="translate(597.73683 303.028562) scale(0.1 -0.1)">
       <use xlink:href="#DejaVuSans-31"/>
       <use xlink:href="#DejaVuSans-30" transform="translate(63.623047 0)"/>
       <use xlink:href="#DejaVuSans-68" transform="translate(127.246094 0)"/>
       <use xlink:href="#DejaVuSans-3a" transform="translate(190.625 0)"/>
       <use xlink:href="#DejaVuSans-35" transform="translate(224.316406 0)"/>
       <use xlink:href="#DejaVuSans-30" transform="translate(287.939453 0)"/>
       <use xlink:href="#DejaVuSans-6d" transform="translate(351.5625 0)"/>
      </g>
     </g>
    </g>
    <g id="xtick_12">
     <g id="line2d_12">
      <g>
       <use xlink:href="#ma47aa538ac" x="676.870982" y="288.430125" style="stroke: #000000; stroke-width: 0.8"/>
      </g>
     </g>
     <g id="text_12">
      <!-- 11h:55m -->
      <g transform="translate(654.422545 303.028562) scale(0.1 -0.1)">
       <use xlink:href="#DejaVuSans-31"/>
       <use xlink:href="#DejaVuSans-31" transform="translate(63.623047 0)"/>
       <use xlink:href="#DejaVuSans-68" transform="translate(127.246094 0)"/>
       <use xlink:href="#DejaVuSans-3a" transform="translate(190.625 0)"/>
       <use xlink:href="#DejaVuSans-35" transform="translate(224.316406 0)"/>
       <use xlink:href="#DejaVuSans-35" transform="translate(287.939453 0)"/>
       <use xlink:href="#DejaVuSans-6d" transform="translate(351.5625 0)"/>
      </g>
     </g>
    </g>
    <g id="xtick_13">
     <g id="line2d_13">
      <g>
       <use xlink:href="#ma47aa538ac" x="733.556696" y="288.430125" style="stroke: #000000; stroke-width: 0.8"/>
      </g>
     </g>
     <g id="text_13">
      <!-- 13h -->
      <g transform="translate(724.025446 303.028562) scale(0.1 -0.1)">
       <use xlink:href="#DejaVuSans-31"/>
       <use xlink:href="#DejaVuSans-33" transform="translate(63.623047 0)"/>
       <use xlink:href="#DejaVuSans-68" transform="translate(127.246094 0)"/>
      </g>
     </g>
    </g>
    <g id="text_14">
     <!-- Time (hour:minute) -->
     <g transform="translate(362.041094 316.706687) scale(0.1 -0.1)">
      <defs>
       <path id="DejaVuSans-54" d="M -19 4666 
L 3928 4666 
L 3928 4134 
L 2272 4134 
L 2272 0 
L 1638 0 
L 1638 4134 
L -19 4134 
L -19 4666 
z
" transform="scale(0.015625)"/>
       <path id="DejaVuSans-69" d="M 603 3500 
L 1178 3500 
L 1178 0 
L 603 0 
L 603 3500 
z
M 603 4863 
L 1178 4863 
L 1178 4134 
L 603 4134 
L 603 4863 
z
" transform="scale(0.015625)"/>
       <path id="DejaVuSans-65" d="M 3597 1894 
L 3597 1613 
L 953 1613 
Q 991 1019 1311 708 
Q 1631 397 2203 397 
Q 2534 397 2845 478 
Q 3156 559 3463 722 
L 3463 178 
Q 3153 47 2828 -22 
Q 2503 -91 2169 -91 
Q 1331 -91 842 396 
Q 353 884 353 1716 
Q 353 2575 817 3079 
Q 1281 3584 2069 3584 
Q 2775 3584 3186 3129 
Q 3597 2675 3597 1894 
z
M 3022 2063 
Q 3016 2534 2758 2815 
Q 2500 3097 2075 3097 
Q 1594 3097 1305 2825 
Q 1016 2553 972 2059 
L 3022 2063 
z
" transform="scale(0.015625)"/>
       <path id="DejaVuSans-20" transform="scale(0.015625)"/>
       <path id="DejaVuSans-28" d="M 1984 4856 
Q 1566 4138 1362 3434 
Q 1159 2731 1159 2009 
Q 1159 1288 1364 580 
Q 1569 -128 1984 -844 
L 1484 -844 
Q 1016 -109 783 600 
Q 550 1309 550 2009 
Q 550 2706 781 3412 
Q 1013 4119 1484 4856 
L 1984 4856 
z
" transform="scale(0.015625)"/>
       <path id="DejaVuSans-6f" d="M 1959 3097 
Q 1497 3097 1228 2736 
Q 959 2375 959 1747 
Q 959 1119 1226 758 
Q 1494 397 1959 397 
Q 2419 397 2687 759 
Q 2956 1122 2956 1747 
Q 2956 2369 2687 2733 
Q 2419 3097 1959 3097 
z
M 1959 3584 
Q 2709 3584 3137 3096 
Q 3566 2609 3566 1747 
Q 3566 888 3137 398 
Q 2709 -91 1959 -91 
Q 1206 -91 779 398 
Q 353 888 353 1747 
Q 353 2609 779 3096 
Q 1206 3584 1959 3584 
z
" transform="scale(0.015625)"/>
       <path id="DejaVuSans-75" d="M 544 1381 
L 544 3500 
L 1119 3500 
L 1119 1403 
Q 1119 906 1312 657 
Q 1506 409 1894 409 
Q 2359 409 2629 706 
Q 2900 1003 2900 1516 
L 2900 3500 
L 3475 3500 
L 3475 0 
L 2900 0 
L 2900 538 
Q 2691 219 2414 64 
Q 2138 -91 1772 -91 
Q 1169 -91 856 284 
Q 544 659 544 1381 
z
M 1991 3584 
L 1991 3584 
z
" transform="scale(0.015625)"/>
       <path id="DejaVuSans-72" d="M 2631 2963 
Q 2534 3019 2420 3045 
Q 2306 3072 2169 3072 
Q 1681 3072 1420 2755 
Q 1159 2438 1159 1844 
L 1159 0 
L 581 0 
L 581 3500 
L 1159 3500 
L 1159 2956 
Q 1341 3275 1631 3429 
Q 1922 3584 2338 3584 
Q 2397 3584 2469 3576 
Q 2541 3569 2628 3553 
L 2631 2963 
z
" transform="scale(0.015625)"/>
       <path id="DejaVuSans-6e" d="M 3513 2113 
L 3513 0 
L 2938 0 
L 2938 2094 
Q 2938 2591 2744 2837 
Q 2550 3084 2163 3084 
Q 1697 3084 1428 2787 
Q 1159 2491 1159 1978 
L 1159 0 
L 581 0 
L 581 3500 
L 1159 3500 
L 1159 2956 
Q 1366 3272 1645 3428 
Q 1925 3584 2291 3584 
Q 2894 3584 3203 3211 
Q 3513 2838 3513 2113 
z
" transform="scale(0.015625)"/>
       <path id="DejaVuSans-74" d="M 1172 4494 
L 1172 3500 
L 2356 3500 
L 2356 3053 
L 1172 3053 
L 1172 1153 
Q 1172 725 1289 603 
Q 1406 481 1766 481 
L 2356 481 
L 2356 0 
L 1766 0 
Q 1100 0 847 248 
Q 594 497 594 1153 
L 594 3053 
L 172 3053 
L 172 3500 
L 594 3500 
L 594 4494 
L 1172 4494 
z
" transform="scale(0.015625)"/>
       <path id="DejaVuSans-29" d="M 513 4856 
L 1013 4856 
Q 1481 4119 1714 3412 
Q 1947 2706 1947 2009 
Q 1947 1309 1714 600 
Q 1481 -109 1013 -844 
L 513 -844 
Q 928 -128 1133 580 
Q 1338 1288 1338 2009 
Q 1338 2731 1133 3434 
Q 928 4138 513 4856 
z
" transform="scale(0.015625)"/>
      </defs>
      <use xlink:href="#DejaVuSans-54"/>
      <use xlink:href="#DejaVuSans-69" transform="translate(57.958984 0)"/>
      <use xlink:href="#DejaVuSans-6d" transform="translate(85.742188 0)"/>
      <use xlink:href="#DejaVuSans-65" transform="translate(183.154297 0)"/>
      <use xlink:href="#DejaVuSans-20" transform="translate(244.677734 0)"/>
      <use xlink:href="#DejaVuSans-28" transform="translate(276.464844 0)"/>
      <use xlink:href="#DejaVuSans-68" transform="translate(315.478516 0)"/>
      <use xlink:href="#DejaVuSans-6f" transform="translate(378.857422 0)"/>
      <use xlink:href="#DejaVuSans-75" transform="translate(440.039062 0)"/>
      <use xlink:href="#DejaVuSans-72" transform="translate(503.417969 0)"/>
      <use xlink:href="#DejaVuSans-3a" transform="translate(542.78125 0)"/>
      <use xlink:href="#DejaVuSans-6d" transform="translate(576.472656 0)"/>
      <use xlink:href="#DejaVuSans-69" transform="translate(673.884766 0)"/>
      <use xlink:href="#DejaVuSans-6e" transform="translate(701.667969 0)"/>
      <use xlink:href="#DejaVuSans-75" transform="translate(765.046875 0)"/>
      <use xlink:href="#DejaVuSans-74" transform="translate(828.425781 0)"/>
      <use xlink:href="#DejaVuSans-65" transform="translate(867.634766 0)"/>
      <use xlink:href="#DejaVuSans-29" transform="translate(929.158203 0)"/>
     </g>
    </g>
   </g>
   <g id="matplotlib.axis_2">
    <g id="ytick_1">
     <g id="line2d_14">
      <defs>
       <path id="m533278c9e9" d="M 0 0 
L -3.5 0 
" style="stroke: #000000; stroke-width: 0.8"/>
      </defs>
      <g>
       <use xlink:href="#m533278c9e9" x="53.328125" y="276.334125" style="stroke: #000000; stroke-width: 0.8"/>
      </g>
     </g>
     <g id="text_15">
      <!-- 0 -->
      <g transform="translate(39.965625 280.133344) scale(0.1 -0.1)">
       <use xlink:href="#DejaVuSans-30"/>
      </g>
     </g>
    </g>
    <g id="ytick_2">
     <g id="line2d_15">
      <g>
       <use xlink:href="#m533278c9e9" x="53.328125" y="243.518064" style="stroke: #000000; stroke-width: 0.8"/>
      </g>
     </g>
     <g id="text_16">
      <!-- 500 -->
      <g transform="translate(27.240625 247.317283) scale(0.1 -0.1)">
       <use xlink:href="#DejaVuSans-35"/>
       <use xlink:href="#DejaVuSans-30" transform="translate(63.623047 0)"/>
       <use xlink:href="#DejaVuSans-30" transform="translate(127.246094 0)"/>
      </g>
     </g>
    </g>
    <g id="ytick_3">
     <g id="line2d_16">
      <g>
       <use xlink:href="#m533278c9e9" x="53.328125" y="210.702003" style="stroke: #000000; stroke-width: 0.8"/>
      </g>
     </g>
     <g id="text_17">
      <!-- 1000 -->
      <g transform="translate(20.878125 214.501222) scale(0.1 -0.1)">
       <use xlink:href="#DejaVuSans-31"/>
       <use xlink:href="#DejaVuSans-30" transform="translate(63.623047 0)"/>
       <use xlink:href="#DejaVuSans-30" transform="translate(127.246094 0)"/>
       <use xlink:href="#DejaVuSans-30" transform="translate(190.869141 0)"/>
      </g>
     </g>
    </g>
    <g id="ytick_4">
     <g id="line2d_17">
      <g>
       <use xlink:href="#m533278c9e9" x="53.328125" y="177.885943" style="stroke: #000000; stroke-width: 0.8"/>
      </g>
     </g>
     <g id="text_18">
      <!-- 1500 -->
      <g transform="translate(20.878125 181.685161) scale(0.1 -0.1)">
       <use xlink:href="#DejaVuSans-31"/>
       <use xlink:href="#DejaVuSans-35" transform="translate(63.623047 0)"/>
       <use xlink:href="#DejaVuSans-30" transform="translate(127.246094 0)"/>
       <use xlink:href="#DejaVuSans-30" transform="translate(190.869141 0)"/>
      </g>
     </g>
    </g>
    <g id="ytick_5">
     <g id="line2d_18">
      <g>
       <use xlink:href="#m533278c9e9" x="53.328125" y="145.069882" style="stroke: #000000; stroke-width: 0.8"/>
      </g>
     </g>
     <g id="text_19">
      <!-- 2000 -->
      <g transform="translate(20.878125 148.869101) scale(0.1 -0.1)">
       <use xlink:href="#DejaVuSans-32"/>
       <use xlink:href="#DejaVuSans-30" transform="translate(63.623047 0)"/>
       <use xlink:href="#DejaVuSans-30" transform="translate(127.246094 0)"/>
       <use xlink:href="#DejaVuSans-30" transform="translate(190.869141 0)"/>
      </g>
     </g>
    </g>
    <g id="ytick_6">
     <g id="line2d_19">
      <g>
       <use xlink:href="#m533278c9e9" x="53.328125" y="112.253821" style="stroke: #000000; stroke-width: 0.8"/>
      </g>
     </g>
     <g id="text_20">
      <!-- 2500 -->
      <g transform="translate(20.878125 116.05304) scale(0.1 -0.1)">
       <use xlink:href="#DejaVuSans-32"/>
       <use xlink:href="#DejaVuSans-35" transform="translate(63.623047 0)"/>
       <use xlink:href="#DejaVuSans-30" transform="translate(127.246094 0)"/>
       <use xlink:href="#DejaVuSans-30" transform="translate(190.869141 0)"/>
      </g>
     </g>
    </g>
    <g id="ytick_7">
     <g id="line2d_20">
      <g>
       <use xlink:href="#m533278c9e9" x="53.328125" y="79.43776" style="stroke: #000000; stroke-width: 0.8"/>
      </g>
     </g>
     <g id="text_21">
      <!-- 3000 -->
      <g transform="translate(20.878125 83.236979) scale(0.1 -0.1)">
       <use xlink:href="#DejaVuSans-33"/>
       <use xlink:href="#DejaVuSans-30" transform="translate(63.623047 0)"/>
       <use xlink:href="#DejaVuSans-30" transform="translate(127.246094 0)"/>
       <use xlink:href="#DejaVuSans-30" transform="translate(190.869141 0)"/>
      </g>
     </g>
    </g>
    <g id="ytick_8">
     <g id="line2d_21">
      <g>
       <use xlink:href="#m533278c9e9" x="53.328125" y="46.6217" style="stroke: #000000; stroke-width: 0.8"/>
      </g>
     </g>
     <g id="text_22">
      <!-- 3500 -->
      <g transform="translate(20.878125 50.420918) scale(0.1 -0.1)">
       <use xlink:href="#DejaVuSans-33"/>
       <use xlink:href="#DejaVuSans-35" transform="translate(63.623047 0)"/>
       <use xlink:href="#DejaVuSans-30" transform="translate(127.246094 0)"/>
       <use xlink:href="#DejaVuSans-30" transform="translate(190.869141 0)"/>
      </g>
     </g>
    </g>
    <g id="text_23">
     <!-- Code branch coverage -->
     <g transform="translate(14.798438 211.949125) rotate(-90) scale(0.1 -0.1)">
      <defs>
       <path id="DejaVuSans-43" d="M 4122 4306 
L 4122 3641 
Q 3803 3938 3442 4084 
Q 3081 4231 2675 4231 
Q 1875 4231 1450 3742 
Q 1025 3253 1025 2328 
Q 1025 1406 1450 917 
Q 1875 428 2675 428 
Q 3081 428 3442 575 
Q 3803 722 4122 1019 
L 4122 359 
Q 3791 134 3420 21 
Q 3050 -91 2638 -91 
Q 1578 -91 968 557 
Q 359 1206 359 2328 
Q 359 3453 968 4101 
Q 1578 4750 2638 4750 
Q 3056 4750 3426 4639 
Q 3797 4528 4122 4306 
z
" transform="scale(0.015625)"/>
       <path id="DejaVuSans-64" d="M 2906 2969 
L 2906 4863 
L 3481 4863 
L 3481 0 
L 2906 0 
L 2906 525 
Q 2725 213 2448 61 
Q 2172 -91 1784 -91 
Q 1150 -91 751 415 
Q 353 922 353 1747 
Q 353 2572 751 3078 
Q 1150 3584 1784 3584 
Q 2172 3584 2448 3432 
Q 2725 3281 2906 2969 
z
M 947 1747 
Q 947 1113 1208 752 
Q 1469 391 1925 391 
Q 2381 391 2643 752 
Q 2906 1113 2906 1747 
Q 2906 2381 2643 2742 
Q 2381 3103 1925 3103 
Q 1469 3103 1208 2742 
Q 947 2381 947 1747 
z
" transform="scale(0.015625)"/>
       <path id="DejaVuSans-62" d="M 3116 1747 
Q 3116 2381 2855 2742 
Q 2594 3103 2138 3103 
Q 1681 3103 1420 2742 
Q 1159 2381 1159 1747 
Q 1159 1113 1420 752 
Q 1681 391 2138 391 
Q 2594 391 2855 752 
Q 3116 1113 3116 1747 
z
M 1159 2969 
Q 1341 3281 1617 3432 
Q 1894 3584 2278 3584 
Q 2916 3584 3314 3078 
Q 3713 2572 3713 1747 
Q 3713 922 3314 415 
Q 2916 -91 2278 -91 
Q 1894 -91 1617 61 
Q 1341 213 1159 525 
L 1159 0 
L 581 0 
L 581 4863 
L 1159 4863 
L 1159 2969 
z
" transform="scale(0.015625)"/>
       <path id="DejaVuSans-61" d="M 2194 1759 
Q 1497 1759 1228 1600 
Q 959 1441 959 1056 
Q 959 750 1161 570 
Q 1363 391 1709 391 
Q 2188 391 2477 730 
Q 2766 1069 2766 1631 
L 2766 1759 
L 2194 1759 
z
M 3341 1997 
L 3341 0 
L 2766 0 
L 2766 531 
Q 2569 213 2275 61 
Q 1981 -91 1556 -91 
Q 1019 -91 701 211 
Q 384 513 384 1019 
Q 384 1609 779 1909 
Q 1175 2209 1959 2209 
L 2766 2209 
L 2766 2266 
Q 2766 2663 2505 2880 
Q 2244 3097 1772 3097 
Q 1472 3097 1187 3025 
Q 903 2953 641 2809 
L 641 3341 
Q 956 3463 1253 3523 
Q 1550 3584 1831 3584 
Q 2591 3584 2966 3190 
Q 3341 2797 3341 1997 
z
" transform="scale(0.015625)"/>
       <path id="DejaVuSans-63" d="M 3122 3366 
L 3122 2828 
Q 2878 2963 2633 3030 
Q 2388 3097 2138 3097 
Q 1578 3097 1268 2742 
Q 959 2388 959 1747 
Q 959 1106 1268 751 
Q 1578 397 2138 397 
Q 2388 397 2633 464 
Q 2878 531 3122 666 
L 3122 134 
Q 2881 22 2623 -34 
Q 2366 -91 2075 -91 
Q 1284 -91 818 406 
Q 353 903 353 1747 
Q 353 2603 823 3093 
Q 1294 3584 2113 3584 
Q 2378 3584 2631 3529 
Q 2884 3475 3122 3366 
z
" transform="scale(0.015625)"/>
       <path id="DejaVuSans-76" d="M 191 3500 
L 800 3500 
L 1894 563 
L 2988 3500 
L 3597 3500 
L 2284 0 
L 1503 0 
L 191 3500 
z
" transform="scale(0.015625)"/>
       <path id="DejaVuSans-67" d="M 2906 1791 
Q 2906 2416 2648 2759 
Q 2391 3103 1925 3103 
Q 1463 3103 1205 2759 
Q 947 2416 947 1791 
Q 947 1169 1205 825 
Q 1463 481 1925 481 
Q 2391 481 2648 825 
Q 2906 1169 2906 1791 
z
M 3481 434 
Q 3481 -459 3084 -895 
Q 2688 -1331 1869 -1331 
Q 1566 -1331 1297 -1286 
Q 1028 -1241 775 -1147 
L 775 -588 
Q 1028 -725 1275 -790 
Q 1522 -856 1778 -856 
Q 2344 -856 2625 -561 
Q 2906 -266 2906 331 
L 2906 616 
Q 2728 306 2450 153 
Q 2172 0 1784 0 
Q 1141 0 747 490 
Q 353 981 353 1791 
Q 353 2603 747 3093 
Q 1141 3584 1784 3584 
Q 2172 3584 2450 3431 
Q 2728 3278 2906 2969 
L 2906 3500 
L 3481 3500 
L 3481 434 
z
" transform="scale(0.015625)"/>
      </defs>
      <use xlink:href="#DejaVuSans-43"/>
      <use xlink:href="#DejaVuSans-6f" transform="translate(69.824219 0)"/>
      <use xlink:href="#DejaVuSans-64" transform="translate(131.005859 0)"/>
      <use xlink:href="#DejaVuSans-65" transform="translate(194.482422 0)"/>
      <use xlink:href="#DejaVuSans-20" transform="translate(256.005859 0)"/>
      <use xlink:href="#DejaVuSans-62" transform="translate(287.792969 0)"/>
      <use xlink:href="#DejaVuSans-72" transform="translate(351.269531 0)"/>
      <use xlink:href="#DejaVuSans-61" transform="translate(392.382812 0)"/>
      <use xlink:href="#DejaVuSans-6e" transform="translate(453.662109 0)"/>
      <use xlink:href="#DejaVuSans-63" transform="translate(517.041016 0)"/>
      <use xlink:href="#DejaVuSans-68" transform="translate(572.021484 0)"/>
      <use xlink:href="#DejaVuSans-20" transform="translate(635.400391 0)"/>
      <use xlink:href="#DejaVuSans-63" transform="translate(667.1875 0)"/>
      <use xlink:href="#DejaVuSans-6f" transform="translate(722.167969 0)"/>
      <use xlink:href="#DejaVuSans-76" transform="translate(783.349609 0)"/>
      <use xlink:href="#DejaVuSans-65" transform="translate(842.529297 0)"/>
      <use xlink:href="#DejaVuSans-72" transform="translate(904.052734 0)"/>
      <use xlink:href="#DejaVuSans-61" transform="translate(945.166016 0)"/>
      <use xlink:href="#DejaVuSans-67" transform="translate(1006.445312 0)"/>
      <use xlink:href="#DejaVuSans-65" transform="translate(1069.921875 0)"/>
     </g>
    </g>
   </g>
   <g id="line2d_22">
    <path d="M 53.328125 276.334125 
L 66.409444 91.284358 
L 79.490762 91.087462 
L 92.572081 90.890566 
L 105.6534 88.462177 
L 118.734718 88.363729 
L 131.816037 88.330913 
L 144.897356 88.265281 
L 157.978674 85.968156 
L 171.059993 85.836892 
L 184.141312 85.672812 
L 197.22263 85.475916 
L 210.303949 85.410283 
L 223.385268 85.410283 
L 236.466587 85.410283 
L 249.547905 85.410283 
L 262.629224 85.311835 
L 275.710543 85.279019 
L 288.791861 85.279019 
L 301.87318 85.279019 
L 314.954499 85.279019 
L 328.035817 85.279019 
L 341.117136 85.279019 
L 354.198455 85.180571 
L 367.279773 85.114939 
L 380.361092 85.114939 
L 393.442411 85.082123 
L 406.523729 85.049307 
L 419.605048 85.049307 
L 432.686367 85.016491 
L 445.767685 85.016491 
L 458.849004 85.016491 
L 471.930323 85.016491 
L 485.011641 84.983675 
L 498.09296 84.983675 
L 511.174279 84.983675 
L 524.255598 84.950859 
L 537.336916 84.950859 
L 550.418235 84.918043 
L 563.499554 84.918043 
L 576.580872 84.918043 
L 589.662191 84.918043 
L 602.74351 84.918043 
L 615.824828 84.918043 
L 628.906147 84.918043 
L 641.987466 84.918043 
L 655.068784 84.918043 
L 668.150103 84.918043 
L 681.231422 84.360169 
L 694.31274 84.360169 
L 707.394059 84.360169 
L 720.475378 84.360169 
L 733.556696 84.360169 
" clip-path="url(#pb2032102f0)" style="fill: none; stroke: #d62728; stroke-width: 1.5; stroke-linecap: square"/>
    <defs>
     <path id="me8bf616749" d="M 0 -3 
L -3 3 
L 3 3 
z
" style="stroke: #ffffff; stroke-width: 0.75; stroke-linejoin: miter"/>
    </defs>
    <g clip-path="url(#pb2032102f0)">
     <use xlink:href="#me8bf616749" x="53.328125" y="276.334125" style="fill: #d62728; stroke: #ffffff; stroke-width: 0.75; stroke-linejoin: miter"/>
     <use xlink:href="#me8bf616749" x="66.409444" y="91.284358" style="fill: #d62728; stroke: #ffffff; stroke-width: 0.75; stroke-linejoin: miter"/>
     <use xlink:href="#me8bf616749" x="79.490762" y="91.087462" style="fill: #d62728; stroke: #ffffff; stroke-width: 0.75; stroke-linejoin: miter"/>
     <use xlink:href="#me8bf616749" x="92.572081" y="90.890566" style="fill: #d62728; stroke: #ffffff; stroke-width: 0.75; stroke-linejoin: miter"/>
     <use xlink:href="#me8bf616749" x="105.6534" y="88.462177" style="fill: #d62728; stroke: #ffffff; stroke-width: 0.75; stroke-linejoin: miter"/>
     <use xlink:href="#me8bf616749" x="118.734718" y="88.363729" style="fill: #d62728; stroke: #ffffff; stroke-width: 0.75; stroke-linejoin: miter"/>
     <use xlink:href="#me8bf616749" x="131.816037" y="88.330913" style="fill: #d62728; stroke: #ffffff; stroke-width: 0.75; stroke-linejoin: miter"/>
     <use xlink:href="#me8bf616749" x="144.897356" y="88.265281" style="fill: #d62728; stroke: #ffffff; stroke-width: 0.75; stroke-linejoin: miter"/>
     <use xlink:href="#me8bf616749" x="157.978674" y="85.968156" style="fill: #d62728; stroke: #ffffff; stroke-width: 0.75; stroke-linejoin: miter"/>
     <use xlink:href="#me8bf616749" x="171.059993" y="85.836892" style="fill: #d62728; stroke: #ffffff; stroke-width: 0.75; stroke-linejoin: miter"/>
     <use xlink:href="#me8bf616749" x="184.141312" y="85.672812" style="fill: #d62728; stroke: #ffffff; stroke-width: 0.75; stroke-linejoin: miter"/>
     <use xlink:href="#me8bf616749" x="197.22263" y="85.475916" style="fill: #d62728; stroke: #ffffff; stroke-width: 0.75; stroke-linejoin: miter"/>
     <use xlink:href="#me8bf616749" x="210.303949" y="85.410283" style="fill: #d62728; stroke: #ffffff; stroke-width: 0.75; stroke-linejoin: miter"/>
     <use xlink:href="#me8bf616749" x="223.385268" y="85.410283" style="fill: #d62728; stroke: #ffffff; stroke-width: 0.75; stroke-linejoin: miter"/>
     <use xlink:href="#me8bf616749" x="236.466587" y="85.410283" style="fill: #d62728; stroke: #ffffff; stroke-width: 0.75; stroke-linejoin: miter"/>
     <use xlink:href="#me8bf616749" x="249.547905" y="85.410283" style="fill: #d62728; stroke: #ffffff; stroke-width: 0.75; stroke-linejoin: miter"/>
     <use xlink:href="#me8bf616749" x="262.629224" y="85.311835" style="fill: #d62728; stroke: #ffffff; stroke-width: 0.75; stroke-linejoin: miter"/>
     <use xlink:href="#me8bf616749" x="275.710543" y="85.279019" style="fill: #d62728; stroke: #ffffff; stroke-width: 0.75; stroke-linejoin: miter"/>
     <use xlink:href="#me8bf616749" x="288.791861" y="85.279019" style="fill: #d62728; stroke: #ffffff; stroke-width: 0.75; stroke-linejoin: miter"/>
     <use xlink:href="#me8bf616749" x="301.87318" y="85.279019" style="fill: #d62728; stroke: #ffffff; stroke-width: 0.75; stroke-linejoin: miter"/>
     <use xlink:href="#me8bf616749" x="314.954499" y="85.279019" style="fill: #d62728; stroke: #ffffff; stroke-width: 0.75; stroke-linejoin: miter"/>
     <use xlink:href="#me8bf616749" x="328.035817" y="85.279019" style="fill: #d62728; stroke: #ffffff; stroke-width: 0.75; stroke-linejoin: miter"/>
     <use xlink:href="#me8bf616749" x="341.117136" y="85.279019" style="fill: #d62728; stroke: #ffffff; stroke-width: 0.75; stroke-linejoin: miter"/>
     <use xlink:href="#me8bf616749" x="354.198455" y="85.180571" style="fill: #d62728; stroke: #ffffff; stroke-width: 0.75; stroke-linejoin: miter"/>
     <use xlink:href="#me8bf616749" x="367.279773" y="85.114939" style="fill: #d62728; stroke: #ffffff; stroke-width: 0.75; stroke-linejoin: miter"/>
     <use xlink:href="#me8bf616749" x="380.361092" y="85.114939" style="fill: #d62728; stroke: #ffffff; stroke-width: 0.75; stroke-linejoin: miter"/>
     <use xlink:href="#me8bf616749" x="393.442411" y="85.082123" style="fill: #d62728; stroke: #ffffff; stroke-width: 0.75; stroke-linejoin: miter"/>
     <use xlink:href="#me8bf616749" x="406.523729" y="85.049307" style="fill: #d62728; stroke: #ffffff; stroke-width: 0.75; stroke-linejoin: miter"/>
     <use xlink:href="#me8bf616749" x="419.605048" y="85.049307" style="fill: #d62728; stroke: #ffffff; stroke-width: 0.75; stroke-linejoin: miter"/>
     <use xlink:href="#me8bf616749" x="432.686367" y="85.016491" style="fill: #d62728; stroke: #ffffff; stroke-width: 0.75; stroke-linejoin: miter"/>
     <use xlink:href="#me8bf616749" x="445.767685" y="85.016491" style="fill: #d62728; stroke: #ffffff; stroke-width: 0.75; stroke-linejoin: miter"/>
     <use xlink:href="#me8bf616749" x="458.849004" y="85.016491" style="fill: #d62728; stroke: #ffffff; stroke-width: 0.75; stroke-linejoin: miter"/>
     <use xlink:href="#me8bf616749" x="471.930323" y="85.016491" style="fill: #d62728; stroke: #ffffff; stroke-width: 0.75; stroke-linejoin: miter"/>
     <use xlink:href="#me8bf616749" x="485.011641" y="84.983675" style="fill: #d62728; stroke: #ffffff; stroke-width: 0.75; stroke-linejoin: miter"/>
     <use xlink:href="#me8bf616749" x="498.09296" y="84.983675" style="fill: #d62728; stroke: #ffffff; stroke-width: 0.75; stroke-linejoin: miter"/>
     <use xlink:href="#me8bf616749" x="511.174279" y="84.983675" style="fill: #d62728; stroke: #ffffff; stroke-width: 0.75; stroke-linejoin: miter"/>
     <use xlink:href="#me8bf616749" x="524.255598" y="84.950859" style="fill: #d62728; stroke: #ffffff; stroke-width: 0.75; stroke-linejoin: miter"/>
     <use xlink:href="#me8bf616749" x="537.336916" y="84.950859" style="fill: #d62728; stroke: #ffffff; stroke-width: 0.75; stroke-linejoin: miter"/>
     <use xlink:href="#me8bf616749" x="550.418235" y="84.918043" style="fill: #d62728; stroke: #ffffff; stroke-width: 0.75; stroke-linejoin: miter"/>
     <use xlink:href="#me8bf616749" x="563.499554" y="84.918043" style="fill: #d62728; stroke: #ffffff; stroke-width: 0.75; stroke-linejoin: miter"/>
     <use xlink:href="#me8bf616749" x="576.580872" y="84.918043" style="fill: #d62728; stroke: #ffffff; stroke-width: 0.75; stroke-linejoin: miter"/>
     <use xlink:href="#me8bf616749" x="589.662191" y="84.918043" style="fill: #d62728; stroke: #ffffff; stroke-width: 0.75; stroke-linejoin: miter"/>
     <use xlink:href="#me8bf616749" x="602.74351" y="84.918043" style="fill: #d62728; stroke: #ffffff; stroke-width: 0.75; stroke-linejoin: miter"/>
     <use xlink:href="#me8bf616749" x="615.824828" y="84.918043" style="fill: #d62728; stroke: #ffffff; stroke-width: 0.75; stroke-linejoin: miter"/>
     <use xlink:href="#me8bf616749" x="628.906147" y="84.918043" style="fill: #d62728; stroke: #ffffff; stroke-width: 0.75; stroke-linejoin: miter"/>
     <use xlink:href="#me8bf616749" x="641.987466" y="84.918043" style="fill: #d62728; stroke: #ffffff; stroke-width: 0.75; stroke-linejoin: miter"/>
     <use xlink:href="#me8bf616749" x="655.068784" y="84.918043" style="fill: #d62728; stroke: #ffffff; stroke-width: 0.75; stroke-linejoin: miter"/>
     <use xlink:href="#me8bf616749" x="668.150103" y="84.918043" style="fill: #d62728; stroke: #ffffff; stroke-width: 0.75; stroke-linejoin: miter"/>
     <use xlink:href="#me8bf616749" x="681.231422" y="84.360169" style="fill: #d62728; stroke: #ffffff; stroke-width: 0.75; stroke-linejoin: miter"/>
     <use xlink:href="#me8bf616749" x="694.31274" y="84.360169" style="fill: #d62728; stroke: #ffffff; stroke-width: 0.75; stroke-linejoin: miter"/>
     <use xlink:href="#me8bf616749" x="707.394059" y="84.360169" style="fill: #d62728; stroke: #ffffff; stroke-width: 0.75; stroke-linejoin: miter"/>
     <use xlink:href="#me8bf616749" x="720.475378" y="84.360169" style="fill: #d62728; stroke: #ffffff; stroke-width: 0.75; stroke-linejoin: miter"/>
     <use xlink:href="#me8bf616749" x="733.556696" y="84.360169" style="fill: #d62728; stroke: #ffffff; stroke-width: 0.75; stroke-linejoin: miter"/>
    </g>
   </g>
   <g id="line2d_23">
    <path d="M 53.328125 276.334125 
L 66.409444 91.612519 
L 79.490762 90.989014 
L 92.572081 90.726485 
L 105.6534 90.332693 
L 118.734718 90.299876 
L 131.816037 90.299876 
L 144.897356 90.201428 
L 157.978674 87.641776 
L 171.059993 87.444879 
L 184.141312 86.952638 
L 197.22263 86.952638 
L 210.303949 86.887006 
L 223.385268 83.835113 
L 236.466587 83.736664 
L 249.547905 83.736664 
L 262.629224 83.736664 
L 275.710543 83.736664 
L 288.791861 83.736664 
L 301.87318 83.736664 
L 314.954499 83.736664 
L 328.035817 83.474136 
L 341.117136 83.474136 
L 354.198455 83.474136 
L 367.279773 83.408504 
L 380.361092 83.408504 
L 393.442411 83.408504 
L 406.523729 83.408504 
L 419.605048 83.408504 
L 432.686367 82.949079 
L 445.767685 82.817815 
L 458.849004 82.817815 
L 471.930323 82.817815 
L 485.011641 82.817815 
L 498.09296 82.817815 
L 511.174279 82.817815 
L 524.255598 82.817815 
L 537.336916 82.817815 
L 550.418235 82.817815 
L 563.499554 82.817815 
L 576.580872 82.817815 
L 589.662191 82.817815 
L 602.74351 82.817815 
L 615.824828 82.817815 
L 628.906147 82.817815 
L 641.987466 82.817815 
L 655.068784 82.817815 
L 668.150103 82.817815 
L 681.231422 82.817815 
L 694.31274 82.817815 
L 707.394059 82.817815 
L 720.475378 82.817815 
L 733.556696 82.817815 
" clip-path="url(#pb2032102f0)" style="fill: none; stroke: #c7c7c7; stroke-width: 1.5; stroke-linecap: square"/>
    <defs>
     <path id="ma4be19e9e4" d="M -3 -0 
L 3 3 
L 3 -3 
z
" style="stroke: #ffffff; stroke-width: 0.75; stroke-linejoin: miter"/>
    </defs>
    <g clip-path="url(#pb2032102f0)">
     <use xlink:href="#ma4be19e9e4" x="53.328125" y="276.334125" style="fill: #c7c7c7; stroke: #ffffff; stroke-width: 0.75; stroke-linejoin: miter"/>
     <use xlink:href="#ma4be19e9e4" x="66.409444" y="91.612519" style="fill: #c7c7c7; stroke: #ffffff; stroke-width: 0.75; stroke-linejoin: miter"/>
     <use xlink:href="#ma4be19e9e4" x="79.490762" y="90.989014" style="fill: #c7c7c7; stroke: #ffffff; stroke-width: 0.75; stroke-linejoin: miter"/>
     <use xlink:href="#ma4be19e9e4" x="92.572081" y="90.726485" style="fill: #c7c7c7; stroke: #ffffff; stroke-width: 0.75; stroke-linejoin: miter"/>
     <use xlink:href="#ma4be19e9e4" x="105.6534" y="90.332693" style="fill: #c7c7c7; stroke: #ffffff; stroke-width: 0.75; stroke-linejoin: miter"/>
     <use xlink:href="#ma4be19e9e4" x="118.734718" y="90.299876" style="fill: #c7c7c7; stroke: #ffffff; stroke-width: 0.75; stroke-linejoin: miter"/>
     <use xlink:href="#ma4be19e9e4" x="131.816037" y="90.299876" style="fill: #c7c7c7; stroke: #ffffff; stroke-width: 0.75; stroke-linejoin: miter"/>
     <use xlink:href="#ma4be19e9e4" x="144.897356" y="90.201428" style="fill: #c7c7c7; stroke: #ffffff; stroke-width: 0.75; stroke-linejoin: miter"/>
     <use xlink:href="#ma4be19e9e4" x="157.978674" y="87.641776" style="fill: #c7c7c7; stroke: #ffffff; stroke-width: 0.75; stroke-linejoin: miter"/>
     <use xlink:href="#ma4be19e9e4" x="171.059993" y="87.444879" style="fill: #c7c7c7; stroke: #ffffff; stroke-width: 0.75; stroke-linejoin: miter"/>
     <use xlink:href="#ma4be19e9e4" x="184.141312" y="86.952638" style="fill: #c7c7c7; stroke: #ffffff; stroke-width: 0.75; stroke-linejoin: miter"/>
     <use xlink:href="#ma4be19e9e4" x="197.22263" y="86.952638" style="fill: #c7c7c7; stroke: #ffffff; stroke-width: 0.75; stroke-linejoin: miter"/>
     <use xlink:href="#ma4be19e9e4" x="210.303949" y="86.887006" style="fill: #c7c7c7; stroke: #ffffff; stroke-width: 0.75; stroke-linejoin: miter"/>
     <use xlink:href="#ma4be19e9e4" x="223.385268" y="83.835113" style="fill: #c7c7c7; stroke: #ffffff; stroke-width: 0.75; stroke-linejoin: miter"/>
     <use xlink:href="#ma4be19e9e4" x="236.466587" y="83.736664" style="fill: #c7c7c7; stroke: #ffffff; stroke-width: 0.75; stroke-linejoin: miter"/>
     <use xlink:href="#ma4be19e9e4" x="249.547905" y="83.736664" style="fill: #c7c7c7; stroke: #ffffff; stroke-width: 0.75; stroke-linejoin: miter"/>
     <use xlink:href="#ma4be19e9e4" x="262.629224" y="83.736664" style="fill: #c7c7c7; stroke: #ffffff; stroke-width: 0.75; stroke-linejoin: miter"/>
     <use xlink:href="#ma4be19e9e4" x="275.710543" y="83.736664" style="fill: #c7c7c7; stroke: #ffffff; stroke-width: 0.75; stroke-linejoin: miter"/>
     <use xlink:href="#ma4be19e9e4" x="288.791861" y="83.736664" style="fill: #c7c7c7; stroke: #ffffff; stroke-width: 0.75; stroke-linejoin: miter"/>
     <use xlink:href="#ma4be19e9e4" x="301.87318" y="83.736664" style="fill: #c7c7c7; stroke: #ffffff; stroke-width: 0.75; stroke-linejoin: miter"/>
     <use xlink:href="#ma4be19e9e4" x="314.954499" y="83.736664" style="fill: #c7c7c7; stroke: #ffffff; stroke-width: 0.75; stroke-linejoin: miter"/>
     <use xlink:href="#ma4be19e9e4" x="328.035817" y="83.474136" style="fill: #c7c7c7; stroke: #ffffff; stroke-width: 0.75; stroke-linejoin: miter"/>
     <use xlink:href="#ma4be19e9e4" x="341.117136" y="83.474136" style="fill: #c7c7c7; stroke: #ffffff; stroke-width: 0.75; stroke-linejoin: miter"/>
     <use xlink:href="#ma4be19e9e4" x="354.198455" y="83.474136" style="fill: #c7c7c7; stroke: #ffffff; stroke-width: 0.75; stroke-linejoin: miter"/>
     <use xlink:href="#ma4be19e9e4" x="367.279773" y="83.408504" style="fill: #c7c7c7; stroke: #ffffff; stroke-width: 0.75; stroke-linejoin: miter"/>
     <use xlink:href="#ma4be19e9e4" x="380.361092" y="83.408504" style="fill: #c7c7c7; stroke: #ffffff; stroke-width: 0.75; stroke-linejoin: miter"/>
     <use xlink:href="#ma4be19e9e4" x="393.442411" y="83.408504" style="fill: #c7c7c7; stroke: #ffffff; stroke-width: 0.75; stroke-linejoin: miter"/>
     <use xlink:href="#ma4be19e9e4" x="406.523729" y="83.408504" style="fill: #c7c7c7; stroke: #ffffff; stroke-width: 0.75; stroke-linejoin: miter"/>
     <use xlink:href="#ma4be19e9e4" x="419.605048" y="83.408504" style="fill: #c7c7c7; stroke: #ffffff; stroke-width: 0.75; stroke-linejoin: miter"/>
     <use xlink:href="#ma4be19e9e4" x="432.686367" y="82.949079" style="fill: #c7c7c7; stroke: #ffffff; stroke-width: 0.75; stroke-linejoin: miter"/>
     <use xlink:href="#ma4be19e9e4" x="445.767685" y="82.817815" style="fill: #c7c7c7; stroke: #ffffff; stroke-width: 0.75; stroke-linejoin: miter"/>
     <use xlink:href="#ma4be19e9e4" x="458.849004" y="82.817815" style="fill: #c7c7c7; stroke: #ffffff; stroke-width: 0.75; stroke-linejoin: miter"/>
     <use xlink:href="#ma4be19e9e4" x="471.930323" y="82.817815" style="fill: #c7c7c7; stroke: #ffffff; stroke-width: 0.75; stroke-linejoin: miter"/>
     <use xlink:href="#ma4be19e9e4" x="485.011641" y="82.817815" style="fill: #c7c7c7; stroke: #ffffff; stroke-width: 0.75; stroke-linejoin: miter"/>
     <use xlink:href="#ma4be19e9e4" x="498.09296" y="82.817815" style="fill: #c7c7c7; stroke: #ffffff; stroke-width: 0.75; stroke-linejoin: miter"/>
     <use xlink:href="#ma4be19e9e4" x="511.174279" y="82.817815" style="fill: #c7c7c7; stroke: #ffffff; stroke-width: 0.75; stroke-linejoin: miter"/>
     <use xlink:href="#ma4be19e9e4" x="524.255598" y="82.817815" style="fill: #c7c7c7; stroke: #ffffff; stroke-width: 0.75; stroke-linejoin: miter"/>
     <use xlink:href="#ma4be19e9e4" x="537.336916" y="82.817815" style="fill: #c7c7c7; stroke: #ffffff; stroke-width: 0.75; stroke-linejoin: miter"/>
     <use xlink:href="#ma4be19e9e4" x="550.418235" y="82.817815" style="fill: #c7c7c7; stroke: #ffffff; stroke-width: 0.75; stroke-linejoin: miter"/>
     <use xlink:href="#ma4be19e9e4" x="563.499554" y="82.817815" style="fill: #c7c7c7; stroke: #ffffff; stroke-width: 0.75; stroke-linejoin: miter"/>
     <use xlink:href="#ma4be19e9e4" x="576.580872" y="82.817815" style="fill: #c7c7c7; stroke: #ffffff; stroke-width: 0.75; stroke-linejoin: miter"/>
     <use xlink:href="#ma4be19e9e4" x="589.662191" y="82.817815" style="fill: #c7c7c7; stroke: #ffffff; stroke-width: 0.75; stroke-linejoin: miter"/>
     <use xlink:href="#ma4be19e9e4" x="602.74351" y="82.817815" style="fill: #c7c7c7; stroke: #ffffff; stroke-width: 0.75; stroke-linejoin: miter"/>
     <use xlink:href="#ma4be19e9e4" x="615.824828" y="82.817815" style="fill: #c7c7c7; stroke: #ffffff; stroke-width: 0.75; stroke-linejoin: miter"/>
     <use xlink:href="#ma4be19e9e4" x="628.906147" y="82.817815" style="fill: #c7c7c7; stroke: #ffffff; stroke-width: 0.75; stroke-linejoin: miter"/>
     <use xlink:href="#ma4be19e9e4" x="641.987466" y="82.817815" style="fill: #c7c7c7; stroke: #ffffff; stroke-width: 0.75; stroke-linejoin: miter"/>
     <use xlink:href="#ma4be19e9e4" x="655.068784" y="82.817815" style="fill: #c7c7c7; stroke: #ffffff; stroke-width: 0.75; stroke-linejoin: miter"/>
     <use xlink:href="#ma4be19e9e4" x="668.150103" y="82.817815" style="fill: #c7c7c7; stroke: #ffffff; stroke-width: 0.75; stroke-linejoin: miter"/>
     <use xlink:href="#ma4be19e9e4" x="681.231422" y="82.817815" style="fill: #c7c7c7; stroke: #ffffff; stroke-width: 0.75; stroke-linejoin: miter"/>
     <use xlink:href="#ma4be19e9e4" x="694.31274" y="82.817815" style="fill: #c7c7c7; stroke: #ffffff; stroke-width: 0.75; stroke-linejoin: miter"/>
     <use xlink:href="#ma4be19e9e4" x="707.394059" y="82.817815" style="fill: #c7c7c7; stroke: #ffffff; stroke-width: 0.75; stroke-linejoin: miter"/>
     <use xlink:href="#ma4be19e9e4" x="720.475378" y="82.817815" style="fill: #c7c7c7; stroke: #ffffff; stroke-width: 0.75; stroke-linejoin: miter"/>
     <use xlink:href="#ma4be19e9e4" x="733.556696" y="82.817815" style="fill: #c7c7c7; stroke: #ffffff; stroke-width: 0.75; stroke-linejoin: miter"/>
    </g>
   </g>
   <g id="line2d_24">
    <path d="M 53.328125 276.334125 
L 66.409444 91.776599 
L 79.490762 91.251542 
L 92.572081 91.18591 
L 105.6534 91.18591 
L 118.734718 91.054646 
L 131.816037 91.054646 
L 144.897356 90.85775 
L 157.978674 90.726485 
L 171.059993 90.529589 
L 184.141312 90.463957 
L 197.22263 90.463957 
L 210.303949 90.463957 
L 223.385268 90.463957 
L 236.466587 90.26706 
L 249.547905 90.135796 
L 262.629224 90.135796 
L 275.710543 90.070164 
L 288.791861 90.070164 
L 301.87318 90.070164 
L 314.954499 90.070164 
L 328.035817 90.070164 
L 341.117136 90.070164 
L 354.198455 90.004532 
L 367.279773 90.004532 
L 380.361092 90.004532 
L 393.442411 90.004532 
L 406.523729 90.004532 
L 419.605048 90.004532 
L 432.686367 90.004532 
L 445.767685 90.004532 
L 458.849004 90.004532 
L 471.930323 90.004532 
L 485.011641 90.004532 
L 498.09296 90.004532 
L 511.174279 90.004532 
L 524.255598 90.004532 
L 537.336916 90.004532 
L 550.418235 90.004532 
L 563.499554 90.004532 
L 576.580872 90.004532 
L 589.662191 90.004532 
L 602.74351 90.004532 
L 615.824828 90.004532 
L 628.906147 90.004532 
L 641.987466 90.004532 
L 655.068784 90.004532 
L 668.150103 90.004532 
L 681.231422 90.004532 
L 694.31274 90.004532 
L 707.394059 90.004532 
L 720.475378 90.004532 
L 733.556696 90.004532 
" clip-path="url(#pb2032102f0)" style="fill: none; stroke: #98df8a; stroke-width: 1.5; stroke-linecap: square"/>
    <defs>
     <path id="m6c9719bb45" d="M -0 3 
L 3 -3 
L -3 -3 
z
" style="stroke: #ffffff; stroke-width: 0.75; stroke-linejoin: miter"/>
    </defs>
    <g clip-path="url(#pb2032102f0)">
     <use xlink:href="#m6c9719bb45" x="53.328125" y="276.334125" style="fill: #98df8a; stroke: #ffffff; stroke-width: 0.75; stroke-linejoin: miter"/>
     <use xlink:href="#m6c9719bb45" x="66.409444" y="91.776599" style="fill: #98df8a; stroke: #ffffff; stroke-width: 0.75; stroke-linejoin: miter"/>
     <use xlink:href="#m6c9719bb45" x="79.490762" y="91.251542" style="fill: #98df8a; stroke: #ffffff; stroke-width: 0.75; stroke-linejoin: miter"/>
     <use xlink:href="#m6c9719bb45" x="92.572081" y="91.18591" style="fill: #98df8a; stroke: #ffffff; stroke-width: 0.75; stroke-linejoin: miter"/>
     <use xlink:href="#m6c9719bb45" x="105.6534" y="91.18591" style="fill: #98df8a; stroke: #ffffff; stroke-width: 0.75; stroke-linejoin: miter"/>
     <use xlink:href="#m6c9719bb45" x="118.734718" y="91.054646" style="fill: #98df8a; stroke: #ffffff; stroke-width: 0.75; stroke-linejoin: miter"/>
     <use xlink:href="#m6c9719bb45" x="131.816037" y="91.054646" style="fill: #98df8a; stroke: #ffffff; stroke-width: 0.75; stroke-linejoin: miter"/>
     <use xlink:href="#m6c9719bb45" x="144.897356" y="90.85775" style="fill: #98df8a; stroke: #ffffff; stroke-width: 0.75; stroke-linejoin: miter"/>
     <use xlink:href="#m6c9719bb45" x="157.978674" y="90.726485" style="fill: #98df8a; stroke: #ffffff; stroke-width: 0.75; stroke-linejoin: miter"/>
     <use xlink:href="#m6c9719bb45" x="171.059993" y="90.529589" style="fill: #98df8a; stroke: #ffffff; stroke-width: 0.75; stroke-linejoin: miter"/>
     <use xlink:href="#m6c9719bb45" x="184.141312" y="90.463957" style="fill: #98df8a; stroke: #ffffff; stroke-width: 0.75; stroke-linejoin: miter"/>
     <use xlink:href="#m6c9719bb45" x="197.22263" y="90.463957" style="fill: #98df8a; stroke: #ffffff; stroke-width: 0.75; stroke-linejoin: miter"/>
     <use xlink:href="#m6c9719bb45" x="210.303949" y="90.463957" style="fill: #98df8a; stroke: #ffffff; stroke-width: 0.75; stroke-linejoin: miter"/>
     <use xlink:href="#m6c9719bb45" x="223.385268" y="90.463957" style="fill: #98df8a; stroke: #ffffff; stroke-width: 0.75; stroke-linejoin: miter"/>
     <use xlink:href="#m6c9719bb45" x="236.466587" y="90.26706" style="fill: #98df8a; stroke: #ffffff; stroke-width: 0.75; stroke-linejoin: miter"/>
     <use xlink:href="#m6c9719bb45" x="249.547905" y="90.135796" style="fill: #98df8a; stroke: #ffffff; stroke-width: 0.75; stroke-linejoin: miter"/>
     <use xlink:href="#m6c9719bb45" x="262.629224" y="90.135796" style="fill: #98df8a; stroke: #ffffff; stroke-width: 0.75; stroke-linejoin: miter"/>
     <use xlink:href="#m6c9719bb45" x="275.710543" y="90.070164" style="fill: #98df8a; stroke: #ffffff; stroke-width: 0.75; stroke-linejoin: miter"/>
     <use xlink:href="#m6c9719bb45" x="288.791861" y="90.070164" style="fill: #98df8a; stroke: #ffffff; stroke-width: 0.75; stroke-linejoin: miter"/>
     <use xlink:href="#m6c9719bb45" x="301.87318" y="90.070164" style="fill: #98df8a; stroke: #ffffff; stroke-width: 0.75; stroke-linejoin: miter"/>
     <use xlink:href="#m6c9719bb45" x="314.954499" y="90.070164" style="fill: #98df8a; stroke: #ffffff; stroke-width: 0.75; stroke-linejoin: miter"/>
     <use xlink:href="#m6c9719bb45" x="328.035817" y="90.070164" style="fill: #98df8a; stroke: #ffffff; stroke-width: 0.75; stroke-linejoin: miter"/>
     <use xlink:href="#m6c9719bb45" x="341.117136" y="90.070164" style="fill: #98df8a; stroke: #ffffff; stroke-width: 0.75; stroke-linejoin: miter"/>
     <use xlink:href="#m6c9719bb45" x="354.198455" y="90.004532" style="fill: #98df8a; stroke: #ffffff; stroke-width: 0.75; stroke-linejoin: miter"/>
     <use xlink:href="#m6c9719bb45" x="367.279773" y="90.004532" style="fill: #98df8a; stroke: #ffffff; stroke-width: 0.75; stroke-linejoin: miter"/>
     <use xlink:href="#m6c9719bb45" x="380.361092" y="90.004532" style="fill: #98df8a; stroke: #ffffff; stroke-width: 0.75; stroke-linejoin: miter"/>
     <use xlink:href="#m6c9719bb45" x="393.442411" y="90.004532" style="fill: #98df8a; stroke: #ffffff; stroke-width: 0.75; stroke-linejoin: miter"/>
     <use xlink:href="#m6c9719bb45" x="406.523729" y="90.004532" style="fill: #98df8a; stroke: #ffffff; stroke-width: 0.75; stroke-linejoin: miter"/>
     <use xlink:href="#m6c9719bb45" x="419.605048" y="90.004532" style="fill: #98df8a; stroke: #ffffff; stroke-width: 0.75; stroke-linejoin: miter"/>
     <use xlink:href="#m6c9719bb45" x="432.686367" y="90.004532" style="fill: #98df8a; stroke: #ffffff; stroke-width: 0.75; stroke-linejoin: miter"/>
     <use xlink:href="#m6c9719bb45" x="445.767685" y="90.004532" style="fill: #98df8a; stroke: #ffffff; stroke-width: 0.75; stroke-linejoin: miter"/>
     <use xlink:href="#m6c9719bb45" x="458.849004" y="90.004532" style="fill: #98df8a; stroke: #ffffff; stroke-width: 0.75; stroke-linejoin: miter"/>
     <use xlink:href="#m6c9719bb45" x="471.930323" y="90.004532" style="fill: #98df8a; stroke: #ffffff; stroke-width: 0.75; stroke-linejoin: miter"/>
     <use xlink:href="#m6c9719bb45" x="485.011641" y="90.004532" style="fill: #98df8a; stroke: #ffffff; stroke-width: 0.75; stroke-linejoin: miter"/>
     <use xlink:href="#m6c9719bb45" x="498.09296" y="90.004532" style="fill: #98df8a; stroke: #ffffff; stroke-width: 0.75; stroke-linejoin: miter"/>
     <use xlink:href="#m6c9719bb45" x="511.174279" y="90.004532" style="fill: #98df8a; stroke: #ffffff; stroke-width: 0.75; stroke-linejoin: miter"/>
     <use xlink:href="#m6c9719bb45" x="524.255598" y="90.004532" style="fill: #98df8a; stroke: #ffffff; stroke-width: 0.75; stroke-linejoin: miter"/>
     <use xlink:href="#m6c9719bb45" x="537.336916" y="90.004532" style="fill: #98df8a; stroke: #ffffff; stroke-width: 0.75; stroke-linejoin: miter"/>
     <use xlink:href="#m6c9719bb45" x="550.418235" y="90.004532" style="fill: #98df8a; stroke: #ffffff; stroke-width: 0.75; stroke-linejoin: miter"/>
     <use xlink:href="#m6c9719bb45" x="563.499554" y="90.004532" style="fill: #98df8a; stroke: #ffffff; stroke-width: 0.75; stroke-linejoin: miter"/>
     <use xlink:href="#m6c9719bb45" x="576.580872" y="90.004532" style="fill: #98df8a; stroke: #ffffff; stroke-width: 0.75; stroke-linejoin: miter"/>
     <use xlink:href="#m6c9719bb45" x="589.662191" y="90.004532" style="fill: #98df8a; stroke: #ffffff; stroke-width: 0.75; stroke-linejoin: miter"/>
     <use xlink:href="#m6c9719bb45" x="602.74351" y="90.004532" style="fill: #98df8a; stroke: #ffffff; stroke-width: 0.75; stroke-linejoin: miter"/>
     <use xlink:href="#m6c9719bb45" x="615.824828" y="90.004532" style="fill: #98df8a; stroke: #ffffff; stroke-width: 0.75; stroke-linejoin: miter"/>
     <use xlink:href="#m6c9719bb45" x="628.906147" y="90.004532" style="fill: #98df8a; stroke: #ffffff; stroke-width: 0.75; stroke-linejoin: miter"/>
     <use xlink:href="#m6c9719bb45" x="641.987466" y="90.004532" style="fill: #98df8a; stroke: #ffffff; stroke-width: 0.75; stroke-linejoin: miter"/>
     <use xlink:href="#m6c9719bb45" x="655.068784" y="90.004532" style="fill: #98df8a; stroke: #ffffff; stroke-width: 0.75; stroke-linejoin: miter"/>
     <use xlink:href="#m6c9719bb45" x="668.150103" y="90.004532" style="fill: #98df8a; stroke: #ffffff; stroke-width: 0.75; stroke-linejoin: miter"/>
     <use xlink:href="#m6c9719bb45" x="681.231422" y="90.004532" style="fill: #98df8a; stroke: #ffffff; stroke-width: 0.75; stroke-linejoin: miter"/>
     <use xlink:href="#m6c9719bb45" x="694.31274" y="90.004532" style="fill: #98df8a; stroke: #ffffff; stroke-width: 0.75; stroke-linejoin: miter"/>
     <use xlink:href="#m6c9719bb45" x="707.394059" y="90.004532" style="fill: #98df8a; stroke: #ffffff; stroke-width: 0.75; stroke-linejoin: miter"/>
     <use xlink:href="#m6c9719bb45" x="720.475378" y="90.004532" style="fill: #98df8a; stroke: #ffffff; stroke-width: 0.75; stroke-linejoin: miter"/>
     <use xlink:href="#m6c9719bb45" x="733.556696" y="90.004532" style="fill: #98df8a; stroke: #ffffff; stroke-width: 0.75; stroke-linejoin: miter"/>
    </g>
   </g>
   <g id="line2d_25">
    <path d="M 53.328125 276.334125 
L 66.409444 92.597001 
L 79.490762 91.546887 
L 92.572081 91.284358 
L 105.6534 91.284358 
L 118.734718 91.284358 
L 131.816037 91.18591 
L 144.897356 90.85775 
L 157.978674 90.759301 
L 171.059993 90.595221 
L 184.141312 90.529589 
L 197.22263 90.529589 
L 210.303949 90.496773 
L 223.385268 90.496773 
L 236.466587 90.496773 
L 249.547905 90.496773 
L 262.629224 90.496773 
L 275.710543 90.496773 
L 288.791861 90.496773 
L 301.87318 90.496773 
L 314.954499 90.365509 
L 328.035817 90.299876 
L 341.117136 90.299876 
L 354.198455 90.299876 
L 367.279773 90.26706 
L 380.361092 90.234244 
L 393.442411 90.234244 
L 406.523729 90.201428 
L 419.605048 90.201428 
L 432.686367 90.201428 
L 445.767685 90.070164 
L 458.849004 90.070164 
L 471.930323 90.070164 
L 485.011641 90.037348 
L 498.09296 90.037348 
L 511.174279 89.971716 
L 524.255598 89.971716 
L 537.336916 89.971716 
L 550.418235 89.971716 
L 563.499554 89.971716 
L 576.580872 89.971716 
L 589.662191 89.971716 
L 602.74351 89.971716 
L 615.824828 89.971716 
L 628.906147 89.971716 
L 641.987466 89.971716 
L 655.068784 89.971716 
L 668.150103 89.971716 
L 681.231422 89.971716 
L 694.31274 89.971716 
L 707.394059 89.971716 
L 720.475378 89.971716 
L 733.556696 89.9389 
" clip-path="url(#pb2032102f0)" style="fill: none; stroke: #1f77b4; stroke-width: 1.5; stroke-linecap: square"/>
    <defs>
     <path id="me4426e92cf" d="M 0 3 
C 0.795609 3 1.55874 2.683901 2.12132 2.12132 
C 2.683901 1.55874 3 0.795609 3 0 
C 3 -0.795609 2.683901 -1.55874 2.12132 -2.12132 
C 1.55874 -2.683901 0.795609 -3 0 -3 
C -0.795609 -3 -1.55874 -2.683901 -2.12132 -2.12132 
C -2.683901 -1.55874 -3 -0.795609 -3 0 
C -3 0.795609 -2.683901 1.55874 -2.12132 2.12132 
C -1.55874 2.683901 -0.795609 3 0 3 
z
" style="stroke: #ffffff; stroke-width: 0.75"/>
    </defs>
    <g clip-path="url(#pb2032102f0)">
     <use xlink:href="#me4426e92cf" x="53.328125" y="276.334125" style="fill: #1f77b4; stroke: #ffffff; stroke-width: 0.75"/>
     <use xlink:href="#me4426e92cf" x="66.409444" y="92.597001" style="fill: #1f77b4; stroke: #ffffff; stroke-width: 0.75"/>
     <use xlink:href="#me4426e92cf" x="79.490762" y="91.546887" style="fill: #1f77b4; stroke: #ffffff; stroke-width: 0.75"/>
     <use xlink:href="#me4426e92cf" x="92.572081" y="91.284358" style="fill: #1f77b4; stroke: #ffffff; stroke-width: 0.75"/>
     <use xlink:href="#me4426e92cf" x="105.6534" y="91.284358" style="fill: #1f77b4; stroke: #ffffff; stroke-width: 0.75"/>
     <use xlink:href="#me4426e92cf" x="118.734718" y="91.284358" style="fill: #1f77b4; stroke: #ffffff; stroke-width: 0.75"/>
     <use xlink:href="#me4426e92cf" x="131.816037" y="91.18591" style="fill: #1f77b4; stroke: #ffffff; stroke-width: 0.75"/>
     <use xlink:href="#me4426e92cf" x="144.897356" y="90.85775" style="fill: #1f77b4; stroke: #ffffff; stroke-width: 0.75"/>
     <use xlink:href="#me4426e92cf" x="157.978674" y="90.759301" style="fill: #1f77b4; stroke: #ffffff; stroke-width: 0.75"/>
     <use xlink:href="#me4426e92cf" x="171.059993" y="90.595221" style="fill: #1f77b4; stroke: #ffffff; stroke-width: 0.75"/>
     <use xlink:href="#me4426e92cf" x="184.141312" y="90.529589" style="fill: #1f77b4; stroke: #ffffff; stroke-width: 0.75"/>
     <use xlink:href="#me4426e92cf" x="197.22263" y="90.529589" style="fill: #1f77b4; stroke: #ffffff; stroke-width: 0.75"/>
     <use xlink:href="#me4426e92cf" x="210.303949" y="90.496773" style="fill: #1f77b4; stroke: #ffffff; stroke-width: 0.75"/>
     <use xlink:href="#me4426e92cf" x="223.385268" y="90.496773" style="fill: #1f77b4; stroke: #ffffff; stroke-width: 0.75"/>
     <use xlink:href="#me4426e92cf" x="236.466587" y="90.496773" style="fill: #1f77b4; stroke: #ffffff; stroke-width: 0.75"/>
     <use xlink:href="#me4426e92cf" x="249.547905" y="90.496773" style="fill: #1f77b4; stroke: #ffffff; stroke-width: 0.75"/>
     <use xlink:href="#me4426e92cf" x="262.629224" y="90.496773" style="fill: #1f77b4; stroke: #ffffff; stroke-width: 0.75"/>
     <use xlink:href="#me4426e92cf" x="275.710543" y="90.496773" style="fill: #1f77b4; stroke: #ffffff; stroke-width: 0.75"/>
     <use xlink:href="#me4426e92cf" x="288.791861" y="90.496773" style="fill: #1f77b4; stroke: #ffffff; stroke-width: 0.75"/>
     <use xlink:href="#me4426e92cf" x="301.87318" y="90.496773" style="fill: #1f77b4; stroke: #ffffff; stroke-width: 0.75"/>
     <use xlink:href="#me4426e92cf" x="314.954499" y="90.365509" style="fill: #1f77b4; stroke: #ffffff; stroke-width: 0.75"/>
     <use xlink:href="#me4426e92cf" x="328.035817" y="90.299876" style="fill: #1f77b4; stroke: #ffffff; stroke-width: 0.75"/>
     <use xlink:href="#me4426e92cf" x="341.117136" y="90.299876" style="fill: #1f77b4; stroke: #ffffff; stroke-width: 0.75"/>
     <use xlink:href="#me4426e92cf" x="354.198455" y="90.299876" style="fill: #1f77b4; stroke: #ffffff; stroke-width: 0.75"/>
     <use xlink:href="#me4426e92cf" x="367.279773" y="90.26706" style="fill: #1f77b4; stroke: #ffffff; stroke-width: 0.75"/>
     <use xlink:href="#me4426e92cf" x="380.361092" y="90.234244" style="fill: #1f77b4; stroke: #ffffff; stroke-width: 0.75"/>
     <use xlink:href="#me4426e92cf" x="393.442411" y="90.234244" style="fill: #1f77b4; stroke: #ffffff; stroke-width: 0.75"/>
     <use xlink:href="#me4426e92cf" x="406.523729" y="90.201428" style="fill: #1f77b4; stroke: #ffffff; stroke-width: 0.75"/>
     <use xlink:href="#me4426e92cf" x="419.605048" y="90.201428" style="fill: #1f77b4; stroke: #ffffff; stroke-width: 0.75"/>
     <use xlink:href="#me4426e92cf" x="432.686367" y="90.201428" style="fill: #1f77b4; stroke: #ffffff; stroke-width: 0.75"/>
     <use xlink:href="#me4426e92cf" x="445.767685" y="90.070164" style="fill: #1f77b4; stroke: #ffffff; stroke-width: 0.75"/>
     <use xlink:href="#me4426e92cf" x="458.849004" y="90.070164" style="fill: #1f77b4; stroke: #ffffff; stroke-width: 0.75"/>
     <use xlink:href="#me4426e92cf" x="471.930323" y="90.070164" style="fill: #1f77b4; stroke: #ffffff; stroke-width: 0.75"/>
     <use xlink:href="#me4426e92cf" x="485.011641" y="90.037348" style="fill: #1f77b4; stroke: #ffffff; stroke-width: 0.75"/>
     <use xlink:href="#me4426e92cf" x="498.09296" y="90.037348" style="fill: #1f77b4; stroke: #ffffff; stroke-width: 0.75"/>
     <use xlink:href="#me4426e92cf" x="511.174279" y="89.971716" style="fill: #1f77b4; stroke: #ffffff; stroke-width: 0.75"/>
     <use xlink:href="#me4426e92cf" x="524.255598" y="89.971716" style="fill: #1f77b4; stroke: #ffffff; stroke-width: 0.75"/>
     <use xlink:href="#me4426e92cf" x="537.336916" y="89.971716" style="fill: #1f77b4; stroke: #ffffff; stroke-width: 0.75"/>
     <use xlink:href="#me4426e92cf" x="550.418235" y="89.971716" style="fill: #1f77b4; stroke: #ffffff; stroke-width: 0.75"/>
     <use xlink:href="#me4426e92cf" x="563.499554" y="89.971716" style="fill: #1f77b4; stroke: #ffffff; stroke-width: 0.75"/>
     <use xlink:href="#me4426e92cf" x="576.580872" y="89.971716" style="fill: #1f77b4; stroke: #ffffff; stroke-width: 0.75"/>
     <use xlink:href="#me4426e92cf" x="589.662191" y="89.971716" style="fill: #1f77b4; stroke: #ffffff; stroke-width: 0.75"/>
     <use xlink:href="#me4426e92cf" x="602.74351" y="89.971716" style="fill: #1f77b4; stroke: #ffffff; stroke-width: 0.75"/>
     <use xlink:href="#me4426e92cf" x="615.824828" y="89.971716" style="fill: #1f77b4; stroke: #ffffff; stroke-width: 0.75"/>
     <use xlink:href="#me4426e92cf" x="628.906147" y="89.971716" style="fill: #1f77b4; stroke: #ffffff; stroke-width: 0.75"/>
     <use xlink:href="#me4426e92cf" x="641.987466" y="89.971716" style="fill: #1f77b4; stroke: #ffffff; stroke-width: 0.75"/>
     <use xlink:href="#me4426e92cf" x="655.068784" y="89.971716" style="fill: #1f77b4; stroke: #ffffff; stroke-width: 0.75"/>
     <use xlink:href="#me4426e92cf" x="668.150103" y="89.971716" style="fill: #1f77b4; stroke: #ffffff; stroke-width: 0.75"/>
     <use xlink:href="#me4426e92cf" x="681.231422" y="89.971716" style="fill: #1f77b4; stroke: #ffffff; stroke-width: 0.75"/>
     <use xlink:href="#me4426e92cf" x="694.31274" y="89.971716" style="fill: #1f77b4; stroke: #ffffff; stroke-width: 0.75"/>
     <use xlink:href="#me4426e92cf" x="707.394059" y="89.971716" style="fill: #1f77b4; stroke: #ffffff; stroke-width: 0.75"/>
     <use xlink:href="#me4426e92cf" x="720.475378" y="89.971716" style="fill: #1f77b4; stroke: #ffffff; stroke-width: 0.75"/>
     <use xlink:href="#me4426e92cf" x="733.556696" y="89.9389" style="fill: #1f77b4; stroke: #ffffff; stroke-width: 0.75"/>
    </g>
   </g>
   <g id="line2d_26"/>
   <g id="line2d_27"/>
   <g id="line2d_28"/>
   <g id="line2d_29"/>
   <g id="line2d_30">
    <path d="M 733.556696 288.430125 
L 733.556696 22.318125 
" clip-path="url(#pb2032102f0)" style="fill: none; stroke: #ff0000; stroke-width: 1.5; stroke-linecap: square"/>
   </g>
   <g id="patch_3">
    <path d="M 53.328125 276.334125 
L 53.328125 46.6217 
" style="fill: none; stroke: #000000; stroke-width: 0.8; stroke-linejoin: miter; stroke-linecap: square"/>
   </g>
   <g id="patch_4">
    <path d="M 53.328125 288.430125 
L 733.556696 288.430125 
" style="fill: none; stroke: #000000; stroke-width: 0.8; stroke-linejoin: miter; stroke-linecap: square"/>
   </g>
   <g id="text_24">
    <!-- openthread_ot-ip6-send-fuzzer (13h, at least 4 trials/fuzzer) -->
    <g transform="translate(230.93 16.318125) scale(0.12 -0.12)">
     <defs>
      <path id="DejaVuSans-70" d="M 1159 525 
L 1159 -1331 
L 581 -1331 
L 581 3500 
L 1159 3500 
L 1159 2969 
Q 1341 3281 1617 3432 
Q 1894 3584 2278 3584 
Q 2916 3584 3314 3078 
Q 3713 2572 3713 1747 
Q 3713 922 3314 415 
Q 2916 -91 2278 -91 
Q 1894 -91 1617 61 
Q 1341 213 1159 525 
z
M 3116 1747 
Q 3116 2381 2855 2742 
Q 2594 3103 2138 3103 
Q 1681 3103 1420 2742 
Q 1159 2381 1159 1747 
Q 1159 1113 1420 752 
Q 1681 391 2138 391 
Q 2594 391 2855 752 
Q 3116 1113 3116 1747 
z
" transform="scale(0.015625)"/>
      <path id="DejaVuSans-5f" d="M 3263 -1063 
L 3263 -1509 
L -63 -1509 
L -63 -1063 
L 3263 -1063 
z
" transform="scale(0.015625)"/>
      <path id="DejaVuSans-2d" d="M 313 2009 
L 1997 2009 
L 1997 1497 
L 313 1497 
L 313 2009 
z
" transform="scale(0.015625)"/>
      <path id="DejaVuSans-73" d="M 2834 3397 
L 2834 2853 
Q 2591 2978 2328 3040 
Q 2066 3103 1784 3103 
Q 1356 3103 1142 2972 
Q 928 2841 928 2578 
Q 928 2378 1081 2264 
Q 1234 2150 1697 2047 
L 1894 2003 
Q 2506 1872 2764 1633 
Q 3022 1394 3022 966 
Q 3022 478 2636 193 
Q 2250 -91 1575 -91 
Q 1294 -91 989 -36 
Q 684 19 347 128 
L 347 722 
Q 666 556 975 473 
Q 1284 391 1588 391 
Q 1994 391 2212 530 
Q 2431 669 2431 922 
Q 2431 1156 2273 1281 
Q 2116 1406 1581 1522 
L 1381 1569 
Q 847 1681 609 1914 
Q 372 2147 372 2553 
Q 372 3047 722 3315 
Q 1072 3584 1716 3584 
Q 2034 3584 2315 3537 
Q 2597 3491 2834 3397 
z
" transform="scale(0.015625)"/>
      <path id="DejaVuSans-66" d="M 2375 4863 
L 2375 4384 
L 1825 4384 
Q 1516 4384 1395 4259 
Q 1275 4134 1275 3809 
L 1275 3500 
L 2222 3500 
L 2222 3053 
L 1275 3053 
L 1275 0 
L 697 0 
L 697 3053 
L 147 3053 
L 147 3500 
L 697 3500 
L 697 3744 
Q 697 4328 969 4595 
Q 1241 4863 1831 4863 
L 2375 4863 
z
" transform="scale(0.015625)"/>
      <path id="DejaVuSans-7a" d="M 353 3500 
L 3084 3500 
L 3084 2975 
L 922 459 
L 3084 459 
L 3084 0 
L 275 0 
L 275 525 
L 2438 3041 
L 353 3041 
L 353 3500 
z
" transform="scale(0.015625)"/>
      <path id="DejaVuSans-2c" d="M 750 794 
L 1409 794 
L 1409 256 
L 897 -744 
L 494 -744 
L 750 256 
L 750 794 
z
" transform="scale(0.015625)"/>
      <path id="DejaVuSans-6c" d="M 603 4863 
L 1178 4863 
L 1178 0 
L 603 0 
L 603 4863 
z
" transform="scale(0.015625)"/>
      <path id="DejaVuSans-2f" d="M 1625 4666 
L 2156 4666 
L 531 -594 
L 0 -594 
L 1625 4666 
z
" transform="scale(0.015625)"/>
     </defs>
     <use xlink:href="#DejaVuSans-6f"/>
     <use xlink:href="#DejaVuSans-70" transform="translate(61.181641 0)"/>
     <use xlink:href="#DejaVuSans-65" transform="translate(124.658203 0)"/>
     <use xlink:href="#DejaVuSans-6e" transform="translate(186.181641 0)"/>
     <use xlink:href="#DejaVuSans-74" transform="translate(249.560547 0)"/>
     <use xlink:href="#DejaVuSans-68" transform="translate(288.769531 0)"/>
     <use xlink:href="#DejaVuSans-72" transform="translate(352.148438 0)"/>
     <use xlink:href="#DejaVuSans-65" transform="translate(391.011719 0)"/>
     <use xlink:href="#DejaVuSans-61" transform="translate(452.535156 0)"/>
     <use xlink:href="#DejaVuSans-64" transform="translate(513.814453 0)"/>
     <use xlink:href="#DejaVuSans-5f" transform="translate(577.291016 0)"/>
     <use xlink:href="#DejaVuSans-6f" transform="translate(627.291016 0)"/>
     <use xlink:href="#DejaVuSans-74" transform="translate(688.472656 0)"/>
     <use xlink:href="#DejaVuSans-2d" transform="translate(727.681641 0)"/>
     <use xlink:href="#DejaVuSans-69" transform="translate(763.765625 0)"/>
     <use xlink:href="#DejaVuSans-70" transform="translate(791.548828 0)"/>
     <use xlink:href="#DejaVuSans-36" transform="translate(855.025391 0)"/>
     <use xlink:href="#DejaVuSans-2d" transform="translate(918.648438 0)"/>
     <use xlink:href="#DejaVuSans-73" transform="translate(954.732422 0)"/>
     <use xlink:href="#DejaVuSans-65" transform="translate(1006.832031 0)"/>
     <use xlink:href="#DejaVuSans-6e" transform="translate(1068.355469 0)"/>
     <use xlink:href="#DejaVuSans-64" transform="translate(1131.734375 0)"/>
     <use xlink:href="#DejaVuSans-2d" transform="translate(1195.210938 0)"/>
     <use xlink:href="#DejaVuSans-66" transform="translate(1231.294922 0)"/>
     <use xlink:href="#DejaVuSans-75" transform="translate(1266.5 0)"/>
     <use xlink:href="#DejaVuSans-7a" transform="translate(1329.878906 0)"/>
     <use xlink:href="#DejaVuSans-7a" transform="translate(1382.369141 0)"/>
     <use xlink:href="#DejaVuSans-65" transform="translate(1434.859375 0)"/>
     <use xlink:href="#DejaVuSans-72" transform="translate(1496.382812 0)"/>
     <use xlink:href="#DejaVuSans-20" transform="translate(1537.496094 0)"/>
     <use xlink:href="#DejaVuSans-28" transform="translate(1569.283203 0)"/>
     <use xlink:href="#DejaVuSans-31" transform="translate(1608.296875 0)"/>
     <use xlink:href="#DejaVuSans-33" transform="translate(1671.919922 0)"/>
     <use xlink:href="#DejaVuSans-68" transform="translate(1735.542969 0)"/>
     <use xlink:href="#DejaVuSans-2c" transform="translate(1798.921875 0)"/>
     <use xlink:href="#DejaVuSans-20" transform="translate(1830.708984 0)"/>
     <use xlink:href="#DejaVuSans-61" transform="translate(1862.496094 0)"/>
     <use xlink:href="#DejaVuSans-74" transform="translate(1923.775391 0)"/>
     <use xlink:href="#DejaVuSans-20" transform="translate(1962.984375 0)"/>
     <use xlink:href="#DejaVuSans-6c" transform="translate(1994.771484 0)"/>
     <use xlink:href="#DejaVuSans-65" transform="translate(2022.554688 0)"/>
     <use xlink:href="#DejaVuSans-61" transform="translate(2084.078125 0)"/>
     <use xlink:href="#DejaVuSans-73" transform="translate(2145.357422 0)"/>
     <use xlink:href="#DejaVuSans-74" transform="translate(2197.457031 0)"/>
     <use xlink:href="#DejaVuSans-20" transform="translate(2236.666016 0)"/>
     <use xlink:href="#DejaVuSans-34" transform="translate(2268.453125 0)"/>
     <use xlink:href="#DejaVuSans-20" transform="translate(2332.076172 0)"/>
     <use xlink:href="#DejaVuSans-74" transform="translate(2363.863281 0)"/>
     <use xlink:href="#DejaVuSans-72" transform="translate(2403.072266 0)"/>
     <use xlink:href="#DejaVuSans-69" transform="translate(2444.185547 0)"/>
     <use xlink:href="#DejaVuSans-61" transform="translate(2471.96875 0)"/>
     <use xlink:href="#DejaVuSans-6c" transform="translate(2533.248047 0)"/>
     <use xlink:href="#DejaVuSans-73" transform="translate(2561.03125 0)"/>
     <use xlink:href="#DejaVuSans-2f" transform="translate(2613.130859 0)"/>
     <use xlink:href="#DejaVuSans-66" transform="translate(2646.822266 0)"/>
     <use xlink:href="#DejaVuSans-75" transform="translate(2682.027344 0)"/>
     <use xlink:href="#DejaVuSans-7a" transform="translate(2745.40625 0)"/>
     <use xlink:href="#DejaVuSans-7a" transform="translate(2797.896484 0)"/>
     <use xlink:href="#DejaVuSans-65" transform="translate(2850.386719 0)"/>
     <use xlink:href="#DejaVuSans-72" transform="translate(2911.910156 0)"/>
     <use xlink:href="#DejaVuSans-29" transform="translate(2953.023438 0)"/>
    </g>
   </g>
   <g id="legend_1">
    <g id="line2d_31">
     <path d="M 771.568125 30.416562 
L 781.568125 30.416562 
L 791.568125 30.416562 
" style="fill: none; stroke: #d62728; stroke-width: 1.5; stroke-linecap: square"/>
     <g>
      <use xlink:href="#me8bf616749" x="781.568125" y="30.416562" style="fill: #d62728; stroke: #ffffff; stroke-width: 0.75; stroke-linejoin: miter"/>
     </g>
    </g>
    <g id="text_25">
     <!-- aflplusplus_c11 -->
     <g transform="translate(799.568125 33.916562) scale(0.1 -0.1)">
      <use xlink:href="#DejaVuSans-61"/>
      <use xlink:href="#DejaVuSans-66" transform="translate(61.279297 0)"/>
      <use xlink:href="#DejaVuSans-6c" transform="translate(96.484375 0)"/>
      <use xlink:href="#DejaVuSans-70" transform="translate(124.267578 0)"/>
      <use xlink:href="#DejaVuSans-6c" transform="translate(187.744141 0)"/>
      <use xlink:href="#DejaVuSans-75" transform="translate(215.527344 0)"/>
      <use xlink:href="#DejaVuSans-73" transform="translate(278.90625 0)"/>
      <use xlink:href="#DejaVuSans-70" transform="translate(331.005859 0)"/>
      <use xlink:href="#DejaVuSans-6c" transform="translate(394.482422 0)"/>
      <use xlink:href="#DejaVuSans-75" transform="translate(422.265625 0)"/>
      <use xlink:href="#DejaVuSans-73" transform="translate(485.644531 0)"/>
      <use xlink:href="#DejaVuSans-5f" transform="translate(537.744141 0)"/>
      <use xlink:href="#DejaVuSans-63" transform="translate(587.744141 0)"/>
      <use xlink:href="#DejaVuSans-31" transform="translate(642.724609 0)"/>
      <use xlink:href="#DejaVuSans-31" transform="translate(706.347656 0)"/>
     </g>
    </g>
    <g id="line2d_32">
     <path d="M 771.568125 45.372813 
L 781.568125 45.372813 
L 791.568125 45.372813 
" style="fill: none; stroke: #c7c7c7; stroke-width: 1.5; stroke-linecap: square"/>
     <g>
      <use xlink:href="#ma4be19e9e4" x="781.568125" y="45.372813" style="fill: #c7c7c7; stroke: #ffffff; stroke-width: 0.75; stroke-linejoin: miter"/>
     </g>
    </g>
    <g id="text_26">
     <!-- aflplusplus_mopt -->
     <g transform="translate(799.568125 48.872813) scale(0.1 -0.1)">
      <use xlink:href="#DejaVuSans-61"/>
      <use xlink:href="#DejaVuSans-66" transform="translate(61.279297 0)"/>
      <use xlink:href="#DejaVuSans-6c" transform="translate(96.484375 0)"/>
      <use xlink:href="#DejaVuSans-70" transform="translate(124.267578 0)"/>
      <use xlink:href="#DejaVuSans-6c" transform="translate(187.744141 0)"/>
      <use xlink:href="#DejaVuSans-75" transform="translate(215.527344 0)"/>
      <use xlink:href="#DejaVuSans-73" transform="translate(278.90625 0)"/>
      <use xlink:href="#DejaVuSans-70" transform="translate(331.005859 0)"/>
      <use xlink:href="#DejaVuSans-6c" transform="translate(394.482422 0)"/>
      <use xlink:href="#DejaVuSans-75" transform="translate(422.265625 0)"/>
      <use xlink:href="#DejaVuSans-73" transform="translate(485.644531 0)"/>
      <use xlink:href="#DejaVuSans-5f" transform="translate(537.744141 0)"/>
      <use xlink:href="#DejaVuSans-6d" transform="translate(587.744141 0)"/>
      <use xlink:href="#DejaVuSans-6f" transform="translate(685.15625 0)"/>
      <use xlink:href="#DejaVuSans-70" transform="translate(746.337891 0)"/>
      <use xlink:href="#DejaVuSans-74" transform="translate(809.814453 0)"/>
     </g>
    </g>
    <g id="line2d_33">
     <path d="M 771.568125 60.329063 
L 781.568125 60.329063 
L 791.568125 60.329063 
" style="fill: none; stroke: #98df8a; stroke-width: 1.5; stroke-linecap: square"/>
     <g>
      <use xlink:href="#m6c9719bb45" x="781.568125" y="60.329063" style="fill: #98df8a; stroke: #ffffff; stroke-width: 0.75; stroke-linejoin: miter"/>
     </g>
    </g>
    <g id="text_27">
     <!-- aflplusplus_500c -->
     <g transform="translate(799.568125 63.829063) scale(0.1 -0.1)">
      <use xlink:href="#DejaVuSans-61"/>
      <use xlink:href="#DejaVuSans-66" transform="translate(61.279297 0)"/>
      <use xlink:href="#DejaVuSans-6c" transform="translate(96.484375 0)"/>
      <use xlink:href="#DejaVuSans-70" transform="translate(124.267578 0)"/>
      <use xlink:href="#DejaVuSans-6c" transform="translate(187.744141 0)"/>
      <use xlink:href="#DejaVuSans-75" transform="translate(215.527344 0)"/>
      <use xlink:href="#DejaVuSans-73" transform="translate(278.90625 0)"/>
      <use xlink:href="#DejaVuSans-70" transform="translate(331.005859 0)"/>
      <use xlink:href="#DejaVuSans-6c" transform="translate(394.482422 0)"/>
      <use xlink:href="#DejaVuSans-75" transform="translate(422.265625 0)"/>
      <use xlink:href="#DejaVuSans-73" transform="translate(485.644531 0)"/>
      <use xlink:href="#DejaVuSans-5f" transform="translate(537.744141 0)"/>
      <use xlink:href="#DejaVuSans-35" transform="translate(587.744141 0)"/>
      <use xlink:href="#DejaVuSans-30" transform="translate(651.367188 0)"/>
      <use xlink:href="#DejaVuSans-30" transform="translate(714.990234 0)"/>
      <use xlink:href="#DejaVuSans-63" transform="translate(778.613281 0)"/>
     </g>
    </g>
    <g id="line2d_34">
     <path d="M 771.568125 75.285313 
L 781.568125 75.285313 
L 791.568125 75.285313 
" style="fill: none; stroke: #1f77b4; stroke-width: 1.5; stroke-linecap: square"/>
     <g>
      <use xlink:href="#me4426e92cf" x="781.568125" y="75.285313" style="fill: #1f77b4; stroke: #ffffff; stroke-width: 0.75"/>
     </g>
    </g>
    <g id="text_28">
     <!-- aflplusplus_440c -->
     <g transform="translate(799.568125 78.785313) scale(0.1 -0.1)">
      <use xlink:href="#DejaVuSans-61"/>
      <use xlink:href="#DejaVuSans-66" transform="translate(61.279297 0)"/>
      <use xlink:href="#DejaVuSans-6c" transform="translate(96.484375 0)"/>
      <use xlink:href="#DejaVuSans-70" transform="translate(124.267578 0)"/>
      <use xlink:href="#DejaVuSans-6c" transform="translate(187.744141 0)"/>
      <use xlink:href="#DejaVuSans-75" transform="translate(215.527344 0)"/>
      <use xlink:href="#DejaVuSans-73" transform="translate(278.90625 0)"/>
      <use xlink:href="#DejaVuSans-70" transform="translate(331.005859 0)"/>
      <use xlink:href="#DejaVuSans-6c" transform="translate(394.482422 0)"/>
      <use xlink:href="#DejaVuSans-75" transform="translate(422.265625 0)"/>
      <use xlink:href="#DejaVuSans-73" transform="translate(485.644531 0)"/>
      <use xlink:href="#DejaVuSans-5f" transform="translate(537.744141 0)"/>
      <use xlink:href="#DejaVuSans-34" transform="translate(587.744141 0)"/>
      <use xlink:href="#DejaVuSans-34" transform="translate(651.367188 0)"/>
      <use xlink:href="#DejaVuSans-30" transform="translate(714.990234 0)"/>
      <use xlink:href="#DejaVuSans-63" transform="translate(778.613281 0)"/>
     </g>
    </g>
   </g>
  </g>
 </g>
 <defs>
  <clipPath id="pb2032102f0">
   <rect x="53.328125" y="22.318125" width="714.24" height="266.112"/>
  </clipPath>
 </defs>
</svg>
