<?xml version="1.0" encoding="utf-8" standalone="no"?>
<!DOCTYPE svg PUBLIC "-//W3C//DTD SVG 1.1//EN"
  "http://www.w3.org/Graphics/SVG/1.1/DTD/svg11.dtd">
<svg xmlns:xlink="http://www.w3.org/1999/xlink" width="895.669687pt" height="325.986375pt" viewBox="0 0 895.669687 325.986375" xmlns="http://www.w3.org/2000/svg" version="1.1">
 <metadata>
  <rdf:RDF xmlns:dc="http://purl.org/dc/elements/1.1/" xmlns:cc="http://creativecommons.org/ns#" xmlns:rdf="http://www.w3.org/1999/02/22-rdf-syntax-ns#">
   <cc:Work>
    <dc:type rdf:resource="http://purl.org/dc/dcmitype/StillImage"/>
    <dc:date>2026-06-10T05:16:02.832970</dc:date>
    <dc:format>image/svg+xml</dc:format>
    <dc:creator>
     <cc:Agent>
      <dc:title>Matplotlib v3.10.9, https://matplotlib.org/</dc:title>
     </cc:Agent>
    </dc:creator>
   </cc:Work>
  </rdf:RDF>
 </metadata>
 <defs>
  <style type="text/css">*{stroke-linejoin: round; stroke-linecap: butt}</style>
 </defs>
 <g id="figure_1">
  <g id="patch_1">
   <path d="M 0 325.986375 
L 895.669688 325.986375 
L 895.669688 0 
L 0 0 
z
" style="fill: #ffffff"/>
  </g>
  <g id="axes_1">
   <g id="patch_2">
    <path d="M 53.328125 288.430125 
L 767.568125 288.430125 
L 767.568125 22.318125 
L 53.328125 22.318125 
z
" style="fill: #ffffff"/>
   </g>
   <g id="FillBetweenPolyCollection_1">
    <defs>
     <path id="mc89479183c" d="M 53.328125 -49.65225 
L 53.328125 -49.65225 
L 540.583648 -280.208576 
L 579.549088 -280.208576 
L 602.34241 -280.545277 
L 618.514529 -280.545277 
L 631.058599 -280.545277 
L 641.30785 -280.545277 
L 649.973469 -281.471206 
L 657.479969 -281.639557 
L 664.101172 -281.807908 
L 670.024039 -281.892083 
L 675.381924 -283.491415 
L 680.27329 -283.491415 
L 684.772911 -283.491415 
L 688.938909 -283.491415 
L 692.81736 -283.659766 
L 696.445409 -283.828116 
L 699.853438 -283.912292 
L 703.066612 -283.912292 
L 706.106014 -283.912292 
L 708.989479 -283.912292 
L 711.732231 -283.912292 
L 714.347365 -284.164818 
L 716.846232 -284.164818 
L 719.238731 -284.248993 
L 721.533549 -284.248993 
L 723.738352 -284.248993 
L 725.859933 -284.248993 
L 727.90435 -284.248993 
L 729.877017 -284.248993 
L 731.782801 -284.585695 
L 733.626089 -284.585695 
L 735.41085 -284.585695 
L 737.140686 -284.838221 
L 738.818878 -285.090747 
L 740.44842 -285.174922 
L 742.032052 -285.511624 
L 743.572292 -285.848325 
L 745.071455 -286.100851 
L 746.531673 -286.353377 
L 747.95492 -286.942605 
L 749.343021 -286.942605 
L 750.697671 -287.02678 
L 752.020444 -287.02678 
L 753.312805 -287.02678 
L 754.576122 -287.02678 
L 755.811672 -287.110956 
L 757.020649 -287.110956 
L 758.204171 -287.110956 
L 759.36329 -287.110956 
L 760.49899 -287.195131 
L 761.612199 -287.195131 
L 762.703792 -287.195131 
L 763.774591 -287.195131 
L 764.825374 -289.636217 
L 764.825374 -291.57225 
L 764.825374 -291.57225 
L 763.774591 -291.57225 
L 762.703792 -291.57225 
L 761.612199 -291.57225 
L 760.49899 -291.57225 
L 759.36329 -291.57225 
L 758.204171 -291.57225 
L 757.020649 -291.57225 
L 755.811672 -291.57225 
L 754.576122 -291.57225 
L 753.312805 -291.57225 
L 752.020444 -291.57225 
L 750.697671 -291.488075 
L 749.343021 -291.488075 
L 747.95492 -291.488075 
L 746.531673 -291.488075 
L 745.071455 -291.488075 
L 743.572292 -291.488075 
L 742.032052 -291.488075 
L 740.44842 -291.488075 
L 738.818878 -291.488075 
L 737.140686 -291.488075 
L 735.41085 -291.488075 
L 733.626089 -291.488075 
L 731.782801 -291.488075 
L 729.877017 -291.488075 
L 727.90435 -291.488075 
L 725.859933 -291.488075 
L 723.738352 -291.488075 
L 721.533549 -291.488075 
L 719.238731 -291.488075 
L 716.846232 -291.488075 
L 714.347365 -291.403899 
L 711.732231 -291.403899 
L 708.989479 -290.983022 
L 706.106014 -288.962814 
L 703.066612 -288.962814 
L 699.853438 -288.878638 
L 696.445409 -288.878638 
L 692.81736 -288.878638 
L 688.938909 -288.794463 
L 684.772911 -288.626112 
L 680.27329 -288.457761 
L 675.381924 -287.784359 
L 670.024039 -287.700183 
L 664.101172 -287.447657 
L 657.479969 -287.110956 
L 649.973469 -287.02678 
L 641.30785 -285.174922 
L 631.058599 -283.828116 
L 618.514529 -283.40724 
L 602.34241 -283.238889 
L 579.549088 -282.986363 
L 540.583648 -282.060434 
L 53.328125 -49.65225 
z
" style="stroke: #98df8a; stroke-opacity: 0.2"/>
    </defs>
    <g clip-path="url(#peb3f97992b)">
     <use xlink:href="#mc89479183c" x="0" y="325.986375" style="fill: #98df8a; fill-opacity: 0.2; stroke: #98df8a; stroke-opacity: 0.2"/>
    </g>
   </g>
   <g id="FillBetweenPolyCollection_2">
    <defs>
     <path id="m8f5ba690ac" d="M 53.328125 -49.65225 
L 53.328125 -49.65225 
L 540.583648 -281.892083 
L 579.549088 -281.976258 
L 602.34241 -282.31296 
L 618.514529 -282.31296 
L 631.058599 -282.733837 
L 641.30785 -282.818012 
L 649.973469 -282.986363 
L 657.479969 -282.986363 
L 664.101172 -282.986363 
L 670.024039 -283.070538 
L 675.381924 -283.238889 
L 680.27329 -283.238889 
L 684.772911 -283.40724 
L 688.938909 -283.659766 
L 692.81736 -283.743941 
L 696.445409 -284.333169 
L 699.853438 -284.417344 
L 703.066612 -284.585695 
L 706.106014 -284.585695 
L 708.989479 -284.585695 
L 711.732231 -284.66987 
L 714.347365 -284.66987 
L 716.846232 -284.754045 
L 719.238731 -284.754045 
L 721.533549 -284.754045 
L 723.738352 -285.259098 
L 725.859933 -285.343273 
L 727.90435 -287.447657 
L 729.877017 -287.447657 
L 731.782801 -287.447657 
L 733.626089 -287.447657 
L 735.41085 -287.447657 
L 737.140686 -287.531832 
L 738.818878 -287.531832 
L 740.44842 -287.616008 
L 742.032052 -287.616008 
L 743.572292 -287.616008 
L 745.071455 -287.616008 
L 746.531673 -287.616008 
L 747.95492 -287.616008 
L 749.343021 -287.616008 
L 750.697671 -287.616008 
L 752.020444 -287.616008 
L 753.312805 -287.616008 
L 754.576122 -288.373586 
L 755.811672 -288.373586 
L 757.020649 -288.373586 
L 758.204171 -288.373586 
L 759.36329 -288.373586 
L 760.49899 -288.373586 
L 761.612199 -288.373586 
L 762.703792 -288.373586 
L 763.774591 -288.373586 
L 764.825374 -288.373586 
L 764.825374 -291.488075 
L 764.825374 -291.488075 
L 763.774591 -291.488075 
L 762.703792 -291.488075 
L 761.612199 -291.403899 
L 760.49899 -291.403899 
L 759.36329 -291.403899 
L 758.204171 -291.403899 
L 757.020649 -291.403899 
L 755.811672 -291.403899 
L 754.576122 -291.403899 
L 753.312805 -291.235549 
L 752.020444 -291.151373 
L 750.697671 -290.983022 
L 749.343021 -290.983022 
L 747.95492 -290.983022 
L 746.531673 -290.983022 
L 745.071455 -290.983022 
L 743.572292 -290.814672 
L 742.032052 -290.814672 
L 740.44842 -290.814672 
L 738.818878 -290.730496 
L 737.140686 -290.730496 
L 735.41085 -290.730496 
L 733.626089 -290.646321 
L 731.782801 -290.646321 
L 729.877017 -290.646321 
L 727.90435 -290.646321 
L 725.859933 -290.562146 
L 723.738352 -290.562146 
L 721.533549 -290.562146 
L 719.238731 -289.720392 
L 716.846232 -289.720392 
L 714.347365 -289.720392 
L 711.732231 -289.720392 
L 708.989479 -289.720392 
L 706.106014 -289.720392 
L 703.066612 -289.720392 
L 699.853438 -289.720392 
L 696.445409 -289.720392 
L 692.81736 -289.720392 
L 688.938909 -289.720392 
L 684.772911 -289.720392 
L 680.27329 -289.636217 
L 675.381924 -289.636217 
L 670.024039 -289.636217 
L 664.101172 -289.636217 
L 657.479969 -289.552041 
L 649.973469 -289.552041 
L 641.30785 -289.552041 
L 631.058599 -289.21534 
L 618.514529 -289.21534 
L 602.34241 -288.205235 
L 579.549088 -287.279306 
L 540.583648 -282.818012 
L 53.328125 -49.65225 
z
" style="stroke: #1f77b4; stroke-opacity: 0.2"/>
    </defs>
    <g clip-path="url(#peb3f97992b)">
     <use xlink:href="#m8f5ba690ac" x="0" y="325.986375" style="fill: #1f77b4; fill-opacity: 0.2; stroke: #1f77b4; stroke-opacity: 0.2"/>
    </g>
   </g>
   <g id="FillBetweenPolyCollection_3">
    <defs>
     <path id="m381b5e7b71" d="M 53.328125 -49.65225 
L 53.328125 -49.65225 
L 540.583648 -280.67154 
L 579.549088 -281.302855 
L 602.34241 -281.429118 
L 618.514529 -282.060434 
L 631.058599 -282.102521 
L 641.30785 -282.102521 
L 649.973469 -282.31296 
L 657.479969 -282.902187 
L 664.101172 -283.323064 
L 670.024039 -283.533503 
L 675.381924 -283.701853 
L 680.27329 -283.870204 
L 684.772911 -283.954379 
L 688.938909 -283.954379 
L 692.81736 -283.996467 
L 696.445409 -284.12273 
L 699.853438 -284.206906 
L 703.066612 -284.206906 
L 706.106014 -284.333169 
L 708.989479 -284.375256 
L 711.732231 -284.417344 
L 714.347365 -284.66987 
L 716.846232 -284.880308 
L 719.238731 -284.922396 
L 721.533549 -284.922396 
L 723.738352 -284.964484 
L 725.859933 -284.964484 
L 727.90435 -284.964484 
L 729.877017 -284.964484 
L 731.782801 -285.132835 
L 733.626089 -285.132835 
L 735.41085 -285.174922 
L 737.140686 -285.21701 
L 738.818878 -285.259098 
L 740.44842 -285.259098 
L 742.032052 -286.227114 
L 743.572292 -286.227114 
L 745.071455 -286.227114 
L 746.531673 -286.269202 
L 747.95492 -286.47964 
L 749.343021 -286.47964 
L 750.697671 -286.47964 
L 752.020444 -286.521728 
L 753.312805 -286.690079 
L 754.576122 -287.784359 
L 755.811672 -287.994797 
L 757.020649 -287.994797 
L 758.204171 -287.994797 
L 759.36329 -287.994797 
L 760.49899 -287.994797 
L 761.612199 -288.415674 
L 762.703792 -288.415674 
L 763.774591 -288.415674 
L 764.825374 -288.415674 
L 764.825374 -290.772584 
L 764.825374 -290.772584 
L 763.774591 -290.772584 
L 762.703792 -290.730496 
L 761.612199 -290.730496 
L 760.49899 -290.688409 
L 759.36329 -290.646321 
L 758.204171 -290.646321 
L 757.020649 -290.646321 
L 755.811672 -290.646321 
L 754.576122 -290.646321 
L 753.312805 -290.646321 
L 752.020444 -290.646321 
L 750.697671 -290.646321 
L 749.343021 -290.646321 
L 747.95492 -290.646321 
L 746.531673 -290.646321 
L 745.071455 -290.646321 
L 743.572292 -290.646321 
L 742.032052 -290.646321 
L 740.44842 -290.604233 
L 738.818878 -290.604233 
L 737.140686 -290.604233 
L 735.41085 -290.604233 
L 733.626089 -290.604233 
L 731.782801 -290.604233 
L 729.877017 -290.47797 
L 727.90435 -290.30962 
L 725.859933 -290.351707 
L 723.738352 -290.351707 
L 721.533549 -290.30962 
L 719.238731 -290.141269 
L 716.846232 -290.141269 
L 714.347365 -290.141269 
L 711.732231 -290.057093 
L 708.989479 -290.099181 
L 706.106014 -290.099181 
L 703.066612 -290.099181 
L 699.853438 -290.015006 
L 696.445409 -289.804567 
L 692.81736 -289.004901 
L 688.938909 -288.878638 
L 684.772911 -288.794463 
L 680.27329 -288.626112 
L 675.381924 -288.626112 
L 670.024039 -288.626112 
L 664.101172 -288.584025 
L 657.479969 -287.784359 
L 649.973469 -287.57392 
L 641.30785 -287.57392 
L 631.058599 -287.195131 
L 618.514529 -284.248993 
L 602.34241 -284.12273 
L 579.549088 -283.449327 
L 540.583648 -283.02845 
L 53.328125 -49.65225 
z
" style="stroke: #c7c7c7; stroke-opacity: 0.2"/>
    </defs>
    <g clip-path="url(#peb3f97992b)">
     <use xlink:href="#m381b5e7b71" x="0" y="325.986375" style="fill: #c7c7c7; fill-opacity: 0.2; stroke: #c7c7c7; stroke-opacity: 0.2"/>
    </g>
   </g>
   <g id="FillBetweenPolyCollection_4">
    <defs>
     <path id="mf8db75d137" d="M 53.328125 -49.65225 
L 53.328125 -49.65225 
L 540.583648 -280.881979 
L 579.549088 -281.639557 
L 602.34241 -281.976258 
L 618.514529 -282.144609 
L 631.058599 -282.818012 
L 641.30785 -282.986363 
L 649.973469 -283.154713 
L 657.479969 -283.491415 
L 664.101172 -283.617678 
L 670.024039 -283.912292 
L 675.381924 -283.912292 
L 680.27329 -283.996467 
L 684.772911 -283.996467 
L 688.938909 -284.038555 
L 692.81736 -284.080642 
L 696.445409 -284.080642 
L 699.853438 -284.248993 
L 703.066612 -284.164818 
L 706.106014 -284.206906 
L 708.989479 -284.206906 
L 711.732231 -284.333169 
L 714.347365 -284.417344 
L 716.846232 -284.501519 
L 719.238731 -284.66987 
L 721.533549 -284.66987 
L 723.738352 -284.66987 
L 725.859933 -284.66987 
L 727.90435 -284.754045 
L 729.877017 -284.796133 
L 731.782801 -285.848325 
L 733.626089 -285.848325 
L 735.41085 -285.890413 
L 737.140686 -285.890413 
L 738.818878 -285.974588 
L 740.44842 -285.974588 
L 742.032052 -286.85843 
L 743.572292 -286.85843 
L 745.071455 -286.85843 
L 746.531673 -286.900517 
L 747.95492 -286.900517 
L 749.343021 -286.942605 
L 750.697671 -286.942605 
L 752.020444 -287.447657 
L 753.312805 -286.984693 
L 754.576122 -286.984693 
L 755.811672 -287.02678 
L 757.020649 -287.153043 
L 758.204171 -287.195131 
L 759.36329 -287.237219 
L 760.49899 -287.237219 
L 761.612199 -288.247323 
L 762.703792 -288.247323 
L 763.774591 -288.247323 
L 764.825374 -288.247323 
L 764.825374 -291.109285 
L 764.825374 -291.109285 
L 763.774591 -291.109285 
L 762.703792 -291.109285 
L 761.612199 -291.109285 
L 760.49899 -291.109285 
L 759.36329 -291.067198 
L 758.204171 -291.067198 
L 757.020649 -291.067198 
L 755.811672 -291.067198 
L 754.576122 -291.067198 
L 753.312805 -291.067198 
L 752.020444 -291.067198 
L 750.697671 -291.067198 
L 749.343021 -291.067198 
L 747.95492 -291.067198 
L 746.531673 -291.067198 
L 745.071455 -291.067198 
L 743.572292 -291.067198 
L 742.032052 -290.983022 
L 740.44842 -291.067198 
L 738.818878 -291.067198 
L 737.140686 -290.646321 
L 735.41085 -290.646321 
L 733.626089 -290.646321 
L 731.782801 -290.646321 
L 729.877017 -290.646321 
L 727.90435 -290.520058 
L 725.859933 -289.509954 
L 723.738352 -289.509954 
L 721.533549 -289.467866 
L 719.238731 -289.425778 
L 716.846232 -289.425778 
L 714.347365 -289.383691 
L 711.732231 -289.383691 
L 708.989479 -289.383691 
L 706.106014 -288.962814 
L 703.066612 -288.962814 
L 699.853438 -288.163148 
L 696.445409 -287.952709 
L 692.81736 -288.12106 
L 688.938909 -287.952709 
L 684.772911 -287.700183 
L 680.27329 -287.700183 
L 675.381924 -287.616008 
L 670.024039 -287.489745 
L 664.101172 -287.321394 
L 657.479969 -287.195131 
L 649.973469 -286.395465 
L 641.30785 -286.31129 
L 631.058599 -285.806237 
L 618.514529 -284.754045 
L 602.34241 -284.291081 
L 579.549088 -283.743941 
L 540.583648 -282.228784 
L 53.328125 -49.65225 
z
" style="stroke: #d62728; stroke-opacity: 0.2"/>
    </defs>
    <g clip-path="url(#peb3f97992b)">
     <use xlink:href="#mf8db75d137" x="0" y="325.986375" style="fill: #d62728; fill-opacity: 0.2; stroke: #d62728; stroke-opacity: 0.2"/>
    </g>
   </g>
   <g id="matplotlib.axis_1">
    <g id="xtick_1">
     <g id="line2d_1">
      <defs>
       <path id="m636f03b6d3" d="M 0 0 
L 0 3.5 
" style="stroke: #000000; stroke-width: 0.8"/>
      </defs>
      <g>
       <use xlink:href="#m636f03b6d3" x="53.328125" y="288.430125" style="stroke: #000000; stroke-width: 0.8"/>
      </g>
     </g>
     <g id="text_1">
      <!-- 0m -->
      <g transform="translate(45.276563 303.028562) scale(0.1 -0.1)">
       <defs>
        <path id="DejaVuSans-30" d="M 2034 4250 
Q 1547 4250 1301 3770 
Q 1056 3291 1056 2328 
Q 1056 1369 1301 889 
Q 1547 409 2034 409 
Q 2525 409 2770 889 
Q 3016 1369 3016 2328 
Q 3016 3291 2770 3770 
Q 2525 4250 2034 4250 
z
M 2034 4750 
Q 2819 4750 3233 4129 
Q 3647 3509 3647 2328 
Q 3647 1150 3233 529 
Q 2819 -91 2034 -91 
Q 1250 -91 836 529 
Q 422 1150 422 2328 
Q 422 3509 836 4129 
Q 1250 4750 2034 4750 
z
" transform="scale(0.015625)"/>
        <path id="DejaVuSans-6d" d="M 3328 2828 
Q 3544 3216 3844 3400 
Q 4144 3584 4550 3584 
Q 5097 3584 5394 3201 
Q 5691 2819 5691 2113 
L 5691 0 
L 5113 0 
L 5113 2094 
Q 5113 2597 4934 2840 
Q 4756 3084 4391 3084 
Q 3944 3084 3684 2787 
Q 3425 2491 3425 1978 
L 3425 0 
L 2847 0 
L 2847 2094 
Q 2847 2600 2669 2842 
Q 2491 3084 2119 3084 
Q 1678 3084 1418 2786 
Q 1159 2488 1159 1978 
L 1159 0 
L 581 0 
L 581 3500 
L 1159 3500 
L 1159 2956 
Q 1356 3278 1631 3431 
Q 1906 3584 2284 3584 
Q 2666 3584 2933 3390 
Q 3200 3197 3328 2828 
z
" transform="scale(0.015625)"/>
       </defs>
       <use xlink:href="#DejaVuSans-30"/>
       <use xlink:href="#DejaVuSans-6d" transform="translate(63.623047 0)"/>
      </g>
     </g>
    </g>
    <g id="xtick_2">
     <g id="line2d_2">
      <g>
       <use xlink:href="#m636f03b6d3" x="125.239453" y="288.430125" style="stroke: #000000; stroke-width: 0.8"/>
      </g>
     </g>
    </g>
    <g id="xtick_3">
     <g id="line2d_3">
      <g>
       <use xlink:href="#m636f03b6d3" x="218.84946" y="288.430125" style="stroke: #000000; stroke-width: 0.8"/>
      </g>
     </g>
    </g>
    <g id="xtick_4">
     <g id="line2d_4">
      <g>
       <use xlink:href="#m636f03b6d3" x="279.513579" y="288.430125" style="stroke: #000000; stroke-width: 0.8"/>
      </g>
     </g>
    </g>
    <g id="xtick_5">
     <g id="line2d_5">
      <g>
       <use xlink:href="#m636f03b6d3" x="340.177698" y="288.430125" style="stroke: #000000; stroke-width: 0.8"/>
      </g>
     </g>
    </g>
    <g id="xtick_6">
     <g id="line2d_6">
      <g>
       <use xlink:href="#m636f03b6d3" x="400.841817" y="288.430125" style="stroke: #000000; stroke-width: 0.8"/>
      </g>
     </g>
     <g id="text_2">
      <!-- 1m -->
      <g transform="translate(392.790255 303.028562) scale(0.1 -0.1)">
       <defs>
        <path id="DejaVuSans-31" d="M 794 531 
L 1825 531 
L 1825 4091 
L 703 3866 
L 703 4441 
L 1819 4666 
L 2450 4666 
L 2450 531 
L 3481 531 
L 3481 0 
L 794 0 
L 794 531 
z
" transform="scale(0.015625)"/>
       </defs>
       <use xlink:href="#DejaVuSans-31"/>
       <use xlink:href="#DejaVuSans-6d" transform="translate(63.623047 0)"/>
      </g>
     </g>
    </g>
    <g id="xtick_7">
     <g id="line2d_7">
      <g>
       <use xlink:href="#m636f03b6d3" x="461.505936" y="288.430125" style="stroke: #000000; stroke-width: 0.8"/>
      </g>
     </g>
     <g id="text_3">
      <!-- 3m -->
      <g transform="translate(453.454374 303.028562) scale(0.1 -0.1)">
       <defs>
        <path id="DejaVuSans-33" d="M 2597 2516 
Q 3050 2419 3304 2112 
Q 3559 1806 3559 1356 
Q 3559 666 3084 287 
Q 2609 -91 1734 -91 
Q 1441 -91 1130 -33 
Q 819 25 488 141 
L 488 750 
Q 750 597 1062 519 
Q 1375 441 1716 441 
Q 2309 441 2620 675 
Q 2931 909 2931 1356 
Q 2931 1769 2642 2001 
Q 2353 2234 1838 2234 
L 1294 2234 
L 1294 2753 
L 1863 2753 
Q 2328 2753 2575 2939 
Q 2822 3125 2822 3475 
Q 2822 3834 2567 4026 
Q 2313 4219 1838 4219 
Q 1578 4219 1281 4162 
Q 984 4106 628 3988 
L 628 4550 
Q 988 4650 1302 4700 
Q 1616 4750 1894 4750 
Q 2613 4750 3031 4423 
Q 3450 4097 3450 3541 
Q 3450 3153 3228 2886 
Q 3006 2619 2597 2516 
z
" transform="scale(0.015625)"/>
       </defs>
       <use xlink:href="#DejaVuSans-33"/>
       <use xlink:href="#DejaVuSans-6d" transform="translate(63.623047 0)"/>
      </g>
     </g>
    </g>
    <g id="xtick_8">
     <g id="line2d_8">
      <g>
       <use xlink:href="#m636f03b6d3" x="522.170055" y="288.430125" style="stroke: #000000; stroke-width: 0.8"/>
      </g>
     </g>
     <g id="text_4">
      <!-- 10m -->
      <g transform="translate(510.937242 303.028562) scale(0.1 -0.1)">
       <use xlink:href="#DejaVuSans-31"/>
       <use xlink:href="#DejaVuSans-30" transform="translate(63.623047 0)"/>
       <use xlink:href="#DejaVuSans-6d" transform="translate(127.246094 0)"/>
      </g>
     </g>
    </g>
    <g id="xtick_9">
     <g id="line2d_9">
      <g>
       <use xlink:href="#m636f03b6d3" x="582.834174" y="288.430125" style="stroke: #000000; stroke-width: 0.8"/>
      </g>
     </g>
     <g id="text_5">
      <!-- 31m -->
      <g transform="translate(571.601361 303.028562) scale(0.1 -0.1)">
       <use xlink:href="#DejaVuSans-33"/>
       <use xlink:href="#DejaVuSans-31" transform="translate(63.623047 0)"/>
       <use xlink:href="#DejaVuSans-6d" transform="translate(127.246094 0)"/>
      </g>
     </g>
    </g>
    <g id="xtick_10">
     <g id="line2d_10">
      <g>
       <use xlink:href="#m636f03b6d3" x="643.498293" y="288.430125" style="stroke: #000000; stroke-width: 0.8"/>
      </g>
     </g>
     <g id="text_6">
      <!-- 1h:33m -->
      <g transform="translate(624.231105 303.028562) scale(0.1 -0.1)">
       <defs>
        <path id="DejaVuSans-68" d="M 3513 2113 
L 3513 0 
L 2938 0 
L 2938 2094 
Q 2938 2591 2744 2837 
Q 2550 3084 2163 3084 
Q 1697 3084 1428 2787 
Q 1159 2491 1159 1978 
L 1159 0 
L 581 0 
L 581 4863 
L 1159 4863 
L 1159 2956 
Q 1366 3272 1645 3428 
Q 1925 3584 2291 3584 
Q 2894 3584 3203 3211 
Q 3513 2838 3513 2113 
z
" transform="scale(0.015625)"/>
        <path id="DejaVuSans-3a" d="M 750 794 
L 1409 794 
L 1409 0 
L 750 0 
L 750 794 
z
M 750 3309 
L 1409 3309 
L 1409 2516 
L 750 2516 
L 750 3309 
z
" transform="scale(0.015625)"/>
       </defs>
       <use xlink:href="#DejaVuSans-31"/>
       <use xlink:href="#DejaVuSans-68" transform="translate(63.623047 0)"/>
       <use xlink:href="#DejaVuSans-3a" transform="translate(127.001953 0)"/>
       <use xlink:href="#DejaVuSans-33" transform="translate(160.693359 0)"/>
       <use xlink:href="#DejaVuSans-33" transform="translate(224.316406 0)"/>
       <use xlink:href="#DejaVuSans-6d" transform="translate(287.939453 0)"/>
      </g>
     </g>
    </g>
    <g id="xtick_11">
     <g id="line2d_11">
      <g>
       <use xlink:href="#m636f03b6d3" x="704.162412" y="288.430125" style="stroke: #000000; stroke-width: 0.8"/>
      </g>
     </g>
     <g id="text_7">
      <!-- 4h:35m -->
      <g transform="translate(684.895224 303.028562) scale(0.1 -0.1)">
       <defs>
        <path id="DejaVuSans-34" d="M 2419 4116 
L 825 1625 
L 2419 1625 
L 2419 4116 
z
M 2253 4666 
L 3047 4666 
L 3047 1625 
L 3713 1625 
L 3713 1100 
L 3047 1100 
L 3047 0 
L 2419 0 
L 2419 1100 
L 313 1100 
L 313 1709 
L 2253 4666 
z
" transform="scale(0.015625)"/>
        <path id="DejaVuSans-35" d="M 691 4666 
L 3169 4666 
L 3169 4134 
L 1269 4134 
L 1269 2991 
Q 1406 3038 1543 3061 
Q 1681 3084 1819 3084 
Q 2600 3084 3056 2656 
Q 3513 2228 3513 1497 
Q 3513 744 3044 326 
Q 2575 -91 1722 -91 
Q 1428 -91 1123 -41 
Q 819 9 494 109 
L 494 744 
Q 775 591 1075 516 
Q 1375 441 1709 441 
Q 2250 441 2565 725 
Q 2881 1009 2881 1497 
Q 2881 1984 2565 2268 
Q 2250 2553 1709 2553 
Q 1456 2553 1204 2497 
Q 953 2441 691 2322 
L 691 4666 
z
" transform="scale(0.015625)"/>
       </defs>
       <use xlink:href="#DejaVuSans-34"/>
       <use xlink:href="#DejaVuSans-68" transform="translate(63.623047 0)"/>
       <use xlink:href="#DejaVuSans-3a" transform="translate(127.001953 0)"/>
       <use xlink:href="#DejaVuSans-33" transform="translate(160.693359 0)"/>
       <use xlink:href="#DejaVuSans-35" transform="translate(224.316406 0)"/>
       <use xlink:href="#DejaVuSans-6d" transform="translate(287.939453 0)"/>
      </g>
     </g>
    </g>
    <g id="xtick_12">
     <g id="line2d_12">
      <g>
       <use xlink:href="#m636f03b6d3" x="764.826531" y="288.430125" style="stroke: #000000; stroke-width: 0.8"/>
      </g>
     </g>
     <g id="text_8">
      <!-- 13h:30m -->
      <g transform="translate(742.378093 303.028562) scale(0.1 -0.1)">
       <use xlink:href="#DejaVuSans-31"/>
       <use xlink:href="#DejaVuSans-33" transform="translate(63.623047 0)"/>
       <use xlink:href="#DejaVuSans-68" transform="translate(127.246094 0)"/>
       <use xlink:href="#DejaVuSans-3a" transform="translate(190.625 0)"/>
       <use xlink:href="#DejaVuSans-33" transform="translate(224.316406 0)"/>
       <use xlink:href="#DejaVuSans-30" transform="translate(287.939453 0)"/>
       <use xlink:href="#DejaVuSans-6d" transform="translate(351.5625 0)"/>
      </g>
     </g>
    </g>
    <g id="text_9">
     <!-- Time (hour:minute) -->
     <g transform="translate(362.041094 316.706687) scale(0.1 -0.1)">
      <defs>
       <path id="DejaVuSans-54" d="M -19 4666 
L 3928 4666 
L 3928 4134 
L 2272 4134 
L 2272 0 
L 1638 0 
L 1638 4134 
L -19 4134 
L -19 4666 
z
" transform="scale(0.015625)"/>
       <path id="DejaVuSans-69" d="M 603 3500 
L 1178 3500 
L 1178 0 
L 603 0 
L 603 3500 
z
M 603 4863 
L 1178 4863 
L 1178 4134 
L 603 4134 
L 603 4863 
z
" transform="scale(0.015625)"/>
       <path id="DejaVuSans-65" d="M 3597 1894 
L 3597 1613 
L 953 1613 
Q 991 1019 1311 708 
Q 1631 397 2203 397 
Q 2534 397 2845 478 
Q 3156 559 3463 722 
L 3463 178 
Q 3153 47 2828 -22 
Q 2503 -91 2169 -91 
Q 1331 -91 842 396 
Q 353 884 353 1716 
Q 353 2575 817 3079 
Q 1281 3584 2069 3584 
Q 2775 3584 3186 3129 
Q 3597 2675 3597 1894 
z
M 3022 2063 
Q 3016 2534 2758 2815 
Q 2500 3097 2075 3097 
Q 1594 3097 1305 2825 
Q 1016 2553 972 2059 
L 3022 2063 
z
" transform="scale(0.015625)"/>
       <path id="DejaVuSans-20" transform="scale(0.015625)"/>
       <path id="DejaVuSans-28" d="M 1984 4856 
Q 1566 4138 1362 3434 
Q 1159 2731 1159 2009 
Q 1159 1288 1364 580 
Q 1569 -128 1984 -844 
L 1484 -844 
Q 1016 -109 783 600 
Q 550 1309 550 2009 
Q 550 2706 781 3412 
Q 1013 4119 1484 4856 
L 1984 4856 
z
" transform="scale(0.015625)"/>
       <path id="DejaVuSans-6f" d="M 1959 3097 
Q 1497 3097 1228 2736 
Q 959 2375 959 1747 
Q 959 1119 1226 758 
Q 1494 397 1959 397 
Q 2419 397 2687 759 
Q 2956 1122 2956 1747 
Q 2956 2369 2687 2733 
Q 2419 3097 1959 3097 
z
M 1959 3584 
Q 2709 3584 3137 3096 
Q 3566 2609 3566 1747 
Q 3566 888 3137 398 
Q 2709 -91 1959 -91 
Q 1206 -91 779 398 
Q 353 888 353 1747 
Q 353 2609 779 3096 
Q 1206 3584 1959 3584 
z
" transform="scale(0.015625)"/>
       <path id="DejaVuSans-75" d="M 544 1381 
L 544 3500 
L 1119 3500 
L 1119 1403 
Q 1119 906 1312 657 
Q 1506 409 1894 409 
Q 2359 409 2629 706 
Q 2900 1003 2900 1516 
L 2900 3500 
L 3475 3500 
L 3475 0 
L 2900 0 
L 2900 538 
Q 2691 219 2414 64 
Q 2138 -91 1772 -91 
Q 1169 -91 856 284 
Q 544 659 544 1381 
z
M 1991 3584 
L 1991 3584 
z
" transform="scale(0.015625)"/>
       <path id="DejaVuSans-72" d="M 2631 2963 
Q 2534 3019 2420 3045 
Q 2306 3072 2169 3072 
Q 1681 3072 1420 2755 
Q 1159 2438 1159 1844 
L 1159 0 
L 581 0 
L 581 3500 
L 1159 3500 
L 1159 2956 
Q 1341 3275 1631 3429 
Q 1922 3584 2338 3584 
Q 2397 3584 2469 3576 
Q 2541 3569 2628 3553 
L 2631 2963 
z
" transform="scale(0.015625)"/>
       <path id="DejaVuSans-6e" d="M 3513 2113 
L 3513 0 
L 2938 0 
L 2938 2094 
Q 2938 2591 2744 2837 
Q 2550 3084 2163 3084 
Q 1697 3084 1428 2787 
Q 1159 2491 1159 1978 
L 1159 0 
L 581 0 
L 581 3500 
L 1159 3500 
L 1159 2956 
Q 1366 3272 1645 3428 
Q 1925 3584 2291 3584 
Q 2894 3584 3203 3211 
Q 3513 2838 3513 2113 
z
" transform="scale(0.015625)"/>
       <path id="DejaVuSans-74" d="M 1172 4494 
L 1172 3500 
L 2356 3500 
L 2356 3053 
L 1172 3053 
L 1172 1153 
Q 1172 725 1289 603 
Q 1406 481 1766 481 
L 2356 481 
L 2356 0 
L 1766 0 
Q 1100 0 847 248 
Q 594 497 594 1153 
L 594 3053 
L 172 3053 
L 172 3500 
L 594 3500 
L 594 4494 
L 1172 4494 
z
" transform="scale(0.015625)"/>
       <path id="DejaVuSans-29" d="M 513 4856 
L 1013 4856 
Q 1481 4119 1714 3412 
Q 1947 2706 1947 2009 
Q 1947 1309 1714 600 
Q 1481 -109 1013 -844 
L 513 -844 
Q 928 -128 1133 580 
Q 1338 1288 1338 2009 
Q 1338 2731 1133 3434 
Q 928 4138 513 4856 
z
" transform="scale(0.015625)"/>
      </defs>
      <use xlink:href="#DejaVuSans-54"/>
      <use xlink:href="#DejaVuSans-69" transform="translate(57.958984 0)"/>
      <use xlink:href="#DejaVuSans-6d" transform="translate(85.742188 0)"/>
      <use xlink:href="#DejaVuSans-65" transform="translate(183.154297 0)"/>
      <use xlink:href="#DejaVuSans-20" transform="translate(244.677734 0)"/>
      <use xlink:href="#DejaVuSans-28" transform="translate(276.464844 0)"/>
      <use xlink:href="#DejaVuSans-68" transform="translate(315.478516 0)"/>
      <use xlink:href="#DejaVuSans-6f" transform="translate(378.857422 0)"/>
      <use xlink:href="#DejaVuSans-75" transform="translate(440.039062 0)"/>
      <use xlink:href="#DejaVuSans-72" transform="translate(503.417969 0)"/>
      <use xlink:href="#DejaVuSans-3a" transform="translate(542.78125 0)"/>
      <use xlink:href="#DejaVuSans-6d" transform="translate(576.472656 0)"/>
      <use xlink:href="#DejaVuSans-69" transform="translate(673.884766 0)"/>
      <use xlink:href="#DejaVuSans-6e" transform="translate(701.667969 0)"/>
      <use xlink:href="#DejaVuSans-75" transform="translate(765.046875 0)"/>
      <use xlink:href="#DejaVuSans-74" transform="translate(828.425781 0)"/>
      <use xlink:href="#DejaVuSans-65" transform="translate(867.634766 0)"/>
      <use xlink:href="#DejaVuSans-29" transform="translate(929.158203 0)"/>
     </g>
    </g>
   </g>
   <g id="matplotlib.axis_2">
    <g id="ytick_1">
     <g id="line2d_13">
      <defs>
       <path id="meaf83fac02" d="M 0 0 
L -3.5 0 
" style="stroke: #000000; stroke-width: 0.8"/>
      </defs>
      <g>
       <use xlink:href="#meaf83fac02" x="53.328125" y="276.334125" style="stroke: #000000; stroke-width: 0.8"/>
      </g>
     </g>
     <g id="text_10">
      <!-- 0 -->
      <g transform="translate(39.965625 280.133344) scale(0.1 -0.1)">
       <use xlink:href="#DejaVuSans-30"/>
      </g>
     </g>
    </g>
    <g id="ytick_2">
     <g id="line2d_14">
      <g>
       <use xlink:href="#meaf83fac02" x="53.328125" y="234.246442" style="stroke: #000000; stroke-width: 0.8"/>
      </g>
     </g>
     <g id="text_11">
      <!-- 500 -->
      <g transform="translate(27.240625 238.045661) scale(0.1 -0.1)">
       <use xlink:href="#DejaVuSans-35"/>
       <use xlink:href="#DejaVuSans-30" transform="translate(63.623047 0)"/>
       <use xlink:href="#DejaVuSans-30" transform="translate(127.246094 0)"/>
      </g>
     </g>
    </g>
    <g id="ytick_3">
     <g id="line2d_15">
      <g>
       <use xlink:href="#meaf83fac02" x="53.328125" y="192.15876" style="stroke: #000000; stroke-width: 0.8"/>
      </g>
     </g>
     <g id="text_12">
      <!-- 1000 -->
      <g transform="translate(20.878125 195.957978) scale(0.1 -0.1)">
       <use xlink:href="#DejaVuSans-31"/>
       <use xlink:href="#DejaVuSans-30" transform="translate(63.623047 0)"/>
       <use xlink:href="#DejaVuSans-30" transform="translate(127.246094 0)"/>
       <use xlink:href="#DejaVuSans-30" transform="translate(190.869141 0)"/>
      </g>
     </g>
    </g>
    <g id="ytick_4">
     <g id="line2d_16">
      <g>
       <use xlink:href="#meaf83fac02" x="53.328125" y="150.071077" style="stroke: #000000; stroke-width: 0.8"/>
      </g>
     </g>
     <g id="text_13">
      <!-- 1500 -->
      <g transform="translate(20.878125 153.870296) scale(0.1 -0.1)">
       <use xlink:href="#DejaVuSans-31"/>
       <use xlink:href="#DejaVuSans-35" transform="translate(63.623047 0)"/>
       <use xlink:href="#DejaVuSans-30" transform="translate(127.246094 0)"/>
       <use xlink:href="#DejaVuSans-30" transform="translate(190.869141 0)"/>
      </g>
     </g>
    </g>
    <g id="ytick_5">
     <g id="line2d_17">
      <g>
       <use xlink:href="#meaf83fac02" x="53.328125" y="107.983394" style="stroke: #000000; stroke-width: 0.8"/>
      </g>
     </g>
     <g id="text_14">
      <!-- 2000 -->
      <g transform="translate(20.878125 111.782613) scale(0.1 -0.1)">
       <defs>
        <path id="DejaVuSans-32" d="M 1228 531 
L 3431 531 
L 3431 0 
L 469 0 
L 469 531 
Q 828 903 1448 1529 
Q 2069 2156 2228 2338 
Q 2531 2678 2651 2914 
Q 2772 3150 2772 3378 
Q 2772 3750 2511 3984 
Q 2250 4219 1831 4219 
Q 1534 4219 1204 4116 
Q 875 4013 500 3803 
L 500 4441 
Q 881 4594 1212 4672 
Q 1544 4750 1819 4750 
Q 2544 4750 2975 4387 
Q 3406 4025 3406 3419 
Q 3406 3131 3298 2873 
Q 3191 2616 2906 2266 
Q 2828 2175 2409 1742 
Q 1991 1309 1228 531 
z
" transform="scale(0.015625)"/>
       </defs>
       <use xlink:href="#DejaVuSans-32"/>
       <use xlink:href="#DejaVuSans-30" transform="translate(63.623047 0)"/>
       <use xlink:href="#DejaVuSans-30" transform="translate(127.246094 0)"/>
       <use xlink:href="#DejaVuSans-30" transform="translate(190.869141 0)"/>
      </g>
     </g>
    </g>
    <g id="ytick_6">
     <g id="line2d_18">
      <g>
       <use xlink:href="#meaf83fac02" x="53.328125" y="65.895712" style="stroke: #000000; stroke-width: 0.8"/>
      </g>
     </g>
     <g id="text_15">
      <!-- 2500 -->
      <g transform="translate(20.878125 69.69493) scale(0.1 -0.1)">
       <use xlink:href="#DejaVuSans-32"/>
       <use xlink:href="#DejaVuSans-35" transform="translate(63.623047 0)"/>
       <use xlink:href="#DejaVuSans-30" transform="translate(127.246094 0)"/>
       <use xlink:href="#DejaVuSans-30" transform="translate(190.869141 0)"/>
      </g>
     </g>
    </g>
    <g id="ytick_7">
     <g id="line2d_19">
      <g>
       <use xlink:href="#meaf83fac02" x="53.328125" y="23.808029" style="stroke: #000000; stroke-width: 0.8"/>
      </g>
     </g>
     <g id="text_16">
      <!-- 3000 -->
      <g transform="translate(20.878125 27.607248) scale(0.1 -0.1)">
       <use xlink:href="#DejaVuSans-33"/>
       <use xlink:href="#DejaVuSans-30" transform="translate(63.623047 0)"/>
       <use xlink:href="#DejaVuSans-30" transform="translate(127.246094 0)"/>
       <use xlink:href="#DejaVuSans-30" transform="translate(190.869141 0)"/>
      </g>
     </g>
    </g>
    <g id="text_17">
     <!-- Code branch coverage -->
     <g transform="translate(14.798438 211.949125) rotate(-90) scale(0.1 -0.1)">
      <defs>
       <path id="DejaVuSans-43" d="M 4122 4306 
L 4122 3641 
Q 3803 3938 3442 4084 
Q 3081 4231 2675 4231 
Q 1875 4231 1450 3742 
Q 1025 3253 1025 2328 
Q 1025 1406 1450 917 
Q 1875 428 2675 428 
Q 3081 428 3442 575 
Q 3803 722 4122 1019 
L 4122 359 
Q 3791 134 3420 21 
Q 3050 -91 2638 -91 
Q 1578 -91 968 557 
Q 359 1206 359 2328 
Q 359 3453 968 4101 
Q 1578 4750 2638 4750 
Q 3056 4750 3426 4639 
Q 3797 4528 4122 4306 
z
" transform="scale(0.015625)"/>
       <path id="DejaVuSans-64" d="M 2906 2969 
L 2906 4863 
L 3481 4863 
L 3481 0 
L 2906 0 
L 2906 525 
Q 2725 213 2448 61 
Q 2172 -91 1784 -91 
Q 1150 -91 751 415 
Q 353 922 353 1747 
Q 353 2572 751 3078 
Q 1150 3584 1784 3584 
Q 2172 3584 2448 3432 
Q 2725 3281 2906 2969 
z
M 947 1747 
Q 947 1113 1208 752 
Q 1469 391 1925 391 
Q 2381 391 2643 752 
Q 2906 1113 2906 1747 
Q 2906 2381 2643 2742 
Q 2381 3103 1925 3103 
Q 1469 3103 1208 2742 
Q 947 2381 947 1747 
z
" transform="scale(0.015625)"/>
       <path id="DejaVuSans-62" d="M 3116 1747 
Q 3116 2381 2855 2742 
Q 2594 3103 2138 3103 
Q 1681 3103 1420 2742 
Q 1159 2381 1159 1747 
Q 1159 1113 1420 752 
Q 1681 391 2138 391 
Q 2594 391 2855 752 
Q 3116 1113 3116 1747 
z
M 1159 2969 
Q 1341 3281 1617 3432 
Q 1894 3584 2278 3584 
Q 2916 3584 3314 3078 
Q 3713 2572 3713 1747 
Q 3713 922 3314 415 
Q 2916 -91 2278 -91 
Q 1894 -91 1617 61 
Q 1341 213 1159 525 
L 1159 0 
L 581 0 
L 581 4863 
L 1159 4863 
L 1159 2969 
z
" transform="scale(0.015625)"/>
       <path id="DejaVuSans-61" d="M 2194 1759 
Q 1497 1759 1228 1600 
Q 959 1441 959 1056 
Q 959 750 1161 570 
Q 1363 391 1709 391 
Q 2188 391 2477 730 
Q 2766 1069 2766 1631 
L 2766 1759 
L 2194 1759 
z
M 3341 1997 
L 3341 0 
L 2766 0 
L 2766 531 
Q 2569 213 2275 61 
Q 1981 -91 1556 -91 
Q 1019 -91 701 211 
Q 384 513 384 1019 
Q 384 1609 779 1909 
Q 1175 2209 1959 2209 
L 2766 2209 
L 2766 2266 
Q 2766 2663 2505 2880 
Q 2244 3097 1772 3097 
Q 1472 3097 1187 3025 
Q 903 2953 641 2809 
L 641 3341 
Q 956 3463 1253 3523 
Q 1550 3584 1831 3584 
Q 2591 3584 2966 3190 
Q 3341 2797 3341 1997 
z
" transform="scale(0.015625)"/>
       <path id="DejaVuSans-63" d="M 3122 3366 
L 3122 2828 
Q 2878 2963 2633 3030 
Q 2388 3097 2138 3097 
Q 1578 3097 1268 2742 
Q 959 2388 959 1747 
Q 959 1106 1268 751 
Q 1578 397 2138 397 
Q 2388 397 2633 464 
Q 2878 531 3122 666 
L 3122 134 
Q 2881 22 2623 -34 
Q 2366 -91 2075 -91 
Q 1284 -91 818 406 
Q 353 903 353 1747 
Q 353 2603 823 3093 
Q 1294 3584 2113 3584 
Q 2378 3584 2631 3529 
Q 2884 3475 3122 3366 
z
" transform="scale(0.015625)"/>
       <path id="DejaVuSans-76" d="M 191 3500 
L 800 3500 
L 1894 563 
L 2988 3500 
L 3597 3500 
L 2284 0 
L 1503 0 
L 191 3500 
z
" transform="scale(0.015625)"/>
       <path id="DejaVuSans-67" d="M 2906 1791 
Q 2906 2416 2648 2759 
Q 2391 3103 1925 3103 
Q 1463 3103 1205 2759 
Q 947 2416 947 1791 
Q 947 1169 1205 825 
Q 1463 481 1925 481 
Q 2391 481 2648 825 
Q 2906 1169 2906 1791 
z
M 3481 434 
Q 3481 -459 3084 -895 
Q 2688 -1331 1869 -1331 
Q 1566 -1331 1297 -1286 
Q 1028 -1241 775 -1147 
L 775 -588 
Q 1028 -725 1275 -790 
Q 1522 -856 1778 -856 
Q 2344 -856 2625 -561 
Q 2906 -266 2906 331 
L 2906 616 
Q 2728 306 2450 153 
Q 2172 0 1784 0 
Q 1141 0 747 490 
Q 353 981 353 1791 
Q 353 2603 747 3093 
Q 1141 3584 1784 3584 
Q 2172 3584 2450 3431 
Q 2728 3278 2906 2969 
L 2906 3500 
L 3481 3500 
L 3481 434 
z
" transform="scale(0.015625)"/>
      </defs>
      <use xlink:href="#DejaVuSans-43"/>
      <use xlink:href="#DejaVuSans-6f" transform="translate(69.824219 0)"/>
      <use xlink:href="#DejaVuSans-64" transform="translate(131.005859 0)"/>
      <use xlink:href="#DejaVuSans-65" transform="translate(194.482422 0)"/>
      <use xlink:href="#DejaVuSans-20" transform="translate(256.005859 0)"/>
      <use xlink:href="#DejaVuSans-62" transform="translate(287.792969 0)"/>
      <use xlink:href="#DejaVuSans-72" transform="translate(351.269531 0)"/>
      <use xlink:href="#DejaVuSans-61" transform="translate(392.382812 0)"/>
      <use xlink:href="#DejaVuSans-6e" transform="translate(453.662109 0)"/>
      <use xlink:href="#DejaVuSans-63" transform="translate(517.041016 0)"/>
      <use xlink:href="#DejaVuSans-68" transform="translate(572.021484 0)"/>
      <use xlink:href="#DejaVuSans-20" transform="translate(635.400391 0)"/>
      <use xlink:href="#DejaVuSans-63" transform="translate(667.1875 0)"/>
      <use xlink:href="#DejaVuSans-6f" transform="translate(722.167969 0)"/>
      <use xlink:href="#DejaVuSans-76" transform="translate(783.349609 0)"/>
      <use xlink:href="#DejaVuSans-65" transform="translate(842.529297 0)"/>
      <use xlink:href="#DejaVuSans-72" transform="translate(904.052734 0)"/>
      <use xlink:href="#DejaVuSans-61" transform="translate(945.166016 0)"/>
      <use xlink:href="#DejaVuSans-67" transform="translate(1006.445312 0)"/>
      <use xlink:href="#DejaVuSans-65" transform="translate(1069.921875 0)"/>
     </g>
    </g>
   </g>
   <g id="line2d_20">
    <path d="M 53.328125 276.334125 
L 540.583648 44.85187 
L 579.549088 44.388906 
L 602.34241 44.094292 
L 618.514529 44.010117 
L 631.058599 43.799678 
L 641.30785 43.126275 
L 649.973469 41.737382 
L 657.479969 41.611119 
L 664.101172 41.358593 
L 670.024039 41.190242 
L 675.381924 40.348488 
L 680.27329 40.011787 
L 684.772911 39.927611 
L 688.938909 39.843436 
L 692.81736 39.717173 
L 696.445409 39.632998 
L 699.853438 39.59091 
L 703.066612 39.548822 
L 706.106014 39.548822 
L 708.989479 38.538718 
L 711.732231 38.328279 
L 714.347365 38.202016 
L 716.846232 38.159929 
L 719.238731 38.117841 
L 721.533549 38.117841 
L 723.738352 38.117841 
L 725.859933 38.117841 
L 727.90435 38.117841 
L 729.877017 38.117841 
L 731.782801 37.94949 
L 733.626089 37.94949 
L 735.41085 37.94949 
L 737.140686 37.823227 
L 738.818878 37.696964 
L 740.44842 37.654877 
L 742.032052 37.486526 
L 743.572292 37.318175 
L 745.071455 37.191912 
L 746.531673 37.065649 
L 747.95492 36.771035 
L 749.343021 36.771035 
L 750.697671 36.728948 
L 752.020444 36.68686 
L 753.312805 36.68686 
L 754.576122 36.68686 
L 755.811672 36.644772 
L 757.020649 36.644772 
L 758.204171 36.644772 
L 759.36329 36.644772 
L 760.49899 36.602684 
L 761.612199 36.602684 
L 762.703792 36.602684 
L 763.774591 36.602684 
L 764.825374 35.382142 
" clip-path="url(#peb3f97992b)" style="fill: none; stroke: #98df8a; stroke-width: 1.5; stroke-linecap: square"/>
    <defs>
     <path id="m75c06790b3" d="M -0 3 
L 3 -3 
L -3 -3 
z
" style="stroke: #ffffff; stroke-width: 0.75; stroke-linejoin: miter"/>
    </defs>
    <g clip-path="url(#peb3f97992b)">
     <use xlink:href="#m75c06790b3" x="53.328125" y="276.334125" style="fill: #98df8a; stroke: #ffffff; stroke-width: 0.75; stroke-linejoin: miter"/>
     <use xlink:href="#m75c06790b3" x="540.583648" y="44.85187" style="fill: #98df8a; stroke: #ffffff; stroke-width: 0.75; stroke-linejoin: miter"/>
     <use xlink:href="#m75c06790b3" x="579.549088" y="44.388906" style="fill: #98df8a; stroke: #ffffff; stroke-width: 0.75; stroke-linejoin: miter"/>
     <use xlink:href="#m75c06790b3" x="602.34241" y="44.094292" style="fill: #98df8a; stroke: #ffffff; stroke-width: 0.75; stroke-linejoin: miter"/>
     <use xlink:href="#m75c06790b3" x="618.514529" y="44.010117" style="fill: #98df8a; stroke: #ffffff; stroke-width: 0.75; stroke-linejoin: miter"/>
     <use xlink:href="#m75c06790b3" x="631.058599" y="43.799678" style="fill: #98df8a; stroke: #ffffff; stroke-width: 0.75; stroke-linejoin: miter"/>
     <use xlink:href="#m75c06790b3" x="641.30785" y="43.126275" style="fill: #98df8a; stroke: #ffffff; stroke-width: 0.75; stroke-linejoin: miter"/>
     <use xlink:href="#m75c06790b3" x="649.973469" y="41.737382" style="fill: #98df8a; stroke: #ffffff; stroke-width: 0.75; stroke-linejoin: miter"/>
     <use xlink:href="#m75c06790b3" x="657.479969" y="41.611119" style="fill: #98df8a; stroke: #ffffff; stroke-width: 0.75; stroke-linejoin: miter"/>
     <use xlink:href="#m75c06790b3" x="664.101172" y="41.358593" style="fill: #98df8a; stroke: #ffffff; stroke-width: 0.75; stroke-linejoin: miter"/>
     <use xlink:href="#m75c06790b3" x="670.024039" y="41.190242" style="fill: #98df8a; stroke: #ffffff; stroke-width: 0.75; stroke-linejoin: miter"/>
     <use xlink:href="#m75c06790b3" x="675.381924" y="40.348488" style="fill: #98df8a; stroke: #ffffff; stroke-width: 0.75; stroke-linejoin: miter"/>
     <use xlink:href="#m75c06790b3" x="680.27329" y="40.011787" style="fill: #98df8a; stroke: #ffffff; stroke-width: 0.75; stroke-linejoin: miter"/>
     <use xlink:href="#m75c06790b3" x="684.772911" y="39.927611" style="fill: #98df8a; stroke: #ffffff; stroke-width: 0.75; stroke-linejoin: miter"/>
     <use xlink:href="#m75c06790b3" x="688.938909" y="39.843436" style="fill: #98df8a; stroke: #ffffff; stroke-width: 0.75; stroke-linejoin: miter"/>
     <use xlink:href="#m75c06790b3" x="692.81736" y="39.717173" style="fill: #98df8a; stroke: #ffffff; stroke-width: 0.75; stroke-linejoin: miter"/>
     <use xlink:href="#m75c06790b3" x="696.445409" y="39.632998" style="fill: #98df8a; stroke: #ffffff; stroke-width: 0.75; stroke-linejoin: miter"/>
     <use xlink:href="#m75c06790b3" x="699.853438" y="39.59091" style="fill: #98df8a; stroke: #ffffff; stroke-width: 0.75; stroke-linejoin: miter"/>
     <use xlink:href="#m75c06790b3" x="703.066612" y="39.548822" style="fill: #98df8a; stroke: #ffffff; stroke-width: 0.75; stroke-linejoin: miter"/>
     <use xlink:href="#m75c06790b3" x="706.106014" y="39.548822" style="fill: #98df8a; stroke: #ffffff; stroke-width: 0.75; stroke-linejoin: miter"/>
     <use xlink:href="#m75c06790b3" x="708.989479" y="38.538718" style="fill: #98df8a; stroke: #ffffff; stroke-width: 0.75; stroke-linejoin: miter"/>
     <use xlink:href="#m75c06790b3" x="711.732231" y="38.328279" style="fill: #98df8a; stroke: #ffffff; stroke-width: 0.75; stroke-linejoin: miter"/>
     <use xlink:href="#m75c06790b3" x="714.347365" y="38.202016" style="fill: #98df8a; stroke: #ffffff; stroke-width: 0.75; stroke-linejoin: miter"/>
     <use xlink:href="#m75c06790b3" x="716.846232" y="38.159929" style="fill: #98df8a; stroke: #ffffff; stroke-width: 0.75; stroke-linejoin: miter"/>
     <use xlink:href="#m75c06790b3" x="719.238731" y="38.117841" style="fill: #98df8a; stroke: #ffffff; stroke-width: 0.75; stroke-linejoin: miter"/>
     <use xlink:href="#m75c06790b3" x="721.533549" y="38.117841" style="fill: #98df8a; stroke: #ffffff; stroke-width: 0.75; stroke-linejoin: miter"/>
     <use xlink:href="#m75c06790b3" x="723.738352" y="38.117841" style="fill: #98df8a; stroke: #ffffff; stroke-width: 0.75; stroke-linejoin: miter"/>
     <use xlink:href="#m75c06790b3" x="725.859933" y="38.117841" style="fill: #98df8a; stroke: #ffffff; stroke-width: 0.75; stroke-linejoin: miter"/>
     <use xlink:href="#m75c06790b3" x="727.90435" y="38.117841" style="fill: #98df8a; stroke: #ffffff; stroke-width: 0.75; stroke-linejoin: miter"/>
     <use xlink:href="#m75c06790b3" x="729.877017" y="38.117841" style="fill: #98df8a; stroke: #ffffff; stroke-width: 0.75; stroke-linejoin: miter"/>
     <use xlink:href="#m75c06790b3" x="731.782801" y="37.94949" style="fill: #98df8a; stroke: #ffffff; stroke-width: 0.75; stroke-linejoin: miter"/>
     <use xlink:href="#m75c06790b3" x="733.626089" y="37.94949" style="fill: #98df8a; stroke: #ffffff; stroke-width: 0.75; stroke-linejoin: miter"/>
     <use xlink:href="#m75c06790b3" x="735.41085" y="37.94949" style="fill: #98df8a; stroke: #ffffff; stroke-width: 0.75; stroke-linejoin: miter"/>
     <use xlink:href="#m75c06790b3" x="737.140686" y="37.823227" style="fill: #98df8a; stroke: #ffffff; stroke-width: 0.75; stroke-linejoin: miter"/>
     <use xlink:href="#m75c06790b3" x="738.818878" y="37.696964" style="fill: #98df8a; stroke: #ffffff; stroke-width: 0.75; stroke-linejoin: miter"/>
     <use xlink:href="#m75c06790b3" x="740.44842" y="37.654877" style="fill: #98df8a; stroke: #ffffff; stroke-width: 0.75; stroke-linejoin: miter"/>
     <use xlink:href="#m75c06790b3" x="742.032052" y="37.486526" style="fill: #98df8a; stroke: #ffffff; stroke-width: 0.75; stroke-linejoin: miter"/>
     <use xlink:href="#m75c06790b3" x="743.572292" y="37.318175" style="fill: #98df8a; stroke: #ffffff; stroke-width: 0.75; stroke-linejoin: miter"/>
     <use xlink:href="#m75c06790b3" x="745.071455" y="37.191912" style="fill: #98df8a; stroke: #ffffff; stroke-width: 0.75; stroke-linejoin: miter"/>
     <use xlink:href="#m75c06790b3" x="746.531673" y="37.065649" style="fill: #98df8a; stroke: #ffffff; stroke-width: 0.75; stroke-linejoin: miter"/>
     <use xlink:href="#m75c06790b3" x="747.95492" y="36.771035" style="fill: #98df8a; stroke: #ffffff; stroke-width: 0.75; stroke-linejoin: miter"/>
     <use xlink:href="#m75c06790b3" x="749.343021" y="36.771035" style="fill: #98df8a; stroke: #ffffff; stroke-width: 0.75; stroke-linejoin: miter"/>
     <use xlink:href="#m75c06790b3" x="750.697671" y="36.728948" style="fill: #98df8a; stroke: #ffffff; stroke-width: 0.75; stroke-linejoin: miter"/>
     <use xlink:href="#m75c06790b3" x="752.020444" y="36.68686" style="fill: #98df8a; stroke: #ffffff; stroke-width: 0.75; stroke-linejoin: miter"/>
     <use xlink:href="#m75c06790b3" x="753.312805" y="36.68686" style="fill: #98df8a; stroke: #ffffff; stroke-width: 0.75; stroke-linejoin: miter"/>
     <use xlink:href="#m75c06790b3" x="754.576122" y="36.68686" style="fill: #98df8a; stroke: #ffffff; stroke-width: 0.75; stroke-linejoin: miter"/>
     <use xlink:href="#m75c06790b3" x="755.811672" y="36.644772" style="fill: #98df8a; stroke: #ffffff; stroke-width: 0.75; stroke-linejoin: miter"/>
     <use xlink:href="#m75c06790b3" x="757.020649" y="36.644772" style="fill: #98df8a; stroke: #ffffff; stroke-width: 0.75; stroke-linejoin: miter"/>
     <use xlink:href="#m75c06790b3" x="758.204171" y="36.644772" style="fill: #98df8a; stroke: #ffffff; stroke-width: 0.75; stroke-linejoin: miter"/>
     <use xlink:href="#m75c06790b3" x="759.36329" y="36.644772" style="fill: #98df8a; stroke: #ffffff; stroke-width: 0.75; stroke-linejoin: miter"/>
     <use xlink:href="#m75c06790b3" x="760.49899" y="36.602684" style="fill: #98df8a; stroke: #ffffff; stroke-width: 0.75; stroke-linejoin: miter"/>
     <use xlink:href="#m75c06790b3" x="761.612199" y="36.602684" style="fill: #98df8a; stroke: #ffffff; stroke-width: 0.75; stroke-linejoin: miter"/>
     <use xlink:href="#m75c06790b3" x="762.703792" y="36.602684" style="fill: #98df8a; stroke: #ffffff; stroke-width: 0.75; stroke-linejoin: miter"/>
     <use xlink:href="#m75c06790b3" x="763.774591" y="36.602684" style="fill: #98df8a; stroke: #ffffff; stroke-width: 0.75; stroke-linejoin: miter"/>
     <use xlink:href="#m75c06790b3" x="764.825374" y="35.382142" style="fill: #98df8a; stroke: #ffffff; stroke-width: 0.75; stroke-linejoin: miter"/>
    </g>
   </g>
   <g id="line2d_21">
    <path d="M 53.328125 276.334125 
L 540.583648 43.841766 
L 579.549088 42.747486 
L 602.34241 41.653206 
L 618.514529 40.558927 
L 631.058599 39.548822 
L 641.30785 39.464647 
L 649.973469 38.875419 
L 657.479969 38.791244 
L 664.101172 38.707069 
L 670.024039 38.622893 
L 675.381924 38.622893 
L 680.27329 38.622893 
L 684.772911 38.538718 
L 688.938909 38.538718 
L 692.81736 38.454543 
L 696.445409 38.117841 
L 699.853438 38.117841 
L 703.066612 38.117841 
L 706.106014 38.117841 
L 708.989479 38.117841 
L 711.732231 37.865315 
L 714.347365 37.865315 
L 716.846232 37.865315 
L 719.238731 37.865315 
L 721.533549 37.78114 
L 723.738352 37.78114 
L 725.859933 37.78114 
L 727.90435 37.78114 
L 729.877017 37.78114 
L 731.782801 37.78114 
L 733.626089 37.696964 
L 735.41085 37.696964 
L 737.140686 37.696964 
L 738.818878 37.696964 
L 740.44842 37.696964 
L 742.032052 37.696964 
L 743.572292 37.696964 
L 745.071455 36.602684 
L 746.531673 35.929282 
L 747.95492 35.929282 
L 749.343021 35.929282 
L 750.697671 35.929282 
L 752.020444 35.929282 
L 753.312805 35.929282 
L 754.576122 35.929282 
L 755.811672 35.929282 
L 757.020649 35.929282 
L 758.204171 35.929282 
L 759.36329 35.929282 
L 760.49899 35.929282 
L 761.612199 35.929282 
L 762.703792 35.929282 
L 763.774591 35.845106 
L 764.825374 35.845106 
" clip-path="url(#peb3f97992b)" style="fill: none; stroke: #1f77b4; stroke-width: 1.5; stroke-linecap: square"/>
    <defs>
     <path id="mafea9e7417" d="M 0 3 
C 0.795609 3 1.55874 2.683901 2.12132 2.12132 
C 2.683901 1.55874 3 0.795609 3 0 
C 3 -0.795609 2.683901 -1.55874 2.12132 -2.12132 
C 1.55874 -2.683901 0.795609 -3 0 -3 
C -0.795609 -3 -1.55874 -2.683901 -2.12132 -2.12132 
C -2.683901 -1.55874 -3 -0.795609 -3 0 
C -3 0.795609 -2.683901 1.55874 -2.12132 2.12132 
C -1.55874 2.683901 -0.795609 3 0 3 
z
" style="stroke: #ffffff; stroke-width: 0.75"/>
    </defs>
    <g clip-path="url(#peb3f97992b)">
     <use xlink:href="#mafea9e7417" x="53.328125" y="276.334125" style="fill: #1f77b4; stroke: #ffffff; stroke-width: 0.75"/>
     <use xlink:href="#mafea9e7417" x="540.583648" y="43.841766" style="fill: #1f77b4; stroke: #ffffff; stroke-width: 0.75"/>
     <use xlink:href="#mafea9e7417" x="579.549088" y="42.747486" style="fill: #1f77b4; stroke: #ffffff; stroke-width: 0.75"/>
     <use xlink:href="#mafea9e7417" x="602.34241" y="41.653206" style="fill: #1f77b4; stroke: #ffffff; stroke-width: 0.75"/>
     <use xlink:href="#mafea9e7417" x="618.514529" y="40.558927" style="fill: #1f77b4; stroke: #ffffff; stroke-width: 0.75"/>
     <use xlink:href="#mafea9e7417" x="631.058599" y="39.548822" style="fill: #1f77b4; stroke: #ffffff; stroke-width: 0.75"/>
     <use xlink:href="#mafea9e7417" x="641.30785" y="39.464647" style="fill: #1f77b4; stroke: #ffffff; stroke-width: 0.75"/>
     <use xlink:href="#mafea9e7417" x="649.973469" y="38.875419" style="fill: #1f77b4; stroke: #ffffff; stroke-width: 0.75"/>
     <use xlink:href="#mafea9e7417" x="657.479969" y="38.791244" style="fill: #1f77b4; stroke: #ffffff; stroke-width: 0.75"/>
     <use xlink:href="#mafea9e7417" x="664.101172" y="38.707069" style="fill: #1f77b4; stroke: #ffffff; stroke-width: 0.75"/>
     <use xlink:href="#mafea9e7417" x="670.024039" y="38.622893" style="fill: #1f77b4; stroke: #ffffff; stroke-width: 0.75"/>
     <use xlink:href="#mafea9e7417" x="675.381924" y="38.622893" style="fill: #1f77b4; stroke: #ffffff; stroke-width: 0.75"/>
     <use xlink:href="#mafea9e7417" x="680.27329" y="38.622893" style="fill: #1f77b4; stroke: #ffffff; stroke-width: 0.75"/>
     <use xlink:href="#mafea9e7417" x="684.772911" y="38.538718" style="fill: #1f77b4; stroke: #ffffff; stroke-width: 0.75"/>
     <use xlink:href="#mafea9e7417" x="688.938909" y="38.538718" style="fill: #1f77b4; stroke: #ffffff; stroke-width: 0.75"/>
     <use xlink:href="#mafea9e7417" x="692.81736" y="38.454543" style="fill: #1f77b4; stroke: #ffffff; stroke-width: 0.75"/>
     <use xlink:href="#mafea9e7417" x="696.445409" y="38.117841" style="fill: #1f77b4; stroke: #ffffff; stroke-width: 0.75"/>
     <use xlink:href="#mafea9e7417" x="699.853438" y="38.117841" style="fill: #1f77b4; stroke: #ffffff; stroke-width: 0.75"/>
     <use xlink:href="#mafea9e7417" x="703.066612" y="38.117841" style="fill: #1f77b4; stroke: #ffffff; stroke-width: 0.75"/>
     <use xlink:href="#mafea9e7417" x="706.106014" y="38.117841" style="fill: #1f77b4; stroke: #ffffff; stroke-width: 0.75"/>
     <use xlink:href="#mafea9e7417" x="708.989479" y="38.117841" style="fill: #1f77b4; stroke: #ffffff; stroke-width: 0.75"/>
     <use xlink:href="#mafea9e7417" x="711.732231" y="37.865315" style="fill: #1f77b4; stroke: #ffffff; stroke-width: 0.75"/>
     <use xlink:href="#mafea9e7417" x="714.347365" y="37.865315" style="fill: #1f77b4; stroke: #ffffff; stroke-width: 0.75"/>
     <use xlink:href="#mafea9e7417" x="716.846232" y="37.865315" style="fill: #1f77b4; stroke: #ffffff; stroke-width: 0.75"/>
     <use xlink:href="#mafea9e7417" x="719.238731" y="37.865315" style="fill: #1f77b4; stroke: #ffffff; stroke-width: 0.75"/>
     <use xlink:href="#mafea9e7417" x="721.533549" y="37.78114" style="fill: #1f77b4; stroke: #ffffff; stroke-width: 0.75"/>
     <use xlink:href="#mafea9e7417" x="723.738352" y="37.78114" style="fill: #1f77b4; stroke: #ffffff; stroke-width: 0.75"/>
     <use xlink:href="#mafea9e7417" x="725.859933" y="37.78114" style="fill: #1f77b4; stroke: #ffffff; stroke-width: 0.75"/>
     <use xlink:href="#mafea9e7417" x="727.90435" y="37.78114" style="fill: #1f77b4; stroke: #ffffff; stroke-width: 0.75"/>
     <use xlink:href="#mafea9e7417" x="729.877017" y="37.78114" style="fill: #1f77b4; stroke: #ffffff; stroke-width: 0.75"/>
     <use xlink:href="#mafea9e7417" x="731.782801" y="37.78114" style="fill: #1f77b4; stroke: #ffffff; stroke-width: 0.75"/>
     <use xlink:href="#mafea9e7417" x="733.626089" y="37.696964" style="fill: #1f77b4; stroke: #ffffff; stroke-width: 0.75"/>
     <use xlink:href="#mafea9e7417" x="735.41085" y="37.696964" style="fill: #1f77b4; stroke: #ffffff; stroke-width: 0.75"/>
     <use xlink:href="#mafea9e7417" x="737.140686" y="37.696964" style="fill: #1f77b4; stroke: #ffffff; stroke-width: 0.75"/>
     <use xlink:href="#mafea9e7417" x="738.818878" y="37.696964" style="fill: #1f77b4; stroke: #ffffff; stroke-width: 0.75"/>
     <use xlink:href="#mafea9e7417" x="740.44842" y="37.696964" style="fill: #1f77b4; stroke: #ffffff; stroke-width: 0.75"/>
     <use xlink:href="#mafea9e7417" x="742.032052" y="37.696964" style="fill: #1f77b4; stroke: #ffffff; stroke-width: 0.75"/>
     <use xlink:href="#mafea9e7417" x="743.572292" y="37.696964" style="fill: #1f77b4; stroke: #ffffff; stroke-width: 0.75"/>
     <use xlink:href="#mafea9e7417" x="745.071455" y="36.602684" style="fill: #1f77b4; stroke: #ffffff; stroke-width: 0.75"/>
     <use xlink:href="#mafea9e7417" x="746.531673" y="35.929282" style="fill: #1f77b4; stroke: #ffffff; stroke-width: 0.75"/>
     <use xlink:href="#mafea9e7417" x="747.95492" y="35.929282" style="fill: #1f77b4; stroke: #ffffff; stroke-width: 0.75"/>
     <use xlink:href="#mafea9e7417" x="749.343021" y="35.929282" style="fill: #1f77b4; stroke: #ffffff; stroke-width: 0.75"/>
     <use xlink:href="#mafea9e7417" x="750.697671" y="35.929282" style="fill: #1f77b4; stroke: #ffffff; stroke-width: 0.75"/>
     <use xlink:href="#mafea9e7417" x="752.020444" y="35.929282" style="fill: #1f77b4; stroke: #ffffff; stroke-width: 0.75"/>
     <use xlink:href="#mafea9e7417" x="753.312805" y="35.929282" style="fill: #1f77b4; stroke: #ffffff; stroke-width: 0.75"/>
     <use xlink:href="#mafea9e7417" x="754.576122" y="35.929282" style="fill: #1f77b4; stroke: #ffffff; stroke-width: 0.75"/>
     <use xlink:href="#mafea9e7417" x="755.811672" y="35.929282" style="fill: #1f77b4; stroke: #ffffff; stroke-width: 0.75"/>
     <use xlink:href="#mafea9e7417" x="757.020649" y="35.929282" style="fill: #1f77b4; stroke: #ffffff; stroke-width: 0.75"/>
     <use xlink:href="#mafea9e7417" x="758.204171" y="35.929282" style="fill: #1f77b4; stroke: #ffffff; stroke-width: 0.75"/>
     <use xlink:href="#mafea9e7417" x="759.36329" y="35.929282" style="fill: #1f77b4; stroke: #ffffff; stroke-width: 0.75"/>
     <use xlink:href="#mafea9e7417" x="760.49899" y="35.929282" style="fill: #1f77b4; stroke: #ffffff; stroke-width: 0.75"/>
     <use xlink:href="#mafea9e7417" x="761.612199" y="35.929282" style="fill: #1f77b4; stroke: #ffffff; stroke-width: 0.75"/>
     <use xlink:href="#mafea9e7417" x="762.703792" y="35.929282" style="fill: #1f77b4; stroke: #ffffff; stroke-width: 0.75"/>
     <use xlink:href="#mafea9e7417" x="763.774591" y="35.845106" style="fill: #1f77b4; stroke: #ffffff; stroke-width: 0.75"/>
     <use xlink:href="#mafea9e7417" x="764.825374" y="35.845106" style="fill: #1f77b4; stroke: #ffffff; stroke-width: 0.75"/>
    </g>
   </g>
   <g id="line2d_22">
    <path d="M 53.328125 276.334125 
L 540.583648 43.925941 
L 579.549088 43.294626 
L 602.34241 42.957925 
L 618.514529 42.663311 
L 631.058599 42.074083 
L 641.30785 41.653206 
L 649.973469 41.526943 
L 657.479969 41.442768 
L 664.101172 40.979803 
L 670.024039 40.769365 
L 675.381924 40.348488 
L 680.27329 39.422559 
L 684.772911 39.001682 
L 688.938909 38.959595 
L 692.81736 38.833332 
L 696.445409 38.791244 
L 699.853438 38.664981 
L 703.066612 38.664981 
L 706.106014 38.622893 
L 708.989479 38.622893 
L 711.732231 38.622893 
L 714.347365 38.622893 
L 716.846232 38.580806 
L 719.238731 38.580806 
L 721.533549 38.580806 
L 723.738352 38.412455 
L 725.859933 38.370367 
L 727.90435 38.370367 
L 729.877017 38.370367 
L 731.782801 38.159929 
L 733.626089 38.159929 
L 735.41085 38.159929 
L 737.140686 38.159929 
L 738.818878 38.159929 
L 740.44842 38.159929 
L 742.032052 37.78114 
L 743.572292 37.654877 
L 745.071455 37.654877 
L 746.531673 37.654877 
L 747.95492 37.654877 
L 749.343021 37.654877 
L 750.697671 37.654877 
L 752.020444 37.654877 
L 753.312805 36.855211 
L 754.576122 36.855211 
L 755.811672 36.728948 
L 757.020649 36.728948 
L 758.204171 36.560597 
L 759.36329 36.560597 
L 760.49899 36.560597 
L 761.612199 35.760931 
L 762.703792 35.760931 
L 763.774591 35.718843 
L 764.825374 35.718843 
" clip-path="url(#peb3f97992b)" style="fill: none; stroke: #c7c7c7; stroke-width: 1.5; stroke-linecap: square"/>
    <defs>
     <path id="m2dfcf20a1d" d="M -3 -0 
L 3 3 
L 3 -3 
z
" style="stroke: #ffffff; stroke-width: 0.75; stroke-linejoin: miter"/>
    </defs>
    <g clip-path="url(#peb3f97992b)">
     <use xlink:href="#m2dfcf20a1d" x="53.328125" y="276.334125" style="fill: #c7c7c7; stroke: #ffffff; stroke-width: 0.75; stroke-linejoin: miter"/>
     <use xlink:href="#m2dfcf20a1d" x="540.583648" y="43.925941" style="fill: #c7c7c7; stroke: #ffffff; stroke-width: 0.75; stroke-linejoin: miter"/>
     <use xlink:href="#m2dfcf20a1d" x="579.549088" y="43.294626" style="fill: #c7c7c7; stroke: #ffffff; stroke-width: 0.75; stroke-linejoin: miter"/>
     <use xlink:href="#m2dfcf20a1d" x="602.34241" y="42.957925" style="fill: #c7c7c7; stroke: #ffffff; stroke-width: 0.75; stroke-linejoin: miter"/>
     <use xlink:href="#m2dfcf20a1d" x="618.514529" y="42.663311" style="fill: #c7c7c7; stroke: #ffffff; stroke-width: 0.75; stroke-linejoin: miter"/>
     <use xlink:href="#m2dfcf20a1d" x="631.058599" y="42.074083" style="fill: #c7c7c7; stroke: #ffffff; stroke-width: 0.75; stroke-linejoin: miter"/>
     <use xlink:href="#m2dfcf20a1d" x="641.30785" y="41.653206" style="fill: #c7c7c7; stroke: #ffffff; stroke-width: 0.75; stroke-linejoin: miter"/>
     <use xlink:href="#m2dfcf20a1d" x="649.973469" y="41.526943" style="fill: #c7c7c7; stroke: #ffffff; stroke-width: 0.75; stroke-linejoin: miter"/>
     <use xlink:href="#m2dfcf20a1d" x="657.479969" y="41.442768" style="fill: #c7c7c7; stroke: #ffffff; stroke-width: 0.75; stroke-linejoin: miter"/>
     <use xlink:href="#m2dfcf20a1d" x="664.101172" y="40.979803" style="fill: #c7c7c7; stroke: #ffffff; stroke-width: 0.75; stroke-linejoin: miter"/>
     <use xlink:href="#m2dfcf20a1d" x="670.024039" y="40.769365" style="fill: #c7c7c7; stroke: #ffffff; stroke-width: 0.75; stroke-linejoin: miter"/>
     <use xlink:href="#m2dfcf20a1d" x="675.381924" y="40.348488" style="fill: #c7c7c7; stroke: #ffffff; stroke-width: 0.75; stroke-linejoin: miter"/>
     <use xlink:href="#m2dfcf20a1d" x="680.27329" y="39.422559" style="fill: #c7c7c7; stroke: #ffffff; stroke-width: 0.75; stroke-linejoin: miter"/>
     <use xlink:href="#m2dfcf20a1d" x="684.772911" y="39.001682" style="fill: #c7c7c7; stroke: #ffffff; stroke-width: 0.75; stroke-linejoin: miter"/>
     <use xlink:href="#m2dfcf20a1d" x="688.938909" y="38.959595" style="fill: #c7c7c7; stroke: #ffffff; stroke-width: 0.75; stroke-linejoin: miter"/>
     <use xlink:href="#m2dfcf20a1d" x="692.81736" y="38.833332" style="fill: #c7c7c7; stroke: #ffffff; stroke-width: 0.75; stroke-linejoin: miter"/>
     <use xlink:href="#m2dfcf20a1d" x="696.445409" y="38.791244" style="fill: #c7c7c7; stroke: #ffffff; stroke-width: 0.75; stroke-linejoin: miter"/>
     <use xlink:href="#m2dfcf20a1d" x="699.853438" y="38.664981" style="fill: #c7c7c7; stroke: #ffffff; stroke-width: 0.75; stroke-linejoin: miter"/>
     <use xlink:href="#m2dfcf20a1d" x="703.066612" y="38.664981" style="fill: #c7c7c7; stroke: #ffffff; stroke-width: 0.75; stroke-linejoin: miter"/>
     <use xlink:href="#m2dfcf20a1d" x="706.106014" y="38.622893" style="fill: #c7c7c7; stroke: #ffffff; stroke-width: 0.75; stroke-linejoin: miter"/>
     <use xlink:href="#m2dfcf20a1d" x="708.989479" y="38.622893" style="fill: #c7c7c7; stroke: #ffffff; stroke-width: 0.75; stroke-linejoin: miter"/>
     <use xlink:href="#m2dfcf20a1d" x="711.732231" y="38.622893" style="fill: #c7c7c7; stroke: #ffffff; stroke-width: 0.75; stroke-linejoin: miter"/>
     <use xlink:href="#m2dfcf20a1d" x="714.347365" y="38.622893" style="fill: #c7c7c7; stroke: #ffffff; stroke-width: 0.75; stroke-linejoin: miter"/>
     <use xlink:href="#m2dfcf20a1d" x="716.846232" y="38.580806" style="fill: #c7c7c7; stroke: #ffffff; stroke-width: 0.75; stroke-linejoin: miter"/>
     <use xlink:href="#m2dfcf20a1d" x="719.238731" y="38.580806" style="fill: #c7c7c7; stroke: #ffffff; stroke-width: 0.75; stroke-linejoin: miter"/>
     <use xlink:href="#m2dfcf20a1d" x="721.533549" y="38.580806" style="fill: #c7c7c7; stroke: #ffffff; stroke-width: 0.75; stroke-linejoin: miter"/>
     <use xlink:href="#m2dfcf20a1d" x="723.738352" y="38.412455" style="fill: #c7c7c7; stroke: #ffffff; stroke-width: 0.75; stroke-linejoin: miter"/>
     <use xlink:href="#m2dfcf20a1d" x="725.859933" y="38.370367" style="fill: #c7c7c7; stroke: #ffffff; stroke-width: 0.75; stroke-linejoin: miter"/>
     <use xlink:href="#m2dfcf20a1d" x="727.90435" y="38.370367" style="fill: #c7c7c7; stroke: #ffffff; stroke-width: 0.75; stroke-linejoin: miter"/>
     <use xlink:href="#m2dfcf20a1d" x="729.877017" y="38.370367" style="fill: #c7c7c7; stroke: #ffffff; stroke-width: 0.75; stroke-linejoin: miter"/>
     <use xlink:href="#m2dfcf20a1d" x="731.782801" y="38.159929" style="fill: #c7c7c7; stroke: #ffffff; stroke-width: 0.75; stroke-linejoin: miter"/>
     <use xlink:href="#m2dfcf20a1d" x="733.626089" y="38.159929" style="fill: #c7c7c7; stroke: #ffffff; stroke-width: 0.75; stroke-linejoin: miter"/>
     <use xlink:href="#m2dfcf20a1d" x="735.41085" y="38.159929" style="fill: #c7c7c7; stroke: #ffffff; stroke-width: 0.75; stroke-linejoin: miter"/>
     <use xlink:href="#m2dfcf20a1d" x="737.140686" y="38.159929" style="fill: #c7c7c7; stroke: #ffffff; stroke-width: 0.75; stroke-linejoin: miter"/>
     <use xlink:href="#m2dfcf20a1d" x="738.818878" y="38.159929" style="fill: #c7c7c7; stroke: #ffffff; stroke-width: 0.75; stroke-linejoin: miter"/>
     <use xlink:href="#m2dfcf20a1d" x="740.44842" y="38.159929" style="fill: #c7c7c7; stroke: #ffffff; stroke-width: 0.75; stroke-linejoin: miter"/>
     <use xlink:href="#m2dfcf20a1d" x="742.032052" y="37.78114" style="fill: #c7c7c7; stroke: #ffffff; stroke-width: 0.75; stroke-linejoin: miter"/>
     <use xlink:href="#m2dfcf20a1d" x="743.572292" y="37.654877" style="fill: #c7c7c7; stroke: #ffffff; stroke-width: 0.75; stroke-linejoin: miter"/>
     <use xlink:href="#m2dfcf20a1d" x="745.071455" y="37.654877" style="fill: #c7c7c7; stroke: #ffffff; stroke-width: 0.75; stroke-linejoin: miter"/>
     <use xlink:href="#m2dfcf20a1d" x="746.531673" y="37.654877" style="fill: #c7c7c7; stroke: #ffffff; stroke-width: 0.75; stroke-linejoin: miter"/>
     <use xlink:href="#m2dfcf20a1d" x="747.95492" y="37.654877" style="fill: #c7c7c7; stroke: #ffffff; stroke-width: 0.75; stroke-linejoin: miter"/>
     <use xlink:href="#m2dfcf20a1d" x="749.343021" y="37.654877" style="fill: #c7c7c7; stroke: #ffffff; stroke-width: 0.75; stroke-linejoin: miter"/>
     <use xlink:href="#m2dfcf20a1d" x="750.697671" y="37.654877" style="fill: #c7c7c7; stroke: #ffffff; stroke-width: 0.75; stroke-linejoin: miter"/>
     <use xlink:href="#m2dfcf20a1d" x="752.020444" y="37.654877" style="fill: #c7c7c7; stroke: #ffffff; stroke-width: 0.75; stroke-linejoin: miter"/>
     <use xlink:href="#m2dfcf20a1d" x="753.312805" y="36.855211" style="fill: #c7c7c7; stroke: #ffffff; stroke-width: 0.75; stroke-linejoin: miter"/>
     <use xlink:href="#m2dfcf20a1d" x="754.576122" y="36.855211" style="fill: #c7c7c7; stroke: #ffffff; stroke-width: 0.75; stroke-linejoin: miter"/>
     <use xlink:href="#m2dfcf20a1d" x="755.811672" y="36.728948" style="fill: #c7c7c7; stroke: #ffffff; stroke-width: 0.75; stroke-linejoin: miter"/>
     <use xlink:href="#m2dfcf20a1d" x="757.020649" y="36.728948" style="fill: #c7c7c7; stroke: #ffffff; stroke-width: 0.75; stroke-linejoin: miter"/>
     <use xlink:href="#m2dfcf20a1d" x="758.204171" y="36.560597" style="fill: #c7c7c7; stroke: #ffffff; stroke-width: 0.75; stroke-linejoin: miter"/>
     <use xlink:href="#m2dfcf20a1d" x="759.36329" y="36.560597" style="fill: #c7c7c7; stroke: #ffffff; stroke-width: 0.75; stroke-linejoin: miter"/>
     <use xlink:href="#m2dfcf20a1d" x="760.49899" y="36.560597" style="fill: #c7c7c7; stroke: #ffffff; stroke-width: 0.75; stroke-linejoin: miter"/>
     <use xlink:href="#m2dfcf20a1d" x="761.612199" y="35.760931" style="fill: #c7c7c7; stroke: #ffffff; stroke-width: 0.75; stroke-linejoin: miter"/>
     <use xlink:href="#m2dfcf20a1d" x="762.703792" y="35.760931" style="fill: #c7c7c7; stroke: #ffffff; stroke-width: 0.75; stroke-linejoin: miter"/>
     <use xlink:href="#m2dfcf20a1d" x="763.774591" y="35.718843" style="fill: #c7c7c7; stroke: #ffffff; stroke-width: 0.75; stroke-linejoin: miter"/>
     <use xlink:href="#m2dfcf20a1d" x="764.825374" y="35.718843" style="fill: #c7c7c7; stroke: #ffffff; stroke-width: 0.75; stroke-linejoin: miter"/>
    </g>
   </g>
   <g id="line2d_23">
    <path d="M 53.328125 276.334125 
L 540.583648 44.220555 
L 579.549088 43.505064 
L 602.34241 43.378801 
L 618.514529 42.284522 
L 631.058599 41.695294 
L 641.30785 41.526943 
L 649.973469 41.442768 
L 657.479969 41.106067 
L 664.101172 41.021891 
L 670.024039 39.843436 
L 675.381924 39.843436 
L 680.27329 39.380472 
L 684.772911 39.338384 
L 688.938909 38.749156 
L 692.81736 38.749156 
L 696.445409 38.749156 
L 699.853438 38.49663 
L 703.066612 38.244104 
L 706.106014 38.117841 
L 708.989479 38.117841 
L 711.732231 38.117841 
L 714.347365 38.117841 
L 716.846232 38.117841 
L 719.238731 38.075753 
L 721.533549 38.033666 
L 723.738352 37.991578 
L 725.859933 37.78114 
L 727.90435 37.318175 
L 729.877017 37.276087 
L 731.782801 37.276087 
L 733.626089 37.234 
L 735.41085 37.234 
L 737.140686 37.149824 
L 738.818878 36.350158 
L 740.44842 36.350158 
L 742.032052 36.350158 
L 743.572292 36.350158 
L 745.071455 36.350158 
L 746.531673 36.350158 
L 747.95492 36.350158 
L 749.343021 36.350158 
L 750.697671 36.350158 
L 752.020444 36.350158 
L 753.312805 36.350158 
L 754.576122 36.350158 
L 755.811672 36.350158 
L 757.020649 36.350158 
L 758.204171 36.350158 
L 759.36329 36.350158 
L 760.49899 36.350158 
L 761.612199 36.13972 
L 762.703792 36.13972 
L 763.774591 36.097632 
L 764.825374 36.097632 
" clip-path="url(#peb3f97992b)" style="fill: none; stroke: #d62728; stroke-width: 1.5; stroke-linecap: square"/>
    <defs>
     <path id="m4e4547173f" d="M 0 -3 
L -3 3 
L 3 3 
z
" style="stroke: #ffffff; stroke-width: 0.75; stroke-linejoin: miter"/>
    </defs>
    <g clip-path="url(#peb3f97992b)">
     <use xlink:href="#m4e4547173f" x="53.328125" y="276.334125" style="fill: #d62728; stroke: #ffffff; stroke-width: 0.75; stroke-linejoin: miter"/>
     <use xlink:href="#m4e4547173f" x="540.583648" y="44.220555" style="fill: #d62728; stroke: #ffffff; stroke-width: 0.75; stroke-linejoin: miter"/>
     <use xlink:href="#m4e4547173f" x="579.549088" y="43.505064" style="fill: #d62728; stroke: #ffffff; stroke-width: 0.75; stroke-linejoin: miter"/>
     <use xlink:href="#m4e4547173f" x="602.34241" y="43.378801" style="fill: #d62728; stroke: #ffffff; stroke-width: 0.75; stroke-linejoin: miter"/>
     <use xlink:href="#m4e4547173f" x="618.514529" y="42.284522" style="fill: #d62728; stroke: #ffffff; stroke-width: 0.75; stroke-linejoin: miter"/>
     <use xlink:href="#m4e4547173f" x="631.058599" y="41.695294" style="fill: #d62728; stroke: #ffffff; stroke-width: 0.75; stroke-linejoin: miter"/>
     <use xlink:href="#m4e4547173f" x="641.30785" y="41.526943" style="fill: #d62728; stroke: #ffffff; stroke-width: 0.75; stroke-linejoin: miter"/>
     <use xlink:href="#m4e4547173f" x="649.973469" y="41.442768" style="fill: #d62728; stroke: #ffffff; stroke-width: 0.75; stroke-linejoin: miter"/>
     <use xlink:href="#m4e4547173f" x="657.479969" y="41.106067" style="fill: #d62728; stroke: #ffffff; stroke-width: 0.75; stroke-linejoin: miter"/>
     <use xlink:href="#m4e4547173f" x="664.101172" y="41.021891" style="fill: #d62728; stroke: #ffffff; stroke-width: 0.75; stroke-linejoin: miter"/>
     <use xlink:href="#m4e4547173f" x="670.024039" y="39.843436" style="fill: #d62728; stroke: #ffffff; stroke-width: 0.75; stroke-linejoin: miter"/>
     <use xlink:href="#m4e4547173f" x="675.381924" y="39.843436" style="fill: #d62728; stroke: #ffffff; stroke-width: 0.75; stroke-linejoin: miter"/>
     <use xlink:href="#m4e4547173f" x="680.27329" y="39.380472" style="fill: #d62728; stroke: #ffffff; stroke-width: 0.75; stroke-linejoin: miter"/>
     <use xlink:href="#m4e4547173f" x="684.772911" y="39.338384" style="fill: #d62728; stroke: #ffffff; stroke-width: 0.75; stroke-linejoin: miter"/>
     <use xlink:href="#m4e4547173f" x="688.938909" y="38.749156" style="fill: #d62728; stroke: #ffffff; stroke-width: 0.75; stroke-linejoin: miter"/>
     <use xlink:href="#m4e4547173f" x="692.81736" y="38.749156" style="fill: #d62728; stroke: #ffffff; stroke-width: 0.75; stroke-linejoin: miter"/>
     <use xlink:href="#m4e4547173f" x="696.445409" y="38.749156" style="fill: #d62728; stroke: #ffffff; stroke-width: 0.75; stroke-linejoin: miter"/>
     <use xlink:href="#m4e4547173f" x="699.853438" y="38.49663" style="fill: #d62728; stroke: #ffffff; stroke-width: 0.75; stroke-linejoin: miter"/>
     <use xlink:href="#m4e4547173f" x="703.066612" y="38.244104" style="fill: #d62728; stroke: #ffffff; stroke-width: 0.75; stroke-linejoin: miter"/>
     <use xlink:href="#m4e4547173f" x="706.106014" y="38.117841" style="fill: #d62728; stroke: #ffffff; stroke-width: 0.75; stroke-linejoin: miter"/>
     <use xlink:href="#m4e4547173f" x="708.989479" y="38.117841" style="fill: #d62728; stroke: #ffffff; stroke-width: 0.75; stroke-linejoin: miter"/>
     <use xlink:href="#m4e4547173f" x="711.732231" y="38.117841" style="fill: #d62728; stroke: #ffffff; stroke-width: 0.75; stroke-linejoin: miter"/>
     <use xlink:href="#m4e4547173f" x="714.347365" y="38.117841" style="fill: #d62728; stroke: #ffffff; stroke-width: 0.75; stroke-linejoin: miter"/>
     <use xlink:href="#m4e4547173f" x="716.846232" y="38.117841" style="fill: #d62728; stroke: #ffffff; stroke-width: 0.75; stroke-linejoin: miter"/>
     <use xlink:href="#m4e4547173f" x="719.238731" y="38.075753" style="fill: #d62728; stroke: #ffffff; stroke-width: 0.75; stroke-linejoin: miter"/>
     <use xlink:href="#m4e4547173f" x="721.533549" y="38.033666" style="fill: #d62728; stroke: #ffffff; stroke-width: 0.75; stroke-linejoin: miter"/>
     <use xlink:href="#m4e4547173f" x="723.738352" y="37.991578" style="fill: #d62728; stroke: #ffffff; stroke-width: 0.75; stroke-linejoin: miter"/>
     <use xlink:href="#m4e4547173f" x="725.859933" y="37.78114" style="fill: #d62728; stroke: #ffffff; stroke-width: 0.75; stroke-linejoin: miter"/>
     <use xlink:href="#m4e4547173f" x="727.90435" y="37.318175" style="fill: #d62728; stroke: #ffffff; stroke-width: 0.75; stroke-linejoin: miter"/>
     <use xlink:href="#m4e4547173f" x="729.877017" y="37.276087" style="fill: #d62728; stroke: #ffffff; stroke-width: 0.75; stroke-linejoin: miter"/>
     <use xlink:href="#m4e4547173f" x="731.782801" y="37.276087" style="fill: #d62728; stroke: #ffffff; stroke-width: 0.75; stroke-linejoin: miter"/>
     <use xlink:href="#m4e4547173f" x="733.626089" y="37.234" style="fill: #d62728; stroke: #ffffff; stroke-width: 0.75; stroke-linejoin: miter"/>
     <use xlink:href="#m4e4547173f" x="735.41085" y="37.234" style="fill: #d62728; stroke: #ffffff; stroke-width: 0.75; stroke-linejoin: miter"/>
     <use xlink:href="#m4e4547173f" x="737.140686" y="37.149824" style="fill: #d62728; stroke: #ffffff; stroke-width: 0.75; stroke-linejoin: miter"/>
     <use xlink:href="#m4e4547173f" x="738.818878" y="36.350158" style="fill: #d62728; stroke: #ffffff; stroke-width: 0.75; stroke-linejoin: miter"/>
     <use xlink:href="#m4e4547173f" x="740.44842" y="36.350158" style="fill: #d62728; stroke: #ffffff; stroke-width: 0.75; stroke-linejoin: miter"/>
     <use xlink:href="#m4e4547173f" x="742.032052" y="36.350158" style="fill: #d62728; stroke: #ffffff; stroke-width: 0.75; stroke-linejoin: miter"/>
     <use xlink:href="#m4e4547173f" x="743.572292" y="36.350158" style="fill: #d62728; stroke: #ffffff; stroke-width: 0.75; stroke-linejoin: miter"/>
     <use xlink:href="#m4e4547173f" x="745.071455" y="36.350158" style="fill: #d62728; stroke: #ffffff; stroke-width: 0.75; stroke-linejoin: miter"/>
     <use xlink:href="#m4e4547173f" x="746.531673" y="36.350158" style="fill: #d62728; stroke: #ffffff; stroke-width: 0.75; stroke-linejoin: miter"/>
     <use xlink:href="#m4e4547173f" x="747.95492" y="36.350158" style="fill: #d62728; stroke: #ffffff; stroke-width: 0.75; stroke-linejoin: miter"/>
     <use xlink:href="#m4e4547173f" x="749.343021" y="36.350158" style="fill: #d62728; stroke: #ffffff; stroke-width: 0.75; stroke-linejoin: miter"/>
     <use xlink:href="#m4e4547173f" x="750.697671" y="36.350158" style="fill: #d62728; stroke: #ffffff; stroke-width: 0.75; stroke-linejoin: miter"/>
     <use xlink:href="#m4e4547173f" x="752.020444" y="36.350158" style="fill: #d62728; stroke: #ffffff; stroke-width: 0.75; stroke-linejoin: miter"/>
     <use xlink:href="#m4e4547173f" x="753.312805" y="36.350158" style="fill: #d62728; stroke: #ffffff; stroke-width: 0.75; stroke-linejoin: miter"/>
     <use xlink:href="#m4e4547173f" x="754.576122" y="36.350158" style="fill: #d62728; stroke: #ffffff; stroke-width: 0.75; stroke-linejoin: miter"/>
     <use xlink:href="#m4e4547173f" x="755.811672" y="36.350158" style="fill: #d62728; stroke: #ffffff; stroke-width: 0.75; stroke-linejoin: miter"/>
     <use xlink:href="#m4e4547173f" x="757.020649" y="36.350158" style="fill: #d62728; stroke: #ffffff; stroke-width: 0.75; stroke-linejoin: miter"/>
     <use xlink:href="#m4e4547173f" x="758.204171" y="36.350158" style="fill: #d62728; stroke: #ffffff; stroke-width: 0.75; stroke-linejoin: miter"/>
     <use xlink:href="#m4e4547173f" x="759.36329" y="36.350158" style="fill: #d62728; stroke: #ffffff; stroke-width: 0.75; stroke-linejoin: miter"/>
     <use xlink:href="#m4e4547173f" x="760.49899" y="36.350158" style="fill: #d62728; stroke: #ffffff; stroke-width: 0.75; stroke-linejoin: miter"/>
     <use xlink:href="#m4e4547173f" x="761.612199" y="36.13972" style="fill: #d62728; stroke: #ffffff; stroke-width: 0.75; stroke-linejoin: miter"/>
     <use xlink:href="#m4e4547173f" x="762.703792" y="36.13972" style="fill: #d62728; stroke: #ffffff; stroke-width: 0.75; stroke-linejoin: miter"/>
     <use xlink:href="#m4e4547173f" x="763.774591" y="36.097632" style="fill: #d62728; stroke: #ffffff; stroke-width: 0.75; stroke-linejoin: miter"/>
     <use xlink:href="#m4e4547173f" x="764.825374" y="36.097632" style="fill: #d62728; stroke: #ffffff; stroke-width: 0.75; stroke-linejoin: miter"/>
    </g>
   </g>
   <g id="line2d_24"/>
   <g id="line2d_25"/>
   <g id="line2d_26"/>
   <g id="line2d_27"/>
   <g id="line2d_28">
    <path d="M 764.825374 288.430125 
L 764.825374 22.318125 
" clip-path="url(#peb3f97992b)" style="fill: none; stroke: #ff0000; stroke-width: 1.5; stroke-linecap: square"/>
   </g>
   <g id="patch_3">
    <path d="M 53.328125 276.334125 
L 53.328125 23.808029 
" style="fill: none; stroke: #000000; stroke-width: 0.8; stroke-linejoin: miter; stroke-linecap: square"/>
   </g>
   <g id="patch_4">
    <path d="M 53.328125 288.430125 
L 764.826531 288.430125 
" style="fill: none; stroke: #000000; stroke-width: 0.8; stroke-linejoin: miter; stroke-linecap: square"/>
   </g>
   <g id="text_18">
    <!-- re2_fuzzer (13h:30m, at least 2 trials/fuzzer) -->
    <g transform="translate(276.467188 16.318125) scale(0.12 -0.12)">
     <defs>
      <path id="DejaVuSans-5f" d="M 3263 -1063 
L 3263 -1509 
L -63 -1509 
L -63 -1063 
L 3263 -1063 
z
" transform="scale(0.015625)"/>
      <path id="DejaVuSans-66" d="M 2375 4863 
L 2375 4384 
L 1825 4384 
Q 1516 4384 1395 4259 
Q 1275 4134 1275 3809 
L 1275 3500 
L 2222 3500 
L 2222 3053 
L 1275 3053 
L 1275 0 
L 697 0 
L 697 3053 
L 147 3053 
L 147 3500 
L 697 3500 
L 697 3744 
Q 697 4328 969 4595 
Q 1241 4863 1831 4863 
L 2375 4863 
z
" transform="scale(0.015625)"/>
      <path id="DejaVuSans-7a" d="M 353 3500 
L 3084 3500 
L 3084 2975 
L 922 459 
L 3084 459 
L 3084 0 
L 275 0 
L 275 525 
L 2438 3041 
L 353 3041 
L 353 3500 
z
" transform="scale(0.015625)"/>
      <path id="DejaVuSans-2c" d="M 750 794 
L 1409 794 
L 1409 256 
L 897 -744 
L 494 -744 
L 750 256 
L 750 794 
z
" transform="scale(0.015625)"/>
      <path id="DejaVuSans-6c" d="M 603 4863 
L 1178 4863 
L 1178 0 
L 603 0 
L 603 4863 
z
" transform="scale(0.015625)"/>
      <path id="DejaVuSans-73" d="M 2834 3397 
L 2834 2853 
Q 2591 2978 2328 3040 
Q 2066 3103 1784 3103 
Q 1356 3103 1142 2972 
Q 928 2841 928 2578 
Q 928 2378 1081 2264 
Q 1234 2150 1697 2047 
L 1894 2003 
Q 2506 1872 2764 1633 
Q 3022 1394 3022 966 
Q 3022 478 2636 193 
Q 2250 -91 1575 -91 
Q 1294 -91 989 -36 
Q 684 19 347 128 
L 347 722 
Q 666 556 975 473 
Q 1284 391 1588 391 
Q 1994 391 2212 530 
Q 2431 669 2431 922 
Q 2431 1156 2273 1281 
Q 2116 1406 1581 1522 
L 1381 1569 
Q 847 1681 609 1914 
Q 372 2147 372 2553 
Q 372 3047 722 3315 
Q 1072 3584 1716 3584 
Q 2034 3584 2315 3537 
Q 2597 3491 2834 3397 
z
" transform="scale(0.015625)"/>
      <path id="DejaVuSans-2f" d="M 1625 4666 
L 2156 4666 
L 531 -594 
L 0 -594 
L 1625 4666 
z
" transform="scale(0.015625)"/>
     </defs>
     <use xlink:href="#DejaVuSans-72"/>
     <use xlink:href="#DejaVuSans-65" transform="translate(38.863281 0)"/>
     <use xlink:href="#DejaVuSans-32" transform="translate(100.386719 0)"/>
     <use xlink:href="#DejaVuSans-5f" transform="translate(164.009766 0)"/>
     <use xlink:href="#DejaVuSans-66" transform="translate(214.009766 0)"/>
     <use xlink:href="#DejaVuSans-75" transform="translate(249.214844 0)"/>
     <use xlink:href="#DejaVuSans-7a" transform="translate(312.59375 0)"/>
     <use xlink:href="#DejaVuSans-7a" transform="translate(365.083984 0)"/>
     <use xlink:href="#DejaVuSans-65" transform="translate(417.574219 0)"/>
     <use xlink:href="#DejaVuSans-72" transform="translate(479.097656 0)"/>
     <use xlink:href="#DejaVuSans-20" transform="translate(520.210938 0)"/>
     <use xlink:href="#DejaVuSans-28" transform="translate(551.998047 0)"/>
     <use xlink:href="#DejaVuSans-31" transform="translate(591.011719 0)"/>
     <use xlink:href="#DejaVuSans-33" transform="translate(654.634766 0)"/>
     <use xlink:href="#DejaVuSans-68" transform="translate(718.257812 0)"/>
     <use xlink:href="#DejaVuSans-3a" transform="translate(781.636719 0)"/>
     <use xlink:href="#DejaVuSans-33" transform="translate(815.328125 0)"/>
     <use xlink:href="#DejaVuSans-30" transform="translate(878.951172 0)"/>
     <use xlink:href="#DejaVuSans-6d" transform="translate(942.574219 0)"/>
     <use xlink:href="#DejaVuSans-2c" transform="translate(1039.986328 0)"/>
     <use xlink:href="#DejaVuSans-20" transform="translate(1071.773438 0)"/>
     <use xlink:href="#DejaVuSans-61" transform="translate(1103.560547 0)"/>
     <use xlink:href="#DejaVuSans-74" transform="translate(1164.839844 0)"/>
     <use xlink:href="#DejaVuSans-20" transform="translate(1204.048828 0)"/>
     <use xlink:href="#DejaVuSans-6c" transform="translate(1235.835938 0)"/>
     <use xlink:href="#DejaVuSans-65" transform="translate(1263.619141 0)"/>
     <use xlink:href="#DejaVuSans-61" transform="translate(1325.142578 0)"/>
     <use xlink:href="#DejaVuSans-73" transform="translate(1386.421875 0)"/>
     <use xlink:href="#DejaVuSans-74" transform="translate(1438.521484 0)"/>
     <use xlink:href="#DejaVuSans-20" transform="translate(1477.730469 0)"/>
     <use xlink:href="#DejaVuSans-32" transform="translate(1509.517578 0)"/>
     <use xlink:href="#DejaVuSans-20" transform="translate(1573.140625 0)"/>
     <use xlink:href="#DejaVuSans-74" transform="translate(1604.927734 0)"/>
     <use xlink:href="#DejaVuSans-72" transform="translate(1644.136719 0)"/>
     <use xlink:href="#DejaVuSans-69" transform="translate(1685.25 0)"/>
     <use xlink:href="#DejaVuSans-61" transform="translate(1713.033203 0)"/>
     <use xlink:href="#DejaVuSans-6c" transform="translate(1774.3125 0)"/>
     <use xlink:href="#DejaVuSans-73" transform="translate(1802.095703 0)"/>
     <use xlink:href="#DejaVuSans-2f" transform="translate(1854.195312 0)"/>
     <use xlink:href="#DejaVuSans-66" transform="translate(1887.886719 0)"/>
     <use xlink:href="#DejaVuSans-75" transform="translate(1923.091797 0)"/>
     <use xlink:href="#DejaVuSans-7a" transform="translate(1986.470703 0)"/>
     <use xlink:href="#DejaVuSans-7a" transform="translate(2038.960938 0)"/>
     <use xlink:href="#DejaVuSans-65" transform="translate(2091.451172 0)"/>
     <use xlink:href="#DejaVuSans-72" transform="translate(2152.974609 0)"/>
     <use xlink:href="#DejaVuSans-29" transform="translate(2194.087891 0)"/>
    </g>
   </g>
   <g id="legend_1">
    <g id="line2d_29">
     <path d="M 771.568125 30.416562 
L 781.568125 30.416562 
L 791.568125 30.416562 
" style="fill: none; stroke: #98df8a; stroke-width: 1.5; stroke-linecap: square"/>
     <g>
      <use xlink:href="#m75c06790b3" x="781.568125" y="30.416562" style="fill: #98df8a; stroke: #ffffff; stroke-width: 0.75; stroke-linejoin: miter"/>
     </g>
    </g>
    <g id="text_19">
     <!-- aflplusplus_500c -->
     <g transform="translate(799.568125 33.916562) scale(0.1 -0.1)">
      <defs>
       <path id="DejaVuSans-70" d="M 1159 525 
L 1159 -1331 
L 581 -1331 
L 581 3500 
L 1159 3500 
L 1159 2969 
Q 1341 3281 1617 3432 
Q 1894 3584 2278 3584 
Q 2916 3584 3314 3078 
Q 3713 2572 3713 1747 
Q 3713 922 3314 415 
Q 2916 -91 2278 -91 
Q 1894 -91 1617 61 
Q 1341 213 1159 525 
z
M 3116 1747 
Q 3116 2381 2855 2742 
Q 2594 3103 2138 3103 
Q 1681 3103 1420 2742 
Q 1159 2381 1159 1747 
Q 1159 1113 1420 752 
Q 1681 391 2138 391 
Q 2594 391 2855 752 
Q 3116 1113 3116 1747 
z
" transform="scale(0.015625)"/>
      </defs>
      <use xlink:href="#DejaVuSans-61"/>
      <use xlink:href="#DejaVuSans-66" transform="translate(61.279297 0)"/>
      <use xlink:href="#DejaVuSans-6c" transform="translate(96.484375 0)"/>
      <use xlink:href="#DejaVuSans-70" transform="translate(124.267578 0)"/>
      <use xlink:href="#DejaVuSans-6c" transform="translate(187.744141 0)"/>
      <use xlink:href="#DejaVuSans-75" transform="translate(215.527344 0)"/>
      <use xlink:href="#DejaVuSans-73" transform="translate(278.90625 0)"/>
      <use xlink:href="#DejaVuSans-70" transform="translate(331.005859 0)"/>
      <use xlink:href="#DejaVuSans-6c" transform="translate(394.482422 0)"/>
      <use xlink:href="#DejaVuSans-75" transform="translate(422.265625 0)"/>
      <use xlink:href="#DejaVuSans-73" transform="translate(485.644531 0)"/>
      <use xlink:href="#DejaVuSans-5f" transform="translate(537.744141 0)"/>
      <use xlink:href="#DejaVuSans-35" transform="translate(587.744141 0)"/>
      <use xlink:href="#DejaVuSans-30" transform="translate(651.367188 0)"/>
      <use xlink:href="#DejaVuSans-30" transform="translate(714.990234 0)"/>
      <use xlink:href="#DejaVuSans-63" transform="translate(778.613281 0)"/>
     </g>
    </g>
    <g id="line2d_30">
     <path d="M 771.568125 45.372813 
L 781.568125 45.372813 
L 791.568125 45.372813 
" style="fill: none; stroke: #1f77b4; stroke-width: 1.5; stroke-linecap: square"/>
     <g>
      <use xlink:href="#mafea9e7417" x="781.568125" y="45.372813" style="fill: #1f77b4; stroke: #ffffff; stroke-width: 0.75"/>
     </g>
    </g>
    <g id="text_20">
     <!-- aflplusplus_440c -->
     <g transform="translate(799.568125 48.872813) scale(0.1 -0.1)">
      <use xlink:href="#DejaVuSans-61"/>
      <use xlink:href="#DejaVuSans-66" transform="translate(61.279297 0)"/>
      <use xlink:href="#DejaVuSans-6c" transform="translate(96.484375 0)"/>
      <use xlink:href="#DejaVuSans-70" transform="translate(124.267578 0)"/>
      <use xlink:href="#DejaVuSans-6c" transform="translate(187.744141 0)"/>
      <use xlink:href="#DejaVuSans-75" transform="translate(215.527344 0)"/>
      <use xlink:href="#DejaVuSans-73" transform="translate(278.90625 0)"/>
      <use xlink:href="#DejaVuSans-70" transform="translate(331.005859 0)"/>
      <use xlink:href="#DejaVuSans-6c" transform="translate(394.482422 0)"/>
      <use xlink:href="#DejaVuSans-75" transform="translate(422.265625 0)"/>
      <use xlink:href="#DejaVuSans-73" transform="translate(485.644531 0)"/>
      <use xlink:href="#DejaVuSans-5f" transform="translate(537.744141 0)"/>
      <use xlink:href="#DejaVuSans-34" transform="translate(587.744141 0)"/>
      <use xlink:href="#DejaVuSans-34" transform="translate(651.367188 0)"/>
      <use xlink:href="#DejaVuSans-30" transform="translate(714.990234 0)"/>
      <use xlink:href="#DejaVuSans-63" transform="translate(778.613281 0)"/>
     </g>
    </g>
    <g id="line2d_31">
     <path d="M 771.568125 60.329063 
L 781.568125 60.329063 
L 791.568125 60.329063 
" style="fill: none; stroke: #c7c7c7; stroke-width: 1.5; stroke-linecap: square"/>
     <g>
      <use xlink:href="#m2dfcf20a1d" x="781.568125" y="60.329063" style="fill: #c7c7c7; stroke: #ffffff; stroke-width: 0.75; stroke-linejoin: miter"/>
     </g>
    </g>
    <g id="text_21">
     <!-- aflplusplus_mopt -->
     <g transform="translate(799.568125 63.829063) scale(0.1 -0.1)">
      <use xlink:href="#DejaVuSans-61"/>
      <use xlink:href="#DejaVuSans-66" transform="translate(61.279297 0)"/>
      <use xlink:href="#DejaVuSans-6c" transform="translate(96.484375 0)"/>
      <use xlink:href="#DejaVuSans-70" transform="translate(124.267578 0)"/>
      <use xlink:href="#DejaVuSans-6c" transform="translate(187.744141 0)"/>
      <use xlink:href="#DejaVuSans-75" transform="translate(215.527344 0)"/>
      <use xlink:href="#DejaVuSans-73" transform="translate(278.90625 0)"/>
      <use xlink:href="#DejaVuSans-70" transform="translate(331.005859 0)"/>
      <use xlink:href="#DejaVuSans-6c" transform="translate(394.482422 0)"/>
      <use xlink:href="#DejaVuSans-75" transform="translate(422.265625 0)"/>
      <use xlink:href="#DejaVuSans-73" transform="translate(485.644531 0)"/>
      <use xlink:href="#DejaVuSans-5f" transform="translate(537.744141 0)"/>
      <use xlink:href="#DejaVuSans-6d" transform="translate(587.744141 0)"/>
      <use xlink:href="#DejaVuSans-6f" transform="translate(685.15625 0)"/>
      <use xlink:href="#DejaVuSans-70" transform="translate(746.337891 0)"/>
      <use xlink:href="#DejaVuSans-74" transform="translate(809.814453 0)"/>
     </g>
    </g>
    <g id="line2d_32">
     <path d="M 771.568125 75.285313 
L 781.568125 75.285313 
L 791.568125 75.285313 
" style="fill: none; stroke: #d62728; stroke-width: 1.5; stroke-linecap: square"/>
     <g>
      <use xlink:href="#m4e4547173f" x="781.568125" y="75.285313" style="fill: #d62728; stroke: #ffffff; stroke-width: 0.75; stroke-linejoin: miter"/>
     </g>
    </g>
    <g id="text_22">
     <!-- aflplusplus_c11 -->
     <g transform="translate(799.568125 78.785313) scale(0.1 -0.1)">
      <use xlink:href="#DejaVuSans-61"/>
      <use xlink:href="#DejaVuSans-66" transform="translate(61.279297 0)"/>
      <use xlink:href="#DejaVuSans-6c" transform="translate(96.484375 0)"/>
      <use xlink:href="#DejaVuSans-70" transform="translate(124.267578 0)"/>
      <use xlink:href="#DejaVuSans-6c" transform="translate(187.744141 0)"/>
      <use xlink:href="#DejaVuSans-75" transform="translate(215.527344 0)"/>
      <use xlink:href="#DejaVuSans-73" transform="translate(278.90625 0)"/>
      <use xlink:href="#DejaVuSans-70" transform="translate(331.005859 0)"/>
      <use xlink:href="#DejaVuSans-6c" transform="translate(394.482422 0)"/>
      <use xlink:href="#DejaVuSans-75" transform="translate(422.265625 0)"/>
      <use xlink:href="#DejaVuSans-73" transform="translate(485.644531 0)"/>
      <use xlink:href="#DejaVuSans-5f" transform="translate(537.744141 0)"/>
      <use xlink:href="#DejaVuSans-63" transform="translate(587.744141 0)"/>
      <use xlink:href="#DejaVuSans-31" transform="translate(642.724609 0)"/>
      <use xlink:href="#DejaVuSans-31" transform="translate(706.347656 0)"/>
     </g>
    </g>
   </g>
  </g>
 </g>
 <defs>
  <clipPath id="peb3f97992b">
   <rect x="53.328125" y="22.318125" width="714.24" height="266.112"/>
  </clipPath>
 </defs>
</svg>
