<?xml version="1.0" encoding="utf-8" standalone="no"?>
<!DOCTYPE svg PUBLIC "-//W3C//DTD SVG 1.1//EN"
  "http://www.w3.org/Graphics/SVG/1.1/DTD/svg11.dtd">
<svg xmlns:xlink="http://www.w3.org/1999/xlink" width="895.669687pt" height="325.986375pt" viewBox="0 0 895.669687 325.986375" xmlns="http://www.w3.org/2000/svg" version="1.1">
 <metadata>
  <rdf:RDF xmlns:dc="http://purl.org/dc/elements/1.1/" xmlns:cc="http://creativecommons.org/ns#" xmlns:rdf="http://www.w3.org/1999/02/22-rdf-syntax-ns#">
   <cc:Work>
    <dc:type rdf:resource="http://purl.org/dc/dcmitype/StillImage"/>
    <dc:date>2026-06-10T07:29:52.543190</dc:date>
    <dc:format>image/svg+xml</dc:format>
    <dc:creator>
     <cc:Agent>
      <dc:title>Matplotlib v3.10.9, https://matplotlib.org/</dc:title>
     </cc:Agent>
    </dc:creator>
   </cc:Work>
  </rdf:RDF>
 </metadata>
 <defs>
  <style type="text/css">*{stroke-linejoin: round; stroke-linecap: butt}</style>
 </defs>
 <g id="figure_1">
  <g id="patch_1">
   <path d="M 0 325.986375 
L 895.669688 325.986375 
L 895.669688 0 
L 0 0 
z
" style="fill: #ffffff"/>
  </g>
  <g id="axes_1">
   <g id="patch_2">
    <path d="M 53.328125 288.430125 
L 767.568125 288.430125 
L 767.568125 22.318125 
L 53.328125 22.318125 
z
" style="fill: #ffffff"/>
   </g>
   <g id="FillBetweenPolyCollection_1">
    <defs>
     <path id="m7dca184a2d" d="M 53.328125 -49.65225 
L 53.328125 -49.65225 
L 534.742815 -266.332565 
L 573.241169 -267.285006 
L 595.761262 -276.333195 
L 611.739523 -276.809415 
L 624.133224 -277.285636 
L 634.259616 -278.714297 
L 642.821358 -278.714297 
L 650.237876 -278.714297 
L 656.779709 -279.190518 
L 662.631578 -280.619179 
L 667.925237 -281.0954 
L 672.75797 -281.0954 
L 677.203652 -284.905163 
L 681.319712 -284.905163 
L 685.151671 -285.857604 
L 688.73623 -285.857604 
L 692.103405 -285.857604 
L 695.278063 -285.857604 
L 698.281031 -285.857604 
L 701.129932 -285.857604 
L 703.839805 -286.333825 
L 706.423591 -286.333825 
L 708.892503 -286.333825 
L 711.256323 -286.333825 
L 713.523633 -286.333825 
L 715.702006 -286.333825 
L 717.798156 -286.333825 
L 719.818065 -286.333825 
L 721.767086 -287.286266 
L 723.650025 -287.286266 
L 725.471217 -287.286266 
L 727.234584 -287.762486 
L 728.943684 -287.762486 
L 730.601759 -287.762486 
L 732.211767 -287.762486 
L 733.776416 -287.762486 
L 735.298193 -288.238707 
L 736.779385 -288.714927 
L 738.222099 -288.714927 
L 739.628285 -288.714927 
L 740.999747 -288.714927 
L 742.338159 -288.714927 
L 743.645075 -288.714927 
L 744.921945 -288.714927 
L 746.170118 -288.714927 
L 747.390857 -288.714927 
L 748.585341 -288.714927 
L 749.754677 -288.714927 
L 750.899901 -288.714927 
L 752.021987 -288.714927 
L 753.121852 -288.714927 
L 754.20036 -288.714927 
L 755.258323 -288.714927 
L 756.29651 -288.714927 
L 757.315646 -288.714927 
L 758.316419 -288.714927 
L 759.299478 -288.714927 
L 760.265439 -288.714927 
L 761.214888 -288.714927 
L 762.148379 -288.714927 
L 763.066439 -288.714927 
L 763.969571 -288.714927 
L 764.858252 -288.714927 
L 764.858252 -291.57225 
L 764.858252 -291.57225 
L 763.969571 -291.57225 
L 763.066439 -291.57225 
L 762.148379 -291.57225 
L 761.214888 -291.57225 
L 760.265439 -291.57225 
L 759.299478 -291.57225 
L 758.316419 -291.57225 
L 757.315646 -291.57225 
L 756.29651 -291.57225 
L 755.258323 -291.57225 
L 754.20036 -291.57225 
L 753.121852 -291.57225 
L 752.021987 -291.57225 
L 750.899901 -291.57225 
L 749.754677 -291.57225 
L 748.585341 -291.57225 
L 747.390857 -291.57225 
L 746.170118 -291.57225 
L 744.921945 -291.57225 
L 743.645075 -291.57225 
L 742.338159 -291.57225 
L 740.999747 -291.57225 
L 739.628285 -291.57225 
L 738.222099 -291.57225 
L 736.779385 -291.57225 
L 735.298193 -291.57225 
L 733.776416 -291.57225 
L 732.211767 -291.57225 
L 730.601759 -291.57225 
L 728.943684 -291.57225 
L 727.234584 -291.57225 
L 725.471217 -291.57225 
L 723.650025 -291.57225 
L 721.767086 -291.57225 
L 719.818065 -291.57225 
L 717.798156 -291.57225 
L 715.702006 -291.57225 
L 713.523633 -291.57225 
L 711.256323 -291.57225 
L 708.892503 -291.57225 
L 706.423591 -291.57225 
L 703.839805 -291.09603 
L 701.129932 -291.09603 
L 698.281031 -291.09603 
L 695.278063 -291.09603 
L 692.103405 -291.09603 
L 688.73623 -291.09603 
L 685.151671 -291.09603 
L 681.319712 -291.09603 
L 677.203652 -290.619809 
L 672.75797 -290.143589 
L 667.925237 -289.191148 
L 662.631578 -289.191148 
L 656.779709 -289.191148 
L 650.237876 -289.191148 
L 642.821358 -288.714927 
L 634.259616 -288.714927 
L 624.133224 -288.238707 
L 611.739523 -288.238707 
L 595.761262 -288.238707 
L 573.241169 -286.333825 
L 534.742815 -282.047841 
L 53.328125 -49.65225 
z
" style="stroke: #1f77b4; stroke-opacity: 0.2"/>
    </defs>
    <g clip-path="url(#p80f04cccae)">
     <use xlink:href="#m7dca184a2d" x="0" y="325.986375" style="fill: #1f77b4; fill-opacity: 0.2; stroke: #1f77b4; stroke-opacity: 0.2"/>
    </g>
   </g>
   <g id="FillBetweenPolyCollection_2">
    <defs>
     <path id="m4a6f6cc601" d="M 53.328125 -49.65225 
L 53.328125 -49.65225 
L 534.742815 -276.809415 
L 573.241169 -282.047841 
L 595.761262 -283.000281 
L 611.739523 -284.428943 
L 624.133224 -284.428943 
L 634.259616 -285.381384 
L 642.821358 -285.381384 
L 650.237876 -285.381384 
L 656.779709 -285.381384 
L 662.631578 -285.381384 
L 667.925237 -285.857604 
L 672.75797 -285.857604 
L 677.203652 -286.810045 
L 681.319712 -286.810045 
L 685.151671 -286.810045 
L 688.73623 -286.810045 
L 692.103405 -286.810045 
L 695.278063 -287.286266 
L 698.281031 -287.286266 
L 701.129932 -287.286266 
L 703.839805 -287.286266 
L 706.423591 -287.286266 
L 708.892503 -287.762486 
L 711.256323 -287.762486 
L 713.523633 -287.762486 
L 715.702006 -287.762486 
L 717.798156 -287.762486 
L 719.818065 -287.762486 
L 721.767086 -287.762486 
L 723.650025 -287.762486 
L 725.471217 -287.762486 
L 727.234584 -288.238707 
L 728.943684 -288.238707 
L 730.601759 -288.238707 
L 732.211767 -288.238707 
L 733.776416 -288.238707 
L 735.298193 -288.238707 
L 736.779385 -288.238707 
L 738.222099 -288.238707 
L 739.628285 -288.238707 
L 740.999747 -288.238707 
L 742.338159 -288.238707 
L 743.645075 -288.238707 
L 744.921945 -288.238707 
L 746.170118 -288.238707 
L 747.390857 -288.238707 
L 748.585341 -288.238707 
L 749.754677 -288.238707 
L 750.899901 -288.238707 
L 752.021987 -288.238707 
L 753.121852 -288.238707 
L 754.20036 -288.238707 
L 755.258323 -288.238707 
L 756.29651 -288.238707 
L 757.315646 -288.238707 
L 758.316419 -288.238707 
L 759.299478 -288.238707 
L 760.265439 -288.238707 
L 761.214888 -288.238707 
L 762.148379 -288.238707 
L 763.066439 -288.238707 
L 763.969571 -288.238707 
L 764.858252 -288.238707 
L 764.858252 -291.57225 
L 764.858252 -291.57225 
L 763.969571 -291.57225 
L 763.066439 -291.57225 
L 762.148379 -291.57225 
L 761.214888 -291.57225 
L 760.265439 -291.57225 
L 759.299478 -291.57225 
L 758.316419 -291.57225 
L 757.315646 -291.57225 
L 756.29651 -291.57225 
L 755.258323 -291.57225 
L 754.20036 -291.09603 
L 753.121852 -291.09603 
L 752.021987 -291.09603 
L 750.899901 -291.09603 
L 749.754677 -291.09603 
L 748.585341 -291.09603 
L 747.390857 -291.09603 
L 746.170118 -290.619809 
L 744.921945 -290.619809 
L 743.645075 -290.619809 
L 742.338159 -290.619809 
L 740.999747 -290.619809 
L 739.628285 -290.619809 
L 738.222099 -290.619809 
L 736.779385 -290.619809 
L 735.298193 -290.619809 
L 733.776416 -290.619809 
L 732.211767 -290.619809 
L 730.601759 -290.619809 
L 728.943684 -290.143589 
L 727.234584 -290.143589 
L 725.471217 -290.143589 
L 723.650025 -290.143589 
L 721.767086 -290.143589 
L 719.818065 -289.667368 
L 717.798156 -289.667368 
L 715.702006 -289.667368 
L 713.523633 -289.667368 
L 711.256323 -289.667368 
L 708.892503 -289.667368 
L 706.423591 -289.667368 
L 703.839805 -289.667368 
L 701.129932 -289.667368 
L 698.281031 -289.191148 
L 695.278063 -289.191148 
L 692.103405 -289.191148 
L 688.73623 -289.191148 
L 685.151671 -289.191148 
L 681.319712 -289.191148 
L 677.203652 -289.191148 
L 672.75797 -289.191148 
L 667.925237 -289.191148 
L 662.631578 -289.191148 
L 656.779709 -289.191148 
L 650.237876 -288.714927 
L 642.821358 -288.714927 
L 634.259616 -287.762486 
L 624.133224 -287.762486 
L 611.739523 -286.810045 
L 595.761262 -286.810045 
L 573.241169 -286.333825 
L 534.742815 -282.047841 
L 53.328125 -49.65225 
z
" style="stroke: #d62728; stroke-opacity: 0.2"/>
    </defs>
    <g clip-path="url(#p80f04cccae)">
     <use xlink:href="#m4a6f6cc601" x="0" y="325.986375" style="fill: #d62728; fill-opacity: 0.2; stroke: #d62728; stroke-opacity: 0.2"/>
    </g>
   </g>
   <g id="FillBetweenPolyCollection_3">
    <defs>
     <path id="m97cca4a483" d="M 53.328125 -49.65225 
L 53.328125 -49.65225 
L 534.742815 -268.237447 
L 573.241169 -276.333195 
L 595.761262 -276.809415 
L 611.739523 -278.238077 
L 624.133224 -279.666738 
L 634.259616 -280.619179 
L 642.821358 -283.952722 
L 650.237876 -283.952722 
L 656.779709 -284.428943 
L 662.631578 -284.428943 
L 667.925237 -284.428943 
L 672.75797 -284.428943 
L 677.203652 -284.428943 
L 681.319712 -284.428943 
L 685.151671 -284.905163 
L 688.73623 -285.857604 
L 692.103405 -285.857604 
L 695.278063 -285.857604 
L 698.281031 -285.857604 
L 701.129932 -285.857604 
L 703.839805 -285.857604 
L 706.423591 -285.857604 
L 708.892503 -285.857604 
L 711.256323 -285.857604 
L 713.523633 -285.857604 
L 715.702006 -285.857604 
L 717.798156 -285.857604 
L 719.818065 -285.857604 
L 721.767086 -285.857604 
L 723.650025 -286.333825 
L 725.471217 -286.333825 
L 727.234584 -286.333825 
L 728.943684 -286.333825 
L 730.601759 -286.810045 
L 732.211767 -287.286266 
L 733.776416 -287.286266 
L 735.298193 -287.286266 
L 736.779385 -287.286266 
L 738.222099 -287.762486 
L 739.628285 -287.762486 
L 740.999747 -288.714927 
L 742.338159 -288.714927 
L 743.645075 -288.714927 
L 744.921945 -288.714927 
L 746.170118 -288.714927 
L 747.390857 -288.714927 
L 748.585341 -288.714927 
L 749.754677 -288.714927 
L 750.899901 -288.714927 
L 752.021987 -289.191148 
L 753.121852 -289.191148 
L 754.20036 -289.191148 
L 755.258323 -289.191148 
L 756.29651 -289.191148 
L 757.315646 -289.191148 
L 758.316419 -289.191148 
L 759.299478 -289.191148 
L 760.265439 -289.191148 
L 761.214888 -289.191148 
L 762.148379 -289.191148 
L 763.066439 -289.191148 
L 763.969571 -289.191148 
L 764.858252 -289.191148 
L 764.858252 -290.619809 
L 764.858252 -290.619809 
L 763.969571 -290.619809 
L 763.066439 -290.619809 
L 762.148379 -290.619809 
L 761.214888 -290.619809 
L 760.265439 -290.619809 
L 759.299478 -290.619809 
L 758.316419 -290.619809 
L 757.315646 -290.619809 
L 756.29651 -290.619809 
L 755.258323 -290.619809 
L 754.20036 -290.619809 
L 753.121852 -290.619809 
L 752.021987 -290.619809 
L 750.899901 -290.619809 
L 749.754677 -290.619809 
L 748.585341 -290.619809 
L 747.390857 -290.619809 
L 746.170118 -290.143589 
L 744.921945 -290.143589 
L 743.645075 -290.143589 
L 742.338159 -290.143589 
L 740.999747 -290.143589 
L 739.628285 -290.143589 
L 738.222099 -290.143589 
L 736.779385 -290.143589 
L 735.298193 -290.143589 
L 733.776416 -290.143589 
L 732.211767 -290.143589 
L 730.601759 -290.143589 
L 728.943684 -290.143589 
L 727.234584 -290.143589 
L 725.471217 -290.143589 
L 723.650025 -290.143589 
L 721.767086 -290.143589 
L 719.818065 -290.143589 
L 717.798156 -290.143589 
L 715.702006 -290.143589 
L 713.523633 -290.143589 
L 711.256323 -290.143589 
L 708.892503 -290.143589 
L 706.423591 -289.667368 
L 703.839805 -289.667368 
L 701.129932 -289.667368 
L 698.281031 -289.667368 
L 695.278063 -289.667368 
L 692.103405 -289.667368 
L 688.73623 -289.667368 
L 685.151671 -289.667368 
L 681.319712 -289.667368 
L 677.203652 -289.667368 
L 672.75797 -289.667368 
L 667.925237 -289.191148 
L 662.631578 -289.191148 
L 656.779709 -288.238707 
L 650.237876 -288.238707 
L 642.821358 -287.286266 
L 634.259616 -287.286266 
L 624.133224 -286.810045 
L 611.739523 -285.857604 
L 595.761262 -285.381384 
L 573.241169 -282.047841 
L 534.742815 -281.57162 
L 53.328125 -49.65225 
z
" style="stroke: #c7c7c7; stroke-opacity: 0.2"/>
    </defs>
    <g clip-path="url(#p80f04cccae)">
     <use xlink:href="#m97cca4a483" x="0" y="325.986375" style="fill: #c7c7c7; fill-opacity: 0.2; stroke: #c7c7c7; stroke-opacity: 0.2"/>
    </g>
   </g>
   <g id="FillBetweenPolyCollection_4">
    <defs>
     <path id="md507521b8c" d="M 53.328125 -49.65225 
L 53.328125 -49.65225 
L 534.742815 -270.856659 
L 573.241169 -272.523431 
L 595.761262 -275.142644 
L 611.739523 -275.142644 
L 624.133224 -275.142644 
L 634.259616 -277.523746 
L 642.821358 -278.714297 
L 650.237876 -279.190518 
L 656.779709 -279.428628 
L 662.631578 -280.381069 
L 667.925237 -281.57162 
L 672.75797 -283.000281 
L 677.203652 -283.238392 
L 681.319712 -283.714612 
L 685.151671 -283.952722 
L 688.73623 -283.952722 
L 692.103405 -283.952722 
L 695.278063 -284.428943 
L 698.281031 -284.428943 
L 701.129932 -284.428943 
L 703.839805 -284.428943 
L 706.423591 -284.428943 
L 708.892503 -284.428943 
L 711.256323 -284.428943 
L 713.523633 -284.428943 
L 715.702006 -284.428943 
L 717.798156 -284.428943 
L 719.818065 -284.428943 
L 721.767086 -284.667053 
L 723.650025 -285.143274 
L 725.471217 -285.619494 
L 727.234584 -286.333825 
L 728.943684 -286.333825 
L 730.601759 -286.333825 
L 732.211767 -286.333825 
L 733.776416 -286.333825 
L 735.298193 -286.810045 
L 736.779385 -286.571935 
L 738.222099 -286.810045 
L 739.628285 -287.048156 
L 740.999747 -287.286266 
L 742.338159 -287.524376 
L 743.645075 -287.524376 
L 744.921945 -287.524376 
L 746.170118 -287.524376 
L 747.390857 -287.524376 
L 748.585341 -287.524376 
L 749.754677 -287.524376 
L 750.899901 -287.524376 
L 752.021987 -287.524376 
L 753.121852 -287.524376 
L 754.20036 -287.762486 
L 755.258323 -288.238707 
L 756.29651 -288.238707 
L 757.315646 -288.238707 
L 758.316419 -288.238707 
L 759.299478 -288.238707 
L 760.265439 -288.238707 
L 761.214888 -288.238707 
L 762.148379 -288.238707 
L 763.066439 -288.238707 
L 763.969571 -288.238707 
L 764.858252 -288.238707 
L 764.858252 -290.381699 
L 764.858252 -290.381699 
L 763.969571 -290.381699 
L 763.066439 -290.381699 
L 762.148379 -290.143589 
L 761.214888 -290.143589 
L 760.265439 -290.143589 
L 759.299478 -290.143589 
L 758.316419 -290.143589 
L 757.315646 -290.143589 
L 756.29651 -290.143589 
L 755.258323 -290.143589 
L 754.20036 -290.143589 
L 753.121852 -290.143589 
L 752.021987 -290.143589 
L 750.899901 -290.143589 
L 749.754677 -290.143589 
L 748.585341 -290.143589 
L 747.390857 -290.143589 
L 746.170118 -290.143589 
L 744.921945 -290.143589 
L 743.645075 -290.143589 
L 742.338159 -290.143589 
L 740.999747 -290.143589 
L 739.628285 -290.143589 
L 738.222099 -290.143589 
L 736.779385 -290.143589 
L 735.298193 -290.143589 
L 733.776416 -290.143589 
L 732.211767 -290.143589 
L 730.601759 -290.143589 
L 728.943684 -290.143589 
L 727.234584 -290.143589 
L 725.471217 -290.143589 
L 723.650025 -290.143589 
L 721.767086 -290.143589 
L 719.818065 -290.143589 
L 717.798156 -290.143589 
L 715.702006 -290.143589 
L 713.523633 -290.143589 
L 711.256323 -290.143589 
L 708.892503 -290.143589 
L 706.423591 -290.143589 
L 703.839805 -289.905478 
L 701.129932 -289.905478 
L 698.281031 -289.905478 
L 695.278063 -289.905478 
L 692.103405 -289.905478 
L 688.73623 -289.667368 
L 685.151671 -289.905478 
L 681.319712 -289.905478 
L 677.203652 -289.667368 
L 672.75797 -289.667368 
L 667.925237 -289.667368 
L 662.631578 -288.953037 
L 656.779709 -288.714927 
L 650.237876 -288.238707 
L 642.821358 -288.000596 
L 634.259616 -287.524376 
L 624.133224 -286.333825 
L 611.739523 -285.857604 
L 595.761262 -285.619494 
L 573.241169 -284.428943 
L 534.742815 -281.57162 
L 53.328125 -49.65225 
z
" style="stroke: #98df8a; stroke-opacity: 0.2"/>
    </defs>
    <g clip-path="url(#p80f04cccae)">
     <use xlink:href="#md507521b8c" x="0" y="325.986375" style="fill: #98df8a; fill-opacity: 0.2; stroke: #98df8a; stroke-opacity: 0.2"/>
    </g>
   </g>
   <g id="matplotlib.axis_1">
    <g id="xtick_1">
     <g id="line2d_1">
      <defs>
       <path id="m1fd167985b" d="M 0 0 
L 0 3.5 
" style="stroke: #000000; stroke-width: 0.8"/>
      </defs>
      <g>
       <use xlink:href="#m1fd167985b" x="53.328125" y="288.430125" style="stroke: #000000; stroke-width: 0.8"/>
      </g>
     </g>
     <g id="text_1">
      <!-- 0m -->
      <g transform="translate(45.276563 303.028562) scale(0.1 -0.1)">
       <defs>
        <path id="DejaVuSans-30" d="M 2034 4250 
Q 1547 4250 1301 3770 
Q 1056 3291 1056 2328 
Q 1056 1369 1301 889 
Q 1547 409 2034 409 
Q 2525 409 2770 889 
Q 3016 1369 3016 2328 
Q 3016 3291 2770 3770 
Q 2525 4250 2034 4250 
z
M 2034 4750 
Q 2819 4750 3233 4129 
Q 3647 3509 3647 2328 
Q 3647 1150 3233 529 
Q 2819 -91 2034 -91 
Q 1250 -91 836 529 
Q 422 1150 422 2328 
Q 422 3509 836 4129 
Q 1250 4750 2034 4750 
z
" transform="scale(0.015625)"/>
        <path id="DejaVuSans-6d" d="M 3328 2828 
Q 3544 3216 3844 3400 
Q 4144 3584 4550 3584 
Q 5097 3584 5394 3201 
Q 5691 2819 5691 2113 
L 5691 0 
L 5113 0 
L 5113 2094 
Q 5113 2597 4934 2840 
Q 4756 3084 4391 3084 
Q 3944 3084 3684 2787 
Q 3425 2491 3425 1978 
L 3425 0 
L 2847 0 
L 2847 2094 
Q 2847 2600 2669 2842 
Q 2491 3084 2119 3084 
Q 1678 3084 1418 2786 
Q 1159 2488 1159 1978 
L 1159 0 
L 581 0 
L 581 3500 
L 1159 3500 
L 1159 2956 
Q 1356 3278 1631 3431 
Q 1906 3584 2284 3584 
Q 2666 3584 2933 3390 
Q 3200 3197 3328 2828 
z
" transform="scale(0.015625)"/>
       </defs>
       <use xlink:href="#DejaVuSans-30"/>
       <use xlink:href="#DejaVuSans-6d" transform="translate(63.623047 0)"/>
      </g>
     </g>
    </g>
    <g id="xtick_2">
     <g id="line2d_2">
      <g>
       <use xlink:href="#m1fd167985b" x="124.377438" y="288.430125" style="stroke: #000000; stroke-width: 0.8"/>
      </g>
     </g>
    </g>
    <g id="xtick_3">
     <g id="line2d_3">
      <g>
       <use xlink:href="#m1fd167985b" x="217.72148" y="288.430125" style="stroke: #000000; stroke-width: 0.8"/>
      </g>
     </g>
    </g>
    <g id="xtick_4">
     <g id="line2d_4">
      <g>
       <use xlink:href="#m1fd167985b" x="278.514563" y="288.430125" style="stroke: #000000; stroke-width: 0.8"/>
      </g>
     </g>
    </g>
    <g id="xtick_5">
     <g id="line2d_5">
      <g>
       <use xlink:href="#m1fd167985b" x="339.307647" y="288.430125" style="stroke: #000000; stroke-width: 0.8"/>
      </g>
     </g>
    </g>
    <g id="xtick_6">
     <g id="line2d_6">
      <g>
       <use xlink:href="#m1fd167985b" x="400.10073" y="288.430125" style="stroke: #000000; stroke-width: 0.8"/>
      </g>
     </g>
     <g id="text_2">
      <!-- 1m -->
      <g transform="translate(392.049168 303.028562) scale(0.1 -0.1)">
       <defs>
        <path id="DejaVuSans-31" d="M 794 531 
L 1825 531 
L 1825 4091 
L 703 3866 
L 703 4441 
L 1819 4666 
L 2450 4666 
L 2450 531 
L 3481 531 
L 3481 0 
L 794 0 
L 794 531 
z
" transform="scale(0.015625)"/>
       </defs>
       <use xlink:href="#DejaVuSans-31"/>
       <use xlink:href="#DejaVuSans-6d" transform="translate(63.623047 0)"/>
      </g>
     </g>
    </g>
    <g id="xtick_7">
     <g id="line2d_7">
      <g>
       <use xlink:href="#m1fd167985b" x="460.893814" y="288.430125" style="stroke: #000000; stroke-width: 0.8"/>
      </g>
     </g>
     <g id="text_3">
      <!-- 3m -->
      <g transform="translate(452.842251 303.028562) scale(0.1 -0.1)">
       <defs>
        <path id="DejaVuSans-33" d="M 2597 2516 
Q 3050 2419 3304 2112 
Q 3559 1806 3559 1356 
Q 3559 666 3084 287 
Q 2609 -91 1734 -91 
Q 1441 -91 1130 -33 
Q 819 25 488 141 
L 488 750 
Q 750 597 1062 519 
Q 1375 441 1716 441 
Q 2309 441 2620 675 
Q 2931 909 2931 1356 
Q 2931 1769 2642 2001 
Q 2353 2234 1838 2234 
L 1294 2234 
L 1294 2753 
L 1863 2753 
Q 2328 2753 2575 2939 
Q 2822 3125 2822 3475 
Q 2822 3834 2567 4026 
Q 2313 4219 1838 4219 
Q 1578 4219 1281 4162 
Q 984 4106 628 3988 
L 628 4550 
Q 988 4650 1302 4700 
Q 1616 4750 1894 4750 
Q 2613 4750 3031 4423 
Q 3450 4097 3450 3541 
Q 3450 3153 3228 2886 
Q 3006 2619 2597 2516 
z
" transform="scale(0.015625)"/>
       </defs>
       <use xlink:href="#DejaVuSans-33"/>
       <use xlink:href="#DejaVuSans-6d" transform="translate(63.623047 0)"/>
      </g>
     </g>
    </g>
    <g id="xtick_8">
     <g id="line2d_8">
      <g>
       <use xlink:href="#m1fd167985b" x="521.686897" y="288.430125" style="stroke: #000000; stroke-width: 0.8"/>
      </g>
     </g>
     <g id="text_4">
      <!-- 11m -->
      <g transform="translate(510.454085 303.028562) scale(0.1 -0.1)">
       <use xlink:href="#DejaVuSans-31"/>
       <use xlink:href="#DejaVuSans-31" transform="translate(63.623047 0)"/>
       <use xlink:href="#DejaVuSans-6d" transform="translate(127.246094 0)"/>
      </g>
     </g>
    </g>
    <g id="xtick_9">
     <g id="line2d_9">
      <g>
       <use xlink:href="#m1fd167985b" x="582.479981" y="288.430125" style="stroke: #000000; stroke-width: 0.8"/>
      </g>
     </g>
     <g id="text_5">
      <!-- 35m -->
      <g transform="translate(571.247168 303.028562) scale(0.1 -0.1)">
       <defs>
        <path id="DejaVuSans-35" d="M 691 4666 
L 3169 4666 
L 3169 4134 
L 1269 4134 
L 1269 2991 
Q 1406 3038 1543 3061 
Q 1681 3084 1819 3084 
Q 2600 3084 3056 2656 
Q 3513 2228 3513 1497 
Q 3513 744 3044 326 
Q 2575 -91 1722 -91 
Q 1428 -91 1123 -41 
Q 819 9 494 109 
L 494 744 
Q 775 591 1075 516 
Q 1375 441 1709 441 
Q 2250 441 2565 725 
Q 2881 1009 2881 1497 
Q 2881 1984 2565 2268 
Q 2250 2553 1709 2553 
Q 1456 2553 1204 2497 
Q 953 2441 691 2322 
L 691 4666 
z
" transform="scale(0.015625)"/>
       </defs>
       <use xlink:href="#DejaVuSans-33"/>
       <use xlink:href="#DejaVuSans-35" transform="translate(63.623047 0)"/>
       <use xlink:href="#DejaVuSans-6d" transform="translate(127.246094 0)"/>
      </g>
     </g>
    </g>
    <g id="xtick_10">
     <g id="line2d_10">
      <g>
       <use xlink:href="#m1fd167985b" x="643.273064" y="288.430125" style="stroke: #000000; stroke-width: 0.8"/>
      </g>
     </g>
     <g id="text_6">
      <!-- 1h:45m -->
      <g transform="translate(624.005877 303.028562) scale(0.1 -0.1)">
       <defs>
        <path id="DejaVuSans-68" d="M 3513 2113 
L 3513 0 
L 2938 0 
L 2938 2094 
Q 2938 2591 2744 2837 
Q 2550 3084 2163 3084 
Q 1697 3084 1428 2787 
Q 1159 2491 1159 1978 
L 1159 0 
L 581 0 
L 581 4863 
L 1159 4863 
L 1159 2956 
Q 1366 3272 1645 3428 
Q 1925 3584 2291 3584 
Q 2894 3584 3203 3211 
Q 3513 2838 3513 2113 
z
" transform="scale(0.015625)"/>
        <path id="DejaVuSans-3a" d="M 750 794 
L 1409 794 
L 1409 0 
L 750 0 
L 750 794 
z
M 750 3309 
L 1409 3309 
L 1409 2516 
L 750 2516 
L 750 3309 
z
" transform="scale(0.015625)"/>
        <path id="DejaVuSans-34" d="M 2419 4116 
L 825 1625 
L 2419 1625 
L 2419 4116 
z
M 2253 4666 
L 3047 4666 
L 3047 1625 
L 3713 1625 
L 3713 1100 
L 3047 1100 
L 3047 0 
L 2419 0 
L 2419 1100 
L 313 1100 
L 313 1709 
L 2253 4666 
z
" transform="scale(0.015625)"/>
       </defs>
       <use xlink:href="#DejaVuSans-31"/>
       <use xlink:href="#DejaVuSans-68" transform="translate(63.623047 0)"/>
       <use xlink:href="#DejaVuSans-3a" transform="translate(127.001953 0)"/>
       <use xlink:href="#DejaVuSans-34" transform="translate(160.693359 0)"/>
       <use xlink:href="#DejaVuSans-35" transform="translate(224.316406 0)"/>
       <use xlink:href="#DejaVuSans-6d" transform="translate(287.939453 0)"/>
      </g>
     </g>
    </g>
    <g id="xtick_11">
     <g id="line2d_11">
      <g>
       <use xlink:href="#m1fd167985b" x="704.066148" y="288.430125" style="stroke: #000000; stroke-width: 0.8"/>
      </g>
     </g>
     <g id="text_7">
      <!-- 5h:16m -->
      <g transform="translate(684.79896 303.028562) scale(0.1 -0.1)">
       <defs>
        <path id="DejaVuSans-36" d="M 2113 2584 
Q 1688 2584 1439 2293 
Q 1191 2003 1191 1497 
Q 1191 994 1439 701 
Q 1688 409 2113 409 
Q 2538 409 2786 701 
Q 3034 994 3034 1497 
Q 3034 2003 2786 2293 
Q 2538 2584 2113 2584 
z
M 3366 4563 
L 3366 3988 
Q 3128 4100 2886 4159 
Q 2644 4219 2406 4219 
Q 1781 4219 1451 3797 
Q 1122 3375 1075 2522 
Q 1259 2794 1537 2939 
Q 1816 3084 2150 3084 
Q 2853 3084 3261 2657 
Q 3669 2231 3669 1497 
Q 3669 778 3244 343 
Q 2819 -91 2113 -91 
Q 1303 -91 875 529 
Q 447 1150 447 2328 
Q 447 3434 972 4092 
Q 1497 4750 2381 4750 
Q 2619 4750 2861 4703 
Q 3103 4656 3366 4563 
z
" transform="scale(0.015625)"/>
       </defs>
       <use xlink:href="#DejaVuSans-35"/>
       <use xlink:href="#DejaVuSans-68" transform="translate(63.623047 0)"/>
       <use xlink:href="#DejaVuSans-3a" transform="translate(127.001953 0)"/>
       <use xlink:href="#DejaVuSans-31" transform="translate(160.693359 0)"/>
       <use xlink:href="#DejaVuSans-36" transform="translate(224.316406 0)"/>
       <use xlink:href="#DejaVuSans-6d" transform="translate(287.939453 0)"/>
      </g>
     </g>
    </g>
    <g id="xtick_12">
     <g id="line2d_12">
      <g>
       <use xlink:href="#m1fd167985b" x="764.859231" y="288.430125" style="stroke: #000000; stroke-width: 0.8"/>
      </g>
     </g>
     <g id="text_8">
      <!-- 15h:45m -->
      <g transform="translate(742.410794 303.028562) scale(0.1 -0.1)">
       <use xlink:href="#DejaVuSans-31"/>
       <use xlink:href="#DejaVuSans-35" transform="translate(63.623047 0)"/>
       <use xlink:href="#DejaVuSans-68" transform="translate(127.246094 0)"/>
       <use xlink:href="#DejaVuSans-3a" transform="translate(190.625 0)"/>
       <use xlink:href="#DejaVuSans-34" transform="translate(224.316406 0)"/>
       <use xlink:href="#DejaVuSans-35" transform="translate(287.939453 0)"/>
       <use xlink:href="#DejaVuSans-6d" transform="translate(351.5625 0)"/>
      </g>
     </g>
    </g>
    <g id="text_9">
     <!-- Time (hour:minute) -->
     <g transform="translate(362.041094 316.706687) scale(0.1 -0.1)">
      <defs>
       <path id="DejaVuSans-54" d="M -19 4666 
L 3928 4666 
L 3928 4134 
L 2272 4134 
L 2272 0 
L 1638 0 
L 1638 4134 
L -19 4134 
L -19 4666 
z
" transform="scale(0.015625)"/>
       <path id="DejaVuSans-69" d="M 603 3500 
L 1178 3500 
L 1178 0 
L 603 0 
L 603 3500 
z
M 603 4863 
L 1178 4863 
L 1178 4134 
L 603 4134 
L 603 4863 
z
" transform="scale(0.015625)"/>
       <path id="DejaVuSans-65" d="M 3597 1894 
L 3597 1613 
L 953 1613 
Q 991 1019 1311 708 
Q 1631 397 2203 397 
Q 2534 397 2845 478 
Q 3156 559 3463 722 
L 3463 178 
Q 3153 47 2828 -22 
Q 2503 -91 2169 -91 
Q 1331 -91 842 396 
Q 353 884 353 1716 
Q 353 2575 817 3079 
Q 1281 3584 2069 3584 
Q 2775 3584 3186 3129 
Q 3597 2675 3597 1894 
z
M 3022 2063 
Q 3016 2534 2758 2815 
Q 2500 3097 2075 3097 
Q 1594 3097 1305 2825 
Q 1016 2553 972 2059 
L 3022 2063 
z
" transform="scale(0.015625)"/>
       <path id="DejaVuSans-20" transform="scale(0.015625)"/>
       <path id="DejaVuSans-28" d="M 1984 4856 
Q 1566 4138 1362 3434 
Q 1159 2731 1159 2009 
Q 1159 1288 1364 580 
Q 1569 -128 1984 -844 
L 1484 -844 
Q 1016 -109 783 600 
Q 550 1309 550 2009 
Q 550 2706 781 3412 
Q 1013 4119 1484 4856 
L 1984 4856 
z
" transform="scale(0.015625)"/>
       <path id="DejaVuSans-6f" d="M 1959 3097 
Q 1497 3097 1228 2736 
Q 959 2375 959 1747 
Q 959 1119 1226 758 
Q 1494 397 1959 397 
Q 2419 397 2687 759 
Q 2956 1122 2956 1747 
Q 2956 2369 2687 2733 
Q 2419 3097 1959 3097 
z
M 1959 3584 
Q 2709 3584 3137 3096 
Q 3566 2609 3566 1747 
Q 3566 888 3137 398 
Q 2709 -91 1959 -91 
Q 1206 -91 779 398 
Q 353 888 353 1747 
Q 353 2609 779 3096 
Q 1206 3584 1959 3584 
z
" transform="scale(0.015625)"/>
       <path id="DejaVuSans-75" d="M 544 1381 
L 544 3500 
L 1119 3500 
L 1119 1403 
Q 1119 906 1312 657 
Q 1506 409 1894 409 
Q 2359 409 2629 706 
Q 2900 1003 2900 1516 
L 2900 3500 
L 3475 3500 
L 3475 0 
L 2900 0 
L 2900 538 
Q 2691 219 2414 64 
Q 2138 -91 1772 -91 
Q 1169 -91 856 284 
Q 544 659 544 1381 
z
M 1991 3584 
L 1991 3584 
z
" transform="scale(0.015625)"/>
       <path id="DejaVuSans-72" d="M 2631 2963 
Q 2534 3019 2420 3045 
Q 2306 3072 2169 3072 
Q 1681 3072 1420 2755 
Q 1159 2438 1159 1844 
L 1159 0 
L 581 0 
L 581 3500 
L 1159 3500 
L 1159 2956 
Q 1341 3275 1631 3429 
Q 1922 3584 2338 3584 
Q 2397 3584 2469 3576 
Q 2541 3569 2628 3553 
L 2631 2963 
z
" transform="scale(0.015625)"/>
       <path id="DejaVuSans-6e" d="M 3513 2113 
L 3513 0 
L 2938 0 
L 2938 2094 
Q 2938 2591 2744 2837 
Q 2550 3084 2163 3084 
Q 1697 3084 1428 2787 
Q 1159 2491 1159 1978 
L 1159 0 
L 581 0 
L 581 3500 
L 1159 3500 
L 1159 2956 
Q 1366 3272 1645 3428 
Q 1925 3584 2291 3584 
Q 2894 3584 3203 3211 
Q 3513 2838 3513 2113 
z
" transform="scale(0.015625)"/>
       <path id="DejaVuSans-74" d="M 1172 4494 
L 1172 3500 
L 2356 3500 
L 2356 3053 
L 1172 3053 
L 1172 1153 
Q 1172 725 1289 603 
Q 1406 481 1766 481 
L 2356 481 
L 2356 0 
L 1766 0 
Q 1100 0 847 248 
Q 594 497 594 1153 
L 594 3053 
L 172 3053 
L 172 3500 
L 594 3500 
L 594 4494 
L 1172 4494 
z
" transform="scale(0.015625)"/>
       <path id="DejaVuSans-29" d="M 513 4856 
L 1013 4856 
Q 1481 4119 1714 3412 
Q 1947 2706 1947 2009 
Q 1947 1309 1714 600 
Q 1481 -109 1013 -844 
L 513 -844 
Q 928 -128 1133 580 
Q 1338 1288 1338 2009 
Q 1338 2731 1133 3434 
Q 928 4138 513 4856 
z
" transform="scale(0.015625)"/>
      </defs>
      <use xlink:href="#DejaVuSans-54"/>
      <use xlink:href="#DejaVuSans-69" transform="translate(57.958984 0)"/>
      <use xlink:href="#DejaVuSans-6d" transform="translate(85.742188 0)"/>
      <use xlink:href="#DejaVuSans-65" transform="translate(183.154297 0)"/>
      <use xlink:href="#DejaVuSans-20" transform="translate(244.677734 0)"/>
      <use xlink:href="#DejaVuSans-28" transform="translate(276.464844 0)"/>
      <use xlink:href="#DejaVuSans-68" transform="translate(315.478516 0)"/>
      <use xlink:href="#DejaVuSans-6f" transform="translate(378.857422 0)"/>
      <use xlink:href="#DejaVuSans-75" transform="translate(440.039062 0)"/>
      <use xlink:href="#DejaVuSans-72" transform="translate(503.417969 0)"/>
      <use xlink:href="#DejaVuSans-3a" transform="translate(542.78125 0)"/>
      <use xlink:href="#DejaVuSans-6d" transform="translate(576.472656 0)"/>
      <use xlink:href="#DejaVuSans-69" transform="translate(673.884766 0)"/>
      <use xlink:href="#DejaVuSans-6e" transform="translate(701.667969 0)"/>
      <use xlink:href="#DejaVuSans-75" transform="translate(765.046875 0)"/>
      <use xlink:href="#DejaVuSans-74" transform="translate(828.425781 0)"/>
      <use xlink:href="#DejaVuSans-65" transform="translate(867.634766 0)"/>
      <use xlink:href="#DejaVuSans-29" transform="translate(929.158203 0)"/>
     </g>
    </g>
   </g>
   <g id="matplotlib.axis_2">
    <g id="ytick_1">
     <g id="line2d_13">
      <defs>
       <path id="md048013781" d="M 0 0 
L -3.5 0 
" style="stroke: #000000; stroke-width: 0.8"/>
      </defs>
      <g>
       <use xlink:href="#md048013781" x="53.328125" y="256.809086" style="stroke: #000000; stroke-width: 0.8"/>
      </g>
     </g>
     <g id="text_10">
      <!-- 800 -->
      <g transform="translate(27.240625 260.608304) scale(0.1 -0.1)">
       <defs>
        <path id="DejaVuSans-38" d="M 2034 2216 
Q 1584 2216 1326 1975 
Q 1069 1734 1069 1313 
Q 1069 891 1326 650 
Q 1584 409 2034 409 
Q 2484 409 2743 651 
Q 3003 894 3003 1313 
Q 3003 1734 2745 1975 
Q 2488 2216 2034 2216 
z
M 1403 2484 
Q 997 2584 770 2862 
Q 544 3141 544 3541 
Q 544 4100 942 4425 
Q 1341 4750 2034 4750 
Q 2731 4750 3128 4425 
Q 3525 4100 3525 3541 
Q 3525 3141 3298 2862 
Q 3072 2584 2669 2484 
Q 3125 2378 3379 2068 
Q 3634 1759 3634 1313 
Q 3634 634 3220 271 
Q 2806 -91 2034 -91 
Q 1263 -91 848 271 
Q 434 634 434 1313 
Q 434 1759 690 2068 
Q 947 2378 1403 2484 
z
M 1172 3481 
Q 1172 3119 1398 2916 
Q 1625 2713 2034 2713 
Q 2441 2713 2670 2916 
Q 2900 3119 2900 3481 
Q 2900 3844 2670 4047 
Q 2441 4250 2034 4250 
Q 1625 4250 1398 4047 
Q 1172 3844 1172 3481 
z
" transform="scale(0.015625)"/>
       </defs>
       <use xlink:href="#DejaVuSans-38"/>
       <use xlink:href="#DejaVuSans-30" transform="translate(63.623047 0)"/>
       <use xlink:href="#DejaVuSans-30" transform="translate(127.246094 0)"/>
      </g>
     </g>
    </g>
    <g id="ytick_2">
     <g id="line2d_14">
      <g>
       <use xlink:href="#md048013781" x="53.328125" y="209.187038" style="stroke: #000000; stroke-width: 0.8"/>
      </g>
     </g>
     <g id="text_11">
      <!-- 900 -->
      <g transform="translate(27.240625 212.986257) scale(0.1 -0.1)">
       <defs>
        <path id="DejaVuSans-39" d="M 703 97 
L 703 672 
Q 941 559 1184 500 
Q 1428 441 1663 441 
Q 2288 441 2617 861 
Q 2947 1281 2994 2138 
Q 2813 1869 2534 1725 
Q 2256 1581 1919 1581 
Q 1219 1581 811 2004 
Q 403 2428 403 3163 
Q 403 3881 828 4315 
Q 1253 4750 1959 4750 
Q 2769 4750 3195 4129 
Q 3622 3509 3622 2328 
Q 3622 1225 3098 567 
Q 2575 -91 1691 -91 
Q 1453 -91 1209 -44 
Q 966 3 703 97 
z
M 1959 2075 
Q 2384 2075 2632 2365 
Q 2881 2656 2881 3163 
Q 2881 3666 2632 3958 
Q 2384 4250 1959 4250 
Q 1534 4250 1286 3958 
Q 1038 3666 1038 3163 
Q 1038 2656 1286 2365 
Q 1534 2075 1959 2075 
z
" transform="scale(0.015625)"/>
       </defs>
       <use xlink:href="#DejaVuSans-39"/>
       <use xlink:href="#DejaVuSans-30" transform="translate(63.623047 0)"/>
       <use xlink:href="#DejaVuSans-30" transform="translate(127.246094 0)"/>
      </g>
     </g>
    </g>
    <g id="ytick_3">
     <g id="line2d_15">
      <g>
       <use xlink:href="#md048013781" x="53.328125" y="161.564991" style="stroke: #000000; stroke-width: 0.8"/>
      </g>
     </g>
     <g id="text_12">
      <!-- 1000 -->
      <g transform="translate(20.878125 165.36421) scale(0.1 -0.1)">
       <use xlink:href="#DejaVuSans-31"/>
       <use xlink:href="#DejaVuSans-30" transform="translate(63.623047 0)"/>
       <use xlink:href="#DejaVuSans-30" transform="translate(127.246094 0)"/>
       <use xlink:href="#DejaVuSans-30" transform="translate(190.869141 0)"/>
      </g>
     </g>
    </g>
    <g id="ytick_4">
     <g id="line2d_16">
      <g>
       <use xlink:href="#md048013781" x="53.328125" y="113.942944" style="stroke: #000000; stroke-width: 0.8"/>
      </g>
     </g>
     <g id="text_13">
      <!-- 1100 -->
      <g transform="translate(20.878125 117.742163) scale(0.1 -0.1)">
       <use xlink:href="#DejaVuSans-31"/>
       <use xlink:href="#DejaVuSans-31" transform="translate(63.623047 0)"/>
       <use xlink:href="#DejaVuSans-30" transform="translate(127.246094 0)"/>
       <use xlink:href="#DejaVuSans-30" transform="translate(190.869141 0)"/>
      </g>
     </g>
    </g>
    <g id="ytick_5">
     <g id="line2d_17">
      <g>
       <use xlink:href="#md048013781" x="53.328125" y="66.320897" style="stroke: #000000; stroke-width: 0.8"/>
      </g>
     </g>
     <g id="text_14">
      <!-- 1200 -->
      <g transform="translate(20.878125 70.120115) scale(0.1 -0.1)">
       <defs>
        <path id="DejaVuSans-32" d="M 1228 531 
L 3431 531 
L 3431 0 
L 469 0 
L 469 531 
Q 828 903 1448 1529 
Q 2069 2156 2228 2338 
Q 2531 2678 2651 2914 
Q 2772 3150 2772 3378 
Q 2772 3750 2511 3984 
Q 2250 4219 1831 4219 
Q 1534 4219 1204 4116 
Q 875 4013 500 3803 
L 500 4441 
Q 881 4594 1212 4672 
Q 1544 4750 1819 4750 
Q 2544 4750 2975 4387 
Q 3406 4025 3406 3419 
Q 3406 3131 3298 2873 
Q 3191 2616 2906 2266 
Q 2828 2175 2409 1742 
Q 1991 1309 1228 531 
z
" transform="scale(0.015625)"/>
       </defs>
       <use xlink:href="#DejaVuSans-31"/>
       <use xlink:href="#DejaVuSans-32" transform="translate(63.623047 0)"/>
       <use xlink:href="#DejaVuSans-30" transform="translate(127.246094 0)"/>
       <use xlink:href="#DejaVuSans-30" transform="translate(190.869141 0)"/>
      </g>
     </g>
    </g>
    <g id="text_15">
     <!-- Code branch coverage -->
     <g transform="translate(14.798438 211.949125) rotate(-90) scale(0.1 -0.1)">
      <defs>
       <path id="DejaVuSans-43" d="M 4122 4306 
L 4122 3641 
Q 3803 3938 3442 4084 
Q 3081 4231 2675 4231 
Q 1875 4231 1450 3742 
Q 1025 3253 1025 2328 
Q 1025 1406 1450 917 
Q 1875 428 2675 428 
Q 3081 428 3442 575 
Q 3803 722 4122 1019 
L 4122 359 
Q 3791 134 3420 21 
Q 3050 -91 2638 -91 
Q 1578 -91 968 557 
Q 359 1206 359 2328 
Q 359 3453 968 4101 
Q 1578 4750 2638 4750 
Q 3056 4750 3426 4639 
Q 3797 4528 4122 4306 
z
" transform="scale(0.015625)"/>
       <path id="DejaVuSans-64" d="M 2906 2969 
L 2906 4863 
L 3481 4863 
L 3481 0 
L 2906 0 
L 2906 525 
Q 2725 213 2448 61 
Q 2172 -91 1784 -91 
Q 1150 -91 751 415 
Q 353 922 353 1747 
Q 353 2572 751 3078 
Q 1150 3584 1784 3584 
Q 2172 3584 2448 3432 
Q 2725 3281 2906 2969 
z
M 947 1747 
Q 947 1113 1208 752 
Q 1469 391 1925 391 
Q 2381 391 2643 752 
Q 2906 1113 2906 1747 
Q 2906 2381 2643 2742 
Q 2381 3103 1925 3103 
Q 1469 3103 1208 2742 
Q 947 2381 947 1747 
z
" transform="scale(0.015625)"/>
       <path id="DejaVuSans-62" d="M 3116 1747 
Q 3116 2381 2855 2742 
Q 2594 3103 2138 3103 
Q 1681 3103 1420 2742 
Q 1159 2381 1159 1747 
Q 1159 1113 1420 752 
Q 1681 391 2138 391 
Q 2594 391 2855 752 
Q 3116 1113 3116 1747 
z
M 1159 2969 
Q 1341 3281 1617 3432 
Q 1894 3584 2278 3584 
Q 2916 3584 3314 3078 
Q 3713 2572 3713 1747 
Q 3713 922 3314 415 
Q 2916 -91 2278 -91 
Q 1894 -91 1617 61 
Q 1341 213 1159 525 
L 1159 0 
L 581 0 
L 581 4863 
L 1159 4863 
L 1159 2969 
z
" transform="scale(0.015625)"/>
       <path id="DejaVuSans-61" d="M 2194 1759 
Q 1497 1759 1228 1600 
Q 959 1441 959 1056 
Q 959 750 1161 570 
Q 1363 391 1709 391 
Q 2188 391 2477 730 
Q 2766 1069 2766 1631 
L 2766 1759 
L 2194 1759 
z
M 3341 1997 
L 3341 0 
L 2766 0 
L 2766 531 
Q 2569 213 2275 61 
Q 1981 -91 1556 -91 
Q 1019 -91 701 211 
Q 384 513 384 1019 
Q 384 1609 779 1909 
Q 1175 2209 1959 2209 
L 2766 2209 
L 2766 2266 
Q 2766 2663 2505 2880 
Q 2244 3097 1772 3097 
Q 1472 3097 1187 3025 
Q 903 2953 641 2809 
L 641 3341 
Q 956 3463 1253 3523 
Q 1550 3584 1831 3584 
Q 2591 3584 2966 3190 
Q 3341 2797 3341 1997 
z
" transform="scale(0.015625)"/>
       <path id="DejaVuSans-63" d="M 3122 3366 
L 3122 2828 
Q 2878 2963 2633 3030 
Q 2388 3097 2138 3097 
Q 1578 3097 1268 2742 
Q 959 2388 959 1747 
Q 959 1106 1268 751 
Q 1578 397 2138 397 
Q 2388 397 2633 464 
Q 2878 531 3122 666 
L 3122 134 
Q 2881 22 2623 -34 
Q 2366 -91 2075 -91 
Q 1284 -91 818 406 
Q 353 903 353 1747 
Q 353 2603 823 3093 
Q 1294 3584 2113 3584 
Q 2378 3584 2631 3529 
Q 2884 3475 3122 3366 
z
" transform="scale(0.015625)"/>
       <path id="DejaVuSans-76" d="M 191 3500 
L 800 3500 
L 1894 563 
L 2988 3500 
L 3597 3500 
L 2284 0 
L 1503 0 
L 191 3500 
z
" transform="scale(0.015625)"/>
       <path id="DejaVuSans-67" d="M 2906 1791 
Q 2906 2416 2648 2759 
Q 2391 3103 1925 3103 
Q 1463 3103 1205 2759 
Q 947 2416 947 1791 
Q 947 1169 1205 825 
Q 1463 481 1925 481 
Q 2391 481 2648 825 
Q 2906 1169 2906 1791 
z
M 3481 434 
Q 3481 -459 3084 -895 
Q 2688 -1331 1869 -1331 
Q 1566 -1331 1297 -1286 
Q 1028 -1241 775 -1147 
L 775 -588 
Q 1028 -725 1275 -790 
Q 1522 -856 1778 -856 
Q 2344 -856 2625 -561 
Q 2906 -266 2906 331 
L 2906 616 
Q 2728 306 2450 153 
Q 2172 0 1784 0 
Q 1141 0 747 490 
Q 353 981 353 1791 
Q 353 2603 747 3093 
Q 1141 3584 1784 3584 
Q 2172 3584 2450 3431 
Q 2728 3278 2906 2969 
L 2906 3500 
L 3481 3500 
L 3481 434 
z
" transform="scale(0.015625)"/>
      </defs>
      <use xlink:href="#DejaVuSans-43"/>
      <use xlink:href="#DejaVuSans-6f" transform="translate(69.824219 0)"/>
      <use xlink:href="#DejaVuSans-64" transform="translate(131.005859 0)"/>
      <use xlink:href="#DejaVuSans-65" transform="translate(194.482422 0)"/>
      <use xlink:href="#DejaVuSans-20" transform="translate(256.005859 0)"/>
      <use xlink:href="#DejaVuSans-62" transform="translate(287.792969 0)"/>
      <use xlink:href="#DejaVuSans-72" transform="translate(351.269531 0)"/>
      <use xlink:href="#DejaVuSans-61" transform="translate(392.382812 0)"/>
      <use xlink:href="#DejaVuSans-6e" transform="translate(453.662109 0)"/>
      <use xlink:href="#DejaVuSans-63" transform="translate(517.041016 0)"/>
      <use xlink:href="#DejaVuSans-68" transform="translate(572.021484 0)"/>
      <use xlink:href="#DejaVuSans-20" transform="translate(635.400391 0)"/>
      <use xlink:href="#DejaVuSans-63" transform="translate(667.1875 0)"/>
      <use xlink:href="#DejaVuSans-6f" transform="translate(722.167969 0)"/>
      <use xlink:href="#DejaVuSans-76" transform="translate(783.349609 0)"/>
      <use xlink:href="#DejaVuSans-65" transform="translate(842.529297 0)"/>
      <use xlink:href="#DejaVuSans-72" transform="translate(904.052734 0)"/>
      <use xlink:href="#DejaVuSans-61" transform="translate(945.166016 0)"/>
      <use xlink:href="#DejaVuSans-67" transform="translate(1006.445312 0)"/>
      <use xlink:href="#DejaVuSans-65" transform="translate(1069.921875 0)"/>
     </g>
    </g>
   </g>
   <g id="line2d_18">
    <path d="M 53.328125 276.334125 
L 534.742815 54.653495 
L 573.241169 42.033653 
L 595.761262 41.081212 
L 611.739523 40.843101 
L 624.133224 40.366881 
L 634.259616 40.128771 
L 642.821358 40.128771 
L 650.237876 39.89066 
L 656.779709 39.17633 
L 662.631578 38.938219 
L 667.925237 38.938219 
L 672.75797 38.700109 
L 677.203652 37.747668 
L 681.319712 37.509558 
L 685.151671 37.509558 
L 688.73623 37.509558 
L 692.103405 37.509558 
L 695.278063 37.509558 
L 698.281031 37.271448 
L 701.129932 37.033338 
L 703.839805 37.033338 
L 706.423591 37.033338 
L 708.892503 37.033338 
L 711.256323 36.795227 
L 713.523633 36.557117 
L 715.702006 36.557117 
L 717.798156 36.319007 
L 719.818065 36.319007 
L 721.767086 36.080897 
L 723.650025 36.080897 
L 725.471217 35.842786 
L 727.234584 35.604676 
L 728.943684 35.366566 
L 730.601759 35.366566 
L 732.211767 34.890345 
L 733.776416 34.890345 
L 735.298193 34.890345 
L 736.779385 34.890345 
L 738.222099 34.890345 
L 739.628285 34.890345 
L 740.999747 34.890345 
L 742.338159 34.890345 
L 743.645075 34.890345 
L 744.921945 34.890345 
L 746.170118 34.890345 
L 747.390857 34.890345 
L 748.585341 34.890345 
L 749.754677 34.890345 
L 750.899901 34.890345 
L 752.021987 34.890345 
L 753.121852 34.890345 
L 754.20036 34.890345 
L 755.258323 34.890345 
L 756.29651 34.890345 
L 757.315646 34.890345 
L 758.316419 34.890345 
L 759.299478 34.890345 
L 760.265439 34.890345 
L 761.214888 34.890345 
L 762.148379 34.890345 
L 763.066439 34.890345 
L 763.969571 34.890345 
L 764.858252 34.890345 
" clip-path="url(#p80f04cccae)" style="fill: none; stroke: #1f77b4; stroke-width: 1.5; stroke-linecap: square"/>
    <defs>
     <path id="m9aa23f0f01" d="M 0 3 
C 0.795609 3 1.55874 2.683901 2.12132 2.12132 
C 2.683901 1.55874 3 0.795609 3 0 
C 3 -0.795609 2.683901 -1.55874 2.12132 -2.12132 
C 1.55874 -2.683901 0.795609 -3 0 -3 
C -0.795609 -3 -1.55874 -2.683901 -2.12132 -2.12132 
C -2.683901 -1.55874 -3 -0.795609 -3 0 
C -3 0.795609 -2.683901 1.55874 -2.12132 2.12132 
C -1.55874 2.683901 -0.795609 3 0 3 
z
" style="stroke: #ffffff; stroke-width: 0.75"/>
    </defs>
    <g clip-path="url(#p80f04cccae)">
     <use xlink:href="#m9aa23f0f01" x="53.328125" y="276.334125" style="fill: #1f77b4; stroke: #ffffff; stroke-width: 0.75"/>
     <use xlink:href="#m9aa23f0f01" x="534.742815" y="54.653495" style="fill: #1f77b4; stroke: #ffffff; stroke-width: 0.75"/>
     <use xlink:href="#m9aa23f0f01" x="573.241169" y="42.033653" style="fill: #1f77b4; stroke: #ffffff; stroke-width: 0.75"/>
     <use xlink:href="#m9aa23f0f01" x="595.761262" y="41.081212" style="fill: #1f77b4; stroke: #ffffff; stroke-width: 0.75"/>
     <use xlink:href="#m9aa23f0f01" x="611.739523" y="40.843101" style="fill: #1f77b4; stroke: #ffffff; stroke-width: 0.75"/>
     <use xlink:href="#m9aa23f0f01" x="624.133224" y="40.366881" style="fill: #1f77b4; stroke: #ffffff; stroke-width: 0.75"/>
     <use xlink:href="#m9aa23f0f01" x="634.259616" y="40.128771" style="fill: #1f77b4; stroke: #ffffff; stroke-width: 0.75"/>
     <use xlink:href="#m9aa23f0f01" x="642.821358" y="40.128771" style="fill: #1f77b4; stroke: #ffffff; stroke-width: 0.75"/>
     <use xlink:href="#m9aa23f0f01" x="650.237876" y="39.89066" style="fill: #1f77b4; stroke: #ffffff; stroke-width: 0.75"/>
     <use xlink:href="#m9aa23f0f01" x="656.779709" y="39.17633" style="fill: #1f77b4; stroke: #ffffff; stroke-width: 0.75"/>
     <use xlink:href="#m9aa23f0f01" x="662.631578" y="38.938219" style="fill: #1f77b4; stroke: #ffffff; stroke-width: 0.75"/>
     <use xlink:href="#m9aa23f0f01" x="667.925237" y="38.938219" style="fill: #1f77b4; stroke: #ffffff; stroke-width: 0.75"/>
     <use xlink:href="#m9aa23f0f01" x="672.75797" y="38.700109" style="fill: #1f77b4; stroke: #ffffff; stroke-width: 0.75"/>
     <use xlink:href="#m9aa23f0f01" x="677.203652" y="37.747668" style="fill: #1f77b4; stroke: #ffffff; stroke-width: 0.75"/>
     <use xlink:href="#m9aa23f0f01" x="681.319712" y="37.509558" style="fill: #1f77b4; stroke: #ffffff; stroke-width: 0.75"/>
     <use xlink:href="#m9aa23f0f01" x="685.151671" y="37.509558" style="fill: #1f77b4; stroke: #ffffff; stroke-width: 0.75"/>
     <use xlink:href="#m9aa23f0f01" x="688.73623" y="37.509558" style="fill: #1f77b4; stroke: #ffffff; stroke-width: 0.75"/>
     <use xlink:href="#m9aa23f0f01" x="692.103405" y="37.509558" style="fill: #1f77b4; stroke: #ffffff; stroke-width: 0.75"/>
     <use xlink:href="#m9aa23f0f01" x="695.278063" y="37.509558" style="fill: #1f77b4; stroke: #ffffff; stroke-width: 0.75"/>
     <use xlink:href="#m9aa23f0f01" x="698.281031" y="37.271448" style="fill: #1f77b4; stroke: #ffffff; stroke-width: 0.75"/>
     <use xlink:href="#m9aa23f0f01" x="701.129932" y="37.033338" style="fill: #1f77b4; stroke: #ffffff; stroke-width: 0.75"/>
     <use xlink:href="#m9aa23f0f01" x="703.839805" y="37.033338" style="fill: #1f77b4; stroke: #ffffff; stroke-width: 0.75"/>
     <use xlink:href="#m9aa23f0f01" x="706.423591" y="37.033338" style="fill: #1f77b4; stroke: #ffffff; stroke-width: 0.75"/>
     <use xlink:href="#m9aa23f0f01" x="708.892503" y="37.033338" style="fill: #1f77b4; stroke: #ffffff; stroke-width: 0.75"/>
     <use xlink:href="#m9aa23f0f01" x="711.256323" y="36.795227" style="fill: #1f77b4; stroke: #ffffff; stroke-width: 0.75"/>
     <use xlink:href="#m9aa23f0f01" x="713.523633" y="36.557117" style="fill: #1f77b4; stroke: #ffffff; stroke-width: 0.75"/>
     <use xlink:href="#m9aa23f0f01" x="715.702006" y="36.557117" style="fill: #1f77b4; stroke: #ffffff; stroke-width: 0.75"/>
     <use xlink:href="#m9aa23f0f01" x="717.798156" y="36.319007" style="fill: #1f77b4; stroke: #ffffff; stroke-width: 0.75"/>
     <use xlink:href="#m9aa23f0f01" x="719.818065" y="36.319007" style="fill: #1f77b4; stroke: #ffffff; stroke-width: 0.75"/>
     <use xlink:href="#m9aa23f0f01" x="721.767086" y="36.080897" style="fill: #1f77b4; stroke: #ffffff; stroke-width: 0.75"/>
     <use xlink:href="#m9aa23f0f01" x="723.650025" y="36.080897" style="fill: #1f77b4; stroke: #ffffff; stroke-width: 0.75"/>
     <use xlink:href="#m9aa23f0f01" x="725.471217" y="35.842786" style="fill: #1f77b4; stroke: #ffffff; stroke-width: 0.75"/>
     <use xlink:href="#m9aa23f0f01" x="727.234584" y="35.604676" style="fill: #1f77b4; stroke: #ffffff; stroke-width: 0.75"/>
     <use xlink:href="#m9aa23f0f01" x="728.943684" y="35.366566" style="fill: #1f77b4; stroke: #ffffff; stroke-width: 0.75"/>
     <use xlink:href="#m9aa23f0f01" x="730.601759" y="35.366566" style="fill: #1f77b4; stroke: #ffffff; stroke-width: 0.75"/>
     <use xlink:href="#m9aa23f0f01" x="732.211767" y="34.890345" style="fill: #1f77b4; stroke: #ffffff; stroke-width: 0.75"/>
     <use xlink:href="#m9aa23f0f01" x="733.776416" y="34.890345" style="fill: #1f77b4; stroke: #ffffff; stroke-width: 0.75"/>
     <use xlink:href="#m9aa23f0f01" x="735.298193" y="34.890345" style="fill: #1f77b4; stroke: #ffffff; stroke-width: 0.75"/>
     <use xlink:href="#m9aa23f0f01" x="736.779385" y="34.890345" style="fill: #1f77b4; stroke: #ffffff; stroke-width: 0.75"/>
     <use xlink:href="#m9aa23f0f01" x="738.222099" y="34.890345" style="fill: #1f77b4; stroke: #ffffff; stroke-width: 0.75"/>
     <use xlink:href="#m9aa23f0f01" x="739.628285" y="34.890345" style="fill: #1f77b4; stroke: #ffffff; stroke-width: 0.75"/>
     <use xlink:href="#m9aa23f0f01" x="740.999747" y="34.890345" style="fill: #1f77b4; stroke: #ffffff; stroke-width: 0.75"/>
     <use xlink:href="#m9aa23f0f01" x="742.338159" y="34.890345" style="fill: #1f77b4; stroke: #ffffff; stroke-width: 0.75"/>
     <use xlink:href="#m9aa23f0f01" x="743.645075" y="34.890345" style="fill: #1f77b4; stroke: #ffffff; stroke-width: 0.75"/>
     <use xlink:href="#m9aa23f0f01" x="744.921945" y="34.890345" style="fill: #1f77b4; stroke: #ffffff; stroke-width: 0.75"/>
     <use xlink:href="#m9aa23f0f01" x="746.170118" y="34.890345" style="fill: #1f77b4; stroke: #ffffff; stroke-width: 0.75"/>
     <use xlink:href="#m9aa23f0f01" x="747.390857" y="34.890345" style="fill: #1f77b4; stroke: #ffffff; stroke-width: 0.75"/>
     <use xlink:href="#m9aa23f0f01" x="748.585341" y="34.890345" style="fill: #1f77b4; stroke: #ffffff; stroke-width: 0.75"/>
     <use xlink:href="#m9aa23f0f01" x="749.754677" y="34.890345" style="fill: #1f77b4; stroke: #ffffff; stroke-width: 0.75"/>
     <use xlink:href="#m9aa23f0f01" x="750.899901" y="34.890345" style="fill: #1f77b4; stroke: #ffffff; stroke-width: 0.75"/>
     <use xlink:href="#m9aa23f0f01" x="752.021987" y="34.890345" style="fill: #1f77b4; stroke: #ffffff; stroke-width: 0.75"/>
     <use xlink:href="#m9aa23f0f01" x="753.121852" y="34.890345" style="fill: #1f77b4; stroke: #ffffff; stroke-width: 0.75"/>
     <use xlink:href="#m9aa23f0f01" x="754.20036" y="34.890345" style="fill: #1f77b4; stroke: #ffffff; stroke-width: 0.75"/>
     <use xlink:href="#m9aa23f0f01" x="755.258323" y="34.890345" style="fill: #1f77b4; stroke: #ffffff; stroke-width: 0.75"/>
     <use xlink:href="#m9aa23f0f01" x="756.29651" y="34.890345" style="fill: #1f77b4; stroke: #ffffff; stroke-width: 0.75"/>
     <use xlink:href="#m9aa23f0f01" x="757.315646" y="34.890345" style="fill: #1f77b4; stroke: #ffffff; stroke-width: 0.75"/>
     <use xlink:href="#m9aa23f0f01" x="758.316419" y="34.890345" style="fill: #1f77b4; stroke: #ffffff; stroke-width: 0.75"/>
     <use xlink:href="#m9aa23f0f01" x="759.299478" y="34.890345" style="fill: #1f77b4; stroke: #ffffff; stroke-width: 0.75"/>
     <use xlink:href="#m9aa23f0f01" x="760.265439" y="34.890345" style="fill: #1f77b4; stroke: #ffffff; stroke-width: 0.75"/>
     <use xlink:href="#m9aa23f0f01" x="761.214888" y="34.890345" style="fill: #1f77b4; stroke: #ffffff; stroke-width: 0.75"/>
     <use xlink:href="#m9aa23f0f01" x="762.148379" y="34.890345" style="fill: #1f77b4; stroke: #ffffff; stroke-width: 0.75"/>
     <use xlink:href="#m9aa23f0f01" x="763.066439" y="34.890345" style="fill: #1f77b4; stroke: #ffffff; stroke-width: 0.75"/>
     <use xlink:href="#m9aa23f0f01" x="763.969571" y="34.890345" style="fill: #1f77b4; stroke: #ffffff; stroke-width: 0.75"/>
     <use xlink:href="#m9aa23f0f01" x="764.858252" y="34.890345" style="fill: #1f77b4; stroke: #ffffff; stroke-width: 0.75"/>
    </g>
   </g>
   <g id="line2d_19">
    <path d="M 53.328125 276.334125 
L 534.742815 44.890975 
L 573.241169 42.509873 
L 595.761262 42.033653 
L 611.739523 41.081212 
L 624.133224 40.128771 
L 634.259616 39.89066 
L 642.821358 39.65255 
L 650.237876 38.700109 
L 656.779709 38.700109 
L 662.631578 38.700109 
L 667.925237 38.700109 
L 672.75797 38.461999 
L 677.203652 38.461999 
L 681.319712 38.461999 
L 685.151671 38.223889 
L 688.73623 37.985779 
L 692.103405 37.985779 
L 695.278063 37.747668 
L 698.281031 37.747668 
L 701.129932 37.747668 
L 703.839805 37.509558 
L 706.423591 37.509558 
L 708.892503 37.509558 
L 711.256323 37.509558 
L 713.523633 37.509558 
L 715.702006 37.271448 
L 717.798156 37.271448 
L 719.818065 37.271448 
L 721.767086 37.033338 
L 723.650025 37.033338 
L 725.471217 37.033338 
L 727.234584 37.033338 
L 728.943684 36.795227 
L 730.601759 36.795227 
L 732.211767 36.795227 
L 733.776416 36.557117 
L 735.298193 36.557117 
L 736.779385 36.557117 
L 738.222099 36.557117 
L 739.628285 36.557117 
L 740.999747 36.557117 
L 742.338159 36.557117 
L 743.645075 36.557117 
L 744.921945 36.319007 
L 746.170118 36.319007 
L 747.390857 36.319007 
L 748.585341 36.319007 
L 749.754677 36.319007 
L 750.899901 36.319007 
L 752.021987 36.319007 
L 753.121852 36.319007 
L 754.20036 36.319007 
L 755.258323 36.319007 
L 756.29651 36.319007 
L 757.315646 36.319007 
L 758.316419 36.319007 
L 759.299478 36.319007 
L 760.265439 36.319007 
L 761.214888 36.080897 
L 762.148379 36.080897 
L 763.066439 36.080897 
L 763.969571 36.080897 
L 764.858252 36.080897 
" clip-path="url(#p80f04cccae)" style="fill: none; stroke: #d62728; stroke-width: 1.5; stroke-linecap: square"/>
    <defs>
     <path id="ma14bd84e5f" d="M 0 -3 
L -3 3 
L 3 3 
z
" style="stroke: #ffffff; stroke-width: 0.75; stroke-linejoin: miter"/>
    </defs>
    <g clip-path="url(#p80f04cccae)">
     <use xlink:href="#ma14bd84e5f" x="53.328125" y="276.334125" style="fill: #d62728; stroke: #ffffff; stroke-width: 0.75; stroke-linejoin: miter"/>
     <use xlink:href="#ma14bd84e5f" x="534.742815" y="44.890975" style="fill: #d62728; stroke: #ffffff; stroke-width: 0.75; stroke-linejoin: miter"/>
     <use xlink:href="#ma14bd84e5f" x="573.241169" y="42.509873" style="fill: #d62728; stroke: #ffffff; stroke-width: 0.75; stroke-linejoin: miter"/>
     <use xlink:href="#ma14bd84e5f" x="595.761262" y="42.033653" style="fill: #d62728; stroke: #ffffff; stroke-width: 0.75; stroke-linejoin: miter"/>
     <use xlink:href="#ma14bd84e5f" x="611.739523" y="41.081212" style="fill: #d62728; stroke: #ffffff; stroke-width: 0.75; stroke-linejoin: miter"/>
     <use xlink:href="#ma14bd84e5f" x="624.133224" y="40.128771" style="fill: #d62728; stroke: #ffffff; stroke-width: 0.75; stroke-linejoin: miter"/>
     <use xlink:href="#ma14bd84e5f" x="634.259616" y="39.89066" style="fill: #d62728; stroke: #ffffff; stroke-width: 0.75; stroke-linejoin: miter"/>
     <use xlink:href="#ma14bd84e5f" x="642.821358" y="39.65255" style="fill: #d62728; stroke: #ffffff; stroke-width: 0.75; stroke-linejoin: miter"/>
     <use xlink:href="#ma14bd84e5f" x="650.237876" y="38.700109" style="fill: #d62728; stroke: #ffffff; stroke-width: 0.75; stroke-linejoin: miter"/>
     <use xlink:href="#ma14bd84e5f" x="656.779709" y="38.700109" style="fill: #d62728; stroke: #ffffff; stroke-width: 0.75; stroke-linejoin: miter"/>
     <use xlink:href="#ma14bd84e5f" x="662.631578" y="38.700109" style="fill: #d62728; stroke: #ffffff; stroke-width: 0.75; stroke-linejoin: miter"/>
     <use xlink:href="#ma14bd84e5f" x="667.925237" y="38.700109" style="fill: #d62728; stroke: #ffffff; stroke-width: 0.75; stroke-linejoin: miter"/>
     <use xlink:href="#ma14bd84e5f" x="672.75797" y="38.461999" style="fill: #d62728; stroke: #ffffff; stroke-width: 0.75; stroke-linejoin: miter"/>
     <use xlink:href="#ma14bd84e5f" x="677.203652" y="38.461999" style="fill: #d62728; stroke: #ffffff; stroke-width: 0.75; stroke-linejoin: miter"/>
     <use xlink:href="#ma14bd84e5f" x="681.319712" y="38.461999" style="fill: #d62728; stroke: #ffffff; stroke-width: 0.75; stroke-linejoin: miter"/>
     <use xlink:href="#ma14bd84e5f" x="685.151671" y="38.223889" style="fill: #d62728; stroke: #ffffff; stroke-width: 0.75; stroke-linejoin: miter"/>
     <use xlink:href="#ma14bd84e5f" x="688.73623" y="37.985779" style="fill: #d62728; stroke: #ffffff; stroke-width: 0.75; stroke-linejoin: miter"/>
     <use xlink:href="#ma14bd84e5f" x="692.103405" y="37.985779" style="fill: #d62728; stroke: #ffffff; stroke-width: 0.75; stroke-linejoin: miter"/>
     <use xlink:href="#ma14bd84e5f" x="695.278063" y="37.747668" style="fill: #d62728; stroke: #ffffff; stroke-width: 0.75; stroke-linejoin: miter"/>
     <use xlink:href="#ma14bd84e5f" x="698.281031" y="37.747668" style="fill: #d62728; stroke: #ffffff; stroke-width: 0.75; stroke-linejoin: miter"/>
     <use xlink:href="#ma14bd84e5f" x="701.129932" y="37.747668" style="fill: #d62728; stroke: #ffffff; stroke-width: 0.75; stroke-linejoin: miter"/>
     <use xlink:href="#ma14bd84e5f" x="703.839805" y="37.509558" style="fill: #d62728; stroke: #ffffff; stroke-width: 0.75; stroke-linejoin: miter"/>
     <use xlink:href="#ma14bd84e5f" x="706.423591" y="37.509558" style="fill: #d62728; stroke: #ffffff; stroke-width: 0.75; stroke-linejoin: miter"/>
     <use xlink:href="#ma14bd84e5f" x="708.892503" y="37.509558" style="fill: #d62728; stroke: #ffffff; stroke-width: 0.75; stroke-linejoin: miter"/>
     <use xlink:href="#ma14bd84e5f" x="711.256323" y="37.509558" style="fill: #d62728; stroke: #ffffff; stroke-width: 0.75; stroke-linejoin: miter"/>
     <use xlink:href="#ma14bd84e5f" x="713.523633" y="37.509558" style="fill: #d62728; stroke: #ffffff; stroke-width: 0.75; stroke-linejoin: miter"/>
     <use xlink:href="#ma14bd84e5f" x="715.702006" y="37.271448" style="fill: #d62728; stroke: #ffffff; stroke-width: 0.75; stroke-linejoin: miter"/>
     <use xlink:href="#ma14bd84e5f" x="717.798156" y="37.271448" style="fill: #d62728; stroke: #ffffff; stroke-width: 0.75; stroke-linejoin: miter"/>
     <use xlink:href="#ma14bd84e5f" x="719.818065" y="37.271448" style="fill: #d62728; stroke: #ffffff; stroke-width: 0.75; stroke-linejoin: miter"/>
     <use xlink:href="#ma14bd84e5f" x="721.767086" y="37.033338" style="fill: #d62728; stroke: #ffffff; stroke-width: 0.75; stroke-linejoin: miter"/>
     <use xlink:href="#ma14bd84e5f" x="723.650025" y="37.033338" style="fill: #d62728; stroke: #ffffff; stroke-width: 0.75; stroke-linejoin: miter"/>
     <use xlink:href="#ma14bd84e5f" x="725.471217" y="37.033338" style="fill: #d62728; stroke: #ffffff; stroke-width: 0.75; stroke-linejoin: miter"/>
     <use xlink:href="#ma14bd84e5f" x="727.234584" y="37.033338" style="fill: #d62728; stroke: #ffffff; stroke-width: 0.75; stroke-linejoin: miter"/>
     <use xlink:href="#ma14bd84e5f" x="728.943684" y="36.795227" style="fill: #d62728; stroke: #ffffff; stroke-width: 0.75; stroke-linejoin: miter"/>
     <use xlink:href="#ma14bd84e5f" x="730.601759" y="36.795227" style="fill: #d62728; stroke: #ffffff; stroke-width: 0.75; stroke-linejoin: miter"/>
     <use xlink:href="#ma14bd84e5f" x="732.211767" y="36.795227" style="fill: #d62728; stroke: #ffffff; stroke-width: 0.75; stroke-linejoin: miter"/>
     <use xlink:href="#ma14bd84e5f" x="733.776416" y="36.557117" style="fill: #d62728; stroke: #ffffff; stroke-width: 0.75; stroke-linejoin: miter"/>
     <use xlink:href="#ma14bd84e5f" x="735.298193" y="36.557117" style="fill: #d62728; stroke: #ffffff; stroke-width: 0.75; stroke-linejoin: miter"/>
     <use xlink:href="#ma14bd84e5f" x="736.779385" y="36.557117" style="fill: #d62728; stroke: #ffffff; stroke-width: 0.75; stroke-linejoin: miter"/>
     <use xlink:href="#ma14bd84e5f" x="738.222099" y="36.557117" style="fill: #d62728; stroke: #ffffff; stroke-width: 0.75; stroke-linejoin: miter"/>
     <use xlink:href="#ma14bd84e5f" x="739.628285" y="36.557117" style="fill: #d62728; stroke: #ffffff; stroke-width: 0.75; stroke-linejoin: miter"/>
     <use xlink:href="#ma14bd84e5f" x="740.999747" y="36.557117" style="fill: #d62728; stroke: #ffffff; stroke-width: 0.75; stroke-linejoin: miter"/>
     <use xlink:href="#ma14bd84e5f" x="742.338159" y="36.557117" style="fill: #d62728; stroke: #ffffff; stroke-width: 0.75; stroke-linejoin: miter"/>
     <use xlink:href="#ma14bd84e5f" x="743.645075" y="36.557117" style="fill: #d62728; stroke: #ffffff; stroke-width: 0.75; stroke-linejoin: miter"/>
     <use xlink:href="#ma14bd84e5f" x="744.921945" y="36.319007" style="fill: #d62728; stroke: #ffffff; stroke-width: 0.75; stroke-linejoin: miter"/>
     <use xlink:href="#ma14bd84e5f" x="746.170118" y="36.319007" style="fill: #d62728; stroke: #ffffff; stroke-width: 0.75; stroke-linejoin: miter"/>
     <use xlink:href="#ma14bd84e5f" x="747.390857" y="36.319007" style="fill: #d62728; stroke: #ffffff; stroke-width: 0.75; stroke-linejoin: miter"/>
     <use xlink:href="#ma14bd84e5f" x="748.585341" y="36.319007" style="fill: #d62728; stroke: #ffffff; stroke-width: 0.75; stroke-linejoin: miter"/>
     <use xlink:href="#ma14bd84e5f" x="749.754677" y="36.319007" style="fill: #d62728; stroke: #ffffff; stroke-width: 0.75; stroke-linejoin: miter"/>
     <use xlink:href="#ma14bd84e5f" x="750.899901" y="36.319007" style="fill: #d62728; stroke: #ffffff; stroke-width: 0.75; stroke-linejoin: miter"/>
     <use xlink:href="#ma14bd84e5f" x="752.021987" y="36.319007" style="fill: #d62728; stroke: #ffffff; stroke-width: 0.75; stroke-linejoin: miter"/>
     <use xlink:href="#ma14bd84e5f" x="753.121852" y="36.319007" style="fill: #d62728; stroke: #ffffff; stroke-width: 0.75; stroke-linejoin: miter"/>
     <use xlink:href="#ma14bd84e5f" x="754.20036" y="36.319007" style="fill: #d62728; stroke: #ffffff; stroke-width: 0.75; stroke-linejoin: miter"/>
     <use xlink:href="#ma14bd84e5f" x="755.258323" y="36.319007" style="fill: #d62728; stroke: #ffffff; stroke-width: 0.75; stroke-linejoin: miter"/>
     <use xlink:href="#ma14bd84e5f" x="756.29651" y="36.319007" style="fill: #d62728; stroke: #ffffff; stroke-width: 0.75; stroke-linejoin: miter"/>
     <use xlink:href="#ma14bd84e5f" x="757.315646" y="36.319007" style="fill: #d62728; stroke: #ffffff; stroke-width: 0.75; stroke-linejoin: miter"/>
     <use xlink:href="#ma14bd84e5f" x="758.316419" y="36.319007" style="fill: #d62728; stroke: #ffffff; stroke-width: 0.75; stroke-linejoin: miter"/>
     <use xlink:href="#ma14bd84e5f" x="759.299478" y="36.319007" style="fill: #d62728; stroke: #ffffff; stroke-width: 0.75; stroke-linejoin: miter"/>
     <use xlink:href="#ma14bd84e5f" x="760.265439" y="36.319007" style="fill: #d62728; stroke: #ffffff; stroke-width: 0.75; stroke-linejoin: miter"/>
     <use xlink:href="#ma14bd84e5f" x="761.214888" y="36.080897" style="fill: #d62728; stroke: #ffffff; stroke-width: 0.75; stroke-linejoin: miter"/>
     <use xlink:href="#ma14bd84e5f" x="762.148379" y="36.080897" style="fill: #d62728; stroke: #ffffff; stroke-width: 0.75; stroke-linejoin: miter"/>
     <use xlink:href="#ma14bd84e5f" x="763.066439" y="36.080897" style="fill: #d62728; stroke: #ffffff; stroke-width: 0.75; stroke-linejoin: miter"/>
     <use xlink:href="#ma14bd84e5f" x="763.969571" y="36.080897" style="fill: #d62728; stroke: #ffffff; stroke-width: 0.75; stroke-linejoin: miter"/>
     <use xlink:href="#ma14bd84e5f" x="764.858252" y="36.080897" style="fill: #d62728; stroke: #ffffff; stroke-width: 0.75; stroke-linejoin: miter"/>
    </g>
   </g>
   <g id="line2d_20">
    <path d="M 53.328125 276.334125 
L 534.742815 53.462944 
L 573.241169 49.17696 
L 595.761262 46.795857 
L 611.739523 40.604991 
L 624.133224 39.65255 
L 634.259616 39.65255 
L 642.821358 39.17633 
L 650.237876 39.17633 
L 656.779709 38.700109 
L 662.631578 38.700109 
L 667.925237 38.700109 
L 672.75797 38.700109 
L 677.203652 38.700109 
L 681.319712 38.700109 
L 685.151671 38.700109 
L 688.73623 38.223889 
L 692.103405 38.223889 
L 695.278063 38.223889 
L 698.281031 38.223889 
L 701.129932 38.223889 
L 703.839805 38.223889 
L 706.423591 38.223889 
L 708.892503 38.223889 
L 711.256323 38.223889 
L 713.523633 38.223889 
L 715.702006 38.223889 
L 717.798156 37.747668 
L 719.818065 37.747668 
L 721.767086 37.271448 
L 723.650025 37.271448 
L 725.471217 37.271448 
L 727.234584 37.271448 
L 728.943684 37.271448 
L 730.601759 37.271448 
L 732.211767 37.271448 
L 733.776416 37.271448 
L 735.298193 37.271448 
L 736.779385 37.271448 
L 738.222099 37.271448 
L 739.628285 37.271448 
L 740.999747 36.795227 
L 742.338159 36.319007 
L 743.645075 35.842786 
L 744.921945 35.842786 
L 746.170118 35.842786 
L 747.390857 35.842786 
L 748.585341 35.842786 
L 749.754677 35.842786 
L 750.899901 35.842786 
L 752.021987 35.842786 
L 753.121852 35.842786 
L 754.20036 35.842786 
L 755.258323 35.842786 
L 756.29651 35.842786 
L 757.315646 35.842786 
L 758.316419 35.842786 
L 759.299478 35.842786 
L 760.265439 35.842786 
L 761.214888 35.842786 
L 762.148379 35.842786 
L 763.066439 35.842786 
L 763.969571 35.842786 
L 764.858252 35.842786 
" clip-path="url(#p80f04cccae)" style="fill: none; stroke: #c7c7c7; stroke-width: 1.5; stroke-linecap: square"/>
    <defs>
     <path id="mb56fbf9b6b" d="M -3 -0 
L 3 3 
L 3 -3 
z
" style="stroke: #ffffff; stroke-width: 0.75; stroke-linejoin: miter"/>
    </defs>
    <g clip-path="url(#p80f04cccae)">
     <use xlink:href="#mb56fbf9b6b" x="53.328125" y="276.334125" style="fill: #c7c7c7; stroke: #ffffff; stroke-width: 0.75; stroke-linejoin: miter"/>
     <use xlink:href="#mb56fbf9b6b" x="534.742815" y="53.462944" style="fill: #c7c7c7; stroke: #ffffff; stroke-width: 0.75; stroke-linejoin: miter"/>
     <use xlink:href="#mb56fbf9b6b" x="573.241169" y="49.17696" style="fill: #c7c7c7; stroke: #ffffff; stroke-width: 0.75; stroke-linejoin: miter"/>
     <use xlink:href="#mb56fbf9b6b" x="595.761262" y="46.795857" style="fill: #c7c7c7; stroke: #ffffff; stroke-width: 0.75; stroke-linejoin: miter"/>
     <use xlink:href="#mb56fbf9b6b" x="611.739523" y="40.604991" style="fill: #c7c7c7; stroke: #ffffff; stroke-width: 0.75; stroke-linejoin: miter"/>
     <use xlink:href="#mb56fbf9b6b" x="624.133224" y="39.65255" style="fill: #c7c7c7; stroke: #ffffff; stroke-width: 0.75; stroke-linejoin: miter"/>
     <use xlink:href="#mb56fbf9b6b" x="634.259616" y="39.65255" style="fill: #c7c7c7; stroke: #ffffff; stroke-width: 0.75; stroke-linejoin: miter"/>
     <use xlink:href="#mb56fbf9b6b" x="642.821358" y="39.17633" style="fill: #c7c7c7; stroke: #ffffff; stroke-width: 0.75; stroke-linejoin: miter"/>
     <use xlink:href="#mb56fbf9b6b" x="650.237876" y="39.17633" style="fill: #c7c7c7; stroke: #ffffff; stroke-width: 0.75; stroke-linejoin: miter"/>
     <use xlink:href="#mb56fbf9b6b" x="656.779709" y="38.700109" style="fill: #c7c7c7; stroke: #ffffff; stroke-width: 0.75; stroke-linejoin: miter"/>
     <use xlink:href="#mb56fbf9b6b" x="662.631578" y="38.700109" style="fill: #c7c7c7; stroke: #ffffff; stroke-width: 0.75; stroke-linejoin: miter"/>
     <use xlink:href="#mb56fbf9b6b" x="667.925237" y="38.700109" style="fill: #c7c7c7; stroke: #ffffff; stroke-width: 0.75; stroke-linejoin: miter"/>
     <use xlink:href="#mb56fbf9b6b" x="672.75797" y="38.700109" style="fill: #c7c7c7; stroke: #ffffff; stroke-width: 0.75; stroke-linejoin: miter"/>
     <use xlink:href="#mb56fbf9b6b" x="677.203652" y="38.700109" style="fill: #c7c7c7; stroke: #ffffff; stroke-width: 0.75; stroke-linejoin: miter"/>
     <use xlink:href="#mb56fbf9b6b" x="681.319712" y="38.700109" style="fill: #c7c7c7; stroke: #ffffff; stroke-width: 0.75; stroke-linejoin: miter"/>
     <use xlink:href="#mb56fbf9b6b" x="685.151671" y="38.700109" style="fill: #c7c7c7; stroke: #ffffff; stroke-width: 0.75; stroke-linejoin: miter"/>
     <use xlink:href="#mb56fbf9b6b" x="688.73623" y="38.223889" style="fill: #c7c7c7; stroke: #ffffff; stroke-width: 0.75; stroke-linejoin: miter"/>
     <use xlink:href="#mb56fbf9b6b" x="692.103405" y="38.223889" style="fill: #c7c7c7; stroke: #ffffff; stroke-width: 0.75; stroke-linejoin: miter"/>
     <use xlink:href="#mb56fbf9b6b" x="695.278063" y="38.223889" style="fill: #c7c7c7; stroke: #ffffff; stroke-width: 0.75; stroke-linejoin: miter"/>
     <use xlink:href="#mb56fbf9b6b" x="698.281031" y="38.223889" style="fill: #c7c7c7; stroke: #ffffff; stroke-width: 0.75; stroke-linejoin: miter"/>
     <use xlink:href="#mb56fbf9b6b" x="701.129932" y="38.223889" style="fill: #c7c7c7; stroke: #ffffff; stroke-width: 0.75; stroke-linejoin: miter"/>
     <use xlink:href="#mb56fbf9b6b" x="703.839805" y="38.223889" style="fill: #c7c7c7; stroke: #ffffff; stroke-width: 0.75; stroke-linejoin: miter"/>
     <use xlink:href="#mb56fbf9b6b" x="706.423591" y="38.223889" style="fill: #c7c7c7; stroke: #ffffff; stroke-width: 0.75; stroke-linejoin: miter"/>
     <use xlink:href="#mb56fbf9b6b" x="708.892503" y="38.223889" style="fill: #c7c7c7; stroke: #ffffff; stroke-width: 0.75; stroke-linejoin: miter"/>
     <use xlink:href="#mb56fbf9b6b" x="711.256323" y="38.223889" style="fill: #c7c7c7; stroke: #ffffff; stroke-width: 0.75; stroke-linejoin: miter"/>
     <use xlink:href="#mb56fbf9b6b" x="713.523633" y="38.223889" style="fill: #c7c7c7; stroke: #ffffff; stroke-width: 0.75; stroke-linejoin: miter"/>
     <use xlink:href="#mb56fbf9b6b" x="715.702006" y="38.223889" style="fill: #c7c7c7; stroke: #ffffff; stroke-width: 0.75; stroke-linejoin: miter"/>
     <use xlink:href="#mb56fbf9b6b" x="717.798156" y="37.747668" style="fill: #c7c7c7; stroke: #ffffff; stroke-width: 0.75; stroke-linejoin: miter"/>
     <use xlink:href="#mb56fbf9b6b" x="719.818065" y="37.747668" style="fill: #c7c7c7; stroke: #ffffff; stroke-width: 0.75; stroke-linejoin: miter"/>
     <use xlink:href="#mb56fbf9b6b" x="721.767086" y="37.271448" style="fill: #c7c7c7; stroke: #ffffff; stroke-width: 0.75; stroke-linejoin: miter"/>
     <use xlink:href="#mb56fbf9b6b" x="723.650025" y="37.271448" style="fill: #c7c7c7; stroke: #ffffff; stroke-width: 0.75; stroke-linejoin: miter"/>
     <use xlink:href="#mb56fbf9b6b" x="725.471217" y="37.271448" style="fill: #c7c7c7; stroke: #ffffff; stroke-width: 0.75; stroke-linejoin: miter"/>
     <use xlink:href="#mb56fbf9b6b" x="727.234584" y="37.271448" style="fill: #c7c7c7; stroke: #ffffff; stroke-width: 0.75; stroke-linejoin: miter"/>
     <use xlink:href="#mb56fbf9b6b" x="728.943684" y="37.271448" style="fill: #c7c7c7; stroke: #ffffff; stroke-width: 0.75; stroke-linejoin: miter"/>
     <use xlink:href="#mb56fbf9b6b" x="730.601759" y="37.271448" style="fill: #c7c7c7; stroke: #ffffff; stroke-width: 0.75; stroke-linejoin: miter"/>
     <use xlink:href="#mb56fbf9b6b" x="732.211767" y="37.271448" style="fill: #c7c7c7; stroke: #ffffff; stroke-width: 0.75; stroke-linejoin: miter"/>
     <use xlink:href="#mb56fbf9b6b" x="733.776416" y="37.271448" style="fill: #c7c7c7; stroke: #ffffff; stroke-width: 0.75; stroke-linejoin: miter"/>
     <use xlink:href="#mb56fbf9b6b" x="735.298193" y="37.271448" style="fill: #c7c7c7; stroke: #ffffff; stroke-width: 0.75; stroke-linejoin: miter"/>
     <use xlink:href="#mb56fbf9b6b" x="736.779385" y="37.271448" style="fill: #c7c7c7; stroke: #ffffff; stroke-width: 0.75; stroke-linejoin: miter"/>
     <use xlink:href="#mb56fbf9b6b" x="738.222099" y="37.271448" style="fill: #c7c7c7; stroke: #ffffff; stroke-width: 0.75; stroke-linejoin: miter"/>
     <use xlink:href="#mb56fbf9b6b" x="739.628285" y="37.271448" style="fill: #c7c7c7; stroke: #ffffff; stroke-width: 0.75; stroke-linejoin: miter"/>
     <use xlink:href="#mb56fbf9b6b" x="740.999747" y="36.795227" style="fill: #c7c7c7; stroke: #ffffff; stroke-width: 0.75; stroke-linejoin: miter"/>
     <use xlink:href="#mb56fbf9b6b" x="742.338159" y="36.319007" style="fill: #c7c7c7; stroke: #ffffff; stroke-width: 0.75; stroke-linejoin: miter"/>
     <use xlink:href="#mb56fbf9b6b" x="743.645075" y="35.842786" style="fill: #c7c7c7; stroke: #ffffff; stroke-width: 0.75; stroke-linejoin: miter"/>
     <use xlink:href="#mb56fbf9b6b" x="744.921945" y="35.842786" style="fill: #c7c7c7; stroke: #ffffff; stroke-width: 0.75; stroke-linejoin: miter"/>
     <use xlink:href="#mb56fbf9b6b" x="746.170118" y="35.842786" style="fill: #c7c7c7; stroke: #ffffff; stroke-width: 0.75; stroke-linejoin: miter"/>
     <use xlink:href="#mb56fbf9b6b" x="747.390857" y="35.842786" style="fill: #c7c7c7; stroke: #ffffff; stroke-width: 0.75; stroke-linejoin: miter"/>
     <use xlink:href="#mb56fbf9b6b" x="748.585341" y="35.842786" style="fill: #c7c7c7; stroke: #ffffff; stroke-width: 0.75; stroke-linejoin: miter"/>
     <use xlink:href="#mb56fbf9b6b" x="749.754677" y="35.842786" style="fill: #c7c7c7; stroke: #ffffff; stroke-width: 0.75; stroke-linejoin: miter"/>
     <use xlink:href="#mb56fbf9b6b" x="750.899901" y="35.842786" style="fill: #c7c7c7; stroke: #ffffff; stroke-width: 0.75; stroke-linejoin: miter"/>
     <use xlink:href="#mb56fbf9b6b" x="752.021987" y="35.842786" style="fill: #c7c7c7; stroke: #ffffff; stroke-width: 0.75; stroke-linejoin: miter"/>
     <use xlink:href="#mb56fbf9b6b" x="753.121852" y="35.842786" style="fill: #c7c7c7; stroke: #ffffff; stroke-width: 0.75; stroke-linejoin: miter"/>
     <use xlink:href="#mb56fbf9b6b" x="754.20036" y="35.842786" style="fill: #c7c7c7; stroke: #ffffff; stroke-width: 0.75; stroke-linejoin: miter"/>
     <use xlink:href="#mb56fbf9b6b" x="755.258323" y="35.842786" style="fill: #c7c7c7; stroke: #ffffff; stroke-width: 0.75; stroke-linejoin: miter"/>
     <use xlink:href="#mb56fbf9b6b" x="756.29651" y="35.842786" style="fill: #c7c7c7; stroke: #ffffff; stroke-width: 0.75; stroke-linejoin: miter"/>
     <use xlink:href="#mb56fbf9b6b" x="757.315646" y="35.842786" style="fill: #c7c7c7; stroke: #ffffff; stroke-width: 0.75; stroke-linejoin: miter"/>
     <use xlink:href="#mb56fbf9b6b" x="758.316419" y="35.842786" style="fill: #c7c7c7; stroke: #ffffff; stroke-width: 0.75; stroke-linejoin: miter"/>
     <use xlink:href="#mb56fbf9b6b" x="759.299478" y="35.842786" style="fill: #c7c7c7; stroke: #ffffff; stroke-width: 0.75; stroke-linejoin: miter"/>
     <use xlink:href="#mb56fbf9b6b" x="760.265439" y="35.842786" style="fill: #c7c7c7; stroke: #ffffff; stroke-width: 0.75; stroke-linejoin: miter"/>
     <use xlink:href="#mb56fbf9b6b" x="761.214888" y="35.842786" style="fill: #c7c7c7; stroke: #ffffff; stroke-width: 0.75; stroke-linejoin: miter"/>
     <use xlink:href="#mb56fbf9b6b" x="762.148379" y="35.842786" style="fill: #c7c7c7; stroke: #ffffff; stroke-width: 0.75; stroke-linejoin: miter"/>
     <use xlink:href="#mb56fbf9b6b" x="763.066439" y="35.842786" style="fill: #c7c7c7; stroke: #ffffff; stroke-width: 0.75; stroke-linejoin: miter"/>
     <use xlink:href="#mb56fbf9b6b" x="763.969571" y="35.842786" style="fill: #c7c7c7; stroke: #ffffff; stroke-width: 0.75; stroke-linejoin: miter"/>
     <use xlink:href="#mb56fbf9b6b" x="764.858252" y="35.842786" style="fill: #c7c7c7; stroke: #ffffff; stroke-width: 0.75; stroke-linejoin: miter"/>
    </g>
   </g>
   <g id="line2d_21">
    <path d="M 53.328125 276.334125 
L 534.742815 48.700739 
L 573.241169 44.652865 
L 595.761262 43.224204 
L 611.739523 42.747983 
L 624.133224 41.795542 
L 634.259616 41.081212 
L 642.821358 40.843101 
L 650.237876 40.843101 
L 656.779709 39.17633 
L 662.631578 39.17633 
L 667.925237 39.17633 
L 672.75797 38.700109 
L 677.203652 38.700109 
L 681.319712 38.700109 
L 685.151671 38.461999 
L 688.73623 37.985779 
L 692.103405 37.747668 
L 695.278063 37.747668 
L 698.281031 37.747668 
L 701.129932 37.747668 
L 703.839805 37.747668 
L 706.423591 37.747668 
L 708.892503 37.747668 
L 711.256323 37.747668 
L 713.523633 37.747668 
L 715.702006 37.747668 
L 717.798156 37.747668 
L 719.818065 37.747668 
L 721.767086 37.509558 
L 723.650025 37.509558 
L 725.471217 37.509558 
L 727.234584 37.509558 
L 728.943684 37.509558 
L 730.601759 37.509558 
L 732.211767 37.509558 
L 733.776416 37.509558 
L 735.298193 37.509558 
L 736.779385 37.509558 
L 738.222099 37.509558 
L 739.628285 37.509558 
L 740.999747 37.509558 
L 742.338159 37.509558 
L 743.645075 37.509558 
L 744.921945 37.271448 
L 746.170118 37.271448 
L 747.390857 37.271448 
L 748.585341 37.271448 
L 749.754677 37.271448 
L 750.899901 37.271448 
L 752.021987 37.271448 
L 753.121852 37.271448 
L 754.20036 37.271448 
L 755.258323 37.271448 
L 756.29651 37.033338 
L 757.315646 36.795227 
L 758.316419 36.795227 
L 759.299478 36.795227 
L 760.265439 36.795227 
L 761.214888 36.557117 
L 762.148379 36.557117 
L 763.066439 36.557117 
L 763.969571 36.557117 
L 764.858252 36.557117 
" clip-path="url(#p80f04cccae)" style="fill: none; stroke: #98df8a; stroke-width: 1.5; stroke-linecap: square"/>
    <defs>
     <path id="m177508d80a" d="M -0 3 
L 3 -3 
L -3 -3 
z
" style="stroke: #ffffff; stroke-width: 0.75; stroke-linejoin: miter"/>
    </defs>
    <g clip-path="url(#p80f04cccae)">
     <use xlink:href="#m177508d80a" x="53.328125" y="276.334125" style="fill: #98df8a; stroke: #ffffff; stroke-width: 0.75; stroke-linejoin: miter"/>
     <use xlink:href="#m177508d80a" x="534.742815" y="48.700739" style="fill: #98df8a; stroke: #ffffff; stroke-width: 0.75; stroke-linejoin: miter"/>
     <use xlink:href="#m177508d80a" x="573.241169" y="44.652865" style="fill: #98df8a; stroke: #ffffff; stroke-width: 0.75; stroke-linejoin: miter"/>
     <use xlink:href="#m177508d80a" x="595.761262" y="43.224204" style="fill: #98df8a; stroke: #ffffff; stroke-width: 0.75; stroke-linejoin: miter"/>
     <use xlink:href="#m177508d80a" x="611.739523" y="42.747983" style="fill: #98df8a; stroke: #ffffff; stroke-width: 0.75; stroke-linejoin: miter"/>
     <use xlink:href="#m177508d80a" x="624.133224" y="41.795542" style="fill: #98df8a; stroke: #ffffff; stroke-width: 0.75; stroke-linejoin: miter"/>
     <use xlink:href="#m177508d80a" x="634.259616" y="41.081212" style="fill: #98df8a; stroke: #ffffff; stroke-width: 0.75; stroke-linejoin: miter"/>
     <use xlink:href="#m177508d80a" x="642.821358" y="40.843101" style="fill: #98df8a; stroke: #ffffff; stroke-width: 0.75; stroke-linejoin: miter"/>
     <use xlink:href="#m177508d80a" x="650.237876" y="40.843101" style="fill: #98df8a; stroke: #ffffff; stroke-width: 0.75; stroke-linejoin: miter"/>
     <use xlink:href="#m177508d80a" x="656.779709" y="39.17633" style="fill: #98df8a; stroke: #ffffff; stroke-width: 0.75; stroke-linejoin: miter"/>
     <use xlink:href="#m177508d80a" x="662.631578" y="39.17633" style="fill: #98df8a; stroke: #ffffff; stroke-width: 0.75; stroke-linejoin: miter"/>
     <use xlink:href="#m177508d80a" x="667.925237" y="39.17633" style="fill: #98df8a; stroke: #ffffff; stroke-width: 0.75; stroke-linejoin: miter"/>
     <use xlink:href="#m177508d80a" x="672.75797" y="38.700109" style="fill: #98df8a; stroke: #ffffff; stroke-width: 0.75; stroke-linejoin: miter"/>
     <use xlink:href="#m177508d80a" x="677.203652" y="38.700109" style="fill: #98df8a; stroke: #ffffff; stroke-width: 0.75; stroke-linejoin: miter"/>
     <use xlink:href="#m177508d80a" x="681.319712" y="38.700109" style="fill: #98df8a; stroke: #ffffff; stroke-width: 0.75; stroke-linejoin: miter"/>
     <use xlink:href="#m177508d80a" x="685.151671" y="38.461999" style="fill: #98df8a; stroke: #ffffff; stroke-width: 0.75; stroke-linejoin: miter"/>
     <use xlink:href="#m177508d80a" x="688.73623" y="37.985779" style="fill: #98df8a; stroke: #ffffff; stroke-width: 0.75; stroke-linejoin: miter"/>
     <use xlink:href="#m177508d80a" x="692.103405" y="37.747668" style="fill: #98df8a; stroke: #ffffff; stroke-width: 0.75; stroke-linejoin: miter"/>
     <use xlink:href="#m177508d80a" x="695.278063" y="37.747668" style="fill: #98df8a; stroke: #ffffff; stroke-width: 0.75; stroke-linejoin: miter"/>
     <use xlink:href="#m177508d80a" x="698.281031" y="37.747668" style="fill: #98df8a; stroke: #ffffff; stroke-width: 0.75; stroke-linejoin: miter"/>
     <use xlink:href="#m177508d80a" x="701.129932" y="37.747668" style="fill: #98df8a; stroke: #ffffff; stroke-width: 0.75; stroke-linejoin: miter"/>
     <use xlink:href="#m177508d80a" x="703.839805" y="37.747668" style="fill: #98df8a; stroke: #ffffff; stroke-width: 0.75; stroke-linejoin: miter"/>
     <use xlink:href="#m177508d80a" x="706.423591" y="37.747668" style="fill: #98df8a; stroke: #ffffff; stroke-width: 0.75; stroke-linejoin: miter"/>
     <use xlink:href="#m177508d80a" x="708.892503" y="37.747668" style="fill: #98df8a; stroke: #ffffff; stroke-width: 0.75; stroke-linejoin: miter"/>
     <use xlink:href="#m177508d80a" x="711.256323" y="37.747668" style="fill: #98df8a; stroke: #ffffff; stroke-width: 0.75; stroke-linejoin: miter"/>
     <use xlink:href="#m177508d80a" x="713.523633" y="37.747668" style="fill: #98df8a; stroke: #ffffff; stroke-width: 0.75; stroke-linejoin: miter"/>
     <use xlink:href="#m177508d80a" x="715.702006" y="37.747668" style="fill: #98df8a; stroke: #ffffff; stroke-width: 0.75; stroke-linejoin: miter"/>
     <use xlink:href="#m177508d80a" x="717.798156" y="37.747668" style="fill: #98df8a; stroke: #ffffff; stroke-width: 0.75; stroke-linejoin: miter"/>
     <use xlink:href="#m177508d80a" x="719.818065" y="37.747668" style="fill: #98df8a; stroke: #ffffff; stroke-width: 0.75; stroke-linejoin: miter"/>
     <use xlink:href="#m177508d80a" x="721.767086" y="37.509558" style="fill: #98df8a; stroke: #ffffff; stroke-width: 0.75; stroke-linejoin: miter"/>
     <use xlink:href="#m177508d80a" x="723.650025" y="37.509558" style="fill: #98df8a; stroke: #ffffff; stroke-width: 0.75; stroke-linejoin: miter"/>
     <use xlink:href="#m177508d80a" x="725.471217" y="37.509558" style="fill: #98df8a; stroke: #ffffff; stroke-width: 0.75; stroke-linejoin: miter"/>
     <use xlink:href="#m177508d80a" x="727.234584" y="37.509558" style="fill: #98df8a; stroke: #ffffff; stroke-width: 0.75; stroke-linejoin: miter"/>
     <use xlink:href="#m177508d80a" x="728.943684" y="37.509558" style="fill: #98df8a; stroke: #ffffff; stroke-width: 0.75; stroke-linejoin: miter"/>
     <use xlink:href="#m177508d80a" x="730.601759" y="37.509558" style="fill: #98df8a; stroke: #ffffff; stroke-width: 0.75; stroke-linejoin: miter"/>
     <use xlink:href="#m177508d80a" x="732.211767" y="37.509558" style="fill: #98df8a; stroke: #ffffff; stroke-width: 0.75; stroke-linejoin: miter"/>
     <use xlink:href="#m177508d80a" x="733.776416" y="37.509558" style="fill: #98df8a; stroke: #ffffff; stroke-width: 0.75; stroke-linejoin: miter"/>
     <use xlink:href="#m177508d80a" x="735.298193" y="37.509558" style="fill: #98df8a; stroke: #ffffff; stroke-width: 0.75; stroke-linejoin: miter"/>
     <use xlink:href="#m177508d80a" x="736.779385" y="37.509558" style="fill: #98df8a; stroke: #ffffff; stroke-width: 0.75; stroke-linejoin: miter"/>
     <use xlink:href="#m177508d80a" x="738.222099" y="37.509558" style="fill: #98df8a; stroke: #ffffff; stroke-width: 0.75; stroke-linejoin: miter"/>
     <use xlink:href="#m177508d80a" x="739.628285" y="37.509558" style="fill: #98df8a; stroke: #ffffff; stroke-width: 0.75; stroke-linejoin: miter"/>
     <use xlink:href="#m177508d80a" x="740.999747" y="37.509558" style="fill: #98df8a; stroke: #ffffff; stroke-width: 0.75; stroke-linejoin: miter"/>
     <use xlink:href="#m177508d80a" x="742.338159" y="37.509558" style="fill: #98df8a; stroke: #ffffff; stroke-width: 0.75; stroke-linejoin: miter"/>
     <use xlink:href="#m177508d80a" x="743.645075" y="37.509558" style="fill: #98df8a; stroke: #ffffff; stroke-width: 0.75; stroke-linejoin: miter"/>
     <use xlink:href="#m177508d80a" x="744.921945" y="37.271448" style="fill: #98df8a; stroke: #ffffff; stroke-width: 0.75; stroke-linejoin: miter"/>
     <use xlink:href="#m177508d80a" x="746.170118" y="37.271448" style="fill: #98df8a; stroke: #ffffff; stroke-width: 0.75; stroke-linejoin: miter"/>
     <use xlink:href="#m177508d80a" x="747.390857" y="37.271448" style="fill: #98df8a; stroke: #ffffff; stroke-width: 0.75; stroke-linejoin: miter"/>
     <use xlink:href="#m177508d80a" x="748.585341" y="37.271448" style="fill: #98df8a; stroke: #ffffff; stroke-width: 0.75; stroke-linejoin: miter"/>
     <use xlink:href="#m177508d80a" x="749.754677" y="37.271448" style="fill: #98df8a; stroke: #ffffff; stroke-width: 0.75; stroke-linejoin: miter"/>
     <use xlink:href="#m177508d80a" x="750.899901" y="37.271448" style="fill: #98df8a; stroke: #ffffff; stroke-width: 0.75; stroke-linejoin: miter"/>
     <use xlink:href="#m177508d80a" x="752.021987" y="37.271448" style="fill: #98df8a; stroke: #ffffff; stroke-width: 0.75; stroke-linejoin: miter"/>
     <use xlink:href="#m177508d80a" x="753.121852" y="37.271448" style="fill: #98df8a; stroke: #ffffff; stroke-width: 0.75; stroke-linejoin: miter"/>
     <use xlink:href="#m177508d80a" x="754.20036" y="37.271448" style="fill: #98df8a; stroke: #ffffff; stroke-width: 0.75; stroke-linejoin: miter"/>
     <use xlink:href="#m177508d80a" x="755.258323" y="37.271448" style="fill: #98df8a; stroke: #ffffff; stroke-width: 0.75; stroke-linejoin: miter"/>
     <use xlink:href="#m177508d80a" x="756.29651" y="37.033338" style="fill: #98df8a; stroke: #ffffff; stroke-width: 0.75; stroke-linejoin: miter"/>
     <use xlink:href="#m177508d80a" x="757.315646" y="36.795227" style="fill: #98df8a; stroke: #ffffff; stroke-width: 0.75; stroke-linejoin: miter"/>
     <use xlink:href="#m177508d80a" x="758.316419" y="36.795227" style="fill: #98df8a; stroke: #ffffff; stroke-width: 0.75; stroke-linejoin: miter"/>
     <use xlink:href="#m177508d80a" x="759.299478" y="36.795227" style="fill: #98df8a; stroke: #ffffff; stroke-width: 0.75; stroke-linejoin: miter"/>
     <use xlink:href="#m177508d80a" x="760.265439" y="36.795227" style="fill: #98df8a; stroke: #ffffff; stroke-width: 0.75; stroke-linejoin: miter"/>
     <use xlink:href="#m177508d80a" x="761.214888" y="36.557117" style="fill: #98df8a; stroke: #ffffff; stroke-width: 0.75; stroke-linejoin: miter"/>
     <use xlink:href="#m177508d80a" x="762.148379" y="36.557117" style="fill: #98df8a; stroke: #ffffff; stroke-width: 0.75; stroke-linejoin: miter"/>
     <use xlink:href="#m177508d80a" x="763.066439" y="36.557117" style="fill: #98df8a; stroke: #ffffff; stroke-width: 0.75; stroke-linejoin: miter"/>
     <use xlink:href="#m177508d80a" x="763.969571" y="36.557117" style="fill: #98df8a; stroke: #ffffff; stroke-width: 0.75; stroke-linejoin: miter"/>
     <use xlink:href="#m177508d80a" x="764.858252" y="36.557117" style="fill: #98df8a; stroke: #ffffff; stroke-width: 0.75; stroke-linejoin: miter"/>
    </g>
   </g>
   <g id="line2d_22"/>
   <g id="line2d_23"/>
   <g id="line2d_24"/>
   <g id="line2d_25"/>
   <g id="line2d_26">
    <path d="M 764.858252 288.430125 
L 764.858252 22.318125 
" clip-path="url(#p80f04cccae)" style="fill: none; stroke: #ff0000; stroke-width: 1.5; stroke-linecap: square"/>
   </g>
   <g id="patch_3">
    <path d="M 53.328125 256.809086 
L 53.328125 66.320897 
" style="fill: none; stroke: #000000; stroke-width: 0.8; stroke-linejoin: miter; stroke-linecap: square"/>
   </g>
   <g id="patch_4">
    <path d="M 53.328125 288.430125 
L 764.859231 288.430125 
" style="fill: none; stroke: #000000; stroke-width: 0.8; stroke-linejoin: miter; stroke-linecap: square"/>
   </g>
   <g id="text_16">
    <!-- vorbis_decode_fuzzer (15h:45m, at least 4 trials/fuzzer) -->
    <g transform="translate(243.045313 16.318125) scale(0.12 -0.12)">
     <defs>
      <path id="DejaVuSans-73" d="M 2834 3397 
L 2834 2853 
Q 2591 2978 2328 3040 
Q 2066 3103 1784 3103 
Q 1356 3103 1142 2972 
Q 928 2841 928 2578 
Q 928 2378 1081 2264 
Q 1234 2150 1697 2047 
L 1894 2003 
Q 2506 1872 2764 1633 
Q 3022 1394 3022 966 
Q 3022 478 2636 193 
Q 2250 -91 1575 -91 
Q 1294 -91 989 -36 
Q 684 19 347 128 
L 347 722 
Q 666 556 975 473 
Q 1284 391 1588 391 
Q 1994 391 2212 530 
Q 2431 669 2431 922 
Q 2431 1156 2273 1281 
Q 2116 1406 1581 1522 
L 1381 1569 
Q 847 1681 609 1914 
Q 372 2147 372 2553 
Q 372 3047 722 3315 
Q 1072 3584 1716 3584 
Q 2034 3584 2315 3537 
Q 2597 3491 2834 3397 
z
" transform="scale(0.015625)"/>
      <path id="DejaVuSans-5f" d="M 3263 -1063 
L 3263 -1509 
L -63 -1509 
L -63 -1063 
L 3263 -1063 
z
" transform="scale(0.015625)"/>
      <path id="DejaVuSans-66" d="M 2375 4863 
L 2375 4384 
L 1825 4384 
Q 1516 4384 1395 4259 
Q 1275 4134 1275 3809 
L 1275 3500 
L 2222 3500 
L 2222 3053 
L 1275 3053 
L 1275 0 
L 697 0 
L 697 3053 
L 147 3053 
L 147 3500 
L 697 3500 
L 697 3744 
Q 697 4328 969 4595 
Q 1241 4863 1831 4863 
L 2375 4863 
z
" transform="scale(0.015625)"/>
      <path id="DejaVuSans-7a" d="M 353 3500 
L 3084 3500 
L 3084 2975 
L 922 459 
L 3084 459 
L 3084 0 
L 275 0 
L 275 525 
L 2438 3041 
L 353 3041 
L 353 3500 
z
" transform="scale(0.015625)"/>
      <path id="DejaVuSans-2c" d="M 750 794 
L 1409 794 
L 1409 256 
L 897 -744 
L 494 -744 
L 750 256 
L 750 794 
z
" transform="scale(0.015625)"/>
      <path id="DejaVuSans-6c" d="M 603 4863 
L 1178 4863 
L 1178 0 
L 603 0 
L 603 4863 
z
" transform="scale(0.015625)"/>
      <path id="DejaVuSans-2f" d="M 1625 4666 
L 2156 4666 
L 531 -594 
L 0 -594 
L 1625 4666 
z
" transform="scale(0.015625)"/>
     </defs>
     <use xlink:href="#DejaVuSans-76"/>
     <use xlink:href="#DejaVuSans-6f" transform="translate(59.179688 0)"/>
     <use xlink:href="#DejaVuSans-72" transform="translate(120.361328 0)"/>
     <use xlink:href="#DejaVuSans-62" transform="translate(161.474609 0)"/>
     <use xlink:href="#DejaVuSans-69" transform="translate(224.951172 0)"/>
     <use xlink:href="#DejaVuSans-73" transform="translate(252.734375 0)"/>
     <use xlink:href="#DejaVuSans-5f" transform="translate(304.833984 0)"/>
     <use xlink:href="#DejaVuSans-64" transform="translate(354.833984 0)"/>
     <use xlink:href="#DejaVuSans-65" transform="translate(418.310547 0)"/>
     <use xlink:href="#DejaVuSans-63" transform="translate(479.833984 0)"/>
     <use xlink:href="#DejaVuSans-6f" transform="translate(534.814453 0)"/>
     <use xlink:href="#DejaVuSans-64" transform="translate(595.996094 0)"/>
     <use xlink:href="#DejaVuSans-65" transform="translate(659.472656 0)"/>
     <use xlink:href="#DejaVuSans-5f" transform="translate(720.996094 0)"/>
     <use xlink:href="#DejaVuSans-66" transform="translate(770.996094 0)"/>
     <use xlink:href="#DejaVuSans-75" transform="translate(806.201172 0)"/>
     <use xlink:href="#DejaVuSans-7a" transform="translate(869.580078 0)"/>
     <use xlink:href="#DejaVuSans-7a" transform="translate(922.070312 0)"/>
     <use xlink:href="#DejaVuSans-65" transform="translate(974.560547 0)"/>
     <use xlink:href="#DejaVuSans-72" transform="translate(1036.083984 0)"/>
     <use xlink:href="#DejaVuSans-20" transform="translate(1077.197266 0)"/>
     <use xlink:href="#DejaVuSans-28" transform="translate(1108.984375 0)"/>
     <use xlink:href="#DejaVuSans-31" transform="translate(1147.998047 0)"/>
     <use xlink:href="#DejaVuSans-35" transform="translate(1211.621094 0)"/>
     <use xlink:href="#DejaVuSans-68" transform="translate(1275.244141 0)"/>
     <use xlink:href="#DejaVuSans-3a" transform="translate(1338.623047 0)"/>
     <use xlink:href="#DejaVuSans-34" transform="translate(1372.314453 0)"/>
     <use xlink:href="#DejaVuSans-35" transform="translate(1435.9375 0)"/>
     <use xlink:href="#DejaVuSans-6d" transform="translate(1499.560547 0)"/>
     <use xlink:href="#DejaVuSans-2c" transform="translate(1596.972656 0)"/>
     <use xlink:href="#DejaVuSans-20" transform="translate(1628.759766 0)"/>
     <use xlink:href="#DejaVuSans-61" transform="translate(1660.546875 0)"/>
     <use xlink:href="#DejaVuSans-74" transform="translate(1721.826172 0)"/>
     <use xlink:href="#DejaVuSans-20" transform="translate(1761.035156 0)"/>
     <use xlink:href="#DejaVuSans-6c" transform="translate(1792.822266 0)"/>
     <use xlink:href="#DejaVuSans-65" transform="translate(1820.605469 0)"/>
     <use xlink:href="#DejaVuSans-61" transform="translate(1882.128906 0)"/>
     <use xlink:href="#DejaVuSans-73" transform="translate(1943.408203 0)"/>
     <use xlink:href="#DejaVuSans-74" transform="translate(1995.507812 0)"/>
     <use xlink:href="#DejaVuSans-20" transform="translate(2034.716797 0)"/>
     <use xlink:href="#DejaVuSans-34" transform="translate(2066.503906 0)"/>
     <use xlink:href="#DejaVuSans-20" transform="translate(2130.126953 0)"/>
     <use xlink:href="#DejaVuSans-74" transform="translate(2161.914062 0)"/>
     <use xlink:href="#DejaVuSans-72" transform="translate(2201.123047 0)"/>
     <use xlink:href="#DejaVuSans-69" transform="translate(2242.236328 0)"/>
     <use xlink:href="#DejaVuSans-61" transform="translate(2270.019531 0)"/>
     <use xlink:href="#DejaVuSans-6c" transform="translate(2331.298828 0)"/>
     <use xlink:href="#DejaVuSans-73" transform="translate(2359.082031 0)"/>
     <use xlink:href="#DejaVuSans-2f" transform="translate(2411.181641 0)"/>
     <use xlink:href="#DejaVuSans-66" transform="translate(2444.873047 0)"/>
     <use xlink:href="#DejaVuSans-75" transform="translate(2480.078125 0)"/>
     <use xlink:href="#DejaVuSans-7a" transform="translate(2543.457031 0)"/>
     <use xlink:href="#DejaVuSans-7a" transform="translate(2595.947266 0)"/>
     <use xlink:href="#DejaVuSans-65" transform="translate(2648.4375 0)"/>
     <use xlink:href="#DejaVuSans-72" transform="translate(2709.960938 0)"/>
     <use xlink:href="#DejaVuSans-29" transform="translate(2751.074219 0)"/>
    </g>
   </g>
   <g id="legend_1">
    <g id="line2d_27">
     <path d="M 771.568125 30.416562 
L 781.568125 30.416562 
L 791.568125 30.416562 
" style="fill: none; stroke: #1f77b4; stroke-width: 1.5; stroke-linecap: square"/>
     <g>
      <use xlink:href="#m9aa23f0f01" x="781.568125" y="30.416562" style="fill: #1f77b4; stroke: #ffffff; stroke-width: 0.75"/>
     </g>
    </g>
    <g id="text_17">
     <!-- aflplusplus_440c -->
     <g transform="translate(799.568125 33.916562) scale(0.1 -0.1)">
      <defs>
       <path id="DejaVuSans-70" d="M 1159 525 
L 1159 -1331 
L 581 -1331 
L 581 3500 
L 1159 3500 
L 1159 2969 
Q 1341 3281 1617 3432 
Q 1894 3584 2278 3584 
Q 2916 3584 3314 3078 
Q 3713 2572 3713 1747 
Q 3713 922 3314 415 
Q 2916 -91 2278 -91 
Q 1894 -91 1617 61 
Q 1341 213 1159 525 
z
M 3116 1747 
Q 3116 2381 2855 2742 
Q 2594 3103 2138 3103 
Q 1681 3103 1420 2742 
Q 1159 2381 1159 1747 
Q 1159 1113 1420 752 
Q 1681 391 2138 391 
Q 2594 391 2855 752 
Q 3116 1113 3116 1747 
z
" transform="scale(0.015625)"/>
      </defs>
      <use xlink:href="#DejaVuSans-61"/>
      <use xlink:href="#DejaVuSans-66" transform="translate(61.279297 0)"/>
      <use xlink:href="#DejaVuSans-6c" transform="translate(96.484375 0)"/>
      <use xlink:href="#DejaVuSans-70" transform="translate(124.267578 0)"/>
      <use xlink:href="#DejaVuSans-6c" transform="translate(187.744141 0)"/>
      <use xlink:href="#DejaVuSans-75" transform="translate(215.527344 0)"/>
      <use xlink:href="#DejaVuSans-73" transform="translate(278.90625 0)"/>
      <use xlink:href="#DejaVuSans-70" transform="translate(331.005859 0)"/>
      <use xlink:href="#DejaVuSans-6c" transform="translate(394.482422 0)"/>
      <use xlink:href="#DejaVuSans-75" transform="translate(422.265625 0)"/>
      <use xlink:href="#DejaVuSans-73" transform="translate(485.644531 0)"/>
      <use xlink:href="#DejaVuSans-5f" transform="translate(537.744141 0)"/>
      <use xlink:href="#DejaVuSans-34" transform="translate(587.744141 0)"/>
      <use xlink:href="#DejaVuSans-34" transform="translate(651.367188 0)"/>
      <use xlink:href="#DejaVuSans-30" transform="translate(714.990234 0)"/>
      <use xlink:href="#DejaVuSans-63" transform="translate(778.613281 0)"/>
     </g>
    </g>
    <g id="line2d_28">
     <path d="M 771.568125 45.372813 
L 781.568125 45.372813 
L 791.568125 45.372813 
" style="fill: none; stroke: #d62728; stroke-width: 1.5; stroke-linecap: square"/>
     <g>
      <use xlink:href="#ma14bd84e5f" x="781.568125" y="45.372813" style="fill: #d62728; stroke: #ffffff; stroke-width: 0.75; stroke-linejoin: miter"/>
     </g>
    </g>
    <g id="text_18">
     <!-- aflplusplus_c11 -->
     <g transform="translate(799.568125 48.872813) scale(0.1 -0.1)">
      <use xlink:href="#DejaVuSans-61"/>
      <use xlink:href="#DejaVuSans-66" transform="translate(61.279297 0)"/>
      <use xlink:href="#DejaVuSans-6c" transform="translate(96.484375 0)"/>
      <use xlink:href="#DejaVuSans-70" transform="translate(124.267578 0)"/>
      <use xlink:href="#DejaVuSans-6c" transform="translate(187.744141 0)"/>
      <use xlink:href="#DejaVuSans-75" transform="translate(215.527344 0)"/>
      <use xlink:href="#DejaVuSans-73" transform="translate(278.90625 0)"/>
      <use xlink:href="#DejaVuSans-70" transform="translate(331.005859 0)"/>
      <use xlink:href="#DejaVuSans-6c" transform="translate(394.482422 0)"/>
      <use xlink:href="#DejaVuSans-75" transform="translate(422.265625 0)"/>
      <use xlink:href="#DejaVuSans-73" transform="translate(485.644531 0)"/>
      <use xlink:href="#DejaVuSans-5f" transform="translate(537.744141 0)"/>
      <use xlink:href="#DejaVuSans-63" transform="translate(587.744141 0)"/>
      <use xlink:href="#DejaVuSans-31" transform="translate(642.724609 0)"/>
      <use xlink:href="#DejaVuSans-31" transform="translate(706.347656 0)"/>
     </g>
    </g>
    <g id="line2d_29">
     <path d="M 771.568125 60.329063 
L 781.568125 60.329063 
L 791.568125 60.329063 
" style="fill: none; stroke: #c7c7c7; stroke-width: 1.5; stroke-linecap: square"/>
     <g>
      <use xlink:href="#mb56fbf9b6b" x="781.568125" y="60.329063" style="fill: #c7c7c7; stroke: #ffffff; stroke-width: 0.75; stroke-linejoin: miter"/>
     </g>
    </g>
    <g id="text_19">
     <!-- aflplusplus_mopt -->
     <g transform="translate(799.568125 63.829063) scale(0.1 -0.1)">
      <use xlink:href="#DejaVuSans-61"/>
      <use xlink:href="#DejaVuSans-66" transform="translate(61.279297 0)"/>
      <use xlink:href="#DejaVuSans-6c" transform="translate(96.484375 0)"/>
      <use xlink:href="#DejaVuSans-70" transform="translate(124.267578 0)"/>
      <use xlink:href="#DejaVuSans-6c" transform="translate(187.744141 0)"/>
      <use xlink:href="#DejaVuSans-75" transform="translate(215.527344 0)"/>
      <use xlink:href="#DejaVuSans-73" transform="translate(278.90625 0)"/>
      <use xlink:href="#DejaVuSans-70" transform="translate(331.005859 0)"/>
      <use xlink:href="#DejaVuSans-6c" transform="translate(394.482422 0)"/>
      <use xlink:href="#DejaVuSans-75" transform="translate(422.265625 0)"/>
      <use xlink:href="#DejaVuSans-73" transform="translate(485.644531 0)"/>
      <use xlink:href="#DejaVuSans-5f" transform="translate(537.744141 0)"/>
      <use xlink:href="#DejaVuSans-6d" transform="translate(587.744141 0)"/>
      <use xlink:href="#DejaVuSans-6f" transform="translate(685.15625 0)"/>
      <use xlink:href="#DejaVuSans-70" transform="translate(746.337891 0)"/>
      <use xlink:href="#DejaVuSans-74" transform="translate(809.814453 0)"/>
     </g>
    </g>
    <g id="line2d_30">
     <path d="M 771.568125 75.285313 
L 781.568125 75.285313 
L 791.568125 75.285313 
" style="fill: none; stroke: #98df8a; stroke-width: 1.5; stroke-linecap: square"/>
     <g>
      <use xlink:href="#m177508d80a" x="781.568125" y="75.285313" style="fill: #98df8a; stroke: #ffffff; stroke-width: 0.75; stroke-linejoin: miter"/>
     </g>
    </g>
    <g id="text_20">
     <!-- aflplusplus_500c -->
     <g transform="translate(799.568125 78.785313) scale(0.1 -0.1)">
      <use xlink:href="#DejaVuSans-61"/>
      <use xlink:href="#DejaVuSans-66" transform="translate(61.279297 0)"/>
      <use xlink:href="#DejaVuSans-6c" transform="translate(96.484375 0)"/>
      <use xlink:href="#DejaVuSans-70" transform="translate(124.267578 0)"/>
      <use xlink:href="#DejaVuSans-6c" transform="translate(187.744141 0)"/>
      <use xlink:href="#DejaVuSans-75" transform="translate(215.527344 0)"/>
      <use xlink:href="#DejaVuSans-73" transform="translate(278.90625 0)"/>
      <use xlink:href="#DejaVuSans-70" transform="translate(331.005859 0)"/>
      <use xlink:href="#DejaVuSans-6c" transform="translate(394.482422 0)"/>
      <use xlink:href="#DejaVuSans-75" transform="translate(422.265625 0)"/>
      <use xlink:href="#DejaVuSans-73" transform="translate(485.644531 0)"/>
      <use xlink:href="#DejaVuSans-5f" transform="translate(537.744141 0)"/>
      <use xlink:href="#DejaVuSans-35" transform="translate(587.744141 0)"/>
      <use xlink:href="#DejaVuSans-30" transform="translate(651.367188 0)"/>
      <use xlink:href="#DejaVuSans-30" transform="translate(714.990234 0)"/>
      <use xlink:href="#DejaVuSans-63" transform="translate(778.613281 0)"/>
     </g>
    </g>
   </g>
  </g>
 </g>
 <defs>
  <clipPath id="p80f04cccae">
   <rect x="53.328125" y="22.318125" width="714.24" height="266.112"/>
  </clipPath>
 </defs>
</svg>
