<?xml version="1.0" encoding="utf-8" standalone="no"?>
<!DOCTYPE svg PUBLIC "-//W3C//DTD SVG 1.1//EN"
  "http://www.w3.org/Graphics/SVG/1.1/DTD/svg11.dtd">
<svg xmlns:xlink="http://www.w3.org/1999/xlink" width="895.669687pt" height="325.986375pt" viewBox="0 0 895.669687 325.986375" xmlns="http://www.w3.org/2000/svg" version="1.1">
 <metadata>
  <rdf:RDF xmlns:dc="http://purl.org/dc/elements/1.1/" xmlns:cc="http://creativecommons.org/ns#" xmlns:rdf="http://www.w3.org/1999/02/22-rdf-syntax-ns#">
   <cc:Work>
    <dc:type rdf:resource="http://purl.org/dc/dcmitype/StillImage"/>
    <dc:date>2026-06-10T05:17:13.075588</dc:date>
    <dc:format>image/svg+xml</dc:format>
    <dc:creator>
     <cc:Agent>
      <dc:title>Matplotlib v3.10.9, https://matplotlib.org/</dc:title>
     </cc:Agent>
    </dc:creator>
   </cc:Work>
  </rdf:RDF>
 </metadata>
 <defs>
  <style type="text/css">*{stroke-linejoin: round; stroke-linecap: butt}</style>
 </defs>
 <g id="figure_1">
  <g id="patch_1">
   <path d="M 0 325.986375 
L 895.669688 325.986375 
L 895.669688 0 
L 0 0 
z
" style="fill: #ffffff"/>
  </g>
  <g id="axes_1">
   <g id="patch_2">
    <path d="M 53.328125 288.430125 
L 767.568125 288.430125 
L 767.568125 22.318125 
L 53.328125 22.318125 
z
" style="fill: #ffffff"/>
   </g>
   <g id="FillBetweenPolyCollection_1">
    <defs>
     <path id="m6ad15730eb" d="M 53.328125 -49.65225 
L 53.328125 -49.65225 
L 65.92495 -198.569323 
L 78.521776 -211.494201 
L 91.118601 -221.047372 
L 103.715427 -228.352738 
L 116.312252 -230.038591 
L 128.909077 -249.144933 
L 141.505903 -251.954689 
L 154.102728 -253.640543 
L 166.699554 -254.764445 
L 179.296379 -254.764445 
L 191.893204 -256.450299 
L 204.49003 -258.698104 
L 217.086855 -258.698104 
L 229.683681 -258.698104 
L 242.280506 -258.698104 
L 254.877331 -258.698104 
L 267.474157 -259.260055 
L 280.070982 -259.260055 
L 292.667808 -259.260055 
L 305.264633 -259.260055 
L 317.861458 -259.260055 
L 330.458284 -259.260055 
L 343.055109 -259.260055 
L 355.651935 -259.260055 
L 368.24876 -259.260055 
L 380.845585 -259.260055 
L 393.442411 -259.260055 
L 406.039236 -259.260055 
L 418.636062 -259.260055 
L 431.232887 -259.260055 
L 443.829712 -259.260055 
L 456.426538 -259.260055 
L 469.023363 -259.260055 
L 481.620188 -263.193713 
L 494.217014 -263.193713 
L 506.813839 -263.755665 
L 519.410665 -263.755665 
L 532.00749 -264.317616 
L 544.604315 -264.317616 
L 557.201141 -264.317616 
L 569.797966 -264.317616 
L 582.394792 -264.317616 
L 594.991617 -264.317616 
L 607.588442 -264.317616 
L 620.185268 -264.317616 
L 632.782093 -264.317616 
L 645.378919 -264.317616 
L 657.975744 -264.317616 
L 670.572569 -264.317616 
L 683.169395 -264.317616 
L 695.76622 -267.127372 
L 708.363046 -267.127372 
L 720.959871 -267.127372 
L 733.556696 -267.127372 
L 733.556696 -290.729323 
L 733.556696 -290.729323 
L 720.959871 -289.04347 
L 708.363046 -289.04347 
L 695.76622 -288.481518 
L 683.169395 -287.919567 
L 670.572569 -287.919567 
L 657.975744 -287.919567 
L 645.378919 -287.919567 
L 632.782093 -287.919567 
L 620.185268 -287.919567 
L 607.588442 -287.919567 
L 594.991617 -287.919567 
L 582.394792 -286.795665 
L 569.797966 -286.795665 
L 557.201141 -285.671762 
L 544.604315 -285.671762 
L 532.00749 -285.671762 
L 519.410665 -285.671762 
L 506.813839 -285.671762 
L 494.217014 -285.671762 
L 481.620188 -285.671762 
L 469.023363 -285.671762 
L 456.426538 -285.109811 
L 443.829712 -285.109811 
L 431.232887 -285.109811 
L 418.636062 -283.985909 
L 406.039236 -283.985909 
L 393.442411 -283.985909 
L 380.845585 -283.985909 
L 368.24876 -283.985909 
L 355.651935 -283.985909 
L 343.055109 -283.985909 
L 330.458284 -283.985909 
L 317.861458 -283.985909 
L 305.264633 -283.985909 
L 292.667808 -283.985909 
L 280.070982 -283.985909 
L 267.474157 -282.300055 
L 254.877331 -282.300055 
L 242.280506 -282.300055 
L 229.683681 -280.614201 
L 217.086855 -280.05225 
L 204.49003 -279.490299 
L 191.893204 -278.928348 
L 179.296379 -278.928348 
L 166.699554 -277.242494 
L 154.102728 -276.118591 
L 141.505903 -275.55664 
L 128.909077 -275.55664 
L 116.312252 -275.55664 
L 103.715427 -275.55664 
L 91.118601 -265.441518 
L 78.521776 -257.574201 
L 65.92495 -235.658104 
L 53.328125 -49.65225 
z
" style="stroke: #1f77b4; stroke-opacity: 0.2"/>
    </defs>
    <g clip-path="url(#pd7075685f8)">
     <use xlink:href="#m6ad15730eb" x="0" y="325.986375" style="fill: #1f77b4; fill-opacity: 0.2; stroke: #1f77b4; stroke-opacity: 0.2"/>
    </g>
   </g>
   <g id="FillBetweenPolyCollection_2">
    <defs>
     <path id="md8dc131eeb" d="M 53.328125 -49.65225 
L 53.328125 -49.65225 
L 65.92495 -187.89225 
L 78.521776 -208.965421 
L 91.118601 -218.799567 
L 103.715427 -218.799567 
L 116.312252 -222.171274 
L 128.909077 -236.782006 
L 141.505903 -238.186884 
L 154.102728 -238.186884 
L 166.699554 -238.46786 
L 179.296379 -242.120543 
L 191.893204 -244.087372 
L 204.49003 -244.087372 
L 217.086855 -244.087372 
L 229.683681 -244.368348 
L 242.280506 -244.368348 
L 254.877331 -245.49225 
L 267.474157 -245.49225 
L 280.070982 -245.773226 
L 292.667808 -246.054201 
L 305.264633 -246.335177 
L 317.861458 -246.335177 
L 330.458284 -246.335177 
L 343.055109 -246.335177 
L 355.651935 -246.335177 
L 368.24876 -246.897128 
L 380.845585 -246.897128 
L 393.442411 -247.740055 
L 406.039236 -247.740055 
L 418.636062 -247.740055 
L 431.232887 -247.740055 
L 443.829712 -247.740055 
L 456.426538 -247.740055 
L 469.023363 -247.740055 
L 481.620188 -247.740055 
L 494.217014 -248.302006 
L 506.813839 -248.302006 
L 519.410665 -248.302006 
L 532.00749 -248.302006 
L 544.604315 -248.582982 
L 557.201141 -248.582982 
L 569.797966 -248.582982 
L 582.394792 -248.582982 
L 594.991617 -248.582982 
L 607.588442 -248.582982 
L 620.185268 -248.582982 
L 632.782093 -256.169323 
L 645.378919 -249.98786 
L 657.975744 -249.98786 
L 670.572569 -249.98786 
L 683.169395 -249.98786 
L 695.76622 -249.98786 
L 708.363046 -249.98786 
L 720.959871 -256.169323 
L 733.556696 -249.98786 
L 733.556696 -291.57225 
L 733.556696 -291.57225 
L 720.959871 -291.57225 
L 708.363046 -291.57225 
L 695.76622 -290.202494 
L 683.169395 -291.57225 
L 670.572569 -290.167372 
L 657.975744 -291.57225 
L 645.378919 -291.57225 
L 632.782093 -291.57225 
L 620.185268 -291.57225 
L 607.588442 -291.57225 
L 594.991617 -291.010299 
L 582.394792 -290.167372 
L 569.797966 -290.167372 
L 557.201141 -289.324445 
L 544.604315 -288.481518 
L 532.00749 -287.07664 
L 519.410665 -287.07664 
L 506.813839 -286.514689 
L 494.217014 -285.671762 
L 481.620188 -284.54786 
L 469.023363 -281.457128 
L 456.426538 -281.457128 
L 443.829712 -281.457128 
L 431.232887 -281.457128 
L 418.636062 -281.457128 
L 406.039236 -281.457128 
L 393.442411 -281.457128 
L 380.845585 -280.614201 
L 368.24876 -280.05225 
L 355.651935 -280.05225 
L 343.055109 -278.085421 
L 330.458284 -278.085421 
L 317.861458 -278.085421 
L 305.264633 -278.085421 
L 292.667808 -278.085421 
L 280.070982 -278.085421 
L 267.474157 -275.598787 
L 254.877331 -277.242494 
L 242.280506 -276.680543 
L 229.683681 -276.680543 
L 217.086855 -276.680543 
L 204.49003 -275.570689 
L 191.893204 -276.118591 
L 179.296379 -275.55664 
L 166.699554 -275.55664 
L 154.102728 -274.432738 
L 141.505903 -273.589811 
L 128.909077 -266.565421 
L 116.312252 -266.565421 
L 103.715427 -264.317616 
L 91.118601 -248.02103 
L 78.521776 -232.286396 
L 65.92495 -221.609323 
L 53.328125 -49.65225 
z
" style="stroke: #d62728; stroke-opacity: 0.2"/>
    </defs>
    <g clip-path="url(#pd7075685f8)">
     <use xlink:href="#md8dc131eeb" x="0" y="325.986375" style="fill: #d62728; fill-opacity: 0.2; stroke: #d62728; stroke-opacity: 0.2"/>
    </g>
   </g>
   <g id="FillBetweenPolyCollection_3">
    <defs>
     <path id="m8650bb407f" d="M 53.328125 -49.65225 
L 53.328125 -49.65225 
L 65.92495 -161.480543 
L 78.521776 -202.502982 
L 91.118601 -212.337128 
L 103.715427 -218.518591 
L 116.312252 -230.600543 
L 128.909077 -231.162494 
L 141.505903 -231.162494 
L 154.102728 -231.44347 
L 166.699554 -231.44347 
L 179.296379 -231.44347 
L 191.893204 -233.691274 
L 204.49003 -233.691274 
L 217.086855 -233.691274 
L 229.683681 -235.096152 
L 242.280506 -235.096152 
L 254.877331 -235.096152 
L 267.474157 -235.096152 
L 280.070982 -235.096152 
L 292.667808 -235.096152 
L 305.264633 -235.096152 
L 317.861458 -235.096152 
L 330.458284 -235.096152 
L 343.055109 -235.096152 
L 355.651935 -235.096152 
L 368.24876 -235.096152 
L 380.845585 -235.096152 
L 393.442411 -235.096152 
L 406.039236 -235.096152 
L 418.636062 -238.748835 
L 431.232887 -239.310787 
L 443.829712 -239.310787 
L 456.426538 -239.310787 
L 469.023363 -239.310787 
L 481.620188 -239.591762 
L 494.217014 -239.591762 
L 506.813839 -242.120543 
L 519.410665 -242.401518 
L 532.00749 -246.054201 
L 544.604315 -247.459079 
L 557.201141 -259.822006 
L 569.797966 -259.822006 
L 582.394792 -261.50786 
L 594.991617 -259.822006 
L 607.588442 -259.822006 
L 620.185268 -259.822006 
L 632.782093 -259.822006 
L 645.378919 -259.822006 
L 657.975744 -259.822006 
L 670.572569 -261.465713 
L 683.169395 -259.822006 
L 695.76622 -259.822006 
L 708.363046 -259.822006 
L 720.959871 -259.822006 
L 733.556696 -259.822006 
L 733.556696 -280.614201 
L 733.556696 -280.614201 
L 720.959871 -280.614201 
L 708.363046 -280.066299 
L 695.76622 -280.614201 
L 683.169395 -280.614201 
L 670.572569 -279.771274 
L 657.975744 -279.771274 
L 645.378919 -279.490299 
L 632.782093 -279.771274 
L 620.185268 -279.497323 
L 607.588442 -279.771274 
L 594.991617 -279.771274 
L 582.394792 -279.771274 
L 569.797966 -279.771274 
L 557.201141 -279.490299 
L 544.604315 -279.209323 
L 532.00749 -279.209323 
L 519.410665 -279.209323 
L 506.813839 -279.209323 
L 494.217014 -279.209323 
L 481.620188 -279.209323 
L 469.023363 -279.209323 
L 456.426538 -279.209323 
L 443.829712 -279.209323 
L 431.232887 -279.209323 
L 418.636062 -279.209323 
L 406.039236 -279.209323 
L 393.442411 -279.209323 
L 380.845585 -279.209323 
L 368.24876 -279.209323 
L 355.651935 -279.209323 
L 343.055109 -279.209323 
L 330.458284 -279.209323 
L 317.861458 -278.366396 
L 305.264633 -278.366396 
L 292.667808 -278.366396 
L 280.070982 -278.366396 
L 267.474157 -278.366396 
L 254.877331 -278.085421 
L 242.280506 -278.085421 
L 229.683681 -278.085421 
L 217.086855 -278.085421 
L 204.49003 -278.085421 
L 191.893204 -278.085421 
L 179.296379 -272.746884 
L 166.699554 -270.499079 
L 154.102728 -267.970299 
L 141.505903 -267.408348 
L 128.909077 -266.565421 
L 116.312252 -263.193713 
L 103.715427 -256.731274 
L 91.118601 -255.888348 
L 78.521776 -254.764445 
L 65.92495 -242.120543 
L 53.328125 -49.65225 
z
" style="stroke: #98df8a; stroke-opacity: 0.2"/>
    </defs>
    <g clip-path="url(#pd7075685f8)">
     <use xlink:href="#m8650bb407f" x="0" y="325.986375" style="fill: #98df8a; fill-opacity: 0.2; stroke: #98df8a; stroke-opacity: 0.2"/>
    </g>
   </g>
   <g id="FillBetweenPolyCollection_4">
    <defs>
     <path id="mbb1d99f7b2" d="M 53.328125 -49.65225 
L 53.328125 -49.65225 
L 65.92495 -159.232738 
L 78.521776 -200.255177 
L 91.118601 -206.43664 
L 103.715427 -233.410299 
L 116.312252 -233.410299 
L 128.909077 -241.839567 
L 141.505903 -242.96347 
L 154.102728 -242.96347 
L 166.699554 -242.96347 
L 179.296379 -243.525421 
L 191.893204 -243.525421 
L 204.49003 -243.525421 
L 217.086855 -243.525421 
L 229.683681 -243.525421 
L 242.280506 -243.525421 
L 254.877331 -243.525421 
L 267.474157 -243.525421 
L 280.070982 -243.525421 
L 292.667808 -243.525421 
L 305.264633 -243.525421 
L 317.861458 -245.773226 
L 330.458284 -246.335177 
L 343.055109 -253.640543 
L 355.651935 -253.640543 
L 368.24876 -253.640543 
L 380.845585 -253.640543 
L 393.442411 -263.193713 
L 406.039236 -263.193713 
L 418.636062 -263.193713 
L 431.232887 -263.193713 
L 443.829712 -263.193713 
L 456.426538 -263.193713 
L 469.023363 -263.193713 
L 481.620188 -263.193713 
L 494.217014 -263.193713 
L 506.813839 -263.193713 
L 519.410665 -263.193713 
L 532.00749 -263.193713 
L 544.604315 -263.193713 
L 557.201141 -263.193713 
L 569.797966 -263.193713 
L 582.394792 -263.193713 
L 594.991617 -263.193713 
L 607.588442 -263.193713 
L 620.185268 -263.193713 
L 632.782093 -263.193713 
L 645.378919 -263.193713 
L 657.975744 -263.193713 
L 670.572569 -263.193713 
L 683.169395 -263.193713 
L 695.76622 -263.193713 
L 708.363046 -263.193713 
L 720.959871 -263.193713 
L 733.556696 -263.193713 
L 733.556696 -281.176152 
L 733.556696 -281.176152 
L 720.959871 -281.176152 
L 708.363046 -281.176152 
L 695.76622 -281.176152 
L 683.169395 -281.176152 
L 670.572569 -281.176152 
L 657.975744 -281.176152 
L 645.378919 -281.176152 
L 632.782093 -281.176152 
L 620.185268 -281.176152 
L 607.588442 -281.176152 
L 594.991617 -281.176152 
L 582.394792 -281.176152 
L 569.797966 -281.176152 
L 557.201141 -281.176152 
L 544.604315 -281.176152 
L 532.00749 -281.176152 
L 519.410665 -281.176152 
L 506.813839 -281.176152 
L 494.217014 -281.176152 
L 481.620188 -280.05225 
L 469.023363 -280.05225 
L 456.426538 -280.05225 
L 443.829712 -280.05225 
L 431.232887 -280.05225 
L 418.636062 -279.490299 
L 406.039236 -279.490299 
L 393.442411 -279.490299 
L 380.845585 -279.490299 
L 368.24876 -279.490299 
L 355.651935 -279.490299 
L 343.055109 -278.366396 
L 330.458284 -278.366396 
L 317.861458 -277.804445 
L 305.264633 -277.804445 
L 292.667808 -277.804445 
L 280.070982 -277.804445 
L 267.474157 -277.242494 
L 254.877331 -277.242494 
L 242.280506 -277.242494 
L 229.683681 -277.242494 
L 217.086855 -276.118591 
L 204.49003 -275.55664 
L 191.893204 -274.432738 
L 179.296379 -270.499079 
L 166.699554 -268.251274 
L 154.102728 -268.251274 
L 141.505903 -268.251274 
L 128.909077 -267.127372 
L 116.312252 -264.879567 
L 103.715427 -262.069811 
L 91.118601 -260.383957 
L 78.521776 -253.640543 
L 65.92495 -224.419079 
L 53.328125 -49.65225 
z
" style="stroke: #c7c7c7; stroke-opacity: 0.2"/>
    </defs>
    <g clip-path="url(#pd7075685f8)">
     <use xlink:href="#mbb1d99f7b2" x="0" y="325.986375" style="fill: #c7c7c7; fill-opacity: 0.2; stroke: #c7c7c7; stroke-opacity: 0.2"/>
    </g>
   </g>
   <g id="matplotlib.axis_1">
    <g id="xtick_1">
     <g id="line2d_1">
      <defs>
       <path id="me019224ca2" d="M 0 0 
L 0 3.5 
" style="stroke: #000000; stroke-width: 0.8"/>
      </defs>
      <g>
       <use xlink:href="#me019224ca2" x="53.328125" y="288.430125" style="stroke: #000000; stroke-width: 0.8"/>
      </g>
     </g>
     <g id="text_1">
      <!-- 0m -->
      <g transform="translate(45.276563 303.028562) scale(0.1 -0.1)">
       <defs>
        <path id="DejaVuSans-30" d="M 2034 4250 
Q 1547 4250 1301 3770 
Q 1056 3291 1056 2328 
Q 1056 1369 1301 889 
Q 1547 409 2034 409 
Q 2525 409 2770 889 
Q 3016 1369 3016 2328 
Q 3016 3291 2770 3770 
Q 2525 4250 2034 4250 
z
M 2034 4750 
Q 2819 4750 3233 4129 
Q 3647 3509 3647 2328 
Q 3647 1150 3233 529 
Q 2819 -91 2034 -91 
Q 1250 -91 836 529 
Q 422 1150 422 2328 
Q 422 3509 836 4129 
Q 1250 4750 2034 4750 
z
" transform="scale(0.015625)"/>
        <path id="DejaVuSans-6d" d="M 3328 2828 
Q 3544 3216 3844 3400 
Q 4144 3584 4550 3584 
Q 5097 3584 5394 3201 
Q 5691 2819 5691 2113 
L 5691 0 
L 5113 0 
L 5113 2094 
Q 5113 2597 4934 2840 
Q 4756 3084 4391 3084 
Q 3944 3084 3684 2787 
Q 3425 2491 3425 1978 
L 3425 0 
L 2847 0 
L 2847 2094 
Q 2847 2600 2669 2842 
Q 2491 3084 2119 3084 
Q 1678 3084 1418 2786 
Q 1159 2488 1159 1978 
L 1159 0 
L 581 0 
L 581 3500 
L 1159 3500 
L 1159 2956 
Q 1356 3278 1631 3431 
Q 1906 3584 2284 3584 
Q 2666 3584 2933 3390 
Q 3200 3197 3328 2828 
z
" transform="scale(0.015625)"/>
       </defs>
       <use xlink:href="#DejaVuSans-30"/>
       <use xlink:href="#DejaVuSans-6d" transform="translate(63.623047 0)"/>
      </g>
     </g>
    </g>
    <g id="xtick_2">
     <g id="line2d_2">
      <g>
       <use xlink:href="#me019224ca2" x="110.013839" y="288.430125" style="stroke: #000000; stroke-width: 0.8"/>
      </g>
     </g>
     <g id="text_2">
      <!-- 1h:7m -->
      <g transform="translate(93.927902 303.028562) scale(0.1 -0.1)">
       <defs>
        <path id="DejaVuSans-31" d="M 794 531 
L 1825 531 
L 1825 4091 
L 703 3866 
L 703 4441 
L 1819 4666 
L 2450 4666 
L 2450 531 
L 3481 531 
L 3481 0 
L 794 0 
L 794 531 
z
" transform="scale(0.015625)"/>
        <path id="DejaVuSans-68" d="M 3513 2113 
L 3513 0 
L 2938 0 
L 2938 2094 
Q 2938 2591 2744 2837 
Q 2550 3084 2163 3084 
Q 1697 3084 1428 2787 
Q 1159 2491 1159 1978 
L 1159 0 
L 581 0 
L 581 4863 
L 1159 4863 
L 1159 2956 
Q 1366 3272 1645 3428 
Q 1925 3584 2291 3584 
Q 2894 3584 3203 3211 
Q 3513 2838 3513 2113 
z
" transform="scale(0.015625)"/>
        <path id="DejaVuSans-3a" d="M 750 794 
L 1409 794 
L 1409 0 
L 750 0 
L 750 794 
z
M 750 3309 
L 1409 3309 
L 1409 2516 
L 750 2516 
L 750 3309 
z
" transform="scale(0.015625)"/>
        <path id="DejaVuSans-37" d="M 525 4666 
L 3525 4666 
L 3525 4397 
L 1831 0 
L 1172 0 
L 2766 4134 
L 525 4134 
L 525 4666 
z
" transform="scale(0.015625)"/>
       </defs>
       <use xlink:href="#DejaVuSans-31"/>
       <use xlink:href="#DejaVuSans-68" transform="translate(63.623047 0)"/>
       <use xlink:href="#DejaVuSans-3a" transform="translate(127.001953 0)"/>
       <use xlink:href="#DejaVuSans-37" transform="translate(160.693359 0)"/>
       <use xlink:href="#DejaVuSans-6d" transform="translate(224.316406 0)"/>
      </g>
     </g>
    </g>
    <g id="xtick_3">
     <g id="line2d_3">
      <g>
       <use xlink:href="#me019224ca2" x="166.699554" y="288.430125" style="stroke: #000000; stroke-width: 0.8"/>
      </g>
     </g>
     <g id="text_3">
      <!-- 2h:15m -->
      <g transform="translate(147.432366 303.028562) scale(0.1 -0.1)">
       <defs>
        <path id="DejaVuSans-32" d="M 1228 531 
L 3431 531 
L 3431 0 
L 469 0 
L 469 531 
Q 828 903 1448 1529 
Q 2069 2156 2228 2338 
Q 2531 2678 2651 2914 
Q 2772 3150 2772 3378 
Q 2772 3750 2511 3984 
Q 2250 4219 1831 4219 
Q 1534 4219 1204 4116 
Q 875 4013 500 3803 
L 500 4441 
Q 881 4594 1212 4672 
Q 1544 4750 1819 4750 
Q 2544 4750 2975 4387 
Q 3406 4025 3406 3419 
Q 3406 3131 3298 2873 
Q 3191 2616 2906 2266 
Q 2828 2175 2409 1742 
Q 1991 1309 1228 531 
z
" transform="scale(0.015625)"/>
        <path id="DejaVuSans-35" d="M 691 4666 
L 3169 4666 
L 3169 4134 
L 1269 4134 
L 1269 2991 
Q 1406 3038 1543 3061 
Q 1681 3084 1819 3084 
Q 2600 3084 3056 2656 
Q 3513 2228 3513 1497 
Q 3513 744 3044 326 
Q 2575 -91 1722 -91 
Q 1428 -91 1123 -41 
Q 819 9 494 109 
L 494 744 
Q 775 591 1075 516 
Q 1375 441 1709 441 
Q 2250 441 2565 725 
Q 2881 1009 2881 1497 
Q 2881 1984 2565 2268 
Q 2250 2553 1709 2553 
Q 1456 2553 1204 2497 
Q 953 2441 691 2322 
L 691 4666 
z
" transform="scale(0.015625)"/>
       </defs>
       <use xlink:href="#DejaVuSans-32"/>
       <use xlink:href="#DejaVuSans-68" transform="translate(63.623047 0)"/>
       <use xlink:href="#DejaVuSans-3a" transform="translate(127.001953 0)"/>
       <use xlink:href="#DejaVuSans-31" transform="translate(160.693359 0)"/>
       <use xlink:href="#DejaVuSans-35" transform="translate(224.316406 0)"/>
       <use xlink:href="#DejaVuSans-6d" transform="translate(287.939453 0)"/>
      </g>
     </g>
    </g>
    <g id="xtick_4">
     <g id="line2d_4">
      <g>
       <use xlink:href="#me019224ca2" x="223.385268" y="288.430125" style="stroke: #000000; stroke-width: 0.8"/>
      </g>
     </g>
     <g id="text_4">
      <!-- 3h:22m -->
      <g transform="translate(204.11808 303.028562) scale(0.1 -0.1)">
       <defs>
        <path id="DejaVuSans-33" d="M 2597 2516 
Q 3050 2419 3304 2112 
Q 3559 1806 3559 1356 
Q 3559 666 3084 287 
Q 2609 -91 1734 -91 
Q 1441 -91 1130 -33 
Q 819 25 488 141 
L 488 750 
Q 750 597 1062 519 
Q 1375 441 1716 441 
Q 2309 441 2620 675 
Q 2931 909 2931 1356 
Q 2931 1769 2642 2001 
Q 2353 2234 1838 2234 
L 1294 2234 
L 1294 2753 
L 1863 2753 
Q 2328 2753 2575 2939 
Q 2822 3125 2822 3475 
Q 2822 3834 2567 4026 
Q 2313 4219 1838 4219 
Q 1578 4219 1281 4162 
Q 984 4106 628 3988 
L 628 4550 
Q 988 4650 1302 4700 
Q 1616 4750 1894 4750 
Q 2613 4750 3031 4423 
Q 3450 4097 3450 3541 
Q 3450 3153 3228 2886 
Q 3006 2619 2597 2516 
z
" transform="scale(0.015625)"/>
       </defs>
       <use xlink:href="#DejaVuSans-33"/>
       <use xlink:href="#DejaVuSans-68" transform="translate(63.623047 0)"/>
       <use xlink:href="#DejaVuSans-3a" transform="translate(127.001953 0)"/>
       <use xlink:href="#DejaVuSans-32" transform="translate(160.693359 0)"/>
       <use xlink:href="#DejaVuSans-32" transform="translate(224.316406 0)"/>
       <use xlink:href="#DejaVuSans-6d" transform="translate(287.939453 0)"/>
      </g>
     </g>
    </g>
    <g id="xtick_5">
     <g id="line2d_5">
      <g>
       <use xlink:href="#me019224ca2" x="280.070982" y="288.430125" style="stroke: #000000; stroke-width: 0.8"/>
      </g>
     </g>
     <g id="text_5">
      <!-- 4h:30m -->
      <g transform="translate(260.803795 303.028562) scale(0.1 -0.1)">
       <defs>
        <path id="DejaVuSans-34" d="M 2419 4116 
L 825 1625 
L 2419 1625 
L 2419 4116 
z
M 2253 4666 
L 3047 4666 
L 3047 1625 
L 3713 1625 
L 3713 1100 
L 3047 1100 
L 3047 0 
L 2419 0 
L 2419 1100 
L 313 1100 
L 313 1709 
L 2253 4666 
z
" transform="scale(0.015625)"/>
       </defs>
       <use xlink:href="#DejaVuSans-34"/>
       <use xlink:href="#DejaVuSans-68" transform="translate(63.623047 0)"/>
       <use xlink:href="#DejaVuSans-3a" transform="translate(127.001953 0)"/>
       <use xlink:href="#DejaVuSans-33" transform="translate(160.693359 0)"/>
       <use xlink:href="#DejaVuSans-30" transform="translate(224.316406 0)"/>
       <use xlink:href="#DejaVuSans-6d" transform="translate(287.939453 0)"/>
      </g>
     </g>
    </g>
    <g id="xtick_6">
     <g id="line2d_6">
      <g>
       <use xlink:href="#me019224ca2" x="336.756696" y="288.430125" style="stroke: #000000; stroke-width: 0.8"/>
      </g>
     </g>
     <g id="text_6">
      <!-- 5h:37m -->
      <g transform="translate(317.489509 303.028562) scale(0.1 -0.1)">
       <use xlink:href="#DejaVuSans-35"/>
       <use xlink:href="#DejaVuSans-68" transform="translate(63.623047 0)"/>
       <use xlink:href="#DejaVuSans-3a" transform="translate(127.001953 0)"/>
       <use xlink:href="#DejaVuSans-33" transform="translate(160.693359 0)"/>
       <use xlink:href="#DejaVuSans-37" transform="translate(224.316406 0)"/>
       <use xlink:href="#DejaVuSans-6d" transform="translate(287.939453 0)"/>
      </g>
     </g>
    </g>
    <g id="xtick_7">
     <g id="line2d_7">
      <g>
       <use xlink:href="#me019224ca2" x="393.442411" y="288.430125" style="stroke: #000000; stroke-width: 0.8"/>
      </g>
     </g>
     <g id="text_7">
      <!-- 6h:45m -->
      <g transform="translate(374.175223 303.028562) scale(0.1 -0.1)">
       <defs>
        <path id="DejaVuSans-36" d="M 2113 2584 
Q 1688 2584 1439 2293 
Q 1191 2003 1191 1497 
Q 1191 994 1439 701 
Q 1688 409 2113 409 
Q 2538 409 2786 701 
Q 3034 994 3034 1497 
Q 3034 2003 2786 2293 
Q 2538 2584 2113 2584 
z
M 3366 4563 
L 3366 3988 
Q 3128 4100 2886 4159 
Q 2644 4219 2406 4219 
Q 1781 4219 1451 3797 
Q 1122 3375 1075 2522 
Q 1259 2794 1537 2939 
Q 1816 3084 2150 3084 
Q 2853 3084 3261 2657 
Q 3669 2231 3669 1497 
Q 3669 778 3244 343 
Q 2819 -91 2113 -91 
Q 1303 -91 875 529 
Q 447 1150 447 2328 
Q 447 3434 972 4092 
Q 1497 4750 2381 4750 
Q 2619 4750 2861 4703 
Q 3103 4656 3366 4563 
z
" transform="scale(0.015625)"/>
       </defs>
       <use xlink:href="#DejaVuSans-36"/>
       <use xlink:href="#DejaVuSans-68" transform="translate(63.623047 0)"/>
       <use xlink:href="#DejaVuSans-3a" transform="translate(127.001953 0)"/>
       <use xlink:href="#DejaVuSans-34" transform="translate(160.693359 0)"/>
       <use xlink:href="#DejaVuSans-35" transform="translate(224.316406 0)"/>
       <use xlink:href="#DejaVuSans-6d" transform="translate(287.939453 0)"/>
      </g>
     </g>
    </g>
    <g id="xtick_8">
     <g id="line2d_8">
      <g>
       <use xlink:href="#me019224ca2" x="450.128125" y="288.430125" style="stroke: #000000; stroke-width: 0.8"/>
      </g>
     </g>
     <g id="text_8">
      <!-- 7h:52m -->
      <g transform="translate(430.860938 303.028562) scale(0.1 -0.1)">
       <use xlink:href="#DejaVuSans-37"/>
       <use xlink:href="#DejaVuSans-68" transform="translate(63.623047 0)"/>
       <use xlink:href="#DejaVuSans-3a" transform="translate(127.001953 0)"/>
       <use xlink:href="#DejaVuSans-35" transform="translate(160.693359 0)"/>
       <use xlink:href="#DejaVuSans-32" transform="translate(224.316406 0)"/>
       <use xlink:href="#DejaVuSans-6d" transform="translate(287.939453 0)"/>
      </g>
     </g>
    </g>
    <g id="xtick_9">
     <g id="line2d_9">
      <g>
       <use xlink:href="#me019224ca2" x="506.813839" y="288.430125" style="stroke: #000000; stroke-width: 0.8"/>
      </g>
     </g>
     <g id="text_9">
      <!-- 9h -->
      <g transform="translate(500.463839 303.028562) scale(0.1 -0.1)">
       <defs>
        <path id="DejaVuSans-39" d="M 703 97 
L 703 672 
Q 941 559 1184 500 
Q 1428 441 1663 441 
Q 2288 441 2617 861 
Q 2947 1281 2994 2138 
Q 2813 1869 2534 1725 
Q 2256 1581 1919 1581 
Q 1219 1581 811 2004 
Q 403 2428 403 3163 
Q 403 3881 828 4315 
Q 1253 4750 1959 4750 
Q 2769 4750 3195 4129 
Q 3622 3509 3622 2328 
Q 3622 1225 3098 567 
Q 2575 -91 1691 -91 
Q 1453 -91 1209 -44 
Q 966 3 703 97 
z
M 1959 2075 
Q 2384 2075 2632 2365 
Q 2881 2656 2881 3163 
Q 2881 3666 2632 3958 
Q 2384 4250 1959 4250 
Q 1534 4250 1286 3958 
Q 1038 3666 1038 3163 
Q 1038 2656 1286 2365 
Q 1534 2075 1959 2075 
z
" transform="scale(0.015625)"/>
       </defs>
       <use xlink:href="#DejaVuSans-39"/>
       <use xlink:href="#DejaVuSans-68" transform="translate(63.623047 0)"/>
      </g>
     </g>
    </g>
    <g id="xtick_10">
     <g id="line2d_10">
      <g>
       <use xlink:href="#me019224ca2" x="563.499554" y="288.430125" style="stroke: #000000; stroke-width: 0.8"/>
      </g>
     </g>
     <g id="text_10">
      <!-- 10h:7m -->
      <g transform="translate(544.232366 303.028562) scale(0.1 -0.1)">
       <use xlink:href="#DejaVuSans-31"/>
       <use xlink:href="#DejaVuSans-30" transform="translate(63.623047 0)"/>
       <use xlink:href="#DejaVuSans-68" transform="translate(127.246094 0)"/>
       <use xlink:href="#DejaVuSans-3a" transform="translate(190.625 0)"/>
       <use xlink:href="#DejaVuSans-37" transform="translate(224.316406 0)"/>
       <use xlink:href="#DejaVuSans-6d" transform="translate(287.939453 0)"/>
      </g>
     </g>
    </g>
    <g id="xtick_11">
     <g id="line2d_11">
      <g>
       <use xlink:href="#me019224ca2" x="620.185268" y="288.430125" style="stroke: #000000; stroke-width: 0.8"/>
      </g>
     </g>
     <g id="text_11">
      <!-- 11h:15m -->
      <g transform="translate(597.73683 303.028562) scale(0.1 -0.1)">
       <use xlink:href="#DejaVuSans-31"/>
       <use xlink:href="#DejaVuSans-31" transform="translate(63.623047 0)"/>
       <use xlink:href="#DejaVuSans-68" transform="translate(127.246094 0)"/>
       <use xlink:href="#DejaVuSans-3a" transform="translate(190.625 0)"/>
       <use xlink:href="#DejaVuSans-31" transform="translate(224.316406 0)"/>
       <use xlink:href="#DejaVuSans-35" transform="translate(287.939453 0)"/>
       <use xlink:href="#DejaVuSans-6d" transform="translate(351.5625 0)"/>
      </g>
     </g>
    </g>
    <g id="xtick_12">
     <g id="line2d_12">
      <g>
       <use xlink:href="#me019224ca2" x="676.870982" y="288.430125" style="stroke: #000000; stroke-width: 0.8"/>
      </g>
     </g>
     <g id="text_12">
      <!-- 12h:22m -->
      <g transform="translate(654.422545 303.028562) scale(0.1 -0.1)">
       <use xlink:href="#DejaVuSans-31"/>
       <use xlink:href="#DejaVuSans-32" transform="translate(63.623047 0)"/>
       <use xlink:href="#DejaVuSans-68" transform="translate(127.246094 0)"/>
       <use xlink:href="#DejaVuSans-3a" transform="translate(190.625 0)"/>
       <use xlink:href="#DejaVuSans-32" transform="translate(224.316406 0)"/>
       <use xlink:href="#DejaVuSans-32" transform="translate(287.939453 0)"/>
       <use xlink:href="#DejaVuSans-6d" transform="translate(351.5625 0)"/>
      </g>
     </g>
    </g>
    <g id="xtick_13">
     <g id="line2d_13">
      <g>
       <use xlink:href="#me019224ca2" x="733.556696" y="288.430125" style="stroke: #000000; stroke-width: 0.8"/>
      </g>
     </g>
     <g id="text_13">
      <!-- 13h:30m -->
      <g transform="translate(711.108259 303.028562) scale(0.1 -0.1)">
       <use xlink:href="#DejaVuSans-31"/>
       <use xlink:href="#DejaVuSans-33" transform="translate(63.623047 0)"/>
       <use xlink:href="#DejaVuSans-68" transform="translate(127.246094 0)"/>
       <use xlink:href="#DejaVuSans-3a" transform="translate(190.625 0)"/>
       <use xlink:href="#DejaVuSans-33" transform="translate(224.316406 0)"/>
       <use xlink:href="#DejaVuSans-30" transform="translate(287.939453 0)"/>
       <use xlink:href="#DejaVuSans-6d" transform="translate(351.5625 0)"/>
      </g>
     </g>
    </g>
    <g id="text_14">
     <!-- Time (hour:minute) -->
     <g transform="translate(362.041094 316.706687) scale(0.1 -0.1)">
      <defs>
       <path id="DejaVuSans-54" d="M -19 4666 
L 3928 4666 
L 3928 4134 
L 2272 4134 
L 2272 0 
L 1638 0 
L 1638 4134 
L -19 4134 
L -19 4666 
z
" transform="scale(0.015625)"/>
       <path id="DejaVuSans-69" d="M 603 3500 
L 1178 3500 
L 1178 0 
L 603 0 
L 603 3500 
z
M 603 4863 
L 1178 4863 
L 1178 4134 
L 603 4134 
L 603 4863 
z
" transform="scale(0.015625)"/>
       <path id="DejaVuSans-65" d="M 3597 1894 
L 3597 1613 
L 953 1613 
Q 991 1019 1311 708 
Q 1631 397 2203 397 
Q 2534 397 2845 478 
Q 3156 559 3463 722 
L 3463 178 
Q 3153 47 2828 -22 
Q 2503 -91 2169 -91 
Q 1331 -91 842 396 
Q 353 884 353 1716 
Q 353 2575 817 3079 
Q 1281 3584 2069 3584 
Q 2775 3584 3186 3129 
Q 3597 2675 3597 1894 
z
M 3022 2063 
Q 3016 2534 2758 2815 
Q 2500 3097 2075 3097 
Q 1594 3097 1305 2825 
Q 1016 2553 972 2059 
L 3022 2063 
z
" transform="scale(0.015625)"/>
       <path id="DejaVuSans-20" transform="scale(0.015625)"/>
       <path id="DejaVuSans-28" d="M 1984 4856 
Q 1566 4138 1362 3434 
Q 1159 2731 1159 2009 
Q 1159 1288 1364 580 
Q 1569 -128 1984 -844 
L 1484 -844 
Q 1016 -109 783 600 
Q 550 1309 550 2009 
Q 550 2706 781 3412 
Q 1013 4119 1484 4856 
L 1984 4856 
z
" transform="scale(0.015625)"/>
       <path id="DejaVuSans-6f" d="M 1959 3097 
Q 1497 3097 1228 2736 
Q 959 2375 959 1747 
Q 959 1119 1226 758 
Q 1494 397 1959 397 
Q 2419 397 2687 759 
Q 2956 1122 2956 1747 
Q 2956 2369 2687 2733 
Q 2419 3097 1959 3097 
z
M 1959 3584 
Q 2709 3584 3137 3096 
Q 3566 2609 3566 1747 
Q 3566 888 3137 398 
Q 2709 -91 1959 -91 
Q 1206 -91 779 398 
Q 353 888 353 1747 
Q 353 2609 779 3096 
Q 1206 3584 1959 3584 
z
" transform="scale(0.015625)"/>
       <path id="DejaVuSans-75" d="M 544 1381 
L 544 3500 
L 1119 3500 
L 1119 1403 
Q 1119 906 1312 657 
Q 1506 409 1894 409 
Q 2359 409 2629 706 
Q 2900 1003 2900 1516 
L 2900 3500 
L 3475 3500 
L 3475 0 
L 2900 0 
L 2900 538 
Q 2691 219 2414 64 
Q 2138 -91 1772 -91 
Q 1169 -91 856 284 
Q 544 659 544 1381 
z
M 1991 3584 
L 1991 3584 
z
" transform="scale(0.015625)"/>
       <path id="DejaVuSans-72" d="M 2631 2963 
Q 2534 3019 2420 3045 
Q 2306 3072 2169 3072 
Q 1681 3072 1420 2755 
Q 1159 2438 1159 1844 
L 1159 0 
L 581 0 
L 581 3500 
L 1159 3500 
L 1159 2956 
Q 1341 3275 1631 3429 
Q 1922 3584 2338 3584 
Q 2397 3584 2469 3576 
Q 2541 3569 2628 3553 
L 2631 2963 
z
" transform="scale(0.015625)"/>
       <path id="DejaVuSans-6e" d="M 3513 2113 
L 3513 0 
L 2938 0 
L 2938 2094 
Q 2938 2591 2744 2837 
Q 2550 3084 2163 3084 
Q 1697 3084 1428 2787 
Q 1159 2491 1159 1978 
L 1159 0 
L 581 0 
L 581 3500 
L 1159 3500 
L 1159 2956 
Q 1366 3272 1645 3428 
Q 1925 3584 2291 3584 
Q 2894 3584 3203 3211 
Q 3513 2838 3513 2113 
z
" transform="scale(0.015625)"/>
       <path id="DejaVuSans-74" d="M 1172 4494 
L 1172 3500 
L 2356 3500 
L 2356 3053 
L 1172 3053 
L 1172 1153 
Q 1172 725 1289 603 
Q 1406 481 1766 481 
L 2356 481 
L 2356 0 
L 1766 0 
Q 1100 0 847 248 
Q 594 497 594 1153 
L 594 3053 
L 172 3053 
L 172 3500 
L 594 3500 
L 594 4494 
L 1172 4494 
z
" transform="scale(0.015625)"/>
       <path id="DejaVuSans-29" d="M 513 4856 
L 1013 4856 
Q 1481 4119 1714 3412 
Q 1947 2706 1947 2009 
Q 1947 1309 1714 600 
Q 1481 -109 1013 -844 
L 513 -844 
Q 928 -128 1133 580 
Q 1338 1288 1338 2009 
Q 1338 2731 1133 3434 
Q 928 4138 513 4856 
z
" transform="scale(0.015625)"/>
      </defs>
      <use xlink:href="#DejaVuSans-54"/>
      <use xlink:href="#DejaVuSans-69" transform="translate(57.958984 0)"/>
      <use xlink:href="#DejaVuSans-6d" transform="translate(85.742188 0)"/>
      <use xlink:href="#DejaVuSans-65" transform="translate(183.154297 0)"/>
      <use xlink:href="#DejaVuSans-20" transform="translate(244.677734 0)"/>
      <use xlink:href="#DejaVuSans-28" transform="translate(276.464844 0)"/>
      <use xlink:href="#DejaVuSans-68" transform="translate(315.478516 0)"/>
      <use xlink:href="#DejaVuSans-6f" transform="translate(378.857422 0)"/>
      <use xlink:href="#DejaVuSans-75" transform="translate(440.039062 0)"/>
      <use xlink:href="#DejaVuSans-72" transform="translate(503.417969 0)"/>
      <use xlink:href="#DejaVuSans-3a" transform="translate(542.78125 0)"/>
      <use xlink:href="#DejaVuSans-6d" transform="translate(576.472656 0)"/>
      <use xlink:href="#DejaVuSans-69" transform="translate(673.884766 0)"/>
      <use xlink:href="#DejaVuSans-6e" transform="translate(701.667969 0)"/>
      <use xlink:href="#DejaVuSans-75" transform="translate(765.046875 0)"/>
      <use xlink:href="#DejaVuSans-74" transform="translate(828.425781 0)"/>
      <use xlink:href="#DejaVuSans-65" transform="translate(867.634766 0)"/>
      <use xlink:href="#DejaVuSans-29" transform="translate(929.158203 0)"/>
     </g>
    </g>
   </g>
   <g id="matplotlib.axis_2">
    <g id="ytick_1">
     <g id="line2d_14">
      <defs>
       <path id="md933a74303" d="M 0 0 
L -3.5 0 
" style="stroke: #000000; stroke-width: 0.8"/>
      </defs>
      <g>
       <use xlink:href="#md933a74303" x="53.328125" y="255.54193" style="stroke: #000000; stroke-width: 0.8"/>
      </g>
     </g>
     <g id="text_15">
      <!-- 800 -->
      <g transform="translate(27.240625 259.341149) scale(0.1 -0.1)">
       <defs>
        <path id="DejaVuSans-38" d="M 2034 2216 
Q 1584 2216 1326 1975 
Q 1069 1734 1069 1313 
Q 1069 891 1326 650 
Q 1584 409 2034 409 
Q 2484 409 2743 651 
Q 3003 894 3003 1313 
Q 3003 1734 2745 1975 
Q 2488 2216 2034 2216 
z
M 1403 2484 
Q 997 2584 770 2862 
Q 544 3141 544 3541 
Q 544 4100 942 4425 
Q 1341 4750 2034 4750 
Q 2731 4750 3128 4425 
Q 3525 4100 3525 3541 
Q 3525 3141 3298 2862 
Q 3072 2584 2669 2484 
Q 3125 2378 3379 2068 
Q 3634 1759 3634 1313 
Q 3634 634 3220 271 
Q 2806 -91 2034 -91 
Q 1263 -91 848 271 
Q 434 634 434 1313 
Q 434 1759 690 2068 
Q 947 2378 1403 2484 
z
M 1172 3481 
Q 1172 3119 1398 2916 
Q 1625 2713 2034 2713 
Q 2441 2713 2670 2916 
Q 2900 3119 2900 3481 
Q 2900 3844 2670 4047 
Q 2441 4250 2034 4250 
Q 1625 4250 1398 4047 
Q 1172 3844 1172 3481 
z
" transform="scale(0.015625)"/>
       </defs>
       <use xlink:href="#DejaVuSans-38"/>
       <use xlink:href="#DejaVuSans-30" transform="translate(63.623047 0)"/>
       <use xlink:href="#DejaVuSans-30" transform="translate(127.246094 0)"/>
      </g>
     </g>
    </g>
    <g id="ytick_2">
     <g id="line2d_15">
      <g>
       <use xlink:href="#md933a74303" x="53.328125" y="199.346808" style="stroke: #000000; stroke-width: 0.8"/>
      </g>
     </g>
     <g id="text_16">
      <!-- 900 -->
      <g transform="translate(27.240625 203.146027) scale(0.1 -0.1)">
       <use xlink:href="#DejaVuSans-39"/>
       <use xlink:href="#DejaVuSans-30" transform="translate(63.623047 0)"/>
       <use xlink:href="#DejaVuSans-30" transform="translate(127.246094 0)"/>
      </g>
     </g>
    </g>
    <g id="ytick_3">
     <g id="line2d_16">
      <g>
       <use xlink:href="#md933a74303" x="53.328125" y="143.151686" style="stroke: #000000; stroke-width: 0.8"/>
      </g>
     </g>
     <g id="text_17">
      <!-- 1000 -->
      <g transform="translate(20.878125 146.950905) scale(0.1 -0.1)">
       <use xlink:href="#DejaVuSans-31"/>
       <use xlink:href="#DejaVuSans-30" transform="translate(63.623047 0)"/>
       <use xlink:href="#DejaVuSans-30" transform="translate(127.246094 0)"/>
       <use xlink:href="#DejaVuSans-30" transform="translate(190.869141 0)"/>
      </g>
     </g>
    </g>
    <g id="ytick_4">
     <g id="line2d_17">
      <g>
       <use xlink:href="#md933a74303" x="53.328125" y="86.956564" style="stroke: #000000; stroke-width: 0.8"/>
      </g>
     </g>
     <g id="text_18">
      <!-- 1100 -->
      <g transform="translate(20.878125 90.755783) scale(0.1 -0.1)">
       <use xlink:href="#DejaVuSans-31"/>
       <use xlink:href="#DejaVuSans-31" transform="translate(63.623047 0)"/>
       <use xlink:href="#DejaVuSans-30" transform="translate(127.246094 0)"/>
       <use xlink:href="#DejaVuSans-30" transform="translate(190.869141 0)"/>
      </g>
     </g>
    </g>
    <g id="ytick_5">
     <g id="line2d_18">
      <g>
       <use xlink:href="#md933a74303" x="53.328125" y="30.761442" style="stroke: #000000; stroke-width: 0.8"/>
      </g>
     </g>
     <g id="text_19">
      <!-- 1200 -->
      <g transform="translate(20.878125 34.560661) scale(0.1 -0.1)">
       <use xlink:href="#DejaVuSans-31"/>
       <use xlink:href="#DejaVuSans-32" transform="translate(63.623047 0)"/>
       <use xlink:href="#DejaVuSans-30" transform="translate(127.246094 0)"/>
       <use xlink:href="#DejaVuSans-30" transform="translate(190.869141 0)"/>
      </g>
     </g>
    </g>
    <g id="text_20">
     <!-- Code branch coverage -->
     <g transform="translate(14.798438 211.949125) rotate(-90) scale(0.1 -0.1)">
      <defs>
       <path id="DejaVuSans-43" d="M 4122 4306 
L 4122 3641 
Q 3803 3938 3442 4084 
Q 3081 4231 2675 4231 
Q 1875 4231 1450 3742 
Q 1025 3253 1025 2328 
Q 1025 1406 1450 917 
Q 1875 428 2675 428 
Q 3081 428 3442 575 
Q 3803 722 4122 1019 
L 4122 359 
Q 3791 134 3420 21 
Q 3050 -91 2638 -91 
Q 1578 -91 968 557 
Q 359 1206 359 2328 
Q 359 3453 968 4101 
Q 1578 4750 2638 4750 
Q 3056 4750 3426 4639 
Q 3797 4528 4122 4306 
z
" transform="scale(0.015625)"/>
       <path id="DejaVuSans-64" d="M 2906 2969 
L 2906 4863 
L 3481 4863 
L 3481 0 
L 2906 0 
L 2906 525 
Q 2725 213 2448 61 
Q 2172 -91 1784 -91 
Q 1150 -91 751 415 
Q 353 922 353 1747 
Q 353 2572 751 3078 
Q 1150 3584 1784 3584 
Q 2172 3584 2448 3432 
Q 2725 3281 2906 2969 
z
M 947 1747 
Q 947 1113 1208 752 
Q 1469 391 1925 391 
Q 2381 391 2643 752 
Q 2906 1113 2906 1747 
Q 2906 2381 2643 2742 
Q 2381 3103 1925 3103 
Q 1469 3103 1208 2742 
Q 947 2381 947 1747 
z
" transform="scale(0.015625)"/>
       <path id="DejaVuSans-62" d="M 3116 1747 
Q 3116 2381 2855 2742 
Q 2594 3103 2138 3103 
Q 1681 3103 1420 2742 
Q 1159 2381 1159 1747 
Q 1159 1113 1420 752 
Q 1681 391 2138 391 
Q 2594 391 2855 752 
Q 3116 1113 3116 1747 
z
M 1159 2969 
Q 1341 3281 1617 3432 
Q 1894 3584 2278 3584 
Q 2916 3584 3314 3078 
Q 3713 2572 3713 1747 
Q 3713 922 3314 415 
Q 2916 -91 2278 -91 
Q 1894 -91 1617 61 
Q 1341 213 1159 525 
L 1159 0 
L 581 0 
L 581 4863 
L 1159 4863 
L 1159 2969 
z
" transform="scale(0.015625)"/>
       <path id="DejaVuSans-61" d="M 2194 1759 
Q 1497 1759 1228 1600 
Q 959 1441 959 1056 
Q 959 750 1161 570 
Q 1363 391 1709 391 
Q 2188 391 2477 730 
Q 2766 1069 2766 1631 
L 2766 1759 
L 2194 1759 
z
M 3341 1997 
L 3341 0 
L 2766 0 
L 2766 531 
Q 2569 213 2275 61 
Q 1981 -91 1556 -91 
Q 1019 -91 701 211 
Q 384 513 384 1019 
Q 384 1609 779 1909 
Q 1175 2209 1959 2209 
L 2766 2209 
L 2766 2266 
Q 2766 2663 2505 2880 
Q 2244 3097 1772 3097 
Q 1472 3097 1187 3025 
Q 903 2953 641 2809 
L 641 3341 
Q 956 3463 1253 3523 
Q 1550 3584 1831 3584 
Q 2591 3584 2966 3190 
Q 3341 2797 3341 1997 
z
" transform="scale(0.015625)"/>
       <path id="DejaVuSans-63" d="M 3122 3366 
L 3122 2828 
Q 2878 2963 2633 3030 
Q 2388 3097 2138 3097 
Q 1578 3097 1268 2742 
Q 959 2388 959 1747 
Q 959 1106 1268 751 
Q 1578 397 2138 397 
Q 2388 397 2633 464 
Q 2878 531 3122 666 
L 3122 134 
Q 2881 22 2623 -34 
Q 2366 -91 2075 -91 
Q 1284 -91 818 406 
Q 353 903 353 1747 
Q 353 2603 823 3093 
Q 1294 3584 2113 3584 
Q 2378 3584 2631 3529 
Q 2884 3475 3122 3366 
z
" transform="scale(0.015625)"/>
       <path id="DejaVuSans-76" d="M 191 3500 
L 800 3500 
L 1894 563 
L 2988 3500 
L 3597 3500 
L 2284 0 
L 1503 0 
L 191 3500 
z
" transform="scale(0.015625)"/>
       <path id="DejaVuSans-67" d="M 2906 1791 
Q 2906 2416 2648 2759 
Q 2391 3103 1925 3103 
Q 1463 3103 1205 2759 
Q 947 2416 947 1791 
Q 947 1169 1205 825 
Q 1463 481 1925 481 
Q 2391 481 2648 825 
Q 2906 1169 2906 1791 
z
M 3481 434 
Q 3481 -459 3084 -895 
Q 2688 -1331 1869 -1331 
Q 1566 -1331 1297 -1286 
Q 1028 -1241 775 -1147 
L 775 -588 
Q 1028 -725 1275 -790 
Q 1522 -856 1778 -856 
Q 2344 -856 2625 -561 
Q 2906 -266 2906 331 
L 2906 616 
Q 2728 306 2450 153 
Q 2172 0 1784 0 
Q 1141 0 747 490 
Q 353 981 353 1791 
Q 353 2603 747 3093 
Q 1141 3584 1784 3584 
Q 2172 3584 2450 3431 
Q 2728 3278 2906 2969 
L 2906 3500 
L 3481 3500 
L 3481 434 
z
" transform="scale(0.015625)"/>
      </defs>
      <use xlink:href="#DejaVuSans-43"/>
      <use xlink:href="#DejaVuSans-6f" transform="translate(69.824219 0)"/>
      <use xlink:href="#DejaVuSans-64" transform="translate(131.005859 0)"/>
      <use xlink:href="#DejaVuSans-65" transform="translate(194.482422 0)"/>
      <use xlink:href="#DejaVuSans-20" transform="translate(256.005859 0)"/>
      <use xlink:href="#DejaVuSans-62" transform="translate(287.792969 0)"/>
      <use xlink:href="#DejaVuSans-72" transform="translate(351.269531 0)"/>
      <use xlink:href="#DejaVuSans-61" transform="translate(392.382812 0)"/>
      <use xlink:href="#DejaVuSans-6e" transform="translate(453.662109 0)"/>
      <use xlink:href="#DejaVuSans-63" transform="translate(517.041016 0)"/>
      <use xlink:href="#DejaVuSans-68" transform="translate(572.021484 0)"/>
      <use xlink:href="#DejaVuSans-20" transform="translate(635.400391 0)"/>
      <use xlink:href="#DejaVuSans-63" transform="translate(667.1875 0)"/>
      <use xlink:href="#DejaVuSans-6f" transform="translate(722.167969 0)"/>
      <use xlink:href="#DejaVuSans-76" transform="translate(783.349609 0)"/>
      <use xlink:href="#DejaVuSans-65" transform="translate(842.529297 0)"/>
      <use xlink:href="#DejaVuSans-72" transform="translate(904.052734 0)"/>
      <use xlink:href="#DejaVuSans-61" transform="translate(945.166016 0)"/>
      <use xlink:href="#DejaVuSans-67" transform="translate(1006.445312 0)"/>
      <use xlink:href="#DejaVuSans-65" transform="translate(1069.921875 0)"/>
     </g>
    </g>
   </g>
   <g id="line2d_19">
    <path d="M 53.328125 276.334125 
L 65.92495 111.682418 
L 78.521776 103.815101 
L 91.118601 87.23754 
L 103.715427 72.064857 
L 116.312252 69.536076 
L 128.909077 68.693149 
L 141.505903 68.412174 
L 154.102728 58.578027 
L 166.699554 58.578027 
L 179.296379 58.297052 
L 191.893204 57.735101 
L 204.49003 57.735101 
L 217.086855 56.611198 
L 229.683681 56.330223 
L 242.280506 56.330223 
L 254.877331 56.330223 
L 267.474157 56.049247 
L 280.070982 56.049247 
L 292.667808 55.768271 
L 305.264633 55.768271 
L 317.861458 55.768271 
L 330.458284 55.487296 
L 343.055109 55.20632 
L 355.651935 54.925345 
L 368.24876 54.925345 
L 380.845585 54.925345 
L 393.442411 54.925345 
L 406.039236 54.925345 
L 418.636062 54.925345 
L 431.232887 52.67754 
L 443.829712 52.115588 
L 456.426538 52.115588 
L 469.023363 52.115588 
L 481.620188 52.115588 
L 494.217014 52.115588 
L 506.813839 52.115588 
L 519.410665 52.115588 
L 532.00749 51.272662 
L 544.604315 51.272662 
L 557.201141 51.272662 
L 569.797966 51.272662 
L 582.394792 51.272662 
L 594.991617 51.272662 
L 607.588442 50.991686 
L 620.185268 50.991686 
L 632.782093 50.991686 
L 645.378919 50.991686 
L 657.975744 50.991686 
L 670.572569 50.991686 
L 683.169395 50.991686 
L 695.76622 50.429735 
L 708.363046 50.429735 
L 720.959871 50.429735 
L 733.556696 50.429735 
" clip-path="url(#pd7075685f8)" style="fill: none; stroke: #1f77b4; stroke-width: 1.5; stroke-linecap: square"/>
    <defs>
     <path id="m41884524ac" d="M 0 3 
C 0.795609 3 1.55874 2.683901 2.12132 2.12132 
C 2.683901 1.55874 3 0.795609 3 0 
C 3 -0.795609 2.683901 -1.55874 2.12132 -2.12132 
C 1.55874 -2.683901 0.795609 -3 0 -3 
C -0.795609 -3 -1.55874 -2.683901 -2.12132 -2.12132 
C -2.683901 -1.55874 -3 -0.795609 -3 0 
C -3 0.795609 -2.683901 1.55874 -2.12132 2.12132 
C -1.55874 2.683901 -0.795609 3 0 3 
z
" style="stroke: #ffffff; stroke-width: 0.75"/>
    </defs>
    <g clip-path="url(#pd7075685f8)">
     <use xlink:href="#m41884524ac" x="53.328125" y="276.334125" style="fill: #1f77b4; stroke: #ffffff; stroke-width: 0.75"/>
     <use xlink:href="#m41884524ac" x="65.92495" y="111.682418" style="fill: #1f77b4; stroke: #ffffff; stroke-width: 0.75"/>
     <use xlink:href="#m41884524ac" x="78.521776" y="103.815101" style="fill: #1f77b4; stroke: #ffffff; stroke-width: 0.75"/>
     <use xlink:href="#m41884524ac" x="91.118601" y="87.23754" style="fill: #1f77b4; stroke: #ffffff; stroke-width: 0.75"/>
     <use xlink:href="#m41884524ac" x="103.715427" y="72.064857" style="fill: #1f77b4; stroke: #ffffff; stroke-width: 0.75"/>
     <use xlink:href="#m41884524ac" x="116.312252" y="69.536076" style="fill: #1f77b4; stroke: #ffffff; stroke-width: 0.75"/>
     <use xlink:href="#m41884524ac" x="128.909077" y="68.693149" style="fill: #1f77b4; stroke: #ffffff; stroke-width: 0.75"/>
     <use xlink:href="#m41884524ac" x="141.505903" y="68.412174" style="fill: #1f77b4; stroke: #ffffff; stroke-width: 0.75"/>
     <use xlink:href="#m41884524ac" x="154.102728" y="58.578027" style="fill: #1f77b4; stroke: #ffffff; stroke-width: 0.75"/>
     <use xlink:href="#m41884524ac" x="166.699554" y="58.578027" style="fill: #1f77b4; stroke: #ffffff; stroke-width: 0.75"/>
     <use xlink:href="#m41884524ac" x="179.296379" y="58.297052" style="fill: #1f77b4; stroke: #ffffff; stroke-width: 0.75"/>
     <use xlink:href="#m41884524ac" x="191.893204" y="57.735101" style="fill: #1f77b4; stroke: #ffffff; stroke-width: 0.75"/>
     <use xlink:href="#m41884524ac" x="204.49003" y="57.735101" style="fill: #1f77b4; stroke: #ffffff; stroke-width: 0.75"/>
     <use xlink:href="#m41884524ac" x="217.086855" y="56.611198" style="fill: #1f77b4; stroke: #ffffff; stroke-width: 0.75"/>
     <use xlink:href="#m41884524ac" x="229.683681" y="56.330223" style="fill: #1f77b4; stroke: #ffffff; stroke-width: 0.75"/>
     <use xlink:href="#m41884524ac" x="242.280506" y="56.330223" style="fill: #1f77b4; stroke: #ffffff; stroke-width: 0.75"/>
     <use xlink:href="#m41884524ac" x="254.877331" y="56.330223" style="fill: #1f77b4; stroke: #ffffff; stroke-width: 0.75"/>
     <use xlink:href="#m41884524ac" x="267.474157" y="56.049247" style="fill: #1f77b4; stroke: #ffffff; stroke-width: 0.75"/>
     <use xlink:href="#m41884524ac" x="280.070982" y="56.049247" style="fill: #1f77b4; stroke: #ffffff; stroke-width: 0.75"/>
     <use xlink:href="#m41884524ac" x="292.667808" y="55.768271" style="fill: #1f77b4; stroke: #ffffff; stroke-width: 0.75"/>
     <use xlink:href="#m41884524ac" x="305.264633" y="55.768271" style="fill: #1f77b4; stroke: #ffffff; stroke-width: 0.75"/>
     <use xlink:href="#m41884524ac" x="317.861458" y="55.768271" style="fill: #1f77b4; stroke: #ffffff; stroke-width: 0.75"/>
     <use xlink:href="#m41884524ac" x="330.458284" y="55.487296" style="fill: #1f77b4; stroke: #ffffff; stroke-width: 0.75"/>
     <use xlink:href="#m41884524ac" x="343.055109" y="55.20632" style="fill: #1f77b4; stroke: #ffffff; stroke-width: 0.75"/>
     <use xlink:href="#m41884524ac" x="355.651935" y="54.925345" style="fill: #1f77b4; stroke: #ffffff; stroke-width: 0.75"/>
     <use xlink:href="#m41884524ac" x="368.24876" y="54.925345" style="fill: #1f77b4; stroke: #ffffff; stroke-width: 0.75"/>
     <use xlink:href="#m41884524ac" x="380.845585" y="54.925345" style="fill: #1f77b4; stroke: #ffffff; stroke-width: 0.75"/>
     <use xlink:href="#m41884524ac" x="393.442411" y="54.925345" style="fill: #1f77b4; stroke: #ffffff; stroke-width: 0.75"/>
     <use xlink:href="#m41884524ac" x="406.039236" y="54.925345" style="fill: #1f77b4; stroke: #ffffff; stroke-width: 0.75"/>
     <use xlink:href="#m41884524ac" x="418.636062" y="54.925345" style="fill: #1f77b4; stroke: #ffffff; stroke-width: 0.75"/>
     <use xlink:href="#m41884524ac" x="431.232887" y="52.67754" style="fill: #1f77b4; stroke: #ffffff; stroke-width: 0.75"/>
     <use xlink:href="#m41884524ac" x="443.829712" y="52.115588" style="fill: #1f77b4; stroke: #ffffff; stroke-width: 0.75"/>
     <use xlink:href="#m41884524ac" x="456.426538" y="52.115588" style="fill: #1f77b4; stroke: #ffffff; stroke-width: 0.75"/>
     <use xlink:href="#m41884524ac" x="469.023363" y="52.115588" style="fill: #1f77b4; stroke: #ffffff; stroke-width: 0.75"/>
     <use xlink:href="#m41884524ac" x="481.620188" y="52.115588" style="fill: #1f77b4; stroke: #ffffff; stroke-width: 0.75"/>
     <use xlink:href="#m41884524ac" x="494.217014" y="52.115588" style="fill: #1f77b4; stroke: #ffffff; stroke-width: 0.75"/>
     <use xlink:href="#m41884524ac" x="506.813839" y="52.115588" style="fill: #1f77b4; stroke: #ffffff; stroke-width: 0.75"/>
     <use xlink:href="#m41884524ac" x="519.410665" y="52.115588" style="fill: #1f77b4; stroke: #ffffff; stroke-width: 0.75"/>
     <use xlink:href="#m41884524ac" x="532.00749" y="51.272662" style="fill: #1f77b4; stroke: #ffffff; stroke-width: 0.75"/>
     <use xlink:href="#m41884524ac" x="544.604315" y="51.272662" style="fill: #1f77b4; stroke: #ffffff; stroke-width: 0.75"/>
     <use xlink:href="#m41884524ac" x="557.201141" y="51.272662" style="fill: #1f77b4; stroke: #ffffff; stroke-width: 0.75"/>
     <use xlink:href="#m41884524ac" x="569.797966" y="51.272662" style="fill: #1f77b4; stroke: #ffffff; stroke-width: 0.75"/>
     <use xlink:href="#m41884524ac" x="582.394792" y="51.272662" style="fill: #1f77b4; stroke: #ffffff; stroke-width: 0.75"/>
     <use xlink:href="#m41884524ac" x="594.991617" y="51.272662" style="fill: #1f77b4; stroke: #ffffff; stroke-width: 0.75"/>
     <use xlink:href="#m41884524ac" x="607.588442" y="50.991686" style="fill: #1f77b4; stroke: #ffffff; stroke-width: 0.75"/>
     <use xlink:href="#m41884524ac" x="620.185268" y="50.991686" style="fill: #1f77b4; stroke: #ffffff; stroke-width: 0.75"/>
     <use xlink:href="#m41884524ac" x="632.782093" y="50.991686" style="fill: #1f77b4; stroke: #ffffff; stroke-width: 0.75"/>
     <use xlink:href="#m41884524ac" x="645.378919" y="50.991686" style="fill: #1f77b4; stroke: #ffffff; stroke-width: 0.75"/>
     <use xlink:href="#m41884524ac" x="657.975744" y="50.991686" style="fill: #1f77b4; stroke: #ffffff; stroke-width: 0.75"/>
     <use xlink:href="#m41884524ac" x="670.572569" y="50.991686" style="fill: #1f77b4; stroke: #ffffff; stroke-width: 0.75"/>
     <use xlink:href="#m41884524ac" x="683.169395" y="50.991686" style="fill: #1f77b4; stroke: #ffffff; stroke-width: 0.75"/>
     <use xlink:href="#m41884524ac" x="695.76622" y="50.429735" style="fill: #1f77b4; stroke: #ffffff; stroke-width: 0.75"/>
     <use xlink:href="#m41884524ac" x="708.363046" y="50.429735" style="fill: #1f77b4; stroke: #ffffff; stroke-width: 0.75"/>
     <use xlink:href="#m41884524ac" x="720.959871" y="50.429735" style="fill: #1f77b4; stroke: #ffffff; stroke-width: 0.75"/>
     <use xlink:href="#m41884524ac" x="733.556696" y="50.429735" style="fill: #1f77b4; stroke: #ffffff; stroke-width: 0.75"/>
    </g>
   </g>
   <g id="line2d_20">
    <path d="M 53.328125 276.334125 
L 65.92495 122.078515 
L 78.521776 102.129247 
L 91.118601 85.832662 
L 103.715427 76.841442 
L 116.312252 75.71754 
L 128.909077 70.659979 
L 141.505903 68.131198 
L 154.102728 65.602418 
L 166.699554 65.602418 
L 179.296379 65.321442 
L 191.893204 64.478515 
L 204.49003 63.354613 
L 217.086855 63.354613 
L 229.683681 63.354613 
L 242.280506 63.073637 
L 254.877331 61.668759 
L 267.474157 61.668759 
L 280.070982 61.668759 
L 292.667808 61.668759 
L 305.264633 61.106808 
L 317.861458 56.049247 
L 330.458284 55.768271 
L 343.055109 55.768271 
L 355.651935 55.768271 
L 368.24876 54.925345 
L 380.845585 54.925345 
L 393.442411 54.925345 
L 406.039236 54.925345 
L 418.636062 54.925345 
L 431.232887 54.925345 
L 443.829712 54.925345 
L 456.426538 54.925345 
L 469.023363 54.925345 
L 481.620188 51.834613 
L 494.217014 51.272662 
L 506.813839 51.272662 
L 519.410665 51.272662 
L 532.00749 51.272662 
L 544.604315 51.272662 
L 557.201141 50.71071 
L 569.797966 50.71071 
L 582.394792 49.867784 
L 594.991617 49.867784 
L 607.588442 49.867784 
L 620.185268 49.867784 
L 632.782093 49.867784 
L 645.378919 49.867784 
L 657.975744 49.867784 
L 670.572569 49.867784 
L 683.169395 49.867784 
L 695.76622 49.867784 
L 708.363046 49.867784 
L 720.959871 49.867784 
L 733.556696 49.867784 
" clip-path="url(#pd7075685f8)" style="fill: none; stroke: #d62728; stroke-width: 1.5; stroke-linecap: square"/>
    <defs>
     <path id="mc5cb3e960c" d="M 0 -3 
L -3 3 
L 3 3 
z
" style="stroke: #ffffff; stroke-width: 0.75; stroke-linejoin: miter"/>
    </defs>
    <g clip-path="url(#pd7075685f8)">
     <use xlink:href="#mc5cb3e960c" x="53.328125" y="276.334125" style="fill: #d62728; stroke: #ffffff; stroke-width: 0.75; stroke-linejoin: miter"/>
     <use xlink:href="#mc5cb3e960c" x="65.92495" y="122.078515" style="fill: #d62728; stroke: #ffffff; stroke-width: 0.75; stroke-linejoin: miter"/>
     <use xlink:href="#mc5cb3e960c" x="78.521776" y="102.129247" style="fill: #d62728; stroke: #ffffff; stroke-width: 0.75; stroke-linejoin: miter"/>
     <use xlink:href="#mc5cb3e960c" x="91.118601" y="85.832662" style="fill: #d62728; stroke: #ffffff; stroke-width: 0.75; stroke-linejoin: miter"/>
     <use xlink:href="#mc5cb3e960c" x="103.715427" y="76.841442" style="fill: #d62728; stroke: #ffffff; stroke-width: 0.75; stroke-linejoin: miter"/>
     <use xlink:href="#mc5cb3e960c" x="116.312252" y="75.71754" style="fill: #d62728; stroke: #ffffff; stroke-width: 0.75; stroke-linejoin: miter"/>
     <use xlink:href="#mc5cb3e960c" x="128.909077" y="70.659979" style="fill: #d62728; stroke: #ffffff; stroke-width: 0.75; stroke-linejoin: miter"/>
     <use xlink:href="#mc5cb3e960c" x="141.505903" y="68.131198" style="fill: #d62728; stroke: #ffffff; stroke-width: 0.75; stroke-linejoin: miter"/>
     <use xlink:href="#mc5cb3e960c" x="154.102728" y="65.602418" style="fill: #d62728; stroke: #ffffff; stroke-width: 0.75; stroke-linejoin: miter"/>
     <use xlink:href="#mc5cb3e960c" x="166.699554" y="65.602418" style="fill: #d62728; stroke: #ffffff; stroke-width: 0.75; stroke-linejoin: miter"/>
     <use xlink:href="#mc5cb3e960c" x="179.296379" y="65.321442" style="fill: #d62728; stroke: #ffffff; stroke-width: 0.75; stroke-linejoin: miter"/>
     <use xlink:href="#mc5cb3e960c" x="191.893204" y="64.478515" style="fill: #d62728; stroke: #ffffff; stroke-width: 0.75; stroke-linejoin: miter"/>
     <use xlink:href="#mc5cb3e960c" x="204.49003" y="63.354613" style="fill: #d62728; stroke: #ffffff; stroke-width: 0.75; stroke-linejoin: miter"/>
     <use xlink:href="#mc5cb3e960c" x="217.086855" y="63.354613" style="fill: #d62728; stroke: #ffffff; stroke-width: 0.75; stroke-linejoin: miter"/>
     <use xlink:href="#mc5cb3e960c" x="229.683681" y="63.354613" style="fill: #d62728; stroke: #ffffff; stroke-width: 0.75; stroke-linejoin: miter"/>
     <use xlink:href="#mc5cb3e960c" x="242.280506" y="63.073637" style="fill: #d62728; stroke: #ffffff; stroke-width: 0.75; stroke-linejoin: miter"/>
     <use xlink:href="#mc5cb3e960c" x="254.877331" y="61.668759" style="fill: #d62728; stroke: #ffffff; stroke-width: 0.75; stroke-linejoin: miter"/>
     <use xlink:href="#mc5cb3e960c" x="267.474157" y="61.668759" style="fill: #d62728; stroke: #ffffff; stroke-width: 0.75; stroke-linejoin: miter"/>
     <use xlink:href="#mc5cb3e960c" x="280.070982" y="61.668759" style="fill: #d62728; stroke: #ffffff; stroke-width: 0.75; stroke-linejoin: miter"/>
     <use xlink:href="#mc5cb3e960c" x="292.667808" y="61.668759" style="fill: #d62728; stroke: #ffffff; stroke-width: 0.75; stroke-linejoin: miter"/>
     <use xlink:href="#mc5cb3e960c" x="305.264633" y="61.106808" style="fill: #d62728; stroke: #ffffff; stroke-width: 0.75; stroke-linejoin: miter"/>
     <use xlink:href="#mc5cb3e960c" x="317.861458" y="56.049247" style="fill: #d62728; stroke: #ffffff; stroke-width: 0.75; stroke-linejoin: miter"/>
     <use xlink:href="#mc5cb3e960c" x="330.458284" y="55.768271" style="fill: #d62728; stroke: #ffffff; stroke-width: 0.75; stroke-linejoin: miter"/>
     <use xlink:href="#mc5cb3e960c" x="343.055109" y="55.768271" style="fill: #d62728; stroke: #ffffff; stroke-width: 0.75; stroke-linejoin: miter"/>
     <use xlink:href="#mc5cb3e960c" x="355.651935" y="55.768271" style="fill: #d62728; stroke: #ffffff; stroke-width: 0.75; stroke-linejoin: miter"/>
     <use xlink:href="#mc5cb3e960c" x="368.24876" y="54.925345" style="fill: #d62728; stroke: #ffffff; stroke-width: 0.75; stroke-linejoin: miter"/>
     <use xlink:href="#mc5cb3e960c" x="380.845585" y="54.925345" style="fill: #d62728; stroke: #ffffff; stroke-width: 0.75; stroke-linejoin: miter"/>
     <use xlink:href="#mc5cb3e960c" x="393.442411" y="54.925345" style="fill: #d62728; stroke: #ffffff; stroke-width: 0.75; stroke-linejoin: miter"/>
     <use xlink:href="#mc5cb3e960c" x="406.039236" y="54.925345" style="fill: #d62728; stroke: #ffffff; stroke-width: 0.75; stroke-linejoin: miter"/>
     <use xlink:href="#mc5cb3e960c" x="418.636062" y="54.925345" style="fill: #d62728; stroke: #ffffff; stroke-width: 0.75; stroke-linejoin: miter"/>
     <use xlink:href="#mc5cb3e960c" x="431.232887" y="54.925345" style="fill: #d62728; stroke: #ffffff; stroke-width: 0.75; stroke-linejoin: miter"/>
     <use xlink:href="#mc5cb3e960c" x="443.829712" y="54.925345" style="fill: #d62728; stroke: #ffffff; stroke-width: 0.75; stroke-linejoin: miter"/>
     <use xlink:href="#mc5cb3e960c" x="456.426538" y="54.925345" style="fill: #d62728; stroke: #ffffff; stroke-width: 0.75; stroke-linejoin: miter"/>
     <use xlink:href="#mc5cb3e960c" x="469.023363" y="54.925345" style="fill: #d62728; stroke: #ffffff; stroke-width: 0.75; stroke-linejoin: miter"/>
     <use xlink:href="#mc5cb3e960c" x="481.620188" y="51.834613" style="fill: #d62728; stroke: #ffffff; stroke-width: 0.75; stroke-linejoin: miter"/>
     <use xlink:href="#mc5cb3e960c" x="494.217014" y="51.272662" style="fill: #d62728; stroke: #ffffff; stroke-width: 0.75; stroke-linejoin: miter"/>
     <use xlink:href="#mc5cb3e960c" x="506.813839" y="51.272662" style="fill: #d62728; stroke: #ffffff; stroke-width: 0.75; stroke-linejoin: miter"/>
     <use xlink:href="#mc5cb3e960c" x="519.410665" y="51.272662" style="fill: #d62728; stroke: #ffffff; stroke-width: 0.75; stroke-linejoin: miter"/>
     <use xlink:href="#mc5cb3e960c" x="532.00749" y="51.272662" style="fill: #d62728; stroke: #ffffff; stroke-width: 0.75; stroke-linejoin: miter"/>
     <use xlink:href="#mc5cb3e960c" x="544.604315" y="51.272662" style="fill: #d62728; stroke: #ffffff; stroke-width: 0.75; stroke-linejoin: miter"/>
     <use xlink:href="#mc5cb3e960c" x="557.201141" y="50.71071" style="fill: #d62728; stroke: #ffffff; stroke-width: 0.75; stroke-linejoin: miter"/>
     <use xlink:href="#mc5cb3e960c" x="569.797966" y="50.71071" style="fill: #d62728; stroke: #ffffff; stroke-width: 0.75; stroke-linejoin: miter"/>
     <use xlink:href="#mc5cb3e960c" x="582.394792" y="49.867784" style="fill: #d62728; stroke: #ffffff; stroke-width: 0.75; stroke-linejoin: miter"/>
     <use xlink:href="#mc5cb3e960c" x="594.991617" y="49.867784" style="fill: #d62728; stroke: #ffffff; stroke-width: 0.75; stroke-linejoin: miter"/>
     <use xlink:href="#mc5cb3e960c" x="607.588442" y="49.867784" style="fill: #d62728; stroke: #ffffff; stroke-width: 0.75; stroke-linejoin: miter"/>
     <use xlink:href="#mc5cb3e960c" x="620.185268" y="49.867784" style="fill: #d62728; stroke: #ffffff; stroke-width: 0.75; stroke-linejoin: miter"/>
     <use xlink:href="#mc5cb3e960c" x="632.782093" y="49.867784" style="fill: #d62728; stroke: #ffffff; stroke-width: 0.75; stroke-linejoin: miter"/>
     <use xlink:href="#mc5cb3e960c" x="645.378919" y="49.867784" style="fill: #d62728; stroke: #ffffff; stroke-width: 0.75; stroke-linejoin: miter"/>
     <use xlink:href="#mc5cb3e960c" x="657.975744" y="49.867784" style="fill: #d62728; stroke: #ffffff; stroke-width: 0.75; stroke-linejoin: miter"/>
     <use xlink:href="#mc5cb3e960c" x="670.572569" y="49.867784" style="fill: #d62728; stroke: #ffffff; stroke-width: 0.75; stroke-linejoin: miter"/>
     <use xlink:href="#mc5cb3e960c" x="683.169395" y="49.867784" style="fill: #d62728; stroke: #ffffff; stroke-width: 0.75; stroke-linejoin: miter"/>
     <use xlink:href="#mc5cb3e960c" x="695.76622" y="49.867784" style="fill: #d62728; stroke: #ffffff; stroke-width: 0.75; stroke-linejoin: miter"/>
     <use xlink:href="#mc5cb3e960c" x="708.363046" y="49.867784" style="fill: #d62728; stroke: #ffffff; stroke-width: 0.75; stroke-linejoin: miter"/>
     <use xlink:href="#mc5cb3e960c" x="720.959871" y="49.867784" style="fill: #d62728; stroke: #ffffff; stroke-width: 0.75; stroke-linejoin: miter"/>
     <use xlink:href="#mc5cb3e960c" x="733.556696" y="49.867784" style="fill: #d62728; stroke: #ffffff; stroke-width: 0.75; stroke-linejoin: miter"/>
    </g>
   </g>
   <g id="line2d_21">
    <path d="M 53.328125 276.334125 
L 65.92495 108.029735 
L 78.521776 96.228759 
L 91.118601 95.947784 
L 103.715427 94.26193 
L 116.312252 77.403393 
L 128.909077 77.403393 
L 141.505903 76.841442 
L 154.102728 76.841442 
L 166.699554 76.841442 
L 179.296379 76.841442 
L 191.893204 76.560466 
L 204.49003 76.560466 
L 217.086855 67.007296 
L 229.683681 58.578027 
L 242.280506 56.330223 
L 254.877331 54.925345 
L 267.474157 54.644369 
L 280.070982 54.644369 
L 292.667808 54.363393 
L 305.264633 54.082418 
L 317.861458 54.082418 
L 330.458284 53.801442 
L 343.055109 53.801442 
L 355.651935 53.801442 
L 368.24876 53.801442 
L 380.845585 53.801442 
L 393.442411 53.801442 
L 406.039236 53.801442 
L 418.636062 53.801442 
L 431.232887 53.801442 
L 443.829712 53.801442 
L 456.426538 53.801442 
L 469.023363 53.801442 
L 481.620188 53.801442 
L 494.217014 53.801442 
L 506.813839 53.801442 
L 519.410665 53.801442 
L 532.00749 53.520466 
L 544.604315 53.239491 
L 557.201141 52.115588 
L 569.797966 51.553637 
L 582.394792 50.991686 
L 594.991617 50.991686 
L 607.588442 50.991686 
L 620.185268 50.991686 
L 632.782093 50.991686 
L 645.378919 50.991686 
L 657.975744 50.991686 
L 670.572569 50.991686 
L 683.169395 50.71071 
L 695.76622 50.71071 
L 708.363046 50.71071 
L 720.959871 50.71071 
L 733.556696 50.71071 
" clip-path="url(#pd7075685f8)" style="fill: none; stroke: #98df8a; stroke-width: 1.5; stroke-linecap: square"/>
    <defs>
     <path id="m80b114c9a5" d="M -0 3 
L 3 -3 
L -3 -3 
z
" style="stroke: #ffffff; stroke-width: 0.75; stroke-linejoin: miter"/>
    </defs>
    <g clip-path="url(#pd7075685f8)">
     <use xlink:href="#m80b114c9a5" x="53.328125" y="276.334125" style="fill: #98df8a; stroke: #ffffff; stroke-width: 0.75; stroke-linejoin: miter"/>
     <use xlink:href="#m80b114c9a5" x="65.92495" y="108.029735" style="fill: #98df8a; stroke: #ffffff; stroke-width: 0.75; stroke-linejoin: miter"/>
     <use xlink:href="#m80b114c9a5" x="78.521776" y="96.228759" style="fill: #98df8a; stroke: #ffffff; stroke-width: 0.75; stroke-linejoin: miter"/>
     <use xlink:href="#m80b114c9a5" x="91.118601" y="95.947784" style="fill: #98df8a; stroke: #ffffff; stroke-width: 0.75; stroke-linejoin: miter"/>
     <use xlink:href="#m80b114c9a5" x="103.715427" y="94.26193" style="fill: #98df8a; stroke: #ffffff; stroke-width: 0.75; stroke-linejoin: miter"/>
     <use xlink:href="#m80b114c9a5" x="116.312252" y="77.403393" style="fill: #98df8a; stroke: #ffffff; stroke-width: 0.75; stroke-linejoin: miter"/>
     <use xlink:href="#m80b114c9a5" x="128.909077" y="77.403393" style="fill: #98df8a; stroke: #ffffff; stroke-width: 0.75; stroke-linejoin: miter"/>
     <use xlink:href="#m80b114c9a5" x="141.505903" y="76.841442" style="fill: #98df8a; stroke: #ffffff; stroke-width: 0.75; stroke-linejoin: miter"/>
     <use xlink:href="#m80b114c9a5" x="154.102728" y="76.841442" style="fill: #98df8a; stroke: #ffffff; stroke-width: 0.75; stroke-linejoin: miter"/>
     <use xlink:href="#m80b114c9a5" x="166.699554" y="76.841442" style="fill: #98df8a; stroke: #ffffff; stroke-width: 0.75; stroke-linejoin: miter"/>
     <use xlink:href="#m80b114c9a5" x="179.296379" y="76.841442" style="fill: #98df8a; stroke: #ffffff; stroke-width: 0.75; stroke-linejoin: miter"/>
     <use xlink:href="#m80b114c9a5" x="191.893204" y="76.560466" style="fill: #98df8a; stroke: #ffffff; stroke-width: 0.75; stroke-linejoin: miter"/>
     <use xlink:href="#m80b114c9a5" x="204.49003" y="76.560466" style="fill: #98df8a; stroke: #ffffff; stroke-width: 0.75; stroke-linejoin: miter"/>
     <use xlink:href="#m80b114c9a5" x="217.086855" y="67.007296" style="fill: #98df8a; stroke: #ffffff; stroke-width: 0.75; stroke-linejoin: miter"/>
     <use xlink:href="#m80b114c9a5" x="229.683681" y="58.578027" style="fill: #98df8a; stroke: #ffffff; stroke-width: 0.75; stroke-linejoin: miter"/>
     <use xlink:href="#m80b114c9a5" x="242.280506" y="56.330223" style="fill: #98df8a; stroke: #ffffff; stroke-width: 0.75; stroke-linejoin: miter"/>
     <use xlink:href="#m80b114c9a5" x="254.877331" y="54.925345" style="fill: #98df8a; stroke: #ffffff; stroke-width: 0.75; stroke-linejoin: miter"/>
     <use xlink:href="#m80b114c9a5" x="267.474157" y="54.644369" style="fill: #98df8a; stroke: #ffffff; stroke-width: 0.75; stroke-linejoin: miter"/>
     <use xlink:href="#m80b114c9a5" x="280.070982" y="54.644369" style="fill: #98df8a; stroke: #ffffff; stroke-width: 0.75; stroke-linejoin: miter"/>
     <use xlink:href="#m80b114c9a5" x="292.667808" y="54.363393" style="fill: #98df8a; stroke: #ffffff; stroke-width: 0.75; stroke-linejoin: miter"/>
     <use xlink:href="#m80b114c9a5" x="305.264633" y="54.082418" style="fill: #98df8a; stroke: #ffffff; stroke-width: 0.75; stroke-linejoin: miter"/>
     <use xlink:href="#m80b114c9a5" x="317.861458" y="54.082418" style="fill: #98df8a; stroke: #ffffff; stroke-width: 0.75; stroke-linejoin: miter"/>
     <use xlink:href="#m80b114c9a5" x="330.458284" y="53.801442" style="fill: #98df8a; stroke: #ffffff; stroke-width: 0.75; stroke-linejoin: miter"/>
     <use xlink:href="#m80b114c9a5" x="343.055109" y="53.801442" style="fill: #98df8a; stroke: #ffffff; stroke-width: 0.75; stroke-linejoin: miter"/>
     <use xlink:href="#m80b114c9a5" x="355.651935" y="53.801442" style="fill: #98df8a; stroke: #ffffff; stroke-width: 0.75; stroke-linejoin: miter"/>
     <use xlink:href="#m80b114c9a5" x="368.24876" y="53.801442" style="fill: #98df8a; stroke: #ffffff; stroke-width: 0.75; stroke-linejoin: miter"/>
     <use xlink:href="#m80b114c9a5" x="380.845585" y="53.801442" style="fill: #98df8a; stroke: #ffffff; stroke-width: 0.75; stroke-linejoin: miter"/>
     <use xlink:href="#m80b114c9a5" x="393.442411" y="53.801442" style="fill: #98df8a; stroke: #ffffff; stroke-width: 0.75; stroke-linejoin: miter"/>
     <use xlink:href="#m80b114c9a5" x="406.039236" y="53.801442" style="fill: #98df8a; stroke: #ffffff; stroke-width: 0.75; stroke-linejoin: miter"/>
     <use xlink:href="#m80b114c9a5" x="418.636062" y="53.801442" style="fill: #98df8a; stroke: #ffffff; stroke-width: 0.75; stroke-linejoin: miter"/>
     <use xlink:href="#m80b114c9a5" x="431.232887" y="53.801442" style="fill: #98df8a; stroke: #ffffff; stroke-width: 0.75; stroke-linejoin: miter"/>
     <use xlink:href="#m80b114c9a5" x="443.829712" y="53.801442" style="fill: #98df8a; stroke: #ffffff; stroke-width: 0.75; stroke-linejoin: miter"/>
     <use xlink:href="#m80b114c9a5" x="456.426538" y="53.801442" style="fill: #98df8a; stroke: #ffffff; stroke-width: 0.75; stroke-linejoin: miter"/>
     <use xlink:href="#m80b114c9a5" x="469.023363" y="53.801442" style="fill: #98df8a; stroke: #ffffff; stroke-width: 0.75; stroke-linejoin: miter"/>
     <use xlink:href="#m80b114c9a5" x="481.620188" y="53.801442" style="fill: #98df8a; stroke: #ffffff; stroke-width: 0.75; stroke-linejoin: miter"/>
     <use xlink:href="#m80b114c9a5" x="494.217014" y="53.801442" style="fill: #98df8a; stroke: #ffffff; stroke-width: 0.75; stroke-linejoin: miter"/>
     <use xlink:href="#m80b114c9a5" x="506.813839" y="53.801442" style="fill: #98df8a; stroke: #ffffff; stroke-width: 0.75; stroke-linejoin: miter"/>
     <use xlink:href="#m80b114c9a5" x="519.410665" y="53.801442" style="fill: #98df8a; stroke: #ffffff; stroke-width: 0.75; stroke-linejoin: miter"/>
     <use xlink:href="#m80b114c9a5" x="532.00749" y="53.520466" style="fill: #98df8a; stroke: #ffffff; stroke-width: 0.75; stroke-linejoin: miter"/>
     <use xlink:href="#m80b114c9a5" x="544.604315" y="53.239491" style="fill: #98df8a; stroke: #ffffff; stroke-width: 0.75; stroke-linejoin: miter"/>
     <use xlink:href="#m80b114c9a5" x="557.201141" y="52.115588" style="fill: #98df8a; stroke: #ffffff; stroke-width: 0.75; stroke-linejoin: miter"/>
     <use xlink:href="#m80b114c9a5" x="569.797966" y="51.553637" style="fill: #98df8a; stroke: #ffffff; stroke-width: 0.75; stroke-linejoin: miter"/>
     <use xlink:href="#m80b114c9a5" x="582.394792" y="50.991686" style="fill: #98df8a; stroke: #ffffff; stroke-width: 0.75; stroke-linejoin: miter"/>
     <use xlink:href="#m80b114c9a5" x="594.991617" y="50.991686" style="fill: #98df8a; stroke: #ffffff; stroke-width: 0.75; stroke-linejoin: miter"/>
     <use xlink:href="#m80b114c9a5" x="607.588442" y="50.991686" style="fill: #98df8a; stroke: #ffffff; stroke-width: 0.75; stroke-linejoin: miter"/>
     <use xlink:href="#m80b114c9a5" x="620.185268" y="50.991686" style="fill: #98df8a; stroke: #ffffff; stroke-width: 0.75; stroke-linejoin: miter"/>
     <use xlink:href="#m80b114c9a5" x="632.782093" y="50.991686" style="fill: #98df8a; stroke: #ffffff; stroke-width: 0.75; stroke-linejoin: miter"/>
     <use xlink:href="#m80b114c9a5" x="645.378919" y="50.991686" style="fill: #98df8a; stroke: #ffffff; stroke-width: 0.75; stroke-linejoin: miter"/>
     <use xlink:href="#m80b114c9a5" x="657.975744" y="50.991686" style="fill: #98df8a; stroke: #ffffff; stroke-width: 0.75; stroke-linejoin: miter"/>
     <use xlink:href="#m80b114c9a5" x="670.572569" y="50.991686" style="fill: #98df8a; stroke: #ffffff; stroke-width: 0.75; stroke-linejoin: miter"/>
     <use xlink:href="#m80b114c9a5" x="683.169395" y="50.71071" style="fill: #98df8a; stroke: #ffffff; stroke-width: 0.75; stroke-linejoin: miter"/>
     <use xlink:href="#m80b114c9a5" x="695.76622" y="50.71071" style="fill: #98df8a; stroke: #ffffff; stroke-width: 0.75; stroke-linejoin: miter"/>
     <use xlink:href="#m80b114c9a5" x="708.363046" y="50.71071" style="fill: #98df8a; stroke: #ffffff; stroke-width: 0.75; stroke-linejoin: miter"/>
     <use xlink:href="#m80b114c9a5" x="720.959871" y="50.71071" style="fill: #98df8a; stroke: #ffffff; stroke-width: 0.75; stroke-linejoin: miter"/>
     <use xlink:href="#m80b114c9a5" x="733.556696" y="50.71071" style="fill: #98df8a; stroke: #ffffff; stroke-width: 0.75; stroke-linejoin: miter"/>
    </g>
   </g>
   <g id="line2d_22">
    <path d="M 53.328125 276.334125 
L 65.92495 126.293149 
L 78.521776 92.576076 
L 91.118601 85.832662 
L 103.715427 77.403393 
L 116.312252 73.469735 
L 128.909077 67.850223 
L 141.505903 66.164369 
L 154.102728 61.106808 
L 166.699554 59.982905 
L 179.296379 59.982905 
L 191.893204 58.297052 
L 204.49003 58.297052 
L 217.086855 58.297052 
L 229.683681 58.297052 
L 242.280506 58.297052 
L 254.877331 58.297052 
L 267.474157 57.735101 
L 280.070982 57.735101 
L 292.667808 56.049247 
L 305.264633 56.049247 
L 317.861458 56.049247 
L 330.458284 56.049247 
L 343.055109 55.487296 
L 355.651935 55.487296 
L 368.24876 55.487296 
L 380.845585 55.487296 
L 393.442411 54.363393 
L 406.039236 54.363393 
L 418.636062 54.363393 
L 431.232887 54.363393 
L 443.829712 54.363393 
L 456.426538 54.363393 
L 469.023363 53.801442 
L 481.620188 50.991686 
L 494.217014 49.305832 
L 506.813839 49.305832 
L 519.410665 49.305832 
L 532.00749 49.305832 
L 544.604315 49.305832 
L 557.201141 49.305832 
L 569.797966 49.305832 
L 582.394792 49.305832 
L 594.991617 49.305832 
L 607.588442 49.305832 
L 620.185268 49.305832 
L 632.782093 49.305832 
L 645.378919 49.305832 
L 657.975744 49.305832 
L 670.572569 49.305832 
L 683.169395 49.305832 
L 695.76622 49.305832 
L 708.363046 49.305832 
L 720.959871 49.305832 
L 733.556696 49.305832 
" clip-path="url(#pd7075685f8)" style="fill: none; stroke: #c7c7c7; stroke-width: 1.5; stroke-linecap: square"/>
    <defs>
     <path id="m7bd5435a98" d="M -3 -0 
L 3 3 
L 3 -3 
z
" style="stroke: #ffffff; stroke-width: 0.75; stroke-linejoin: miter"/>
    </defs>
    <g clip-path="url(#pd7075685f8)">
     <use xlink:href="#m7bd5435a98" x="53.328125" y="276.334125" style="fill: #c7c7c7; stroke: #ffffff; stroke-width: 0.75; stroke-linejoin: miter"/>
     <use xlink:href="#m7bd5435a98" x="65.92495" y="126.293149" style="fill: #c7c7c7; stroke: #ffffff; stroke-width: 0.75; stroke-linejoin: miter"/>
     <use xlink:href="#m7bd5435a98" x="78.521776" y="92.576076" style="fill: #c7c7c7; stroke: #ffffff; stroke-width: 0.75; stroke-linejoin: miter"/>
     <use xlink:href="#m7bd5435a98" x="91.118601" y="85.832662" style="fill: #c7c7c7; stroke: #ffffff; stroke-width: 0.75; stroke-linejoin: miter"/>
     <use xlink:href="#m7bd5435a98" x="103.715427" y="77.403393" style="fill: #c7c7c7; stroke: #ffffff; stroke-width: 0.75; stroke-linejoin: miter"/>
     <use xlink:href="#m7bd5435a98" x="116.312252" y="73.469735" style="fill: #c7c7c7; stroke: #ffffff; stroke-width: 0.75; stroke-linejoin: miter"/>
     <use xlink:href="#m7bd5435a98" x="128.909077" y="67.850223" style="fill: #c7c7c7; stroke: #ffffff; stroke-width: 0.75; stroke-linejoin: miter"/>
     <use xlink:href="#m7bd5435a98" x="141.505903" y="66.164369" style="fill: #c7c7c7; stroke: #ffffff; stroke-width: 0.75; stroke-linejoin: miter"/>
     <use xlink:href="#m7bd5435a98" x="154.102728" y="61.106808" style="fill: #c7c7c7; stroke: #ffffff; stroke-width: 0.75; stroke-linejoin: miter"/>
     <use xlink:href="#m7bd5435a98" x="166.699554" y="59.982905" style="fill: #c7c7c7; stroke: #ffffff; stroke-width: 0.75; stroke-linejoin: miter"/>
     <use xlink:href="#m7bd5435a98" x="179.296379" y="59.982905" style="fill: #c7c7c7; stroke: #ffffff; stroke-width: 0.75; stroke-linejoin: miter"/>
     <use xlink:href="#m7bd5435a98" x="191.893204" y="58.297052" style="fill: #c7c7c7; stroke: #ffffff; stroke-width: 0.75; stroke-linejoin: miter"/>
     <use xlink:href="#m7bd5435a98" x="204.49003" y="58.297052" style="fill: #c7c7c7; stroke: #ffffff; stroke-width: 0.75; stroke-linejoin: miter"/>
     <use xlink:href="#m7bd5435a98" x="217.086855" y="58.297052" style="fill: #c7c7c7; stroke: #ffffff; stroke-width: 0.75; stroke-linejoin: miter"/>
     <use xlink:href="#m7bd5435a98" x="229.683681" y="58.297052" style="fill: #c7c7c7; stroke: #ffffff; stroke-width: 0.75; stroke-linejoin: miter"/>
     <use xlink:href="#m7bd5435a98" x="242.280506" y="58.297052" style="fill: #c7c7c7; stroke: #ffffff; stroke-width: 0.75; stroke-linejoin: miter"/>
     <use xlink:href="#m7bd5435a98" x="254.877331" y="58.297052" style="fill: #c7c7c7; stroke: #ffffff; stroke-width: 0.75; stroke-linejoin: miter"/>
     <use xlink:href="#m7bd5435a98" x="267.474157" y="57.735101" style="fill: #c7c7c7; stroke: #ffffff; stroke-width: 0.75; stroke-linejoin: miter"/>
     <use xlink:href="#m7bd5435a98" x="280.070982" y="57.735101" style="fill: #c7c7c7; stroke: #ffffff; stroke-width: 0.75; stroke-linejoin: miter"/>
     <use xlink:href="#m7bd5435a98" x="292.667808" y="56.049247" style="fill: #c7c7c7; stroke: #ffffff; stroke-width: 0.75; stroke-linejoin: miter"/>
     <use xlink:href="#m7bd5435a98" x="305.264633" y="56.049247" style="fill: #c7c7c7; stroke: #ffffff; stroke-width: 0.75; stroke-linejoin: miter"/>
     <use xlink:href="#m7bd5435a98" x="317.861458" y="56.049247" style="fill: #c7c7c7; stroke: #ffffff; stroke-width: 0.75; stroke-linejoin: miter"/>
     <use xlink:href="#m7bd5435a98" x="330.458284" y="56.049247" style="fill: #c7c7c7; stroke: #ffffff; stroke-width: 0.75; stroke-linejoin: miter"/>
     <use xlink:href="#m7bd5435a98" x="343.055109" y="55.487296" style="fill: #c7c7c7; stroke: #ffffff; stroke-width: 0.75; stroke-linejoin: miter"/>
     <use xlink:href="#m7bd5435a98" x="355.651935" y="55.487296" style="fill: #c7c7c7; stroke: #ffffff; stroke-width: 0.75; stroke-linejoin: miter"/>
     <use xlink:href="#m7bd5435a98" x="368.24876" y="55.487296" style="fill: #c7c7c7; stroke: #ffffff; stroke-width: 0.75; stroke-linejoin: miter"/>
     <use xlink:href="#m7bd5435a98" x="380.845585" y="55.487296" style="fill: #c7c7c7; stroke: #ffffff; stroke-width: 0.75; stroke-linejoin: miter"/>
     <use xlink:href="#m7bd5435a98" x="393.442411" y="54.363393" style="fill: #c7c7c7; stroke: #ffffff; stroke-width: 0.75; stroke-linejoin: miter"/>
     <use xlink:href="#m7bd5435a98" x="406.039236" y="54.363393" style="fill: #c7c7c7; stroke: #ffffff; stroke-width: 0.75; stroke-linejoin: miter"/>
     <use xlink:href="#m7bd5435a98" x="418.636062" y="54.363393" style="fill: #c7c7c7; stroke: #ffffff; stroke-width: 0.75; stroke-linejoin: miter"/>
     <use xlink:href="#m7bd5435a98" x="431.232887" y="54.363393" style="fill: #c7c7c7; stroke: #ffffff; stroke-width: 0.75; stroke-linejoin: miter"/>
     <use xlink:href="#m7bd5435a98" x="443.829712" y="54.363393" style="fill: #c7c7c7; stroke: #ffffff; stroke-width: 0.75; stroke-linejoin: miter"/>
     <use xlink:href="#m7bd5435a98" x="456.426538" y="54.363393" style="fill: #c7c7c7; stroke: #ffffff; stroke-width: 0.75; stroke-linejoin: miter"/>
     <use xlink:href="#m7bd5435a98" x="469.023363" y="53.801442" style="fill: #c7c7c7; stroke: #ffffff; stroke-width: 0.75; stroke-linejoin: miter"/>
     <use xlink:href="#m7bd5435a98" x="481.620188" y="50.991686" style="fill: #c7c7c7; stroke: #ffffff; stroke-width: 0.75; stroke-linejoin: miter"/>
     <use xlink:href="#m7bd5435a98" x="494.217014" y="49.305832" style="fill: #c7c7c7; stroke: #ffffff; stroke-width: 0.75; stroke-linejoin: miter"/>
     <use xlink:href="#m7bd5435a98" x="506.813839" y="49.305832" style="fill: #c7c7c7; stroke: #ffffff; stroke-width: 0.75; stroke-linejoin: miter"/>
     <use xlink:href="#m7bd5435a98" x="519.410665" y="49.305832" style="fill: #c7c7c7; stroke: #ffffff; stroke-width: 0.75; stroke-linejoin: miter"/>
     <use xlink:href="#m7bd5435a98" x="532.00749" y="49.305832" style="fill: #c7c7c7; stroke: #ffffff; stroke-width: 0.75; stroke-linejoin: miter"/>
     <use xlink:href="#m7bd5435a98" x="544.604315" y="49.305832" style="fill: #c7c7c7; stroke: #ffffff; stroke-width: 0.75; stroke-linejoin: miter"/>
     <use xlink:href="#m7bd5435a98" x="557.201141" y="49.305832" style="fill: #c7c7c7; stroke: #ffffff; stroke-width: 0.75; stroke-linejoin: miter"/>
     <use xlink:href="#m7bd5435a98" x="569.797966" y="49.305832" style="fill: #c7c7c7; stroke: #ffffff; stroke-width: 0.75; stroke-linejoin: miter"/>
     <use xlink:href="#m7bd5435a98" x="582.394792" y="49.305832" style="fill: #c7c7c7; stroke: #ffffff; stroke-width: 0.75; stroke-linejoin: miter"/>
     <use xlink:href="#m7bd5435a98" x="594.991617" y="49.305832" style="fill: #c7c7c7; stroke: #ffffff; stroke-width: 0.75; stroke-linejoin: miter"/>
     <use xlink:href="#m7bd5435a98" x="607.588442" y="49.305832" style="fill: #c7c7c7; stroke: #ffffff; stroke-width: 0.75; stroke-linejoin: miter"/>
     <use xlink:href="#m7bd5435a98" x="620.185268" y="49.305832" style="fill: #c7c7c7; stroke: #ffffff; stroke-width: 0.75; stroke-linejoin: miter"/>
     <use xlink:href="#m7bd5435a98" x="632.782093" y="49.305832" style="fill: #c7c7c7; stroke: #ffffff; stroke-width: 0.75; stroke-linejoin: miter"/>
     <use xlink:href="#m7bd5435a98" x="645.378919" y="49.305832" style="fill: #c7c7c7; stroke: #ffffff; stroke-width: 0.75; stroke-linejoin: miter"/>
     <use xlink:href="#m7bd5435a98" x="657.975744" y="49.305832" style="fill: #c7c7c7; stroke: #ffffff; stroke-width: 0.75; stroke-linejoin: miter"/>
     <use xlink:href="#m7bd5435a98" x="670.572569" y="49.305832" style="fill: #c7c7c7; stroke: #ffffff; stroke-width: 0.75; stroke-linejoin: miter"/>
     <use xlink:href="#m7bd5435a98" x="683.169395" y="49.305832" style="fill: #c7c7c7; stroke: #ffffff; stroke-width: 0.75; stroke-linejoin: miter"/>
     <use xlink:href="#m7bd5435a98" x="695.76622" y="49.305832" style="fill: #c7c7c7; stroke: #ffffff; stroke-width: 0.75; stroke-linejoin: miter"/>
     <use xlink:href="#m7bd5435a98" x="708.363046" y="49.305832" style="fill: #c7c7c7; stroke: #ffffff; stroke-width: 0.75; stroke-linejoin: miter"/>
     <use xlink:href="#m7bd5435a98" x="720.959871" y="49.305832" style="fill: #c7c7c7; stroke: #ffffff; stroke-width: 0.75; stroke-linejoin: miter"/>
     <use xlink:href="#m7bd5435a98" x="733.556696" y="49.305832" style="fill: #c7c7c7; stroke: #ffffff; stroke-width: 0.75; stroke-linejoin: miter"/>
    </g>
   </g>
   <g id="line2d_23"/>
   <g id="line2d_24"/>
   <g id="line2d_25"/>
   <g id="line2d_26"/>
   <g id="line2d_27">
    <path d="M 733.556696 288.430125 
L 733.556696 22.318125 
" clip-path="url(#pd7075685f8)" style="fill: none; stroke: #ff0000; stroke-width: 1.5; stroke-linecap: square"/>
   </g>
   <g id="patch_3">
    <path d="M 53.328125 255.54193 
L 53.328125 30.761442 
" style="fill: none; stroke: #000000; stroke-width: 0.8; stroke-linejoin: miter; stroke-linecap: square"/>
   </g>
   <g id="patch_4">
    <path d="M 53.328125 288.430125 
L 733.556696 288.430125 
" style="fill: none; stroke: #000000; stroke-width: 0.8; stroke-linejoin: miter; stroke-linecap: square"/>
   </g>
   <g id="text_21">
    <!-- woff2_convert_woff2ttf_fuzzer (13h:30m, at least 4 trials/fuzzer) -->
    <g transform="translate(217.416875 16.318125) scale(0.12 -0.12)">
     <defs>
      <path id="DejaVuSans-77" d="M 269 3500 
L 844 3500 
L 1563 769 
L 2278 3500 
L 2956 3500 
L 3675 769 
L 4391 3500 
L 4966 3500 
L 4050 0 
L 3372 0 
L 2619 2869 
L 1863 0 
L 1184 0 
L 269 3500 
z
" transform="scale(0.015625)"/>
      <path id="DejaVuSans-66" d="M 2375 4863 
L 2375 4384 
L 1825 4384 
Q 1516 4384 1395 4259 
Q 1275 4134 1275 3809 
L 1275 3500 
L 2222 3500 
L 2222 3053 
L 1275 3053 
L 1275 0 
L 697 0 
L 697 3053 
L 147 3053 
L 147 3500 
L 697 3500 
L 697 3744 
Q 697 4328 969 4595 
Q 1241 4863 1831 4863 
L 2375 4863 
z
" transform="scale(0.015625)"/>
      <path id="DejaVuSans-5f" d="M 3263 -1063 
L 3263 -1509 
L -63 -1509 
L -63 -1063 
L 3263 -1063 
z
" transform="scale(0.015625)"/>
      <path id="DejaVuSans-7a" d="M 353 3500 
L 3084 3500 
L 3084 2975 
L 922 459 
L 3084 459 
L 3084 0 
L 275 0 
L 275 525 
L 2438 3041 
L 353 3041 
L 353 3500 
z
" transform="scale(0.015625)"/>
      <path id="DejaVuSans-2c" d="M 750 794 
L 1409 794 
L 1409 256 
L 897 -744 
L 494 -744 
L 750 256 
L 750 794 
z
" transform="scale(0.015625)"/>
      <path id="DejaVuSans-6c" d="M 603 4863 
L 1178 4863 
L 1178 0 
L 603 0 
L 603 4863 
z
" transform="scale(0.015625)"/>
      <path id="DejaVuSans-73" d="M 2834 3397 
L 2834 2853 
Q 2591 2978 2328 3040 
Q 2066 3103 1784 3103 
Q 1356 3103 1142 2972 
Q 928 2841 928 2578 
Q 928 2378 1081 2264 
Q 1234 2150 1697 2047 
L 1894 2003 
Q 2506 1872 2764 1633 
Q 3022 1394 3022 966 
Q 3022 478 2636 193 
Q 2250 -91 1575 -91 
Q 1294 -91 989 -36 
Q 684 19 347 128 
L 347 722 
Q 666 556 975 473 
Q 1284 391 1588 391 
Q 1994 391 2212 530 
Q 2431 669 2431 922 
Q 2431 1156 2273 1281 
Q 2116 1406 1581 1522 
L 1381 1569 
Q 847 1681 609 1914 
Q 372 2147 372 2553 
Q 372 3047 722 3315 
Q 1072 3584 1716 3584 
Q 2034 3584 2315 3537 
Q 2597 3491 2834 3397 
z
" transform="scale(0.015625)"/>
      <path id="DejaVuSans-2f" d="M 1625 4666 
L 2156 4666 
L 531 -594 
L 0 -594 
L 1625 4666 
z
" transform="scale(0.015625)"/>
     </defs>
     <use xlink:href="#DejaVuSans-77"/>
     <use xlink:href="#DejaVuSans-6f" transform="translate(81.787109 0)"/>
     <use xlink:href="#DejaVuSans-66" transform="translate(142.96875 0)"/>
     <use xlink:href="#DejaVuSans-66" transform="translate(178.173828 0)"/>
     <use xlink:href="#DejaVuSans-32" transform="translate(213.378906 0)"/>
     <use xlink:href="#DejaVuSans-5f" transform="translate(277.001953 0)"/>
     <use xlink:href="#DejaVuSans-63" transform="translate(327.001953 0)"/>
     <use xlink:href="#DejaVuSans-6f" transform="translate(381.982422 0)"/>
     <use xlink:href="#DejaVuSans-6e" transform="translate(443.164062 0)"/>
     <use xlink:href="#DejaVuSans-76" transform="translate(506.542969 0)"/>
     <use xlink:href="#DejaVuSans-65" transform="translate(565.722656 0)"/>
     <use xlink:href="#DejaVuSans-72" transform="translate(627.246094 0)"/>
     <use xlink:href="#DejaVuSans-74" transform="translate(668.359375 0)"/>
     <use xlink:href="#DejaVuSans-5f" transform="translate(707.568359 0)"/>
     <use xlink:href="#DejaVuSans-77" transform="translate(757.568359 0)"/>
     <use xlink:href="#DejaVuSans-6f" transform="translate(839.355469 0)"/>
     <use xlink:href="#DejaVuSans-66" transform="translate(900.537109 0)"/>
     <use xlink:href="#DejaVuSans-66" transform="translate(935.742188 0)"/>
     <use xlink:href="#DejaVuSans-32" transform="translate(970.947266 0)"/>
     <use xlink:href="#DejaVuSans-74" transform="translate(1034.570312 0)"/>
     <use xlink:href="#DejaVuSans-74" transform="translate(1073.779297 0)"/>
     <use xlink:href="#DejaVuSans-66" transform="translate(1112.988281 0)"/>
     <use xlink:href="#DejaVuSans-5f" transform="translate(1148.193359 0)"/>
     <use xlink:href="#DejaVuSans-66" transform="translate(1198.193359 0)"/>
     <use xlink:href="#DejaVuSans-75" transform="translate(1233.398438 0)"/>
     <use xlink:href="#DejaVuSans-7a" transform="translate(1296.777344 0)"/>
     <use xlink:href="#DejaVuSans-7a" transform="translate(1349.267578 0)"/>
     <use xlink:href="#DejaVuSans-65" transform="translate(1401.757812 0)"/>
     <use xlink:href="#DejaVuSans-72" transform="translate(1463.28125 0)"/>
     <use xlink:href="#DejaVuSans-20" transform="translate(1504.394531 0)"/>
     <use xlink:href="#DejaVuSans-28" transform="translate(1536.181641 0)"/>
     <use xlink:href="#DejaVuSans-31" transform="translate(1575.195312 0)"/>
     <use xlink:href="#DejaVuSans-33" transform="translate(1638.818359 0)"/>
     <use xlink:href="#DejaVuSans-68" transform="translate(1702.441406 0)"/>
     <use xlink:href="#DejaVuSans-3a" transform="translate(1765.820312 0)"/>
     <use xlink:href="#DejaVuSans-33" transform="translate(1799.511719 0)"/>
     <use xlink:href="#DejaVuSans-30" transform="translate(1863.134766 0)"/>
     <use xlink:href="#DejaVuSans-6d" transform="translate(1926.757812 0)"/>
     <use xlink:href="#DejaVuSans-2c" transform="translate(2024.169922 0)"/>
     <use xlink:href="#DejaVuSans-20" transform="translate(2055.957031 0)"/>
     <use xlink:href="#DejaVuSans-61" transform="translate(2087.744141 0)"/>
     <use xlink:href="#DejaVuSans-74" transform="translate(2149.023438 0)"/>
     <use xlink:href="#DejaVuSans-20" transform="translate(2188.232422 0)"/>
     <use xlink:href="#DejaVuSans-6c" transform="translate(2220.019531 0)"/>
     <use xlink:href="#DejaVuSans-65" transform="translate(2247.802734 0)"/>
     <use xlink:href="#DejaVuSans-61" transform="translate(2309.326172 0)"/>
     <use xlink:href="#DejaVuSans-73" transform="translate(2370.605469 0)"/>
     <use xlink:href="#DejaVuSans-74" transform="translate(2422.705078 0)"/>
     <use xlink:href="#DejaVuSans-20" transform="translate(2461.914062 0)"/>
     <use xlink:href="#DejaVuSans-34" transform="translate(2493.701172 0)"/>
     <use xlink:href="#DejaVuSans-20" transform="translate(2557.324219 0)"/>
     <use xlink:href="#DejaVuSans-74" transform="translate(2589.111328 0)"/>
     <use xlink:href="#DejaVuSans-72" transform="translate(2628.320312 0)"/>
     <use xlink:href="#DejaVuSans-69" transform="translate(2669.433594 0)"/>
     <use xlink:href="#DejaVuSans-61" transform="translate(2697.216797 0)"/>
     <use xlink:href="#DejaVuSans-6c" transform="translate(2758.496094 0)"/>
     <use xlink:href="#DejaVuSans-73" transform="translate(2786.279297 0)"/>
     <use xlink:href="#DejaVuSans-2f" transform="translate(2838.378906 0)"/>
     <use xlink:href="#DejaVuSans-66" transform="translate(2872.070312 0)"/>
     <use xlink:href="#DejaVuSans-75" transform="translate(2907.275391 0)"/>
     <use xlink:href="#DejaVuSans-7a" transform="translate(2970.654297 0)"/>
     <use xlink:href="#DejaVuSans-7a" transform="translate(3023.144531 0)"/>
     <use xlink:href="#DejaVuSans-65" transform="translate(3075.634766 0)"/>
     <use xlink:href="#DejaVuSans-72" transform="translate(3137.158203 0)"/>
     <use xlink:href="#DejaVuSans-29" transform="translate(3178.271484 0)"/>
    </g>
   </g>
   <g id="legend_1">
    <g id="line2d_28">
     <path d="M 771.568125 30.416562 
L 781.568125 30.416562 
L 791.568125 30.416562 
" style="fill: none; stroke: #1f77b4; stroke-width: 1.5; stroke-linecap: square"/>
     <g>
      <use xlink:href="#m41884524ac" x="781.568125" y="30.416562" style="fill: #1f77b4; stroke: #ffffff; stroke-width: 0.75"/>
     </g>
    </g>
    <g id="text_22">
     <!-- aflplusplus_440c -->
     <g transform="translate(799.568125 33.916562) scale(0.1 -0.1)">
      <defs>
       <path id="DejaVuSans-70" d="M 1159 525 
L 1159 -1331 
L 581 -1331 
L 581 3500 
L 1159 3500 
L 1159 2969 
Q 1341 3281 1617 3432 
Q 1894 3584 2278 3584 
Q 2916 3584 3314 3078 
Q 3713 2572 3713 1747 
Q 3713 922 3314 415 
Q 2916 -91 2278 -91 
Q 1894 -91 1617 61 
Q 1341 213 1159 525 
z
M 3116 1747 
Q 3116 2381 2855 2742 
Q 2594 3103 2138 3103 
Q 1681 3103 1420 2742 
Q 1159 2381 1159 1747 
Q 1159 1113 1420 752 
Q 1681 391 2138 391 
Q 2594 391 2855 752 
Q 3116 1113 3116 1747 
z
" transform="scale(0.015625)"/>
      </defs>
      <use xlink:href="#DejaVuSans-61"/>
      <use xlink:href="#DejaVuSans-66" transform="translate(61.279297 0)"/>
      <use xlink:href="#DejaVuSans-6c" transform="translate(96.484375 0)"/>
      <use xlink:href="#DejaVuSans-70" transform="translate(124.267578 0)"/>
      <use xlink:href="#DejaVuSans-6c" transform="translate(187.744141 0)"/>
      <use xlink:href="#DejaVuSans-75" transform="translate(215.527344 0)"/>
      <use xlink:href="#DejaVuSans-73" transform="translate(278.90625 0)"/>
      <use xlink:href="#DejaVuSans-70" transform="translate(331.005859 0)"/>
      <use xlink:href="#DejaVuSans-6c" transform="translate(394.482422 0)"/>
      <use xlink:href="#DejaVuSans-75" transform="translate(422.265625 0)"/>
      <use xlink:href="#DejaVuSans-73" transform="translate(485.644531 0)"/>
      <use xlink:href="#DejaVuSans-5f" transform="translate(537.744141 0)"/>
      <use xlink:href="#DejaVuSans-34" transform="translate(587.744141 0)"/>
      <use xlink:href="#DejaVuSans-34" transform="translate(651.367188 0)"/>
      <use xlink:href="#DejaVuSans-30" transform="translate(714.990234 0)"/>
      <use xlink:href="#DejaVuSans-63" transform="translate(778.613281 0)"/>
     </g>
    </g>
    <g id="line2d_29">
     <path d="M 771.568125 45.372813 
L 781.568125 45.372813 
L 791.568125 45.372813 
" style="fill: none; stroke: #d62728; stroke-width: 1.5; stroke-linecap: square"/>
     <g>
      <use xlink:href="#mc5cb3e960c" x="781.568125" y="45.372813" style="fill: #d62728; stroke: #ffffff; stroke-width: 0.75; stroke-linejoin: miter"/>
     </g>
    </g>
    <g id="text_23">
     <!-- aflplusplus_c11 -->
     <g transform="translate(799.568125 48.872813) scale(0.1 -0.1)">
      <use xlink:href="#DejaVuSans-61"/>
      <use xlink:href="#DejaVuSans-66" transform="translate(61.279297 0)"/>
      <use xlink:href="#DejaVuSans-6c" transform="translate(96.484375 0)"/>
      <use xlink:href="#DejaVuSans-70" transform="translate(124.267578 0)"/>
      <use xlink:href="#DejaVuSans-6c" transform="translate(187.744141 0)"/>
      <use xlink:href="#DejaVuSans-75" transform="translate(215.527344 0)"/>
      <use xlink:href="#DejaVuSans-73" transform="translate(278.90625 0)"/>
      <use xlink:href="#DejaVuSans-70" transform="translate(331.005859 0)"/>
      <use xlink:href="#DejaVuSans-6c" transform="translate(394.482422 0)"/>
      <use xlink:href="#DejaVuSans-75" transform="translate(422.265625 0)"/>
      <use xlink:href="#DejaVuSans-73" transform="translate(485.644531 0)"/>
      <use xlink:href="#DejaVuSans-5f" transform="translate(537.744141 0)"/>
      <use xlink:href="#DejaVuSans-63" transform="translate(587.744141 0)"/>
      <use xlink:href="#DejaVuSans-31" transform="translate(642.724609 0)"/>
      <use xlink:href="#DejaVuSans-31" transform="translate(706.347656 0)"/>
     </g>
    </g>
    <g id="line2d_30">
     <path d="M 771.568125 60.329063 
L 781.568125 60.329063 
L 791.568125 60.329063 
" style="fill: none; stroke: #98df8a; stroke-width: 1.5; stroke-linecap: square"/>
     <g>
      <use xlink:href="#m80b114c9a5" x="781.568125" y="60.329063" style="fill: #98df8a; stroke: #ffffff; stroke-width: 0.75; stroke-linejoin: miter"/>
     </g>
    </g>
    <g id="text_24">
     <!-- aflplusplus_500c -->
     <g transform="translate(799.568125 63.829063) scale(0.1 -0.1)">
      <use xlink:href="#DejaVuSans-61"/>
      <use xlink:href="#DejaVuSans-66" transform="translate(61.279297 0)"/>
      <use xlink:href="#DejaVuSans-6c" transform="translate(96.484375 0)"/>
      <use xlink:href="#DejaVuSans-70" transform="translate(124.267578 0)"/>
      <use xlink:href="#DejaVuSans-6c" transform="translate(187.744141 0)"/>
      <use xlink:href="#DejaVuSans-75" transform="translate(215.527344 0)"/>
      <use xlink:href="#DejaVuSans-73" transform="translate(278.90625 0)"/>
      <use xlink:href="#DejaVuSans-70" transform="translate(331.005859 0)"/>
      <use xlink:href="#DejaVuSans-6c" transform="translate(394.482422 0)"/>
      <use xlink:href="#DejaVuSans-75" transform="translate(422.265625 0)"/>
      <use xlink:href="#DejaVuSans-73" transform="translate(485.644531 0)"/>
      <use xlink:href="#DejaVuSans-5f" transform="translate(537.744141 0)"/>
      <use xlink:href="#DejaVuSans-35" transform="translate(587.744141 0)"/>
      <use xlink:href="#DejaVuSans-30" transform="translate(651.367188 0)"/>
      <use xlink:href="#DejaVuSans-30" transform="translate(714.990234 0)"/>
      <use xlink:href="#DejaVuSans-63" transform="translate(778.613281 0)"/>
     </g>
    </g>
    <g id="line2d_31">
     <path d="M 771.568125 75.285313 
L 781.568125 75.285313 
L 791.568125 75.285313 
" style="fill: none; stroke: #c7c7c7; stroke-width: 1.5; stroke-linecap: square"/>
     <g>
      <use xlink:href="#m7bd5435a98" x="781.568125" y="75.285313" style="fill: #c7c7c7; stroke: #ffffff; stroke-width: 0.75; stroke-linejoin: miter"/>
     </g>
    </g>
    <g id="text_25">
     <!-- aflplusplus_mopt -->
     <g transform="translate(799.568125 78.785313) scale(0.1 -0.1)">
      <use xlink:href="#DejaVuSans-61"/>
      <use xlink:href="#DejaVuSans-66" transform="translate(61.279297 0)"/>
      <use xlink:href="#DejaVuSans-6c" transform="translate(96.484375 0)"/>
      <use xlink:href="#DejaVuSans-70" transform="translate(124.267578 0)"/>
      <use xlink:href="#DejaVuSans-6c" transform="translate(187.744141 0)"/>
      <use xlink:href="#DejaVuSans-75" transform="translate(215.527344 0)"/>
      <use xlink:href="#DejaVuSans-73" transform="translate(278.90625 0)"/>
      <use xlink:href="#DejaVuSans-70" transform="translate(331.005859 0)"/>
      <use xlink:href="#DejaVuSans-6c" transform="translate(394.482422 0)"/>
      <use xlink:href="#DejaVuSans-75" transform="translate(422.265625 0)"/>
      <use xlink:href="#DejaVuSans-73" transform="translate(485.644531 0)"/>
      <use xlink:href="#DejaVuSans-5f" transform="translate(537.744141 0)"/>
      <use xlink:href="#DejaVuSans-6d" transform="translate(587.744141 0)"/>
      <use xlink:href="#DejaVuSans-6f" transform="translate(685.15625 0)"/>
      <use xlink:href="#DejaVuSans-70" transform="translate(746.337891 0)"/>
      <use xlink:href="#DejaVuSans-74" transform="translate(809.814453 0)"/>
     </g>
    </g>
   </g>
  </g>
 </g>
 <defs>
  <clipPath id="pd7075685f8">
   <rect x="53.328125" y="22.318125" width="714.24" height="266.112"/>
  </clipPath>
 </defs>
</svg>
