<?xml version="1.0" encoding="utf-8" standalone="no"?>
<!DOCTYPE svg PUBLIC "-//W3C//DTD SVG 1.1//EN"
  "http://www.w3.org/Graphics/SVG/1.1/DTD/svg11.dtd">
<svg xmlns:xlink="http://www.w3.org/1999/xlink" width="889.307188pt" height="325.986375pt" viewBox="0 0 889.307188 325.986375" xmlns="http://www.w3.org/2000/svg" version="1.1">
 <metadata>
  <rdf:RDF xmlns:dc="http://purl.org/dc/elements/1.1/" xmlns:cc="http://creativecommons.org/ns#" xmlns:rdf="http://www.w3.org/1999/02/22-rdf-syntax-ns#">
   <cc:Work>
    <dc:type rdf:resource="http://purl.org/dc/dcmitype/StillImage"/>
    <dc:date>2026-06-10T02:30:29.626184</dc:date>
    <dc:format>image/svg+xml</dc:format>
    <dc:creator>
     <cc:Agent>
      <dc:title>Matplotlib v3.10.9, https://matplotlib.org/</dc:title>
     </cc:Agent>
    </dc:creator>
   </cc:Work>
  </rdf:RDF>
 </metadata>
 <defs>
  <style type="text/css">*{stroke-linejoin: round; stroke-linecap: butt}</style>
 </defs>
 <g id="figure_1">
  <g id="patch_1">
   <path d="M 0 325.986375 
L 889.307188 325.986375 
L 889.307188 0 
L 0 0 
z
" style="fill: #ffffff"/>
  </g>
  <g id="axes_1">
   <g id="patch_2">
    <path d="M 46.965625 288.430125 
L 761.205625 288.430125 
L 761.205625 22.318125 
L 46.965625 22.318125 
z
" style="fill: #ffffff"/>
   </g>
   <g id="FillBetweenPolyCollection_1">
    <defs>
     <path id="m95f56658bd" d="M 46.965625 -49.65225 
L 46.965625 -49.65225 
L 543.116159 -284.823409 
L 582.792927 -284.823409 
L 606.002348 -284.823409 
L 622.469694 -284.823409 
L 635.24276 -284.823409 
L 645.679115 -284.823409 
L 654.502928 -284.823409 
L 662.146462 -286.380834 
L 668.888536 -286.380834 
L 674.919528 -286.380834 
L 680.375223 -286.380834 
L 685.355883 -286.380834 
L 689.937645 -286.380834 
L 694.179695 -286.380834 
L 698.128949 -286.380834 
L 701.823229 -286.380834 
L 705.293472 -286.380834 
L 708.565304 -286.380834 
L 711.660191 -286.380834 
L 714.596295 -286.380834 
L 717.389116 -286.380834 
L 720.05199 -286.380834 
L 722.596475 -286.380834 
L 725.03265 -286.380834 
L 727.369361 -286.380834 
L 729.614413 -286.380834 
L 731.774725 -286.380834 
L 733.856462 -286.380834 
L 735.865141 -286.380834 
L 737.805716 -286.380834 
L 739.682654 -286.380834 
L 741.499996 -286.380834 
L 743.261412 -286.380834 
L 744.970239 -286.380834 
L 746.629529 -286.380834 
L 748.242071 -286.380834 
L 749.810429 -286.380834 
L 751.336959 -286.380834 
L 752.823834 -286.380834 
L 754.273063 -286.380834 
L 755.686504 -286.380834 
L 757.065884 -286.380834 
L 758.412804 -286.380834 
L 758.412804 -291.57225 
L 758.412804 -291.57225 
L 757.065884 -291.57225 
L 755.686504 -291.57225 
L 754.273063 -291.57225 
L 752.823834 -291.57225 
L 751.336959 -291.57225 
L 749.810429 -291.57225 
L 748.242071 -291.57225 
L 746.629529 -291.57225 
L 744.970239 -291.57225 
L 743.261412 -291.57225 
L 741.499996 -291.57225 
L 739.682654 -289.495683 
L 737.805716 -289.495683 
L 735.865141 -289.495683 
L 733.856462 -289.495683 
L 731.774725 -289.495683 
L 729.614413 -289.495683 
L 727.369361 -289.495683 
L 725.03265 -289.495683 
L 722.596475 -289.495683 
L 720.05199 -289.495683 
L 717.389116 -289.495683 
L 714.596295 -289.495683 
L 711.660191 -289.495683 
L 708.565304 -289.495683 
L 705.293472 -289.495683 
L 701.823229 -289.495683 
L 698.128949 -289.495683 
L 694.179695 -289.495683 
L 689.937645 -289.495683 
L 685.355883 -289.495683 
L 680.375223 -289.495683 
L 674.919528 -289.495683 
L 668.888536 -289.495683 
L 662.146462 -289.495683 
L 654.502928 -289.495683 
L 645.679115 -289.495683 
L 635.24276 -289.495683 
L 622.469694 -287.678688 
L 606.002348 -287.678688 
L 582.792927 -287.678688 
L 543.116159 -287.678688 
L 46.965625 -49.65225 
z
" style="stroke: #d62728; stroke-opacity: 0.2"/>
    </defs>
    <g clip-path="url(#p3291181e5a)">
     <use xlink:href="#m95f56658bd" x="0" y="325.986375" style="fill: #d62728; fill-opacity: 0.2; stroke: #d62728; stroke-opacity: 0.2"/>
    </g>
   </g>
   <g id="FillBetweenPolyCollection_2">
    <defs>
     <path id="m1b61df8b77" d="M 46.965625 -49.65225 
L 46.965625 -49.65225 
L 543.116159 -283.265984 
L 582.792927 -283.785126 
L 606.002348 -283.785126 
L 622.469694 -283.785126 
L 635.24276 -283.785126 
L 645.679115 -283.785126 
L 654.502928 -283.785126 
L 662.146462 -283.785126 
L 668.888536 -285.34255 
L 674.919528 -285.34255 
L 680.375223 -285.34255 
L 685.355883 -286.380834 
L 689.937645 -286.380834 
L 694.179695 -286.899975 
L 698.128949 -286.899975 
L 701.823229 -286.899975 
L 705.293472 -286.899975 
L 708.565304 -286.899975 
L 711.660191 -286.899975 
L 714.596295 -286.899975 
L 717.389116 -286.899975 
L 720.05199 -286.899975 
L 722.596475 -286.899975 
L 725.03265 -286.899975 
L 727.369361 -286.899975 
L 729.614413 -286.899975 
L 731.774725 -286.899975 
L 733.856462 -286.899975 
L 735.865141 -286.899975 
L 737.805716 -286.899975 
L 739.682654 -286.899975 
L 741.499996 -286.899975 
L 743.261412 -286.899975 
L 744.970239 -286.899975 
L 746.629529 -286.899975 
L 748.242071 -286.899975 
L 749.810429 -286.899975 
L 751.336959 -286.899975 
L 752.823834 -286.899975 
L 754.273063 -286.899975 
L 755.686504 -286.899975 
L 757.065884 -286.899975 
L 758.412804 -286.899975 
L 758.412804 -290.014825 
L 758.412804 -290.014825 
L 757.065884 -290.014825 
L 755.686504 -290.014825 
L 754.273063 -290.014825 
L 752.823834 -290.014825 
L 751.336959 -290.014825 
L 749.810429 -290.014825 
L 748.242071 -290.014825 
L 746.629529 -290.014825 
L 744.970239 -290.014825 
L 743.261412 -290.014825 
L 741.499996 -290.014825 
L 739.682654 -290.014825 
L 737.805716 -290.014825 
L 735.865141 -290.014825 
L 733.856462 -290.014825 
L 731.774725 -290.014825 
L 729.614413 -290.014825 
L 727.369361 -290.014825 
L 725.03265 -290.014825 
L 722.596475 -290.014825 
L 720.05199 -290.014825 
L 717.389116 -290.014825 
L 714.596295 -290.014825 
L 711.660191 -290.014825 
L 708.565304 -290.014825 
L 705.293472 -290.014825 
L 701.823229 -290.014825 
L 698.128949 -290.014825 
L 694.179695 -290.014825 
L 689.937645 -290.014825 
L 685.355883 -290.014825 
L 680.375223 -290.014825 
L 674.919528 -290.014825 
L 668.888536 -290.014825 
L 662.146462 -290.014825 
L 654.502928 -290.014825 
L 645.679115 -290.014825 
L 635.24276 -290.014825 
L 622.469694 -290.014825 
L 606.002348 -290.014825 
L 582.792927 -290.014825 
L 543.116159 -289.495683 
L 46.965625 -49.65225 
z
" style="stroke: #c7c7c7; stroke-opacity: 0.2"/>
    </defs>
    <g clip-path="url(#p3291181e5a)">
     <use xlink:href="#m1b61df8b77" x="0" y="325.986375" style="fill: #c7c7c7; fill-opacity: 0.2; stroke: #c7c7c7; stroke-opacity: 0.2"/>
    </g>
   </g>
   <g id="FillBetweenPolyCollection_3">
    <defs>
     <path id="m9cf417cb60" d="M 46.965625 -49.65225 
L 46.965625 -49.65225 
L 543.116159 -285.861692 
L 582.792927 -286.380834 
L 606.002348 -286.380834 
L 622.469694 -286.380834 
L 635.24276 -286.380834 
L 645.679115 -286.380834 
L 654.502928 -286.380834 
L 662.146462 -286.380834 
L 668.888536 -286.380834 
L 674.919528 -286.380834 
L 680.375223 -286.380834 
L 685.355883 -286.380834 
L 689.937645 -286.380834 
L 694.179695 -286.380834 
L 698.128949 -286.380834 
L 701.823229 -286.380834 
L 705.293472 -286.380834 
L 708.565304 -286.380834 
L 711.660191 -286.380834 
L 714.596295 -286.380834 
L 717.389116 -286.380834 
L 720.05199 -286.380834 
L 722.596475 -286.380834 
L 725.03265 -286.380834 
L 727.369361 -286.380834 
L 729.614413 -286.380834 
L 731.774725 -286.380834 
L 733.856462 -286.380834 
L 735.865141 -286.380834 
L 737.805716 -286.380834 
L 739.682654 -286.380834 
L 741.499996 -286.380834 
L 743.261412 -286.380834 
L 744.970239 -286.380834 
L 746.629529 -286.380834 
L 748.242071 -286.380834 
L 749.810429 -286.380834 
L 751.336959 -286.380834 
L 752.823834 -286.380834 
L 754.273063 -286.380834 
L 755.686504 -286.380834 
L 757.065884 -286.380834 
L 758.412804 -286.380834 
L 758.412804 -289.495683 
L 758.412804 -289.495683 
L 757.065884 -289.495683 
L 755.686504 -289.495683 
L 754.273063 -289.495683 
L 752.823834 -289.495683 
L 751.336959 -289.495683 
L 749.810429 -289.495683 
L 748.242071 -289.495683 
L 746.629529 -289.495683 
L 744.970239 -289.495683 
L 743.261412 -289.495683 
L 741.499996 -289.495683 
L 739.682654 -289.495683 
L 737.805716 -289.495683 
L 735.865141 -289.495683 
L 733.856462 -289.495683 
L 731.774725 -289.495683 
L 729.614413 -289.495683 
L 727.369361 -289.495683 
L 725.03265 -289.495683 
L 722.596475 -288.976542 
L 720.05199 -288.976542 
L 717.389116 -288.976542 
L 714.596295 -288.4574 
L 711.660191 -288.4574 
L 708.565304 -288.4574 
L 705.293472 -288.4574 
L 701.823229 -288.4574 
L 698.128949 -288.4574 
L 694.179695 -288.4574 
L 689.937645 -288.4574 
L 685.355883 -288.4574 
L 680.375223 -288.4574 
L 674.919528 -288.4574 
L 668.888536 -288.4574 
L 662.146462 -288.4574 
L 654.502928 -288.4574 
L 645.679115 -288.4574 
L 635.24276 -288.4574 
L 622.469694 -288.4574 
L 606.002348 -288.4574 
L 582.792927 -288.4574 
L 543.116159 -288.4574 
L 46.965625 -49.65225 
z
" style="stroke: #98df8a; stroke-opacity: 0.2"/>
    </defs>
    <g clip-path="url(#p3291181e5a)">
     <use xlink:href="#m9cf417cb60" x="0" y="325.986375" style="fill: #98df8a; fill-opacity: 0.2; stroke: #98df8a; stroke-opacity: 0.2"/>
    </g>
   </g>
   <g id="FillBetweenPolyCollection_4">
    <defs>
     <path id="m3ffa34e9b4" d="M 46.965625 -49.65225 
L 46.965625 -49.65225 
L 543.116159 -282.227701 
L 582.792927 -282.227701 
L 606.002348 -282.227701 
L 622.469694 -282.227701 
L 635.24276 -282.227701 
L 645.679115 -282.227701 
L 654.502928 -282.227701 
L 662.146462 -282.227701 
L 668.888536 -282.227701 
L 674.919528 -282.227701 
L 680.375223 -282.227701 
L 685.355883 -282.227701 
L 689.937645 -282.227701 
L 694.179695 -282.227701 
L 698.128949 -282.227701 
L 701.823229 -282.227701 
L 705.293472 -282.227701 
L 708.565304 -282.227701 
L 711.660191 -282.227701 
L 714.596295 -282.227701 
L 717.389116 -282.227701 
L 720.05199 -282.227701 
L 722.596475 -282.227701 
L 725.03265 -282.227701 
L 727.369361 -282.227701 
L 729.614413 -282.227701 
L 731.774725 -282.227701 
L 733.856462 -282.227701 
L 735.865141 -282.227701 
L 737.805716 -282.227701 
L 739.682654 -282.227701 
L 741.499996 -282.227701 
L 743.261412 -282.227701 
L 744.970239 -282.227701 
L 746.629529 -282.227701 
L 748.242071 -282.227701 
L 749.810429 -282.227701 
L 751.336959 -282.227701 
L 752.823834 -282.227701 
L 754.273063 -282.227701 
L 755.686504 -283.265984 
L 757.065884 -283.265984 
L 758.412804 -283.265984 
L 758.412804 -289.495683 
L 758.412804 -289.495683 
L 757.065884 -289.495683 
L 755.686504 -289.495683 
L 754.273063 -289.495683 
L 752.823834 -289.495683 
L 751.336959 -289.495683 
L 749.810429 -289.495683 
L 748.242071 -289.495683 
L 746.629529 -289.495683 
L 744.970239 -289.495683 
L 743.261412 -289.495683 
L 741.499996 -289.495683 
L 739.682654 -289.495683 
L 737.805716 -289.495683 
L 735.865141 -289.495683 
L 733.856462 -289.495683 
L 731.774725 -289.495683 
L 729.614413 -288.4574 
L 727.369361 -288.4574 
L 725.03265 -288.4574 
L 722.596475 -288.4574 
L 720.05199 -288.4574 
L 717.389116 -288.4574 
L 714.596295 -288.4574 
L 711.660191 -288.4574 
L 708.565304 -288.4574 
L 705.293472 -288.4574 
L 701.823229 -288.4574 
L 698.128949 -288.4574 
L 694.179695 -288.4574 
L 689.937645 -287.938259 
L 685.355883 -287.938259 
L 680.375223 -287.938259 
L 674.919528 -287.938259 
L 668.888536 -287.938259 
L 662.146462 -287.938259 
L 654.502928 -287.938259 
L 645.679115 -287.938259 
L 635.24276 -287.938259 
L 622.469694 -287.938259 
L 606.002348 -287.938259 
L 582.792927 -286.380834 
L 543.116159 -286.380834 
L 46.965625 -49.65225 
z
" style="stroke: #1f77b4; stroke-opacity: 0.2"/>
    </defs>
    <g clip-path="url(#p3291181e5a)">
     <use xlink:href="#m3ffa34e9b4" x="0" y="325.986375" style="fill: #1f77b4; fill-opacity: 0.2; stroke: #1f77b4; stroke-opacity: 0.2"/>
    </g>
   </g>
   <g id="matplotlib.axis_1">
    <g id="xtick_1">
     <g id="line2d_1">
      <defs>
       <path id="m6f0924168a" d="M 0 0 
L 0 3.5 
" style="stroke: #000000; stroke-width: 0.8"/>
      </defs>
      <g>
       <use xlink:href="#m6f0924168a" x="46.965625" y="288.430125" style="stroke: #000000; stroke-width: 0.8"/>
      </g>
     </g>
     <g id="text_1">
      <!-- 0m -->
      <g transform="translate(38.914063 303.028562) scale(0.1 -0.1)">
       <defs>
        <path id="DejaVuSans-30" d="M 2034 4250 
Q 1547 4250 1301 3770 
Q 1056 3291 1056 2328 
Q 1056 1369 1301 889 
Q 1547 409 2034 409 
Q 2525 409 2770 889 
Q 3016 1369 3016 2328 
Q 3016 3291 2770 3770 
Q 2525 4250 2034 4250 
z
M 2034 4750 
Q 2819 4750 3233 4129 
Q 3647 3509 3647 2328 
Q 3647 1150 3233 529 
Q 2819 -91 2034 -91 
Q 1250 -91 836 529 
Q 422 1150 422 2328 
Q 422 3509 836 4129 
Q 1250 4750 2034 4750 
z
" transform="scale(0.015625)"/>
        <path id="DejaVuSans-6d" d="M 3328 2828 
Q 3544 3216 3844 3400 
Q 4144 3584 4550 3584 
Q 5097 3584 5394 3201 
Q 5691 2819 5691 2113 
L 5691 0 
L 5113 0 
L 5113 2094 
Q 5113 2597 4934 2840 
Q 4756 3084 4391 3084 
Q 3944 3084 3684 2787 
Q 3425 2491 3425 1978 
L 3425 0 
L 2847 0 
L 2847 2094 
Q 2847 2600 2669 2842 
Q 2491 3084 2119 3084 
Q 1678 3084 1418 2786 
Q 1159 2488 1159 1978 
L 1159 0 
L 581 0 
L 581 3500 
L 1159 3500 
L 1159 2956 
Q 1356 3278 1631 3431 
Q 1906 3584 2284 3584 
Q 2666 3584 2933 3390 
Q 3200 3197 3328 2828 
z
" transform="scale(0.015625)"/>
       </defs>
       <use xlink:href="#DejaVuSans-30"/>
       <use xlink:href="#DejaVuSans-6d" transform="translate(63.623047 0)"/>
      </g>
     </g>
    </g>
    <g id="xtick_2">
     <g id="line2d_2">
      <g>
       <use xlink:href="#m6f0924168a" x="120.189719" y="288.430125" style="stroke: #000000; stroke-width: 0.8"/>
      </g>
     </g>
    </g>
    <g id="xtick_3">
     <g id="line2d_3">
      <g>
       <use xlink:href="#m6f0924168a" x="214.204769" y="288.430125" style="stroke: #000000; stroke-width: 0.8"/>
      </g>
     </g>
    </g>
    <g id="xtick_4">
     <g id="line2d_4">
      <g>
       <use xlink:href="#m6f0924168a" x="274.672492" y="288.430125" style="stroke: #000000; stroke-width: 0.8"/>
      </g>
     </g>
    </g>
    <g id="xtick_5">
     <g id="line2d_5">
      <g>
       <use xlink:href="#m6f0924168a" x="335.140216" y="288.430125" style="stroke: #000000; stroke-width: 0.8"/>
      </g>
     </g>
    </g>
    <g id="xtick_6">
     <g id="line2d_6">
      <g>
       <use xlink:href="#m6f0924168a" x="395.60794" y="288.430125" style="stroke: #000000; stroke-width: 0.8"/>
      </g>
     </g>
     <g id="text_2">
      <!-- 1m -->
      <g transform="translate(387.556378 303.028562) scale(0.1 -0.1)">
       <defs>
        <path id="DejaVuSans-31" d="M 794 531 
L 1825 531 
L 1825 4091 
L 703 3866 
L 703 4441 
L 1819 4666 
L 2450 4666 
L 2450 531 
L 3481 531 
L 3481 0 
L 794 0 
L 794 531 
z
" transform="scale(0.015625)"/>
       </defs>
       <use xlink:href="#DejaVuSans-31"/>
       <use xlink:href="#DejaVuSans-6d" transform="translate(63.623047 0)"/>
      </g>
     </g>
    </g>
    <g id="xtick_7">
     <g id="line2d_7">
      <g>
       <use xlink:href="#m6f0924168a" x="456.075664" y="288.430125" style="stroke: #000000; stroke-width: 0.8"/>
      </g>
     </g>
     <g id="text_3">
      <!-- 3m -->
      <g transform="translate(448.024101 303.028562) scale(0.1 -0.1)">
       <defs>
        <path id="DejaVuSans-33" d="M 2597 2516 
Q 3050 2419 3304 2112 
Q 3559 1806 3559 1356 
Q 3559 666 3084 287 
Q 2609 -91 1734 -91 
Q 1441 -91 1130 -33 
Q 819 25 488 141 
L 488 750 
Q 750 597 1062 519 
Q 1375 441 1716 441 
Q 2309 441 2620 675 
Q 2931 909 2931 1356 
Q 2931 1769 2642 2001 
Q 2353 2234 1838 2234 
L 1294 2234 
L 1294 2753 
L 1863 2753 
Q 2328 2753 2575 2939 
Q 2822 3125 2822 3475 
Q 2822 3834 2567 4026 
Q 2313 4219 1838 4219 
Q 1578 4219 1281 4162 
Q 984 4106 628 3988 
L 628 4550 
Q 988 4650 1302 4700 
Q 1616 4750 1894 4750 
Q 2613 4750 3031 4423 
Q 3450 4097 3450 3541 
Q 3450 3153 3228 2886 
Q 3006 2619 2597 2516 
z
" transform="scale(0.015625)"/>
       </defs>
       <use xlink:href="#DejaVuSans-33"/>
       <use xlink:href="#DejaVuSans-6d" transform="translate(63.623047 0)"/>
      </g>
     </g>
    </g>
    <g id="xtick_8">
     <g id="line2d_8">
      <g>
       <use xlink:href="#m6f0924168a" x="516.543388" y="288.430125" style="stroke: #000000; stroke-width: 0.8"/>
      </g>
     </g>
     <g id="text_4">
      <!-- 9m -->
      <g transform="translate(508.491825 303.028562) scale(0.1 -0.1)">
       <defs>
        <path id="DejaVuSans-39" d="M 703 97 
L 703 672 
Q 941 559 1184 500 
Q 1428 441 1663 441 
Q 2288 441 2617 861 
Q 2947 1281 2994 2138 
Q 2813 1869 2534 1725 
Q 2256 1581 1919 1581 
Q 1219 1581 811 2004 
Q 403 2428 403 3163 
Q 403 3881 828 4315 
Q 1253 4750 1959 4750 
Q 2769 4750 3195 4129 
Q 3622 3509 3622 2328 
Q 3622 1225 3098 567 
Q 2575 -91 1691 -91 
Q 1453 -91 1209 -44 
Q 966 3 703 97 
z
M 1959 2075 
Q 2384 2075 2632 2365 
Q 2881 2656 2881 3163 
Q 2881 3666 2632 3958 
Q 2384 4250 1959 4250 
Q 1534 4250 1286 3958 
Q 1038 3666 1038 3163 
Q 1038 2656 1286 2365 
Q 1534 2075 1959 2075 
z
" transform="scale(0.015625)"/>
       </defs>
       <use xlink:href="#DejaVuSans-39"/>
       <use xlink:href="#DejaVuSans-6d" transform="translate(63.623047 0)"/>
      </g>
     </g>
    </g>
    <g id="xtick_9">
     <g id="line2d_9">
      <g>
       <use xlink:href="#m6f0924168a" x="577.011112" y="288.430125" style="stroke: #000000; stroke-width: 0.8"/>
      </g>
     </g>
     <g id="text_5">
      <!-- 27m -->
      <g transform="translate(565.778299 303.028562) scale(0.1 -0.1)">
       <defs>
        <path id="DejaVuSans-32" d="M 1228 531 
L 3431 531 
L 3431 0 
L 469 0 
L 469 531 
Q 828 903 1448 1529 
Q 2069 2156 2228 2338 
Q 2531 2678 2651 2914 
Q 2772 3150 2772 3378 
Q 2772 3750 2511 3984 
Q 2250 4219 1831 4219 
Q 1534 4219 1204 4116 
Q 875 4013 500 3803 
L 500 4441 
Q 881 4594 1212 4672 
Q 1544 4750 1819 4750 
Q 2544 4750 2975 4387 
Q 3406 4025 3406 3419 
Q 3406 3131 3298 2873 
Q 3191 2616 2906 2266 
Q 2828 2175 2409 1742 
Q 1991 1309 1228 531 
z
" transform="scale(0.015625)"/>
        <path id="DejaVuSans-37" d="M 525 4666 
L 3525 4666 
L 3525 4397 
L 1831 0 
L 1172 0 
L 2766 4134 
L 525 4134 
L 525 4666 
z
" transform="scale(0.015625)"/>
       </defs>
       <use xlink:href="#DejaVuSans-32"/>
       <use xlink:href="#DejaVuSans-37" transform="translate(63.623047 0)"/>
       <use xlink:href="#DejaVuSans-6d" transform="translate(127.246094 0)"/>
      </g>
     </g>
    </g>
    <g id="xtick_10">
     <g id="line2d_10">
      <g>
       <use xlink:href="#m6f0924168a" x="637.478835" y="288.430125" style="stroke: #000000; stroke-width: 0.8"/>
      </g>
     </g>
     <g id="text_6">
      <!-- 1h:17m -->
      <g transform="translate(618.211648 303.028562) scale(0.1 -0.1)">
       <defs>
        <path id="DejaVuSans-68" d="M 3513 2113 
L 3513 0 
L 2938 0 
L 2938 2094 
Q 2938 2591 2744 2837 
Q 2550 3084 2163 3084 
Q 1697 3084 1428 2787 
Q 1159 2491 1159 1978 
L 1159 0 
L 581 0 
L 581 4863 
L 1159 4863 
L 1159 2956 
Q 1366 3272 1645 3428 
Q 1925 3584 2291 3584 
Q 2894 3584 3203 3211 
Q 3513 2838 3513 2113 
z
" transform="scale(0.015625)"/>
        <path id="DejaVuSans-3a" d="M 750 794 
L 1409 794 
L 1409 0 
L 750 0 
L 750 794 
z
M 750 3309 
L 1409 3309 
L 1409 2516 
L 750 2516 
L 750 3309 
z
" transform="scale(0.015625)"/>
       </defs>
       <use xlink:href="#DejaVuSans-31"/>
       <use xlink:href="#DejaVuSans-68" transform="translate(63.623047 0)"/>
       <use xlink:href="#DejaVuSans-3a" transform="translate(127.001953 0)"/>
       <use xlink:href="#DejaVuSans-31" transform="translate(160.693359 0)"/>
       <use xlink:href="#DejaVuSans-37" transform="translate(224.316406 0)"/>
       <use xlink:href="#DejaVuSans-6d" transform="translate(287.939453 0)"/>
      </g>
     </g>
    </g>
    <g id="xtick_11">
     <g id="line2d_11">
      <g>
       <use xlink:href="#m6f0924168a" x="697.946559" y="288.430125" style="stroke: #000000; stroke-width: 0.8"/>
      </g>
     </g>
     <g id="text_7">
      <!-- 3h:44m -->
      <g transform="translate(678.679372 303.028562) scale(0.1 -0.1)">
       <defs>
        <path id="DejaVuSans-34" d="M 2419 4116 
L 825 1625 
L 2419 1625 
L 2419 4116 
z
M 2253 4666 
L 3047 4666 
L 3047 1625 
L 3713 1625 
L 3713 1100 
L 3047 1100 
L 3047 0 
L 2419 0 
L 2419 1100 
L 313 1100 
L 313 1709 
L 2253 4666 
z
" transform="scale(0.015625)"/>
       </defs>
       <use xlink:href="#DejaVuSans-33"/>
       <use xlink:href="#DejaVuSans-68" transform="translate(63.623047 0)"/>
       <use xlink:href="#DejaVuSans-3a" transform="translate(127.001953 0)"/>
       <use xlink:href="#DejaVuSans-34" transform="translate(160.693359 0)"/>
       <use xlink:href="#DejaVuSans-34" transform="translate(224.316406 0)"/>
       <use xlink:href="#DejaVuSans-6d" transform="translate(287.939453 0)"/>
      </g>
     </g>
    </g>
    <g id="xtick_12">
     <g id="line2d_12">
      <g>
       <use xlink:href="#m6f0924168a" x="758.414283" y="288.430125" style="stroke: #000000; stroke-width: 0.8"/>
      </g>
     </g>
     <g id="text_8">
      <!-- 10h:45m -->
      <g transform="translate(735.965846 303.028562) scale(0.1 -0.1)">
       <defs>
        <path id="DejaVuSans-35" d="M 691 4666 
L 3169 4666 
L 3169 4134 
L 1269 4134 
L 1269 2991 
Q 1406 3038 1543 3061 
Q 1681 3084 1819 3084 
Q 2600 3084 3056 2656 
Q 3513 2228 3513 1497 
Q 3513 744 3044 326 
Q 2575 -91 1722 -91 
Q 1428 -91 1123 -41 
Q 819 9 494 109 
L 494 744 
Q 775 591 1075 516 
Q 1375 441 1709 441 
Q 2250 441 2565 725 
Q 2881 1009 2881 1497 
Q 2881 1984 2565 2268 
Q 2250 2553 1709 2553 
Q 1456 2553 1204 2497 
Q 953 2441 691 2322 
L 691 4666 
z
" transform="scale(0.015625)"/>
       </defs>
       <use xlink:href="#DejaVuSans-31"/>
       <use xlink:href="#DejaVuSans-30" transform="translate(63.623047 0)"/>
       <use xlink:href="#DejaVuSans-68" transform="translate(127.246094 0)"/>
       <use xlink:href="#DejaVuSans-3a" transform="translate(190.625 0)"/>
       <use xlink:href="#DejaVuSans-34" transform="translate(224.316406 0)"/>
       <use xlink:href="#DejaVuSans-35" transform="translate(287.939453 0)"/>
       <use xlink:href="#DejaVuSans-6d" transform="translate(351.5625 0)"/>
      </g>
     </g>
    </g>
    <g id="text_9">
     <!-- Time (hour:minute) -->
     <g transform="translate(355.678594 316.706687) scale(0.1 -0.1)">
      <defs>
       <path id="DejaVuSans-54" d="M -19 4666 
L 3928 4666 
L 3928 4134 
L 2272 4134 
L 2272 0 
L 1638 0 
L 1638 4134 
L -19 4134 
L -19 4666 
z
" transform="scale(0.015625)"/>
       <path id="DejaVuSans-69" d="M 603 3500 
L 1178 3500 
L 1178 0 
L 603 0 
L 603 3500 
z
M 603 4863 
L 1178 4863 
L 1178 4134 
L 603 4134 
L 603 4863 
z
" transform="scale(0.015625)"/>
       <path id="DejaVuSans-65" d="M 3597 1894 
L 3597 1613 
L 953 1613 
Q 991 1019 1311 708 
Q 1631 397 2203 397 
Q 2534 397 2845 478 
Q 3156 559 3463 722 
L 3463 178 
Q 3153 47 2828 -22 
Q 2503 -91 2169 -91 
Q 1331 -91 842 396 
Q 353 884 353 1716 
Q 353 2575 817 3079 
Q 1281 3584 2069 3584 
Q 2775 3584 3186 3129 
Q 3597 2675 3597 1894 
z
M 3022 2063 
Q 3016 2534 2758 2815 
Q 2500 3097 2075 3097 
Q 1594 3097 1305 2825 
Q 1016 2553 972 2059 
L 3022 2063 
z
" transform="scale(0.015625)"/>
       <path id="DejaVuSans-20" transform="scale(0.015625)"/>
       <path id="DejaVuSans-28" d="M 1984 4856 
Q 1566 4138 1362 3434 
Q 1159 2731 1159 2009 
Q 1159 1288 1364 580 
Q 1569 -128 1984 -844 
L 1484 -844 
Q 1016 -109 783 600 
Q 550 1309 550 2009 
Q 550 2706 781 3412 
Q 1013 4119 1484 4856 
L 1984 4856 
z
" transform="scale(0.015625)"/>
       <path id="DejaVuSans-6f" d="M 1959 3097 
Q 1497 3097 1228 2736 
Q 959 2375 959 1747 
Q 959 1119 1226 758 
Q 1494 397 1959 397 
Q 2419 397 2687 759 
Q 2956 1122 2956 1747 
Q 2956 2369 2687 2733 
Q 2419 3097 1959 3097 
z
M 1959 3584 
Q 2709 3584 3137 3096 
Q 3566 2609 3566 1747 
Q 3566 888 3137 398 
Q 2709 -91 1959 -91 
Q 1206 -91 779 398 
Q 353 888 353 1747 
Q 353 2609 779 3096 
Q 1206 3584 1959 3584 
z
" transform="scale(0.015625)"/>
       <path id="DejaVuSans-75" d="M 544 1381 
L 544 3500 
L 1119 3500 
L 1119 1403 
Q 1119 906 1312 657 
Q 1506 409 1894 409 
Q 2359 409 2629 706 
Q 2900 1003 2900 1516 
L 2900 3500 
L 3475 3500 
L 3475 0 
L 2900 0 
L 2900 538 
Q 2691 219 2414 64 
Q 2138 -91 1772 -91 
Q 1169 -91 856 284 
Q 544 659 544 1381 
z
M 1991 3584 
L 1991 3584 
z
" transform="scale(0.015625)"/>
       <path id="DejaVuSans-72" d="M 2631 2963 
Q 2534 3019 2420 3045 
Q 2306 3072 2169 3072 
Q 1681 3072 1420 2755 
Q 1159 2438 1159 1844 
L 1159 0 
L 581 0 
L 581 3500 
L 1159 3500 
L 1159 2956 
Q 1341 3275 1631 3429 
Q 1922 3584 2338 3584 
Q 2397 3584 2469 3576 
Q 2541 3569 2628 3553 
L 2631 2963 
z
" transform="scale(0.015625)"/>
       <path id="DejaVuSans-6e" d="M 3513 2113 
L 3513 0 
L 2938 0 
L 2938 2094 
Q 2938 2591 2744 2837 
Q 2550 3084 2163 3084 
Q 1697 3084 1428 2787 
Q 1159 2491 1159 1978 
L 1159 0 
L 581 0 
L 581 3500 
L 1159 3500 
L 1159 2956 
Q 1366 3272 1645 3428 
Q 1925 3584 2291 3584 
Q 2894 3584 3203 3211 
Q 3513 2838 3513 2113 
z
" transform="scale(0.015625)"/>
       <path id="DejaVuSans-74" d="M 1172 4494 
L 1172 3500 
L 2356 3500 
L 2356 3053 
L 1172 3053 
L 1172 1153 
Q 1172 725 1289 603 
Q 1406 481 1766 481 
L 2356 481 
L 2356 0 
L 1766 0 
Q 1100 0 847 248 
Q 594 497 594 1153 
L 594 3053 
L 172 3053 
L 172 3500 
L 594 3500 
L 594 4494 
L 1172 4494 
z
" transform="scale(0.015625)"/>
       <path id="DejaVuSans-29" d="M 513 4856 
L 1013 4856 
Q 1481 4119 1714 3412 
Q 1947 2706 1947 2009 
Q 1947 1309 1714 600 
Q 1481 -109 1013 -844 
L 513 -844 
Q 928 -128 1133 580 
Q 1338 1288 1338 2009 
Q 1338 2731 1133 3434 
Q 928 4138 513 4856 
z
" transform="scale(0.015625)"/>
      </defs>
      <use xlink:href="#DejaVuSans-54"/>
      <use xlink:href="#DejaVuSans-69" transform="translate(57.958984 0)"/>
      <use xlink:href="#DejaVuSans-6d" transform="translate(85.742188 0)"/>
      <use xlink:href="#DejaVuSans-65" transform="translate(183.154297 0)"/>
      <use xlink:href="#DejaVuSans-20" transform="translate(244.677734 0)"/>
      <use xlink:href="#DejaVuSans-28" transform="translate(276.464844 0)"/>
      <use xlink:href="#DejaVuSans-68" transform="translate(315.478516 0)"/>
      <use xlink:href="#DejaVuSans-6f" transform="translate(378.857422 0)"/>
      <use xlink:href="#DejaVuSans-75" transform="translate(440.039062 0)"/>
      <use xlink:href="#DejaVuSans-72" transform="translate(503.417969 0)"/>
      <use xlink:href="#DejaVuSans-3a" transform="translate(542.78125 0)"/>
      <use xlink:href="#DejaVuSans-6d" transform="translate(576.472656 0)"/>
      <use xlink:href="#DejaVuSans-69" transform="translate(673.884766 0)"/>
      <use xlink:href="#DejaVuSans-6e" transform="translate(701.667969 0)"/>
      <use xlink:href="#DejaVuSans-75" transform="translate(765.046875 0)"/>
      <use xlink:href="#DejaVuSans-74" transform="translate(828.425781 0)"/>
      <use xlink:href="#DejaVuSans-65" transform="translate(867.634766 0)"/>
      <use xlink:href="#DejaVuSans-29" transform="translate(929.158203 0)"/>
     </g>
    </g>
   </g>
   <g id="matplotlib.axis_2">
    <g id="ytick_1">
     <g id="line2d_13">
      <defs>
       <path id="m2f804c369d" d="M 0 0 
L -3.5 0 
" style="stroke: #000000; stroke-width: 0.8"/>
      </defs>
      <g>
       <use xlink:href="#m2f804c369d" x="46.965625" y="276.334125" style="stroke: #000000; stroke-width: 0.8"/>
      </g>
     </g>
     <g id="text_10">
      <!-- 0 -->
      <g transform="translate(33.603125 280.133344) scale(0.1 -0.1)">
       <use xlink:href="#DejaVuSans-30"/>
      </g>
     </g>
    </g>
    <g id="ytick_2">
     <g id="line2d_14">
      <g>
       <use xlink:href="#m2f804c369d" x="46.965625" y="224.419962" style="stroke: #000000; stroke-width: 0.8"/>
      </g>
     </g>
     <g id="text_11">
      <!-- 100 -->
      <g transform="translate(20.878125 228.219181) scale(0.1 -0.1)">
       <use xlink:href="#DejaVuSans-31"/>
       <use xlink:href="#DejaVuSans-30" transform="translate(63.623047 0)"/>
       <use xlink:href="#DejaVuSans-30" transform="translate(127.246094 0)"/>
      </g>
     </g>
    </g>
    <g id="ytick_3">
     <g id="line2d_15">
      <g>
       <use xlink:href="#m2f804c369d" x="46.965625" y="172.505799" style="stroke: #000000; stroke-width: 0.8"/>
      </g>
     </g>
     <g id="text_12">
      <!-- 200 -->
      <g transform="translate(20.878125 176.305018) scale(0.1 -0.1)">
       <use xlink:href="#DejaVuSans-32"/>
       <use xlink:href="#DejaVuSans-30" transform="translate(63.623047 0)"/>
       <use xlink:href="#DejaVuSans-30" transform="translate(127.246094 0)"/>
      </g>
     </g>
    </g>
    <g id="ytick_4">
     <g id="line2d_16">
      <g>
       <use xlink:href="#m2f804c369d" x="46.965625" y="120.591636" style="stroke: #000000; stroke-width: 0.8"/>
      </g>
     </g>
     <g id="text_13">
      <!-- 300 -->
      <g transform="translate(20.878125 124.390854) scale(0.1 -0.1)">
       <use xlink:href="#DejaVuSans-33"/>
       <use xlink:href="#DejaVuSans-30" transform="translate(63.623047 0)"/>
       <use xlink:href="#DejaVuSans-30" transform="translate(127.246094 0)"/>
      </g>
     </g>
    </g>
    <g id="ytick_5">
     <g id="line2d_17">
      <g>
       <use xlink:href="#m2f804c369d" x="46.965625" y="68.677473" style="stroke: #000000; stroke-width: 0.8"/>
      </g>
     </g>
     <g id="text_14">
      <!-- 400 -->
      <g transform="translate(20.878125 72.476691) scale(0.1 -0.1)">
       <use xlink:href="#DejaVuSans-34"/>
       <use xlink:href="#DejaVuSans-30" transform="translate(63.623047 0)"/>
       <use xlink:href="#DejaVuSans-30" transform="translate(127.246094 0)"/>
      </g>
     </g>
    </g>
    <g id="text_15">
     <!-- Code branch coverage -->
     <g transform="translate(14.798438 211.949125) rotate(-90) scale(0.1 -0.1)">
      <defs>
       <path id="DejaVuSans-43" d="M 4122 4306 
L 4122 3641 
Q 3803 3938 3442 4084 
Q 3081 4231 2675 4231 
Q 1875 4231 1450 3742 
Q 1025 3253 1025 2328 
Q 1025 1406 1450 917 
Q 1875 428 2675 428 
Q 3081 428 3442 575 
Q 3803 722 4122 1019 
L 4122 359 
Q 3791 134 3420 21 
Q 3050 -91 2638 -91 
Q 1578 -91 968 557 
Q 359 1206 359 2328 
Q 359 3453 968 4101 
Q 1578 4750 2638 4750 
Q 3056 4750 3426 4639 
Q 3797 4528 4122 4306 
z
" transform="scale(0.015625)"/>
       <path id="DejaVuSans-64" d="M 2906 2969 
L 2906 4863 
L 3481 4863 
L 3481 0 
L 2906 0 
L 2906 525 
Q 2725 213 2448 61 
Q 2172 -91 1784 -91 
Q 1150 -91 751 415 
Q 353 922 353 1747 
Q 353 2572 751 3078 
Q 1150 3584 1784 3584 
Q 2172 3584 2448 3432 
Q 2725 3281 2906 2969 
z
M 947 1747 
Q 947 1113 1208 752 
Q 1469 391 1925 391 
Q 2381 391 2643 752 
Q 2906 1113 2906 1747 
Q 2906 2381 2643 2742 
Q 2381 3103 1925 3103 
Q 1469 3103 1208 2742 
Q 947 2381 947 1747 
z
" transform="scale(0.015625)"/>
       <path id="DejaVuSans-62" d="M 3116 1747 
Q 3116 2381 2855 2742 
Q 2594 3103 2138 3103 
Q 1681 3103 1420 2742 
Q 1159 2381 1159 1747 
Q 1159 1113 1420 752 
Q 1681 391 2138 391 
Q 2594 391 2855 752 
Q 3116 1113 3116 1747 
z
M 1159 2969 
Q 1341 3281 1617 3432 
Q 1894 3584 2278 3584 
Q 2916 3584 3314 3078 
Q 3713 2572 3713 1747 
Q 3713 922 3314 415 
Q 2916 -91 2278 -91 
Q 1894 -91 1617 61 
Q 1341 213 1159 525 
L 1159 0 
L 581 0 
L 581 4863 
L 1159 4863 
L 1159 2969 
z
" transform="scale(0.015625)"/>
       <path id="DejaVuSans-61" d="M 2194 1759 
Q 1497 1759 1228 1600 
Q 959 1441 959 1056 
Q 959 750 1161 570 
Q 1363 391 1709 391 
Q 2188 391 2477 730 
Q 2766 1069 2766 1631 
L 2766 1759 
L 2194 1759 
z
M 3341 1997 
L 3341 0 
L 2766 0 
L 2766 531 
Q 2569 213 2275 61 
Q 1981 -91 1556 -91 
Q 1019 -91 701 211 
Q 384 513 384 1019 
Q 384 1609 779 1909 
Q 1175 2209 1959 2209 
L 2766 2209 
L 2766 2266 
Q 2766 2663 2505 2880 
Q 2244 3097 1772 3097 
Q 1472 3097 1187 3025 
Q 903 2953 641 2809 
L 641 3341 
Q 956 3463 1253 3523 
Q 1550 3584 1831 3584 
Q 2591 3584 2966 3190 
Q 3341 2797 3341 1997 
z
" transform="scale(0.015625)"/>
       <path id="DejaVuSans-63" d="M 3122 3366 
L 3122 2828 
Q 2878 2963 2633 3030 
Q 2388 3097 2138 3097 
Q 1578 3097 1268 2742 
Q 959 2388 959 1747 
Q 959 1106 1268 751 
Q 1578 397 2138 397 
Q 2388 397 2633 464 
Q 2878 531 3122 666 
L 3122 134 
Q 2881 22 2623 -34 
Q 2366 -91 2075 -91 
Q 1284 -91 818 406 
Q 353 903 353 1747 
Q 353 2603 823 3093 
Q 1294 3584 2113 3584 
Q 2378 3584 2631 3529 
Q 2884 3475 3122 3366 
z
" transform="scale(0.015625)"/>
       <path id="DejaVuSans-76" d="M 191 3500 
L 800 3500 
L 1894 563 
L 2988 3500 
L 3597 3500 
L 2284 0 
L 1503 0 
L 191 3500 
z
" transform="scale(0.015625)"/>
       <path id="DejaVuSans-67" d="M 2906 1791 
Q 2906 2416 2648 2759 
Q 2391 3103 1925 3103 
Q 1463 3103 1205 2759 
Q 947 2416 947 1791 
Q 947 1169 1205 825 
Q 1463 481 1925 481 
Q 2391 481 2648 825 
Q 2906 1169 2906 1791 
z
M 3481 434 
Q 3481 -459 3084 -895 
Q 2688 -1331 1869 -1331 
Q 1566 -1331 1297 -1286 
Q 1028 -1241 775 -1147 
L 775 -588 
Q 1028 -725 1275 -790 
Q 1522 -856 1778 -856 
Q 2344 -856 2625 -561 
Q 2906 -266 2906 331 
L 2906 616 
Q 2728 306 2450 153 
Q 2172 0 1784 0 
Q 1141 0 747 490 
Q 353 981 353 1791 
Q 353 2603 747 3093 
Q 1141 3584 1784 3584 
Q 2172 3584 2450 3431 
Q 2728 3278 2906 2969 
L 2906 3500 
L 3481 3500 
L 3481 434 
z
" transform="scale(0.015625)"/>
      </defs>
      <use xlink:href="#DejaVuSans-43"/>
      <use xlink:href="#DejaVuSans-6f" transform="translate(69.824219 0)"/>
      <use xlink:href="#DejaVuSans-64" transform="translate(131.005859 0)"/>
      <use xlink:href="#DejaVuSans-65" transform="translate(194.482422 0)"/>
      <use xlink:href="#DejaVuSans-20" transform="translate(256.005859 0)"/>
      <use xlink:href="#DejaVuSans-62" transform="translate(287.792969 0)"/>
      <use xlink:href="#DejaVuSans-72" transform="translate(351.269531 0)"/>
      <use xlink:href="#DejaVuSans-61" transform="translate(392.382812 0)"/>
      <use xlink:href="#DejaVuSans-6e" transform="translate(453.662109 0)"/>
      <use xlink:href="#DejaVuSans-63" transform="translate(517.041016 0)"/>
      <use xlink:href="#DejaVuSans-68" transform="translate(572.021484 0)"/>
      <use xlink:href="#DejaVuSans-20" transform="translate(635.400391 0)"/>
      <use xlink:href="#DejaVuSans-63" transform="translate(667.1875 0)"/>
      <use xlink:href="#DejaVuSans-6f" transform="translate(722.167969 0)"/>
      <use xlink:href="#DejaVuSans-76" transform="translate(783.349609 0)"/>
      <use xlink:href="#DejaVuSans-65" transform="translate(842.529297 0)"/>
      <use xlink:href="#DejaVuSans-72" transform="translate(904.052734 0)"/>
      <use xlink:href="#DejaVuSans-61" transform="translate(945.166016 0)"/>
      <use xlink:href="#DejaVuSans-67" transform="translate(1006.445312 0)"/>
      <use xlink:href="#DejaVuSans-65" transform="translate(1069.921875 0)"/>
     </g>
    </g>
   </g>
   <g id="line2d_18">
    <path d="M 46.965625 276.334125 
L 543.116159 39.605541 
L 582.792927 39.34597 
L 606.002348 39.34597 
L 622.469694 39.34597 
L 635.24276 38.307687 
L 645.679115 38.307687 
L 654.502928 38.307687 
L 662.146462 38.307687 
L 668.888536 38.307687 
L 674.919528 38.307687 
L 680.375223 38.307687 
L 685.355883 38.307687 
L 689.937645 37.528975 
L 694.179695 37.528975 
L 698.128949 37.528975 
L 701.823229 37.528975 
L 705.293472 37.528975 
L 708.565304 37.528975 
L 711.660191 37.528975 
L 714.596295 37.528975 
L 717.389116 37.528975 
L 720.05199 37.528975 
L 722.596475 37.528975 
L 725.03265 37.528975 
L 727.369361 37.528975 
L 729.614413 37.528975 
L 731.774725 37.528975 
L 733.856462 37.528975 
L 735.865141 37.528975 
L 737.805716 37.528975 
L 739.682654 37.528975 
L 741.499996 36.750262 
L 743.261412 36.750262 
L 744.970239 36.750262 
L 746.629529 36.750262 
L 748.242071 36.490692 
L 749.810429 36.490692 
L 751.336959 36.490692 
L 752.823834 36.490692 
L 754.273063 36.490692 
L 755.686504 36.490692 
L 757.065884 36.490692 
L 758.412804 36.490692 
" clip-path="url(#p3291181e5a)" style="fill: none; stroke: #d62728; stroke-width: 1.5; stroke-linecap: square"/>
    <defs>
     <path id="m544898191a" d="M 0 -3 
L -3 3 
L 3 3 
z
" style="stroke: #ffffff; stroke-width: 0.75; stroke-linejoin: miter"/>
    </defs>
    <g clip-path="url(#p3291181e5a)">
     <use xlink:href="#m544898191a" x="46.965625" y="276.334125" style="fill: #d62728; stroke: #ffffff; stroke-width: 0.75; stroke-linejoin: miter"/>
     <use xlink:href="#m544898191a" x="543.116159" y="39.605541" style="fill: #d62728; stroke: #ffffff; stroke-width: 0.75; stroke-linejoin: miter"/>
     <use xlink:href="#m544898191a" x="582.792927" y="39.34597" style="fill: #d62728; stroke: #ffffff; stroke-width: 0.75; stroke-linejoin: miter"/>
     <use xlink:href="#m544898191a" x="606.002348" y="39.34597" style="fill: #d62728; stroke: #ffffff; stroke-width: 0.75; stroke-linejoin: miter"/>
     <use xlink:href="#m544898191a" x="622.469694" y="39.34597" style="fill: #d62728; stroke: #ffffff; stroke-width: 0.75; stroke-linejoin: miter"/>
     <use xlink:href="#m544898191a" x="635.24276" y="38.307687" style="fill: #d62728; stroke: #ffffff; stroke-width: 0.75; stroke-linejoin: miter"/>
     <use xlink:href="#m544898191a" x="645.679115" y="38.307687" style="fill: #d62728; stroke: #ffffff; stroke-width: 0.75; stroke-linejoin: miter"/>
     <use xlink:href="#m544898191a" x="654.502928" y="38.307687" style="fill: #d62728; stroke: #ffffff; stroke-width: 0.75; stroke-linejoin: miter"/>
     <use xlink:href="#m544898191a" x="662.146462" y="38.307687" style="fill: #d62728; stroke: #ffffff; stroke-width: 0.75; stroke-linejoin: miter"/>
     <use xlink:href="#m544898191a" x="668.888536" y="38.307687" style="fill: #d62728; stroke: #ffffff; stroke-width: 0.75; stroke-linejoin: miter"/>
     <use xlink:href="#m544898191a" x="674.919528" y="38.307687" style="fill: #d62728; stroke: #ffffff; stroke-width: 0.75; stroke-linejoin: miter"/>
     <use xlink:href="#m544898191a" x="680.375223" y="38.307687" style="fill: #d62728; stroke: #ffffff; stroke-width: 0.75; stroke-linejoin: miter"/>
     <use xlink:href="#m544898191a" x="685.355883" y="38.307687" style="fill: #d62728; stroke: #ffffff; stroke-width: 0.75; stroke-linejoin: miter"/>
     <use xlink:href="#m544898191a" x="689.937645" y="37.528975" style="fill: #d62728; stroke: #ffffff; stroke-width: 0.75; stroke-linejoin: miter"/>
     <use xlink:href="#m544898191a" x="694.179695" y="37.528975" style="fill: #d62728; stroke: #ffffff; stroke-width: 0.75; stroke-linejoin: miter"/>
     <use xlink:href="#m544898191a" x="698.128949" y="37.528975" style="fill: #d62728; stroke: #ffffff; stroke-width: 0.75; stroke-linejoin: miter"/>
     <use xlink:href="#m544898191a" x="701.823229" y="37.528975" style="fill: #d62728; stroke: #ffffff; stroke-width: 0.75; stroke-linejoin: miter"/>
     <use xlink:href="#m544898191a" x="705.293472" y="37.528975" style="fill: #d62728; stroke: #ffffff; stroke-width: 0.75; stroke-linejoin: miter"/>
     <use xlink:href="#m544898191a" x="708.565304" y="37.528975" style="fill: #d62728; stroke: #ffffff; stroke-width: 0.75; stroke-linejoin: miter"/>
     <use xlink:href="#m544898191a" x="711.660191" y="37.528975" style="fill: #d62728; stroke: #ffffff; stroke-width: 0.75; stroke-linejoin: miter"/>
     <use xlink:href="#m544898191a" x="714.596295" y="37.528975" style="fill: #d62728; stroke: #ffffff; stroke-width: 0.75; stroke-linejoin: miter"/>
     <use xlink:href="#m544898191a" x="717.389116" y="37.528975" style="fill: #d62728; stroke: #ffffff; stroke-width: 0.75; stroke-linejoin: miter"/>
     <use xlink:href="#m544898191a" x="720.05199" y="37.528975" style="fill: #d62728; stroke: #ffffff; stroke-width: 0.75; stroke-linejoin: miter"/>
     <use xlink:href="#m544898191a" x="722.596475" y="37.528975" style="fill: #d62728; stroke: #ffffff; stroke-width: 0.75; stroke-linejoin: miter"/>
     <use xlink:href="#m544898191a" x="725.03265" y="37.528975" style="fill: #d62728; stroke: #ffffff; stroke-width: 0.75; stroke-linejoin: miter"/>
     <use xlink:href="#m544898191a" x="727.369361" y="37.528975" style="fill: #d62728; stroke: #ffffff; stroke-width: 0.75; stroke-linejoin: miter"/>
     <use xlink:href="#m544898191a" x="729.614413" y="37.528975" style="fill: #d62728; stroke: #ffffff; stroke-width: 0.75; stroke-linejoin: miter"/>
     <use xlink:href="#m544898191a" x="731.774725" y="37.528975" style="fill: #d62728; stroke: #ffffff; stroke-width: 0.75; stroke-linejoin: miter"/>
     <use xlink:href="#m544898191a" x="733.856462" y="37.528975" style="fill: #d62728; stroke: #ffffff; stroke-width: 0.75; stroke-linejoin: miter"/>
     <use xlink:href="#m544898191a" x="735.865141" y="37.528975" style="fill: #d62728; stroke: #ffffff; stroke-width: 0.75; stroke-linejoin: miter"/>
     <use xlink:href="#m544898191a" x="737.805716" y="37.528975" style="fill: #d62728; stroke: #ffffff; stroke-width: 0.75; stroke-linejoin: miter"/>
     <use xlink:href="#m544898191a" x="739.682654" y="37.528975" style="fill: #d62728; stroke: #ffffff; stroke-width: 0.75; stroke-linejoin: miter"/>
     <use xlink:href="#m544898191a" x="741.499996" y="36.750262" style="fill: #d62728; stroke: #ffffff; stroke-width: 0.75; stroke-linejoin: miter"/>
     <use xlink:href="#m544898191a" x="743.261412" y="36.750262" style="fill: #d62728; stroke: #ffffff; stroke-width: 0.75; stroke-linejoin: miter"/>
     <use xlink:href="#m544898191a" x="744.970239" y="36.750262" style="fill: #d62728; stroke: #ffffff; stroke-width: 0.75; stroke-linejoin: miter"/>
     <use xlink:href="#m544898191a" x="746.629529" y="36.750262" style="fill: #d62728; stroke: #ffffff; stroke-width: 0.75; stroke-linejoin: miter"/>
     <use xlink:href="#m544898191a" x="748.242071" y="36.490692" style="fill: #d62728; stroke: #ffffff; stroke-width: 0.75; stroke-linejoin: miter"/>
     <use xlink:href="#m544898191a" x="749.810429" y="36.490692" style="fill: #d62728; stroke: #ffffff; stroke-width: 0.75; stroke-linejoin: miter"/>
     <use xlink:href="#m544898191a" x="751.336959" y="36.490692" style="fill: #d62728; stroke: #ffffff; stroke-width: 0.75; stroke-linejoin: miter"/>
     <use xlink:href="#m544898191a" x="752.823834" y="36.490692" style="fill: #d62728; stroke: #ffffff; stroke-width: 0.75; stroke-linejoin: miter"/>
     <use xlink:href="#m544898191a" x="754.273063" y="36.490692" style="fill: #d62728; stroke: #ffffff; stroke-width: 0.75; stroke-linejoin: miter"/>
     <use xlink:href="#m544898191a" x="755.686504" y="36.490692" style="fill: #d62728; stroke: #ffffff; stroke-width: 0.75; stroke-linejoin: miter"/>
     <use xlink:href="#m544898191a" x="757.065884" y="36.490692" style="fill: #d62728; stroke: #ffffff; stroke-width: 0.75; stroke-linejoin: miter"/>
     <use xlink:href="#m544898191a" x="758.412804" y="36.490692" style="fill: #d62728; stroke: #ffffff; stroke-width: 0.75; stroke-linejoin: miter"/>
    </g>
   </g>
   <g id="line2d_19">
    <path d="M 46.965625 276.334125 
L 543.116159 39.605541 
L 582.792927 39.605541 
L 606.002348 39.605541 
L 622.469694 39.605541 
L 635.24276 39.605541 
L 645.679115 39.605541 
L 654.502928 39.605541 
L 662.146462 39.605541 
L 668.888536 38.048116 
L 674.919528 38.048116 
L 680.375223 38.048116 
L 685.355883 37.528975 
L 689.937645 37.528975 
L 694.179695 37.528975 
L 698.128949 37.528975 
L 701.823229 37.528975 
L 705.293472 37.528975 
L 708.565304 37.528975 
L 711.660191 37.528975 
L 714.596295 37.528975 
L 717.389116 37.528975 
L 720.05199 37.528975 
L 722.596475 37.528975 
L 725.03265 37.528975 
L 727.369361 37.528975 
L 729.614413 37.528975 
L 731.774725 37.528975 
L 733.856462 37.528975 
L 735.865141 37.528975 
L 737.805716 37.528975 
L 739.682654 37.528975 
L 741.499996 37.528975 
L 743.261412 37.528975 
L 744.970239 37.528975 
L 746.629529 37.528975 
L 748.242071 37.528975 
L 749.810429 37.528975 
L 751.336959 37.528975 
L 752.823834 37.528975 
L 754.273063 37.528975 
L 755.686504 37.528975 
L 757.065884 37.528975 
L 758.412804 37.528975 
" clip-path="url(#p3291181e5a)" style="fill: none; stroke: #c7c7c7; stroke-width: 1.5; stroke-linecap: square"/>
    <defs>
     <path id="m541842ceed" d="M -3 -0 
L 3 3 
L 3 -3 
z
" style="stroke: #ffffff; stroke-width: 0.75; stroke-linejoin: miter"/>
    </defs>
    <g clip-path="url(#p3291181e5a)">
     <use xlink:href="#m541842ceed" x="46.965625" y="276.334125" style="fill: #c7c7c7; stroke: #ffffff; stroke-width: 0.75; stroke-linejoin: miter"/>
     <use xlink:href="#m541842ceed" x="543.116159" y="39.605541" style="fill: #c7c7c7; stroke: #ffffff; stroke-width: 0.75; stroke-linejoin: miter"/>
     <use xlink:href="#m541842ceed" x="582.792927" y="39.605541" style="fill: #c7c7c7; stroke: #ffffff; stroke-width: 0.75; stroke-linejoin: miter"/>
     <use xlink:href="#m541842ceed" x="606.002348" y="39.605541" style="fill: #c7c7c7; stroke: #ffffff; stroke-width: 0.75; stroke-linejoin: miter"/>
     <use xlink:href="#m541842ceed" x="622.469694" y="39.605541" style="fill: #c7c7c7; stroke: #ffffff; stroke-width: 0.75; stroke-linejoin: miter"/>
     <use xlink:href="#m541842ceed" x="635.24276" y="39.605541" style="fill: #c7c7c7; stroke: #ffffff; stroke-width: 0.75; stroke-linejoin: miter"/>
     <use xlink:href="#m541842ceed" x="645.679115" y="39.605541" style="fill: #c7c7c7; stroke: #ffffff; stroke-width: 0.75; stroke-linejoin: miter"/>
     <use xlink:href="#m541842ceed" x="654.502928" y="39.605541" style="fill: #c7c7c7; stroke: #ffffff; stroke-width: 0.75; stroke-linejoin: miter"/>
     <use xlink:href="#m541842ceed" x="662.146462" y="39.605541" style="fill: #c7c7c7; stroke: #ffffff; stroke-width: 0.75; stroke-linejoin: miter"/>
     <use xlink:href="#m541842ceed" x="668.888536" y="38.048116" style="fill: #c7c7c7; stroke: #ffffff; stroke-width: 0.75; stroke-linejoin: miter"/>
     <use xlink:href="#m541842ceed" x="674.919528" y="38.048116" style="fill: #c7c7c7; stroke: #ffffff; stroke-width: 0.75; stroke-linejoin: miter"/>
     <use xlink:href="#m541842ceed" x="680.375223" y="38.048116" style="fill: #c7c7c7; stroke: #ffffff; stroke-width: 0.75; stroke-linejoin: miter"/>
     <use xlink:href="#m541842ceed" x="685.355883" y="37.528975" style="fill: #c7c7c7; stroke: #ffffff; stroke-width: 0.75; stroke-linejoin: miter"/>
     <use xlink:href="#m541842ceed" x="689.937645" y="37.528975" style="fill: #c7c7c7; stroke: #ffffff; stroke-width: 0.75; stroke-linejoin: miter"/>
     <use xlink:href="#m541842ceed" x="694.179695" y="37.528975" style="fill: #c7c7c7; stroke: #ffffff; stroke-width: 0.75; stroke-linejoin: miter"/>
     <use xlink:href="#m541842ceed" x="698.128949" y="37.528975" style="fill: #c7c7c7; stroke: #ffffff; stroke-width: 0.75; stroke-linejoin: miter"/>
     <use xlink:href="#m541842ceed" x="701.823229" y="37.528975" style="fill: #c7c7c7; stroke: #ffffff; stroke-width: 0.75; stroke-linejoin: miter"/>
     <use xlink:href="#m541842ceed" x="705.293472" y="37.528975" style="fill: #c7c7c7; stroke: #ffffff; stroke-width: 0.75; stroke-linejoin: miter"/>
     <use xlink:href="#m541842ceed" x="708.565304" y="37.528975" style="fill: #c7c7c7; stroke: #ffffff; stroke-width: 0.75; stroke-linejoin: miter"/>
     <use xlink:href="#m541842ceed" x="711.660191" y="37.528975" style="fill: #c7c7c7; stroke: #ffffff; stroke-width: 0.75; stroke-linejoin: miter"/>
     <use xlink:href="#m541842ceed" x="714.596295" y="37.528975" style="fill: #c7c7c7; stroke: #ffffff; stroke-width: 0.75; stroke-linejoin: miter"/>
     <use xlink:href="#m541842ceed" x="717.389116" y="37.528975" style="fill: #c7c7c7; stroke: #ffffff; stroke-width: 0.75; stroke-linejoin: miter"/>
     <use xlink:href="#m541842ceed" x="720.05199" y="37.528975" style="fill: #c7c7c7; stroke: #ffffff; stroke-width: 0.75; stroke-linejoin: miter"/>
     <use xlink:href="#m541842ceed" x="722.596475" y="37.528975" style="fill: #c7c7c7; stroke: #ffffff; stroke-width: 0.75; stroke-linejoin: miter"/>
     <use xlink:href="#m541842ceed" x="725.03265" y="37.528975" style="fill: #c7c7c7; stroke: #ffffff; stroke-width: 0.75; stroke-linejoin: miter"/>
     <use xlink:href="#m541842ceed" x="727.369361" y="37.528975" style="fill: #c7c7c7; stroke: #ffffff; stroke-width: 0.75; stroke-linejoin: miter"/>
     <use xlink:href="#m541842ceed" x="729.614413" y="37.528975" style="fill: #c7c7c7; stroke: #ffffff; stroke-width: 0.75; stroke-linejoin: miter"/>
     <use xlink:href="#m541842ceed" x="731.774725" y="37.528975" style="fill: #c7c7c7; stroke: #ffffff; stroke-width: 0.75; stroke-linejoin: miter"/>
     <use xlink:href="#m541842ceed" x="733.856462" y="37.528975" style="fill: #c7c7c7; stroke: #ffffff; stroke-width: 0.75; stroke-linejoin: miter"/>
     <use xlink:href="#m541842ceed" x="735.865141" y="37.528975" style="fill: #c7c7c7; stroke: #ffffff; stroke-width: 0.75; stroke-linejoin: miter"/>
     <use xlink:href="#m541842ceed" x="737.805716" y="37.528975" style="fill: #c7c7c7; stroke: #ffffff; stroke-width: 0.75; stroke-linejoin: miter"/>
     <use xlink:href="#m541842ceed" x="739.682654" y="37.528975" style="fill: #c7c7c7; stroke: #ffffff; stroke-width: 0.75; stroke-linejoin: miter"/>
     <use xlink:href="#m541842ceed" x="741.499996" y="37.528975" style="fill: #c7c7c7; stroke: #ffffff; stroke-width: 0.75; stroke-linejoin: miter"/>
     <use xlink:href="#m541842ceed" x="743.261412" y="37.528975" style="fill: #c7c7c7; stroke: #ffffff; stroke-width: 0.75; stroke-linejoin: miter"/>
     <use xlink:href="#m541842ceed" x="744.970239" y="37.528975" style="fill: #c7c7c7; stroke: #ffffff; stroke-width: 0.75; stroke-linejoin: miter"/>
     <use xlink:href="#m541842ceed" x="746.629529" y="37.528975" style="fill: #c7c7c7; stroke: #ffffff; stroke-width: 0.75; stroke-linejoin: miter"/>
     <use xlink:href="#m541842ceed" x="748.242071" y="37.528975" style="fill: #c7c7c7; stroke: #ffffff; stroke-width: 0.75; stroke-linejoin: miter"/>
     <use xlink:href="#m541842ceed" x="749.810429" y="37.528975" style="fill: #c7c7c7; stroke: #ffffff; stroke-width: 0.75; stroke-linejoin: miter"/>
     <use xlink:href="#m541842ceed" x="751.336959" y="37.528975" style="fill: #c7c7c7; stroke: #ffffff; stroke-width: 0.75; stroke-linejoin: miter"/>
     <use xlink:href="#m541842ceed" x="752.823834" y="37.528975" style="fill: #c7c7c7; stroke: #ffffff; stroke-width: 0.75; stroke-linejoin: miter"/>
     <use xlink:href="#m541842ceed" x="754.273063" y="37.528975" style="fill: #c7c7c7; stroke: #ffffff; stroke-width: 0.75; stroke-linejoin: miter"/>
     <use xlink:href="#m541842ceed" x="755.686504" y="37.528975" style="fill: #c7c7c7; stroke: #ffffff; stroke-width: 0.75; stroke-linejoin: miter"/>
     <use xlink:href="#m541842ceed" x="757.065884" y="37.528975" style="fill: #c7c7c7; stroke: #ffffff; stroke-width: 0.75; stroke-linejoin: miter"/>
     <use xlink:href="#m541842ceed" x="758.412804" y="37.528975" style="fill: #c7c7c7; stroke: #ffffff; stroke-width: 0.75; stroke-linejoin: miter"/>
    </g>
   </g>
   <g id="line2d_20">
    <path d="M 46.965625 276.334125 
L 543.116159 38.048116 
L 582.792927 38.048116 
L 606.002348 38.048116 
L 622.469694 38.048116 
L 635.24276 38.048116 
L 645.679115 38.048116 
L 654.502928 38.048116 
L 662.146462 38.048116 
L 668.888536 38.048116 
L 674.919528 38.048116 
L 680.375223 38.048116 
L 685.355883 38.048116 
L 689.937645 38.048116 
L 694.179695 38.048116 
L 698.128949 38.048116 
L 701.823229 38.048116 
L 705.293472 38.048116 
L 708.565304 38.048116 
L 711.660191 38.048116 
L 714.596295 38.048116 
L 717.389116 38.048116 
L 720.05199 38.048116 
L 722.596475 38.048116 
L 725.03265 38.048116 
L 727.369361 38.048116 
L 729.614413 38.048116 
L 731.774725 38.048116 
L 733.856462 38.048116 
L 735.865141 38.048116 
L 737.805716 38.048116 
L 739.682654 38.048116 
L 741.499996 38.048116 
L 743.261412 38.048116 
L 744.970239 37.528975 
L 746.629529 37.528975 
L 748.242071 37.528975 
L 749.810429 37.528975 
L 751.336959 37.528975 
L 752.823834 37.528975 
L 754.273063 37.528975 
L 755.686504 37.528975 
L 757.065884 37.528975 
L 758.412804 37.528975 
" clip-path="url(#p3291181e5a)" style="fill: none; stroke: #98df8a; stroke-width: 1.5; stroke-linecap: square"/>
    <defs>
     <path id="m40e64bf97f" d="M -0 3 
L 3 -3 
L -3 -3 
z
" style="stroke: #ffffff; stroke-width: 0.75; stroke-linejoin: miter"/>
    </defs>
    <g clip-path="url(#p3291181e5a)">
     <use xlink:href="#m40e64bf97f" x="46.965625" y="276.334125" style="fill: #98df8a; stroke: #ffffff; stroke-width: 0.75; stroke-linejoin: miter"/>
     <use xlink:href="#m40e64bf97f" x="543.116159" y="38.048116" style="fill: #98df8a; stroke: #ffffff; stroke-width: 0.75; stroke-linejoin: miter"/>
     <use xlink:href="#m40e64bf97f" x="582.792927" y="38.048116" style="fill: #98df8a; stroke: #ffffff; stroke-width: 0.75; stroke-linejoin: miter"/>
     <use xlink:href="#m40e64bf97f" x="606.002348" y="38.048116" style="fill: #98df8a; stroke: #ffffff; stroke-width: 0.75; stroke-linejoin: miter"/>
     <use xlink:href="#m40e64bf97f" x="622.469694" y="38.048116" style="fill: #98df8a; stroke: #ffffff; stroke-width: 0.75; stroke-linejoin: miter"/>
     <use xlink:href="#m40e64bf97f" x="635.24276" y="38.048116" style="fill: #98df8a; stroke: #ffffff; stroke-width: 0.75; stroke-linejoin: miter"/>
     <use xlink:href="#m40e64bf97f" x="645.679115" y="38.048116" style="fill: #98df8a; stroke: #ffffff; stroke-width: 0.75; stroke-linejoin: miter"/>
     <use xlink:href="#m40e64bf97f" x="654.502928" y="38.048116" style="fill: #98df8a; stroke: #ffffff; stroke-width: 0.75; stroke-linejoin: miter"/>
     <use xlink:href="#m40e64bf97f" x="662.146462" y="38.048116" style="fill: #98df8a; stroke: #ffffff; stroke-width: 0.75; stroke-linejoin: miter"/>
     <use xlink:href="#m40e64bf97f" x="668.888536" y="38.048116" style="fill: #98df8a; stroke: #ffffff; stroke-width: 0.75; stroke-linejoin: miter"/>
     <use xlink:href="#m40e64bf97f" x="674.919528" y="38.048116" style="fill: #98df8a; stroke: #ffffff; stroke-width: 0.75; stroke-linejoin: miter"/>
     <use xlink:href="#m40e64bf97f" x="680.375223" y="38.048116" style="fill: #98df8a; stroke: #ffffff; stroke-width: 0.75; stroke-linejoin: miter"/>
     <use xlink:href="#m40e64bf97f" x="685.355883" y="38.048116" style="fill: #98df8a; stroke: #ffffff; stroke-width: 0.75; stroke-linejoin: miter"/>
     <use xlink:href="#m40e64bf97f" x="689.937645" y="38.048116" style="fill: #98df8a; stroke: #ffffff; stroke-width: 0.75; stroke-linejoin: miter"/>
     <use xlink:href="#m40e64bf97f" x="694.179695" y="38.048116" style="fill: #98df8a; stroke: #ffffff; stroke-width: 0.75; stroke-linejoin: miter"/>
     <use xlink:href="#m40e64bf97f" x="698.128949" y="38.048116" style="fill: #98df8a; stroke: #ffffff; stroke-width: 0.75; stroke-linejoin: miter"/>
     <use xlink:href="#m40e64bf97f" x="701.823229" y="38.048116" style="fill: #98df8a; stroke: #ffffff; stroke-width: 0.75; stroke-linejoin: miter"/>
     <use xlink:href="#m40e64bf97f" x="705.293472" y="38.048116" style="fill: #98df8a; stroke: #ffffff; stroke-width: 0.75; stroke-linejoin: miter"/>
     <use xlink:href="#m40e64bf97f" x="708.565304" y="38.048116" style="fill: #98df8a; stroke: #ffffff; stroke-width: 0.75; stroke-linejoin: miter"/>
     <use xlink:href="#m40e64bf97f" x="711.660191" y="38.048116" style="fill: #98df8a; stroke: #ffffff; stroke-width: 0.75; stroke-linejoin: miter"/>
     <use xlink:href="#m40e64bf97f" x="714.596295" y="38.048116" style="fill: #98df8a; stroke: #ffffff; stroke-width: 0.75; stroke-linejoin: miter"/>
     <use xlink:href="#m40e64bf97f" x="717.389116" y="38.048116" style="fill: #98df8a; stroke: #ffffff; stroke-width: 0.75; stroke-linejoin: miter"/>
     <use xlink:href="#m40e64bf97f" x="720.05199" y="38.048116" style="fill: #98df8a; stroke: #ffffff; stroke-width: 0.75; stroke-linejoin: miter"/>
     <use xlink:href="#m40e64bf97f" x="722.596475" y="38.048116" style="fill: #98df8a; stroke: #ffffff; stroke-width: 0.75; stroke-linejoin: miter"/>
     <use xlink:href="#m40e64bf97f" x="725.03265" y="38.048116" style="fill: #98df8a; stroke: #ffffff; stroke-width: 0.75; stroke-linejoin: miter"/>
     <use xlink:href="#m40e64bf97f" x="727.369361" y="38.048116" style="fill: #98df8a; stroke: #ffffff; stroke-width: 0.75; stroke-linejoin: miter"/>
     <use xlink:href="#m40e64bf97f" x="729.614413" y="38.048116" style="fill: #98df8a; stroke: #ffffff; stroke-width: 0.75; stroke-linejoin: miter"/>
     <use xlink:href="#m40e64bf97f" x="731.774725" y="38.048116" style="fill: #98df8a; stroke: #ffffff; stroke-width: 0.75; stroke-linejoin: miter"/>
     <use xlink:href="#m40e64bf97f" x="733.856462" y="38.048116" style="fill: #98df8a; stroke: #ffffff; stroke-width: 0.75; stroke-linejoin: miter"/>
     <use xlink:href="#m40e64bf97f" x="735.865141" y="38.048116" style="fill: #98df8a; stroke: #ffffff; stroke-width: 0.75; stroke-linejoin: miter"/>
     <use xlink:href="#m40e64bf97f" x="737.805716" y="38.048116" style="fill: #98df8a; stroke: #ffffff; stroke-width: 0.75; stroke-linejoin: miter"/>
     <use xlink:href="#m40e64bf97f" x="739.682654" y="38.048116" style="fill: #98df8a; stroke: #ffffff; stroke-width: 0.75; stroke-linejoin: miter"/>
     <use xlink:href="#m40e64bf97f" x="741.499996" y="38.048116" style="fill: #98df8a; stroke: #ffffff; stroke-width: 0.75; stroke-linejoin: miter"/>
     <use xlink:href="#m40e64bf97f" x="743.261412" y="38.048116" style="fill: #98df8a; stroke: #ffffff; stroke-width: 0.75; stroke-linejoin: miter"/>
     <use xlink:href="#m40e64bf97f" x="744.970239" y="37.528975" style="fill: #98df8a; stroke: #ffffff; stroke-width: 0.75; stroke-linejoin: miter"/>
     <use xlink:href="#m40e64bf97f" x="746.629529" y="37.528975" style="fill: #98df8a; stroke: #ffffff; stroke-width: 0.75; stroke-linejoin: miter"/>
     <use xlink:href="#m40e64bf97f" x="748.242071" y="37.528975" style="fill: #98df8a; stroke: #ffffff; stroke-width: 0.75; stroke-linejoin: miter"/>
     <use xlink:href="#m40e64bf97f" x="749.810429" y="37.528975" style="fill: #98df8a; stroke: #ffffff; stroke-width: 0.75; stroke-linejoin: miter"/>
     <use xlink:href="#m40e64bf97f" x="751.336959" y="37.528975" style="fill: #98df8a; stroke: #ffffff; stroke-width: 0.75; stroke-linejoin: miter"/>
     <use xlink:href="#m40e64bf97f" x="752.823834" y="37.528975" style="fill: #98df8a; stroke: #ffffff; stroke-width: 0.75; stroke-linejoin: miter"/>
     <use xlink:href="#m40e64bf97f" x="754.273063" y="37.528975" style="fill: #98df8a; stroke: #ffffff; stroke-width: 0.75; stroke-linejoin: miter"/>
     <use xlink:href="#m40e64bf97f" x="755.686504" y="37.528975" style="fill: #98df8a; stroke: #ffffff; stroke-width: 0.75; stroke-linejoin: miter"/>
     <use xlink:href="#m40e64bf97f" x="757.065884" y="37.528975" style="fill: #98df8a; stroke: #ffffff; stroke-width: 0.75; stroke-linejoin: miter"/>
     <use xlink:href="#m40e64bf97f" x="758.412804" y="37.528975" style="fill: #98df8a; stroke: #ffffff; stroke-width: 0.75; stroke-linejoin: miter"/>
    </g>
   </g>
   <g id="line2d_21">
    <path d="M 46.965625 276.334125 
L 543.116159 42.720391 
L 582.792927 42.720391 
L 606.002348 42.720391 
L 622.469694 42.720391 
L 635.24276 42.720391 
L 645.679115 42.720391 
L 654.502928 42.720391 
L 662.146462 42.720391 
L 668.888536 42.720391 
L 674.919528 42.720391 
L 680.375223 42.720391 
L 685.355883 40.124683 
L 689.937645 39.605541 
L 694.179695 39.605541 
L 698.128949 39.605541 
L 701.823229 39.605541 
L 705.293472 39.605541 
L 708.565304 39.605541 
L 711.660191 39.605541 
L 714.596295 39.605541 
L 717.389116 39.605541 
L 720.05199 39.605541 
L 722.596475 39.605541 
L 725.03265 39.605541 
L 727.369361 39.605541 
L 729.614413 39.605541 
L 731.774725 39.605541 
L 733.856462 39.605541 
L 735.865141 39.605541 
L 737.805716 39.605541 
L 739.682654 39.605541 
L 741.499996 39.605541 
L 743.261412 39.605541 
L 744.970239 39.605541 
L 746.629529 39.605541 
L 748.242071 39.605541 
L 749.810429 39.605541 
L 751.336959 39.605541 
L 752.823834 39.605541 
L 754.273063 39.605541 
L 755.686504 39.605541 
L 757.065884 39.605541 
L 758.412804 39.605541 
" clip-path="url(#p3291181e5a)" style="fill: none; stroke: #1f77b4; stroke-width: 1.5; stroke-linecap: square"/>
    <defs>
     <path id="m7ee38f1e6a" d="M 0 3 
C 0.795609 3 1.55874 2.683901 2.12132 2.12132 
C 2.683901 1.55874 3 0.795609 3 0 
C 3 -0.795609 2.683901 -1.55874 2.12132 -2.12132 
C 1.55874 -2.683901 0.795609 -3 0 -3 
C -0.795609 -3 -1.55874 -2.683901 -2.12132 -2.12132 
C -2.683901 -1.55874 -3 -0.795609 -3 0 
C -3 0.795609 -2.683901 1.55874 -2.12132 2.12132 
C -1.55874 2.683901 -0.795609 3 0 3 
z
" style="stroke: #ffffff; stroke-width: 0.75"/>
    </defs>
    <g clip-path="url(#p3291181e5a)">
     <use xlink:href="#m7ee38f1e6a" x="46.965625" y="276.334125" style="fill: #1f77b4; stroke: #ffffff; stroke-width: 0.75"/>
     <use xlink:href="#m7ee38f1e6a" x="543.116159" y="42.720391" style="fill: #1f77b4; stroke: #ffffff; stroke-width: 0.75"/>
     <use xlink:href="#m7ee38f1e6a" x="582.792927" y="42.720391" style="fill: #1f77b4; stroke: #ffffff; stroke-width: 0.75"/>
     <use xlink:href="#m7ee38f1e6a" x="606.002348" y="42.720391" style="fill: #1f77b4; stroke: #ffffff; stroke-width: 0.75"/>
     <use xlink:href="#m7ee38f1e6a" x="622.469694" y="42.720391" style="fill: #1f77b4; stroke: #ffffff; stroke-width: 0.75"/>
     <use xlink:href="#m7ee38f1e6a" x="635.24276" y="42.720391" style="fill: #1f77b4; stroke: #ffffff; stroke-width: 0.75"/>
     <use xlink:href="#m7ee38f1e6a" x="645.679115" y="42.720391" style="fill: #1f77b4; stroke: #ffffff; stroke-width: 0.75"/>
     <use xlink:href="#m7ee38f1e6a" x="654.502928" y="42.720391" style="fill: #1f77b4; stroke: #ffffff; stroke-width: 0.75"/>
     <use xlink:href="#m7ee38f1e6a" x="662.146462" y="42.720391" style="fill: #1f77b4; stroke: #ffffff; stroke-width: 0.75"/>
     <use xlink:href="#m7ee38f1e6a" x="668.888536" y="42.720391" style="fill: #1f77b4; stroke: #ffffff; stroke-width: 0.75"/>
     <use xlink:href="#m7ee38f1e6a" x="674.919528" y="42.720391" style="fill: #1f77b4; stroke: #ffffff; stroke-width: 0.75"/>
     <use xlink:href="#m7ee38f1e6a" x="680.375223" y="42.720391" style="fill: #1f77b4; stroke: #ffffff; stroke-width: 0.75"/>
     <use xlink:href="#m7ee38f1e6a" x="685.355883" y="40.124683" style="fill: #1f77b4; stroke: #ffffff; stroke-width: 0.75"/>
     <use xlink:href="#m7ee38f1e6a" x="689.937645" y="39.605541" style="fill: #1f77b4; stroke: #ffffff; stroke-width: 0.75"/>
     <use xlink:href="#m7ee38f1e6a" x="694.179695" y="39.605541" style="fill: #1f77b4; stroke: #ffffff; stroke-width: 0.75"/>
     <use xlink:href="#m7ee38f1e6a" x="698.128949" y="39.605541" style="fill: #1f77b4; stroke: #ffffff; stroke-width: 0.75"/>
     <use xlink:href="#m7ee38f1e6a" x="701.823229" y="39.605541" style="fill: #1f77b4; stroke: #ffffff; stroke-width: 0.75"/>
     <use xlink:href="#m7ee38f1e6a" x="705.293472" y="39.605541" style="fill: #1f77b4; stroke: #ffffff; stroke-width: 0.75"/>
     <use xlink:href="#m7ee38f1e6a" x="708.565304" y="39.605541" style="fill: #1f77b4; stroke: #ffffff; stroke-width: 0.75"/>
     <use xlink:href="#m7ee38f1e6a" x="711.660191" y="39.605541" style="fill: #1f77b4; stroke: #ffffff; stroke-width: 0.75"/>
     <use xlink:href="#m7ee38f1e6a" x="714.596295" y="39.605541" style="fill: #1f77b4; stroke: #ffffff; stroke-width: 0.75"/>
     <use xlink:href="#m7ee38f1e6a" x="717.389116" y="39.605541" style="fill: #1f77b4; stroke: #ffffff; stroke-width: 0.75"/>
     <use xlink:href="#m7ee38f1e6a" x="720.05199" y="39.605541" style="fill: #1f77b4; stroke: #ffffff; stroke-width: 0.75"/>
     <use xlink:href="#m7ee38f1e6a" x="722.596475" y="39.605541" style="fill: #1f77b4; stroke: #ffffff; stroke-width: 0.75"/>
     <use xlink:href="#m7ee38f1e6a" x="725.03265" y="39.605541" style="fill: #1f77b4; stroke: #ffffff; stroke-width: 0.75"/>
     <use xlink:href="#m7ee38f1e6a" x="727.369361" y="39.605541" style="fill: #1f77b4; stroke: #ffffff; stroke-width: 0.75"/>
     <use xlink:href="#m7ee38f1e6a" x="729.614413" y="39.605541" style="fill: #1f77b4; stroke: #ffffff; stroke-width: 0.75"/>
     <use xlink:href="#m7ee38f1e6a" x="731.774725" y="39.605541" style="fill: #1f77b4; stroke: #ffffff; stroke-width: 0.75"/>
     <use xlink:href="#m7ee38f1e6a" x="733.856462" y="39.605541" style="fill: #1f77b4; stroke: #ffffff; stroke-width: 0.75"/>
     <use xlink:href="#m7ee38f1e6a" x="735.865141" y="39.605541" style="fill: #1f77b4; stroke: #ffffff; stroke-width: 0.75"/>
     <use xlink:href="#m7ee38f1e6a" x="737.805716" y="39.605541" style="fill: #1f77b4; stroke: #ffffff; stroke-width: 0.75"/>
     <use xlink:href="#m7ee38f1e6a" x="739.682654" y="39.605541" style="fill: #1f77b4; stroke: #ffffff; stroke-width: 0.75"/>
     <use xlink:href="#m7ee38f1e6a" x="741.499996" y="39.605541" style="fill: #1f77b4; stroke: #ffffff; stroke-width: 0.75"/>
     <use xlink:href="#m7ee38f1e6a" x="743.261412" y="39.605541" style="fill: #1f77b4; stroke: #ffffff; stroke-width: 0.75"/>
     <use xlink:href="#m7ee38f1e6a" x="744.970239" y="39.605541" style="fill: #1f77b4; stroke: #ffffff; stroke-width: 0.75"/>
     <use xlink:href="#m7ee38f1e6a" x="746.629529" y="39.605541" style="fill: #1f77b4; stroke: #ffffff; stroke-width: 0.75"/>
     <use xlink:href="#m7ee38f1e6a" x="748.242071" y="39.605541" style="fill: #1f77b4; stroke: #ffffff; stroke-width: 0.75"/>
     <use xlink:href="#m7ee38f1e6a" x="749.810429" y="39.605541" style="fill: #1f77b4; stroke: #ffffff; stroke-width: 0.75"/>
     <use xlink:href="#m7ee38f1e6a" x="751.336959" y="39.605541" style="fill: #1f77b4; stroke: #ffffff; stroke-width: 0.75"/>
     <use xlink:href="#m7ee38f1e6a" x="752.823834" y="39.605541" style="fill: #1f77b4; stroke: #ffffff; stroke-width: 0.75"/>
     <use xlink:href="#m7ee38f1e6a" x="754.273063" y="39.605541" style="fill: #1f77b4; stroke: #ffffff; stroke-width: 0.75"/>
     <use xlink:href="#m7ee38f1e6a" x="755.686504" y="39.605541" style="fill: #1f77b4; stroke: #ffffff; stroke-width: 0.75"/>
     <use xlink:href="#m7ee38f1e6a" x="757.065884" y="39.605541" style="fill: #1f77b4; stroke: #ffffff; stroke-width: 0.75"/>
     <use xlink:href="#m7ee38f1e6a" x="758.412804" y="39.605541" style="fill: #1f77b4; stroke: #ffffff; stroke-width: 0.75"/>
    </g>
   </g>
   <g id="line2d_22"/>
   <g id="line2d_23"/>
   <g id="line2d_24"/>
   <g id="line2d_25"/>
   <g id="line2d_26">
    <path d="M 758.412804 288.430125 
L 758.412804 22.318125 
" clip-path="url(#p3291181e5a)" style="fill: none; stroke: #ff0000; stroke-width: 1.5; stroke-linecap: square"/>
   </g>
   <g id="patch_3">
    <path d="M 46.965625 276.334125 
L 46.965625 68.677473 
" style="fill: none; stroke: #000000; stroke-width: 0.8; stroke-linejoin: miter; stroke-linecap: square"/>
   </g>
   <g id="patch_4">
    <path d="M 46.965625 288.430125 
L 758.414283 288.430125 
" style="fill: none; stroke: #000000; stroke-width: 0.8; stroke-linejoin: miter; stroke-linecap: square"/>
   </g>
   <g id="text_16">
    <!-- zlib_zlib_uncompress_fuzzer (10h:45m, at least 3 trials/fuzzer) -->
    <g transform="translate(216.858438 16.318125) scale(0.12 -0.12)">
     <defs>
      <path id="DejaVuSans-7a" d="M 353 3500 
L 3084 3500 
L 3084 2975 
L 922 459 
L 3084 459 
L 3084 0 
L 275 0 
L 275 525 
L 2438 3041 
L 353 3041 
L 353 3500 
z
" transform="scale(0.015625)"/>
      <path id="DejaVuSans-6c" d="M 603 4863 
L 1178 4863 
L 1178 0 
L 603 0 
L 603 4863 
z
" transform="scale(0.015625)"/>
      <path id="DejaVuSans-5f" d="M 3263 -1063 
L 3263 -1509 
L -63 -1509 
L -63 -1063 
L 3263 -1063 
z
" transform="scale(0.015625)"/>
      <path id="DejaVuSans-70" d="M 1159 525 
L 1159 -1331 
L 581 -1331 
L 581 3500 
L 1159 3500 
L 1159 2969 
Q 1341 3281 1617 3432 
Q 1894 3584 2278 3584 
Q 2916 3584 3314 3078 
Q 3713 2572 3713 1747 
Q 3713 922 3314 415 
Q 2916 -91 2278 -91 
Q 1894 -91 1617 61 
Q 1341 213 1159 525 
z
M 3116 1747 
Q 3116 2381 2855 2742 
Q 2594 3103 2138 3103 
Q 1681 3103 1420 2742 
Q 1159 2381 1159 1747 
Q 1159 1113 1420 752 
Q 1681 391 2138 391 
Q 2594 391 2855 752 
Q 3116 1113 3116 1747 
z
" transform="scale(0.015625)"/>
      <path id="DejaVuSans-73" d="M 2834 3397 
L 2834 2853 
Q 2591 2978 2328 3040 
Q 2066 3103 1784 3103 
Q 1356 3103 1142 2972 
Q 928 2841 928 2578 
Q 928 2378 1081 2264 
Q 1234 2150 1697 2047 
L 1894 2003 
Q 2506 1872 2764 1633 
Q 3022 1394 3022 966 
Q 3022 478 2636 193 
Q 2250 -91 1575 -91 
Q 1294 -91 989 -36 
Q 684 19 347 128 
L 347 722 
Q 666 556 975 473 
Q 1284 391 1588 391 
Q 1994 391 2212 530 
Q 2431 669 2431 922 
Q 2431 1156 2273 1281 
Q 2116 1406 1581 1522 
L 1381 1569 
Q 847 1681 609 1914 
Q 372 2147 372 2553 
Q 372 3047 722 3315 
Q 1072 3584 1716 3584 
Q 2034 3584 2315 3537 
Q 2597 3491 2834 3397 
z
" transform="scale(0.015625)"/>
      <path id="DejaVuSans-66" d="M 2375 4863 
L 2375 4384 
L 1825 4384 
Q 1516 4384 1395 4259 
Q 1275 4134 1275 3809 
L 1275 3500 
L 2222 3500 
L 2222 3053 
L 1275 3053 
L 1275 0 
L 697 0 
L 697 3053 
L 147 3053 
L 147 3500 
L 697 3500 
L 697 3744 
Q 697 4328 969 4595 
Q 1241 4863 1831 4863 
L 2375 4863 
z
" transform="scale(0.015625)"/>
      <path id="DejaVuSans-2c" d="M 750 794 
L 1409 794 
L 1409 256 
L 897 -744 
L 494 -744 
L 750 256 
L 750 794 
z
" transform="scale(0.015625)"/>
      <path id="DejaVuSans-2f" d="M 1625 4666 
L 2156 4666 
L 531 -594 
L 0 -594 
L 1625 4666 
z
" transform="scale(0.015625)"/>
     </defs>
     <use xlink:href="#DejaVuSans-7a"/>
     <use xlink:href="#DejaVuSans-6c" transform="translate(52.490234 0)"/>
     <use xlink:href="#DejaVuSans-69" transform="translate(80.273438 0)"/>
     <use xlink:href="#DejaVuSans-62" transform="translate(108.056641 0)"/>
     <use xlink:href="#DejaVuSans-5f" transform="translate(171.533203 0)"/>
     <use xlink:href="#DejaVuSans-7a" transform="translate(221.533203 0)"/>
     <use xlink:href="#DejaVuSans-6c" transform="translate(274.023438 0)"/>
     <use xlink:href="#DejaVuSans-69" transform="translate(301.806641 0)"/>
     <use xlink:href="#DejaVuSans-62" transform="translate(329.589844 0)"/>
     <use xlink:href="#DejaVuSans-5f" transform="translate(393.066406 0)"/>
     <use xlink:href="#DejaVuSans-75" transform="translate(443.066406 0)"/>
     <use xlink:href="#DejaVuSans-6e" transform="translate(506.445312 0)"/>
     <use xlink:href="#DejaVuSans-63" transform="translate(569.824219 0)"/>
     <use xlink:href="#DejaVuSans-6f" transform="translate(624.804688 0)"/>
     <use xlink:href="#DejaVuSans-6d" transform="translate(685.986328 0)"/>
     <use xlink:href="#DejaVuSans-70" transform="translate(783.398438 0)"/>
     <use xlink:href="#DejaVuSans-72" transform="translate(846.875 0)"/>
     <use xlink:href="#DejaVuSans-65" transform="translate(885.738281 0)"/>
     <use xlink:href="#DejaVuSans-73" transform="translate(947.261719 0)"/>
     <use xlink:href="#DejaVuSans-73" transform="translate(999.361328 0)"/>
     <use xlink:href="#DejaVuSans-5f" transform="translate(1051.460938 0)"/>
     <use xlink:href="#DejaVuSans-66" transform="translate(1101.460938 0)"/>
     <use xlink:href="#DejaVuSans-75" transform="translate(1136.666016 0)"/>
     <use xlink:href="#DejaVuSans-7a" transform="translate(1200.044922 0)"/>
     <use xlink:href="#DejaVuSans-7a" transform="translate(1252.535156 0)"/>
     <use xlink:href="#DejaVuSans-65" transform="translate(1305.025391 0)"/>
     <use xlink:href="#DejaVuSans-72" transform="translate(1366.548828 0)"/>
     <use xlink:href="#DejaVuSans-20" transform="translate(1407.662109 0)"/>
     <use xlink:href="#DejaVuSans-28" transform="translate(1439.449219 0)"/>
     <use xlink:href="#DejaVuSans-31" transform="translate(1478.462891 0)"/>
     <use xlink:href="#DejaVuSans-30" transform="translate(1542.085938 0)"/>
     <use xlink:href="#DejaVuSans-68" transform="translate(1605.708984 0)"/>
     <use xlink:href="#DejaVuSans-3a" transform="translate(1669.087891 0)"/>
     <use xlink:href="#DejaVuSans-34" transform="translate(1702.779297 0)"/>
     <use xlink:href="#DejaVuSans-35" transform="translate(1766.402344 0)"/>
     <use xlink:href="#DejaVuSans-6d" transform="translate(1830.025391 0)"/>
     <use xlink:href="#DejaVuSans-2c" transform="translate(1927.4375 0)"/>
     <use xlink:href="#DejaVuSans-20" transform="translate(1959.224609 0)"/>
     <use xlink:href="#DejaVuSans-61" transform="translate(1991.011719 0)"/>
     <use xlink:href="#DejaVuSans-74" transform="translate(2052.291016 0)"/>
     <use xlink:href="#DejaVuSans-20" transform="translate(2091.5 0)"/>
     <use xlink:href="#DejaVuSans-6c" transform="translate(2123.287109 0)"/>
     <use xlink:href="#DejaVuSans-65" transform="translate(2151.070312 0)"/>
     <use xlink:href="#DejaVuSans-61" transform="translate(2212.59375 0)"/>
     <use xlink:href="#DejaVuSans-73" transform="translate(2273.873047 0)"/>
     <use xlink:href="#DejaVuSans-74" transform="translate(2325.972656 0)"/>
     <use xlink:href="#DejaVuSans-20" transform="translate(2365.181641 0)"/>
     <use xlink:href="#DejaVuSans-33" transform="translate(2396.96875 0)"/>
     <use xlink:href="#DejaVuSans-20" transform="translate(2460.591797 0)"/>
     <use xlink:href="#DejaVuSans-74" transform="translate(2492.378906 0)"/>
     <use xlink:href="#DejaVuSans-72" transform="translate(2531.587891 0)"/>
     <use xlink:href="#DejaVuSans-69" transform="translate(2572.701172 0)"/>
     <use xlink:href="#DejaVuSans-61" transform="translate(2600.484375 0)"/>
     <use xlink:href="#DejaVuSans-6c" transform="translate(2661.763672 0)"/>
     <use xlink:href="#DejaVuSans-73" transform="translate(2689.546875 0)"/>
     <use xlink:href="#DejaVuSans-2f" transform="translate(2741.646484 0)"/>
     <use xlink:href="#DejaVuSans-66" transform="translate(2775.337891 0)"/>
     <use xlink:href="#DejaVuSans-75" transform="translate(2810.542969 0)"/>
     <use xlink:href="#DejaVuSans-7a" transform="translate(2873.921875 0)"/>
     <use xlink:href="#DejaVuSans-7a" transform="translate(2926.412109 0)"/>
     <use xlink:href="#DejaVuSans-65" transform="translate(2978.902344 0)"/>
     <use xlink:href="#DejaVuSans-72" transform="translate(3040.425781 0)"/>
     <use xlink:href="#DejaVuSans-29" transform="translate(3081.539062 0)"/>
    </g>
   </g>
   <g id="legend_1">
    <g id="line2d_27">
     <path d="M 765.205625 30.416562 
L 775.205625 30.416562 
L 785.205625 30.416562 
" style="fill: none; stroke: #d62728; stroke-width: 1.5; stroke-linecap: square"/>
     <g>
      <use xlink:href="#m544898191a" x="775.205625" y="30.416562" style="fill: #d62728; stroke: #ffffff; stroke-width: 0.75; stroke-linejoin: miter"/>
     </g>
    </g>
    <g id="text_17">
     <!-- aflplusplus_c11 -->
     <g transform="translate(793.205625 33.916562) scale(0.1 -0.1)">
      <use xlink:href="#DejaVuSans-61"/>
      <use xlink:href="#DejaVuSans-66" transform="translate(61.279297 0)"/>
      <use xlink:href="#DejaVuSans-6c" transform="translate(96.484375 0)"/>
      <use xlink:href="#DejaVuSans-70" transform="translate(124.267578 0)"/>
      <use xlink:href="#DejaVuSans-6c" transform="translate(187.744141 0)"/>
      <use xlink:href="#DejaVuSans-75" transform="translate(215.527344 0)"/>
      <use xlink:href="#DejaVuSans-73" transform="translate(278.90625 0)"/>
      <use xlink:href="#DejaVuSans-70" transform="translate(331.005859 0)"/>
      <use xlink:href="#DejaVuSans-6c" transform="translate(394.482422 0)"/>
      <use xlink:href="#DejaVuSans-75" transform="translate(422.265625 0)"/>
      <use xlink:href="#DejaVuSans-73" transform="translate(485.644531 0)"/>
      <use xlink:href="#DejaVuSans-5f" transform="translate(537.744141 0)"/>
      <use xlink:href="#DejaVuSans-63" transform="translate(587.744141 0)"/>
      <use xlink:href="#DejaVuSans-31" transform="translate(642.724609 0)"/>
      <use xlink:href="#DejaVuSans-31" transform="translate(706.347656 0)"/>
     </g>
    </g>
    <g id="line2d_28">
     <path d="M 765.205625 45.372813 
L 775.205625 45.372813 
L 785.205625 45.372813 
" style="fill: none; stroke: #c7c7c7; stroke-width: 1.5; stroke-linecap: square"/>
     <g>
      <use xlink:href="#m541842ceed" x="775.205625" y="45.372813" style="fill: #c7c7c7; stroke: #ffffff; stroke-width: 0.75; stroke-linejoin: miter"/>
     </g>
    </g>
    <g id="text_18">
     <!-- aflplusplus_mopt -->
     <g transform="translate(793.205625 48.872813) scale(0.1 -0.1)">
      <use xlink:href="#DejaVuSans-61"/>
      <use xlink:href="#DejaVuSans-66" transform="translate(61.279297 0)"/>
      <use xlink:href="#DejaVuSans-6c" transform="translate(96.484375 0)"/>
      <use xlink:href="#DejaVuSans-70" transform="translate(124.267578 0)"/>
      <use xlink:href="#DejaVuSans-6c" transform="translate(187.744141 0)"/>
      <use xlink:href="#DejaVuSans-75" transform="translate(215.527344 0)"/>
      <use xlink:href="#DejaVuSans-73" transform="translate(278.90625 0)"/>
      <use xlink:href="#DejaVuSans-70" transform="translate(331.005859 0)"/>
      <use xlink:href="#DejaVuSans-6c" transform="translate(394.482422 0)"/>
      <use xlink:href="#DejaVuSans-75" transform="translate(422.265625 0)"/>
      <use xlink:href="#DejaVuSans-73" transform="translate(485.644531 0)"/>
      <use xlink:href="#DejaVuSans-5f" transform="translate(537.744141 0)"/>
      <use xlink:href="#DejaVuSans-6d" transform="translate(587.744141 0)"/>
      <use xlink:href="#DejaVuSans-6f" transform="translate(685.15625 0)"/>
      <use xlink:href="#DejaVuSans-70" transform="translate(746.337891 0)"/>
      <use xlink:href="#DejaVuSans-74" transform="translate(809.814453 0)"/>
     </g>
    </g>
    <g id="line2d_29">
     <path d="M 765.205625 60.329063 
L 775.205625 60.329063 
L 785.205625 60.329063 
" style="fill: none; stroke: #98df8a; stroke-width: 1.5; stroke-linecap: square"/>
     <g>
      <use xlink:href="#m40e64bf97f" x="775.205625" y="60.329063" style="fill: #98df8a; stroke: #ffffff; stroke-width: 0.75; stroke-linejoin: miter"/>
     </g>
    </g>
    <g id="text_19">
     <!-- aflplusplus_500c -->
     <g transform="translate(793.205625 63.829063) scale(0.1 -0.1)">
      <use xlink:href="#DejaVuSans-61"/>
      <use xlink:href="#DejaVuSans-66" transform="translate(61.279297 0)"/>
      <use xlink:href="#DejaVuSans-6c" transform="translate(96.484375 0)"/>
      <use xlink:href="#DejaVuSans-70" transform="translate(124.267578 0)"/>
      <use xlink:href="#DejaVuSans-6c" transform="translate(187.744141 0)"/>
      <use xlink:href="#DejaVuSans-75" transform="translate(215.527344 0)"/>
      <use xlink:href="#DejaVuSans-73" transform="translate(278.90625 0)"/>
      <use xlink:href="#DejaVuSans-70" transform="translate(331.005859 0)"/>
      <use xlink:href="#DejaVuSans-6c" transform="translate(394.482422 0)"/>
      <use xlink:href="#DejaVuSans-75" transform="translate(422.265625 0)"/>
      <use xlink:href="#DejaVuSans-73" transform="translate(485.644531 0)"/>
      <use xlink:href="#DejaVuSans-5f" transform="translate(537.744141 0)"/>
      <use xlink:href="#DejaVuSans-35" transform="translate(587.744141 0)"/>
      <use xlink:href="#DejaVuSans-30" transform="translate(651.367188 0)"/>
      <use xlink:href="#DejaVuSans-30" transform="translate(714.990234 0)"/>
      <use xlink:href="#DejaVuSans-63" transform="translate(778.613281 0)"/>
     </g>
    </g>
    <g id="line2d_30">
     <path d="M 765.205625 75.285313 
L 775.205625 75.285313 
L 785.205625 75.285313 
" style="fill: none; stroke: #1f77b4; stroke-width: 1.5; stroke-linecap: square"/>
     <g>
      <use xlink:href="#m7ee38f1e6a" x="775.205625" y="75.285313" style="fill: #1f77b4; stroke: #ffffff; stroke-width: 0.75"/>
     </g>
    </g>
    <g id="text_20">
     <!-- aflplusplus_440c -->
     <g transform="translate(793.205625 78.785313) scale(0.1 -0.1)">
      <use xlink:href="#DejaVuSans-61"/>
      <use xlink:href="#DejaVuSans-66" transform="translate(61.279297 0)"/>
      <use xlink:href="#DejaVuSans-6c" transform="translate(96.484375 0)"/>
      <use xlink:href="#DejaVuSans-70" transform="translate(124.267578 0)"/>
      <use xlink:href="#DejaVuSans-6c" transform="translate(187.744141 0)"/>
      <use xlink:href="#DejaVuSans-75" transform="translate(215.527344 0)"/>
      <use xlink:href="#DejaVuSans-73" transform="translate(278.90625 0)"/>
      <use xlink:href="#DejaVuSans-70" transform="translate(331.005859 0)"/>
      <use xlink:href="#DejaVuSans-6c" transform="translate(394.482422 0)"/>
      <use xlink:href="#DejaVuSans-75" transform="translate(422.265625 0)"/>
      <use xlink:href="#DejaVuSans-73" transform="translate(485.644531 0)"/>
      <use xlink:href="#DejaVuSans-5f" transform="translate(537.744141 0)"/>
      <use xlink:href="#DejaVuSans-34" transform="translate(587.744141 0)"/>
      <use xlink:href="#DejaVuSans-34" transform="translate(651.367188 0)"/>
      <use xlink:href="#DejaVuSans-30" transform="translate(714.990234 0)"/>
      <use xlink:href="#DejaVuSans-63" transform="translate(778.613281 0)"/>
     </g>
    </g>
   </g>
  </g>
 </g>
 <defs>
  <clipPath id="p3291181e5a">
   <rect x="46.965625" y="22.318125" width="714.24" height="266.112"/>
  </clipPath>
 </defs>
</svg>
