<?xml version="1.0" encoding="utf-8" standalone="no"?>
<!DOCTYPE svg PUBLIC "-//W3C//DTD SVG 1.1//EN"
  "http://www.w3.org/Graphics/SVG/1.1/DTD/svg11.dtd">
<svg xmlns:xlink="http://www.w3.org/1999/xlink" width="889.307188pt" height="325.986375pt" viewBox="0 0 889.307188 325.986375" xmlns="http://www.w3.org/2000/svg" version="1.1">
 <metadata>
  <rdf:RDF xmlns:dc="http://purl.org/dc/elements/1.1/" xmlns:cc="http://creativecommons.org/ns#" xmlns:rdf="http://www.w3.org/1999/02/22-rdf-syntax-ns#">
   <cc:Work>
    <dc:type rdf:resource="http://purl.org/dc/dcmitype/StillImage"/>
    <dc:date>2026-06-10T06:48:48.475242</dc:date>
    <dc:format>image/svg+xml</dc:format>
    <dc:creator>
     <cc:Agent>
      <dc:title>Matplotlib v3.10.9, https://matplotlib.org/</dc:title>
     </cc:Agent>
    </dc:creator>
   </cc:Work>
  </rdf:RDF>
 </metadata>
 <defs>
  <style type="text/css">*{stroke-linejoin: round; stroke-linecap: butt}</style>
 </defs>
 <g id="figure_1">
  <g id="patch_1">
   <path d="M 0 325.986375 
L 889.307188 325.986375 
L 889.307188 0 
L 0 0 
z
" style="fill: #ffffff"/>
  </g>
  <g id="axes_1">
   <g id="patch_2">
    <path d="M 46.965625 288.430125 
L 761.205625 288.430125 
L 761.205625 22.318125 
L 46.965625 22.318125 
z
" style="fill: #ffffff"/>
   </g>
   <g id="FillBetweenPolyCollection_1">
    <defs>
     <path id="mad3240d0c0" d="M 46.965625 -49.65225 
L 46.965625 -49.65225 
L 58.302768 -284.350757 
L 69.639911 -284.866578 
L 80.977054 -284.866578 
L 92.314196 -284.866578 
L 103.651339 -284.866578 
L 114.988482 -284.866578 
L 126.325625 -284.866578 
L 137.662768 -284.866578 
L 148.999911 -284.866578 
L 160.337054 -284.866578 
L 171.674196 -284.866578 
L 183.011339 -284.866578 
L 194.348482 -284.866578 
L 205.685625 -284.866578 
L 217.022768 -284.866578 
L 228.359911 -284.866578 
L 239.697054 -284.866578 
L 251.034196 -284.866578 
L 262.371339 -284.866578 
L 273.708482 -284.866578 
L 285.045625 -284.866578 
L 296.382768 -284.866578 
L 307.719911 -284.866578 
L 319.057054 -284.866578 
L 330.394196 -284.866578 
L 341.731339 -284.866578 
L 353.068482 -284.866578 
L 364.405625 -284.866578 
L 375.742768 -284.866578 
L 387.079911 -284.866578 
L 398.417054 -284.866578 
L 409.754196 -284.866578 
L 421.091339 -284.866578 
L 432.428482 -284.866578 
L 443.765625 -284.866578 
L 455.102768 -284.866578 
L 466.439911 -284.866578 
L 477.777054 -284.866578 
L 489.114196 -284.866578 
L 500.451339 -284.866578 
L 511.788482 -284.866578 
L 523.125625 -284.866578 
L 534.462768 -284.866578 
L 545.799911 -284.866578 
L 557.137054 -284.866578 
L 568.474196 -284.866578 
L 579.811339 -284.866578 
L 591.148482 -284.866578 
L 602.485625 -284.866578 
L 613.822768 -284.866578 
L 625.159911 -284.866578 
L 636.497054 -284.866578 
L 647.834196 -284.866578 
L 659.171339 -284.866578 
L 670.508482 -284.866578 
L 681.845625 -284.866578 
L 693.182768 -284.866578 
L 704.519911 -284.866578 
L 715.857054 -284.866578 
L 727.194196 -284.866578 
L 727.194196 -291.57225 
L 727.194196 -291.57225 
L 715.857054 -291.57225 
L 704.519911 -291.57225 
L 693.182768 -291.57225 
L 681.845625 -291.57225 
L 670.508482 -291.57225 
L 659.171339 -291.57225 
L 647.834196 -291.57225 
L 636.497054 -291.57225 
L 625.159911 -291.57225 
L 613.822768 -291.57225 
L 602.485625 -291.57225 
L 591.148482 -291.57225 
L 579.811339 -291.57225 
L 568.474196 -291.57225 
L 557.137054 -291.57225 
L 545.799911 -291.056429 
L 534.462768 -287.961504 
L 523.125625 -287.961504 
L 511.788482 -287.961504 
L 500.451339 -287.961504 
L 489.114196 -287.961504 
L 477.777054 -287.961504 
L 466.439911 -287.961504 
L 455.102768 -287.961504 
L 443.765625 -287.961504 
L 432.428482 -287.961504 
L 421.091339 -287.961504 
L 409.754196 -287.961504 
L 398.417054 -287.961504 
L 387.079911 -287.961504 
L 375.742768 -287.961504 
L 364.405625 -287.961504 
L 353.068482 -287.961504 
L 341.731339 -287.961504 
L 330.394196 -287.961504 
L 319.057054 -287.961504 
L 307.719911 -287.445683 
L 296.382768 -287.445683 
L 285.045625 -287.445683 
L 273.708482 -286.929862 
L 262.371339 -286.929862 
L 251.034196 -286.929862 
L 239.697054 -286.929862 
L 228.359911 -286.929862 
L 217.022768 -286.929862 
L 205.685625 -286.929862 
L 194.348482 -286.929862 
L 183.011339 -286.929862 
L 171.674196 -286.929862 
L 160.337054 -286.929862 
L 148.999911 -286.929862 
L 137.662768 -286.929862 
L 126.325625 -286.929862 
L 114.988482 -286.929862 
L 103.651339 -286.929862 
L 92.314196 -286.929862 
L 80.977054 -286.929862 
L 69.639911 -286.929862 
L 58.302768 -286.929862 
L 46.965625 -49.65225 
z
" style="stroke: #98df8a; stroke-opacity: 0.2"/>
    </defs>
    <g clip-path="url(#p036324983b)">
     <use xlink:href="#mad3240d0c0" x="0" y="325.986375" style="fill: #98df8a; fill-opacity: 0.2; stroke: #98df8a; stroke-opacity: 0.2"/>
    </g>
   </g>
   <g id="FillBetweenPolyCollection_2">
    <defs>
     <path id="mbc378cae98" d="M 46.965625 -49.65225 
L 46.965625 -49.65225 
L 58.302768 -283.319116 
L 69.639911 -283.319116 
L 80.977054 -283.319116 
L 92.314196 -283.319116 
L 103.651339 -283.319116 
L 114.988482 -283.319116 
L 126.325625 -283.319116 
L 137.662768 -284.866578 
L 148.999911 -284.866578 
L 160.337054 -284.866578 
L 171.674196 -284.866578 
L 183.011339 -284.866578 
L 194.348482 -284.866578 
L 205.685625 -284.866578 
L 217.022768 -284.866578 
L 228.359911 -284.866578 
L 239.697054 -284.866578 
L 251.034196 -284.866578 
L 262.371339 -284.866578 
L 273.708482 -284.866578 
L 285.045625 -284.866578 
L 296.382768 -284.866578 
L 307.719911 -284.866578 
L 319.057054 -284.866578 
L 330.394196 -284.866578 
L 341.731339 -284.866578 
L 353.068482 -284.866578 
L 364.405625 -284.866578 
L 375.742768 -284.866578 
L 387.079911 -284.866578 
L 398.417054 -284.866578 
L 409.754196 -284.866578 
L 421.091339 -284.866578 
L 432.428482 -284.866578 
L 443.765625 -284.866578 
L 455.102768 -284.866578 
L 466.439911 -284.866578 
L 477.777054 -284.866578 
L 489.114196 -284.866578 
L 500.451339 -284.866578 
L 511.788482 -284.866578 
L 523.125625 -284.866578 
L 534.462768 -284.866578 
L 545.799911 -284.866578 
L 557.137054 -284.866578 
L 568.474196 -284.866578 
L 579.811339 -284.866578 
L 591.148482 -284.866578 
L 602.485625 -284.866578 
L 613.822768 -284.866578 
L 625.159911 -284.866578 
L 636.497054 -284.866578 
L 647.834196 -284.866578 
L 659.171339 -284.866578 
L 670.508482 -284.866578 
L 681.845625 -284.866578 
L 693.182768 -284.866578 
L 704.519911 -284.866578 
L 715.857054 -284.866578 
L 727.194196 -284.866578 
L 727.194196 -290.024787 
L 727.194196 -290.024787 
L 715.857054 -290.024787 
L 704.519911 -290.024787 
L 693.182768 -290.024787 
L 681.845625 -290.024787 
L 670.508482 -290.024787 
L 659.171339 -290.024787 
L 647.834196 -290.024787 
L 636.497054 -290.024787 
L 625.159911 -290.024787 
L 613.822768 -290.024787 
L 602.485625 -290.024787 
L 591.148482 -290.024787 
L 579.811339 -290.024787 
L 568.474196 -290.024787 
L 557.137054 -289.773325 
L 545.799911 -290.024787 
L 534.462768 -290.024787 
L 523.125625 -290.024787 
L 511.788482 -290.024787 
L 500.451339 -290.024787 
L 489.114196 -290.024787 
L 477.777054 -290.024787 
L 466.439911 -290.024787 
L 455.102768 -290.024787 
L 443.765625 -290.024787 
L 432.428482 -290.024787 
L 421.091339 -290.024787 
L 409.754196 -290.024787 
L 398.417054 -287.961504 
L 387.079911 -287.961504 
L 375.742768 -287.961504 
L 364.405625 -287.961504 
L 353.068482 -287.961504 
L 341.731339 -287.961504 
L 330.394196 -287.961504 
L 319.057054 -287.961504 
L 307.719911 -287.961504 
L 296.382768 -287.961504 
L 285.045625 -287.961504 
L 273.708482 -287.961504 
L 262.371339 -287.961504 
L 251.034196 -287.961504 
L 239.697054 -287.961504 
L 228.359911 -287.961504 
L 217.022768 -287.961504 
L 205.685625 -287.961504 
L 194.348482 -287.961504 
L 183.011339 -287.961504 
L 171.674196 -287.961504 
L 160.337054 -287.961504 
L 148.999911 -287.961504 
L 137.662768 -287.961504 
L 126.325625 -287.961504 
L 114.988482 -287.961504 
L 103.651339 -287.961504 
L 92.314196 -286.156131 
L 80.977054 -286.156131 
L 69.639911 -286.156131 
L 58.302768 -286.156131 
L 46.965625 -49.65225 
z
" style="stroke: #d62728; stroke-opacity: 0.2"/>
    </defs>
    <g clip-path="url(#p036324983b)">
     <use xlink:href="#mbc378cae98" x="0" y="325.986375" style="fill: #d62728; fill-opacity: 0.2; stroke: #d62728; stroke-opacity: 0.2"/>
    </g>
   </g>
   <g id="FillBetweenPolyCollection_3">
    <defs>
     <path id="mb21dd148df" d="M 46.965625 -49.65225 
L 46.965625 -49.65225 
L 58.302768 -281.771653 
L 69.639911 -282.287474 
L 80.977054 -282.287474 
L 92.314196 -282.287474 
L 103.651339 -282.287474 
L 114.988482 -282.287474 
L 126.325625 -282.287474 
L 137.662768 -282.287474 
L 148.999911 -283.834937 
L 160.337054 -283.834937 
L 171.674196 -283.834937 
L 183.011339 -284.866578 
L 194.348482 -284.866578 
L 205.685625 -285.382399 
L 217.022768 -285.382399 
L 228.359911 -285.382399 
L 239.697054 -285.382399 
L 251.034196 -285.382399 
L 262.371339 -285.382399 
L 273.708482 -285.382399 
L 285.045625 -285.382399 
L 296.382768 -285.382399 
L 307.719911 -285.382399 
L 319.057054 -285.382399 
L 330.394196 -285.382399 
L 341.731339 -285.382399 
L 353.068482 -285.382399 
L 364.405625 -285.382399 
L 375.742768 -285.382399 
L 387.079911 -285.382399 
L 398.417054 -285.382399 
L 409.754196 -285.382399 
L 421.091339 -285.382399 
L 432.428482 -285.382399 
L 443.765625 -285.382399 
L 455.102768 -285.382399 
L 466.439911 -285.382399 
L 477.777054 -285.382399 
L 489.114196 -285.382399 
L 500.451339 -285.382399 
L 511.788482 -285.382399 
L 523.125625 -285.382399 
L 534.462768 -285.382399 
L 545.799911 -285.382399 
L 557.137054 -285.382399 
L 568.474196 -285.382399 
L 579.811339 -285.382399 
L 591.148482 -285.382399 
L 602.485625 -285.382399 
L 613.822768 -285.382399 
L 625.159911 -285.382399 
L 636.497054 -285.382399 
L 647.834196 -285.382399 
L 659.171339 -285.382399 
L 670.508482 -285.382399 
L 681.845625 -285.382399 
L 693.182768 -285.382399 
L 704.519911 -285.382399 
L 715.857054 -285.382399 
L 727.194196 -285.382399 
L 727.194196 -288.477325 
L 727.194196 -288.477325 
L 715.857054 -288.477325 
L 704.519911 -288.477325 
L 693.182768 -288.477325 
L 681.845625 -288.477325 
L 670.508482 -288.477325 
L 659.171339 -288.477325 
L 647.834196 -288.477325 
L 636.497054 -288.477325 
L 625.159911 -288.477325 
L 613.822768 -288.477325 
L 602.485625 -288.477325 
L 591.148482 -288.477325 
L 579.811339 -288.477325 
L 568.474196 -288.477325 
L 557.137054 -288.477325 
L 545.799911 -288.477325 
L 534.462768 -288.477325 
L 523.125625 -288.477325 
L 511.788482 -288.477325 
L 500.451339 -288.477325 
L 489.114196 -288.477325 
L 477.777054 -288.477325 
L 466.439911 -288.477325 
L 455.102768 -288.477325 
L 443.765625 -288.477325 
L 432.428482 -288.477325 
L 421.091339 -288.477325 
L 409.754196 -288.477325 
L 398.417054 -288.477325 
L 387.079911 -288.477325 
L 375.742768 -288.477325 
L 364.405625 -288.477325 
L 353.068482 -288.477325 
L 341.731339 -288.477325 
L 330.394196 -288.477325 
L 319.057054 -288.477325 
L 307.719911 -288.477325 
L 296.382768 -288.477325 
L 285.045625 -288.477325 
L 273.708482 -288.477325 
L 262.371339 -288.477325 
L 251.034196 -288.477325 
L 239.697054 -288.477325 
L 228.359911 -288.477325 
L 217.022768 -288.477325 
L 205.685625 -288.477325 
L 194.348482 -288.477325 
L 183.011339 -288.477325 
L 171.674196 -288.477325 
L 160.337054 -288.477325 
L 148.999911 -288.477325 
L 137.662768 -288.477325 
L 126.325625 -288.477325 
L 114.988482 -288.477325 
L 103.651339 -288.477325 
L 92.314196 -288.477325 
L 80.977054 -288.477325 
L 69.639911 -288.477325 
L 58.302768 -287.961504 
L 46.965625 -49.65225 
z
" style="stroke: #c7c7c7; stroke-opacity: 0.2"/>
    </defs>
    <g clip-path="url(#p036324983b)">
     <use xlink:href="#mb21dd148df" x="0" y="325.986375" style="fill: #c7c7c7; fill-opacity: 0.2; stroke: #c7c7c7; stroke-opacity: 0.2"/>
    </g>
   </g>
   <g id="FillBetweenPolyCollection_4">
    <defs>
     <path id="mc49af30feb" d="M 46.965625 -49.65225 
L 46.965625 -49.65225 
L 58.302768 -280.740011 
L 69.639911 -280.740011 
L 80.977054 -280.740011 
L 92.314196 -280.740011 
L 103.651339 -280.740011 
L 114.988482 -280.740011 
L 126.325625 -280.740011 
L 137.662768 -280.740011 
L 148.999911 -280.740011 
L 160.337054 -280.740011 
L 171.674196 -280.740011 
L 183.011339 -280.740011 
L 194.348482 -280.740011 
L 205.685625 -280.740011 
L 217.022768 -280.740011 
L 228.359911 -280.740011 
L 239.697054 -280.740011 
L 251.034196 -280.740011 
L 262.371339 -280.740011 
L 273.708482 -280.740011 
L 285.045625 -280.740011 
L 296.382768 -280.740011 
L 307.719911 -280.740011 
L 319.057054 -280.740011 
L 330.394196 -280.740011 
L 341.731339 -280.740011 
L 353.068482 -280.740011 
L 364.405625 -280.740011 
L 375.742768 -280.740011 
L 387.079911 -280.740011 
L 398.417054 -280.740011 
L 409.754196 -280.740011 
L 421.091339 -280.740011 
L 432.428482 -280.740011 
L 443.765625 -280.740011 
L 455.102768 -280.740011 
L 466.439911 -280.740011 
L 477.777054 -280.740011 
L 489.114196 -280.740011 
L 500.451339 -280.740011 
L 511.788482 -281.771653 
L 523.125625 -281.771653 
L 534.462768 -281.771653 
L 545.799911 -281.771653 
L 557.137054 -281.771653 
L 568.474196 -281.771653 
L 579.811339 -281.771653 
L 591.148482 -284.866578 
L 602.485625 -284.866578 
L 613.822768 -284.866578 
L 625.159911 -284.866578 
L 636.497054 -284.866578 
L 647.834196 -284.866578 
L 659.171339 -284.866578 
L 670.508482 -284.866578 
L 681.845625 -284.866578 
L 693.182768 -284.866578 
L 704.519911 -284.866578 
L 715.857054 -284.866578 
L 727.194196 -284.866578 
L 727.194196 -287.961504 
L 727.194196 -287.961504 
L 715.857054 -287.961504 
L 704.519911 -287.961504 
L 693.182768 -287.961504 
L 681.845625 -287.961504 
L 670.508482 -287.961504 
L 659.171339 -287.961504 
L 647.834196 -287.961504 
L 636.497054 -287.961504 
L 625.159911 -287.961504 
L 613.822768 -287.961504 
L 602.485625 -287.961504 
L 591.148482 -287.961504 
L 579.811339 -287.961504 
L 568.474196 -287.961504 
L 557.137054 -287.961504 
L 545.799911 -287.961504 
L 534.462768 -287.961504 
L 523.125625 -287.961504 
L 511.788482 -287.961504 
L 500.451339 -287.961504 
L 489.114196 -287.961504 
L 477.777054 -287.961504 
L 466.439911 -287.961504 
L 455.102768 -287.961504 
L 443.765625 -287.961504 
L 432.428482 -287.961504 
L 421.091339 -287.961504 
L 409.754196 -287.961504 
L 398.417054 -287.961504 
L 387.079911 -287.961504 
L 375.742768 -287.961504 
L 364.405625 -287.961504 
L 353.068482 -287.961504 
L 341.731339 -286.929862 
L 330.394196 -286.929862 
L 319.057054 -286.929862 
L 307.719911 -286.929862 
L 296.382768 -286.929862 
L 285.045625 -286.929862 
L 273.708482 -286.929862 
L 262.371339 -286.929862 
L 251.034196 -286.929862 
L 239.697054 -286.929862 
L 228.359911 -286.929862 
L 217.022768 -286.929862 
L 205.685625 -286.929862 
L 194.348482 -286.414041 
L 183.011339 -286.414041 
L 171.674196 -286.414041 
L 160.337054 -286.414041 
L 148.999911 -286.414041 
L 137.662768 -286.414041 
L 126.325625 -286.414041 
L 114.988482 -286.414041 
L 103.651339 -286.414041 
L 92.314196 -286.414041 
L 80.977054 -286.414041 
L 69.639911 -284.866578 
L 58.302768 -284.866578 
L 46.965625 -49.65225 
z
" style="stroke: #1f77b4; stroke-opacity: 0.2"/>
    </defs>
    <g clip-path="url(#p036324983b)">
     <use xlink:href="#mc49af30feb" x="0" y="325.986375" style="fill: #1f77b4; fill-opacity: 0.2; stroke: #1f77b4; stroke-opacity: 0.2"/>
    </g>
   </g>
   <g id="matplotlib.axis_1">
    <g id="xtick_1">
     <g id="line2d_1">
      <defs>
       <path id="md546775621" d="M 0 0 
L 0 3.5 
" style="stroke: #000000; stroke-width: 0.8"/>
      </defs>
      <g>
       <use xlink:href="#md546775621" x="46.965625" y="288.430125" style="stroke: #000000; stroke-width: 0.8"/>
      </g>
     </g>
     <g id="text_1">
      <!-- 0m -->
      <g transform="translate(38.914063 303.028562) scale(0.1 -0.1)">
       <defs>
        <path id="DejaVuSans-30" d="M 2034 4250 
Q 1547 4250 1301 3770 
Q 1056 3291 1056 2328 
Q 1056 1369 1301 889 
Q 1547 409 2034 409 
Q 2525 409 2770 889 
Q 3016 1369 3016 2328 
Q 3016 3291 2770 3770 
Q 2525 4250 2034 4250 
z
M 2034 4750 
Q 2819 4750 3233 4129 
Q 3647 3509 3647 2328 
Q 3647 1150 3233 529 
Q 2819 -91 2034 -91 
Q 1250 -91 836 529 
Q 422 1150 422 2328 
Q 422 3509 836 4129 
Q 1250 4750 2034 4750 
z
" transform="scale(0.015625)"/>
        <path id="DejaVuSans-6d" d="M 3328 2828 
Q 3544 3216 3844 3400 
Q 4144 3584 4550 3584 
Q 5097 3584 5394 3201 
Q 5691 2819 5691 2113 
L 5691 0 
L 5113 0 
L 5113 2094 
Q 5113 2597 4934 2840 
Q 4756 3084 4391 3084 
Q 3944 3084 3684 2787 
Q 3425 2491 3425 1978 
L 3425 0 
L 2847 0 
L 2847 2094 
Q 2847 2600 2669 2842 
Q 2491 3084 2119 3084 
Q 1678 3084 1418 2786 
Q 1159 2488 1159 1978 
L 1159 0 
L 581 0 
L 581 3500 
L 1159 3500 
L 1159 2956 
Q 1356 3278 1631 3431 
Q 1906 3584 2284 3584 
Q 2666 3584 2933 3390 
Q 3200 3197 3328 2828 
z
" transform="scale(0.015625)"/>
       </defs>
       <use xlink:href="#DejaVuSans-30"/>
       <use xlink:href="#DejaVuSans-6d" transform="translate(63.623047 0)"/>
      </g>
     </g>
    </g>
    <g id="xtick_2">
     <g id="line2d_2">
      <g>
       <use xlink:href="#md546775621" x="103.651339" y="288.430125" style="stroke: #000000; stroke-width: 0.8"/>
      </g>
     </g>
     <g id="text_2">
      <!-- 1h:15m -->
      <g transform="translate(84.384152 303.028562) scale(0.1 -0.1)">
       <defs>
        <path id="DejaVuSans-31" d="M 794 531 
L 1825 531 
L 1825 4091 
L 703 3866 
L 703 4441 
L 1819 4666 
L 2450 4666 
L 2450 531 
L 3481 531 
L 3481 0 
L 794 0 
L 794 531 
z
" transform="scale(0.015625)"/>
        <path id="DejaVuSans-68" d="M 3513 2113 
L 3513 0 
L 2938 0 
L 2938 2094 
Q 2938 2591 2744 2837 
Q 2550 3084 2163 3084 
Q 1697 3084 1428 2787 
Q 1159 2491 1159 1978 
L 1159 0 
L 581 0 
L 581 4863 
L 1159 4863 
L 1159 2956 
Q 1366 3272 1645 3428 
Q 1925 3584 2291 3584 
Q 2894 3584 3203 3211 
Q 3513 2838 3513 2113 
z
" transform="scale(0.015625)"/>
        <path id="DejaVuSans-3a" d="M 750 794 
L 1409 794 
L 1409 0 
L 750 0 
L 750 794 
z
M 750 3309 
L 1409 3309 
L 1409 2516 
L 750 2516 
L 750 3309 
z
" transform="scale(0.015625)"/>
        <path id="DejaVuSans-35" d="M 691 4666 
L 3169 4666 
L 3169 4134 
L 1269 4134 
L 1269 2991 
Q 1406 3038 1543 3061 
Q 1681 3084 1819 3084 
Q 2600 3084 3056 2656 
Q 3513 2228 3513 1497 
Q 3513 744 3044 326 
Q 2575 -91 1722 -91 
Q 1428 -91 1123 -41 
Q 819 9 494 109 
L 494 744 
Q 775 591 1075 516 
Q 1375 441 1709 441 
Q 2250 441 2565 725 
Q 2881 1009 2881 1497 
Q 2881 1984 2565 2268 
Q 2250 2553 1709 2553 
Q 1456 2553 1204 2497 
Q 953 2441 691 2322 
L 691 4666 
z
" transform="scale(0.015625)"/>
       </defs>
       <use xlink:href="#DejaVuSans-31"/>
       <use xlink:href="#DejaVuSans-68" transform="translate(63.623047 0)"/>
       <use xlink:href="#DejaVuSans-3a" transform="translate(127.001953 0)"/>
       <use xlink:href="#DejaVuSans-31" transform="translate(160.693359 0)"/>
       <use xlink:href="#DejaVuSans-35" transform="translate(224.316406 0)"/>
       <use xlink:href="#DejaVuSans-6d" transform="translate(287.939453 0)"/>
      </g>
     </g>
    </g>
    <g id="xtick_3">
     <g id="line2d_3">
      <g>
       <use xlink:href="#md546775621" x="160.337054" y="288.430125" style="stroke: #000000; stroke-width: 0.8"/>
      </g>
     </g>
     <g id="text_3">
      <!-- 2h:30m -->
      <g transform="translate(141.069866 303.028562) scale(0.1 -0.1)">
       <defs>
        <path id="DejaVuSans-32" d="M 1228 531 
L 3431 531 
L 3431 0 
L 469 0 
L 469 531 
Q 828 903 1448 1529 
Q 2069 2156 2228 2338 
Q 2531 2678 2651 2914 
Q 2772 3150 2772 3378 
Q 2772 3750 2511 3984 
Q 2250 4219 1831 4219 
Q 1534 4219 1204 4116 
Q 875 4013 500 3803 
L 500 4441 
Q 881 4594 1212 4672 
Q 1544 4750 1819 4750 
Q 2544 4750 2975 4387 
Q 3406 4025 3406 3419 
Q 3406 3131 3298 2873 
Q 3191 2616 2906 2266 
Q 2828 2175 2409 1742 
Q 1991 1309 1228 531 
z
" transform="scale(0.015625)"/>
        <path id="DejaVuSans-33" d="M 2597 2516 
Q 3050 2419 3304 2112 
Q 3559 1806 3559 1356 
Q 3559 666 3084 287 
Q 2609 -91 1734 -91 
Q 1441 -91 1130 -33 
Q 819 25 488 141 
L 488 750 
Q 750 597 1062 519 
Q 1375 441 1716 441 
Q 2309 441 2620 675 
Q 2931 909 2931 1356 
Q 2931 1769 2642 2001 
Q 2353 2234 1838 2234 
L 1294 2234 
L 1294 2753 
L 1863 2753 
Q 2328 2753 2575 2939 
Q 2822 3125 2822 3475 
Q 2822 3834 2567 4026 
Q 2313 4219 1838 4219 
Q 1578 4219 1281 4162 
Q 984 4106 628 3988 
L 628 4550 
Q 988 4650 1302 4700 
Q 1616 4750 1894 4750 
Q 2613 4750 3031 4423 
Q 3450 4097 3450 3541 
Q 3450 3153 3228 2886 
Q 3006 2619 2597 2516 
z
" transform="scale(0.015625)"/>
       </defs>
       <use xlink:href="#DejaVuSans-32"/>
       <use xlink:href="#DejaVuSans-68" transform="translate(63.623047 0)"/>
       <use xlink:href="#DejaVuSans-3a" transform="translate(127.001953 0)"/>
       <use xlink:href="#DejaVuSans-33" transform="translate(160.693359 0)"/>
       <use xlink:href="#DejaVuSans-30" transform="translate(224.316406 0)"/>
       <use xlink:href="#DejaVuSans-6d" transform="translate(287.939453 0)"/>
      </g>
     </g>
    </g>
    <g id="xtick_4">
     <g id="line2d_4">
      <g>
       <use xlink:href="#md546775621" x="217.022768" y="288.430125" style="stroke: #000000; stroke-width: 0.8"/>
      </g>
     </g>
     <g id="text_4">
      <!-- 3h:45m -->
      <g transform="translate(197.75558 303.028562) scale(0.1 -0.1)">
       <defs>
        <path id="DejaVuSans-34" d="M 2419 4116 
L 825 1625 
L 2419 1625 
L 2419 4116 
z
M 2253 4666 
L 3047 4666 
L 3047 1625 
L 3713 1625 
L 3713 1100 
L 3047 1100 
L 3047 0 
L 2419 0 
L 2419 1100 
L 313 1100 
L 313 1709 
L 2253 4666 
z
" transform="scale(0.015625)"/>
       </defs>
       <use xlink:href="#DejaVuSans-33"/>
       <use xlink:href="#DejaVuSans-68" transform="translate(63.623047 0)"/>
       <use xlink:href="#DejaVuSans-3a" transform="translate(127.001953 0)"/>
       <use xlink:href="#DejaVuSans-34" transform="translate(160.693359 0)"/>
       <use xlink:href="#DejaVuSans-35" transform="translate(224.316406 0)"/>
       <use xlink:href="#DejaVuSans-6d" transform="translate(287.939453 0)"/>
      </g>
     </g>
    </g>
    <g id="xtick_5">
     <g id="line2d_5">
      <g>
       <use xlink:href="#md546775621" x="273.708482" y="288.430125" style="stroke: #000000; stroke-width: 0.8"/>
      </g>
     </g>
     <g id="text_5">
      <!-- 5h -->
      <g transform="translate(267.358482 303.028562) scale(0.1 -0.1)">
       <use xlink:href="#DejaVuSans-35"/>
       <use xlink:href="#DejaVuSans-68" transform="translate(63.623047 0)"/>
      </g>
     </g>
    </g>
    <g id="xtick_6">
     <g id="line2d_6">
      <g>
       <use xlink:href="#md546775621" x="330.394196" y="288.430125" style="stroke: #000000; stroke-width: 0.8"/>
      </g>
     </g>
     <g id="text_6">
      <!-- 6h:15m -->
      <g transform="translate(311.127009 303.028562) scale(0.1 -0.1)">
       <defs>
        <path id="DejaVuSans-36" d="M 2113 2584 
Q 1688 2584 1439 2293 
Q 1191 2003 1191 1497 
Q 1191 994 1439 701 
Q 1688 409 2113 409 
Q 2538 409 2786 701 
Q 3034 994 3034 1497 
Q 3034 2003 2786 2293 
Q 2538 2584 2113 2584 
z
M 3366 4563 
L 3366 3988 
Q 3128 4100 2886 4159 
Q 2644 4219 2406 4219 
Q 1781 4219 1451 3797 
Q 1122 3375 1075 2522 
Q 1259 2794 1537 2939 
Q 1816 3084 2150 3084 
Q 2853 3084 3261 2657 
Q 3669 2231 3669 1497 
Q 3669 778 3244 343 
Q 2819 -91 2113 -91 
Q 1303 -91 875 529 
Q 447 1150 447 2328 
Q 447 3434 972 4092 
Q 1497 4750 2381 4750 
Q 2619 4750 2861 4703 
Q 3103 4656 3366 4563 
z
" transform="scale(0.015625)"/>
       </defs>
       <use xlink:href="#DejaVuSans-36"/>
       <use xlink:href="#DejaVuSans-68" transform="translate(63.623047 0)"/>
       <use xlink:href="#DejaVuSans-3a" transform="translate(127.001953 0)"/>
       <use xlink:href="#DejaVuSans-31" transform="translate(160.693359 0)"/>
       <use xlink:href="#DejaVuSans-35" transform="translate(224.316406 0)"/>
       <use xlink:href="#DejaVuSans-6d" transform="translate(287.939453 0)"/>
      </g>
     </g>
    </g>
    <g id="xtick_7">
     <g id="line2d_7">
      <g>
       <use xlink:href="#md546775621" x="387.079911" y="288.430125" style="stroke: #000000; stroke-width: 0.8"/>
      </g>
     </g>
     <g id="text_7">
      <!-- 7h:30m -->
      <g transform="translate(367.812723 303.028562) scale(0.1 -0.1)">
       <defs>
        <path id="DejaVuSans-37" d="M 525 4666 
L 3525 4666 
L 3525 4397 
L 1831 0 
L 1172 0 
L 2766 4134 
L 525 4134 
L 525 4666 
z
" transform="scale(0.015625)"/>
       </defs>
       <use xlink:href="#DejaVuSans-37"/>
       <use xlink:href="#DejaVuSans-68" transform="translate(63.623047 0)"/>
       <use xlink:href="#DejaVuSans-3a" transform="translate(127.001953 0)"/>
       <use xlink:href="#DejaVuSans-33" transform="translate(160.693359 0)"/>
       <use xlink:href="#DejaVuSans-30" transform="translate(224.316406 0)"/>
       <use xlink:href="#DejaVuSans-6d" transform="translate(287.939453 0)"/>
      </g>
     </g>
    </g>
    <g id="xtick_8">
     <g id="line2d_8">
      <g>
       <use xlink:href="#md546775621" x="443.765625" y="288.430125" style="stroke: #000000; stroke-width: 0.8"/>
      </g>
     </g>
     <g id="text_8">
      <!-- 8h:45m -->
      <g transform="translate(424.498438 303.028562) scale(0.1 -0.1)">
       <defs>
        <path id="DejaVuSans-38" d="M 2034 2216 
Q 1584 2216 1326 1975 
Q 1069 1734 1069 1313 
Q 1069 891 1326 650 
Q 1584 409 2034 409 
Q 2484 409 2743 651 
Q 3003 894 3003 1313 
Q 3003 1734 2745 1975 
Q 2488 2216 2034 2216 
z
M 1403 2484 
Q 997 2584 770 2862 
Q 544 3141 544 3541 
Q 544 4100 942 4425 
Q 1341 4750 2034 4750 
Q 2731 4750 3128 4425 
Q 3525 4100 3525 3541 
Q 3525 3141 3298 2862 
Q 3072 2584 2669 2484 
Q 3125 2378 3379 2068 
Q 3634 1759 3634 1313 
Q 3634 634 3220 271 
Q 2806 -91 2034 -91 
Q 1263 -91 848 271 
Q 434 634 434 1313 
Q 434 1759 690 2068 
Q 947 2378 1403 2484 
z
M 1172 3481 
Q 1172 3119 1398 2916 
Q 1625 2713 2034 2713 
Q 2441 2713 2670 2916 
Q 2900 3119 2900 3481 
Q 2900 3844 2670 4047 
Q 2441 4250 2034 4250 
Q 1625 4250 1398 4047 
Q 1172 3844 1172 3481 
z
" transform="scale(0.015625)"/>
       </defs>
       <use xlink:href="#DejaVuSans-38"/>
       <use xlink:href="#DejaVuSans-68" transform="translate(63.623047 0)"/>
       <use xlink:href="#DejaVuSans-3a" transform="translate(127.001953 0)"/>
       <use xlink:href="#DejaVuSans-34" transform="translate(160.693359 0)"/>
       <use xlink:href="#DejaVuSans-35" transform="translate(224.316406 0)"/>
       <use xlink:href="#DejaVuSans-6d" transform="translate(287.939453 0)"/>
      </g>
     </g>
    </g>
    <g id="xtick_9">
     <g id="line2d_9">
      <g>
       <use xlink:href="#md546775621" x="500.451339" y="288.430125" style="stroke: #000000; stroke-width: 0.8"/>
      </g>
     </g>
     <g id="text_9">
      <!-- 10h -->
      <g transform="translate(490.920089 303.028562) scale(0.1 -0.1)">
       <use xlink:href="#DejaVuSans-31"/>
       <use xlink:href="#DejaVuSans-30" transform="translate(63.623047 0)"/>
       <use xlink:href="#DejaVuSans-68" transform="translate(127.246094 0)"/>
      </g>
     </g>
    </g>
    <g id="xtick_10">
     <g id="line2d_10">
      <g>
       <use xlink:href="#md546775621" x="557.137054" y="288.430125" style="stroke: #000000; stroke-width: 0.8"/>
      </g>
     </g>
     <g id="text_10">
      <!-- 11h:15m -->
      <g transform="translate(534.688616 303.028562) scale(0.1 -0.1)">
       <use xlink:href="#DejaVuSans-31"/>
       <use xlink:href="#DejaVuSans-31" transform="translate(63.623047 0)"/>
       <use xlink:href="#DejaVuSans-68" transform="translate(127.246094 0)"/>
       <use xlink:href="#DejaVuSans-3a" transform="translate(190.625 0)"/>
       <use xlink:href="#DejaVuSans-31" transform="translate(224.316406 0)"/>
       <use xlink:href="#DejaVuSans-35" transform="translate(287.939453 0)"/>
       <use xlink:href="#DejaVuSans-6d" transform="translate(351.5625 0)"/>
      </g>
     </g>
    </g>
    <g id="xtick_11">
     <g id="line2d_11">
      <g>
       <use xlink:href="#md546775621" x="613.822768" y="288.430125" style="stroke: #000000; stroke-width: 0.8"/>
      </g>
     </g>
     <g id="text_11">
      <!-- 12h:30m -->
      <g transform="translate(591.37433 303.028562) scale(0.1 -0.1)">
       <use xlink:href="#DejaVuSans-31"/>
       <use xlink:href="#DejaVuSans-32" transform="translate(63.623047 0)"/>
       <use xlink:href="#DejaVuSans-68" transform="translate(127.246094 0)"/>
       <use xlink:href="#DejaVuSans-3a" transform="translate(190.625 0)"/>
       <use xlink:href="#DejaVuSans-33" transform="translate(224.316406 0)"/>
       <use xlink:href="#DejaVuSans-30" transform="translate(287.939453 0)"/>
       <use xlink:href="#DejaVuSans-6d" transform="translate(351.5625 0)"/>
      </g>
     </g>
    </g>
    <g id="xtick_12">
     <g id="line2d_12">
      <g>
       <use xlink:href="#md546775621" x="670.508482" y="288.430125" style="stroke: #000000; stroke-width: 0.8"/>
      </g>
     </g>
     <g id="text_12">
      <!-- 13h:45m -->
      <g transform="translate(648.060045 303.028562) scale(0.1 -0.1)">
       <use xlink:href="#DejaVuSans-31"/>
       <use xlink:href="#DejaVuSans-33" transform="translate(63.623047 0)"/>
       <use xlink:href="#DejaVuSans-68" transform="translate(127.246094 0)"/>
       <use xlink:href="#DejaVuSans-3a" transform="translate(190.625 0)"/>
       <use xlink:href="#DejaVuSans-34" transform="translate(224.316406 0)"/>
       <use xlink:href="#DejaVuSans-35" transform="translate(287.939453 0)"/>
       <use xlink:href="#DejaVuSans-6d" transform="translate(351.5625 0)"/>
      </g>
     </g>
    </g>
    <g id="xtick_13">
     <g id="line2d_13">
      <g>
       <use xlink:href="#md546775621" x="727.194196" y="288.430125" style="stroke: #000000; stroke-width: 0.8"/>
      </g>
     </g>
     <g id="text_13">
      <!-- 15h -->
      <g transform="translate(717.662946 303.028562) scale(0.1 -0.1)">
       <use xlink:href="#DejaVuSans-31"/>
       <use xlink:href="#DejaVuSans-35" transform="translate(63.623047 0)"/>
       <use xlink:href="#DejaVuSans-68" transform="translate(127.246094 0)"/>
      </g>
     </g>
    </g>
    <g id="text_14">
     <!-- Time (hour:minute) -->
     <g transform="translate(355.678594 316.706687) scale(0.1 -0.1)">
      <defs>
       <path id="DejaVuSans-54" d="M -19 4666 
L 3928 4666 
L 3928 4134 
L 2272 4134 
L 2272 0 
L 1638 0 
L 1638 4134 
L -19 4134 
L -19 4666 
z
" transform="scale(0.015625)"/>
       <path id="DejaVuSans-69" d="M 603 3500 
L 1178 3500 
L 1178 0 
L 603 0 
L 603 3500 
z
M 603 4863 
L 1178 4863 
L 1178 4134 
L 603 4134 
L 603 4863 
z
" transform="scale(0.015625)"/>
       <path id="DejaVuSans-65" d="M 3597 1894 
L 3597 1613 
L 953 1613 
Q 991 1019 1311 708 
Q 1631 397 2203 397 
Q 2534 397 2845 478 
Q 3156 559 3463 722 
L 3463 178 
Q 3153 47 2828 -22 
Q 2503 -91 2169 -91 
Q 1331 -91 842 396 
Q 353 884 353 1716 
Q 353 2575 817 3079 
Q 1281 3584 2069 3584 
Q 2775 3584 3186 3129 
Q 3597 2675 3597 1894 
z
M 3022 2063 
Q 3016 2534 2758 2815 
Q 2500 3097 2075 3097 
Q 1594 3097 1305 2825 
Q 1016 2553 972 2059 
L 3022 2063 
z
" transform="scale(0.015625)"/>
       <path id="DejaVuSans-20" transform="scale(0.015625)"/>
       <path id="DejaVuSans-28" d="M 1984 4856 
Q 1566 4138 1362 3434 
Q 1159 2731 1159 2009 
Q 1159 1288 1364 580 
Q 1569 -128 1984 -844 
L 1484 -844 
Q 1016 -109 783 600 
Q 550 1309 550 2009 
Q 550 2706 781 3412 
Q 1013 4119 1484 4856 
L 1984 4856 
z
" transform="scale(0.015625)"/>
       <path id="DejaVuSans-6f" d="M 1959 3097 
Q 1497 3097 1228 2736 
Q 959 2375 959 1747 
Q 959 1119 1226 758 
Q 1494 397 1959 397 
Q 2419 397 2687 759 
Q 2956 1122 2956 1747 
Q 2956 2369 2687 2733 
Q 2419 3097 1959 3097 
z
M 1959 3584 
Q 2709 3584 3137 3096 
Q 3566 2609 3566 1747 
Q 3566 888 3137 398 
Q 2709 -91 1959 -91 
Q 1206 -91 779 398 
Q 353 888 353 1747 
Q 353 2609 779 3096 
Q 1206 3584 1959 3584 
z
" transform="scale(0.015625)"/>
       <path id="DejaVuSans-75" d="M 544 1381 
L 544 3500 
L 1119 3500 
L 1119 1403 
Q 1119 906 1312 657 
Q 1506 409 1894 409 
Q 2359 409 2629 706 
Q 2900 1003 2900 1516 
L 2900 3500 
L 3475 3500 
L 3475 0 
L 2900 0 
L 2900 538 
Q 2691 219 2414 64 
Q 2138 -91 1772 -91 
Q 1169 -91 856 284 
Q 544 659 544 1381 
z
M 1991 3584 
L 1991 3584 
z
" transform="scale(0.015625)"/>
       <path id="DejaVuSans-72" d="M 2631 2963 
Q 2534 3019 2420 3045 
Q 2306 3072 2169 3072 
Q 1681 3072 1420 2755 
Q 1159 2438 1159 1844 
L 1159 0 
L 581 0 
L 581 3500 
L 1159 3500 
L 1159 2956 
Q 1341 3275 1631 3429 
Q 1922 3584 2338 3584 
Q 2397 3584 2469 3576 
Q 2541 3569 2628 3553 
L 2631 2963 
z
" transform="scale(0.015625)"/>
       <path id="DejaVuSans-6e" d="M 3513 2113 
L 3513 0 
L 2938 0 
L 2938 2094 
Q 2938 2591 2744 2837 
Q 2550 3084 2163 3084 
Q 1697 3084 1428 2787 
Q 1159 2491 1159 1978 
L 1159 0 
L 581 0 
L 581 3500 
L 1159 3500 
L 1159 2956 
Q 1366 3272 1645 3428 
Q 1925 3584 2291 3584 
Q 2894 3584 3203 3211 
Q 3513 2838 3513 2113 
z
" transform="scale(0.015625)"/>
       <path id="DejaVuSans-74" d="M 1172 4494 
L 1172 3500 
L 2356 3500 
L 2356 3053 
L 1172 3053 
L 1172 1153 
Q 1172 725 1289 603 
Q 1406 481 1766 481 
L 2356 481 
L 2356 0 
L 1766 0 
Q 1100 0 847 248 
Q 594 497 594 1153 
L 594 3053 
L 172 3053 
L 172 3500 
L 594 3500 
L 594 4494 
L 1172 4494 
z
" transform="scale(0.015625)"/>
       <path id="DejaVuSans-29" d="M 513 4856 
L 1013 4856 
Q 1481 4119 1714 3412 
Q 1947 2706 1947 2009 
Q 1947 1309 1714 600 
Q 1481 -109 1013 -844 
L 513 -844 
Q 928 -128 1133 580 
Q 1338 1288 1338 2009 
Q 1338 2731 1133 3434 
Q 928 4138 513 4856 
z
" transform="scale(0.015625)"/>
      </defs>
      <use xlink:href="#DejaVuSans-54"/>
      <use xlink:href="#DejaVuSans-69" transform="translate(57.958984 0)"/>
      <use xlink:href="#DejaVuSans-6d" transform="translate(85.742188 0)"/>
      <use xlink:href="#DejaVuSans-65" transform="translate(183.154297 0)"/>
      <use xlink:href="#DejaVuSans-20" transform="translate(244.677734 0)"/>
      <use xlink:href="#DejaVuSans-28" transform="translate(276.464844 0)"/>
      <use xlink:href="#DejaVuSans-68" transform="translate(315.478516 0)"/>
      <use xlink:href="#DejaVuSans-6f" transform="translate(378.857422 0)"/>
      <use xlink:href="#DejaVuSans-75" transform="translate(440.039062 0)"/>
      <use xlink:href="#DejaVuSans-72" transform="translate(503.417969 0)"/>
      <use xlink:href="#DejaVuSans-3a" transform="translate(542.78125 0)"/>
      <use xlink:href="#DejaVuSans-6d" transform="translate(576.472656 0)"/>
      <use xlink:href="#DejaVuSans-69" transform="translate(673.884766 0)"/>
      <use xlink:href="#DejaVuSans-6e" transform="translate(701.667969 0)"/>
      <use xlink:href="#DejaVuSans-75" transform="translate(765.046875 0)"/>
      <use xlink:href="#DejaVuSans-74" transform="translate(828.425781 0)"/>
      <use xlink:href="#DejaVuSans-65" transform="translate(867.634766 0)"/>
      <use xlink:href="#DejaVuSans-29" transform="translate(929.158203 0)"/>
     </g>
    </g>
   </g>
   <g id="matplotlib.axis_2">
    <g id="ytick_1">
     <g id="line2d_14">
      <defs>
       <path id="me4e94887db" d="M 0 0 
L -3.5 0 
" style="stroke: #000000; stroke-width: 0.8"/>
      </defs>
      <g>
       <use xlink:href="#me4e94887db" x="46.965625" y="276.334125" style="stroke: #000000; stroke-width: 0.8"/>
      </g>
     </g>
     <g id="text_15">
      <!-- 0 -->
      <g transform="translate(33.603125 280.133344) scale(0.1 -0.1)">
       <use xlink:href="#DejaVuSans-30"/>
      </g>
     </g>
    </g>
    <g id="ytick_2">
     <g id="line2d_15">
      <g>
       <use xlink:href="#me4e94887db" x="46.965625" y="224.752035" style="stroke: #000000; stroke-width: 0.8"/>
      </g>
     </g>
     <g id="text_16">
      <!-- 100 -->
      <g transform="translate(20.878125 228.551254) scale(0.1 -0.1)">
       <use xlink:href="#DejaVuSans-31"/>
       <use xlink:href="#DejaVuSans-30" transform="translate(63.623047 0)"/>
       <use xlink:href="#DejaVuSans-30" transform="translate(127.246094 0)"/>
      </g>
     </g>
    </g>
    <g id="ytick_3">
     <g id="line2d_16">
      <g>
       <use xlink:href="#me4e94887db" x="46.965625" y="173.169946" style="stroke: #000000; stroke-width: 0.8"/>
      </g>
     </g>
     <g id="text_17">
      <!-- 200 -->
      <g transform="translate(20.878125 176.969165) scale(0.1 -0.1)">
       <use xlink:href="#DejaVuSans-32"/>
       <use xlink:href="#DejaVuSans-30" transform="translate(63.623047 0)"/>
       <use xlink:href="#DejaVuSans-30" transform="translate(127.246094 0)"/>
      </g>
     </g>
    </g>
    <g id="ytick_4">
     <g id="line2d_17">
      <g>
       <use xlink:href="#me4e94887db" x="46.965625" y="121.587856" style="stroke: #000000; stroke-width: 0.8"/>
      </g>
     </g>
     <g id="text_18">
      <!-- 300 -->
      <g transform="translate(20.878125 125.387075) scale(0.1 -0.1)">
       <use xlink:href="#DejaVuSans-33"/>
       <use xlink:href="#DejaVuSans-30" transform="translate(63.623047 0)"/>
       <use xlink:href="#DejaVuSans-30" transform="translate(127.246094 0)"/>
      </g>
     </g>
    </g>
    <g id="ytick_5">
     <g id="line2d_18">
      <g>
       <use xlink:href="#me4e94887db" x="46.965625" y="70.005767" style="stroke: #000000; stroke-width: 0.8"/>
      </g>
     </g>
     <g id="text_19">
      <!-- 400 -->
      <g transform="translate(20.878125 73.804986) scale(0.1 -0.1)">
       <use xlink:href="#DejaVuSans-34"/>
       <use xlink:href="#DejaVuSans-30" transform="translate(63.623047 0)"/>
       <use xlink:href="#DejaVuSans-30" transform="translate(127.246094 0)"/>
      </g>
     </g>
    </g>
    <g id="text_20">
     <!-- Code branch coverage -->
     <g transform="translate(14.798438 211.949125) rotate(-90) scale(0.1 -0.1)">
      <defs>
       <path id="DejaVuSans-43" d="M 4122 4306 
L 4122 3641 
Q 3803 3938 3442 4084 
Q 3081 4231 2675 4231 
Q 1875 4231 1450 3742 
Q 1025 3253 1025 2328 
Q 1025 1406 1450 917 
Q 1875 428 2675 428 
Q 3081 428 3442 575 
Q 3803 722 4122 1019 
L 4122 359 
Q 3791 134 3420 21 
Q 3050 -91 2638 -91 
Q 1578 -91 968 557 
Q 359 1206 359 2328 
Q 359 3453 968 4101 
Q 1578 4750 2638 4750 
Q 3056 4750 3426 4639 
Q 3797 4528 4122 4306 
z
" transform="scale(0.015625)"/>
       <path id="DejaVuSans-64" d="M 2906 2969 
L 2906 4863 
L 3481 4863 
L 3481 0 
L 2906 0 
L 2906 525 
Q 2725 213 2448 61 
Q 2172 -91 1784 -91 
Q 1150 -91 751 415 
Q 353 922 353 1747 
Q 353 2572 751 3078 
Q 1150 3584 1784 3584 
Q 2172 3584 2448 3432 
Q 2725 3281 2906 2969 
z
M 947 1747 
Q 947 1113 1208 752 
Q 1469 391 1925 391 
Q 2381 391 2643 752 
Q 2906 1113 2906 1747 
Q 2906 2381 2643 2742 
Q 2381 3103 1925 3103 
Q 1469 3103 1208 2742 
Q 947 2381 947 1747 
z
" transform="scale(0.015625)"/>
       <path id="DejaVuSans-62" d="M 3116 1747 
Q 3116 2381 2855 2742 
Q 2594 3103 2138 3103 
Q 1681 3103 1420 2742 
Q 1159 2381 1159 1747 
Q 1159 1113 1420 752 
Q 1681 391 2138 391 
Q 2594 391 2855 752 
Q 3116 1113 3116 1747 
z
M 1159 2969 
Q 1341 3281 1617 3432 
Q 1894 3584 2278 3584 
Q 2916 3584 3314 3078 
Q 3713 2572 3713 1747 
Q 3713 922 3314 415 
Q 2916 -91 2278 -91 
Q 1894 -91 1617 61 
Q 1341 213 1159 525 
L 1159 0 
L 581 0 
L 581 4863 
L 1159 4863 
L 1159 2969 
z
" transform="scale(0.015625)"/>
       <path id="DejaVuSans-61" d="M 2194 1759 
Q 1497 1759 1228 1600 
Q 959 1441 959 1056 
Q 959 750 1161 570 
Q 1363 391 1709 391 
Q 2188 391 2477 730 
Q 2766 1069 2766 1631 
L 2766 1759 
L 2194 1759 
z
M 3341 1997 
L 3341 0 
L 2766 0 
L 2766 531 
Q 2569 213 2275 61 
Q 1981 -91 1556 -91 
Q 1019 -91 701 211 
Q 384 513 384 1019 
Q 384 1609 779 1909 
Q 1175 2209 1959 2209 
L 2766 2209 
L 2766 2266 
Q 2766 2663 2505 2880 
Q 2244 3097 1772 3097 
Q 1472 3097 1187 3025 
Q 903 2953 641 2809 
L 641 3341 
Q 956 3463 1253 3523 
Q 1550 3584 1831 3584 
Q 2591 3584 2966 3190 
Q 3341 2797 3341 1997 
z
" transform="scale(0.015625)"/>
       <path id="DejaVuSans-63" d="M 3122 3366 
L 3122 2828 
Q 2878 2963 2633 3030 
Q 2388 3097 2138 3097 
Q 1578 3097 1268 2742 
Q 959 2388 959 1747 
Q 959 1106 1268 751 
Q 1578 397 2138 397 
Q 2388 397 2633 464 
Q 2878 531 3122 666 
L 3122 134 
Q 2881 22 2623 -34 
Q 2366 -91 2075 -91 
Q 1284 -91 818 406 
Q 353 903 353 1747 
Q 353 2603 823 3093 
Q 1294 3584 2113 3584 
Q 2378 3584 2631 3529 
Q 2884 3475 3122 3366 
z
" transform="scale(0.015625)"/>
       <path id="DejaVuSans-76" d="M 191 3500 
L 800 3500 
L 1894 563 
L 2988 3500 
L 3597 3500 
L 2284 0 
L 1503 0 
L 191 3500 
z
" transform="scale(0.015625)"/>
       <path id="DejaVuSans-67" d="M 2906 1791 
Q 2906 2416 2648 2759 
Q 2391 3103 1925 3103 
Q 1463 3103 1205 2759 
Q 947 2416 947 1791 
Q 947 1169 1205 825 
Q 1463 481 1925 481 
Q 2391 481 2648 825 
Q 2906 1169 2906 1791 
z
M 3481 434 
Q 3481 -459 3084 -895 
Q 2688 -1331 1869 -1331 
Q 1566 -1331 1297 -1286 
Q 1028 -1241 775 -1147 
L 775 -588 
Q 1028 -725 1275 -790 
Q 1522 -856 1778 -856 
Q 2344 -856 2625 -561 
Q 2906 -266 2906 331 
L 2906 616 
Q 2728 306 2450 153 
Q 2172 0 1784 0 
Q 1141 0 747 490 
Q 353 981 353 1791 
Q 353 2603 747 3093 
Q 1141 3584 1784 3584 
Q 2172 3584 2450 3431 
Q 2728 3278 2906 2969 
L 2906 3500 
L 3481 3500 
L 3481 434 
z
" transform="scale(0.015625)"/>
      </defs>
      <use xlink:href="#DejaVuSans-43"/>
      <use xlink:href="#DejaVuSans-6f" transform="translate(69.824219 0)"/>
      <use xlink:href="#DejaVuSans-64" transform="translate(131.005859 0)"/>
      <use xlink:href="#DejaVuSans-65" transform="translate(194.482422 0)"/>
      <use xlink:href="#DejaVuSans-20" transform="translate(256.005859 0)"/>
      <use xlink:href="#DejaVuSans-62" transform="translate(287.792969 0)"/>
      <use xlink:href="#DejaVuSans-72" transform="translate(351.269531 0)"/>
      <use xlink:href="#DejaVuSans-61" transform="translate(392.382812 0)"/>
      <use xlink:href="#DejaVuSans-6e" transform="translate(453.662109 0)"/>
      <use xlink:href="#DejaVuSans-63" transform="translate(517.041016 0)"/>
      <use xlink:href="#DejaVuSans-68" transform="translate(572.021484 0)"/>
      <use xlink:href="#DejaVuSans-20" transform="translate(635.400391 0)"/>
      <use xlink:href="#DejaVuSans-63" transform="translate(667.1875 0)"/>
      <use xlink:href="#DejaVuSans-6f" transform="translate(722.167969 0)"/>
      <use xlink:href="#DejaVuSans-76" transform="translate(783.349609 0)"/>
      <use xlink:href="#DejaVuSans-65" transform="translate(842.529297 0)"/>
      <use xlink:href="#DejaVuSans-72" transform="translate(904.052734 0)"/>
      <use xlink:href="#DejaVuSans-61" transform="translate(945.166016 0)"/>
      <use xlink:href="#DejaVuSans-67" transform="translate(1006.445312 0)"/>
      <use xlink:href="#DejaVuSans-65" transform="translate(1069.921875 0)"/>
     </g>
    </g>
   </g>
   <g id="line2d_19">
    <path d="M 46.965625 276.334125 
L 58.302768 39.572334 
L 69.639911 39.572334 
L 80.977054 39.572334 
L 92.314196 39.572334 
L 103.651339 39.572334 
L 114.988482 39.572334 
L 126.325625 39.572334 
L 137.662768 39.572334 
L 148.999911 39.572334 
L 160.337054 39.572334 
L 171.674196 39.572334 
L 183.011339 39.572334 
L 194.348482 39.572334 
L 205.685625 39.572334 
L 217.022768 39.572334 
L 228.359911 39.572334 
L 239.697054 39.572334 
L 251.034196 39.572334 
L 262.371339 39.572334 
L 273.708482 39.572334 
L 285.045625 39.572334 
L 296.382768 39.572334 
L 307.719911 39.572334 
L 319.057054 39.572334 
L 330.394196 39.572334 
L 341.731339 39.572334 
L 353.068482 39.572334 
L 364.405625 39.572334 
L 375.742768 39.572334 
L 387.079911 39.572334 
L 398.417054 39.572334 
L 409.754196 39.572334 
L 421.091339 39.572334 
L 432.428482 39.056513 
L 443.765625 39.056513 
L 455.102768 39.056513 
L 466.439911 39.056513 
L 477.777054 39.056513 
L 489.114196 39.056513 
L 500.451339 39.056513 
L 511.788482 39.056513 
L 523.125625 39.056513 
L 534.462768 39.056513 
L 545.799911 39.056513 
L 557.137054 39.056513 
L 568.474196 39.056513 
L 579.811339 39.056513 
L 591.148482 39.056513 
L 602.485625 39.056513 
L 613.822768 39.056513 
L 625.159911 39.056513 
L 636.497054 39.056513 
L 647.834196 39.056513 
L 659.171339 39.056513 
L 670.508482 39.056513 
L 681.845625 39.056513 
L 693.182768 39.056513 
L 704.519911 39.056513 
L 715.857054 39.056513 
L 727.194196 39.056513 
" clip-path="url(#p036324983b)" style="fill: none; stroke: #98df8a; stroke-width: 1.5; stroke-linecap: square"/>
    <defs>
     <path id="m776c8bfe14" d="M -0 3 
L 3 -3 
L -3 -3 
z
" style="stroke: #ffffff; stroke-width: 0.75; stroke-linejoin: miter"/>
    </defs>
    <g clip-path="url(#p036324983b)">
     <use xlink:href="#m776c8bfe14" x="46.965625" y="276.334125" style="fill: #98df8a; stroke: #ffffff; stroke-width: 0.75; stroke-linejoin: miter"/>
     <use xlink:href="#m776c8bfe14" x="58.302768" y="39.572334" style="fill: #98df8a; stroke: #ffffff; stroke-width: 0.75; stroke-linejoin: miter"/>
     <use xlink:href="#m776c8bfe14" x="69.639911" y="39.572334" style="fill: #98df8a; stroke: #ffffff; stroke-width: 0.75; stroke-linejoin: miter"/>
     <use xlink:href="#m776c8bfe14" x="80.977054" y="39.572334" style="fill: #98df8a; stroke: #ffffff; stroke-width: 0.75; stroke-linejoin: miter"/>
     <use xlink:href="#m776c8bfe14" x="92.314196" y="39.572334" style="fill: #98df8a; stroke: #ffffff; stroke-width: 0.75; stroke-linejoin: miter"/>
     <use xlink:href="#m776c8bfe14" x="103.651339" y="39.572334" style="fill: #98df8a; stroke: #ffffff; stroke-width: 0.75; stroke-linejoin: miter"/>
     <use xlink:href="#m776c8bfe14" x="114.988482" y="39.572334" style="fill: #98df8a; stroke: #ffffff; stroke-width: 0.75; stroke-linejoin: miter"/>
     <use xlink:href="#m776c8bfe14" x="126.325625" y="39.572334" style="fill: #98df8a; stroke: #ffffff; stroke-width: 0.75; stroke-linejoin: miter"/>
     <use xlink:href="#m776c8bfe14" x="137.662768" y="39.572334" style="fill: #98df8a; stroke: #ffffff; stroke-width: 0.75; stroke-linejoin: miter"/>
     <use xlink:href="#m776c8bfe14" x="148.999911" y="39.572334" style="fill: #98df8a; stroke: #ffffff; stroke-width: 0.75; stroke-linejoin: miter"/>
     <use xlink:href="#m776c8bfe14" x="160.337054" y="39.572334" style="fill: #98df8a; stroke: #ffffff; stroke-width: 0.75; stroke-linejoin: miter"/>
     <use xlink:href="#m776c8bfe14" x="171.674196" y="39.572334" style="fill: #98df8a; stroke: #ffffff; stroke-width: 0.75; stroke-linejoin: miter"/>
     <use xlink:href="#m776c8bfe14" x="183.011339" y="39.572334" style="fill: #98df8a; stroke: #ffffff; stroke-width: 0.75; stroke-linejoin: miter"/>
     <use xlink:href="#m776c8bfe14" x="194.348482" y="39.572334" style="fill: #98df8a; stroke: #ffffff; stroke-width: 0.75; stroke-linejoin: miter"/>
     <use xlink:href="#m776c8bfe14" x="205.685625" y="39.572334" style="fill: #98df8a; stroke: #ffffff; stroke-width: 0.75; stroke-linejoin: miter"/>
     <use xlink:href="#m776c8bfe14" x="217.022768" y="39.572334" style="fill: #98df8a; stroke: #ffffff; stroke-width: 0.75; stroke-linejoin: miter"/>
     <use xlink:href="#m776c8bfe14" x="228.359911" y="39.572334" style="fill: #98df8a; stroke: #ffffff; stroke-width: 0.75; stroke-linejoin: miter"/>
     <use xlink:href="#m776c8bfe14" x="239.697054" y="39.572334" style="fill: #98df8a; stroke: #ffffff; stroke-width: 0.75; stroke-linejoin: miter"/>
     <use xlink:href="#m776c8bfe14" x="251.034196" y="39.572334" style="fill: #98df8a; stroke: #ffffff; stroke-width: 0.75; stroke-linejoin: miter"/>
     <use xlink:href="#m776c8bfe14" x="262.371339" y="39.572334" style="fill: #98df8a; stroke: #ffffff; stroke-width: 0.75; stroke-linejoin: miter"/>
     <use xlink:href="#m776c8bfe14" x="273.708482" y="39.572334" style="fill: #98df8a; stroke: #ffffff; stroke-width: 0.75; stroke-linejoin: miter"/>
     <use xlink:href="#m776c8bfe14" x="285.045625" y="39.572334" style="fill: #98df8a; stroke: #ffffff; stroke-width: 0.75; stroke-linejoin: miter"/>
     <use xlink:href="#m776c8bfe14" x="296.382768" y="39.572334" style="fill: #98df8a; stroke: #ffffff; stroke-width: 0.75; stroke-linejoin: miter"/>
     <use xlink:href="#m776c8bfe14" x="307.719911" y="39.572334" style="fill: #98df8a; stroke: #ffffff; stroke-width: 0.75; stroke-linejoin: miter"/>
     <use xlink:href="#m776c8bfe14" x="319.057054" y="39.572334" style="fill: #98df8a; stroke: #ffffff; stroke-width: 0.75; stroke-linejoin: miter"/>
     <use xlink:href="#m776c8bfe14" x="330.394196" y="39.572334" style="fill: #98df8a; stroke: #ffffff; stroke-width: 0.75; stroke-linejoin: miter"/>
     <use xlink:href="#m776c8bfe14" x="341.731339" y="39.572334" style="fill: #98df8a; stroke: #ffffff; stroke-width: 0.75; stroke-linejoin: miter"/>
     <use xlink:href="#m776c8bfe14" x="353.068482" y="39.572334" style="fill: #98df8a; stroke: #ffffff; stroke-width: 0.75; stroke-linejoin: miter"/>
     <use xlink:href="#m776c8bfe14" x="364.405625" y="39.572334" style="fill: #98df8a; stroke: #ffffff; stroke-width: 0.75; stroke-linejoin: miter"/>
     <use xlink:href="#m776c8bfe14" x="375.742768" y="39.572334" style="fill: #98df8a; stroke: #ffffff; stroke-width: 0.75; stroke-linejoin: miter"/>
     <use xlink:href="#m776c8bfe14" x="387.079911" y="39.572334" style="fill: #98df8a; stroke: #ffffff; stroke-width: 0.75; stroke-linejoin: miter"/>
     <use xlink:href="#m776c8bfe14" x="398.417054" y="39.572334" style="fill: #98df8a; stroke: #ffffff; stroke-width: 0.75; stroke-linejoin: miter"/>
     <use xlink:href="#m776c8bfe14" x="409.754196" y="39.572334" style="fill: #98df8a; stroke: #ffffff; stroke-width: 0.75; stroke-linejoin: miter"/>
     <use xlink:href="#m776c8bfe14" x="421.091339" y="39.572334" style="fill: #98df8a; stroke: #ffffff; stroke-width: 0.75; stroke-linejoin: miter"/>
     <use xlink:href="#m776c8bfe14" x="432.428482" y="39.056513" style="fill: #98df8a; stroke: #ffffff; stroke-width: 0.75; stroke-linejoin: miter"/>
     <use xlink:href="#m776c8bfe14" x="443.765625" y="39.056513" style="fill: #98df8a; stroke: #ffffff; stroke-width: 0.75; stroke-linejoin: miter"/>
     <use xlink:href="#m776c8bfe14" x="455.102768" y="39.056513" style="fill: #98df8a; stroke: #ffffff; stroke-width: 0.75; stroke-linejoin: miter"/>
     <use xlink:href="#m776c8bfe14" x="466.439911" y="39.056513" style="fill: #98df8a; stroke: #ffffff; stroke-width: 0.75; stroke-linejoin: miter"/>
     <use xlink:href="#m776c8bfe14" x="477.777054" y="39.056513" style="fill: #98df8a; stroke: #ffffff; stroke-width: 0.75; stroke-linejoin: miter"/>
     <use xlink:href="#m776c8bfe14" x="489.114196" y="39.056513" style="fill: #98df8a; stroke: #ffffff; stroke-width: 0.75; stroke-linejoin: miter"/>
     <use xlink:href="#m776c8bfe14" x="500.451339" y="39.056513" style="fill: #98df8a; stroke: #ffffff; stroke-width: 0.75; stroke-linejoin: miter"/>
     <use xlink:href="#m776c8bfe14" x="511.788482" y="39.056513" style="fill: #98df8a; stroke: #ffffff; stroke-width: 0.75; stroke-linejoin: miter"/>
     <use xlink:href="#m776c8bfe14" x="523.125625" y="39.056513" style="fill: #98df8a; stroke: #ffffff; stroke-width: 0.75; stroke-linejoin: miter"/>
     <use xlink:href="#m776c8bfe14" x="534.462768" y="39.056513" style="fill: #98df8a; stroke: #ffffff; stroke-width: 0.75; stroke-linejoin: miter"/>
     <use xlink:href="#m776c8bfe14" x="545.799911" y="39.056513" style="fill: #98df8a; stroke: #ffffff; stroke-width: 0.75; stroke-linejoin: miter"/>
     <use xlink:href="#m776c8bfe14" x="557.137054" y="39.056513" style="fill: #98df8a; stroke: #ffffff; stroke-width: 0.75; stroke-linejoin: miter"/>
     <use xlink:href="#m776c8bfe14" x="568.474196" y="39.056513" style="fill: #98df8a; stroke: #ffffff; stroke-width: 0.75; stroke-linejoin: miter"/>
     <use xlink:href="#m776c8bfe14" x="579.811339" y="39.056513" style="fill: #98df8a; stroke: #ffffff; stroke-width: 0.75; stroke-linejoin: miter"/>
     <use xlink:href="#m776c8bfe14" x="591.148482" y="39.056513" style="fill: #98df8a; stroke: #ffffff; stroke-width: 0.75; stroke-linejoin: miter"/>
     <use xlink:href="#m776c8bfe14" x="602.485625" y="39.056513" style="fill: #98df8a; stroke: #ffffff; stroke-width: 0.75; stroke-linejoin: miter"/>
     <use xlink:href="#m776c8bfe14" x="613.822768" y="39.056513" style="fill: #98df8a; stroke: #ffffff; stroke-width: 0.75; stroke-linejoin: miter"/>
     <use xlink:href="#m776c8bfe14" x="625.159911" y="39.056513" style="fill: #98df8a; stroke: #ffffff; stroke-width: 0.75; stroke-linejoin: miter"/>
     <use xlink:href="#m776c8bfe14" x="636.497054" y="39.056513" style="fill: #98df8a; stroke: #ffffff; stroke-width: 0.75; stroke-linejoin: miter"/>
     <use xlink:href="#m776c8bfe14" x="647.834196" y="39.056513" style="fill: #98df8a; stroke: #ffffff; stroke-width: 0.75; stroke-linejoin: miter"/>
     <use xlink:href="#m776c8bfe14" x="659.171339" y="39.056513" style="fill: #98df8a; stroke: #ffffff; stroke-width: 0.75; stroke-linejoin: miter"/>
     <use xlink:href="#m776c8bfe14" x="670.508482" y="39.056513" style="fill: #98df8a; stroke: #ffffff; stroke-width: 0.75; stroke-linejoin: miter"/>
     <use xlink:href="#m776c8bfe14" x="681.845625" y="39.056513" style="fill: #98df8a; stroke: #ffffff; stroke-width: 0.75; stroke-linejoin: miter"/>
     <use xlink:href="#m776c8bfe14" x="693.182768" y="39.056513" style="fill: #98df8a; stroke: #ffffff; stroke-width: 0.75; stroke-linejoin: miter"/>
     <use xlink:href="#m776c8bfe14" x="704.519911" y="39.056513" style="fill: #98df8a; stroke: #ffffff; stroke-width: 0.75; stroke-linejoin: miter"/>
     <use xlink:href="#m776c8bfe14" x="715.857054" y="39.056513" style="fill: #98df8a; stroke: #ffffff; stroke-width: 0.75; stroke-linejoin: miter"/>
     <use xlink:href="#m776c8bfe14" x="727.194196" y="39.056513" style="fill: #98df8a; stroke: #ffffff; stroke-width: 0.75; stroke-linejoin: miter"/>
    </g>
   </g>
   <g id="line2d_20">
    <path d="M 46.965625 276.334125 
L 58.302768 41.119797 
L 69.639911 40.861886 
L 80.977054 40.861886 
L 92.314196 40.861886 
L 103.651339 39.830244 
L 114.988482 39.830244 
L 126.325625 39.830244 
L 137.662768 39.830244 
L 148.999911 39.830244 
L 160.337054 39.830244 
L 171.674196 39.830244 
L 183.011339 39.830244 
L 194.348482 39.056513 
L 205.685625 39.056513 
L 217.022768 39.056513 
L 228.359911 39.056513 
L 239.697054 39.056513 
L 251.034196 39.056513 
L 262.371339 39.056513 
L 273.708482 39.056513 
L 285.045625 39.056513 
L 296.382768 39.056513 
L 307.719911 39.056513 
L 319.057054 39.056513 
L 330.394196 39.056513 
L 341.731339 39.056513 
L 353.068482 39.056513 
L 364.405625 39.056513 
L 375.742768 39.056513 
L 387.079911 39.056513 
L 398.417054 39.056513 
L 409.754196 38.282782 
L 421.091339 38.282782 
L 432.428482 38.282782 
L 443.765625 38.282782 
L 455.102768 38.024871 
L 466.439911 38.024871 
L 477.777054 38.024871 
L 489.114196 38.024871 
L 500.451339 38.024871 
L 511.788482 38.024871 
L 523.125625 38.024871 
L 534.462768 38.024871 
L 545.799911 38.024871 
L 557.137054 38.024871 
L 568.474196 38.024871 
L 579.811339 38.024871 
L 591.148482 38.024871 
L 602.485625 38.024871 
L 613.822768 38.024871 
L 625.159911 38.024871 
L 636.497054 38.024871 
L 647.834196 38.024871 
L 659.171339 38.024871 
L 670.508482 38.024871 
L 681.845625 38.024871 
L 693.182768 38.024871 
L 704.519911 38.024871 
L 715.857054 38.024871 
L 727.194196 38.024871 
" clip-path="url(#p036324983b)" style="fill: none; stroke: #d62728; stroke-width: 1.5; stroke-linecap: square"/>
    <defs>
     <path id="mfcb2d805dd" d="M 0 -3 
L -3 3 
L 3 3 
z
" style="stroke: #ffffff; stroke-width: 0.75; stroke-linejoin: miter"/>
    </defs>
    <g clip-path="url(#p036324983b)">
     <use xlink:href="#mfcb2d805dd" x="46.965625" y="276.334125" style="fill: #d62728; stroke: #ffffff; stroke-width: 0.75; stroke-linejoin: miter"/>
     <use xlink:href="#mfcb2d805dd" x="58.302768" y="41.119797" style="fill: #d62728; stroke: #ffffff; stroke-width: 0.75; stroke-linejoin: miter"/>
     <use xlink:href="#mfcb2d805dd" x="69.639911" y="40.861886" style="fill: #d62728; stroke: #ffffff; stroke-width: 0.75; stroke-linejoin: miter"/>
     <use xlink:href="#mfcb2d805dd" x="80.977054" y="40.861886" style="fill: #d62728; stroke: #ffffff; stroke-width: 0.75; stroke-linejoin: miter"/>
     <use xlink:href="#mfcb2d805dd" x="92.314196" y="40.861886" style="fill: #d62728; stroke: #ffffff; stroke-width: 0.75; stroke-linejoin: miter"/>
     <use xlink:href="#mfcb2d805dd" x="103.651339" y="39.830244" style="fill: #d62728; stroke: #ffffff; stroke-width: 0.75; stroke-linejoin: miter"/>
     <use xlink:href="#mfcb2d805dd" x="114.988482" y="39.830244" style="fill: #d62728; stroke: #ffffff; stroke-width: 0.75; stroke-linejoin: miter"/>
     <use xlink:href="#mfcb2d805dd" x="126.325625" y="39.830244" style="fill: #d62728; stroke: #ffffff; stroke-width: 0.75; stroke-linejoin: miter"/>
     <use xlink:href="#mfcb2d805dd" x="137.662768" y="39.830244" style="fill: #d62728; stroke: #ffffff; stroke-width: 0.75; stroke-linejoin: miter"/>
     <use xlink:href="#mfcb2d805dd" x="148.999911" y="39.830244" style="fill: #d62728; stroke: #ffffff; stroke-width: 0.75; stroke-linejoin: miter"/>
     <use xlink:href="#mfcb2d805dd" x="160.337054" y="39.830244" style="fill: #d62728; stroke: #ffffff; stroke-width: 0.75; stroke-linejoin: miter"/>
     <use xlink:href="#mfcb2d805dd" x="171.674196" y="39.830244" style="fill: #d62728; stroke: #ffffff; stroke-width: 0.75; stroke-linejoin: miter"/>
     <use xlink:href="#mfcb2d805dd" x="183.011339" y="39.830244" style="fill: #d62728; stroke: #ffffff; stroke-width: 0.75; stroke-linejoin: miter"/>
     <use xlink:href="#mfcb2d805dd" x="194.348482" y="39.056513" style="fill: #d62728; stroke: #ffffff; stroke-width: 0.75; stroke-linejoin: miter"/>
     <use xlink:href="#mfcb2d805dd" x="205.685625" y="39.056513" style="fill: #d62728; stroke: #ffffff; stroke-width: 0.75; stroke-linejoin: miter"/>
     <use xlink:href="#mfcb2d805dd" x="217.022768" y="39.056513" style="fill: #d62728; stroke: #ffffff; stroke-width: 0.75; stroke-linejoin: miter"/>
     <use xlink:href="#mfcb2d805dd" x="228.359911" y="39.056513" style="fill: #d62728; stroke: #ffffff; stroke-width: 0.75; stroke-linejoin: miter"/>
     <use xlink:href="#mfcb2d805dd" x="239.697054" y="39.056513" style="fill: #d62728; stroke: #ffffff; stroke-width: 0.75; stroke-linejoin: miter"/>
     <use xlink:href="#mfcb2d805dd" x="251.034196" y="39.056513" style="fill: #d62728; stroke: #ffffff; stroke-width: 0.75; stroke-linejoin: miter"/>
     <use xlink:href="#mfcb2d805dd" x="262.371339" y="39.056513" style="fill: #d62728; stroke: #ffffff; stroke-width: 0.75; stroke-linejoin: miter"/>
     <use xlink:href="#mfcb2d805dd" x="273.708482" y="39.056513" style="fill: #d62728; stroke: #ffffff; stroke-width: 0.75; stroke-linejoin: miter"/>
     <use xlink:href="#mfcb2d805dd" x="285.045625" y="39.056513" style="fill: #d62728; stroke: #ffffff; stroke-width: 0.75; stroke-linejoin: miter"/>
     <use xlink:href="#mfcb2d805dd" x="296.382768" y="39.056513" style="fill: #d62728; stroke: #ffffff; stroke-width: 0.75; stroke-linejoin: miter"/>
     <use xlink:href="#mfcb2d805dd" x="307.719911" y="39.056513" style="fill: #d62728; stroke: #ffffff; stroke-width: 0.75; stroke-linejoin: miter"/>
     <use xlink:href="#mfcb2d805dd" x="319.057054" y="39.056513" style="fill: #d62728; stroke: #ffffff; stroke-width: 0.75; stroke-linejoin: miter"/>
     <use xlink:href="#mfcb2d805dd" x="330.394196" y="39.056513" style="fill: #d62728; stroke: #ffffff; stroke-width: 0.75; stroke-linejoin: miter"/>
     <use xlink:href="#mfcb2d805dd" x="341.731339" y="39.056513" style="fill: #d62728; stroke: #ffffff; stroke-width: 0.75; stroke-linejoin: miter"/>
     <use xlink:href="#mfcb2d805dd" x="353.068482" y="39.056513" style="fill: #d62728; stroke: #ffffff; stroke-width: 0.75; stroke-linejoin: miter"/>
     <use xlink:href="#mfcb2d805dd" x="364.405625" y="39.056513" style="fill: #d62728; stroke: #ffffff; stroke-width: 0.75; stroke-linejoin: miter"/>
     <use xlink:href="#mfcb2d805dd" x="375.742768" y="39.056513" style="fill: #d62728; stroke: #ffffff; stroke-width: 0.75; stroke-linejoin: miter"/>
     <use xlink:href="#mfcb2d805dd" x="387.079911" y="39.056513" style="fill: #d62728; stroke: #ffffff; stroke-width: 0.75; stroke-linejoin: miter"/>
     <use xlink:href="#mfcb2d805dd" x="398.417054" y="39.056513" style="fill: #d62728; stroke: #ffffff; stroke-width: 0.75; stroke-linejoin: miter"/>
     <use xlink:href="#mfcb2d805dd" x="409.754196" y="38.282782" style="fill: #d62728; stroke: #ffffff; stroke-width: 0.75; stroke-linejoin: miter"/>
     <use xlink:href="#mfcb2d805dd" x="421.091339" y="38.282782" style="fill: #d62728; stroke: #ffffff; stroke-width: 0.75; stroke-linejoin: miter"/>
     <use xlink:href="#mfcb2d805dd" x="432.428482" y="38.282782" style="fill: #d62728; stroke: #ffffff; stroke-width: 0.75; stroke-linejoin: miter"/>
     <use xlink:href="#mfcb2d805dd" x="443.765625" y="38.282782" style="fill: #d62728; stroke: #ffffff; stroke-width: 0.75; stroke-linejoin: miter"/>
     <use xlink:href="#mfcb2d805dd" x="455.102768" y="38.024871" style="fill: #d62728; stroke: #ffffff; stroke-width: 0.75; stroke-linejoin: miter"/>
     <use xlink:href="#mfcb2d805dd" x="466.439911" y="38.024871" style="fill: #d62728; stroke: #ffffff; stroke-width: 0.75; stroke-linejoin: miter"/>
     <use xlink:href="#mfcb2d805dd" x="477.777054" y="38.024871" style="fill: #d62728; stroke: #ffffff; stroke-width: 0.75; stroke-linejoin: miter"/>
     <use xlink:href="#mfcb2d805dd" x="489.114196" y="38.024871" style="fill: #d62728; stroke: #ffffff; stroke-width: 0.75; stroke-linejoin: miter"/>
     <use xlink:href="#mfcb2d805dd" x="500.451339" y="38.024871" style="fill: #d62728; stroke: #ffffff; stroke-width: 0.75; stroke-linejoin: miter"/>
     <use xlink:href="#mfcb2d805dd" x="511.788482" y="38.024871" style="fill: #d62728; stroke: #ffffff; stroke-width: 0.75; stroke-linejoin: miter"/>
     <use xlink:href="#mfcb2d805dd" x="523.125625" y="38.024871" style="fill: #d62728; stroke: #ffffff; stroke-width: 0.75; stroke-linejoin: miter"/>
     <use xlink:href="#mfcb2d805dd" x="534.462768" y="38.024871" style="fill: #d62728; stroke: #ffffff; stroke-width: 0.75; stroke-linejoin: miter"/>
     <use xlink:href="#mfcb2d805dd" x="545.799911" y="38.024871" style="fill: #d62728; stroke: #ffffff; stroke-width: 0.75; stroke-linejoin: miter"/>
     <use xlink:href="#mfcb2d805dd" x="557.137054" y="38.024871" style="fill: #d62728; stroke: #ffffff; stroke-width: 0.75; stroke-linejoin: miter"/>
     <use xlink:href="#mfcb2d805dd" x="568.474196" y="38.024871" style="fill: #d62728; stroke: #ffffff; stroke-width: 0.75; stroke-linejoin: miter"/>
     <use xlink:href="#mfcb2d805dd" x="579.811339" y="38.024871" style="fill: #d62728; stroke: #ffffff; stroke-width: 0.75; stroke-linejoin: miter"/>
     <use xlink:href="#mfcb2d805dd" x="591.148482" y="38.024871" style="fill: #d62728; stroke: #ffffff; stroke-width: 0.75; stroke-linejoin: miter"/>
     <use xlink:href="#mfcb2d805dd" x="602.485625" y="38.024871" style="fill: #d62728; stroke: #ffffff; stroke-width: 0.75; stroke-linejoin: miter"/>
     <use xlink:href="#mfcb2d805dd" x="613.822768" y="38.024871" style="fill: #d62728; stroke: #ffffff; stroke-width: 0.75; stroke-linejoin: miter"/>
     <use xlink:href="#mfcb2d805dd" x="625.159911" y="38.024871" style="fill: #d62728; stroke: #ffffff; stroke-width: 0.75; stroke-linejoin: miter"/>
     <use xlink:href="#mfcb2d805dd" x="636.497054" y="38.024871" style="fill: #d62728; stroke: #ffffff; stroke-width: 0.75; stroke-linejoin: miter"/>
     <use xlink:href="#mfcb2d805dd" x="647.834196" y="38.024871" style="fill: #d62728; stroke: #ffffff; stroke-width: 0.75; stroke-linejoin: miter"/>
     <use xlink:href="#mfcb2d805dd" x="659.171339" y="38.024871" style="fill: #d62728; stroke: #ffffff; stroke-width: 0.75; stroke-linejoin: miter"/>
     <use xlink:href="#mfcb2d805dd" x="670.508482" y="38.024871" style="fill: #d62728; stroke: #ffffff; stroke-width: 0.75; stroke-linejoin: miter"/>
     <use xlink:href="#mfcb2d805dd" x="681.845625" y="38.024871" style="fill: #d62728; stroke: #ffffff; stroke-width: 0.75; stroke-linejoin: miter"/>
     <use xlink:href="#mfcb2d805dd" x="693.182768" y="38.024871" style="fill: #d62728; stroke: #ffffff; stroke-width: 0.75; stroke-linejoin: miter"/>
     <use xlink:href="#mfcb2d805dd" x="704.519911" y="38.024871" style="fill: #d62728; stroke: #ffffff; stroke-width: 0.75; stroke-linejoin: miter"/>
     <use xlink:href="#mfcb2d805dd" x="715.857054" y="38.024871" style="fill: #d62728; stroke: #ffffff; stroke-width: 0.75; stroke-linejoin: miter"/>
     <use xlink:href="#mfcb2d805dd" x="727.194196" y="38.024871" style="fill: #d62728; stroke: #ffffff; stroke-width: 0.75; stroke-linejoin: miter"/>
    </g>
   </g>
   <g id="line2d_21">
    <path d="M 46.965625 276.334125 
L 58.302768 41.119797 
L 69.639911 41.119797 
L 80.977054 41.119797 
L 92.314196 41.119797 
L 103.651339 41.119797 
L 114.988482 41.119797 
L 126.325625 41.119797 
L 137.662768 41.119797 
L 148.999911 39.572334 
L 160.337054 39.572334 
L 171.674196 39.572334 
L 183.011339 39.056513 
L 194.348482 39.056513 
L 205.685625 39.056513 
L 217.022768 39.056513 
L 228.359911 39.056513 
L 239.697054 39.056513 
L 251.034196 39.056513 
L 262.371339 39.056513 
L 273.708482 39.056513 
L 285.045625 39.056513 
L 296.382768 39.056513 
L 307.719911 39.056513 
L 319.057054 39.056513 
L 330.394196 39.056513 
L 341.731339 39.056513 
L 353.068482 39.056513 
L 364.405625 39.056513 
L 375.742768 39.056513 
L 387.079911 39.056513 
L 398.417054 39.056513 
L 409.754196 39.056513 
L 421.091339 39.056513 
L 432.428482 39.056513 
L 443.765625 39.056513 
L 455.102768 39.056513 
L 466.439911 39.056513 
L 477.777054 39.056513 
L 489.114196 39.056513 
L 500.451339 39.056513 
L 511.788482 39.056513 
L 523.125625 39.056513 
L 534.462768 39.056513 
L 545.799911 38.024871 
L 557.137054 38.024871 
L 568.474196 38.024871 
L 579.811339 38.024871 
L 591.148482 38.024871 
L 602.485625 38.024871 
L 613.822768 38.024871 
L 625.159911 38.024871 
L 636.497054 38.024871 
L 647.834196 38.024871 
L 659.171339 38.024871 
L 670.508482 38.024871 
L 681.845625 38.024871 
L 693.182768 38.024871 
L 704.519911 38.024871 
L 715.857054 38.024871 
L 727.194196 38.024871 
" clip-path="url(#p036324983b)" style="fill: none; stroke: #c7c7c7; stroke-width: 1.5; stroke-linecap: square"/>
    <defs>
     <path id="m8cd36109d7" d="M -3 -0 
L 3 3 
L 3 -3 
z
" style="stroke: #ffffff; stroke-width: 0.75; stroke-linejoin: miter"/>
    </defs>
    <g clip-path="url(#p036324983b)">
     <use xlink:href="#m8cd36109d7" x="46.965625" y="276.334125" style="fill: #c7c7c7; stroke: #ffffff; stroke-width: 0.75; stroke-linejoin: miter"/>
     <use xlink:href="#m8cd36109d7" x="58.302768" y="41.119797" style="fill: #c7c7c7; stroke: #ffffff; stroke-width: 0.75; stroke-linejoin: miter"/>
     <use xlink:href="#m8cd36109d7" x="69.639911" y="41.119797" style="fill: #c7c7c7; stroke: #ffffff; stroke-width: 0.75; stroke-linejoin: miter"/>
     <use xlink:href="#m8cd36109d7" x="80.977054" y="41.119797" style="fill: #c7c7c7; stroke: #ffffff; stroke-width: 0.75; stroke-linejoin: miter"/>
     <use xlink:href="#m8cd36109d7" x="92.314196" y="41.119797" style="fill: #c7c7c7; stroke: #ffffff; stroke-width: 0.75; stroke-linejoin: miter"/>
     <use xlink:href="#m8cd36109d7" x="103.651339" y="41.119797" style="fill: #c7c7c7; stroke: #ffffff; stroke-width: 0.75; stroke-linejoin: miter"/>
     <use xlink:href="#m8cd36109d7" x="114.988482" y="41.119797" style="fill: #c7c7c7; stroke: #ffffff; stroke-width: 0.75; stroke-linejoin: miter"/>
     <use xlink:href="#m8cd36109d7" x="126.325625" y="41.119797" style="fill: #c7c7c7; stroke: #ffffff; stroke-width: 0.75; stroke-linejoin: miter"/>
     <use xlink:href="#m8cd36109d7" x="137.662768" y="41.119797" style="fill: #c7c7c7; stroke: #ffffff; stroke-width: 0.75; stroke-linejoin: miter"/>
     <use xlink:href="#m8cd36109d7" x="148.999911" y="39.572334" style="fill: #c7c7c7; stroke: #ffffff; stroke-width: 0.75; stroke-linejoin: miter"/>
     <use xlink:href="#m8cd36109d7" x="160.337054" y="39.572334" style="fill: #c7c7c7; stroke: #ffffff; stroke-width: 0.75; stroke-linejoin: miter"/>
     <use xlink:href="#m8cd36109d7" x="171.674196" y="39.572334" style="fill: #c7c7c7; stroke: #ffffff; stroke-width: 0.75; stroke-linejoin: miter"/>
     <use xlink:href="#m8cd36109d7" x="183.011339" y="39.056513" style="fill: #c7c7c7; stroke: #ffffff; stroke-width: 0.75; stroke-linejoin: miter"/>
     <use xlink:href="#m8cd36109d7" x="194.348482" y="39.056513" style="fill: #c7c7c7; stroke: #ffffff; stroke-width: 0.75; stroke-linejoin: miter"/>
     <use xlink:href="#m8cd36109d7" x="205.685625" y="39.056513" style="fill: #c7c7c7; stroke: #ffffff; stroke-width: 0.75; stroke-linejoin: miter"/>
     <use xlink:href="#m8cd36109d7" x="217.022768" y="39.056513" style="fill: #c7c7c7; stroke: #ffffff; stroke-width: 0.75; stroke-linejoin: miter"/>
     <use xlink:href="#m8cd36109d7" x="228.359911" y="39.056513" style="fill: #c7c7c7; stroke: #ffffff; stroke-width: 0.75; stroke-linejoin: miter"/>
     <use xlink:href="#m8cd36109d7" x="239.697054" y="39.056513" style="fill: #c7c7c7; stroke: #ffffff; stroke-width: 0.75; stroke-linejoin: miter"/>
     <use xlink:href="#m8cd36109d7" x="251.034196" y="39.056513" style="fill: #c7c7c7; stroke: #ffffff; stroke-width: 0.75; stroke-linejoin: miter"/>
     <use xlink:href="#m8cd36109d7" x="262.371339" y="39.056513" style="fill: #c7c7c7; stroke: #ffffff; stroke-width: 0.75; stroke-linejoin: miter"/>
     <use xlink:href="#m8cd36109d7" x="273.708482" y="39.056513" style="fill: #c7c7c7; stroke: #ffffff; stroke-width: 0.75; stroke-linejoin: miter"/>
     <use xlink:href="#m8cd36109d7" x="285.045625" y="39.056513" style="fill: #c7c7c7; stroke: #ffffff; stroke-width: 0.75; stroke-linejoin: miter"/>
     <use xlink:href="#m8cd36109d7" x="296.382768" y="39.056513" style="fill: #c7c7c7; stroke: #ffffff; stroke-width: 0.75; stroke-linejoin: miter"/>
     <use xlink:href="#m8cd36109d7" x="307.719911" y="39.056513" style="fill: #c7c7c7; stroke: #ffffff; stroke-width: 0.75; stroke-linejoin: miter"/>
     <use xlink:href="#m8cd36109d7" x="319.057054" y="39.056513" style="fill: #c7c7c7; stroke: #ffffff; stroke-width: 0.75; stroke-linejoin: miter"/>
     <use xlink:href="#m8cd36109d7" x="330.394196" y="39.056513" style="fill: #c7c7c7; stroke: #ffffff; stroke-width: 0.75; stroke-linejoin: miter"/>
     <use xlink:href="#m8cd36109d7" x="341.731339" y="39.056513" style="fill: #c7c7c7; stroke: #ffffff; stroke-width: 0.75; stroke-linejoin: miter"/>
     <use xlink:href="#m8cd36109d7" x="353.068482" y="39.056513" style="fill: #c7c7c7; stroke: #ffffff; stroke-width: 0.75; stroke-linejoin: miter"/>
     <use xlink:href="#m8cd36109d7" x="364.405625" y="39.056513" style="fill: #c7c7c7; stroke: #ffffff; stroke-width: 0.75; stroke-linejoin: miter"/>
     <use xlink:href="#m8cd36109d7" x="375.742768" y="39.056513" style="fill: #c7c7c7; stroke: #ffffff; stroke-width: 0.75; stroke-linejoin: miter"/>
     <use xlink:href="#m8cd36109d7" x="387.079911" y="39.056513" style="fill: #c7c7c7; stroke: #ffffff; stroke-width: 0.75; stroke-linejoin: miter"/>
     <use xlink:href="#m8cd36109d7" x="398.417054" y="39.056513" style="fill: #c7c7c7; stroke: #ffffff; stroke-width: 0.75; stroke-linejoin: miter"/>
     <use xlink:href="#m8cd36109d7" x="409.754196" y="39.056513" style="fill: #c7c7c7; stroke: #ffffff; stroke-width: 0.75; stroke-linejoin: miter"/>
     <use xlink:href="#m8cd36109d7" x="421.091339" y="39.056513" style="fill: #c7c7c7; stroke: #ffffff; stroke-width: 0.75; stroke-linejoin: miter"/>
     <use xlink:href="#m8cd36109d7" x="432.428482" y="39.056513" style="fill: #c7c7c7; stroke: #ffffff; stroke-width: 0.75; stroke-linejoin: miter"/>
     <use xlink:href="#m8cd36109d7" x="443.765625" y="39.056513" style="fill: #c7c7c7; stroke: #ffffff; stroke-width: 0.75; stroke-linejoin: miter"/>
     <use xlink:href="#m8cd36109d7" x="455.102768" y="39.056513" style="fill: #c7c7c7; stroke: #ffffff; stroke-width: 0.75; stroke-linejoin: miter"/>
     <use xlink:href="#m8cd36109d7" x="466.439911" y="39.056513" style="fill: #c7c7c7; stroke: #ffffff; stroke-width: 0.75; stroke-linejoin: miter"/>
     <use xlink:href="#m8cd36109d7" x="477.777054" y="39.056513" style="fill: #c7c7c7; stroke: #ffffff; stroke-width: 0.75; stroke-linejoin: miter"/>
     <use xlink:href="#m8cd36109d7" x="489.114196" y="39.056513" style="fill: #c7c7c7; stroke: #ffffff; stroke-width: 0.75; stroke-linejoin: miter"/>
     <use xlink:href="#m8cd36109d7" x="500.451339" y="39.056513" style="fill: #c7c7c7; stroke: #ffffff; stroke-width: 0.75; stroke-linejoin: miter"/>
     <use xlink:href="#m8cd36109d7" x="511.788482" y="39.056513" style="fill: #c7c7c7; stroke: #ffffff; stroke-width: 0.75; stroke-linejoin: miter"/>
     <use xlink:href="#m8cd36109d7" x="523.125625" y="39.056513" style="fill: #c7c7c7; stroke: #ffffff; stroke-width: 0.75; stroke-linejoin: miter"/>
     <use xlink:href="#m8cd36109d7" x="534.462768" y="39.056513" style="fill: #c7c7c7; stroke: #ffffff; stroke-width: 0.75; stroke-linejoin: miter"/>
     <use xlink:href="#m8cd36109d7" x="545.799911" y="38.024871" style="fill: #c7c7c7; stroke: #ffffff; stroke-width: 0.75; stroke-linejoin: miter"/>
     <use xlink:href="#m8cd36109d7" x="557.137054" y="38.024871" style="fill: #c7c7c7; stroke: #ffffff; stroke-width: 0.75; stroke-linejoin: miter"/>
     <use xlink:href="#m8cd36109d7" x="568.474196" y="38.024871" style="fill: #c7c7c7; stroke: #ffffff; stroke-width: 0.75; stroke-linejoin: miter"/>
     <use xlink:href="#m8cd36109d7" x="579.811339" y="38.024871" style="fill: #c7c7c7; stroke: #ffffff; stroke-width: 0.75; stroke-linejoin: miter"/>
     <use xlink:href="#m8cd36109d7" x="591.148482" y="38.024871" style="fill: #c7c7c7; stroke: #ffffff; stroke-width: 0.75; stroke-linejoin: miter"/>
     <use xlink:href="#m8cd36109d7" x="602.485625" y="38.024871" style="fill: #c7c7c7; stroke: #ffffff; stroke-width: 0.75; stroke-linejoin: miter"/>
     <use xlink:href="#m8cd36109d7" x="613.822768" y="38.024871" style="fill: #c7c7c7; stroke: #ffffff; stroke-width: 0.75; stroke-linejoin: miter"/>
     <use xlink:href="#m8cd36109d7" x="625.159911" y="38.024871" style="fill: #c7c7c7; stroke: #ffffff; stroke-width: 0.75; stroke-linejoin: miter"/>
     <use xlink:href="#m8cd36109d7" x="636.497054" y="38.024871" style="fill: #c7c7c7; stroke: #ffffff; stroke-width: 0.75; stroke-linejoin: miter"/>
     <use xlink:href="#m8cd36109d7" x="647.834196" y="38.024871" style="fill: #c7c7c7; stroke: #ffffff; stroke-width: 0.75; stroke-linejoin: miter"/>
     <use xlink:href="#m8cd36109d7" x="659.171339" y="38.024871" style="fill: #c7c7c7; stroke: #ffffff; stroke-width: 0.75; stroke-linejoin: miter"/>
     <use xlink:href="#m8cd36109d7" x="670.508482" y="38.024871" style="fill: #c7c7c7; stroke: #ffffff; stroke-width: 0.75; stroke-linejoin: miter"/>
     <use xlink:href="#m8cd36109d7" x="681.845625" y="38.024871" style="fill: #c7c7c7; stroke: #ffffff; stroke-width: 0.75; stroke-linejoin: miter"/>
     <use xlink:href="#m8cd36109d7" x="693.182768" y="38.024871" style="fill: #c7c7c7; stroke: #ffffff; stroke-width: 0.75; stroke-linejoin: miter"/>
     <use xlink:href="#m8cd36109d7" x="704.519911" y="38.024871" style="fill: #c7c7c7; stroke: #ffffff; stroke-width: 0.75; stroke-linejoin: miter"/>
     <use xlink:href="#m8cd36109d7" x="715.857054" y="38.024871" style="fill: #c7c7c7; stroke: #ffffff; stroke-width: 0.75; stroke-linejoin: miter"/>
     <use xlink:href="#m8cd36109d7" x="727.194196" y="38.024871" style="fill: #c7c7c7; stroke: #ffffff; stroke-width: 0.75; stroke-linejoin: miter"/>
    </g>
   </g>
   <g id="line2d_22">
    <path d="M 46.965625 276.334125 
L 58.302768 44.214722 
L 69.639911 44.214722 
L 80.977054 44.214722 
L 92.314196 44.214722 
L 103.651339 44.214722 
L 114.988482 44.214722 
L 126.325625 44.214722 
L 137.662768 44.214722 
L 148.999911 44.214722 
L 160.337054 44.214722 
L 171.674196 44.214722 
L 183.011339 41.635618 
L 194.348482 41.119797 
L 205.685625 41.119797 
L 217.022768 41.119797 
L 228.359911 41.119797 
L 239.697054 41.119797 
L 251.034196 41.119797 
L 262.371339 41.119797 
L 273.708482 41.119797 
L 285.045625 41.119797 
L 296.382768 41.119797 
L 307.719911 41.119797 
L 319.057054 41.119797 
L 330.394196 41.119797 
L 341.731339 41.119797 
L 353.068482 41.119797 
L 364.405625 41.119797 
L 375.742768 41.119797 
L 387.079911 41.119797 
L 398.417054 41.119797 
L 409.754196 41.119797 
L 421.091339 41.119797 
L 432.428482 41.119797 
L 443.765625 41.119797 
L 455.102768 41.119797 
L 466.439911 41.119797 
L 477.777054 41.119797 
L 489.114196 41.119797 
L 500.451339 41.119797 
L 511.788482 41.119797 
L 523.125625 41.119797 
L 534.462768 41.119797 
L 545.799911 41.119797 
L 557.137054 41.119797 
L 568.474196 41.119797 
L 579.811339 41.119797 
L 591.148482 41.119797 
L 602.485625 38.540692 
L 613.822768 38.540692 
L 625.159911 38.540692 
L 636.497054 38.540692 
L 647.834196 38.540692 
L 659.171339 38.540692 
L 670.508482 38.540692 
L 681.845625 38.540692 
L 693.182768 38.540692 
L 704.519911 38.540692 
L 715.857054 38.540692 
L 727.194196 38.540692 
" clip-path="url(#p036324983b)" style="fill: none; stroke: #1f77b4; stroke-width: 1.5; stroke-linecap: square"/>
    <defs>
     <path id="m02483add32" d="M 0 3 
C 0.795609 3 1.55874 2.683901 2.12132 2.12132 
C 2.683901 1.55874 3 0.795609 3 0 
C 3 -0.795609 2.683901 -1.55874 2.12132 -2.12132 
C 1.55874 -2.683901 0.795609 -3 0 -3 
C -0.795609 -3 -1.55874 -2.683901 -2.12132 -2.12132 
C -2.683901 -1.55874 -3 -0.795609 -3 0 
C -3 0.795609 -2.683901 1.55874 -2.12132 2.12132 
C -1.55874 2.683901 -0.795609 3 0 3 
z
" style="stroke: #ffffff; stroke-width: 0.75"/>
    </defs>
    <g clip-path="url(#p036324983b)">
     <use xlink:href="#m02483add32" x="46.965625" y="276.334125" style="fill: #1f77b4; stroke: #ffffff; stroke-width: 0.75"/>
     <use xlink:href="#m02483add32" x="58.302768" y="44.214722" style="fill: #1f77b4; stroke: #ffffff; stroke-width: 0.75"/>
     <use xlink:href="#m02483add32" x="69.639911" y="44.214722" style="fill: #1f77b4; stroke: #ffffff; stroke-width: 0.75"/>
     <use xlink:href="#m02483add32" x="80.977054" y="44.214722" style="fill: #1f77b4; stroke: #ffffff; stroke-width: 0.75"/>
     <use xlink:href="#m02483add32" x="92.314196" y="44.214722" style="fill: #1f77b4; stroke: #ffffff; stroke-width: 0.75"/>
     <use xlink:href="#m02483add32" x="103.651339" y="44.214722" style="fill: #1f77b4; stroke: #ffffff; stroke-width: 0.75"/>
     <use xlink:href="#m02483add32" x="114.988482" y="44.214722" style="fill: #1f77b4; stroke: #ffffff; stroke-width: 0.75"/>
     <use xlink:href="#m02483add32" x="126.325625" y="44.214722" style="fill: #1f77b4; stroke: #ffffff; stroke-width: 0.75"/>
     <use xlink:href="#m02483add32" x="137.662768" y="44.214722" style="fill: #1f77b4; stroke: #ffffff; stroke-width: 0.75"/>
     <use xlink:href="#m02483add32" x="148.999911" y="44.214722" style="fill: #1f77b4; stroke: #ffffff; stroke-width: 0.75"/>
     <use xlink:href="#m02483add32" x="160.337054" y="44.214722" style="fill: #1f77b4; stroke: #ffffff; stroke-width: 0.75"/>
     <use xlink:href="#m02483add32" x="171.674196" y="44.214722" style="fill: #1f77b4; stroke: #ffffff; stroke-width: 0.75"/>
     <use xlink:href="#m02483add32" x="183.011339" y="41.635618" style="fill: #1f77b4; stroke: #ffffff; stroke-width: 0.75"/>
     <use xlink:href="#m02483add32" x="194.348482" y="41.119797" style="fill: #1f77b4; stroke: #ffffff; stroke-width: 0.75"/>
     <use xlink:href="#m02483add32" x="205.685625" y="41.119797" style="fill: #1f77b4; stroke: #ffffff; stroke-width: 0.75"/>
     <use xlink:href="#m02483add32" x="217.022768" y="41.119797" style="fill: #1f77b4; stroke: #ffffff; stroke-width: 0.75"/>
     <use xlink:href="#m02483add32" x="228.359911" y="41.119797" style="fill: #1f77b4; stroke: #ffffff; stroke-width: 0.75"/>
     <use xlink:href="#m02483add32" x="239.697054" y="41.119797" style="fill: #1f77b4; stroke: #ffffff; stroke-width: 0.75"/>
     <use xlink:href="#m02483add32" x="251.034196" y="41.119797" style="fill: #1f77b4; stroke: #ffffff; stroke-width: 0.75"/>
     <use xlink:href="#m02483add32" x="262.371339" y="41.119797" style="fill: #1f77b4; stroke: #ffffff; stroke-width: 0.75"/>
     <use xlink:href="#m02483add32" x="273.708482" y="41.119797" style="fill: #1f77b4; stroke: #ffffff; stroke-width: 0.75"/>
     <use xlink:href="#m02483add32" x="285.045625" y="41.119797" style="fill: #1f77b4; stroke: #ffffff; stroke-width: 0.75"/>
     <use xlink:href="#m02483add32" x="296.382768" y="41.119797" style="fill: #1f77b4; stroke: #ffffff; stroke-width: 0.75"/>
     <use xlink:href="#m02483add32" x="307.719911" y="41.119797" style="fill: #1f77b4; stroke: #ffffff; stroke-width: 0.75"/>
     <use xlink:href="#m02483add32" x="319.057054" y="41.119797" style="fill: #1f77b4; stroke: #ffffff; stroke-width: 0.75"/>
     <use xlink:href="#m02483add32" x="330.394196" y="41.119797" style="fill: #1f77b4; stroke: #ffffff; stroke-width: 0.75"/>
     <use xlink:href="#m02483add32" x="341.731339" y="41.119797" style="fill: #1f77b4; stroke: #ffffff; stroke-width: 0.75"/>
     <use xlink:href="#m02483add32" x="353.068482" y="41.119797" style="fill: #1f77b4; stroke: #ffffff; stroke-width: 0.75"/>
     <use xlink:href="#m02483add32" x="364.405625" y="41.119797" style="fill: #1f77b4; stroke: #ffffff; stroke-width: 0.75"/>
     <use xlink:href="#m02483add32" x="375.742768" y="41.119797" style="fill: #1f77b4; stroke: #ffffff; stroke-width: 0.75"/>
     <use xlink:href="#m02483add32" x="387.079911" y="41.119797" style="fill: #1f77b4; stroke: #ffffff; stroke-width: 0.75"/>
     <use xlink:href="#m02483add32" x="398.417054" y="41.119797" style="fill: #1f77b4; stroke: #ffffff; stroke-width: 0.75"/>
     <use xlink:href="#m02483add32" x="409.754196" y="41.119797" style="fill: #1f77b4; stroke: #ffffff; stroke-width: 0.75"/>
     <use xlink:href="#m02483add32" x="421.091339" y="41.119797" style="fill: #1f77b4; stroke: #ffffff; stroke-width: 0.75"/>
     <use xlink:href="#m02483add32" x="432.428482" y="41.119797" style="fill: #1f77b4; stroke: #ffffff; stroke-width: 0.75"/>
     <use xlink:href="#m02483add32" x="443.765625" y="41.119797" style="fill: #1f77b4; stroke: #ffffff; stroke-width: 0.75"/>
     <use xlink:href="#m02483add32" x="455.102768" y="41.119797" style="fill: #1f77b4; stroke: #ffffff; stroke-width: 0.75"/>
     <use xlink:href="#m02483add32" x="466.439911" y="41.119797" style="fill: #1f77b4; stroke: #ffffff; stroke-width: 0.75"/>
     <use xlink:href="#m02483add32" x="477.777054" y="41.119797" style="fill: #1f77b4; stroke: #ffffff; stroke-width: 0.75"/>
     <use xlink:href="#m02483add32" x="489.114196" y="41.119797" style="fill: #1f77b4; stroke: #ffffff; stroke-width: 0.75"/>
     <use xlink:href="#m02483add32" x="500.451339" y="41.119797" style="fill: #1f77b4; stroke: #ffffff; stroke-width: 0.75"/>
     <use xlink:href="#m02483add32" x="511.788482" y="41.119797" style="fill: #1f77b4; stroke: #ffffff; stroke-width: 0.75"/>
     <use xlink:href="#m02483add32" x="523.125625" y="41.119797" style="fill: #1f77b4; stroke: #ffffff; stroke-width: 0.75"/>
     <use xlink:href="#m02483add32" x="534.462768" y="41.119797" style="fill: #1f77b4; stroke: #ffffff; stroke-width: 0.75"/>
     <use xlink:href="#m02483add32" x="545.799911" y="41.119797" style="fill: #1f77b4; stroke: #ffffff; stroke-width: 0.75"/>
     <use xlink:href="#m02483add32" x="557.137054" y="41.119797" style="fill: #1f77b4; stroke: #ffffff; stroke-width: 0.75"/>
     <use xlink:href="#m02483add32" x="568.474196" y="41.119797" style="fill: #1f77b4; stroke: #ffffff; stroke-width: 0.75"/>
     <use xlink:href="#m02483add32" x="579.811339" y="41.119797" style="fill: #1f77b4; stroke: #ffffff; stroke-width: 0.75"/>
     <use xlink:href="#m02483add32" x="591.148482" y="41.119797" style="fill: #1f77b4; stroke: #ffffff; stroke-width: 0.75"/>
     <use xlink:href="#m02483add32" x="602.485625" y="38.540692" style="fill: #1f77b4; stroke: #ffffff; stroke-width: 0.75"/>
     <use xlink:href="#m02483add32" x="613.822768" y="38.540692" style="fill: #1f77b4; stroke: #ffffff; stroke-width: 0.75"/>
     <use xlink:href="#m02483add32" x="625.159911" y="38.540692" style="fill: #1f77b4; stroke: #ffffff; stroke-width: 0.75"/>
     <use xlink:href="#m02483add32" x="636.497054" y="38.540692" style="fill: #1f77b4; stroke: #ffffff; stroke-width: 0.75"/>
     <use xlink:href="#m02483add32" x="647.834196" y="38.540692" style="fill: #1f77b4; stroke: #ffffff; stroke-width: 0.75"/>
     <use xlink:href="#m02483add32" x="659.171339" y="38.540692" style="fill: #1f77b4; stroke: #ffffff; stroke-width: 0.75"/>
     <use xlink:href="#m02483add32" x="670.508482" y="38.540692" style="fill: #1f77b4; stroke: #ffffff; stroke-width: 0.75"/>
     <use xlink:href="#m02483add32" x="681.845625" y="38.540692" style="fill: #1f77b4; stroke: #ffffff; stroke-width: 0.75"/>
     <use xlink:href="#m02483add32" x="693.182768" y="38.540692" style="fill: #1f77b4; stroke: #ffffff; stroke-width: 0.75"/>
     <use xlink:href="#m02483add32" x="704.519911" y="38.540692" style="fill: #1f77b4; stroke: #ffffff; stroke-width: 0.75"/>
     <use xlink:href="#m02483add32" x="715.857054" y="38.540692" style="fill: #1f77b4; stroke: #ffffff; stroke-width: 0.75"/>
     <use xlink:href="#m02483add32" x="727.194196" y="38.540692" style="fill: #1f77b4; stroke: #ffffff; stroke-width: 0.75"/>
    </g>
   </g>
   <g id="line2d_23"/>
   <g id="line2d_24"/>
   <g id="line2d_25"/>
   <g id="line2d_26"/>
   <g id="line2d_27">
    <path d="M 727.194196 288.430125 
L 727.194196 22.318125 
" clip-path="url(#p036324983b)" style="fill: none; stroke: #ff0000; stroke-width: 1.5; stroke-linecap: square"/>
   </g>
   <g id="patch_3">
    <path d="M 46.965625 276.334125 
L 46.965625 70.005767 
" style="fill: none; stroke: #000000; stroke-width: 0.8; stroke-linejoin: miter; stroke-linecap: square"/>
   </g>
   <g id="patch_4">
    <path d="M 46.965625 288.430125 
L 727.194196 288.430125 
" style="fill: none; stroke: #000000; stroke-width: 0.8; stroke-linejoin: miter; stroke-linecap: square"/>
   </g>
   <g id="text_21">
    <!-- zlib_zlib_uncompress_fuzzer (15h, at least 3 trials/fuzzer) -->
    <g transform="translate(232.359063 16.318125) scale(0.12 -0.12)">
     <defs>
      <path id="DejaVuSans-7a" d="M 353 3500 
L 3084 3500 
L 3084 2975 
L 922 459 
L 3084 459 
L 3084 0 
L 275 0 
L 275 525 
L 2438 3041 
L 353 3041 
L 353 3500 
z
" transform="scale(0.015625)"/>
      <path id="DejaVuSans-6c" d="M 603 4863 
L 1178 4863 
L 1178 0 
L 603 0 
L 603 4863 
z
" transform="scale(0.015625)"/>
      <path id="DejaVuSans-5f" d="M 3263 -1063 
L 3263 -1509 
L -63 -1509 
L -63 -1063 
L 3263 -1063 
z
" transform="scale(0.015625)"/>
      <path id="DejaVuSans-70" d="M 1159 525 
L 1159 -1331 
L 581 -1331 
L 581 3500 
L 1159 3500 
L 1159 2969 
Q 1341 3281 1617 3432 
Q 1894 3584 2278 3584 
Q 2916 3584 3314 3078 
Q 3713 2572 3713 1747 
Q 3713 922 3314 415 
Q 2916 -91 2278 -91 
Q 1894 -91 1617 61 
Q 1341 213 1159 525 
z
M 3116 1747 
Q 3116 2381 2855 2742 
Q 2594 3103 2138 3103 
Q 1681 3103 1420 2742 
Q 1159 2381 1159 1747 
Q 1159 1113 1420 752 
Q 1681 391 2138 391 
Q 2594 391 2855 752 
Q 3116 1113 3116 1747 
z
" transform="scale(0.015625)"/>
      <path id="DejaVuSans-73" d="M 2834 3397 
L 2834 2853 
Q 2591 2978 2328 3040 
Q 2066 3103 1784 3103 
Q 1356 3103 1142 2972 
Q 928 2841 928 2578 
Q 928 2378 1081 2264 
Q 1234 2150 1697 2047 
L 1894 2003 
Q 2506 1872 2764 1633 
Q 3022 1394 3022 966 
Q 3022 478 2636 193 
Q 2250 -91 1575 -91 
Q 1294 -91 989 -36 
Q 684 19 347 128 
L 347 722 
Q 666 556 975 473 
Q 1284 391 1588 391 
Q 1994 391 2212 530 
Q 2431 669 2431 922 
Q 2431 1156 2273 1281 
Q 2116 1406 1581 1522 
L 1381 1569 
Q 847 1681 609 1914 
Q 372 2147 372 2553 
Q 372 3047 722 3315 
Q 1072 3584 1716 3584 
Q 2034 3584 2315 3537 
Q 2597 3491 2834 3397 
z
" transform="scale(0.015625)"/>
      <path id="DejaVuSans-66" d="M 2375 4863 
L 2375 4384 
L 1825 4384 
Q 1516 4384 1395 4259 
Q 1275 4134 1275 3809 
L 1275 3500 
L 2222 3500 
L 2222 3053 
L 1275 3053 
L 1275 0 
L 697 0 
L 697 3053 
L 147 3053 
L 147 3500 
L 697 3500 
L 697 3744 
Q 697 4328 969 4595 
Q 1241 4863 1831 4863 
L 2375 4863 
z
" transform="scale(0.015625)"/>
      <path id="DejaVuSans-2c" d="M 750 794 
L 1409 794 
L 1409 256 
L 897 -744 
L 494 -744 
L 750 256 
L 750 794 
z
" transform="scale(0.015625)"/>
      <path id="DejaVuSans-2f" d="M 1625 4666 
L 2156 4666 
L 531 -594 
L 0 -594 
L 1625 4666 
z
" transform="scale(0.015625)"/>
     </defs>
     <use xlink:href="#DejaVuSans-7a"/>
     <use xlink:href="#DejaVuSans-6c" transform="translate(52.490234 0)"/>
     <use xlink:href="#DejaVuSans-69" transform="translate(80.273438 0)"/>
     <use xlink:href="#DejaVuSans-62" transform="translate(108.056641 0)"/>
     <use xlink:href="#DejaVuSans-5f" transform="translate(171.533203 0)"/>
     <use xlink:href="#DejaVuSans-7a" transform="translate(221.533203 0)"/>
     <use xlink:href="#DejaVuSans-6c" transform="translate(274.023438 0)"/>
     <use xlink:href="#DejaVuSans-69" transform="translate(301.806641 0)"/>
     <use xlink:href="#DejaVuSans-62" transform="translate(329.589844 0)"/>
     <use xlink:href="#DejaVuSans-5f" transform="translate(393.066406 0)"/>
     <use xlink:href="#DejaVuSans-75" transform="translate(443.066406 0)"/>
     <use xlink:href="#DejaVuSans-6e" transform="translate(506.445312 0)"/>
     <use xlink:href="#DejaVuSans-63" transform="translate(569.824219 0)"/>
     <use xlink:href="#DejaVuSans-6f" transform="translate(624.804688 0)"/>
     <use xlink:href="#DejaVuSans-6d" transform="translate(685.986328 0)"/>
     <use xlink:href="#DejaVuSans-70" transform="translate(783.398438 0)"/>
     <use xlink:href="#DejaVuSans-72" transform="translate(846.875 0)"/>
     <use xlink:href="#DejaVuSans-65" transform="translate(885.738281 0)"/>
     <use xlink:href="#DejaVuSans-73" transform="translate(947.261719 0)"/>
     <use xlink:href="#DejaVuSans-73" transform="translate(999.361328 0)"/>
     <use xlink:href="#DejaVuSans-5f" transform="translate(1051.460938 0)"/>
     <use xlink:href="#DejaVuSans-66" transform="translate(1101.460938 0)"/>
     <use xlink:href="#DejaVuSans-75" transform="translate(1136.666016 0)"/>
     <use xlink:href="#DejaVuSans-7a" transform="translate(1200.044922 0)"/>
     <use xlink:href="#DejaVuSans-7a" transform="translate(1252.535156 0)"/>
     <use xlink:href="#DejaVuSans-65" transform="translate(1305.025391 0)"/>
     <use xlink:href="#DejaVuSans-72" transform="translate(1366.548828 0)"/>
     <use xlink:href="#DejaVuSans-20" transform="translate(1407.662109 0)"/>
     <use xlink:href="#DejaVuSans-28" transform="translate(1439.449219 0)"/>
     <use xlink:href="#DejaVuSans-31" transform="translate(1478.462891 0)"/>
     <use xlink:href="#DejaVuSans-35" transform="translate(1542.085938 0)"/>
     <use xlink:href="#DejaVuSans-68" transform="translate(1605.708984 0)"/>
     <use xlink:href="#DejaVuSans-2c" transform="translate(1669.087891 0)"/>
     <use xlink:href="#DejaVuSans-20" transform="translate(1700.875 0)"/>
     <use xlink:href="#DejaVuSans-61" transform="translate(1732.662109 0)"/>
     <use xlink:href="#DejaVuSans-74" transform="translate(1793.941406 0)"/>
     <use xlink:href="#DejaVuSans-20" transform="translate(1833.150391 0)"/>
     <use xlink:href="#DejaVuSans-6c" transform="translate(1864.9375 0)"/>
     <use xlink:href="#DejaVuSans-65" transform="translate(1892.720703 0)"/>
     <use xlink:href="#DejaVuSans-61" transform="translate(1954.244141 0)"/>
     <use xlink:href="#DejaVuSans-73" transform="translate(2015.523438 0)"/>
     <use xlink:href="#DejaVuSans-74" transform="translate(2067.623047 0)"/>
     <use xlink:href="#DejaVuSans-20" transform="translate(2106.832031 0)"/>
     <use xlink:href="#DejaVuSans-33" transform="translate(2138.619141 0)"/>
     <use xlink:href="#DejaVuSans-20" transform="translate(2202.242188 0)"/>
     <use xlink:href="#DejaVuSans-74" transform="translate(2234.029297 0)"/>
     <use xlink:href="#DejaVuSans-72" transform="translate(2273.238281 0)"/>
     <use xlink:href="#DejaVuSans-69" transform="translate(2314.351562 0)"/>
     <use xlink:href="#DejaVuSans-61" transform="translate(2342.134766 0)"/>
     <use xlink:href="#DejaVuSans-6c" transform="translate(2403.414062 0)"/>
     <use xlink:href="#DejaVuSans-73" transform="translate(2431.197266 0)"/>
     <use xlink:href="#DejaVuSans-2f" transform="translate(2483.296875 0)"/>
     <use xlink:href="#DejaVuSans-66" transform="translate(2516.988281 0)"/>
     <use xlink:href="#DejaVuSans-75" transform="translate(2552.193359 0)"/>
     <use xlink:href="#DejaVuSans-7a" transform="translate(2615.572266 0)"/>
     <use xlink:href="#DejaVuSans-7a" transform="translate(2668.0625 0)"/>
     <use xlink:href="#DejaVuSans-65" transform="translate(2720.552734 0)"/>
     <use xlink:href="#DejaVuSans-72" transform="translate(2782.076172 0)"/>
     <use xlink:href="#DejaVuSans-29" transform="translate(2823.189453 0)"/>
    </g>
   </g>
   <g id="legend_1">
    <g id="line2d_28">
     <path d="M 765.205625 30.416562 
L 775.205625 30.416562 
L 785.205625 30.416562 
" style="fill: none; stroke: #98df8a; stroke-width: 1.5; stroke-linecap: square"/>
     <g>
      <use xlink:href="#m776c8bfe14" x="775.205625" y="30.416562" style="fill: #98df8a; stroke: #ffffff; stroke-width: 0.75; stroke-linejoin: miter"/>
     </g>
    </g>
    <g id="text_22">
     <!-- aflplusplus_500c -->
     <g transform="translate(793.205625 33.916562) scale(0.1 -0.1)">
      <use xlink:href="#DejaVuSans-61"/>
      <use xlink:href="#DejaVuSans-66" transform="translate(61.279297 0)"/>
      <use xlink:href="#DejaVuSans-6c" transform="translate(96.484375 0)"/>
      <use xlink:href="#DejaVuSans-70" transform="translate(124.267578 0)"/>
      <use xlink:href="#DejaVuSans-6c" transform="translate(187.744141 0)"/>
      <use xlink:href="#DejaVuSans-75" transform="translate(215.527344 0)"/>
      <use xlink:href="#DejaVuSans-73" transform="translate(278.90625 0)"/>
      <use xlink:href="#DejaVuSans-70" transform="translate(331.005859 0)"/>
      <use xlink:href="#DejaVuSans-6c" transform="translate(394.482422 0)"/>
      <use xlink:href="#DejaVuSans-75" transform="translate(422.265625 0)"/>
      <use xlink:href="#DejaVuSans-73" transform="translate(485.644531 0)"/>
      <use xlink:href="#DejaVuSans-5f" transform="translate(537.744141 0)"/>
      <use xlink:href="#DejaVuSans-35" transform="translate(587.744141 0)"/>
      <use xlink:href="#DejaVuSans-30" transform="translate(651.367188 0)"/>
      <use xlink:href="#DejaVuSans-30" transform="translate(714.990234 0)"/>
      <use xlink:href="#DejaVuSans-63" transform="translate(778.613281 0)"/>
     </g>
    </g>
    <g id="line2d_29">
     <path d="M 765.205625 45.372813 
L 775.205625 45.372813 
L 785.205625 45.372813 
" style="fill: none; stroke: #d62728; stroke-width: 1.5; stroke-linecap: square"/>
     <g>
      <use xlink:href="#mfcb2d805dd" x="775.205625" y="45.372813" style="fill: #d62728; stroke: #ffffff; stroke-width: 0.75; stroke-linejoin: miter"/>
     </g>
    </g>
    <g id="text_23">
     <!-- aflplusplus_c11 -->
     <g transform="translate(793.205625 48.872813) scale(0.1 -0.1)">
      <use xlink:href="#DejaVuSans-61"/>
      <use xlink:href="#DejaVuSans-66" transform="translate(61.279297 0)"/>
      <use xlink:href="#DejaVuSans-6c" transform="translate(96.484375 0)"/>
      <use xlink:href="#DejaVuSans-70" transform="translate(124.267578 0)"/>
      <use xlink:href="#DejaVuSans-6c" transform="translate(187.744141 0)"/>
      <use xlink:href="#DejaVuSans-75" transform="translate(215.527344 0)"/>
      <use xlink:href="#DejaVuSans-73" transform="translate(278.90625 0)"/>
      <use xlink:href="#DejaVuSans-70" transform="translate(331.005859 0)"/>
      <use xlink:href="#DejaVuSans-6c" transform="translate(394.482422 0)"/>
      <use xlink:href="#DejaVuSans-75" transform="translate(422.265625 0)"/>
      <use xlink:href="#DejaVuSans-73" transform="translate(485.644531 0)"/>
      <use xlink:href="#DejaVuSans-5f" transform="translate(537.744141 0)"/>
      <use xlink:href="#DejaVuSans-63" transform="translate(587.744141 0)"/>
      <use xlink:href="#DejaVuSans-31" transform="translate(642.724609 0)"/>
      <use xlink:href="#DejaVuSans-31" transform="translate(706.347656 0)"/>
     </g>
    </g>
    <g id="line2d_30">
     <path d="M 765.205625 60.329063 
L 775.205625 60.329063 
L 785.205625 60.329063 
" style="fill: none; stroke: #c7c7c7; stroke-width: 1.5; stroke-linecap: square"/>
     <g>
      <use xlink:href="#m8cd36109d7" x="775.205625" y="60.329063" style="fill: #c7c7c7; stroke: #ffffff; stroke-width: 0.75; stroke-linejoin: miter"/>
     </g>
    </g>
    <g id="text_24">
     <!-- aflplusplus_mopt -->
     <g transform="translate(793.205625 63.829063) scale(0.1 -0.1)">
      <use xlink:href="#DejaVuSans-61"/>
      <use xlink:href="#DejaVuSans-66" transform="translate(61.279297 0)"/>
      <use xlink:href="#DejaVuSans-6c" transform="translate(96.484375 0)"/>
      <use xlink:href="#DejaVuSans-70" transform="translate(124.267578 0)"/>
      <use xlink:href="#DejaVuSans-6c" transform="translate(187.744141 0)"/>
      <use xlink:href="#DejaVuSans-75" transform="translate(215.527344 0)"/>
      <use xlink:href="#DejaVuSans-73" transform="translate(278.90625 0)"/>
      <use xlink:href="#DejaVuSans-70" transform="translate(331.005859 0)"/>
      <use xlink:href="#DejaVuSans-6c" transform="translate(394.482422 0)"/>
      <use xlink:href="#DejaVuSans-75" transform="translate(422.265625 0)"/>
      <use xlink:href="#DejaVuSans-73" transform="translate(485.644531 0)"/>
      <use xlink:href="#DejaVuSans-5f" transform="translate(537.744141 0)"/>
      <use xlink:href="#DejaVuSans-6d" transform="translate(587.744141 0)"/>
      <use xlink:href="#DejaVuSans-6f" transform="translate(685.15625 0)"/>
      <use xlink:href="#DejaVuSans-70" transform="translate(746.337891 0)"/>
      <use xlink:href="#DejaVuSans-74" transform="translate(809.814453 0)"/>
     </g>
    </g>
    <g id="line2d_31">
     <path d="M 765.205625 75.285313 
L 775.205625 75.285313 
L 785.205625 75.285313 
" style="fill: none; stroke: #1f77b4; stroke-width: 1.5; stroke-linecap: square"/>
     <g>
      <use xlink:href="#m02483add32" x="775.205625" y="75.285313" style="fill: #1f77b4; stroke: #ffffff; stroke-width: 0.75"/>
     </g>
    </g>
    <g id="text_25">
     <!-- aflplusplus_440c -->
     <g transform="translate(793.205625 78.785313) scale(0.1 -0.1)">
      <use xlink:href="#DejaVuSans-61"/>
      <use xlink:href="#DejaVuSans-66" transform="translate(61.279297 0)"/>
      <use xlink:href="#DejaVuSans-6c" transform="translate(96.484375 0)"/>
      <use xlink:href="#DejaVuSans-70" transform="translate(124.267578 0)"/>
      <use xlink:href="#DejaVuSans-6c" transform="translate(187.744141 0)"/>
      <use xlink:href="#DejaVuSans-75" transform="translate(215.527344 0)"/>
      <use xlink:href="#DejaVuSans-73" transform="translate(278.90625 0)"/>
      <use xlink:href="#DejaVuSans-70" transform="translate(331.005859 0)"/>
      <use xlink:href="#DejaVuSans-6c" transform="translate(394.482422 0)"/>
      <use xlink:href="#DejaVuSans-75" transform="translate(422.265625 0)"/>
      <use xlink:href="#DejaVuSans-73" transform="translate(485.644531 0)"/>
      <use xlink:href="#DejaVuSans-5f" transform="translate(537.744141 0)"/>
      <use xlink:href="#DejaVuSans-34" transform="translate(587.744141 0)"/>
      <use xlink:href="#DejaVuSans-34" transform="translate(651.367188 0)"/>
      <use xlink:href="#DejaVuSans-30" transform="translate(714.990234 0)"/>
      <use xlink:href="#DejaVuSans-63" transform="translate(778.613281 0)"/>
     </g>
    </g>
   </g>
  </g>
 </g>
 <defs>
  <clipPath id="p036324983b">
   <rect x="46.965625" y="22.318125" width="714.24" height="266.112"/>
  </clipPath>
 </defs>
</svg>
