<?xml version="1.0" encoding="utf-8" standalone="no"?>
<!DOCTYPE svg PUBLIC "-//W3C//DTD SVG 1.1//EN"
  "http://www.w3.org/Graphics/SVG/1.1/DTD/svg11.dtd">
<svg xmlns:xlink="http://www.w3.org/1999/xlink" width="889.307188pt" height="325.986375pt" viewBox="0 0 889.307188 325.986375" xmlns="http://www.w3.org/2000/svg" version="1.1">
 <metadata>
  <rdf:RDF xmlns:dc="http://purl.org/dc/elements/1.1/" xmlns:cc="http://creativecommons.org/ns#" xmlns:rdf="http://www.w3.org/1999/02/22-rdf-syntax-ns#">
   <cc:Work>
    <dc:type rdf:resource="http://purl.org/dc/dcmitype/StillImage"/>
    <dc:date>2026-06-10T02:10:06.332631</dc:date>
    <dc:format>image/svg+xml</dc:format>
    <dc:creator>
     <cc:Agent>
      <dc:title>Matplotlib v3.10.9, https://matplotlib.org/</dc:title>
     </cc:Agent>
    </dc:creator>
   </cc:Work>
  </rdf:RDF>
 </metadata>
 <defs>
  <style type="text/css">*{stroke-linejoin: round; stroke-linecap: butt}</style>
 </defs>
 <g id="figure_1">
  <g id="patch_1">
   <path d="M 0 325.986375 
L 889.307188 325.986375 
L 889.307188 0 
L 0 0 
z
" style="fill: #ffffff"/>
  </g>
  <g id="axes_1">
   <g id="patch_2">
    <path d="M 46.965625 288.430125 
L 761.205625 288.430125 
L 761.205625 22.318125 
L 46.965625 22.318125 
z
" style="fill: #ffffff"/>
   </g>
   <g id="FillBetweenPolyCollection_1">
    <defs>
     <path id="me66ab01c1c" d="M 46.965625 -49.65225 
L 46.965625 -49.65225 
L 544.053572 -284.823409 
L 583.805304 -284.823409 
L 607.058576 -284.823409 
L 623.557035 -284.823409 
L 636.354235 -284.823409 
L 646.810308 -284.823409 
L 655.650792 -284.823409 
L 663.308767 -286.380834 
L 670.06358 -286.380834 
L 676.105966 -286.380834 
L 681.57197 -286.380834 
L 686.562039 -286.380834 
L 691.152459 -286.380834 
L 695.402523 -286.380834 
L 699.359239 -286.380834 
L 703.060499 -286.380834 
L 706.537298 -286.380834 
L 709.815312 -286.380834 
L 712.916047 -286.380834 
L 715.857698 -286.380834 
L 718.655796 -286.380834 
L 721.323701 -286.380834 
L 723.872993 -286.380834 
L 726.313771 -286.380834 
L 728.654897 -286.380834 
L 730.90419 -286.380834 
L 733.068584 -286.380834 
L 735.154255 -286.380834 
L 737.166729 -286.380834 
L 739.11097 -286.380834 
L 740.991454 -286.380834 
L 742.81223 -286.380834 
L 744.576974 -286.380834 
L 746.28903 -286.380834 
L 747.951454 -286.380834 
L 749.567043 -286.380834 
L 751.138364 -286.380834 
L 752.667778 -286.380834 
L 754.157463 -286.380834 
L 755.60943 -286.380834 
L 757.025542 -286.380834 
L 758.407527 -286.380834 
L 758.407527 -291.57225 
L 758.407527 -291.57225 
L 757.025542 -291.57225 
L 755.60943 -291.57225 
L 754.157463 -291.57225 
L 752.667778 -291.57225 
L 751.138364 -291.57225 
L 749.567043 -291.57225 
L 747.951454 -291.57225 
L 746.28903 -291.57225 
L 744.576974 -291.57225 
L 742.81223 -291.57225 
L 740.991454 -289.495683 
L 739.11097 -289.495683 
L 737.166729 -289.495683 
L 735.154255 -289.495683 
L 733.068584 -289.495683 
L 730.90419 -289.495683 
L 728.654897 -289.495683 
L 726.313771 -289.495683 
L 723.872993 -289.495683 
L 721.323701 -289.495683 
L 718.655796 -289.495683 
L 715.857698 -289.495683 
L 712.916047 -289.495683 
L 709.815312 -289.495683 
L 706.537298 -289.495683 
L 703.060499 -289.495683 
L 699.359239 -289.495683 
L 695.402523 -289.495683 
L 691.152459 -289.495683 
L 686.562039 -289.495683 
L 681.57197 -289.495683 
L 676.105966 -289.495683 
L 670.06358 -289.495683 
L 663.308767 -289.495683 
L 655.650792 -289.495683 
L 646.810308 -289.495683 
L 636.354235 -289.495683 
L 623.557035 -287.678688 
L 607.058576 -287.678688 
L 583.805304 -287.678688 
L 544.053572 -287.425606 
L 46.965625 -49.65225 
z
" style="stroke: #d62728; stroke-opacity: 0.2"/>
    </defs>
    <g clip-path="url(#p3ea38ab733)">
     <use xlink:href="#me66ab01c1c" x="0" y="325.986375" style="fill: #d62728; fill-opacity: 0.2; stroke: #d62728; stroke-opacity: 0.2"/>
    </g>
   </g>
   <g id="FillBetweenPolyCollection_2">
    <defs>
     <path id="mc0914fb64f" d="M 46.965625 -49.65225 
L 46.965625 -49.65225 
L 544.053572 -283.265984 
L 583.805304 -283.785126 
L 607.058576 -283.785126 
L 623.557035 -283.785126 
L 636.354235 -283.785126 
L 646.810308 -283.785126 
L 655.650792 -283.785126 
L 663.308767 -283.785126 
L 670.06358 -285.34255 
L 676.105966 -285.34255 
L 681.57197 -285.34255 
L 686.562039 -286.380834 
L 691.152459 -286.380834 
L 695.402523 -286.899975 
L 699.359239 -286.899975 
L 703.060499 -286.899975 
L 706.537298 -286.899975 
L 709.815312 -286.899975 
L 712.916047 -286.899975 
L 715.857698 -286.899975 
L 718.655796 -286.899975 
L 721.323701 -286.899975 
L 723.872993 -286.899975 
L 726.313771 -286.899975 
L 728.654897 -286.899975 
L 730.90419 -286.899975 
L 733.068584 -286.899975 
L 735.154255 -286.899975 
L 737.166729 -286.899975 
L 739.11097 -286.899975 
L 740.991454 -286.899975 
L 742.81223 -286.899975 
L 744.576974 -286.899975 
L 746.28903 -286.899975 
L 747.951454 -286.899975 
L 749.567043 -286.899975 
L 751.138364 -286.899975 
L 752.667778 -286.899975 
L 754.157463 -286.899975 
L 755.60943 -286.899975 
L 757.025542 -286.899975 
L 758.407527 -286.899975 
L 758.407527 -290.014825 
L 758.407527 -290.014825 
L 757.025542 -290.014825 
L 755.60943 -290.014825 
L 754.157463 -290.014825 
L 752.667778 -290.014825 
L 751.138364 -290.014825 
L 749.567043 -290.014825 
L 747.951454 -290.014825 
L 746.28903 -290.014825 
L 744.576974 -290.014825 
L 742.81223 -290.014825 
L 740.991454 -290.014825 
L 739.11097 -290.014825 
L 737.166729 -290.014825 
L 735.154255 -290.014825 
L 733.068584 -290.014825 
L 730.90419 -290.014825 
L 728.654897 -290.014825 
L 726.313771 -290.014825 
L 723.872993 -290.014825 
L 721.323701 -290.014825 
L 718.655796 -290.014825 
L 715.857698 -290.014825 
L 712.916047 -290.014825 
L 709.815312 -290.014825 
L 706.537298 -290.014825 
L 703.060499 -290.014825 
L 699.359239 -290.014825 
L 695.402523 -290.014825 
L 691.152459 -290.014825 
L 686.562039 -290.014825 
L 681.57197 -290.014825 
L 676.105966 -290.014825 
L 670.06358 -290.014825 
L 663.308767 -290.014825 
L 655.650792 -290.014825 
L 646.810308 -290.014825 
L 636.354235 -290.014825 
L 623.557035 -290.014825 
L 607.058576 -290.014825 
L 583.805304 -290.014825 
L 544.053572 -289.495683 
L 46.965625 -49.65225 
z
" style="stroke: #c7c7c7; stroke-opacity: 0.2"/>
    </defs>
    <g clip-path="url(#p3ea38ab733)">
     <use xlink:href="#mc0914fb64f" x="0" y="325.986375" style="fill: #c7c7c7; fill-opacity: 0.2; stroke: #c7c7c7; stroke-opacity: 0.2"/>
    </g>
   </g>
   <g id="FillBetweenPolyCollection_3">
    <defs>
     <path id="m544668d9f5" d="M 46.965625 -49.65225 
L 46.965625 -49.65225 
L 544.053572 -285.861692 
L 583.805304 -286.380834 
L 607.058576 -286.380834 
L 623.557035 -286.380834 
L 636.354235 -286.380834 
L 646.810308 -286.380834 
L 655.650792 -286.380834 
L 663.308767 -286.380834 
L 670.06358 -286.380834 
L 676.105966 -286.380834 
L 681.57197 -286.380834 
L 686.562039 -286.380834 
L 691.152459 -286.380834 
L 695.402523 -286.380834 
L 699.359239 -286.380834 
L 703.060499 -286.380834 
L 706.537298 -286.380834 
L 709.815312 -286.380834 
L 712.916047 -286.380834 
L 715.857698 -286.380834 
L 718.655796 -286.380834 
L 721.323701 -286.380834 
L 723.872993 -286.380834 
L 726.313771 -286.380834 
L 728.654897 -286.380834 
L 730.90419 -286.380834 
L 733.068584 -286.380834 
L 735.154255 -286.380834 
L 737.166729 -286.380834 
L 739.11097 -286.380834 
L 740.991454 -286.380834 
L 742.81223 -286.380834 
L 744.576974 -286.380834 
L 746.28903 -286.380834 
L 747.951454 -286.380834 
L 749.567043 -286.380834 
L 751.138364 -286.380834 
L 752.667778 -286.380834 
L 754.157463 -286.380834 
L 755.60943 -286.380834 
L 757.025542 -286.380834 
L 758.407527 -286.380834 
L 758.407527 -289.495683 
L 758.407527 -289.495683 
L 757.025542 -289.495683 
L 755.60943 -289.495683 
L 754.157463 -289.495683 
L 752.667778 -289.495683 
L 751.138364 -289.495683 
L 749.567043 -289.495683 
L 747.951454 -289.495683 
L 746.28903 -289.495683 
L 744.576974 -289.495683 
L 742.81223 -289.495683 
L 740.991454 -289.495683 
L 739.11097 -289.495683 
L 737.166729 -289.495683 
L 735.154255 -289.495683 
L 733.068584 -289.495683 
L 730.90419 -289.495683 
L 728.654897 -289.495683 
L 726.313771 -289.495683 
L 723.872993 -288.976542 
L 721.323701 -288.976542 
L 718.655796 -288.976542 
L 715.857698 -288.4574 
L 712.916047 -288.4574 
L 709.815312 -288.4574 
L 706.537298 -288.4574 
L 703.060499 -288.4574 
L 699.359239 -288.4574 
L 695.402523 -288.4574 
L 691.152459 -288.4574 
L 686.562039 -288.4574 
L 681.57197 -288.4574 
L 676.105966 -288.4574 
L 670.06358 -288.4574 
L 663.308767 -288.4574 
L 655.650792 -288.4574 
L 646.810308 -288.4574 
L 636.354235 -288.4574 
L 623.557035 -288.4574 
L 607.058576 -288.4574 
L 583.805304 -288.4574 
L 544.053572 -288.4574 
L 46.965625 -49.65225 
z
" style="stroke: #98df8a; stroke-opacity: 0.2"/>
    </defs>
    <g clip-path="url(#p3ea38ab733)">
     <use xlink:href="#m544668d9f5" x="0" y="325.986375" style="fill: #98df8a; fill-opacity: 0.2; stroke: #98df8a; stroke-opacity: 0.2"/>
    </g>
   </g>
   <g id="FillBetweenPolyCollection_4">
    <defs>
     <path id="m7e6406441b" d="M 46.965625 -49.65225 
L 46.965625 -49.65225 
L 544.053572 -282.227701 
L 583.805304 -282.227701 
L 607.058576 -282.227701 
L 623.557035 -282.227701 
L 636.354235 -282.227701 
L 646.810308 -282.227701 
L 655.650792 -282.227701 
L 663.308767 -282.227701 
L 670.06358 -282.227701 
L 676.105966 -282.227701 
L 681.57197 -282.227701 
L 686.562039 -282.227701 
L 691.152459 -282.227701 
L 695.402523 -282.227701 
L 699.359239 -282.227701 
L 703.060499 -282.227701 
L 706.537298 -282.227701 
L 709.815312 -282.227701 
L 712.916047 -282.227701 
L 715.857698 -282.227701 
L 718.655796 -282.227701 
L 721.323701 -282.227701 
L 723.872993 -282.227701 
L 726.313771 -282.227701 
L 728.654897 -282.227701 
L 730.90419 -282.227701 
L 733.068584 -282.227701 
L 735.154255 -282.227701 
L 737.166729 -282.227701 
L 739.11097 -282.227701 
L 740.991454 -282.227701 
L 742.81223 -282.227701 
L 744.576974 -282.227701 
L 746.28903 -282.227701 
L 747.951454 -282.227701 
L 749.567043 -282.227701 
L 751.138364 -282.227701 
L 752.667778 -282.227701 
L 754.157463 -282.227701 
L 755.60943 -282.227701 
L 757.025542 -283.265984 
L 758.407527 -283.265984 
L 758.407527 -289.495683 
L 758.407527 -289.495683 
L 757.025542 -289.495683 
L 755.60943 -289.495683 
L 754.157463 -289.495683 
L 752.667778 -289.495683 
L 751.138364 -289.495683 
L 749.567043 -289.495683 
L 747.951454 -289.495683 
L 746.28903 -289.495683 
L 744.576974 -289.495683 
L 742.81223 -289.495683 
L 740.991454 -289.495683 
L 739.11097 -289.495683 
L 737.166729 -289.495683 
L 735.154255 -289.495683 
L 733.068584 -289.495683 
L 730.90419 -288.4574 
L 728.654897 -288.4574 
L 726.313771 -288.4574 
L 723.872993 -288.4574 
L 721.323701 -288.4574 
L 718.655796 -288.4574 
L 715.857698 -288.4574 
L 712.916047 -288.4574 
L 709.815312 -288.4574 
L 706.537298 -288.4574 
L 703.060499 -288.4574 
L 699.359239 -288.4574 
L 695.402523 -288.4574 
L 691.152459 -287.938259 
L 686.562039 -287.938259 
L 681.57197 -287.938259 
L 676.105966 -287.938259 
L 670.06358 -287.938259 
L 663.308767 -287.938259 
L 655.650792 -287.938259 
L 646.810308 -287.938259 
L 636.354235 -287.938259 
L 623.557035 -287.938259 
L 607.058576 -287.938259 
L 583.805304 -286.380834 
L 544.053572 -286.380834 
L 46.965625 -49.65225 
z
" style="stroke: #1f77b4; stroke-opacity: 0.2"/>
    </defs>
    <g clip-path="url(#p3ea38ab733)">
     <use xlink:href="#m7e6406441b" x="0" y="325.986375" style="fill: #1f77b4; fill-opacity: 0.2; stroke: #1f77b4; stroke-opacity: 0.2"/>
    </g>
   </g>
   <g id="matplotlib.axis_1">
    <g id="xtick_1">
     <g id="line2d_1">
      <defs>
       <path id="mc0b453dcc2" d="M 0 0 
L 0 3.5 
" style="stroke: #000000; stroke-width: 0.8"/>
      </defs>
      <g>
       <use xlink:href="#mc0b453dcc2" x="46.965625" y="288.430125" style="stroke: #000000; stroke-width: 0.8"/>
      </g>
     </g>
     <g id="text_1">
      <!-- 0m -->
      <g transform="translate(38.914063 303.028562) scale(0.1 -0.1)">
       <defs>
        <path id="DejaVuSans-30" d="M 2034 4250 
Q 1547 4250 1301 3770 
Q 1056 3291 1056 2328 
Q 1056 1369 1301 889 
Q 1547 409 2034 409 
Q 2525 409 2770 889 
Q 3016 1369 3016 2328 
Q 3016 3291 2770 3770 
Q 2525 4250 2034 4250 
z
M 2034 4750 
Q 2819 4750 3233 4129 
Q 3647 3509 3647 2328 
Q 3647 1150 3233 529 
Q 2819 -91 2034 -91 
Q 1250 -91 836 529 
Q 422 1150 422 2328 
Q 422 3509 836 4129 
Q 1250 4750 2034 4750 
z
" transform="scale(0.015625)"/>
        <path id="DejaVuSans-6d" d="M 3328 2828 
Q 3544 3216 3844 3400 
Q 4144 3584 4550 3584 
Q 5097 3584 5394 3201 
Q 5691 2819 5691 2113 
L 5691 0 
L 5113 0 
L 5113 2094 
Q 5113 2597 4934 2840 
Q 4756 3084 4391 3084 
Q 3944 3084 3684 2787 
Q 3425 2491 3425 1978 
L 3425 0 
L 2847 0 
L 2847 2094 
Q 2847 2600 2669 2842 
Q 2491 3084 2119 3084 
Q 1678 3084 1418 2786 
Q 1159 2488 1159 1978 
L 1159 0 
L 581 0 
L 581 3500 
L 1159 3500 
L 1159 2956 
Q 1356 3278 1631 3431 
Q 1906 3584 2284 3584 
Q 2666 3584 2933 3390 
Q 3200 3197 3328 2828 
z
" transform="scale(0.015625)"/>
       </defs>
       <use xlink:href="#DejaVuSans-30"/>
       <use xlink:href="#DejaVuSans-6d" transform="translate(63.623047 0)"/>
      </g>
     </g>
    </g>
    <g id="xtick_2">
     <g id="line2d_2">
      <g>
       <use xlink:href="#mc0b453dcc2" x="120.328066" y="288.430125" style="stroke: #000000; stroke-width: 0.8"/>
      </g>
     </g>
    </g>
    <g id="xtick_3">
     <g id="line2d_3">
      <g>
       <use xlink:href="#mc0b453dcc2" x="214.385803" y="288.430125" style="stroke: #000000; stroke-width: 0.8"/>
      </g>
     </g>
    </g>
    <g id="xtick_4">
     <g id="line2d_4">
      <g>
       <use xlink:href="#mc0b453dcc2" x="274.83283" y="288.430125" style="stroke: #000000; stroke-width: 0.8"/>
      </g>
     </g>
    </g>
    <g id="xtick_5">
     <g id="line2d_5">
      <g>
       <use xlink:href="#mc0b453dcc2" x="335.279856" y="288.430125" style="stroke: #000000; stroke-width: 0.8"/>
      </g>
     </g>
    </g>
    <g id="xtick_6">
     <g id="line2d_6">
      <g>
       <use xlink:href="#mc0b453dcc2" x="395.726883" y="288.430125" style="stroke: #000000; stroke-width: 0.8"/>
      </g>
     </g>
     <g id="text_2">
      <!-- 1m -->
      <g transform="translate(387.675321 303.028562) scale(0.1 -0.1)">
       <defs>
        <path id="DejaVuSans-31" d="M 794 531 
L 1825 531 
L 1825 4091 
L 703 3866 
L 703 4441 
L 1819 4666 
L 2450 4666 
L 2450 531 
L 3481 531 
L 3481 0 
L 794 0 
L 794 531 
z
" transform="scale(0.015625)"/>
       </defs>
       <use xlink:href="#DejaVuSans-31"/>
       <use xlink:href="#DejaVuSans-6d" transform="translate(63.623047 0)"/>
      </g>
     </g>
    </g>
    <g id="xtick_7">
     <g id="line2d_7">
      <g>
       <use xlink:href="#mc0b453dcc2" x="456.17391" y="288.430125" style="stroke: #000000; stroke-width: 0.8"/>
      </g>
     </g>
     <g id="text_3">
      <!-- 3m -->
      <g transform="translate(448.122348 303.028562) scale(0.1 -0.1)">
       <defs>
        <path id="DejaVuSans-33" d="M 2597 2516 
Q 3050 2419 3304 2112 
Q 3559 1806 3559 1356 
Q 3559 666 3084 287 
Q 2609 -91 1734 -91 
Q 1441 -91 1130 -33 
Q 819 25 488 141 
L 488 750 
Q 750 597 1062 519 
Q 1375 441 1716 441 
Q 2309 441 2620 675 
Q 2931 909 2931 1356 
Q 2931 1769 2642 2001 
Q 2353 2234 1838 2234 
L 1294 2234 
L 1294 2753 
L 1863 2753 
Q 2328 2753 2575 2939 
Q 2822 3125 2822 3475 
Q 2822 3834 2567 4026 
Q 2313 4219 1838 4219 
Q 1578 4219 1281 4162 
Q 984 4106 628 3988 
L 628 4550 
Q 988 4650 1302 4700 
Q 1616 4750 1894 4750 
Q 2613 4750 3031 4423 
Q 3450 4097 3450 3541 
Q 3450 3153 3228 2886 
Q 3006 2619 2597 2516 
z
" transform="scale(0.015625)"/>
       </defs>
       <use xlink:href="#DejaVuSans-33"/>
       <use xlink:href="#DejaVuSans-6d" transform="translate(63.623047 0)"/>
      </g>
     </g>
    </g>
    <g id="xtick_8">
     <g id="line2d_8">
      <g>
       <use xlink:href="#mc0b453dcc2" x="516.620937" y="288.430125" style="stroke: #000000; stroke-width: 0.8"/>
      </g>
     </g>
     <g id="text_4">
      <!-- 9m -->
      <g transform="translate(508.569375 303.028562) scale(0.1 -0.1)">
       <defs>
        <path id="DejaVuSans-39" d="M 703 97 
L 703 672 
Q 941 559 1184 500 
Q 1428 441 1663 441 
Q 2288 441 2617 861 
Q 2947 1281 2994 2138 
Q 2813 1869 2534 1725 
Q 2256 1581 1919 1581 
Q 1219 1581 811 2004 
Q 403 2428 403 3163 
Q 403 3881 828 4315 
Q 1253 4750 1959 4750 
Q 2769 4750 3195 4129 
Q 3622 3509 3622 2328 
Q 3622 1225 3098 567 
Q 2575 -91 1691 -91 
Q 1453 -91 1209 -44 
Q 966 3 703 97 
z
M 1959 2075 
Q 2384 2075 2632 2365 
Q 2881 2656 2881 3163 
Q 2881 3666 2632 3958 
Q 2384 4250 1959 4250 
Q 1534 4250 1286 3958 
Q 1038 3666 1038 3163 
Q 1038 2656 1286 2365 
Q 1534 2075 1959 2075 
z
" transform="scale(0.015625)"/>
       </defs>
       <use xlink:href="#DejaVuSans-39"/>
       <use xlink:href="#DejaVuSans-6d" transform="translate(63.623047 0)"/>
      </g>
     </g>
    </g>
    <g id="xtick_9">
     <g id="line2d_9">
      <g>
       <use xlink:href="#mc0b453dcc2" x="577.067964" y="288.430125" style="stroke: #000000; stroke-width: 0.8"/>
      </g>
     </g>
     <g id="text_5">
      <!-- 26m -->
      <g transform="translate(565.835151 303.028562) scale(0.1 -0.1)">
       <defs>
        <path id="DejaVuSans-32" d="M 1228 531 
L 3431 531 
L 3431 0 
L 469 0 
L 469 531 
Q 828 903 1448 1529 
Q 2069 2156 2228 2338 
Q 2531 2678 2651 2914 
Q 2772 3150 2772 3378 
Q 2772 3750 2511 3984 
Q 2250 4219 1831 4219 
Q 1534 4219 1204 4116 
Q 875 4013 500 3803 
L 500 4441 
Q 881 4594 1212 4672 
Q 1544 4750 1819 4750 
Q 2544 4750 2975 4387 
Q 3406 4025 3406 3419 
Q 3406 3131 3298 2873 
Q 3191 2616 2906 2266 
Q 2828 2175 2409 1742 
Q 1991 1309 1228 531 
z
" transform="scale(0.015625)"/>
        <path id="DejaVuSans-36" d="M 2113 2584 
Q 1688 2584 1439 2293 
Q 1191 2003 1191 1497 
Q 1191 994 1439 701 
Q 1688 409 2113 409 
Q 2538 409 2786 701 
Q 3034 994 3034 1497 
Q 3034 2003 2786 2293 
Q 2538 2584 2113 2584 
z
M 3366 4563 
L 3366 3988 
Q 3128 4100 2886 4159 
Q 2644 4219 2406 4219 
Q 1781 4219 1451 3797 
Q 1122 3375 1075 2522 
Q 1259 2794 1537 2939 
Q 1816 3084 2150 3084 
Q 2853 3084 3261 2657 
Q 3669 2231 3669 1497 
Q 3669 778 3244 343 
Q 2819 -91 2113 -91 
Q 1303 -91 875 529 
Q 447 1150 447 2328 
Q 447 3434 972 4092 
Q 1497 4750 2381 4750 
Q 2619 4750 2861 4703 
Q 3103 4656 3366 4563 
z
" transform="scale(0.015625)"/>
       </defs>
       <use xlink:href="#DejaVuSans-32"/>
       <use xlink:href="#DejaVuSans-36" transform="translate(63.623047 0)"/>
       <use xlink:href="#DejaVuSans-6d" transform="translate(127.246094 0)"/>
      </g>
     </g>
    </g>
    <g id="xtick_10">
     <g id="line2d_10">
      <g>
       <use xlink:href="#mc0b453dcc2" x="637.514991" y="288.430125" style="stroke: #000000; stroke-width: 0.8"/>
      </g>
     </g>
     <g id="text_6">
      <!-- 1h:16m -->
      <g transform="translate(618.247803 303.028562) scale(0.1 -0.1)">
       <defs>
        <path id="DejaVuSans-68" d="M 3513 2113 
L 3513 0 
L 2938 0 
L 2938 2094 
Q 2938 2591 2744 2837 
Q 2550 3084 2163 3084 
Q 1697 3084 1428 2787 
Q 1159 2491 1159 1978 
L 1159 0 
L 581 0 
L 581 4863 
L 1159 4863 
L 1159 2956 
Q 1366 3272 1645 3428 
Q 1925 3584 2291 3584 
Q 2894 3584 3203 3211 
Q 3513 2838 3513 2113 
z
" transform="scale(0.015625)"/>
        <path id="DejaVuSans-3a" d="M 750 794 
L 1409 794 
L 1409 0 
L 750 0 
L 750 794 
z
M 750 3309 
L 1409 3309 
L 1409 2516 
L 750 2516 
L 750 3309 
z
" transform="scale(0.015625)"/>
       </defs>
       <use xlink:href="#DejaVuSans-31"/>
       <use xlink:href="#DejaVuSans-68" transform="translate(63.623047 0)"/>
       <use xlink:href="#DejaVuSans-3a" transform="translate(127.001953 0)"/>
       <use xlink:href="#DejaVuSans-31" transform="translate(160.693359 0)"/>
       <use xlink:href="#DejaVuSans-36" transform="translate(224.316406 0)"/>
       <use xlink:href="#DejaVuSans-6d" transform="translate(287.939453 0)"/>
      </g>
     </g>
    </g>
    <g id="xtick_11">
     <g id="line2d_11">
      <g>
       <use xlink:href="#mc0b453dcc2" x="697.962018" y="288.430125" style="stroke: #000000; stroke-width: 0.8"/>
      </g>
     </g>
     <g id="text_7">
      <!-- 3h:39m -->
      <g transform="translate(678.69483 303.028562) scale(0.1 -0.1)">
       <use xlink:href="#DejaVuSans-33"/>
       <use xlink:href="#DejaVuSans-68" transform="translate(63.623047 0)"/>
       <use xlink:href="#DejaVuSans-3a" transform="translate(127.001953 0)"/>
       <use xlink:href="#DejaVuSans-33" transform="translate(160.693359 0)"/>
       <use xlink:href="#DejaVuSans-39" transform="translate(224.316406 0)"/>
       <use xlink:href="#DejaVuSans-6d" transform="translate(287.939453 0)"/>
      </g>
     </g>
    </g>
    <g id="xtick_12">
     <g id="line2d_12">
      <g>
       <use xlink:href="#mc0b453dcc2" x="758.409044" y="288.430125" style="stroke: #000000; stroke-width: 0.8"/>
      </g>
     </g>
     <g id="text_8">
      <!-- 10h:30m -->
      <g transform="translate(735.960607 303.028562) scale(0.1 -0.1)">
       <use xlink:href="#DejaVuSans-31"/>
       <use xlink:href="#DejaVuSans-30" transform="translate(63.623047 0)"/>
       <use xlink:href="#DejaVuSans-68" transform="translate(127.246094 0)"/>
       <use xlink:href="#DejaVuSans-3a" transform="translate(190.625 0)"/>
       <use xlink:href="#DejaVuSans-33" transform="translate(224.316406 0)"/>
       <use xlink:href="#DejaVuSans-30" transform="translate(287.939453 0)"/>
       <use xlink:href="#DejaVuSans-6d" transform="translate(351.5625 0)"/>
      </g>
     </g>
    </g>
    <g id="text_9">
     <!-- Time (hour:minute) -->
     <g transform="translate(355.678594 316.706687) scale(0.1 -0.1)">
      <defs>
       <path id="DejaVuSans-54" d="M -19 4666 
L 3928 4666 
L 3928 4134 
L 2272 4134 
L 2272 0 
L 1638 0 
L 1638 4134 
L -19 4134 
L -19 4666 
z
" transform="scale(0.015625)"/>
       <path id="DejaVuSans-69" d="M 603 3500 
L 1178 3500 
L 1178 0 
L 603 0 
L 603 3500 
z
M 603 4863 
L 1178 4863 
L 1178 4134 
L 603 4134 
L 603 4863 
z
" transform="scale(0.015625)"/>
       <path id="DejaVuSans-65" d="M 3597 1894 
L 3597 1613 
L 953 1613 
Q 991 1019 1311 708 
Q 1631 397 2203 397 
Q 2534 397 2845 478 
Q 3156 559 3463 722 
L 3463 178 
Q 3153 47 2828 -22 
Q 2503 -91 2169 -91 
Q 1331 -91 842 396 
Q 353 884 353 1716 
Q 353 2575 817 3079 
Q 1281 3584 2069 3584 
Q 2775 3584 3186 3129 
Q 3597 2675 3597 1894 
z
M 3022 2063 
Q 3016 2534 2758 2815 
Q 2500 3097 2075 3097 
Q 1594 3097 1305 2825 
Q 1016 2553 972 2059 
L 3022 2063 
z
" transform="scale(0.015625)"/>
       <path id="DejaVuSans-20" transform="scale(0.015625)"/>
       <path id="DejaVuSans-28" d="M 1984 4856 
Q 1566 4138 1362 3434 
Q 1159 2731 1159 2009 
Q 1159 1288 1364 580 
Q 1569 -128 1984 -844 
L 1484 -844 
Q 1016 -109 783 600 
Q 550 1309 550 2009 
Q 550 2706 781 3412 
Q 1013 4119 1484 4856 
L 1984 4856 
z
" transform="scale(0.015625)"/>
       <path id="DejaVuSans-6f" d="M 1959 3097 
Q 1497 3097 1228 2736 
Q 959 2375 959 1747 
Q 959 1119 1226 758 
Q 1494 397 1959 397 
Q 2419 397 2687 759 
Q 2956 1122 2956 1747 
Q 2956 2369 2687 2733 
Q 2419 3097 1959 3097 
z
M 1959 3584 
Q 2709 3584 3137 3096 
Q 3566 2609 3566 1747 
Q 3566 888 3137 398 
Q 2709 -91 1959 -91 
Q 1206 -91 779 398 
Q 353 888 353 1747 
Q 353 2609 779 3096 
Q 1206 3584 1959 3584 
z
" transform="scale(0.015625)"/>
       <path id="DejaVuSans-75" d="M 544 1381 
L 544 3500 
L 1119 3500 
L 1119 1403 
Q 1119 906 1312 657 
Q 1506 409 1894 409 
Q 2359 409 2629 706 
Q 2900 1003 2900 1516 
L 2900 3500 
L 3475 3500 
L 3475 0 
L 2900 0 
L 2900 538 
Q 2691 219 2414 64 
Q 2138 -91 1772 -91 
Q 1169 -91 856 284 
Q 544 659 544 1381 
z
M 1991 3584 
L 1991 3584 
z
" transform="scale(0.015625)"/>
       <path id="DejaVuSans-72" d="M 2631 2963 
Q 2534 3019 2420 3045 
Q 2306 3072 2169 3072 
Q 1681 3072 1420 2755 
Q 1159 2438 1159 1844 
L 1159 0 
L 581 0 
L 581 3500 
L 1159 3500 
L 1159 2956 
Q 1341 3275 1631 3429 
Q 1922 3584 2338 3584 
Q 2397 3584 2469 3576 
Q 2541 3569 2628 3553 
L 2631 2963 
z
" transform="scale(0.015625)"/>
       <path id="DejaVuSans-6e" d="M 3513 2113 
L 3513 0 
L 2938 0 
L 2938 2094 
Q 2938 2591 2744 2837 
Q 2550 3084 2163 3084 
Q 1697 3084 1428 2787 
Q 1159 2491 1159 1978 
L 1159 0 
L 581 0 
L 581 3500 
L 1159 3500 
L 1159 2956 
Q 1366 3272 1645 3428 
Q 1925 3584 2291 3584 
Q 2894 3584 3203 3211 
Q 3513 2838 3513 2113 
z
" transform="scale(0.015625)"/>
       <path id="DejaVuSans-74" d="M 1172 4494 
L 1172 3500 
L 2356 3500 
L 2356 3053 
L 1172 3053 
L 1172 1153 
Q 1172 725 1289 603 
Q 1406 481 1766 481 
L 2356 481 
L 2356 0 
L 1766 0 
Q 1100 0 847 248 
Q 594 497 594 1153 
L 594 3053 
L 172 3053 
L 172 3500 
L 594 3500 
L 594 4494 
L 1172 4494 
z
" transform="scale(0.015625)"/>
       <path id="DejaVuSans-29" d="M 513 4856 
L 1013 4856 
Q 1481 4119 1714 3412 
Q 1947 2706 1947 2009 
Q 1947 1309 1714 600 
Q 1481 -109 1013 -844 
L 513 -844 
Q 928 -128 1133 580 
Q 1338 1288 1338 2009 
Q 1338 2731 1133 3434 
Q 928 4138 513 4856 
z
" transform="scale(0.015625)"/>
      </defs>
      <use xlink:href="#DejaVuSans-54"/>
      <use xlink:href="#DejaVuSans-69" transform="translate(57.958984 0)"/>
      <use xlink:href="#DejaVuSans-6d" transform="translate(85.742188 0)"/>
      <use xlink:href="#DejaVuSans-65" transform="translate(183.154297 0)"/>
      <use xlink:href="#DejaVuSans-20" transform="translate(244.677734 0)"/>
      <use xlink:href="#DejaVuSans-28" transform="translate(276.464844 0)"/>
      <use xlink:href="#DejaVuSans-68" transform="translate(315.478516 0)"/>
      <use xlink:href="#DejaVuSans-6f" transform="translate(378.857422 0)"/>
      <use xlink:href="#DejaVuSans-75" transform="translate(440.039062 0)"/>
      <use xlink:href="#DejaVuSans-72" transform="translate(503.417969 0)"/>
      <use xlink:href="#DejaVuSans-3a" transform="translate(542.78125 0)"/>
      <use xlink:href="#DejaVuSans-6d" transform="translate(576.472656 0)"/>
      <use xlink:href="#DejaVuSans-69" transform="translate(673.884766 0)"/>
      <use xlink:href="#DejaVuSans-6e" transform="translate(701.667969 0)"/>
      <use xlink:href="#DejaVuSans-75" transform="translate(765.046875 0)"/>
      <use xlink:href="#DejaVuSans-74" transform="translate(828.425781 0)"/>
      <use xlink:href="#DejaVuSans-65" transform="translate(867.634766 0)"/>
      <use xlink:href="#DejaVuSans-29" transform="translate(929.158203 0)"/>
     </g>
    </g>
   </g>
   <g id="matplotlib.axis_2">
    <g id="ytick_1">
     <g id="line2d_13">
      <defs>
       <path id="md2cff66195" d="M 0 0 
L -3.5 0 
" style="stroke: #000000; stroke-width: 0.8"/>
      </defs>
      <g>
       <use xlink:href="#md2cff66195" x="46.965625" y="276.334125" style="stroke: #000000; stroke-width: 0.8"/>
      </g>
     </g>
     <g id="text_10">
      <!-- 0 -->
      <g transform="translate(33.603125 280.133344) scale(0.1 -0.1)">
       <use xlink:href="#DejaVuSans-30"/>
      </g>
     </g>
    </g>
    <g id="ytick_2">
     <g id="line2d_14">
      <g>
       <use xlink:href="#md2cff66195" x="46.965625" y="224.419962" style="stroke: #000000; stroke-width: 0.8"/>
      </g>
     </g>
     <g id="text_11">
      <!-- 100 -->
      <g transform="translate(20.878125 228.219181) scale(0.1 -0.1)">
       <use xlink:href="#DejaVuSans-31"/>
       <use xlink:href="#DejaVuSans-30" transform="translate(63.623047 0)"/>
       <use xlink:href="#DejaVuSans-30" transform="translate(127.246094 0)"/>
      </g>
     </g>
    </g>
    <g id="ytick_3">
     <g id="line2d_15">
      <g>
       <use xlink:href="#md2cff66195" x="46.965625" y="172.505799" style="stroke: #000000; stroke-width: 0.8"/>
      </g>
     </g>
     <g id="text_12">
      <!-- 200 -->
      <g transform="translate(20.878125 176.305018) scale(0.1 -0.1)">
       <use xlink:href="#DejaVuSans-32"/>
       <use xlink:href="#DejaVuSans-30" transform="translate(63.623047 0)"/>
       <use xlink:href="#DejaVuSans-30" transform="translate(127.246094 0)"/>
      </g>
     </g>
    </g>
    <g id="ytick_4">
     <g id="line2d_16">
      <g>
       <use xlink:href="#md2cff66195" x="46.965625" y="120.591636" style="stroke: #000000; stroke-width: 0.8"/>
      </g>
     </g>
     <g id="text_13">
      <!-- 300 -->
      <g transform="translate(20.878125 124.390854) scale(0.1 -0.1)">
       <use xlink:href="#DejaVuSans-33"/>
       <use xlink:href="#DejaVuSans-30" transform="translate(63.623047 0)"/>
       <use xlink:href="#DejaVuSans-30" transform="translate(127.246094 0)"/>
      </g>
     </g>
    </g>
    <g id="ytick_5">
     <g id="line2d_17">
      <g>
       <use xlink:href="#md2cff66195" x="46.965625" y="68.677473" style="stroke: #000000; stroke-width: 0.8"/>
      </g>
     </g>
     <g id="text_14">
      <!-- 400 -->
      <g transform="translate(20.878125 72.476691) scale(0.1 -0.1)">
       <defs>
        <path id="DejaVuSans-34" d="M 2419 4116 
L 825 1625 
L 2419 1625 
L 2419 4116 
z
M 2253 4666 
L 3047 4666 
L 3047 1625 
L 3713 1625 
L 3713 1100 
L 3047 1100 
L 3047 0 
L 2419 0 
L 2419 1100 
L 313 1100 
L 313 1709 
L 2253 4666 
z
" transform="scale(0.015625)"/>
       </defs>
       <use xlink:href="#DejaVuSans-34"/>
       <use xlink:href="#DejaVuSans-30" transform="translate(63.623047 0)"/>
       <use xlink:href="#DejaVuSans-30" transform="translate(127.246094 0)"/>
      </g>
     </g>
    </g>
    <g id="text_15">
     <!-- Code branch coverage -->
     <g transform="translate(14.798438 211.949125) rotate(-90) scale(0.1 -0.1)">
      <defs>
       <path id="DejaVuSans-43" d="M 4122 4306 
L 4122 3641 
Q 3803 3938 3442 4084 
Q 3081 4231 2675 4231 
Q 1875 4231 1450 3742 
Q 1025 3253 1025 2328 
Q 1025 1406 1450 917 
Q 1875 428 2675 428 
Q 3081 428 3442 575 
Q 3803 722 4122 1019 
L 4122 359 
Q 3791 134 3420 21 
Q 3050 -91 2638 -91 
Q 1578 -91 968 557 
Q 359 1206 359 2328 
Q 359 3453 968 4101 
Q 1578 4750 2638 4750 
Q 3056 4750 3426 4639 
Q 3797 4528 4122 4306 
z
" transform="scale(0.015625)"/>
       <path id="DejaVuSans-64" d="M 2906 2969 
L 2906 4863 
L 3481 4863 
L 3481 0 
L 2906 0 
L 2906 525 
Q 2725 213 2448 61 
Q 2172 -91 1784 -91 
Q 1150 -91 751 415 
Q 353 922 353 1747 
Q 353 2572 751 3078 
Q 1150 3584 1784 3584 
Q 2172 3584 2448 3432 
Q 2725 3281 2906 2969 
z
M 947 1747 
Q 947 1113 1208 752 
Q 1469 391 1925 391 
Q 2381 391 2643 752 
Q 2906 1113 2906 1747 
Q 2906 2381 2643 2742 
Q 2381 3103 1925 3103 
Q 1469 3103 1208 2742 
Q 947 2381 947 1747 
z
" transform="scale(0.015625)"/>
       <path id="DejaVuSans-62" d="M 3116 1747 
Q 3116 2381 2855 2742 
Q 2594 3103 2138 3103 
Q 1681 3103 1420 2742 
Q 1159 2381 1159 1747 
Q 1159 1113 1420 752 
Q 1681 391 2138 391 
Q 2594 391 2855 752 
Q 3116 1113 3116 1747 
z
M 1159 2969 
Q 1341 3281 1617 3432 
Q 1894 3584 2278 3584 
Q 2916 3584 3314 3078 
Q 3713 2572 3713 1747 
Q 3713 922 3314 415 
Q 2916 -91 2278 -91 
Q 1894 -91 1617 61 
Q 1341 213 1159 525 
L 1159 0 
L 581 0 
L 581 4863 
L 1159 4863 
L 1159 2969 
z
" transform="scale(0.015625)"/>
       <path id="DejaVuSans-61" d="M 2194 1759 
Q 1497 1759 1228 1600 
Q 959 1441 959 1056 
Q 959 750 1161 570 
Q 1363 391 1709 391 
Q 2188 391 2477 730 
Q 2766 1069 2766 1631 
L 2766 1759 
L 2194 1759 
z
M 3341 1997 
L 3341 0 
L 2766 0 
L 2766 531 
Q 2569 213 2275 61 
Q 1981 -91 1556 -91 
Q 1019 -91 701 211 
Q 384 513 384 1019 
Q 384 1609 779 1909 
Q 1175 2209 1959 2209 
L 2766 2209 
L 2766 2266 
Q 2766 2663 2505 2880 
Q 2244 3097 1772 3097 
Q 1472 3097 1187 3025 
Q 903 2953 641 2809 
L 641 3341 
Q 956 3463 1253 3523 
Q 1550 3584 1831 3584 
Q 2591 3584 2966 3190 
Q 3341 2797 3341 1997 
z
" transform="scale(0.015625)"/>
       <path id="DejaVuSans-63" d="M 3122 3366 
L 3122 2828 
Q 2878 2963 2633 3030 
Q 2388 3097 2138 3097 
Q 1578 3097 1268 2742 
Q 959 2388 959 1747 
Q 959 1106 1268 751 
Q 1578 397 2138 397 
Q 2388 397 2633 464 
Q 2878 531 3122 666 
L 3122 134 
Q 2881 22 2623 -34 
Q 2366 -91 2075 -91 
Q 1284 -91 818 406 
Q 353 903 353 1747 
Q 353 2603 823 3093 
Q 1294 3584 2113 3584 
Q 2378 3584 2631 3529 
Q 2884 3475 3122 3366 
z
" transform="scale(0.015625)"/>
       <path id="DejaVuSans-76" d="M 191 3500 
L 800 3500 
L 1894 563 
L 2988 3500 
L 3597 3500 
L 2284 0 
L 1503 0 
L 191 3500 
z
" transform="scale(0.015625)"/>
       <path id="DejaVuSans-67" d="M 2906 1791 
Q 2906 2416 2648 2759 
Q 2391 3103 1925 3103 
Q 1463 3103 1205 2759 
Q 947 2416 947 1791 
Q 947 1169 1205 825 
Q 1463 481 1925 481 
Q 2391 481 2648 825 
Q 2906 1169 2906 1791 
z
M 3481 434 
Q 3481 -459 3084 -895 
Q 2688 -1331 1869 -1331 
Q 1566 -1331 1297 -1286 
Q 1028 -1241 775 -1147 
L 775 -588 
Q 1028 -725 1275 -790 
Q 1522 -856 1778 -856 
Q 2344 -856 2625 -561 
Q 2906 -266 2906 331 
L 2906 616 
Q 2728 306 2450 153 
Q 2172 0 1784 0 
Q 1141 0 747 490 
Q 353 981 353 1791 
Q 353 2603 747 3093 
Q 1141 3584 1784 3584 
Q 2172 3584 2450 3431 
Q 2728 3278 2906 2969 
L 2906 3500 
L 3481 3500 
L 3481 434 
z
" transform="scale(0.015625)"/>
      </defs>
      <use xlink:href="#DejaVuSans-43"/>
      <use xlink:href="#DejaVuSans-6f" transform="translate(69.824219 0)"/>
      <use xlink:href="#DejaVuSans-64" transform="translate(131.005859 0)"/>
      <use xlink:href="#DejaVuSans-65" transform="translate(194.482422 0)"/>
      <use xlink:href="#DejaVuSans-20" transform="translate(256.005859 0)"/>
      <use xlink:href="#DejaVuSans-62" transform="translate(287.792969 0)"/>
      <use xlink:href="#DejaVuSans-72" transform="translate(351.269531 0)"/>
      <use xlink:href="#DejaVuSans-61" transform="translate(392.382812 0)"/>
      <use xlink:href="#DejaVuSans-6e" transform="translate(453.662109 0)"/>
      <use xlink:href="#DejaVuSans-63" transform="translate(517.041016 0)"/>
      <use xlink:href="#DejaVuSans-68" transform="translate(572.021484 0)"/>
      <use xlink:href="#DejaVuSans-20" transform="translate(635.400391 0)"/>
      <use xlink:href="#DejaVuSans-63" transform="translate(667.1875 0)"/>
      <use xlink:href="#DejaVuSans-6f" transform="translate(722.167969 0)"/>
      <use xlink:href="#DejaVuSans-76" transform="translate(783.349609 0)"/>
      <use xlink:href="#DejaVuSans-65" transform="translate(842.529297 0)"/>
      <use xlink:href="#DejaVuSans-72" transform="translate(904.052734 0)"/>
      <use xlink:href="#DejaVuSans-61" transform="translate(945.166016 0)"/>
      <use xlink:href="#DejaVuSans-67" transform="translate(1006.445312 0)"/>
      <use xlink:href="#DejaVuSans-65" transform="translate(1069.921875 0)"/>
     </g>
    </g>
   </g>
   <g id="line2d_18">
    <path d="M 46.965625 276.334125 
L 544.053572 39.605541 
L 583.805304 39.34597 
L 607.058576 39.34597 
L 623.557035 39.34597 
L 636.354235 38.307687 
L 646.810308 38.307687 
L 655.650792 38.307687 
L 663.308767 38.307687 
L 670.06358 38.307687 
L 676.105966 38.307687 
L 681.57197 38.307687 
L 686.562039 38.307687 
L 691.152459 37.528975 
L 695.402523 37.528975 
L 699.359239 37.528975 
L 703.060499 37.528975 
L 706.537298 37.528975 
L 709.815312 37.528975 
L 712.916047 37.528975 
L 715.857698 37.528975 
L 718.655796 37.528975 
L 721.323701 37.528975 
L 723.872993 37.528975 
L 726.313771 37.528975 
L 728.654897 37.528975 
L 730.90419 37.528975 
L 733.068584 37.528975 
L 735.154255 37.528975 
L 737.166729 37.528975 
L 739.11097 37.528975 
L 740.991454 37.528975 
L 742.81223 36.750262 
L 744.576974 36.750262 
L 746.28903 36.750262 
L 747.951454 36.750262 
L 749.567043 36.490692 
L 751.138364 36.490692 
L 752.667778 36.490692 
L 754.157463 36.490692 
L 755.60943 36.490692 
L 757.025542 36.490692 
L 758.407527 36.490692 
" clip-path="url(#p3ea38ab733)" style="fill: none; stroke: #d62728; stroke-width: 1.5; stroke-linecap: square"/>
    <defs>
     <path id="md15a636ce1" d="M 0 -3 
L -3 3 
L 3 3 
z
" style="stroke: #ffffff; stroke-width: 0.75; stroke-linejoin: miter"/>
    </defs>
    <g clip-path="url(#p3ea38ab733)">
     <use xlink:href="#md15a636ce1" x="46.965625" y="276.334125" style="fill: #d62728; stroke: #ffffff; stroke-width: 0.75; stroke-linejoin: miter"/>
     <use xlink:href="#md15a636ce1" x="544.053572" y="39.605541" style="fill: #d62728; stroke: #ffffff; stroke-width: 0.75; stroke-linejoin: miter"/>
     <use xlink:href="#md15a636ce1" x="583.805304" y="39.34597" style="fill: #d62728; stroke: #ffffff; stroke-width: 0.75; stroke-linejoin: miter"/>
     <use xlink:href="#md15a636ce1" x="607.058576" y="39.34597" style="fill: #d62728; stroke: #ffffff; stroke-width: 0.75; stroke-linejoin: miter"/>
     <use xlink:href="#md15a636ce1" x="623.557035" y="39.34597" style="fill: #d62728; stroke: #ffffff; stroke-width: 0.75; stroke-linejoin: miter"/>
     <use xlink:href="#md15a636ce1" x="636.354235" y="38.307687" style="fill: #d62728; stroke: #ffffff; stroke-width: 0.75; stroke-linejoin: miter"/>
     <use xlink:href="#md15a636ce1" x="646.810308" y="38.307687" style="fill: #d62728; stroke: #ffffff; stroke-width: 0.75; stroke-linejoin: miter"/>
     <use xlink:href="#md15a636ce1" x="655.650792" y="38.307687" style="fill: #d62728; stroke: #ffffff; stroke-width: 0.75; stroke-linejoin: miter"/>
     <use xlink:href="#md15a636ce1" x="663.308767" y="38.307687" style="fill: #d62728; stroke: #ffffff; stroke-width: 0.75; stroke-linejoin: miter"/>
     <use xlink:href="#md15a636ce1" x="670.06358" y="38.307687" style="fill: #d62728; stroke: #ffffff; stroke-width: 0.75; stroke-linejoin: miter"/>
     <use xlink:href="#md15a636ce1" x="676.105966" y="38.307687" style="fill: #d62728; stroke: #ffffff; stroke-width: 0.75; stroke-linejoin: miter"/>
     <use xlink:href="#md15a636ce1" x="681.57197" y="38.307687" style="fill: #d62728; stroke: #ffffff; stroke-width: 0.75; stroke-linejoin: miter"/>
     <use xlink:href="#md15a636ce1" x="686.562039" y="38.307687" style="fill: #d62728; stroke: #ffffff; stroke-width: 0.75; stroke-linejoin: miter"/>
     <use xlink:href="#md15a636ce1" x="691.152459" y="37.528975" style="fill: #d62728; stroke: #ffffff; stroke-width: 0.75; stroke-linejoin: miter"/>
     <use xlink:href="#md15a636ce1" x="695.402523" y="37.528975" style="fill: #d62728; stroke: #ffffff; stroke-width: 0.75; stroke-linejoin: miter"/>
     <use xlink:href="#md15a636ce1" x="699.359239" y="37.528975" style="fill: #d62728; stroke: #ffffff; stroke-width: 0.75; stroke-linejoin: miter"/>
     <use xlink:href="#md15a636ce1" x="703.060499" y="37.528975" style="fill: #d62728; stroke: #ffffff; stroke-width: 0.75; stroke-linejoin: miter"/>
     <use xlink:href="#md15a636ce1" x="706.537298" y="37.528975" style="fill: #d62728; stroke: #ffffff; stroke-width: 0.75; stroke-linejoin: miter"/>
     <use xlink:href="#md15a636ce1" x="709.815312" y="37.528975" style="fill: #d62728; stroke: #ffffff; stroke-width: 0.75; stroke-linejoin: miter"/>
     <use xlink:href="#md15a636ce1" x="712.916047" y="37.528975" style="fill: #d62728; stroke: #ffffff; stroke-width: 0.75; stroke-linejoin: miter"/>
     <use xlink:href="#md15a636ce1" x="715.857698" y="37.528975" style="fill: #d62728; stroke: #ffffff; stroke-width: 0.75; stroke-linejoin: miter"/>
     <use xlink:href="#md15a636ce1" x="718.655796" y="37.528975" style="fill: #d62728; stroke: #ffffff; stroke-width: 0.75; stroke-linejoin: miter"/>
     <use xlink:href="#md15a636ce1" x="721.323701" y="37.528975" style="fill: #d62728; stroke: #ffffff; stroke-width: 0.75; stroke-linejoin: miter"/>
     <use xlink:href="#md15a636ce1" x="723.872993" y="37.528975" style="fill: #d62728; stroke: #ffffff; stroke-width: 0.75; stroke-linejoin: miter"/>
     <use xlink:href="#md15a636ce1" x="726.313771" y="37.528975" style="fill: #d62728; stroke: #ffffff; stroke-width: 0.75; stroke-linejoin: miter"/>
     <use xlink:href="#md15a636ce1" x="728.654897" y="37.528975" style="fill: #d62728; stroke: #ffffff; stroke-width: 0.75; stroke-linejoin: miter"/>
     <use xlink:href="#md15a636ce1" x="730.90419" y="37.528975" style="fill: #d62728; stroke: #ffffff; stroke-width: 0.75; stroke-linejoin: miter"/>
     <use xlink:href="#md15a636ce1" x="733.068584" y="37.528975" style="fill: #d62728; stroke: #ffffff; stroke-width: 0.75; stroke-linejoin: miter"/>
     <use xlink:href="#md15a636ce1" x="735.154255" y="37.528975" style="fill: #d62728; stroke: #ffffff; stroke-width: 0.75; stroke-linejoin: miter"/>
     <use xlink:href="#md15a636ce1" x="737.166729" y="37.528975" style="fill: #d62728; stroke: #ffffff; stroke-width: 0.75; stroke-linejoin: miter"/>
     <use xlink:href="#md15a636ce1" x="739.11097" y="37.528975" style="fill: #d62728; stroke: #ffffff; stroke-width: 0.75; stroke-linejoin: miter"/>
     <use xlink:href="#md15a636ce1" x="740.991454" y="37.528975" style="fill: #d62728; stroke: #ffffff; stroke-width: 0.75; stroke-linejoin: miter"/>
     <use xlink:href="#md15a636ce1" x="742.81223" y="36.750262" style="fill: #d62728; stroke: #ffffff; stroke-width: 0.75; stroke-linejoin: miter"/>
     <use xlink:href="#md15a636ce1" x="744.576974" y="36.750262" style="fill: #d62728; stroke: #ffffff; stroke-width: 0.75; stroke-linejoin: miter"/>
     <use xlink:href="#md15a636ce1" x="746.28903" y="36.750262" style="fill: #d62728; stroke: #ffffff; stroke-width: 0.75; stroke-linejoin: miter"/>
     <use xlink:href="#md15a636ce1" x="747.951454" y="36.750262" style="fill: #d62728; stroke: #ffffff; stroke-width: 0.75; stroke-linejoin: miter"/>
     <use xlink:href="#md15a636ce1" x="749.567043" y="36.490692" style="fill: #d62728; stroke: #ffffff; stroke-width: 0.75; stroke-linejoin: miter"/>
     <use xlink:href="#md15a636ce1" x="751.138364" y="36.490692" style="fill: #d62728; stroke: #ffffff; stroke-width: 0.75; stroke-linejoin: miter"/>
     <use xlink:href="#md15a636ce1" x="752.667778" y="36.490692" style="fill: #d62728; stroke: #ffffff; stroke-width: 0.75; stroke-linejoin: miter"/>
     <use xlink:href="#md15a636ce1" x="754.157463" y="36.490692" style="fill: #d62728; stroke: #ffffff; stroke-width: 0.75; stroke-linejoin: miter"/>
     <use xlink:href="#md15a636ce1" x="755.60943" y="36.490692" style="fill: #d62728; stroke: #ffffff; stroke-width: 0.75; stroke-linejoin: miter"/>
     <use xlink:href="#md15a636ce1" x="757.025542" y="36.490692" style="fill: #d62728; stroke: #ffffff; stroke-width: 0.75; stroke-linejoin: miter"/>
     <use xlink:href="#md15a636ce1" x="758.407527" y="36.490692" style="fill: #d62728; stroke: #ffffff; stroke-width: 0.75; stroke-linejoin: miter"/>
    </g>
   </g>
   <g id="line2d_19">
    <path d="M 46.965625 276.334125 
L 544.053572 39.605541 
L 583.805304 39.605541 
L 607.058576 39.605541 
L 623.557035 39.605541 
L 636.354235 39.605541 
L 646.810308 39.605541 
L 655.650792 39.605541 
L 663.308767 39.605541 
L 670.06358 38.048116 
L 676.105966 38.048116 
L 681.57197 38.048116 
L 686.562039 37.528975 
L 691.152459 37.528975 
L 695.402523 37.528975 
L 699.359239 37.528975 
L 703.060499 37.528975 
L 706.537298 37.528975 
L 709.815312 37.528975 
L 712.916047 37.528975 
L 715.857698 37.528975 
L 718.655796 37.528975 
L 721.323701 37.528975 
L 723.872993 37.528975 
L 726.313771 37.528975 
L 728.654897 37.528975 
L 730.90419 37.528975 
L 733.068584 37.528975 
L 735.154255 37.528975 
L 737.166729 37.528975 
L 739.11097 37.528975 
L 740.991454 37.528975 
L 742.81223 37.528975 
L 744.576974 37.528975 
L 746.28903 37.528975 
L 747.951454 37.528975 
L 749.567043 37.528975 
L 751.138364 37.528975 
L 752.667778 37.528975 
L 754.157463 37.528975 
L 755.60943 37.528975 
L 757.025542 37.528975 
L 758.407527 37.528975 
" clip-path="url(#p3ea38ab733)" style="fill: none; stroke: #c7c7c7; stroke-width: 1.5; stroke-linecap: square"/>
    <defs>
     <path id="m52f8dfbe81" d="M -3 -0 
L 3 3 
L 3 -3 
z
" style="stroke: #ffffff; stroke-width: 0.75; stroke-linejoin: miter"/>
    </defs>
    <g clip-path="url(#p3ea38ab733)">
     <use xlink:href="#m52f8dfbe81" x="46.965625" y="276.334125" style="fill: #c7c7c7; stroke: #ffffff; stroke-width: 0.75; stroke-linejoin: miter"/>
     <use xlink:href="#m52f8dfbe81" x="544.053572" y="39.605541" style="fill: #c7c7c7; stroke: #ffffff; stroke-width: 0.75; stroke-linejoin: miter"/>
     <use xlink:href="#m52f8dfbe81" x="583.805304" y="39.605541" style="fill: #c7c7c7; stroke: #ffffff; stroke-width: 0.75; stroke-linejoin: miter"/>
     <use xlink:href="#m52f8dfbe81" x="607.058576" y="39.605541" style="fill: #c7c7c7; stroke: #ffffff; stroke-width: 0.75; stroke-linejoin: miter"/>
     <use xlink:href="#m52f8dfbe81" x="623.557035" y="39.605541" style="fill: #c7c7c7; stroke: #ffffff; stroke-width: 0.75; stroke-linejoin: miter"/>
     <use xlink:href="#m52f8dfbe81" x="636.354235" y="39.605541" style="fill: #c7c7c7; stroke: #ffffff; stroke-width: 0.75; stroke-linejoin: miter"/>
     <use xlink:href="#m52f8dfbe81" x="646.810308" y="39.605541" style="fill: #c7c7c7; stroke: #ffffff; stroke-width: 0.75; stroke-linejoin: miter"/>
     <use xlink:href="#m52f8dfbe81" x="655.650792" y="39.605541" style="fill: #c7c7c7; stroke: #ffffff; stroke-width: 0.75; stroke-linejoin: miter"/>
     <use xlink:href="#m52f8dfbe81" x="663.308767" y="39.605541" style="fill: #c7c7c7; stroke: #ffffff; stroke-width: 0.75; stroke-linejoin: miter"/>
     <use xlink:href="#m52f8dfbe81" x="670.06358" y="38.048116" style="fill: #c7c7c7; stroke: #ffffff; stroke-width: 0.75; stroke-linejoin: miter"/>
     <use xlink:href="#m52f8dfbe81" x="676.105966" y="38.048116" style="fill: #c7c7c7; stroke: #ffffff; stroke-width: 0.75; stroke-linejoin: miter"/>
     <use xlink:href="#m52f8dfbe81" x="681.57197" y="38.048116" style="fill: #c7c7c7; stroke: #ffffff; stroke-width: 0.75; stroke-linejoin: miter"/>
     <use xlink:href="#m52f8dfbe81" x="686.562039" y="37.528975" style="fill: #c7c7c7; stroke: #ffffff; stroke-width: 0.75; stroke-linejoin: miter"/>
     <use xlink:href="#m52f8dfbe81" x="691.152459" y="37.528975" style="fill: #c7c7c7; stroke: #ffffff; stroke-width: 0.75; stroke-linejoin: miter"/>
     <use xlink:href="#m52f8dfbe81" x="695.402523" y="37.528975" style="fill: #c7c7c7; stroke: #ffffff; stroke-width: 0.75; stroke-linejoin: miter"/>
     <use xlink:href="#m52f8dfbe81" x="699.359239" y="37.528975" style="fill: #c7c7c7; stroke: #ffffff; stroke-width: 0.75; stroke-linejoin: miter"/>
     <use xlink:href="#m52f8dfbe81" x="703.060499" y="37.528975" style="fill: #c7c7c7; stroke: #ffffff; stroke-width: 0.75; stroke-linejoin: miter"/>
     <use xlink:href="#m52f8dfbe81" x="706.537298" y="37.528975" style="fill: #c7c7c7; stroke: #ffffff; stroke-width: 0.75; stroke-linejoin: miter"/>
     <use xlink:href="#m52f8dfbe81" x="709.815312" y="37.528975" style="fill: #c7c7c7; stroke: #ffffff; stroke-width: 0.75; stroke-linejoin: miter"/>
     <use xlink:href="#m52f8dfbe81" x="712.916047" y="37.528975" style="fill: #c7c7c7; stroke: #ffffff; stroke-width: 0.75; stroke-linejoin: miter"/>
     <use xlink:href="#m52f8dfbe81" x="715.857698" y="37.528975" style="fill: #c7c7c7; stroke: #ffffff; stroke-width: 0.75; stroke-linejoin: miter"/>
     <use xlink:href="#m52f8dfbe81" x="718.655796" y="37.528975" style="fill: #c7c7c7; stroke: #ffffff; stroke-width: 0.75; stroke-linejoin: miter"/>
     <use xlink:href="#m52f8dfbe81" x="721.323701" y="37.528975" style="fill: #c7c7c7; stroke: #ffffff; stroke-width: 0.75; stroke-linejoin: miter"/>
     <use xlink:href="#m52f8dfbe81" x="723.872993" y="37.528975" style="fill: #c7c7c7; stroke: #ffffff; stroke-width: 0.75; stroke-linejoin: miter"/>
     <use xlink:href="#m52f8dfbe81" x="726.313771" y="37.528975" style="fill: #c7c7c7; stroke: #ffffff; stroke-width: 0.75; stroke-linejoin: miter"/>
     <use xlink:href="#m52f8dfbe81" x="728.654897" y="37.528975" style="fill: #c7c7c7; stroke: #ffffff; stroke-width: 0.75; stroke-linejoin: miter"/>
     <use xlink:href="#m52f8dfbe81" x="730.90419" y="37.528975" style="fill: #c7c7c7; stroke: #ffffff; stroke-width: 0.75; stroke-linejoin: miter"/>
     <use xlink:href="#m52f8dfbe81" x="733.068584" y="37.528975" style="fill: #c7c7c7; stroke: #ffffff; stroke-width: 0.75; stroke-linejoin: miter"/>
     <use xlink:href="#m52f8dfbe81" x="735.154255" y="37.528975" style="fill: #c7c7c7; stroke: #ffffff; stroke-width: 0.75; stroke-linejoin: miter"/>
     <use xlink:href="#m52f8dfbe81" x="737.166729" y="37.528975" style="fill: #c7c7c7; stroke: #ffffff; stroke-width: 0.75; stroke-linejoin: miter"/>
     <use xlink:href="#m52f8dfbe81" x="739.11097" y="37.528975" style="fill: #c7c7c7; stroke: #ffffff; stroke-width: 0.75; stroke-linejoin: miter"/>
     <use xlink:href="#m52f8dfbe81" x="740.991454" y="37.528975" style="fill: #c7c7c7; stroke: #ffffff; stroke-width: 0.75; stroke-linejoin: miter"/>
     <use xlink:href="#m52f8dfbe81" x="742.81223" y="37.528975" style="fill: #c7c7c7; stroke: #ffffff; stroke-width: 0.75; stroke-linejoin: miter"/>
     <use xlink:href="#m52f8dfbe81" x="744.576974" y="37.528975" style="fill: #c7c7c7; stroke: #ffffff; stroke-width: 0.75; stroke-linejoin: miter"/>
     <use xlink:href="#m52f8dfbe81" x="746.28903" y="37.528975" style="fill: #c7c7c7; stroke: #ffffff; stroke-width: 0.75; stroke-linejoin: miter"/>
     <use xlink:href="#m52f8dfbe81" x="747.951454" y="37.528975" style="fill: #c7c7c7; stroke: #ffffff; stroke-width: 0.75; stroke-linejoin: miter"/>
     <use xlink:href="#m52f8dfbe81" x="749.567043" y="37.528975" style="fill: #c7c7c7; stroke: #ffffff; stroke-width: 0.75; stroke-linejoin: miter"/>
     <use xlink:href="#m52f8dfbe81" x="751.138364" y="37.528975" style="fill: #c7c7c7; stroke: #ffffff; stroke-width: 0.75; stroke-linejoin: miter"/>
     <use xlink:href="#m52f8dfbe81" x="752.667778" y="37.528975" style="fill: #c7c7c7; stroke: #ffffff; stroke-width: 0.75; stroke-linejoin: miter"/>
     <use xlink:href="#m52f8dfbe81" x="754.157463" y="37.528975" style="fill: #c7c7c7; stroke: #ffffff; stroke-width: 0.75; stroke-linejoin: miter"/>
     <use xlink:href="#m52f8dfbe81" x="755.60943" y="37.528975" style="fill: #c7c7c7; stroke: #ffffff; stroke-width: 0.75; stroke-linejoin: miter"/>
     <use xlink:href="#m52f8dfbe81" x="757.025542" y="37.528975" style="fill: #c7c7c7; stroke: #ffffff; stroke-width: 0.75; stroke-linejoin: miter"/>
     <use xlink:href="#m52f8dfbe81" x="758.407527" y="37.528975" style="fill: #c7c7c7; stroke: #ffffff; stroke-width: 0.75; stroke-linejoin: miter"/>
    </g>
   </g>
   <g id="line2d_20">
    <path d="M 46.965625 276.334125 
L 544.053572 38.048116 
L 583.805304 38.048116 
L 607.058576 38.048116 
L 623.557035 38.048116 
L 636.354235 38.048116 
L 646.810308 38.048116 
L 655.650792 38.048116 
L 663.308767 38.048116 
L 670.06358 38.048116 
L 676.105966 38.048116 
L 681.57197 38.048116 
L 686.562039 38.048116 
L 691.152459 38.048116 
L 695.402523 38.048116 
L 699.359239 38.048116 
L 703.060499 38.048116 
L 706.537298 38.048116 
L 709.815312 38.048116 
L 712.916047 38.048116 
L 715.857698 38.048116 
L 718.655796 38.048116 
L 721.323701 38.048116 
L 723.872993 38.048116 
L 726.313771 38.048116 
L 728.654897 38.048116 
L 730.90419 38.048116 
L 733.068584 38.048116 
L 735.154255 38.048116 
L 737.166729 38.048116 
L 739.11097 38.048116 
L 740.991454 38.048116 
L 742.81223 38.048116 
L 744.576974 38.048116 
L 746.28903 37.528975 
L 747.951454 37.528975 
L 749.567043 37.528975 
L 751.138364 37.528975 
L 752.667778 37.528975 
L 754.157463 37.528975 
L 755.60943 37.528975 
L 757.025542 37.528975 
L 758.407527 37.528975 
" clip-path="url(#p3ea38ab733)" style="fill: none; stroke: #98df8a; stroke-width: 1.5; stroke-linecap: square"/>
    <defs>
     <path id="mb6454ca08c" d="M -0 3 
L 3 -3 
L -3 -3 
z
" style="stroke: #ffffff; stroke-width: 0.75; stroke-linejoin: miter"/>
    </defs>
    <g clip-path="url(#p3ea38ab733)">
     <use xlink:href="#mb6454ca08c" x="46.965625" y="276.334125" style="fill: #98df8a; stroke: #ffffff; stroke-width: 0.75; stroke-linejoin: miter"/>
     <use xlink:href="#mb6454ca08c" x="544.053572" y="38.048116" style="fill: #98df8a; stroke: #ffffff; stroke-width: 0.75; stroke-linejoin: miter"/>
     <use xlink:href="#mb6454ca08c" x="583.805304" y="38.048116" style="fill: #98df8a; stroke: #ffffff; stroke-width: 0.75; stroke-linejoin: miter"/>
     <use xlink:href="#mb6454ca08c" x="607.058576" y="38.048116" style="fill: #98df8a; stroke: #ffffff; stroke-width: 0.75; stroke-linejoin: miter"/>
     <use xlink:href="#mb6454ca08c" x="623.557035" y="38.048116" style="fill: #98df8a; stroke: #ffffff; stroke-width: 0.75; stroke-linejoin: miter"/>
     <use xlink:href="#mb6454ca08c" x="636.354235" y="38.048116" style="fill: #98df8a; stroke: #ffffff; stroke-width: 0.75; stroke-linejoin: miter"/>
     <use xlink:href="#mb6454ca08c" x="646.810308" y="38.048116" style="fill: #98df8a; stroke: #ffffff; stroke-width: 0.75; stroke-linejoin: miter"/>
     <use xlink:href="#mb6454ca08c" x="655.650792" y="38.048116" style="fill: #98df8a; stroke: #ffffff; stroke-width: 0.75; stroke-linejoin: miter"/>
     <use xlink:href="#mb6454ca08c" x="663.308767" y="38.048116" style="fill: #98df8a; stroke: #ffffff; stroke-width: 0.75; stroke-linejoin: miter"/>
     <use xlink:href="#mb6454ca08c" x="670.06358" y="38.048116" style="fill: #98df8a; stroke: #ffffff; stroke-width: 0.75; stroke-linejoin: miter"/>
     <use xlink:href="#mb6454ca08c" x="676.105966" y="38.048116" style="fill: #98df8a; stroke: #ffffff; stroke-width: 0.75; stroke-linejoin: miter"/>
     <use xlink:href="#mb6454ca08c" x="681.57197" y="38.048116" style="fill: #98df8a; stroke: #ffffff; stroke-width: 0.75; stroke-linejoin: miter"/>
     <use xlink:href="#mb6454ca08c" x="686.562039" y="38.048116" style="fill: #98df8a; stroke: #ffffff; stroke-width: 0.75; stroke-linejoin: miter"/>
     <use xlink:href="#mb6454ca08c" x="691.152459" y="38.048116" style="fill: #98df8a; stroke: #ffffff; stroke-width: 0.75; stroke-linejoin: miter"/>
     <use xlink:href="#mb6454ca08c" x="695.402523" y="38.048116" style="fill: #98df8a; stroke: #ffffff; stroke-width: 0.75; stroke-linejoin: miter"/>
     <use xlink:href="#mb6454ca08c" x="699.359239" y="38.048116" style="fill: #98df8a; stroke: #ffffff; stroke-width: 0.75; stroke-linejoin: miter"/>
     <use xlink:href="#mb6454ca08c" x="703.060499" y="38.048116" style="fill: #98df8a; stroke: #ffffff; stroke-width: 0.75; stroke-linejoin: miter"/>
     <use xlink:href="#mb6454ca08c" x="706.537298" y="38.048116" style="fill: #98df8a; stroke: #ffffff; stroke-width: 0.75; stroke-linejoin: miter"/>
     <use xlink:href="#mb6454ca08c" x="709.815312" y="38.048116" style="fill: #98df8a; stroke: #ffffff; stroke-width: 0.75; stroke-linejoin: miter"/>
     <use xlink:href="#mb6454ca08c" x="712.916047" y="38.048116" style="fill: #98df8a; stroke: #ffffff; stroke-width: 0.75; stroke-linejoin: miter"/>
     <use xlink:href="#mb6454ca08c" x="715.857698" y="38.048116" style="fill: #98df8a; stroke: #ffffff; stroke-width: 0.75; stroke-linejoin: miter"/>
     <use xlink:href="#mb6454ca08c" x="718.655796" y="38.048116" style="fill: #98df8a; stroke: #ffffff; stroke-width: 0.75; stroke-linejoin: miter"/>
     <use xlink:href="#mb6454ca08c" x="721.323701" y="38.048116" style="fill: #98df8a; stroke: #ffffff; stroke-width: 0.75; stroke-linejoin: miter"/>
     <use xlink:href="#mb6454ca08c" x="723.872993" y="38.048116" style="fill: #98df8a; stroke: #ffffff; stroke-width: 0.75; stroke-linejoin: miter"/>
     <use xlink:href="#mb6454ca08c" x="726.313771" y="38.048116" style="fill: #98df8a; stroke: #ffffff; stroke-width: 0.75; stroke-linejoin: miter"/>
     <use xlink:href="#mb6454ca08c" x="728.654897" y="38.048116" style="fill: #98df8a; stroke: #ffffff; stroke-width: 0.75; stroke-linejoin: miter"/>
     <use xlink:href="#mb6454ca08c" x="730.90419" y="38.048116" style="fill: #98df8a; stroke: #ffffff; stroke-width: 0.75; stroke-linejoin: miter"/>
     <use xlink:href="#mb6454ca08c" x="733.068584" y="38.048116" style="fill: #98df8a; stroke: #ffffff; stroke-width: 0.75; stroke-linejoin: miter"/>
     <use xlink:href="#mb6454ca08c" x="735.154255" y="38.048116" style="fill: #98df8a; stroke: #ffffff; stroke-width: 0.75; stroke-linejoin: miter"/>
     <use xlink:href="#mb6454ca08c" x="737.166729" y="38.048116" style="fill: #98df8a; stroke: #ffffff; stroke-width: 0.75; stroke-linejoin: miter"/>
     <use xlink:href="#mb6454ca08c" x="739.11097" y="38.048116" style="fill: #98df8a; stroke: #ffffff; stroke-width: 0.75; stroke-linejoin: miter"/>
     <use xlink:href="#mb6454ca08c" x="740.991454" y="38.048116" style="fill: #98df8a; stroke: #ffffff; stroke-width: 0.75; stroke-linejoin: miter"/>
     <use xlink:href="#mb6454ca08c" x="742.81223" y="38.048116" style="fill: #98df8a; stroke: #ffffff; stroke-width: 0.75; stroke-linejoin: miter"/>
     <use xlink:href="#mb6454ca08c" x="744.576974" y="38.048116" style="fill: #98df8a; stroke: #ffffff; stroke-width: 0.75; stroke-linejoin: miter"/>
     <use xlink:href="#mb6454ca08c" x="746.28903" y="37.528975" style="fill: #98df8a; stroke: #ffffff; stroke-width: 0.75; stroke-linejoin: miter"/>
     <use xlink:href="#mb6454ca08c" x="747.951454" y="37.528975" style="fill: #98df8a; stroke: #ffffff; stroke-width: 0.75; stroke-linejoin: miter"/>
     <use xlink:href="#mb6454ca08c" x="749.567043" y="37.528975" style="fill: #98df8a; stroke: #ffffff; stroke-width: 0.75; stroke-linejoin: miter"/>
     <use xlink:href="#mb6454ca08c" x="751.138364" y="37.528975" style="fill: #98df8a; stroke: #ffffff; stroke-width: 0.75; stroke-linejoin: miter"/>
     <use xlink:href="#mb6454ca08c" x="752.667778" y="37.528975" style="fill: #98df8a; stroke: #ffffff; stroke-width: 0.75; stroke-linejoin: miter"/>
     <use xlink:href="#mb6454ca08c" x="754.157463" y="37.528975" style="fill: #98df8a; stroke: #ffffff; stroke-width: 0.75; stroke-linejoin: miter"/>
     <use xlink:href="#mb6454ca08c" x="755.60943" y="37.528975" style="fill: #98df8a; stroke: #ffffff; stroke-width: 0.75; stroke-linejoin: miter"/>
     <use xlink:href="#mb6454ca08c" x="757.025542" y="37.528975" style="fill: #98df8a; stroke: #ffffff; stroke-width: 0.75; stroke-linejoin: miter"/>
     <use xlink:href="#mb6454ca08c" x="758.407527" y="37.528975" style="fill: #98df8a; stroke: #ffffff; stroke-width: 0.75; stroke-linejoin: miter"/>
    </g>
   </g>
   <g id="line2d_21">
    <path d="M 46.965625 276.334125 
L 544.053572 42.720391 
L 583.805304 42.720391 
L 607.058576 42.720391 
L 623.557035 42.720391 
L 636.354235 42.720391 
L 646.810308 42.720391 
L 655.650792 42.720391 
L 663.308767 42.720391 
L 670.06358 42.720391 
L 676.105966 42.720391 
L 681.57197 42.720391 
L 686.562039 40.124683 
L 691.152459 39.605541 
L 695.402523 39.605541 
L 699.359239 39.605541 
L 703.060499 39.605541 
L 706.537298 39.605541 
L 709.815312 39.605541 
L 712.916047 39.605541 
L 715.857698 39.605541 
L 718.655796 39.605541 
L 721.323701 39.605541 
L 723.872993 39.605541 
L 726.313771 39.605541 
L 728.654897 39.605541 
L 730.90419 39.605541 
L 733.068584 39.605541 
L 735.154255 39.605541 
L 737.166729 39.605541 
L 739.11097 39.605541 
L 740.991454 39.605541 
L 742.81223 39.605541 
L 744.576974 39.605541 
L 746.28903 39.605541 
L 747.951454 39.605541 
L 749.567043 39.605541 
L 751.138364 39.605541 
L 752.667778 39.605541 
L 754.157463 39.605541 
L 755.60943 39.605541 
L 757.025542 39.605541 
L 758.407527 39.605541 
" clip-path="url(#p3ea38ab733)" style="fill: none; stroke: #1f77b4; stroke-width: 1.5; stroke-linecap: square"/>
    <defs>
     <path id="me28e9e17de" d="M 0 3 
C 0.795609 3 1.55874 2.683901 2.12132 2.12132 
C 2.683901 1.55874 3 0.795609 3 0 
C 3 -0.795609 2.683901 -1.55874 2.12132 -2.12132 
C 1.55874 -2.683901 0.795609 -3 0 -3 
C -0.795609 -3 -1.55874 -2.683901 -2.12132 -2.12132 
C -2.683901 -1.55874 -3 -0.795609 -3 0 
C -3 0.795609 -2.683901 1.55874 -2.12132 2.12132 
C -1.55874 2.683901 -0.795609 3 0 3 
z
" style="stroke: #ffffff; stroke-width: 0.75"/>
    </defs>
    <g clip-path="url(#p3ea38ab733)">
     <use xlink:href="#me28e9e17de" x="46.965625" y="276.334125" style="fill: #1f77b4; stroke: #ffffff; stroke-width: 0.75"/>
     <use xlink:href="#me28e9e17de" x="544.053572" y="42.720391" style="fill: #1f77b4; stroke: #ffffff; stroke-width: 0.75"/>
     <use xlink:href="#me28e9e17de" x="583.805304" y="42.720391" style="fill: #1f77b4; stroke: #ffffff; stroke-width: 0.75"/>
     <use xlink:href="#me28e9e17de" x="607.058576" y="42.720391" style="fill: #1f77b4; stroke: #ffffff; stroke-width: 0.75"/>
     <use xlink:href="#me28e9e17de" x="623.557035" y="42.720391" style="fill: #1f77b4; stroke: #ffffff; stroke-width: 0.75"/>
     <use xlink:href="#me28e9e17de" x="636.354235" y="42.720391" style="fill: #1f77b4; stroke: #ffffff; stroke-width: 0.75"/>
     <use xlink:href="#me28e9e17de" x="646.810308" y="42.720391" style="fill: #1f77b4; stroke: #ffffff; stroke-width: 0.75"/>
     <use xlink:href="#me28e9e17de" x="655.650792" y="42.720391" style="fill: #1f77b4; stroke: #ffffff; stroke-width: 0.75"/>
     <use xlink:href="#me28e9e17de" x="663.308767" y="42.720391" style="fill: #1f77b4; stroke: #ffffff; stroke-width: 0.75"/>
     <use xlink:href="#me28e9e17de" x="670.06358" y="42.720391" style="fill: #1f77b4; stroke: #ffffff; stroke-width: 0.75"/>
     <use xlink:href="#me28e9e17de" x="676.105966" y="42.720391" style="fill: #1f77b4; stroke: #ffffff; stroke-width: 0.75"/>
     <use xlink:href="#me28e9e17de" x="681.57197" y="42.720391" style="fill: #1f77b4; stroke: #ffffff; stroke-width: 0.75"/>
     <use xlink:href="#me28e9e17de" x="686.562039" y="40.124683" style="fill: #1f77b4; stroke: #ffffff; stroke-width: 0.75"/>
     <use xlink:href="#me28e9e17de" x="691.152459" y="39.605541" style="fill: #1f77b4; stroke: #ffffff; stroke-width: 0.75"/>
     <use xlink:href="#me28e9e17de" x="695.402523" y="39.605541" style="fill: #1f77b4; stroke: #ffffff; stroke-width: 0.75"/>
     <use xlink:href="#me28e9e17de" x="699.359239" y="39.605541" style="fill: #1f77b4; stroke: #ffffff; stroke-width: 0.75"/>
     <use xlink:href="#me28e9e17de" x="703.060499" y="39.605541" style="fill: #1f77b4; stroke: #ffffff; stroke-width: 0.75"/>
     <use xlink:href="#me28e9e17de" x="706.537298" y="39.605541" style="fill: #1f77b4; stroke: #ffffff; stroke-width: 0.75"/>
     <use xlink:href="#me28e9e17de" x="709.815312" y="39.605541" style="fill: #1f77b4; stroke: #ffffff; stroke-width: 0.75"/>
     <use xlink:href="#me28e9e17de" x="712.916047" y="39.605541" style="fill: #1f77b4; stroke: #ffffff; stroke-width: 0.75"/>
     <use xlink:href="#me28e9e17de" x="715.857698" y="39.605541" style="fill: #1f77b4; stroke: #ffffff; stroke-width: 0.75"/>
     <use xlink:href="#me28e9e17de" x="718.655796" y="39.605541" style="fill: #1f77b4; stroke: #ffffff; stroke-width: 0.75"/>
     <use xlink:href="#me28e9e17de" x="721.323701" y="39.605541" style="fill: #1f77b4; stroke: #ffffff; stroke-width: 0.75"/>
     <use xlink:href="#me28e9e17de" x="723.872993" y="39.605541" style="fill: #1f77b4; stroke: #ffffff; stroke-width: 0.75"/>
     <use xlink:href="#me28e9e17de" x="726.313771" y="39.605541" style="fill: #1f77b4; stroke: #ffffff; stroke-width: 0.75"/>
     <use xlink:href="#me28e9e17de" x="728.654897" y="39.605541" style="fill: #1f77b4; stroke: #ffffff; stroke-width: 0.75"/>
     <use xlink:href="#me28e9e17de" x="730.90419" y="39.605541" style="fill: #1f77b4; stroke: #ffffff; stroke-width: 0.75"/>
     <use xlink:href="#me28e9e17de" x="733.068584" y="39.605541" style="fill: #1f77b4; stroke: #ffffff; stroke-width: 0.75"/>
     <use xlink:href="#me28e9e17de" x="735.154255" y="39.605541" style="fill: #1f77b4; stroke: #ffffff; stroke-width: 0.75"/>
     <use xlink:href="#me28e9e17de" x="737.166729" y="39.605541" style="fill: #1f77b4; stroke: #ffffff; stroke-width: 0.75"/>
     <use xlink:href="#me28e9e17de" x="739.11097" y="39.605541" style="fill: #1f77b4; stroke: #ffffff; stroke-width: 0.75"/>
     <use xlink:href="#me28e9e17de" x="740.991454" y="39.605541" style="fill: #1f77b4; stroke: #ffffff; stroke-width: 0.75"/>
     <use xlink:href="#me28e9e17de" x="742.81223" y="39.605541" style="fill: #1f77b4; stroke: #ffffff; stroke-width: 0.75"/>
     <use xlink:href="#me28e9e17de" x="744.576974" y="39.605541" style="fill: #1f77b4; stroke: #ffffff; stroke-width: 0.75"/>
     <use xlink:href="#me28e9e17de" x="746.28903" y="39.605541" style="fill: #1f77b4; stroke: #ffffff; stroke-width: 0.75"/>
     <use xlink:href="#me28e9e17de" x="747.951454" y="39.605541" style="fill: #1f77b4; stroke: #ffffff; stroke-width: 0.75"/>
     <use xlink:href="#me28e9e17de" x="749.567043" y="39.605541" style="fill: #1f77b4; stroke: #ffffff; stroke-width: 0.75"/>
     <use xlink:href="#me28e9e17de" x="751.138364" y="39.605541" style="fill: #1f77b4; stroke: #ffffff; stroke-width: 0.75"/>
     <use xlink:href="#me28e9e17de" x="752.667778" y="39.605541" style="fill: #1f77b4; stroke: #ffffff; stroke-width: 0.75"/>
     <use xlink:href="#me28e9e17de" x="754.157463" y="39.605541" style="fill: #1f77b4; stroke: #ffffff; stroke-width: 0.75"/>
     <use xlink:href="#me28e9e17de" x="755.60943" y="39.605541" style="fill: #1f77b4; stroke: #ffffff; stroke-width: 0.75"/>
     <use xlink:href="#me28e9e17de" x="757.025542" y="39.605541" style="fill: #1f77b4; stroke: #ffffff; stroke-width: 0.75"/>
     <use xlink:href="#me28e9e17de" x="758.407527" y="39.605541" style="fill: #1f77b4; stroke: #ffffff; stroke-width: 0.75"/>
    </g>
   </g>
   <g id="line2d_22"/>
   <g id="line2d_23"/>
   <g id="line2d_24"/>
   <g id="line2d_25"/>
   <g id="line2d_26">
    <path d="M 758.407527 288.430125 
L 758.407527 22.318125 
" clip-path="url(#p3ea38ab733)" style="fill: none; stroke: #ff0000; stroke-width: 1.5; stroke-linecap: square"/>
   </g>
   <g id="patch_3">
    <path d="M 46.965625 276.334125 
L 46.965625 68.677473 
" style="fill: none; stroke: #000000; stroke-width: 0.8; stroke-linejoin: miter; stroke-linecap: square"/>
   </g>
   <g id="patch_4">
    <path d="M 46.965625 288.430125 
L 758.409044 288.430125 
" style="fill: none; stroke: #000000; stroke-width: 0.8; stroke-linejoin: miter; stroke-linecap: square"/>
   </g>
   <g id="text_16">
    <!-- zlib_zlib_uncompress_fuzzer (10h:30m, at least 3 trials/fuzzer) -->
    <g transform="translate(216.858438 16.318125) scale(0.12 -0.12)">
     <defs>
      <path id="DejaVuSans-7a" d="M 353 3500 
L 3084 3500 
L 3084 2975 
L 922 459 
L 3084 459 
L 3084 0 
L 275 0 
L 275 525 
L 2438 3041 
L 353 3041 
L 353 3500 
z
" transform="scale(0.015625)"/>
      <path id="DejaVuSans-6c" d="M 603 4863 
L 1178 4863 
L 1178 0 
L 603 0 
L 603 4863 
z
" transform="scale(0.015625)"/>
      <path id="DejaVuSans-5f" d="M 3263 -1063 
L 3263 -1509 
L -63 -1509 
L -63 -1063 
L 3263 -1063 
z
" transform="scale(0.015625)"/>
      <path id="DejaVuSans-70" d="M 1159 525 
L 1159 -1331 
L 581 -1331 
L 581 3500 
L 1159 3500 
L 1159 2969 
Q 1341 3281 1617 3432 
Q 1894 3584 2278 3584 
Q 2916 3584 3314 3078 
Q 3713 2572 3713 1747 
Q 3713 922 3314 415 
Q 2916 -91 2278 -91 
Q 1894 -91 1617 61 
Q 1341 213 1159 525 
z
M 3116 1747 
Q 3116 2381 2855 2742 
Q 2594 3103 2138 3103 
Q 1681 3103 1420 2742 
Q 1159 2381 1159 1747 
Q 1159 1113 1420 752 
Q 1681 391 2138 391 
Q 2594 391 2855 752 
Q 3116 1113 3116 1747 
z
" transform="scale(0.015625)"/>
      <path id="DejaVuSans-73" d="M 2834 3397 
L 2834 2853 
Q 2591 2978 2328 3040 
Q 2066 3103 1784 3103 
Q 1356 3103 1142 2972 
Q 928 2841 928 2578 
Q 928 2378 1081 2264 
Q 1234 2150 1697 2047 
L 1894 2003 
Q 2506 1872 2764 1633 
Q 3022 1394 3022 966 
Q 3022 478 2636 193 
Q 2250 -91 1575 -91 
Q 1294 -91 989 -36 
Q 684 19 347 128 
L 347 722 
Q 666 556 975 473 
Q 1284 391 1588 391 
Q 1994 391 2212 530 
Q 2431 669 2431 922 
Q 2431 1156 2273 1281 
Q 2116 1406 1581 1522 
L 1381 1569 
Q 847 1681 609 1914 
Q 372 2147 372 2553 
Q 372 3047 722 3315 
Q 1072 3584 1716 3584 
Q 2034 3584 2315 3537 
Q 2597 3491 2834 3397 
z
" transform="scale(0.015625)"/>
      <path id="DejaVuSans-66" d="M 2375 4863 
L 2375 4384 
L 1825 4384 
Q 1516 4384 1395 4259 
Q 1275 4134 1275 3809 
L 1275 3500 
L 2222 3500 
L 2222 3053 
L 1275 3053 
L 1275 0 
L 697 0 
L 697 3053 
L 147 3053 
L 147 3500 
L 697 3500 
L 697 3744 
Q 697 4328 969 4595 
Q 1241 4863 1831 4863 
L 2375 4863 
z
" transform="scale(0.015625)"/>
      <path id="DejaVuSans-2c" d="M 750 794 
L 1409 794 
L 1409 256 
L 897 -744 
L 494 -744 
L 750 256 
L 750 794 
z
" transform="scale(0.015625)"/>
      <path id="DejaVuSans-2f" d="M 1625 4666 
L 2156 4666 
L 531 -594 
L 0 -594 
L 1625 4666 
z
" transform="scale(0.015625)"/>
     </defs>
     <use xlink:href="#DejaVuSans-7a"/>
     <use xlink:href="#DejaVuSans-6c" transform="translate(52.490234 0)"/>
     <use xlink:href="#DejaVuSans-69" transform="translate(80.273438 0)"/>
     <use xlink:href="#DejaVuSans-62" transform="translate(108.056641 0)"/>
     <use xlink:href="#DejaVuSans-5f" transform="translate(171.533203 0)"/>
     <use xlink:href="#DejaVuSans-7a" transform="translate(221.533203 0)"/>
     <use xlink:href="#DejaVuSans-6c" transform="translate(274.023438 0)"/>
     <use xlink:href="#DejaVuSans-69" transform="translate(301.806641 0)"/>
     <use xlink:href="#DejaVuSans-62" transform="translate(329.589844 0)"/>
     <use xlink:href="#DejaVuSans-5f" transform="translate(393.066406 0)"/>
     <use xlink:href="#DejaVuSans-75" transform="translate(443.066406 0)"/>
     <use xlink:href="#DejaVuSans-6e" transform="translate(506.445312 0)"/>
     <use xlink:href="#DejaVuSans-63" transform="translate(569.824219 0)"/>
     <use xlink:href="#DejaVuSans-6f" transform="translate(624.804688 0)"/>
     <use xlink:href="#DejaVuSans-6d" transform="translate(685.986328 0)"/>
     <use xlink:href="#DejaVuSans-70" transform="translate(783.398438 0)"/>
     <use xlink:href="#DejaVuSans-72" transform="translate(846.875 0)"/>
     <use xlink:href="#DejaVuSans-65" transform="translate(885.738281 0)"/>
     <use xlink:href="#DejaVuSans-73" transform="translate(947.261719 0)"/>
     <use xlink:href="#DejaVuSans-73" transform="translate(999.361328 0)"/>
     <use xlink:href="#DejaVuSans-5f" transform="translate(1051.460938 0)"/>
     <use xlink:href="#DejaVuSans-66" transform="translate(1101.460938 0)"/>
     <use xlink:href="#DejaVuSans-75" transform="translate(1136.666016 0)"/>
     <use xlink:href="#DejaVuSans-7a" transform="translate(1200.044922 0)"/>
     <use xlink:href="#DejaVuSans-7a" transform="translate(1252.535156 0)"/>
     <use xlink:href="#DejaVuSans-65" transform="translate(1305.025391 0)"/>
     <use xlink:href="#DejaVuSans-72" transform="translate(1366.548828 0)"/>
     <use xlink:href="#DejaVuSans-20" transform="translate(1407.662109 0)"/>
     <use xlink:href="#DejaVuSans-28" transform="translate(1439.449219 0)"/>
     <use xlink:href="#DejaVuSans-31" transform="translate(1478.462891 0)"/>
     <use xlink:href="#DejaVuSans-30" transform="translate(1542.085938 0)"/>
     <use xlink:href="#DejaVuSans-68" transform="translate(1605.708984 0)"/>
     <use xlink:href="#DejaVuSans-3a" transform="translate(1669.087891 0)"/>
     <use xlink:href="#DejaVuSans-33" transform="translate(1702.779297 0)"/>
     <use xlink:href="#DejaVuSans-30" transform="translate(1766.402344 0)"/>
     <use xlink:href="#DejaVuSans-6d" transform="translate(1830.025391 0)"/>
     <use xlink:href="#DejaVuSans-2c" transform="translate(1927.4375 0)"/>
     <use xlink:href="#DejaVuSans-20" transform="translate(1959.224609 0)"/>
     <use xlink:href="#DejaVuSans-61" transform="translate(1991.011719 0)"/>
     <use xlink:href="#DejaVuSans-74" transform="translate(2052.291016 0)"/>
     <use xlink:href="#DejaVuSans-20" transform="translate(2091.5 0)"/>
     <use xlink:href="#DejaVuSans-6c" transform="translate(2123.287109 0)"/>
     <use xlink:href="#DejaVuSans-65" transform="translate(2151.070312 0)"/>
     <use xlink:href="#DejaVuSans-61" transform="translate(2212.59375 0)"/>
     <use xlink:href="#DejaVuSans-73" transform="translate(2273.873047 0)"/>
     <use xlink:href="#DejaVuSans-74" transform="translate(2325.972656 0)"/>
     <use xlink:href="#DejaVuSans-20" transform="translate(2365.181641 0)"/>
     <use xlink:href="#DejaVuSans-33" transform="translate(2396.96875 0)"/>
     <use xlink:href="#DejaVuSans-20" transform="translate(2460.591797 0)"/>
     <use xlink:href="#DejaVuSans-74" transform="translate(2492.378906 0)"/>
     <use xlink:href="#DejaVuSans-72" transform="translate(2531.587891 0)"/>
     <use xlink:href="#DejaVuSans-69" transform="translate(2572.701172 0)"/>
     <use xlink:href="#DejaVuSans-61" transform="translate(2600.484375 0)"/>
     <use xlink:href="#DejaVuSans-6c" transform="translate(2661.763672 0)"/>
     <use xlink:href="#DejaVuSans-73" transform="translate(2689.546875 0)"/>
     <use xlink:href="#DejaVuSans-2f" transform="translate(2741.646484 0)"/>
     <use xlink:href="#DejaVuSans-66" transform="translate(2775.337891 0)"/>
     <use xlink:href="#DejaVuSans-75" transform="translate(2810.542969 0)"/>
     <use xlink:href="#DejaVuSans-7a" transform="translate(2873.921875 0)"/>
     <use xlink:href="#DejaVuSans-7a" transform="translate(2926.412109 0)"/>
     <use xlink:href="#DejaVuSans-65" transform="translate(2978.902344 0)"/>
     <use xlink:href="#DejaVuSans-72" transform="translate(3040.425781 0)"/>
     <use xlink:href="#DejaVuSans-29" transform="translate(3081.539062 0)"/>
    </g>
   </g>
   <g id="legend_1">
    <g id="line2d_27">
     <path d="M 765.205625 30.416562 
L 775.205625 30.416562 
L 785.205625 30.416562 
" style="fill: none; stroke: #d62728; stroke-width: 1.5; stroke-linecap: square"/>
     <g>
      <use xlink:href="#md15a636ce1" x="775.205625" y="30.416562" style="fill: #d62728; stroke: #ffffff; stroke-width: 0.75; stroke-linejoin: miter"/>
     </g>
    </g>
    <g id="text_17">
     <!-- aflplusplus_c11 -->
     <g transform="translate(793.205625 33.916562) scale(0.1 -0.1)">
      <use xlink:href="#DejaVuSans-61"/>
      <use xlink:href="#DejaVuSans-66" transform="translate(61.279297 0)"/>
      <use xlink:href="#DejaVuSans-6c" transform="translate(96.484375 0)"/>
      <use xlink:href="#DejaVuSans-70" transform="translate(124.267578 0)"/>
      <use xlink:href="#DejaVuSans-6c" transform="translate(187.744141 0)"/>
      <use xlink:href="#DejaVuSans-75" transform="translate(215.527344 0)"/>
      <use xlink:href="#DejaVuSans-73" transform="translate(278.90625 0)"/>
      <use xlink:href="#DejaVuSans-70" transform="translate(331.005859 0)"/>
      <use xlink:href="#DejaVuSans-6c" transform="translate(394.482422 0)"/>
      <use xlink:href="#DejaVuSans-75" transform="translate(422.265625 0)"/>
      <use xlink:href="#DejaVuSans-73" transform="translate(485.644531 0)"/>
      <use xlink:href="#DejaVuSans-5f" transform="translate(537.744141 0)"/>
      <use xlink:href="#DejaVuSans-63" transform="translate(587.744141 0)"/>
      <use xlink:href="#DejaVuSans-31" transform="translate(642.724609 0)"/>
      <use xlink:href="#DejaVuSans-31" transform="translate(706.347656 0)"/>
     </g>
    </g>
    <g id="line2d_28">
     <path d="M 765.205625 45.372813 
L 775.205625 45.372813 
L 785.205625 45.372813 
" style="fill: none; stroke: #c7c7c7; stroke-width: 1.5; stroke-linecap: square"/>
     <g>
      <use xlink:href="#m52f8dfbe81" x="775.205625" y="45.372813" style="fill: #c7c7c7; stroke: #ffffff; stroke-width: 0.75; stroke-linejoin: miter"/>
     </g>
    </g>
    <g id="text_18">
     <!-- aflplusplus_mopt -->
     <g transform="translate(793.205625 48.872813) scale(0.1 -0.1)">
      <use xlink:href="#DejaVuSans-61"/>
      <use xlink:href="#DejaVuSans-66" transform="translate(61.279297 0)"/>
      <use xlink:href="#DejaVuSans-6c" transform="translate(96.484375 0)"/>
      <use xlink:href="#DejaVuSans-70" transform="translate(124.267578 0)"/>
      <use xlink:href="#DejaVuSans-6c" transform="translate(187.744141 0)"/>
      <use xlink:href="#DejaVuSans-75" transform="translate(215.527344 0)"/>
      <use xlink:href="#DejaVuSans-73" transform="translate(278.90625 0)"/>
      <use xlink:href="#DejaVuSans-70" transform="translate(331.005859 0)"/>
      <use xlink:href="#DejaVuSans-6c" transform="translate(394.482422 0)"/>
      <use xlink:href="#DejaVuSans-75" transform="translate(422.265625 0)"/>
      <use xlink:href="#DejaVuSans-73" transform="translate(485.644531 0)"/>
      <use xlink:href="#DejaVuSans-5f" transform="translate(537.744141 0)"/>
      <use xlink:href="#DejaVuSans-6d" transform="translate(587.744141 0)"/>
      <use xlink:href="#DejaVuSans-6f" transform="translate(685.15625 0)"/>
      <use xlink:href="#DejaVuSans-70" transform="translate(746.337891 0)"/>
      <use xlink:href="#DejaVuSans-74" transform="translate(809.814453 0)"/>
     </g>
    </g>
    <g id="line2d_29">
     <path d="M 765.205625 60.329063 
L 775.205625 60.329063 
L 785.205625 60.329063 
" style="fill: none; stroke: #98df8a; stroke-width: 1.5; stroke-linecap: square"/>
     <g>
      <use xlink:href="#mb6454ca08c" x="775.205625" y="60.329063" style="fill: #98df8a; stroke: #ffffff; stroke-width: 0.75; stroke-linejoin: miter"/>
     </g>
    </g>
    <g id="text_19">
     <!-- aflplusplus_500c -->
     <g transform="translate(793.205625 63.829063) scale(0.1 -0.1)">
      <defs>
       <path id="DejaVuSans-35" d="M 691 4666 
L 3169 4666 
L 3169 4134 
L 1269 4134 
L 1269 2991 
Q 1406 3038 1543 3061 
Q 1681 3084 1819 3084 
Q 2600 3084 3056 2656 
Q 3513 2228 3513 1497 
Q 3513 744 3044 326 
Q 2575 -91 1722 -91 
Q 1428 -91 1123 -41 
Q 819 9 494 109 
L 494 744 
Q 775 591 1075 516 
Q 1375 441 1709 441 
Q 2250 441 2565 725 
Q 2881 1009 2881 1497 
Q 2881 1984 2565 2268 
Q 2250 2553 1709 2553 
Q 1456 2553 1204 2497 
Q 953 2441 691 2322 
L 691 4666 
z
" transform="scale(0.015625)"/>
      </defs>
      <use xlink:href="#DejaVuSans-61"/>
      <use xlink:href="#DejaVuSans-66" transform="translate(61.279297 0)"/>
      <use xlink:href="#DejaVuSans-6c" transform="translate(96.484375 0)"/>
      <use xlink:href="#DejaVuSans-70" transform="translate(124.267578 0)"/>
      <use xlink:href="#DejaVuSans-6c" transform="translate(187.744141 0)"/>
      <use xlink:href="#DejaVuSans-75" transform="translate(215.527344 0)"/>
      <use xlink:href="#DejaVuSans-73" transform="translate(278.90625 0)"/>
      <use xlink:href="#DejaVuSans-70" transform="translate(331.005859 0)"/>
      <use xlink:href="#DejaVuSans-6c" transform="translate(394.482422 0)"/>
      <use xlink:href="#DejaVuSans-75" transform="translate(422.265625 0)"/>
      <use xlink:href="#DejaVuSans-73" transform="translate(485.644531 0)"/>
      <use xlink:href="#DejaVuSans-5f" transform="translate(537.744141 0)"/>
      <use xlink:href="#DejaVuSans-35" transform="translate(587.744141 0)"/>
      <use xlink:href="#DejaVuSans-30" transform="translate(651.367188 0)"/>
      <use xlink:href="#DejaVuSans-30" transform="translate(714.990234 0)"/>
      <use xlink:href="#DejaVuSans-63" transform="translate(778.613281 0)"/>
     </g>
    </g>
    <g id="line2d_30">
     <path d="M 765.205625 75.285313 
L 775.205625 75.285313 
L 785.205625 75.285313 
" style="fill: none; stroke: #1f77b4; stroke-width: 1.5; stroke-linecap: square"/>
     <g>
      <use xlink:href="#me28e9e17de" x="775.205625" y="75.285313" style="fill: #1f77b4; stroke: #ffffff; stroke-width: 0.75"/>
     </g>
    </g>
    <g id="text_20">
     <!-- aflplusplus_440c -->
     <g transform="translate(793.205625 78.785313) scale(0.1 -0.1)">
      <use xlink:href="#DejaVuSans-61"/>
      <use xlink:href="#DejaVuSans-66" transform="translate(61.279297 0)"/>
      <use xlink:href="#DejaVuSans-6c" transform="translate(96.484375 0)"/>
      <use xlink:href="#DejaVuSans-70" transform="translate(124.267578 0)"/>
      <use xlink:href="#DejaVuSans-6c" transform="translate(187.744141 0)"/>
      <use xlink:href="#DejaVuSans-75" transform="translate(215.527344 0)"/>
      <use xlink:href="#DejaVuSans-73" transform="translate(278.90625 0)"/>
      <use xlink:href="#DejaVuSans-70" transform="translate(331.005859 0)"/>
      <use xlink:href="#DejaVuSans-6c" transform="translate(394.482422 0)"/>
      <use xlink:href="#DejaVuSans-75" transform="translate(422.265625 0)"/>
      <use xlink:href="#DejaVuSans-73" transform="translate(485.644531 0)"/>
      <use xlink:href="#DejaVuSans-5f" transform="translate(537.744141 0)"/>
      <use xlink:href="#DejaVuSans-34" transform="translate(587.744141 0)"/>
      <use xlink:href="#DejaVuSans-34" transform="translate(651.367188 0)"/>
      <use xlink:href="#DejaVuSans-30" transform="translate(714.990234 0)"/>
      <use xlink:href="#DejaVuSans-63" transform="translate(778.613281 0)"/>
     </g>
    </g>
   </g>
  </g>
 </g>
 <defs>
  <clipPath id="p3ea38ab733">
   <rect x="46.965625" y="22.318125" width="714.24" height="266.112"/>
  </clipPath>
 </defs>
</svg>
